<svg width="49" height="50" viewBox="0 0 49 50" fill="none" xmlns="http://www.w3.org/2000/svg">
<mask id="mask0_2640_750" style="mask-type:luminance" maskUnits="userSpaceOnUse" x="0" y="0" width="49" height="50">
<path d="M49 0.5H0V49.5H49V0.5Z" fill="white"/>
</mask>
<g mask="url(#mask0_2640_750)">
<path d="M24.5 49.5C38.031 49.5 49 38.531 49 25C49 11.469 38.031 0.5 24.5 0.5C10.969 0.5 0 11.469 0 25C0 38.531 10.969 49.5 24.5 49.5Z" fill="#FFC727"/>
</g>
<g clip-path="url(#clip0_2640_750)">
<path d="M39.041 12.457C34.2005 6.60429 27.8464 7.0549 27.6204 7.07611H27.6099C25.1029 7.07611 23.3633 8.57109 22.6748 11.3013H16.0474C14.0187 11.3013 12.3684 12.9659 12.3684 15.0122V35.1573C12.3684 37.2036 14.0187 38.8682 16.0474 38.8682H29.7122C31.7409 38.8682 33.3911 37.2036 33.3911 35.1573V15.0122C33.3911 12.9659 31.7409 11.3013 29.7122 11.3013H23.7732C24.3776 9.20725 25.6653 8.13638 27.6572 8.13638C27.715 8.12578 33.7485 7.71757 38.2316 13.1355C40.7438 16.1732 41.343 20.1651 40.1657 21.4533C39.3511 22.344 37.5641 21.904 35.2727 20.2552C35.0362 20.0856 34.7103 20.1386 34.5369 20.3772C34.3687 20.6157 34.4212 20.9444 34.6578 21.1141C36.6024 22.5083 38.0109 22.9589 39.02 22.9589C39.987 22.9589 40.5862 22.5507 40.933 22.169C42.6254 20.3295 41.7214 15.6961 39.0357 12.4517L39.041 12.457ZM32.3347 15.0122V35.1573C32.3347 36.6205 31.1575 37.808 29.7069 37.808H16.0421C14.5916 37.808 13.4143 36.6205 13.4143 35.1573V15.0122C13.4143 13.549 14.5916 12.3615 16.0421 12.3615H22.4646C22.2964 13.549 22.3647 14.4821 22.37 14.5298C22.391 14.8214 22.638 15.0387 22.9323 15.0175C23.2214 14.9963 23.4369 14.7418 23.4159 14.4503C23.4159 14.4397 23.3528 13.5066 23.5262 12.3668H29.7069C31.1575 12.3668 32.3347 13.5543 32.3347 15.0175V15.0122Z" fill="black"/>
<path d="M26.0278 20.3136C26.0278 18.5589 24.614 17.1328 22.8744 17.1328C21.1348 17.1328 19.721 18.5589 19.721 20.3136C19.721 21.3474 20.2098 22.2592 20.9666 22.8424C19.3058 23.5845 18.1443 25.2598 18.1443 27.2054C18.1443 28.0801 18.8538 28.7958 19.721 28.7958H26.0278C26.895 28.7958 27.6045 28.0801 27.6045 27.2054C27.6045 25.2598 26.443 23.5845 24.7822 22.8424C25.539 22.2592 26.0278 21.3474 26.0278 20.3136ZM26.5534 27.2054C26.5534 27.4969 26.3169 27.7355 26.0278 27.7355H19.721C19.4319 27.7355 19.1954 27.4969 19.1954 27.2054C19.1954 25.159 20.8457 23.4944 22.8744 23.4944C24.9031 23.4944 26.5534 25.159 26.5534 27.2054ZM22.8744 22.4342C21.7129 22.4342 20.7721 21.4852 20.7721 20.3136C20.7721 19.142 21.7129 18.1931 22.8744 18.1931C24.0359 18.1931 24.9767 19.142 24.9767 20.3136C24.9767 21.4852 24.0359 22.4342 22.8744 22.4342Z" fill="black"/>
<path d="M18.1445 30.9163C17.8554 30.9163 17.6189 31.1548 17.6189 31.4464C17.6189 31.738 17.8554 31.9765 18.1445 31.9765H27.6047C27.8938 31.9765 28.1303 31.738 28.1303 31.4464C28.1303 31.1548 27.8938 30.9163 27.6047 30.9163H18.1445Z" fill="black"/>
<path d="M27.6047 34.0972H18.1445C17.8554 34.0972 17.6189 34.3357 17.6189 34.6273C17.6189 34.9189 17.8554 35.1574 18.1445 35.1574H27.6047C27.8938 35.1574 28.1303 34.9189 28.1303 34.6273C28.1303 34.3357 27.8938 34.0972 27.6047 34.0972Z" fill="black"/>
</g>
<defs>
<clipPath id="clip0_2640_750">
<rect width="37" height="38" fill="white" transform="translate(6 6)"/>
</clipPath>
</defs>
</svg>
