<svg width="79" height="79" viewBox="0 0 79 79" fill="none" xmlns="http://www.w3.org/2000/svg">
<g clip-path="url(#clip0_2640_861)">
<path d="M17.135 44.6498C21.2598 44.6498 24.6156 41.2939 24.6156 37.1691C24.6156 33.0443 21.2598 29.6885 17.135 29.6885C13.0102 29.6885 9.65436 33.0443 9.65436 37.1691C9.65436 41.2939 13.0102 44.6498 17.135 44.6498ZM17.135 32.1571C19.8986 32.1571 22.1468 34.4054 22.1468 37.169C22.1468 39.9326 19.8986 42.1808 17.135 42.1808C14.3714 42.1808 12.1231 39.9326 12.1231 37.169C12.1231 34.4054 14.3714 32.1571 17.135 32.1571ZM76.0042 47.6997C74.3842 45.9869 72.112 45.0435 69.6064 45.0435H58.3808C56.192 45.0435 54.3755 44.291 52.8277 42.7431L45.4923 35.4078C43.8408 33.7567 41.1539 33.7567 39.5025 35.4078C39.5015 35.4088 39.5008 35.4097 39.4998 35.4106C39.4991 35.4097 39.4983 35.4089 39.4974 35.408C38.6998 34.6103 37.6362 34.171 36.5025 34.171C35.3687 34.171 34.3053 34.6103 33.5076 35.4078L26.1723 42.7431C24.6245 44.291 22.8079 45.0435 20.619 45.0435H9.39328C6.88766 45.0435 4.61548 45.9869 2.99567 47.6997C1.33868 49.4518 0.462891 51.8446 0.462891 54.62V71.3038C0.462891 72.4318 0.904334 73.4945 1.70606 74.2962C2.50779 75.0979 3.57028 75.5394 4.69834 75.5392C6.60452 75.5392 8.22078 74.2735 8.75048 72.5383H26.5705C27.2522 72.5383 27.8049 71.9856 27.8049 71.3039V53.0904L39.4975 41.3979C39.4985 41.397 39.4991 41.3962 39.5 41.3953C39.5009 41.3962 39.5015 41.397 39.5025 41.3979L51.1951 53.0904V71.3039C51.1951 71.9856 51.7478 72.5383 52.4295 72.5383H70.2495C70.7792 74.2735 72.3953 75.5392 74.3015 75.5392H74.302C75.4299 75.5392 76.4924 75.0978 77.2939 74.2962C78.0955 73.4946 78.5371 72.4318 78.5371 71.3038V54.62C78.5371 51.8448 77.661 49.4519 76.0042 47.6997ZM37.7517 39.6519L25.6975 51.7061C25.4661 51.9377 25.336 52.2515 25.336 52.5789V70.0692H8.93379V57.1217C8.93379 56.44 8.3811 55.8873 7.69941 55.8873C7.01773 55.8873 6.46504 56.44 6.46504 57.1217V71.3036C6.46504 72.2777 5.67242 73.0702 4.69819 73.0702C4.22974 73.0702 3.78706 72.8856 3.45178 72.5503C3.11649 72.215 2.93179 71.7722 2.93179 71.3036V54.6198C2.93179 50.3685 5.52846 47.5123 9.39344 47.5123H20.619C23.4561 47.5123 25.9118 46.495 27.9182 44.4888L35.2534 37.1535C35.5847 36.8223 36.0283 36.6396 36.5026 36.6396C36.9769 36.6396 37.4205 36.8221 37.752 37.1535C38.0783 37.4799 38.2593 37.9152 38.2647 38.3813V38.4243C38.2593 38.8903 38.0782 39.3256 37.752 39.6519H37.7517ZM76.0682 71.3038C76.0682 71.7724 75.8837 72.215 75.5482 72.5505C75.2128 72.8859 74.7704 73.0703 74.3018 73.0703C73.3277 73.0703 72.5351 72.2778 72.5351 71.3038V57.1219C72.5351 56.4402 71.9824 55.8875 71.3007 55.8875C70.6191 55.8875 70.0664 56.4402 70.0664 57.1219V70.0694H53.664V52.5791C53.664 52.2517 53.5339 51.9378 53.3025 51.7062L41.2483 39.6521C40.9135 39.3172 40.7429 38.8804 40.7334 38.4407C40.7334 38.428 40.7344 38.4155 40.7344 38.4029C40.7344 38.3902 40.7336 38.3777 40.7334 38.3651C40.7427 37.9253 40.9135 37.4885 41.2483 37.1537C41.9371 36.4646 43.0582 36.4649 43.7467 37.1537L51.082 44.489C53.0883 46.4951 55.5439 47.5124 58.381 47.5124H69.6066C73.4715 47.5124 76.0684 50.3688 76.0684 54.62V71.3038H76.0682ZM61.8649 44.6498C65.9897 44.6498 69.3455 41.2939 69.3455 37.1691C69.3455 33.0443 65.9897 29.6885 61.8649 29.6885C57.74 29.6885 54.3842 33.0443 54.3842 37.1691C54.3842 41.2939 57.74 44.6498 61.8649 44.6498ZM61.8649 32.1571C64.6285 32.1571 66.8767 34.4054 66.8767 37.169C66.8767 39.9326 64.6285 42.1808 61.8649 42.1808C59.1013 42.1808 56.853 39.9326 56.853 37.169C56.853 34.4054 59.1013 32.1571 61.8649 32.1571ZM41.1732 49.2077C40.7405 48.7272 40.1463 48.4624 39.4998 48.4624C38.8533 48.4624 38.259 48.7272 37.826 49.208L29.8848 58.0338C29.2815 58.7039 29.1346 59.632 29.5017 60.4559C29.8686 61.2797 30.6566 61.7914 31.5583 61.7914H33.6984V76.3693C33.6984 77.5645 34.671 78.5371 35.8662 78.5371H43.1334C44.3286 78.5371 45.3011 77.5644 45.3011 76.3692V61.7914H47.4413C48.3431 61.7914 49.1309 61.2797 49.4978 60.4559C49.8647 59.6323 49.718 58.7042 49.115 58.0341L41.1732 49.2077ZM44.0667 59.3228C43.385 59.3228 42.8323 59.8755 42.8323 60.5571V76.0683H36.1673V60.5571C36.1673 59.8755 35.6147 59.3228 34.933 59.3228H32.0462L39.4998 51.0389L46.9536 59.3228H44.0669H44.0667ZM25.3855 20.0817L27.0212 20.346C27.2354 21.0071 27.502 21.6503 27.819 22.2698L26.8489 23.6138C26.2559 24.4356 26.3454 25.5523 27.0621 26.2694L29.535 28.7424C30.2518 29.4588 31.3684 29.5489 32.1906 28.9556L33.5347 27.9857C34.1544 28.3028 34.7975 28.5694 35.4585 28.7834L35.7228 30.4191C35.8847 31.4197 36.7378 32.146 37.7514 32.146H41.2485C42.2621 32.146 43.1153 31.4197 43.277 30.4189L43.5415 28.7832C44.2027 28.5691 44.8456 28.3025 45.4651 27.9855L46.8092 28.9556C47.6311 29.5487 48.7478 29.4589 49.4648 28.7424L51.9377 26.2694C52.6544 25.5526 52.7441 24.4358 52.151 23.6138L51.181 22.2699C51.4983 21.6501 51.7649 21.007 51.9789 20.346L53.6146 20.0817C54.6151 19.9198 55.3414 19.0667 55.3414 18.0531V14.556C55.3414 13.5424 54.6151 12.6892 53.6145 12.5275L51.9784 12.263C51.7644 11.6021 51.4978 10.959 51.1809 10.3395L52.151 8.99529C52.7442 8.1732 52.6544 7.0564 51.9376 6.33953L49.465 3.86708C48.7481 3.14975 47.6313 3.06011 46.8092 3.65353L45.465 4.6236C44.8456 4.30652 44.2027 4.04005 43.5415 3.82588L43.277 2.18987C43.1152 1.18941 42.2621 0.463135 41.2485 0.463135H37.7514C36.7378 0.463135 35.8845 1.18941 35.7228 2.19003L35.4583 3.82588C34.7973 4.03989 34.1542 4.30652 33.5347 4.62344L32.1908 3.65338C31.3689 3.06041 30.2519 3.14991 29.5352 3.86677L27.062 6.33984C26.3454 7.0567 26.2558 8.1735 26.8489 8.99529L27.8188 10.3394C27.5017 10.9589 27.2351 11.602 27.0209 12.263L25.3854 12.5275C24.3848 12.6893 23.6585 13.5424 23.6585 14.556V18.0531C23.6585 19.0667 24.3848 19.92 25.3855 20.0817ZM26.1272 14.9083L28.1859 14.5754C28.6711 14.4969 29.0634 14.1383 29.1849 13.6623C29.4343 12.6862 29.8225 11.7503 30.3386 10.8808C30.5895 10.4582 30.5659 9.92678 30.2781 9.52823L29.057 7.83621L31.0319 5.86137L32.7237 7.08247C33.1223 7.37039 33.6534 7.394 34.0762 7.14326C34.9456 6.62714 35.8816 6.23908 36.8578 5.98959C37.334 5.868 37.6926 5.47562 37.771 4.99051L38.1038 2.93173H40.8964L41.2292 4.99051C41.3076 5.47562 41.6662 5.868 42.1422 5.98959C43.119 6.23924 44.0548 6.6273 44.9237 7.14311C45.3466 7.39431 45.8779 7.37039 46.2763 7.08263L47.9684 5.86152L49.9431 7.83621L48.722 9.52839C48.4346 9.92693 48.4106 10.458 48.6614 10.8808C49.1775 11.7503 49.5654 12.6861 49.8149 13.6623C49.9365 14.1385 50.3289 14.4971 50.814 14.5754L52.8729 14.9083V17.7009L50.8143 18.0335C50.329 18.1119 49.9366 18.4707 49.8151 18.9468C49.566 19.9229 49.178 20.8589 48.6617 21.7283C48.4108 22.151 48.4344 22.6823 48.7222 23.0809L49.9431 24.7729L47.9684 26.7476L46.2764 25.5265C45.878 25.239 45.3466 25.215 44.924 25.4659C44.0548 25.9818 43.119 26.3697 42.1422 26.6195C41.6662 26.7411 41.3076 27.1335 41.2292 27.6186L40.8964 29.6774H38.1038L37.7711 27.6186C37.6927 27.1334 37.334 26.741 36.8578 26.6194C35.8817 26.3704 34.9458 25.9823 34.0763 25.466C33.6537 25.215 33.1223 25.2389 32.7237 25.5265L31.0317 26.7476L29.057 24.7729L30.2781 23.0809C30.5657 22.6823 30.5895 22.1513 30.3388 21.7285C29.8228 20.8593 29.4349 19.9234 29.1851 18.9465C29.0635 18.4705 28.6711 18.1119 28.186 18.0335L26.1272 17.7009V14.9083ZM39.4998 24.7451C44.1541 24.7451 47.9405 20.9587 47.9405 16.3045C47.9405 11.6503 44.1541 7.86383 39.4998 7.86383C34.8456 7.86383 31.0593 11.6503 31.0593 16.3045C31.0593 20.9587 34.8458 24.7451 39.4998 24.7451ZM39.4998 10.3326C42.7928 10.3326 45.4718 13.0115 45.4718 16.3045C45.4718 19.5975 42.7928 22.2764 39.4998 22.2764C36.2068 22.2764 33.5281 19.5975 33.5281 16.3045C33.5281 13.0115 36.207 10.3326 39.4998 10.3326Z" fill="black"/>
</g>
<defs>
<clipPath id="clip0_2640_861">
<rect width="79" height="79" fill="white"/>
</clipPath>
</defs>
</svg>
