<svg width="60" height="60" viewBox="0 0 60 60" fill="none" xmlns="http://www.w3.org/2000/svg">
<path fill-rule="evenodd" clip-rule="evenodd" d="M20.9464 14.6166C21.5086 14.4281 22.1462 14.553 22.5925 14.9796C25.3908 17.6541 26.6856 20.3271 27.094 21.7496C27.2626 22.337 27.0569 22.9126 26.6864 23.2859L24.5961 25.3925C24.8762 26.3907 25.5425 27.4935 26.3452 28.5211C27.1819 29.5922 28.0013 30.6641 28.5938 31.1719C29.113 31.7531 30.2275 32.5755 31.3176 33.3917C32.366 34.1766 33.4901 34.8255 34.5038 35.0889L36.5985 32.978C36.969 32.6046 37.5402 32.3964 38.1255 32.5533C39.5601 32.9381 42.2673 34.1852 44.9988 36.9273C45.4355 37.3657 45.5732 38.0032 45.3893 38.5713C44.8621 40.2006 44.2023 42.2401 42.9376 44.2528C42.6424 44.7225 42.1147 45.0224 41.5299 44.9985C38.0876 44.8582 30.5034 42.7336 23.8558 35.9876C16.9721 29.4793 14.7241 21.9726 14.5337 18.5496C14.5009 17.9607 14.7999 17.4301 15.266 17.1317C17.2725 15.8473 19.3143 15.1633 20.9464 14.6166ZM16.4175 18.6219C16.6508 21.6663 18.7388 28.5752 25.1557 34.6362C25.1639 34.644 25.1721 34.652 25.18 34.6601C31.3763 40.9543 38.3679 42.9306 41.4361 43.1165C42.504 41.3767 43.0449 39.7251 43.5584 38.139C41.2145 35.8234 38.9645 34.7647 37.8145 34.4145L35.7282 36.5169C35.3706 36.8773 34.8283 37.0841 34.2623 36.959C32.8204 36.6405 31.3764 35.7781 30.1938 34.8926C29.024 34.0167 28.0225 33.2436 27.4219 32.5781C26.7437 31.991 25.766 30.8253 24.8676 29.6753C23.9598 28.5132 23.07 27.0895 22.7283 25.6586C22.5924 25.0895 22.7977 24.5428 23.1548 24.183L25.2361 22.0856C24.8649 20.9472 23.7669 18.7313 21.406 16.44C19.8149 16.9734 18.1569 17.5345 16.4175 18.6219Z" fill="black"/>
<path d="M31.1591 3.14458C31.4935 2.74926 32.0851 2.69986 32.4804 3.03423C32.8757 3.36861 32.9251 3.96014 32.5907 4.35546L30.7148 6.57323C40.7064 6.87253 49.1245 13.4248 52.1939 22.4481C52.3607 22.9383 52.0982 23.4708 51.6084 23.6376C51.1181 23.8043 50.5856 23.5421 50.4187 23.052C47.5879 14.7307 39.8142 8.69695 30.5987 8.4457L32.5696 10.6205C32.9173 11.0041 32.8882 11.597 32.5045 11.9447C32.1208 12.2924 31.5279 12.2632 31.1803 11.8796L28.4502 8.86711C27.8191 8.17073 27.8011 7.11473 28.408 6.39717L31.1591 3.14458Z" fill="black"/>
<path d="M11.9658 27.9883C12.3002 28.3836 12.2508 28.9752 11.8554 29.3095L8.60288 32.0607C7.88531 32.6676 6.82927 32.6496 6.13289 32.0184L3.12046 29.2884C2.7368 28.9407 2.70764 28.3478 3.05533 27.9642C3.40302 27.5805 3.9959 27.5514 4.37956 27.8991L6.56283 29.8777C6.61763 19.1502 13.8785 10.1298 23.7506 7.40513C24.2497 7.26736 24.7659 7.56028 24.9037 8.05941C25.0415 8.55853 24.7485 9.07477 24.2494 9.21253C15.2106 11.7073 8.55328 19.9401 8.439 29.7435L10.6446 27.878C11.0399 27.5436 11.6314 27.593 11.9658 27.9883Z" fill="black"/>
<path d="M27.9657 48.5226C28.3502 48.1757 28.9429 48.2062 29.2898 48.5906L31.9845 51.5775C32.6449 52.3097 32.6257 53.4281 31.9405 54.1368L29.2678 56.9015C28.9079 57.2737 28.3144 57.284 27.9422 56.924C27.5699 56.564 27.5598 55.9706 27.9197 55.5984L30.0086 53.4375H30C19.3135 53.4375 10.2997 46.2861 7.47864 36.5099C7.33511 36.0124 7.62198 35.4928 8.11947 35.3492C8.61695 35.2057 9.13656 35.4926 9.28014 35.9901C11.8263 44.8137 19.8566 51.3107 29.4392 51.5554L27.8977 49.8468C27.5508 49.4625 27.5813 48.8695 27.9657 48.5226Z" fill="black"/>
<path d="M53.4301 30.5936L55.622 32.5712C56.0063 32.918 56.5993 32.8876 56.9462 32.5031C57.293 32.1187 57.2626 31.5259 56.8782 31.1791L53.8913 28.4843C53.1591 27.8239 52.0412 27.8432 51.332 28.5284L48.5673 31.2011C48.1951 31.561 48.1848 32.1544 48.5448 32.5267C48.9048 32.899 49.4982 32.909 49.8704 32.5492L51.5429 30.9325C51.1595 39.9438 45.245 47.5253 37.105 50.365C36.6162 50.5356 36.3581 51.0699 36.5286 51.5589C36.6992 52.0478 37.2337 52.306 37.7226 52.1354C46.6941 49.0056 53.1821 40.5752 53.4301 30.5936Z" fill="black"/>
</svg>
