<svg width="44" height="44" viewBox="0 0 44 44" fill="none" xmlns="http://www.w3.org/2000/svg">
<path d="M5.49174 19.966C5.5592 20.2318 5.79845 20.418 6.07267 20.418H9.26113C9.53535 20.418 9.7746 20.2319 9.84206 19.966L10.2769 18.2514C10.6099 18.0965 10.9286 17.9126 11.2295 17.7017L12.9319 18.1824C13.1957 18.2568 13.4764 18.1429 13.6137 17.9056L15.2103 15.1444C15.3477 14.9067 15.3061 14.6061 15.1092 14.4146L13.84 13.1808C13.8724 12.815 13.8724 12.4473 13.84 12.0818L15.1096 10.8455C15.3061 10.6541 15.3477 10.3537 15.2103 10.1161L13.6137 7.35483C13.4765 7.11764 13.1955 7.00343 12.9321 7.07802L11.2275 7.55876C10.929 7.34924 10.611 7.16559 10.2771 7.00987L9.84206 5.29456C9.7746 5.02867 9.53535 4.84253 9.26113 4.84253H6.07276C5.79853 4.84253 5.55928 5.02867 5.49182 5.29456L5.05698 7.00919C4.72397 7.16404 4.40523 7.34795 4.10436 7.55876L2.40185 7.07802C2.13828 7.00351 1.85735 7.11747 1.72011 7.35483L0.123478 10.116C-0.0139365 10.3537 0.0276572 10.6543 0.22454 10.8458L1.49384 12.0796C1.46135 12.4454 1.46135 12.8131 1.49384 13.1786L0.224196 14.4149C0.0276572 14.6064 -0.0138506 14.9069 0.123478 15.1444L1.72011 17.9056C1.85727 18.1428 2.1382 18.2573 2.40168 18.1824L4.10634 17.7017C4.4048 17.9112 4.72285 18.0949 5.05681 18.2506L5.49174 19.966ZM4.06354 16.4683L2.52457 16.9023L1.39475 14.9483L2.54056 13.8325C2.6772 13.6993 2.74234 13.5092 2.71604 13.3203C2.6521 12.8618 2.6521 12.3966 2.71604 11.9376C2.74234 11.7486 2.67702 11.5583 2.54021 11.4252L1.39492 10.3118L2.52449 8.35823L4.06088 8.79205C4.24401 8.84387 4.44106 8.80545 4.59154 8.68849C4.95781 8.40378 5.36137 8.17098 5.79097 7.99661C5.96766 7.92494 6.09966 7.77343 6.14658 7.58858L6.53897 6.04119H8.79483L9.18722 7.58858C9.23388 7.77291 9.36545 7.92408 9.54137 7.99601C9.97441 8.17304 10.3774 8.40584 10.7391 8.68789C10.8895 8.80528 11.087 8.84387 11.2703 8.79205L12.8093 8.35806L13.9391 10.3122L12.7932 11.428C12.6565 11.561 12.5914 11.7513 12.6178 11.9403C12.6818 12.3988 12.6818 12.8639 12.6178 13.3228C12.5914 13.5118 12.6567 13.7022 12.7937 13.8353L13.939 14.9487L12.8093 16.9022L11.2728 16.4684C11.0899 16.417 10.8926 16.4551 10.7422 16.572C10.3757 16.8569 9.97226 17.0897 9.54274 17.2639C9.36606 17.3356 9.23406 17.4871 9.18713 17.6719L8.79474 19.2193H6.53888L6.14649 17.6719C6.09983 17.4876 5.96834 17.3365 5.79243 17.2645C5.35931 17.0874 4.95634 16.8546 4.59463 16.5726C4.44424 16.455 4.24667 16.4165 4.06354 16.4683ZM11.6246 12.6291C11.6246 10.4469 9.8492 8.67147 7.66699 8.67147C5.48477 8.67147 3.70939 10.4469 3.70939 12.6291C3.70939 14.8126 5.48477 16.5891 7.66699 16.5891C9.84911 16.589 11.6246 14.8126 11.6246 12.6291ZM4.90813 12.6291C4.90813 11.1078 6.14572 9.87022 7.66699 9.87022C9.18817 9.87022 10.4258 11.1078 10.4258 12.6291C10.4258 14.1516 9.18825 15.3903 7.66699 15.3903C6.14572 15.3903 4.90813 14.1516 4.90813 12.6291ZM36.3331 5.00744C32.1306 5.00744 28.7115 8.42647 28.7115 12.629C28.7115 16.8328 32.1306 20.2528 36.3331 20.2528C40.5369 20.2528 43.957 16.8328 43.957 12.629C43.957 8.42655 40.5369 5.00744 36.3331 5.00744ZM41.2782 16.7265L40.6464 16.0948C40.4124 15.8607 40.0329 15.8607 39.7988 16.0948C39.5648 16.3289 39.5648 16.7084 39.7988 16.9424L40.4306 17.5742C39.4621 18.3779 38.2548 18.9024 36.9324 19.0253V18.1298C36.9324 17.7987 36.6641 17.5303 36.3331 17.5303C36.002 17.5303 35.7337 17.7987 35.7337 18.1298V19.0253C34.4119 18.9023 33.2051 18.3779 32.2372 17.5743L32.8678 16.9418C33.1016 16.7073 33.101 16.3279 32.8666 16.0942C32.6323 15.8606 32.2528 15.8609 32.019 16.0954L31.3898 16.7265C30.5863 15.7581 30.062 14.5507 29.9392 13.2284H30.8324C31.1634 13.2284 31.4318 12.9601 31.4318 12.6291C31.4318 12.298 31.1634 12.0297 30.8324 12.0297H29.9392C30.0621 10.7081 30.5863 9.50146 31.3894 8.53355L32.019 9.16501C32.1361 9.28249 32.2898 9.34127 32.4434 9.34127C32.5964 9.34127 32.7496 9.28292 32.8665 9.1663C33.1009 8.93255 33.1015 8.55314 32.8677 8.3187L32.2369 7.68594C33.2049 6.88243 34.4118 6.35812 35.7336 6.23515V7.1307C35.7336 7.46173 36.002 7.73003 36.333 7.73003C36.664 7.73003 36.9323 7.46165 36.9323 7.1307V6.23515C38.2548 6.35804 39.4623 6.88243 40.4307 7.68603L39.7988 8.31801C39.5647 8.55211 39.5647 8.93161 39.7988 9.1657C39.9158 9.28275 40.0692 9.34127 40.2226 9.34127C40.376 9.34127 40.5294 9.28275 40.6464 9.1657L41.2786 8.53355C42.0821 9.50146 42.6064 10.7081 42.7293 12.0297H41.8338C41.5028 12.0297 41.2344 12.298 41.2344 12.6291C41.2344 12.9601 41.5028 13.2284 41.8338 13.2284H42.7293C42.6064 14.5506 42.0819 15.7581 41.2782 16.7265ZM39.2482 14.6069C39.4865 14.8367 39.4935 15.216 39.2638 15.4544C39.1461 15.5764 38.9893 15.6377 38.8322 15.6377C38.6825 15.6377 38.5326 15.582 38.4164 15.4699L35.9171 13.0605C35.7999 12.9475 35.7337 12.7917 35.7337 12.629V9.55225C35.7337 9.22122 36.0021 8.95292 36.3332 8.95292C36.6642 8.95292 36.9325 9.22122 36.9325 9.55225V12.3743L39.2482 14.6069ZM33.5511 29.0764C33.4377 28.9275 33.2614 28.8401 33.0742 28.8401C32.8871 28.8401 32.7107 28.9276 32.5974 29.0766L29.2003 33.5413C29.0623 33.7225 29.0391 33.9662 29.1403 34.1703C29.2414 34.3744 29.4495 34.5035 29.6773 34.5035H31.1842V38.558C31.1842 38.8891 31.4526 39.1574 31.7835 39.1574H34.3678C34.6988 39.1574 34.9671 38.889 34.9671 38.558V34.5035H36.4738C36.7016 34.5035 36.9096 34.3744 37.0109 34.1703C37.1121 33.9661 37.0887 33.7223 36.9507 33.5411L33.5511 29.0764ZM34.3677 33.3048C34.0366 33.3048 33.7683 33.5732 33.7683 33.9042V37.9587H32.3828V33.9042C32.3828 33.5732 32.1144 33.3048 31.7834 33.3048H30.8863L33.0744 30.429L35.264 33.3048H34.3677ZM11.4025 29.0764C11.2892 28.9275 11.1128 28.8401 10.9257 28.8401C10.7386 28.8401 10.5623 28.9275 10.449 29.0764L7.04944 33.5411C6.91142 33.7223 6.88813 33.9661 6.9892 34.1703C7.09035 34.3744 7.2984 34.5035 7.52622 34.5035H9.03288V38.558C9.03288 38.8891 9.30126 39.1574 9.63229 39.1574H12.2189C12.55 39.1574 12.8183 38.889 12.8183 38.558V34.5035H14.3251C14.5528 34.5035 14.761 34.3744 14.8621 34.1703C14.9633 33.9661 14.94 33.7223 14.8019 33.5411L11.4025 29.0764ZM12.219 33.3048C11.888 33.3048 11.6196 33.5732 11.6196 33.9042V37.9587H10.2317V33.9042C10.2317 33.5732 9.96341 33.3048 9.63238 33.3048H8.73588L10.9256 30.4287L13.1154 33.3048H12.219ZM36.5271 22.1309H32.0477C31.8304 21.9052 31.5625 21.6159 31.2628 21.2923C29.0311 18.8825 26.9043 16.7059 25.4065 16.462C26.705 15.4468 27.5421 13.8674 27.5421 12.0952C27.5421 9.03929 25.0559 6.55312 22 6.55312C18.944 6.55312 16.4579 9.03929 16.4579 12.0952C16.4579 13.8674 17.295 15.4468 18.5936 16.462C17.0968 16.7061 14.9689 18.8834 12.7358 21.2941C12.4367 21.617 12.1693 21.9056 11.9523 22.131H7.47277C6.05995 22.131 4.91045 23.2805 4.91045 24.6934C4.91045 26.1077 6.05987 27.2582 7.47277 27.2582H12.0128C13.3861 27.2582 14.5739 26.7654 15.5424 25.7942L15.8878 25.4488V38.5582C15.8878 38.8893 16.1562 39.1575 16.4871 39.1575C16.8181 39.1575 17.0865 38.8892 17.0865 38.5582V29.8253H26.9136V38.5581C26.9136 38.8892 27.182 39.1575 27.513 39.1575C27.8441 39.1575 28.1125 38.8891 28.1125 38.5581V25.4487L28.4578 25.794C29.4292 26.7655 30.6175 27.2581 31.9899 27.2581H36.5273C37.9416 27.2581 39.0921 26.1076 39.0921 24.6933C39.0919 23.2804 37.9414 22.1309 36.5271 22.1309ZM17.6566 12.0952C17.6566 9.70023 19.605 7.75186 22 7.75186C24.395 7.75186 26.3434 9.70023 26.3434 12.0952C26.3434 14.4901 24.395 16.4385 22 16.4385C19.605 16.4385 17.6566 14.49 17.6566 12.0952ZM22.9223 17.6372L22.0003 19.2335L21.0796 17.6372H22.9223ZM36.5271 26.0595H31.9897C30.9322 26.0595 30.0541 25.6954 29.3053 24.9465L27.9368 23.5779C27.7654 23.4067 27.5076 23.3554 27.2836 23.4481C27.0596 23.5409 26.9136 23.7594 26.9136 24.0018V28.6266H17.0864V24.0018C17.0864 23.7594 16.9404 23.5408 16.7165 23.4481C16.4923 23.3554 16.2347 23.4067 16.0633 23.5779L14.6942 24.947C13.9581 25.6851 13.056 26.0594 12.0128 26.0594H7.47277C6.72081 26.0594 6.1092 25.4466 6.1092 24.6933C6.1092 23.9414 6.72081 23.3297 7.47277 23.3297H12.2044C12.3636 23.3297 12.5161 23.2663 12.6286 23.1537C12.8843 22.8976 13.2229 22.5319 13.6151 22.1086C14.8547 20.7704 17.7573 17.6372 18.8626 17.6372H19.6957L21.4808 20.7319C21.5878 20.9174 21.7857 21.0317 21.9999 21.0318H22.0001C22.2141 21.0318 22.412 20.9175 22.5191 20.7322L24.3067 17.6372H25.1376C26.2443 17.6372 29.1448 20.7692 30.3834 22.1068C30.7763 22.531 31.1155 22.8972 31.3716 23.1537C31.484 23.2663 31.6365 23.3297 31.7957 23.3297H36.5273C37.2806 23.3297 37.8934 23.9414 37.8934 24.6933C37.8932 25.4466 37.2804 26.0595 36.5271 26.0595ZM22.5994 32.3342V38.2038C22.5994 38.5348 22.331 38.8031 22 38.8031C21.669 38.8031 21.4006 38.5348 21.4006 38.2038V32.3342C21.4006 32.0032 21.669 31.7349 22 31.7349C22.331 31.7349 22.5994 32.0032 22.5994 32.3342Z" fill="black"/>
</svg>
