<svg width="48" height="48" viewBox="0 0 48 48" fill="none" xmlns="http://www.w3.org/2000/svg">
<rect width="48" height="48" rx="24" fill="#FFC727"/>
<g clip-path="url(#clip0_2640_695)">
<path d="M20.5573 36.5626C19.1862 35.6806 18.0485 34.4509 17.2679 33.0074L11.5639 22.4616C9.83783 19.2688 9.99721 15.3199 12.152 12.2381C13.3031 10.5938 15.7802 10.7119 16.7429 12.4915L17.9095 14.6485C18.0256 14.863 18.2937 14.9431 18.5087 14.8264C18.7232 14.7104 18.8033 14.4423 18.6872 14.2279L17.5206 12.0714C16.2389 9.70278 12.9485 9.5567 11.4279 11.732C10.1699 13.5302 9.50537 15.6413 9.50537 17.8371C9.50537 19.5876 9.94846 21.3322 10.7869 22.8823L16.4907 33.4281C17.3421 35.0024 18.5829 36.3434 20.0788 37.3055C20.2879 37.4399 20.5599 37.3756 20.6898 37.173C20.8218 36.9679 20.7623 36.6945 20.5573 36.5626Z" fill="black"/>
<path d="M36.1673 26.9289C35.9216 26.9171 35.7166 27.1045 35.7042 27.3484C35.6423 28.5821 34.9482 29.7864 33.8942 30.5429C33.4004 29.368 32.2039 28.6229 31.102 28.8861C30.1322 29.1149 29.452 30.2327 29.8612 31.1527C30.3493 32.2507 31.881 32.4177 33.2761 31.8774C33.3044 32.3011 33.1488 32.9839 32.8142 33.5135C32.2126 34.4669 30.7809 35.2251 29.6585 35.4991C29.6722 34.8553 29.5215 34.2593 29.2243 33.7109L27.9911 31.4308C27.2869 30.1279 25.6549 29.6301 24.3376 30.342C23.9845 30.4984 23.3551 31.0208 22.2778 31.0208C21.1 31.0208 20.0206 30.378 19.4609 29.3434L15.8315 22.6326C14.9937 21.0859 15.563 19.1408 17.123 18.2967C17.3464 18.1265 18.6624 17.7419 19.0089 16.2381C19.0637 16.0007 18.9158 15.7632 18.6778 15.7084C18.4398 15.6536 18.2029 15.8015 18.1481 16.0395C17.9032 17.0992 16.9636 17.3286 16.7029 17.5196C14.7113 18.5962 13.9856 21.0767 15.0537 23.0526L18.6837 29.7634C19.3978 31.0843 20.7747 31.9044 22.2777 31.9044C23.6172 31.9044 24.4286 31.2627 24.7581 31.1196C25.6476 30.6383 26.7424 30.9794 27.2139 31.8514L28.447 34.1315C29.3821 35.8602 28.2158 38.0346 26.2046 38.1097C24.7321 38.1605 23.3273 37.8872 22.0514 37.3497C21.8263 37.2548 21.5671 37.3603 21.4723 37.5853C21.378 37.8104 21.4835 38.0697 21.7085 38.1639C23.1319 38.7634 24.6729 39.0492 26.2376 38.9929C27.806 38.9346 29.0963 37.874 29.5152 36.4323C30.9755 36.1633 32.783 35.2187 33.5611 33.9854C34.0255 33.2513 34.2424 32.3256 34.132 31.4466C35.5537 30.5557 36.5064 28.9968 36.5866 27.3924C36.5992 27.1487 36.4112 26.9413 36.1673 26.9289ZM31.7844 31.2959C31.5752 31.2959 30.8759 31.2594 30.6684 30.7934C30.4911 30.3969 30.8652 29.8499 31.3059 29.7458C31.9172 29.6045 32.7681 30.0276 33.1188 30.9867C32.7197 31.1614 32.2219 31.2959 31.7844 31.2959Z" fill="black"/>
<path d="M37.9671 12.8432C31.1729 8.97703 31.5289 9 31.0301 9C30.448 9 29.9743 9.47373 29.9743 10.0558V11.2477H23.1386C22.0014 11.2477 21.0764 12.1727 21.0764 13.3099V14.2037C21.0764 15.3408 22.0014 16.2658 23.1386 16.2658H29.9743V17.4577C29.9743 18.2626 30.8482 18.7795 31.5568 18.371L37.9672 14.6703C38.6691 14.2642 38.6716 13.2509 37.9671 12.8432ZM29.9743 15.382H23.1386C22.4887 15.382 21.9602 14.8535 21.9602 14.2037V13.3099C21.9602 12.66 22.4887 12.1315 23.1386 12.1315H29.9743V15.382ZM37.6107 13.7565C37.6107 13.7936 37.5995 13.8619 37.5253 13.9049C30.7075 17.8322 31.1114 17.6297 31.0301 17.6297C30.9605 17.6297 30.8581 17.575 30.8581 17.4577C30.8581 16.0235 30.8581 11.7305 30.8581 10.0558C30.8581 9.92461 31 9.84129 31.1149 9.90733C37.7508 13.8022 37.6107 13.5508 37.6107 13.7565Z" fill="black"/>
<path d="M38.0526 23.4663C37.8081 23.4663 37.6106 23.6643 37.6106 23.9082V24.0284C37.6106 24.6783 37.0821 25.2068 36.4323 25.2068H29.596V21.9562H36.4323C36.813 21.9562 37.1724 22.1436 37.3951 22.4576C37.5359 22.6568 37.8116 22.7045 38.0108 22.5631C38.2099 22.4223 38.2571 22.1465 38.1163 21.9474C37.7286 21.3994 37.0993 21.0725 36.4324 21.0725H29.596V19.8805C29.596 19.0718 28.718 18.5599 28.014 18.9673L21.6037 22.668C20.9 23.0744 20.9006 24.089 21.6037 24.495C28.3855 28.3542 28.0405 28.3383 28.5402 28.3383C29.1223 28.3383 29.596 27.8645 29.596 27.2825V26.0905H36.4323C37.5694 26.0905 38.4944 25.1655 38.4944 24.0284V23.9082C38.4945 23.6643 38.2965 23.4663 38.0526 23.4663ZM28.5402 27.4545C28.458 27.4545 28.8691 27.6606 22.0456 23.7297C21.9311 23.6634 21.9315 23.4994 22.0456 23.4333C28.878 19.4973 28.4598 19.7085 28.5408 19.7085C28.6097 19.7085 28.7122 19.7633 28.7122 19.8805C28.7122 22.0058 28.7122 24.9291 28.7122 27.2825C28.7122 27.3997 28.6097 27.4545 28.5402 27.4545Z" fill="black"/>
</g>
<defs>
<clipPath id="clip0_2640_695">
<rect width="30" height="30" fill="white" transform="translate(9 9)"/>
</clipPath>
</defs>
</svg>
