<svg width="48" height="48" viewBox="0 0 48 48" fill="none" xmlns="http://www.w3.org/2000/svg">
<rect width="48" height="48" rx="24" fill="#FFC727"/>
<g clip-path="url(#clip0_2640_806)">
<path d="M34.2063 20.8686C33.7413 20.8686 33.28 20.6849 32.9387 20.3624C32.0462 19.5261 31.02 18.8161 29.89 18.2511C29.335 17.9824 29 17.3236 29 16.4936V13.2074C27.455 12.7824 25.6887 12.7436 24 12.7436C22.4063 12.7436 20.5937 12.7824 19 13.2111V16.4936C19 17.1261 18.7612 17.9174 18.09 18.2424C17.0087 18.7836 15.985 19.4949 15.0562 20.3549C14.42 20.9911 13.1875 21.0111 12.5013 20.3274L9.53125 17.3561C9.1975 17.0424 9 16.5711 9 16.0749C9 15.5836 9.1875 15.1249 9.53125 14.7824C13.4663 11.0536 18.6013 9.0061 24 9.0061C29.3987 9.0061 34.5338 11.0536 38.4563 14.7711C38.8125 15.1249 39 15.5836 39 16.0749C39 16.5674 38.8113 17.0261 38.4688 17.3674L35.4987 20.3374C35.1562 20.6811 34.6975 20.8686 34.2063 20.8686ZM24 11.4936C25.9488 11.4936 28.0038 11.5449 29.8225 12.1511C30.0775 12.2361 30.25 12.4749 30.25 12.7436V16.4936C30.25 16.8636 30.365 17.0924 30.4425 17.1299C31.6862 17.7511 32.8125 18.5311 33.795 19.4511C34.0288 19.6699 34.4075 19.6599 34.615 19.4524L37.585 16.4824C37.6913 16.3774 37.75 16.2324 37.75 16.0749C37.75 15.9174 37.6913 15.7724 37.585 15.6661C33.9075 12.1811 29.0788 10.2561 24 10.2561C18.9212 10.2561 14.0925 12.1811 10.4025 15.6786C10.3087 15.7724 10.25 15.9174 10.25 16.0749C10.25 16.2286 10.305 16.3674 10.4013 16.4586L13.385 19.4424C13.5975 19.6536 13.995 19.6511 14.1912 19.4536C15.225 18.4974 16.3462 17.7186 17.54 17.1211C17.6312 17.0774 17.75 16.8361 17.75 16.4936V12.7436C17.75 12.4736 17.925 12.2336 18.1825 12.1499C20.0488 11.5449 22.1638 11.4936 24 11.4936Z" fill="black"/>
<path d="M24 26.4937C22.6212 26.4937 21.5 25.3724 21.5 23.9937C21.5 22.6149 22.6212 21.4937 24 21.4937C25.3788 21.4937 26.5 22.6149 26.5 23.9937C26.5 25.3724 25.3788 26.4937 24 26.4937ZM24 22.7437C23.31 22.7437 22.75 23.3049 22.75 23.9937C22.75 24.6824 23.31 25.2437 24 25.2437C24.69 25.2437 25.25 24.6824 25.25 23.9937C25.25 23.3049 24.69 22.7437 24 22.7437Z" fill="black"/>
<path d="M24 32.7437C22.6212 32.7437 21.5 31.6224 21.5 30.2437C21.5 28.8649 22.6212 27.7437 24 27.7437C25.3788 27.7437 26.5 28.8649 26.5 30.2437C26.5 31.6224 25.3788 32.7437 24 32.7437ZM24 28.9937C23.31 28.9937 22.75 29.5549 22.75 30.2437C22.75 30.9324 23.31 31.4937 24 31.4937C24.69 31.4937 25.25 30.9324 25.25 30.2437C25.25 29.5549 24.69 28.9937 24 28.9937Z" fill="black"/>
<path d="M24 38.9937C22.6212 38.9937 21.5 37.8724 21.5 36.4937C21.5 35.1149 22.6212 33.9937 24 33.9937C25.3788 33.9937 26.5 35.1149 26.5 36.4937C26.5 37.8724 25.3788 38.9937 24 38.9937ZM24 35.2437C23.31 35.2437 22.75 35.8049 22.75 36.4937C22.75 37.1824 23.31 37.7437 24 37.7437C24.69 37.7437 25.25 37.1824 25.25 36.4937C25.25 35.8049 24.69 35.2437 24 35.2437Z" fill="black"/>
<path d="M30.25 26.4937C28.8712 26.4937 27.75 25.3724 27.75 23.9937C27.75 22.6149 28.8712 21.4937 30.25 21.4937C31.6288 21.4937 32.75 22.6149 32.75 23.9937C32.75 25.3724 31.6288 26.4937 30.25 26.4937ZM30.25 22.7437C29.56 22.7437 29 23.3049 29 23.9937C29 24.6824 29.56 25.2437 30.25 25.2437C30.94 25.2437 31.5 24.6824 31.5 23.9937C31.5 23.3049 30.94 22.7437 30.25 22.7437Z" fill="black"/>
<path d="M30.25 32.7437C28.8712 32.7437 27.75 31.6224 27.75 30.2437C27.75 28.8649 28.8712 27.7437 30.25 27.7437C31.6288 27.7437 32.75 28.8649 32.75 30.2437C32.75 31.6224 31.6288 32.7437 30.25 32.7437ZM30.25 28.9937C29.56 28.9937 29 29.5549 29 30.2437C29 30.9324 29.56 31.4937 30.25 31.4937C30.94 31.4937 31.5 30.9324 31.5 30.2437C31.5 29.5549 30.94 28.9937 30.25 28.9937Z" fill="black"/>
<path d="M30.25 38.9937C28.8712 38.9937 27.75 37.8724 27.75 36.4937C27.75 35.1149 28.8712 33.9937 30.25 33.9937C31.6288 33.9937 32.75 35.1149 32.75 36.4937C32.75 37.8724 31.6288 38.9937 30.25 38.9937ZM30.25 35.2437C29.56 35.2437 29 35.8049 29 36.4937C29 37.1824 29.56 37.7437 30.25 37.7437C30.94 37.7437 31.5 37.1824 31.5 36.4937C31.5 35.8049 30.94 35.2437 30.25 35.2437Z" fill="black"/>
<path d="M17.75 26.4937C16.3712 26.4937 15.25 25.3724 15.25 23.9937C15.25 22.6149 16.3712 21.4937 17.75 21.4937C19.1288 21.4937 20.25 22.6149 20.25 23.9937C20.25 25.3724 19.1288 26.4937 17.75 26.4937ZM17.75 22.7437C17.06 22.7437 16.5 23.3049 16.5 23.9937C16.5 24.6824 17.06 25.2437 17.75 25.2437C18.44 25.2437 19 24.6824 19 23.9937C19 23.3049 18.44 22.7437 17.75 22.7437Z" fill="black"/>
<path d="M17.75 32.7437C16.3712 32.7437 15.25 31.6224 15.25 30.2437C15.25 28.8649 16.3712 27.7437 17.75 27.7437C19.1288 27.7437 20.25 28.8649 20.25 30.2437C20.25 31.6224 19.1288 32.7437 17.75 32.7437ZM17.75 28.9937C17.06 28.9937 16.5 29.5549 16.5 30.2437C16.5 30.9324 17.06 31.4937 17.75 31.4937C18.44 31.4937 19 30.9324 19 30.2437C19 29.5549 18.44 28.9937 17.75 28.9937Z" fill="black"/>
<path d="M17.75 38.9937C16.3712 38.9937 15.25 37.8724 15.25 36.4937C15.25 35.1149 16.3712 33.9937 17.75 33.9937C19.1288 33.9937 20.25 35.1149 20.25 36.4937C20.25 37.8724 19.1288 38.9937 17.75 38.9937ZM17.75 35.2437C17.06 35.2437 16.5 35.8049 16.5 36.4937C16.5 37.1824 17.06 37.7437 17.75 37.7437C18.44 37.7437 19 37.1824 19 36.4937C19 35.8049 18.44 35.2437 17.75 35.2437Z" fill="black"/>
</g>
<defs>
<clipPath id="clip0_2640_806">
<rect width="30" height="30" fill="white" transform="translate(9 9)"/>
</clipPath>
</defs>
</svg>
