<svg width="48" height="48" viewBox="0 0 48 48" fill="none" xmlns="http://www.w3.org/2000/svg">
<rect width="48" height="48" rx="24" fill="#FFC727"/>
<g clip-path="url(#clip0_2640_769)">
<path d="M21.6452 34.4839H17.4517V35.3226H21.6452V34.4839Z" fill="black"/>
<path d="M34.6452 11C32.7954 11 31.2903 12.5051 31.2903 14.3548C31.2903 14.7708 31.37 15.168 31.5092 15.5357L27.0968 17.8644V13.0968C27.0968 11.9406 26.1562 11 25 11H14.0968C12.9406 11 12 11.9406 12 13.0968V34.9032C12 36.0594 12.9406 37 14.0968 37H25C26.1562 37 27.0968 36.0594 27.0968 34.9032V30.1842L28.6069 31.6402C28.1871 32.2005 27.9355 32.8933 27.9355 33.6452C27.9355 35.4949 29.4405 37 31.2903 37C33.1401 37 34.6452 35.4949 34.6452 33.6452C34.6452 31.9581 33.3921 30.5616 31.7684 30.3285L34.36 17.6954C34.4544 17.7034 34.5487 17.7097 34.6452 17.7097C36.4949 17.7097 38 16.2046 38 14.3548C38 12.5051 36.4949 11 34.6452 11ZM26.2581 34.9032C26.2581 35.5968 25.6936 36.1613 25 36.1613H14.0968C13.4032 36.1613 12.8387 35.5968 12.8387 34.9032V33.6452H26.2581V34.9032ZM26.2581 28.2103L24.0518 26.0829C24.9044 25.0635 25.4194 23.7522 25.4194 22.3226C25.4194 21.4826 25.239 20.685 24.9199 19.962L26.2581 19.2558V28.2103ZM19.5484 27.3548C16.7735 27.3548 14.5161 25.0975 14.5161 22.3226C14.5161 19.5477 16.7735 17.2903 19.5484 17.2903C22.3233 17.2903 24.5806 19.5477 24.5806 22.3226C24.5806 25.0975 22.3233 27.3548 19.5484 27.3548ZM26.2581 18.3068L24.5245 19.2219C23.4861 17.5616 21.6468 16.4516 19.5484 16.4516C16.311 16.4516 13.6774 19.0852 13.6774 22.3226C13.6774 25.56 16.311 28.1935 19.5484 28.1935C21.0547 28.1935 22.4256 27.6186 23.466 26.683L26.2581 29.3753V32.8065H12.8387V14.3548H26.2581V18.3068ZM26.2581 13.5161H12.8387V13.0968C12.8387 12.4032 13.4032 11.8387 14.0968 11.8387H25C25.6936 11.8387 26.2581 12.4032 26.2581 13.0968V13.5161ZM33.8065 33.6452C33.8065 35.0328 32.678 36.1613 31.2903 36.1613C29.9027 36.1613 28.7742 35.0328 28.7742 33.6452C28.7742 32.2575 29.9027 31.129 31.2903 31.129C32.678 31.129 33.8065 32.2575 33.8065 33.6452ZM30.9154 30.3125C30.2654 30.3851 29.6716 30.6443 29.1873 31.0351L27.0968 29.0188V18.813L31.9005 16.278C32.3005 16.8471 32.8721 17.2849 33.5402 17.5189L30.9154 30.3125ZM34.6452 16.871C33.2575 16.871 32.129 15.7425 32.129 14.3548C32.129 12.9672 33.2575 11.8387 34.6452 11.8387C36.0328 11.8387 37.1613 12.9672 37.1613 14.3548C37.1613 15.7425 36.0328 16.871 34.6452 16.871Z" fill="black"/>
<path d="M19.5483 18.1292C17.236 18.1292 15.3547 20.0104 15.3547 22.3227C15.3547 24.635 17.236 26.5162 19.5483 26.5162C20.5346 26.5162 21.4924 26.1673 22.246 25.5337L21.7063 24.8917C21.1033 25.3987 20.3371 25.6775 19.5483 25.6775C17.6985 25.6775 16.1934 24.1725 16.1934 22.3227C16.1934 20.4729 17.6985 18.9679 19.5483 18.9679C21.3981 18.9679 22.9031 20.4729 22.9031 22.3227C22.9031 23.0306 22.6851 23.7074 22.2737 24.2794L22.9543 24.7692C23.4697 24.0534 23.7418 23.2075 23.7418 22.3227C23.7418 20.0104 21.8606 18.1292 19.5483 18.1292Z" fill="black"/>
</g>
<defs>
<clipPath id="clip0_2640_769">
<rect width="26" height="26" fill="white" transform="translate(12 11)"/>
</clipPath>
</defs>
</svg>
