<svg width="48" height="48" viewBox="0 0 48 48" fill="none" xmlns="http://www.w3.org/2000/svg">
<rect width="48" height="48" rx="24" fill="#FFC727"/>
<g clip-path="url(#clip0_2640_797)">
<path d="M35.6211 18.6211C34.5572 18.6211 33.5173 18.9366 32.6327 19.5276C31.7482 20.1186 31.0587 20.9587 30.6516 21.9416C30.2445 22.9245 30.138 24.006 30.3455 25.0494C30.5531 26.0928 31.0654 27.0512 31.8176 27.8035C32.5699 28.5557 33.5283 29.068 34.5717 29.2756C35.6151 29.4831 36.6966 29.3766 37.6795 28.9695C38.6624 28.5623 39.5024 27.8729 40.0935 26.9884C40.6845 26.1038 41 25.0638 41 24C40.9984 22.5739 40.4312 21.2067 39.4228 20.1983C38.4144 19.1899 37.0472 18.6227 35.6211 18.6211ZM32.6934 27.5217C32.6934 27.507 32.6919 27.4922 32.6919 27.4776C32.6901 27.0917 32.7645 26.7093 32.9109 26.3523C33.0572 25.9953 33.2727 25.6708 33.5449 25.3973C33.8171 25.1238 34.1406 24.9068 34.4969 24.7587C34.8532 24.6107 35.2352 24.5344 35.6211 24.5344C36.0069 24.5344 36.3889 24.6107 36.7452 24.7587C37.1015 24.9068 37.4251 25.1238 37.6972 25.3973C37.9694 25.6708 38.1849 25.9953 38.3313 26.3523C38.4776 26.7093 38.552 27.0917 38.5502 27.4776C38.5502 27.4924 38.5489 27.5069 38.5487 27.5217C37.7269 28.2068 36.6909 28.5821 35.6211 28.5821C34.5512 28.5821 33.5152 28.2068 32.6934 27.5217ZM35.6211 23.6591C35.4073 23.6591 35.1984 23.5957 35.0207 23.477C34.8429 23.3582 34.7044 23.1895 34.6226 22.992C34.5408 22.7945 34.5194 22.5772 34.5611 22.3676C34.6028 22.1579 34.7057 21.9654 34.8568 21.8142C35.008 21.6631 35.2005 21.5602 35.4102 21.5185C35.6198 21.4767 35.8371 21.4981 36.0346 21.5799C36.2321 21.6617 36.4008 21.8002 36.5196 21.978C36.6383 22.1557 36.7017 22.3646 36.7017 22.5784C36.7014 22.8649 36.5875 23.1396 36.3849 23.3422C36.1823 23.5448 35.9076 23.6587 35.6211 23.6591ZM39.2768 26.7586C39.1513 26.1268 38.8646 25.5381 38.4446 25.0496C38.0246 24.5611 37.4855 24.1894 36.8796 23.9707C37.1612 23.7163 37.3592 23.3826 37.4473 23.0135C37.5355 22.6444 37.5098 22.2572 37.3735 21.903C37.2373 21.5489 36.9969 21.2443 36.6841 21.0295C36.3712 20.8146 36.0006 20.6996 35.6212 20.6996C35.2417 20.6996 34.8711 20.8146 34.5583 21.0295C34.2454 21.2443 34.0051 21.5489 33.8688 21.903C33.7325 22.2572 33.7068 22.6444 33.795 23.0135C33.8832 23.3826 34.0811 23.7163 34.3628 23.9707C33.7568 24.1894 33.2177 24.5611 32.7977 25.0496C32.3777 25.538 32.091 26.1267 31.9655 26.7586C31.4516 26.0786 31.1376 25.2687 31.0588 24.42C30.9799 23.5713 31.1394 22.7174 31.5192 21.9544C31.899 21.1913 32.4841 20.5494 33.2087 20.1006C33.9334 19.6518 34.7688 19.4141 35.6212 19.4141C36.4735 19.4141 37.309 19.6518 38.0336 20.1006C38.7582 20.5494 39.3433 21.1913 39.7232 21.9544C40.103 22.7174 40.2624 23.5713 40.1835 24.42C40.1047 25.2687 39.7907 26.0786 39.2768 26.7586V26.7586ZM12.3789 29.3789C13.4428 29.3789 14.4827 29.0634 15.3673 28.4724C16.2518 27.8814 16.9413 27.0413 17.3484 26.0584C17.7555 25.0756 17.862 23.994 17.6545 22.9506C17.4469 21.9072 16.9346 20.9488 16.1824 20.1965C15.4301 19.4443 14.4717 18.932 13.4283 18.7245C12.3849 18.5169 11.3034 18.6234 10.3205 19.0305C9.33762 19.4377 8.49755 20.1271 7.90651 21.0116C7.31547 21.8962 7 22.9362 7 24C7.00162 25.4261 7.56884 26.7933 8.57723 27.8017C9.58562 28.8101 10.9528 29.3773 12.3789 29.3789ZM9.45125 27.5217C9.45125 27.507 9.44973 27.4922 9.44973 27.4776C9.44973 26.7007 9.75834 25.9556 10.3077 25.4063C10.857 24.857 11.602 24.5484 12.3789 24.5484C13.1558 24.5484 13.9008 24.857 14.4501 25.4063C14.9995 25.9556 15.3081 26.7007 15.3081 27.4776C15.3081 27.4922 15.3068 27.507 15.3066 27.5217C14.4848 28.2068 13.4488 28.582 12.3789 28.582C11.309 28.582 10.273 28.2068 9.45125 27.5217ZM12.3789 23.6591C12.1652 23.6591 11.9562 23.5957 11.7785 23.477C11.6008 23.3582 11.4622 23.1895 11.3804 22.992C11.2986 22.7945 11.2772 22.5772 11.3189 22.3676C11.3606 22.1579 11.4635 21.9654 11.6146 21.8142C11.7658 21.6631 11.9583 21.5602 12.168 21.5185C12.3776 21.4767 12.5949 21.4981 12.7924 21.5799C12.9899 21.6617 13.1586 21.8002 13.2774 21.978C13.3962 22.1557 13.4595 22.3646 13.4595 22.5784C13.4592 22.8649 13.3453 23.1396 13.1427 23.3422C12.9401 23.5448 12.6654 23.6587 12.3789 23.6591ZM12.3789 19.418C13.231 19.4174 14.0664 19.6547 14.7911 20.103C15.5157 20.5514 16.1009 21.193 16.4808 21.9558C16.8606 22.7186 17.0201 23.5722 16.9413 24.4207C16.8625 25.2692 16.5486 26.0788 16.0347 26.7586C15.9092 26.1267 15.6225 25.538 15.2025 25.0496C14.7825 24.5611 14.2434 24.1894 13.6374 23.9707C13.9191 23.7163 14.117 23.3826 14.2052 23.0135C14.2934 22.6444 14.2677 22.2572 14.1314 21.903C13.9951 21.5489 13.7548 21.2443 13.4419 21.0295C13.1291 20.8146 12.7585 20.6996 12.379 20.6996C11.9996 20.6996 11.629 20.8146 11.3161 21.0295C11.0033 21.2443 10.7629 21.5489 10.6267 21.903C10.4904 22.2572 10.4647 22.6444 10.5529 23.0135C10.641 23.3826 10.839 23.7163 11.1206 23.9707C10.5147 24.1894 9.97561 24.5611 9.5556 25.0496C9.13558 25.538 8.84891 26.1267 8.72337 26.7586C8.20954 26.0788 7.89556 25.2692 7.81674 24.4207C7.73793 23.5723 7.89742 22.7187 8.27726 21.9559C8.65711 21.1932 9.24224 20.5515 9.96685 20.1031C10.6915 19.6548 11.5268 19.4175 12.3789 19.418ZM24 41C25.0638 41 26.1038 40.6845 26.9884 40.0935C27.8729 39.5025 28.5623 38.6624 28.9695 37.6795C29.3766 36.6966 29.4831 35.6151 29.2756 34.5717C29.068 33.5283 28.5557 32.5699 27.8035 31.8176C27.0512 31.0654 26.0928 30.5531 25.0494 30.3455C24.006 30.138 22.9244 30.2445 21.9416 30.6516C20.9587 31.0588 20.1186 31.7482 19.5276 32.6327C18.9366 33.5173 18.6211 34.5572 18.6211 35.6211C18.6227 37.0472 19.1899 38.4144 20.1983 39.4228C21.2067 40.4312 22.5739 40.9984 24 41ZM21.0723 39.1428C21.0723 39.1281 21.0708 39.1133 21.0708 39.0987C21.069 38.7128 21.1434 38.3304 21.2898 37.9734C21.4362 37.6164 21.6516 37.2919 21.9238 37.0184C22.196 36.7449 22.5195 36.5279 22.8758 36.3798C23.2321 36.2318 23.6141 36.1555 24 36.1555C24.3858 36.1555 24.7678 36.2318 25.1241 36.3798C25.4804 36.5279 25.804 36.7449 26.0761 37.0184C26.3483 37.2919 26.5638 37.6164 26.7102 37.9734C26.8565 38.3304 26.931 38.7128 26.9291 39.0987C26.9291 39.1135 26.9279 39.128 26.9276 39.1428C26.1058 39.8279 25.0698 40.2032 24 40.2032C22.9301 40.2032 21.8941 39.8279 21.0723 39.1428ZM24 35.2802C23.7863 35.2802 23.5773 35.2168 23.3996 35.0981C23.2219 34.9793 23.0833 34.8106 23.0015 34.6131C22.9197 34.4156 22.8983 34.1983 22.94 33.9887C22.9817 33.779 23.0846 33.5865 23.2357 33.4353C23.3869 33.2842 23.5794 33.1812 23.7891 33.1395C23.9987 33.0978 24.216 33.1192 24.4135 33.201C24.611 33.2828 24.7797 33.4213 24.8985 33.5991C25.0172 33.7768 25.0806 33.9857 25.0806 34.1995C25.0803 34.486 24.9664 34.7607 24.7638 34.9633C24.5612 35.1659 24.2865 35.2798 24 35.2802ZM24 31.0391C24.8521 31.0385 25.6875 31.2758 26.4122 31.7242C27.1368 32.1725 27.722 32.8142 28.1019 33.5769C28.4817 34.3397 28.6412 35.1934 28.5624 36.0418C28.4836 36.8903 28.1696 37.7 27.6557 38.3797C27.5302 37.7479 27.2435 37.1591 26.8235 36.6707C26.4035 36.1822 25.8644 35.8105 25.2585 35.5917C25.5401 35.3374 25.7381 35.0037 25.8262 34.6346C25.9144 34.2655 25.8887 33.8783 25.7524 33.5241C25.6162 33.17 25.3758 32.8654 25.063 32.6505C24.7501 32.4357 24.3796 32.3207 24.0001 32.3207C23.6206 32.3207 23.25 32.4357 22.9372 32.6505C22.6243 32.8654 22.384 33.17 22.2477 33.5241C22.1114 33.8783 22.0857 34.2655 22.1739 34.6346C22.2621 35.0037 22.46 35.3374 22.7417 35.5917C22.1357 35.8105 21.5966 36.1822 21.1766 36.6706C20.7566 37.1591 20.4699 37.7478 20.3444 38.3797C19.8306 37.6999 19.5166 36.8903 19.4378 36.0418C19.359 35.1934 19.5185 34.3397 19.8983 33.577C20.2782 32.8142 20.8633 32.1726 21.5879 31.7242C22.3125 31.2759 23.1479 31.0386 24 31.0391ZM24 17.7578C25.0638 17.7578 26.1038 17.4423 26.9884 16.8513C27.8729 16.2603 28.5623 15.4202 28.9695 14.4373C29.3766 13.4545 29.4831 12.3729 29.2756 11.3295C29.068 10.2861 28.5557 9.3277 27.8035 8.57545C27.0512 7.82319 26.0928 7.3109 25.0494 7.10336C24.006 6.89581 22.9244 7.00233 21.9416 7.40945C20.9587 7.81656 20.1186 8.50599 19.5276 9.39055C18.9366 10.2751 18.6211 11.3151 18.6211 12.3789C18.6227 13.805 19.1899 15.1722 20.1983 16.1806C21.2067 17.189 22.5739 17.7562 24 17.7578ZM21.0723 15.9006C21.0723 15.8858 21.0708 15.8711 21.0708 15.8565C21.069 15.4706 21.1434 15.0882 21.2898 14.7312C21.4362 14.3743 21.6516 14.0497 21.9238 13.7762C22.196 13.5027 22.5195 13.2857 22.8758 13.1377C23.2321 12.9896 23.6141 12.9133 24 12.9133C24.3858 12.9133 24.7678 12.9896 25.1241 13.1377C25.4804 13.2857 25.804 13.5027 26.0761 13.7762C26.3483 14.0497 26.5638 14.3743 26.7102 14.7312C26.8565 15.0882 26.931 15.4706 26.9291 15.8565C26.9291 15.8712 26.9279 15.8858 26.9276 15.9006C26.1059 16.5857 25.0699 16.9609 24 16.9609C22.9301 16.9609 21.8941 16.5857 21.0723 15.9006ZM24 12.038C23.7863 12.038 23.5773 11.9746 23.3996 11.8559C23.2219 11.7371 23.0833 11.5684 23.0015 11.3709C22.9197 11.1734 22.8983 10.9561 22.94 10.7465C22.9817 10.5369 23.0846 10.3443 23.2357 10.1931C23.3869 10.042 23.5794 9.93906 23.7891 9.89736C23.9987 9.85565 24.216 9.87705 24.4135 9.95885C24.611 10.0406 24.7797 10.1792 24.8985 10.3569C25.0172 10.5346 25.0806 10.7435 25.0806 10.9573C25.0803 11.2438 24.9664 11.5185 24.7638 11.7211C24.5612 11.9237 24.2865 12.0376 24 12.038ZM24 7.79688C24.8521 7.79636 25.6875 8.03362 26.4122 8.48197C27.1368 8.93032 27.722 9.57197 28.1019 10.3347C28.4817 11.0975 28.6412 11.9512 28.5624 12.7997C28.4836 13.6481 28.1696 14.4578 27.6557 15.1376C27.5302 14.5057 27.2435 13.917 26.8235 13.4285C26.4035 12.94 25.8644 12.5684 25.2585 12.3496C25.5401 12.0952 25.7381 11.7615 25.8262 11.3924C25.9144 11.0233 25.8887 10.6361 25.7524 10.282C25.6162 9.92777 25.3758 9.62319 25.063 9.40836C24.7501 9.19353 24.3796 9.07854 24.0001 9.07854C23.6206 9.07854 23.25 9.19353 22.9372 9.40836C22.6243 9.62319 22.384 9.92777 22.2477 10.282C22.1114 10.6361 22.0857 11.0233 22.1739 11.3924C22.2621 11.7615 22.46 12.0952 22.7417 12.3496C22.1358 12.5683 21.5967 12.94 21.1766 13.4284C20.7566 13.9169 20.4699 14.5056 20.3444 15.1374C19.8306 14.4577 19.5166 13.648 19.4378 12.7996C19.359 11.9511 19.5185 11.0975 19.8984 10.3348C20.2782 9.57203 20.8634 8.93039 21.588 8.48204C22.3126 8.03368 23.1479 7.7964 24 7.79688ZM30.2422 12.3789C30.2422 12.2732 30.2842 12.1719 30.3589 12.0972C30.4336 12.0224 30.535 11.9805 30.6406 11.9805H35.6211C35.7268 11.9805 35.8281 12.0224 35.9028 12.0972C35.9776 12.1719 36.0195 12.2732 36.0195 12.3789V17.3594C36.0195 17.465 35.9776 17.5664 35.9028 17.6411C35.8281 17.7158 35.7268 17.7578 35.6211 17.7578C35.5154 17.7578 35.4141 17.7158 35.3394 17.6411C35.2646 17.5664 35.2227 17.465 35.2227 17.3594V12.7773H30.6406C30.535 12.7773 30.4336 12.7354 30.3589 12.6606C30.2842 12.5859 30.2422 12.4846 30.2422 12.3789ZM11.9805 17.3594V12.3789C11.9805 12.2732 12.0224 12.1719 12.0972 12.0972C12.1719 12.0224 12.2732 11.9805 12.3789 11.9805H17.3594C17.465 11.9805 17.5664 12.0224 17.6411 12.0972C17.7158 12.1719 17.7578 12.2732 17.7578 12.3789C17.7578 12.4846 17.7158 12.5859 17.6411 12.6606C17.5664 12.7354 17.465 12.7773 17.3594 12.7773H12.7773V17.3594C12.7773 17.465 12.7354 17.5664 12.6606 17.6411C12.5859 17.7158 12.4846 17.7578 12.3789 17.7578C12.2732 17.7578 12.1719 17.7158 12.0972 17.6411C12.0224 17.5664 11.9805 17.465 11.9805 17.3594ZM12.7773 30.6406V35.2227H17.3594C17.465 35.2227 17.5664 35.2646 17.6411 35.3394C17.7158 35.4141 17.7578 35.5154 17.7578 35.6211C17.7578 35.7268 17.7158 35.8281 17.6411 35.9028C17.5664 35.9776 17.465 36.0195 17.3594 36.0195H12.3789C12.2732 36.0195 12.1719 35.9776 12.0972 35.9028C12.0224 35.8281 11.9805 35.7268 11.9805 35.6211V30.6406C11.9805 30.535 12.0224 30.4336 12.0972 30.3589C12.1719 30.2842 12.2732 30.2422 12.3789 30.2422C12.4846 30.2422 12.5859 30.2842 12.6606 30.3589C12.7354 30.4336 12.7773 30.535 12.7773 30.6406ZM30.6406 36.0195C30.535 36.0195 30.4336 35.9776 30.3589 35.9028C30.2842 35.8281 30.2422 35.7268 30.2422 35.6211C30.2422 35.5154 30.2842 35.4141 30.3589 35.3394C30.4336 35.2646 30.535 35.2227 30.6406 35.2227H35.2227V30.6406C35.2227 30.535 35.2646 30.4336 35.3394 30.3589C35.4141 30.2842 35.5154 30.2422 35.6211 30.2422C35.7268 30.2422 35.8281 30.2842 35.9028 30.3589C35.9776 30.4336 36.0195 30.535 36.0195 30.6406V35.6211C36.0195 35.7268 35.9776 35.8281 35.9028 35.9028C35.8281 35.9776 35.7268 36.0195 35.6211 36.0195H30.6406ZM24 29.3789C25.0638 29.3789 26.1038 29.0634 26.9884 28.4724C27.8729 27.8814 28.5623 27.0413 28.9695 26.0584C29.3766 25.0756 29.4831 23.994 29.2756 22.9506C29.068 21.9072 28.5557 20.9488 27.8035 20.1965C27.0512 19.4443 26.0928 18.932 25.0494 18.7245C24.006 18.5169 22.9244 18.6234 21.9416 19.0305C20.9587 19.4377 20.1186 20.1271 19.5276 21.0116C18.9366 21.8962 18.6211 22.9362 18.6211 24C18.6227 25.4261 19.1899 26.7933 20.1983 27.8017C21.2067 28.8101 22.5739 29.3773 24 29.3789ZM24 19.418C24.9062 19.418 25.7921 19.6867 26.5456 20.1902C27.2992 20.6937 27.8864 21.4093 28.2332 22.2465C28.58 23.0838 28.6708 24.0051 28.494 24.8939C28.3172 25.7827 27.8808 26.5992 27.24 27.24C26.5992 27.8808 25.7827 28.3172 24.8939 28.494C24.0051 28.6708 23.0838 28.58 22.2465 28.2332C21.4093 27.8864 20.6937 27.2992 20.1902 26.5456C19.6867 25.7921 19.418 24.9062 19.418 24C19.4193 22.7852 19.9025 21.6205 20.7615 20.7615C21.6205 19.9025 22.7852 19.4193 24 19.418ZM20.8817 24.9414C20.7008 24.3322 20.701 23.6836 20.8822 23.0745C21.0635 22.4653 21.418 21.9221 21.9025 21.5109C22.3871 21.0997 22.9807 20.8383 23.6112 20.7586C24.2417 20.6788 24.8818 20.7841 25.4534 21.0617L25.3696 20.6727C25.3486 20.5699 25.369 20.463 25.4264 20.3751C25.4838 20.2872 25.5735 20.2255 25.6761 20.2034C25.7786 20.1813 25.8858 20.2006 25.9743 20.257C26.0627 20.3134 26.1254 20.4025 26.1486 20.5048L26.447 21.8898C26.4693 21.9931 26.4496 22.101 26.3923 22.1898C26.335 22.2785 26.2448 22.3409 26.1415 22.3632L24.7566 22.6615C24.7053 22.6732 24.6521 22.6745 24.6002 22.6655C24.5483 22.6564 24.4987 22.6372 24.4543 22.6089C24.4099 22.5805 24.3715 22.5437 24.3414 22.5004C24.3114 22.4572 24.2902 22.4084 24.2791 22.3569C24.268 22.3054 24.2672 22.2522 24.2768 22.2004C24.2864 22.1486 24.3061 22.0992 24.3349 22.0551C24.3637 22.011 24.401 21.973 24.4446 21.9434C24.4881 21.9138 24.5371 21.8931 24.5888 21.8826L25.0956 21.7734C24.6628 21.5657 24.179 21.4881 23.703 21.55C23.2269 21.612 22.7791 21.8107 22.4138 22.1222C22.0486 22.4337 21.7816 22.8445 21.6453 23.3048C21.509 23.7651 21.5092 24.255 21.6459 24.7152C21.6759 24.8165 21.6644 24.9256 21.614 25.0185C21.5636 25.1113 21.4783 25.1804 21.377 25.2104C21.2757 25.2404 21.1666 25.2289 21.0737 25.1785C20.9809 25.1281 20.9118 25.0428 20.8818 24.9415L20.8817 24.9414ZM26.6555 22.7781C26.7055 22.7627 26.7581 22.7573 26.8102 22.7622C26.8623 22.7672 26.9129 22.7823 26.9591 22.8068C27.0054 22.8312 27.0464 22.8646 27.0797 22.9049C27.1131 22.9452 27.1382 22.9917 27.1536 23.0417C27.3418 23.6578 27.3445 24.3157 27.1612 24.9333C26.978 25.5509 26.6169 26.1009 26.1231 26.5146C25.6292 26.9283 25.0245 27.1874 24.3843 27.2596C23.7442 27.3318 23.0969 27.2139 22.5233 26.9205L22.5933 27.3845C22.6017 27.4364 22.5997 27.4896 22.5874 27.5408C22.5751 27.592 22.5528 27.6402 22.5217 27.6828C22.4907 27.7253 22.4515 27.7612 22.4065 27.7885C22.3615 27.8158 22.3115 27.8339 22.2594 27.8418C22.2074 27.8497 22.1542 27.8471 22.1032 27.8343C22.0521 27.8215 22.0041 27.7988 21.9618 27.7673C21.9196 27.7358 21.8841 27.6963 21.8572 27.651C21.8304 27.6057 21.8127 27.5555 21.8054 27.5034L21.594 26.1026C21.5782 25.9981 21.6046 25.8916 21.6673 25.8066C21.73 25.7215 21.824 25.6649 21.9285 25.6491L23.3292 25.4377C23.3812 25.4293 23.4343 25.4313 23.4855 25.4436C23.5367 25.4559 23.585 25.4782 23.6275 25.5093C23.6701 25.5403 23.706 25.5795 23.7333 25.6245C23.7606 25.6695 23.7787 25.7195 23.7866 25.7716C23.7944 25.8237 23.7919 25.8768 23.7791 25.9278C23.7663 25.9789 23.7435 26.027 23.7121 26.0692C23.6806 26.1114 23.6411 26.147 23.5958 26.1738C23.5505 26.2007 23.5003 26.2183 23.4482 26.2256L23.0465 26.2862C23.4814 26.4728 23.9607 26.5309 24.4277 26.4537C24.8946 26.3765 25.3297 26.1673 25.6815 25.8507C26.0334 25.5342 26.2872 25.1235 26.4131 24.6673C26.539 24.2111 26.5317 23.7284 26.392 23.2762C26.3609 23.1752 26.3712 23.066 26.4206 22.9726C26.47 22.8792 26.5545 22.8092 26.6555 22.7781Z" fill="black"/>
</g>
<defs>
<clipPath id="clip0_2640_797">
<rect width="34" height="34" fill="white" transform="translate(7 7)"/>
</clipPath>
</defs>
</svg>
