<svg width="53" height="48" viewBox="0 0 53 48" fill="none" xmlns="http://www.w3.org/2000/svg">
<rect x="5" width="48" height="48" rx="24" fill="#FFC727"/>
<path d="M43.5307 24.0001H39.9167V10.6267C39.9164 10.0407 39.6834 9.47883 39.269 9.06446C38.8547 8.65008 38.2928 8.41712 37.7067 8.41675H22.2934C21.7075 8.4175 21.1458 8.65058 20.7315 9.06487C20.3172 9.47916 20.0842 10.0408 20.0834 10.6267V15.5001H16.4695C15.9253 15.5008 15.4036 15.7173 15.0188 16.1021C14.634 16.4869 14.4175 17.0086 14.4167 17.5528V23.3612C14.4167 23.9058 14.6329 24.4283 15.0178 24.8137C15.4027 25.1991 15.9248 25.416 16.4695 25.4167H20.0834V37.3734C20.0842 37.9593 20.3172 38.521 20.7315 38.9353C21.1458 39.3496 21.7075 39.5827 22.2934 39.5834H37.7067C38.2928 39.583 38.8547 39.3501 39.269 38.9357C39.6834 38.5213 39.9164 37.9594 39.9167 37.3734V33.9167H43.5307C44.0749 33.916 44.5965 33.6995 44.9814 33.3147C45.3662 32.9299 45.5827 32.4082 45.5834 31.864V26.0557C45.5834 25.511 45.3672 24.9886 44.9824 24.6031C44.5975 24.2177 44.0753 24.0008 43.5307 24.0001ZM38.5001 10.6267V12.6667H33.0062C32.4851 12.6669 31.9771 12.5026 31.5547 12.1974C31.1322 11.8922 30.8168 11.4616 30.6532 10.9667L30.2735 9.83341H37.7067C37.9172 9.83341 38.1189 9.917 38.2677 10.0658C38.4165 10.2146 38.5001 10.4163 38.5001 10.6267ZM15.8334 23.364V17.5557C15.833 17.4719 15.8492 17.3889 15.881 17.3114C15.9128 17.2339 15.9596 17.1634 16.0187 17.1041C16.0778 17.0447 16.1481 16.9976 16.2254 16.9654C16.3028 16.9333 16.3857 16.9167 16.4695 16.9167H23.6945C23.7783 16.9164 23.8613 16.9326 23.9388 16.9644C24.0163 16.9962 24.0867 17.0429 24.1461 17.102C24.2055 17.1612 24.2526 17.2314 24.2847 17.3088C24.3169 17.3861 24.3334 17.4691 24.3334 17.5528V23.3612C24.3338 23.4449 24.3176 23.528 24.2858 23.6055C24.254 23.683 24.2072 23.7534 24.1481 23.8128C24.089 23.8721 24.0188 23.9192 23.9414 23.9514C23.864 23.9835 23.7811 24.0001 23.6973 24.0001H16.4723C16.3886 24.0005 16.3055 23.9843 16.228 23.9525C16.1505 23.9207 16.0801 23.8739 16.0207 23.8148C15.9614 23.7557 15.9142 23.6854 15.8821 23.6081C15.85 23.5307 15.8334 23.4478 15.8334 23.364ZM38.5001 37.3734C38.5001 37.5838 38.4165 37.7856 38.2677 37.9344C38.1189 38.0832 37.9172 38.1667 37.7067 38.1667H22.2934C22.083 38.1667 21.8812 38.0832 21.7324 37.9344C21.5837 37.7856 21.5001 37.5838 21.5001 37.3734V25.4167H23.6973C24.2415 25.416 24.7632 25.1995 25.148 24.8147C25.5328 24.4299 25.7493 23.9082 25.7501 23.364V21.1667H30.0001V21.8751C30.0001 22.0629 30.0747 22.2431 30.2075 22.3759C30.3404 22.5088 30.5206 22.5834 30.7084 22.5834C30.8963 22.5834 31.0764 22.5088 31.2093 22.3759C31.3421 22.2431 31.4167 22.0629 31.4167 21.8751V19.0417C31.4167 18.8539 31.3421 18.6737 31.2093 18.5409C31.0764 18.408 30.8963 18.3334 30.7084 18.3334C30.5206 18.3334 30.3404 18.408 30.2075 18.5409C30.0747 18.6737 30.0001 18.8539 30.0001 19.0417V19.7501H25.7501V17.5528C25.7493 17.0086 25.5328 16.4869 25.148 16.1021C24.7632 15.7173 24.2415 15.5008 23.6973 15.5001H21.5001V10.6267C21.5001 10.4163 21.5837 10.2146 21.7324 10.0658C21.8812 9.917 22.083 9.83341 22.2934 9.83341H28.7817L29.3102 11.4187C29.568 12.1949 30.0639 12.8702 30.7274 13.3485C31.3909 13.8269 32.1883 14.084 33.0062 14.0834H38.5001V24.0001H36.3028C35.7586 24.0008 35.2369 24.2173 34.8521 24.6021C34.4673 24.9869 34.2508 25.5086 34.2501 26.0528V28.2501H30.0001V27.5417C30.0001 27.3539 29.9255 27.1737 29.7926 27.0409C29.6598 26.908 29.4796 26.8334 29.2917 26.8334C29.1039 26.8334 28.9237 26.908 28.7909 27.0409C28.658 27.1737 28.5834 27.3539 28.5834 27.5417V30.3751C28.5834 30.5629 28.658 30.7431 28.7909 30.8759C28.9237 31.0088 29.1039 31.0834 29.2917 31.0834C29.4796 31.0834 29.6598 31.0088 29.7926 30.8759C29.9255 30.7431 30.0001 30.5629 30.0001 30.3751V29.6667H34.2501V31.864C34.2508 32.4082 34.4673 32.9299 34.8521 33.3147C35.2369 33.6995 35.7586 33.916 36.3028 33.9167H38.5001V37.3734ZM44.1667 31.864C44.1667 32.0327 44.0997 32.1945 43.9804 32.3138C43.8612 32.4331 43.6994 32.5001 43.5307 32.5001H36.3057C36.2219 32.5005 36.1389 32.4843 36.0614 32.4525C35.9839 32.4207 35.9134 32.3739 35.8541 32.3148C35.7947 32.2557 35.7476 32.1854 35.7154 32.1081C35.6833 32.0307 35.6667 31.9478 35.6667 31.864V26.0557C35.6664 25.9719 35.6826 25.8889 35.7143 25.8114C35.7461 25.7339 35.7929 25.6634 35.852 25.6041C35.9112 25.5447 35.9814 25.4976 36.0588 25.4654C36.1361 25.4333 36.2191 25.4167 36.3028 25.4167H43.5278C43.6114 25.4167 43.6941 25.4332 43.7712 25.4652C43.8484 25.4971 43.9185 25.544 43.9776 25.6031C44.0367 25.6621 44.0835 25.7322 44.1155 25.8094C44.1475 25.8866 44.1639 25.9693 44.1639 26.0528L44.1667 31.864Z" fill="black"/>
<path d="M17.9583 19.7502H19.375C19.5629 19.7502 19.743 19.6755 19.8759 19.5427C20.0087 19.4099 20.0833 19.2297 20.0833 19.0418C20.0833 18.854 20.0087 18.6738 19.8759 18.541C19.743 18.4081 19.5629 18.3335 19.375 18.3335H17.9583C17.7705 18.3335 17.5903 18.4081 17.4575 18.541C17.3246 18.6738 17.25 18.854 17.25 19.0418C17.25 19.2297 17.3246 19.4099 17.4575 19.5427C17.5903 19.6755 17.7705 19.7502 17.9583 19.7502Z" fill="black"/>
<path d="M22.2083 21.1667H17.9583C17.7705 21.1667 17.5903 21.2414 17.4575 21.3742C17.3246 21.5071 17.25 21.6872 17.25 21.8751C17.25 22.0629 17.3246 22.2431 17.4575 22.3759C17.5903 22.5088 17.7705 22.5834 17.9583 22.5834H22.2083C22.3962 22.5834 22.5764 22.5088 22.7092 22.3759C22.842 22.2431 22.9167 22.0629 22.9167 21.8751C22.9167 21.6872 22.842 21.5071 22.7092 21.3742C22.5764 21.2414 22.3962 21.1667 22.2083 21.1667Z" fill="black"/>
<path d="M42.0417 26.8335H40.6251C40.4372 26.8335 40.2571 26.9081 40.1242 27.041C39.9914 27.1738 39.9167 27.354 39.9167 27.5418C39.9167 27.7297 39.9914 27.9099 40.1242 28.0427C40.2571 28.1755 40.4372 28.2502 40.6251 28.2502H42.0417C42.2296 28.2502 42.4098 28.1755 42.5426 28.0427C42.6755 27.9099 42.7501 27.7297 42.7501 27.5418C42.7501 27.354 42.6755 27.1738 42.5426 27.041C42.4098 26.9081 42.2296 26.8335 42.0417 26.8335Z" fill="black"/>
<path d="M42.0418 29.6667H37.7918C37.604 29.6667 37.4238 29.7414 37.291 29.8742C37.1581 30.0071 37.0835 30.1872 37.0835 30.3751C37.0835 30.5629 37.1581 30.7431 37.291 30.8759C37.4238 31.0088 37.604 31.0834 37.7918 31.0834H42.0418C42.2297 31.0834 42.4099 31.0088 42.5427 30.8759C42.6755 30.7431 42.7502 30.5629 42.7502 30.3751C42.7502 30.1872 42.6755 30.0071 42.5427 29.8742C42.4099 29.7414 42.2297 29.6667 42.0418 29.6667Z" fill="black"/>
<path d="M26.4583 12.6667C26.8495 12.6667 27.1667 12.3495 27.1667 11.9583C27.1667 11.5671 26.8495 11.25 26.4583 11.25C26.0671 11.25 25.75 11.5671 25.75 11.9583C25.75 12.3495 26.0671 12.6667 26.4583 12.6667Z" fill="black"/>
<path d="M23.6251 12.6667C24.0163 12.6667 24.3334 12.3495 24.3334 11.9583C24.3334 11.5671 24.0163 11.25 23.6251 11.25C23.2339 11.25 22.9167 11.5671 22.9167 11.9583C22.9167 12.3495 23.2339 12.6667 23.6251 12.6667Z" fill="black"/>
</svg>
