<svg width="420" height="40" viewBox="0 0 420 40" fill="none" xmlns="http://www.w3.org/2000/svg">
<path d="M17.907 13.8524L12.5166 18.3482H0V19.0089H12.5166L18.6184 23.0797C21.2278 24.8206 24.5553 25.0772 27.4007 23.7571L28.5708 23.2143C31.4897 21.8602 34.9114 22.1813 37.5273 24.055L40.7575 26.3685C42.489 27.6087 44.8669 27.3974 46.3525 25.8712C48.001 24.1778 50.7061 24.1288 52.4149 25.7614L61.5934 34.5304C64.1272 36.9511 67.8357 37.6811 71.0978 36.4011L75.1532 34.81C76.2601 34.3757 77.27 33.7264 78.1245 32.8995L81.9221 29.2248C84.7608 26.4779 89.059 25.9032 92.5198 27.8077L93.634 28.4209C96.5203 30.0093 100.044 29.8938 102.82 28.1197L107.95 24.8413C109.177 24.0571 110.786 24.2405 111.805 25.2807C113.328 26.8353 115.939 26.3609 116.818 24.3701L118.1 21.465C118.937 19.5705 120.812 18.3482 122.883 18.3482H125V18.0179H123.084C121.159 18.0179 119.334 17.1607 118.106 15.6793L115.217 12.196C113.655 10.3128 110.681 10.6183 109.535 12.7797C108.629 14.4877 106.493 15.1127 104.809 14.1624L101.322 12.1945C98.7118 10.721 95.4673 10.9839 93.1279 12.8584L92.9087 13.0341C89.5051 15.7612 84.5226 15.1453 81.8856 11.6715L78.557 7.28663C77.4333 5.80634 75.8789 4.71022 74.1072 4.14881L70.5854 3.0328C67.5829 2.08133 64.3014 2.76872 61.9332 4.84522L52.9356 12.7344C51.0187 14.4151 48.0634 14.0401 46.6272 11.9338C45.1373 9.74881 42.0342 9.44237 40.1457 11.2938L37.736 13.6561C35.1962 16.146 31.2022 16.3619 28.4088 14.1604L27.8435 13.7149C24.915 11.4068 20.7705 11.4642 17.907 13.8524Z" fill="#5614C4"/>
<path d="M168.194 10.4314L150.612 18H125V18.2957H150.612L169.068 25.3548C170.778 26.009 172.647 26.1259 174.425 25.69L190.414 21.7712C192.181 21.3379 194.039 21.4508 195.741 22.095L209.841 27.4302C212.773 28.5398 216.071 28.0435 218.547 26.1201L221.134 24.1107C224.037 21.8554 228.02 21.5924 231.194 23.4464L253.259 36.3334C256.921 38.4724 261.58 37.7642 264.441 34.6334L271.936 26.4333C274.781 23.3204 279.406 22.6003 283.062 24.701L284.937 25.7778C287.84 27.4455 291.429 27.364 294.253 25.5661L298.168 23.0738C300.801 21.3978 304.114 21.2055 306.924 22.5658L321.471 29.61C324.381 31.0193 327.824 30.7589 330.489 28.9279L336.698 24.6632C339.065 23.0369 342.066 22.6382 344.776 23.59L359.412 28.7308C363.313 30.1009 367.526 27.7151 368.358 23.6653C369.009 20.492 371.802 18.2143 375.042 18.2143H420V17.8571H373.264C371.551 17.8571 369.874 17.3682 368.429 16.4479L359.435 10.7185C356.212 8.66582 352.045 8.87146 349.04 11.2315L344.248 14.9951C341.247 17.3522 337.086 17.5605 333.865 15.5149L327.681 11.588C325.07 9.93037 321.791 9.72895 318.998 11.0546L306.035 17.2054C303.725 18.302 301.056 18.3634 298.697 17.3744L293.124 15.0377C290.907 14.1081 288.41 14.1043 286.189 15.0272L282.645 16.5005C279.141 17.9573 275.099 17.0593 272.542 14.2556L264.284 5.20324C261.495 2.14674 256.982 1.38492 253.345 3.35673L231.868 15.0004C228.354 16.9053 224.005 16.2647 221.19 13.4277L219.218 11.441C216.447 8.64855 212.184 7.97937 208.691 9.78867L196.853 15.9197C194.492 17.143 191.71 17.2589 189.255 16.2366L175.212 10.3895C172.963 9.45319 170.431 9.46831 168.194 10.4314Z" fill="#5614C4"/>
</svg>
