<svg width="80" height="80" viewBox="0 0 80 80" fill="none" xmlns="http://www.w3.org/2000/svg">
<mask id="mask0_2635_582" style="mask-type:luminance" maskUnits="userSpaceOnUse" x="0" y="0" width="80" height="80">
<path d="M80 0H0V80H80V0Z" fill="white"/>
</mask>
<g mask="url(#mask0_2635_582)">
<path d="M40 80C62.0914 80 80 62.0914 80 40C80 17.9086 62.0914 0 40 0C17.9086 0 0 17.9086 0 40C0 62.0914 17.9086 80 40 80Z" fill="#FFC727"/>
</g>
<g clip-path="url(#clip0_2635_582)">
<path d="M60.7812 21.5156C53.5859 12.8906 44.1406 13.5547 43.8047 13.5859H43.7891C40.0625 13.5859 37.4766 15.789 36.4531 19.8125H26.6016C23.5859 19.8125 21.1328 22.2656 21.1328 25.2812V54.9687C21.1328 57.9844 23.5859 60.4375 26.6016 60.4375H46.9141C49.9297 60.4375 52.3828 57.9844 52.3828 54.9687V25.2812C52.3828 22.2656 49.9297 19.8125 46.9141 19.8125H38.0859C38.9844 16.7265 40.8984 15.1484 43.8594 15.1484C43.9453 15.1328 52.9141 14.5312 59.5781 22.5156C63.3125 26.9922 64.2031 32.875 62.4531 34.7734C61.2422 36.0859 58.5859 35.4375 55.1797 33.0078C54.8281 32.7578 54.3438 32.8359 54.0859 33.1875C53.8359 33.539 53.9141 34.0234 54.2656 34.2734C57.1562 36.3281 59.25 36.9922 60.75 36.9922C62.1875 36.9922 63.0781 36.3906 63.5938 35.8281C66.1094 33.1172 64.7656 26.289 60.7734 21.5078L60.7812 21.5156ZM50.8125 25.2812V54.9687C50.8125 57.125 49.0625 58.875 46.9062 58.875H26.5938C24.4375 58.875 22.6875 57.125 22.6875 54.9687V25.2812C22.6875 23.125 24.4375 21.375 26.5938 21.375H36.1406C35.8906 23.125 35.9922 24.5 36 24.5703C36.0313 25 36.3984 25.3203 36.8359 25.289C37.2656 25.2578 37.5859 24.8828 37.5547 24.4531C37.5547 24.4375 37.4609 23.0625 37.7188 21.3828H46.9062C49.0625 21.3828 50.8125 23.1328 50.8125 25.289V25.2812Z" fill="black"/>
<path d="M41.4375 33.0938C41.4375 30.5078 39.3359 28.4062 36.75 28.4062C34.1641 28.4062 32.0625 30.5078 32.0625 33.0938C32.0625 34.6172 32.7891 35.9609 33.9141 36.8203C31.4453 37.9141 29.7188 40.3828 29.7188 43.25C29.7188 44.5391 30.7734 45.5938 32.0625 45.5938H41.4375C42.7266 45.5938 43.7812 44.5391 43.7812 43.25C43.7812 40.3828 42.0547 37.9141 39.5859 36.8203C40.7109 35.9609 41.4375 34.6172 41.4375 33.0938ZM42.2188 43.25C42.2188 43.6797 41.8672 44.0312 41.4375 44.0312H32.0625C31.6328 44.0312 31.2812 43.6797 31.2812 43.25C31.2812 40.2344 33.7344 37.7812 36.75 37.7812C39.7656 37.7812 42.2188 40.2344 42.2188 43.25ZM36.75 36.2188C35.0234 36.2188 33.625 34.8203 33.625 33.0938C33.625 31.3672 35.0234 29.9688 36.75 29.9688C38.4766 29.9688 39.875 31.3672 39.875 33.0938C39.875 34.8203 38.4766 36.2188 36.75 36.2188Z" fill="black"/>
<path d="M29.7188 48.7188C29.2891 48.7188 28.9375 49.0703 28.9375 49.5C28.9375 49.9297 29.2891 50.2812 29.7188 50.2812H43.7812C44.2109 50.2812 44.5625 49.9297 44.5625 49.5C44.5625 49.0703 44.2109 48.7188 43.7812 48.7188H29.7188Z" fill="black"/>
<path d="M43.7812 53.4062H29.7188C29.2891 53.4062 28.9375 53.7578 28.9375 54.1875C28.9375 54.6172 29.2891 54.9688 29.7188 54.9688H43.7812C44.2109 54.9688 44.5625 54.6172 44.5625 54.1875C44.5625 53.7578 44.2109 53.4062 43.7812 53.4062Z" fill="black"/>
</g>
<defs>
<clipPath id="clip0_2635_582">
<rect width="55" height="56" fill="white" transform="translate(11.6665 12)"/>
</clipPath>
</defs>
</svg>
