<svg width="81" height="80" viewBox="0 0 81 80" fill="none" xmlns="http://www.w3.org/2000/svg">
<mask id="mask0_2635_601" style="mask-type:luminance" maskUnits="userSpaceOnUse" x="0" y="0" width="81" height="80">
<path d="M80.6667 0H0.666748V80H80.6667V0Z" fill="white"/>
</mask>
<g mask="url(#mask0_2635_601)">
<path d="M40.6667 80C62.7581 80 80.6667 62.0914 80.6667 40C80.6667 17.9086 62.7581 0 40.6667 0C18.5753 0 0.666748 17.9086 0.666748 40C0.666748 62.0914 18.5753 80 40.6667 80Z" fill="#FFC727"/>
</g>
<g clip-path="url(#clip0_2635_601)">
<g clip-path="url(#clip1_2635_601)">
<path d="M35.0903 39.943C34.908 39.943 34.7331 40.0154 34.6042 40.1443C34.4753 40.2733 34.4028 40.4481 34.4028 40.6305C34.4028 40.8128 34.4753 40.9877 34.6042 41.1166C34.7331 41.2456 34.908 41.318 35.0903 41.318H39.1631C39.3454 41.318 39.5203 41.2456 39.6492 41.1166C39.7781 40.9877 39.8506 40.8128 39.8506 40.6305V31.6387C39.8506 31.4563 39.7781 31.2815 39.6492 31.1525C39.5203 31.0236 39.3454 30.9512 39.1631 30.9512H35.0903C34.908 30.9512 34.7331 31.0236 34.6042 31.1525C34.4753 31.2815 34.4028 31.4563 34.4028 31.6387V35.7114C34.4028 35.8938 34.4753 36.0686 34.6042 36.1976C34.7331 36.3265 34.908 36.3989 35.0903 36.3989H38.4756V39.943H35.0903ZM35.7778 32.3262H38.4756V35.0239H35.7778V32.3262Z" fill="black"/>
<path d="M41.8669 32.3262H43.1952V39.943H42.1873C42.005 39.943 41.8301 40.0154 41.7012 40.1443C41.5723 40.2733 41.4998 40.4481 41.4998 40.6305C41.4998 40.8128 41.5723 40.9877 41.7012 41.1166C41.8301 41.2456 42.005 41.318 42.1873 41.318H45.4131C45.5954 41.318 45.7703 41.2456 45.8992 41.1166C46.0281 40.9877 46.1006 40.8128 46.1006 40.6305C46.1006 40.4481 46.0281 40.2733 45.8992 40.1443C45.7703 40.0154 45.5954 39.943 45.4131 39.943H44.5681V31.6387C44.5681 31.4563 44.4957 31.2815 44.3668 31.1525C44.2378 31.0236 44.063 30.9512 43.8806 30.9512H41.8669C41.6846 30.9512 41.5097 31.0236 41.3808 31.1525C41.2519 31.2815 41.1794 31.4563 41.1794 31.6387C41.1794 31.821 41.2519 31.9959 41.3808 32.1248C41.5097 32.2537 41.6846 32.3262 41.8669 32.3262Z" fill="black"/>
<path d="M47.9534 32.3262H49.2823V39.943H48.2758C48.0935 39.943 47.9186 40.0154 47.7897 40.1443C47.6607 40.2733 47.5883 40.4481 47.5883 40.6305C47.5883 40.8128 47.6607 40.9877 47.7897 41.1166C47.9186 41.2456 48.0935 41.318 48.2758 41.318H51.5016C51.6839 41.318 51.8588 41.2456 51.9877 41.1166C52.1166 40.9877 52.1891 40.8128 52.1891 40.6305C52.1891 40.4481 52.1166 40.2733 51.9877 40.1443C51.8588 40.0154 51.6839 39.943 51.5016 39.943H50.6573V31.6387C50.6573 31.4563 50.5849 31.2815 50.4559 31.1525C50.327 31.0236 50.1521 30.9512 49.9698 30.9512H47.9534C47.771 30.9512 47.5962 31.0236 47.4672 31.1525C47.3383 31.2815 47.2659 31.4563 47.2659 31.6387C47.2659 31.821 47.3383 31.9959 47.4672 32.1248C47.5962 32.2537 47.771 32.3262 47.9534 32.3262Z" fill="black"/>
<path d="M39.5061 60.5824C41.9213 60.5849 44.3139 60.1179 46.5509 59.2074C47.1003 58.9838 47.584 58.6246 47.9567 58.1632C48.3294 57.7019 48.579 57.1535 48.6822 56.5695C48.7945 55.9559 48.7471 55.3238 48.5447 54.7338C51.4051 53.6416 53.9448 51.8475 55.9303 49.5166C57.9157 47.1858 59.2831 44.393 59.9065 41.3953C60.53 38.3977 60.3895 35.2913 59.498 32.3621C58.6066 29.4329 56.9927 26.775 54.805 24.6328C52.6173 22.4907 49.926 20.9331 46.9787 20.1035C44.0314 19.2739 40.9228 19.1988 37.9389 19.8852C34.955 20.5716 32.1916 21.9974 29.9031 24.0315C27.6145 26.0655 25.8742 28.6425 24.8424 31.5252C24.3939 31.2374 23.887 31.0528 23.3584 30.9847C22.8298 30.9165 22.2927 30.9666 21.7858 31.1313C21.1586 31.3315 20.5993 31.7019 20.1703 32.2013C19.7413 32.7007 19.4595 33.3094 19.3562 33.9597C19.1471 35.2725 19.0421 36.5999 19.042 37.9293C19.042 50.4205 28.2222 60.5824 39.5061 60.5824ZM42.0265 20.7927C45.9934 20.7899 49.8347 22.1842 52.8763 24.7308C55.9179 27.2774 57.9656 30.8137 58.6602 34.7194C59.3548 38.6251 58.652 42.6506 56.6749 46.0898C54.6978 49.5289 51.5729 52.1621 47.8482 53.5273C47.7648 53.43 47.6765 53.3371 47.5836 53.2488L43.902 49.8402C43.2776 49.258 42.4661 48.9175 41.6132 48.8797C40.7602 48.8419 39.9218 49.1093 39.2483 49.634L37.3611 51.0983C36.9257 51.4384 36.379 51.6036 35.8281 51.5616C35.2772 51.5197 34.7618 51.2736 34.3829 50.8715L28.9874 45.1852C28.6196 44.7948 28.4046 44.2851 28.3815 43.7493C28.3584 43.2135 28.5288 42.6873 28.8616 42.2667L29.8976 40.9667C30.4491 40.275 30.7266 39.4044 30.677 38.5211C30.6274 37.6379 30.2543 36.8038 29.6288 36.1782L25.9582 32.5111C27.0629 29.1155 29.2105 26.155 32.0956 24.051C34.9806 21.947 38.4558 20.8067 42.0265 20.7927ZM20.714 34.1748C20.7748 33.774 20.9474 33.3984 21.2118 33.0912C21.4763 32.7839 21.822 32.5574 22.2093 32.4375C22.4391 32.3627 22.6792 32.3242 22.9209 32.3234C23.2124 32.324 23.501 32.3825 23.7697 32.4956C24.0384 32.6086 24.282 32.774 24.4863 32.982L24.729 33.2247L24.7352 33.2309L28.6539 37.1497C29.0407 37.5364 29.2715 38.052 29.3022 38.5981C29.3329 39.1442 29.1613 39.6824 28.8203 40.11L27.7842 41.4101C27.2466 42.091 26.9716 42.9425 27.0095 43.8093C27.0474 44.6761 27.3955 45.5004 27.9905 46.1318L33.3826 51.825C33.996 52.4753 34.83 52.8732 35.7213 52.941C36.6127 53.0087 37.4972 52.7415 38.2019 52.1915L40.0884 50.7271C40.5045 50.4024 41.0226 50.2367 41.5499 50.2598C42.0771 50.2828 42.5788 50.4931 42.9649 50.8529L46.6458 54.2615C46.9247 54.5196 47.1335 54.8441 47.2529 55.2048C47.3723 55.5655 47.3983 55.9506 47.3285 56.324C47.2687 56.6811 47.1181 57.0168 46.8912 57.2989C46.6642 57.581 46.3686 57.8 46.0326 57.9348C43.9601 58.779 41.7433 59.2124 39.5054 59.2108C28.9805 59.2074 20.417 49.6622 20.417 37.9293C20.4171 36.6719 20.5164 35.4166 20.714 34.1748Z" fill="black"/>
</g>
</g>
<defs>
<clipPath id="clip0_2635_601">
<rect width="55" height="56" fill="white" transform="translate(12.3335 12)"/>
</clipPath>
<clipPath id="clip1_2635_601">
<rect width="50" height="50" fill="white" transform="translate(18.667 12)"/>
</clipPath>
</defs>
</svg>
