<svg width="32" height="32" viewBox="0 0 32 32" fill="none" xmlns="http://www.w3.org/2000/svg">
<rect width="32" height="32" rx="16" fill="#FFC727"/>
<path d="M20.2969 21.4688C20.0813 21.4688 19.9062 21.6438 19.9062 21.8594C19.9062 22.075 20.0813 22.25 20.2969 22.25C20.5125 22.25 20.6875 22.075 20.6875 21.8594C20.6875 21.6438 20.5125 21.4688 20.2969 21.4688Z" fill="black"/>
<path d="M23.0134 23.6379C22.7524 23.1154 22.37 22.6511 21.9076 22.2954C21.7366 22.1638 21.4914 22.1958 21.3599 22.3668C21.2283 22.5379 21.2603 22.7831 21.4313 22.9146C21.8006 23.1988 22.106 23.5696 22.3145 23.987C22.4111 24.1804 22.6459 24.2582 22.8385 24.1619C23.0315 24.0655 23.1098 23.8309 23.0134 23.6379Z" fill="black"/>
<g clip-path="url(#clip0_3004_1552)">
<path d="M10.4839 17.1612C10.4839 17.9616 11.1351 18.6128 11.9355 18.6128C12.7359 18.6128 13.3871 17.9616 13.3871 17.1612V16.8708H10.4839V17.1612ZM12.7568 17.4515C12.6369 17.7894 12.3141 18.0321 11.9355 18.0321C11.5569 18.0321 11.2341 17.7894 11.1142 17.4515H12.7568Z" fill="black"/>
<path d="M11.0647 15.4193H11.6453C11.6453 14.7789 11.1245 14.2581 10.484 14.2581C9.84359 14.2581 9.32275 14.7789 9.32275 15.4193H9.9034C9.9034 15.0991 10.1638 14.8387 10.484 14.8387C10.8043 14.8387 11.0647 15.0991 11.0647 15.4193Z" fill="black"/>
<path d="M13.3869 14.2581C12.7464 14.2581 12.2256 14.7789 12.2256 15.4193H12.8062C12.8062 15.0991 13.0667 14.8387 13.3869 14.8387C13.7071 14.8387 13.9675 15.0991 13.9675 15.4193H14.5482C14.5482 14.7789 14.0273 14.2581 13.3869 14.2581Z" fill="black"/>
<path d="M24.129 15.7096H16.871V14.258C16.871 11.5365 14.657 9.32251 11.9355 9.32251C9.214 9.32251 7 11.5365 7 14.258V18.9032C7 19.9149 7.47729 20.8498 8.28003 21.4522C8.20339 21.7535 8.16129 22.0665 8.16129 22.387C8.16129 23.1874 8.81248 23.8386 9.6129 23.8386H11.6452C11.6452 24.4791 12.166 24.9999 12.8065 24.9999H22.0968V24.7096C22.0968 23.9011 21.6209 23.2034 20.9355 22.8762V22.6773H24.129C24.6092 22.6773 25 22.2866 25 21.8064V16.5806C25 16.1004 24.6092 15.7096 24.129 15.7096ZM7.58065 18.9032V14.258C7.58065 11.8567 9.53423 9.90315 11.9355 9.90315C14.3367 9.90315 16.2903 11.8567 16.2903 14.258V15.7096H15.7097V14.258C15.7097 13.9479 15.5889 13.6562 15.3697 13.437C15.1502 13.2175 14.8587 13.0967 14.5484 13.0967H11.3545C10.7144 13.0967 10.1935 12.5759 10.1935 11.9357H9.6129C9.6129 12.5759 9.09206 13.0967 8.45161 13.0967H8.16129V16.5803C8.16129 17.4333 8.49342 18.2354 9.09671 18.8387C9.28803 19.03 9.50113 19.1906 9.72787 19.3256C9.17452 19.7239 8.74542 20.259 8.47774 20.8713C7.91132 20.3783 7.58065 19.6667 7.58065 18.9032ZM18.6129 22.8762C18.4091 22.9735 18.2224 23.1018 18.0627 23.258H15.7097V22.6773H18.6129V22.8762ZM14.5484 19.6719C14.4198 19.5483 14.2845 19.4324 14.1399 19.3279C14.2822 19.2437 14.4201 19.152 14.5484 19.0454V19.6719ZM14.5484 16.5806V18.2171C14.0493 18.837 13.3154 19.1935 12.5161 19.1935H11.3548C10.6569 19.1935 10.0008 18.9214 9.50723 18.4279C9.01368 17.9346 8.74194 17.2782 8.74194 16.5803L8.74223 13.6533C9.22561 13.5717 9.64194 13.2903 9.90323 12.8975C10.2156 13.3673 10.7495 13.6773 11.3545 13.6773H14.5484C14.7037 13.6773 14.8495 13.7377 14.9592 13.8475C15.0686 13.9569 15.129 14.103 15.129 14.258V15.763C14.792 15.8832 14.5484 16.2026 14.5484 16.5806ZM12.7574 19.7602C12.641 20.1045 12.3184 20.3548 11.9355 20.3548C11.5531 20.3548 11.2312 20.1057 11.1145 19.7625C11.1943 19.7683 11.2741 19.7741 11.3548 19.7741H12.5161C12.5974 19.7741 12.6773 19.7663 12.7574 19.7602ZM9.6129 23.258C9.13271 23.258 8.74194 22.8672 8.74194 22.387C8.74194 21.2315 9.36177 20.1829 10.3611 19.6144C10.4075 19.6295 10.4543 19.6432 10.5013 19.6563C10.5878 20.3748 11.1943 20.9354 11.9355 20.9354C12.6773 20.9354 13.2837 20.3742 13.3697 19.6554C13.4167 19.6426 13.4632 19.629 13.5096 19.6139C13.9207 19.8479 14.2766 20.1701 14.5484 20.5577V21.8064C14.5484 22.1844 14.792 22.5037 15.129 22.6239V23.258H14.5484V22.9677C14.5484 22.4875 14.1576 22.0967 13.6774 22.0967H12.753C12.6328 21.7596 12.3135 21.5161 11.9355 21.5161H10.0734L9.40765 22.1818L9.81816 22.5923L10.3137 22.0967H11.9355C12.0955 22.0967 12.2258 22.2268 12.2258 22.387V23.258H11.6452H9.6129ZM12.8065 22.6773H13.6774C13.8374 22.6773 13.9677 22.8074 13.9677 22.9677V23.258H12.8065V22.6773ZM17.4722 24.4193H12.8065C12.4862 24.4193 12.2258 24.1589 12.2258 23.8386H12.8065H17.6479C17.5619 24.0192 17.5018 24.2143 17.4722 24.4193ZM21.4868 24.4193H18.0616C18.1963 23.7576 18.783 23.258 19.4839 23.258H20.0645C20.7656 23.258 21.3521 23.7576 21.4868 24.4193ZM20.0645 22.6773H19.4839C19.3852 22.6773 19.2888 22.6869 19.1935 22.7006V20.6451C19.1935 20.4848 19.3239 20.3548 19.4839 20.3548H20.0645C20.2245 20.3548 20.3548 20.4848 20.3548 20.6451V22.7006C20.2596 22.6869 20.1632 22.6773 20.0645 22.6773ZM24.4194 21.8064C24.4194 21.9666 24.289 22.0967 24.129 22.0967H20.9355V20.6451C20.9355 20.1649 20.5447 19.7741 20.0645 19.7741H19.4839C19.0037 19.7741 18.6129 20.1649 18.6129 20.6451V22.0967H15.4194C15.2594 22.0967 15.129 21.9666 15.129 21.8064V16.5806C15.129 16.4203 15.2594 16.2903 15.4194 16.2903H24.129C24.289 16.2903 24.4194 16.4203 24.4194 16.5806V21.8064Z" fill="black"/>
<path d="M24.1291 7H18.3226C17.8424 7 17.4517 7.39077 17.4517 7.87097V11.3548C17.4517 11.835 17.8424 12.2258 18.3226 12.2258H20.6452V12.6863C20.6452 13.0727 20.9596 13.3871 21.346 13.3871C21.5304 13.3871 21.711 13.3122 21.8416 13.1818L22.7977 12.2258H24.1291C24.6093 12.2258 25 11.835 25 11.3548V7.87097C25 7.39077 24.6093 7 24.1291 7ZM24.4194 11.3548C24.4194 11.5151 24.289 11.6452 24.1291 11.6452H22.5573L21.4314 12.771C21.3614 12.8413 21.2259 12.7841 21.2259 12.6863V11.6452H18.3226C18.1627 11.6452 18.0323 11.5151 18.0323 11.3548V7.87097C18.0323 7.71071 18.1627 7.58065 18.3226 7.58065H24.1291C24.289 7.58065 24.4194 7.71071 24.4194 7.87097V11.3548Z" fill="black"/>
<path d="M23.2583 10.4839H23.8389V11.0645H23.2583V10.4839Z" fill="black"/>
<path d="M22.0967 10.4839H22.6773V11.0645H22.0967V10.4839Z" fill="black"/>
<path d="M19.7744 10.4839H20.3551V11.0645H19.7744V10.4839Z" fill="black"/>
<path d="M20.9355 10.4839H21.5162V11.0645H20.9355V10.4839Z" fill="black"/>
<path d="M18.6128 10.4839H19.1934V11.0645H18.6128V10.4839Z" fill="black"/>
<path d="M18.6128 8.16138H23.8386V8.74202H18.6128V8.16138Z" fill="black"/>
<path d="M18.6128 9.32251H23.8386V9.90315H18.6128V9.32251Z" fill="black"/>
</g>
<defs>
<clipPath id="clip0_3004_1552">
<rect width="18" height="18" fill="white" transform="translate(7 7)"/>
</clipPath>
</defs>
</svg>
