<svg width="32" height="32" viewBox="0 0 32 32" fill="none" xmlns="http://www.w3.org/2000/svg">
<rect width="32" height="32" rx="16" fill="#FFC727"/>
<path d="M20.2969 21.4688C20.0813 21.4688 19.9062 21.6438 19.9062 21.8594C19.9062 22.075 20.0813 22.25 20.2969 22.25C20.5125 22.25 20.6875 22.075 20.6875 21.8594C20.6875 21.6438 20.5125 21.4688 20.2969 21.4688Z" fill="black"/>
<path d="M21.2587 20.2056L19.402 19.5868L18.7355 18.2538C19.336 17.6426 19.7529 16.8339 19.8935 15.9904L19.9766 15.4922H20.6875C21.3337 15.4922 21.8594 14.9665 21.8594 14.3203V11.8594C21.8594 8.62852 19.2309 6 16 6C12.7609 6 10.1406 8.62098 10.1406 11.8594V14.3203C10.1406 14.8295 10.4672 15.2637 10.9219 15.425V15.8828C10.9219 16.529 11.4476 17.0547 12.0938 17.0547H12.4368C12.6061 17.4225 12.8253 17.7632 13.092 18.0693C13.1473 18.1329 13.205 18.1945 13.2641 18.2545L12.598 19.5868L10.7413 20.2056C8.5825 20.9255 7.01562 23.1981 7.01562 25.6094C7.01562 25.8251 7.19051 26 7.40625 26H24.5938C24.8095 26 24.9844 25.8251 24.9844 25.6094C24.9844 23.1981 23.4175 20.9255 21.2587 20.2056ZM21.0781 14.3203C21.0781 14.5357 20.9029 14.7109 20.6875 14.7109H20.0913C20.1906 13.9418 20.2568 13.1233 20.2834 12.3172C20.2842 12.2945 20.2848 12.2723 20.2855 12.25H21.0781V14.3203ZM11.3125 14.7109C11.0971 14.7109 10.9219 14.5357 10.9219 14.3203V12.25H11.7148C11.7161 12.2907 11.7174 12.3317 11.7189 12.3729C11.719 12.3743 11.7191 12.3757 11.7191 12.3771C11.7191 12.3772 11.7191 12.3773 11.7191 12.3774C11.7464 13.1615 11.8118 13.9587 11.9088 14.7109H11.3125V14.7109ZM12.0938 16.2734C11.8784 16.2734 11.7031 16.0982 11.7031 15.8828V15.4922H12.0234L12.1065 15.9906C12.1223 16.0853 12.1418 16.1797 12.1644 16.2734H12.0938ZM11.7038 11.4688H10.9367C11.1346 8.85074 13.3194 6.78125 16 6.78125C18.6687 6.78125 20.8631 8.85047 21.0632 11.4688H20.2963C20.2681 9.31145 18.5114 7.5625 16.3496 7.5625H15.6504C13.4887 7.5625 11.7319 9.31145 11.7038 11.4688ZM15.6504 8.34375H16.3496C18.1 8.34375 19.5166 9.77543 19.5156 11.5238C19.5156 11.6468 19.5146 11.7538 19.5126 11.8512C19.5126 11.8524 19.5125 11.8537 19.5125 11.855L19.0239 11.7852C17.6966 11.5957 16.4433 10.969 15.495 10.0207C15.4217 9.94742 15.3223 9.90625 15.2188 9.90625C14.1697 9.90625 13.1655 10.3842 12.5016 11.1917C12.6652 9.60113 14.0099 8.34375 15.6504 8.34375ZM12.9742 16.2734C12.7787 15.6229 12.5549 13.7089 12.5055 12.4823L13.0312 11.7813C13.5141 11.1377 14.2653 10.7378 15.0644 10.6919C16.1158 11.6925 17.4761 12.3533 18.9135 12.5586L19.4886 12.6407C19.4501 13.4566 19.3716 14.2752 19.259 15.0282C19.259 15.0284 19.2589 15.0287 19.2589 15.0289C19.2231 15.271 19.1949 15.4268 19.1229 15.8619C18.916 17.1027 17.9902 18.2248 16.7679 18.5304C16.2649 18.656 15.735 18.6559 15.2323 18.5304C14.4691 18.3396 13.7693 17.8116 13.3177 17.0547H14.1141C14.2753 17.5093 14.7095 17.8359 15.2188 17.8359H16C16.6475 17.8359 17.1719 17.3116 17.1719 16.6641C17.1719 16.0179 16.6462 15.4922 16 15.4922H15.2188C14.6982 15.4922 14.2704 15.8284 14.1134 16.2734H12.9742ZM15.1859 19.3209C15.4538 19.3774 15.727 19.4063 16 19.4063C16.2137 19.4063 16.4275 19.3884 16.6388 19.3537L15.9486 20.0836L15.1859 19.3209ZM15.4115 20.6515L14.1725 21.9618C13.8314 21.3089 13.5384 20.6294 13.298 19.9338L13.7632 19.0032L15.4115 20.6515ZM18.1705 18.8709L18.702 19.9337C18.4612 20.6305 18.168 21.3102 17.8273 21.9623L16.5012 20.6362L18.1705 18.8709ZM14.8281 16.6641C14.8281 16.4484 15.003 16.2734 15.2188 16.2734H16C16.2154 16.2734 16.3906 16.4487 16.3906 16.6641C16.3906 16.8798 16.2157 17.0547 16 17.0547H15.2188C15.0034 17.0547 14.8281 16.8795 14.8281 16.6641ZM7.8125 25.2188C7.9673 23.2836 9.25516 21.5247 10.9884 20.9468L12.6327 20.3988C12.9339 21.2318 13.3071 22.0414 13.7445 22.8105C13.7452 22.8118 13.7459 22.8132 13.7467 22.8145L13.7467 22.8145C14.0663 23.3766 14.426 23.9259 14.8159 24.4473L15.2965 25.2188H7.8125ZM16 24.8705L15.4702 24.02C15.4643 24.0105 15.458 24.0012 15.4512 23.9923C15.1349 23.5703 14.8398 23.129 14.5711 22.6773L15.9642 21.2041L17.4321 22.672C17.1615 23.127 16.8654 23.5701 16.5488 23.9922C16.5297 24.0177 16.5568 23.9775 16 24.8705ZM16.7035 25.2188L17.184 24.4473C17.5757 23.9239 17.938 23.3702 18.2607 22.8016C18.2627 22.7981 18.2645 22.7946 18.2665 22.7912C18.2667 22.7907 18.267 22.7904 18.2672 22.7899C18.699 22.0282 19.0683 21.2256 19.3673 20.3988L21.0116 20.9468C22.7448 21.5247 24.0327 23.2836 24.1875 25.2188H16.7035Z" fill="black"/>
<path d="M23.0134 23.6379C22.7524 23.1154 22.37 22.6511 21.9076 22.2954C21.7366 22.1638 21.4914 22.1958 21.3599 22.3668C21.2283 22.5379 21.2603 22.7831 21.4313 22.9146C21.8006 23.1988 22.106 23.5696 22.3145 23.987C22.4111 24.1804 22.6459 24.2582 22.8385 24.1619C23.0315 24.0655 23.1098 23.8309 23.0134 23.6379Z" fill="black"/>
</svg>
