<svg width="32" height="32" viewBox="0 0 32 32" fill="none" xmlns="http://www.w3.org/2000/svg">
<rect width="32" height="32" rx="16" fill="#FFC727"/>
<g clip-path="url(#clip0_3004_1473)">
<g clip-path="url(#clip1_3004_1473)">
<path d="M15.5 25.5625C13.5098 25.5625 11.5643 24.9724 9.90958 23.8667C8.25481 22.761 6.96507 21.1894 6.20347 19.3508C5.44186 17.5121 5.24259 15.4888 5.63085 13.5369C6.01912 11.585 6.97748 9.79201 8.38474 8.38474C9.79201 6.97748 11.585 6.01912 13.5369 5.63085C15.4888 5.24259 17.5121 5.44186 19.3508 6.20347C21.1894 6.96507 22.761 8.25481 23.8667 9.90958C24.9724 11.5643 25.5625 13.5098 25.5625 15.5C25.5594 18.1678 24.4983 20.7254 22.6118 22.6118C20.7254 24.4983 18.1678 25.5594 15.5 25.5625ZM15.5 6.3125C13.6829 6.3125 11.9066 6.85134 10.3957 7.86088C8.88483 8.87041 7.70724 10.3053 7.01186 11.9841C6.31648 13.6629 6.13454 15.5102 6.48904 17.2924C6.84354 19.0746 7.71857 20.7117 9.00346 21.9966C10.2884 23.2814 11.9254 24.1565 13.7076 24.511C15.4898 24.8655 17.3371 24.6835 19.0159 23.9881C20.6947 23.2928 22.1296 22.1152 23.1391 20.6043C24.1487 19.0934 24.6875 17.3171 24.6875 15.5C24.6848 13.0641 23.716 10.7288 21.9936 9.0064C20.2712 7.28399 17.9359 6.31517 15.5 6.3125Z" fill="black"/>
<path d="M20.75 15.0627C20.634 15.0627 20.5227 15.1088 20.4406 15.1909C20.3586 15.2729 20.3125 15.3842 20.3125 15.5002V19.0002C20.3117 19.2708 20.2271 19.5344 20.0704 19.755C19.9138 19.9756 19.6927 20.1423 19.4375 20.2322V19.0002C19.4359 18.4523 19.2283 17.9251 18.856 17.5231C18.4836 17.1212 17.9736 16.874 17.4274 16.8307C17.774 16.4559 18.0037 15.9882 18.0885 15.4849C18.1733 14.9816 18.1096 14.4645 17.905 13.9968C17.7005 13.5292 17.3641 13.1313 16.9369 12.8519C16.5098 12.5725 16.0104 12.4237 15.5 12.4237C14.9896 12.4237 14.4902 12.5725 14.0631 12.8519C13.6359 13.1313 13.2995 13.5292 13.095 13.9968C12.8904 14.4645 12.8267 14.9816 12.9115 15.4849C12.9963 15.9882 13.226 16.4559 13.5726 16.8307C13.0264 16.874 12.5164 17.1212 12.144 17.5231C11.7717 17.9251 11.5641 18.4523 11.5625 19.0002V20.2322C11.3073 20.1423 11.0862 19.9756 10.9296 19.755C10.7729 19.5344 10.6883 19.2708 10.6875 19.0002V12.0002C10.6879 11.6523 10.8263 11.3187 11.0724 11.0726C11.3184 10.8265 11.652 10.6881 12 10.6877H15.5C15.616 10.6877 15.7273 10.6417 15.8094 10.5596C15.8914 10.4776 15.9375 10.3663 15.9375 10.2502C15.9375 10.1342 15.8914 10.0229 15.8094 9.94089C15.7273 9.85884 15.616 9.81274 15.5 9.81274H12C11.42 9.81328 10.8639 10.0439 10.4538 10.454C10.0437 10.8642 9.81303 11.4202 9.8125 12.0002V19.0002C9.81303 19.5802 10.0437 20.1363 10.4538 20.5465C10.8639 20.9566 11.42 21.1872 12 21.1877H19C19.58 21.1872 20.1361 20.9566 20.5462 20.5465C20.9563 20.1363 21.187 19.5802 21.1875 19.0002V15.5002C21.1875 15.3842 21.1414 15.2729 21.0594 15.1909C20.9773 15.1088 20.866 15.0627 20.75 15.0627ZM15.5 13.3127C15.8461 13.3127 16.1845 13.4154 16.4722 13.6077C16.76 13.8 16.9843 14.0733 17.1168 14.393C17.2492 14.7128 17.2839 15.0647 17.2164 15.4042C17.1489 15.7436 16.9822 16.0554 16.7374 16.3002C16.4927 16.5449 16.1809 16.7116 15.8414 16.7791C15.5019 16.8466 15.1501 16.812 14.8303 16.6795C14.5105 16.5471 14.2372 16.3228 14.0449 16.035C13.8526 15.7472 13.75 15.4089 13.75 15.0627C13.7506 14.5988 13.9352 14.1541 14.2633 13.826C14.5913 13.4979 15.0361 13.3134 15.5 13.3127ZM13.75 17.6877H17.25C17.598 17.6881 17.9316 17.8265 18.1776 18.0726C18.4237 18.3187 18.5621 18.6523 18.5625 19.0002V20.3127H12.4375V19.0002C12.4379 18.6523 12.5763 18.3187 12.8224 18.0726C13.0684 17.8265 13.402 17.6881 13.75 17.6877Z" fill="black"/>
<path d="M18.3455 12.617L18.683 13.6287C18.7369 13.7912 18.8406 13.9327 18.9795 14.033C19.1183 14.1333 19.2852 14.1873 19.4565 14.1874C19.6277 14.1875 19.7947 14.1337 19.9336 14.0335C20.0726 13.9334 20.1765 13.792 20.2305 13.6295L21.1456 10.8858C21.1934 10.742 21.2002 10.5878 21.1653 10.4404C21.1304 10.293 21.0551 10.1582 20.948 10.0512C20.8408 9.94411 20.7059 9.869 20.5585 9.83425C20.411 9.79951 20.2568 9.8065 20.1131 9.85444L17.3705 10.7696C17.208 10.8236 17.0667 10.9275 16.9666 11.0663C16.8664 11.2052 16.8125 11.3721 16.8125 11.5433C16.8125 11.7145 16.8664 11.8814 16.9666 12.0203C17.0667 12.1592 17.208 12.263 17.3705 12.317L18.3455 12.617ZM20.2775 10.7225L19.4572 13.1835L19.1761 12.3401C19.1354 12.2202 19.0677 12.1113 18.9782 12.0217C18.8887 11.9322 18.7797 11.8645 18.6598 11.8239L17.7567 11.5634L20.2775 10.7225Z" fill="black"/>
</g>
</g>
<defs>
<clipPath id="clip0_3004_1473">
<rect width="22" height="22" fill="white" transform="translate(5 5)"/>
</clipPath>
<clipPath id="clip1_3004_1473">
<rect width="21" height="21" fill="white" transform="translate(5 5)"/>
</clipPath>
</defs>
</svg>
