<svg width="32" height="32" viewBox="0 0 32 32" fill="none" xmlns="http://www.w3.org/2000/svg">
<rect width="32" height="32" rx="16" fill="#FFC727"/>
<path d="M24.9998 6.41675H6.99984C6.1265 6.41675 5.4165 7.12675 5.4165 8.00008V21.3334C5.4165 22.2067 6.1265 22.9167 6.99984 22.9167H8.6665C8.80317 22.9167 8.9165 22.8034 8.9165 22.6667C8.9165 22.5301 8.80317 22.4167 8.6665 22.4167H6.99984C6.40317 22.4167 5.9165 21.9301 5.9165 21.3334V8.00008C5.9165 7.40341 6.40317 6.91675 6.99984 6.91675H24.9998C25.5965 6.91675 26.0832 7.40341 26.0832 8.00008V21.3334C26.0832 21.9301 25.5965 22.4167 24.9998 22.4167H9.6665C9.52984 22.4167 9.4165 22.5301 9.4165 22.6667C9.4165 22.8034 9.52984 22.9167 9.6665 22.9167H13.2998C12.9665 23.7067 12.5265 24.4334 11.9765 25.0834H10.6665C10.5298 25.0834 10.4165 25.1967 10.4165 25.3334C10.4165 25.4701 10.5298 25.5834 10.6665 25.5834H21.3332C21.4698 25.5834 21.5832 25.4701 21.5832 25.3334C21.5832 25.1967 21.4698 25.0834 21.3332 25.0834H20.0198C19.4698 24.4334 19.0298 23.7034 18.6965 22.9167H24.9998C25.8732 22.9167 26.5832 22.2067 26.5832 21.3334V8.00008C26.5832 7.12675 25.8732 6.41675 24.9998 6.41675ZM19.3732 25.0834H12.6265C13.1332 24.4234 13.5432 23.6967 13.8498 22.9167H18.1498C18.4565 23.6967 18.8665 24.4234 19.3732 25.0834Z" fill="black"/>
<path d="M15.9998 21.6667C16.1839 21.6667 16.3332 21.5174 16.3332 21.3333C16.3332 21.1492 16.1839 21 15.9998 21C15.8157 21 15.6665 21.1492 15.6665 21.3333C15.6665 21.5174 15.8157 21.6667 15.9998 21.6667Z" fill="black"/>
<path d="M25 17.92C25.1367 17.92 25.25 17.8067 25.25 17.67V8C25.25 7.86333 25.1367 7.75 25 7.75H7C6.86333 7.75 6.75 7.86333 6.75 8V20C6.75 20.1367 6.86333 20.25 7 20.25H25C25.1367 20.25 25.25 20.1367 25.25 20V18.6667C25.25 18.53 25.1367 18.4167 25 18.4167C24.8633 18.4167 24.75 18.53 24.75 18.6667V19.75H7.25V8.25H24.75V17.67C24.75 17.8067 24.8633 17.92 25 17.92Z" fill="black"/>
<path d="M10.9997 9.0835C9.38967 9.0835 8.08301 10.3935 8.08301 12.0002C8.08301 12.7802 8.38634 13.5135 8.93634 14.0635C8.98634 14.1135 9.04967 14.1368 9.11301 14.1368C9.17634 14.1368 9.23967 14.1135 9.28967 14.0635L11.103 12.2502H13.403C13.2763 13.4668 12.2463 14.4168 10.9997 14.4168C10.6497 14.4168 10.313 14.3435 9.99967 14.2002C9.87634 14.1435 9.72634 14.1968 9.66967 14.3235C9.61301 14.4502 9.66967 14.5968 9.79301 14.6535C10.173 14.8268 10.5797 14.9135 10.9997 14.9135C12.6097 14.9135 13.9163 13.6035 13.9163 11.9968C13.9163 10.3902 12.6097 9.0835 10.9997 9.0835ZM10.7497 9.59683V11.8968L9.12301 13.5235C8.77301 13.0935 8.58301 12.5602 8.58301 12.0002C8.58301 10.7535 9.53301 9.7235 10.7497 9.59683ZM11.2497 11.7502V9.59683C12.383 9.7135 13.2863 10.6168 13.403 11.7502H11.2497Z" fill="black"/>
<path d="M13.6663 15.75H8.33301C8.19634 15.75 8.08301 15.8633 8.08301 16C8.08301 16.1367 8.19634 16.25 8.33301 16.25H13.6663C13.803 16.25 13.9163 16.1367 13.9163 16C13.9163 15.8633 13.803 15.75 13.6663 15.75Z" fill="black"/>
<path d="M13.9163 17.3335C13.9163 17.1968 13.803 17.0835 13.6663 17.0835H8.33301C8.19634 17.0835 8.08301 17.1968 8.08301 17.3335C8.08301 17.4702 8.19634 17.5835 8.33301 17.5835H13.6663C13.803 17.5835 13.9163 17.4702 13.9163 17.3335Z" fill="black"/>
<path d="M8.33301 18.4167C8.19634 18.4167 8.08301 18.5301 8.08301 18.6667C8.08301 18.8034 8.19634 18.9167 8.33301 18.9167H10.9997C11.1363 18.9167 11.2497 18.8034 11.2497 18.6667C11.2497 18.5301 11.1363 18.4167 10.9997 18.4167H8.33301Z" fill="black"/>
<path d="M21 15.75C20.8633 15.75 20.75 15.8633 20.75 16V18.6667C20.75 18.8033 20.8633 18.9167 21 18.9167H22.3333C22.47 18.9167 22.5833 18.8033 22.5833 18.6667V16C22.5833 15.8633 22.47 15.75 22.3333 15.75H21ZM22.0833 18.4167H21.25V16.25H22.0833V18.4167Z" fill="black"/>
<path d="M19.6663 14.4501C19.803 14.4501 19.9163 14.3367 19.9163 14.2001V12.6667C19.9163 12.5301 19.803 12.4167 19.6663 12.4167H18.333C18.1963 12.4167 18.083 12.5301 18.083 12.6667V18.6667C18.083 18.8034 18.1963 18.9167 18.333 18.9167H19.6663C19.803 18.9167 19.9163 18.8034 19.9163 18.6667V15.1667C19.9163 15.0301 19.803 14.9167 19.6663 14.9167C19.5297 14.9167 19.4163 15.0301 19.4163 15.1667V18.4167H18.583V12.9167H19.4163V14.2001C19.4163 14.3367 19.5297 14.4501 19.6663 14.4501Z" fill="black"/>
<path d="M15.6665 14.4167C15.5298 14.4167 15.4165 14.5301 15.4165 14.6667V18.6667C15.4165 18.8034 15.5298 18.9167 15.6665 18.9167H16.9998C17.1365 18.9167 17.2498 18.8034 17.2498 18.6667V14.6667C17.2498 14.5301 17.1365 14.4167 16.9998 14.4167H15.6665ZM16.7498 18.4167H15.9165V14.9167H16.7498V18.4167Z" fill="black"/>
<path d="M23.6665 11.5833C23.8032 11.5833 23.9165 11.47 23.9165 11.3333V10.3333C23.9165 10.3 23.9098 10.27 23.8965 10.2366C23.8698 10.1766 23.8231 10.1266 23.7598 10.1C23.7298 10.0866 23.6965 10.08 23.6632 10.08H22.6632C22.5265 10.08 22.4132 10.1933 22.4132 10.33C22.4132 10.4666 22.5265 10.58 22.6632 10.58H23.0598L21.6665 11.98L19.1765 9.48998C19.0798 9.39331 18.9198 9.39331 18.8232 9.48998L16.1565 12.1566C16.0598 12.2533 16.0598 12.4133 16.1565 12.51C16.2532 12.6066 16.4132 12.6066 16.5098 12.51L18.9998 10.02L21.4898 12.51C21.5398 12.56 21.6032 12.5833 21.6665 12.5833C21.7298 12.5833 21.7932 12.56 21.8432 12.51L23.4165 10.9366V11.3333C23.4165 11.47 23.5298 11.5833 23.6665 11.5833Z" fill="black"/>
</svg>
