<svg width="33" height="32" viewBox="0 0 33 32" fill="none" xmlns="http://www.w3.org/2000/svg">
<rect x="1" width="32" height="32" rx="16" fill="#FFC727"/>
<g clip-path="url(#clip0_3004_1434)">
<path d="M23.1562 14.9688H23.8438C23.8438 14.0659 23.6659 13.1719 23.3204 12.3378C22.9749 11.5037 22.4685 10.7458 21.8301 10.1074C21.1917 9.46899 20.4338 8.96258 19.5997 8.61708C18.7656 8.27158 17.8716 8.09375 16.9688 8.09375V8.78125C17.7813 8.78125 18.5859 8.94129 19.3366 9.25225C20.0873 9.5632 20.7694 10.019 21.344 10.5935C21.9185 11.1681 22.3743 11.8502 22.6853 12.6009C22.9962 13.3516 23.1562 14.1562 23.1562 14.9688Z" fill="black"/>
<path d="M25.7447 18.4579C25.6924 18.4277 25.6331 18.4119 25.5728 18.4119C25.5125 18.4119 25.4532 18.4277 25.4009 18.4579L22.6509 19.8329C22.5976 19.8613 22.5526 19.9033 22.5206 19.9546C22.4886 20.0059 22.4707 20.0647 22.4687 20.1251V22.5932C22.2622 22.5202 22.0379 22.5149 21.8281 22.5779C21.6183 22.641 21.4341 22.7692 21.3021 22.944C21.1701 23.1188 21.0971 23.331 21.0939 23.55C21.0906 23.7691 21.1571 23.9834 21.2838 24.1621C21.4105 24.3407 21.5908 24.4744 21.7986 24.5437C22.0064 24.6131 22.2308 24.6144 22.4394 24.5476C22.648 24.4809 22.83 24.3494 22.9588 24.1723C23.0877 23.9952 23.1569 23.7816 23.1562 23.5626V22.057L25.2187 21.0257V21.9057C25.0122 21.8327 24.7879 21.8274 24.5781 21.8904C24.3683 21.9535 24.1841 22.0817 24.0521 22.2565C23.9201 22.4313 23.8471 22.6435 23.8439 22.8625C23.8406 23.0816 23.9071 23.2959 24.0338 23.4746C24.1605 23.6532 24.3408 23.7869 24.5486 23.8562C24.7564 23.9256 24.9808 23.9269 25.1894 23.8601C25.398 23.7934 25.58 23.6619 25.7088 23.4848C25.8377 23.3077 25.9069 23.0941 25.9062 22.8751V18.7501C25.9064 18.6917 25.8916 18.6342 25.8633 18.5831C25.8351 18.532 25.7942 18.4889 25.7447 18.4579ZM22.125 23.9064C22.057 23.9064 21.9905 23.8862 21.934 23.8484C21.8775 23.8107 21.8334 23.757 21.8074 23.6942C21.7814 23.6313 21.7746 23.5622 21.7879 23.4955C21.8011 23.4289 21.8339 23.3676 21.8819 23.3195C21.93 23.2715 21.9913 23.2387 22.0579 23.2255C22.1246 23.2122 22.1937 23.219 22.2565 23.245C22.3194 23.271 22.373 23.3151 22.4108 23.3716C22.4486 23.4282 22.4687 23.4946 22.4687 23.5626C22.4687 23.6538 22.4325 23.7412 22.3681 23.8057C22.3036 23.8701 22.2162 23.9064 22.125 23.9064ZM23.1562 21.287V20.3382L25.2187 19.307V20.2557L23.1562 21.287ZM24.875 23.2189C24.807 23.2189 24.7405 23.1987 24.684 23.1609C24.6275 23.1232 24.5834 23.0695 24.5574 23.0067C24.5314 22.9438 24.5246 22.8747 24.5379 22.808C24.5511 22.7414 24.5839 22.6801 24.6319 22.632C24.68 22.584 24.7413 22.5512 24.8079 22.538C24.8746 22.5247 24.9437 22.5315 25.0065 22.5575C25.0694 22.5835 25.123 22.6276 25.1608 22.6841C25.1986 22.7407 25.2187 22.8071 25.2187 22.8751C25.2187 22.9663 25.1825 23.0537 25.1181 23.1182C25.0536 23.1826 24.9662 23.2189 24.875 23.2189Z" fill="black"/>
<path d="M26.2053 17.657C26.8102 15.6007 26.713 13.4015 25.929 11.4066C25.145 9.41171 23.7189 7.73479 21.8758 6.6406C20.0327 5.5464 17.8777 5.09727 15.7509 5.36412C13.6242 5.63097 11.6469 6.59859 10.1313 8.11421C8.61568 9.62984 7.64806 11.6071 7.38121 13.7339C7.11436 15.8606 7.56349 18.0156 8.65769 19.8587C9.75188 21.7018 11.4288 23.1279 13.4237 23.9119C15.4186 24.6959 17.6178 24.7931 19.674 24.1882C20.0327 24.8442 20.5393 25.4076 21.1536 25.8337C21.7678 26.2599 22.473 26.537 23.213 26.6432C23.9531 26.7494 24.7077 26.6818 25.417 26.4456C26.1264 26.2094 26.7709 25.8111 27.2996 25.2825C27.8282 24.7538 28.2265 24.1093 28.4627 23.3999C28.6989 22.6906 28.7665 21.936 28.6603 21.1959C28.5541 20.4559 28.277 19.7508 27.8508 19.1365C27.4247 18.5222 26.8613 18.0156 26.2053 17.657ZM16.9687 23.9063C15.091 23.9125 13.2587 23.3284 11.7309 22.2366C10.2032 21.1449 9.05709 19.6006 8.45469 17.822C7.85229 16.0435 7.82402 14.1206 8.37388 12.3251C8.92374 10.5297 10.0239 8.95236 11.5189 7.81614C13.014 6.67992 14.8282 6.04223 16.7054 5.99319C18.5825 5.94415 20.4276 6.48623 21.98 7.54284C23.5323 8.59944 24.7133 10.1171 25.3562 11.8815C25.999 13.6458 26.0712 15.5675 25.5625 17.3751C25.3482 17.2935 25.1289 17.2258 24.9059 17.1723C25.396 15.4126 25.2895 13.5402 24.603 11.8475C23.9165 10.1547 22.6888 8.73702 21.1115 7.81572C19.5343 6.89443 17.6963 6.52144 15.8847 6.75501C14.073 6.98859 12.3898 7.81557 11.0978 9.1068C9.80577 10.398 8.97778 12.0808 8.74312 13.8923C8.50847 15.7038 8.88036 17.542 9.80071 19.1198C10.7211 20.6976 12.138 21.9262 13.8304 22.6137C15.5227 23.3011 17.395 23.4088 19.155 22.9198C19.2147 23.1385 19.2882 23.3532 19.375 23.5626C18.5922 23.7856 17.7827 23.9013 16.9687 23.9063ZM19.0312 21.8438C19.0312 21.9745 19.0312 22.1051 19.0519 22.2357C17.4407 22.6979 15.7216 22.6118 14.1647 21.9909C12.6078 21.3699 11.3014 20.2493 10.4505 18.8052C9.59974 17.361 9.25281 15.6751 9.46429 14.0123C9.67576 12.3496 10.4336 10.8042 11.6189 9.61896C12.8041 8.43374 14.3495 7.67586 16.0122 7.46438C17.675 7.25291 19.3609 7.59983 20.8051 8.45065C22.2492 9.30146 23.3698 10.6079 23.9908 12.1648C24.6117 13.7217 24.6978 15.4408 24.2356 17.052C24.105 17.0313 23.9744 17.0313 23.8437 17.0313C22.5674 17.0313 21.3433 17.5384 20.4408 18.4409C19.5383 19.3434 19.0312 20.5675 19.0312 21.8438ZM23.8437 25.9688C23.0279 25.9688 22.2304 25.7269 21.552 25.2736C20.8737 24.8204 20.3449 24.1761 20.0327 23.4224C19.7205 22.6687 19.6388 21.8393 19.798 21.0391C19.9572 20.2389 20.35 19.5039 20.9269 18.927C21.5038 18.3501 22.2388 17.9573 23.039 17.7981C23.8392 17.6389 24.6686 17.7206 25.4223 18.0328C26.1761 18.345 26.8203 18.8738 27.2735 19.5521C27.7268 20.2305 27.9687 21.028 27.9687 21.8438C27.9687 22.9379 27.5341 23.9871 26.7606 24.7607C25.987 25.5342 24.9378 25.9688 23.8437 25.9688Z" fill="black"/>
<path d="M16.2812 11.875H14.9062C14.8151 11.875 14.7276 11.9112 14.6632 11.9757C14.5987 12.0401 14.5625 12.1276 14.5625 12.2188V17.7188C14.5625 17.8099 14.5987 17.8974 14.6632 17.9618C14.7276 18.0263 14.8151 18.0625 14.9062 18.0625H16.2812C16.3724 18.0625 16.4599 18.0263 16.5243 17.9618C16.5888 17.8974 16.625 17.8099 16.625 17.7188V12.2188C16.625 12.1276 16.5888 12.0401 16.5243 11.9757C16.4599 11.9112 16.3724 11.875 16.2812 11.875ZM15.9375 17.375H15.25V12.5625H15.9375V17.375Z" fill="black"/>
<path d="M19.0312 11.875H17.6562C17.5651 11.875 17.4776 11.9112 17.4132 11.9757C17.3487 12.0401 17.3125 12.1276 17.3125 12.2188V17.7188C17.3125 17.8099 17.3487 17.8974 17.4132 17.9618C17.4776 18.0263 17.5651 18.0625 17.6562 18.0625H19.0312C19.1224 18.0625 19.2099 18.0263 19.2743 17.9618C19.3388 17.8974 19.375 17.8099 19.375 17.7188V12.2188C19.375 12.1276 19.3388 12.0401 19.2743 11.9757C19.2099 11.9112 19.1224 11.875 19.0312 11.875ZM18.6875 17.375H18V12.5625H18.6875V17.375Z" fill="black"/>
</g>
<defs>
<clipPath id="clip0_3004_1434">
<rect width="22" height="22" fill="white" transform="translate(7 5)"/>
</clipPath>
</defs>
</svg>
