<svg width="53" height="53" viewBox="0 0 53 53" fill="none" xmlns="http://www.w3.org/2000/svg">
<path d="M9.08643 24.3579C8.70557 24.3579 8.37842 24.0684 8.34131 23.6812C8.31885 23.457 8.31787 23.2324 8.31787 23.0078C8.31787 11.9082 17.3481 2.87793 28.4478 2.87793C39.5474 2.87793 48.5776 11.9082 48.5776 23.0078C48.5776 23.4219 48.2417 23.7578 47.8276 23.7578C47.4136 23.7578 47.0776 23.4219 47.0776 23.0078C47.0776 12.7354 38.7202 4.37793 28.4478 4.37793C18.1753 4.37793 9.81787 12.7354 9.81787 23.0078C9.81787 23.1836 9.81689 23.3594 9.8335 23.5347C9.87451 23.9473 9.57275 24.314 9.16064 24.3545C9.13525 24.3569 9.11084 24.3579 9.08643 24.3579Z" fill="black"/>
<path d="M30.8862 42.9926C30.4722 42.9926 30.0864 42.6596 30.0864 42.2456C30.0864 41.831 30.3735 41.498 30.7876 41.498H30.7974C36.4204 40.8232 41.5835 37.438 44.521 32.4477C44.731 32.0903 45.188 31.9712 45.5483 32.1816C45.9048 32.3921 46.0239 32.8515 45.814 33.2085C42.6401 38.6001 37.0601 42.2573 30.8862 42.9926Z" fill="black"/>
<path d="M19.8071 41.1182C19.6753 41.1182 19.5503 41.084 19.4429 41.0239C19.2026 40.8989 19.0376 40.6475 19.0376 40.3579C19.0376 39.9438 19.3735 39.6079 19.7876 39.6079C20.2017 39.6079 20.5571 39.9541 20.5571 40.3682C20.5571 40.7822 20.2212 41.1182 19.8071 41.1182Z" fill="black"/>
<path d="M28.4468 35.8936C21.3433 35.8936 15.5649 30.1152 15.5649 23.0127C15.5649 15.9097 21.3433 10.1313 28.4468 10.1313C35.5493 10.1313 41.3276 15.9097 41.3276 23.0127C41.3276 30.1152 35.5493 35.8936 28.4468 35.8936ZM28.4468 11.6313C22.1704 11.6313 17.0649 16.7368 17.0649 23.0127C17.0649 29.2881 22.1704 34.3936 28.4468 34.3936C34.7222 34.3936 39.8276 29.2881 39.8276 23.0127C39.8276 16.7368 34.7222 11.6313 28.4468 11.6313Z" fill="black"/>
<path d="M28.4468 13.2285C28.0327 13.2285 27.6968 12.8926 27.6968 12.4785V10.8813C27.6968 10.4673 28.0327 10.1313 28.4468 10.1313C28.8608 10.1313 29.1968 10.4673 29.1968 10.8813V12.4785C29.1968 12.8926 28.8608 13.2285 28.4468 13.2285Z" fill="black"/>
<path d="M28.4468 35.8936C28.0327 35.8936 27.6968 35.5576 27.6968 35.1436V33.5464C27.6968 33.1323 28.0327 32.7964 28.4468 32.7964C28.8608 32.7964 29.1968 33.1323 29.1968 33.5464V35.1436C29.1968 35.5576 28.8608 35.8936 28.4468 35.8936Z" fill="black"/>
<path d="M23.1801 14.6402C22.9204 14.6402 22.6684 14.5059 22.5297 14.2647L21.7319 12.8814C21.5248 12.523 21.6479 12.064 22.0063 11.857C22.3666 11.6505 22.8247 11.7735 23.0307 12.1324L23.8286 13.5157C24.0356 13.8741 23.9125 14.3331 23.5541 14.5401C23.436 14.608 23.3071 14.6402 23.1801 14.6402Z" fill="black"/>
<path d="M19.3227 18.4955C19.1957 18.4955 19.0668 18.4633 18.9487 18.3949L17.5659 17.5966C17.2075 17.3896 17.0844 16.9311 17.2914 16.5722C17.4975 16.2138 17.9565 16.0902 18.3159 16.2978L19.6987 17.0961C20.0571 17.3031 20.1801 17.7616 19.9731 18.1205C19.8344 18.3612 19.5825 18.4955 19.3227 18.4955Z" fill="black"/>
<path d="M17.9126 23.7627H16.3159C15.9019 23.7627 15.5659 23.4268 15.5659 23.0127C15.5659 22.5986 15.9019 22.2627 16.3159 22.2627H17.9126C18.3267 22.2627 18.6626 22.5986 18.6626 23.0127C18.6626 23.4268 18.3267 23.7627 17.9126 23.7627Z" fill="black"/>
<path d="M17.9418 29.828C17.6821 29.828 17.4301 29.6937 17.2914 29.453C17.0844 29.0941 17.2075 28.6356 17.5659 28.4286L18.9487 27.6303C19.309 27.4223 19.767 27.5463 19.9731 27.9047C20.1801 28.2636 20.0571 28.7221 19.6987 28.9291L18.3159 29.7274C18.1977 29.7958 18.0688 29.828 17.9418 29.828Z" fill="black"/>
<path d="M22.3803 34.2685C22.2534 34.2685 22.1245 34.2363 22.0063 34.1685C21.6479 33.9614 21.5248 33.5024 21.7319 33.144L22.5297 31.7607C22.7358 31.4023 23.1938 31.2793 23.5541 31.4853C23.9125 31.6924 24.0356 32.1514 23.8286 32.5098L23.0307 33.8931C22.892 34.1343 22.6401 34.2685 22.3803 34.2685Z" fill="black"/>
<path d="M34.5131 34.2686C34.2534 34.2686 34.0014 34.1343 33.8627 33.8936L33.0639 32.5103C32.8569 32.1519 32.9799 31.6929 33.3383 31.4859C33.6977 31.2779 34.1567 31.4024 34.3627 31.7603L35.1616 33.1436C35.3686 33.502 35.2455 33.961 34.8872 34.168C34.769 34.2364 34.6401 34.2686 34.5131 34.2686Z" fill="black"/>
<path d="M38.9516 29.828C38.8247 29.828 38.6957 29.7958 38.5776 29.7274L37.1938 28.9291C36.8354 28.7225 36.7123 28.2636 36.9194 27.9047C37.1254 27.5463 37.5844 27.4223 37.9438 27.6303L39.3276 28.4286C39.686 28.6351 39.809 29.0941 39.602 29.453C39.4633 29.6937 39.2114 29.828 38.9516 29.828Z" fill="black"/>
<path d="M40.5776 23.7627H38.98C38.5659 23.7627 38.23 23.4268 38.23 23.0127C38.23 22.5986 38.5659 22.2627 38.98 22.2627H40.5776C40.9917 22.2627 41.3276 22.5986 41.3276 23.0127C41.3276 23.4268 40.9917 23.7627 40.5776 23.7627Z" fill="black"/>
<path d="M37.5698 18.4955C37.31 18.4955 37.058 18.3612 36.9194 18.1205C36.7123 17.7616 36.8354 17.3027 37.1938 17.0961L38.5776 16.2978C38.9379 16.0902 39.395 16.2138 39.602 16.5722C39.809 16.9311 39.686 17.3901 39.3276 17.5966L37.9438 18.3949C37.8256 18.4633 37.6967 18.4955 37.5698 18.4955Z" fill="black"/>
<path d="M33.7123 14.6401C33.5854 14.6401 33.4565 14.6079 33.3383 14.5396C32.9799 14.3325 32.8569 13.8735 33.0639 13.5151L33.8627 12.1318C34.0688 11.7739 34.5278 11.6489 34.8872 11.8574C35.2455 12.0645 35.3686 12.5234 35.1616 12.8818L34.3627 14.2651C34.2241 14.5059 33.9721 14.6401 33.7123 14.6401Z" fill="black"/>
<path d="M33.0278 23.7578H30.3677C29.9536 23.7578 29.6177 23.4219 29.6177 23.0078C29.6177 22.5938 29.9536 22.2578 30.3677 22.2578H33.0278C33.4419 22.2578 33.7778 22.5938 33.7778 23.0078C33.7778 23.4219 33.4419 23.7578 33.0278 23.7578Z" fill="black"/>
<path d="M27.4679 22.1078C27.212 22.1078 26.962 21.977 26.8224 21.7411L23.9923 16.9814C23.7804 16.6254 23.8976 16.165 24.2531 15.9535C24.6134 15.7401 25.0704 15.8593 25.2814 16.2148L28.1115 20.9745C28.3234 21.3305 28.2062 21.7909 27.8507 22.0024C27.7296 22.0741 27.5978 22.1078 27.4679 22.1078Z" fill="black"/>
<path d="M28.4478 25.6826C26.9731 25.6826 25.7739 24.4829 25.7739 23.0083C25.7739 21.5386 26.9731 20.3428 28.4478 20.3428C29.9224 20.3428 31.1216 21.5386 31.1216 23.0083C31.1216 24.4829 29.9224 25.6826 28.4478 25.6826ZM28.4478 21.8428C27.8003 21.8428 27.2739 22.3657 27.2739 23.0083C27.2739 23.6558 27.8003 24.1826 28.4478 24.1826C29.0952 24.1826 29.6216 23.6558 29.6216 23.0083C29.6216 22.3657 29.0952 21.8428 28.4478 21.8428Z" fill="black"/>
<path d="M47.7056 23.9512C47.5063 23.9512 47.3159 23.8721 47.1753 23.7314L44.3843 20.9409C44.0913 20.6479 44.0913 20.1733 44.3843 19.8804C44.6772 19.5874 45.1519 19.5874 45.4448 19.8804L47.7046 22.1401L49.9644 19.876C50.2573 19.5825 50.7329 19.5825 51.0259 19.875C51.3188 20.1675 51.3188 20.6426 51.0269 20.9355L48.2368 23.731C48.0962 23.8721 47.9048 23.9512 47.7056 23.9512Z" fill="black"/>
<path d="M26.5599 50.122C22.5883 50.1225 17.2035 47.0361 12.932 43.6039C5.24744 37.4286 -0.709592 28.9086 2.77283 24.5732L5.26697 21.6674C5.89978 20.9321 7.01502 20.8456 7.75232 21.4785L14.6781 27.4252C15.0355 27.7314 15.2523 28.1591 15.2875 28.6288C15.3236 29.0981 15.1742 29.5532 14.8676 29.9101L12.8422 32.2695C12.6508 32.4926 12.7416 32.9116 12.851 33.2241C13.6762 35.5722 18.0121 39.2953 20.4574 39.7548C20.7845 39.8168 21.2113 39.8427 21.4017 39.6196L23.4281 37.2597C24.0619 36.5234 25.1752 36.4379 25.9135 37.0703L32.8392 43.0165C33.1967 43.3232 33.4135 43.7509 33.4486 44.2206C33.4847 44.6899 33.3353 45.145 33.0287 45.5019L30.5502 48.3891C29.5707 49.6064 28.183 50.122 26.5599 50.122ZM6.60486 22.5536C6.53064 22.5536 6.4574 22.5844 6.40564 22.645L3.92713 25.5317C1.21033 28.9145 6.8451 36.788 13.8724 42.4345C19.5892 47.0297 26.8861 50.5493 29.3959 47.4306L31.89 44.5248C31.9525 44.4531 31.9564 44.3745 31.9535 44.3339C31.9506 44.2934 31.934 44.2167 31.8627 44.1552L24.9369 38.2084C24.8256 38.1147 24.6605 38.1279 24.5668 38.2368L22.5404 40.5966C22.1771 41.0185 21.4789 41.4731 20.1801 41.2289C17.1859 40.6664 12.4457 36.5966 11.4359 33.7216C10.9994 32.4799 11.3412 31.7153 11.7035 31.2924L13.7289 28.9335C13.7914 28.8613 13.7953 28.7827 13.7924 28.7421C13.7894 28.7016 13.7728 28.6249 13.7015 28.5634L6.77576 22.6166C6.72596 22.5746 6.66541 22.5536 6.60486 22.5536Z" fill="black"/>
<path d="M30.5396 48.0006C30.3609 48.0006 30.1871 47.9366 30.0514 47.8194L21.5885 40.5543C21.4371 40.4249 21.3443 40.2408 21.3287 40.0426C21.3141 39.8439 21.3785 39.6476 21.5074 39.4967L23.4283 37.2599C24.0621 36.5235 25.1754 36.4381 25.9137 37.0704L32.8394 43.0177C33.1959 43.3229 33.4127 43.7496 33.4488 44.2189C33.485 44.6886 33.3355 45.1446 33.0289 45.5021L31.109 47.7389C30.9791 47.8902 30.7945 47.9835 30.5963 47.9986C30.5777 48.0001 30.5582 48.0006 30.5396 48.0006ZM23.1344 39.9049L30.4586 46.193L31.8902 44.5255C31.9527 44.4532 31.9566 44.3741 31.9537 44.3336C31.9508 44.2936 31.9342 44.2169 31.8629 44.1564L24.9371 38.2086C24.8258 38.1148 24.6607 38.1271 24.567 38.2374L23.1344 39.9049Z" fill="black"/>
<path d="M12.3785 32.4086C12.1998 32.4086 12.026 32.3447 11.8902 32.2275L3.42734 24.9623C3.27597 24.8329 3.1832 24.6489 3.16757 24.4506C3.15293 24.2519 3.21738 24.0561 3.34628 23.9047L5.26718 21.6674C5.9 20.9321 7.01523 20.8456 7.75253 21.4785L14.6783 27.4252C15.0357 27.7314 15.2525 28.1591 15.2877 28.6288C15.3238 29.0981 15.1744 29.5532 14.8678 29.9101L12.9478 32.1469C12.818 32.2983 12.6334 32.3915 12.4352 32.4067C12.4166 32.4081 12.3971 32.4086 12.3785 32.4086ZM4.97324 24.3129L12.2975 30.601L13.7291 28.9335C13.7916 28.8613 13.7955 28.7827 13.7926 28.7421C13.7896 28.7016 13.773 28.6249 13.7018 28.5634L6.77597 22.6166C6.66562 22.5234 6.4996 22.5351 6.40585 22.645L4.97324 24.3129Z" fill="black"/>
</svg>
