<svg width="46" height="46" viewBox="0 0 46 46" fill="none" xmlns="http://www.w3.org/2000/svg">
<g clip-path="url(#clip0_3004_1626)">
<path d="M21.1066 43.4097H18.844C18.5726 43.4097 18.3525 43.1897 18.3525 42.9182C18.3525 42.6467 18.5726 42.4268 18.844 42.4268H21.1066C21.378 42.4268 21.5981 42.6467 21.5981 42.9182C21.5981 43.1897 21.378 43.4097 21.1066 43.4097Z" fill="black"/>
<path d="M39.9201 25.5019C40.273 25.5019 40.559 25.2159 40.559 24.863C40.559 24.5102 40.273 24.2241 39.9201 24.2241C39.5673 24.2241 39.2812 24.5102 39.2812 24.863C39.2812 25.2159 39.5673 25.5019 39.9201 25.5019Z" fill="black"/>
<path d="M19.695 33.9313C17.8351 33.9313 16.3218 32.4174 16.3218 30.5565C16.3218 28.6955 17.8351 27.1816 19.695 27.1816C21.5551 27.1816 23.0682 28.6955 23.0682 30.5565C23.0682 32.4174 21.5551 33.9313 19.695 33.9313ZM19.695 28.1645C18.3769 28.1645 17.3047 29.2376 17.3047 30.5565C17.3047 31.8753 18.3769 32.9484 19.695 32.9484C21.0131 32.9484 22.0853 31.8753 22.0853 30.5565C22.0853 29.2376 21.0131 28.1645 19.695 28.1645Z" fill="black"/>
<path d="M30.2503 30.208C30.0145 29.9733 24.4211 24.4595 19.6949 24.4595C14.9687 24.4595 9.3755 29.9733 9.1397 30.208C8.94823 30.3911 8.94823 30.7216 9.1397 30.9047C9.3755 31.1394 14.9687 36.6532 19.6949 36.6532C24.4211 36.6532 30.0145 31.1393 30.2503 30.9047C30.4416 30.7216 30.4416 30.3911 30.2503 30.208ZM10.2006 30.5562C10.9191 29.8922 12.614 28.4058 14.6063 27.2057C13.9713 28.1678 13.6011 29.3196 13.6011 30.5563C13.6011 31.7932 13.9724 32.9443 14.6075 33.9064C12.6151 32.7062 10.9194 31.22 10.2006 30.5562ZM19.6949 35.7166C16.8496 35.7166 14.5347 33.4018 14.5347 30.5563C14.5347 27.7109 16.8495 25.3961 19.6949 25.3961C22.5403 25.3961 24.8552 27.7109 24.8552 30.5563C24.8552 33.4018 22.5403 35.7166 19.6949 35.7166ZM24.7812 33.9083C25.4173 32.9461 25.7887 31.7941 25.7887 30.5562C25.7887 29.3195 25.418 28.1683 24.7828 27.2065C26.775 28.4066 28.4705 29.8926 29.1891 30.5563C28.4705 31.2208 26.7746 32.708 24.7812 33.9083Z" fill="black"/>
<path d="M45.8263 6.19958L42.2874 2.64421C42.1043 2.45284 41.7739 2.45284 41.5908 2.64421L39.4475 4.79727C38.5011 4.24104 37.4725 3.81024 36.3841 3.52952V0.491453C36.3841 0.219974 36.1641 0 35.8927 0H30.8878C30.6164 0 30.3964 0.219974 30.3964 0.491453V3.52962C29.3041 3.81141 28.2719 4.24429 27.3227 4.80346L25.2014 2.67242C25.0183 2.48105 24.6879 2.48105 24.5048 2.67242L20.9658 6.22779C20.7749 6.41956 20.7749 6.72947 20.9658 6.92123L23.073 9.03812C22.0103 10.8275 21.3988 12.9149 21.3988 15.1427C21.3928 15.5247 21.4065 15.902 21.4378 16.2743H4.60521C3.2199 16.2743 2.0928 17.4043 2.0928 18.7935L2.09182 39.8504H0.522215C0.250834 39.8504 0.0307617 40.0704 0.0307617 40.3419V42.4668C0.0307617 44.4151 1.61108 46 3.5536 46H36.3971C38.3397 46 39.92 44.4151 39.92 42.4668V40.3419C39.92 40.0704 39.7 39.8504 39.4286 39.8504H37.8579L37.8586 25.9362C37.8678 25.6047 37.5051 25.3519 37.1972 25.4752C30.2088 28.1795 22.2446 22.6538 22.3817 15.1427C22.3817 9.07262 27.3201 4.1342 33.3902 4.1342C39.4603 4.1342 44.3987 9.07262 44.3987 15.1427C44.3987 17.9092 43.3686 20.5539 41.4979 22.5895C41.3143 22.7894 41.3274 23.1003 41.5272 23.2839C41.727 23.4676 42.038 23.4544 42.2216 23.2545C44.2594 21.0371 45.3816 18.1563 45.3816 15.1427C45.3816 12.9106 44.7678 10.8193 43.7012 9.0277L45.8261 6.89302C46.0172 6.70135 46.0172 6.39135 45.8263 6.19958ZM38.9371 40.8334V42.4668C38.9371 43.8731 37.7976 45.0171 36.3971 45.0171H3.5536C2.15305 45.0171 1.01357 43.873 1.01357 42.4668V40.8334H38.9371ZM36.8757 26.6195L36.875 39.8504H33.7688L33.7693 29.59C33.7693 29.3186 33.5493 29.0985 33.2779 29.0985C33.0065 29.0985 32.7864 29.3185 32.7864 29.59L32.7859 39.8504H7.1642L7.16489 21.3126H19.4567C19.7281 21.3126 19.9482 21.0927 19.9482 20.8212C19.9482 20.5497 19.7281 20.3297 19.4567 20.3297H6.67344C6.40206 20.3297 6.18198 20.5497 6.18198 20.8212L6.1813 39.8504H3.07472L3.07571 18.7934C3.07571 17.9463 3.76187 17.2571 4.60521 17.2571H21.5644C22.7476 24.0727 30.0427 28.7967 36.8757 26.6195ZM23.6213 8.19577L22.0075 6.57456L24.8531 3.71578L26.4787 5.34888C25.3742 6.13058 24.4069 7.09412 23.6213 8.19577ZM31.3793 3.32075V0.982906H35.4012V3.32075C34.7471 3.20988 34.0755 3.1512 33.3903 3.1512C32.705 3.1513 32.0334 3.20988 31.3793 3.32075ZM43.1522 8.18613C42.3655 7.08538 41.3974 6.12272 40.2921 5.342L41.939 3.68747L44.7846 6.54625L43.1522 8.18613Z" fill="black"/>
<path d="M39.0798 20.5228L35.1001 16.2395C35.6736 15.8059 36.703 15.0078 38.585 13.5157C39.6533 12.7314 38.6325 10.9622 37.4191 11.4945C32.9241 13.269 32.5858 13.4641 32.4747 13.5282C31.5907 14.0139 31.2652 15.2271 31.7878 16.0898C32.135 16.6905 32.7669 17.0266 33.4158 17.0266C33.7114 17.0266 34.0103 16.9558 34.2877 16.8094L38.0115 20.8172C36.7081 21.8605 35.0924 22.43 33.4099 22.43C29.3607 22.43 26.0664 19.1609 26.0664 15.1426C26.0664 11.2881 29.0974 8.12296 32.9184 7.87124V10.692C32.9184 10.9635 33.1385 11.1834 33.4099 11.1834C33.6813 11.1834 33.9013 10.9635 33.9013 10.692V7.36377C33.9013 7.09229 33.6813 6.87231 33.4099 6.87231C28.8187 6.87231 25.0835 10.5824 25.0835 15.1427C25.0835 19.703 28.8186 23.413 33.4099 23.413C35.5048 23.413 37.5084 22.6341 39.0516 21.2197C39.2509 21.0443 39.2642 20.7135 39.0798 20.5228ZM33.8595 15.9245C33.4329 16.1707 32.885 16.0242 32.6388 15.598C32.3901 15.1875 32.5453 14.6107 32.9657 14.3796C33.082 14.3125 33.7839 13.9862 37.78 12.4086C37.9763 12.3226 38.1675 12.5902 37.9743 12.7455C34.6087 15.4139 33.9757 15.8575 33.8595 15.9245C33.8596 15.9245 33.8596 15.9245 33.8595 15.9245Z" fill="black"/>
<path d="M42.3105 17.6396C42.1552 17.4169 41.8489 17.3624 41.6263 17.5176L41.3162 17.7338C41.5928 16.9024 41.7366 16.0283 41.7366 15.1429C41.7366 11.5822 39.4507 8.42961 36.0486 7.29799C35.7911 7.21228 35.5128 7.35155 35.4271 7.60917C35.3414 7.86669 35.4808 8.14496 35.7384 8.23057C38.7382 9.22841 40.7537 12.0062 40.7537 15.1428C40.7537 15.9602 40.6148 16.7669 40.3475 17.5306L40.2546 16.9428C40.2122 16.6746 39.9604 16.4919 39.6924 16.5342C39.4243 16.5765 39.2414 16.8281 39.2838 17.0963L39.6243 19.251C39.671 19.6002 40.107 19.7851 40.3908 19.5774L42.1886 18.3238C42.4111 18.1685 42.4657 17.8623 42.3105 17.6396Z" fill="black"/>
</g>
<defs>
<clipPath id="clip0_3004_1626">
<rect width="46" height="46" fill="white"/>
</clipPath>
</defs>
</svg>
