<svg width="56" height="56" viewBox="0 0 56 56" fill="none" xmlns="http://www.w3.org/2000/svg">
<path d="M5.97286 39.9727C6.21622 40.3902 6.07491 40.9259 5.65731 41.1692C5.51873 41.2499 5.36725 41.2883 5.21762 41.2883C4.91641 41.2883 4.62328 41.1326 4.46075 40.8536C2.11498 36.8274 0.875 32.2229 0.875 27.5381C0.875 20.4629 3.63016 13.8113 8.63319 8.80848C13.636 3.80556 20.2877 1.05029 27.3628 1.05029C32.9742 1.05029 38.4463 2.84262 42.9568 6.12803L42.4219 4.25312C42.2893 3.78839 42.5586 3.30429 43.0232 3.17162C43.4878 3.03884 43.9722 3.30823 44.1048 3.77296L45.4013 8.31684C45.4752 8.57551 45.4258 8.85376 45.2677 9.07131C45.1095 9.28897 44.86 9.42175 44.5912 9.43137L39.869 9.60101C39.8583 9.60134 39.8477 9.60156 39.8371 9.60156C39.3683 9.60156 38.9802 9.23023 38.9632 8.75795C38.9459 8.27495 39.3234 7.86939 39.8063 7.85211L42.2256 7.76515C37.9574 4.55576 32.7286 2.80018 27.3628 2.80018C13.7223 2.80029 2.625 13.8976 2.625 27.5381C2.625 31.9138 3.78273 36.2136 5.97286 39.9727ZM45.9682 24.1864C45.9947 24.4332 45.9151 24.6797 45.749 24.8644C45.583 25.049 45.3464 25.1545 45.0983 25.1545H35.2719C35.3008 25.3228 35.3264 25.4922 35.3449 25.6643C35.3713 25.9111 35.2917 26.1575 35.1257 26.3422C34.9596 26.5268 34.7231 26.6323 34.4749 26.6323H20.2535C20.0052 26.6323 19.7687 26.5269 19.6027 26.3423C19.4367 26.1577 19.3571 25.9111 19.3835 25.6643C19.4019 25.4922 19.4276 25.3227 19.4565 25.1544H9.63003C9.38175 25.1544 9.14517 25.0489 8.97925 24.8642C8.81322 24.6796 8.73359 24.4331 8.76006 24.1862C9.03088 21.656 10.6374 19.5742 12.8366 18.6071C12.1353 17.8979 11.7014 16.9238 11.7014 15.8499C11.7014 13.6865 13.4615 11.9263 15.625 11.9263C17.7884 11.9263 19.5486 13.6864 19.5486 15.8499C19.5486 16.9276 19.1116 17.905 18.4058 18.6148C19.6171 19.1516 20.6636 20.0298 21.3997 21.1473C22.2084 20.251 23.2151 19.5419 24.349 19.0842C23.443 18.262 22.8733 17.0757 22.8733 15.7588C22.8733 13.2824 24.888 11.2677 27.3644 11.2677C29.8408 11.2677 31.8555 13.2824 31.8555 15.7588C31.8555 17.0757 31.2856 18.262 30.3797 19.0843C31.5136 19.542 32.5204 20.2511 33.329 21.1474C34.0651 20.0299 35.1117 19.1516 36.3229 18.6149C35.6171 17.9051 35.1803 16.9277 35.1803 15.85C35.1803 13.6866 36.9403 11.9264 39.1037 11.9264C41.2672 11.9264 43.0274 13.6865 43.0274 15.85C43.0274 16.9239 42.5935 17.898 41.8922 18.6072C44.091 19.5744 45.6975 21.6562 45.9682 24.1864ZM39.1028 18.0238H39.1035H39.1043C40.3025 18.0233 41.2771 17.0485 41.2771 15.8502C41.2771 14.6516 40.3021 13.6765 39.1035 13.6765C37.905 13.6765 36.93 14.6516 36.93 15.8502C36.93 17.0485 37.9046 18.0233 39.1028 18.0238ZM27.363 18.5001H27.3641H27.3652C28.8761 18.4995 30.1051 17.2702 30.1051 15.759C30.1051 14.2476 28.8755 13.0179 27.3641 13.0179C25.8526 13.0179 24.6229 14.2476 24.6229 15.759C24.623 17.2701 25.8521 18.4994 27.363 18.5001ZM15.624 18.0238H15.6248H15.6255C16.8237 18.0233 17.7984 17.0485 17.7984 15.8502C17.7984 14.6516 16.8233 13.6765 15.6248 13.6765C14.4262 13.6765 13.4512 14.6516 13.4512 15.8502C13.451 17.0485 14.4258 18.0233 15.624 18.0238ZM19.9653 23.4045C20.0624 23.1732 20.1701 22.9479 20.2873 22.7287C19.4435 20.9463 17.6188 19.7742 15.6259 19.7737C15.6255 19.7737 15.6251 19.7737 15.6247 19.7737C15.6242 19.7737 15.6239 19.7737 15.6235 19.7737C13.3196 19.7742 11.3489 21.2794 10.6976 23.4045H19.9653ZM33.4245 24.8824C32.6997 22.1838 30.2466 20.2506 27.3653 20.2501C27.365 20.2501 27.3645 20.2501 27.3642 20.2501C27.3638 20.2501 27.3634 20.2501 27.363 20.2501C24.4816 20.2506 22.0285 22.1838 21.3038 24.8824H33.4245ZM44.0304 23.4045C43.3792 21.2794 41.4085 19.7742 39.1046 19.7737C39.1042 19.7737 39.1039 19.7737 39.1034 19.7737C39.103 19.7737 39.1027 19.7737 39.1022 19.7737C37.1093 19.7741 35.2846 20.9463 34.4408 22.7287C34.5581 22.9479 34.6656 23.1732 34.7628 23.4045H44.0304ZM11.3842 34.7915L9.17186 33.0134C8.80731 32.7204 8.66523 32.2437 8.80983 31.7989C8.95431 31.3542 9.3497 31.0522 9.81673 31.0297L12.6513 30.8914L13.6586 28.238C13.8245 27.8013 14.2338 27.5193 14.7016 27.5193C15.1694 27.5193 15.5789 27.8013 15.7446 28.238L16.752 30.8914L19.587 31.0297C20.0537 31.0522 20.449 31.3542 20.5935 31.7989C20.738 32.2437 20.596 32.7204 20.2314 33.0134L18.0191 34.7914L18.7638 37.5302C18.8864 37.9817 18.7212 38.4509 18.3428 38.7256C17.9646 39.0001 17.4674 39.0124 17.0763 38.7563L14.7015 37.2018L12.3268 38.7563C12.1391 38.8792 11.927 38.9403 11.7154 38.9403C11.4858 38.9403 11.2569 38.8685 11.06 38.7254C10.6818 38.4504 10.5166 37.9813 10.6395 37.5301L11.3842 34.7915ZM11.5707 32.6962L12.8041 33.6876C13.1499 33.9656 13.2981 34.4217 13.1818 34.8497L12.7666 36.3769L14.0906 35.5102C14.2762 35.3888 14.489 35.3281 14.7016 35.3281C14.9142 35.3281 15.1266 35.3886 15.312 35.5098L16.6367 36.377L16.2215 34.8499C16.1053 34.4218 16.2533 33.9658 16.5989 33.6878L17.8326 32.6962L16.2519 32.6191C15.8088 32.5975 15.4208 32.3156 15.2633 31.9008L14.7015 30.4212L14.1398 31.9008C13.9823 32.3156 13.5942 32.5975 13.151 32.6191L11.5707 32.6962ZM55.125 41.2004C55.125 48.7818 48.9571 54.9496 41.3758 54.9496C38.8476 54.9496 36.477 54.263 34.4395 53.0674C32.1417 53.7031 29.763 54.0259 27.3628 54.0259C21.7511 54.0259 16.2792 52.2341 11.7693 48.9497L12.3038 50.8228C12.4364 51.2875 12.1671 51.7717 11.7025 51.9043C11.6223 51.9272 11.5414 51.9381 11.462 51.9381C11.0811 51.9381 10.7306 51.6874 10.621 51.303L9.32455 46.7591C9.25072 46.5004 9.30005 46.2222 9.4582 46.0046C9.61636 45.787 9.86584 45.6543 10.1347 45.6446L14.8568 45.4749C15.3397 45.4561 15.7454 45.835 15.7627 46.318C15.78 46.801 15.4025 47.2064 14.9196 47.2238L12.4985 47.3108C16.7665 50.5203 21.9959 52.2759 27.363 52.2759C29.1119 52.2759 30.8482 52.0924 32.5456 51.7302C29.6792 49.3225 27.8067 45.7691 27.6399 41.782L27.3643 41.6015L24.2938 43.6114C24.0963 43.7408 23.8731 43.8051 23.6504 43.8051C23.4088 43.8051 23.1678 43.7295 22.9607 43.579C22.5623 43.2897 22.3885 42.7959 22.5176 42.321L23.4803 38.7796L20.6199 36.4806C20.2362 36.1721 20.0867 35.6703 20.239 35.2022C20.3912 34.7342 20.8071 34.4162 21.2986 34.3924L24.964 34.2138L26.2665 30.7829C26.4406 30.3237 26.8715 30.0267 27.3641 30.0266C27.8567 30.0265 28.2877 30.3233 28.4621 30.7829L29.6775 33.9841C32.1029 30.0665 36.4394 27.4509 41.3759 27.4509C45.473 27.4509 49.1566 29.2529 51.6777 32.1052C51.9583 30.6034 52.1008 29.0739 52.1008 27.5379C52.1008 23.1632 50.943 18.864 48.7528 15.1051C48.5095 14.6875 48.6508 14.1519 49.0684 13.9085C49.4858 13.6651 50.0216 13.8066 50.2648 14.224C52.6108 18.2502 53.8508 22.8539 53.8508 27.5379C53.8508 29.7098 53.5858 31.8704 53.0631 33.9662C54.3692 36.0692 55.125 38.548 55.125 41.2004ZM27.6987 39.788C27.8435 38.3751 28.2039 37.025 28.7451 35.7708C28.5284 35.6376 28.3561 35.4351 28.2622 35.1872L27.3641 32.822L26.466 35.1874C26.2999 35.6242 25.8915 35.9207 25.4253 35.9434L22.898 36.0666L24.8702 37.6518C25.2343 37.9447 25.3902 38.4248 25.2676 38.8753L24.604 41.3167L26.7209 39.9309C27.0147 39.7387 27.373 39.6912 27.6987 39.788ZM53.375 41.2004C53.375 34.584 47.9922 29.2012 41.3758 29.2012C34.7594 29.2012 29.3766 34.584 29.3766 41.2004C29.3766 47.8169 34.7594 53.1996 41.3758 53.1996C47.9922 53.1996 53.375 47.8169 53.375 41.2004ZM49.9796 39.7043V48.1704C49.9796 48.6536 49.5878 49.0454 49.1046 49.0454H46.1792C45.0224 50.0488 43.8701 50.3762 42.5449 50.3762C41.5167 50.3762 40.3844 50.1799 39.0643 49.9509L38.8439 49.9127C38.7127 49.9384 38.5775 49.9527 38.439 49.9527H36.4618C35.304 49.9527 34.362 49.0108 34.362 47.8531C34.362 47.5891 34.4109 47.3364 34.5003 47.1035C33.9743 46.7215 33.6316 46.1016 33.6316 45.4034C33.6316 45.1659 33.6712 44.9376 33.7442 44.7245C33.1601 44.3512 32.772 43.697 32.772 42.9539C32.772 42.3293 33.0462 41.7673 33.4807 41.3824C33.3571 41.1151 33.2881 40.8176 33.2881 40.5044C33.2881 39.3465 34.23 38.4046 35.3877 38.4046H38.439C38.4711 38.4046 38.5025 38.408 38.5343 38.4094C38.507 38.3042 38.4842 38.1995 38.4701 38.0966C38.4647 38.057 38.4619 38.0171 38.4619 37.9773V35.9836C38.4619 33.8015 40.2372 32.0264 42.4196 32.0264C42.9028 32.0264 43.2946 32.4182 43.2946 32.9014V35.4715C43.2946 36.7362 44.1793 37.4512 45.6363 38.4783C45.7984 38.5926 45.9633 38.7103 46.1275 38.8293H49.1046C49.5878 38.8293 49.9796 39.2211 49.9796 39.7043ZM35.0381 40.5044C35.0381 40.6939 35.1983 40.8542 35.3878 40.8542H38.439C38.6285 40.8542 38.7888 40.694 38.7888 40.5044C38.7888 40.3147 38.6285 40.1546 38.439 40.1546H35.3877C35.1982 40.1545 35.0381 40.3147 35.0381 40.5044ZM34.8718 43.3037H38.9549C39.1445 43.3037 39.3048 43.1436 39.3048 42.9539C39.3048 42.7643 39.1445 42.604 38.9549 42.604H34.8718C34.6823 42.604 34.522 42.7643 34.522 42.9539C34.522 43.1436 34.6823 43.3037 34.8718 43.3037ZM35.7314 45.7533H38.4392C38.6287 45.7533 38.789 45.593 38.789 45.4034C38.789 45.2138 38.6287 45.0536 38.4392 45.0536H35.7314C35.5418 45.0536 35.3817 45.2137 35.3817 45.4034C35.3815 45.5932 35.5417 45.7533 35.7314 45.7533ZM38.439 48.2028C38.6285 48.2028 38.7888 48.0427 38.7888 47.8531C38.7888 47.6635 38.6285 47.5033 38.439 47.5033C38.438 47.5033 38.4371 47.5033 38.4361 47.5033H36.4626C36.4623 47.5033 36.462 47.5033 36.4618 47.5033C36.2722 47.5033 36.112 47.6635 36.112 47.8532C36.112 48.0427 36.2722 48.2028 36.4618 48.2028H38.439ZM44.9637 47.7824C44.9636 47.7389 44.9636 42.7481 44.9658 40.148C44.8558 40.0694 44.7436 39.9902 44.628 39.9086C43.2542 38.9402 41.5446 37.7349 41.5446 35.4715V33.9572C40.7613 34.2967 40.2119 35.0772 40.2119 35.9836V37.9055C40.2558 38.1228 40.4206 38.5377 40.8108 38.9281C41.1084 39.2259 41.1516 39.6936 40.9137 40.0409C40.6048 40.492 40.4975 40.8992 40.5859 41.2859C40.7136 41.8453 41.2931 42.4684 42.1361 42.9525C42.5551 43.1931 42.6997 43.728 42.459 44.147C42.2973 44.4286 42.0025 44.5864 41.6994 44.5864C41.5516 44.5864 41.4018 44.5488 41.2645 44.47C41.0997 44.3754 40.9077 44.2551 40.7055 44.112C40.604 44.2649 40.4831 44.4039 40.3461 44.5253C40.4697 44.7926 40.5388 45.0901 40.5388 45.4034C40.5388 45.8601 40.3922 46.2832 40.1437 46.6283C40.3922 46.9732 40.5388 47.3963 40.5388 47.8531C40.5388 48.0472 40.5102 48.2344 40.4607 48.4131C42.563 48.754 43.7525 48.7903 44.9637 47.7824ZM48.2296 40.5793H46.7155C46.7124 44.355 46.7121 46.3238 46.7131 47.2954H48.2296V40.5793Z" fill="black"/>
</svg>
