<svg width="418" height="60" viewBox="0 0 418 60" fill="none" xmlns="http://www.w3.org/2000/svg">
<g filter="url(#filter0_d_2800_478)">
<path d="M48.2659 15.4673C47.809 14.268 46.8709 13.1973 45.7291 12.4253C42.4329 10.3323 37.4094 10.1833 34.013 12.0755C32.1607 13.0198 30.9432 14.8887 30.5643 16.8133C29.8771 19.9753 30.0546 23.7374 32.4906 26.1075C35.3312 28.5976 39.4654 29.1477 43.1417 28.1248C43.3164 28.0912 43.8699 27.9518 44.2516 27.7493L44.3592 27.7032C45.501 27.2288 46.5899 26.4562 47.4028 25.41C49.2791 22.6667 49.4077 18.5564 48.2659 15.4673M42.2804 22.5677C42.1507 23.1673 41.7473 23.7886 41.1113 24.0139C40.0987 24.4593 38.7287 24.3359 37.7906 23.8148C37.0038 23.2646 36.9025 22.3436 36.8013 21.472C36.7245 19.7539 36.6004 17.9346 37.0817 16.3638C37.4589 15.391 38.4995 15.1407 39.4404 15.0673C40.4286 15.0673 41.3906 15.2181 42.0011 16.0151C42.3811 16.5869 42.3578 17.335 42.4329 18.0086C42.4061 19.428 42.5336 21.121 42.2804 22.5677ZM12.2267 24.1151C11.3893 24.0639 10.4512 24.1373 9.6405 24.0378L9.66553 15.2892L9.71673 15.2164L12.2267 15.1919C12.2529 13.7719 12.2779 12.249 12.2006 10.9547L2.64124 10.928L1.06707 10.9553C1.04204 12.2751 1.04204 13.8186 1.06707 15.1657C1.9301 15.1925 2.74022 15.1657 3.57766 15.2437V23.7164L3.55321 24.0645L1.04206 24.1157C0.989724 25.4859 0.989724 26.8576 1.04206 28.2278H12.2262L12.2268 24.1151H12.2267ZM40.3763 30.0949C39.3124 31.6167 37.9681 33.0867 36.5003 34.2302C36.4468 34.3082 36.2949 34.2786 36.2466 34.2069C35.6105 33.8093 34.9261 33.4838 34.3163 33.0867C35.1287 32.1156 35.9155 31.1439 36.5242 30.0681H35.7351C35.1048 30.9937 34.4437 31.9649 33.6074 32.7846C32.4906 32.3369 31.4768 31.9387 30.3356 31.6372L30.2088 31.5422C30.3863 31.0387 30.7151 30.5659 30.8158 30.067H30.1314L29.447 31.4136C27.9525 31.0899 26.3032 30.9135 24.7814 30.8151C24.7046 30.5915 24.8053 30.2673 24.7046 30.067H24.0452C23.9929 30.3668 24.1214 30.5927 23.969 30.8413C22.3965 30.9135 20.8753 31.0899 19.4058 31.392L18.7185 30.067C18.4676 30.067 18.1855 30.0192 18.0102 30.0938L18.6429 31.5644L18.5672 31.6372C17.4306 31.966 16.313 32.3577 15.2197 32.8103L15.119 32.7591C14.4074 31.9865 13.7224 31.1428 13.1637 30.2951C13.038 29.869 12.5305 30.1182 12.2512 30.0681C12.8576 31.1661 13.6718 32.1367 14.4819 33.1351C13.7975 33.535 13.1154 33.9811 12.4019 34.3082C10.8506 33.1267 9.49834 31.7047 8.39628 30.096C8.09134 30.0471 7.89051 30.0693 7.58387 30.096C9.41007 32.9371 12.2512 35.4283 15.2186 36.899C15.2186 36.899 15.2186 36.8768 15.2459 36.8768C15.2675 36.8768 15.3182 36.9228 15.2675 36.949C17.2724 37.9213 19.404 38.6187 21.6592 38.9191C29.4458 39.9398 36.8775 36.627 41.1864 30.096C40.917 30.0683 40.6456 30.0679 40.3762 30.0949M29.8031 32.3375L29.8777 32.2874C30.9711 32.5366 32.0088 32.8859 32.9731 33.3581C32.1607 34.278 31.1207 35.0773 30.1581 35.7498C29.5756 36.0974 28.9902 36.4751 28.3809 36.7721L27.2926 36.2988L27.3671 36.1264C28.2819 34.9061 29.0937 33.6585 29.8031 32.3375ZM24.8053 31.5894C26.252 31.6167 27.6982 31.7658 29.0402 32.0883L29.067 32.164C28.3581 33.5083 27.4683 34.8071 26.5063 36.0257C26.0728 36.0769 25.6689 35.9045 25.2382 35.8778L24.8047 35.8266C24.7552 34.356 24.7285 33.06 24.8053 31.5894ZM19.9127 32.0377C21.2314 31.7885 22.6002 31.5894 24.0196 31.5894L24.0458 35.8055C23.5121 35.9261 22.929 35.9261 22.4215 36.0541C21.3816 34.8298 20.5203 33.5083 19.7858 32.1367L19.9127 32.0377ZM15.8274 33.3849C16.819 32.9098 17.8572 32.5588 18.9211 32.2869L19.0241 32.313C19.7574 33.6841 20.6716 34.9789 21.5841 36.2749C21.232 36.4757 20.7985 36.5958 20.4446 36.7983C18.7296 35.951 17.169 34.8218 15.828 33.4577V33.3849H15.8274ZM19.1003 37.6459C16.9697 37.0958 14.9899 36.1491 13.1643 34.8555V34.7781C13.7731 34.4077 14.3841 34.0078 15.0411 33.7307C16.4879 35.1553 17.983 36.2271 19.6061 37.2465C19.4798 37.3962 19.2772 37.5464 19.1003 37.6459ZM28.5083 37.9679C25.8208 38.5448 22.8266 38.567 20.1397 37.9202C20.0885 37.7961 20.2665 37.7694 20.3422 37.6966C22.7009 36.1748 26.3766 36.1748 28.6869 37.8178C28.762 37.9679 28.5595 37.9202 28.5083 37.9679ZM30.9438 37.2727L29.7519 37.6454C29.5483 37.5458 29.3719 37.3962 29.1927 37.246L29.2439 37.1698C30.8676 36.2265 32.3376 35.0768 33.7331 33.7063C34.4181 33.9799 35.078 34.356 35.6885 34.7775C34.2668 35.9045 32.6175 36.6486 30.9438 37.2727ZM8.3468 9.03467C8.97411 8.16656 9.66031 7.34255 10.4006 6.56849C11.0576 5.94555 11.6687 5.34762 12.3798 4.89705C13.0397 5.32032 13.7742 5.67304 14.4079 6.07014C13.6223 7.03727 12.8104 8.0135 12.2273 9.05744C12.4037 9.13538 12.7348 9.11093 12.9891 9.05744C13.6223 8.13696 14.3049 7.21533 15.1196 6.39214C16.2074 6.79208 17.2741 7.21419 18.3914 7.51458L18.4898 7.61356L17.8583 9.05744C18.1382 9.11093 18.3157 9.08474 18.5928 9.05744C18.8204 8.63646 18.9967 8.16426 19.2505 7.73815C20.7234 8.06357 22.2708 8.23707 23.8433 8.28543C24.0447 8.46236 23.8933 8.83442 23.9696 9.05744H24.6539C24.7285 8.81281 24.6284 8.53519 24.7285 8.31331C26.2008 8.23594 27.7471 8.08632 29.1722 7.73702L29.2957 7.76319L29.9806 9.05631C30.2093 9.05631 30.5132 9.10979 30.6907 9.00511L30.0552 7.56351L30.1081 7.51344C31.2726 7.21419 32.365 6.76591 33.4806 6.31819C34.2691 7.14024 35.0024 8.11195 35.6641 9.05575C35.9417 9.05575 36.221 9.08305 36.4241 9.00455C36.1109 8.44817 35.7455 7.92279 35.333 7.43552C34.998 6.95825 34.6243 6.50938 34.2156 6.09348V5.96434L35.9912 4.9443L36.2472 4.84474C37.7913 6.01349 39.1425 7.41715 40.2517 9.00455C40.5561 9.00455 40.8104 9.10924 41.0647 8.98351C37.6626 3.90374 32.0588 0.635399 26.0006 0.164906L25.9738 0.213265L25.922 0.164906C25.2382 0.0915142 24.3979 0.0625067 23.6635 0.135899C23.3853 0.114282 23.0565 0.135899 22.7259 0.164906C16.6403 0.63538 11.036 3.7524 7.5344 9.05856C7.78813 9.03465 8.09249 9.13592 8.3468 9.03466M18.8733 6.84497L18.772 6.86658C17.7309 6.59521 16.7154 6.2681 15.7517 5.84597L15.8006 5.69634C17.1956 4.37592 18.6662 3.27851 20.2893 2.43311C20.6716 2.58274 21.0516 2.70618 21.4317 2.88312L21.3571 3.07769C20.3917 4.27694 19.6328 5.57004 18.8733 6.84497ZM23.9184 7.51571C23.2101 7.61527 22.5757 7.49352 21.8629 7.43834C21.1813 7.33821 20.3172 7.26597 19.6328 7.0384C20.3684 5.67417 21.232 4.3509 22.2708 3.13288L23.8945 3.35419C23.9696 4.64787 23.9184 6.14409 23.9184 7.51571ZM24.704 7.54243C24.6539 6.21746 24.6801 4.74912 24.704 3.37807C25.2132 3.30525 25.7684 3.22789 26.2771 3.1545C27.2658 4.39869 28.2318 5.67417 28.8918 7.0384C27.5205 7.37017 26.1149 7.53936 24.704 7.54245M32.7967 5.79534C31.8057 6.2169 30.7902 6.61627 29.7013 6.84497C28.9156 5.52397 28.0537 4.20354 27.0872 2.9275C27.4427 2.73236 27.8763 2.58276 28.2557 2.3842C29.9073 3.2057 31.503 4.37592 32.8457 5.7174L32.7967 5.79534ZM29.5483 1.53426C31.6788 2.08383 33.6825 3.02935 35.5087 4.32529L35.4581 4.42485L33.7098 5.3954H33.5807C32.2386 4.05449 30.6667 2.88312 29.067 1.95866C29.1176 1.78401 29.3725 1.65828 29.5483 1.53426ZM28.535 1.28395V1.33686C26.3271 2.9275 22.7521 3.07771 20.4202 1.60708C20.2893 1.50752 20.039 1.45916 20.0117 1.28451C22.7015 0.664406 25.8697 0.614358 28.535 1.28395ZM13.0636 4.37592C14.6628 3.20568 16.4372 2.33355 18.3146 1.73507C18.3914 1.65713 18.4404 1.58374 18.5405 1.58374V1.63494C18.743 1.68387 18.8961 1.45801 19.073 1.60593C19.226 1.73507 19.4052 1.8335 19.5304 1.95751C17.9591 2.92749 16.4111 4.07611 14.9905 5.46877C14.3055 5.22414 13.6741 4.8481 13.0631 4.42483L13.0636 4.3759L13.0636 4.37592ZM23.9445 24.3097C21.5608 24.9588 18.9723 24.4639 17.2485 22.6667C17.0465 22.4175 16.9185 22.1206 16.7149 21.8725L13.2923 21.8964C13.2383 23.9143 13.2144 26.2326 13.2923 28.2272L17.0949 28.2027L17.1455 27.0058C17.5785 27.2049 18.0103 27.4535 18.4404 27.6771C21.0778 28.775 24.473 29.0242 27.086 27.6771C28.9896 26.6331 30.0045 24.6152 29.7246 22.4426C29.447 20.3268 27.4171 18.4068 25.3645 17.8851L19.2254 16.1141L18.7714 15.8888C18.5683 15.7159 18.4409 15.4929 18.4904 15.2164C18.9723 14.396 20.0896 14.6452 20.9265 14.6674C22.7015 14.9171 24.5271 15.515 25.5676 17.1359C26.6821 17.1359 27.9752 17.1575 29.1916 17.1097C29.2433 15.0668 29.1717 13.2736 29.1415 11.2045C28.0003 11.1783 26.6047 11.1783 25.4652 11.2306C25.414 11.527 25.5141 11.9492 25.3873 12.2495L24.2216 11.626C21.4305 10.4552 17.5244 10.3329 14.9894 12.1523C13.3401 13.3464 12.8344 15.4917 13.2656 17.385C13.5938 19.1765 15.3182 20.4986 16.9675 21.1199C19.2243 21.9163 21.5819 22.4932 23.8683 23.2646C24.0947 23.3659 24.3985 23.5918 24.3496 23.8654C24.3507 24.0867 24.1209 24.2147 23.9445 24.3097Z" fill="#1C204E"/>
</g>
<g filter="url(#filter1_d_2800_478)">
<path d="M8.72469 48.3556H7.08867C7.10116 46.5073 8.84957 45.708 10.4606 45.708C12.209 45.708 14.1073 46.4199 14.1073 48.493C14.1073 50.716 12.4338 51.1406 10.598 51.1406C9.87364 51.1406 8.69971 51.3279 8.69971 52.2771V53.0264H14.1323V54.5625H7.0512C7.0512 53.8007 7.0512 53.0389 7.0512 52.2646C7.0512 50.2539 8.87455 49.6545 10.598 49.6545C11.2599 49.6545 12.4713 49.5421 12.4713 48.5305C12.4713 47.5813 11.6096 47.1317 10.4856 47.1317C9.62387 47.1317 8.73717 47.5688 8.72469 48.3556ZM17.2173 54.5625H15.319L18.8908 47.394H14.6321V45.8204H21.0513L21.1387 46.6946L17.2173 54.5625ZM23.5155 49.5545V50.8159C23.5155 53.988 27.9115 53.988 27.9115 50.8159V49.5545C27.9115 46.4324 23.5155 46.3949 23.5155 49.5545ZM21.8795 50.8159V49.5545C21.8795 44.3343 29.5475 44.3468 29.5475 49.5545V50.8159C29.5475 56.0237 21.8795 56.0362 21.8795 50.8159ZM32.2112 49.5545V50.8159C32.2112 53.988 36.6072 53.988 36.6072 50.8159V49.5545C36.6072 46.4324 32.2112 46.3949 32.2112 49.5545ZM30.5752 50.8159V49.5545C30.5752 44.3343 38.2432 44.3468 38.2432 49.5545V50.8159C38.2432 56.0237 30.5752 56.0362 30.5752 50.8159ZM39.0086 54.5625V53.1638H40.3199V47.3191H38.9587V45.8204H41.956V53.1638H43.1674V54.5625H39.0086Z" fill="#1C204E"/>
</g>
<path d="M119.925 38.6271C120.24 38.4391 120.618 38.3556 120.996 38.3556C121.29 38.3556 121.584 38.4182 121.836 38.5436C122.109 38.6689 122.34 38.8569 122.529 39.0658L123.222 38.3765C122.949 38.0422 122.613 37.7916 122.235 37.6245C121.773 37.4365 121.29 37.3529 120.786 37.3738C120.282 37.3947 119.799 37.5409 119.379 37.7707C118.917 38.0422 118.539 38.4182 118.266 38.8987C117.993 39.4 117.867 39.9431 117.867 40.5071C117.867 41.0711 117.993 41.6142 118.266 42.1156C118.518 42.5751 118.896 42.972 119.358 43.2436C119.841 43.5151 120.387 43.6614 120.933 43.6405C121.374 43.6405 121.815 43.5569 122.235 43.3898C122.613 43.2227 122.97 42.9511 123.222 42.6378L122.529 41.9485C122.34 42.1782 122.109 42.3662 121.836 42.4916C121.563 42.6169 121.269 42.6796 120.975 42.6796C120.597 42.6796 120.24 42.596 119.904 42.408C119.589 42.22 119.337 41.9693 119.169 41.656C119.001 41.3218 118.896 40.9249 118.896 40.5489C118.896 40.1729 118.98 39.7969 119.169 39.4418C119.358 39.0867 119.61 38.8151 119.925 38.6271ZM118.854 31.5667H121.794V34.1778H122.844V28.0782H121.794V30.5849H118.854V28.0782H117.804V34.1778H118.854V31.5667ZM124.146 34.1778H125.196V28.0782H124.146V34.1778ZM129.69 28.3498C129.291 28.1618 128.85 28.0782 128.409 28.0991H126.519V34.1778H127.569V32.4231H128.409C128.85 32.4231 129.291 32.3396 129.69 32.1725C130.047 32.0054 130.341 31.7547 130.53 31.4205C130.719 31.0654 130.824 30.6685 130.824 30.2716C130.824 29.8747 130.719 29.4778 130.53 29.1227C130.341 28.7676 130.047 28.5169 129.69 28.3498ZM129.396 31.1489C129.165 31.3578 128.808 31.4622 128.346 31.4622H127.569V29.0391H128.346C128.808 29.0391 129.165 29.1436 129.396 29.3525C129.627 29.5613 129.753 29.8538 129.753 30.2507C129.753 30.6476 129.648 30.94 129.396 31.1489ZM140.022 28.0991L137.187 34.1778H138.384L139.014 32.7782H142.164L142.794 34.1778H144.012L141.177 28.0782H140.022V28.0991ZM139.413 31.88L140.589 29.2271L141.765 31.88H139.413ZM128.745 37.7707C128.262 37.4991 127.716 37.3738 127.149 37.3738C126.582 37.3738 126.057 37.52 125.553 37.7707C125.091 38.0422 124.692 38.4182 124.44 38.8987C124.167 39.4 124.041 39.9431 124.041 40.5071C124.041 41.0711 124.188 41.6142 124.44 42.1156C124.692 42.5751 125.091 42.972 125.553 43.2436C126.036 43.5151 126.582 43.6405 127.149 43.6405C127.716 43.6405 128.241 43.4942 128.745 43.2436C129.207 42.972 129.585 42.596 129.858 42.1156C130.131 41.6142 130.257 41.0711 130.257 40.5071C130.257 39.9431 130.11 39.4 129.858 38.8987C129.585 38.4182 129.207 38.0422 128.745 37.7707ZM128.913 41.5934C128.745 41.9067 128.493 42.1782 128.199 42.3662C127.884 42.5542 127.527 42.6378 127.17 42.6378C126.813 42.6378 126.456 42.5334 126.141 42.3662C125.826 42.1782 125.574 41.9276 125.427 41.5934C125.259 41.2591 125.154 40.8831 125.154 40.4862C125.154 40.0894 125.238 39.7342 125.427 39.3791C125.595 39.0658 125.847 38.7942 126.141 38.6062C126.456 38.4182 126.813 38.3347 127.17 38.3347C127.527 38.3347 127.884 38.4391 128.199 38.6062C128.514 38.7942 128.766 39.0449 128.913 39.3791C129.081 39.7134 129.186 40.0894 129.186 40.4862C129.186 40.8831 129.081 41.2591 128.913 41.5934ZM164.613 37.4574V38.4182H166.524V43.5569H167.595V38.4182H169.506V37.4574H164.613ZM162.912 41.5725L159.741 37.4574H158.859V43.5569H159.93V39.4418L163.101 43.5569H163.983V37.4574H162.912V41.5725ZM136.41 37.4574L134.625 40.6951L132.798 37.4574H131.475V43.5569H132.609V39.3374L134.604 42.8467L136.641 39.2747V43.536H137.775V37.4365H136.41V37.4574ZM142.206 37.708C141.807 37.52 141.345 37.4365 140.904 37.4574H138.993V43.5569H140.064V41.8022H140.904C141.345 41.8022 141.807 41.7187 142.206 41.5516C142.563 41.3845 142.857 41.1338 143.067 40.7996C143.256 40.4445 143.361 40.0476 143.361 39.6507C143.361 39.2538 143.256 38.8569 143.067 38.5018C142.857 38.1467 142.563 37.8751 142.206 37.708ZM141.912 40.528C141.681 40.7369 141.324 40.8414 140.841 40.8414H140.043V38.4182H140.841C141.303 38.4182 141.66 38.5227 141.912 38.7316C142.143 38.9405 142.269 39.2329 142.269 39.6298C142.29 40.0058 142.164 40.3191 141.912 40.528ZM135.171 32.7782L135.801 34.1778H137.019L134.184 28.0782H133.029L130.215 34.1778H131.412L132.042 32.7782H135.171ZM133.617 29.2271L134.793 31.88H132.441L133.617 29.2271ZM145.419 37.4574H144.348V43.5569H148.422V42.596H145.419V37.4574ZM149.304 43.536H150.375V37.4365H149.304V43.536ZM106.254 50.4085C106.275 51.8707 106.296 52.936 106.317 53.4582C106.338 53.5209 106.338 53.6045 106.317 53.6671C106.317 53.7507 106.317 53.8134 106.317 53.8134C106.317 54.1058 106.359 54.3982 106.443 54.6698C106.527 54.3982 106.569 54.1058 106.569 53.8134C106.569 53.7089 106.611 52.184 106.674 49.74C106.653 49.7609 106.632 49.7818 106.632 49.8027C106.485 49.9907 106.359 50.1996 106.254 50.4085ZM101.886 19.9107C102.222 19.5556 102.537 19.1378 102.768 18.6991C102.6 19.0751 101.949 20.4956 102.579 20.6209C103.272 20.7462 104.049 20.5374 105.456 18.7618C105.414 16.4849 105.372 14.5005 105.351 12.9965H104.595C104.553 12.9965 104.532 12.9965 104.49 12.9965C104.07 12.9965 103.377 12.9547 102.915 12.2654C102.411 11.5134 102.39 10.7405 102.369 10.1765C102.348 9.3618 102.138 7.87868 101.109 7.04313C100.395 6.47913 98.4631 6.04046 96.6781 6.75068C96.0901 6.98046 94.9141 7.58624 93.7591 8.15024C92.7091 8.67246 91.3651 9.32002 90.9451 9.32002C91.6381 9.00668 92.5621 8.54713 93.5701 7.98313C94.7251 7.35646 95.9431 6.68802 96.5521 6.43735C97.7701 5.95691 100.101 5.81069 101.298 6.77157C102.432 7.69069 102.663 9.27824 102.684 10.1347C102.705 10.6987 102.726 11.388 103.167 12.0774C103.566 12.6622 104.196 12.6622 104.574 12.6622H104.658H105.33C105.33 12.4742 105.33 12.3071 105.33 12.1191C104.658 12.1609 103.692 12.2027 103.272 11.3045C102.768 10.2182 103.314 7.44002 101.634 6.27024C99.9541 5.10046 97.2661 5.39291 94.8721 6.77157C92.4991 8.12935 89.3491 9.90491 85.4641 11.4507C81.5791 12.9965 79.1641 13.6231 78.7021 13.6858C78.2611 13.7694 79.0591 14.0618 80.7181 14.1036C82.3771 14.1454 83.7631 14.02 83.7631 14.02L95.9431 8.50535C95.9431 8.50535 85.4431 13.7067 84.5611 14.2707C83.6791 14.8347 82.9651 15.0227 83.0281 15.5449C83.0911 16.0671 83.7631 16.0045 85.6111 15.9627C87.4591 15.9209 87.8581 15.7538 88.4881 15.5658C89.1181 15.3778 95.9431 12.2445 95.9431 12.2445C95.9431 12.2445 88.6351 15.8582 87.5851 16.6938C86.5351 17.5294 87.6691 17.8009 88.3831 17.8218C89.1181 17.8427 91.0711 17.7382 92.1631 17.1951C93.2551 16.652 96.6571 14.4796 96.6571 14.4796C96.6571 14.4796 93.2971 16.8818 92.6461 17.4249C92.1211 17.8636 91.8481 18.2396 91.9741 18.6991C92.1631 19.284 93.1711 19.2214 94.5151 18.7409C94.5151 18.7409 95.9011 18.2605 96.4261 17.8009C96.9511 17.3205 98.4211 16.0254 98.4211 16.0254C98.4211 16.0254 96.6781 17.8218 96.2371 18.5947C95.8171 19.3676 95.7331 19.5556 95.9431 19.9942C96.2371 20.6209 98.4631 19.9734 99.0931 19.3049C99.5551 18.7827 99.9961 18.2396 100.395 17.6547C100.395 17.6547 99.7231 18.7409 99.5761 19.3676C99.4291 19.9942 99.2611 20.4956 99.8701 20.5582C100.542 20.6627 101.172 20.6836 101.886 19.9107ZM106.044 34.136C106.107 34.0942 106.17 34.0525 106.233 34.0107C106.359 33.9271 106.464 33.8645 106.548 33.7809C106.716 33.6765 106.884 33.5511 107.052 33.4467C107.073 32.256 107.115 31.0445 107.136 29.8538C106.8 29.7076 106.443 29.5614 106.065 29.4151C106.044 29.4151 106.023 29.3942 106.002 29.3942C105.96 29.3734 105.939 29.3734 105.897 29.3525C105.645 29.2689 105.414 29.1645 105.141 29.0809C104.826 28.9556 104.511 28.8511 104.196 28.7258C102.096 29.8329 101.676 30.3551 101.676 31.3787C101.676 32.82 102.915 33.4676 105.057 34.8254C105.393 34.5747 105.729 34.3449 106.044 34.136ZM103.461 31.5667C103.461 31.5667 103.314 30.6476 105.687 29.5822C105.75 29.5614 105.813 29.5196 105.876 29.4987C105.897 30.94 105.918 32.3814 105.96 33.8227C104.784 33.0289 103.461 32.2769 103.461 31.5667ZM107.052 49.3013C106.947 49.4267 106.842 49.552 106.737 49.6565C107.346 50.4711 107.304 51.2649 106.968 52.2885C107.283 51.9334 107.913 51.0351 107.388 49.8654C107.283 49.6774 107.178 49.4893 107.052 49.3013ZM106.086 40.7369C106.317 40.9667 106.59 41.2382 106.863 41.5098C107.031 41.6769 107.199 41.844 107.388 42.032C107.409 42.0529 107.451 42.0738 107.493 42.1156C108.921 40.8831 110.223 39.7134 110.223 38.2511C110.223 37.1022 109.11 36.0578 107.997 35.2222C107.892 35.2849 107.787 35.3476 107.682 35.4311C107.43 35.5982 107.199 35.7445 106.989 35.8907C106.989 35.8907 106.968 35.8907 106.968 35.9116C106.926 35.9534 106.863 35.9742 106.821 36.016C106.527 36.2249 106.254 36.4129 106.002 36.6009C106.044 38.0005 106.065 39.4 106.086 40.7369ZM106.989 36.1205C108.375 37.1231 108.921 37.7707 108.921 38.4809C108.921 39.212 108.144 40.0685 106.884 41.3218C106.905 39.6507 106.947 37.9169 106.989 36.1205ZM114.654 16.0462C114.654 16.0462 116.124 17.3414 116.649 17.8218C117.174 18.3022 118.56 18.7618 118.56 18.7618C119.904 19.2422 120.912 19.3049 121.101 18.72C121.248 18.2605 120.954 17.8636 120.429 17.4458C119.778 16.9027 116.418 14.5005 116.418 14.5005C116.418 14.5005 119.82 16.6729 120.912 17.216C122.004 17.7591 123.957 17.8636 124.692 17.8427C125.427 17.8218 126.54 17.5502 125.49 16.7147C124.44 15.8791 117.132 12.2654 117.132 12.2654C117.132 12.2654 123.936 15.4196 124.587 15.5867C125.217 15.7747 125.616 15.9209 127.464 15.9836C129.312 16.0253 129.963 16.088 130.047 15.5658C130.131 15.0645 129.396 14.8765 128.514 14.2916C127.632 13.7276 117.132 8.52624 117.132 8.52624L129.312 14.0409C129.312 14.0409 130.698 14.1662 132.357 14.1245C134.016 14.0827 134.814 13.7902 134.373 13.7067C133.932 13.6231 131.496 13.0174 127.611 11.4716C123.726 9.9258 120.576 8.17113 118.203 6.79246C115.83 5.43469 113.121 5.12135 111.441 6.29113C109.761 7.46091 110.307 10.2182 109.803 11.3254C109.383 12.2236 108.417 12.1818 107.745 12.14C107.745 12.3071 107.745 12.4951 107.724 12.6831H108.417H108.501C108.879 12.6831 109.509 12.6831 109.908 12.0982C110.349 11.4298 110.37 10.7196 110.391 10.1556C110.412 9.29913 110.643 7.71157 111.777 6.79246C112.974 5.83157 115.305 5.9778 116.523 6.45824C117.132 6.68802 118.35 7.35646 119.505 8.00402C120.513 8.56802 121.437 9.02757 122.13 9.34091C121.689 9.34091 120.366 8.69335 119.316 8.17113C118.182 7.58624 117.006 7.00135 116.397 6.77157C114.612 6.06135 112.68 6.50002 111.966 7.06402C110.916 7.89957 110.727 9.38268 110.706 10.1974C110.685 10.7614 110.664 11.5551 110.16 12.2862C109.719 12.9756 109.026 13.0174 108.585 13.0174C108.543 13.0174 108.522 13.0174 108.48 13.0174H107.724C107.682 14.5214 107.64 16.4849 107.598 18.72C109.026 20.5374 109.845 20.7671 110.517 20.6209C111.147 20.4956 110.517 19.0751 110.328 18.6991C110.58 19.1378 110.874 19.5347 111.21 19.9107C111.903 20.6836 112.554 20.6627 113.184 20.5791C113.814 20.4956 113.625 20.0151 113.478 19.3885C113.331 18.7618 112.659 17.6756 112.659 17.6756C113.058 18.2396 113.499 18.8036 113.961 19.3258C114.591 19.9942 116.817 20.6627 117.111 20.0151C117.3 19.5974 117.237 19.3885 116.817 18.6156C116.418 17.8427 114.654 16.0462 114.654 16.0462ZM106.569 9.65424C106.905 9.65424 107.241 9.5498 107.514 9.3618C107.787 9.1738 108.018 8.90224 108.144 8.6098C108.27 8.29646 108.312 7.96224 108.249 7.62802C108.186 7.2938 108.018 7.00135 107.787 6.75068C107.556 6.52091 107.241 6.3538 106.905 6.29113C106.569 6.22846 106.233 6.24935 105.918 6.39557C105.603 6.52091 105.33 6.75068 105.162 7.02224C104.973 7.2938 104.868 7.62802 104.868 7.96224C104.868 8.19202 104.91 8.40091 104.994 8.6098C105.078 8.81868 105.204 9.00668 105.372 9.15291C105.54 9.32002 105.708 9.44535 105.918 9.52891C106.107 9.61246 106.338 9.65424 106.569 9.65424ZM112.155 22.3547C112.155 22.3547 112.113 21.1849 110.202 21.0596C108.249 20.9342 108.165 21.7698 108.207 22.0831C108.354 22.0831 108.48 22.1249 108.48 22.1667C108.48 22.2085 108.375 22.2502 108.249 22.2502C108.354 22.5636 108.648 22.9396 109.488 23.3574C110.181 23.6916 110.517 23.6707 110.916 23.608C110.916 23.608 111.378 23.8796 111.378 24.3182C111.378 24.736 110.643 25.5507 107.199 27.2636C107.409 18.0307 107.598 9.92579 107.598 9.92579H107.808C107.892 9.92579 107.976 9.88402 108.039 9.82135C108.102 9.75868 108.144 9.67513 108.144 9.59157V9.48713C108.144 9.44535 108.144 9.40357 108.123 9.3618C108.102 9.32002 108.081 9.27824 108.039 9.25735C107.85 9.46624 107.64 9.63335 107.388 9.75869C107.136 9.88402 106.863 9.92579 106.59 9.92579C106.317 9.92579 106.044 9.86313 105.792 9.75869C105.54 9.65424 105.309 9.46624 105.141 9.25735C105.099 9.29913 105.078 9.32002 105.057 9.3618C105.036 9.40357 105.036 9.44535 105.036 9.48713V9.59157C105.036 9.67513 105.078 9.75868 105.141 9.82135C105.204 9.88402 105.288 9.92579 105.372 9.92579H105.582C105.582 9.92579 105.729 17.8009 105.876 26.8667C106.17 27.0129 106.464 27.1591 106.8 27.3262C106.842 27.3471 106.905 27.368 106.947 27.3889C107.724 27.7649 108.375 28.0782 108.921 28.3707C110.769 27.6605 112.575 26.8458 113.121 25.6969C114.087 23.5662 112.155 22.3547 112.155 22.3547ZM109.593 21.8742C109.383 21.8742 109.215 21.7698 109.215 21.6445C109.215 21.5191 109.383 21.4147 109.593 21.4147C109.803 21.4147 109.971 21.5191 109.971 21.6445C109.971 21.7698 109.803 21.8742 109.593 21.8742ZM106.254 48.3196C106.422 48.1107 106.569 47.9018 106.737 47.7138C106.758 46.5231 106.8 45.1862 106.821 43.7449C106.611 43.536 106.38 43.3271 106.128 43.0974C106.044 43.0347 105.981 42.9511 105.897 42.8885C105.792 42.784 105.687 42.7005 105.582 42.6169C104.994 43.16 103.839 44.3716 103.839 45.416C103.839 46.6485 105.036 47.9018 105.939 48.8C106.023 48.612 106.128 48.4658 106.254 48.3196ZM106.128 43.348C106.17 45.1236 106.191 46.7529 106.212 48.1525C105.519 47.2333 104.784 46.2934 104.784 45.6458C104.784 45.04 105.141 44.3507 106.128 43.348ZM106.611 27.5978C102.516 25.6342 101.676 24.736 101.676 24.2974C101.676 23.8587 102.138 23.5871 102.138 23.5871C102.537 23.6707 102.873 23.6707 103.566 23.3365C104.406 22.9396 104.7 22.5427 104.805 22.2294C104.679 22.2294 104.574 22.1876 104.574 22.1458C104.574 22.104 104.7 22.0622 104.847 22.0622V22.0414C104.868 21.728 104.763 20.9134 102.831 21.0387C100.92 21.164 100.878 22.3338 100.878 22.3338C100.878 22.3338 98.9461 23.5662 99.9541 25.6551C100.836 27.5142 104.973 28.496 107.367 29.5613C109.74 30.6267 109.593 31.5458 109.593 31.5458C109.593 32.3396 107.997 33.1751 106.737 34.0525C105.477 34.9298 102.81 36.4547 102.81 38.2511C102.81 39.9014 104.469 41.1756 106.086 42.596C107.724 44.0165 108.249 44.8729 108.249 45.6667C108.249 46.7529 106.443 48.2151 105.519 50.0325C104.595 51.8498 106.422 54.6698 105.855 53.1867C105.267 51.7036 105.582 50.6591 106.338 49.6147C107.262 48.3405 109.236 47.0871 109.236 45.3951C109.236 43.9747 107.157 42.3036 107.157 42.3036C105.309 40.4654 104.133 39.4209 104.133 38.5018C104.133 37.5827 105.015 36.768 107.493 35.1596C109.95 33.572 111.399 32.9454 111.399 31.3996C111.399 30.0418 110.706 29.5614 106.611 27.5978ZM103.461 21.4356C103.671 21.4356 103.839 21.54 103.839 21.6654C103.839 21.7907 103.671 21.8951 103.461 21.8951C103.251 21.8951 103.083 21.7907 103.083 21.6654C103.083 21.54 103.251 21.4356 103.461 21.4356ZM154.029 37.4574L151.194 43.5569H152.391L153.021 42.1574H156.171L156.801 43.5569H158.019L155.184 37.4574H154.029ZM153.42 41.2591L154.596 38.6062L155.772 41.2591H153.42Z" fill="#1C204E"/>
<g clip-path="url(#clip0_2800_478)">
<mask id="mask0_2800_478" style="mask-type:luminance" maskUnits="userSpaceOnUse" x="198" y="0" width="220" height="60">
<path d="M417.999 0H198.999V60H417.999V0Z" fill="white"/>
</mask>
<g mask="url(#mask0_2800_478)">
<path d="M131.668 9.21415V7.52491C131.889 7.6183 132.091 7.75149 132.263 7.91776C133.849 9.50407 135.67 10.842 137.663 11.8855C140.782 13.5207 144.147 14.6482 147.629 15.2246C151.401 15.8925 155.173 16.4032 158.985 16.9532C162.796 17.5031 167.601 18.6817 171.571 20.7244C172.722 21.3138 173.914 21.8245 175.105 22.2958C177.446 23.2288 180.006 23.4876 182.49 23.0423C185.971 22.4181 189.189 20.792 191.741 18.3673C196.744 13.614 199.166 7.68205 199.642 0.925156C199.907 -3.70464 199.176 -8.3373 197.498 -12.6672C194.6 -20.3669 189.597 -26.5346 183.046 -31.5629L182.728 -31.7201L182.093 -32.2701L181.974 -32.1129L182.649 -31.6416C182.887 -31.4058 183.085 -31.1701 183.324 -30.9738C186.106 -28.6864 188.599 -26.0746 190.749 -23.1954C195.315 -17.0277 198.015 -10.2316 198.134 -2.53186C198.275 2.7546 196.794 7.95933 193.885 12.3962C191.817 15.6921 188.842 18.336 185.309 20.0173C181.974 21.5494 178.519 22.1387 174.946 21.2351C173.336 20.7587 171.757 20.1814 170.221 19.5066C167.742 18.3788 165.127 17.5734 162.439 17.1103L151.56 15.421C148.236 14.9675 144.974 14.1506 141.832 12.9854C138.14 11.5712 134.765 9.68556 132.104 6.73923C131.977 6.60059 131.83 6.48142 131.668 6.38567V5.44285C131.766 5.37844 131.876 5.33437 131.992 5.31332C132.108 5.29227 132.228 5.29465 132.343 5.32035C132.457 5.34604 132.566 5.39451 132.662 5.46282C132.757 5.53114 132.838 5.61787 132.899 5.71783C134.728 7.80912 136.971 9.50712 139.49 10.7069C141.945 11.8875 144.529 12.7838 147.192 13.3783C151.401 14.3212 155.649 14.7925 159.858 15.421C163.534 15.9124 167.126 16.8902 170.539 18.3281C171.64 18.8306 172.766 19.2764 173.914 19.6638C176.071 20.4538 178.405 20.644 180.663 20.2138C184.745 19.4539 188.428 17.2987 191.066 14.1247C194.878 9.68556 196.704 4.50002 196.942 -1.27477C197.141 -5.94961 196.109 -10.428 194.282 -14.7492C191.225 -21.7419 186.381 -27.3202 180.267 -31.8772L179.83 -32.0343L179.274 -32.6236L179.155 -32.4665L179.869 -32.0736L180.544 -31.3272C185.507 -27.281 189.597 -22.5669 192.337 -16.7528C195.076 -10.9387 196.228 -4.69249 194.878 1.75014C193.726 7.17137 191.106 11.7283 186.659 15.1854C183.745 17.5139 180.121 18.8012 176.375 18.8388C174.311 18.8388 172.405 18.2495 170.459 17.621C168.514 16.9924 166.926 16.3639 165.099 16.0103C161.367 15.3032 157.595 14.7139 153.863 14.1247C150.131 13.5354 146.517 12.789 142.984 11.4534C139.771 10.3451 136.825 8.59316 134.328 6.30711C134.024 6.07175 133.757 5.79385 133.534 5.48214C133.497 5.37848 133.485 5.26768 133.498 5.15857C133.512 5.04947 133.551 4.94503 133.613 4.85359C133.705 4.7759 133.814 4.72108 133.931 4.69374C134.049 4.66639 134.171 4.66733 134.288 4.69645C134.447 4.69645 134.566 4.89288 134.725 5.05001C137.346 7.60349 140.482 9.29271 143.937 10.5105C148.145 12.0426 152.513 12.6712 156.92 13.3783C159.858 13.8103 162.796 14.2425 165.695 14.9103C167.839 15.3817 169.864 16.1675 171.968 16.8353C174.217 17.6465 176.646 17.8366 178.996 17.3853C182.216 16.7405 185.172 15.1687 187.493 12.8676C192.218 8.27131 194.243 2.5751 194.203 -3.86752C194.203 -8.6995 192.853 -13.1779 190.669 -17.4206C187.652 -23.1954 183.324 -27.7917 178.162 -31.6808L177.725 -31.8772L177.17 -32.4272L177.05 -32.2308L177.765 -31.8772C178.023 -31.5829 178.301 -31.3072 178.599 -31.0523C182.768 -27.5953 186.341 -23.6275 188.922 -18.8742C191.9 -13.335 193.409 -7.48169 192.416 -1.15691C191.662 3.36078 189.875 7.40707 186.58 10.6677C182.014 15.2639 176.574 17.1103 170.102 15.3818C166.615 14.4731 163.074 13.7777 159.501 13.2997C156.04 12.8818 152.606 12.2654 149.217 11.4534C145.287 10.4712 141.515 9.13557 138.1 6.93565C137.226 6.34639 136.353 5.67854 135.519 5.01072C134.685 4.34289 135.082 4.53931 135.321 4.22504C135.371 4.15012 135.438 4.08688 135.515 4.03956C135.593 3.99224 135.679 3.96197 135.77 3.95079C135.86 3.93961 135.952 3.9478 136.039 3.97478C136.126 4.00175 136.206 4.04692 136.273 4.10719C136.384 4.16198 136.48 4.24293 136.551 4.34289C138.894 6.16553 141.505 7.62282 144.294 8.66416C148.661 10.3534 153.267 11.1784 157.873 11.8462C162.479 12.514 166.33 13.0247 170.459 14.2425C172.127 14.7586 173.881 14.9454 175.621 14.7925C178.808 14.5244 181.826 13.2585 184.237 11.1784C189.954 6.30711 191.979 -0.0569496 191.384 -7.32455C190.987 -11.8422 189.319 -15.9671 186.977 -19.8169C184.197 -24.3346 180.505 -28.0273 176.336 -31.288L175.819 -31.4845L175.303 -32.0736L175.144 -31.9165L175.859 -31.4845C176.077 -31.2295 176.316 -30.9929 176.574 -30.7773C178.893 -28.8756 181.009 -26.7429 182.887 -24.4132C186.5 -19.8955 189.081 -14.9064 189.796 -9.13163C190.51 -3.35684 189.399 1.47513 186.143 5.95354C182.053 11.6105 176.455 13.9676 169.506 13.064L160.851 11.8462C157.1 11.4103 153.385 10.7146 149.733 9.76412C145.548 8.69096 141.557 6.98138 137.901 4.69645C137.653 4.57561 137.425 4.41649 137.226 4.22504C137.171 4.17649 137.126 4.11746 137.094 4.05142C137.062 3.98538 137.043 3.91366 137.039 3.84047C137.036 3.76726 137.047 3.69408 137.072 3.62519C137.097 3.55631 137.136 3.49312 137.187 3.43935C137.223 3.37683 137.272 3.3226 137.331 3.28022C137.39 3.23783 137.457 3.20824 137.528 3.1934C137.6 3.17856 137.673 3.17881 137.744 3.19411C137.815 3.20942 137.883 3.23943 137.941 3.28222L138.418 3.59649C139.648 4.3036 140.879 5.05001 142.15 5.67856C146.954 8.0749 152.116 9.332 157.396 10.157L170.102 11.9248C172.281 12.2706 174.51 12.129 176.627 11.5103C178.743 10.8917 180.692 9.81177 182.331 8.34989C186.659 4.61787 188.604 -0.29266 188.763 -5.91032C188.882 -10.2709 187.652 -14.3172 185.587 -18.1671C182.808 -23.4312 178.758 -27.5953 174.073 -31.1701C173.993 -31.2487 173.874 -31.2487 173.755 -31.288L173.199 -31.8772L173.04 -31.7201L173.755 -31.3272C173.946 -31.0861 174.158 -30.8625 174.39 -30.6594C175.581 -29.5202 176.852 -28.4595 178.003 -27.3202C181.458 -23.8632 184.197 -19.9349 185.865 -15.3386C187.532 -10.7423 187.85 -5.04605 185.746 0.0216141C183.919 4.34289 180.981 7.64277 176.495 9.37129C174.033 10.3141 171.452 10.6284 168.831 10.7069C166.017 10.7534 163.202 10.5827 160.414 10.1963C153.192 9.29294 146.181 7.16676 139.688 3.91076C139.479 3.85467 139.287 3.74648 139.132 3.59649C139.048 3.51563 138.983 3.41733 138.942 3.30866C138.901 3.19997 138.884 3.08361 138.894 2.96794C138.907 2.89552 138.936 2.82677 138.979 2.7664C139.021 2.70603 139.076 2.65545 139.14 2.61815C139.204 2.58083 139.276 2.55768 139.35 2.55024C139.424 2.54282 139.499 2.5513 139.569 2.57509L140.323 2.88937C142.898 4.18298 145.565 5.28596 148.304 6.18924C152.987 7.75337 157.837 8.78146 162.757 9.25342C165.893 9.52841 169.03 9.68556 172.167 9.21415C175.303 8.74274 178.599 7.48563 181.021 5.01072C184.594 1.39656 186.103 -3.08185 186.024 -8.07095C185.984 -12.1958 184.634 -15.9671 182.569 -19.5027C180.308 -23.2553 177.406 -26.5914 173.993 -29.3631C170.658 -32.1916 167.005 -34.5879 163.313 -36.9057L162.518 -37.5342H190.312L190.868 -37.1806C195.256 -34.8164 199.258 -31.8099 202.739 -28.2631C214.135 -16.7921 219.455 -0.017662 216.398 15.971C215.55 20.8114 213.727 25.4338 211.038 29.5634C208.02 34.0812 204.129 37.5775 199.007 39.6202C195.169 41.2524 190.938 41.7571 186.818 41.0738C184.118 40.6023 181.696 39.5024 179.353 38.1666C178.999 37.9643 178.627 37.7935 178.241 37.656L177.845 37.3024C175.343 35.6132 172.842 33.8847 170.3 32.274C168.178 30.9451 165.88 29.9139 163.471 29.2098C160.768 28.4325 158.006 27.8677 155.213 27.5206C151.441 27.0492 147.669 26.6564 143.897 26.1457C139.958 25.6871 136.09 24.7503 132.382 23.3565L131.668 23.1601V21.8244L133.256 22.4136C137.862 24.1814 142.706 24.8492 147.55 25.3992C151.044 25.8314 154.538 26.2243 157.992 26.7742C163.074 27.5992 167.918 29.1313 172.246 31.999L172.722 32.1954C172.674 32.0495 172.576 31.9246 172.445 31.8419C169.501 29.7983 166.224 28.2702 162.757 27.3242C160.148 26.6364 157.495 26.1244 154.816 25.7921C151.242 25.3599 147.669 24.9672 144.095 24.4565C140.032 23.9531 136.062 22.8817 132.303 21.2744L131.668 21.078V19.7816L132.541 20.0566L135.122 21.078C139.569 22.728 144.254 23.3565 148.939 23.9065C152.552 24.3779 156.166 24.8101 159.779 25.4386C164.517 26.2325 169.027 28.0281 173.001 30.7027C174.073 31.4491 175.144 32.1562 176.256 32.824C177.368 33.4918 178.916 34.5132 180.306 35.2597C183.115 36.7668 186.286 37.4868 189.478 37.3417C193.812 37.0979 197.973 35.5795 201.429 32.9812C205.558 29.9562 208.377 25.8708 210.323 21.2351C213.38 13.8497 214.016 6.18926 212.705 -1.62833C210.601 -14.0421 204.447 -24.1383 194.401 -31.9165L193.687 -32.4272C194.168 -31.8331 194.714 -31.2929 195.315 -30.8165C207.147 -20.6812 213.38 -5.12463 211.435 9.76412C210.76 14.9497 209.172 19.8209 206.353 24.2208C204.089 27.7957 201.231 30.7812 197.459 32.824C190.669 36.5953 183.8 36.8703 176.971 32.824L171.889 29.6813C169.106 27.8683 166.051 26.5025 162.836 25.635C160.065 24.9502 157.254 24.4386 154.419 24.1029C151.044 23.6707 147.629 23.2779 144.254 22.7672C140.129 22.2129 136.12 21.006 132.382 19.1924C132.151 19.1038 131.912 19.038 131.668 18.996V17.5031L132.104 17.6995C136.068 19.7583 140.37 21.102 144.81 21.6673C148.622 22.2172 152.433 22.6494 156.245 23.1601C159.57 23.5702 162.844 24.3206 166.012 25.3992C168.99 26.4599 171.611 28.0706 174.231 29.6813C176.018 30.8205 177.805 31.8418 179.671 32.824C182.052 34.0257 184.703 34.607 187.374 34.5132C191.69 34.3672 195.847 32.8676 199.245 30.2313C203.216 27.2457 205.955 23.3565 207.822 18.7995C210.919 11.2569 211.316 3.43935 209.648 -4.49608C207.266 -15.535 201.429 -24.4919 192.535 -31.5236L191.662 -32.0736L191.066 -32.6236L190.947 -32.4665L191.622 -32.0343L192.376 -31.3272C194.663 -29.432 196.763 -27.3275 198.65 -25.0417C206.71 -15.0243 210.363 -3.7104 208.576 9.13557C207.92 13.8547 206.196 18.3665 203.533 22.3351C200.953 26.185 197.617 29.2491 193.29 31.1347C189.597 32.7454 185.825 33.374 181.855 32.5883C179.77 32.1328 177.773 31.3503 175.939 30.2705L171.055 27.3635C169.348 26.3324 167.538 25.4769 165.655 24.8101C161.883 23.4743 157.913 22.9243 153.942 22.4136C149.972 21.9029 146.914 21.4709 143.42 20.8816C139.536 20.2455 135.798 18.9284 132.382 16.9924L131.668 16.7568V15.2246L134.09 16.5603C138.179 18.6424 142.547 19.7031 147.073 20.3316C150.845 20.8423 154.617 21.2744 158.349 21.8244C163.63 22.6101 168.593 24.2207 173.08 27.1277C174.503 28.0668 175.974 28.9323 177.487 29.7206C180.034 31.1134 182.917 31.7924 185.825 31.6847C189.902 31.5032 193.818 30.0605 197.022 27.5599C201.191 24.3779 203.97 20.1744 205.717 15.3425C208.417 8.03561 208.497 0.571594 206.591 -6.89243C203.891 -17.3028 198.014 -25.5917 189.438 -32.0736C189.235 -32.2062 189.023 -32.3245 188.803 -32.4272L188.247 -32.9379L188.128 -32.7808L188.803 -32.4272C189.002 -32.2308 189.2 -31.9951 189.438 -31.7987C191.811 -29.8899 193.992 -27.7586 195.95 -25.4346C203.494 -16.3992 207.226 -6.06746 206.114 5.75712C205.617 11.6111 203.379 17.1883 199.682 21.7851C197.282 24.8532 194.104 27.2386 190.471 28.6991C185.666 30.624 180.862 30.624 176.177 28.3455C174.946 27.7564 173.795 27.0886 172.603 26.4206C171.412 25.7528 169.149 24.535 167.362 23.7494C163.471 22.0601 159.302 21.4709 155.094 20.8816C151.639 20.4102 148.106 19.978 144.651 19.3495C140.165 18.5638 135.916 17.071 132.104 14.4783L131.668 14.2818V12.789L132.382 13.2211C133.812 14.0461 135.201 14.9497 136.71 15.6568C140.403 17.3853 144.334 18.2495 148.383 18.8388C152.433 19.428 155.729 19.7816 159.382 20.3316C163.857 20.9505 168.163 22.4462 172.048 24.7314C173.358 25.5172 174.708 26.2243 176.018 26.9313C179.218 28.6925 182.941 29.2902 186.54 28.6206C189.535 28.0242 192.349 26.7465 194.759 24.8886C198.439 22.0536 201.244 18.2573 202.859 13.9283C205.519 7.13208 205.797 0.178753 204.089 -6.89243C201.588 -17.2635 195.751 -25.4739 187.254 -31.9165C187.11 -32.031 186.95 -32.1238 186.778 -32.1916C187.001 -31.8802 187.269 -31.6023 187.572 -31.3665C190.559 -28.916 193.238 -26.1199 195.553 -23.0383C201.31 -15.0635 204.288 -6.22459 203.454 3.67505C203.015 9.7079 200.62 15.4395 196.625 20.0173C194.79 22.1901 192.536 23.9795 189.994 25.2814C184.991 27.7564 179.909 28.0313 174.787 25.5957C173.358 24.9279 171.968 24.1814 170.579 23.4351C168.08 22.0684 165.391 21.0755 162.598 20.4887C159.977 20.0173 157.317 19.5851 154.697 19.1924C151.203 18.7209 147.709 18.3281 144.294 17.5031C139.887 16.4817 135.718 14.871 132.104 12.0426L131.668 11.8462V10.3534C131.917 10.4474 132.157 10.5658 132.382 10.7069C133.839 11.9165 135.439 12.9455 137.147 13.7712C140.054 15.1971 143.158 16.1899 146.359 16.7175C150.21 17.3853 154.061 17.896 157.913 18.446C163.034 19.1138 167.958 20.4887 172.484 23.0814C173.852 23.8565 175.272 24.5391 176.733 25.1243C179.074 26.0551 181.634 26.3139 184.118 25.8706C188.485 25.2028 192.098 23.0816 195.076 19.8995C199.484 15.2246 201.707 9.56771 202.263 3.28222C202.701 -1.61341 202.065 -6.54491 200.397 -11.1744C197.498 -19.6205 192.257 -26.3382 185.15 -31.7594L184.832 -31.9165L184.197 -32.4665L184.078 -32.3094L184.793 -31.838L185.507 -31.1309C187.255 -29.4023 189.16 -27.8309 190.788 -25.9846C196.863 -19.1098 200.476 -11.1744 200.834 -1.9426C201.139 3.51363 199.813 8.938 197.022 13.6533C194.798 17.4246 191.86 20.4887 187.89 22.4923C183.919 24.4957 180.703 24.9672 176.812 24.1029C174.758 23.574 172.782 22.7817 170.936 21.7458C168.008 20.2284 164.861 19.1683 161.605 18.6031C158.707 18.1317 155.769 17.7388 152.87 17.3068C149.622 16.9324 146.408 16.3018 143.262 15.421C139.172 14.2032 135.321 12.4355 132.144 9.48914C132 9.37463 131.839 9.28196 131.668 9.21415ZM195.712 -32.4665L196.387 -31.8772C210.085 -20.8383 216.636 -3.35684 213.896 13.1033C213.18 17.8377 211.505 22.3806 208.973 26.4599C206.154 30.9384 202.501 34.4739 197.538 36.5953C191.106 39.3845 184.753 39.306 178.599 35.731C177.289 34.9846 176.058 34.1597 174.787 33.374L174.033 32.9418L173.914 33.099L175.224 34.0025C177.372 35.5461 179.627 36.9376 181.974 38.1666C185.269 39.8614 189.01 40.5194 192.694 40.0523C197.571 39.445 202.13 37.3275 205.717 34.0025C209.291 30.742 211.713 26.7742 213.341 22.3351C216.318 14.3997 216.755 6.26782 215.207 -1.98188C213.467 -11.4698 208.921 -20.2336 202.144 -27.1631C200.224 -29.1813 198.064 -30.962 195.712 -32.4665Z" fill="#1C204E"/>
<path d="M260.647 -37.5342C263.782 -35.2949 265.726 -32.3876 266.282 -28.616C266.628 -26.1777 266.493 -23.6962 265.885 -21.3087C265.25 -18.5586 264.179 -16.0049 263.028 -13.4119C261.877 -10.819 260.567 -7.83318 259.456 -5.0438C258.574 -2.84637 258.038 -0.527424 257.869 1.83144C257.712 4.13139 258.064 6.43756 258.901 8.58881C259.536 10.2781 260.369 11.9282 261.163 13.539C261.956 15.1498 262.988 16.9962 263.822 18.7642C265.194 21.5418 265.744 24.6473 265.409 27.7216C265.132 30.1306 264.462 32.4791 263.425 34.6754C262.472 36.6005 261.48 38.5649 260.329 40.4113C254.456 50.0366 248.503 59.662 242.551 69.248C240.872 72.0708 238.89 74.7053 236.638 77.1054C234.747 79.1076 232.448 80.688 229.892 81.7413C226.479 83.077 222.987 82.9591 219.455 82.0555C216.836 81.3484 214.375 80.2876 211.875 79.2662C209.375 78.2447 207.034 77.2232 204.494 76.5947C201.58 75.9418 198.578 75.7562 195.605 76.0446C190.763 76.4375 186.12 77.734 181.517 79.0305C177.787 80.0912 174.096 81.1913 170.247 81.8591C157.35 84.0984 145.444 81.5449 134.571 74.316C134.308 74.2001 134.087 74.0084 133.936 73.766C133.888 73.6576 133.871 73.5387 133.884 73.4214C133.898 73.304 133.944 73.1925 134.015 73.0982C134.095 72.9802 134.452 72.941 134.65 72.9802C134.849 73.0195 135.047 73.1766 135.206 73.2946C141.484 77.6183 148.755 80.3194 156.357 81.152C161.693 81.7768 167.1 81.4305 172.31 80.1305C176.596 79.0698 180.882 77.8912 185.168 76.791C188.517 75.8462 191.943 75.189 195.406 74.8268C200.037 74.4084 204.701 75.0816 209.018 76.791L216.518 79.7769C218.708 80.6377 221.003 81.2058 223.344 81.4662C226.107 81.7297 228.884 81.1249 231.281 79.7376C233.675 78.3717 235.778 76.5568 237.471 74.3946C239.456 72.0373 241.083 69.4051 242.71 66.7729L259.456 39.5077C261.204 36.8014 262.591 33.8832 263.583 30.8253C264.74 27.2616 264.528 23.4006 262.988 19.982C262.274 18.2927 261.401 16.682 260.567 15.0712C259.734 13.4604 259.417 12.8318 258.821 11.7318C256.401 6.97803 256.083 2.06715 257.551 -3.00088C258.327 -5.52639 259.282 -7.99451 260.409 -10.3868C261.639 -13.2155 262.869 -16.0442 263.98 -18.9121C264.956 -21.4139 265.389 -24.0912 265.25 -26.7695C264.972 -31.5625 262.829 -35.1769 258.385 -37.3377C258.305 -37.3771 258.266 -37.4555 258.186 -37.5342H260.647Z" fill="#1C204E"/>
<path d="M254.4 -37.5342C255.721 -36.6561 256.909 -35.5972 257.93 -34.389C260.548 -31.2045 261.5 -27.548 261.143 -23.4592C260.786 -19.3705 259.517 -16.1858 258.128 -12.7261C256.74 -9.26636 255.669 -6.90743 254.876 -3.88014C254.083 -0.852848 253.607 2.44966 254.44 5.6342C254.845 7.21181 255.389 8.75106 256.066 10.2341C256.899 12.1213 257.93 13.9298 258.842 15.8169C259.768 17.6338 260.448 19.5638 260.865 21.5569C261.339 24.4261 261.108 27.3661 260.191 30.1277C259.333 32.7588 258.189 35.2898 256.78 37.6764C253.184 43.6784 249.561 49.6938 245.912 55.7221C243.651 59.3784 241.311 63.0347 238.971 66.6518C237.331 69.2653 235.373 71.6686 233.14 73.8072C231.197 75.6157 229.095 77.1491 226.556 78.0534C223.026 79.3901 219.417 79.3114 215.847 78.1713C213.507 77.3849 211.246 76.402 208.946 75.4977C206.645 74.5935 204.702 73.6892 202.52 72.9423C198.752 71.6842 194.825 71.5662 190.859 71.9594C186.02 72.4705 181.379 73.7679 176.659 74.9473C173.328 75.8318 169.952 76.5405 166.545 77.0705C162.77 77.5816 158.946 77.6212 155.162 77.1883C150.026 76.6217 145.025 75.1994 140.367 72.9816C137.877 71.8032 135.511 70.3808 133.307 68.7355L132.791 68.3424C132.553 68.1458 132.355 67.8706 132.633 67.6347C132.726 67.5423 132.838 67.4702 132.96 67.4228C133.083 67.3754 133.215 67.3539 133.347 67.3595C133.587 67.437 133.805 67.5721 133.981 67.7527C139.917 72.1173 146.88 74.9053 154.21 75.8516C160.278 76.7165 166.267 76.2054 172.217 74.7901L184.671 71.7628C187.599 71.0758 190.589 70.6807 193.596 70.5834C197.856 70.4413 202.095 71.2334 206.01 72.9029C208.549 73.9644 211.048 75.0653 213.626 76.0875C215.762 76.9727 218.023 77.5295 220.329 77.7387C223.487 77.9757 226.633 77.144 229.253 75.3798C231.25 74.1058 233.02 72.5114 234.489 70.662C235.917 68.8535 237.305 67.0057 238.574 65.0792C244.484 55.9187 250.116 46.6009 255.63 37.2046C256.955 34.9509 258.07 32.5821 258.961 30.1277C260.422 26.144 260.237 21.7497 258.446 17.9006C257.454 15.7383 256.344 13.6152 255.273 11.4922C254.202 9.36917 253.409 7.36409 253.091 5.08379C252.627 1.96867 252.843 -1.20899 253.726 -4.23397C254.519 -7.14332 255.669 -9.8954 256.78 -12.6475C257.891 -15.3995 259.08 -18.3876 259.636 -21.4149C260.112 -23.8131 260.27 -26.2506 259.596 -28.6095C258.406 -32.6591 255.947 -35.6471 251.981 -37.3769C251.901 -37.3769 251.822 -37.4555 251.743 -37.5342H254.4Z" fill="#1C204E"/>
<path d="M131.668 61.4794C131.999 61.6527 132.318 61.8497 132.62 62.069C138.098 66.4713 144.331 69.1049 151.238 70.3233C157.311 71.4239 163.385 71.1095 169.379 69.8517C173.507 69.0262 177.596 68.0828 181.724 67.2181C184.869 66.5653 188.078 66.2621 191.291 66.314C195.324 66.3782 199.299 67.275 202.961 68.9476C205.383 70.0088 207.765 71.1095 210.186 72.1314C212.014 72.9179 213.934 73.4725 215.902 73.7823C219.007 74.2651 222.186 73.7266 224.953 72.2494C227.17 71.0898 229.149 69.5301 230.788 67.6505C232.33 65.8949 233.774 64.0579 235.115 62.1476C241.307 53.0677 246.905 43.634 252.224 34.0039C253.376 31.9401 254.282 29.7503 254.923 27.4791C255.948 24.1776 255.808 20.6288 254.526 17.4165C253.812 15.5298 252.899 13.7217 252.105 11.8743C251.209 10.0096 250.427 8.0932 249.763 6.13553C248.651 2.71585 248.889 -0.74313 249.604 -4.20213C250.318 -7.66111 251.43 -10.4126 252.462 -13.4785C253.38 -15.9298 254.084 -18.4547 254.566 -21.0254C255.796 -28.1399 252.502 -33.3284 247.738 -36.2764C246.984 -36.748 246.111 -37.1019 245.317 -37.5342H248.175C249.245 -36.8008 250.266 -35.9998 251.231 -35.1365C255.042 -31.3631 256.551 -26.8035 255.876 -21.4971C255.439 -18.156 254.288 -15.0114 253.216 -11.8669C252.217 -9.25122 251.394 -6.57243 250.755 -3.84836C249.802 0.436066 250.08 4.64189 251.946 8.65117L254.566 14.2327C255.451 16.0762 256.117 18.0151 256.551 20.0108C257.067 22.9195 256.709 25.7495 255.876 28.5403C255.027 31.1495 253.91 33.6653 252.541 36.0479C247.659 44.6561 242.617 53.1857 237.1 61.4794C235.434 64.0787 233.52 66.5139 231.383 68.751C230.361 69.7895 229.259 70.7487 228.089 71.6205C223.484 75.1187 218.324 76.1014 212.766 74.3718C210.662 73.7036 208.638 72.7997 206.574 71.9349C204.509 71.0702 201.969 69.8517 199.587 68.9476C195.816 67.5325 191.847 67.2968 187.798 67.6112C183.749 67.9257 178.747 69.0262 174.261 70.0481C170.692 70.9188 167.073 71.5751 163.424 72.0135C159.211 72.4202 154.962 72.235 150.801 71.4632C144.307 70.3653 138.17 67.7513 132.898 63.8377L131.668 62.9729V61.4794Z" fill="#1C204E"/>
<path d="M131.668 56.9566C131.896 57.0421 132.11 57.1614 132.303 57.3103C137.105 61.2017 142.622 63.5994 148.694 64.8964C154.766 66.1935 160.6 65.9969 166.554 64.975C170.681 64.2281 174.769 63.4028 178.897 62.6953C182.573 62.0151 186.326 61.8432 190.049 62.1843C193.269 62.5288 196.409 63.4057 199.336 64.7784L206.242 68.0016C208.313 68.951 210.501 69.6251 212.751 70.0061C215.722 70.4412 218.756 69.9609 221.443 68.6305C224.466 67.1351 227.111 64.9858 229.182 62.3416C230.928 60.1798 232.635 57.9392 234.183 55.6202C239.262 48.0272 243.9 40.1532 248.073 32.0369C249.373 29.6164 250.309 27.021 250.852 24.3329C251.417 21.6764 251.239 18.9173 250.336 16.3539C249.661 14.4672 248.827 12.6199 248.034 10.7725C247.24 8.92514 246.248 6.76332 245.692 4.60151C244.898 1.45705 245.017 -1.72672 245.573 -4.91047C246.129 -8.09423 247.2 -11.1208 248.073 -14.1866C248.805 -16.6214 249.283 -19.1238 249.502 -21.6547C249.899 -27.7077 247.28 -32.2279 242.398 -35.6082C241.247 -36.3943 239.898 -36.9053 238.628 -37.5342H241.684C243.703 -36.4036 245.504 -34.9264 247.002 -33.1713C248.39 -31.5314 249.432 -29.6325 250.066 -27.5869C250.7 -25.5412 250.913 -23.3903 250.693 -21.2616C250.415 -18.0779 249.502 -15.012 248.629 -11.9855C247.756 -8.95896 246.962 -6.32548 246.565 -3.37755C246.168 -0.429626 246.327 3.54025 247.676 6.80262C248.391 8.57138 249.185 10.3401 249.978 12.0696C250.947 14.1136 251.666 16.2643 252.122 18.4764C252.677 21.5816 252.241 24.5688 251.288 27.5166C250.465 29.9528 249.415 32.3082 248.153 34.5524C243.668 42.846 238.945 51.0214 233.508 58.804C231.365 61.8699 228.944 64.7784 225.967 67.1368C222.99 69.4951 220.728 70.5957 217.513 71.146C214.9 71.5746 212.221 71.3861 209.695 70.5957C206.996 69.8097 204.535 68.5912 201.995 67.3727C200.368 66.6258 198.741 65.8398 197.074 65.1716C193.105 63.5208 188.978 63.0098 184.691 63.2455C180.405 63.4814 176.357 64.3068 172.229 65.1323C168.102 65.9576 164.887 66.6258 161.156 66.8617C150.639 67.5299 140.915 65.2502 132.382 58.922L131.668 58.4502V56.9566Z" fill="#1C204E"/>
<path d="M131.668 52.5542L132.342 52.8291C137.619 56.9544 143.689 59.1939 150.315 60.1368C154.782 60.7329 159.314 60.6801 163.765 59.9797C167.891 59.3903 171.978 58.6831 176.065 58.1331C180.151 57.5831 185.031 57.3866 189.515 58.4081C192.423 59.1345 195.234 60.2029 197.886 61.5905C200.386 62.8084 202.925 63.9871 205.464 65.0871C207.253 65.8246 209.162 66.2371 211.098 66.305C214.272 66.4623 217.168 65.5586 219.866 63.9871C222.27 62.5079 224.437 60.6803 226.294 58.5653C228.325 56.2039 230.194 53.7099 231.888 51.1005C236.231 44.5272 240.153 37.6908 243.632 30.6312C244.926 28.1543 245.861 25.509 246.409 22.7735C246.977 20.0528 246.799 17.231 245.894 14.6016C245.14 12.48 244.267 10.437 243.434 8.35467C242.6 6.27238 241.688 3.87579 241.41 1.43991C241.105 -0.93821 241.159 -3.34801 241.569 -5.71058C242.164 -9.05008 242.957 -12.3896 243.632 -15.7684C243.924 -17.2755 244.136 -18.7968 244.267 -20.3258C244.664 -26.2191 242.243 -30.8551 237.681 -34.509C236.097 -35.774 234.296 -36.7457 232.364 -37.3771C232.285 -37.3771 232.205 -37.4555 232.126 -37.5342H235.379C235.614 -37.3291 235.866 -37.145 236.133 -36.9842C239.51 -35.0654 242.231 -32.1927 243.949 -28.7336C245.536 -25.6298 245.854 -22.2903 245.338 -18.9114C244.822 -15.5327 244.029 -12.586 243.473 -9.40369C243.077 -7.24282 242.68 -5.08196 242.481 -2.88181C242.221 0.326115 242.752 3.54874 244.029 6.50812C244.822 8.55112 245.695 10.5548 246.489 12.6371C247.575 15.1938 248.063 17.9606 247.917 20.7305C247.696 23.0727 247.148 25.3732 246.29 27.5666C245.014 30.7562 243.516 33.8543 241.807 36.8387C238.522 43.0016 234.879 48.9703 230.896 54.715C228.793 57.6224 226.532 60.4118 223.715 62.6905C221.649 64.4614 219.268 65.8339 216.692 66.7372C212.884 67.9945 209.114 67.6802 205.385 66.3836C202.766 65.4801 200.306 64.1835 197.807 62.9262C195.307 61.669 192.53 60.3332 189.634 59.6653C187.01 59.0506 184.314 58.7864 181.619 58.8795C177.414 58.9975 173.248 59.7046 169.082 60.3725C164.916 61.0405 161.028 61.7476 156.901 61.7476C147.974 61.7869 139.682 59.6653 132.342 54.3614L131.668 54.0864V52.5542Z" fill="#1C204E"/>
<path d="M131.668 48.0935L132.302 48.4865C136.706 51.789 141.705 53.6761 147.06 54.6983C151.548 55.5294 156.136 55.6753 160.668 55.1307C164.318 54.6983 167.968 54.2265 171.618 53.8334C175.267 53.4402 178.639 53.2043 182.13 53.5975C185.794 53.979 189.356 55.0181 192.644 56.664C194.945 57.8435 197.246 59.0623 199.586 60.2024C201.726 61.3046 204.029 62.061 206.41 62.4434C209.18 62.8636 212.015 62.4956 214.582 61.3819C217.915 60.0451 220.652 57.8435 223.112 55.2487C225.399 52.7246 227.469 50.0155 229.301 47.1499C233.232 41.2053 236.681 34.9607 239.615 28.4754C240.354 26.8428 240.977 25.1613 241.48 23.4431C242.664 19.789 242.594 15.8491 241.282 12.2383C240.528 10.076 239.734 7.95303 238.901 5.79072C237.354 1.70198 237.037 -2.5047 237.552 -6.82933C237.949 -9.85656 238.465 -12.9231 238.862 -15.9503C239.258 -18.9776 239.377 -21.4151 238.703 -24.0886C237.87 -27.509 236.045 -30.3002 233.506 -32.6984C231.366 -34.8212 228.759 -36.4227 225.889 -37.3769L225.651 -37.5342H228.904L229.658 -37.0231C232.337 -35.5572 234.686 -33.5636 236.561 -31.1651C239.199 -27.865 240.551 -23.7343 240.369 -19.528C240.29 -16.8546 239.814 -14.2598 239.457 -11.665C239.1 -9.07028 238.782 -6.67207 238.584 -4.15592C238.306 -0.735535 238.98 2.5669 240.171 5.79072C240.885 7.63852 241.559 9.447 242.234 11.2555C243.979 15.8946 243.9 20.4944 242.273 25.0943C241.178 28.0813 239.893 30.9965 238.425 33.8221C235.467 39.7321 232.059 45.4098 228.229 50.8061C226.127 53.7547 223.865 56.5461 221.049 58.7871C219.913 59.7054 218.706 60.5336 217.439 61.2639C212.48 64.1732 207.243 64.645 201.848 62.522C199.904 61.7357 198.039 60.7921 196.174 59.8879C194.31 58.9836 192.247 57.8435 190.224 56.9392C187.215 55.5747 183.968 54.8003 180.663 54.659C177.132 54.4624 173.641 54.7769 170.15 55.1701C166.659 55.5632 162.612 56.1923 158.843 56.4675C150.472 57.1358 142.458 55.7991 135.04 51.7103C133.889 51.042 132.778 50.295 131.668 49.5873V48.0935Z" fill="#1C204E"/>
<path d="M131.668 43.7184L132.342 44.072C136.467 46.9795 141.107 48.6297 146.065 49.5334C151.023 50.4371 154.95 50.3584 159.392 50.0049C163.834 49.6512 168.475 49.219 173.036 49.0225C177.446 48.7318 181.866 49.4302 185.966 51.0657C187.79 51.8123 189.535 52.7551 191.28 53.6195C193.026 54.4839 195.564 55.9377 197.745 56.9592C199.964 58.0742 202.399 58.7039 204.885 58.8058C208.203 58.8402 211.462 57.9409 214.285 56.2127C217.577 54.3268 220.234 51.6943 222.614 48.7868C226.223 44.3471 229.118 39.5143 231.696 34.4458C233.399 31.2962 234.896 28.0416 236.178 24.7018C236.993 22.6443 237.54 20.4921 237.804 18.2975C238.053 15.6984 237.756 13.0765 236.932 10.5966C236.337 8.71063 235.702 6.86398 235.028 4.97804C233.817 1.5612 233.265 -2.05082 233.402 -5.66966C233.521 -8.34141 233.719 -10.9739 233.918 -13.6456C234.116 -16.3173 234.274 -18.6747 233.957 -21.1501C233.478 -24.3777 232.105 -27.4108 229.991 -29.9119C227.318 -33.2032 223.816 -35.7376 219.837 -37.2591L219.361 -37.5342H222.415C223.764 -36.6305 225.192 -35.8447 226.54 -34.9017C228.505 -33.4595 230.231 -31.7229 231.657 -29.7547C234.314 -26.1792 235.425 -22.0931 235.306 -17.7318C235.226 -15.2565 235.028 -12.8205 234.83 -10.3845C234.592 -7.00554 234.394 -3.62656 234.949 -0.247585C235.313 1.78641 235.858 3.78478 236.575 5.72456C237.091 7.21759 237.606 8.71063 238.082 10.2037C239.431 14.3284 239.431 18.7698 238.082 22.8945C236.964 26.2688 235.585 29.5528 233.957 32.717C231.272 38.3264 228.031 43.6568 224.28 48.6297C221.9 51.6943 219.282 54.4839 215.99 56.5664C213.661 58.1098 211.046 59.1783 208.296 59.7095C205.263 60.2865 202.128 60.0003 199.253 58.8844C197.388 58.138 195.604 57.2736 193.819 56.4092L188.623 53.6195C184.26 51.2228 179.54 50.2013 174.582 50.162C171.136 50.1745 167.693 50.3843 164.27 50.7906C160.264 51.1835 156.258 51.5765 152.213 51.4192C145.074 51.105 138.331 49.4156 132.263 45.4865L131.668 45.2114V43.7184Z" fill="#1C204E"/>
<path d="M131.668 39.3373L132.342 39.7302C136.589 42.362 141.273 43.8546 146.194 44.6402C151.116 45.4258 155.045 45.1902 159.491 44.9151C163.936 44.6402 167.905 44.4046 172.112 44.6402C176.915 44.9151 181.479 45.9757 185.647 48.3325L191.362 51.5143C192.822 52.3414 194.333 53.0762 195.887 53.7139C200.491 55.5994 205.055 55.4031 209.54 53.3998C212.604 51.9964 215.367 50.0227 217.677 47.5862C220.551 44.5708 223.043 41.2204 225.099 37.609C227.991 32.7375 230.384 27.5924 232.243 22.2505C233.279 19.3684 233.711 16.3079 233.514 13.2553C233.308 11.2513 232.882 9.27559 232.243 7.36321C231.807 5.83128 231.331 4.29934 230.854 2.76741C229.905 -0.555462 229.424 -3.99227 229.425 -7.44547C229.425 -10.2344 229.425 -13.0233 229.306 -15.8121C229.268 -17.4712 229.108 -19.1251 228.83 -20.7614C228.116 -24.6109 226.091 -27.7534 223.432 -30.5423C220.63 -33.5186 217.183 -35.8284 213.351 -37.2986L212.954 -37.5342H215.97C217.819 -36.5653 219.584 -35.4487 221.249 -34.1954C224.027 -32.0335 226.347 -29.3505 228.076 -26.3001C229.514 -23.6605 230.328 -20.7327 230.457 -17.7369C230.577 -14.6731 230.616 -11.6485 230.616 -8.58459C230.557 -4.11807 231.24 0.327686 232.64 4.57432C233.356 6.71373 233.952 8.89054 234.426 11.0948C235.18 14.5908 234.744 18.0082 233.752 21.4256C232.637 25.0588 231.216 28.5932 229.505 31.992C226.806 37.4519 223.67 42.6369 219.622 47.2327C216.685 50.5716 213.271 53.2819 209.064 54.8924C204.857 56.5028 199.935 56.6993 195.45 54.8138C193.426 53.9497 191.521 52.9283 189.576 51.9071C187.631 50.8858 186.322 50.1002 184.694 49.1968C180.606 46.9577 176.2 45.9757 171.557 45.7794C167.876 45.6746 164.193 45.7664 160.523 46.0543C156.474 46.3293 152.426 46.5257 148.377 46.1328C142.741 45.5436 137.423 44.0904 132.541 41.2228C132.257 41.0883 131.966 40.9702 131.668 40.8692V39.3373Z" fill="#1C204E"/>
<path d="M131.668 35.0242L132.263 35.2992C136.667 37.8133 141.469 39.1491 146.468 39.7776C150.674 40.2883 154.92 40.1312 159.126 40.0527C163.332 39.974 166.863 39.974 170.712 40.4847C174.814 40.9387 178.774 42.2366 182.338 44.2954C184.362 45.4346 186.306 46.6524 188.29 47.8309C190.274 49.0095 192.814 50.2273 195.353 50.8166C199.48 51.7987 203.448 51.1702 207.257 49.4024C210.713 47.7264 213.78 45.3587 216.264 42.449C219.442 38.7561 222.086 34.6444 224.121 30.2316C225.736 26.9273 227.076 23.4983 228.128 19.9783C229.431 15.362 229.404 10.4768 228.049 5.87516C227.374 3.43952 226.7 1.00388 226.224 -1.43176C225.748 -3.8674 225.589 -6.18518 225.311 -8.54225C224.914 -11.7243 224.637 -14.9064 224.161 -18.0884C223.565 -22.331 221.502 -25.9453 218.645 -29.1273C215.49 -32.6388 211.568 -35.3928 207.178 -37.1806C206.984 -37.2845 206.798 -37.4027 206.622 -37.5342H209.678L210.511 -36.9842C214.273 -34.9866 217.603 -32.2772 220.312 -29.0094C223.284 -25.494 225.147 -21.1906 225.668 -16.6349C226.025 -13.6492 226.343 -10.6636 226.581 -7.67799C226.914 -3.95778 227.591 -0.27573 228.605 3.32167C229.16 5.32518 229.636 7.36796 230.033 9.37148C230.644 12.76 230.454 16.2427 229.477 19.5461C226.978 28.228 223.129 36.2028 217.256 43.1561C215.211 45.609 212.755 47.6953 209.995 49.3238C203.368 53.1736 196.623 53.6058 189.758 49.9523L184.203 46.8095C182.775 45.9846 181.346 45.1597 179.918 44.4132C176.426 42.6061 172.696 41.7812 168.808 41.4276C164.165 41.0347 159.562 41.2705 154.92 41.3098C149.206 41.349 143.572 40.9954 138.136 39.1491C136.231 38.5206 134.406 37.6171 132.541 36.8313L131.668 36.5564V35.0242Z" fill="#1C204E"/>
<path d="M131.668 30.6918C131.947 30.7554 132.215 30.8614 132.462 31.0061C136.303 32.8873 140.435 34.1218 144.687 34.659C148.576 35.1695 152.506 35.1695 156.435 35.2875C159.793 35.3129 163.146 35.536 166.478 35.9551C170.844 36.5443 174.972 37.762 178.742 40.0401L185.133 43.9679C187.288 45.3492 189.643 46.3958 192.119 47.0709C196.247 48.0528 200.216 47.5029 204.106 45.8532C207.995 44.2035 211.766 41.1006 214.584 37.5262C218.117 33.1271 220.578 28.1388 222.483 22.8755C223.523 20.046 224.229 17.1068 224.587 14.1165C224.911 11.1105 224.737 8.07218 224.071 5.12184C223.316 1.58681 222.523 -1.94823 221.808 -5.52254C221.213 -8.46839 220.736 -11.4142 220.181 -14.3209C219.903 -15.6562 219.506 -16.9917 219.109 -18.3272C217.68 -23.2369 214.743 -27.1647 211.012 -30.6212C207.954 -33.416 204.438 -35.6742 200.613 -37.2986L200.176 -37.5342H203.232C203.508 -37.3283 203.8 -37.1443 204.106 -36.9843C209.385 -34.1169 213.83 -30.3071 217.164 -25.3187C219.233 -22.1447 220.637 -18.5919 221.292 -14.8708C222.046 -11.1 222.681 -7.32933 223.436 -3.55863C223.951 -0.926998 224.507 1.70463 225.142 4.33627C226.611 10.3458 226.016 16.2375 224.031 22.0114C222.393 27.0661 220.041 31.8662 217.045 36.2694C214.505 39.8829 211.528 43.0251 207.718 45.3034C203.907 47.5814 200.057 48.8776 195.651 48.7598C192.847 48.6886 190.099 47.9617 187.633 46.6388C185.569 45.5783 183.545 44.3606 181.56 43.1431C179.576 41.9254 176.996 40.3543 174.495 39.2938C171.333 37.9908 167.986 37.1824 164.572 36.8979C160.008 36.4265 155.443 36.505 150.879 36.3479C145.361 36.1123 139.924 35.366 134.724 33.3235L131.668 31.988V30.6918Z" fill="#1C204E"/>
<path d="M178.185 37.6499C178.215 37.7309 178.271 37.7999 178.344 37.8464C180.684 39.4176 183.023 40.9888 185.601 42.1673C190.875 44.5635 196.15 44.3277 201.424 42.0887C205.667 40.2818 209.078 37.375 211.854 33.7612C215.423 29.0866 217.683 23.8229 219.151 18.2451C220.536 12.8043 220.658 7.12333 219.508 1.62914C218.477 -3.43812 217.366 -8.5054 215.859 -13.4548C212.409 -24.5714 204.954 -32.1134 194.603 -37.1413L193.85 -37.5342H196.705L197.577 -36.9842C203.544 -33.7958 208.646 -29.2276 212.449 -23.6679C214.788 -20.2505 216.256 -16.4402 217.406 -12.5121C219.055 -6.90849 220.314 -1.19928 221.173 4.57523C221.966 9.76034 221.411 14.9062 219.944 19.9342C218.239 25.6692 215.78 30.9721 211.894 35.6073C208.523 39.614 204.438 42.5994 199.322 44.1313C194.207 45.6633 189.289 45.3491 184.57 42.9529C182.547 41.9316 180.604 40.7139 178.661 39.5354C176.718 38.3571 175.687 37.6106 174.18 36.7072C170.492 34.4682 166.407 33.2112 162.164 32.5827C158.674 32.0328 155.184 31.8364 151.655 31.6006C146.817 31.3257 141.979 30.9329 137.299 29.558C135.713 29.0866 134.166 28.4581 132.58 27.9083L131.668 27.6725V26.3371L132.58 26.612C133.849 27.0834 135.157 27.6332 136.466 28.0654C140.947 29.5187 145.627 29.9509 150.267 30.3045C153.836 30.5794 157.405 30.8543 160.974 31.2472C166.741 31.7666 172.274 33.756 177.035 37.0214L177.789 37.2964L178.185 37.6499Z" fill="#1C204E"/>
<path d="M288.143 45.2401C288.362 45.3514 288.509 45.5738 288.521 45.8314V47.008C288.504 47.3767 288.208 47.6695 287.842 47.687H283.665V43.5952H287.535C287.907 43.6127 288.202 43.9055 288.22 44.2742V44.9592C288.214 45.0586 288.191 45.1523 288.143 45.2401ZM287.511 44.0752H284.149V45.1523H287.511C287.57 45.1523 287.623 45.1289 287.665 45.0879C287.706 45.047 287.73 44.9942 287.736 44.9358V44.2977C287.73 44.239 287.706 44.1864 287.665 44.1455C287.623 44.1044 287.57 44.0811 287.511 44.0752ZM288.037 46.9904V45.8548C288.037 45.7962 288.013 45.7436 287.972 45.7026C287.93 45.6616 287.871 45.6382 287.812 45.6382L284.149 45.644V47.207H287.818C287.871 47.207 287.93 47.1836 287.972 47.1426C288.013 47.1016 288.037 47.0432 288.037 46.9904ZM294.524 45.3982V43.5952H295.014V45.843C295.008 46.1708 294.997 46.6567 294.979 46.9729C294.961 47.3416 294.66 47.6344 294.293 47.6519C293.697 47.6753 293.1 47.687 292.509 47.687C291.912 47.687 291.44 47.6753 290.843 47.6519C290.477 47.6344 290.175 47.3416 290.158 46.9729C290.152 46.8441 290.146 46.7211 290.146 46.5923H290.63C290.636 46.7095 290.636 46.8264 290.642 46.9495C290.648 47.008 290.672 47.0607 290.713 47.1016C290.754 47.1426 290.808 47.166 290.867 47.166C291.452 47.1953 291.924 47.207 292.509 47.207C293.094 47.207 293.685 47.1953 294.27 47.166C294.329 47.166 294.382 47.1426 294.423 47.1016C294.465 47.0607 294.488 47.008 294.494 46.9495C294.506 46.6919 294.518 46.2236 294.524 45.884H290.837C290.465 45.8664 290.17 45.5738 290.152 45.2049V43.5952H290.636V45.1815C290.642 45.2401 290.666 45.2927 290.707 45.3337C290.749 45.3748 290.802 45.3982 290.861 45.3982H294.524ZM307.689 43.5952H308.226L306.33 47.687H305.703L304.079 44.1747L302.448 47.687H301.822L299.931 43.5952H300.463L302.135 47.207L303.807 43.5952H304.079H304.345L306.016 47.207L307.689 43.5952ZM312.031 43.999C311.446 43.999 310.85 44.0166 310.265 44.04C310.212 44.0459 310.152 44.0693 310.111 44.1103C310.07 44.1512 310.046 44.204 310.046 44.2625C309.999 45.1758 309.999 46.1064 310.046 47.0255C310.046 47.0782 310.07 47.1367 310.111 47.1777C310.152 47.2188 310.212 47.2422 310.265 47.2422C310.85 47.2714 311.446 47.2832 312.031 47.2832C312.616 47.2832 313.207 47.2714 313.792 47.2422C313.851 47.2422 313.904 47.2188 313.946 47.1777C313.987 47.1367 314.011 47.0782 314.016 47.0255C314.064 46.1064 314.064 45.1758 314.016 44.2625C314.011 44.204 313.987 44.1512 313.946 44.1103C313.904 44.0693 313.851 44.0459 313.792 44.04C313.207 44.0166 312.616 43.999 312.031 43.999ZM310.247 43.56C310.838 43.5308 311.435 43.519 312.031 43.519C312.622 43.519 313.219 43.5308 313.816 43.56C314.188 43.5775 314.483 43.8703 314.501 44.239C314.548 45.1758 314.548 46.1123 314.501 47.0489C314.483 47.4119 314.188 47.7104 313.816 47.7222C313.219 47.7514 312.622 47.7632 312.031 47.7632C311.435 47.7632 310.838 47.7514 310.247 47.7222C309.875 47.7104 309.579 47.4119 309.562 47.0489C309.508 46.1123 309.508 45.1758 309.562 44.239C309.579 43.8703 309.875 43.5775 310.247 43.56ZM316.298 43.5952H320.168C320.54 43.6127 320.836 43.9055 320.854 44.2742V45.4508C320.836 45.8196 320.535 46.1123 320.168 46.1299H318.845L321.155 47.687H320.292L317.982 46.1299H316.783V47.687H316.298V43.5952ZM320.145 44.0752H316.783V45.644L320.145 45.6499C320.204 45.644 320.257 45.6206 320.298 45.5796C320.34 45.5386 320.363 45.486 320.369 45.4274L320.363 44.2977C320.363 44.239 320.34 44.1864 320.298 44.1455C320.257 44.1044 320.204 44.0811 320.145 44.0752ZM326.017 47.207V47.687H322.62V43.5952H323.104V47.207H326.017ZM327.466 47.6929V44.0752H327.165V43.5952H331.644C332.01 43.6127 332.311 43.9055 332.329 44.2742V47.0138C332.311 47.3826 332.01 47.6753 331.644 47.6929H327.466ZM331.845 46.9904V44.2977C331.839 44.239 331.815 44.1864 331.774 44.1455C331.732 44.1044 331.679 44.0811 331.62 44.0752H327.951V47.207H331.62C331.679 47.207 331.732 47.1836 331.774 47.1426C331.815 47.1016 331.839 47.0489 331.845 46.9904ZM338.202 45.884H334.734C334.362 45.8664 334.066 45.5738 334.049 45.2049V44.6137C334.049 44.4908 334.055 44.3621 334.061 44.2333C334.078 43.8703 334.38 43.5775 334.746 43.56C335.343 43.5308 335.88 43.519 336.477 43.519C337.074 43.519 337.612 43.5308 338.208 43.56C338.574 43.5775 338.876 43.8703 338.894 44.2333C338.899 44.3621 338.905 44.4908 338.905 44.6137H338.421C338.415 44.4967 338.415 44.3796 338.408 44.2625C338.403 44.204 338.379 44.1455 338.338 44.1044C338.296 44.0634 338.244 44.04 338.184 44.04C337.6 44.0108 337.062 43.999 336.477 43.999C335.892 43.999 335.354 44.0108 334.77 44.04C334.71 44.04 334.657 44.0634 334.616 44.1044C334.575 44.1455 334.551 44.204 334.551 44.2625C334.545 44.3796 334.539 44.4967 334.533 44.6137V45.1815C334.533 45.2401 334.557 45.2927 334.598 45.3337C334.64 45.3748 334.699 45.3982 334.758 45.404H338.22C338.592 45.4158 338.888 45.7143 338.905 46.0773V46.6685C338.905 46.7973 338.899 46.9201 338.894 47.0489C338.876 47.4178 338.574 47.7104 338.208 47.7279C337.612 47.7514 337.074 47.769 336.477 47.769C335.88 47.769 335.343 47.7514 334.746 47.7279C334.38 47.7104 334.078 47.4178 334.061 47.0489C334.055 46.9201 334.049 46.7973 334.049 46.6685H334.533C334.539 46.7855 334.539 46.9085 334.545 47.0255C334.551 47.0841 334.575 47.1367 334.616 47.1777C334.657 47.2188 334.71 47.2422 334.77 47.2422C335.354 47.2714 335.892 47.2832 336.477 47.2832C337.062 47.2832 337.6 47.2714 338.184 47.2422C338.244 47.2422 338.296 47.2188 338.338 47.1777C338.379 47.1367 338.403 47.0841 338.403 47.0255C338.408 46.9085 338.415 46.7855 338.421 46.6685V46.1007C338.421 46.0479 338.397 45.9895 338.356 45.9484C338.314 45.9074 338.255 45.884 338.202 45.884ZM341.134 47.687H340.65V43.5952H344.536V44.0752H341.134V45.404H344.229V45.884H341.134V47.687ZM349.417 47.687L349.009 46.8089H346.032L345.624 47.687H345.092L346.983 43.5952H348.057L349.949 47.687H349.417ZM346.256 46.323H348.785L347.745 44.0752H347.296L346.256 46.323ZM355.406 45.884H351.938C351.566 45.8664 351.271 45.5738 351.253 45.2049V44.6137C351.253 44.4908 351.259 44.3621 351.265 44.2333C351.283 43.8703 351.584 43.5775 351.951 43.56C352.547 43.5308 353.084 43.519 353.682 43.519C354.278 43.519 354.815 43.5308 355.413 43.56C355.779 43.5775 356.081 43.8703 356.097 44.2333C356.104 44.3621 356.11 44.4908 356.11 44.6137H355.626C355.619 44.4967 355.619 44.3796 355.613 44.2625C355.608 44.204 355.584 44.1455 355.543 44.1044C355.501 44.0634 355.447 44.04 355.389 44.04C354.804 44.0108 354.267 43.999 353.682 43.999C353.097 43.999 352.559 44.0108 351.974 44.04C351.915 44.04 351.861 44.0634 351.821 44.1044C351.779 44.1455 351.756 44.204 351.756 44.2625C351.749 44.3796 351.743 44.4967 351.738 44.6137V45.1815C351.738 45.2401 351.761 45.2927 351.803 45.3337C351.844 45.3748 351.902 45.3982 351.962 45.404H355.424C355.796 45.4158 356.092 45.7143 356.11 46.0773V46.6685C356.11 46.7973 356.104 46.9201 356.097 47.0489C356.081 47.4178 355.779 47.7104 355.413 47.7279C354.815 47.7514 354.278 47.769 353.682 47.769C353.084 47.769 352.547 47.7514 351.951 47.7279C351.584 47.7104 351.283 47.4178 351.265 47.0489C351.259 46.9201 351.253 46.7973 351.253 46.6685H351.738C351.743 46.7855 351.743 46.9085 351.749 47.0255C351.756 47.0841 351.779 47.1367 351.821 47.1777C351.861 47.2188 351.915 47.2422 351.974 47.2422C352.559 47.2714 353.097 47.2832 353.682 47.2832C354.267 47.2832 354.804 47.2714 355.389 47.2422C355.447 47.2422 355.501 47.2188 355.543 47.1777C355.584 47.1367 355.608 47.0841 355.608 47.0255C355.613 46.9085 355.619 46.7855 355.626 46.6685V46.1007C355.626 46.0479 355.601 45.9895 355.561 45.9484C355.519 45.9074 355.46 45.884 355.406 45.884ZM361.362 43.5952V44.0752H359.661V47.687H359.171V44.0752H357.476V43.5952H361.362ZM366.7 44.0752H363.298V45.404H366.7V45.884H363.298V47.207H366.7V47.687H362.812V43.5952H366.7V44.0752ZM372.443 45.884H368.976C368.603 45.8664 368.308 45.5738 368.29 45.2049V44.6137C368.29 44.4908 368.296 44.3621 368.301 44.2333C368.319 43.8703 368.62 43.5775 368.987 43.56C369.584 43.5308 370.122 43.519 370.718 43.519C371.315 43.519 371.853 43.5308 372.449 43.56C372.815 43.5775 373.117 43.8703 373.135 44.2333C373.14 44.3621 373.147 44.4908 373.147 44.6137H372.662C372.656 44.4967 372.656 44.3796 372.651 44.2625C372.644 44.204 372.62 44.1455 372.579 44.1044C372.537 44.0634 372.485 44.04 372.425 44.04C371.84 44.0108 371.303 43.999 370.718 43.999C370.133 43.999 369.595 44.0108 369.01 44.04C368.951 44.04 368.898 44.0634 368.857 44.1044C368.815 44.1455 368.792 44.204 368.792 44.2625C368.786 44.3796 368.781 44.4967 368.774 44.6137V45.1815C368.774 45.2401 368.797 45.2927 368.839 45.3337C368.88 45.3748 368.94 45.3982 368.999 45.404H372.461C372.833 45.4158 373.129 45.7143 373.147 46.0773V46.6685C373.147 46.7973 373.14 46.9201 373.135 47.0489C373.117 47.4178 372.815 47.7104 372.449 47.7279C371.853 47.7514 371.315 47.769 370.718 47.769C370.122 47.769 369.584 47.7514 368.987 47.7279C368.62 47.7104 368.319 47.4178 368.301 47.0489C368.296 46.9201 368.29 46.7973 368.29 46.6685H368.774C368.781 46.7855 368.781 46.9085 368.786 47.0255C368.792 47.0841 368.815 47.1367 368.857 47.1777C368.898 47.2188 368.951 47.2422 369.01 47.2422C369.595 47.2714 370.133 47.2832 370.718 47.2832C371.303 47.2832 371.84 47.2714 372.425 47.2422C372.485 47.2422 372.537 47.2188 372.579 47.1777C372.62 47.1367 372.644 47.0841 372.644 47.0255C372.651 46.9085 372.656 46.7855 372.662 46.6685V46.1007C372.662 46.0479 372.638 45.9895 372.597 45.9484C372.555 45.9074 372.496 45.884 372.443 45.884ZM378.399 43.5952V44.0752H376.697V47.687H376.208V44.0752H374.512V43.5952H378.399ZM379.543 47.207H380.027V47.687H379.543V47.207ZM385.998 47.0255C386.005 46.9026 386.011 46.7855 386.011 46.6685H386.501C386.494 46.7914 386.489 46.9201 386.483 47.0489C386.465 47.4119 386.17 47.7104 385.798 47.7222C385.2 47.7514 384.604 47.7632 384.013 47.7632C383.417 47.7632 382.82 47.7514 382.229 47.7222C381.857 47.7104 381.561 47.4119 381.543 47.0489C381.491 46.1123 381.491 45.1758 381.543 44.239C381.561 43.8703 381.857 43.5775 382.229 43.56C382.82 43.5308 383.417 43.519 384.013 43.519C384.604 43.519 385.2 43.5308 385.798 43.56C386.17 43.5775 386.465 43.8703 386.483 44.239C386.489 44.3621 386.494 44.4908 386.501 44.6196H386.011C386.011 44.4967 386.005 44.3796 385.998 44.2625C385.993 44.204 385.969 44.1512 385.928 44.1103C385.886 44.0693 385.834 44.0459 385.774 44.04C385.189 44.0166 384.599 43.999 384.013 43.999C383.428 43.999 382.832 44.0166 382.247 44.04C382.193 44.0459 382.135 44.0693 382.094 44.1103C382.052 44.1512 382.029 44.204 382.029 44.2625C381.98 45.1758 381.98 46.1064 382.029 47.0255C382.029 47.0782 382.052 47.1367 382.094 47.1777C382.135 47.2188 382.193 47.2422 382.247 47.2422C382.832 47.2714 383.428 47.2832 384.013 47.2832C384.599 47.2832 385.189 47.2714 385.774 47.2422C385.834 47.2422 385.886 47.2188 385.928 47.1777C385.969 47.1367 385.993 47.0782 385.998 47.0255ZM390.606 43.999C390.021 43.999 389.424 44.0166 388.839 44.04C388.787 44.0459 388.727 44.0693 388.686 44.1103C388.644 44.1512 388.621 44.204 388.621 44.2625C388.574 45.1758 388.574 46.1064 388.621 47.0255C388.621 47.0782 388.644 47.1367 388.686 47.1777C388.727 47.2188 388.787 47.2422 388.839 47.2422C389.424 47.2714 390.021 47.2832 390.606 47.2832C391.191 47.2832 391.781 47.2714 392.366 47.2422C392.426 47.2422 392.478 47.2188 392.52 47.1777C392.561 47.1367 392.585 47.0782 392.592 47.0255C392.639 46.1064 392.639 45.1758 392.592 44.2625C392.585 44.204 392.561 44.1512 392.52 44.1103C392.478 44.0693 392.426 44.0459 392.366 44.04C391.781 44.0166 391.191 43.999 390.606 43.999ZM388.821 43.56C389.413 43.5308 390.009 43.519 390.606 43.519C391.197 43.519 391.794 43.5308 392.39 43.56C392.762 43.5775 393.058 43.8703 393.075 44.239C393.122 45.1758 393.122 46.1123 393.075 47.0489C393.058 47.4119 392.762 47.7104 392.39 47.7222C391.794 47.7514 391.197 47.7632 390.606 47.7632C390.009 47.7632 389.413 47.7514 388.821 47.7222C388.449 47.7104 388.154 47.4119 388.136 47.0489C388.083 46.1123 388.083 45.1758 388.136 44.239C388.154 43.8703 388.449 43.5775 388.821 43.56ZM399.504 43.5952H400.367V47.687H399.882V44.0752H399.8L397.873 47.687H397.395L395.469 44.0752H395.386V47.687H394.902V43.5952H395.759L397.631 47.1075L399.504 43.5952Z" fill="#1C204E"/>
<path d="M289.922 16.2197C289.93 16.0518 289.938 15.8918 289.938 15.7319H290.608C290.6 15.8999 290.592 16.0757 290.584 16.2516C290.559 16.7475 290.156 17.1555 289.647 17.1714C288.832 17.2114 288.017 17.2274 287.21 17.2274C286.394 17.2274 285.579 17.2114 284.772 17.1714C284.263 17.1555 283.86 16.7475 283.836 16.2516C283.763 14.972 283.763 13.6925 283.836 12.4129C283.86 11.909 284.263 11.5092 284.772 11.4852C285.579 11.4452 286.394 11.4292 287.21 11.4292C288.017 11.4292 288.832 11.4452 289.647 11.4852C290.156 11.5092 290.559 11.909 290.584 12.4129C290.592 12.5808 290.6 12.7568 290.608 12.9327H289.938C289.938 12.7648 289.93 12.6048 289.922 12.4449C289.914 12.3649 289.881 12.2929 289.825 12.2369C289.768 12.181 289.696 12.149 289.615 12.141C288.816 12.109 288.009 12.085 287.21 12.085C286.411 12.085 285.595 12.109 284.796 12.141C284.724 12.149 284.643 12.181 284.586 12.2369C284.53 12.2929 284.498 12.3649 284.498 12.4449C284.433 13.6925 284.433 14.9641 284.498 16.2197C284.498 16.2916 284.53 16.3716 284.586 16.4277C284.643 16.4836 284.724 16.5156 284.796 16.5156C285.595 16.5556 286.411 16.5716 287.21 16.5716C288.009 16.5716 288.816 16.5556 289.615 16.5156C289.696 16.5156 289.768 16.4836 289.825 16.4277C289.881 16.3716 289.914 16.2916 289.922 16.2197ZM298.154 12.189H293.504V14.0044H298.154V14.6601H293.504V16.4677H298.154V17.1234H292.842V11.5332H298.154V12.189ZM300.438 11.5332H305.725C306.233 11.5572 306.637 11.957 306.661 12.4609V14.0683C306.637 14.5722 306.225 14.972 305.725 14.996H303.917L307.073 17.1234H305.894L302.738 14.996H301.1V17.1234H300.438V11.5332ZM305.693 12.189H301.1V14.3323L305.693 14.3403C305.773 14.3323 305.846 14.3003 305.902 14.2444C305.959 14.1884 305.991 14.1163 305.999 14.0364L305.991 12.4929C305.991 12.4129 305.959 12.3409 305.902 12.2849C305.846 12.2289 305.773 12.197 305.693 12.189ZM313.948 11.5332V12.189H311.623V17.1234H310.953V12.189H308.636V11.5332H313.948ZM316.591 17.1234H315.929V11.5332H316.591V17.1234ZM319.748 17.1234H319.086V11.5332H324.398V12.189H319.748V14.0044H323.978V14.6601H319.748V17.1234ZM327.139 17.1234H326.477V11.5332H327.139V17.1234ZM334.946 12.189H330.297V14.0044H334.946V14.6601H330.297V16.4677H334.946V17.1234H329.635V11.5332H334.946V12.189ZM337.376 17.1314V12.189H336.964V11.5332H343.083C343.583 11.5572 343.994 11.957 344.019 12.4609V16.2037C343.994 16.7075 343.583 17.1074 343.083 17.1314H337.376ZM343.357 16.1718V12.4929C343.348 12.4129 343.317 12.3409 343.26 12.2849C343.203 12.2289 343.131 12.197 343.05 12.189H338.038V16.4677H343.05C343.131 16.4677 343.203 16.4356 343.26 16.3796C343.317 16.3237 343.348 16.2516 343.357 16.1718ZM289.922 24.9868C289.93 24.8189 289.938 24.6589 289.938 24.499H290.608C290.6 24.667 290.592 24.8429 290.584 25.0188C290.559 25.5147 290.156 25.9226 289.647 25.9385C288.832 25.9785 288.017 25.9945 287.21 25.9945C286.394 25.9945 285.579 25.9785 284.772 25.9385C284.263 25.9226 283.86 25.5147 283.836 25.0188C283.763 23.7392 283.763 22.4596 283.836 21.18C283.86 20.6762 284.263 20.2763 284.772 20.2523C285.579 20.2123 286.394 20.1963 287.21 20.1963C288.017 20.1963 288.832 20.2123 289.647 20.2523C290.156 20.2763 290.559 20.6762 290.584 21.18C290.592 21.3479 290.6 21.524 290.608 21.6999H289.938C289.938 21.5319 289.93 21.3719 289.922 21.212C289.914 21.132 289.881 21.06 289.825 21.0041C289.768 20.9481 289.696 20.9162 289.615 20.9081C288.816 20.8762 288.009 20.852 287.21 20.852C286.411 20.852 285.595 20.8762 284.796 20.9081C284.724 20.9162 284.643 20.9481 284.586 21.0041C284.53 21.06 284.498 21.132 284.498 21.212C284.433 22.4596 284.433 23.7312 284.498 24.9868C284.498 25.0588 284.53 25.1388 284.586 25.1948C284.643 25.2507 284.724 25.2827 284.796 25.2827C285.595 25.3227 286.411 25.3388 287.21 25.3388C288.009 25.3388 288.816 25.3227 289.615 25.2827C289.696 25.2827 289.768 25.2507 289.825 25.1948C289.881 25.1388 289.914 25.0588 289.922 24.9868ZM298.226 25.8905L297.669 24.691H293.601L293.044 25.8905H292.318L294.901 20.3003H296.37L298.953 25.8905H298.226ZM293.908 24.0271H297.363L295.942 20.956H295.328L293.908 24.0271ZM300.919 20.3003H306.206C306.714 20.3242 307.118 20.7241 307.142 21.2279V22.8355C307.118 23.3393 306.706 23.7392 306.206 23.7631H304.398L307.554 25.8905H306.375L303.219 23.7631H301.581V25.8905H300.919V20.3003ZM306.173 20.956H301.581V23.0994L306.173 23.1074C306.254 23.0994 306.327 23.0674 306.383 23.0115C306.44 22.9555 306.472 22.8834 306.48 22.8036L306.472 21.26C306.472 21.18 306.44 21.1081 306.383 21.052C306.327 20.996 306.254 20.9641 306.173 20.956ZM315.673 22.5475C315.972 22.6996 316.174 23.0034 316.19 23.3553V24.9629C316.166 25.4667 315.762 25.8666 315.262 25.8905H309.555V20.3003H314.842C315.35 20.3242 315.754 20.7241 315.778 21.2279V22.1637C315.77 22.2997 315.738 22.4277 315.673 22.5475ZM314.81 20.956H310.217V22.4277H314.81C314.89 22.4277 314.963 22.3956 315.019 22.3396C315.076 22.2837 315.108 22.2116 315.116 22.1318V21.26C315.108 21.18 315.076 21.1081 315.019 21.052C314.963 20.996 314.89 20.9641 314.81 20.956ZM315.528 24.9389V23.3873C315.528 23.3074 315.496 23.2353 315.439 23.1794C315.383 23.1234 315.302 23.0914 315.221 23.0914L310.217 23.0994V25.2348H315.229C315.302 25.2348 315.383 25.2027 315.439 25.1467C315.496 25.0908 315.528 25.0108 315.528 24.9389ZM321.888 20.852C321.089 20.852 320.274 20.8762 319.475 20.9081C319.402 20.9162 319.321 20.9481 319.265 21.0041C319.208 21.06 319.176 21.132 319.176 21.212C319.112 22.4596 319.112 23.7312 319.176 24.9868C319.176 25.0588 319.208 25.1388 319.265 25.1948C319.321 25.2507 319.402 25.2827 319.475 25.2827C320.274 25.3227 321.089 25.3388 321.888 25.3388C322.687 25.3388 323.494 25.3227 324.294 25.2827C324.374 25.2827 324.447 25.2507 324.503 25.1948C324.56 25.1388 324.592 25.0588 324.6 24.9868C324.665 23.7312 324.665 22.4596 324.6 21.212C324.592 21.132 324.56 21.06 324.503 21.0041C324.447 20.9481 324.374 20.9162 324.294 20.9081C323.494 20.8762 322.687 20.852 321.888 20.852ZM319.451 20.2523C320.258 20.2123 321.073 20.1963 321.888 20.1963C322.695 20.1963 323.511 20.2123 324.326 20.2523C324.834 20.2763 325.238 20.6762 325.262 21.18C325.327 22.4596 325.327 23.7392 325.262 25.0188C325.238 25.5147 324.834 25.9226 324.326 25.9385C323.511 25.9785 322.695 25.9945 321.888 25.9945C321.073 25.9945 320.258 25.9785 319.451 25.9385C318.942 25.9226 318.538 25.5147 318.514 25.0188C318.442 23.7392 318.442 22.4596 318.514 21.18C318.538 20.6762 318.942 20.2763 319.451 20.2523ZM333.73 20.3003H334.392V25.8905H333.222L328.605 20.956H328.419V25.8905H327.757V20.3003H328.928L333.513 25.2348H333.73V20.3003ZM338.455 23.5393H336.47V22.8834H338.455V23.5393ZM346.502 20.3003H347.163V25.8905H345.993L341.375 20.956H341.19V25.8905H340.528V20.3003H341.699L346.284 25.2348H346.502V20.3003ZM354.973 20.956H350.324V22.7715H354.973V23.4273H350.324V25.2348H354.973V25.8905H349.661V20.3003H354.973V20.956ZM359.444 23.4433V22.7794H363.093C363.593 22.8036 364.005 23.2034 364.029 23.7073V24.499C364.021 24.667 364.012 24.8429 364.005 25.0188C363.981 25.5147 363.577 25.9226 363.068 25.9385C362.254 25.9785 361.438 25.9945 360.631 25.9945C359.816 25.9945 359.001 25.9785 358.193 25.9385C357.684 25.9226 357.281 25.5147 357.257 25.0188C357.184 23.7392 357.184 22.4596 357.257 21.18C357.281 20.6762 357.684 20.2763 358.193 20.2523C359.001 20.2123 359.816 20.1963 360.631 20.1963C361.438 20.1963 362.254 20.2123 363.068 20.2523C363.577 20.2763 363.981 20.6762 364.005 21.18C364.012 21.3479 364.021 21.524 364.029 21.6999H363.36C363.36 21.5319 363.352 21.3719 363.343 21.212C363.335 21.132 363.303 21.06 363.246 21.0041C363.19 20.9481 363.116 20.9162 363.036 20.9081C362.237 20.8762 361.43 20.852 360.631 20.852C359.831 20.852 359.017 20.8762 358.218 20.9081C358.145 20.9162 358.065 20.9481 358.008 21.0041C357.951 21.06 357.919 21.132 357.919 21.212C357.854 22.4596 357.854 23.7312 357.919 24.9868C357.919 25.0588 357.951 25.1388 358.008 25.1948C358.065 25.2507 358.145 25.2827 358.218 25.2827C359.017 25.3227 359.831 25.3388 360.631 25.3388C361.43 25.3388 362.237 25.3227 363.036 25.2827C363.116 25.2827 363.19 25.2507 363.246 25.1948C363.303 25.1388 363.335 25.0588 363.343 24.9868C363.352 24.8189 363.36 24.6589 363.36 24.499L363.367 23.7392C363.36 23.6592 363.327 23.5873 363.27 23.5312C363.213 23.4753 363.141 23.4433 363.061 23.4353L359.444 23.4433ZM371.734 25.8905L371.177 24.691H367.109L366.552 25.8905H365.825L368.409 20.3003H369.877L372.46 25.8905H371.734ZM367.416 24.0271H370.87L369.45 20.956H368.836L367.416 24.0271ZM378.33 20.3003V20.956H376.006V25.8905H375.336V20.956H373.02V20.3003H378.33ZM380.974 25.8905H380.312V20.3003H380.974V25.8905ZM385.955 25.2348L388.239 20.3003H388.975L386.384 25.8905H385.528L382.945 20.3003H383.671L385.955 25.2348ZM396.258 20.956H391.609V22.7715H396.258V23.4273H391.609V25.2348H396.258V25.8905H390.946V20.3003H396.258V20.956ZM293.909 29.0674H294.644L292.053 34.6577H291.197L288.977 29.8592L286.75 34.6577H285.894L283.311 29.0674H284.038L286.322 34.0019L288.606 29.0674H288.977H289.341L291.625 34.0019L293.909 29.0674ZM301.921 29.7231H297.272V31.5386H301.921V32.1944H297.272V34.0019H301.921V34.6577H296.61V29.0674H301.921V29.7231ZM310.324 31.3146C310.623 31.4667 310.825 31.7705 310.841 32.1225V33.73C310.817 34.2338 310.413 34.6337 309.912 34.6577H304.206V29.0674H309.493C310.001 29.0914 310.405 29.4912 310.429 29.9951V30.9308C310.421 31.0668 310.389 31.1948 310.324 31.3146ZM309.461 29.7231H304.868V31.1948H309.461C309.541 31.1948 309.614 31.1627 309.67 31.1067C309.727 31.0508 309.759 30.9788 309.767 30.8989V30.0271C309.759 29.9471 309.727 29.8752 309.67 29.8192C309.614 29.7631 309.541 29.7312 309.461 29.7231ZM310.179 33.706V32.1544C310.179 32.0745 310.147 32.0025 310.09 31.9466C310.034 31.8905 309.953 31.8585 309.872 31.8585L304.868 31.8666V34.0019H309.88C309.953 34.0019 310.034 33.9699 310.09 33.9138C310.147 33.8579 310.179 33.7779 310.179 33.706ZM318.727 32.1944H313.988C313.48 32.1704 313.076 31.7705 313.052 31.2667V30.459C313.052 30.2911 313.06 30.1151 313.068 29.9392C313.092 29.4433 313.504 29.0434 314.005 29.0194C314.82 28.9794 315.554 28.9634 316.37 28.9634C317.185 28.9634 317.919 28.9794 318.735 29.0194C319.235 29.0434 319.647 29.4433 319.671 29.9392C319.679 30.1151 319.687 30.2911 319.687 30.459H319.025C319.017 30.299 319.017 30.139 319.009 29.9792C319.001 29.8992 318.969 29.8192 318.912 29.7631C318.856 29.7073 318.783 29.6752 318.702 29.6752C317.903 29.6352 317.169 29.6192 316.37 29.6192C315.571 29.6192 314.836 29.6352 314.037 29.6752C313.956 29.6752 313.884 29.7073 313.827 29.7631C313.771 29.8192 313.738 29.8992 313.738 29.9792C313.73 30.139 313.722 30.299 313.714 30.459V31.2348C313.714 31.3147 313.746 31.3867 313.803 31.4427C313.859 31.4986 313.94 31.5307 314.021 31.5386H318.751C319.259 31.5547 319.663 31.9625 319.687 32.4584V33.2662C319.687 33.442 319.679 33.61 319.671 33.7859C319.647 34.2897 319.235 34.6897 318.735 34.7137C317.919 34.7456 317.185 34.7696 316.37 34.7696C315.554 34.7696 314.82 34.7456 314.005 34.7137C313.504 34.6897 313.092 34.2897 313.068 33.7859C313.06 33.61 313.052 33.442 313.052 33.2662H313.714C313.722 33.426 313.722 33.594 313.73 33.754C313.738 33.834 313.771 33.9059 313.827 33.9619C313.884 34.0178 313.956 34.0499 314.037 34.0499C314.836 34.0899 315.571 34.1059 316.37 34.1059C317.169 34.1059 317.903 34.0899 318.702 34.0499C318.783 34.0499 318.856 34.0178 318.912 33.9619C318.969 33.9059 319.001 33.834 319.001 33.754C319.009 33.594 319.017 33.426 319.025 33.2662V32.4904C319.025 32.4183 318.993 32.3383 318.936 32.2825C318.88 32.2264 318.799 32.1944 318.727 32.1944ZM322.731 34.6577H322.069V29.0674H322.731V34.6577ZM330.022 29.0674V29.7231H327.697V34.6577H327.027V29.7231H324.71V29.0674H330.022ZM337.313 29.7231H332.665V31.5386H337.313V32.1944H332.665V34.0019H337.313V34.6577H332.003V29.0674H337.313V29.7231Z" fill="#1C204E"/>
</g>
</g>
<defs>
<filter id="filter0_d_2800_478" x="0.343883" y="0.0932617" width="49.311" height="40.3203" filterUnits="userSpaceOnUse" color-interpolation-filters="sRGB">
<feFlood flood-opacity="0" result="BackgroundImageFix"/>
<feColorMatrix in="SourceAlpha" type="matrix" values="0 0 0 0 0 0 0 0 0 0 0 0 0 0 0 0 0 0 127 0" result="hardAlpha"/>
<feOffset dy="0.656117"/>
<feGaussianBlur stdDeviation="0.328058"/>
<feComposite in2="hardAlpha" operator="out"/>
<feColorMatrix type="matrix" values="0 0 0 0 0 0 0 0 0 0 0 0 0 0 0 0 0 0 0.25 0"/>
<feBlend mode="normal" in2="BackgroundImageFix" result="effect1_dropShadow_2800_478"/>
<feBlend mode="normal" in="SourceGraphic" in2="effect1_dropShadow_2800_478" result="shape"/>
</filter>
<filter id="filter1_d_2800_478" x="6.10281" y="44.3342" width="38.0129" height="13.5986" filterUnits="userSpaceOnUse" color-interpolation-filters="sRGB">
<feFlood flood-opacity="0" result="BackgroundImageFix"/>
<feColorMatrix in="SourceAlpha" type="matrix" values="0 0 0 0 0 0 0 0 0 0 0 0 0 0 0 0 0 0 127 0" result="hardAlpha"/>
<feOffset dy="0.948338"/>
<feGaussianBlur stdDeviation="0.474169"/>
<feComposite in2="hardAlpha" operator="out"/>
<feColorMatrix type="matrix" values="0 0 0 0 0 0 0 0 0 0 0 0 0 0 0 0 0 0 0.25 0"/>
<feBlend mode="normal" in2="BackgroundImageFix" result="effect1_dropShadow_2800_478"/>
<feBlend mode="normal" in="SourceGraphic" in2="effect1_dropShadow_2800_478" result="shape"/>
</filter>
<clipPath id="clip0_2800_478">
<rect width="219" height="60" fill="white" transform="translate(198.999)"/>
</clipPath>
</defs>
</svg>
