<svg xmlns="http://www.w3.org/2000/svg" width="418" height="60" fill="none"><g filter="url(#a)"><path fill="#1C204E" d="M48.3 15.5a6.7 6.7 0 0 0-2.6-3 12 12 0 0 0-11.7-.4 7 7 0 0 0-3.4 4.7c-.7 3.2-.5 7 1.9 9.3a11.5 11.5 0 0 0 11.8 1.6 7.5 7.5 0 0 0 3.1-2.3c1.9-2.7 2-6.8.9-10m-6 7.2c-.1.6-.6 1.2-1.2 1.4a4 4 0 0 1-3.3-.2c-.8-.5-.9-1.5-1-2.3 0-1.7-.2-3.6.3-5.1.4-1 1.4-1.3 2.3-1.3 1 0 2 .1 2.6 1 .4.5.4 1.2.4 2 0 1.3.1 3-.1 4.5Zm-30 1.5H9.5v-8.8h.1l2.5-.1V11h-11v4.2h2.5v8.9H1v4.1h11.2v-4Zm28 6c-1 1.5-2.3 3-3.8 4.1h-.3l-1.9-1.1c.8-1 1.6-2 2.2-3h-.8l-2 2.7a23 23 0 0 0-3.4-1.2c0-.6.4-1 .5-1.5h-.7l-.7 1.3a34 34 0 0 0-4.6-.6l-.1-.7H24v.7a34 34 0 0 0-4.6.6l-.7-1.3H18l.6 1.5a32 32 0 0 0-3.4 1.2c-.8-.8-1.5-1.7-2-2.5-.2-.4-.7-.2-1-.2l2.3 3-2.1 1.2a18.3 18.3 0 0 1-4-4.2h-.8c1.8 2.8 4.7 5.3 7.6 6.8 0 0 .1 0 0 0a20 20 0 0 0 26-6.9 4 4 0 0 0-.8 0m-10.6 2.3c1.2.2 2.2.6 3.2 1a16 16 0 0 1-2.8 2.4c-.6.4-1.2.8-1.8 1l-1.1-.4v-.2c1-1.2 1.8-2.4 2.5-3.8Zm-5-.7c1.5 0 2.9.2 4.2.5a19 19 0 0 1-2.5 4l-1.3-.2h-.4v-4.3ZM20 32a22 22 0 0 1 4.1-.4v4.2l-1.6.3c-1-1.3-1.9-2.6-2.6-4h.1Zm-4 1.4c1-.5 2-.8 3-1.1h.1l2.6 4-1.2.5a17 17 0 0 1-4.6-3.3v-.1Zm3.2 4.2a18 18 0 0 1-6-2.7v-.1c.7-.4 1.3-.8 2-1 1.4 1.4 2.9 2.4 4.5 3.4a2 2 0 0 1-.5.4Zm9.4.4c-2.7.5-5.7.6-8.4 0 0-.2.2-.2.2-.3a8 8 0 0 1 8.4.1c0 .2-.1.1-.2.2Zm2.4-.7-1.1.3c-.3 0-.4-.2-.6-.4 1.7-1 3.1-2.1 4.5-3.5l2 1a14 14 0 0 1-4.8 2.6ZM8.3 9l2.1-2.4c.7-.7 1.3-1.3 2-1.7l2 1.2c-.8 1-1.6 2-2.2 3h.8a14 14 0 0 1 2.1-2.7l3.3 1.1v.1L18 9.1h.7l.7-1.4c1.4.4 3 .5 4.5.6.2.2 0 .5.2.8h.7v-.8c1.5 0 3-.2 4.5-.6h.1l.7 1.4h.7L30 7.5l3.4-1.3c.8.8 1.5 1.8 2.2 2.8l.7-.1-1-1.6L34.1 6 36 5l.2-.2a16 16 0 0 1 4 4.2h.9A20 20 0 0 0 26 .2h-2.3a19.9 19.9 0 0 0-16.1 9c.2-.2.5 0 .7-.2M19 6.8h-.1c-1-.2-2-.5-3-1v-.1c1.4-1.3 2.9-2.4 4.5-3.3l1.1.5V3c-1 1.2-1.8 2.5-2.5 3.7Zm5 .7h-2c-.7-.2-1.6-.2-2.3-.5.8-1.3 1.6-2.6 2.7-3.9l1.6.3v4.1Zm.8 0V3.4l1.6-.2c1 1.2 2 2.5 2.6 3.8a18 18 0 0 1-4.2.5m8.1-1.7c-1 .4-2 .8-3.1 1-.8-1.3-1.6-2.6-2.6-3.9l1.2-.5c1.6.8 3.2 2 4.5 3.3v.1Zm-3.3-4.3a18 18 0 0 1 6 2.8v.1l-1.8 1h-.1A28 28 0 0 0 29.2 2c0-.2.3-.3.4-.5Zm-1-.2a7.7 7.7 0 0 1-8 .3c-.2 0-.5-.1-.5-.3a19 19 0 0 1 8.5 0Zm-15.4 3c1.6-1 3.3-2 5.2-2.6l.2-.1h.6l.4.4c-1.5 1-3 2-4.5 3.5l-2-1v-.1Zm10.8 20c-2.3.7-5 .2-6.7-1.6l-.5-.8h-3.4v6.3H17V27l1.3.7c2.7 1 6 1.3 8.7 0a5 5 0 0 0 2.6-5.3c-.3-2-2.3-4-4.3-4.5L19.2 16l-.4-.2c-.2-.2-.4-.4-.3-.7.5-.8 1.6-.6 2.4-.5 1.8.2 3.6.8 4.7 2.4h3.6v-5.9h-3.7l-.1 1-1.2-.6c-2.8-1.1-6.7-1.3-9.2.6-1.7 1.1-2.2 3.3-1.7 5.2.3 1.8 2 3.1 3.7 3.7l6.9 2.2c.2 0 .5.3.4.6 0 .2-.2.3-.4.4Z"/></g><g filter="url(#b)"><path fill="#1C204E" d="M8.7 48.4H7.1c0-1.9 1.7-2.7 3.4-2.7s3.6.7 3.6 2.8c0 2.2-1.7 2.6-3.5 2.6-.7 0-1.9.2-1.9 1.2v.7h5.4v1.6h-7v-2.3c0-2 1.8-2.6 3.5-2.6.7 0 1.9-.2 1.9-1.2s-.9-1.4-2-1.4c-.9 0-1.8.5-1.8 1.3Zm8.5 6.2h-1.9l3.6-7.2h-4.3v-1.6h6.5v.9l-3.9 7.9Zm6.3-5v1.2c0 3.2 4.4 3.2 4.4 0v-1.2c0-3.2-4.4-3.2-4.4 0ZM22 50.8v-1.2c0-5.3 7.6-5.3 7.6 0v1.2c0 5.2-7.6 5.2-7.6 0Zm10.3-1.2v1.2c0 3.2 4.4 3.2 4.4 0v-1.2c0-3.2-4.4-3.2-4.4 0Zm-1.6 1.2v-1.2c0-5.3 7.6-5.3 7.6 0v1.2c0 5.2-7.6 5.2-7.6 0Zm8.4 3.8v-1.4h1.3v-5.9H39v-1.5h3v7.4h1.2v1.4H39Z"/></g><path fill="#1C204E" d="M120 38.6a2 2 0 0 1 2.5.5l.7-.7c-.3-.4-.6-.6-1-.8-.4-.2-1-.2-1.4-.2-.5 0-1 .1-1.4.4a3 3 0 0 0-1.5 2.7c0 .6 0 1.1.4 1.6.2.5.6.9 1 1.1.5.3 1 .5 1.6.4.5 0 1 0 1.3-.2.4-.2.8-.4 1-.8l-.7-.7a2 2 0 0 1-1.5.8 2 2 0 0 1-1.1-.3 2 2 0 0 1-.7-.7l-.3-1.2c0-.3 0-.7.3-1 .2-.4.4-.7.7-.9Zm-1.1-7h2.9v2.6h1V28h-1v2.5h-3V28h-1v6h1v-2.5Zm5.2 2.6h1.1V28h-1v6Zm5.6-5.9-1.3-.2h-1.9v6h1v-1.7h1c.3 0 .8 0 1.2-.2.3-.2.6-.4.8-.8.2-.3.3-.7.3-1.1 0-.4 0-.8-.3-1.2l-.8-.8Zm-.3 2.8c-.2.3-.6.4-1 .4h-.8V29h.7c.5 0 .9.1 1.1.4.2.2.4.5.4.9 0 .3-.2.6-.4.8Zm10.6-3-2.8 6h1.2l.6-1.3h3.2l.6 1.4h1.2l-2.8-6.1H140Zm-.6 3.8 1.2-2.7 1.2 2.7h-2.4Zm-10.7 5.9c-.4-.3-1-.4-1.6-.4-.5 0-1 .1-1.5.4-.5.2-1 .6-1.2 1.1-.2.5-.4 1-.4 1.6 0 .6.2 1.1.4 1.6.3.5.7.9 1.2 1.1.4.3 1 .4 1.5.4a3 3 0 0 0 3.1-3.1c0-.6 0-1.1-.3-1.6a3 3 0 0 0-1.2-1.1Zm.2 3.8-.7.8a2 2 0 0 1-1 .2c-.4 0-.7 0-1-.2-.4-.2-.6-.5-.8-.8l-.2-1.1c0-.4 0-.8.2-1.1l.7-.8a2 2 0 0 1 1-.3c.4 0 .8.1 1.1.3.3.2.6.4.7.8.2.3.3.7.3 1 0 .5-.1.9-.3 1.2Zm35.7-4.1v1h2v5h1v-5h2v-1h-5Zm-1.7 4-3.2-4h-.8v6h1v-4l3.2 4h.9v-6h-1v4Zm-26.5-4-1.8 3.2-1.8-3.2h-1.3v6h1.1v-4.2l2 3.5 2-3.5v4.2h1.2v-6h-1.4Zm5.8.2c-.4-.2-.9-.3-1.3-.2h-2v6h1.2v-1.7h.8c.4 0 1 0 1.3-.2.4-.2.7-.5.9-.8l.3-1.1-.3-1.2a2 2 0 0 0-.9-.8Zm-.3 2.8c-.2.2-.6.3-1 .3h-.9v-2.4h.8c.5 0 .9.1 1.1.3.2.2.4.5.4 1 0 .3-.1.6-.4.8Zm-6.7-7.7.6 1.4h1.2l-2.8-6.1H133l-2.8 6h1.2l.6-1.3h3.2Zm-1.6-3.6 1.2 2.7h-2.4l1.2-2.7Zm11.8 8.3h-1v6h4v-.9h-3v-5.1Zm3.9 6h1v-6h-1v6Zm-43 7a151.2 151.2 0 0 0 0 3.2v.1l.1.9.2-.9v-4l-.3.6Zm-4.4-30.6.9-1.2c-.2.4-.9 1.8-.2 2 .7 0 1.4-.2 2.9-2l-.1-5.7h-.9c-.4 0-1.1 0-1.6-.7-.5-.8-.5-1.6-.5-2.1 0-.8-.3-2.3-1.3-3.2a5 5 0 0 0-4.4-.2l-3 1.4c-1 .5-2.3 1.1-2.8 1.1L93.6 8l3-1.6c1.2-.4 3.5-.6 4.7.4 1.1.9 1.4 2.5 1.4 3.3 0 .6 0 1.3.5 2 .4.6 1 .6 1.4.6h.7V12c-.6 0-1.6.1-2-.8-.5-1 0-3.9-1.7-5-1.6-1.2-4.3-1-6.7.5a72.2 72.2 0 0 1-16.2 6.9c-.4 0 .4.4 2 .4h3L96 8.4s-10.5 5.2-11.3 5.8c-1 .5-1.6.7-1.6 1.2 0 .6.8.5 2.6.5 1.9 0 2.3-.2 2.9-.4l7.4-3.4s-7.3 3.7-8.3 4.5c-1 .8 0 1.1.8 1.1.7 0 2.7 0 3.8-.6l4.5-2.7s-3.4 2.4-4 3c-.6.4-.9.7-.7 1.2.2.6 1.2.5 2.5 0 0 0 1.4-.4 2-.9l2-1.8s-1.8 1.8-2.3 2.6c-.4.8-.5 1-.3 1.4.3.6 2.6 0 3.2-.7l1.3-1.6s-.7 1-.8 1.7c-.2.6-.3 1.1.3 1.2.6 0 1.3 0 2-.7Zm4.1 14.2h.2l.3-.3.6-.4V30l-1-.5h-.2l-.8-.3-.9-.4c-2.1 1.1-2.5 1.7-2.5 2.7 0 1.4 1.2 2 3.4 3.4l1-.7Zm-2.5-2.5s-.2-1 2.2-2l.2-.1v4.3c-1.1-.8-2.4-1.5-2.4-2.2Zm3.6 17.7-.4.4c.6.8.6 1.6.3 2.6.3-.4 1-1.3.4-2.4l-.3-.6Zm-1-8.6.8.8.5.5v.1c1.5-1.2 2.8-2.4 2.8-3.8 0-1.2-1-2.2-2.2-3l-.3.1-.7.5-.2.1-.8.6v4.1Zm.9-4.6c1.4 1 2 1.7 2 2.4s-.9 1.6-2.1 2.8v-5.2Zm7.7-20 2 1.7a7 7 0 0 0 1.9 1c1.3.4 2.3.5 2.5 0 .1-.5-.1-1-.7-1.4l-4-2.9s3.4 2.2 4.5 2.7c1.1.6 3 .7 3.8.6.7 0 1.8-.2.8-1-1-1-8.4-4.5-8.4-4.5l7.5 3.3c.6.2 1 .3 2.9.4 1.8 0 2.5 0 2.5-.4.1-.5-.6-.7-1.5-1.3-.9-.6-11.4-5.8-11.4-5.8l12.2 5.5s1.4.2 3 .1c1.7 0 2.5-.3 2-.4a69.6 69.6 0 0 1-16.2-7c-2.3-1.3-5-1.6-6.7-.4-1.6 1.2-1 4-1.6 5-.4 1-1.4.9-2 .8v.6h.7c.4 0 1 0 1.4-.6a4 4 0 0 0 .5-2c0-.8.2-2.4 1.4-3.3 1.2-1 3.5-.8 4.7-.3l3 1.5 2.6 1.3a12 12 0 0 1-2.8-1.1l-2.9-1.4c-1.8-.7-3.7-.3-4.4.3-1 .8-1.3 2.3-1.3 3.1 0 .6 0 1.4-.5 2-.5.8-1.2.8-1.6.8h-.9l-.1 5.7c1.4 1.8 2.2 2 3 2 .5-.2 0-1.6-.3-2l1 1.2c.6.8 1.3.8 1.9.7.6-.1.4-.6.3-1.2l-.8-1.7 1.3 1.6c.6.7 2.8 1.4 3.1.7.2-.4.1-.6-.3-1.4-.4-.8-2.1-2.6-2.1-2.6Zm-8.1-6.4 1-.3.5-.8c.2-.3.2-.6.1-1 0-.3-.2-.6-.4-.8a1.7 1.7 0 0 0-2.6.2 1.7 1.7 0 0 0 .2 2.2 1.6 1.6 0 0 0 1.2.5Zm5.6 12.7s0-1.2-2-1.3c-2-.2-2 .7-2 1h.3c0 .1-.1.2-.3.2.2.3.4.6 1.3 1 .7.4 1 .4 1.4.3 0 0 .5.3.5.7 0 .4-.8 1.3-4.2 3l.4-17.4h.4l.1-.3v-.3l-.7.5-.8.1-.8-.1-.7-.5v.5l.3.1h.2l.3 17 .9.4h.1l2 1c1.9-.6 3.7-1.5 4.2-2.6 1-2.1-1-3.3-1-3.3Zm-2.6-.5c-.2 0-.4-.1-.4-.3l.4-.2.4.2c0 .2-.2.3-.4.3Zm-3.3 26.4.4-.6.1-4-.7-.6-.2-.2-.3-.3c-.6.6-1.8 1.8-1.8 2.8 0 1.2 1.2 2.5 2.1 3.4l.4-.5Zm-.2-5 .1 4.9c-.7-1-1.4-2-1.4-2.6 0-.6.3-1.2 1.3-2.3Zm.5-15.7c-4-2-5-2.9-5-3.3 0-.4.5-.7.5-.7.4 0 .8 0 1.5-.3.8-.4 1.1-.8 1.2-1l-.2-.2h.2c0-.4 0-1.2-2-1-1.9 0-2 1.2-2 1.2s-1.9 1.3-.8 3.4c.8 1.8 5 2.8 7.4 3.9 2.3 1 2.2 2 2.2 2 0 .7-1.6 1.6-2.9 2.5-1.2.8-3.9 2.4-3.9 4.2 0 1.6 1.7 2.9 3.3 4.3 1.6 1.4 2.1 2.3 2.1 3 0 1.2-1.8 2.6-2.7 4.4-1 1.8 1 4.7.4 3.2s-.3-2.5.4-3.6c1-1.3 3-2.5 3-4.2 0-1.4-2.1-3.1-2.1-3.1-1.9-1.8-3-2.9-3-3.8 0-1 .8-1.7 3.3-3.3 2.5-1.6 3.9-2.3 3.9-3.8 0-1.4-.7-1.8-4.8-3.8Zm-3.1-6.2c.2 0 .3.1.3.3 0 0-.1.2-.3.2l-.4-.2c0-.2.2-.3.4-.3Zm50.5 16-2.8 6.2h1.2l.6-1.4h3.2l.6 1.4h1.2l-2.8-6.1H154Zm-.6 3.9 1.2-2.7 1.2 2.7h-2.4Z"/><g clip-path="url(#a)"><mask id="b" width="220" height="60" x="198" y="0" maskUnits="userSpaceOnUse" style="mask-type:luminance"><path fill="#fff" d="M418 0H199v60h219V0Z"/></mask><g fill="#1C204E" mask="url(#b)"><path d="M131.7 9.2V7.5l.6.4c1.5 1.6 3.4 3 5.4 4 3 1.6 6.4 2.7 10 3.3 3.7.7 7.5 1.2 11.3 1.8 3.8.5 8.6 1.7 12.6 3.7l3.5 1.6c2.3 1 5 1.2 7.4.7a18 18 0 0 0 9.2-4.6 26 26 0 0 0 8-17.5c.2-4.6-.5-9.2-2.2-13.6A42.5 42.5 0 0 0 183-31.6l-.3-.1-.6-.6-.1.2.6.5.7.6c2.8 2.3 5.3 5 7.4 7.8a35 35 0 0 1 7.4 20.7 26 26 0 0 1-4.2 14.9c-2 3.3-5 6-8.6 7.6a15.3 15.3 0 0 1-10.4 1.2c-1.6-.4-3.1-1-4.7-1.7-2.5-1.1-5-2-7.8-2.4l-10.8-1.7c-3.4-.4-6.6-1.2-9.8-2.4a24.5 24.5 0 0 1-10.1-6.6v-1a.9.9 0 0 1 1 0l.2.3c1.8 2.1 4 3.8 6.6 5 2.4 1.2 5 2 7.7 2.7 4.2 1 8.4 1.4 12.7 2a40 40 0 0 1 10.6 3l3.4 1.3c2.2.8 4.5 1 6.8.5 4-.7 7.7-2.9 10.4-6 3.8-4.5 5.6-9.7 5.8-15.5a31 31 0 0 0-2.6-13.4c-3-7-8-12.6-14-17.2l-.5-.1-.5-.6-.1.1.7.4.6.8c5 4 9.1 8.7 11.8 14.5 2.8 5.9 4 12.1 2.6 18.6-1.2 5.4-3.8 10-8.2 13.4a17 17 0 0 1-10.3 3.6c-2 0-4-.6-6-1.2-1.9-.6-3.5-1.2-5.3-1.6l-11.2-1.9c-3.8-.6-7.4-1.3-11-2.6a24.8 24.8 0 0 1-9.4-6 .7.7 0 0 1 .1-.6.8.8 0 0 1 .7-.2l.4.4c2.6 2.5 5.8 4.2 9.2 5.4 4.2 1.5 8.6 2.2 13 2.9 3 .4 5.9.8 8.8 1.5 2.1.5 4.2 1.3 6.3 2 2.2.7 4.6 1 7 .5 3.2-.7 6.2-2.2 8.5-4.5A22.2 22.2 0 0 0 194.2-4c0-4.8-1.3-9.3-3.5-13.5a43 43 0 0 0-12.5-14.3l-.5-.2-.5-.5-.1.2.7.3.8.8A43 43 0 0 1 188.9-19c3 5.6 4.5 11.4 3.5 17.7a21 21 0 0 1-5.8 11.9 16 16 0 0 1-16.5 4.7c-3.5-1-7-1.6-10.6-2.1a91 91 0 0 1-10.3-1.8A36.6 36.6 0 0 1 135.5 5c-.8-.7-.4-.5-.2-.8a.6.6 0 0 1 .5-.2.6.6 0 0 1 .5.1l.3.2c2.3 1.9 5 3.3 7.7 4.4a62 62 0 0 0 13.6 3.1c4.6.7 8.4 1.2 12.6 2.4 1.6.6 3.4.7 5.1.6a15 15 0 0 0 8.6-3.6 20.7 20.7 0 0 0 7.2-18.5 28 28 0 0 0-4.4-12.5 44 44 0 0 0-10.7-11.5l-.5-.2-.5-.6-.2.2.8.4.7.7c2.3 2 4.4 4 6.3 6.4 3.6 4.5 6.2 9.5 6.9 15.3a20 20 0 0 1-3.7 15c-4 5.7-9.6 8-16.6 7.2l-8.6-1.3a71 71 0 0 1-11.2-2A42 42 0 0 1 137.1 4a.6.6 0 0 1 0-.5v-.2a.5.5 0 0 1 .4-.2.5.5 0 0 1 .4 0l.5.4c1.2.7 2.5 1.5 3.8 2 4.8 2.5 10 3.7 15.2 4.6l12.7 1.7a15 15 0 0 0 12.2-3.6c4.4-3.7 6.3-8.6 6.5-14.2 0-4.4-1.1-8.4-3.2-12.3a40 40 0 0 0-11.5-13h-.3l-.6-.7-.2.2.8.4.6.6c1.2 1.2 2.5 2.2 3.6 3.4 3.5 3.4 6.2 7.4 7.9 12 1.6 4.6 2 10.3-.2 15.3a16.2 16.2 0 0 1-9.2 9.4c-2.5 1-5 1.2-7.7 1.3A64 64 0 0 1 139 3.3v-.5a.5.5 0 0 1 .4-.2h.3l.7.3a58.8 58.8 0 0 0 22.5 6.4c3 .2 6.2.4 9.4 0 3.1-.6 6.4-1.8 8.8-4.3a17 17 0 0 0 5-13 23 23 0 0 0-3.4-11.5 38 38 0 0 0-8.6-9.9c-3.3-2.8-7-5.2-10.7-7.5l-.8-.6h27.8l.6.3A50 50 0 0 1 216.4 16c-.8 4.8-2.7 9.4-5.4 13.6-3 4.5-6.9 8-12 10a22 22 0 0 1-12.2 1.5 23 23 0 0 1-7.4-3 7 7 0 0 0-1.2-.4l-.4-.4-7.5-5a27.3 27.3 0 0 0-6.8-3 54 54 0 0 0-8.3-1.8c-3.8-.5-7.5-.8-11.3-1.4-4-.4-7.8-1.3-11.5-2.7l-.7-.2v-1.4l1.6.6c4.6 1.8 9.4 2.4 14.3 3 3.4.4 7 .8 10.4 1.4 5 .8 10 2.3 14.2 5.2l.5.2a31.6 31.6 0 0 0-10-4.9c-2.6-.7-5.2-1.2-7.9-1.5l-10.7-1.3c-4-.5-8-1.6-11.8-3.2l-.6-.2v-1.3l.8.3 2.6 1c4.5 1.6 9.2 2.3 13.8 2.8l10.9 1.5c4.7.8 9.2 2.6 13.2 5.3 1 .7 2.1 1.5 3.3 2.1l4 2.5c2.8 1.5 6 2.2 9.2 2a22 22 0 0 0 12-4.3c4-3 6.9-7.1 8.8-11.8a41 41 0 0 0 2.4-22.8A47.1 47.1 0 0 0 194.4-32l-.7-.5 1.6 1.6a46.4 46.4 0 0 1 16.1 40.6 34 34 0 0 1-5 14.4 24.1 24.1 0 0 1-9 8.6c-6.7 3.8-13.6 4-20.4 0l-5.1-3.1a31.7 31.7 0 0 0-9-4c-2.8-.7-5.6-1.3-8.5-1.6l-10.1-1.3a39.1 39.1 0 0 1-12.6-3.8v-1.5l.4.2c4 2 8.3 3.4 12.7 4l11.4 1.5c3.4.4 6.6 1.1 9.8 2.2 3 1 5.6 2.7 8.2 4.3a75 75 0 0 0 5.5 3.1c2.4 1.2 5 1.8 7.7 1.7 4.3-.1 8.4-1.6 11.8-4.3 4-3 6.8-6.8 8.6-11.4a39 39 0 0 0 1.8-23.3 46 46 0 0 0-17-27l-1-.6-.5-.5-.2.1.7.5.8.7c2.3 1.9 4.4 4 6.3 6.3 8 10 11.7 21.3 9.9 34.1a32 32 0 0 1-5 13.2c-2.6 3.9-6 7-10.3 8.8a18.8 18.8 0 0 1-11.4 1.5c-2.1-.5-4.1-1.2-6-2.3l-4.8-3c-1.8-1-3.6-1.8-5.4-2.5a56.3 56.3 0 0 0-11.8-2.4L143.4 21a33 33 0 0 1-11-4l-.7-.1v-1.6l2.4 1.4c4 2 8.4 3.1 13 3.7l11.2 1.5a37 37 0 0 1 14.8 5.3 39 39 0 0 0 4.4 2.6 17 17 0 0 0 8.3 2c4.1-.2 8-1.6 11.2-4.1 4.2-3.2 7-7.4 8.7-12.3 2.7-7.3 2.8-14.7.9-22.2a45.1 45.1 0 0 0-17.8-25.5l-.6-.5v.1l.6.4.6.6c2.4 2 4.6 4 6.5 6.4 7.6 9 11.3 19.3 10.2 31.2a29.6 29.6 0 0 1-6.4 16c-2.4 3-5.6 5.4-9.2 6.9a17 17 0 0 1-14.3-.4c-1.3-.5-2.4-1.2-3.6-1.9l-5.2-2.7c-4-1.6-8.1-2.2-12.3-2.8l-10.4-1.6c-4.5-.7-8.8-2.2-12.6-4.8l-.4-.2v-1.5l.7.4 4.3 2.5c3.7 1.7 7.6 2.5 11.7 3.1l11 1.5c4.5.7 8.8 2.1 12.6 4.4l4 2.2c3.2 1.8 7 2.4 10.5 1.7 3-.6 5.8-1.9 8.3-3.7 3.6-2.8 6.4-6.6 8-11a34 34 0 0 0 1.3-20.8 43.6 43.6 0 0 0-17.3-25.3l.8.8a53 53 0 0 1 8 8.4 39 39 0 0 1 7.9 26.7 28 28 0 0 1-6.9 16.3 20 20 0 0 1-6.6 5.3c-5 2.5-10 2.7-15.2.3l-4.2-2.2a29.1 29.1 0 0 0-8-3l-7.9-1.2c-3.5-.5-7-.9-10.4-1.7-4.4-1-8.6-2.6-12.2-5.5l-.4-.2v-1.4l.7.3a33.2 33.2 0 0 0 14 6c3.8.7 7.7 1.2 11.5 1.7 5.1.7 10 2 14.6 4.7a35 35 0 0 0 4.2 2c2.4 1 5 1.2 7.4.8 4.4-.7 8-2.8 11-6a27 27 0 0 0 7.2-16.6c.4-5-.2-9.8-1.9-14.5a43.2 43.2 0 0 0-15.3-20.6l-.3-.1-.6-.6-.1.2.7.5.7.7c1.8 1.7 3.7 3.3 5.3 5.1 6 6.9 9.7 14.8 10 24 .3 5.5-1 11-3.8 15.7a22.1 22.1 0 0 1-9.1 8.8 15 15 0 0 1-11 1.6c-2.1-.5-4.1-1.3-6-2.4-2.9-1.5-6-2.5-9.3-3.1l-8.7-1.3a62 62 0 0 1-9.6-1.9 27.4 27.4 0 0 1-11.6-6.2Zm64-41.7.7.6a48.2 48.2 0 0 1 17.5 45c-.7 4.7-2.4 9.3-5 13.4a25 25 0 0 1-11.4 10.1 20 20 0 0 1-18.9-.9l-3.8-2.3-.8-.5v.2l1.2.9c2.2 1.5 4.4 3 6.8 4.2 3.3 1.7 7 2.3 10.7 1.9 4.9-.7 9.4-2.8 13-6.1 3.6-3.3 6-7.2 7.6-11.7 3-7.9 3.5-16 2-24.3a48.5 48.5 0 0 0-19.6-30.5Z"/><path d="M260.6-37.5a13 13 0 0 1 5.7 8.9 20 20 0 0 1-.4 7.3c-.6 2.7-1.7 5.3-2.9 7.9L259.5-5a18.3 18.3 0 0 0-.6 13.6c.6 1.7 1.5 3.3 2.3 5l2.6 5.2c1.4 2.7 2 5.8 1.6 9-.3 2.3-1 4.7-2 6.9l-3 5.7-17.8 28.8a45.4 45.4 0 0 1-6 8 16.6 16.6 0 0 1-17.2 5c-2.6-.9-5-2-7.5-3s-4.9-2-7.4-2.6c-3-.7-6-.8-8.9-.6-4.8.4-9.5 1.7-14 3-3.8 1-7.5 2.2-11.4 2.9a47.6 47.6 0 0 1-36.3-8.1.7.7 0 0 1 .1-.7c0-.1.5-.2.7-.1l.5.3a46.2 46.2 0 0 0 37.1 6.8l12.9-3.3c3.3-1 6.7-1.6 10.2-2a30 30 0 0 1 13.6 2l7.5 3c2.2.8 4.5 1.4 6.8 1.7 2.8.2 5.6-.4 8-1.8 2.4-1.3 4.5-3.1 6.2-5.3 2-2.4 3.6-5 5.2-7.6l16.8-27.3c1.7-2.7 3-5.6 4-8.7A15 15 0 0 0 263 20c-.7-1.7-1.6-3.3-2.4-5l-1.8-3.3A19.4 19.4 0 0 1 257.6-3a51 51 0 0 1 2.8-7.4c1.2-2.8 2.5-5.6 3.6-8.5a19 19 0 0 0 1.3-7.9c-.3-4.8-2.5-8.4-7-10.5l-.1-.2h2.4Z"/><path d="M254.4-37.5a14.5 14.5 0 0 1 6.7 14c-.3 4.1-1.6 7.3-3 10.8-1.4 3.4-2.4 5.8-3.2 8.8a18.8 18.8 0 0 0 1.2 14.1c.8 2 1.8 3.7 2.7 5.6a18 18 0 0 1 1.3 14.3 38 38 0 0 1-3.3 7.6l-10.9 18c-2.2 3.7-4.6 7.3-7 11-1.6 2.6-3.5 5-5.8 7.1-1.9 1.8-4 3.3-6.5 4.3a15.9 15.9 0 0 1-10.8 0c-2.3-.7-4.6-1.7-6.9-2.6l-6.4-2.6a27.8 27.8 0 0 0-11.6-1c-4.9.6-9.5 1.9-14.2 3-3.4 1-6.7 1.6-10.2 2.2a46 46 0 0 1-33.2-8.4l-.5-.4c-.2-.2-.4-.4-.2-.7a1 1 0 0 1 .7-.2 43.6 43.6 0 0 0 20.9 8.5c6 .8 12 .3 18-1.1l12.5-3c2.9-.7 5.9-1.1 8.9-1.2 4.3-.2 8.5.6 12.4 2.3l7.6 3.2a23 23 0 0 0 6.7 1.6 14 14 0 0 0 9-2.3c2-1.3 3.7-2.9 5.2-4.7 1.4-1.8 2.8-3.7 4-5.6 6-9.2 11.6-18.5 17.1-27.9 1.4-2.2 2.5-4.6 3.4-7a16 16 0 0 0-.6-12.3l-3.1-6.4a20.1 20.1 0 0 1-1.6-15.7c.8-3 2-5.7 3-8.4 1.2-2.8 2.4-5.8 3-8.8.4-2.4.6-4.9-.1-7.2a13.1 13.1 0 0 0-7.9-9h2.7Z"/><path d="m131.7 61.5 1 .6c5.4 4.4 11.6 7 18.5 8.2a47 47 0 0 0 18.2-.4l12.3-2.7c3.2-.6 6.4-1 9.6-.9 4 0 8 1 11.7 2.6l7.2 3.2a22 22 0 0 0 5.7 1.7c3.1.5 6.3 0 9-1.6 2.3-1.1 4.2-2.7 5.9-4.5 1.5-1.8 3-3.6 4.3-5.6A334 334 0 0 0 252.2 34c1.2-2 2-4.2 2.7-6.5 1-3.3 1-6.9-.4-10-.7-2-1.6-3.8-2.4-5.6-.9-1.9-1.7-3.8-2.3-5.8a19 19 0 0 1-.2-10.3c.7-3.5 1.8-6.2 2.9-9.3.9-2.4 1.6-5 2-7.5 1.3-7.1-2-12.3-6.8-15.3l-2.4-1.2h2.9l3 2.4c3.8 3.7 5.4 8.3 4.7 13.6-.5 3.3-1.6 6.5-2.7 9.6-1 2.6-1.8 5.3-2.4 8a19 19 0 0 0 1.1 12.6l2.7 5.5c.9 1.9 1.5 3.8 2 5.8.5 3 .1 5.7-.7 8.5-.9 2.6-2 5.2-3.4 7.5a418 418 0 0 1-15.4 25.5 48.1 48.1 0 0 1-9 10.1 16.2 16.2 0 0 1-15.3 2.8c-2.1-.7-4.2-1.6-6.2-2.5l-7-3a27.1 27.1 0 0 0-11.8-1.3c-4 .3-9 1.4-13.5 2.4a92 92 0 0 1-10.9 2 45.3 45.3 0 0 1-30.5-8.2l-1.2-.8v-1.5Z"/><path d="m131.7 57 .6.3a38.2 38.2 0 0 0 16.4 7.6 45 45 0 0 0 17.9 0l12.3-2.2c3.7-.7 7.4-.9 11.1-.5 3.3.3 6.4 1.2 9.3 2.6l7 3.2c2 1 4.2 1.6 6.5 2 3 .4 6 0 8.6-1.4 3-1.5 5.7-3.6 7.8-6.3 1.7-2.1 3.4-4.4 5-6.7 5-7.6 9.7-15.4 13.9-23.6a28 28 0 0 0 2.8-7.7c.5-2.6.3-5.4-.6-8-.6-1.8-1.5-3.7-2.3-5.5-.8-1.9-1.8-4-2.3-6.2-.8-3.1-.7-6.3-.1-9.5.5-3.2 1.6-6.2 2.5-9.3a37 37 0 0 0 1.4-7.5 15 15 0 0 0-7.1-14c-1.2-.7-2.5-1.2-3.8-1.8h3a19 19 0 0 1 5.4 4.3 16 16 0 0 1 3.7 12c-.3 3.1-1.2 6.2-2 9.2-1 3-1.7 5.7-2.1 8.6-.4 3-.3 7 1 10.2l2.4 5.3c1 2 1.7 4.2 2.1 6.4.6 3 .1 6-.8 9-.8 2.5-1.9 4.8-3.1 7-4.5 8.3-9.3 16.5-14.7 24.3-2.1 3-4.6 6-7.5 8.3a17.1 17.1 0 0 1-16.3 3.5 52 52 0 0 1-7.7-3.2c-1.6-.8-3.3-1.6-5-2.2a27 27 0 0 0-12.3-2 88 88 0 0 0-12.5 2c-4.1.8-7.3 1.4-11 1.7a42.2 42.2 0 0 1-28.8-8l-.7-.4V57Z"/><path d="m131.7 52.6.6.2a37 37 0 0 0 18 7.3c4.5.6 9 .6 13.5-.1l12.2-2c4-.5 9-.7 13.4.3 3 .7 5.7 1.8 8.4 3.2l7.6 3.5a15.6 15.6 0 0 0 14.4-1.1 30 30 0 0 0 6.4-5.4c2-2.4 3.9-4.9 5.6-7.5 4.3-6.6 8.3-13.4 11.7-20.5a26 26 0 0 0 2.8-7.8c.6-2.7.4-5.6-.5-8.2l-2.5-6.2a24 24 0 0 1-1.9-14l2.1-10.2.7-4.5a16 16 0 0 0-6.6-14.2 17 17 0 0 0-5.6-3h3.3l.7.5c3.4 2 6.1 4.8 7.8 8.3 1.6 3 2 6.4 1.4 9.8-.5 3.4-1.3 6.3-1.8 9.5-.4 2.2-.8 4.3-1 6.5-.3 3.2.3 6.4 1.5 9.4l2.5 6.1a18.2 18.2 0 0 1-.2 15 179.8 179.8 0 0 1-15.4 27.1c-2.1 3-4.4 5.7-7.2 8a22 22 0 0 1-7 4c-3.8 1.3-7.6 1-11.3-.3-2.6-1-5-2.2-7.6-3.5a30.5 30.5 0 0 0-16.2-4 87 87 0 0 0-12.5 1.5c-4.2.6-8 1.3-12.2 1.3-9 0-17.2-2-24.6-7.3l-.6-.3v-1.5Z"/><path d="m131.7 48 .6.5a35 35 0 0 0 14.8 6.2c4.4.8 9 1 13.6.4l11-1.3c3.6-.4 7-.6 10.4-.2a31 31 0 0 1 10.5 3c2.3 1.2 4.6 2.5 7 3.6 2.1 1.1 4.4 1.9 6.8 2.2 2.8.5 5.6.1 8.2-1 3.3-1.4 6-3.6 8.5-6.2a61 61 0 0 0 6.2-8 126.3 126.3 0 0 0 12.2-23.7c1.2-3.7 1-7.7-.2-11.3l-2.4-6.4a25.7 25.7 0 0 1-1.3-12.6c.3-3 .9-6.1 1.3-9.2a17.3 17.3 0 0 0-5.4-16.7 19.6 19.6 0 0 0-7.6-4.7l-.2-.1h3.2l.8.5c2.6 1.4 5 3.4 6.9 5.8 2.6 3.3 4 7.5 3.8 11.7-.1 2.6-.6 5.2-1 7.8l-.8 7.5c-.3 3.5.4 6.8 1.6 10l2 5.5c1.8 4.6 1.7 9.2 0 13.8a129.4 129.4 0 0 1-14 25.7 38.4 38.4 0 0 1-10.8 10.5 17 17 0 0 1-15.6 1.2l-5.6-2.6-6-3c-3-1.3-6.2-2.1-9.5-2.2-3.6-.2-7 0-10.5.5-3.5.4-7.6 1-11.4 1.3-8.3.6-16.3-.7-23.8-4.8l-3.3-2.1V48Z"/><path d="m131.7 43.7.6.4a34 34 0 0 0 13.8 5.4c5 1 8.8.9 13.3.5 4.4-.3 9-.8 13.6-1 4.4-.3 8.9.4 13 2l5.3 2.6 6.4 3.4a20 20 0 0 0 7.2 1.8c3.3 0 6.6-.9 9.4-2.6 3.3-1.9 6-4.5 8.3-7.4 3.6-4.5 6.5-9.3 9.1-14.4a83 83 0 0 0 4.5-9.7c.8-2 1.3-4.2 1.6-6.4.3-2.6 0-5.2-.9-7.7L235 5c-1.2-3.4-1.7-7-1.6-10.7l.5-8c.2-2.6.4-5 0-7.5-.4-3.2-1.8-6.2-4-8.7a24.2 24.2 0 0 0-10-7.4l-.5-.2h3l4.1 2.6c2 1.4 3.7 3.2 5.2 5.1 2.6 3.6 3.7 7.7 3.6 12 0 2.5-.3 5-.5 7.4-.2 3.4-.4 6.8.1 10.2.4 2 1 4 1.7 6l1.5 4.4c1.3 4.1 1.3 8.6 0 12.7a93.4 93.4 0 0 1-13.8 25.7 33 33 0 0 1-8.3 8c-2.3 1.5-5 2.6-7.7 3.1-3 .6-6.2.3-9-.8l-5.5-2.5-5.2-2.8c-4.3-2.4-9-3.4-14-3.4-3.5 0-7 .2-10.3.6-4 .4-8 .8-12 .6a39 39 0 0 1-20-6l-.6-.2v-1.5Z"/><path d="m131.7 39.3.6.4a37 37 0 0 0 13.9 5c5 .7 8.8.5 13.3.2 4.4-.3 8.4-.5 12.6-.3 4.8.3 9.4 1.4 13.5 3.7l5.8 3.2c1.4.8 3 1.6 4.5 2.2 4.6 1.9 9.2 1.7 13.6-.3 3.1-1.4 5.9-3.4 8.2-5.8 2.9-3 5.3-6.4 7.4-10 2.9-4.9 5.3-10 7.1-15.3a22.3 22.3 0 0 0 0-15L231 2.9a36 36 0 0 1-1.5-10.2v-8.4c-.1-1.7-.3-3.3-.6-5-.7-3.8-2.7-7-5.4-9.7-2.8-3-6.2-5.3-10-6.8l-.4-.2h3A26.7 26.7 0 0 1 228-26.3c1.4 2.6 2.2 5.6 2.4 8.6l.1 9.1c0 4.5.6 9 2 13.2.8 2.1 1.4 4.3 1.8 6.5.8 3.5.3 7-.6 10.3a69 69 0 0 1-14.1 25.8c-3 3.4-6.4 6-10.6 7.7a18.3 18.3 0 0 1-13.7 0l-5.8-3-5-2.7c-4-2.2-8.4-3.2-13-3.4-3.7-.1-7.4 0-11 .3-4.1.2-8.2.4-12.2 0a38.6 38.6 0 0 1-16.7-5.2v-1.6Z"/><path d="m131.7 35 .6.3c4.4 2.5 9.2 3.8 14.2 4.5 4.2.5 8.4.3 12.6.3 4.2-.1 7.8-.1 11.6.4 4.1.4 8 1.7 11.6 3.8l6 3.5a26 26 0 0 0 7 3c4.2 1 8.1.4 12-1.4 3.4-1.7 6.5-4 9-7A67.1 67.1 0 0 0 228.2 20c1.2-4.5 1.2-9.4-.2-14a98 98 0 0 1-1.8-7.3c-.5-2.5-.6-4.8-.9-7.1l-1.1-9.6c-.6-4.2-2.7-7.8-5.6-11a31.3 31.3 0 0 0-12-8.4h3l1 .5c3.7 2 7 4.7 9.7 8 3 3.5 4.8 7.8 5.4 12.4l.9 9c.3 3.6 1 7.3 2 11 .6 2 1 4 1.4 6a22 22 0 0 1-.5 10.1 62.9 62.9 0 0 1-12.2 23.7 28 28 0 0 1-7.3 6.1 19.6 19.6 0 0 1-20.2.7l-5.6-3.2-4.3-2.4a29.6 29.6 0 0 0-11-3c-4.7-.4-9.3-.1-14 0-5.7 0-11.3-.4-16.8-2.3-1.9-.6-3.7-1.5-5.6-2.3l-.8-.2V35Z"/><path d="m131.7 30.7.8.3a40 40 0 0 0 12.2 3.7c3.9.5 7.8.5 11.7.6 3.4 0 6.7.2 10 .7 4.4.5 8.6 1.8 12.3 4l6.4 4c2.2 1.3 4.5 2.4 7 3 4.1 1 8.1.5 12-1.1 3.9-1.7 7.7-4.8 10.5-8.4a50.4 50.4 0 0 0 10-23.4c.3-3 .1-6-.5-9l-2.3-10.6-1.6-8.8a27 27 0 0 0-9.2-16.3c-3-2.8-6.6-5-10.4-6.7l-.4-.2h3l1 .5a36 36 0 0 1 13 11.7 28 28 0 0 1 4 10.4l2.2 11.3 1.7 8c1.5 6 1 11.8-1 17.6a56 56 0 0 1-7 14.3 30.8 30.8 0 0 1-9.4 9 21.8 21.8 0 0 1-12 3.5 18 18 0 0 1-8-2.2c-2.1-1-4.2-2.2-6.1-3.5a33.3 33.3 0 0 0-17-6.2c-4.6-.5-9.2-.4-13.7-.6a50 50 0 0 1-16.2-3l-3-1.3v-1.3Z"/><path d="m178.2 37.6.1.2c2.4 1.6 4.7 3.2 7.3 4.4a18.9 18.9 0 0 0 15.8-.1 26 26 0 0 0 10.5-8.3c3.5-4.7 5.8-10 7.3-15.6 1.3-5.4 1.5-11 .3-16.6-1-5-2.1-10.1-3.6-15a38.4 38.4 0 0 0-21.3-23.7l-.8-.4h3l.8.5a38.6 38.6 0 0 1 19.8 24.5c1.7 5.6 3 11.3 3.8 17a42.8 42.8 0 0 1-9.3 31 26 26 0 0 1-12.6 8.6c-5 1.6-10 1.2-14.7-1.1-2-1-4-2.3-6-3.5l-4.4-2.8a31.9 31.9 0 0 0-12-4.1c-3.5-.6-7-.8-10.5-1-4.9-.3-9.7-.7-14.4-2l-4.7-1.7-1-.2v-1.4l1 .3 3.9 1.5c4.4 1.4 9.1 1.9 13.8 2.2l10.7 1a34 34 0 0 1 16 5.7l.8.3.4.3Zm109.9 7.6c.3.2.4.4.4.6V47c0 .4-.3.7-.7.7h-4.1v-4.1h3.8c.4 0 .7.3.7.7v.9Zm-.6-1.1h-3.4v1h3.6v-1h-.2Zm.5 2.9v-1.3h-4v1.5h4V47Zm6.5-1.6v-1.8h.5V47c0 .3-.3.6-.7.7a45.6 45.6 0 0 1-3.5 0 .7.7 0 0 1-.6-.7v-.4h.4v.3l.1.2h.2a30.7 30.7 0 0 0 3.5 0v-.2l.1-1h-3.7a.7.7 0 0 1-.6-.7v-1.6h.4v1.6l.1.1.2.1h3.6Zm13.2-1.8h.5l-1.9 4h-.6l-1.6-3.4-1.7 3.5h-.6l-1.9-4.1h.6l1.6 3.6 1.7-3.6h.5l1.7 3.6 1.7-3.6Zm4.3.4a44.5 44.5 0 0 0-2 .3 27 27 0 0 0 .1 2.9h.2a35.6 35.6 0 0 0 3.6 0l.1-.2a26.5 26.5 0 0 0 0-2.9h-.2L312 44Zm-1.8-.4a36.2 36.2 0 0 1 3.6 0c.4 0 .7.3.7.6V47c0 .4-.3.7-.7.7a36.6 36.6 0 0 1-3.6 0 .7.7 0 0 1-.6-.7v-2.8c0-.3.3-.6.6-.6Zm6.1 0h3.9c.3 0 .6.3.7.7v1.2c0 .3-.4.6-.7.6h-1.4l2.4 1.6h-1L318 46h-1.2v1.6h-.5v-4.1Zm3.8.5h-3.3v1.5h3.5V44h-.2Zm6 3.1v.5h-3.5v-4.1h.5v3.6h3Zm1.4.5V44h-.3v-.5h4.4c.4 0 .7.3.7.7V47c0 .4-.3.7-.7.7h-4.1Zm4.3-.7v-3H328v3.1h3.8V47Zm6.4-1.1h-3.5a.7.7 0 0 1-.7-.7v-1c0-.3.4-.6.7-.6a34.2 34.2 0 0 1 3.5 0c.4 0 .7.3.7.6v.4h-.5v-.5h-.2a33.3 33.3 0 0 0-3.6 0v1.2l.2.1h3.4c.4 0 .7.3.7.7v.9c0 .4-.3.7-.7.7a42.5 42.5 0 0 1-3.5 0 .7.7 0 0 1-.6-.7v-.3h.4v.3l.1.2h.2a33.3 33.3 0 0 0 3.5 0l.1-.2v-1h-.2Zm3 1.8h-.6v-4.1h4v.5H341v1.3h3.1v.5h-3v1.8Zm8.2 0-.4-.9h-3l-.4.9h-.5l1.9-4.1h1l2 4h-.6Zm-3.1-1.4h2.5l-1-2.2h-.5l-1 2.2Zm9.1-.4H352a.7.7 0 0 1-.6-.7v-1c0-.3.3-.6.7-.6a34.2 34.2 0 0 1 3.4 0c.4 0 .7.3.7.6v.4h-.5v-.5h-.2a33.3 33.3 0 0 0-3.6 0v1.2l.2.1h3.4c.4 0 .7.3.7.7v.9c0 .4-.3.7-.7.7a42.6 42.6 0 0 1-3.4 0 .7.7 0 0 1-.7-.7v-.3h.4v.3l.1.2h.2a33.3 33.3 0 0 0 3.5 0l.1-.2v-1h-.2Zm6-2.3v.5h-1.7v3.6h-.5V44h-1.7v-.5h3.9Zm5.3.5h-3.4v1.3h3.4v.5h-3.4v1.3h3.4v.5h-3.9v-4.1h3.9v.5Zm5.7 1.8H369a.7.7 0 0 1-.7-.7v-1c0-.3.3-.6.7-.6a34.3 34.3 0 0 1 3.4 0c.4 0 .7.3.7.6v.4h-.4v-.3l-.1-.2h-.2a33.3 33.3 0 0 0-3.5 0l-.1.2v1l.2.1h3.5c.3 0 .6.3.6.7v.9c0 .4-.3.7-.7.7a42.5 42.5 0 0 1-3.4 0 .7.7 0 0 1-.7-.7v-.3h.5v.5h.2a33.3 33.3 0 0 0 3.6 0v-1.3h-.2Zm6-2.3v.5h-1.7v3.6h-.5V44h-1.7v-.5h3.9Zm1.1 3.6h.5v.5h-.5v-.5Zm6.5-.2v-.3h.5v.3c0 .4-.3.7-.7.7a36.6 36.6 0 0 1-3.6 0 .7.7 0 0 1-.7-.7v-2.8c0-.3.4-.6.7-.6a36.2 36.2 0 0 1 3.6 0c.4 0 .7.3.7.6v.4h-.5v-.3a.2.2 0 0 0-.2-.3 44.2 44.2 0 0 0-3.7.1v.2a26 26 0 0 0 0 2.9h.1a35.6 35.6 0 0 0 3.7 0l.1-.2Zm4.6-3a44.5 44.5 0 0 0-2 .3 27 27 0 0 0 0 2.9h.2a35.7 35.7 0 0 0 3.7 0V47a27 27 0 0 0 0-2.9h-.1l-1.8-.1Zm-1.8-.4a36.3 36.3 0 0 1 3.6 0c.4 0 .7.3.7.6V47c0 .4-.3.7-.7.7a36.5 36.5 0 0 1-3.6 0 .7.7 0 0 1-.7-.7v-2.8c0-.3.3-.6.7-.6Zm10.7 0h.9v4h-.5v-3.5h-.1l-2 3.6h-.4l-2-3.6v3.6h-.5v-4.1h.9l1.8 3.5 1.9-3.5ZM290 16.2v-.5h.6v.6c0 .4-.4.9-1 .9a49.8 49.8 0 0 1-4.8 0 1 1 0 0 1-1-1v-3.8c0-.5.5-.9 1-1a49.3 49.3 0 0 1 4.8 0c.6.1 1 .5 1 1v.5h-.7v-.7h-.3a60.3 60.3 0 0 0-5 0l-.1.2a36.6 36.6 0 0 0 0 4l.3.1a48.6 48.6 0 0 0 5 0l.1-.3Zm8.2-4h-4.7V14h4.7v.7h-4.7v1.8h4.7v.6h-5.4v-5.6h5.4v.7Zm2.2-.7h5.3c.5 0 1 .5 1 1V14c0 .5-.5.9-1 .9H304l3.2 2.1H306l-3.2-2.1h-1.6V17h-.7v-5.6Zm5.3.7H301v2.1h4.8l.1-.3v-1.5l-.1-.2-.2-.1Zm8.2-.7v.7h-2.3v5h-.6v-5h-2.4v-.7h5.3Zm2.7 5.6h-.7v-5.6h.7v5.6Zm3.1 0h-.6v-5.6h5.3v.7h-4.7V14h4.3v.7h-4.3V17Zm7.4 0h-.6v-5.6h.6v5.6Zm7.8-5h-4.6V14h4.6v.7h-4.6v1.8h4.6v.6h-5.3v-5.6h5.3v.7Zm2.5 5v-5h-.4v-.6h6c.6 0 1 .5 1 1v3.7c0 .5-.4 1-1 1h-5.6Zm6-1v-3.6l-.1-.2-.3-.1h-5v4.3h5l.3-.1v-.2ZM289.9 25v-.5h.7v.5c0 .5-.4 1-1 1a49.8 49.8 0 0 1-4.8 0 1 1 0 0 1-1-1v-3.8c0-.5.5-1 1-1a49.3 49.3 0 0 1 4.8 0c.6 0 1 .5 1 1v.5h-.7V21h-.3a60.5 60.5 0 0 0-5 0l-.1.2a36.6 36.6 0 0 0 0 4h.3a48.6 48.6 0 0 0 5 0l.1-.2Zm8.3.9-.5-1.2h-4.1l-.6 1.2h-.7l2.6-5.6h1.5l2.6 5.6h-.8ZM294 24h3.5l-1.5-3h-.6l-1.4 3Zm7-3.7h5.3c.5 0 1 .4 1 1v1.5c0 .5-.5 1-1 1h-1.8l3.2 2h-1.2l-3.2-2h-1.6v2h-.7v-5.5Zm5.3.7h-4.6v2h4.8v-2l-.2-.1Zm9.5 1.5c.3.2.5.5.5.9V25c0 .5-.4.9-1 .9h-5.6v-5.6h5.2c.6 0 1 .4 1 1v.9l-.1.3Zm-.9-1.5h-4.6v1.4h4.8l.1-.3v-.8a.3.3 0 0 0-.3-.3Zm.7 4v-1.8l-.3-.1h-5v2.1h5.2l.1-.3Zm6.4-4.1a60.9 60.9 0 0 0-2.6.1l-.1.2a37.1 37.1 0 0 0 0 4h.3a48.6 48.6 0 0 0 5 0l.1-.2a36.6 36.6 0 0 0-.1-4h-.2l-2.4-.1Zm-2.4-.6a49.3 49.3 0 0 1 4.8 0c.5 0 1 .4 1 .9V25c0 .5-.5 1-1 1a49.8 49.8 0 0 1-4.8 0 1 1 0 0 1-1-1v-3.8c0-.5.4-1 1-1Zm14.2 0h.7v5.6h-1.2l-4.6-5h-.2v5h-.6v-5.6h1.1l4.6 5h.2v-5Zm4.8 3.2h-2V23h2v.6Zm8-3.2h.7v5.6H346l-4.6-5h-.2v5h-.7v-5.6h1.2l4.6 5h.2v-5Zm8.5.7h-4.7v1.8h4.7v.6h-4.7v1.8h4.7v.7h-5.3v-5.6h5.3v.7Zm4.4 2.4v-.6h3.7c.5 0 .9.4 1 1v.7l-.1.5c0 .5-.4 1-1 1a49.7 49.7 0 0 1-4.8 0 1 1 0 0 1-1-1v-3.8c0-.5.5-1 1-1a49.4 49.4 0 0 1 4.9 0c.5 0 .9.5.9 1v.5h-.6v-.5a.3.3 0 0 0-.4-.3 60.5 60.5 0 0 0-5 .1v.2a36.6 36.6 0 0 0 0 4h.2a48.5 48.5 0 0 0 5 0l.1-.2v-1.5h-4Zm12.3 2.5-.5-1.2h-4l-.6 1.2h-.8l2.6-5.6h1.5l2.6 5.6h-.8Zm-4.3-1.9h3.5l-1.4-3h-.7l-1.4 3Zm11-3.7v.7H376v4.9h-.7v-5H373v-.6h5.3Zm2.6 5.6h-.7v-5.6h.7v5.6Zm5-.7 2.2-4.9h.8l-2.6 5.6h-.9l-2.6-5.6h.8l2.3 5Zm10.3-4.2h-4.7v1.8h4.7v.6h-4.7v1.8h4.7v.7H391v-5.6h5.4v.7ZM294 29h.7l-2.5 5.7h-.9l-2.2-4.8-2.3 4.8h-.8l-2.6-5.6h.7l2.3 4.9 2.3-5h.7l2.3 5 2.3-5Zm8 .7h-4.6v1.8h4.6v.7h-4.6V34h4.6v.7h-5.3V29h5.3v.6Zm8.4 1.6c.3.2.5.5.5.8v1.6c0 .5-.4 1-.9 1h-5.7V29h5.3c.5 0 .9.4 1 .9v1l-.2.3Zm-.8-1.6H305v1.5h4.8V30a.3.3 0 0 0-.2-.3Zm.7 4v-1.5l-.1-.3H305V34h5.2v-.3Zm8.5-1.5H314a1 1 0 0 1-1-1V30c0-.5.5-.9 1-.9a46.6 46.6 0 0 1 4.7 0c.5 0 1 .4 1 1v.5h-.7v-.7l-.3-.1a45.4 45.4 0 0 0-4.9 0v1.7l.2.1h4.8c.5 0 .9.5.9 1v1.3c0 .5-.5.9-1 1a58.5 58.5 0 0 1-4.7 0 1 1 0 0 1-1-1v-.5h.7v.5l.1.2h.2a45.4 45.4 0 0 0 5 0v-1.5a.3.3 0 0 0-.3-.3Zm4 2.5h-.6V29h.6v5.6ZM330 29v.6h-2.3v5h-.7v-5h-2.3V29h5.3Zm7.3.6h-4.6v1.8h4.6v.7h-4.6V34h4.6v.7H332V29h5.3v.6Z"/></g></g><defs><clipPath id="a"><path fill="#fff" d="M199 0h219v60H199z"/></clipPath></defs></svg>