<svg width="30" height="31" viewBox="0 0 30 31" fill="none" xmlns="http://www.w3.org/2000/svg">
<rect y="0.280762" width="29.5455" height="30" rx="14.7727" fill="#FFC727"/>
<mask id="mask0_2753_1225" style="mask-type:luminance" maskUnits="userSpaceOnUse" x="4" y="5" width="23" height="23">
<path d="M4.18359 5.28076H26.0018V27.0989H4.18359V5.28076Z" fill="white"/>
</mask>
<g mask="url(#mask0_2753_1225)">
<mask id="path-3-inside-1_2753_1225" fill="white">
<path d="M14.6382 25.2805C9.87638 25.2805 6.00183 21.406 6.00183 16.6442C6.00183 11.8824 9.87638 8.00781 14.6382 8.00781C19.4 8.00781 23.2746 11.8824 23.2746 16.6442C23.2746 21.406 19.4 25.2805 14.6382 25.2805ZM14.6382 8.9169C10.3773 8.9169 6.91092 12.3833 6.91092 16.6442C6.91092 20.9051 10.3773 24.3714 14.6382 24.3714C18.8991 24.3714 22.3655 20.9051 22.3655 16.6442C22.3655 12.3833 18.8991 8.9169 14.6382 8.9169Z"/>
</mask>
<path d="M14.6382 25.2805C9.87638 25.2805 6.00183 21.406 6.00183 16.6442C6.00183 11.8824 9.87638 8.00781 14.6382 8.00781C19.4 8.00781 23.2746 11.8824 23.2746 16.6442C23.2746 21.406 19.4 25.2805 14.6382 25.2805ZM14.6382 8.9169C10.3773 8.9169 6.91092 12.3833 6.91092 16.6442C6.91092 20.9051 10.3773 24.3714 14.6382 24.3714C18.8991 24.3714 22.3655 20.9051 22.3655 16.6442C22.3655 12.3833 18.8991 8.9169 14.6382 8.9169Z" fill="#1E1E1E"/>
<path d="M14.6382 20.5791C12.4729 20.5791 10.7032 18.8095 10.7032 16.6442H1.30043C1.30043 24.0025 7.27987 29.9819 14.6382 29.9819V20.5791ZM10.7032 16.6442C10.7032 14.4789 12.4729 12.7092 14.6382 12.7092V3.30641C7.27987 3.30641 1.30043 9.28584 1.30043 16.6442H10.7032ZM14.6382 12.7092C16.8035 12.7092 18.5732 14.4789 18.5732 16.6442H27.976C27.976 9.28584 21.9966 3.30641 14.6382 3.30641V12.7092ZM18.5732 16.6442C18.5732 18.8095 16.8035 20.5791 14.6382 20.5791V29.9819C21.9966 29.9819 27.976 24.0025 27.976 16.6442H18.5732ZM14.6382 4.2155C7.78078 4.2155 2.20952 9.78674 2.20952 16.6442H11.6123C11.6123 14.9798 12.9738 13.6183 14.6382 13.6183V4.2155ZM2.20952 16.6442C2.20952 23.5016 7.78078 29.0729 14.6382 29.0729V19.67C12.9738 19.67 11.6123 18.3086 11.6123 16.6442H2.20952ZM14.6382 29.0729C21.4956 29.0729 27.0669 23.5016 27.0669 16.6442H17.6641C17.6641 18.3086 16.3026 19.67 14.6382 19.67V29.0729ZM27.0669 16.6442C27.0669 9.78675 21.4956 4.2155 14.6382 4.2155V13.6183C16.3026 13.6183 17.6641 14.9798 17.6641 16.6442H27.0669Z" fill="#1E1E1E" mask="url(#path-3-inside-1_2753_1225)"/>
<mask id="path-5-inside-2_2753_1225" fill="white">
<path d="M5.19826 13.8288C5.03826 13.8288 4.8828 13.7442 4.80008 13.5933C4.39644 12.8606 4.18372 12.0297 4.18372 11.1897C4.18372 8.43242 6.42735 6.1897 9.18371 6.1897C10.021 6.1897 10.8519 6.40242 11.5873 6.80606C11.8073 6.92697 11.8883 7.20333 11.7673 7.42333C11.6464 7.64424 11.3683 7.72333 11.1501 7.60333C10.5483 7.27333 9.86917 7.09879 9.18371 7.09879C6.92826 7.09879 5.0928 8.93424 5.0928 11.1897C5.0928 11.877 5.26644 12.5561 5.59735 13.1552C5.71826 13.3752 5.63826 13.6515 5.41735 13.7724C5.34826 13.8106 5.2728 13.8288 5.19826 13.8288Z"/>
</mask>
<path d="M5.19826 13.8288C5.03826 13.8288 4.8828 13.7442 4.80008 13.5933C4.39644 12.8606 4.18372 12.0297 4.18372 11.1897C4.18372 8.43242 6.42735 6.1897 9.18371 6.1897C10.021 6.1897 10.8519 6.40242 11.5873 6.80606C11.8073 6.92697 11.8883 7.20333 11.7673 7.42333C11.6464 7.64424 11.3683 7.72333 11.1501 7.60333C10.5483 7.27333 9.86917 7.09879 9.18371 7.09879C6.92826 7.09879 5.0928 8.93424 5.0928 11.1897C5.0928 11.877 5.26644 12.5561 5.59735 13.1552C5.71826 13.3752 5.63826 13.6515 5.41735 13.7724C5.34826 13.8106 5.2728 13.8288 5.19826 13.8288Z" fill="#1E1E1E"/>
<path d="M4.80008 13.5933L8.92267 11.3334L8.91802 11.3249L4.80008 13.5933ZM11.5873 6.80606L13.8517 2.6859L13.8493 2.68458L11.5873 6.80606ZM11.7673 7.42333L7.64718 5.15894L7.64326 5.16611L11.7673 7.42333ZM11.1501 7.60333L13.4158 3.48389L13.4105 3.481L11.1501 7.60333ZM5.59735 13.1552L9.71752 10.8908L9.7127 10.882L5.59735 13.1552ZM5.41735 13.7724L3.16013 9.64833L3.15173 9.65293L3.14335 9.65756L5.41735 13.7724ZM5.19826 9.12739C6.67733 9.12739 8.14333 9.91172 8.92266 11.3334L0.677491 15.8533C1.62228 17.5768 3.39918 18.5302 5.19826 18.5302V9.12739ZM8.91802 11.3249C8.89973 11.2917 8.88512 11.2418 8.88512 11.1897H-0.517687C-0.517687 12.8176 -0.106839 14.4295 0.682137 15.8618L8.91802 11.3249ZM8.88512 11.1897C8.88512 11.1124 8.91142 11.0432 8.97426 10.9803C9.03719 10.9174 9.1066 10.8911 9.18371 10.8911V1.48829C3.83139 1.48829 -0.517687 5.83536 -0.517687 11.1897H8.88512ZM9.18371 10.8911C9.23054 10.8911 9.28342 10.9045 9.32537 10.9275L13.8493 2.68458C12.4204 1.90033 10.8114 1.48829 9.18371 1.48829V10.8911ZM9.32296 10.9262C7.27675 9.80165 6.51241 7.22373 7.64719 5.15895L15.8875 9.68772C17.2641 7.18294 16.3379 4.05229 13.8517 2.6859L9.32296 10.9262ZM7.64326 5.16611C8.77902 3.09099 11.3706 2.35904 13.4158 3.48389L8.88438 11.7228C11.3659 13.0876 14.5139 12.1975 15.8914 9.68055L7.64326 5.16611ZM13.4105 3.481C12.1186 2.77262 10.6625 2.39739 9.18371 2.39739V11.8002C9.07582 11.8002 8.97787 11.774 8.88964 11.7257L13.4105 3.481ZM9.18371 2.39739C4.33175 2.39739 0.391401 6.33773 0.391401 11.1897H9.79421C9.79421 11.5308 9.52477 11.8002 9.18371 11.8002V2.39739ZM0.391401 11.1897C0.391401 12.6637 0.762654 14.1259 1.482 15.4283L9.7127 10.882C9.77023 10.9862 9.79421 11.0903 9.79421 11.1897H0.391401ZM1.47719 15.4195C0.348586 13.366 1.09581 10.7782 3.16013 9.64833L7.67457 17.8965C10.1807 16.5248 11.0879 13.3843 9.71751 10.8908L1.47719 15.4195ZM3.14335 9.65756C3.79597 9.2969 4.50709 9.12739 5.19826 9.12739V18.5302C6.03852 18.5302 6.90054 18.3243 7.69135 17.8873L3.14335 9.65756Z" fill="#1E1E1E" mask="url(#path-5-inside-2_2753_1225)"/>
<mask id="path-7-inside-3_2753_1225" fill="white">
<path d="M24.0782 13.8288C24.0037 13.8288 23.9282 13.8106 23.8591 13.7724C23.6391 13.6515 23.5591 13.3752 23.6801 13.1552C24.0101 12.5561 24.1837 11.877 24.1837 11.1897C24.1837 8.93424 22.3482 7.09879 20.0928 7.09879C19.4073 7.09879 18.7282 7.27333 18.1264 7.60333C17.9082 7.72152 17.6301 7.64424 17.5091 7.42333C17.3882 7.20333 17.4691 6.92697 17.6891 6.80606C18.4246 6.40242 19.2555 6.1897 20.0928 6.1897C22.8491 6.1897 25.0928 8.43242 25.0928 11.1897C25.0928 12.0297 24.8801 12.8606 24.4764 13.5942C24.3928 13.7442 24.2382 13.8288 24.0782 13.8288Z"/>
</mask>
<path d="M24.0782 13.8288C24.0037 13.8288 23.9282 13.8106 23.8591 13.7724C23.6391 13.6515 23.5591 13.3752 23.6801 13.1552C24.0101 12.5561 24.1837 11.877 24.1837 11.1897C24.1837 8.93424 22.3482 7.09879 20.0928 7.09879C19.4073 7.09879 18.7282 7.27333 18.1264 7.60333C17.9082 7.72152 17.6301 7.64424 17.5091 7.42333C17.3882 7.20333 17.4691 6.92697 17.6891 6.80606C18.4246 6.40242 19.2555 6.1897 20.0928 6.1897C22.8491 6.1897 25.0928 8.43242 25.0928 11.1897C25.0928 12.0297 24.8801 12.8606 24.4764 13.5942C24.3928 13.7442 24.2382 13.8288 24.0782 13.8288Z" fill="#1E1E1E"/>
<path d="M23.8591 13.7724L26.1332 9.65755L26.1235 9.65226L23.8591 13.7724ZM23.6801 13.1552L19.5621 10.8868L19.5599 10.8908L23.6801 13.1552ZM18.1264 7.60333L20.3656 11.7372L20.3763 11.7315L20.3869 11.7257L18.1264 7.60333ZM17.5091 7.42333L21.6332 5.16611L21.6293 5.15895L17.5091 7.42333ZM17.6891 6.80606L15.4272 2.68457L15.4248 2.6859L17.6891 6.80606ZM24.4764 13.5942L28.5827 15.8838L28.5891 15.8722L28.5955 15.8605L24.4764 13.5942ZM24.0782 9.12739C24.7694 9.12739 25.4805 9.29689 26.1331 9.65756L21.5851 17.8873C22.376 18.3243 23.238 18.5302 24.0782 18.5302V9.12739ZM26.1235 9.65226C28.1843 10.7849 28.927 13.3693 27.8002 15.4195L19.5599 10.8908C18.1913 13.381 19.094 16.5182 21.5948 17.8926L26.1235 9.65226ZM27.798 15.4235C28.514 14.1238 28.8851 12.6635 28.8851 11.1897H19.4823C19.4823 11.0904 19.5061 10.9883 19.5621 10.8868L27.798 15.4235ZM28.8851 11.1897C28.8851 6.33773 24.9448 2.39739 20.0928 2.39739V11.8002C19.7517 11.8002 19.4823 11.5308 19.4823 11.1897H28.8851ZM20.0928 2.39739C18.614 2.39739 17.1579 2.77262 15.866 3.481L20.3869 11.7257C20.2986 11.774 20.2007 11.8002 20.0928 11.8002V2.39739ZM15.8872 3.46943C17.8903 2.38443 20.4817 3.0621 21.6332 5.16611L13.3851 9.68055C14.7785 12.2264 17.9262 13.0586 20.3656 11.7372L15.8872 3.46943ZM21.6293 5.15895C22.7641 7.22374 21.9997 9.80166 19.9535 10.9262L15.4248 2.6859C12.9386 4.05228 12.0124 7.18292 13.389 9.68772L21.6293 5.15895ZM19.9511 10.9275C19.9931 10.9045 20.046 10.8911 20.0928 10.8911V1.48829C18.4651 1.48829 16.8561 1.90033 15.4272 2.68458L19.9511 10.9275ZM20.0928 10.8911C20.1699 10.8911 20.2393 10.9174 20.3022 10.9803C20.3651 11.0432 20.3914 11.1124 20.3914 11.1897H29.7942C29.7942 5.83535 25.4451 1.48829 20.0928 1.48829V10.8911ZM20.3914 11.1897C20.3914 11.2414 20.377 11.2922 20.3573 11.328L28.5955 15.8605C29.3832 14.429 29.7942 12.818 29.7942 11.1897H20.3914ZM20.3702 11.3047C21.1432 9.91831 22.5884 9.12739 24.0782 9.12739V18.5302C25.888 18.5302 27.6424 17.5702 28.5827 15.8838L20.3702 11.3047Z" fill="#1E1E1E" mask="url(#path-7-inside-3_2753_1225)"/>
<mask id="path-9-inside-4_2753_1225" fill="white">
<path d="M17.3655 19.826C17.2492 19.826 17.1328 19.7815 17.0437 19.6933L14.3164 16.966C14.2319 16.8806 14.1837 16.7651 14.1837 16.6442V11.1897C14.1837 10.9387 14.3874 10.7351 14.6383 10.7351C14.8892 10.7351 15.0928 10.9387 15.0928 11.1897V16.456L17.6874 19.0506C17.8646 19.2278 17.8646 19.516 17.6874 19.6933C17.5983 19.7815 17.4819 19.826 17.3655 19.826Z"/>
</mask>
<path d="M17.3655 19.826C17.2492 19.826 17.1328 19.7815 17.0437 19.6933L14.3164 16.966C14.2319 16.8806 14.1837 16.7651 14.1837 16.6442V11.1897C14.1837 10.9387 14.3874 10.7351 14.6383 10.7351C14.8892 10.7351 15.0928 10.9387 15.0928 11.1897V16.456L17.6874 19.0506C17.8646 19.2278 17.8646 19.516 17.6874 19.6933C17.5983 19.7815 17.4819 19.826 17.3655 19.826Z" fill="#1E1E1E"/>
<path d="M17.0437 19.6933L13.7193 23.0177L13.7278 23.0262L13.7364 23.0347L17.0437 19.6933ZM14.3164 16.966L10.9743 20.2726L10.9832 20.2815L10.9921 20.2904L14.3164 16.966ZM15.0928 16.456H10.3914V18.4034L11.7684 19.7804L15.0928 16.456ZM17.6874 19.6933L20.9947 23.0347L21.0032 23.0262L21.0117 23.0177L17.6874 19.6933ZM17.3655 15.1246C18.4488 15.1246 19.5326 15.5418 20.351 16.3519L13.7364 23.0347C14.733 24.0211 16.0495 24.5274 17.3655 24.5274V15.1246ZM20.3681 16.3689L17.6408 13.6416L10.9921 20.2904L13.7193 23.0177L20.3681 16.3689ZM17.6586 13.6594C18.4341 14.4433 18.8851 15.5117 18.8851 16.6442H9.48231C9.48231 18.0185 10.0297 19.3178 10.9743 20.2726L17.6586 13.6594ZM18.8851 16.6442V11.1897H9.48231V16.6442H18.8851ZM18.8851 11.1897C18.8851 13.5353 16.9839 15.4365 14.6383 15.4365V6.0337C11.7908 6.0337 9.48231 8.34223 9.48231 11.1897H18.8851ZM14.6383 15.4365C12.2927 15.4365 10.3914 13.5353 10.3914 11.1897H19.7942C19.7942 8.34223 17.4857 6.0337 14.6383 6.0337V15.4365ZM10.3914 11.1897V16.456H19.7942V11.1897H10.3914ZM11.7684 19.7804L14.363 22.375L21.0117 15.7262L18.4172 13.1316L11.7684 19.7804ZM14.363 22.375C12.7042 20.7162 12.7042 18.0276 14.363 16.3689L21.0117 23.0177C23.025 21.0044 23.025 17.7395 21.0117 15.7262L14.363 22.375ZM14.3801 16.3519C15.1985 15.5418 16.2823 15.1246 17.3655 15.1246V24.5274C18.6815 24.5274 19.998 24.0211 20.9947 23.0347L14.3801 16.3519Z" fill="#1E1E1E" mask="url(#path-9-inside-4_2753_1225)"/>
</g>
</svg>
