<svg width="32" height="32" viewBox="0 0 32 32" fill="none" xmlns="http://www.w3.org/2000/svg">
<rect width="31.9999" height="31.9999" rx="15.9999" fill="#FFC727"/>
<path d="M11.5239 24.3124H14.0815V25.5913H14.721V23.0336C14.721 22.9488 14.7546 22.8675 14.8146 22.8075C14.8746 22.7476 14.9559 22.7139 15.0407 22.7139H16.9589C17.0437 22.7139 17.125 22.7476 17.185 22.8075C17.245 22.8675 17.2786 22.9488 17.2786 23.0336V25.5913H17.9181V24.3124H20.4757C20.5226 24.3124 20.5688 24.3022 20.6113 24.2823C20.6537 24.2625 20.6912 24.2335 20.7212 24.1976C20.7512 24.1616 20.773 24.1195 20.7849 24.0742C20.7969 24.0289 20.7987 23.9816 20.7903 23.9355L19.5115 16.9019C19.4981 16.8282 19.4593 16.7616 19.4018 16.7136C19.3443 16.6657 19.2718 16.6394 19.1969 16.6394H12.8027C12.7278 16.6394 12.6553 16.6657 12.5978 16.7136C12.5403 16.7616 12.5015 16.8282 12.4881 16.9019L11.2093 23.9355C11.2009 23.9816 11.2027 24.0289 11.2147 24.0742C11.2266 24.1195 11.2483 24.1616 11.2784 24.1976C11.3084 24.2335 11.3459 24.2625 11.3883 24.2823C11.4308 24.3022 11.477 24.3124 11.5239 24.3124ZM15.9998 21.7548C15.8733 21.7548 15.7497 21.7173 15.6446 21.647C15.5394 21.5767 15.4574 21.4769 15.409 21.36C15.3607 21.2432 15.348 21.1146 15.3727 20.9906C15.3973 20.8666 15.4582 20.7526 15.5477 20.6632C15.6371 20.5738 15.751 20.5129 15.8751 20.4882C15.9991 20.4635 16.1277 20.4762 16.2445 20.5246C16.3613 20.573 16.4612 20.6549 16.5315 20.7601C16.6017 20.8653 16.6392 20.9889 16.6392 21.1153C16.6392 21.2849 16.5718 21.4476 16.4519 21.5675C16.332 21.6874 16.1694 21.7548 15.9998 21.7548ZM13.0693 17.2788H18.9303L20.0921 23.673H17.9181V23.0336C17.9181 22.7792 17.817 22.5353 17.6371 22.3554C17.4573 22.1755 17.2133 22.0745 16.9589 22.0745H16.8368C17.034 21.9038 17.1742 21.6769 17.2388 21.4243C17.3034 21.1717 17.2892 20.9053 17.1981 20.661C17.107 20.4166 16.9435 20.206 16.7293 20.0572C16.5151 19.9085 16.2606 19.8288 15.9998 19.8288C15.739 19.8288 15.4845 19.9085 15.2703 20.0572C15.0561 20.206 14.8926 20.4166 14.8015 20.661C14.7104 20.9053 14.6962 21.1717 14.7608 21.4243C14.8254 21.6769 14.9656 21.9038 15.1628 22.0745H15.0407C14.7863 22.0745 14.5423 22.1755 14.3625 22.3554C14.1826 22.5353 14.0815 22.7792 14.0815 23.0336V23.673H11.9075L13.0693 17.2788Z" fill="black"/>
<path d="M7.04736 21.7547H11.2036V21.1152H10.8839V19.5167C10.8832 19.274 10.7903 19.0407 10.6241 18.8639C10.458 18.6871 10.2308 18.58 9.98869 18.5643C10.1153 18.4273 10.1992 18.2565 10.2302 18.0726C10.2611 17.8887 10.2378 17.6997 10.1631 17.5289C10.0884 17.358 9.96544 17.2126 9.80937 17.1105C9.6533 17.0085 9.47085 16.9541 9.28436 16.9541C9.09787 16.9541 8.91543 17.0085 8.75936 17.1105C8.60329 17.2126 8.48036 17.358 8.40562 17.5289C8.33089 17.6997 8.30758 17.8887 8.33856 18.0726C8.36954 18.2565 8.45346 18.4273 8.58004 18.5643C8.33824 18.5805 8.11158 18.6878 7.9458 18.8645C7.78002 19.0413 7.68745 19.2744 7.68677 19.5167V21.1152H7.33669L7.04736 18.2059L6.41113 18.2698L6.73084 21.4669C6.73874 21.5455 6.77545 21.6184 6.83389 21.6715C6.89233 21.7247 6.96837 21.7543 7.04736 21.7547ZM9.28532 17.5984C9.34856 17.5984 9.41037 17.6172 9.46294 17.6523C9.51552 17.6874 9.5565 17.7374 9.5807 17.7958C9.6049 17.8542 9.61123 17.9185 9.59889 17.9805C9.58655 18.0425 9.5561 18.0995 9.51139 18.1442C9.46668 18.1889 9.40971 18.2194 9.3477 18.2317C9.28568 18.244 9.2214 18.2377 9.16298 18.2135C9.10456 18.1893 9.05462 18.1483 9.01949 18.0958C8.98436 18.0432 8.96561 17.9814 8.96561 17.9181C8.96561 17.8334 8.9993 17.752 9.05925 17.6921C9.11921 17.6321 9.20053 17.5984 9.28532 17.5984ZM8.32619 19.5167C8.32619 19.4319 8.35988 19.3506 8.41984 19.2906C8.47979 19.2307 8.56111 19.197 8.6459 19.197H9.92474C10.0095 19.197 10.0909 19.2307 10.1508 19.2906C10.2108 19.3506 10.2445 19.4319 10.2445 19.5167V21.1152H8.32619V19.5167Z" fill="black"/>
<path d="M24.9521 21.7547C25.0317 21.7551 25.1085 21.7258 25.1676 21.6726C25.2267 21.6194 25.2639 21.5461 25.2718 21.4669L25.5915 18.2698L24.9553 18.2059L24.6644 21.1152H24.3127V19.5167C24.312 19.274 24.2192 19.0407 24.053 18.8639C23.8868 18.6871 23.6597 18.58 23.4175 18.5643C23.5441 18.4273 23.628 18.2565 23.659 18.0726C23.69 17.8887 23.6667 17.6997 23.5919 17.5289C23.5172 17.358 23.3943 17.2126 23.2382 17.1105C23.0821 17.0085 22.8997 16.9541 22.7132 16.9541C22.5267 16.9541 22.3443 17.0085 22.1882 17.1105C22.0321 17.2126 21.9092 17.358 21.8345 17.5289C21.7597 17.6997 21.7364 17.8887 21.7674 18.0726C21.7984 18.2565 21.8823 18.4273 22.0089 18.5643C21.7671 18.5805 21.5404 18.6878 21.3746 18.8645C21.2088 19.0413 21.1163 19.2744 21.1156 19.5167V21.1152H20.7959V21.7547H24.9521ZM22.7142 17.5984C22.7774 17.5984 22.8392 17.6172 22.8918 17.6523C22.9444 17.6874 22.9853 17.7374 23.0095 17.7958C23.0337 17.8542 23.0401 17.9185 23.0277 17.9805C23.0154 18.0425 22.9849 18.0995 22.9402 18.1442C22.8955 18.1889 22.8385 18.2194 22.7765 18.2317C22.7145 18.244 22.6502 18.2377 22.5918 18.2135C22.5334 18.1893 22.4835 18.1483 22.4483 18.0958C22.4132 18.0432 22.3944 17.9814 22.3944 17.9181C22.3944 17.8334 22.4281 17.752 22.4881 17.6921C22.548 17.6321 22.6294 17.5984 22.7142 17.5984ZM21.755 19.5167C21.755 19.4319 21.7887 19.3506 21.8487 19.2906C21.9086 19.2307 21.9899 19.197 22.0747 19.197H23.3536C23.4384 19.197 23.5197 19.2307 23.5796 19.2906C23.6396 19.3506 23.6733 19.4319 23.6733 19.5167V21.1152H21.755V19.5167Z" fill="black"/>
<path d="M13.4424 13.1226H14.0818V14.4014H13.4424V13.1226Z" fill="black"/>
<path d="M15.6807 13.762H16.3201V15.6802H15.6807V13.762Z" fill="black"/>
<path d="M17.918 13.1226H18.5574V14.4014H17.918V13.1226Z" fill="black"/>
<path d="M12.8231 10.3731C12.8024 10.4492 12.7974 10.5288 12.8084 10.6069C12.8194 10.685 12.8462 10.76 12.8871 10.8274L13.3507 11.5947C13.4346 11.7288 13.5665 11.8258 13.7195 11.8658C13.8725 11.9059 14.0351 11.886 14.1739 11.8102L14.329 11.722C14.514 11.8573 14.7149 11.9695 14.9271 12.0561V12.2079C14.9292 12.3676 14.9946 12.52 15.1089 12.6315C15.2232 12.7431 15.3771 12.8047 15.5368 12.8029H16.464C16.6235 12.8041 16.7769 12.7421 16.8908 12.6304C17.0046 12.5187 17.0696 12.3665 17.0714 12.207V12.0548C17.282 11.9717 17.4789 11.8574 17.6555 11.7159L17.825 11.8096C17.9639 11.8853 18.1264 11.905 18.2794 11.8649C18.4323 11.8247 18.5642 11.7276 18.6479 11.5935L19.1115 10.8262C19.1525 10.7588 19.1793 10.6837 19.1903 10.6056C19.2013 10.5275 19.1962 10.4479 19.1754 10.3718C19.1548 10.294 19.1184 10.2211 19.0686 10.1578C19.0188 10.0945 18.9566 10.042 18.8858 10.0035L18.7454 9.92553C18.7728 9.71327 18.7728 9.49838 18.7454 9.28611L18.8877 9.20779C18.9586 9.16924 19.0209 9.1166 19.0707 9.05309C19.1205 8.98959 19.1568 8.91657 19.1774 8.83852C19.1982 8.76243 19.2032 8.68289 19.1922 8.60477C19.1812 8.52666 19.1544 8.45161 19.1134 8.38421L18.6498 7.61691C18.5659 7.4829 18.4339 7.38599 18.2809 7.34594C18.128 7.3059 17.9654 7.32574 17.8266 7.40142L17.6715 7.48966C17.4865 7.35433 17.2856 7.24213 17.0734 7.15557V7.00466C17.0715 6.84486 17.0063 6.69232 16.892 6.58057C16.7778 6.46883 16.6238 6.40702 16.464 6.40873H15.5368C15.3773 6.40753 15.2239 6.46957 15.11 6.58126C14.9962 6.69295 14.9312 6.84519 14.9294 7.00466V7.15685C14.7184 7.23987 14.5211 7.35411 14.344 7.49574L14.1745 7.40206C14.0357 7.32622 13.8731 7.30636 13.7201 7.34654C13.5671 7.38673 13.4353 7.48392 13.3516 7.61819L12.888 8.38549C12.8471 8.45292 12.8204 8.52797 12.8094 8.60607C12.7984 8.68417 12.8034 8.76369 12.8241 8.8398C12.8449 8.91766 12.8813 8.99048 12.9312 9.0538C12.981 9.11712 13.0433 9.16962 13.1141 9.2081L13.2563 9.28643C13.229 9.4987 13.229 9.71359 13.2563 9.92585L13.1141 10.0042C13.043 10.0426 12.9806 10.0952 12.9305 10.1586C12.8805 10.2221 12.844 10.2951 12.8231 10.3731ZM13.8743 9.60582C13.8745 9.51521 13.881 9.42473 13.8938 9.33503C13.9091 9.21681 13.8882 9.09674 13.8339 8.99065C13.7795 8.88455 13.6943 8.7974 13.5895 8.74069L13.4616 8.67099L13.8836 7.97275L14.0342 8.05587C14.1395 8.11242 14.2587 8.13788 14.3779 8.12928C14.4971 8.12068 14.6114 8.07836 14.7075 8.00727C14.8529 7.90083 15.011 7.81298 15.1781 7.74575C15.2913 7.70298 15.389 7.62709 15.4585 7.52797C15.528 7.42886 15.566 7.31112 15.5675 7.1901V7.04815H16.4333V7.18978C16.4349 7.31075 16.4728 7.42844 16.5422 7.52755C16.6116 7.62665 16.7092 7.70257 16.8224 7.74543C16.9896 7.81273 17.1477 7.90069 17.293 8.00727C17.389 8.07846 17.5032 8.12086 17.6224 8.12952C17.7416 8.13818 17.8607 8.11275 17.966 8.05619L18.1162 7.97339L18.5379 8.67163L18.4101 8.74133C18.3052 8.79804 18.22 8.88519 18.1657 8.99128C18.1114 9.09738 18.0904 9.21745 18.1057 9.33567C18.1317 9.51526 18.1317 9.69766 18.1057 9.87726C18.0904 9.99548 18.1114 10.1155 18.1657 10.2216C18.22 10.3277 18.3052 10.4149 18.4101 10.4716L18.5379 10.5413L18.1162 11.2395L17.9657 11.1564C17.8606 11.1001 17.7417 11.0748 17.6229 11.0834C17.504 11.0921 17.39 11.1344 17.2943 11.2053C17.1489 11.3118 16.9908 11.3996 16.8237 11.4669C16.7104 11.5096 16.6127 11.5855 16.5433 11.6846C16.4738 11.7837 16.4358 11.9015 16.4343 12.0225V12.1635H15.5675V12.0219C15.5659 11.9009 15.528 11.7832 15.4586 11.6841C15.3892 11.585 15.2916 11.5091 15.1784 11.4662C15.0113 11.3989 14.8531 11.311 14.7078 11.2044C14.6119 11.1332 14.4976 11.0908 14.3784 11.0821C14.2593 11.0735 14.1401 11.0989 14.0348 11.1555L13.8846 11.2383L13.4626 10.54L13.5904 10.4703C13.6953 10.4136 13.7805 10.3265 13.8348 10.2204C13.8891 10.1143 13.9101 9.9942 13.8948 9.87598C13.8817 9.78651 13.8749 9.69624 13.8743 9.60582Z" fill="black"/>
<path d="M15.9995 10.8846C16.2525 10.8846 16.4997 10.8096 16.71 10.6691C16.9203 10.5285 17.0842 10.3288 17.181 10.0951C17.2778 9.86146 17.3032 9.60433 17.2538 9.35625C17.2045 9.10818 17.0827 8.88032 16.9038 8.70147C16.725 8.52262 16.4971 8.40082 16.249 8.35148C16.001 8.30213 15.7438 8.32746 15.5102 8.42425C15.2765 8.52104 15.0767 8.68496 14.9362 8.89526C14.7957 9.10556 14.7207 9.35281 14.7207 9.60574C14.7207 9.94491 14.8554 10.2702 15.0953 10.51C15.3351 10.7498 15.6604 10.8846 15.9995 10.8846ZM15.9995 8.96632C16.126 8.96632 16.2496 9.00383 16.3548 9.07409C16.4599 9.14435 16.5419 9.24421 16.5903 9.36105C16.6387 9.47789 16.6513 9.60645 16.6267 9.73049C16.602 9.85452 16.5411 9.96846 16.4517 10.0579C16.3623 10.1473 16.2483 10.2082 16.1243 10.2329C16.0003 10.2575 15.8717 10.2449 15.7548 10.1965C15.638 10.1481 15.5381 10.0661 15.4679 9.96099C15.3976 9.85583 15.3601 9.73221 15.3601 9.60574C15.3601 9.43616 15.4275 9.27352 15.5474 9.15361C15.6673 9.03369 15.83 8.96632 15.9995 8.96632Z" fill="black"/>
</svg>
