<svg width="50" height="50" viewBox="0 0 50 50" fill="none" xmlns="http://www.w3.org/2000/svg">
<g clip-path="url(#clip0_3068_6207)">
<path d="M36.2886 32.7363L35.5021 30.9656C35.9975 30.0956 36.3809 29.1707 36.6458 28.2071L38.4525 27.5117C38.7542 27.3957 38.9532 27.1059 38.9532 26.7826V23.2174C38.9532 22.8941 38.7542 22.6044 38.4526 22.4883L36.6463 21.793C36.3813 20.8289 35.9979 19.9038 35.5023 19.0336L36.2886 17.2635C36.4197 16.9682 36.3556 16.6226 36.127 16.3939L33.606 13.873C33.3774 13.6445 33.0319 13.5806 32.7365 13.7115L30.9658 14.498C30.0956 14.0026 29.1708 13.6191 28.2073 13.3543L27.5118 11.5475C27.3958 11.2459 27.106 11.0469 26.7827 11.0469H23.2176C22.8943 11.0469 22.6046 11.2459 22.4885 11.5475L21.7929 13.3543C20.8295 13.6191 19.9046 14.0026 19.0344 14.498L17.2637 13.7115C16.9686 13.5803 16.6228 13.6445 16.3941 13.873L13.8731 16.394C13.6446 16.6227 13.5805 16.9683 13.7116 17.2636L14.498 19.0341C14.0026 19.9042 13.6192 20.829 13.3543 21.7929L11.5476 22.4883C11.246 22.6043 11.047 22.8941 11.047 23.2174V26.7826C11.047 27.1059 11.246 27.3956 11.5476 27.5117L13.3539 28.207C13.6189 29.1713 14.0024 30.0964 14.4979 30.9664L13.7116 32.7364C13.5805 33.0317 13.6446 33.3773 13.8732 33.606L16.3942 36.1269C16.6227 36.3553 16.9683 36.4197 17.2637 36.2884L19.0345 35.502C19.9049 35.9974 20.8296 36.3808 21.793 36.6456L22.4885 38.4524C22.6045 38.754 22.8943 38.953 23.2176 38.953H26.7828C27.1061 38.953 27.3958 38.754 27.5119 38.4524L28.2071 36.6462C29.1712 36.3812 30.0963 35.9978 30.9666 35.5022L32.7366 36.2884C33.0321 36.4197 33.3777 36.3554 33.6062 36.1268L36.1271 33.6058C36.3555 33.3773 36.4197 33.0317 36.2886 32.7363ZM35.2292 27.4418C34.9715 28.5242 34.5442 29.5549 33.9593 30.5049C33.8242 30.7242 33.8061 30.9961 33.9105 31.2315L34.6428 32.8803L32.8804 34.6427L31.2323 33.9107C30.9971 33.8062 30.7251 33.8244 30.5056 33.9596C29.5555 34.5446 28.5247 34.972 27.4418 35.2296C27.1912 35.2893 26.986 35.4686 26.8936 35.709L26.2463 37.3906H23.7539L23.1063 35.7084C23.0139 35.468 22.8087 35.2887 22.5581 35.2291C21.4761 34.9716 20.4455 34.5443 19.4952 33.9592C19.2757 33.824 19.0038 33.806 18.7686 33.9104L17.1196 34.6427L15.3572 32.8804L16.0893 31.2322C16.1937 30.9968 16.1756 30.7249 16.0404 30.5055C15.4556 29.5558 15.0282 28.525 14.7703 27.4417C14.7107 27.1912 14.5313 26.986 14.291 26.8936L12.6093 26.2462V23.7539L14.2914 23.1064C14.5318 23.014 14.7111 22.8088 14.7707 22.5582C15.0284 21.4756 15.4557 20.4449 16.0406 19.4951C16.1758 19.2757 16.1939 19.0038 16.0895 18.7684L15.3572 17.1197L17.1196 15.3573L18.7685 16.0896C19.0037 16.1941 19.2758 16.1761 19.4951 16.0408C20.4453 15.4558 21.4759 15.0285 22.558 14.7709C22.8086 14.7113 23.0138 14.532 23.1063 14.2916L23.7538 12.6094H26.2461L26.8937 14.2916C26.9861 14.532 27.1913 14.7113 27.4418 14.7709C28.5241 15.0285 29.5547 15.4558 30.5048 16.0408C30.7242 16.1761 30.9962 16.1941 31.2314 16.0896L32.8803 15.3573L34.6427 17.1196L33.9106 18.7679C33.8062 19.0033 33.8243 19.2753 33.9595 19.4946C34.5445 20.4446 34.9719 21.4754 35.2295 22.5583C35.2892 22.8089 35.4685 23.0141 35.7089 23.1065L37.3906 23.7539V26.2462L35.7085 26.8937C35.4682 26.9861 35.2888 27.1912 35.2292 27.4418ZM25 17.0697C20.6272 17.0697 17.0697 20.6272 17.0697 25C17.0697 29.3728 20.6272 32.9303 25 32.9303C29.3728 32.9303 32.9303 29.3728 32.9303 25C32.9303 20.6272 29.3728 17.0697 25 17.0697ZM20.8724 29.8431C21.2629 27.8954 22.9736 26.4707 25 26.4707C27.0264 26.4707 28.737 27.8955 29.1275 29.8432C28.015 30.7927 26.5738 31.3679 25 31.3679C23.4262 31.3679 21.9849 30.7927 20.8724 29.8431ZM24.9999 24.9082C24.0389 24.9082 23.257 24.1263 23.257 23.1652C23.257 22.2042 24.0389 21.4224 24.9999 21.4224C25.9609 21.4224 26.7429 22.2042 26.7429 23.1652C26.7429 24.1263 25.9609 24.9082 24.9999 24.9082ZM30.3359 28.4688C29.7769 27.1137 28.7219 26.0313 27.4045 25.4299C27.9623 24.8379 28.3054 24.0411 28.3054 23.1653C28.3054 21.3428 26.8226 19.86 24.9999 19.86C23.1773 19.86 21.6945 21.3428 21.6945 23.1653C21.6945 24.0411 22.0375 24.8378 22.5954 25.4299C21.278 26.0313 20.2231 27.1137 19.664 28.4688C19.0125 27.47 18.6322 26.279 18.6322 25.0001C18.6322 21.4889 21.4888 18.6323 25 18.6323C28.5112 18.6323 31.3678 21.4889 31.3678 25.0001C31.3678 26.2789 30.9875 27.47 30.3359 28.4688ZM8.09873 15.5848C12.1335 15.5848 15.4162 12.3021 15.4162 8.26729C15.4162 4.23242 12.1336 0.949707 8.09873 0.949707C4.06387 0.949707 0.78125 4.23242 0.78125 8.26738C0.78125 12.3021 4.06387 15.5848 8.09873 15.5848ZM4.39873 12.6706C4.76406 10.9404 6.29141 9.67891 8.09873 9.67891C9.90605 9.67891 11.4334 10.9405 11.7987 12.6706C10.7976 13.5133 9.50674 14.0223 8.09873 14.0223C6.69072 14.0223 5.3999 13.5133 4.39873 12.6706ZM6.57217 6.58984C6.57217 5.74814 7.25703 5.06338 8.09873 5.06338C8.94043 5.06338 9.62519 5.74814 9.62519 6.58984C9.62519 7.43154 8.94043 8.11641 8.09873 8.11641C7.25703 8.11641 6.57217 7.43154 6.57217 6.58984ZM8.09873 2.5123C11.272 2.5123 13.8537 5.09404 13.8537 8.26738C13.8537 9.37842 13.5363 10.4163 12.9889 11.2969C12.4723 10.125 11.5514 9.18438 10.4081 8.63838C10.8926 8.09277 11.1877 7.37529 11.1877 6.58994C11.1877 4.88672 9.80205 3.50098 8.09873 3.50098C6.39541 3.50098 5.00967 4.88662 5.00967 6.58984C5.00967 7.3752 5.30479 8.09268 5.78936 8.63838C4.64609 9.18438 3.7252 10.125 3.20869 11.2969C2.66113 10.4162 2.34375 9.37832 2.34375 8.26738C2.34375 5.09404 4.92549 2.5123 8.09873 2.5123ZM41.9013 15.5848C45.936 15.5848 49.2188 12.3021 49.2188 8.26729C49.2188 4.23242 45.9361 0.949707 41.9013 0.949707C37.8664 0.949707 34.5838 4.23232 34.5838 8.26729C34.5839 12.3021 37.8665 15.5848 41.9013 15.5848ZM38.2014 12.6706C38.5667 10.9404 40.094 9.67891 41.9014 9.67891C43.7086 9.67891 45.2359 10.9405 45.6013 12.6706C44.6001 13.5133 43.3093 14.0223 41.9014 14.0223C40.4935 14.0223 39.2025 13.5133 38.2014 12.6706ZM40.3748 6.58984C40.3748 5.74814 41.0597 5.06338 41.9014 5.06338C42.7431 5.06338 43.4279 5.74814 43.4279 6.58984C43.4279 7.43154 42.7431 8.11641 41.9014 8.11641C41.0597 8.11641 40.3748 7.43154 40.3748 6.58984ZM41.9013 2.5123C45.0745 2.5123 47.6562 5.09404 47.6562 8.26738C47.6562 9.37842 47.3389 10.4163 46.7913 11.2969C46.2747 10.125 45.3539 9.18438 44.2106 8.63838C44.6952 8.09268 44.9903 7.37529 44.9903 6.58984C44.9903 4.88662 43.6046 3.50088 41.9013 3.50088C40.1979 3.50088 38.8122 4.88652 38.8122 6.58984C38.8122 7.3752 39.1073 8.09268 39.5919 8.63838C38.4486 9.18438 37.5277 10.125 37.0112 11.2969C36.4638 10.4163 36.1464 9.37842 36.1464 8.26738C36.1464 5.09404 38.728 2.5123 41.9013 2.5123ZM41.9013 34.4153C37.8665 34.4153 34.5838 37.6979 34.5838 41.7328C34.5838 45.7677 37.8664 49.0503 41.9013 49.0503C45.9361 49.0503 49.2188 45.7676 49.2188 41.7327C49.2188 37.6978 45.9361 34.4153 41.9013 34.4153ZM38.2014 46.136C38.5667 44.4059 40.094 43.1442 41.9013 43.1442C43.7085 43.1442 45.2358 44.4059 45.6012 46.1359C44.6 46.9786 43.3092 47.4876 41.9013 47.4876C40.4934 47.4876 39.2026 46.9787 38.2014 46.136ZM40.3748 40.0554C40.3748 39.2137 41.0597 38.5288 41.9014 38.5288C42.7431 38.5288 43.4279 39.2137 43.4279 40.0554C43.4279 40.8971 42.7431 41.5818 41.9014 41.5818C41.0597 41.5818 40.3748 40.8971 40.3748 40.0554ZM46.7913 44.7623C46.2747 43.5904 45.3539 42.6498 44.2106 42.1038C44.6952 41.5582 44.9903 40.8407 44.9903 40.0554C44.9903 38.3521 43.6046 36.9663 41.9013 36.9663C40.1979 36.9663 38.8122 38.352 38.8122 40.0554C38.8122 40.8407 39.1073 41.5582 39.5919 42.1038C38.4486 42.6498 37.5278 43.5904 37.0112 44.7623C36.4638 43.8817 36.1464 42.8438 36.1464 41.7328C36.1464 38.5596 38.7281 35.9778 41.9014 35.9778C45.0746 35.9778 47.6562 38.5595 47.6562 41.7327C47.6562 42.8437 47.3389 43.8817 46.7913 44.7623ZM8.09873 34.4095C4.06387 34.4095 0.78125 37.6921 0.78125 41.727C0.78125 45.7618 4.06387 49.0444 8.09873 49.0444C12.1336 49.0444 15.4162 45.7618 15.4162 41.727C15.4162 37.6921 12.1335 34.4095 8.09873 34.4095ZM4.39873 46.1302C4.76406 44.4 6.29141 43.1385 8.09873 43.1385C9.90605 43.1385 11.4333 44.4001 11.7987 46.1302C10.7976 46.9728 9.50674 47.4818 8.09873 47.4818C6.69072 47.4818 5.3999 46.9728 4.39873 46.1302ZM6.57217 40.0495C6.57217 39.2078 7.25703 38.5229 8.09873 38.5229C8.94043 38.5229 9.62519 39.2078 9.62519 40.0495C9.62519 40.8912 8.94043 41.576 8.09873 41.576C7.25703 41.576 6.57217 40.8912 6.57217 40.0495ZM12.9888 44.7563C12.4722 43.5845 11.5514 42.6438 10.4081 42.0979C10.8926 41.5522 11.1877 40.8348 11.1877 40.0494C11.1877 38.3462 9.80205 36.9604 8.09873 36.9604C6.39541 36.9604 5.00967 38.3461 5.00967 40.0494C5.00967 40.8348 5.30479 41.5522 5.78936 42.0979C4.64609 42.6438 3.7252 43.5845 3.20869 44.7563C2.66113 43.8758 2.34375 42.8379 2.34375 41.727C2.34375 38.5537 4.92549 35.972 8.09873 35.972C11.272 35.972 13.8537 38.5537 13.8537 41.727C13.8536 42.8379 13.5362 43.8758 12.9888 44.7563ZM32.832 44.8881C32.9754 45.295 32.7615 45.7411 32.3546 45.8845C29.9788 46.721 27.489 47.139 25.0001 47.139C23.303 47.139 21.6066 46.9435 19.9468 46.5552L20.0845 46.7135C20.3676 47.0391 20.3331 47.5326 20.0075 47.8156C19.8596 47.9442 19.677 48.0073 19.4952 48.0073C19.277 48.0073 19.0599 47.9163 18.9054 47.7387L16.9989 45.5459C16.8256 45.3465 16.7647 45.0729 16.8373 44.8187C16.9099 44.5646 17.1061 44.3645 17.3586 44.2867L20.1357 43.4315C20.5478 43.3049 20.9854 43.5358 21.1123 43.9482C21.2394 44.3606 21.008 44.7979 20.5956 44.9248L20.2678 45.0258C24.0838 45.9256 28.1103 45.7227 31.8357 44.4106C32.2424 44.2671 32.6887 44.4811 32.832 44.8881ZM17.1679 5.11201C17.0245 4.70508 17.2383 4.25898 17.6453 4.11562C21.6658 2.6998 26.0122 2.48457 30.1291 3.4627L29.9701 3.27559C29.6907 2.94687 29.7307 2.45381 30.0595 2.17441C30.3883 1.89492 30.8813 1.93496 31.1606 2.26377L33.0424 4.47783C33.2136 4.6792 33.2713 4.95342 33.1958 5.20674C33.1203 5.46006 32.922 5.65801 32.6687 5.73301L29.8822 6.55703C29.8083 6.57891 29.7337 6.58926 29.6604 6.58926C29.3231 6.58926 29.012 6.36914 28.9115 6.02939C28.7892 5.61562 29.0254 5.18096 29.4392 5.05869L29.7278 4.97334C25.913 4.0748 21.8883 4.27813 18.1644 5.58955C17.7572 5.73271 17.3112 5.51904 17.1679 5.11201ZM45.0287 29.7197C45.9251 25.9073 45.721 21.8855 44.4105 18.1643C44.2672 17.7573 44.4811 17.3112 44.888 17.1679C45.2947 17.0244 45.741 17.2383 45.8844 17.6453C47.2927 21.6445 47.5133 25.9664 46.5527 30.0642L46.7198 29.9196C47.0465 29.6375 47.5397 29.6732 47.8218 29.9994C48.1041 30.3258 48.0683 30.8191 47.742 31.1014L45.5444 33.0022C45.4007 33.1266 45.2187 33.1926 45.0333 33.1926C44.961 33.1926 44.8883 33.1825 44.8169 33.162C44.563 33.0888 44.3633 32.8922 44.2861 32.6394L43.438 29.8602C43.312 29.4475 43.5445 29.0108 43.9571 28.885C44.37 28.7592 44.8064 28.9914 44.9323 29.4041L45.0287 29.7197ZM4.97422 20.2678C4.07451 24.0839 4.27744 28.1104 5.58936 31.8356C5.73271 32.2426 5.51895 32.6887 5.11191 32.832C5.02607 32.8623 4.93857 32.8766 4.85244 32.8766C4.53027 32.8766 4.22861 32.6758 4.11553 32.3546C2.7085 28.359 2.48691 24.0414 3.44443 19.947L3.28633 20.0844C2.96074 20.3675 2.46729 20.333 2.18418 20.0074C1.90107 19.6817 1.93555 19.1883 2.26113 18.9053L4.45391 16.9989C4.65332 16.8255 4.92656 16.7645 5.18105 16.8373C5.43516 16.9099 5.63535 17.1061 5.71309 17.3586L6.56826 20.1357C6.69531 20.5481 6.46396 20.9854 6.05156 21.1123C5.975 21.1358 5.89756 21.1471 5.82139 21.1471C5.4875 21.1471 5.17842 20.9313 5.075 20.5956L4.97422 20.2678Z" fill="black"/>
</g>
<defs>
<clipPath id="clip0_3068_6207">
<rect width="50" height="50" fill="white"/>
</clipPath>
</defs>
</svg>
