<svg width="28" height="28" viewBox="0 0 28 28" fill="none" xmlns="http://www.w3.org/2000/svg">
<rect width="28" height="28" rx="14" fill="#FFC727"/>
<path d="M12.3738 14.171C12.2619 14.14 12.1435 14.1894 12.0855 14.2909L11.445 15.4135L10.8044 14.2909C10.7465 14.1894 10.6284 14.14 10.5162 14.171C8.97888 14.596 7.90507 16.0178 7.90507 17.6285V18.0646C7.90507 18.2074 8.01911 18.3228 8.16013 18.3228H14.7302C14.8712 18.3228 14.9852 18.2074 14.9852 18.0646V17.6285C14.9852 16.0178 13.9118 14.596 12.3738 14.171ZM14.4755 17.8063H8.41555V17.6285C8.41555 16.3159 9.24888 15.1501 10.4641 14.7273L11.2238 16.0591C11.2693 16.1392 11.3535 16.1883 11.4446 16.1883C11.5357 16.1883 11.6199 16.1392 11.6654 16.0591L12.4251 14.7273C13.6414 15.1501 14.4747 16.3159 14.4747 17.6285L14.4755 17.8063ZM11.445 14.0979C12.2889 14.0979 12.9757 13.4025 12.9757 12.5481C12.9757 11.6937 12.2889 10.9994 11.445 10.9994C10.6011 10.9994 9.91532 11.6941 9.91532 12.5481C9.91532 13.4022 10.6014 14.0979 11.445 14.0979ZM11.445 11.5159C12.0076 11.5159 12.4656 11.9789 12.4656 12.5481C12.4656 13.1174 12.0079 13.5815 11.445 13.5815C10.882 13.5815 10.4254 13.1181 10.4254 12.5481C10.4254 11.9781 10.8827 11.5159 11.445 11.5159ZM22.2406 5H15.3667C14.9477 5 14.6066 5.34531 14.6066 5.76957V9.67976H8.61669L10.0698 7.98235C10.162 7.87463 10.1507 7.71157 10.0439 7.61786C9.93755 7.52452 9.77649 7.53596 9.68394 7.64405L8.12988 9.45914L6.5751 7.64405C6.48291 7.53633 6.32149 7.52452 6.2151 7.61823C6.1087 7.71157 6.09704 7.875 6.18959 7.98272L7.64344 9.68013H5.63319C5.49218 9.68013 5.37813 9.7956 5.37813 9.93837V19.2311C5.37813 19.3739 5.49218 19.4894 5.63319 19.4894H6.81486L5.03416 22.6126C4.98861 22.6927 4.98861 22.7912 5.03416 22.8709C5.07971 22.9506 5.16388 23 5.25497 23H6.43664C6.52773 23 6.6119 22.9509 6.65745 22.8709L8.58535 19.4894H15.2399L17.1678 22.8709C17.2134 22.9509 17.2975 23 17.3886 23H18.5703C18.6614 23 18.7456 22.9509 18.7911 22.8709C18.8367 22.7908 18.8367 22.6927 18.7911 22.6126L17.0104 19.4894H18.1914C18.3324 19.4894 18.4464 19.3739 18.4464 19.2311V11.4915H18.9773C19.0484 11.4915 19.1027 11.5144 19.1533 11.5653L21.1446 13.5815C21.1934 13.6309 21.2587 13.6571 21.325 13.6571C21.3578 13.6571 21.3909 13.6508 21.4226 13.6375C21.5181 13.5977 21.58 13.5032 21.58 13.3988V11.7446C21.58 11.6052 21.6915 11.4915 21.8289 11.4915H22.2399C22.6589 11.4915 23 11.1462 23 10.722V5.76957C23 5.34531 22.6597 5 22.2406 5ZM6.28943 22.4831H5.69696L7.40405 19.489H7.99652L6.28943 22.4831ZM18.129 22.4831H17.5366L15.8295 19.489H16.422L18.129 22.4831ZM17.9367 18.9725H5.88825V10.1966H14.6066V10.7216C14.6066 11.1458 14.9477 11.4912 15.3667 11.4912H17.9367V18.9725ZM22.4906 10.7216C22.4906 10.861 22.3784 10.9747 22.2406 10.9747H21.8296C21.411 10.9747 21.0706 11.32 21.0706 11.7442V12.775L19.5148 11.1997C19.369 11.0525 19.1835 10.9747 18.978 10.9747H15.3671C15.2294 10.9747 15.1171 10.861 15.1171 10.7216V5.76957C15.1171 5.63012 15.2294 5.51649 15.3671 5.51649H22.241C22.3787 5.51649 22.491 5.63012 22.491 5.76957L22.4906 10.7216ZM16.5185 7.43155C16.0747 7.43155 15.714 7.79642 15.714 8.24502C15.714 8.69363 16.0751 9.0596 16.5185 9.0596C16.962 9.0596 17.322 8.694 17.322 8.24502C17.322 7.79605 16.9616 7.43155 16.5185 7.43155ZM16.5185 8.54311C16.3564 8.54311 16.2241 8.40956 16.2241 8.24502C16.2241 8.08049 16.356 7.94804 16.5185 7.94804C16.681 7.94804 16.8118 8.08122 16.8118 8.24502C16.8118 8.40883 16.6803 8.54311 16.5185 8.54311ZM18.8031 7.43155C18.3601 7.43155 17.9997 7.79642 17.9997 8.24502C17.9997 8.69363 18.3601 9.0596 18.8031 9.0596C19.2462 9.0596 19.6077 8.694 19.6077 8.24502C19.6077 7.79605 19.2466 7.43155 18.8031 7.43155ZM18.8031 8.54311C18.6414 8.54311 18.5098 8.40956 18.5098 8.24502C18.5098 8.08049 18.6414 7.94804 18.8031 7.94804C18.9649 7.94804 19.0976 8.08122 19.0976 8.24502C19.0976 8.40883 18.9656 8.54311 18.8031 8.54311ZM21.0889 7.43155C20.645 7.43155 20.2843 7.79642 20.2843 8.24502C20.2843 8.69363 20.6454 9.0596 21.0889 9.0596C21.5323 9.0596 21.8923 8.694 21.8923 8.24502C21.8923 7.79605 21.5319 7.43155 21.0889 7.43155ZM21.0889 8.54311C20.9267 8.54311 20.7944 8.40956 20.7944 8.24502C20.7944 8.08049 20.9263 7.94804 21.0889 7.94804C21.2514 7.94804 21.3822 8.08122 21.3822 8.24502C21.3822 8.40883 21.2506 8.54311 21.0889 8.54311Z" fill="black"/>
</svg>
