<svg width="50" height="50" viewBox="0 0 50 50" fill="none" xmlns="http://www.w3.org/2000/svg">
<path d="M45.0596 19.4932C44.5195 18.8155 43.7617 18.4131 42.9609 18.3116C41.209 18.085 39.5977 19.3272 39.373 21.0801C39.0742 23.3887 41.2773 25.2852 43.5811 24.5264C44.7275 24.1495 45.5771 23.0948 45.7324 21.9024C45.835 21.1026 45.6387 20.2637 45.1182 19.5684C45.0947 19.546 45.0762 19.5206 45.0596 19.4932ZM43.1328 16.96C45.6377 17.2813 47.4043 19.5704 47.083 22.0733C46.9248 23.2969 46.2773 24.4424 45.2031 25.21C46.4238 26.1426 47.1738 27.5958 47.1738 29.171H47.1709V37.0743L47.2012 45.5147C47.2041 46.9932 45.3438 48.001 44.0283 48.003C43.3389 48.0059 42.6973 47.7432 42.2207 47.294C41.7471 47.7481 41.1055 48.0137 40.4131 48.0137C39.1621 48.0196 37.2383 47.5567 37.2324 45.9932L37.1992 37.1622L37.2383 34.1944C37.2852 31.6807 37.3242 30.2881 36.8262 29.378C36.2949 28.4034 34.8496 27.5538 32.7236 26.2081C32.6514 26.7178 32.5713 27.2296 32.4746 27.7413C32.4883 27.7549 32.502 27.7686 32.5166 27.7852C34.1357 29.6231 35.1709 32.0596 35.4648 34.5479C35.7529 36.962 35.3457 39.4366 34.1055 41.4796C33.7451 42.0723 32.832 41.8038 32.8428 41.1172C32.8848 38.7198 32.0068 36.4053 30.3984 34.6456L29.5186 36.5801C29.4414 36.7403 29.2998 36.8682 29.1201 36.9288C27.8408 37.3555 26.5176 37.5655 25.1973 37.5655C23.8906 37.5655 22.5811 37.3575 21.3164 36.9424C20.9648 36.837 20.8652 36.5665 20.7129 36.2647L20.0352 34.836C18.3994 36.6016 17.5049 38.9356 17.5488 41.3526C17.5576 42.0421 16.6436 42.3077 16.2842 41.7149C13.7539 37.5352 14.709 31.6163 17.8701 28.0264C17.5772 26.5206 17.3994 25.0088 17.3359 23.4981C15.0381 24.9512 13.9004 25.6495 13.4023 26.6788C12.9756 27.5948 13.001 28.9317 13.0479 31.4922L13.0898 34.5372L13.0566 43.6143C13.0508 45.209 11.0801 45.6768 9.80664 45.671C9.09473 45.668 8.4336 45.3946 7.94922 44.9239C7.46192 45.3917 6.80078 45.6631 6.0918 45.6602C4.74903 45.6573 2.84766 44.628 2.85059 43.1221L2.88379 34.4493V26.3301H2.88086C2.88086 24.7081 3.65625 23.21 4.91504 22.2579C2.72559 20.7081 2.29395 17.629 3.91016 15.5782C5.5293 13.5245 8.417 13.1641 10.4678 14.7364C12.4971 16.295 12.8897 19.2315 11.3203 21.2803C11.9043 21.2833 12.2451 21.2501 12.5635 21.1114C12.918 20.959 13.3418 20.6544 14.0664 20.129C14.7363 19.6417 15.9238 18.7725 17.4492 17.7901C17.5186 17.7462 17.5879 17.7042 17.6592 17.668C18.4287 12.6544 20.4356 7.93756 23.4199 3.77155C24.3389 2.4903 26 2.45709 26.9658 3.76373C30.6582 8.76569 32.7656 14.6348 32.9922 20.8487C34.5449 21.8672 35.5557 22.5977 36.2783 23.1212C36.9844 23.6309 37.3936 23.9268 37.7373 24.0762C38.0361 24.2061 38.3604 24.2393 38.9023 24.2393C37.3936 22.2383 37.7842 19.3868 39.7607 17.8721C40.7578 17.1046 41.9756 16.8106 43.1328 16.96ZM43.7412 25.9014C43.1602 26.0596 42.5566 26.0948 41.9697 26.0206C41.458 25.9542 40.957 25.8018 40.4912 25.5665C40.2666 25.5723 40.0537 25.5772 39.8574 25.5831C37.4492 25.6465 37.3408 25.5772 35.4785 24.2266C34.7393 23.6924 33.8066 23.0255 32.2393 21.9903C31.5254 21.5196 30.5947 22.1563 30.7695 22.9922C30.8193 23.2335 30.9629 23.4542 31.1846 23.6016C32.2422 24.294 33.0645 24.8116 33.7705 25.2598C36.165 26.7715 37.3691 27.5323 38.0225 28.7256C38.0361 28.753 38.0498 28.7784 38.0645 28.8028C38.3525 29.0714 38.707 29.2481 39.0772 29.3233C39.4785 29.4034 39.9072 29.3653 40.3086 29.1983C40.6543 29.0547 41.0557 29.2178 41.2002 29.5665C41.3438 29.9151 41.1777 30.3135 40.832 30.4581C40.0957 30.7657 39.3008 30.8038 38.5566 30.5967C38.6533 31.5049 38.6318 32.6426 38.6006 34.2178C38.5869 35.0479 38.5674 36.003 38.5645 37.1026C38.5645 37.1221 38.5615 37.1446 38.5615 37.1631L38.5947 45.9942C38.5947 46.1299 38.7217 46.2491 38.9072 46.3487C39.3174 46.5674 39.915 46.6563 40.4131 46.6534C40.6816 46.6534 40.9336 46.5674 41.1357 46.4239C41.2793 46.3243 41.5342 46.0469 41.5342 45.9307V38.1856C41.5342 37.8096 41.8389 37.502 42.2178 37.502C42.5947 37.502 42.9014 37.8096 42.9014 38.1856V45.9473C42.9844 46.1329 43.123 46.296 43.2969 46.418C44.2578 47.085 45.8379 46.0772 45.8379 45.5157L45.8076 37.0753V29.1719H45.8047C45.8066 27.7569 44.9873 26.5001 43.7412 25.9014ZM31.4512 25.4005C31.1221 25.1876 30.7813 24.9688 30.4385 24.7413C28.7139 23.6143 29.2041 20.9405 31.2383 20.5167C31.3604 20.4893 31.4873 20.4747 31.6123 20.4698C31.4658 17.5743 30.8867 14.7344 29.8906 12.0157C26.9199 13.3448 23.5098 13.3614 20.5254 12.0577C19.875 13.8126 19.3906 15.6094 19.0801 17.4278C20.4365 17.6212 21.3496 18.92 21.0703 20.2628C20.9453 20.8575 20.5938 21.4063 20.0459 21.7628C19.5752 22.0723 19.1162 22.3692 18.6758 22.6485C18.7031 24.6309 18.9385 26.6241 19.3877 28.6114C23.2354 29.3917 27.0615 29.3448 30.9092 28.6055C31.1465 27.5381 31.3291 26.4688 31.4512 25.4005ZM5.0166 16.376C5 16.4014 4.98047 16.4258 4.95801 16.4512C4.4209 17.168 4.21582 18.0342 4.32422 18.8624C4.55664 20.6807 6.22852 21.9542 8.03321 21.7217C9.84668 21.4893 11.1279 19.8282 10.8926 18.0128C10.6602 16.2022 8.9961 14.921 7.1836 15.1534C6.35938 15.2579 5.57618 15.6758 5.0166 16.376ZM9.72266 22.6075C7.97852 23.4903 6.46485 22.9424 6.38379 22.9503C5.77735 23.2413 5.25684 23.6895 4.88379 24.2432C4.48242 24.836 4.24414 25.5557 4.24414 26.3301V34.4493L4.21094 43.1221C4.21094 43.7149 5.85254 44.7579 6.85157 44.0635C7.00098 43.961 7.26661 43.6788 7.26661 43.546V35.5899C7.26661 35.213 7.57422 34.9063 7.9502 34.9063C8.32911 34.9063 8.63379 35.2139 8.63379 35.5899V43.5674C8.71973 43.7667 8.86621 43.9415 9.04883 44.0714C9.26172 44.2208 9.52539 44.3096 9.80469 44.3096C10.3193 44.3126 10.9365 44.2208 11.3604 43.9942C11.5566 43.8887 11.6924 43.7618 11.6924 43.6153L11.7256 34.5381C11.7256 34.5186 11.7227 34.4991 11.7227 34.4776C11.7197 33.3477 11.7002 32.3653 11.6836 31.5157C11.6533 29.8799 11.6309 28.7032 11.7334 27.7706C10.9668 27.9922 10.1416 27.9532 9.38282 27.6348C9.03418 27.4913 8.86817 27.0919 9.01465 26.7432C9.15821 26.3946 9.55762 26.2315 9.90625 26.3751C10.3184 26.5499 10.7647 26.588 11.1826 26.502C11.5674 26.4249 11.9326 26.2422 12.2344 25.962C12.2481 25.9346 12.2617 25.9063 12.2783 25.8819C12.9453 24.6583 14.1797 23.878 16.6387 22.3243C17.3672 21.8643 18.2109 21.3301 19.2959 20.6192C20.0518 20.126 19.8193 18.9717 18.9531 18.7891C18.6982 18.7364 18.4268 18.7813 18.1943 18.9327C16.6113 19.9678 15.5918 20.7071 14.8643 21.2335C12.6602 22.8321 12.6846 22.6768 9.72266 22.6075ZM25.1611 13.5469C27.4121 13.5469 29.2363 15.3712 29.2363 17.6221C29.2363 19.8731 27.4121 21.6973 25.1611 21.6973C22.9102 21.6973 21.0859 19.8731 21.0859 17.6221C21.0859 15.3712 22.9111 13.5469 25.1611 13.5469ZM27.0772 15.7061C25.375 14.0069 22.4541 15.2159 22.4541 17.6221C22.4541 20.0284 25.375 21.2374 27.0772 19.5381C28.1348 18.4805 28.1348 16.7637 27.0772 15.7061ZM28.4697 35.626C29.3252 33.8262 30.0225 31.9669 30.543 30.0596C26.9522 30.6797 23.3457 30.7188 19.7578 30.0733C20.292 31.9776 21.0254 33.8682 21.9668 35.7208C22.3184 35.8145 23.1982 36.0557 23.5645 36.0811C23.7939 36.0977 24.1289 36.1641 24.4307 36.1749C24.918 36.1915 25.1426 36.2139 25.6572 36.1915C26.668 36.1309 27.4512 36.003 28.4229 35.7237L28.4697 35.626ZM21.0283 10.7901C23.6807 11.9639 26.75 11.9473 29.3906 10.7462C28.4854 8.59479 27.3086 6.5274 25.8691 4.57819C25.4678 4.03326 24.9229 4.02447 24.5322 4.57037C23.1133 6.55182 21.9424 8.63678 21.0283 10.7901ZM25.1475 46.42C25.9004 45.4571 26.291 44.2139 26.291 42.9463C26.291 41.2354 25.9199 40.1866 25.4443 39.7657C25.2344 39.5772 25.0625 39.5772 24.8516 39.7657C24.375 40.1866 24.0049 41.2354 24.0049 42.9463C24.0039 44.2139 24.3916 45.4561 25.1475 46.42ZM27.1299 45.6885C26.7725 46.5635 26.2549 47.3213 25.6152 47.9278C25.3525 48.171 24.9424 48.1739 24.6797 47.9278C23.3457 46.671 22.6367 44.8243 22.6367 42.9454C22.6367 40.8087 23.2129 39.3965 23.9492 38.7432C24.6797 38.0928 25.6133 38.0928 26.3467 38.7432C27.083 39.3965 27.6592 40.8087 27.6592 42.9454C27.6582 43.9258 27.4668 44.8555 27.1299 45.6885ZM18.125 29.9239C16.4531 32.3956 15.7695 35.7403 16.4863 38.6602C16.96 36.7139 17.9697 34.9288 19.4121 33.5196C18.9082 32.3077 18.5068 31.1583 18.125 29.9239ZM34.1084 34.71C33.8984 32.9131 33.2588 31.1553 32.2676 29.6856C31.8857 30.9229 31.4844 32.0713 30.9805 33.2842C32.4199 34.6934 33.4326 36.4786 33.9063 38.4249C34.1992 37.2325 34.2578 35.9639 34.1084 34.71Z" fill="black"/>
</svg>
