<svg width="50" height="50" viewBox="0 0 50 50" fill="none" xmlns="http://www.w3.org/2000/svg">
<path d="M21.4922 15.6436V25C21.4922 25.4307 21.1426 25.7803 20.7119 25.7803H11.3584C10.9268 25.7803 10.5781 25.4307 10.5781 25C10.5781 24.5684 10.9277 24.2197 11.3584 24.2197H19.9316V15.6436C19.9316 15.2129 20.2812 14.8633 20.7119 14.8633C21.1436 14.8633 21.4922 15.2119 21.4922 15.6436ZM48.4688 32.6377C49.3984 33.3418 50 34.457 50 35.71C50 36.9629 49.3984 38.0781 48.4688 38.7822C49.3984 39.4863 50 40.6016 50 41.8545C50 43.9805 48.2715 45.7109 46.1465 45.7109H30.8682C29.7168 45.7109 28.6826 45.2022 27.9756 44.3984C25.6543 45.2695 23.2139 45.7109 20.7119 45.7109C15.0459 45.7109 9.9043 43.4229 6.16113 39.7227C6.12891 39.6992 6.09668 39.6729 6.06738 39.6436C6.03809 39.6143 6.0127 39.582 5.98828 39.5498C2.28809 35.8076 0 30.666 0 25C0 19.334 2.28809 14.1924 5.98828 10.4492C6.01172 10.417 6.03809 10.3848 6.06738 10.3555C6.09668 10.3262 6.12891 10.3008 6.16113 10.2764C9.9043 6.57617 15.0459 4.28809 20.7119 4.28809C24.3496 4.28809 27.9102 5.24121 31.0459 7.04688C33.0557 5.32813 35.6631 4.28809 38.5088 4.28809C44.8447 4.28809 50 9.44336 50 15.7793C50 20.0117 47.7002 23.7168 44.2852 25.7119H46.1465C48.2715 25.7119 50 27.4404 50 29.5654C50 30.8184 49.3975 31.9336 48.4688 32.6377ZM38.5088 5.84961C33.0322 5.84961 28.5762 10.3037 28.5762 15.7793C28.5762 21.2559 33.0322 25.7119 38.5088 25.7119C43.9844 25.7119 48.4385 21.2559 48.4385 15.7793C48.4385 10.3037 43.9844 5.84961 38.5088 5.84961ZM27.1963 43.0225C27.0791 42.6543 27.0156 42.2627 27.0156 41.8555C27.0156 40.6025 27.6172 39.4873 28.5469 38.7832C27.6172 38.0791 27.0156 36.9639 27.0156 35.7109C27.0156 34.458 27.6172 33.3428 28.5469 32.6387C27.6172 31.9346 27.0156 30.8193 27.0156 29.5664C27.0156 27.4414 28.7441 25.7129 30.8691 25.7129H32.7314C29.3154 23.7187 27.0156 20.0127 27.0156 15.7803C27.0156 12.873 28.1016 10.2148 29.8887 8.18848C27.3096 6.78027 24.4385 5.98633 21.4922 5.86719V9.31055C21.4922 9.74219 21.1426 10.0908 20.7119 10.0908C20.2812 10.0908 19.9316 9.74121 19.9316 9.31055V5.86719C15.2393 6.05664 10.9766 7.94141 7.74121 10.9258L10.1689 13.3535C10.4736 13.6582 10.4736 14.1523 10.1689 14.457C10.0166 14.6094 9.81641 14.6855 9.61719 14.6855C9.41797 14.6855 9.21777 14.6094 9.06543 14.457L6.6377 12.0293C3.65332 15.2646 1.76855 19.5273 1.58008 24.2197H5.02344C5.45508 24.2197 5.80371 24.5693 5.80371 25C5.80371 25.4307 5.4541 25.7803 5.02344 25.7803H1.5791C1.76855 30.4727 3.65332 34.7354 6.63672 37.9707L9.06445 35.543C9.36914 35.2383 9.86328 35.2383 10.168 35.543C10.4727 35.8477 10.4727 36.3418 10.168 36.6465L7.74023 39.0742C10.9756 42.0586 15.2383 43.9434 19.9307 44.1328V40.6895C19.9307 40.2578 20.2803 39.9092 20.7109 39.9092C21.1416 39.9092 21.4912 40.2588 21.4912 40.6895V44.1328C23.4512 44.0557 25.3633 43.6836 27.1963 43.0225ZM46.1465 39.5635H30.8682C29.6045 39.5635 28.5762 40.5918 28.5762 41.8555C28.5762 42.2793 28.6924 42.6768 28.8936 43.0176C28.9043 43.0342 28.915 43.0518 28.9248 43.0693C29.3301 43.7178 30.0498 44.1504 30.8682 44.1504H46.1455C47.4092 44.1504 48.4375 43.1211 48.4375 41.8555C48.4385 40.5918 47.4102 39.5635 46.1465 39.5635ZM46.1465 33.418H30.8682C29.6045 33.418 28.5762 34.4463 28.5762 35.71C28.5762 36.9736 29.6045 38.002 30.8682 38.002H46.1455C47.4092 38.002 48.4375 36.9736 48.4375 35.71C48.4385 34.4463 47.4102 33.418 46.1465 33.418ZM46.1465 31.8564C47.4102 31.8564 48.4385 30.8281 48.4385 29.5645C48.4385 28.3008 47.4102 27.2725 46.1465 27.2725H30.8682C29.6045 27.2725 28.5762 28.3008 28.5762 29.5645C28.5762 30.8281 29.6045 31.8564 30.8682 31.8564H46.1465ZM37.584 20.7773C37.6318 20.792 37.6797 20.8057 37.7285 20.8184V22.0762C37.7285 22.5078 38.0781 22.8564 38.5088 22.8564C38.9395 22.8564 39.2891 22.5068 39.2891 22.0762V20.9199C39.8428 20.8477 40.373 20.6592 40.8301 20.3594C41.5547 19.8838 42.0352 19.1025 42.1152 18.2686C42.1924 17.4609 41.9014 16.6904 41.2959 16.1025C40.7168 15.5371 39.8896 15.3418 39.0898 15.1543C38.3467 14.9795 37.5791 14.7979 37.1299 14.3369C36.8652 14.0645 36.7578 13.625 36.8555 13.2158C36.915 12.9658 37.1074 12.5146 37.7178 12.3076C38.3926 12.0801 39.1885 12.1299 39.7461 12.4355C40.1182 12.6396 40.3574 12.9443 40.4551 13.3418C40.5586 13.7607 40.9814 14.0156 41.4004 13.9131C41.8193 13.8096 42.0742 13.3867 41.9717 12.9678C41.7676 12.1406 41.2578 11.4834 40.4971 11.0664C40.1328 10.8672 39.7207 10.7324 39.2891 10.6621V9.48438C39.2891 9.05371 38.9395 8.7041 38.5088 8.7041C38.0781 8.7041 37.7285 9.05371 37.7285 9.48438V10.6943C37.5557 10.7295 37.3838 10.7734 37.2168 10.8301C36.2529 11.1582 35.5684 11.8955 35.3379 12.8535C35.1143 13.7852 35.373 14.7715 36.0117 15.4277C36.7783 16.2148 37.8164 16.459 38.7324 16.6748C39.3516 16.8203 39.9365 16.959 40.207 17.2227C40.54 17.5459 40.584 17.8896 40.5615 18.1211C40.5264 18.4873 40.3066 18.8369 39.9746 19.0547C39.4473 19.4004 38.707 19.4883 38.041 19.2852C37.5264 19.1279 36.8213 18.7227 36.3887 17.6904C36.2217 17.293 35.7646 17.1055 35.3672 17.2715C34.9697 17.4375 34.7822 17.8955 34.9482 18.293C35.4678 19.5342 36.4043 20.416 37.584 20.7773Z" fill="black"/>
</svg>
