<svg width="30" height="30" viewBox="0 0 30 30" fill="none" xmlns="http://www.w3.org/2000/svg">
<rect width="30" height="30" rx="15" fill="#FFC727"/>
<path d="M22.2469 7.17822H7.75313C6.58125 7.17822 5.625 8.13135 5.625 9.30635V20.947C5.625 21.9813 6.46563 22.822 7.5 22.822H22.5C23.5344 22.822 24.375 21.9813 24.375 20.947V9.30635C24.375 8.13447 23.4219 7.17822 22.2469 7.17822ZM7.75313 7.80322H22.2469C23.0406 7.80322 23.6844 8.4251 23.7406 9.20322L6.25938 9.2376C6.29688 8.44072 6.95 7.80322 7.75625 7.80322H7.75313ZM23.75 20.947C23.75 21.6376 23.1906 22.197 22.5 22.197H7.5C6.80937 22.197 6.25 21.6376 6.25 20.947V9.8626L23.75 9.82822V20.947ZM8.56562 20.5501H11.4C11.5937 21.0876 12.1063 21.4751 12.7094 21.4751H17.2938C17.8969 21.4751 18.4062 21.0876 18.6031 20.5501H21.4656C22.2344 20.5501 22.8625 19.9251 22.8625 19.1532V19.0813C22.8625 17.9282 22.0719 16.9563 21.0031 16.6782C21.4594 16.3251 21.7562 15.772 21.7562 15.1501C21.7562 14.0813 20.8875 13.2126 19.8187 13.2126C18.75 13.2126 17.8813 14.0813 17.8813 15.1501C17.8813 15.772 18.1781 16.3251 18.6344 16.6782C18.2688 16.772 17.9281 16.947 17.6406 17.1938C17.2781 16.9345 16.8406 16.772 16.3688 16.7407C16.9438 16.3188 17.3219 15.6376 17.3219 14.872C17.3219 13.5938 16.2812 12.5532 15.0031 12.5532C13.725 12.5532 12.6844 13.5938 12.6844 14.872C12.6844 15.6407 13.0594 16.3188 13.6375 16.7407C13.1719 16.772 12.7406 16.9282 12.3813 17.1813C12.0969 16.9407 11.7625 16.7688 11.4031 16.6751C11.8594 16.322 12.1562 15.7688 12.1562 15.147C12.1562 14.0782 11.2875 13.2095 10.2188 13.2095C9.15 13.2095 8.28125 14.0782 8.28125 15.147C8.28125 15.7688 8.57812 16.322 9.03437 16.6751C7.96562 16.9532 7.175 17.922 7.175 19.0782V19.1501C7.175 19.9188 7.8 20.547 8.57188 20.547L8.56562 20.5501ZM18.5063 15.1501C18.5063 14.4282 19.0937 13.8376 19.8187 13.8376C20.5437 13.8376 21.1312 14.4251 21.1312 15.1501C21.1312 15.8751 20.5437 16.4626 19.8187 16.4626C19.0937 16.4626 18.5063 15.8751 18.5063 15.1501ZM19.2562 17.222H20.375C21.4 17.222 22.2344 18.0563 22.2344 19.0813V19.1532C22.2344 19.5782 21.8875 19.9251 21.4625 19.9251H18.6875V19.2188C18.6875 18.6095 18.4688 18.0532 18.1031 17.622C18.4313 17.3626 18.8312 17.222 19.2562 17.222ZM13.3062 14.8751C13.3062 13.9407 14.0656 13.1813 15 13.1813C15.9344 13.1813 16.6937 13.9407 16.6937 14.8751C16.6937 15.8095 15.9344 16.5688 15 16.5688C14.0656 16.5688 13.3062 15.8095 13.3062 14.8751ZM11.9375 19.222C11.9375 18.197 12.7719 17.3626 13.7969 17.3626H16.2063C16.6813 17.3626 17.1156 17.5438 17.4469 17.8407C17.825 18.1845 18.0656 18.6751 18.0656 19.222V20.0813C18.0656 20.5063 17.7188 20.8532 17.2938 20.8532H17.2187L16.9406 18.6188C16.9187 18.447 16.7656 18.3251 16.5906 18.347C16.4188 18.3688 16.2969 18.5251 16.3188 18.697L16.5875 20.8532H13.4031L13.6719 18.697C13.6938 18.5251 13.5719 18.3688 13.4 18.347C13.2281 18.3251 13.0719 18.447 13.05 18.6188L12.7719 20.8532H12.7062C12.2812 20.8532 11.9344 20.5063 11.9344 20.0813V19.222H11.9375ZM8.90312 15.1532C8.90312 14.4313 9.49063 13.8407 10.2156 13.8407C10.9406 13.8407 11.5281 14.4282 11.5281 15.1532C11.5281 15.8782 10.9406 16.4657 10.2156 16.4657C9.49063 16.4657 8.90312 15.8782 8.90312 15.1532ZM7.79687 19.0845C7.79687 18.0595 8.63125 17.2251 9.65625 17.2251H10.775C11.1875 17.2251 11.5875 17.3657 11.9094 17.6157C11.5406 18.0501 11.3156 18.6095 11.3156 19.2251V19.9313H8.56562C8.14062 19.9313 7.79375 19.5845 7.79375 19.1595V19.0876L7.79687 19.0845ZM8.45 12.1345C8.45 11.9626 8.59062 11.822 8.7625 11.822H11.1063C11.2781 11.822 11.4188 11.9626 11.4188 12.1345C11.4188 12.3063 11.2781 12.447 11.1063 12.447H8.7625C8.59062 12.447 8.45 12.3063 8.45 12.1345ZM18.3781 12.1345C18.3781 11.9626 18.5188 11.822 18.6906 11.822H21.0344C21.2063 11.822 21.3469 11.9626 21.3469 12.1345C21.3469 12.3063 21.2063 12.447 21.0344 12.447H18.6906C18.5188 12.447 18.3781 12.3063 18.3781 12.1345ZM13.5188 11.6313C13.5188 11.4595 13.6594 11.3188 13.8313 11.3188H16.175C16.3469 11.3188 16.4875 11.4595 16.4875 11.6313C16.4875 11.8032 16.3469 11.9438 16.175 11.9438H13.8313C13.6594 11.9438 13.5188 11.8032 13.5188 11.6313Z" fill="black"/>
</svg>
