<svg width="30" height="30" viewBox="0 0 30 30" fill="none" xmlns="http://www.w3.org/2000/svg">
<rect width="30" height="30" rx="15" fill="#FFC727"/>
<path d="M23.6534 18.3376V8.01353C23.6534 7.26757 23.0465 6.66064 22.3008 6.66064H7.6983C6.95234 6.66064 6.3457 7.26757 6.3457 8.01353V18.3376C6.3457 19.085 6.95263 19.693 7.6983 19.693H12.0861V21.3087H11.9101C11.1241 21.3087 10.4851 21.948 10.4851 22.7334V23.051C10.4851 23.2105 10.6141 23.3395 10.7736 23.3395H23.3938C23.5533 23.3395 23.6822 23.2105 23.6822 23.051V19.1424C23.6822 18.9223 23.6661 18.7108 23.6367 18.5132C23.6447 18.4555 23.6534 18.3981 23.6534 18.3376ZM7.6983 7.23757H22.3008C22.7286 7.23757 23.0765 7.58574 23.0765 8.01353V16.7219H22.9594C22.7892 16.4611 22.5979 16.213 22.3772 15.9895C21.7931 15.408 21.076 15.0122 20.2971 14.8201C21.5162 14.3291 22.3801 13.1363 22.3801 11.7436C22.3801 9.91449 20.8922 8.42661 19.0631 8.42661C17.234 8.42661 15.7464 9.91449 15.7464 11.7436C15.7464 13.1885 16.6767 14.4174 17.9684 14.8711C16.9599 15.1708 16.0718 15.8228 15.4885 16.7219H13.3971V14.8169C13.3971 13.6994 12.6936 12.7452 11.7073 12.3676C12.2814 12.0191 12.6673 11.3897 12.6673 10.6703C12.6673 10.6671 12.6668 10.6639 12.6668 10.6607C12.6668 10.6605 12.6668 10.6599 12.6668 10.6596C12.6668 10.659 12.6665 10.6587 12.6665 10.6581C12.6598 9.56863 11.772 8.68391 10.6807 8.68391C9.58945 8.68391 8.69436 9.57497 8.69436 10.6703C8.69436 11.4197 9.11205 12.0733 9.72647 12.4114C8.79878 12.8164 8.14801 13.7415 8.14801 14.8169V16.7219H6.92263V8.01353C6.92263 7.58574 7.27051 7.23757 7.6983 7.23757ZM19.0631 14.484C17.5524 14.484 16.3233 13.2546 16.3233 11.7439C16.3233 10.2332 17.5524 9.00382 19.0631 9.00382C20.5738 9.00382 21.8032 10.2332 21.8032 11.7439C21.8032 13.2546 20.5738 14.484 19.0631 14.484ZM10.4779 10.3313C10.7413 10.5728 11.251 10.9039 12.0616 10.9515C11.9309 11.5945 11.3615 12.0797 10.6807 12.0797C9.97743 12.0797 9.3982 11.5607 9.2932 10.8866C9.59724 10.7978 10.1072 10.6189 10.4779 10.3313ZM9.33763 10.2655C9.51272 9.68661 10.0452 9.26113 10.6807 9.26113C11.3566 9.26113 11.9217 9.73968 12.0578 10.3755C11.1209 10.3077 10.7488 9.78439 10.7332 9.76161C10.6827 9.68574 10.5996 9.63843 10.5088 9.63353C10.4194 9.62805 10.3299 9.66699 10.2717 9.7368C10.079 9.96786 9.67253 10.1499 9.33763 10.2655ZM10.7724 12.7697C11.9015 12.7697 12.8199 13.6881 12.8199 14.8172V16.7202H8.72493V14.8172C8.72493 13.6881 9.6434 12.7697 10.7724 12.7697ZM6.92263 18.3376V17.2988H15.1735C15.0838 17.4958 15.0094 17.696 14.9514 17.8988H13.7563C13.5968 17.8988 13.4678 18.0278 13.4678 18.1873C13.4678 18.3468 13.5968 18.4757 13.7563 18.4757H14.8273C14.8201 18.5225 14.8086 18.5678 14.8028 18.6151C14.7965 18.6676 14.797 18.7218 14.7927 18.7749C14.7835 18.8882 14.772 19.0007 14.7714 19.1161H7.6983C7.27051 19.1161 6.92263 18.7668 6.92263 18.3376ZM12.663 19.693H14.7717V21.3087H12.663V19.693ZM11.0618 22.7334C11.0618 22.2658 11.4422 21.8856 11.9098 21.8856H14.7714V22.7626H11.0618V22.7334ZM23.105 22.7626H15.3483V19.1424C15.3483 18.836 15.3832 18.538 15.4536 18.251C15.5387 17.8749 15.6867 17.5071 15.8932 17.158C16.5895 15.9886 17.8666 15.2626 19.2252 15.2626C20.2594 15.2626 21.2341 15.6658 21.9679 16.3968C22.1952 16.627 22.3945 16.8837 22.5601 17.158C22.8195 17.5948 22.9882 18.0679 23.062 18.5672C23.0906 18.7469 23.1047 18.9407 23.1047 19.1427V22.7629L23.105 22.7626Z" fill="black"/>
<path d="M12.8726 18.1871C12.8726 18.0276 12.7436 17.8987 12.5841 17.8987H12.3617C12.2022 17.8987 12.0732 18.0276 12.0732 18.1871C12.0732 18.3467 12.2022 18.4756 12.3617 18.4756H12.5841C12.7436 18.4756 12.8726 18.3467 12.8726 18.1871Z" fill="black"/>
</svg>
