<svg width="49" height="50" viewBox="0 0 49 50" fill="none" xmlns="http://www.w3.org/2000/svg">
<rect y="0.240479" width="48.7089" height="49.4582" rx="24.3544" fill="#FFC727"/>
<g clip-path="url(#clip0_2742_818)">
<path d="M17.6658 27.2785V27.594C17.6658 28.0377 17.9665 28.4229 18.3973 28.5307L20.0538 28.9449C20.9067 29.1582 21.5026 29.9211 21.5026 30.7999V31.1154C21.5026 32.1692 20.6448 33.0271 19.5904 33.0271H19.5842V33.9928C19.5842 34.254 19.3722 34.466 19.1109 34.466C18.8496 34.466 18.6376 34.254 18.6376 33.9928V33.0271H18.6314C17.577 33.0271 16.7192 32.1692 16.7192 31.1154C16.7192 30.8542 16.9312 30.6422 17.1925 30.6422C17.4537 30.6422 17.6658 30.8542 17.6658 31.1154C17.6658 31.6473 18.099 32.0805 18.6314 32.0805H19.5904C20.1228 32.0805 20.5561 31.6472 20.5561 31.1154V30.7999C20.5561 30.3562 20.2553 29.971 19.8246 29.8632L18.168 29.449C17.3151 29.2358 16.7192 28.4729 16.7192 27.594V27.2785C16.7192 26.2241 17.577 25.3662 18.6314 25.3662H18.6376V24.4721C18.6376 24.2108 18.8496 23.9988 19.1109 23.9988C19.3722 23.9988 19.5842 24.2108 19.5842 24.4721V25.3662H19.5904C20.6448 25.3662 21.5026 26.2241 21.5026 27.2785C21.5026 27.5398 21.2906 27.7518 21.0294 27.7518C20.7681 27.7518 20.5561 27.5398 20.5561 27.2785C20.5561 26.7461 20.1228 26.3128 19.5904 26.3128H18.6314C18.099 26.3128 17.6658 26.7461 17.6658 27.2785ZM24.5045 37.3145C24.5717 37.5671 24.4219 37.8266 24.1692 37.8937C22.8245 38.253 21.2154 38.3263 19.2132 38.3263H19.0049C14.129 38.3263 10.6181 37.927 9.84711 32.7609C8.9952 27.0782 13.5322 21.2287 15.3591 19.1379C14.4557 19.0784 13.7369 18.3322 13.7369 17.414V16.7422C13.7369 15.8528 14.4116 15.1263 15.2747 15.0268L14.6213 9.80057C14.5837 9.49982 14.6773 9.19727 14.8776 8.97046C15.0779 8.74427 15.3663 8.61426 15.6683 8.61426H18.4224C19.0041 8.61426 19.4774 9.08755 19.4774 9.66993V10.2122H22.3129C22.6235 10.2122 22.9168 10.3484 23.1177 10.5851C23.3186 10.8223 23.4043 11.1348 23.3538 11.4411L22.756 15.029C23.6086 15.1382 24.272 15.8603 24.272 16.7423V17.414C24.272 18.2669 23.6527 18.9741 22.8408 19.1187C23.8041 20.221 25.5507 22.405 26.8523 25.0884C26.9663 25.3232 26.8684 25.6067 26.6329 25.7207C26.5664 25.7527 26.4961 25.7681 26.4271 25.7681C26.2514 25.7681 26.0826 25.6702 26.0007 25.5013C24.448 22.2998 22.1655 19.7614 21.5919 19.1494H16.6268C15.6766 20.1679 9.88889 26.6557 10.7838 32.621C11.4235 36.9103 13.899 37.3798 19.0047 37.3798H19.2131C20.8807 37.3798 22.6063 37.3311 23.925 36.9792C24.1802 36.912 24.4373 37.0617 24.5045 37.3145ZM15.5606 9.68342L16.2262 15.0067H21.7997L22.4197 11.2857C22.427 11.2444 22.4104 11.2148 22.3956 11.197C22.3808 11.1797 22.3544 11.1587 22.3131 11.1587H19.4776V12.2834C19.4776 12.5447 19.2656 12.7567 19.0043 12.7567C18.743 12.7567 18.531 12.5447 18.531 12.2834V9.66987C18.531 9.60948 18.4823 9.56077 18.4226 9.56077H15.6684C15.6284 9.56077 15.6019 9.5805 15.5871 9.59712C15.5723 9.61435 15.5557 9.6427 15.5606 9.68342ZM15.4725 18.2027H22.5368C22.9718 18.2027 23.3256 17.849 23.3256 17.4139V16.7421C23.3256 16.3071 22.9718 15.9533 22.5368 15.9533H15.4725C15.0374 15.9533 14.6837 16.3071 14.6837 16.7421V17.4139C14.6837 17.849 15.0374 18.2027 15.4725 18.2027ZM39.1646 32.4853C39.5022 32.8021 39.7164 33.2489 39.7164 33.7475V36.5922C39.7164 37.5493 38.9381 38.3276 37.981 38.3276H27.0824C26.1253 38.3276 25.347 37.5493 25.347 36.5922V33.7475C25.347 33.2489 25.5611 32.8021 25.8988 32.4853C25.5611 32.1686 25.347 31.7218 25.347 31.2232V28.3779C25.347 27.4209 26.1253 26.6425 27.0824 26.6425H37.981C38.9381 26.6425 39.7164 27.4209 39.7164 28.3779V31.2232C39.7164 31.7218 39.5023 32.1686 39.1646 32.4853ZM37.981 32.9586H27.0824C26.6473 32.9586 26.2935 33.3124 26.2935 33.7475V36.5922C26.2935 37.0273 26.6473 37.381 27.0824 37.381H37.981C38.4161 37.381 38.7699 37.0273 38.7699 36.5922V33.7475C38.7699 33.3124 38.4161 32.9586 37.981 32.9586ZM37.981 32.0121C38.4161 32.0121 38.7699 31.6583 38.7699 31.2232V28.3779C38.7699 27.9429 38.4161 27.5891 37.981 27.5891H27.0824C26.6473 27.5891 26.2935 27.9429 26.2935 28.3779V31.2232C26.2935 31.6583 26.6473 32.0121 27.0824 32.0121H37.981ZM28.1701 19.3965C28.2625 19.4889 28.3833 19.5351 28.5047 19.5351C28.6261 19.5351 28.7469 19.4889 28.8394 19.3965L30.1816 18.0542C30.3665 17.8693 30.3665 17.5698 30.1816 17.385C29.9967 17.2001 29.6972 17.2001 29.5124 17.385L28.9781 17.9193V12.35C28.9781 12.0888 28.7661 11.8768 28.5048 11.8768C28.2435 11.8768 28.0315 12.0888 28.0315 12.35V17.9193L27.4972 17.385C27.3123 17.2001 27.0128 17.2001 26.828 17.385C26.6431 17.5699 26.643 17.8694 26.828 18.0542L28.1701 19.3965ZM32.1967 23.4237C32.2855 23.5125 32.4056 23.5624 32.5314 23.5624C32.6572 23.5624 32.7773 23.5125 32.866 23.4237L34.2083 22.0809C34.3932 21.896 34.3932 21.5965 34.2083 21.4116C34.0228 21.2262 33.7233 21.2274 33.539 21.4116L33.0047 21.9462V16.3773C33.0047 16.116 32.7927 15.904 32.5315 15.904C32.2702 15.904 32.0582 16.116 32.0582 16.3773V21.9462L31.5239 21.4116C31.3396 21.2274 31.0401 21.2262 30.8546 21.4116C30.6697 21.5965 30.6697 21.896 30.8546 22.0809L32.1967 23.4237ZM36.2241 19.3965C36.3165 19.4889 36.4373 19.5351 36.5587 19.5351C36.6801 19.5351 36.8009 19.4889 36.8934 19.3965L38.2356 18.0542C38.4205 17.8693 38.4205 17.5698 38.2356 17.385C38.0507 17.2001 37.7512 17.2001 37.5664 17.385L37.0321 17.9193V12.35C37.0321 12.0888 36.8201 11.8768 36.5588 11.8768C36.2975 11.8768 36.0855 12.0888 36.0855 12.35V17.9193L35.5512 17.385C35.3663 17.2001 35.0668 17.2001 34.882 17.385C34.6971 17.5699 34.6971 17.8694 34.882 18.0542L36.2241 19.3965Z" fill="#1E1E1E"/>
</g>
<defs>
<clipPath id="clip0_2742_818">
<rect width="29.9747" height="29.9747" fill="white" transform="translate(9.74182 8.48364)"/>
</clipPath>
</defs>
</svg>
