<svg width="32" height="32" viewBox="0 0 32 32" fill="none" xmlns="http://www.w3.org/2000/svg">
<rect width="32" height="32" rx="16" fill="#FFC727"/>
<g clip-path="url(#clip0_3004_2479)">
<g clip-path="url(#clip1_3004_2479)">
<path d="M24.5352 9.26172H14.2466C14.0627 8.48633 13.1222 7.69922 10.9219 7.69922C8.72152 7.69922 7.78102 8.48633 7.59711 9.26172H7.46484C6.65711 9.26172 6 9.91883 6 10.7266V22.8359C6 23.6437 6.65711 24.3008 7.46484 24.3008H14.3715C14.5334 24.3008 14.6645 24.1696 14.6645 24.0078C14.6645 23.846 14.5334 23.7148 14.3715 23.7148H7.46484C6.98023 23.7148 6.58594 23.3206 6.58594 22.8359V10.7266C6.58594 10.2419 6.98023 9.84766 7.46484 9.84766H7.5625V21.2734C7.5625 22.0812 8.21961 22.7383 9.02734 22.7383H12.8164C13.6241 22.7383 14.2812 22.0812 14.2812 21.2734V9.84766H24.5352C25.0198 9.84766 25.4141 10.2419 25.4141 10.7266V22.8359C25.4141 23.3206 25.0198 23.7148 24.5352 23.7148H15.5434C15.3816 23.7148 15.2504 23.846 15.2504 24.0078C15.2504 24.1696 15.3816 24.3008 15.5434 24.3008H24.5352C25.3429 24.3008 26 23.6437 26 22.8359V10.7266C26 9.91883 25.3429 9.26172 24.5352 9.26172ZM13.6953 21.2734C13.6953 21.7581 13.301 22.1523 12.8164 22.1523H12.3867V21.7766C12.3867 21.6148 12.2556 21.4836 12.0938 21.4836C11.9319 21.4836 11.8008 21.6148 11.8008 21.7766V22.1523H11.2148V21.7766C11.2148 21.6148 11.0837 21.4836 10.9219 21.4836C10.76 21.4836 10.6289 21.6148 10.6289 21.7766V22.1523H10.043V21.7766C10.043 21.6148 9.91184 21.4836 9.75 21.4836C9.58816 21.4836 9.45703 21.6148 9.45703 21.7766V22.1523H9.02734C8.54273 22.1523 8.14844 21.7581 8.14844 21.2734V16.9766C8.14844 16.2952 9.07637 15.9071 9.87098 15.7818C10.0308 15.7566 10.14 15.6066 10.1147 15.4468C10.0896 15.287 9.93988 15.178 9.77973 15.203C9.01676 15.3233 8.49168 15.5592 8.14844 15.8465V9.55469C8.14844 9.08316 8.73258 8.28516 10.9219 8.28516C13.1112 8.28516 13.6953 9.08316 13.6953 9.55469V15.8456C13.1961 15.4261 12.3192 15.1211 10.9219 15.1211C10.76 15.1211 10.6289 15.2523 10.6289 15.4141C10.6289 15.5759 10.76 15.707 10.9219 15.707C13.1112 15.707 13.6953 16.505 13.6953 16.9766V21.2734Z" fill="black"/>
<path d="M16.8203 22.1523C16.8203 22.4754 17.0832 22.7383 17.4062 22.7383H23.8516C24.1746 22.7383 24.4375 22.4754 24.4375 22.1523V14.9258C24.4375 14.6027 24.1746 14.3398 23.8516 14.3398H17.4062C17.0832 14.3398 16.8203 14.6027 16.8203 14.9258V22.1523ZM19.457 17.2695C19.6189 17.2695 19.75 17.1384 19.75 16.9766V16.8789H21.5078V18.2461H19.75V18.1484C19.75 17.9866 19.6189 17.8555 19.457 17.8555C19.2952 17.8555 19.1641 17.9866 19.1641 18.1484V18.2461H17.4061L17.406 16.8789H19.1641V16.9766C19.1641 17.1384 19.2952 17.2695 19.457 17.2695ZM19.75 16.293V14.9258H21.5078V16.293H19.75ZM19.75 20.1992V18.832H21.5078V20.1992H19.75ZM21.5078 20.7852V22.1523H19.75V20.7852H21.5078ZM17.4061 18.832H19.1641V20.1992H17.4061L17.4061 18.832ZM22.0938 18.832H23.8516V20.1992H22.0938V18.832ZM23.8516 18.2461H22.0938V16.8789H23.8516V18.2461ZM17.4062 20.7852H19.1641V22.1523H17.4062L17.4062 20.7852ZM22.0938 22.1523V20.7852H23.8516V22.1523H22.0938ZM23.8516 16.293H22.0938V14.9258H23.8516V16.293ZM17.4062 14.9258H19.1641V16.293H17.4059L17.4059 14.9258H17.4062Z" fill="black"/>
<path d="M21.8008 11.4102C21.9626 11.4102 22.0938 11.279 22.0938 11.1172C22.0938 10.9554 21.9626 10.8242 21.8008 10.8242H17.4062C17.0832 10.8242 16.8203 11.0871 16.8203 11.4102V12.7773C16.8203 13.1004 17.0832 13.3633 17.4062 13.3633H23.8516C24.1746 13.3633 24.4375 13.1004 24.4375 12.7773V11.4102C24.4375 11.0871 24.1746 10.8242 23.8516 10.8242H22.9727C22.8108 10.8242 22.6797 10.9554 22.6797 11.1172C22.6797 11.279 22.8108 11.4102 22.9727 11.4102H23.8516V12.7773H17.4062V11.4102H21.8008Z" fill="black"/>
</g>
</g>
<defs>
<clipPath id="clip0_3004_2479">
<rect width="20" height="20" fill="white" transform="translate(6 6)"/>
</clipPath>
<clipPath id="clip1_3004_2479">
<rect width="20" height="20" fill="white" transform="translate(6 6)"/>
</clipPath>
</defs>
</svg>
