<svg width="32" height="32" viewBox="0 0 32 32" fill="none" xmlns="http://www.w3.org/2000/svg">
<rect width="32" height="32" rx="16" fill="#FFC727"/>
<g clip-path="url(#clip0_3004_2487)">
<g clip-path="url(#clip1_3004_2487)">
<g clip-path="url(#clip2_3004_2487)">
<path d="M16.6025 24.3184C16.0371 24.3184 15.5771 23.8584 15.5771 23.293C15.5771 22.7276 16.0371 22.2676 16.6025 22.2676C17.1679 22.2676 17.6279 22.7276 17.6279 23.293C17.6279 23.8584 17.1679 24.3184 16.6025 24.3184ZM16.6025 22.6777C16.2633 22.6777 15.9873 22.9537 15.9873 23.293C15.9873 23.6322 16.2633 23.9082 16.6025 23.9082C16.9418 23.9082 17.2178 23.6322 17.2178 23.293C17.2178 22.9537 16.9418 22.6777 16.6025 22.6777Z" fill="black"/>
<path d="M21.0049 25.1387H12.2002C11.3483 25.1387 10.6553 24.4456 10.6553 23.5937V7.40626C10.6553 6.55437 11.3483 5.86133 12.2002 5.86133H21.0049C21.8568 5.86133 22.5498 6.55437 22.5498 7.40626V23.5937C22.5498 24.4456 21.8568 25.1387 21.0049 25.1387ZM12.2002 6.27148C11.5745 6.27148 11.0654 6.78053 11.0654 7.40626V23.5937C11.0654 24.2195 11.5745 24.7285 12.2002 24.7285H21.0049C21.6306 24.7285 22.1396 24.2195 22.1396 23.5937V7.40626C22.1396 6.78053 21.6306 6.27148 21.0049 6.27148H12.2002Z" fill="black"/>
<path d="M21.1143 21.8574H12.0908C11.9775 21.8574 11.8857 21.7656 11.8857 21.6523V8.11719C11.8857 8.00394 11.9775 7.91211 12.0908 7.91211H21.1143C21.2275 7.91211 21.3193 8.00394 21.3193 8.11719V21.6523C21.3193 21.7656 21.2275 21.8574 21.1143 21.8574ZM12.2959 21.4473H20.9092V8.32227H12.2959V21.4473Z" fill="black"/>
<path d="M17.2178 7.29688H15.7822C15.6689 7.29688 15.5771 7.20504 15.5771 7.0918C15.5771 6.97855 15.6689 6.88672 15.7822 6.88672H17.2178C17.331 6.88672 17.4229 6.97855 17.4229 7.0918C17.4229 7.20504 17.331 7.29688 17.2178 7.29688Z" fill="black"/>
<path d="M24.8057 9.96289C24.1272 9.96289 23.5752 9.4109 23.5752 8.73242C23.5752 8.05394 24.1272 7.50195 24.8057 7.50195C25.4841 7.50195 26.0361 8.05394 26.0361 8.73242C26.0361 9.4109 25.4841 9.96289 24.8057 9.96289ZM24.8057 7.91211C24.3533 7.91211 23.9854 8.2801 23.9854 8.73242C23.9854 9.18474 24.3533 9.55273 24.8057 9.55273C25.2579 9.55273 25.626 9.18474 25.626 8.73242C25.626 8.2801 25.2579 7.91211 24.8057 7.91211Z" fill="black"/>
<path d="M8.39941 23.9082C7.60785 23.9082 6.96387 23.2642 6.96387 22.4727C6.96387 21.6811 7.60785 21.0371 8.39941 21.0371C9.19097 21.0371 9.83496 21.6811 9.83496 22.4727C9.83496 23.2642 9.19097 23.9082 8.39941 23.9082ZM8.39941 21.4473C7.83401 21.4473 7.37402 21.9073 7.37402 22.4727C7.37402 23.0381 7.83401 23.498 8.39941 23.498C8.96481 23.498 9.4248 23.0381 9.4248 22.4727C9.4248 21.9073 8.96481 21.4473 8.39941 21.4473Z" fill="black"/>
<path d="M18.4482 7.29688H18.0381C17.9248 7.29688 17.833 7.20504 17.833 7.0918C17.833 6.97855 17.9248 6.88672 18.0381 6.88672H18.4482C18.5615 6.88672 18.6533 6.97855 18.6533 7.0918C18.6533 7.20504 18.5615 7.29688 18.4482 7.29688Z" fill="black"/>
<path d="M24.498 12.0137C24.6679 12.0137 24.8057 11.8759 24.8057 11.7061C24.8057 11.5362 24.6679 11.3984 24.498 11.3984C24.3282 11.3984 24.1904 11.5362 24.1904 11.7061C24.1904 11.8759 24.3282 12.0137 24.498 12.0137Z" fill="black"/>
<path d="M24.293 20.4219C24.4629 20.4219 24.6006 20.2842 24.6006 20.1143C24.6006 19.9444 24.4629 19.8066 24.293 19.8066C24.1231 19.8066 23.9854 19.9444 23.9854 20.1143C23.9854 20.2842 24.1231 20.4219 24.293 20.4219Z" fill="black"/>
<path d="M8.29688 8.73242C8.46677 8.73242 8.60449 8.5947 8.60449 8.4248C8.60449 8.25491 8.46677 8.11719 8.29688 8.11719C8.12698 8.11719 7.98926 8.25491 7.98926 8.4248C7.98926 8.5947 8.12698 8.73242 8.29688 8.73242Z" fill="black"/>
<path d="M9.32227 16.1152C9.49216 16.1152 9.62988 15.9775 9.62988 15.8076C9.62988 15.6377 9.49216 15.5 9.32227 15.5C9.15237 15.5 9.01465 15.6377 9.01465 15.8076C9.01465 15.9775 9.15237 16.1152 9.32227 16.1152Z" fill="black"/>
<path d="M17.0607 17.3345L13.3735 13.6472C12.7564 13.0301 12.7563 12.0312 13.3735 11.414L13.6284 11.1592C13.7085 11.0791 13.8383 11.0791 13.9184 11.1592L19.5488 16.7896C19.6289 16.8697 19.6289 16.9995 19.5488 17.0796L19.294 17.3345C18.6782 17.9501 17.6764 17.9501 17.0607 17.3345ZM17.3508 17.0444C17.8065 17.5002 18.5481 17.5002 19.0039 17.0444L19.1138 16.9345L13.7734 11.5942L13.6635 11.704C13.2066 12.1609 13.2066 12.9002 13.6635 13.3571L17.3508 17.0444Z" fill="black"/>
<path d="M15.4681 13.2889L13.6284 11.4492C13.5483 11.3691 13.5483 11.2393 13.6284 11.1592L13.7817 11.0059C14.3703 10.4174 15.3228 10.4173 15.9114 11.0059C16.5 11.5944 16.5 12.547 15.9114 13.1356L15.7581 13.2889C15.678 13.369 15.5482 13.369 15.4681 13.2889ZM14.0635 11.3042L15.6131 12.8538C15.6209 12.8423 15.9423 12.5677 15.9423 12.0707C15.9423 11.4651 15.4522 10.9749 14.8466 10.9749C14.5539 10.9749 14.2787 11.0889 14.0717 11.2959L14.0635 11.3042Z" fill="black"/>
<path d="M19.2591 17.0794L17.4194 15.2397C17.3394 15.1597 17.3393 15.0298 17.4194 14.9497L17.5727 14.7964C18.1613 14.2079 19.1138 14.2078 19.7024 14.7964C20.2909 15.3849 20.291 16.3375 19.7024 16.9261L19.5492 17.0794C19.4691 17.1595 19.3392 17.1595 19.2591 17.0794ZM17.8545 15.0947L19.4041 16.6444C19.41 16.6356 19.7333 16.3594 19.7333 15.8613C19.7333 15.2557 19.2432 14.7655 18.6375 14.7655C18.3448 14.7655 18.0697 14.8795 17.8627 15.0864L17.8545 15.0947Z" fill="black"/>
<path d="M17.8843 13.2441C17.771 13.2441 17.6792 13.1523 17.6792 13.0391C17.6792 12.7846 17.4722 12.5776 17.2178 12.5776C17.1045 12.5776 17.0127 12.4858 17.0127 12.3726C17.0127 12.2593 17.1045 12.1675 17.2178 12.1675C17.6984 12.1675 18.0894 12.5585 18.0894 13.0391C18.0894 13.1523 17.9975 13.2441 17.8843 13.2441Z" fill="black"/>
<path d="M18.884 13.2441C18.7707 13.2441 18.679 13.1523 18.679 13.0391C18.679 12.2334 18.0235 11.5779 17.2178 11.5779C17.1045 11.5779 17.0127 11.486 17.0127 11.3728C17.0127 11.2596 17.1045 11.1677 17.2178 11.1677C18.2496 11.1677 19.0891 12.0072 19.0891 13.0391C19.0891 13.1523 18.9973 13.2441 18.884 13.2441Z" fill="black"/>
<path d="M19.8838 13.2441C19.7705 13.2441 19.6787 13.1523 19.6787 13.0391C19.6787 11.6821 18.5747 10.5781 17.2178 10.5781C17.1045 10.5781 17.0127 10.4863 17.0127 10.373C17.0127 10.2598 17.1045 10.168 17.2178 10.168C18.8009 10.168 20.0889 11.4559 20.0889 13.0391C20.0889 13.1523 19.997 13.2441 19.8838 13.2441Z" fill="black"/>
<path d="M21.1143 20.627H12.0908C11.9775 20.627 11.8857 20.5351 11.8857 20.4219C11.8857 20.3086 11.9775 20.2168 12.0908 20.2168H21.1143C21.2275 20.2168 21.3193 20.3086 21.3193 20.4219C21.3193 20.5351 21.2275 20.627 21.1143 20.627Z" fill="black"/>
<path d="M21.1143 19.3965H12.0908C11.9775 19.3965 11.8857 19.3047 11.8857 19.1914C11.8857 19.0781 11.9775 18.9863 12.0908 18.9863H21.1143C21.2275 18.9863 21.3193 19.0781 21.3193 19.1914C21.3193 19.3047 21.2275 19.3965 21.1143 19.3965Z" fill="black"/>
</g>
</g>
</g>
<defs>
<clipPath id="clip0_3004_2487">
<rect width="22" height="22" fill="white" transform="translate(5 5)"/>
</clipPath>
<clipPath id="clip1_3004_2487">
<rect width="22" height="22" fill="white" transform="translate(5 5)"/>
</clipPath>
<clipPath id="clip2_3004_2487">
<rect width="21" height="21" fill="white" transform="translate(6 5)"/>
</clipPath>
</defs>
</svg>
