<svg width="80" height="80" viewBox="0 0 80 80" fill="none" xmlns="http://www.w3.org/2000/svg">
<path d="M66.3005 68.1073C73.1652 68.1073 78.75 62.5225 78.75 55.6578C78.75 48.793 73.1652 43.2083 66.3005 43.2083C65.2322 43.2083 64.195 43.3438 63.2048 43.5981V23.9877C63.2048 18.0866 58.4039 13.2856 52.5028 13.2856H50.0873C47.6847 8.42516 42.6745 5.07422 36.8958 5.07422C31.1169 5.07422 26.1067 8.42516 23.7041 13.2856H21.2884C15.3872 13.2856 10.5862 18.0866 10.5862 23.9877V48.4231H4.98328C3.63125 48.4231 2.53141 49.5231 2.53141 50.875V56.7831C2.53141 58.1352 3.63141 59.2352 4.98328 59.2352H9.08359V72.4258H2.5C1.80969 72.4258 1.25 72.9855 1.25 73.6758C1.25 74.3661 1.80969 74.9258 2.5 74.9258H71.3716C72.0619 74.9258 72.6216 74.3661 72.6216 73.6758C72.6216 72.9855 72.0619 72.4258 71.3716 72.4258H64.7975V68.0133C65.2906 68.073 65.7916 68.1073 66.3005 68.1073ZM76.25 55.6578C76.25 61.1439 71.7867 65.6073 66.3005 65.6073C60.8142 65.6073 56.3509 61.1441 56.3509 55.6578C56.3509 50.1716 60.8142 45.7083 66.3005 45.7083C71.7866 45.7083 76.25 50.1717 76.25 55.6578ZM29.3636 48.423H14.2448C17.983 40.9998 25.0584 35.9387 33.2028 34.7534L29.2013 47.3353C29.0833 47.7063 29.1461 48.1073 29.3636 48.423ZM32.6898 48.423L31.7987 47.4167L35.905 34.5053C36.2317 34.4928 36.5597 34.4862 36.8887 34.4861H36.8958H36.9009C37.2305 34.4861 37.5591 34.4947 37.8869 34.5077L41.9923 47.4166L41.1011 48.4228H32.6898V48.423ZM44.5898 47.3355L40.5912 34.7631C47.7873 35.8331 54.2786 39.9822 58.253 46.17C57.4728 46.8327 56.7759 47.5897 56.1784 48.4231H44.4273C44.645 48.1072 44.7078 47.7061 44.5898 47.3355ZM52.5028 15.7856C57.0255 15.7856 60.7048 19.465 60.7048 23.9877V44.542C60.5722 44.6091 60.44 44.6767 60.3102 44.7483C57.9464 41.0913 54.7453 38.0147 50.9839 35.8058C48.6995 34.4644 46.2366 33.4661 43.6786 32.8256C48.3828 30.3697 51.6017 25.4442 51.6017 19.7803C51.6017 18.3963 51.4092 17.0564 51.0502 15.7856H52.5028ZM36.8958 7.57406C43.6262 7.57406 49.1019 13.0497 49.1019 19.7802C49.1019 26.5095 43.6281 31.9842 36.8994 31.9862C36.8981 31.9862 36.8969 31.9862 36.8956 31.9862C36.8942 31.9862 36.8928 31.9862 36.8914 31.9862C30.163 31.9837 24.6897 26.5092 24.6897 19.7803C24.6897 13.0497 30.1653 7.57406 36.8958 7.57406ZM21.2884 15.7856H22.7413C22.3822 17.0563 22.1897 18.3963 22.1897 19.7803C22.1897 25.4402 25.4042 30.3628 30.1028 32.8205C26.9522 33.6092 23.9553 34.9486 21.2317 36.8033C17.9095 39.0656 15.1461 41.9842 13.0862 45.3713V23.9877C13.0862 19.465 16.7658 15.7856 21.2884 15.7856ZM5.03141 50.923H54.7888C54.1858 52.3836 53.8509 53.982 53.8509 55.6578C53.8509 56.0211 53.8698 56.3798 53.9006 56.7353H5.03141V50.923ZM62.2975 72.4259H11.5836V59.2353H54.3772C55.5344 63.0845 58.5075 66.1525 62.2975 67.4433V72.4259ZM58.9131 53.4059C57.6556 54.6636 57.6556 56.71 58.9131 57.9678L61.9863 61.0409C62.6306 61.6853 63.4234 62.1073 64.2184 62.2292C64.3828 62.2544 64.5459 62.2669 64.7069 62.2669C65.5286 62.2669 66.2983 61.9423 66.9127 61.328L73.6878 54.553C74.9455 53.2952 74.9453 51.2487 73.6878 49.9909C72.43 48.7333 70.3838 48.7336 69.1259 49.9909L64.5933 54.5237L63.4753 53.4058C62.2173 52.1481 60.1709 52.148 58.9131 53.4059C58.9131 53.4058 58.9131 53.4058 58.9131 53.4059ZM60.6809 55.1736C60.9591 54.8956 61.4292 54.8955 61.7073 55.1737L63.7092 57.1756C64.1973 57.6636 64.9888 57.6636 65.4769 57.1756L70.8934 51.7591C71.1716 51.4809 71.6417 51.4806 71.92 51.7591C72.1981 52.0372 72.1981 52.5073 71.92 52.7855L65.1448 59.5605C64.9713 59.7339 64.8123 59.7914 64.5973 59.7583C64.3323 59.7177 64.017 59.5364 63.7541 59.2733L60.6809 56.2003C60.4027 55.9219 60.4027 55.4519 60.6809 55.1736Z" fill="black"/>
</svg>
