<svg width="32" height="32" viewBox="0 0 32 32" fill="none" xmlns="http://www.w3.org/2000/svg">
<rect width="32" height="32" rx="16" fill="#FFC727"/>
<g clip-path="url(#clip0_3004_2545)">
<mask id="mask0_3004_2545" style="mask-type:luminance" maskUnits="userSpaceOnUse" x="5" y="5" width="21" height="22">
<path d="M5.99951 5.99982H26.0002V26.0005H5.99951V5.99982Z" fill="white"/>
</mask>
<g mask="url(#mask0_3004_2545)">
<path d="M15.3848 25.7043C12.3225 25.6426 9.93262 25.1258 9.93262 24.4969C9.93262 23.9418 11.7952 23.4738 14.3386 23.3293" stroke="black" stroke-width="0.585957" stroke-miterlimit="10" stroke-linecap="round" stroke-linejoin="round"/>
<path d="M17.6604 23.3293C20.2039 23.4739 22.0665 23.9418 22.0665 24.4969C22.0665 25.1223 19.7011 25.6376 16.6616 25.7036" stroke="black" stroke-width="0.585957" stroke-miterlimit="10" stroke-linecap="round" stroke-linejoin="round"/>
<path d="M22.6737 12.9696C22.6737 15.7571 18.8566 21.615 16.996 24.3049C16.5143 25.0012 15.4856 25.0012 15.0038 24.3049C13.1432 21.615 9.32617 15.7571 9.32617 12.9696C9.32617 9.28377 12.3141 6.29585 15.9999 6.29585C19.6857 6.29585 22.6737 9.28377 22.6737 12.9696Z" stroke="black" stroke-width="0.585957" stroke-miterlimit="10" stroke-linecap="round" stroke-linejoin="round"/>
<path d="M21.4342 13.5956C21.1224 16.3176 18.8044 18.4387 16 18.4387C12.9839 18.4387 10.5303 15.9851 10.5303 12.969C10.5303 9.95328 12.9839 7.49968 16 7.49968C18.7962 7.49968 21.1088 9.60835 21.4314 12.3186" stroke="black" stroke-width="0.585957" stroke-miterlimit="10" stroke-linecap="round" stroke-linejoin="round"/>
<path d="M20.2468 12.9694C20.2468 15.3149 18.3454 17.2163 15.9999 17.2163C13.6544 17.2163 11.7529 15.3149 11.7529 12.9694C11.7529 10.6239 13.6544 8.72243 15.9999 8.72243C18.3454 8.72243 20.2468 10.6239 20.2468 12.9694Z" stroke="black" stroke-width="0.585957" stroke-miterlimit="10" stroke-linecap="round" stroke-linejoin="round"/>
<path d="M14.8071 13.3416V14.5486C14.8071 14.9637 15.0263 15.3514 15.3915 15.5818L15.6685 15.7566C15.8841 15.8926 16.1372 15.9651 16.3962 15.9651C16.6162 15.9651 16.8154 15.8808 16.9591 15.7444C17.1033 15.608 17.1924 15.4194 17.1924 15.2117V14.8384C17.1924 14.4221 16.8361 14.085 16.3962 14.085V14.0854C16.1771 14.0854 15.999 13.9168 15.999 13.7091V12.2053C15.999 11.9976 16.1771 11.8294 16.3962 11.8294C16.8361 11.8294 17.1924 11.4923 17.1924 11.076V10.7027C17.1924 10.2868 16.8361 9.94934 16.3962 9.94934C16.1372 9.94934 15.8841 10.0222 15.6685 10.1578L15.3915 10.3327C15.0263 10.563 14.8071 10.9507 14.8071 11.3658V12.1332" stroke="black" stroke-width="0.585957" stroke-miterlimit="10" stroke-linecap="round" stroke-linejoin="round"/>
</g>
</g>
<defs>
<clipPath id="clip0_3004_2545">
<rect width="20.0007" height="20.0007" fill="white" transform="translate(5.99951 5.99976)"/>
</clipPath>
</defs>
</svg>
