<svg width="32" height="32" viewBox="0 0 32 32" fill="none" xmlns="http://www.w3.org/2000/svg">
<rect width="32" height="32" rx="16" fill="#FFC727"/>
<path d="M14.2988 21.5355C14.1855 21.5355 14.0938 21.4437 14.0938 21.3304V19.2527C14.0938 19.1394 14.1855 19.0476 14.2988 19.0476H15.3663C15.4796 19.0476 15.5714 19.1394 15.5714 19.2527C15.5714 19.366 15.4796 19.4578 15.3663 19.4578H14.5039V21.3304C14.5039 21.4436 14.4121 21.5355 14.2988 21.5355Z" fill="black"/>
<path d="M15.3663 20.3347H14.2988C14.1855 20.3347 14.0938 20.2429 14.0938 20.1296C14.0938 20.0164 14.1855 19.9246 14.2988 19.9246H15.3663C15.4796 19.9246 15.5714 20.0164 15.5714 20.1296C15.5714 20.2429 15.4796 20.3347 15.3663 20.3347Z" fill="black"/>
<path d="M16.0718 21.5355C15.9585 21.5355 15.8667 21.4437 15.8667 21.3304V19.2527C15.8667 19.1394 15.9585 19.0476 16.0718 19.0476C16.1851 19.0476 16.2769 19.1394 16.2769 19.2527V21.3304C16.2769 21.4436 16.1851 21.5355 16.0718 21.5355Z" fill="black"/>
<path d="M16.7198 20.4871H16.0718C15.9585 20.4871 15.8667 20.3953 15.8667 20.282C15.8667 20.1687 15.9585 20.0769 16.0718 20.0769H16.7198C16.8905 20.0769 17.0294 19.938 17.0294 19.7673C17.0294 19.5966 16.8905 19.4578 16.7198 19.4578H16.0718C15.9585 19.4578 15.8667 19.366 15.8667 19.2527C15.8667 19.1394 15.9585 19.0476 16.0718 19.0476H16.7198C17.1167 19.0476 17.4396 19.3705 17.4396 19.7673C17.4396 20.1642 17.1167 20.4871 16.7198 20.4871Z" fill="black"/>
<path d="M17.1201 21.5356C17.0375 21.5356 16.9597 21.4854 16.9285 21.4036L16.5282 20.3552C16.4878 20.2494 16.5408 20.1309 16.6467 20.0905C16.7524 20.05 16.871 20.1031 16.9114 20.2089L17.3117 21.2573C17.3521 21.363 17.2991 21.4816 17.1932 21.522C17.1691 21.5312 17.1444 21.5356 17.1201 21.5356Z" fill="black"/>
<path d="M19.0069 21.5355H17.9395C17.8262 21.5355 17.7344 21.4437 17.7344 21.3304V19.2527C17.7344 19.1394 17.8262 19.0476 17.9395 19.0476H19.0069C19.1202 19.0476 19.212 19.1394 19.212 19.2527C19.212 19.366 19.1202 19.4578 19.0069 19.4578H18.1445V21.1253H19.0069C19.1202 21.1253 19.212 21.2171 19.212 21.3304C19.212 21.4437 19.1202 21.5355 19.0069 21.5355Z" fill="black"/>
<path d="M19.0069 19.4578H17.9395C17.8262 19.4578 17.7344 19.366 17.7344 19.2527C17.7344 19.1394 17.8262 19.0476 17.9395 19.0476H19.0069C19.1202 19.0476 19.212 19.1394 19.212 19.2527C19.212 19.366 19.1202 19.4578 19.0069 19.4578Z" fill="black"/>
<path d="M19.0069 20.4966H17.9395C17.8262 20.4966 17.7344 20.4048 17.7344 20.2915C17.7344 20.1782 17.8262 20.0864 17.9395 20.0864H19.0069C19.1202 20.0864 19.212 20.1782 19.212 20.2915C19.212 20.4048 19.1202 20.4966 19.0069 20.4966Z" fill="black"/>
<path d="M20.7799 21.5355H19.7124C19.5991 21.5355 19.5073 21.4437 19.5073 21.3304V19.2527C19.5073 19.1394 19.5991 19.0476 19.7124 19.0476H20.7799C20.8932 19.0476 20.985 19.1394 20.985 19.2527C20.985 19.366 20.8932 19.4578 20.7799 19.4578H19.9175V21.1253H20.7799C20.8932 21.1253 20.985 21.2171 20.985 21.3304C20.985 21.4437 20.8932 21.5355 20.7799 21.5355Z" fill="black"/>
<path d="M20.7799 19.4578H19.7124C19.5991 19.4578 19.5073 19.366 19.5073 19.2527C19.5073 19.1394 19.5991 19.0476 19.7124 19.0476H20.7799C20.8932 19.0476 20.985 19.1394 20.985 19.2527C20.985 19.366 20.8932 19.4578 20.7799 19.4578Z" fill="black"/>
<path d="M20.7799 20.4966H19.7124C19.5991 20.4966 19.5073 20.4048 19.5073 20.2915C19.5073 20.1782 19.5991 20.0864 19.7124 20.0864H20.7799C20.8932 20.0864 20.985 20.1782 20.985 20.2915C20.985 20.4048 20.8932 20.4966 20.7799 20.4966Z" fill="black"/>
<path d="M19.5479 17.8379H15.5781C15.4648 17.8379 15.373 17.7461 15.373 17.6328C15.373 17.5195 15.4648 17.4277 15.5781 17.4277H19.5479C19.6611 17.4277 19.7529 17.5195 19.7529 17.6328C19.7529 17.7461 19.6611 17.8379 19.5479 17.8379Z" fill="black"/>
<path d="M19.5 23.1553H15.5303C15.417 23.1553 15.3252 23.0635 15.3252 22.9502C15.3252 22.8369 15.417 22.7451 15.5303 22.7451H19.5C19.6133 22.7451 19.7051 22.8369 19.7051 22.9502C19.7051 23.0635 19.6132 23.1553 19.5 23.1553Z" fill="black"/>
<path d="M21.6331 18.6201C21.5643 18.6201 21.4972 18.5855 21.4584 18.5227C21.3989 18.4263 21.4288 18.3 21.5251 18.2405C21.6444 18.1668 21.7563 18.0819 21.8576 17.9883C22.0099 17.8472 22.1404 17.6837 22.2452 17.5021L23.4095 15.4856C23.5763 15.1967 23.4769 14.8261 23.1881 14.6593L20.0141 12.8269C19.7253 12.6602 19.3547 12.7594 19.1879 13.0483L18.3701 14.4647C18.3306 14.5331 18.2555 14.5726 18.1769 14.5667C17.659 14.5271 16.5186 13.9613 15.6242 13.4449C14.7298 12.9285 13.6696 12.2239 13.3764 11.7951C13.3318 11.7299 13.3286 11.6451 13.3681 11.5768L14.1858 10.1604C14.3526 9.87155 14.2533 9.50095 13.9644 9.33415L10.7907 7.50163C10.5018 7.33483 10.1312 7.43415 9.96444 7.72302L8.80018 9.73962C8.6954 9.92116 8.61893 10.1159 8.57303 10.3184C8.30975 11.4795 9.08954 12.6575 9.79012 13.4414C10.7005 14.4599 12.5151 15.7686 14.5258 16.8566C14.6254 16.9105 14.6625 17.0349 14.6086 17.1345C14.5547 17.2341 14.4303 17.2712 14.3306 17.2174C13.3532 16.6884 12.3958 16.0934 11.5619 15.4967C10.6818 14.867 9.96346 14.2508 9.48436 13.7147C9.00897 13.1828 8.65135 12.6535 8.42147 12.1415C8.12069 11.4714 8.03709 10.8275 8.17313 10.2278C8.22821 9.98513 8.31971 9.75192 8.4451 9.53464L9.60936 7.51804C9.88924 7.03337 10.5112 6.86667 10.9959 7.14655L14.1698 8.97897C14.6545 9.25876 14.8212 9.88083 14.5413 10.3655L13.7936 11.6605C14.0894 11.985 14.8746 12.5383 15.8296 13.0897C16.7846 13.6411 17.6563 14.0444 18.0852 14.1383L18.8329 12.8433C19.1128 12.3587 19.7348 12.192 20.2194 12.4718L23.3933 14.3043C23.878 14.5841 24.0447 15.2061 23.7648 15.6908L22.6006 17.7074C22.4751 17.9247 22.3189 18.1205 22.1363 18.2895C22.0157 18.4011 21.8826 18.5021 21.7407 18.5897C21.7071 18.6102 21.6698 18.6201 21.6331 18.6201Z" fill="black"/>
<path d="M12.8 10.2199C12.7652 10.2199 12.7299 10.211 12.6976 10.1923L9.40093 8.28902C9.30289 8.23238 9.2692 8.10699 9.32584 8.00884C9.38248 7.9108 9.50787 7.87711 9.60601 7.93375L12.9027 9.83707C13.0007 9.89371 13.0344 10.0191 12.9778 10.1172C12.9398 10.1831 12.8709 10.2199 12.8 10.2199Z" fill="black"/>
<path d="M23.3034 16.284C23.2686 16.284 23.2334 16.2752 23.201 16.2565L19.9044 14.3532C19.8063 14.2965 19.7726 14.1712 19.8293 14.073C19.8859 13.975 20.0113 13.9414 20.1094 13.9979L23.4061 15.9012C23.5042 15.9579 23.5378 16.0833 23.4812 16.1814C23.4431 16.2473 23.3742 16.284 23.3034 16.284Z" fill="black"/>
<path d="M17.5391 24.999C16.9054 24.999 16.2897 24.8742 15.7093 24.6279C15.1491 24.3903 14.6456 24.0504 14.2129 23.6177C13.7802 23.185 13.4402 22.6814 13.2026 22.1213C12.9564 21.5408 12.8315 20.9252 12.8315 20.2915C12.8315 19.6578 12.9563 19.0422 13.2026 18.4617C13.4402 17.9016 13.7802 17.398 14.2129 16.9653C14.6456 16.5326 15.1491 16.1927 15.7093 15.9551C16.2897 15.7089 16.9054 15.584 17.5391 15.584C18.1728 15.584 18.7884 15.7088 19.3688 15.9551C19.929 16.1927 20.4325 16.5326 20.8652 16.9653C21.2979 17.398 21.6379 17.9016 21.8755 18.4617C22.1217 19.0422 22.2466 19.6578 22.2466 20.2915C22.2466 20.9252 22.1218 21.5408 21.8755 22.1213C21.6379 22.6814 21.2979 23.185 20.8652 23.6177C20.4325 24.0504 19.929 24.3903 19.3688 24.6279C18.7885 24.8742 18.1729 24.999 17.5391 24.999ZM17.5391 15.994C15.1694 15.994 13.2417 17.9219 13.2417 20.2914C13.2417 22.6609 15.1695 24.5888 17.5391 24.5888C19.9087 24.5888 21.8364 22.6609 21.8364 20.2914C21.8364 17.9219 19.9087 15.994 17.5391 15.994Z" fill="black"/>
</svg>
