<svg width="67" height="67" viewBox="0 0 67 67" fill="none" xmlns="http://www.w3.org/2000/svg">
<path d="M34.9577 48.9935H32.0423C31.0092 48.9935 30.1688 48.153 30.1688 47.12C30.1688 45.9819 29.432 45.2712 28.7427 44.9856C28.0534 44.7 27.0299 44.6816 26.2252 45.4864C25.8714 45.8402 25.4008 46.0351 24.9002 46.0351C24.3997 46.0351 23.9291 45.8401 23.5754 45.4862L21.5139 43.4248C20.7834 42.6942 20.7834 41.5056 21.5139 40.775C22.3173 39.9717 22.2981 38.9482 22.0124 38.2584C21.7265 37.5686 21.0165 36.8313 19.8803 36.8313C18.8472 36.8313 18.0068 35.9908 18.0068 34.9578V32.0425C18.0068 31.0094 18.8473 30.169 19.8803 30.169C21.0165 30.169 21.7265 29.4318 22.0124 28.742C22.2982 28.0521 22.3173 27.0287 21.5139 26.2254C21.16 25.8716 20.9652 25.401 20.9652 24.9005C20.9652 24.4 21.1602 23.9294 21.514 23.5757L23.5754 21.5141C23.9291 21.1604 24.3997 20.9654 24.9002 20.9654C25.4008 20.9654 25.8714 21.1603 26.2252 21.5141C27.0284 22.3176 28.0519 22.2981 28.7418 22.0127C29.4315 21.7269 30.1688 21.0168 30.1688 19.8807C30.1688 18.8475 31.0093 18.0071 32.0423 18.0071H34.9576C35.9907 18.0071 36.8311 18.8476 36.8311 19.8807C36.8311 21.0168 37.5683 21.7268 38.2581 22.0127C38.9481 22.2984 39.9717 22.3175 40.7748 21.5141C41.5055 20.7838 42.6938 20.7837 43.4246 21.5141L45.4861 23.5757C45.8398 23.9294 46.0348 24.4 46.0348 24.9005C46.0348 25.401 45.84 25.8716 45.4861 26.2254C44.6827 27.0288 44.7019 28.0521 44.9876 28.742C45.2733 29.4318 45.9834 30.169 47.1195 30.169C48.1526 30.169 48.993 31.0095 48.993 32.0425V34.9578C48.993 35.991 48.1525 36.8313 47.1195 36.8313C45.9834 36.8313 45.2735 37.5686 44.9876 38.2584C44.7018 38.9482 44.6827 39.9718 45.4861 40.775C46.2166 41.5056 46.2166 42.6942 45.4861 43.4248L43.4246 45.4864C42.6937 46.217 41.5054 46.2167 40.7748 45.4864C39.9715 44.6829 38.9483 44.7023 38.2581 44.9878C37.5683 45.2737 36.8311 45.9838 36.8311 47.1199C36.8312 48.153 35.9907 48.9935 34.9577 48.9935ZM27.8323 42.9672C28.3697 42.9672 28.9151 43.074 29.4437 43.293C31.0211 43.9463 32.0008 45.4127 32.0008 47.1199C32.0008 47.1428 32.0195 47.1614 32.0423 47.1614H34.9576C34.9805 47.1614 34.9991 47.1427 34.9991 47.1199C34.9991 45.4144 35.9792 43.9489 37.5571 43.2953C39.1351 42.6414 40.8643 42.9849 42.0704 44.1907C42.0864 44.207 42.1128 44.2072 42.1291 44.1907L44.1906 42.1292C44.2068 42.1131 44.2068 42.0866 44.1906 42.0705C42.9846 40.8644 42.6415 39.1351 43.2951 37.5572C43.9487 35.9793 45.414 34.9992 47.1196 34.9992C47.1425 34.9992 47.1611 34.9805 47.1611 34.9577V32.0424C47.1611 32.0195 47.1424 32.0009 47.1196 32.0009C45.4142 32.0009 43.9488 31.0208 43.2951 29.4429C42.6415 27.865 42.9846 26.1357 44.1906 24.9297C44.1943 24.9261 44.2029 24.9175 44.2029 24.9002C44.2029 24.8831 44.1945 24.8747 44.1908 24.8709L42.1291 22.8094C42.1128 22.7929 42.0864 22.7931 42.0704 22.8094C40.8642 24.0154 39.1347 24.3585 37.5571 23.7048C35.9792 23.0513 34.9991 21.586 34.9991 19.8803C34.9991 19.8573 34.9803 19.8387 34.9576 19.8387H32.0423C32.0194 19.8387 32.0008 19.8574 32.0008 19.8803C32.0008 21.5858 31.0207 23.0512 29.4428 23.7048C27.8647 24.3586 26.1356 24.0151 24.9296 22.8094C24.926 22.8057 24.9174 22.7971 24.9001 22.7971C24.883 22.7971 24.8746 22.8054 24.8708 22.8092L22.8092 24.8709C22.8054 24.8746 22.7969 24.8831 22.7969 24.9002C22.7969 24.9175 22.8054 24.926 22.8092 24.9297C24.0151 26.1357 24.3584 27.8651 23.7047 29.4429C23.0512 31.0208 21.5857 32.0009 19.8801 32.0009C19.8572 32.0009 19.8386 32.0196 19.8386 32.0424V34.9577C19.8386 34.9806 19.8573 34.9992 19.8801 34.9992C21.5856 34.9992 23.0511 35.9793 23.7047 37.5572C24.3584 39.1352 24.0152 40.8645 22.8092 42.0705C22.793 42.0866 22.793 42.1131 22.8092 42.1292L24.8708 44.1907C24.8745 44.1945 24.883 44.203 24.9001 44.203C24.9174 44.203 24.9259 44.1945 24.9296 44.1907C25.7322 43.3883 26.766 42.9672 27.8323 42.9672ZM33.5001 41.5399C29.0669 41.5399 25.4603 37.9332 25.4603 33.5002C25.4603 29.0672 29.0669 25.4604 33.5001 25.4604C37.9332 25.4604 41.5398 29.0671 41.5398 33.5002C41.5398 37.9333 37.9332 41.5399 33.5001 41.5399ZM33.5001 27.2925C30.0772 27.2925 27.2924 30.0772 27.2924 33.5002C27.2924 36.9232 30.077 39.7079 33.5001 39.7079C36.9231 39.7079 39.7078 36.9231 39.7078 33.5002C39.7078 30.0773 36.923 27.2925 33.5001 27.2925Z" fill="black"/>
<path d="M59.1146 63.9415C59.0049 63.9415 58.8941 63.9219 58.7876 63.881C58.4329 63.7453 58.1988 63.4051 58.1988 63.0255V60.2125H33.5C18.7706 60.2125 6.78745 48.2293 6.78745 33.5001C6.78745 27.1841 9.03417 21.0547 13.1138 16.2406C13.2879 16.0353 13.5433 15.9167 13.8126 15.9167H21.8562C22.2561 15.9167 22.6097 16.176 22.7298 16.5574C22.85 16.9388 22.709 17.354 22.3814 17.5832C17.1864 21.2194 14.085 27.1697 14.085 33.5001C14.085 44.2057 22.7947 52.9153 33.5002 52.9153H58.199V50.1023C58.199 49.7227 58.4331 49.3825 58.7877 49.2468C59.1426 49.1111 59.5437 49.2084 59.7971 49.4909L65.5886 55.9525C65.9004 56.3005 65.9004 56.8273 65.5886 57.1753L59.7971 63.6368C59.6198 63.8346 59.37 63.9415 59.1146 63.9415ZM14.2417 17.7489C10.6131 22.1818 8.61948 27.7581 8.61948 33.5001C8.61948 47.2192 19.7809 58.3805 33.5 58.3805H59.1148C59.6207 58.3805 60.0309 58.7906 60.0309 59.2965V60.631L63.6761 56.5639L60.0309 52.4968V53.8313C60.0309 54.3372 59.6207 54.7473 59.1148 54.7473H33.5C21.7843 54.7473 12.2528 45.2158 12.2528 33.5001C12.2528 27.4684 14.8252 21.7525 19.2425 17.7489H14.2417ZM7.88536 63.9415C7.62992 63.9415 7.38024 63.8346 7.20293 63.6368L1.41161 57.1753C1.09977 56.8273 1.09977 56.3005 1.41161 55.9525L7.20293 49.4909C7.45627 49.2084 7.85748 49.1111 8.21237 49.2468C8.567 49.3825 8.80111 49.7227 8.80111 50.1023V52.9153H12.1806C12.4309 52.9153 12.6704 53.0177 12.8432 53.199C14.8531 55.3056 17.1628 57.0873 19.708 58.4949C20.0735 58.697 20.256 59.1209 20.1516 59.5254C20.0473 59.9299 19.6825 60.2125 19.2648 60.2125H8.80111V63.0255C8.80111 63.4051 8.567 63.7453 8.21237 63.881C8.10572 63.9219 7.99502 63.9415 7.88536 63.9415ZM3.32373 56.5639L6.96895 60.631V59.2965C6.96895 58.7906 7.37906 58.3805 7.88496 58.3805H16.0715C14.5386 57.3056 13.1069 56.0904 11.7919 54.7473H7.8851C7.37919 54.7473 6.96908 54.3372 6.96908 53.8313V52.4968L3.32373 56.5639ZM53.1874 51.0832H45.1439C44.744 51.0832 44.3904 50.824 44.2703 50.4426C44.15 50.0612 44.2911 49.646 44.6186 49.4167C49.8135 45.7806 52.915 39.8304 52.915 33.4999C52.915 22.7943 44.2054 14.0848 33.4999 14.0848H8.80111V16.8977C8.80111 17.2773 8.567 17.6175 8.21237 17.7532C7.85748 17.8889 7.45627 17.7916 7.20293 17.509L1.41161 11.0476C1.09977 10.6996 1.09977 10.1728 1.41161 9.82485L7.20293 3.36328C7.45627 3.08075 7.85748 2.98339 8.21237 3.11909C8.567 3.25479 8.80111 3.59503 8.80111 3.97465V6.7876H33.5C48.2293 6.7876 60.2125 18.7708 60.2125 33.5001C60.2125 39.816 57.9658 45.9453 53.8862 50.7595C53.7122 50.9648 53.4567 51.0832 53.1874 51.0832ZM47.7576 49.2512H52.7583C56.3869 44.8183 58.3805 39.2419 58.3805 33.5001C58.3805 19.7809 47.2192 8.61963 33.5 8.61963H7.8851C7.37919 8.61963 6.96908 8.20952 6.96908 7.70362V6.36912L3.32386 10.4362L6.96908 14.5033V13.169C6.96908 12.6631 7.37919 12.2529 7.8851 12.2529H33.5C45.2157 12.2529 54.7471 21.7844 54.7471 33.5001C54.7471 39.5318 52.1748 45.2477 47.7576 49.2512ZM59.1146 17.8138C59.0049 17.8138 58.8941 17.7942 58.7876 17.7534C58.4329 17.6177 58.1988 17.2774 58.1988 16.8978V14.085H54.8195C54.569 14.085 54.3296 13.9825 54.1567 13.8011C52.1479 11.6952 49.8383 9.91344 47.2921 8.50513C46.9266 8.30296 46.744 7.87923 46.8485 7.47475C46.9528 7.07026 47.3176 6.7876 47.7353 6.7876H58.1988V3.97465C58.1988 3.59503 58.4329 3.25479 58.7876 3.11909C59.1425 2.98339 59.5435 3.08075 59.797 3.36328L65.5885 9.82485C65.9003 10.1728 65.9003 10.6996 65.5885 11.0476L59.797 17.5092C59.6198 17.7069 59.37 17.8138 59.1146 17.8138ZM55.2082 12.2529H59.1148C59.6207 12.2529 60.0309 12.6631 60.0309 13.169V14.5033L63.6761 10.4362L60.0309 6.36912V7.70362C60.0309 8.20952 59.6207 8.61963 59.1148 8.61963H50.9284C52.4619 9.69491 53.8936 10.9098 55.2082 12.2529Z" fill="black"/>
</svg>
