<svg width="80" height="80" viewBox="0 0 80 80" fill="none" xmlns="http://www.w3.org/2000/svg">
<path d="M77.1555 68.6496C76.8683 68.5504 76.5475 68.6256 76.3315 68.8408L74.3683 70.804L67.6531 64.0888C67.3531 63.7888 66.8219 63.7888 66.5219 64.0888L64.0891 66.5216C63.7763 66.8344 63.7763 67.34 64.0891 67.6528L70.8043 74.3672L68.8411 76.3304C68.6251 76.5464 68.5515 76.8656 68.6499 77.1544C68.7483 77.4424 69.0027 77.6504 69.3051 77.6896L77.8979 78.7928C77.9315 78.7968 77.9659 78.7992 77.9995 78.7992C78.2107 78.7992 78.4147 78.716 78.5651 78.5648C78.7403 78.3896 78.8243 78.1432 78.7931 77.8976L77.6899 69.3048C77.6515 69.0016 77.4443 68.748 77.1555 68.6496ZM71.1251 76.3104L72.5019 74.9328C72.8147 74.62 72.8147 74.1144 72.5019 73.8016L65.7867 67.0872L67.0875 65.7856L73.8027 72.5008C74.1027 72.8008 74.6339 72.8008 74.9339 72.5008L76.3107 71.124L77.0747 77.0744L71.1251 76.3104Z" fill="black"/>
<path d="M44.8785 23.8071C41.7065 22.8543 38.2945 22.8543 35.1225 23.8071C28.0377 25.9335 23.0889 32.5919 23.0889 39.9999C23.0889 49.3247 30.6753 56.9111 40.0001 56.9111C49.3249 56.9111 56.9113 49.3255 56.9113 39.9999C56.9113 32.5919 51.9633 25.9335 44.8785 23.8071ZM40.0001 55.3111C31.5577 55.3111 24.6889 48.4423 24.6889 39.9999C24.6889 33.2927 29.1681 27.2647 35.5825 25.3399C37.0193 24.9079 38.5057 24.6895 40.0001 24.6895C41.4945 24.6895 42.9817 24.9079 44.4177 25.3399C50.8321 27.2647 55.3113 33.2927 55.3113 39.9999C55.3113 48.4423 48.4425 55.3111 40.0001 55.3111Z" fill="black"/>
<path d="M66.5221 15.9104C66.6725 16.0608 66.8757 16.1448 67.0877 16.1448C67.2997 16.1448 67.5037 16.0608 67.6533 15.9104L74.3685 9.19516L76.3317 11.1584C76.5477 11.3744 76.8685 11.4472 77.1557 11.3496C77.4445 11.2512 77.6525 10.9976 77.6909 10.6944L78.7941 2.10156C78.8261 1.85596 78.7421 1.60956 78.5661 1.43436C78.3901 1.25916 78.1421 1.17836 77.8989 1.20636L69.3061 2.30956C69.0037 2.34876 68.7493 2.55676 68.6509 2.84476C68.5525 3.13356 68.6269 3.45356 68.8421 3.66876L70.8053 5.63196L64.0901 12.3464C63.7773 12.6592 63.7773 13.1648 64.0901 13.4776L66.5221 15.9104ZM72.5013 6.19756C72.8141 5.88476 72.8141 5.37916 72.5013 5.06636L71.1245 3.68876L77.0749 2.92476L76.3109 8.87516L74.9341 7.49836C74.7837 7.34796 74.5805 7.26396 74.3685 7.26396C74.1565 7.26396 73.9525 7.34796 73.8029 7.49836L67.0877 14.2136L65.7869 12.912L72.5013 6.19756Z" fill="black"/>
<path d="M2.84499 11.3504C3.13299 11.448 3.45299 11.3744 3.66899 11.1592L5.63219 9.19596L12.3474 15.9112C12.4978 16.0616 12.701 16.1456 12.913 16.1456C13.125 16.1456 13.329 16.0616 13.4786 15.9112L15.9114 13.4784C16.2242 13.1656 16.2242 12.66 15.9114 12.3472L9.19539 5.63196L11.1586 3.66876C11.3746 3.45276 11.4482 3.13356 11.3498 2.84476C11.2514 2.55676 10.997 2.34876 10.6946 2.30956L2.10179 1.20636C1.85779 1.17756 1.60899 1.25916 1.43459 1.43436C1.25939 1.60956 1.17539 1.85596 1.20659 2.10156L2.30979 10.6944C2.34819 10.9976 2.55619 11.252 2.84499 11.3504ZM8.87539 3.68876L7.49859 5.06636C7.18579 5.37916 7.18579 5.88476 7.49859 6.19756L14.2138 12.912L12.913 14.2136L6.19779 7.49836C6.04739 7.34796 5.84419 7.26396 5.63219 7.26396C5.42019 7.26396 5.21619 7.34796 5.06659 7.49836L3.68979 8.87516L2.92579 2.92476L8.87619 3.68876H8.87539Z" fill="black"/>
<path d="M59.6785 52.2015C61.0209 50.0671 61.9825 47.7495 62.5417 45.2999L69.5033 42.8183C69.7937 42.7143 69.9985 42.4535 70.0305 42.1463C70.0961 41.5135 70.1281 40.8111 70.1281 39.9991C70.1281 39.1871 70.0961 38.4847 70.0305 37.8519C69.9985 37.5447 69.7937 37.2831 69.5025 37.1799L62.5433 34.7071C61.9897 32.2839 61.0265 29.9631 59.6769 27.7991L62.8561 21.1551C62.9921 20.8719 62.9489 20.5343 62.7457 20.2935C61.7937 19.1671 60.7785 18.1431 59.7281 17.2535C59.4881 17.0495 59.1497 17.0055 58.8665 17.1415L52.2129 20.3151C50.0465 18.9655 47.7225 18.0047 45.2913 17.4543L42.8185 10.4959C42.7153 10.2055 42.4537 9.99989 42.1473 9.96789C41.5145 9.90309 40.8121 9.87109 40.0001 9.87109C39.1881 9.87109 38.4857 9.90309 37.8529 9.96789C37.5465 9.99989 37.2849 10.2055 37.1817 10.4959L34.7089 17.4543C32.2777 18.0047 29.9529 18.9663 27.7873 20.3151L21.1337 17.1415C20.8505 17.0055 20.5121 17.0495 20.2721 17.2535C19.2217 18.1431 18.2065 19.1671 17.2545 20.2935C17.0513 20.5343 17.0081 20.8719 17.1441 21.1551L20.3233 27.7991C18.9729 29.9631 18.0105 32.2831 17.4569 34.7071L10.4977 37.1799C10.2073 37.2831 10.0017 37.5447 9.96967 37.8519C9.90407 38.4847 9.87207 39.1871 9.87207 39.9991C9.87207 40.8111 9.90407 41.5135 9.96967 42.1463C10.0017 42.4535 10.2065 42.7143 10.4969 42.8183L17.4585 45.2999C18.0177 47.7495 18.9793 50.0671 20.3217 52.2015L17.1433 58.8431C17.0089 59.1247 17.0497 59.4583 17.2481 59.6975C18.1105 60.7415 19.1073 61.7383 20.2945 62.7447C20.5345 62.9487 20.8713 62.9919 21.1569 62.8567L27.7977 59.6783C29.9345 61.0223 32.2553 61.9847 34.7081 62.5439L37.1809 69.5023C37.2841 69.7927 37.5457 69.9983 37.8521 70.0303C38.4849 70.0951 39.1873 70.1271 39.9993 70.1271C40.8113 70.1271 41.5137 70.0951 42.1465 70.0303C42.4529 69.9983 42.7145 69.7927 42.8177 69.5023L45.2905 62.5439C47.7425 61.9847 50.0633 61.0223 52.2009 59.6783L58.8417 62.8567C59.1257 62.9919 59.4633 62.9487 59.7041 62.7447C60.8913 61.7383 61.8881 60.7415 62.7505 59.6975C62.9489 59.4575 62.9897 59.1239 62.8553 58.8431L59.6769 52.2015H59.6785ZM59.0617 61.1863L52.5033 58.0479C52.2553 57.9295 51.9265 57.9495 51.6961 58.1007C49.4993 59.5423 47.0865 60.5423 44.5249 61.0719C44.2513 61.1287 44.0265 61.3239 43.9329 61.5879L41.4833 68.4807C40.5881 68.5431 39.4113 68.5431 38.5161 68.4807L36.0665 61.5879C35.9729 61.3247 35.7489 61.1295 35.4745 61.0719C32.9129 60.5423 30.5001 59.5423 28.3033 58.1007C28.0729 57.9503 27.7449 57.9287 27.4961 58.0479L20.9377 61.1863C20.1369 60.4831 19.4353 59.7831 18.8097 59.0655L21.9505 52.5031C22.0017 52.3951 22.0289 52.2535 22.0289 52.1343C22.0289 51.9783 21.9833 51.8255 21.8977 51.6951C20.4561 49.4991 19.4569 47.0863 18.9265 44.5239C18.8657 44.2311 18.6353 44.0039 18.3537 43.9207L11.5185 41.4831C11.4873 41.0359 11.4721 40.5455 11.4721 39.9999C11.4721 39.4543 11.4873 38.9639 11.5185 38.5167L18.4113 36.0671C18.6745 35.9735 18.8697 35.7495 18.9265 35.4759C19.4497 32.9479 20.4505 30.5335 21.9001 28.3015C21.9841 28.1719 22.0289 27.9967 22.0289 27.8423C22.0289 27.7231 22.0017 27.6047 21.9505 27.4967L18.8121 20.9375C19.4873 20.1687 20.1929 19.4567 20.9169 18.8135L27.4977 21.9519C27.7497 22.0719 28.0449 22.0519 28.2777 21.9015C30.5129 20.4495 32.9345 19.4495 35.4745 18.9279C35.7489 18.8719 35.9737 18.6767 36.0673 18.4119L38.5169 11.5191C39.4121 11.4567 40.5889 11.4567 41.4841 11.5191L43.9337 18.4119C44.0273 18.6759 44.2521 18.8711 44.5265 18.9279C47.0665 19.4487 49.4873 20.4495 51.7233 21.9015C51.9561 22.0519 52.2521 22.0727 52.5033 21.9519L59.0841 18.8135C59.8081 19.4575 60.5137 20.1687 61.1889 20.9375L58.0505 27.4967C57.9993 27.6047 57.9721 27.7463 57.9721 27.8655C57.9721 28.0199 58.0169 28.1719 58.1009 28.3015C59.5505 30.5335 60.5513 32.9479 61.0745 35.4759C61.1313 35.7495 61.3265 35.9735 61.5897 36.0671L68.4825 38.5167C68.5137 38.9647 68.5289 39.4543 68.5289 39.9999C68.5289 40.5455 68.5137 41.0367 68.4825 41.4831L61.6969 43.9023C61.3889 43.9655 61.1401 44.2063 61.0745 44.5231C60.5441 47.0855 59.5441 49.4983 58.1033 51.6943C58.0177 51.8247 57.9721 52.0007 57.9721 52.1567C57.9721 52.2759 57.9993 52.3943 58.0505 52.5023L61.1913 59.0647C60.5657 59.7823 59.8641 60.4823 59.0633 61.1855L59.0617 61.1863Z" fill="black"/>
<path d="M13.4779 64.0896C13.3275 63.9392 13.1243 63.8552 12.9123 63.8552C12.7003 63.8552 12.4963 63.9392 12.3467 64.0896L5.6315 70.8048L3.6683 68.8416C3.4523 68.6256 3.1323 68.5512 2.8443 68.6504C2.5555 68.7488 2.3475 69.0024 2.3091 69.3056L1.2059 77.8984C1.1739 78.144 1.2579 78.3904 1.4339 78.5656C1.5843 78.716 1.7883 78.8 1.9995 78.8C2.0331 78.8 2.0675 78.7976 2.1011 78.7936L10.6939 77.6904C10.9963 77.6512 11.2507 77.4432 11.3491 77.1552C11.4475 76.8664 11.3731 76.5464 11.1579 76.3312L9.1947 74.368L15.9099 67.6536C16.2227 67.3408 16.2227 66.8352 15.9099 66.5224L13.4779 64.0896ZM7.4987 73.8024C7.1859 74.1152 7.1859 74.6208 7.4987 74.9336L8.8755 76.3112L2.9251 77.0752L3.6891 71.1248L5.0659 72.5016C5.2163 72.652 5.4195 72.736 5.6315 72.736C5.8435 72.736 6.0475 72.652 6.1971 72.5016L12.9123 65.7864L14.2131 67.088L7.4979 73.8024H7.4987Z" fill="black"/>
<path d="M40.0003 32.8712C41.7451 32.8712 43.1651 34.2904 43.1651 36.0352C43.1651 36.4776 43.5235 36.8352 43.9651 36.8352C44.4067 36.8352 44.7651 36.4776 44.7651 36.0352C44.7651 33.68 43.0443 31.7232 40.7955 31.3432V28.5688C40.7955 28.1264 40.4371 27.7688 39.9955 27.7688C39.5539 27.7688 39.1955 28.1264 39.1955 28.5688V31.3448C36.9515 31.7296 35.2363 33.684 35.2363 36.0352C35.2363 38.6624 37.3739 40.8 40.0011 40.8C41.7459 40.8 43.1659 42.2192 43.1659 43.9648C43.1659 45.7104 41.7467 47.1288 40.0011 47.1288C38.2555 47.1288 36.8363 45.7096 36.8363 43.9648C36.8363 43.5224 36.4779 43.1648 36.0363 43.1648C35.5947 43.1648 35.2363 43.5224 35.2363 43.9648C35.2363 46.316 36.9515 48.2712 39.1955 48.6552V51.4312C39.1955 51.8736 39.5539 52.2312 39.9955 52.2312C40.4371 52.2312 40.7955 51.8736 40.7955 51.4312V48.6568C43.0451 48.2768 44.7651 46.32 44.7651 43.9648C44.7651 41.3376 42.6275 39.2 40.0003 39.2C38.2555 39.2 36.8355 37.7808 36.8355 36.0352C36.8355 34.2896 38.2547 32.8712 40.0003 32.8712Z" fill="black"/>
</svg>
