<svg width="32" height="32" viewBox="0 0 32 32" fill="none" xmlns="http://www.w3.org/2000/svg">
<rect width="32" height="32" rx="16" fill="#FFC727"/>
<g clip-path="url(#clip0_3004_2533)">
<g clip-path="url(#clip1_3004_2533)">
<path d="M15.8437 18.4531H14.2761C14.6447 17.9932 14.8593 17.4161 14.8593 16.8125V15.8281C15.0405 15.8281 15.1874 15.6814 15.1874 15.5C15.1874 13.8716 13.8626 12.5469 12.2343 12.5469C10.606 12.5469 9.2812 13.8716 9.2812 15.5C9.2812 15.6814 9.42812 15.8281 9.60932 15.8281V16.8125C9.60932 17.4165 9.81298 17.9887 10.1862 18.4531C10.1862 18.4531 8.63277 18.4531 8.62498 18.4531C8.40746 18.4531 8.24803 18.6669 8.3106 18.8755L9.19642 21.8282C8.86005 21.9849 8.62495 22.3239 8.62495 22.7188C8.62495 23.2616 9.06651 23.7031 9.60932 23.7031H14.8593C15.4021 23.7031 15.8437 23.2616 15.8437 22.7188C15.8437 22.3239 15.6086 21.9849 15.2722 21.8282C15.2722 21.8282 16.1527 18.8934 16.158 18.8755C16.2169 18.6792 16.0666 18.4531 15.8437 18.4531ZM12.2343 13.2031C13.3892 13.2031 14.3478 14.0596 14.5076 15.1712C14.3117 15.1664 14.1161 15.1398 13.9253 15.0924C13.5092 14.9883 13.2187 14.6162 13.2187 14.1875C13.2187 14.0462 13.1283 13.9209 12.9944 13.8764C12.8606 13.8315 12.7131 13.878 12.6281 13.9904C12.0731 14.7303 11.19 15.1719 10.2656 15.1719H9.96084C10.1206 14.0603 11.0792 13.2031 12.2343 13.2031ZM10.842 18.2048C10.4703 17.8328 10.2656 17.3383 10.2656 16.8125V15.8281C11.1761 15.8281 12.0538 15.4776 12.7151 14.8684C12.9138 15.2879 13.2922 15.6106 13.7662 15.7291C13.91 15.765 14.0561 15.7891 14.2031 15.8055V16.8125C14.2031 17.4834 13.871 18.0889 13.3147 18.4531H11.1532C11.0432 18.3811 10.936 18.2984 10.842 18.2048ZM14.8593 23.0469H9.60932C9.42844 23.0469 9.2812 22.8998 9.2812 22.7188C9.2812 22.5377 9.42844 22.3906 9.60932 22.3906H14.8593C15.0402 22.3906 15.1874 22.5377 15.1874 22.7188C15.1874 22.8998 15.0402 23.0469 14.8593 23.0469ZM14.6152 21.7344H9.8535L9.06603 19.1094H15.4026L14.6152 21.7344Z" fill="black"/>
<path d="M24.6337 18.5885C24.5739 18.5082 24.4802 18.4531 24.3747 18.4531H22.8135C23.1867 17.9889 23.3904 17.4166 23.3904 16.8125V15.8281C23.5717 15.8281 23.7185 15.6814 23.7185 15.5C23.7185 13.8716 22.3938 12.5469 20.7654 12.5469C19.1369 12.5469 17.8122 13.8716 17.8122 15.5C17.8122 15.6814 17.959 15.8281 18.1404 15.8281V16.8125C18.1404 17.4161 18.355 17.9932 18.7237 18.4531C18.7237 18.4531 17.1669 18.4531 17.156 18.4531C16.9428 18.4531 16.7805 18.6717 16.8416 18.8755L17.7275 21.8282C17.3911 21.9849 17.156 22.3239 17.156 22.7188C17.156 23.2616 17.5975 23.7031 18.1404 23.7031H23.3904C23.9332 23.7031 24.3747 23.2616 24.3747 22.7188C24.3747 22.3239 24.1396 21.9849 23.8033 21.8282L24.6891 18.8755C24.7194 18.7744 24.6935 18.6688 24.6337 18.5885ZM20.7654 13.2031C21.9205 13.2031 22.8793 14.0603 23.0388 15.1719H22.7341C21.8097 15.1719 20.9266 14.7303 20.3716 13.9905C20.1859 13.7429 19.781 13.8793 19.781 14.1875C19.781 14.6162 19.4903 14.9883 19.0747 15.0921C18.8838 15.1398 18.688 15.1664 18.4919 15.1712C18.6521 14.06 19.6105 13.2031 20.7654 13.2031ZM18.7966 16.8125V15.8055C18.9436 15.789 19.0898 15.7648 19.2337 15.7288C19.7076 15.6106 20.086 15.2879 20.2844 14.8684C20.9458 15.4776 21.8237 15.8281 22.7341 15.8281V16.8125C22.7341 17.3383 22.5293 17.8328 22.158 18.2045C22.0638 18.2983 21.9565 18.3811 21.8466 18.4531H19.685C19.1286 18.0889 18.7966 17.4834 18.7966 16.8125ZM23.3904 23.0469H18.1404C17.9593 23.0469 17.8122 22.8998 17.8122 22.7188C17.8122 22.5377 17.9593 22.3906 18.1404 22.3906H23.3904C23.5714 22.3906 23.7185 22.5377 23.7185 22.7188C23.7185 22.8998 23.5714 23.0469 23.3904 23.0469ZM23.1462 21.7344H18.3845L17.5969 19.1094H23.9338L23.1462 21.7344Z" fill="black"/>
<path d="M13.2188 11.8906H19.7812C19.9626 11.8906 20.1094 11.7439 20.1094 11.5625V8.60938C20.1094 8.42801 19.9626 8.28125 19.7812 8.28125H16.0193L15.4605 7.44299C15.3996 7.35167 15.2972 7.29688 15.1875 7.29688H13.2188C13.0375 7.29688 12.8906 7.44364 12.8906 7.625V11.5625C12.8906 11.7439 13.0375 11.8906 13.2188 11.8906ZM13.5469 11.2344V10.25H19.4531V11.2344H13.5469ZM15.0119 7.95312L15.5707 8.79138C15.6316 8.88271 15.734 8.9375 15.8438 8.9375H19.4531V9.59375H13.5469V7.95312H15.0119Z" fill="black"/>
<path d="M21.0938 10.25H22.0781V11.8906C22.0781 12.072 22.2249 12.2188 22.4062 12.2188C22.5876 12.2188 22.7344 12.072 22.7344 11.8906V9.92188C22.7344 9.74051 22.5876 9.59375 22.4062 9.59375H21.0938C20.9124 9.59375 20.7656 9.74051 20.7656 9.92188C20.7656 10.1032 20.9124 10.25 21.0938 10.25Z" fill="black"/>
<path d="M10.5938 12.2188C10.775 12.2188 10.9219 12.072 10.9219 11.8906V10.25H11.9062C12.0875 10.25 12.2344 10.1032 12.2344 9.92188C12.2344 9.74051 12.0875 9.59375 11.9062 9.59375H10.5938C10.4125 9.59375 10.2656 9.74051 10.2656 9.92188V11.8906C10.2656 12.072 10.4125 12.2188 10.5938 12.2188Z" fill="black"/>
</g>
</g>
<defs>
<clipPath id="clip0_3004_2533">
<rect width="22" height="22" fill="white" transform="translate(5 5)"/>
</clipPath>
<clipPath id="clip1_3004_2533">
<rect width="22" height="22" fill="white" transform="translate(5 5)"/>
</clipPath>
</defs>
</svg>
