<svg width="81" height="80" viewBox="0 0 81 80" fill="none" xmlns="http://www.w3.org/2000/svg">
<mask id="mask0_2520_2840" style="mask-type:luminance" maskUnits="userSpaceOnUse" x="0" y="0" width="81" height="80">
<path d="M80.3334 0H0.333374V80H80.3334V0Z" fill="white"/>
</mask>
<g mask="url(#mask0_2520_2840)">
<path d="M40.3334 80C62.4248 80 80.3334 62.0914 80.3334 40C80.3334 17.9086 62.4248 0 40.3334 0C18.242 0 0.333374 17.9086 0.333374 40C0.333374 62.0914 18.242 80 40.3334 80Z" fill="#FFC727"/>
</g>
<path d="M27.4688 14.625C26.3291 14.625 25.2362 15.0859 24.4304 15.9064C23.6246 16.7269 23.1719 17.8397 23.1719 19V61C23.1719 62.1603 23.6246 63.2731 24.4304 64.0936C25.2362 64.9141 26.3291 65.375 27.4688 65.375H51.5312C52.6709 65.375 53.7638 64.9141 54.5696 64.0936C55.3754 63.2731 55.8281 62.1603 55.8281 61V19C55.8281 17.8397 55.3754 16.7269 54.5696 15.9064C53.7638 15.0859 52.6709 14.625 51.5312 14.625H27.4688ZM46.375 16.375V19H32.625V16.375H46.375ZM54.1094 19V61C54.1094 61.6962 53.8378 62.3639 53.3543 62.8562C52.8708 63.3484 52.215 63.625 51.5312 63.625H27.4688C26.785 63.625 26.1292 63.3484 25.6457 62.8562C25.1622 62.3639 24.8906 61.6962 24.8906 61V19C24.8906 18.3038 25.1622 17.6361 25.6457 17.1438C26.1292 16.6516 26.785 16.375 27.4688 16.375H30.9062V19.875C30.9062 20.1071 30.9968 20.3296 31.158 20.4937C31.3191 20.6578 31.5377 20.75 31.7656 20.75H47.2344C47.4623 20.75 47.6809 20.6578 47.842 20.4937C48.0032 20.3296 48.0938 20.1071 48.0938 19.875V16.375H51.5312C52.215 16.375 52.8708 16.6516 53.3543 17.1438C53.8378 17.6361 54.1094 18.3038 54.1094 19Z" fill="black"/>
<path d="M39.5 54.875C38.8201 54.875 38.1555 55.0803 37.5902 55.4649C37.0249 55.8494 36.5843 56.3961 36.3242 57.0356C36.064 57.6751 35.9959 58.3789 36.1286 59.0578C36.2612 59.7367 36.5886 60.3604 37.0693 60.8499C37.5501 61.3394 38.1626 61.6727 38.8294 61.8077C39.4962 61.9428 40.1874 61.8735 40.8155 61.6086C41.4436 61.3437 41.9805 60.8951 42.3582 60.3195C42.7359 59.7439 42.9375 59.0672 42.9375 58.375C42.9375 57.4467 42.5753 56.5565 41.9307 55.9001C41.286 55.2437 40.4117 54.875 39.5 54.875ZM39.5 60.125C39.1601 60.125 38.8278 60.0224 38.5451 59.8301C38.2625 59.6378 38.0422 59.3645 37.9121 59.0447C37.782 58.7249 37.748 58.3731 37.8143 58.0336C37.8806 57.6941 38.0443 57.3823 38.2847 57.1376C38.525 56.8928 38.8313 56.7261 39.1647 56.6586C39.4981 56.5911 39.8437 56.6258 40.1577 56.7582C40.4718 56.8907 40.7402 57.115 40.9291 57.4028C41.118 57.6905 41.2188 58.0289 41.2188 58.375C41.2188 58.8391 41.0377 59.2842 40.7153 59.6124C40.393 59.9406 39.9558 60.125 39.5 60.125Z" fill="black"/>
<path d="M39.5 40C40.6396 40 41.7325 39.5391 42.5383 38.7186C43.3442 37.8981 43.7969 36.7853 43.7969 35.625V30.375C43.7969 29.2147 43.3442 28.1019 42.5383 27.2814C41.7325 26.4609 40.6396 26 39.5 26C38.3604 26 37.2675 26.4609 36.4617 27.2814C35.6558 28.1019 35.2031 29.2147 35.2031 30.375V35.625C35.2031 36.7853 35.6558 37.8981 36.4617 38.7186C37.2675 39.5391 38.3604 40 39.5 40ZM36.9219 30.375C36.9219 29.6788 37.1935 29.0111 37.677 28.5188C38.1605 28.0266 38.8162 27.75 39.5 27.75C40.1838 27.75 40.8395 28.0266 41.323 28.5188C41.8065 29.0111 42.0781 29.6788 42.0781 30.375V35.625C42.0781 36.3212 41.8065 36.9889 41.323 37.4812C40.8395 37.9734 40.1838 38.25 39.5 38.25C38.8162 38.25 38.1605 37.9734 37.677 37.4812C37.1935 36.9889 36.9219 36.3212 36.9219 35.625V30.375Z" fill="black"/>
<path d="M45.5156 36.5C45.5156 38.1245 44.8818 39.6824 43.7537 40.831C42.6255 41.9797 41.0954 42.625 39.5 42.625C37.9046 42.625 36.3745 41.9797 35.2463 40.831C34.1182 39.6824 33.4844 38.1245 33.4844 36.5V32.125H31.7656V36.5C31.7665 38.4364 32.4681 40.3046 33.7364 41.7477C35.0046 43.1907 36.7506 44.1073 38.6406 44.3225V47H34.3438V48.75H44.6562V47H40.3594V44.3225C42.2494 44.1073 43.9954 43.1907 45.2636 41.7477C46.5319 40.3046 47.2335 38.4364 47.2344 36.5V32.125H45.5156V36.5Z" fill="black"/>
</svg>
