<svg width="88" height="88" viewBox="0 0 88 88" fill="none" xmlns="http://www.w3.org/2000/svg">
<path d="M68.75 50.875C59.6475 50.875 52.25 58.2725 52.25 67.375C52.25 76.4775 59.6475 83.875 68.75 83.875C72.1188 83.875 75.3637 82.8713 78.1 80.96C78.7187 80.52 78.8837 79.6675 78.4437 79.0488C78.0037 78.4163 77.1512 78.265 76.5325 78.705C74.25 80.2863 71.555 81.125 68.75 81.125C61.1737 81.125 55 74.9513 55 67.375C55 59.7987 61.1737 53.625 68.75 53.625C76.3263 53.625 82.5 59.7987 82.5 67.375C82.5 70.18 81.6613 72.875 80.08 75.1575C79.64 75.7762 79.805 76.6425 80.4238 77.0687C81.0425 77.495 81.9088 77.3437 82.335 76.725C84.2463 73.9887 85.25 70.7438 85.25 67.375C85.25 58.2725 77.8525 50.875 68.75 50.875Z" fill="black" stroke="black"/>
<path d="M74.5114 60.4313L66.3989 69.8913L62.9064 66.3988C62.3701 65.8626 61.5039 65.8626 60.9676 66.3988C60.4314 66.9351 60.4314 67.8013 60.9676 68.3376L65.5051 72.8751C65.7664 73.1363 66.1101 73.2738 66.4814 73.2738H66.5364C66.9214 73.2601 67.2789 73.0813 67.5264 72.7926L76.6014 62.2051C77.0964 61.6276 77.0276 60.7613 76.4501 60.2663C75.8726 59.7713 75.0064 59.8401 74.5114 60.4176V60.4313Z" fill="black" stroke="black"/>
<path d="M50.0087 54.9588C47.4512 56.7875 44.4125 57.75 41.25 57.75C32.9037 57.75 26.125 50.9713 26.125 42.625C26.125 34.2787 32.9037 27.5 41.25 27.5C49.5963 27.5 56.375 34.2787 56.375 42.625C56.375 45.7875 55.4125 48.8262 53.5838 51.3837C53.1438 52.0025 53.2813 52.855 53.9 53.295C54.5188 53.735 55.385 53.5975 55.8113 52.9787C57.97 49.9537 59.125 46.365 59.125 42.625C59.125 32.7662 51.1088 24.75 41.25 24.75C31.3912 24.75 23.375 32.7662 23.375 42.625C23.375 52.4838 31.3912 60.5 41.25 60.5C44.99 60.5 48.5787 59.3588 51.6037 57.1863C52.2225 56.7463 52.36 55.88 51.92 55.275C51.48 54.6563 50.6137 54.5188 50.0087 54.9588Z" fill="black" stroke="black"/>
<path d="M12.5814 53.6524C12.7327 53.6524 12.8839 53.6249 13.0352 53.5699C13.7502 53.3224 14.1352 52.5387 13.8739 51.8237C13.4889 50.7237 13.1727 49.5549 12.9389 48.3587C12.8289 47.8362 12.4439 47.4237 11.9214 47.2999L5.50016 45.6912V39.5862L11.9214 37.9774C12.4302 37.8537 12.8289 37.4274 12.9389 36.9187C13.6814 33.2474 15.1114 29.8099 17.1877 26.6887C17.4764 26.2487 17.4902 25.6712 17.2289 25.2174L13.8189 19.5249L18.1364 15.2074L23.8289 18.6174C24.2827 18.8924 24.8602 18.8787 25.3002 18.5762C28.4214 16.4862 31.8589 15.0562 35.5302 14.3274C36.0527 14.2174 36.4652 13.8324 36.5889 13.3099L38.1977 6.88867H44.3027L45.9114 13.3099C46.0352 13.8324 46.4614 14.2174 46.9839 14.3274C48.1802 14.5612 49.3489 14.8774 50.4489 15.2624C51.1639 15.5099 51.9477 15.1387 52.1952 14.4237C52.4427 13.7087 52.0714 12.9249 51.3427 12.6774C50.3802 12.3474 49.3764 12.0587 48.3589 11.8249L46.6952 5.18367C46.5439 4.57867 45.9939 4.13867 45.3614 4.13867H37.1114C36.4789 4.13867 35.9289 4.56492 35.7777 5.18367L34.1139 11.8249C30.6902 12.6087 27.4589 13.9562 24.4889 15.8262L18.6039 12.3062C18.0677 11.9762 17.3664 12.0724 16.9264 12.5124L11.0964 18.3424C10.6564 18.7824 10.5602 19.4837 10.8902 20.0199L14.4102 25.9049C12.5402 28.8749 11.1927 32.1062 10.4089 35.5299L3.76766 37.1937C3.16266 37.3449 2.72266 37.8949 2.72266 38.5274V46.7774C2.72266 47.4099 3.14891 47.9599 3.76766 48.1112L10.4089 49.7749C10.6427 50.8062 10.9314 51.8099 11.2614 52.7587C11.4539 53.3224 11.9902 53.6799 12.5539 53.6799L12.5814 53.6524Z" fill="black" stroke="black"/>
<path d="M48.2763 70.6337C47.8363 70.7437 47.4101 70.8399 46.9563 70.9362C46.4338 71.0462 46.0351 71.4312 45.8976 71.9537L44.2888 78.3749H38.1838L36.575 71.9537C36.4513 71.4449 36.0388 71.0462 35.5163 70.9362C31.845 70.1937 28.4075 68.7637 25.2863 66.6874C24.8463 66.3987 24.2688 66.3849 23.815 66.6462L18.1225 70.0562L13.805 65.7387L17.215 60.0461C17.49 59.5924 17.4763 59.0149 17.1738 58.5749C16.8025 58.0249 16.4725 57.4887 16.1975 56.9799C15.8263 56.3199 15.0013 56.0724 14.3275 56.4299C13.6675 56.8012 13.42 57.6262 13.7775 58.2999C13.97 58.6437 14.1763 59.0012 14.41 59.3724L10.89 65.2437C10.56 65.7799 10.6563 66.4811 11.0963 66.9211L16.9263 72.7512C17.3663 73.1912 18.0675 73.2874 18.6038 72.9574L24.4888 69.4374C27.4588 71.3074 30.69 72.6549 34.1138 73.4387L35.7775 80.0799C35.9288 80.6849 36.4788 81.1249 37.1113 81.1249H45.3613C45.9938 81.1249 46.5438 80.6987 46.695 80.0799L48.3588 73.4387C48.565 73.3974 48.7713 73.3424 48.9775 73.2874C49.7063 73.0949 50.1463 72.3387 49.9538 71.6099C49.7613 70.8812 49.0051 70.4412 48.2763 70.6337Z" fill="black" stroke="black"/>
<path d="M55.6054 17.5863C56.1279 17.8751 56.6641 18.1913 57.2004 18.5626C57.6404 18.8651 58.2179 18.8788 58.6716 18.6038L64.3641 15.1938L68.6816 19.5113L65.2716 25.2038C64.9966 25.6576 65.0104 26.2351 65.3129 26.6751C67.4029 29.7963 68.8329 33.2338 69.5616 36.9051C69.6716 37.4276 70.0566 37.8401 70.5791 37.9638L77.0004 39.5726V45.6776L74.4429 46.3238C73.7004 46.5026 73.2604 47.2589 73.4391 47.9876C73.5904 48.6064 74.1541 49.0326 74.7729 49.0326C74.8829 49.0326 74.9929 49.0326 75.1166 48.9913L78.7191 48.0838C79.3241 47.9326 79.7641 47.3826 79.7641 46.7501V38.5001C79.7641 37.8676 79.3379 37.3176 78.7191 37.1663L72.0779 35.5026C71.2941 32.0788 69.9466 28.8476 68.0766 25.8776L71.5966 19.9926C71.9266 19.4563 71.8304 18.7551 71.3904 18.3151L65.5604 12.4851C65.1204 12.0313 64.4191 11.9488 63.8829 12.2788L58.0116 15.7988C57.6541 15.5651 57.2829 15.3588 56.9391 15.1663C56.2654 14.7951 55.4404 15.0426 55.0691 15.7163C54.6979 16.3763 54.9454 17.2151 55.6191 17.5863H55.6054Z" fill="black" stroke="black"/>
</svg>
