<svg width="106" height="106" viewBox="0 0 106 106" fill="none" xmlns="http://www.w3.org/2000/svg">
<path fill-rule="evenodd" clip-rule="evenodd" d="M71.2188 6.625H21.5312C20.617 6.625 19.875 7.367 19.875 8.28125V49.6875H14.9062C10.3317 49.6875 6.625 53.3942 6.625 57.9688V91.0938C6.625 95.6683 10.3317 99.375 14.9062 99.375H91.0938C95.6683 99.375 99.375 95.6683 99.375 91.0938V57.9688C99.375 53.3942 95.6683 49.6875 91.0938 49.6875H86.125V21.5312V21.5114C86.1217 21.2099 86.0389 20.9317 85.8964 20.6899C85.8236 20.5706 85.7408 20.458 85.6414 20.3586L72.3914 7.10864C72.292 7.00926 72.1794 6.92644 72.0601 6.85356C71.8183 6.71113 71.5401 6.62831 71.2387 6.625H71.2188ZM96.0625 69.5625H9.9375V91.0938C9.9375 93.8365 12.1635 96.0625 14.9062 96.0625H23.1875V77.8438C23.1875 76.9295 23.9295 76.1875 24.8438 76.1875H81.1562C82.0705 76.1875 82.8125 76.9295 82.8125 77.8438V96.0625H91.0938C93.8365 96.0625 96.0625 93.8365 96.0625 91.0938V69.5625ZM26.5 96.0625H79.5V89.4375H26.5V96.0625ZM26.5 86.125V79.5H79.5V86.125H26.5ZM91.0938 53H14.9062C12.1635 53 9.9375 55.226 9.9375 57.9688V66.25H96.0625V57.9688C96.0625 55.226 93.8365 53 91.0938 53ZM82.8125 56.3125C80.984 56.3125 79.5 57.7965 79.5 59.625C79.5 61.4535 80.984 62.9375 82.8125 62.9375C84.641 62.9375 86.125 61.4535 86.125 59.625C86.125 57.7965 84.641 56.3125 82.8125 56.3125ZM76.1875 62.9375V56.3125H69.5625V62.9375H76.1875ZM66.25 62.9375V56.3125H59.625V62.9375H66.25ZM23.1875 9.9375V49.6875H82.8125V23.1875H71.2188C70.3045 23.1875 69.5625 22.4455 69.5625 21.5312V9.9375H23.1875ZM53 41.4062C51.1715 41.4062 49.6875 42.8903 49.6875 44.7188C49.6875 46.5472 51.1715 48.0312 53 48.0312C54.8285 48.0312 56.3125 46.5472 56.3125 44.7188C56.3125 42.8903 54.8285 41.4062 53 41.4062ZM45.686 41.4394C47.6039 39.3757 50.1413 38.0938 52.937 38.0938C55.7858 38.0938 58.3663 39.4254 60.2974 41.5619C60.9103 42.2377 61.9603 42.2907 62.6361 41.6779C63.3151 41.0651 63.3681 40.0183 62.7553 39.3392C60.1848 36.4971 56.7265 34.7812 52.937 34.7812C49.2171 34.7812 45.8152 36.4342 43.2612 39.1836C42.6385 39.8527 42.6749 40.9028 43.3474 41.5255C44.0165 42.1483 45.0632 42.1085 45.686 41.4394ZM41.8998 36.5634C44.8148 33.4132 48.6838 31.4688 52.937 31.4688C57.2466 31.4688 61.162 33.4662 64.0902 36.6892C64.7063 37.3683 65.7531 37.418 66.4288 36.8019C67.1079 36.1891 67.1577 35.139 66.5415 34.4632C62.9773 30.5379 58.1873 28.1562 52.937 28.1562C47.753 28.1562 43.0195 30.475 39.4685 34.3142C38.8457 34.9866 38.8887 36.0334 39.5578 36.6561C40.2303 37.2756 41.277 37.2358 41.8998 36.5634ZM38.1103 31.6907C42.0224 27.454 47.223 24.8438 52.937 24.8438C58.7107 24.8438 63.9545 27.507 67.8831 31.8199C68.4959 32.4956 69.546 32.5453 70.2217 31.9292C70.8975 31.3131 70.9471 30.2663 70.331 29.5906C65.7697 24.5754 59.6481 21.5312 52.937 21.5312C46.2921 21.5312 40.227 24.5158 35.6756 29.4415C35.0562 30.1139 35.0993 31.164 35.7684 31.7834C36.4408 32.4029 37.4909 32.3631 38.1103 31.6907ZM80.4706 19.875L72.875 12.2794V19.875H80.4706Z" fill="black"/>
</svg>
