<svg width="90" height="90" viewBox="0 0 90 90" fill="none" xmlns="http://www.w3.org/2000/svg">
<g clip-path="url(#clip0_3004_2649)">
<path d="M45.0004 47.6368C40.9872 47.6368 37.0641 46.4467 33.7273 44.217C30.3905 41.9873 27.7898 38.8181 26.2542 35.1103C24.7185 31.4025 24.3169 27.3226 25.1001 23.3866C25.8833 19.4505 27.8161 15.8351 30.6541 12.9976C33.4922 10.1601 37.1079 8.22788 41.0441 7.44536C44.9803 6.66285 49.0601 7.06517 52.7676 8.60144C56.4752 10.1377 59.6439 12.7389 61.873 16.0761C64.1021 19.4134 65.2915 23.3366 65.2908 27.3499C65.2838 32.7288 63.1438 37.8853 59.34 41.6884C55.5362 45.4915 50.3793 47.6307 45.0004 47.6368ZM45.0004 10.5715C41.6827 10.5715 38.4394 11.5554 35.6808 13.3986C32.9222 15.2418 30.7721 17.8617 29.5025 20.9269C28.2329 23.9921 27.9007 27.365 28.5479 30.6189C29.1952 33.8729 30.7928 36.8619 33.1388 39.2079C35.4848 41.5539 38.4738 43.1516 41.7278 43.7988C44.9818 44.4461 48.3546 44.1139 51.4198 42.8442C54.485 41.5746 57.1049 39.4245 58.9481 36.6659C60.7914 33.9073 61.7752 30.6641 61.7752 27.3463C61.7692 22.8996 59.9998 18.6367 56.8551 15.4927C53.7104 12.3487 49.4472 10.5802 45.0004 10.5751V10.5715Z" fill="black"/>
<path d="M48.9502 40.581H41.0506C39.5259 40.5791 38.0642 39.9725 36.9863 38.8942C35.9084 37.8159 35.3022 36.3541 35.3008 34.8294V28.6964C35.3022 27.1717 35.9084 25.7099 36.9863 24.6316C38.0642 23.5533 39.5259 22.9467 41.0506 22.9448H48.9502C50.4749 22.9467 51.9365 23.5533 53.0145 24.6316C54.0924 25.7099 54.6986 27.1717 54.7 28.6964V34.8294C54.6986 36.3541 54.0924 37.8159 53.0145 38.8942C51.9365 39.9725 50.4749 40.5791 48.9502 40.581ZM41.0506 26.4604C40.458 26.4614 39.89 26.6973 39.4712 27.1165C39.0523 27.5356 38.8169 28.1038 38.8164 28.6964V34.8294C38.8169 35.422 39.0523 35.9901 39.4712 36.4093C39.89 36.8285 40.458 37.0644 41.0506 37.0653H48.9502C49.5428 37.0644 50.1108 36.8285 50.5296 36.4093C50.9484 35.9901 51.1839 35.422 51.1844 34.8294V28.6964C51.1839 28.1038 50.9484 27.5356 50.5296 27.1165C50.1108 26.6973 49.5428 26.4614 48.9502 26.4604H41.0506Z" fill="black"/>
<path d="M49.4121 26.4604H40.5879C40.1217 26.4604 39.6746 26.2753 39.3449 25.9456C39.0153 25.6159 38.8301 25.1688 38.8301 24.7026V20.2905C38.8301 18.6542 39.4801 17.0848 40.6372 15.9277C41.7943 14.7706 43.3636 14.1206 45 14.1206C46.6364 14.1206 48.2057 14.7706 49.3628 15.9277C50.5199 17.0848 51.1699 18.6542 51.1699 20.2905V24.7026C51.1699 25.1688 50.9847 25.6159 50.6551 25.9456C50.3254 26.2753 49.8783 26.4604 49.4121 26.4604ZM42.3457 22.9448H47.6543V20.2905C47.6543 19.5866 47.3746 18.9114 46.8769 18.4137C46.3791 17.9159 45.704 17.6362 45 17.6362C44.296 17.6362 43.6209 17.9159 43.1231 18.4137C42.6254 18.9114 42.3457 19.5866 42.3457 20.2905V22.9448Z" fill="black"/>
<path d="M45.8789 33.5198H44.1211C43.6549 33.5198 43.2078 33.3346 42.8781 33.0049C42.5485 32.6753 42.3633 32.2282 42.3633 31.762C42.3633 31.2958 42.5485 30.8487 42.8781 30.519C43.2078 30.1893 43.6549 30.0042 44.1211 30.0042H45.8789C46.3451 30.0042 46.7922 30.1893 47.1219 30.519C47.4515 30.8487 47.6367 31.2958 47.6367 31.762C47.6367 32.2282 47.4515 32.6753 47.1219 33.0049C46.7922 33.3346 46.3451 33.5198 45.8789 33.5198Z" fill="black"/>
<path d="M82.9477 81.1758H74.1217C73.6555 81.1758 73.2084 80.9906 72.8787 80.6609C72.5491 80.3313 72.3639 79.8842 72.3639 79.418C72.3639 78.9518 72.5491 78.5047 72.8787 78.175C73.2084 77.8454 73.6555 77.6602 74.1217 77.6602H82.9477C83.8855 77.6588 84.7846 77.2855 85.4476 76.6221C86.1106 75.9588 86.4834 75.0596 86.4844 74.1217V49.4121C86.4846 49.1792 86.439 48.9485 86.35 48.7332C86.2611 48.518 86.1307 48.3223 85.9661 48.1574C85.8016 47.9926 85.6062 47.8617 85.3911 47.7724C85.176 47.6831 84.9454 47.6369 84.7125 47.6367H5.2875C5.05458 47.6369 4.82399 47.6831 4.60889 47.7724C4.39379 47.8617 4.1984 47.9926 4.03387 48.1574C3.86933 48.3223 3.73888 48.518 3.64996 48.7332C3.56104 48.9485 3.51539 49.1792 3.51562 49.4121V74.1217C3.51655 75.0596 3.88941 75.9588 4.55243 76.6221C5.21544 77.2855 6.11447 77.6588 7.05234 77.6602H15.8783C16.3445 77.6602 16.7916 77.8454 17.1213 78.175C17.4509 78.5047 17.6361 78.9518 17.6361 79.418C17.6361 79.8842 17.4509 80.3313 17.1213 80.6609C16.7916 80.9906 16.3445 81.1758 15.8783 81.1758H7.05234C5.18236 81.1734 3.38965 80.4295 2.06753 79.107C0.745415 77.7846 0.00186063 75.9917 0 74.1217L0 49.4121C0.0004651 48.0096 0.557577 46.6646 1.54897 45.6726C2.54037 44.6805 3.88499 44.1225 5.2875 44.1211H84.7125C86.1149 44.123 87.4592 44.6811 88.4505 45.6731C89.4418 46.665 89.9991 48.0097 90 49.4121V74.1217C89.9981 75.9917 89.2546 77.7846 87.9325 79.107C86.6103 80.4295 84.8176 81.1734 82.9477 81.1758Z" fill="black"/>
<path d="M74.1213 89.9999H15.8779C15.4117 89.9999 14.9646 89.8148 14.635 89.4851C14.3053 89.1554 14.1201 88.7083 14.1201 88.2421V67.0623C14.1201 66.5961 14.3053 66.1489 14.635 65.8193C14.9646 65.4896 15.4117 65.3044 15.8779 65.3044C16.3441 65.3044 16.7912 65.4896 17.1209 65.8193C17.4505 66.1489 17.6357 66.5961 17.6357 67.0623V86.4843H72.3635V67.0623C72.3635 66.5961 72.5487 66.1489 72.8783 65.8193C73.208 65.4896 73.6551 65.3044 74.1213 65.3044C74.5875 65.3044 75.0346 65.4896 75.3643 65.8193C75.6939 66.1489 75.8791 66.5961 75.8791 67.0623V88.2421C75.8791 88.7083 75.6939 89.1554 75.3643 89.4851C75.0346 89.8148 74.5875 89.9999 74.1213 89.9999Z" fill="black"/>
<path d="M74.1213 47.6367H15.8779C15.4117 47.6367 14.9646 47.4515 14.635 47.1219C14.3053 46.7922 14.1201 46.3451 14.1201 45.8789V1.75781C14.1201 1.29161 14.3053 0.844505 14.635 0.514851C14.9646 0.185198 15.4117 0 15.8779 0L67.0619 0C67.5281 9.95579e-05 67.9751 0.185362 68.3047 0.515039L75.3658 7.57441C75.6948 7.90428 75.8795 8.35128 75.8791 8.81719V45.8789C75.8791 46.3451 75.6939 46.7922 75.3643 47.1219C75.0346 47.4515 74.5875 47.6367 74.1213 47.6367ZM17.6357 44.1211H72.3635V9.54668L66.3342 3.51562H17.6428L17.6357 44.1211Z" fill="black"/>
<path d="M88.2422 61.7607H1.75781C1.29161 61.7607 0.844505 61.5755 0.514851 61.2459C0.185198 60.9162 0 60.4691 0 60.0029C0 59.5367 0.185198 59.0896 0.514851 58.76C0.844505 58.4303 1.29161 58.2451 1.75781 58.2451H88.2422C88.7084 58.2451 89.1555 58.4303 89.4851 58.76C89.8148 59.0896 90 59.5367 90 60.0029C90 60.4691 89.8148 60.9162 89.4851 61.2459C89.1555 61.5755 88.7084 61.7607 88.2422 61.7607Z" fill="black"/>
<path d="M79.4182 54.6997H75.8867C75.4205 54.6997 74.9734 54.5145 74.6438 54.1849C74.3141 53.8552 74.1289 53.4081 74.1289 52.9419C74.1289 52.4757 74.3141 52.0286 74.6438 51.6989C74.9734 51.3693 75.4205 51.1841 75.8867 51.1841H79.4182C79.8844 51.1841 80.3315 51.3693 80.6611 51.6989C80.9908 52.0286 81.176 52.4757 81.176 52.9419C81.176 53.4081 80.9908 53.8552 80.6611 54.1849C80.3315 54.5145 79.8844 54.6997 79.4182 54.6997Z" fill="black"/>
<path d="M68.8275 54.6997H65.2979C64.8317 54.6997 64.3845 54.5145 64.0549 54.1849C63.7252 53.8552 63.54 53.4081 63.54 52.9419C63.54 52.4757 63.7252 52.0286 64.0549 51.6989C64.3845 51.3693 64.8317 51.1841 65.2979 51.1841H68.8275C69.2937 51.1841 69.7408 51.3693 70.0705 51.6989C70.4002 52.0286 70.5853 52.4757 70.5853 52.9419C70.5853 53.4081 70.4002 53.8552 70.0705 54.1849C69.7408 54.5145 69.2937 54.6997 68.8275 54.6997Z" fill="black"/>
<path d="M77.6514 68.8201H12.3486C11.8824 68.8201 11.4353 68.6349 11.1057 68.3053C10.776 67.9756 10.5908 67.5285 10.5908 67.0623V60.0029C10.5908 59.5367 10.776 59.0896 11.1057 58.76C11.4353 58.4303 11.8824 58.2451 12.3486 58.2451H77.6514C78.1176 58.2451 78.5647 58.4303 78.8943 58.76C79.224 59.0896 79.4092 59.5367 79.4092 60.0029V67.0623C79.4092 67.5285 79.224 67.9756 78.8943 68.3053C78.5647 68.6349 78.1176 68.8201 77.6514 68.8201ZM14.1064 65.3045H75.8936V61.7607H14.1064V65.3045Z" fill="black"/>
<path d="M84.7121 47.6367H5.28711C4.82091 47.6367 4.3738 47.4515 4.04415 47.1219C3.71449 46.7922 3.5293 46.3451 3.5293 45.8789V33.5268C3.53116 32.125 4.08883 30.7812 5.08002 29.79C6.07122 28.7988 7.41504 28.2411 8.8168 28.2393H15.8779C16.3441 28.2393 16.7912 28.4245 17.1209 28.7541C17.4505 29.0838 17.6357 29.5309 17.6357 29.9971C17.6357 30.4633 17.4505 30.9104 17.1209 31.24C16.7912 31.5697 16.3441 31.7549 15.8779 31.7549H8.8168C8.34715 31.7558 7.89701 31.9428 7.56492 32.2749C7.23283 32.607 7.04585 33.0571 7.04492 33.5268V44.1211H82.9543V33.5268C82.9534 33.0571 82.7664 32.607 82.4343 32.2749C82.1022 31.9428 81.6521 31.7558 81.1824 31.7549H74.1213C73.6551 31.7549 73.208 31.5697 72.8783 31.24C72.5487 30.9104 72.3635 30.4633 72.3635 29.9971C72.3635 29.5309 72.5487 29.0838 72.8783 28.7541C73.208 28.4245 73.6551 28.2393 74.1213 28.2393H81.1824C82.5842 28.2411 83.928 28.7988 84.9192 29.79C85.9104 30.7812 86.4681 32.125 86.4699 33.5268V45.8789C86.4699 46.3451 86.2847 46.7922 85.9551 47.1219C85.6254 47.4515 85.1783 47.6367 84.7121 47.6367Z" fill="black"/>
<path d="M81.1832 31.7549H74.1221C73.6559 31.7549 73.2088 31.5697 72.8791 31.24C72.5495 30.9104 72.3643 30.4633 72.3643 29.9971C72.3643 29.5309 72.5495 29.0838 72.8791 28.7541C73.2088 28.4245 73.6559 28.2393 74.1221 28.2393H79.4254V22.9307H74.1221C73.6559 22.9307 73.2088 22.7455 72.8791 22.4158C72.5495 22.0862 72.3643 21.6391 72.3643 21.1729C72.3643 20.7067 72.5495 20.2595 72.8791 19.9299C73.2088 19.6002 73.6559 19.415 74.1221 19.415H81.1832C81.6494 19.415 82.0965 19.6002 82.4262 19.9299C82.7558 20.2595 82.941 20.7067 82.941 21.1729V29.9971C82.941 30.4633 82.7558 30.9104 82.4262 31.24C82.0965 31.5697 81.6494 31.7549 81.1832 31.7549Z" fill="black"/>
<path d="M15.8785 31.7549H8.81738C8.35118 31.7549 7.90408 31.5697 7.57442 31.24C7.24477 30.9104 7.05957 30.4633 7.05957 29.9971V21.1729C7.05957 20.7067 7.24477 20.2595 7.57442 19.9299C7.90408 19.6002 8.35118 19.415 8.81738 19.415H15.8785C16.1094 19.415 16.3379 19.4605 16.5512 19.5488C16.7645 19.6372 16.9582 19.7667 17.1215 19.9299C17.2847 20.0931 17.4142 20.2869 17.5025 20.5002C17.5909 20.7134 17.6363 20.942 17.6363 21.1729C17.6363 21.4037 17.5909 21.6323 17.5025 21.8455C17.4142 22.0588 17.2847 22.2526 17.1215 22.4158C16.9582 22.579 16.7645 22.7085 16.5512 22.7969C16.3379 22.8852 16.1094 22.9307 15.8785 22.9307H10.5752V28.2393H15.8785C16.3447 28.2393 16.7918 28.4245 17.1215 28.7541C17.4511 29.0838 17.6363 29.5309 17.6363 29.9971C17.6363 30.4633 17.4511 30.9104 17.1215 31.24C16.7918 31.5697 16.3447 31.7549 15.8785 31.7549Z" fill="black"/>
<path d="M65.2971 75.8794H24.7021C24.2359 75.8794 23.7888 75.6942 23.4592 75.3645C23.1295 75.0349 22.9443 74.5878 22.9443 74.1216C22.9443 73.6554 23.1295 73.2083 23.4592 72.8786C23.7888 72.549 24.2359 72.3638 24.7021 72.3638H65.2971C65.7633 72.3638 66.2104 72.549 66.54 72.8786C66.8697 73.2083 67.0549 73.6554 67.0549 74.1216C67.0549 74.5878 66.8697 75.0349 66.54 75.3645C66.2104 75.6942 65.7633 75.8794 65.2971 75.8794Z" fill="black"/>
<path d="M65.2971 82.9968H24.7021C24.2359 82.9968 23.7888 82.8116 23.4592 82.482C23.1295 82.1523 22.9443 81.7052 22.9443 81.239C22.9443 80.7728 23.1295 80.3257 23.4592 79.9961C23.7888 79.6664 24.2359 79.4812 24.7021 79.4812H65.2971C65.7633 79.4812 66.2104 79.6664 66.54 79.9961C66.8697 80.3257 67.0549 80.7728 67.0549 81.239C67.0549 81.7052 66.8697 82.1523 66.54 82.482C66.2104 82.8116 65.7633 82.9968 65.2971 82.9968Z" fill="black"/>
</g>
<defs>
<clipPath id="clip0_3004_2649">
<rect width="90" height="90" fill="white"/>
</clipPath>
</defs>
</svg>
