<svg width="1216" height="364" viewBox="0 0 1216 364" fill="none" xmlns="http://www.w3.org/2000/svg">
<rect width="1216" height="364" rx="20" fill="#FFC727"/>
<path d="M105.816 146.52L118.286 109.4H120.026L132.438 146.52L145.024 109.4H148.388L134.062 150.116H130.698L124.26 131.092L119.156 115.026L114.052 130.976L107.556 150.116H104.192L89.9816 109.4H93.2876L105.816 146.52ZM161.433 150.406C153.371 150.406 146.875 144.78 146.875 135.674C146.875 127.09 153.371 120.884 161.433 120.884C169.495 120.884 176.687 125.814 175.585 137.008H149.775C150.355 143.736 155.517 147.622 161.433 147.622C165.203 147.622 169.611 146.114 171.757 143.272L173.787 144.896C171.003 148.55 166.015 150.406 161.433 150.406ZM149.775 134.514H173.033C172.975 127.438 168.335 123.494 161.433 123.494C155.517 123.494 150.413 127.496 149.775 134.514ZM217.643 122.102L220.485 118.506L225.705 122.45L222.515 126.51C224.719 129.004 225.531 131.846 225.531 134.978C225.531 138.516 224.197 143.504 219.499 145.65C224.255 148.028 225.415 151.45 225.415 155.104C225.415 162.992 219.383 167.864 211.089 167.864C202.795 167.864 196.589 162.818 196.589 155.104H203.607C203.607 158.816 207.029 161.252 211.089 161.252C215.149 161.252 218.339 159.048 218.339 155.104C218.339 151.16 214.627 149.362 211.089 149.362C202.157 149.362 196.589 143.91 196.589 134.978C196.589 126.046 203.085 120.478 211.089 120.478C213.351 120.478 215.671 120.768 217.643 122.102ZM211.089 126.916C206.971 126.916 203.607 129.99 203.607 134.978C203.607 139.966 206.971 142.924 211.089 142.924C215.149 142.924 218.513 139.908 218.513 134.978C218.513 130.048 215.149 126.916 211.089 126.916ZM230.215 121.406H237.291V136.37C237.291 140.72 239.669 144.026 244.193 144.026C248.543 144.026 251.501 140.372 251.501 136.022V121.406H258.519V150.058H252.197L251.733 146.172C248.775 149.072 246.049 150.464 242.047 150.464C235.203 150.464 230.215 145.302 230.215 136.428V121.406ZM287.207 125.35L287.439 121.406H294.225V150H287.555L287.207 145.824C285.583 149.188 281.117 150.812 277.927 150.87C269.459 150.928 263.195 145.708 263.195 135.674C263.195 125.814 269.749 120.652 278.101 120.71C281.929 120.71 285.583 122.508 287.207 125.35ZM278.739 127.032C274.041 127.032 270.271 130.222 270.271 135.674C270.271 141.126 274.041 144.374 278.739 144.374C289.875 144.374 289.875 127.032 278.739 127.032ZM300.218 121.406H306.772L307.294 124.712C309.498 121.174 312.456 120.652 315.356 120.652C318.314 120.652 321.156 121.812 322.722 123.378L319.532 129.526C318.082 128.308 316.748 127.67 314.428 127.67C310.716 127.67 307.294 129.642 307.294 134.92V150H300.218V121.406ZM347.813 125.35L348.045 121.406H354.831V150H348.161L347.813 145.824C346.189 149.188 341.723 150.812 338.533 150.87C330.065 150.928 323.801 145.708 323.801 135.674C323.801 125.814 330.355 120.652 338.707 120.71C342.535 120.71 346.189 122.508 347.813 125.35ZM339.345 127.032C334.647 127.032 330.877 130.222 330.877 135.674C330.877 141.126 334.647 144.374 339.345 144.374C350.481 144.374 350.481 127.032 339.345 127.032ZM388.954 150H381.878V135.036C381.878 130.686 379.5 127.38 374.976 127.38C370.626 127.38 367.668 131.034 367.668 135.384V150H360.65V121.348H366.972L367.436 125.234C370.336 122.392 373.236 120.942 376.832 120.942C383.56 120.942 388.954 125.988 388.954 134.978V150ZM396.689 114.098L403.765 113.344V121.464H411.653V127.554H403.707V139.908C403.707 142.634 405.215 143.968 407.419 143.968C408.521 143.968 409.797 143.62 410.841 143.098L412.813 149.13C410.783 149.942 409.101 150.29 406.955 150.348C400.749 150.58 396.689 147.042 396.689 139.908V127.554H391.353V121.464H396.689V114.098ZM445.317 138.226H422.987C423.451 141.764 426.525 144.316 431.513 144.316C434.123 144.316 437.545 143.33 439.169 141.648L443.693 146.114C440.677 149.246 435.747 150.754 431.397 150.754C421.537 150.754 415.679 144.664 415.679 135.5C415.679 126.8 421.595 120.536 430.875 120.536C440.445 120.536 446.419 126.452 445.317 138.226ZM423.103 132.368H438.531C438.067 128.656 435.167 126.8 431.107 126.8C427.279 126.8 424.147 128.656 423.103 132.368ZM479.131 138.226H456.801C457.265 141.764 460.339 144.316 465.327 144.316C467.937 144.316 471.359 143.33 472.983 141.648L477.507 146.114C474.491 149.246 469.561 150.754 465.211 150.754C455.351 150.754 449.493 144.664 449.493 135.5C449.493 126.8 455.409 120.536 464.689 120.536C474.259 120.536 480.233 126.452 479.131 138.226ZM456.917 132.368H472.345C471.881 128.656 468.981 126.8 464.921 126.8C461.093 126.8 457.961 128.656 456.917 132.368ZM505.196 112.996L507.98 112.706V121.348H517.724V123.726H507.98V141.184C507.98 145.07 508.792 147.796 513.258 147.796C514.65 147.796 516.216 147.332 517.666 146.636L518.652 148.956C516.854 149.826 515.056 150.406 513.258 150.406C507.168 150.406 505.196 146.81 505.196 141.184V123.726H499.106V121.348H505.196V112.996ZM524.253 109.4H526.979V126.684C529.299 122.566 533.301 121 537.303 120.942C545.307 120.942 549.309 126.104 549.309 133.586V150H546.525V133.586C546.525 127.67 543.741 123.668 537.303 123.668C531.271 123.668 527.095 128.308 527.095 134.282V150H524.253V109.4ZM581.416 121.348H584.258C584.258 130.918 584.258 140.43 584.258 150H581.416V143.91C578.632 148.376 574.34 150.464 569.7 150.464C561.696 150.464 555.142 144.432 555.142 135.674C555.142 126.916 561.696 121 569.7 121C574.34 121 579.038 123.146 581.416 127.612V121.348ZM569.7 123.726C563.204 123.726 557.984 128.482 557.984 135.674C557.984 142.866 563.204 147.68 569.7 147.68C585.65 147.68 585.65 123.726 569.7 123.726ZM594.519 112.996L597.303 112.706V121.348H607.047V123.726H597.303V141.184C597.303 145.07 598.115 147.796 602.581 147.796C603.973 147.796 605.539 147.332 606.989 146.636L607.975 148.956C606.177 149.826 604.379 150.406 602.581 150.406C596.491 150.406 594.519 146.81 594.519 141.184V123.726H588.429V121.348H594.519V112.996ZM669.277 121.348L659.127 150H655.995L651.355 137.472L647.875 126.336L644.279 137.53L639.639 150H636.507L626.299 121.348H629.431L638.073 146.694L646.831 121.348H648.861L657.561 146.694L666.145 121.348H669.277ZM686.831 150.406C678.769 150.406 672.273 144.78 672.273 135.674C672.273 127.09 678.769 120.884 686.831 120.884C694.893 120.884 702.085 125.814 700.983 137.008H675.173C675.753 143.736 680.915 147.622 686.831 147.622C690.601 147.622 695.009 146.114 697.155 143.272L699.185 144.896C696.401 148.55 691.413 150.406 686.831 150.406ZM675.173 134.514H698.431C698.373 127.438 693.733 123.494 686.831 123.494C680.915 123.494 675.811 127.496 675.173 134.514ZM764.037 121.348L753.887 150H750.755L746.115 137.472L742.635 126.336L739.039 137.53L734.399 150H731.267L721.059 121.348H724.191L732.833 146.694L741.591 121.348H743.621L752.321 146.694L760.905 121.348H764.037ZM771.499 121.232V150H768.657V121.232H771.499ZM767.845 112.01C767.845 115.026 772.427 115.026 772.427 112.01C772.427 108.994 767.845 108.994 767.845 112.01ZM779.645 109.4H782.487V150H779.645V109.4ZM790.407 109.4H793.249V150H790.407V109.4ZM816.271 109.458H823.289V150H816.271V109.458ZM842.924 120.826C852.03 120.826 857.888 127.554 857.888 135.732C857.888 143.968 852.262 150.638 842.982 150.638C833.702 150.638 828.134 143.968 828.134 135.732C828.134 127.554 833.818 120.826 842.924 120.826ZM842.982 127.264C837.878 127.264 835.21 131.44 835.21 135.732C835.21 140.082 837.82 144.142 842.982 144.142C848.144 144.142 850.754 140.082 850.754 135.732C850.754 131.44 847.738 127.264 842.982 127.264ZM881.595 121.348H887.801L894.065 142.866L900.619 121.348H908.449L898.473 150.116H890.237L887.279 141.648L884.727 132.078L882.175 141.648L879.217 150.116H870.981L860.947 121.348H868.835L875.389 142.866L881.595 121.348ZM942.791 138.226H920.461C920.925 141.764 923.999 144.316 928.987 144.316C931.597 144.316 935.019 143.33 936.643 141.648L941.167 146.114C938.151 149.246 933.221 150.754 928.871 150.754C919.011 150.754 913.153 144.664 913.153 135.5C913.153 126.8 919.069 120.536 928.349 120.536C937.919 120.536 943.893 126.452 942.791 138.226ZM920.577 132.368H936.005C935.541 128.656 932.641 126.8 928.581 126.8C924.753 126.8 921.621 128.656 920.577 132.368ZM948.244 121.406H954.798L955.32 124.712C957.524 121.174 960.482 120.652 963.382 120.652C966.34 120.652 969.182 121.812 970.748 123.378L967.558 129.526C966.108 128.308 964.774 127.67 962.454 127.67C958.742 127.67 955.32 129.642 955.32 134.92V150H948.244V121.406ZM1006.11 121.406H1013.94L996.485 161.948H988.713L994.049 149.536L982.623 121.406H990.859L995.209 133.76L997.935 141.822L1000.89 133.934L1006.11 121.406ZM1031.08 120.826C1040.19 120.826 1046.05 127.554 1046.05 135.732C1046.05 143.968 1040.42 150.638 1031.14 150.638C1021.86 150.638 1016.29 143.968 1016.29 135.732C1016.29 127.554 1021.98 120.826 1031.08 120.826ZM1031.14 127.264C1026.04 127.264 1023.37 131.44 1023.37 135.732C1023.37 140.082 1025.98 144.142 1031.14 144.142C1036.3 144.142 1038.91 140.082 1038.91 135.732C1038.91 131.44 1035.9 127.264 1031.14 127.264ZM1051.11 121.406H1058.18V136.37C1058.18 140.72 1060.56 144.026 1065.09 144.026C1069.44 144.026 1072.39 140.372 1072.39 136.022V121.406H1079.41V150.058H1073.09L1072.63 146.172C1069.67 149.072 1066.94 150.464 1062.94 150.464C1056.1 150.464 1051.11 145.302 1051.11 136.428V121.406ZM1085.65 121.406H1092.21L1092.73 124.712C1094.93 121.174 1097.89 120.652 1100.79 120.652C1103.75 120.652 1106.59 121.812 1108.16 123.378L1104.97 129.526C1103.52 128.308 1102.18 127.67 1099.86 127.67C1096.15 127.67 1092.73 129.642 1092.73 134.92V150H1085.65V121.406ZM181.899 201.852C186.713 201.852 190.019 198.198 190.019 193.732C190.019 189.266 187.003 185.612 181.899 185.612C176.795 185.612 173.779 189.266 173.779 193.732C173.779 198.198 177.085 201.852 181.899 201.852ZM173.141 219.948H166.065V179.406H172.677L173.141 183.35C175.345 180.16 179.173 178.768 182.421 178.768C191.237 178.768 197.095 185.322 197.095 193.732C197.095 202.084 191.817 208.696 182.653 208.696C179.637 208.696 175.171 207.768 173.141 204.636V219.948ZM202.315 167.4H209.391V183.292C211.943 179.986 215.075 179 218.323 179C226.443 179 230.039 184.51 230.039 192.92V208H222.963V192.978C222.963 187.758 220.237 185.554 216.467 185.554C212.291 185.554 209.391 189.092 209.391 193.384V208H202.315V167.4ZM249.472 178.826C258.578 178.826 264.436 185.554 264.436 193.732C264.436 201.968 258.81 208.638 249.53 208.638C240.25 208.638 234.682 201.968 234.682 193.732C234.682 185.554 240.366 178.826 249.472 178.826ZM249.53 185.264C244.426 185.264 241.758 189.44 241.758 193.732C241.758 198.082 244.368 202.142 249.53 202.142C254.692 202.142 257.302 198.082 257.302 193.732C257.302 189.44 254.286 185.264 249.53 185.264ZM297.451 208H290.375V193.036C290.375 188.686 287.997 185.38 283.473 185.38C279.123 185.38 276.165 189.034 276.165 193.384V208H269.147V179.348H275.469L275.933 183.234C278.833 180.392 281.733 178.942 285.329 178.942C292.057 178.942 297.451 183.988 297.451 192.978V208ZM331.894 196.226H309.564C310.028 199.764 313.102 202.316 318.09 202.316C320.7 202.316 324.122 201.33 325.746 199.648L330.27 204.114C327.254 207.246 322.324 208.754 317.974 208.754C308.114 208.754 302.256 202.664 302.256 193.5C302.256 184.8 308.172 178.536 317.452 178.536C327.022 178.536 332.996 184.452 331.894 196.226ZM309.68 190.368H325.108C324.644 186.656 321.744 184.8 317.684 184.8C313.856 184.8 310.724 186.656 309.68 190.368ZM364.905 185.322C360.439 185.322 356.611 188.686 356.611 193.674C356.611 198.836 360.439 202.084 364.905 202.084C369.429 202.084 373.025 198.662 373.025 193.674C373.025 188.512 369.429 185.322 364.905 185.322ZM349.071 167.458H356.147V183.292C357.829 180.334 362.527 178.71 365.543 178.71C373.895 178.71 380.101 183.814 380.101 193.674C380.101 203.07 373.779 208.638 365.369 208.638C361.889 208.638 358.351 207.478 356.147 204.056L355.683 208H349.071V167.458ZM392.397 179.29V208H385.321V179.29H392.397ZM384.683 171.344C384.683 176.854 393.035 176.854 393.035 171.344C393.035 165.834 384.683 165.834 384.683 171.344ZM398.801 167.458H405.819V208H398.801V167.458ZM411.999 167.458H419.017V208H411.999V167.458ZM425.486 206.26C425.486 203.244 430.068 203.244 430.068 206.26C430.068 206.608 430.01 206.898 429.894 207.246L427.574 213.162H425.08L426.878 208.348C426.124 208.058 425.486 207.362 425.486 206.26ZM466.761 208.406C458.699 208.406 452.203 202.838 452.203 193.732C452.203 184.626 458.699 178.826 466.761 178.826C474.823 178.826 481.319 184.626 481.319 193.732C481.319 202.838 474.823 208.406 466.761 208.406ZM466.761 205.622C473.257 205.622 478.535 201.156 478.535 193.732C478.535 186.308 473.257 181.494 466.761 181.494C460.265 181.494 454.987 186.308 454.987 193.732C454.987 201.156 460.265 205.622 466.761 205.622ZM487.861 179.348H490.529L490.645 184.452C492.443 180.566 496.503 179.058 500.157 179.058C502.303 179 504.391 179.58 506.305 180.74L505.029 183.06C503.521 182.132 501.839 181.726 500.157 181.726C494.821 181.784 490.703 186.076 490.703 191.296V208H487.861V179.348ZM545.744 179.348H551.95L558.214 200.866L564.768 179.348H572.598L562.622 208.116H554.386L551.428 199.648L548.876 190.078L546.324 199.648L543.366 208.116H535.13L525.096 179.348H532.984L539.538 200.866L545.744 179.348ZM606.941 196.226H584.611C585.075 199.764 588.149 202.316 593.137 202.316C595.747 202.316 599.169 201.33 600.793 199.648L605.317 204.114C602.301 207.246 597.371 208.754 593.021 208.754C583.161 208.754 577.303 202.664 577.303 193.5C577.303 184.8 583.219 178.536 592.499 178.536C602.069 178.536 608.043 184.452 606.941 196.226ZM584.727 190.368H600.155C599.691 186.656 596.791 184.8 592.731 184.8C588.903 184.8 585.771 186.656 584.727 190.368ZM644.186 179.348H650.392L656.656 200.866L663.21 179.348H671.04L661.064 208.116H652.828L649.87 199.648L647.318 190.078L644.766 199.648L641.808 208.116H633.572L623.538 179.348H631.426L637.98 200.866L644.186 179.348ZM684.096 179.29V208H677.02V179.29H684.096ZM676.382 171.344C676.382 176.854 684.734 176.854 684.734 171.344C684.734 165.834 676.382 165.834 676.382 171.344ZM690.501 167.458H697.519V208H690.501V167.458ZM703.698 167.458H710.716V208H703.698V167.458ZM748.688 179.348H754.894L761.158 200.866L767.712 179.348H775.542L765.566 208.116H757.33L754.372 199.648L751.82 190.078L749.268 199.648L746.31 208.116H738.074L728.04 179.348H735.928L742.482 200.866L748.688 179.348ZM781.522 179.406H788.076L788.598 182.712C790.802 179.174 793.76 178.652 796.66 178.652C799.618 178.652 802.46 179.812 804.026 181.378L800.836 187.526C799.386 186.308 798.052 185.67 795.732 185.67C792.02 185.67 788.598 187.642 788.598 192.92V208H781.522V179.406ZM813.747 179.29V208H806.671V179.29H813.747ZM806.033 171.344C806.033 176.854 814.385 176.854 814.385 171.344C814.385 165.834 806.033 165.834 806.033 171.344ZM823.051 172.098L830.127 171.344V179.464H838.015V185.554H830.069V197.908C830.069 200.634 831.577 201.968 833.781 201.968C834.883 201.968 836.159 201.62 837.203 201.098L839.175 207.13C837.145 207.942 835.463 208.29 833.317 208.348C827.111 208.58 823.051 205.042 823.051 197.908V185.554H817.715V179.464H823.051V172.098ZM871.679 196.226H849.349C849.813 199.764 852.887 202.316 857.875 202.316C860.485 202.316 863.907 201.33 865.531 199.648L870.055 204.114C867.039 207.246 862.109 208.754 857.759 208.754C847.899 208.754 842.041 202.664 842.041 193.5C842.041 184.8 847.957 178.536 857.237 178.536C866.807 178.536 872.781 184.452 871.679 196.226ZM849.465 190.368H864.893C864.429 186.656 861.529 184.8 857.469 184.8C853.641 184.8 850.509 186.656 849.465 190.368ZM909.852 179.406H917.682L900.224 219.948H892.452L897.788 207.536L886.362 179.406H894.598L898.948 191.76L901.674 199.822L904.632 191.934L909.852 179.406ZM934.824 178.826C943.93 178.826 949.788 185.554 949.788 193.732C949.788 201.968 944.162 208.638 934.882 208.638C925.602 208.638 920.034 201.968 920.034 193.732C920.034 185.554 925.718 178.826 934.824 178.826ZM934.882 185.264C929.778 185.264 927.11 189.44 927.11 193.732C927.11 198.082 929.72 202.142 934.882 202.142C940.044 202.142 942.654 198.082 942.654 193.732C942.654 189.44 939.638 185.264 934.882 185.264ZM954.847 179.406H961.923V194.37C961.923 198.72 964.301 202.026 968.825 202.026C973.175 202.026 976.133 198.372 976.133 194.022V179.406H983.151V208.058H976.829L976.365 204.172C973.407 207.072 970.681 208.464 966.679 208.464C959.835 208.464 954.847 203.302 954.847 194.428V179.406ZM1023.56 183.35L1023.8 179.406H1030.58V208H1023.91L1023.56 203.824C1021.94 207.188 1017.47 208.812 1014.28 208.87C1005.82 208.928 999.552 203.708 999.552 193.674C999.552 183.814 1006.11 178.652 1014.46 178.71C1018.29 178.71 1021.94 180.508 1023.56 183.35ZM1015.1 185.032C1010.4 185.032 1006.63 188.222 1006.63 193.674C1006.63 199.126 1010.4 202.374 1015.1 202.374C1026.23 202.374 1026.23 185.032 1015.1 185.032ZM137.136 232.244L130.872 235.144C129.364 232.65 125.072 230.736 121.07 230.736C116.256 230.736 111.848 232.128 111.848 236.188C111.848 240.016 116.43 240.712 121.302 241.292C129.77 242.336 138.818 243.844 138.818 254.052C138.818 261.882 132.264 266.29 125.072 266.812V272.612H117.706V267.102C111.21 266.522 105.178 263.564 102.452 257.184L109.296 254.284C110.862 257.996 116.024 260.374 120.838 260.374C126.058 260.374 130.872 258.576 130.872 254.052C130.872 250.224 126.058 248.832 120.664 248.194C112.37 247.266 104.25 245.816 104.25 236.188C104.25 228.59 110.978 225.11 117.706 224.298V219.252H125.072V224.298C130.002 225.052 134.526 226.908 137.136 232.244ZM145.972 266V259.504H152.062V232.36H145.74V225.4H159.66V259.504H165.286V266H145.972ZM177.59 262.984C177.59 263.68 177.648 263.506 174.98 271.684H170.978L172.08 265.942C170.456 265.652 169.354 264.608 169.354 262.81C169.354 257.474 177.59 257.706 177.59 262.984ZM190.642 242.742V248.6C190.642 263.332 211.058 263.332 211.058 248.6V242.742C211.058 228.242 190.642 228.068 190.642 242.742ZM183.044 248.6V242.742C183.044 218.498 218.656 218.556 218.656 242.742V248.6C218.656 272.786 183.044 272.844 183.044 248.6ZM231.026 242.742V248.6C231.026 263.332 251.442 263.332 251.442 248.6V242.742C251.442 228.242 231.026 228.068 231.026 242.742ZM223.428 248.6V242.742C223.428 218.498 259.04 218.556 259.04 242.742V248.6C259.04 272.786 223.428 272.844 223.428 248.6ZM271.411 242.742V248.6C271.411 263.332 291.827 263.332 291.827 248.6V242.742C291.827 228.242 271.411 228.068 271.411 242.742ZM263.813 248.6V242.742C263.813 218.498 299.425 218.556 299.425 242.742V248.6C299.425 272.786 263.813 272.844 263.813 248.6ZM336.281 257.706L341.037 262.346C337.731 265.594 334.251 266.87 330.017 266.87C321.723 266.87 314.821 261.882 314.821 251.732C314.821 241.582 321.723 236.594 330.017 236.594C334.077 236.594 337.209 237.754 340.341 240.828L335.875 245.526C334.193 244.018 332.105 243.264 330.133 243.264C325.377 243.264 321.897 246.744 321.897 251.732C321.897 257.184 325.609 260.084 330.017 260.084C332.279 260.084 334.541 259.446 336.281 257.706ZM344.143 225.4H351.219V241.292C353.771 237.986 356.903 237 360.151 237C368.271 237 371.867 242.51 371.867 250.92V266H364.791V250.978C364.791 245.758 362.065 243.554 358.295 243.554C354.119 243.554 351.219 247.092 351.219 251.384V266H344.143V225.4ZM406.206 254.226H383.876C384.34 257.764 387.414 260.316 392.402 260.316C395.012 260.316 398.434 259.33 400.058 257.648L404.582 262.114C401.566 265.246 396.636 266.754 392.286 266.754C382.426 266.754 376.568 260.664 376.568 251.5C376.568 242.8 382.484 236.536 391.764 236.536C401.334 236.536 407.308 242.452 406.206 254.226ZM383.992 248.368H399.42C398.956 244.656 396.056 242.8 391.996 242.8C388.168 242.8 385.036 244.656 383.992 248.368ZM431.437 257.706L436.193 262.346C432.887 265.594 429.407 266.87 425.173 266.87C416.879 266.87 409.977 261.882 409.977 251.732C409.977 241.582 416.879 236.594 425.173 236.594C429.233 236.594 432.365 237.754 435.497 240.828L431.031 245.526C429.349 244.018 427.261 243.264 425.289 243.264C420.533 243.264 417.053 246.744 417.053 251.732C417.053 257.184 420.765 260.084 425.173 260.084C427.435 260.084 429.697 259.446 431.437 257.706ZM439.125 225.458H446.201V248.89L455.829 237.406H464.297V237.812L452.639 250.862L465.921 265.478V266H457.395L446.201 253.066V266H439.125V225.458ZM491.734 266H488.95V240.074H483.092V237.58H488.95V235.028C488.95 229.344 491.212 225.226 497.534 225.226C499.68 225.226 501.594 225.98 503.218 227.198L501.826 229.286C500.26 228.358 499.158 227.836 497.418 227.836C493.822 227.836 491.734 230.04 491.734 235.028V237.58H501.188V240.074H491.734V266ZM518.7 266.406C510.638 266.406 504.142 260.838 504.142 251.732C504.142 242.626 510.638 236.826 518.7 236.826C526.762 236.826 533.258 242.626 533.258 251.732C533.258 260.838 526.762 266.406 518.7 266.406ZM518.7 263.622C525.196 263.622 530.474 259.156 530.474 251.732C530.474 244.308 525.196 239.494 518.7 239.494C512.204 239.494 506.926 244.308 506.926 251.732C506.926 259.156 512.204 263.622 518.7 263.622ZM539.8 237.348H542.468L542.584 242.452C544.382 238.566 548.442 237.058 552.096 237.058C554.242 237 556.33 237.58 558.244 238.74L556.968 241.06C555.46 240.132 553.778 239.726 552.096 239.726C546.76 239.784 542.642 244.076 542.642 249.296V266H539.8V237.348ZM582.256 228.996L585.04 228.706V237.348H594.784V239.726H585.04V257.184C585.04 261.07 585.852 263.796 590.318 263.796C591.71 263.796 593.276 263.332 594.726 262.636L595.712 264.956C593.914 265.826 592.116 266.406 590.318 266.406C584.228 266.406 582.256 262.81 582.256 257.184V239.726H576.166V237.348H582.256V228.996ZM601.312 225.4H604.038V242.684C606.358 238.566 610.36 237 614.362 236.942C622.366 236.942 626.368 242.104 626.368 249.586V266H623.584V249.586C623.584 243.67 620.8 239.668 614.362 239.668C608.33 239.668 604.154 244.308 604.154 250.282V266H601.312V225.4ZM646.701 266.406C638.639 266.406 632.143 260.78 632.143 251.674C632.143 243.09 638.639 236.884 646.701 236.884C654.763 236.884 661.955 241.814 660.853 253.008H635.043C635.623 259.736 640.785 263.622 646.701 263.622C650.471 263.622 654.879 262.114 657.025 259.272L659.055 260.896C656.271 264.55 651.283 266.406 646.701 266.406ZM635.043 250.514H658.301C658.243 243.438 653.603 239.494 646.701 239.494C640.785 239.494 635.681 243.496 635.043 250.514ZM687.947 228.996L690.731 228.706V237.348H700.475V239.726H690.731V257.184C690.731 261.07 691.543 263.796 696.009 263.796C697.401 263.796 698.967 263.332 700.417 262.636L701.403 264.956C699.605 265.826 697.807 266.406 696.009 266.406C689.919 266.406 687.947 262.81 687.947 257.184V239.726H681.857V237.348H687.947V228.996ZM709.845 237.232V266H707.003V237.232H709.845ZM706.191 228.01C706.191 231.026 710.773 231.026 710.773 228.01C710.773 224.994 706.191 224.994 706.191 228.01ZM763.29 266H760.448V248.832C760.448 243.322 756.736 239.436 751.284 239.436C745.832 239.436 742.062 243.496 742.062 249.006V266H739.22V249.006C739.22 243.496 735.45 239.494 729.998 239.494C724.546 239.494 720.834 243.496 720.834 249.006V266H717.992V237.348H720.66L720.718 242.104C722.69 238.334 726.344 236.768 730.056 236.768C734.406 236.768 738.988 238.74 740.67 243.844C742.41 239.146 746.876 236.768 751.284 236.768C758.302 236.768 763.29 241.698 763.29 248.832V266ZM784.225 266.406C776.163 266.406 769.667 260.78 769.667 251.674C769.667 243.09 776.163 236.884 784.225 236.884C792.287 236.884 799.479 241.814 798.377 253.008H772.567C773.147 259.736 778.309 263.622 784.225 263.622C787.995 263.622 792.403 262.114 794.549 259.272L796.579 260.896C793.795 264.55 788.807 266.406 784.225 266.406ZM772.567 250.514H795.825C795.767 243.438 791.127 239.494 784.225 239.494C778.309 239.494 773.205 243.496 772.567 250.514ZM843.103 237.348H846.177L828.719 277.948H825.703L830.981 265.652L819.497 237.348H822.571L829.241 254.284L832.605 262.578L835.911 254.226L843.103 237.348ZM864.888 266.406C856.826 266.406 850.33 260.838 850.33 251.732C850.33 242.626 856.826 236.826 864.888 236.826C872.95 236.826 879.446 242.626 879.446 251.732C879.446 260.838 872.95 266.406 864.888 266.406ZM864.888 263.622C871.384 263.622 876.662 259.156 876.662 251.732C876.662 244.308 871.384 239.494 864.888 239.494C858.392 239.494 853.114 244.308 853.114 251.732C853.114 259.156 858.392 263.622 864.888 263.622ZM911.856 266H909.072V260.838C906.868 264.782 902.866 266.406 898.864 266.464C891.208 266.464 885.93 261.766 885.93 253.82V237.29H888.772V253.762C888.772 260.258 892.774 263.738 898.98 263.68C904.896 263.622 909.014 259.156 909.014 253.24V237.29H911.856V266ZM956.724 240.712L954.984 242.568C952.084 240.016 949.242 239.552 946.052 239.552C941.586 239.494 937.294 241.176 937.41 244.83C937.526 248.658 942.514 249.412 946.11 250.05C951.214 250.92 958.232 251.79 957.942 258.46C957.768 264.782 951.214 266.464 946.168 266.464C941.122 266.464 936.134 264.55 933.64 260.722L935.728 258.866C938.106 262.288 942.398 263.738 946.226 263.738C949.706 263.738 954.984 262.81 955.158 258.286C955.274 254.168 950.518 253.356 945.82 252.602C940.252 251.674 934.742 250.63 934.684 244.888C934.626 239.262 940.252 236.826 946.052 236.884C950.228 236.884 953.882 238.044 956.724 240.712ZM978.823 263.796C985.319 263.796 990.539 259.736 990.539 251.674C990.539 243.612 985.319 239.668 978.823 239.668C972.153 239.668 967.223 244.714 967.223 251.732C967.223 258.75 972.269 263.796 978.823 263.796ZM966.991 277.948H964.265V237.348H967.049V244.134C969.311 239.784 973.893 236.942 979.461 236.942C987.233 237.232 993.381 242.452 993.381 251.674C993.381 261.302 986.885 266.522 978.823 266.522C973.951 266.522 969.427 264.144 966.991 259.388V277.948ZM1013.28 266.406C1005.22 266.406 998.721 260.78 998.721 251.674C998.721 243.09 1005.22 236.884 1013.28 236.884C1021.34 236.884 1028.53 241.814 1027.43 253.008H1001.62C1002.2 259.736 1007.36 263.622 1013.28 263.622C1017.05 263.622 1021.46 262.114 1023.6 259.272L1025.63 260.896C1022.85 264.55 1017.86 266.406 1013.28 266.406ZM1001.62 250.514H1024.88C1024.82 243.438 1020.18 239.494 1013.28 239.494C1007.36 239.494 1002.26 243.496 1001.62 250.514ZM1034.78 237.348H1037.57V242.452C1039.77 238.508 1043.77 236.884 1047.77 236.826C1055.43 236.826 1060.71 241.524 1060.71 249.47V266H1057.87V249.528C1057.87 243.032 1053.86 239.552 1047.66 239.61C1041.74 239.668 1037.62 244.134 1037.62 250.05V266H1034.78V237.348ZM1070.67 228.996L1073.45 228.706V237.348H1083.2V239.726H1073.45V257.184C1073.45 261.07 1074.26 263.796 1078.73 263.796C1080.12 263.796 1081.69 263.332 1083.14 262.636L1084.12 264.956C1082.33 265.826 1080.53 266.406 1078.73 266.406C1072.64 266.406 1070.67 262.81 1070.67 257.184V239.726H1064.58V237.348H1070.67V228.996ZM1088.62 264.26C1088.62 261.244 1093.2 261.244 1093.2 264.26C1093.2 267.276 1088.62 267.276 1088.62 264.26Z" fill="#1C204E"/>
</svg>
