<svg width="295" height="419" viewBox="0 0 295 419" fill="none" xmlns="http://www.w3.org/2000/svg">
<rect y="0.245605" width="295" height="418" rx="14.9873" fill="#FFC727"/>
<path d="M25.678 64.9656L33.848 40.6456H34.988L43.12 64.9656L51.366 40.6456H53.57L44.184 67.3216H41.98L37.762 54.8576L34.418 44.3316L31.074 54.7816L26.818 67.3216H24.614L15.304 40.6456H17.47L25.678 64.9656ZM62.1167 67.5116C56.8347 67.5116 52.5787 63.8256 52.5787 57.8596C52.5787 52.2356 56.8347 48.1696 62.1167 48.1696C67.3987 48.1696 72.1107 51.3996 71.3887 58.7336H54.4787C54.8587 63.1416 58.2407 65.6876 62.1167 65.6876C64.5867 65.6876 67.4747 64.6996 68.8807 62.8376L70.2107 63.9016C68.3867 66.2956 65.1187 67.5116 62.1167 67.5116ZM54.4787 57.0996H69.7167C69.6787 52.4636 66.6387 49.8796 62.1167 49.8796C58.2407 49.8796 54.8967 52.5016 54.4787 57.0996ZM98.9441 48.9676L100.806 46.6116L104.226 49.1956L102.136 51.8556C103.58 53.4896 104.112 55.3516 104.112 57.4036C104.112 59.7216 103.238 62.9896 100.16 64.3956C103.276 65.9536 104.036 68.1956 104.036 70.5896C104.036 75.7576 100.084 78.9496 94.6501 78.9496C89.2161 78.9496 85.1501 75.6436 85.1501 70.5896H89.7481C89.7481 73.0216 91.9901 74.6176 94.6501 74.6176C97.3101 74.6176 99.4001 73.1736 99.4001 70.5896C99.4001 68.0056 96.9681 66.8276 94.6501 66.8276C88.7981 66.8276 85.1501 63.2556 85.1501 57.4036C85.1501 51.5516 89.4061 47.9036 94.6501 47.9036C96.1321 47.9036 97.6521 48.0936 98.9441 48.9676ZM94.6501 52.1216C91.9521 52.1216 89.7481 54.1356 89.7481 57.4036C89.7481 60.6716 91.9521 62.6096 94.6501 62.6096C97.3101 62.6096 99.5141 60.6336 99.5141 57.4036C99.5141 54.1736 97.3101 52.1216 94.6501 52.1216ZM107.181 48.5116H111.817V58.3156C111.817 61.1656 113.375 63.3316 116.339 63.3316C119.189 63.3316 121.127 60.9376 121.127 58.0876V48.5116H125.725V67.2836H121.583L121.279 64.7376C119.341 66.6376 117.555 67.5496 114.933 67.5496C110.449 67.5496 107.181 64.1676 107.181 58.3536V48.5116ZM144.521 51.0956L144.673 48.5116H149.119V67.2456H144.749L144.521 64.5096C143.457 66.7136 140.531 67.7776 138.441 67.8156C132.893 67.8536 128.789 64.4336 128.789 57.8596C128.789 51.3996 133.083 48.0176 138.555 48.0556C141.063 48.0556 143.457 49.2336 144.521 51.0956ZM138.973 52.1976C135.895 52.1976 133.425 54.2876 133.425 57.8596C133.425 61.4316 135.895 63.5596 138.973 63.5596C146.269 63.5596 146.269 52.1976 138.973 52.1976ZM153.045 48.5116H157.339L157.681 50.6776C159.125 48.3596 161.063 48.0176 162.963 48.0176C164.901 48.0176 166.763 48.7776 167.789 49.8036L165.699 53.8316C164.749 53.0336 163.875 52.6156 162.355 52.6156C159.923 52.6156 157.681 53.9076 157.681 57.3656V67.2456H153.045V48.5116ZM184.228 51.0956L184.38 48.5116H188.826V67.2456H184.456L184.228 64.5096C183.164 66.7136 180.238 67.7776 178.148 67.8156C172.6 67.8536 168.496 64.4336 168.496 57.8596C168.496 51.3996 172.79 48.0176 178.262 48.0556C180.77 48.0556 183.164 49.2336 184.228 51.0956ZM178.68 52.1976C175.602 52.1976 173.132 54.2876 173.132 57.8596C173.132 61.4316 175.602 63.5596 178.68 63.5596C185.976 63.5596 185.976 52.1976 178.68 52.1976ZM211.182 67.2456H206.546V57.4416C206.546 54.5916 204.988 52.4256 202.024 52.4256C199.174 52.4256 197.236 54.8196 197.236 57.6696V67.2456H192.638V48.4736H196.78L197.084 51.0196C198.984 49.1576 200.884 48.2076 203.24 48.2076C207.648 48.2076 211.182 51.5136 211.182 57.4036V67.2456ZM216.25 43.7236L220.886 43.2296V48.5496H226.054V52.5396H220.848V60.6336C220.848 62.4196 221.836 63.2936 223.28 63.2936C224.002 63.2936 224.838 63.0656 225.522 62.7236L226.814 66.6756C225.484 67.2076 224.382 67.4356 222.976 67.4736C218.91 67.6256 216.25 65.3076 216.25 60.6336V52.5396H212.754V48.5496H216.25V43.7236ZM248.11 59.5316H233.48C233.784 61.8496 235.798 63.5216 239.066 63.5216C240.776 63.5216 243.018 62.8756 244.082 61.7736L247.046 64.6996C245.07 66.7516 241.84 67.7396 238.99 67.7396C232.53 67.7396 228.692 63.7496 228.692 57.7456C228.692 52.0456 232.568 47.9416 238.648 47.9416C244.918 47.9416 248.832 51.8176 248.11 59.5316ZM233.556 55.6936H243.664C243.36 53.2616 241.46 52.0456 238.8 52.0456C236.292 52.0456 234.24 53.2616 233.556 55.6936ZM270.264 59.5316H255.634C255.938 61.8496 257.952 63.5216 261.22 63.5216C262.93 63.5216 265.172 62.8756 266.236 61.7736L269.2 64.6996C267.224 66.7516 263.994 67.7396 261.144 67.7396C254.684 67.7396 250.846 63.7496 250.846 57.7456C250.846 52.0456 254.722 47.9416 260.802 47.9416C267.072 47.9416 270.986 51.8176 270.264 59.5316ZM255.71 55.6936H265.818C265.514 53.2616 263.614 52.0456 260.954 52.0456C258.446 52.0456 256.394 53.2616 255.71 55.6936ZM19.56 81.0016L21.384 80.8116V86.4736H27.768V88.0316H21.384V99.4696C21.384 102.016 21.916 103.802 24.842 103.802C25.754 103.802 26.78 103.498 27.73 103.042L28.376 104.562C27.198 105.132 26.02 105.512 24.842 105.512C20.852 105.512 19.56 103.156 19.56 99.4696V88.0316H15.57V86.4736H19.56V81.0016ZM32.0451 78.6456H33.8311V89.9696C35.3511 87.2716 37.9731 86.2456 40.5951 86.2076C45.8391 86.2076 48.4611 89.5896 48.4611 94.4916V105.246H46.6371V94.4916C46.6371 90.6156 44.8131 87.9936 40.5951 87.9936C36.6431 87.9936 33.9071 91.0336 33.9071 94.9476V105.246H32.0451V78.6456ZM69.4968 86.4736H71.3588C71.3588 92.7436 71.3588 98.9756 71.3588 105.246H69.4968V101.256C67.6728 104.182 64.8608 105.55 61.8208 105.55C56.5768 105.55 52.2828 101.598 52.2828 95.8596C52.2828 90.1216 56.5768 86.2456 61.8208 86.2456C64.8608 86.2456 67.9388 87.6516 69.4968 90.5776V86.4736ZM61.8208 88.0316C57.5648 88.0316 54.1448 91.1476 54.1448 95.8596C54.1448 100.572 57.5648 103.726 61.8208 103.726C72.2708 103.726 72.2708 88.0316 61.8208 88.0316ZM78.0815 81.0016L79.9055 80.8116V86.4736H86.2895V88.0316H79.9055V99.4696C79.9055 102.016 80.4375 103.802 83.3635 103.802C84.2755 103.802 85.3015 103.498 86.2515 103.042L86.8975 104.562C85.7195 105.132 84.5415 105.512 83.3635 105.512C79.3735 105.512 78.0815 103.156 78.0815 99.4696V88.0316H74.0915V86.4736H78.0815V81.0016ZM127.061 86.4736L120.411 105.246H118.359L115.319 97.0376L113.039 89.7416L110.683 97.0756L107.643 105.246H105.591L98.9034 86.4736H100.955L106.617 103.08L112.355 86.4736H113.685L119.385 103.08L125.009 86.4736H127.061ZM138.562 105.512C133.28 105.512 129.024 101.826 129.024 95.8596C129.024 90.2356 133.28 86.1696 138.562 86.1696C143.844 86.1696 148.556 89.3996 147.834 96.7336H130.924C131.304 101.142 134.686 103.688 138.562 103.688C141.032 103.688 143.92 102.7 145.326 100.838L146.656 101.902C144.832 104.296 141.564 105.512 138.562 105.512ZM130.924 95.0996H146.162C146.124 90.4636 143.084 87.8796 138.562 87.8796C134.686 87.8796 131.342 90.5016 130.924 95.0996ZM189.145 86.4736L182.495 105.246H180.443L177.403 97.0376L175.123 89.7416L172.767 97.0756L169.727 105.246H167.675L160.987 86.4736H163.039L168.701 103.08L174.439 86.4736H175.769L181.469 103.08L187.093 86.4736H189.145ZM194.034 86.3976V105.246H192.172V86.3976H194.034ZM191.64 80.3556C191.64 82.3316 194.642 82.3316 194.642 80.3556C194.642 78.3796 191.64 78.3796 191.64 80.3556ZM199.371 78.6456H201.233V105.246H199.371V78.6456ZM206.422 78.6456H208.284V105.246H206.422V78.6456ZM16.52 116.684H21.118V143.246H16.52V116.684ZM33.9825 124.132C39.9485 124.132 43.7865 128.54 43.7865 133.898C43.7865 139.294 40.1005 143.664 34.0205 143.664C27.9405 143.664 24.2925 139.294 24.2925 133.898C24.2925 128.54 28.0165 124.132 33.9825 124.132ZM34.0205 128.35C30.6765 128.35 28.9285 131.086 28.9285 133.898C28.9285 136.748 30.6385 139.408 34.0205 139.408C37.4025 139.408 39.1125 136.748 39.1125 133.898C39.1125 131.086 37.1365 128.35 34.0205 128.35ZM59.3184 124.474H63.3844L67.4884 138.572L71.7824 124.474H76.9124L70.3764 143.322H64.9804L63.0424 137.774L61.3704 131.504L59.6984 137.774L57.7604 143.322H52.3644L45.7904 124.474H50.9584L55.2524 138.572L59.3184 124.474ZM99.4125 135.532H84.7825C85.0865 137.85 87.1005 139.522 90.3685 139.522C92.0785 139.522 94.3205 138.876 95.3845 137.774L98.3485 140.7C96.3725 142.752 93.1425 143.74 90.2925 143.74C83.8325 143.74 79.9945 139.75 79.9945 133.746C79.9945 128.046 83.8705 123.942 89.9505 123.942C96.2205 123.942 100.135 127.818 99.4125 135.532ZM84.8585 131.694H94.9665C94.6625 129.262 92.7625 128.046 90.1025 128.046C87.5945 128.046 85.5425 129.262 84.8585 131.694ZM102.985 124.512H107.279L107.621 126.678C109.065 124.36 111.003 124.018 112.903 124.018C114.841 124.018 116.703 124.778 117.729 125.804L115.639 129.832C114.689 129.034 113.815 128.616 112.295 128.616C109.863 128.616 107.621 129.908 107.621 133.366V143.246H102.985V124.512ZM140.899 124.512H146.029L134.591 151.074H129.499L132.995 142.942L125.509 124.512H130.905L133.755 132.606L135.541 137.888L137.479 132.72L140.899 124.512ZM157.26 124.132C163.226 124.132 167.064 128.54 167.064 133.898C167.064 139.294 163.378 143.664 157.298 143.664C151.218 143.664 147.57 139.294 147.57 133.898C147.57 128.54 151.294 124.132 157.26 124.132ZM157.298 128.35C153.954 128.35 152.206 131.086 152.206 133.898C152.206 136.748 153.916 139.408 157.298 139.408C160.68 139.408 162.39 136.748 162.39 133.898C162.39 131.086 160.414 128.35 157.298 128.35ZM170.378 124.512H175.014V134.316C175.014 137.166 176.572 139.332 179.536 139.332C182.386 139.332 184.324 136.938 184.324 134.088V124.512H188.922V143.284H184.78L184.476 140.738C182.538 142.638 180.752 143.55 178.13 143.55C173.646 143.55 170.378 140.168 170.378 134.354V124.512ZM193.012 124.512H197.306L197.648 126.678C199.092 124.36 201.03 124.018 202.93 124.018C204.868 124.018 206.73 124.778 207.756 125.804L205.666 129.832C204.716 129.034 203.842 128.616 202.322 128.616C199.89 128.616 197.648 129.908 197.648 133.366V143.246H193.012V124.512ZM26.894 177.218C30.048 177.218 32.214 174.824 32.214 171.898C32.214 168.972 30.238 166.578 26.894 166.578C23.55 166.578 21.574 168.972 21.574 171.898C21.574 174.824 23.74 177.218 26.894 177.218ZM21.156 189.074H16.52V162.512H20.852L21.156 165.096C22.6 163.006 25.108 162.094 27.236 162.094C33.012 162.094 36.85 166.388 36.85 171.898C36.85 177.37 33.392 181.702 27.388 181.702C25.412 181.702 22.486 181.094 21.156 179.042V189.074ZM40.27 154.646H44.906V165.058C46.578 162.892 48.63 162.246 50.758 162.246C56.078 162.246 58.434 165.856 58.434 171.366V181.246H53.798V171.404C53.798 167.984 52.012 166.54 49.542 166.54C46.806 166.54 44.906 168.858 44.906 171.67V181.246H40.27V154.646ZM71.1661 162.132C77.1321 162.132 80.9701 166.54 80.9701 171.898C80.9701 177.294 77.2841 181.664 71.2041 181.664C65.1241 181.664 61.4761 177.294 61.4761 171.898C61.4761 166.54 65.2001 162.132 71.1661 162.132ZM71.2041 166.35C67.8601 166.35 66.1121 169.086 66.1121 171.898C66.1121 174.748 67.8221 177.408 71.2041 177.408C74.5861 177.408 76.2961 174.748 76.2961 171.898C76.2961 169.086 74.3201 166.35 71.2041 166.35ZM102.6 181.246H97.9644V171.442C97.9644 168.592 96.4064 166.426 93.4424 166.426C90.5924 166.426 88.6544 168.82 88.6544 171.67V181.246H84.0564V162.474H88.1984L88.5024 165.02C90.4024 163.158 92.3024 162.208 94.6584 162.208C99.0664 162.208 102.6 165.514 102.6 171.404V181.246ZM125.166 173.532H110.536C110.84 175.85 112.854 177.522 116.122 177.522C117.832 177.522 120.074 176.876 121.138 175.774L124.102 178.7C122.126 180.752 118.896 181.74 116.046 181.74C109.586 181.74 105.748 177.75 105.748 171.746C105.748 166.046 109.624 161.942 115.704 161.942C121.974 161.942 125.888 165.818 125.166 173.532ZM110.612 169.694H120.72C120.416 167.262 118.516 166.046 115.856 166.046C113.348 166.046 111.296 167.262 110.612 169.694ZM146.794 166.388C143.868 166.388 141.36 168.592 141.36 171.86C141.36 175.242 143.868 177.37 146.794 177.37C149.758 177.37 152.114 175.128 152.114 171.86C152.114 168.478 149.758 166.388 146.794 166.388ZM136.42 154.684H141.056V165.058C142.158 163.12 145.236 162.056 147.212 162.056C152.684 162.056 156.75 165.4 156.75 171.86C156.75 178.016 152.608 181.664 147.098 181.664C144.818 181.664 142.5 180.904 141.056 178.662L140.752 181.246H136.42V154.684ZM164.806 162.436V181.246H160.17V162.436H164.806ZM159.752 157.23C159.752 160.84 165.224 160.84 165.224 157.23C165.224 153.62 159.752 153.62 159.752 157.23ZM169.002 154.684H173.6V181.246H169.002V154.684ZM177.649 154.684H182.247V181.246H177.649V154.684ZM186.485 180.106C186.485 178.13 189.487 178.13 189.487 180.106C189.487 180.334 189.449 180.524 189.373 180.752L187.853 184.628H186.219L187.397 181.474C186.903 181.284 186.485 180.828 186.485 180.106ZM213.527 181.512C208.245 181.512 203.989 177.864 203.989 171.898C203.989 165.932 208.245 162.132 213.527 162.132C218.809 162.132 223.065 165.932 223.065 171.898C223.065 177.864 218.809 181.512 213.527 181.512ZM213.527 179.688C217.783 179.688 221.241 176.762 221.241 171.898C221.241 167.034 217.783 163.88 213.527 163.88C209.271 163.88 205.813 167.034 205.813 171.898C205.813 176.762 209.271 179.688 213.527 179.688ZM227.352 162.474H229.1L229.176 165.818C230.354 163.272 233.014 162.284 235.408 162.284C236.814 162.246 238.182 162.626 239.436 163.386L238.6 164.906C237.612 164.298 236.51 164.032 235.408 164.032C231.912 164.07 229.214 166.882 229.214 170.302V181.246H227.352V162.474ZM29.668 200.474H33.734L37.838 214.572L42.132 200.474H47.262L40.726 219.322H35.33L33.392 213.774L31.72 207.504L30.048 213.774L28.11 219.322H22.714L16.14 200.474H21.308L25.602 214.572L29.668 200.474ZM69.7622 211.532H55.1322C55.4362 213.85 57.4502 215.522 60.7182 215.522C62.4282 215.522 64.6702 214.876 65.7342 213.774L68.6982 216.7C66.7222 218.752 63.4922 219.74 60.6422 219.74C54.1822 219.74 50.3442 215.75 50.3442 209.746C50.3442 204.046 54.2202 199.942 60.3002 199.942C66.5702 199.942 70.4842 203.818 69.7622 211.532ZM55.2082 207.694H65.3162C65.0122 205.262 63.1122 204.046 60.4522 204.046C57.9442 204.046 55.8922 205.262 55.2082 207.694ZM94.1641 200.474H98.2301L102.334 214.572L106.628 200.474H111.758L105.222 219.322H99.8261L97.8881 213.774L96.2161 207.504L94.5441 213.774L92.6061 219.322H87.2101L80.6361 200.474H85.8041L90.0981 214.572L94.1641 200.474ZM120.312 200.436V219.246H115.676V200.436H120.312ZM115.258 195.23C115.258 198.84 120.73 198.84 120.73 195.23C120.73 191.62 115.258 191.62 115.258 195.23ZM124.508 192.684H129.106V219.246H124.508V192.684ZM133.155 192.684H137.753V219.246H133.155V192.684ZM162.631 200.474H166.697L170.801 214.572L175.095 200.474H180.225L173.689 219.322H168.293L166.355 213.774L164.683 207.504L163.011 213.774L161.073 219.322H155.677L149.103 200.474H154.271L158.565 214.572L162.631 200.474ZM184.143 200.512H188.437L188.779 202.678C190.223 200.36 192.161 200.018 194.061 200.018C195.999 200.018 197.861 200.778 198.887 201.804L196.797 205.832C195.847 205.034 194.973 204.616 193.453 204.616C191.021 204.616 188.779 205.908 188.779 209.366V219.246H184.143V200.512ZM205.256 200.436V219.246H200.62V200.436H205.256ZM200.202 195.23C200.202 198.84 205.674 198.84 205.674 195.23C205.674 191.62 200.202 191.62 200.202 195.23ZM211.352 195.724L215.988 195.23V200.55H221.156V204.54H215.95V212.634C215.95 214.42 216.938 215.294 218.382 215.294C219.104 215.294 219.94 215.066 220.624 214.724L221.916 218.676C220.586 219.208 219.484 219.436 218.078 219.474C214.012 219.626 211.352 217.308 211.352 212.634V204.54H207.856V200.55H211.352V195.724ZM243.211 211.532H228.581C228.885 213.85 230.899 215.522 234.167 215.522C235.877 215.522 238.119 214.876 239.183 213.774L242.147 216.7C240.171 218.752 236.941 219.74 234.091 219.74C227.631 219.74 223.793 215.75 223.793 209.746C223.793 204.046 227.669 199.942 233.749 199.942C240.019 199.942 243.933 203.818 243.211 211.532ZM228.657 207.694H238.765C238.461 205.262 236.561 204.046 233.901 204.046C231.393 204.046 229.341 205.262 228.657 207.694ZM30.276 238.512H35.406L23.968 265.074H18.876L22.372 256.942L14.886 238.512H20.282L23.132 246.606L24.918 251.888L26.856 246.72L30.276 238.512ZM46.6368 238.132C52.6028 238.132 56.4408 242.54 56.4408 247.898C56.4408 253.294 52.7548 257.664 46.6748 257.664C40.5948 257.664 36.9468 253.294 36.9468 247.898C36.9468 242.54 40.6708 238.132 46.6368 238.132ZM46.6748 242.35C43.3308 242.35 41.5828 245.086 41.5828 247.898C41.5828 250.748 43.2928 253.408 46.6748 253.408C50.0568 253.408 51.7668 250.748 51.7668 247.898C51.7668 245.086 49.7908 242.35 46.6748 242.35ZM59.7551 238.512H64.3911V248.316C64.3911 251.166 65.9491 253.332 68.9131 253.332C71.7631 253.332 73.7011 250.938 73.7011 248.088V238.512H78.2991V257.284H74.1571L73.8531 254.738C71.9151 256.638 70.1291 257.55 67.5071 257.55C63.0231 257.55 59.7551 254.168 59.7551 248.354V238.512ZM104.777 241.096L104.929 238.512H109.375V257.246H105.005L104.777 254.51C103.713 256.714 100.787 257.778 98.6968 257.816C93.1488 257.854 89.0448 254.434 89.0448 247.86C89.0448 241.4 93.3388 238.018 98.8108 238.056C101.319 238.056 103.713 239.234 104.777 241.096ZM99.2288 242.198C96.1508 242.198 93.6808 244.288 93.6808 247.86C93.6808 251.432 96.1508 253.56 99.2288 253.56C106.525 253.56 106.525 242.198 99.2288 242.198ZM143.555 235.13L139.451 237.03C138.463 235.396 135.651 234.142 133.029 234.142C129.875 234.142 126.987 235.054 126.987 237.714C126.987 240.222 129.989 240.678 133.181 241.058C138.729 241.742 144.657 242.73 144.657 249.418C144.657 254.548 140.363 257.436 135.651 257.778V261.578H130.825V257.968C126.569 257.588 122.617 255.65 120.831 251.47L125.315 249.57C126.341 252.002 129.723 253.56 132.877 253.56C136.297 253.56 139.451 252.382 139.451 249.418C139.451 246.91 136.297 245.998 132.763 245.58C127.329 244.972 122.009 244.022 122.009 237.714C122.009 232.736 126.417 230.456 130.825 229.924V226.618H135.651V229.924C138.881 230.418 141.845 231.634 143.555 235.13ZM149.344 257.246V252.99H153.334V235.206H149.192V230.646H158.312V252.99H161.998V257.246H149.344ZM170.059 255.27C170.059 255.726 170.097 255.612 168.349 260.97H165.727L166.449 257.208C165.385 257.018 164.663 256.334 164.663 255.156C164.663 251.66 170.059 251.812 170.059 255.27ZM178.61 242.008V245.846C178.61 255.498 191.986 255.498 191.986 245.846V242.008C191.986 232.508 178.61 232.394 178.61 242.008ZM173.632 245.846V242.008C173.632 226.124 196.964 226.162 196.964 242.008V245.846C196.964 261.692 173.632 261.73 173.632 245.846ZM205.069 242.008V245.846C205.069 255.498 218.445 255.498 218.445 245.846V242.008C218.445 232.508 205.069 232.394 205.069 242.008ZM200.091 245.846V242.008C200.091 226.124 223.423 226.162 223.423 242.008V245.846C223.423 261.692 200.091 261.73 200.091 245.846ZM231.528 242.008V245.846C231.528 255.498 244.904 255.498 244.904 245.846V242.008C244.904 232.508 231.528 232.394 231.528 242.008ZM226.55 245.846V242.008C226.55 226.124 249.882 226.162 249.882 242.008V245.846C249.882 261.692 226.55 261.73 226.55 245.846ZM29.478 289.812L32.594 292.852C30.428 294.98 28.148 295.816 25.374 295.816C19.94 295.816 15.418 292.548 15.418 285.898C15.418 279.248 19.94 275.98 25.374 275.98C28.034 275.98 30.086 276.74 32.138 278.754L29.212 281.832C28.11 280.844 26.742 280.35 25.45 280.35C22.334 280.35 20.054 282.63 20.054 285.898C20.054 289.47 22.486 291.37 25.374 291.37C26.856 291.37 28.338 290.952 29.478 289.812ZM34.6294 268.646H39.2654V279.058C40.9374 276.892 42.9894 276.246 45.1174 276.246C50.4374 276.246 52.7934 279.856 52.7934 285.366V295.246H48.1574V285.404C48.1574 281.984 46.3714 280.54 43.9014 280.54C41.1654 280.54 39.2654 282.858 39.2654 285.67V295.246H34.6294V268.646ZM75.2915 287.532H60.6615C60.9655 289.85 62.9795 291.522 66.2475 291.522C67.9575 291.522 70.1995 290.876 71.2635 289.774L74.2275 292.7C72.2515 294.752 69.0215 295.74 66.1715 295.74C59.7115 295.74 55.8735 291.75 55.8735 285.746C55.8735 280.046 59.7495 275.942 65.8295 275.942C72.0995 275.942 76.0135 279.818 75.2915 287.532ZM60.7375 283.694H70.8455C70.5415 281.262 68.6415 280.046 65.9815 280.046C63.4735 280.046 61.4215 281.262 60.7375 283.694ZM91.8218 289.812L94.9378 292.852C92.7718 294.98 90.4918 295.816 87.7178 295.816C82.2838 295.816 77.7618 292.548 77.7618 285.898C77.7618 279.248 82.2838 275.98 87.7178 275.98C90.3778 275.98 92.4298 276.74 94.4818 278.754L91.5558 281.832C90.4538 280.844 89.0858 280.35 87.7938 280.35C84.6778 280.35 82.3978 282.63 82.3978 285.898C82.3978 289.47 84.8298 291.37 87.7178 291.37C89.1998 291.37 90.6818 290.952 91.8218 289.812ZM96.8591 268.684H101.495V284.036L107.803 276.512H113.351V276.778L105.713 285.328L114.415 294.904V295.246H108.829L101.495 286.772V295.246H96.8591V268.684ZM131.327 295.246H129.503V278.26H125.665V276.626H129.503V274.954C129.503 271.23 130.985 268.532 135.127 268.532C136.533 268.532 137.787 269.026 138.851 269.824L137.939 271.192C136.913 270.584 136.191 270.242 135.051 270.242C132.695 270.242 131.327 271.686 131.327 274.954V276.626H137.521V278.26H131.327V295.246ZM148.994 295.512C143.712 295.512 139.456 291.864 139.456 285.898C139.456 279.932 143.712 276.132 148.994 276.132C154.276 276.132 158.532 279.932 158.532 285.898C158.532 291.864 154.276 295.512 148.994 295.512ZM148.994 293.688C153.25 293.688 156.708 290.762 156.708 285.898C156.708 281.034 153.25 277.88 148.994 277.88C144.738 277.88 141.28 281.034 141.28 285.898C141.28 290.762 144.738 293.688 148.994 293.688ZM162.819 276.474H164.567L164.643 279.818C165.821 277.272 168.481 276.284 170.875 276.284C172.281 276.246 173.649 276.626 174.903 277.386L174.067 278.906C173.079 278.298 171.977 278.032 170.875 278.032C167.379 278.07 164.681 280.882 164.681 284.302V295.246H162.819V276.474ZM190.634 271.002L192.458 270.812V276.474H198.842V278.032H192.458V289.47C192.458 292.016 192.99 293.802 195.916 293.802C196.828 293.802 197.854 293.498 198.804 293.042L199.45 294.562C198.272 295.132 197.094 295.512 195.916 295.512C191.926 295.512 190.634 293.156 190.634 289.47V278.032H186.644V276.474H190.634V271.002ZM203.119 268.646H204.905V279.97C206.425 277.272 209.047 276.246 211.669 276.208C216.913 276.208 219.535 279.59 219.535 284.492V295.246H217.711V284.492C217.711 280.616 215.887 277.994 211.669 277.994C207.717 277.994 204.981 281.034 204.981 284.948V295.246H203.119V268.646ZM232.857 295.512C227.575 295.512 223.319 291.826 223.319 285.86C223.319 280.236 227.575 276.17 232.857 276.17C238.139 276.17 242.851 279.4 242.129 286.734H225.219C225.599 291.142 228.981 293.688 232.857 293.688C235.327 293.688 238.215 292.7 239.621 290.838L240.951 291.902C239.127 294.296 235.859 295.512 232.857 295.512ZM225.219 285.1H240.457C240.419 280.464 237.379 277.88 232.857 277.88C228.981 277.88 225.637 280.502 225.219 285.1ZM19.56 309.002L21.384 308.812V314.474H27.768V316.032H21.384V327.47C21.384 330.016 21.916 331.802 24.842 331.802C25.754 331.802 26.78 331.498 27.73 331.042L28.376 332.562C27.198 333.132 26.02 333.512 24.842 333.512C20.852 333.512 19.56 331.156 19.56 327.47V316.032H15.57V314.474H19.56V309.002ZM33.9071 314.398V333.246H32.0451V314.398H33.9071ZM31.5131 308.356C31.5131 310.332 34.5151 310.332 34.5151 308.356C34.5151 306.38 31.5131 306.38 31.5131 308.356ZM68.9223 333.246H67.0603V321.998C67.0603 318.388 64.6283 315.842 61.0563 315.842C57.4843 315.842 55.0143 318.502 55.0143 322.112V333.246H53.1523V322.112C53.1523 318.502 50.6823 315.88 47.1103 315.88C43.5383 315.88 41.1063 318.502 41.1063 322.112V333.246H39.2443V314.474H40.9923L41.0303 317.59C42.3223 315.12 44.7163 314.094 47.1483 314.094C49.9983 314.094 53.0003 315.386 54.1023 318.73C55.2423 315.652 58.1683 314.094 61.0563 314.094C65.6543 314.094 68.9223 317.324 68.9223 321.998V333.246ZM82.6382 333.512C77.3562 333.512 73.1002 329.826 73.1002 323.86C73.1002 318.236 77.3562 314.17 82.6382 314.17C87.9202 314.17 92.6322 317.4 91.9102 324.734H75.0002C75.3802 329.142 78.7622 331.688 82.6382 331.688C85.1082 331.688 87.9962 330.7 89.4022 328.838L90.7322 329.902C88.9082 332.296 85.6402 333.512 82.6382 333.512ZM75.0002 323.1H90.2382C90.2002 318.464 87.1602 315.88 82.6382 315.88C78.7622 315.88 75.4182 318.502 75.0002 323.1ZM121.214 314.474H123.228L111.79 341.074H109.814L113.272 333.018L105.748 314.474H107.762L112.132 325.57L114.336 331.004L116.502 325.532L121.214 314.474ZM135.486 333.512C130.204 333.512 125.948 329.864 125.948 323.898C125.948 317.932 130.204 314.132 135.486 314.132C140.768 314.132 145.024 317.932 145.024 323.898C145.024 329.864 140.768 333.512 135.486 333.512ZM135.486 331.688C139.742 331.688 143.2 328.762 143.2 323.898C143.2 319.034 139.742 315.88 135.486 315.88C131.23 315.88 127.772 319.034 127.772 323.898C127.772 328.762 131.23 331.688 135.486 331.688ZM166.259 333.246H164.435V329.864C162.991 332.448 160.369 333.512 157.747 333.55C152.731 333.55 149.273 330.472 149.273 325.266V314.436H151.135V325.228C151.135 329.484 153.757 331.764 157.823 331.726C161.699 331.688 164.397 328.762 164.397 324.886V314.436H166.259V333.246ZM31.112 354.678L29.972 355.894C28.072 354.222 26.21 353.918 24.12 353.918C21.194 353.88 18.382 354.982 18.458 357.376C18.534 359.884 21.802 360.378 24.158 360.796C27.502 361.366 32.1 361.936 31.91 366.306C31.796 370.448 27.502 371.55 24.196 371.55C20.89 371.55 17.622 370.296 15.988 367.788L17.356 366.572C18.914 368.814 21.726 369.764 24.234 369.764C26.514 369.764 29.972 369.156 30.086 366.192C30.162 363.494 27.046 362.962 23.968 362.468C20.32 361.86 16.71 361.176 16.672 357.414C16.634 353.728 20.32 352.132 24.12 352.17C26.856 352.17 29.25 352.93 31.112 354.678ZM45.5909 369.802C49.8469 369.802 53.2669 367.142 53.2669 361.86C53.2669 356.578 49.8469 353.994 45.5909 353.994C41.2209 353.994 37.9909 357.3 37.9909 361.898C37.9909 366.496 41.2969 369.802 45.5909 369.802ZM37.8389 379.074H36.0529V352.474H37.8769V356.92C39.3589 354.07 42.3609 352.208 46.0089 352.208C51.1009 352.398 55.1289 355.818 55.1289 361.86C55.1289 368.168 50.8729 371.588 45.5909 371.588C42.3989 371.588 39.4349 370.03 37.8389 366.914V379.074ZM68.1656 371.512C62.8836 371.512 58.6276 367.826 58.6276 361.86C58.6276 356.236 62.8836 352.17 68.1656 352.17C73.4476 352.17 78.1596 355.4 77.4376 362.734H60.5276C60.9076 367.142 64.2896 369.688 68.1656 369.688C70.6356 369.688 73.5236 368.7 74.9296 366.838L76.2596 367.902C74.4356 370.296 71.1676 371.512 68.1656 371.512ZM60.5276 361.1H75.7656C75.7276 356.464 72.6876 353.88 68.1656 353.88C64.2896 353.88 60.9456 356.502 60.5276 361.1ZM82.2541 352.474H84.0781V355.818C85.5221 353.234 88.1441 352.17 90.7661 352.132C95.7821 352.132 99.2401 355.21 99.2401 360.416V371.246H97.3781V360.454C97.3781 356.198 94.7561 353.918 90.6901 353.956C86.8141 353.994 84.1161 356.92 84.1161 360.796V371.246H82.2541V352.474ZM105.765 347.002L107.589 346.812V352.474H113.973V354.032H107.589V365.47C107.589 368.016 108.121 369.802 111.047 369.802C111.959 369.802 112.985 369.498 113.935 369.042L114.581 370.562C113.403 371.132 112.225 371.512 111.047 371.512C107.057 371.512 105.765 369.156 105.765 365.47V354.032H101.775V352.474H105.765V347.002ZM117.528 370.106C117.528 368.13 120.53 368.13 120.53 370.106C120.53 372.082 117.528 372.082 117.528 370.106Z" fill="#1C204E"/>
</svg>
