<?xml version="1.0" encoding="UTF-8" standalone="no"?>
<svg
   width="1440"
   height="620"
   fill="none"
   version="1.1"
   id="svg247"
   sodipodi:docname="h.svg"
   inkscape:version="1.2.1 (9c6d41e410, 2022-07-14)"
   xmlns:inkscape="http://www.inkscape.org/namespaces/inkscape"
   xmlns:sodipodi="http://sodipodi.sourceforge.net/DTD/sodipodi-0.dtd"
   xmlns="http://www.w3.org/2000/svg"
   xmlns:svg="http://www.w3.org/2000/svg">
  <sodipodi:namedview
     id="namedview249"
     pagecolor="#ffffff"
     bordercolor="#000000"
     borderopacity="0.25"
     inkscape:showpageshadow="2"
     inkscape:pageopacity="0.0"
     inkscape:pagecheckerboard="0"
     inkscape:deskcolor="#d1d1d1"
     showgrid="true"
     inkscape:zoom="0.76527778"
     inkscape:cx="720"
     inkscape:cy="359.34664"
     inkscape:window-width="1920"
     inkscape:window-height="1009"
     inkscape:window-x="-8"
     inkscape:window-y="-8"
     inkscape:window-maximized="1"
     inkscape:current-layer="svg247">
    <inkscape:grid
       type="xygrid"
       id="grid281" />
  </sodipodi:namedview>
  <g
     fill="#ffffff"
     clip-path="url(#a)"
     id="g227"
     transform="translate(1.3067151,-169.87296)">
    <path
       d="m 140.4,233.6 c 1.6,1.5 2.6,3.2 4,4.3 1.1,1 4.5,1.2 5,2.7 1,3.4 -10.2,8.3 -3.2,14.7 l 4.4,-9.6 c 1.1,-1.7 2.4,-1.8 4.3,-1.8 2.1,0 19,2.5 20,3.1 2.8,1.6 2.7,8 2.5,10.9 7.5,-1 32.2,4.6 36.5,-2.6 1.8,-3 -3,-13.4 4.8,-12.4 7.8,0.9 4.5,11 -1.7,13 3.4,8.3 23.5,7.7 26.1,0.7 1.2,-3 -4.1,-12.6 4,-14 9,-1.7 0,13.2 0.6,14 22,6.3 44.8,-1.7 67,-3.8 34.9,-3.4 71.2,-2 106,-5.2 6.8,-0.6 15.2,-3.8 21.7,-3.9 4.9,0 9.5,3 12.7,2.7 2.5,-0.3 5.9,-4 9,-5.2 a 76,76 0 0 1 33,-5 c 2.3,0.2 4.3,2.4 6.3,2.2 2.5,-0.2 16,-7 21,-8.3 15,-3.6 32.5,-4.4 48,-5.6 3.2,-1 1.3,-5.6 2.6,-7.6 2.3,-3.3 22.2,0.1 26.7,1.3 4.2,6.3 -1.9,12.5 8.3,8.8 -0.3,-4 4,-7.7 4.7,-10 0.8,-2.9 -5.5,-7.4 -2,-9.6 1.9,-1.1 3.5,2.2 4.6,-2 2,1 5.2,1 7,2.1 1.4,1 0.5,3.5 2.5,3.1 l 2,-3.8 c 0.6,2.7 7.5,7 8,8.5 0.8,2.7 0,6.5 0.5,9.7 0.8,4 6.3,9.3 2,13.4 -3.2,3 -9.5,0 -7.4,11.8 16.2,-1.7 27.6,7.9 37.7,19.1 12.2,13.6 27.8,39.8 7.4,53.4 -2.4,1.7 -22.5,7.8 -15.7,12.4 l 7.6,2 c 1.5,12.6 -9,9.6 -17.8,8.8 2.7,9.9 2,20 2.5,30 0.8,13.8 3,32.4 1.4,46 -0.2,1.4 0,3 -1.3,3.9 l -6.5,0.5 v 10.3 a 918,918 0 0 0 40.2,-1.3 c 11.4,-0.6 20.8,-3.8 32.6,0 v 2.5 l -234.9,2.6 16.6,279.6 h -1.3 c 1,-7.3 -1.9,-14.1 -2.5,-21.1 -1.1,-12.7 -0.5,-26.8 -1.3,-39.6 -4.7,-71.1 -11.1,-142 -12.7,-213.2 0,-3.3 -2.6,-6.2 0.6,-8.3 h 87.4 l 0.2,-6.2 12.6,-3.3 1.3,-2.6 8.9,-137.2 c -5.8,5 -6,10.4 -14.3,13.2 -14.7,4.8 -41.9,-1.2 -46.4,-18.3 -8.2,-30.8 12.2,-45 39,-51.7 l -0.1,-5.6 c -21.3,2 -46.6,2.5 -66,12.2 -1.6,0.8 -1.6,3 -2.3,3 -2.6,0.3 -5.3,-2.7 -8.1,-3.3 -10.4,-2.6 -29.7,2.7 -38.4,9 -0.5,2 3,3.3 3.6,5.4 4,13.5 -25.7,19.2 -8.7,-4.8 -9.8,-4.8 -16.9,0.1 -26.3,1.2 -33.8,3.8 -69.2,2.1 -103.3,5.2 -19.2,1.8 -42.5,7.9 -61.2,7.4 -4.9,-0.1 -15.3,-3.9 -17.7,-3.6 -0.4,0 -2.1,3.6 -4.7,4.4 -5.5,1.8 -16,2.7 -21,-0.7 -1.6,-1 -3,-4.7 -3.9,-4.8 -0.4,0 -5.2,3.2 -7.7,3.6 -4.8,0.8 -28.9,-1 -29.9,0.2 0.9,4.4 -2.7,6 -3.8,9.5 -5.8,18.1 0.7,42.9 -19.1,54.8 10.5,14.2 13.6,32 21.3,47.5 2.5,4.9 6.9,9.8 9.4,14.9 a 227,227 0 0 1 11.1,25.5 c -0.5,2.2 -4.3,3 -3.6,6 10.7,0.9 13.2,-11.2 25.5,-5.1 0.2,1.6 -0.6,2.8 -1.3,4.1 -2.2,3.9 -14.7,11.8 -17.9,16.3 l 78,6.4 -2.4,3.4 c 0.2,92 -2.1,184.4 2.3,276.1 h -2.5 c -0.2,-4.4 0.2,-9 0,-13.4 -4,-59 -2.1,-118 -2.5,-177.5 -0.2,-19 -1.8,-38.2 -1.4,-57.4 0.1,-9.2 4.2,-20.5 -1.2,-29.4 L 0,422.6 v -1.3 l 43.4,2.5 c -0.3,-5.7 -5.4,-28 -2.7,-31.4 3.2,-3.9 14.4,0 19.2,-3.2 1.2,-1.6 -3.7,-13.3 0,-15.9 4.6,-3.1 24.6,-0.5 34.2,-6.6 8.2,-5.3 9.5,-24.8 14.4,-33.5 -12.5,2 -36.6,-7.1 -38.3,-21 C 68,294 81.4,275 94.5,263.6 c 6,-5.3 14.4,-12.7 23,-12.1 -12.8,-11.7 -3.1,-37.6 15.2,-32.5 11.4,3.3 7.5,7.3 7.7,14.6 -1,-1 -1.1,-1.7 -2,-2.5 l -13.1,2.7 c -3.8,16 -5.4,25.2 15.1,22.8 l -2.4,-5.6 10.2,-8.5 c -3.5,-4.4 -7.4,-1.7 -7.7,-8.9 z m 455.8,-14 -19.2,-2.6 -1.2,14 c 5.8,-3 8.8,5.8 10.3,10.2 l 10,-3.1 -5,0.6 2.5,-3.8 c -4.3,-3 -4.8,-2.9 -10.2,-1.3 2.1,-4.3 7.5,-4 11.5,-3.8 z m 42.1,11.5 c -5.5,1.6 -5.7,-3.3 -7.7,-4.5 -3.5,-2.1 -11.4,-1.4 -14.6,-8.3 -6.5,9.2 -7.4,22.1 -7,33.1 7.5,1.7 14,1.7 21.6,0 l 0.2,-12.5 c 5,-0.7 8.4,-2 7.5,-7.8 z m -39.6,2.5 c 4,-1.7 4.3,-13 -1.3,-12.7 z m 5.3,2.4 -0.2,-3.7 c -7.3,1.5 -5.4,6 -7.6,8.4 -2.2,2.5 -7.8,1.3 -8.8,2 -0.3,0.4 -0.4,3.2 -2,5 -5.3,6 -36.7,16.2 -27.6,28.8 2.5,3 4.5,1 7,-0.8 12.6,-9 21.8,-36.6 42.8,-26.8 l 0.1,-12 -3.7,-1 z m -23.3,-2.2 c -27.3,4.6 -50.3,13.6 -45.7,46.3 2.7,18.8 40.5,27 51.5,14.7 2.2,-2.5 8.2,-16.4 10.3,-16.5 2.5,0 1.2,3.8 1,4.9 -1.1,10.6 -3.4,19.9 -1.6,30.8 16.6,-0.2 33.3,1.3 49.7,3.9 0,-3.2 0.3,-6.4 0,-9.6 -0.6,-8.3 -3.8,-18.8 -3.8,-26.9 -0.1,-10.3 12.6,3.5 13.8,9.3 2.3,11.3 -5.2,15.3 -4.8,21.3 0.3,5.7 6,15.3 12.8,14.3 37,-5.7 14.5,-47.5 -2.6,-62.7 -5,-4.4 -20.5,-14.7 -27,-10.3 l -1.1,9.7 c -6.4,1.2 -8.5,-4.2 -13.4,-6.4 l -12.7,5 c -4.4,-2.4 1.2,-8 -1.3,-11.5 -21,-10.2 -30.6,28.6 -43.5,30.7 -5.8,1 -8.3,-1.3 -8.4,-7 C 553.7,258.5 576,255 584.1,245 l -3.4,-11.3 z m -425,22.8 c 0.9,-16.2 -6.1,-11.1 -6.3,1.3 2.5,-1.6 3.3,-3.1 6.3,-1.3 z m 19,-7.5 -17.7,-2.7 1.5,10.7 4.7,2.2 0.2,6.2 11.3,-0.2 c 2.5,-5.3 1.6,-10.8 0,-16.2 z m 276,13.9 c 8.3,2.2 12.1,-12.9 5.5,-14 -4.6,-0.8 -6.6,10.7 -5.5,14 z m -327.8,-6.8 c -0.6,-0.4 -0.8,-2.3 -1.6,-2.8 l -1.8,-0.6 c -2,0.3 -4,1 -5.8,2 A 119,119 0 0 0 91,271.6 c -0.9,0.7 -2.5,-0.1 -1.7,2.9 l 9,2 c 3.1,-5.7 4.5,-13.7 10.2,-17.3 l -7.7,17.8 13.3,2.4 c 2.2,-0.6 4.3,-8.3 8.4,-7.5 l -3.8,9 7.7,0.7 2.6,-15.3 -10.3,-5.8 11.5,3.8 v -5.7 c -0.1,-1 -5,-0.8 -7.3,-2.4 z m 495,-2.1 -10.2,-1.3 v 6.3 c 1,1 9.7,-2.5 10.2,-5 z m 14,-1.3 -10.2,1.9 c 2.4,2.5 5,5.6 9,5.7 z M 146.8,268 c 1.4,-4.6 3.7,-12.3 -3.8,-11.5 3,3 -1.4,12.3 3.8,11.5 z m -3.8,-1.3 -1.3,-9 -8.7,1.5 -1.5,6.2 z m 10.2,1.3 -1.3,-10.2 c -2.3,5.4 -3.6,13.1 -6.5,18.1 -1.4,2.4 -13,11.8 -10,15 3.1,-1 9,5.2 10.7,2.6 4,-5.7 2,-10.5 -3.1,-14 5.5,0 8.4,6.5 12.1,9 1.2,0.7 1.1,2 2.6,0 4.8,-7.3 4.7,-18.5 4.4,-26.9 l -2.5,7.7 c -5.4,0.9 -0.3,-6.1 -1.3,-9 z m -10.4,1.4 -11.3,-2.7 c -0.1,5 -6.5,18.4 2,17.8 2.8,-0.2 11.7,-11.1 9.3,-15 z m 24.4,-1.4 c -1.5,-2 -2.3,0 -2.5,1.9 -1,7.9 1,13.2 -5.2,20.4 0,1 7.2,3.3 8.4,0.7 l 3.1,-23 -1.9,6.4 z m -88,34.5 c -1.2,-1 -5,-1.9 -6.4,-3.9 0.3,7.6 -1.5,15 2.5,21.7 l 7.8,-14.6 c -1.7,-0.7 -2.7,-2.3 -4,-3.2 0.6,0.3 4.8,1.4 5,1.2 A 41.4,41.4 0 0 1 94.6,286 c -2.6,6.7 -7.2,12 -8.4,19.2 l 28.8,7.6 1.3,-5.1 c -0.5,-0.5 -9.5,4 -12.2,-1.3 -3.8,-7.8 11,-24 9.6,-25.5 l -13.9,-2.5 c -0.5,3.6 -3.3,5.3 -5.2,7.6 a 48,48 0 0 0 2.5,-7.7 l -9.6,-3.5 c -2.5,0.2 -13,18.2 -13.1,21 a 23,23 0 0 0 4.8,6.8 z m 569.3,17.8 c 4.6,-2.2 0.6,-7 1.5,-11.8 0.6,-2.8 3.6,-5.8 4.3,-8.6 2.2,-8.3 -2.8,-16 -9.6,-20.4 z M 106,305.1 c 3.7,-0.4 9.2,1.3 12.1,-1.3 1,-0.8 8.4,-18.4 7.8,-19.2 -1.7,-2 -8,-3.2 -10.4,-1.3 -2.2,1.6 -11.3,20 -9.5,21.8 z m 26.8,-19.1 -5.1,-1.3 -5.1,15.3 c 3,-1.3 12,-11.4 10.2,-14 z m 15.3,8.9 c 3.9,0.5 5.6,2.1 7.1,-2.5 l -4,-5.2 z m -2.7,1.4 -12.6,-5.2 c -2,10.3 -16.5,11.8 -15.3,22.8 5.2,1.2 14.2,4.4 19.1,2 2.6,-1.2 10,-18.1 8.8,-19.6 z m 15.5,-2.7 c -6.4,-0.4 -6.5,8 -10.8,12.8 -1.7,1.9 -4.1,2.7 -5.8,4.5 -2.4,2.4 -3.3,6.8 -7.7,7 3.6,11.4 21,6.3 23,-3.8 -4.2,-0.7 -8,1 -12.1,1.3 -1.4,0 -4.9,0.8 -4.5,-1.3 l 17.6,-2.9 c 2.3,-6.2 0.7,-11.3 0.3,-17.6 z m 7.6,1.3 -6.4,-1.3 a 29.9,29.9 0 0 1 0,17.9 c 3.6,-0.6 7,-15.9 6.4,-16.6 z m -55,19.3 -29.2,-7.8 -6.4,15.2 c 9.6,5.4 18.2,9.7 29.8,7.6 2.7,-1 7.2,-13.1 5.8,-15 z m 19.3,3.7 -16.6,-2.6 -5.1,14 c 3.4,2.6 19.9,-6.9 21.7,-11.4 z m 514.3,2.7 -46.8,-5 -3.5,2.3 -8.3,107.2 c 3.8,0.5 28.8,-1 29.4,-3.3 l 0.6,-95 c 3,-0.9 1.8,2.8 2,4.5 2,27.1 -0.7,48.8 -1.4,75.2 -0.1,5.6 -0.2,11.1 1.2,16.5 2,3.3 28.3,-0.4 33.3,0.8 l -6.5,-103.3 z m 16.7,16.5 c -8.8,0.3 -3,-6.7 -4.3,-9 -0.7,-1 -7.2,-5.1 -8.4,-7.7 -3.3,8 -3,15 -0.7,23 l 14.7,1.3 -5,-2.6 3.8,-1.2 V 337 Z M 153.1,325.6 c -2.8,-0.6 -5.3,1.2 -8,1 -3.8,-0.1 -12.3,-3.9 -14,-3.5 -1.7,0.5 -3.3,3.5 -5.7,4.7 -2,1 -13.1,4.1 -13.1,4.8 6,12.7 15.2,23.3 22,35.5 9,16.4 18.5,43 32.2,55.8 1.7,1.5 2.5,2.8 5.1,2.6 1.4,-0.2 22,-14.7 22.1,-16 -13.2,-28.6 -31.2,-54.6 -40.6,-84.9 z m -40.8,11.4 -2.6,0.8 c -4,6.2 -2.7,23 -7,27.2 -8.9,8.1 -30,8.3 -41.3,10.4 -1.7,2.1 3.4,26.2 6.3,28.6 4,3.4 22.7,1.3 28.7,0.7 4.8,-0.6 22.5,-2.6 24.8,-5.9 l 7.7,-30.4 z m 20.4,37 c -3.3,-0.3 -2,0 -2.5,2 -1.5,6.7 -3.2,23.5 -9.8,27.2 -7.8,4.3 -27.7,3.5 -36.8,4 -6.3,0.3 -13,2.5 -19.6,1.1 l -1.5,-6.2 -10.2,1.3 c -0.1,7 1,14.1 -2.5,20.4 l 140.4,9 c -7.7,-17.8 -12.2,-4 -20,-2.7 -4.6,0.7 -14.2,-14.6 -16.8,-18.6 -5.6,-8.9 -11.6,-19.7 -17,-29 -1.6,-2.6 -3,-5.4 -3.7,-8.5 z m -71.4,18 h -5.1 v 8.9 h 5 v -9 z m 554,33.1 2,6.4 5.7,-3.2 z"
       id="path223" />
    <path
       d="m 152,611.5 1.2,-49.1 c 1,-5.8 12,-1 17.2,-0.6 7.7,0.4 14.8,-1 22.4,-1.4 l 1.3,37.7 c 0,2.5 3.9,10.5 -1.3,9.5 L 190,564.4 155.7,563 c -0.8,15.7 -2.5,31.5 0,47.2 0.5,0.6 1.7,-1.3 2,-1.3 H 194 v 2.6 z m 51,-122.5 -2.7,42 c -8.2,-1.7 -44,0.8 -47.7,-3.8 -1.5,-1.8 -9.9,-41.8 -8.3,-43.4 l 58.6,5.2 z m -1.3,1.2 -54.9,-3.8 8.3,39.6 c 2,2.4 11.5,1 15.3,1.2 9.5,0.8 19,2 28.8,1.3 z m -162.1,116.2 40.2,3.8 9.5,2.6 c -12.8,-0.4 -26,-1 -38.7,-2.8 -3.4,-0.4 -12.8,-1.2 -14.3,-3.6 l 2,-46 41.5,1.3 2.6,1.3 7,45.3 c 0.3,3.7 -2,1.2 -2.3,-0.3 -1.1,-6.4 -3.3,-40.6 -6.6,-43.1 l -41,-3.2 v 44.7 z M 81.7,482.6 79.1,522 H 41 c -0.6,-9.4 -2.2,-19.3 -2.7,-28.6 -0.1,-3.6 -0.8,-8.6 2,-11 h 41.5 z m -38.3,37 h 34.5 l 1.3,-35.8 -38.3,1.3 z"
       id="path225" />
  </g>
  <g
     fill="#ffffff"
     clip-path="url(#b)"
     id="g233"
     transform="translate(1.3067151,-169.87296)">
    <path
       d="m 860.4,233.6 c 1.6,1.5 2.6,3.2 4,4.3 1.1,1 4.5,1.2 5,2.7 1,3.4 -10.2,8.3 -3.2,14.7 l 4.4,-9.6 c 1.1,-1.7 2.4,-1.8 4.3,-1.8 2.1,0 19,2.5 20,3.1 2.8,1.6 2.7,8 2.5,10.9 7.5,-1 32.2,4.6 36.5,-2.6 1.8,-3 -3,-13.4 4.8,-12.4 7.8,0.9 4.5,11 -1.7,13 3.4,8.3 23.5,7.7 26.1,0.7 1.2,-3 -4.1,-12.6 4,-14 9,-1.7 0,13.2 0.6,14 22,6.3 44.8,-1.7 67,-3.8 34.9,-3.4 71.2,-2 106,-5.2 6.8,-0.6 15.2,-3.8 21.6,-3.9 5,0 9.6,3 12.8,2.7 2.5,-0.3 5.9,-4 9,-5.2 a 76,76 0 0 1 33,-5 c 2.3,0.2 4.3,2.4 6.3,2.2 2.5,-0.2 16,-7 21,-8.3 15,-3.6 32.5,-4.4 48,-5.6 3.2,-1 1.3,-5.6 2.6,-7.6 2.3,-3.3 22.2,0.1 26.8,1.3 4,6.3 -2,12.5 8.2,8.8 -0.3,-4 4,-7.7 4.7,-10 0.8,-2.9 -5.5,-7.4 -2,-9.6 1.9,-1.1 3.5,2.2 4.6,-2 2,1 5.2,1 7,2.1 1.4,1 0.5,3.5 2.5,3.1 l 2,-3.8 c 0.6,2.7 7.5,7 8,8.5 0.9,2.7 0,6.5 0.5,9.7 0.8,4 6.3,9.3 2,13.4 -3.2,3 -9.5,0 -7.4,11.8 16.2,-1.7 27.6,7.9 37.7,19.1 12.2,13.6 27.8,39.8 7.4,53.4 -2.4,1.7 -22.5,7.8 -15.7,12.4 l 7.6,2 c 1.5,12.6 -9,9.6 -17.8,8.8 2.7,9.9 2,20 2.5,30 0.8,13.8 3,32.4 1.4,46 -0.2,1.4 0,3 -1.3,3.9 l -6.5,0.5 v 10.3 c 13.4,-0.1 26.9,-0.6 40.3,-1.3 11.3,-0.6 20.7,-3.8 32.5,0 v 2.5 l -234.9,2.6 16.6,279.6 h -1.3 c 1,-7.3 -1.9,-14.1 -2.5,-21.1 -1.1,-12.7 -0.5,-26.8 -1.3,-39.6 -4.7,-71.1 -11.1,-142 -12.7,-213.2 0,-3.3 -2.6,-6.2 0.6,-8.3 h 87.4 l 0.2,-6.2 12.6,-3.3 1.3,-2.6 8.9,-137.2 c -5.8,5 -6,10.4 -14.3,13.2 -14.7,4.8 -41.9,-1.2 -46.4,-18.3 -8.2,-30.8 12.2,-45 39,-51.7 l -0.2,-5.6 c -21.2,2 -46.5,2.5 -65.9,12.2 -1.6,0.8 -1.6,3 -2.3,3 -2.6,0.3 -5.3,-2.7 -8.1,-3.3 -10.4,-2.6 -29.7,2.7 -38.4,9 -0.5,2 3,3.3 3.6,5.4 4,13.5 -25.7,19.2 -8.7,-4.8 -9.8,-4.8 -16.9,0.1 -26.3,1.2 -33.8,3.8 -69.2,2.1 -103.3,5.2 -19.3,1.8 -42.5,7.9 -61.2,7.4 -4.9,-0.1 -15.3,-3.9 -17.7,-3.6 -0.4,0 -2.1,3.6 -4.7,4.4 -5.5,1.8 -16,2.7 -21,-0.7 -1.6,-1 -3,-4.7 -3.9,-4.8 -0.4,0 -5.2,3.2 -7.7,3.6 -4.8,0.8 -28.9,-1 -29.9,0.2 0.9,4.4 -2.7,6 -3.8,9.5 -5.8,18.1 0.7,42.9 -19.1,54.8 10.5,14.2 13.6,32 21.3,47.5 2.5,4.9 6.9,9.8 9.4,14.9 a 227,227 0 0 1 11.1,25.5 c -0.5,2.2 -4.3,3 -3.6,6 10.7,0.9 13.2,-11.2 25.5,-5.1 0.2,1.6 -0.6,2.8 -1.3,4.1 -2.2,3.9 -14.7,11.8 -17.9,16.3 l 78,6.4 -2.4,3.4 c 0.2,92 -2.1,184.4 2.3,276.1 h -2.5 c -0.2,-4.4 0.2,-9 0,-13.4 -4,-59 -2.1,-118 -2.5,-177.5 -0.2,-19 -1.8,-38.2 -1.4,-57.4 0.1,-9.2 4.2,-20.5 -1.2,-29.4 L 720,422.6 v -1.3 l 43.4,2.5 c -0.3,-5.7 -5.4,-28 -2.7,-31.4 3.2,-3.9 14.4,0 19.2,-3.2 1.2,-1.6 -3.7,-13.3 0,-15.9 4.6,-3.1 24.6,-0.5 34.2,-6.6 8.2,-5.3 9.5,-24.8 14.4,-33.5 -12.5,2 -36.6,-7.1 -38.3,-21 -2.2,-18.2 11.2,-37.2 24.3,-48.6 6,-5.3 14.4,-12.7 23,-12.1 -12.8,-11.7 -3.1,-37.6 15.2,-32.5 11.4,3.3 7.5,7.3 7.7,14.6 -1,-1 -1.1,-1.7 -2,-2.5 l -13.1,2.7 c -3.8,16 -5.4,25.2 15.1,22.8 l -2.4,-5.6 10.2,-8.5 c -3.5,-4.4 -7.4,-1.7 -7.7,-8.9 z m 455.8,-14 -19.2,-2.6 -1.2,14 c 5.8,-3 8.8,5.8 10.3,10.2 l 10,-3.1 -5,0.6 2.5,-3.8 c -4.3,-3 -4.8,-2.9 -10.2,-1.3 2.1,-4.3 7.5,-4 11.5,-3.8 z m 42.1,11.5 c -5.5,1.6 -5.8,-3.3 -7.7,-4.5 -3.5,-2.1 -11.4,-1.4 -14.6,-8.3 -6.5,9.2 -7.4,22.1 -7,33.1 7.5,1.7 14,1.7 21.6,0 l 0.2,-12.5 c 5,-0.7 8.4,-2 7.5,-7.8 z m -39.6,2.5 c 4,-1.7 4.3,-13 -1.3,-12.7 z m 5.3,2.4 -0.2,-3.7 c -7.3,1.5 -5.4,6 -7.6,8.4 -2.2,2.5 -7.8,1.3 -8.8,2 -0.3,0.4 -0.4,3.2 -2,5 -5.3,6 -36.7,16.2 -27.6,28.8 2.5,3 4.5,1 7,-0.8 12.6,-9 21.9,-36.6 42.9,-26.8 v -12 l -3.7,-1 z m -23.3,-2.2 c -27.3,4.6 -50.3,13.6 -45.7,46.3 2.7,18.8 40.5,27 51.5,14.7 2.2,-2.5 8.2,-16.4 10.3,-16.5 2.5,0 1.2,3.8 1,4.9 -1.1,10.6 -3.4,19.9 -1.6,30.8 16.6,-0.2 33.3,1.3 49.7,3.9 0,-3.2 0.3,-6.4 0,-9.6 -0.6,-8.3 -3.8,-18.8 -3.8,-26.9 -0.1,-10.3 12.6,3.5 13.8,9.3 2.3,11.3 -5.2,15.3 -4.8,21.3 0.3,5.7 6,15.3 12.8,14.3 37,-5.7 14.5,-47.5 -2.6,-62.7 -5,-4.4 -20.5,-14.7 -27,-10.3 l -1.1,9.7 c -6.4,1.2 -8.5,-4.2 -13.4,-6.4 l -12.7,5 c -4.4,-2.4 1.2,-8 -1.3,-11.5 -21,-10.2 -30.6,28.6 -43.5,30.7 -5.8,1 -8.3,-1.3 -8.4,-7 -0.2,-15.3 22.1,-18.8 30.2,-28.8 l -3.4,-11.3 z m -425,22.8 c 0.9,-16.2 -6.1,-11.1 -6.3,1.3 2.5,-1.6 3.3,-3.1 6.3,-1.3 z m 19,-7.5 -17.7,-2.7 1.5,10.7 4.7,2.2 0.2,6.2 11.3,-0.2 c 2.5,-5.3 1.6,-10.8 0,-16.2 z m 276,13.9 c 8.3,2.2 12.1,-12.9 5.5,-14 -4.6,-0.8 -6.7,10.7 -5.5,14 z m -327.8,-6.8 c -0.6,-0.4 -0.8,-2.3 -1.6,-2.8 l -1.8,-0.6 c -2,0.3 -4,1 -5.8,2 A 119,119 0 0 0 811,271.6 c -0.9,0.7 -2.5,-0.1 -1.7,2.9 l 9,2 c 3.1,-5.7 4.5,-13.7 10.2,-17.3 l -7.7,17.8 13.3,2.4 c 2.2,-0.6 4.3,-8.3 8.4,-7.5 l -3.8,9 7.7,0.7 2.6,-15.3 -10.3,-5.8 11.5,3.8 v -5.7 c -0.1,-1 -5,-0.8 -7.3,-2.4 z m 495,-2.1 -10.2,-1.3 v 6.3 c 1,1 9.7,-2.5 10.2,-5 z m 14,-1.3 -10.2,1.9 c 2.4,2.5 5,5.6 9,5.7 z M 866.8,268 c 1.4,-4.6 3.7,-12.3 -3.8,-11.5 3,3 -1.4,12.3 3.8,11.5 z m -3.8,-1.3 -1.3,-9 -8.7,1.5 -1.5,6.2 z m 10.2,1.3 -1.3,-10.2 c -2.3,5.4 -3.6,13.1 -6.5,18.1 -1.4,2.4 -13,11.8 -10,15 3.1,-1 9,5.2 10.7,2.6 4,-5.7 2,-10.5 -3.1,-14 5.5,0 8.4,6.5 12.1,9 1.2,0.7 1.1,2 2.6,0 4.8,-7.3 4.7,-18.5 4.4,-26.9 l -2.5,7.7 c -5.4,0.9 -0.3,-6.1 -1.3,-9 z m -10.4,1.4 -11.3,-2.7 c -0.1,5 -6.5,18.4 2,17.8 2.8,-0.2 11.7,-11.1 9.3,-15 z m 24.4,-1.4 c -1.5,-2 -2.3,0 -2.5,1.9 -1,7.9 1,13.2 -5.2,20.4 0,1 7.2,3.3 8.4,0.7 l 3.1,-23 -1.9,6.4 z m -88,34.5 c -1.2,-1 -5,-1.9 -6.4,-3.9 0.3,7.6 -1.5,15 2.5,21.7 l 7.8,-14.6 c -1.7,-0.7 -2.7,-2.3 -4,-3.2 0.6,0.3 4.8,1.4 5,1.2 a 41.4,41.4 0 0 1 10.4,-17.8 c -2.6,6.7 -7.2,12 -8.4,19.2 l 28.8,7.6 1.3,-5.1 c -0.5,-0.5 -9.5,4 -12.2,-1.3 -3.8,-7.8 11,-24 9.6,-25.5 l -13.9,-2.5 c -0.5,3.6 -3.3,5.3 -5.2,7.6 a 48,48 0 0 0 2.5,-7.7 l -9.6,-3.5 c -2.5,0.2 -13,18.2 -13.1,21 a 23,23 0 0 0 4.8,6.8 z m 569.3,17.8 c 4.6,-2.2 0.7,-7 1.5,-11.8 0.6,-2.8 3.6,-5.8 4.3,-8.6 2.2,-8.3 -2.8,-16 -9.6,-20.4 z M 826,305.1 c 3.7,-0.4 9.2,1.3 12.1,-1.3 1,-0.8 8.4,-18.4 7.8,-19.2 -1.7,-2 -8,-3.2 -10.4,-1.3 -2.2,1.6 -11.3,20 -9.5,21.8 z m 26.8,-19.1 -5.1,-1.3 -5.1,15.3 c 3,-1.3 12,-11.4 10.2,-14 z m 15.3,8.9 c 3.9,0.5 5.6,2.1 7.1,-2.5 l -4,-5.2 z m -2.7,1.4 -12.6,-5.2 c -2,10.3 -16.5,11.8 -15.3,22.8 5.2,1.2 14.2,4.4 19.1,2 2.6,-1.2 10,-18.1 8.8,-19.6 z m 15.5,-2.7 c -6.4,-0.4 -6.5,8 -10.8,12.8 -1.7,1.9 -4.1,2.7 -5.8,4.5 -2.4,2.4 -3.3,6.8 -7.7,7 3.6,11.4 21,6.3 23,-3.8 -4.2,-0.7 -8,1 -12.1,1.3 -1.4,0 -4.9,0.8 -4.5,-1.3 l 17.6,-2.9 c 2.3,-6.2 0.7,-11.3 0.3,-17.6 z m 7.6,1.3 -6.4,-1.3 a 29.9,29.9 0 0 1 0,17.9 c 3.6,-0.6 7,-15.9 6.4,-16.6 z m -55,19.3 -29.2,-7.8 -6.4,15.2 c 9.6,5.4 18.2,9.7 29.8,7.6 2.7,-1 7.2,-13.1 5.8,-15 z m 19.3,3.7 -16.6,-2.6 -5.1,14 c 3.4,2.6 19.9,-6.9 21.7,-11.4 z m 514.3,2.7 -46.8,-5 -3.5,2.3 -8.3,107.2 c 3.8,0.5 28.8,-1 29.5,-3.3 l 0.5,-95 c 3,-0.9 1.8,2.8 2,4.5 2,27.1 -0.7,48.8 -1.4,75.2 -0.1,5.6 -0.2,11.1 1.3,16.5 1.8,3.3 28.2,-0.4 33.2,0.8 l -6.5,-103.3 z m 16.7,16.5 c -8.8,0.3 -3,-6.7 -4.3,-9 -0.7,-1 -7.2,-5.1 -8.4,-7.7 -3.3,8 -3,15 -0.7,23 l 14.7,1.3 -5,-2.6 3.8,-1.2 V 337 Z M 873.1,325.6 c -2.8,-0.6 -5.3,1.2 -8,1 -3.8,-0.1 -12.3,-3.9 -14,-3.5 -1.7,0.5 -3.3,3.5 -5.7,4.7 -2,1 -13.1,4.1 -13.1,4.8 6,12.7 15.2,23.3 22,35.5 9,16.4 18.5,43 32.2,55.8 1.7,1.5 2.5,2.8 5.1,2.6 1.4,-0.2 22,-14.7 22.1,-16 -13.2,-28.6 -31.2,-54.6 -40.6,-84.9 z m -40.8,11.4 -2.6,0.8 c -4,6.2 -2.7,23 -7,27.2 -8.9,8.1 -30,8.3 -41.3,10.4 -1.7,2.1 3.4,26.2 6.3,28.6 4,3.4 22.7,1.3 28.7,0.7 4.8,-0.6 22.5,-2.6 24.8,-5.9 l 7.7,-30.4 z m 20.4,37 c -3.3,-0.3 -2,0 -2.5,2 -1.5,6.7 -3.2,23.5 -9.8,27.2 -7.8,4.3 -27.7,3.5 -36.8,4 -6.3,0.3 -13,2.5 -19.6,1.1 l -1.5,-6.2 -10.2,1.3 c -0.1,7 1,14.1 -2.5,20.4 l 140.4,9 c -7.7,-17.8 -12.2,-4 -20,-2.7 -4.6,0.7 -14.2,-14.6 -16.8,-18.6 -5.6,-8.9 -11.6,-19.7 -17,-29 -1.6,-2.6 -3,-5.4 -3.7,-8.5 z m -71.4,18 h -5.1 v 8.9 h 5 v -9 z m 554,33.1 2,6.4 5.7,-3.2 z"
       id="path229" />
    <path
       d="m 1212.8,259.1 9.6,-2.4 c 4.4,-3.8 6.8,-6.6 5.7,-12.9 7.9,6.2 -7.7,20.6 -15.3,15.3 z m 111,232.4 v 39 c -0.8,1.2 -1.7,1.6 -3.2,1.8 -13.8,2.6 -34.2,-2.1 -49.1,2.6 l -2.2,-40.3 2.8,-1.8 z m -3.8,38.3 c 0.2,-7.4 -0.3,-15 0,-22.4 0,-3.4 3,-10.7 0,-12.8 l -47.2,0.7 2.6,37 z m 51.9,-43.3 c 4,-1.4 37.2,6.6 39.4,10 l -4.4,39.1 c -1,0.8 -16.6,-1.8 -19.8,-2 -21.5,-1.5 -23.7,6.1 -21.1,-19.8 0.7,-6.6 2,-18 3.8,-24.2 0.5,-1.4 0.3,-2.5 2,-3.1 z m 37.3,10.3 c -6.2,-2.3 -32.5,-10.4 -37,-7.3 l -3.7,40.3 37.1,2 z m -129.9,118.3 -1.4,-40.6 c 13.7,1.4 27.4,-2.8 40.9,-2 2.3,1.6 2.4,31 2.5,35.8 0,3.2 2.6,5.9 0.1,9 -2.8,3.5 -17.8,2.3 -22.5,2 -3.2,-0.4 -18.5,-2.5 -19.6,-4.1 z m 1.1,-38 v 32.5 c 0,0.7 1.5,3 1.6,4.1 12.3,4 25.3,2.8 38,3 l -2.6,-42.2 -37,2.5 z m 85.6,40.8 -1.3,-42.2 c 14.2,1.5 29.2,-2.4 42.8,0 l -1.3,38.4 z m 39.5,-40.9 -38.3,1.3 c 0.5,12.3 2,24.6 1.3,37 l 37,-2.5 z"
       id="path231" />
  </g>
  <path
     stroke="#ffffff"
     stroke-linecap="round"
     stroke-width="2"
     d="m 378.30672,80.727039 h 96.3 c 41.4,0 88.7,-6 127.8,10.6 65.9,28.000001 46.6,119.600001 -1.7,155.200001 -25.6,18.9 -74.3,37.6 -106.1,23.5 -24.9,-11 -28.2,-42.3 -25.7,-65.8 3.7,-34.5 29.3,-62.4 60.4,-75.6 a 325,325 0 0 1 167.1,-23 c 44,5.4 71,51.6 75.9,92.2 2.6,21.4 -21.4,27.8 -38.3,18.2 -15.3,-8.7 -17,-29.8 -18,-45.4 -2,-29.4 6,-43 31.7,-59 42.5,-26.200001 112,-47.899998 158.5,-18.200001 27.2,17.300001 52.5,51.700001 56.1,84.400001 3,27.5 -35.7,26.2 -47.4,8.4 a 79.2,79.2 0 0 1 -11,-48.8 c 2,-21.2 16.5,-27 35.8,-29 30.1,-3 69.19998,-4 86.89998,25.4 1.5,2.5 -1,-12.3 -1.5,-14 -1.7,-6.2 -6,-13 3.3,-14.2 15.8,-2 34.1,-1.5 49.7,1.7 3.4,0.8 21.4,8.8 21.4,2.8 0,-7.4 -22.2,-24.100001 -10.4,-25.300001 8,-0.8 12.5,-4.5 20.5,-4.5"
     id="path235" />
  <path
     stroke="#ffffff"
     stroke-linecap="round"
     stroke-linejoin="round"
     stroke-width="1.5"
     d="m 721.30672,436.12704 v 75.4 a 7,7 0 0 0 5,-2 l 27,-27 m -64,0 27,27 a 7,7 0 0 0 5,2"
     id="path237" />
  <defs
     id="defs245">
    <clipPath
       id="a">
      <path
         fill="#fff"
         d="M0 0h382v720H0z"
         id="path239" />
    </clipPath>
    <clipPath
       id="b">
      <path
         fill="#fff"
         d="M1107 0h333v720h-333z"
         id="path242" />
    </clipPath>
  </defs>
</svg>
