<svg width="33" height="33" viewBox="0 0 33 33" fill="none" xmlns="http://www.w3.org/2000/svg">
<g clip-path="url(#clip0_2742_1010)">
<path d="M24.2344 14.9531H25.2656C25.2625 12.219 24.175 9.59784 22.2417 7.66455C20.3084 5.73126 17.6872 4.64376 14.9531 4.64062V5.67188C17.4138 5.67474 19.7728 6.6535 21.5128 8.39346C23.2527 10.1334 24.2315 12.4925 24.2344 14.9531Z" fill="white"/>
<path d="M28.115 20.1862C28.0402 20.14 27.9549 20.1136 27.8671 20.1097C27.7793 20.1057 27.6919 20.1242 27.6133 20.1635L23.4883 22.226C23.4026 22.2689 23.3305 22.3347 23.2801 22.4162C23.2297 22.4978 23.2031 22.5917 23.2031 22.6875V26.3918C23.038 26.3307 22.8636 26.2986 22.6875 26.2969C22.3816 26.2969 22.0825 26.3876 21.8281 26.5576C21.5737 26.7276 21.3755 26.9691 21.2584 27.2518C21.1413 27.5344 21.1107 27.8455 21.1703 28.1455C21.23 28.4456 21.3774 28.7212 21.5937 28.9376C21.81 29.1539 22.0857 29.3012 22.3857 29.3609C22.6858 29.4206 22.9968 29.39 23.2795 29.2729C23.5621 29.1558 23.8037 28.9575 23.9737 28.7032C24.1437 28.4488 24.2344 28.1497 24.2344 27.8438V25.5843L27.3281 24.0374V25.3605C27.163 25.2994 26.9886 25.2673 26.8125 25.2656C26.5066 25.2656 26.2075 25.3564 25.9531 25.5263C25.6987 25.6963 25.5005 25.9379 25.3834 26.2205C25.2663 26.5032 25.2357 26.8142 25.2953 27.1143C25.355 27.4144 25.5024 27.69 25.7187 27.9063C25.935 28.1226 26.2107 28.27 26.5107 28.3297C26.8108 28.3893 27.1218 28.3587 27.4045 28.2416C27.6871 28.1246 27.9287 27.9263 28.0987 27.6719C28.2687 27.4175 28.3594 27.1185 28.3594 26.8125V20.625C28.3594 20.5371 28.337 20.4506 28.2942 20.3738C28.2514 20.297 28.1897 20.2324 28.115 20.1862ZM22.6875 28.3594C22.5855 28.3594 22.4858 28.3291 22.401 28.2725C22.3162 28.2158 22.2502 28.1353 22.2111 28.0411C22.1721 27.9469 22.1619 27.8432 22.1818 27.7432C22.2017 27.6431 22.2508 27.5513 22.3229 27.4792C22.395 27.407 22.4869 27.3579 22.5869 27.338C22.6869 27.3181 22.7906 27.3284 22.8848 27.3674C22.979 27.4064 23.0596 27.4725 23.1162 27.5573C23.1729 27.6421 23.2031 27.7418 23.2031 27.8438C23.2031 27.9805 23.1488 28.1117 23.0521 28.2084C22.9554 28.3051 22.8243 28.3594 22.6875 28.3594ZM24.2344 24.4314V23.0062L27.3281 21.4593V22.8845L24.2344 24.4314ZM26.8125 27.3281C26.7105 27.3281 26.6108 27.2979 26.526 27.2412C26.4412 27.1846 26.3752 27.104 26.3361 27.0098C26.2971 26.9156 26.2869 26.8119 26.3068 26.7119C26.3267 26.6119 26.3758 26.52 26.4479 26.4479C26.52 26.3758 26.6119 26.3267 26.7119 26.3068C26.8119 26.2869 26.9156 26.2971 27.0098 26.3361C27.104 26.3752 27.1846 26.4412 27.2412 26.526C27.2979 26.6108 27.3281 26.7105 27.3281 26.8125C27.3281 26.9493 27.2738 27.0804 27.1771 27.1771C27.0804 27.2738 26.9493 27.3281 26.8125 27.3281Z" fill="white"/>
<path d="M28.8095 18.9838C29.7109 15.9004 29.5602 12.6047 28.3814 9.61637C27.2026 6.62805 25.0625 4.11713 22.2988 2.47957C19.5351 0.842003 16.3049 0.170961 13.1177 0.572258C9.93039 0.973556 6.96737 2.42436 4.69584 4.6959C2.4243 6.96743 0.973495 9.93046 0.572197 13.1177C0.1709 16.305 0.841942 19.5352 2.47951 22.2989C4.11707 25.0626 6.62799 27.2026 9.61631 28.3815C12.6046 29.5603 15.9003 29.7109 18.9837 28.8095C19.5299 29.7794 20.2931 30.6098 21.2136 31.2356C22.1341 31.8614 23.1869 32.2658 24.2897 32.417C25.3925 32.5682 26.5153 32.4622 27.5702 32.1072C28.6252 31.7522 29.5837 31.158 30.3708 30.3709C31.1579 29.5838 31.7522 28.6253 32.1071 27.5703C32.4621 26.5153 32.5681 25.3925 32.4169 24.2897C32.2657 23.187 31.8614 22.1341 31.2355 21.2136C30.6097 20.2931 29.7794 19.53 28.8095 18.9838ZM14.9531 28.3594C12.1382 28.3658 9.39238 27.4879 7.10323 25.8498C4.81409 24.2116 3.09722 21.896 2.19497 19.2296C1.29272 16.5632 1.25065 13.6808 2.07472 10.9892C2.89878 8.2976 4.54734 5.9328 6.78771 4.22856C9.02808 2.52432 11.7471 1.56673 14.561 1.49095C17.3749 1.41518 20.1415 2.22503 22.4703 3.80622C24.7992 5.3874 26.5726 7.66005 27.5404 10.3034C28.5081 12.9467 28.6213 15.8272 27.8638 18.5383C27.5431 18.4136 27.2138 18.3123 26.8785 18.2351C27.6093 15.5954 27.4457 12.788 26.4134 10.2511C25.381 7.71411 23.5378 5.59025 21.1715 4.21093C18.8051 2.83161 16.0488 2.27441 13.3325 2.62628C10.6162 2.97816 8.09276 4.21931 6.15601 6.15607C4.21925 8.09283 2.9781 10.6162 2.62622 13.3325C2.27435 16.0488 2.83155 18.8052 4.21087 21.1715C5.59019 23.5378 7.71405 25.381 10.251 26.4134C12.788 27.4458 15.5954 27.6094 18.235 26.8785C18.3121 27.2141 18.4136 27.5436 18.5387 27.8644C17.3714 28.1906 16.1652 28.3571 14.9531 28.3594ZM18.0468 25.2656C18.0468 25.4636 18.0608 25.658 18.0767 25.8524C15.6546 26.5504 13.0691 26.4236 10.7268 25.4918C8.38462 24.56 6.41852 22.8762 5.13771 20.7051C3.8569 18.534 3.33404 15.9988 3.65133 13.498C3.96862 10.9973 5.10808 8.67302 6.89052 6.89058C8.67296 5.10814 10.9973 3.96868 13.498 3.65139C15.9987 3.3341 18.5339 3.85697 20.705 5.13778C22.8762 6.41859 24.56 8.38469 25.4917 10.7269C26.4235 13.0691 26.5504 15.6546 25.8524 18.0768C25.6585 18.0608 25.4636 18.0469 25.2656 18.0469C23.3517 18.0489 21.5168 18.8101 20.1634 20.1635C18.8101 21.5168 18.0489 23.3517 18.0468 25.2656ZM25.2656 31.4531C24.0418 31.4531 22.8455 31.0903 21.828 30.4104C20.8105 29.7305 20.0174 28.7641 19.5491 27.6335C19.0808 26.5029 18.9582 25.2588 19.197 24.0585C19.4357 22.8583 20.025 21.7558 20.8904 20.8904C21.7557 20.0251 22.8582 19.4358 24.0585 19.197C25.2587 18.9583 26.5028 19.0808 27.6334 19.5491C28.7641 20.0175 29.7304 20.8105 30.4103 21.8281C31.0902 22.8456 31.4531 24.0419 31.4531 25.2656C31.4513 26.9061 30.7988 28.4789 29.6388 29.6389C28.4788 30.7989 26.9061 31.4514 25.2656 31.4531Z" fill="white"/>
<path d="M13.9219 10.3125H11.8594C11.7226 10.3125 11.5915 10.3668 11.4948 10.4635C11.3981 10.5602 11.3438 10.6914 11.3438 10.8281V19.0781C11.3438 19.2149 11.3981 19.346 11.4948 19.4427C11.5915 19.5394 11.7226 19.5938 11.8594 19.5938H13.9219C14.0586 19.5938 14.1898 19.5394 14.2865 19.4427C14.3832 19.346 14.4375 19.2149 14.4375 19.0781V10.8281C14.4375 10.6914 14.3832 10.5602 14.2865 10.4635C14.1898 10.3668 14.0586 10.3125 13.9219 10.3125ZM13.4062 18.5625H12.375V11.3438H13.4062V18.5625Z" fill="white"/>
<path d="M18.0469 10.3125H15.9844C15.8476 10.3125 15.7165 10.3668 15.6198 10.4635C15.5231 10.5602 15.4688 10.6914 15.4688 10.8281V19.0781C15.4688 19.2149 15.5231 19.346 15.6198 19.4427C15.7165 19.5394 15.8476 19.5938 15.9844 19.5938H18.0469C18.1836 19.5938 18.3148 19.5394 18.4115 19.4427C18.5082 19.346 18.5625 19.2149 18.5625 19.0781V10.8281C18.5625 10.6914 18.5082 10.5602 18.4115 10.4635C18.3148 10.3668 18.1836 10.3125 18.0469 10.3125ZM17.5312 18.5625H16.5V11.3438H17.5312V18.5625Z" fill="white"/>
</g>
<defs>
<clipPath id="clip0_2742_1010">
<rect width="33" height="33" fill="white"/>
</clipPath>
</defs>
</svg>
