<svg width="33" height="33" viewBox="0 0 33 33" fill="none" xmlns="http://www.w3.org/2000/svg">
<g id="stand-up-comedy_13191559 1" clip-path="url(#clip0_2742_1127)">
<g id="Group">
<path id="Vector" d="M6.31641 4.10443H12.1816C13.7835 4.10443 15.082 5.40297 15.082 7.00482V20.54C15.082 22.1418 13.7835 23.4404 12.1816 23.4404H3.41602C1.81416 23.4404 0.515625 22.1418 0.515625 20.54V7.00482C0.515625 5.40297 1.81416 4.10443 3.41602 4.10443H4.38281" stroke="white" stroke-width="0.966797" stroke-miterlimit="10" stroke-linecap="round" stroke-linejoin="round"/>
<path id="Vector_2" d="M10.248 25.374V27.791C10.248 28.3249 10.6809 28.7578 11.2148 28.7578C11.7488 28.7578 12.1816 28.3249 12.1816 27.791V23.4404" stroke="white" stroke-width="0.966797" stroke-miterlimit="10" stroke-linecap="round" stroke-linejoin="round"/>
<path id="Vector_3" d="M3.41602 23.4404V27.791C3.41602 28.3249 3.84888 28.7578 4.38281 28.7578C4.91674 28.7578 5.34961 28.3249 5.34961 27.791V25.374" stroke="white" stroke-width="0.966797" stroke-miterlimit="10" stroke-linecap="round" stroke-linejoin="round"/>
<path id="Vector_4" d="M0.515625 14.7392H5.34961C5.88354 14.7392 6.31641 14.3063 6.31641 13.7724C6.31641 13.2385 5.88354 12.8056 5.34961 12.8056H0.515625" stroke="white" stroke-width="0.966797" stroke-miterlimit="10" stroke-linecap="round" stroke-linejoin="round"/>
<path id="Vector_5" d="M0.515625 18.6064H5.34961C5.88354 18.6064 6.31641 18.1735 6.31641 17.6396C6.31641 17.1057 5.88354 16.6728 5.34961 16.6728H0.515625" stroke="white" stroke-width="0.966797" stroke-miterlimit="10" stroke-linecap="round" stroke-linejoin="round"/>
<path id="Vector_6" d="M15.082 14.7392H10.248C9.71412 14.7392 9.28125 14.3063 9.28125 13.7724C9.28125 13.2385 9.71412 12.8056 10.248 12.8056H15.082" stroke="white" stroke-width="0.966797" stroke-miterlimit="10" stroke-linecap="round" stroke-linejoin="round"/>
<path id="Vector_7" d="M0.515625 10.872H5.34961C5.88354 10.872 6.31641 10.4391 6.31641 9.90521C6.31641 9.37128 5.88354 8.93842 5.34961 8.93842H0.515625" stroke="white" stroke-width="0.966797" stroke-miterlimit="10" stroke-linecap="round" stroke-linejoin="round"/>
<path id="Vector_8" d="M3.41602 14.7392C3.94995 14.7392 4.38281 14.3063 4.38281 13.7724C4.38281 13.2385 3.94995 12.8056 3.41602 12.8056" stroke="white" stroke-width="0.966797" stroke-miterlimit="10" stroke-linecap="round" stroke-linejoin="round"/>
<path id="Vector_9" d="M3.41602 18.6064C3.94995 18.6064 4.38281 18.1735 4.38281 17.6396C4.38281 17.1057 3.94995 16.6728 3.41602 16.6728" stroke="white" stroke-width="0.966797" stroke-miterlimit="10" stroke-linecap="round" stroke-linejoin="round"/>
<path id="Vector_10" d="M3.41602 10.872C3.94995 10.872 4.38281 10.4391 4.38281 9.90521C4.38281 9.37128 3.94995 8.93842 3.41602 8.93842" stroke="white" stroke-width="0.966797" stroke-miterlimit="10" stroke-linecap="round" stroke-linejoin="round"/>
<path id="Vector_11" d="M15.082 10.872H10.248C9.71412 10.872 9.28125 10.4391 9.28125 9.90521C9.28125 9.37128 9.71412 8.93842 10.248 8.93842H15.082" stroke="white" stroke-width="0.966797" stroke-miterlimit="10" stroke-linecap="round" stroke-linejoin="round"/>
<path id="Vector_12" d="M15.082 18.6064H10.248C9.71412 18.6064 9.28125 18.1735 9.28125 17.6396C9.28125 17.1057 9.71412 16.6728 10.248 16.6728H15.082" stroke="white" stroke-width="0.966797" stroke-miterlimit="10" stroke-linecap="round" stroke-linejoin="round"/>
<path id="Vector_13" d="M12.1816 14.7392C11.6477 14.7392 11.2148 14.3063 11.2148 13.7724C11.2148 13.2385 11.6477 12.8056 12.1816 12.8056" stroke="white" stroke-width="0.966797" stroke-miterlimit="10" stroke-linecap="round" stroke-linejoin="round"/>
<path id="Vector_14" d="M12.1816 10.872C11.6477 10.872 11.2148 10.4391 11.2148 9.90521C11.2148 9.37128 11.6477 8.93842 12.1816 8.93842" stroke="white" stroke-width="0.966797" stroke-miterlimit="10" stroke-linecap="round" stroke-linejoin="round"/>
<path id="Vector_15" d="M12.1816 18.6064C11.6477 18.6064 11.2148 18.1735 11.2148 17.6396C11.2148 17.1057 11.6477 16.6728 12.1816 16.6728" stroke="white" stroke-width="0.966797" stroke-miterlimit="10" stroke-linecap="round" stroke-linejoin="round"/>
<path id="Vector_16" d="M30.5812 14.6153C31.7719 13.1268 32.4844 11.239 32.4844 9.18457C32.4844 4.37901 28.5887 0.483398 23.7832 0.483398C18.9777 0.483398 15.082 4.37901 15.082 9.18457C15.082 13.9901 18.9777 17.8857 23.7832 17.8857C25.8376 17.8857 27.7254 17.1733 29.214 15.9826" stroke="white" stroke-width="0.966797" stroke-miterlimit="10" stroke-linecap="round" stroke-linejoin="round"/>
<path id="Vector_17" d="M20.038 9.18457C19.4092 9.18457 18.9439 9.77651 19.0997 10.3857C19.6337 12.4744 21.5281 14.0186 23.7832 14.0186C26.0383 14.0186 27.9327 12.4744 28.4668 10.3857C28.6226 9.77644 28.1573 9.18457 27.5284 9.18457H20.038Z" stroke="white" stroke-width="0.966797" stroke-miterlimit="10" stroke-linecap="round" stroke-linejoin="round"/>
<path id="Vector_18" d="M21.5888 6.76758C21.4216 6.47889 21.1101 6.28418 20.7524 6.28418C20.3948 6.28418 20.0833 6.47889 19.916 6.76758" stroke="white" stroke-width="0.966797" stroke-miterlimit="10" stroke-linecap="round" stroke-linejoin="round"/>
<path id="Vector_19" d="M27.6504 6.76758C27.4831 6.47889 27.1716 6.28418 26.8139 6.28418C26.4563 6.28418 26.1448 6.47889 25.9775 6.76758" stroke="white" stroke-width="0.966797" stroke-miterlimit="10" stroke-linecap="round" stroke-linejoin="round"/>
<path id="Vector_20" d="M27.2345 12.5684C26.3572 11.6737 25.1352 11.1182 23.7832 11.1182C22.4312 11.1182 21.2092 11.6737 20.3318 12.5684" stroke="white" stroke-width="0.966797" stroke-miterlimit="10" stroke-linecap="round" stroke-linejoin="round"/>
<path id="Vector_21" d="M10.248 25.374H5.34961V32.5166H10.248V25.374Z" stroke="white" stroke-width="0.966797" stroke-miterlimit="10" stroke-linecap="round" stroke-linejoin="round"/>
<path id="Vector_22" d="M5.34961 30.583H10.248" stroke="white" stroke-width="0.966797" stroke-miterlimit="10" stroke-linecap="round" stroke-linejoin="round"/>
</g>
</g>
<defs>
<clipPath id="clip0_2742_1127">
<rect width="33" height="33" fill="white"/>
</clipPath>
</defs>
</svg>
