<svg width="33" height="33" viewBox="0 0 33 33" fill="none" xmlns="http://www.w3.org/2000/svg">
<g id="review_3930171 1" clip-path="url(#clip0_2742_1109)">
<g id="Group">
<path id="Vector" d="M17.3867 12.7537L17.3867 12.7537L17.3882 12.7522C18.8623 11.213 21.5127 11.213 22.9868 12.7522L22.9868 12.7522L22.9883 12.7537C23.1186 12.8842 23.2723 12.9357 23.4214 12.9248C23.5678 12.9141 23.7025 12.8439 23.8024 12.7442C23.9024 12.6444 23.9728 12.5098 23.9838 12.3635C23.995 12.2144 23.9438 12.0606 23.8136 11.9301L23.8136 11.9301C22.8446 10.9591 21.5565 10.424 20.1875 10.424C18.8185 10.424 17.5304 10.9591 16.5615 11.9301L16.5615 11.9301C16.4312 12.0606 16.38 12.2144 16.3912 12.3635C16.4022 12.5099 16.4727 12.6444 16.5727 12.7442C16.6726 12.8439 16.8073 12.9141 16.9537 12.9248C17.1028 12.9357 17.2565 12.8841 17.3867 12.7537Z" fill="white" stroke="white" stroke-width="0.2"/>
<path id="Vector_2" d="M18.9068 7.62335L18.9068 7.62335L16.4196 6.19392C16.4196 6.19392 16.4196 6.19392 16.4196 6.19392C16.2598 6.10206 16.0979 6.09256 15.9569 6.1421C15.8184 6.19073 15.7067 6.29369 15.6364 6.41614C15.566 6.53858 15.5332 6.68689 15.5609 6.83103C15.5891 6.97784 15.6788 7.11288 15.8386 7.20473L15.8386 7.20473L18.3258 8.63417L18.3258 8.63419C18.4173 8.68669 18.5172 8.7118 18.6159 8.7118C18.9197 8.7118 19.1107 8.50116 19.1657 8.26736C19.2199 8.03703 19.1473 7.76159 18.9068 7.62335Z" fill="white" stroke="white" stroke-width="0.2"/>
<path id="Vector_3" d="M24.5364 7.2047L24.5364 7.2047L23.9554 6.1939L21.4682 7.62331C21.3054 7.71687 21.2146 7.85198 21.1875 7.9995C21.1611 8.14413 21.1975 8.29133 21.2705 8.41197C21.4152 8.65091 21.7301 8.81762 22.0492 8.63412L24.5364 7.2047Z" fill="white" stroke="white" stroke-width="0.2"/>
<path id="Vector_4" d="M6.29051 18.4289C6.47428 18.4289 6.61885 18.3563 6.71611 18.2431C6.81158 18.1319 6.85695 17.9871 6.85703 17.846C6.8571 17.7048 6.81188 17.56 6.71642 17.4488C6.61915 17.3355 6.47448 17.263 6.29051 17.263C6.10675 17.263 5.96218 17.3355 5.86493 17.4487C5.76948 17.5599 5.72411 17.7047 5.72404 17.8459C5.72396 17.987 5.76917 18.1319 5.86463 18.2431C5.96189 18.3564 6.10654 18.4289 6.29051 18.4289Z" fill="white" stroke="white" stroke-width="0.2"/>
<path id="Vector_5" d="M12.1912 17.263C12.0074 17.263 11.8628 17.3355 11.7656 17.4487C11.6701 17.5599 11.6247 17.7047 11.6247 17.8459C11.6246 17.987 11.6698 18.1319 11.7653 18.2431C11.8625 18.3564 12.0072 18.4289 12.1912 18.4289C12.375 18.4289 12.5195 18.3563 12.6168 18.2431C12.7123 18.1319 12.7576 17.9871 12.7577 17.846C12.7578 17.7048 12.7126 17.56 12.6171 17.4488C12.5198 17.3355 12.3752 17.263 12.1912 17.263Z" fill="white" stroke="white" stroke-width="0.2"/>
<path id="Vector_6" d="M6.28705 23.2157L6.28705 23.2158H6.29049H12.1912V23.2158L12.1946 23.2157C12.9634 23.1891 12.9618 22.0763 12.1946 22.05L12.1946 22.0499H12.1912H6.29049V22.0498L6.28702 22.05C5.51849 22.0766 5.51974 23.1894 6.28705 23.2157Z" fill="white" stroke="white" stroke-width="0.2"/>
<path id="Vector_7" d="M4.54356 13.129L4.54356 13.129C4.39318 13.2356 4.23298 13.2604 4.08787 13.2245C3.9454 13.1892 3.82447 13.0973 3.7428 12.9821C3.66113 12.8669 3.61445 12.7223 3.62834 12.5762C3.64249 12.4274 3.7189 12.2846 3.86915 12.178C5.90256 10.7208 8.52298 10.16 10.9764 10.6328C10.1058 5.0868 14.5532 -0.129 20.1876 -0.0762266C28.0049 -0.106885 32.3439 9.18017 27.3968 15.16C32.3819 17.1703 34.6994 23.5837 31.8821 28.3765C31.7909 28.5363 31.6564 28.6264 31.5099 28.6552C31.3659 28.6836 31.2174 28.6515 31.0947 28.5817C30.9719 28.5119 30.8684 28.4007 30.8192 28.2624C30.769 28.1216 30.7778 27.9597 30.8689 27.7995C31.5644 26.5767 31.9323 25.1815 31.9326 23.7649C31.4843 12.935 16.092 12.9327 15.6424 23.7649C15.6273 31.0247 24.5719 34.6844 29.6151 29.4662L29.6154 29.4659C29.7441 29.3339 29.8971 29.2806 30.0464 29.2897C30.1929 29.2986 30.3284 29.3672 30.4296 29.4657C30.5307 29.5643 30.6027 29.698 30.6155 29.8442C30.6285 29.993 30.5792 30.1472 30.4509 30.2791C30.4508 30.2793 30.4506 30.2794 30.4505 30.2796L30.3789 30.2098C25.7274 35.1002 17.3851 33.1846 15.1599 27.0005L4.54356 13.129ZM4.54356 13.129L4.5446 13.1282C8.95312 9.91724 15.4686 12.1612 17.0178 17.3621C14.963 19.4755 13.9858 22.8571 14.7103 25.8488C13.209 27.2138 11.2749 27.9631 9.24081 27.9631L9.24035 27.9631C2.49496 27.9942 -1.35917 20.0235 2.83941 14.751L2.83978 14.7505C2.95374 14.6056 2.9865 14.4469 2.95783 14.3002C2.92967 14.1561 2.84389 14.0308 2.73287 13.9435C2.62185 13.8562 2.47981 13.8024 2.33318 13.809C2.18383 13.8157 2.03727 13.885 1.92333 14.0299L1.9233 14.0299L1.92159 14.0322C-4.69536 22.9625 6.30356 33.7845 15.0768 27.0647L4.54356 13.129ZM20.1863 1.08966L20.1879 1.08965C27.2219 1.06784 30.9515 9.59584 26.2085 14.752C23.4011 13.9537 20.1194 14.6913 17.9512 16.4954C16.956 13.8585 14.825 11.8444 12.22 10.9608C11.1046 5.98128 15.0729 1.02699 20.1863 1.08966Z" fill="white" stroke="white" stroke-width="0.2"/>
<path id="Vector_8" d="M18.7687 22.5534H18.7686L18.7687 22.5569C18.7956 23.325 19.9075 23.3246 19.9345 22.5573C19.9827 21.399 21.6193 21.3987 21.6687 22.5556C21.6699 22.8766 21.9305 23.1364 22.2517 23.1364C22.5736 23.1364 22.8346 22.8754 22.8346 22.5534C22.8346 21.4308 21.9229 20.5174 20.8016 20.5174C19.6804 20.5174 18.7687 21.4308 18.7687 22.5534Z" fill="white" stroke="white" stroke-width="0.2"/>
<path id="Vector_9" d="M28.6834 22.5534H28.6835L28.6833 22.5493C28.5717 19.8527 24.7285 19.8541 24.6175 22.5493L24.6172 22.5493L24.6175 22.5569C24.6444 23.325 25.7566 23.3248 25.7832 22.5569L25.7833 22.5569V22.5534C25.7833 22.0734 26.1726 21.6832 26.6504 21.6832C27.1281 21.6832 27.5175 22.0734 27.5175 22.5534C27.5175 22.8754 27.7785 23.1364 28.1004 23.1364C28.4224 23.1364 28.6834 22.8754 28.6834 22.5534Z" fill="white" stroke="white" stroke-width="0.2"/>
<g id="Vector_10">
<mask id="path-10-outside-1_2742_1109" maskUnits="userSpaceOnUse" x="19.0911" y="25.0867" width="9" height="4" fill="black">
<rect fill="white" x="19.0911" y="25.0867" width="9" height="4"/>
<path d="M23.7874 28.3876C25.1298 28.3876 26.3925 27.8631 27.3427 26.9108C27.5311 26.722 27.5307 26.4162 27.342 26.2278C27.1531 26.0394 26.8474 26.0397 26.659 26.2285C25.1456 27.8089 22.4293 27.8088 20.9159 26.2285C20.7275 26.0398 20.4218 26.0394 20.2329 26.2278C20.0441 26.4162 20.0438 26.722 20.2322 26.9108C21.1825 27.8631 22.4451 28.3876 23.7874 28.3876Z"/>
</mask>
<path d="M23.7874 28.3876C25.1298 28.3876 26.3925 27.8631 27.3427 26.9108C27.5311 26.722 27.5307 26.4162 27.342 26.2278C27.1531 26.0394 26.8474 26.0397 26.659 26.2285C25.1456 27.8089 22.4293 27.8088 20.9159 26.2285C20.7275 26.0398 20.4218 26.0394 20.2329 26.2278C20.0441 26.4162 20.0438 26.722 20.2322 26.9108C21.1825 27.8631 22.4451 28.3876 23.7874 28.3876Z" fill="white"/>
<path d="M27.3427 26.9108L27.2011 26.7695L27.2011 26.7695L27.3427 26.9108ZM27.342 26.2278L27.4833 26.0863L27.4832 26.0862L27.342 26.2278ZM26.659 26.2285L26.5174 26.0872L26.5145 26.0902L26.659 26.2285ZM20.9159 26.2285L21.0604 26.0901L21.0574 26.0872L20.9159 26.2285ZM20.2329 26.2278L20.0916 26.0862L20.0916 26.0862L20.2329 26.2278ZM20.2322 26.9108L20.3737 26.7695L20.3737 26.7695L20.2322 26.9108ZM23.7874 28.5876C25.1831 28.5876 26.4966 28.0419 27.4843 27.0521L27.2011 26.7695C26.2883 27.6843 25.0766 28.1876 23.7874 28.1876V28.5876ZM27.4843 27.0521C27.7507 26.7851 27.7501 26.3527 27.4833 26.0863L27.2007 26.3693C27.3113 26.4798 27.3115 26.659 27.2011 26.7695L27.4843 27.0521ZM27.4832 26.0862C27.2162 25.8198 26.7839 25.8202 26.5174 26.0872L26.8006 26.3698C26.9109 26.2592 27.09 26.259 27.2007 26.3694L27.4832 26.0862ZM26.5145 26.0902C25.0799 27.5883 22.495 27.5883 21.0603 26.0902L20.7714 26.3668C22.3636 28.0294 25.2113 28.0294 26.8034 26.3668L26.5145 26.0902ZM21.0574 26.0872C20.791 25.8203 20.3588 25.8198 20.0916 26.0862L20.3741 26.3694C20.4848 26.259 20.6639 26.2592 20.7743 26.3698L21.0574 26.0872ZM20.0916 26.0862C19.8246 26.3527 19.8242 26.7851 20.0906 27.0521L20.3737 26.7695C20.2633 26.6589 20.2635 26.4798 20.3741 26.3694L20.0916 26.0862ZM20.0906 27.0521C21.0783 28.0419 22.3919 28.5876 23.7874 28.5876V28.1876C22.4984 28.1876 21.2866 27.6843 20.3737 26.7695L20.0906 27.0521Z" fill="white" mask="url(#path-10-outside-1_2742_1109)"/>
</g>
<path id="Vector_11" d="M29.2131 14.353L29.2131 14.353C29.3753 14.0749 29.7324 13.9809 30.0103 14.1431L29.2131 14.353ZM29.2131 14.353C29.051 14.6311 29.145 14.988 29.423 15.1502L29.4231 15.1502M29.2131 14.353L29.4231 15.1502M29.4231 15.1502C29.423 15.1502 29.4244 15.151 29.4271 15.1526M29.4231 15.1502L29.4271 15.1526M29.4271 15.1526L29.4385 15.1595M29.4271 15.1526L29.4385 15.1595M29.4385 15.1595C29.4484 15.1655 29.4629 15.1744 29.4816 15.1861M29.4385 15.1595L29.4816 15.1861M29.4816 15.1861C29.519 15.2095 29.5731 15.2442 29.6409 15.2898M29.4816 15.1861L29.6409 15.2898M29.6409 15.2898C29.7765 15.381 29.9667 15.5157 30.1872 15.6907M29.6409 15.2898L30.1872 15.6907M30.1872 15.6907C30.6285 16.0411 31.1889 16.5518 31.6752 17.1979M30.1872 15.6907L31.6752 17.1979M31.6752 17.1979C31.7885 17.3485 31.9343 17.423 32.0844 17.4328M31.6752 17.1979L32.0844 17.4328M32.0844 17.4328C32.2318 17.4425 32.3742 17.3894 32.4857 17.3024M32.0844 17.4328L32.4857 17.3024M32.4857 17.3024C32.7073 17.1294 32.8314 16.7954 32.6067 16.4968M32.4857 17.3024L32.6067 16.4968M32.6067 16.4968C31.4933 15.0174 30.074 14.1802 30.0104 14.1431L32.6067 16.4968Z" fill="white" stroke="white" stroke-width="0.2"/>
<path id="Vector_12" d="M32.9497 14.4481C32.4293 13.8671 31.9076 13.4882 31.8835 13.4708L31.8835 13.4708L31.8833 13.4706C31.7339 13.3628 31.5741 13.3367 31.4288 13.3713C31.2861 13.4053 31.1645 13.4961 31.0819 13.6105C30.9992 13.7249 30.9513 13.8689 30.9638 14.015C30.9765 14.1639 31.0514 14.3075 31.2005 14.4156L31.2592 14.3346L31.2003 14.4154C31.2024 14.417 31.6474 14.7415 32.0813 15.226L32.0813 15.226C32.2053 15.3644 32.3563 15.425 32.5062 15.4221C32.6533 15.4192 32.7912 15.3556 32.8959 15.2607C33.0005 15.1657 33.0771 15.0345 33.0957 14.889C33.1145 14.7409 33.072 14.5847 32.9497 14.4481ZM32.9497 14.4481L32.8752 14.5149L32.9497 14.4481Z" fill="white" stroke="white" stroke-width="0.2"/>
<path id="Vector_13" d="M4.21367 30.2675C4.38465 30.3233 4.54223 30.2975 4.66813 30.2198C4.79164 30.1436 4.87981 30.0207 4.92475 29.8874C4.9697 29.7542 4.97391 29.603 4.91946 29.4678C4.86389 29.3298 4.75009 29.2162 4.57561 29.1592L4.57558 29.1592C4.5756 29.1592 4.27823 29.06 3.82502 28.7944C3.37202 28.5289 2.76379 28.0973 2.1411 27.4326L2.14109 27.4326C2.01507 27.2981 1.86308 27.2417 1.7137 27.2479C1.56705 27.2539 1.43018 27.3198 1.32711 27.4163C1.22405 27.5129 1.1494 27.6452 1.13379 27.7911C1.11788 27.9398 1.16421 28.0951 1.29024 28.2296L1.29024 28.2297C2.73313 29.7699 4.14454 30.245 4.21367 30.2675ZM4.21367 30.2675L4.24469 30.1724M4.21367 30.2675C4.21368 30.2675 4.21369 30.2675 4.2137 30.2675L4.24469 30.1724M4.24469 30.1724C4.18603 30.1533 2.79117 29.6856 1.36322 28.1613C0.936301 27.7055 1.6412 27.0452 2.06812 27.5009C3.32846 28.8463 4.53252 29.2503 4.54456 29.2543C5.13381 29.4467 4.81643 30.359 4.24469 30.1724Z" fill="white" stroke="white" stroke-width="0.2"/>
<path id="Vector_14" d="M2.95135 30.1271C2.94905 30.1259 2.46723 29.8592 1.9764 29.4325L2.39107 31.1496C2.71336 31.3258 3.02444 31.1529 3.16418 30.9113C3.23475 30.7893 3.26824 30.6416 3.23892 30.4976C3.20901 30.3507 3.11559 30.2175 2.95117 30.127L2.90298 30.2147L2.95135 30.1271ZM1.97638 29.4324C1.8373 29.3115 1.68036 29.2709 1.5324 29.2923C1.38714 29.3133 1.25771 29.3928 1.16504 29.4993C1.07236 29.6059 1.01161 29.7451 1.01097 29.8919C1.01031 30.0414 1.07225 30.1912 1.21134 30.3122C1.79979 30.8239 2.36455 31.1351 2.39106 31.1495L1.97638 29.4324Z" fill="white" stroke="white" stroke-width="0.2"/>
<path id="Vector_15" d="M9.75474 4.36401C9.65478 4.67003 9.82189 4.99918 10.1279 5.09913L10.1279 5.09914C10.2747 5.14705 10.4351 5.12299 10.5674 5.05616C10.6997 4.98929 10.8146 4.87419 10.863 4.72597L10.863 4.72594C10.863 4.72596 10.9622 4.4286 11.2278 3.97539C11.4934 3.52239 11.9249 2.91416 12.5897 2.29146L12.5897 2.29146C12.7242 2.16543 12.7805 2.01345 12.7744 1.86408C12.7683 1.71743 12.7024 1.58057 12.6059 1.4775C12.5093 1.37444 12.3771 1.2998 12.2311 1.28418C12.0825 1.26827 11.9271 1.31459 11.7926 1.4406L11.7926 1.4406C10.2526 2.88327 9.77742 4.29447 9.75474 4.36401ZM9.75474 4.36401L9.8498 4.39506L9.75472 4.36406C9.75473 4.36404 9.75473 4.36402 9.75474 4.36401Z" fill="white" stroke="white" stroke-width="0.2"/>
<path id="Vector_16" d="M9.10398 3.33209L9.10402 3.33201C8.82203 3.17737 8.71834 2.82371 8.87273 2.54143L9.10398 3.33209ZM9.10398 3.33209L9.10777 3.33396M9.10398 3.33209L9.10777 3.33396M9.10777 3.33396C9.24785 3.40325 9.38957 3.42358 9.52751 3.3834C9.66347 3.34379 9.78243 3.24926 9.88669 3.11455L9.89141 3.10845M9.10777 3.33396L9.89141 3.10845M9.89141 3.10845L9.89514 3.10171M9.89141 3.10845L9.89514 3.10171M9.89514 3.10171C9.89641 3.09941 10.1631 2.61758 10.5898 2.12674M9.89514 3.10171L10.5898 2.12674M10.5898 2.12674C10.7108 1.98765 10.7513 1.8307 10.7299 1.68274M10.5898 2.12674L10.7299 1.68274M10.7299 1.68274C10.7089 1.53748 10.6294 1.40805 10.5229 1.31537M10.7299 1.68274L10.5229 1.31537M10.5229 1.31537C10.4163 1.2227 10.2771 1.16194 10.1303 1.1613M10.5229 1.31537L10.1303 1.1613M10.1303 1.1613C9.98085 1.16064 9.83106 1.22259 9.71012 1.36171M10.1303 1.1613L9.71012 1.36171M9.71012 1.36171C9.19844 1.95011 8.88727 2.51483 8.87274 2.54141L9.71012 1.36171Z" fill="white" stroke="white" stroke-width="0.2"/>
</g>
</g>
<defs>
<clipPath id="clip0_2742_1109">
<rect width="33" height="33" fill="white"/>
</clipPath>
</defs>
</svg>
