<svg width="34" height="34" viewBox="0 0 34 34" fill="none" xmlns="http://www.w3.org/2000/svg">
<path d="M18.0625 27.4788V31.875H24.0057C24.5925 31.875 25.0682 32.3507 25.0682 32.9375C25.0682 33.5243 24.5925 34 24.0057 34H9.99428C9.40745 34 8.93178 33.5243 8.93178 32.9375C8.93178 32.3507 9.40745 31.875 9.99428 31.875H15.9375V27.4788C10.6412 26.9445 6.49321 22.4603 6.49321 17.0255C6.49321 16.4387 6.96888 15.963 7.55571 15.963C8.14254 15.963 8.61821 16.4387 8.61821 17.0255C8.61821 21.6472 12.3782 25.4072 16.9999 25.4072C21.6217 25.4072 25.3817 21.6472 25.3817 17.0255C25.3817 16.4387 25.8573 15.963 26.4442 15.963C27.031 15.963 27.5067 16.4387 27.5067 17.0255C27.5067 22.4603 23.3587 26.9445 18.0625 27.4788ZM10.7534 17.0255V6.24664C10.7534 2.80228 13.5556 0 16.9999 0C20.4443 0 23.2465 2.80221 23.2465 6.24664V17.0254C23.2465 20.4698 20.4443 23.272 16.9999 23.272C13.5556 23.272 10.7534 20.4699 10.7534 17.0255ZM12.8784 17.0255C12.8784 19.2982 14.7273 21.1471 16.9999 21.1471C19.2726 21.1471 21.1215 19.2981 21.1215 17.0255V6.24664C21.1215 3.97402 19.2726 2.125 16.9999 2.125C14.7273 2.125 12.8784 3.97395 12.8784 6.24664V17.0255ZM25.6917 12.1898C25.8991 12.3973 26.171 12.501 26.4429 12.501C26.7148 12.501 26.9867 12.3973 27.1942 12.1898C29.0975 10.2865 29.0975 7.18954 27.1942 5.2862C26.7794 4.87136 26.1066 4.87123 25.6916 5.2862C25.2766 5.70118 25.2766 6.37387 25.6916 6.78878C26.7664 7.86363 26.7664 9.61244 25.6916 10.6873C25.2767 11.1021 25.2767 11.7749 25.6917 12.1898ZM6.80565 12.1898C7.01311 12.3973 7.28504 12.501 7.55691 12.501C7.82877 12.501 8.10071 12.3973 8.30816 12.1898C8.72313 11.7749 8.72313 11.1021 8.30816 10.6872C7.23338 9.61237 7.23338 7.86356 8.30816 6.78871C8.72313 6.37374 8.72313 5.70104 8.30816 5.28614C7.89325 4.87123 7.22049 4.87116 6.80559 5.28614C4.90232 7.18954 4.90232 10.2865 6.80565 12.1898ZM29.8268 2.65359C29.412 2.23862 28.7392 2.23869 28.3243 2.65359C27.9093 3.06857 27.9093 3.74126 28.3243 4.15617C30.8506 6.68259 30.8506 10.7934 28.3243 13.3198C27.9093 13.7348 27.9093 14.4075 28.3243 14.8224C28.5317 15.0299 28.8037 15.1336 29.0755 15.1336C29.3474 15.1336 29.6193 15.0299 29.8268 14.8223C33.1818 11.4674 33.1818 6.0085 29.8268 2.65359ZM5.67562 4.15617C6.09059 3.74126 6.09059 3.0685 5.67562 2.65359C5.26071 2.23869 4.58795 2.23862 4.17304 2.65359C0.818133 6.0085 0.818133 11.4674 4.17304 14.8224C4.3805 15.0299 4.65236 15.1337 4.9243 15.1337C5.19623 15.1337 5.4681 15.0299 5.67555 14.8225C6.09052 14.4075 6.09052 13.7348 5.67555 13.3199C3.14926 10.7934 3.14926 6.68259 5.67562 4.15617Z" fill="white"/>
</svg>
