<svg width="33" height="33" viewBox="0 0 33 33" fill="none" xmlns="http://www.w3.org/2000/svg">
<g clip-path="url(#clip0_2742_987)">
<path d="M31.8907 18.7497L29.3432 13.9185C29.0937 13.4453 28.9385 12.9558 28.882 12.4635C28.4774 8.95252 26.7767 5.74136 24.0928 3.42119C21.38 1.07608 17.9063 -0.134621 14.313 0.0118985C6.96035 0.311539 1.03817 6.31965 0.83067 13.69C0.751338 16.5086 1.49872 19.2484 2.99243 21.6162C2.99771 21.6261 3.00339 21.6357 3.00946 21.6452C4.03655 23.2653 4.27851 25.2428 3.67435 27.0666L1.86793 32.3639C1.78239 32.6151 1.91624 32.8883 2.16691 32.974C2.21825 32.9917 2.27066 33 2.32201 33C2.52159 33 2.70797 32.8742 2.77609 32.6746L4.58383 27.3733C5.27683 25.2813 5.00464 23.0183 3.83763 21.1591C3.83235 21.1491 3.82654 21.139 3.82034 21.1294C2.41784 18.9175 1.71573 16.3544 1.78991 13.7172C1.98316 6.84963 7.50103 1.25138 14.352 0.972067C17.7022 0.835711 20.9378 1.96378 23.4655 4.14865C25.9665 6.31081 27.5514 9.30272 27.9283 12.5733C27.9985 13.1846 28.1891 13.7882 28.4944 14.3673L31.0478 19.2098C31.0521 19.2178 31.0564 19.2257 31.0612 19.2335C31.2588 19.5616 31.2643 19.9568 31.0762 20.2905C30.8879 20.6249 30.5465 20.8243 30.1634 20.8245L28.495 20.8251C28.2665 20.8253 28.0697 20.9868 28.0248 21.2115L26.9911 26.388C26.7079 27.8057 25.4547 28.8346 24.0112 28.8346H20.1639C19.4761 28.8346 18.8294 28.5664 18.343 28.0793L16.0388 25.7716C15.8513 25.5839 15.5477 25.5839 15.3603 25.7716C15.1729 25.9591 15.1729 26.2635 15.3603 26.4511L17.6645 28.7589C17.7578 28.8523 17.8564 28.9385 17.9579 29.02L16.8439 32.3672C16.76 32.6189 16.8959 32.8911 17.1473 32.9749C17.1976 32.9918 17.2487 32.9998 17.299 32.9998C17.5 32.9998 17.6871 32.8724 17.7541 32.6709L18.8015 29.5238C19.2275 29.7019 19.6885 29.7957 20.1639 29.7957H24.0112C25.9107 29.7957 27.5596 28.4418 27.932 26.5762L28.8887 21.786L30.1637 21.7854C30.8975 21.7853 31.551 21.4029 31.9118 20.763C32.2699 20.1276 32.2617 19.376 31.8904 18.7494L31.8907 18.7497Z" fill="white"/>
<path d="M23.3597 15.3304V11.4485C23.3597 9.0816 22.3117 6.82612 20.4844 5.26047C20.2833 5.08794 19.9801 5.11144 19.8079 5.31314C19.6356 5.51483 19.6591 5.81817 19.8605 5.99069C21.4745 7.37366 22.4001 9.3629 22.4001 11.4485V15.3304C22.4001 15.5958 22.6149 15.811 22.8799 15.811C23.145 15.811 23.3597 15.5958 23.3597 15.3304Z" fill="white"/>
<path d="M6.88584 11.9291C7.15089 11.9291 7.36566 11.7139 7.36566 11.4485C7.36566 7.4324 10.7379 4.16526 14.8829 4.16526C16.207 4.16526 17.5085 4.50318 18.6468 5.14233C18.878 5.27222 19.1703 5.18972 19.2999 4.95832C19.4295 4.72679 19.3473 4.43375 19.1162 4.30413C17.8347 3.58433 16.371 3.20404 14.8828 3.20404C10.2085 3.20404 6.40588 6.90255 6.40588 11.4485C6.40588 11.7139 6.62065 11.9291 6.8857 11.9291H6.88584Z" fill="white"/>
<path d="M22.6326 17.7373C22.872 17.7373 23.0791 17.558 23.1083 17.3139C23.1398 17.0503 22.9521 16.8111 22.6891 16.7796C21.9316 16.6885 21.3605 16.0656 21.3605 15.3305V11.4486C21.3605 10.8541 21.2755 10.2658 21.1078 9.69978C21.0323 9.44542 20.7661 9.30008 20.5113 9.37585C20.2573 9.45136 20.1124 9.71879 20.1878 9.97328C20.3292 10.4505 20.4008 10.9468 20.4008 11.4486V15.3305C20.4008 16.5518 21.3355 17.5849 22.5747 17.7338C22.5941 17.7362 22.6134 17.7373 22.6326 17.7373Z" fill="white"/>
<path d="M6.88583 13.87C8.25282 13.87 9.36492 12.7837 9.36492 11.4485C9.36492 8.50277 11.8403 6.10618 14.8829 6.10618C16.8495 6.10618 18.6823 7.13196 19.6663 8.78327C19.802 9.01124 20.0966 9.08529 20.3242 8.94973C20.5518 8.81363 20.6261 8.51875 20.4904 8.29078C19.3342 6.35038 17.1855 5.14496 14.8829 5.14496C11.3111 5.14496 8.40528 7.97266 8.40528 11.4485C8.40528 12.2537 7.72363 12.9088 6.88583 12.9088C6.62077 12.9088 6.40601 13.124 6.40601 13.3894C6.40601 13.6549 6.62077 13.87 6.88583 13.87Z" fill="white"/>
<path d="M21.881 19.571C22.096 19.571 22.2918 19.425 22.3463 19.2065C22.4103 18.949 22.254 18.6883 21.9967 18.6239C20.4451 18.2362 19.3612 16.882 19.3612 15.3303V11.4468C19.3612 9.04132 17.3523 7.08429 14.8829 7.08429C14.4378 7.08429 13.9983 7.14778 13.5766 7.27292C13.3225 7.34829 13.1777 7.61572 13.2529 7.87022C13.3282 8.12471 13.5953 8.27044 13.8493 8.19441C14.1823 8.09554 14.5302 8.04551 14.8829 8.04551C16.8231 8.04551 18.4016 9.5713 18.4016 11.4468V15.3303C18.4016 17.3239 19.7845 19.0618 21.7645 19.5564C21.8035 19.5661 21.8424 19.5708 21.881 19.5708V19.571Z" fill="white"/>
<path d="M11.3642 11.4469C11.3642 10.4753 11.796 9.54757 12.5485 8.90196C12.7498 8.72944 12.7733 8.42597 12.6008 8.22441C12.4286 8.02258 12.1254 7.99948 11.9243 8.172C10.9584 9.00057 10.4045 10.1941 10.4045 11.4486C10.4045 13.3242 8.82609 14.8499 6.88583 14.8499C6.62077 14.8499 6.40601 15.065 6.40601 15.3305C6.40601 15.5959 6.62077 15.8111 6.88583 15.8111C9.35528 15.8111 11.3642 13.8541 11.3642 11.4469Z" fill="white"/>
<path d="M20.4542 21.1769C20.5119 21.1994 20.5712 21.2101 20.6295 21.2101C20.8212 21.2101 21.002 21.0944 21.0764 20.9051C21.1732 20.658 21.0517 20.3789 20.8051 20.282C18.7136 19.4598 17.3621 17.5161 17.3621 15.3303V11.446C17.3621 10.1108 16.25 9.02441 14.883 9.02441C13.5161 9.02441 12.404 10.1108 12.404 11.4485C12.404 12.5024 12.0873 13.5218 11.4887 14.3962C11.3387 14.6151 11.3943 14.9143 11.6129 15.0643C11.832 15.2148 12.1303 15.159 12.28 14.94C12.989 13.9047 13.3637 12.6973 13.3637 11.446C13.3637 10.6408 14.0454 9.98564 14.8832 9.98564C15.721 9.98564 16.4026 10.6408 16.4026 11.446V15.3303C16.4026 17.9141 17.9931 20.209 20.4545 21.1769H20.4542Z" fill="white"/>
<path d="M11.2469 15.4737C11.0731 15.2729 10.7697 15.2518 10.57 15.4255C9.61883 16.2521 8.39255 16.7354 7.1173 16.7862C6.85237 16.7969 6.64632 17.0203 6.65688 17.2855C6.66718 17.5443 6.87996 17.747 7.13604 17.747C7.14238 17.747 7.14898 17.7469 7.15545 17.7467C8.64757 17.6871 10.0836 17.1207 11.1989 16.1517C11.3991 15.9777 11.4205 15.6742 11.2469 15.4737Z" fill="white"/>
<path d="M15.3625 11.4486C15.3625 11.1832 15.1478 10.9681 14.8827 10.9681C14.6177 10.9681 14.4029 11.1833 14.4029 11.4488C14.4029 15.0995 11.5893 18.2046 7.85833 18.6715C7.59552 18.7044 7.40887 18.9445 7.44174 19.208C7.4721 19.4511 7.67868 19.6289 7.91721 19.6289C7.93701 19.6289 7.9572 19.6277 7.9774 19.6252C12.1877 19.0985 15.3625 15.5834 15.3625 11.4488V11.4486Z" fill="white"/>
<path d="M14.8735 18.0389C15.5379 19.8943 16.8751 21.48 18.6468 22.4749C18.721 22.5166 18.8014 22.5365 18.881 22.5365C19.0489 22.5365 19.2119 22.4479 19.2999 22.2909C19.4296 22.0593 19.3473 21.7663 19.1161 21.6367C17.2959 20.6143 15.9926 18.8921 15.5403 16.9116C15.5381 16.9021 15.5338 16.8936 15.5311 16.8843C15.5265 16.8682 15.5214 16.8525 15.5151 16.8369C15.5093 16.8225 15.5024 16.8089 15.4953 16.7954C15.4879 16.7814 15.4804 16.7679 15.4715 16.7545C15.4628 16.7413 15.4533 16.729 15.4434 16.7169C15.4337 16.7049 15.4236 16.6931 15.4127 16.6819C15.4013 16.6704 15.3892 16.6601 15.3768 16.65C15.3689 16.6434 15.3624 16.6357 15.3541 16.6296C15.3493 16.6262 15.344 16.6244 15.3393 16.6211C15.3269 16.6128 15.3139 16.6058 15.3009 16.5988C15.2857 16.5904 15.2706 16.5823 15.2549 16.5758C15.2432 16.5709 15.231 16.5675 15.2189 16.5636C15.2013 16.558 15.1838 16.5524 15.1658 16.5487C15.1536 16.5464 15.141 16.5454 15.1285 16.5438C15.1103 16.5416 15.0922 16.5396 15.0738 16.5395C15.0605 16.5395 15.0472 16.5409 15.0337 16.5421C15.016 16.5436 14.9985 16.5452 14.9809 16.5486C14.9758 16.5497 14.9706 16.5494 14.9655 16.5504C14.956 16.5527 14.9475 16.557 14.9381 16.5597C14.922 16.5644 14.9062 16.5693 14.8906 16.5758C14.8762 16.5817 14.8628 16.5885 14.8493 16.5956C14.8354 16.603 14.8218 16.6105 14.8085 16.6194C14.795 16.6283 14.7826 16.638 14.7702 16.6481C14.7586 16.6576 14.7473 16.6673 14.7364 16.678C14.7242 16.6901 14.7131 16.703 14.7023 16.7165C14.6963 16.7238 14.6893 16.7297 14.6838 16.7374C13.358 18.5704 11.4001 19.8733 9.17092 20.4058C8.91326 20.4673 8.75407 20.7265 8.81558 20.9847C8.86811 21.2054 9.06493 21.3539 9.2818 21.3539C9.31863 21.3539 9.35612 21.3496 9.39361 21.3406C11.5352 20.8291 13.4498 19.6697 14.8733 18.0393L14.8735 18.0389Z" fill="white"/>
<path d="M16.339 23.2873C16.4267 23.3554 16.5302 23.3884 16.6331 23.3884C16.7762 23.3884 16.9177 23.3245 17.0124 23.2027C17.175 22.9931 17.1371 22.6912 16.9279 22.5283C16.0991 21.8834 15.3917 21.1155 14.8255 20.2459C14.8217 20.2401 14.8167 20.2356 14.8126 20.2299C14.8084 20.2241 14.8057 20.2177 14.8012 20.212C14.7954 20.2046 14.7883 20.199 14.7821 20.192C14.771 20.1795 14.7598 20.1674 14.7476 20.1561C14.7364 20.1459 14.7248 20.1363 14.7128 20.1272C14.6997 20.1172 14.6865 20.1078 14.6725 20.0994C14.6597 20.0916 14.6468 20.0847 14.6336 20.0783C14.6189 20.071 14.6044 20.0645 14.5892 20.059C14.5757 20.054 14.5621 20.0499 14.5481 20.0461C14.5321 20.0417 14.5163 20.0381 14.4999 20.0355C14.4862 20.0333 14.4724 20.0318 14.4584 20.0307C14.4417 20.0296 14.425 20.0289 14.4081 20.0296C14.3942 20.03 14.3803 20.0313 14.3664 20.0329C14.3499 20.0348 14.3336 20.0375 14.3173 20.0412C14.3028 20.0445 14.2886 20.0488 14.2743 20.0534C14.2591 20.0585 14.2442 20.0639 14.2294 20.0705C14.2145 20.0771 14.2002 20.0847 14.186 20.093C14.1779 20.0977 14.1694 20.1007 14.1616 20.1057C14.1558 20.1097 14.1511 20.1147 14.1456 20.1187C14.1398 20.1228 14.1335 20.1255 14.1278 20.1299C13.2213 20.8415 12.2147 21.4132 11.1359 21.8286C10.8886 21.9239 10.7652 22.2019 10.8604 22.4496C10.9336 22.6407 11.1154 22.7579 11.3084 22.7579C11.3655 22.7579 11.4238 22.7476 11.4805 22.7257C12.4895 22.3371 13.4401 21.8217 14.313 21.1918C14.8832 21.9788 15.5624 22.6826 16.3392 23.2872L16.339 23.2873Z" fill="white"/>
</g>
<defs>
<clipPath id="clip0_2742_987">
<rect width="33" height="33" fill="white"/>
</clipPath>
</defs>
</svg>
