<svg width="41" height="41" viewBox="0 0 41 41" fill="none" xmlns="http://www.w3.org/2000/svg">
<g clip-path="url(#clip0_2742_1001)" filter="url(#filter0_d_2742_1001)">
<path d="M27.1451 22.9131C26.5521 22.3201 25.5209 22.3201 24.9279 22.9131L23.4455 24.3955C22.8525 24.9885 21.8213 24.9885 21.2283 24.3955L12.3467 15.5139C12.0502 15.2174 11.8891 14.8242 11.8891 14.4053C11.8891 13.9863 12.0502 13.5932 12.3467 13.2967L13.8291 11.8143C14.1256 11.5178 14.2867 11.1246 14.2867 10.7057C14.2867 10.2867 14.1256 9.89355 13.8291 9.59707L10.1295 5.89746C9.51719 5.28516 8.52461 5.28516 7.9123 5.89746L6.42988 7.37988C4.94746 8.85586 4.12891 10.8281 4.12891 12.9229C4.12891 15.0176 4.94746 16.9898 6.42988 18.4723L18.2699 30.3123C19.7523 31.7947 21.7246 32.6133 23.8193 32.6133C25.9141 32.6133 27.8863 31.7947 29.3687 30.3123L30.8512 28.8299C31.4635 28.2176 31.4635 27.225 30.8512 26.6127L27.1451 22.9131ZM9.01445 6.48398C9.14981 6.48398 9.28516 6.53555 9.38184 6.63867L13.0814 10.3383C13.1781 10.435 13.2361 10.5703 13.2361 10.7057C13.2361 10.8475 13.1846 10.9764 13.0814 11.073L12.7141 11.4404L8.27324 6.99961L8.64062 6.63223C8.7502 6.53555 8.88555 6.48398 9.01445 6.48398ZM23.8129 31.5627C21.9953 31.5627 20.2873 30.8537 19.0047 29.5711L7.16465 17.7311C5.88203 16.4484 5.17305 14.7404 5.17305 12.9229C5.17305 11.1053 5.88203 9.39727 7.16465 8.11465L7.53203 7.74727L11.9729 12.1881L11.6055 12.5555C11.1092 13.0518 10.8385 13.7092 10.8385 14.4053C10.8385 15.1014 11.1092 15.7588 11.6055 16.2551L20.4871 25.1367C20.9834 25.633 21.6408 25.9037 22.3369 25.9037C23.033 25.9037 23.6904 25.633 24.1867 25.1367L24.5541 24.7693L28.9949 29.2102L28.6275 29.5775C27.3385 30.8537 25.6305 31.5627 23.8129 31.5627ZM30.1035 28.0951L29.7361 28.4625L25.2953 24.0217L25.6627 23.6543C25.8625 23.4545 26.2041 23.4545 26.4039 23.6543L30.1035 27.3539C30.3098 27.5537 30.3098 27.8889 30.1035 28.0951Z" fill="white"/>
<path d="M31.4248 11.2857L36.8711 5.83945L31.4248 0.386719V3.22266H20.4355V8.45625H31.4248V11.2857ZM21.4797 7.40566V4.2668H32.4689V2.91328L35.3887 5.83945L32.4689 8.75918V7.40566H21.4797Z" fill="white"/>
<path d="M25.6692 9.28125L20.2229 14.7275L25.6692 20.1738V17.3443H36.6584V12.1172H25.6692V9.28125ZM35.6079 13.1613V16.3002H24.6186V17.6537L21.6989 14.734L24.6186 11.8143V13.1678H35.6079V13.1613Z" fill="white"/>
<path d="M13.6938 22.3022L14.4321 21.564L15.1703 22.3022L14.4321 23.0405L13.6938 22.3022Z" fill="white"/>
<path d="M15.9191 24.5222L15.1809 23.7839L15.9191 23.0457L16.6573 23.7839L15.9191 24.5222Z" fill="white"/>
<path d="M12.9551 21.5644L12.2169 20.8262L12.9551 20.0879L13.6933 20.8262L12.9551 21.5644Z" fill="white"/>
</g>
<defs>
<filter id="filter0_d_2742_1001" x="0" y="0" width="41" height="41" filterUnits="userSpaceOnUse" color-interpolation-filters="sRGB">
<feFlood flood-opacity="0" result="BackgroundImageFix"/>
<feColorMatrix in="SourceAlpha" type="matrix" values="0 0 0 0 0 0 0 0 0 0 0 0 0 0 0 0 0 0 127 0" result="hardAlpha"/>
<feOffset dy="4"/>
<feGaussianBlur stdDeviation="2"/>
<feComposite in2="hardAlpha" operator="out"/>
<feColorMatrix type="matrix" values="0 0 0 0 0 0 0 0 0 0 0 0 0 0 0 0 0 0 0.25 0"/>
<feBlend mode="normal" in2="BackgroundImageFix" result="effect1_dropShadow_2742_1001"/>
<feBlend mode="normal" in="SourceGraphic" in2="effect1_dropShadow_2742_1001" result="shape"/>
</filter>
<clipPath id="clip0_2742_1001">
<rect width="33" height="33" fill="white" transform="translate(4)"/>
</clipPath>
</defs>
</svg>
