<svg width="33" height="33" viewBox="0 0 33 33" fill="none" xmlns="http://www.w3.org/2000/svg">
<g clip-path="url(#clip0_2742_1058)">
<path d="M16.5 17.4668C15.0285 17.4668 13.59 17.0304 12.3665 16.2129C11.143 15.3953 10.1894 14.2333 9.62638 12.8738C9.06332 11.5143 8.91606 10.0183 9.20323 8.57507C9.4904 7.13185 10.1991 5.80621 11.2397 4.76578C12.2803 3.72535 13.6061 3.01688 15.0494 2.72996C16.4926 2.44304 17.9886 2.59055 19.348 3.15385C20.7074 3.71715 21.8693 4.67094 22.6866 5.89458C23.504 7.11822 23.9401 8.55676 23.9398 10.0283C23.9373 12.0005 23.1526 13.8913 21.7579 15.2857C20.3631 16.6802 18.4723 17.4646 16.5 17.4668ZM16.5 3.87622C15.2835 3.87622 14.0943 4.23696 13.0828 4.91281C12.0713 5.58867 11.283 6.54929 10.8174 7.67319C10.3519 8.7971 10.2301 10.0338 10.4674 11.2269C10.7048 12.4201 11.2906 13.516 12.1508 14.3762C13.011 15.2364 14.1069 15.8222 15.3001 16.0596C16.4932 16.2969 17.7299 16.1751 18.8538 15.7095C19.9777 15.244 20.9383 14.4557 21.6142 13.4442C22.29 12.4327 22.6508 11.2435 22.6508 10.027C22.6486 8.3965 21.9998 6.83345 20.8467 5.68064C19.6937 4.52784 18.1305 3.87939 16.5 3.87751V3.87622Z" fill="white"/>
<path d="M17.9483 14.8797H15.0517C14.4927 14.879 13.9567 14.6566 13.5615 14.2612C13.1663 13.8658 12.944 13.3298 12.9435 12.7708V10.522C12.944 9.96294 13.1663 9.42693 13.5615 9.03156C13.9567 8.6362 14.4927 8.41377 15.0517 8.41309H17.9483C18.5073 8.41377 19.0433 8.6362 19.4385 9.03156C19.8338 9.42693 20.056 9.96294 20.0565 10.522V12.7708C20.056 13.3298 19.8338 13.8658 19.4385 14.2612C19.0433 14.6566 18.5073 14.879 17.9483 14.8797ZM15.0517 9.70215C14.8345 9.70249 14.6262 9.789 14.4726 9.94269C14.3191 10.0964 14.2327 10.3047 14.2325 10.522V12.7708C14.2327 12.988 14.3191 13.1964 14.4726 13.3501C14.6262 13.5038 14.8345 13.5903 15.0517 13.5906H17.9483C18.1655 13.5903 18.3738 13.5038 18.5274 13.3501C18.681 13.1964 18.7673 12.988 18.7675 12.7708V10.522C18.7673 10.3047 18.681 10.0964 18.5274 9.94269C18.3738 9.789 18.1655 9.70249 17.9483 9.70215H15.0517Z" fill="white"/>
<path d="M18.1177 9.7021H14.8822C14.7113 9.7021 14.5473 9.63419 14.4265 9.51332C14.3056 9.39245 14.2377 9.22851 14.2377 9.05757V7.43979C14.2377 6.83979 14.476 6.26437 14.9003 5.8401C15.3245 5.41584 15.9 5.17749 16.5 5.17749C17.1 5.17749 17.6754 5.41584 18.0997 5.8401C18.5239 6.26437 18.7623 6.83979 18.7623 7.43979V9.05757C18.7623 9.22851 18.6944 9.39245 18.5735 9.51332C18.4526 9.63419 18.2887 9.7021 18.1177 9.7021ZM15.5267 8.41304H17.4732V7.43979C17.4732 7.18167 17.3707 6.93413 17.1882 6.75161C17.0056 6.56909 16.7581 6.46655 16.5 6.46655C16.2419 6.46655 15.9943 6.56909 15.8118 6.75161C15.6293 6.93413 15.5267 7.18167 15.5267 7.43979V8.41304Z" fill="white"/>
<path d="M16.8223 12.2906H16.1777C16.0068 12.2906 15.8429 12.2227 15.722 12.1018C15.6011 11.9809 15.5332 11.817 15.5332 11.6461C15.5332 11.4751 15.6011 11.3112 15.722 11.1903C15.8429 11.0694 16.0068 11.0015 16.1777 11.0015H16.8223C16.9932 11.0015 17.1571 11.0694 17.278 11.1903C17.3989 11.3112 17.4668 11.4751 17.4668 11.6461C17.4668 11.817 17.3989 11.9809 17.278 12.1018C17.1571 12.2227 16.9932 12.2906 16.8223 12.2906Z" fill="white"/>
<path d="M30.4141 29.7645H27.1779C27.007 29.7645 26.8431 29.6965 26.7222 29.5757C26.6013 29.4548 26.5334 29.2909 26.5334 29.1199C26.5334 28.949 26.6013 28.785 26.7222 28.6642C26.8431 28.5433 27.007 28.4754 27.1779 28.4754H30.4141C30.758 28.4749 31.0877 28.338 31.3308 28.0948C31.5739 27.8515 31.7106 27.5218 31.7109 27.1779V18.1178C31.711 18.0324 31.6943 17.9478 31.6617 17.8689C31.6291 17.7899 31.5812 17.7182 31.5209 17.6577C31.4606 17.5973 31.3889 17.5493 31.3101 17.5165C31.2312 17.4838 31.1467 17.4669 31.0613 17.4668H1.93875C1.85335 17.4669 1.7688 17.4838 1.68993 17.5165C1.61106 17.5493 1.53941 17.5973 1.47908 17.6577C1.41876 17.7182 1.37092 17.7899 1.33832 17.8689C1.30572 17.9478 1.28898 18.0324 1.28906 18.1178V27.1779C1.2894 27.5218 1.42612 27.8515 1.66922 28.0948C1.91233 28.338 2.24197 28.4749 2.58586 28.4754H5.82205C5.99299 28.4754 6.15693 28.5433 6.2778 28.6642C6.39868 28.785 6.46658 28.949 6.46658 29.1199C6.46658 29.2909 6.39868 29.4548 6.2778 29.5757C6.15693 29.6965 5.99299 29.7645 5.82205 29.7645H2.58586C1.9002 29.7636 1.24287 29.4908 0.758095 29.0059C0.273319 28.521 0.00068223 27.8636 0 27.1779L0 18.1178C0.000170537 17.6035 0.204445 17.1104 0.567957 16.7466C0.931469 16.3828 1.4245 16.1782 1.93875 16.1777H31.0613C31.5755 16.1784 32.0684 16.3831 32.4319 16.7468C32.7953 17.1105 32.9997 17.6036 33 18.1178V27.1779C32.9993 27.8636 32.7267 28.521 32.2419 29.0059C31.7571 29.4908 31.0998 29.7636 30.4141 29.7645Z" fill="white"/>
<path d="M27.1779 33H5.82202C5.65108 33 5.48714 32.9321 5.36627 32.8112C5.2454 32.6904 5.17749 32.5264 5.17749 32.3555V24.5895C5.17749 24.4186 5.2454 24.2547 5.36627 24.1338C5.48714 24.0129 5.65108 23.945 5.82202 23.945C5.99296 23.945 6.1569 24.0129 6.27777 24.1338C6.39865 24.2547 6.46655 24.4186 6.46655 24.5895V31.711H26.5334V24.5895C26.5334 24.4186 26.6013 24.2547 26.7222 24.1338C26.843 24.0129 27.007 23.945 27.1779 23.945C27.3489 23.945 27.5128 24.0129 27.6337 24.1338C27.7545 24.2547 27.8225 24.4186 27.8225 24.5895V32.3555C27.8225 32.5264 27.7545 32.6904 27.6337 32.8112C27.5128 32.9321 27.3489 33 27.1779 33Z" fill="white"/>
<path d="M27.1779 17.4668H5.82202C5.65108 17.4668 5.48714 17.3989 5.36627 17.278C5.2454 17.1571 5.17749 16.9932 5.17749 16.8223V0.644531C5.17749 0.473591 5.2454 0.309652 5.36627 0.188779C5.48714 0.0679058 5.65108 0 5.82202 0L24.5895 0C24.7604 3.65046e-05 24.9243 0.0679662 25.0452 0.188848L27.6342 2.77729C27.7549 2.89824 27.8226 3.06213 27.8225 3.23297V16.8223C27.8225 16.9932 27.7545 17.1571 27.6337 17.278C27.5128 17.3989 27.3489 17.4668 27.1779 17.4668ZM6.46655 16.1777H26.5334V3.50045L24.3226 1.28906H6.46913L6.46655 16.1777Z" fill="white"/>
<path d="M32.3555 22.6456H0.644531C0.473591 22.6456 0.309652 22.5777 0.188779 22.4569C0.0679058 22.336 0 22.172 0 22.0011C0 21.8302 0.0679058 21.6662 0.188779 21.5453C0.309652 21.4245 0.473591 21.3566 0.644531 21.3566H32.3555C32.5264 21.3566 32.6903 21.4245 32.8112 21.5453C32.9321 21.6662 33 21.8302 33 22.0011C33 22.172 32.9321 22.336 32.8112 22.4569C32.6903 22.5777 32.5264 22.6456 32.3555 22.6456Z" fill="white"/>
<path d="M29.1199 20.0565H27.8251C27.6541 20.0565 27.4902 19.9886 27.3693 19.8677C27.2484 19.7469 27.1805 19.5829 27.1805 19.412C27.1805 19.241 27.2484 19.0771 27.3693 18.9562C27.4902 18.8354 27.6541 18.7675 27.8251 18.7675H29.1199C29.2909 18.7675 29.4548 18.8354 29.5757 18.9562C29.6966 19.0771 29.7645 19.241 29.7645 19.412C29.7645 19.5829 29.6966 19.7469 29.5757 19.8677C29.4548 19.9886 29.2909 20.0565 29.1199 20.0565Z" fill="white"/>
<path d="M25.2366 20.0565H23.9424C23.7714 20.0565 23.6075 19.9886 23.4866 19.8677C23.3658 19.7469 23.2979 19.5829 23.2979 19.412C23.2979 19.241 23.3658 19.0771 23.4866 18.9562C23.6075 18.8354 23.7714 18.7675 23.9424 18.7675H25.2366C25.4075 18.7675 25.5715 18.8354 25.6924 18.9562C25.8132 19.0771 25.8811 19.241 25.8811 19.412C25.8811 19.5829 25.8132 19.7469 25.6924 19.8677C25.5715 19.9886 25.4075 20.0565 25.2366 20.0565Z" fill="white"/>
<path d="M28.4722 25.2341H4.52783C4.35689 25.2341 4.19295 25.1662 4.07208 25.0453C3.95121 24.9244 3.8833 24.7605 3.8833 24.5895V22.0011C3.8833 21.8302 3.95121 21.6662 4.07208 21.5453C4.19295 21.4245 4.35689 21.3566 4.52783 21.3566H28.4722C28.6431 21.3566 28.807 21.4245 28.9279 21.5453C29.0488 21.6662 29.1167 21.8302 29.1167 22.0011V24.5895C29.1167 24.7605 29.0488 24.9244 28.9279 25.0453C28.807 25.1662 28.6431 25.2341 28.4722 25.2341ZM5.17236 23.945H27.8276V22.6456H5.17236V23.945Z" fill="white"/>
<path d="M31.0612 17.4668H1.93872C1.76778 17.4668 1.60384 17.3989 1.48297 17.278C1.3621 17.1571 1.29419 16.9932 1.29419 16.8222V12.2931C1.29487 11.7791 1.49935 11.2864 1.86279 10.923C2.22623 10.5595 2.71896 10.3551 3.23294 10.3544H5.82202C5.99296 10.3544 6.1569 10.4223 6.27777 10.5431C6.39865 10.664 6.46655 10.828 6.46655 10.9989C6.46655 11.1698 6.39865 11.3338 6.27777 11.4547C6.1569 11.5755 5.99296 11.6434 5.82202 11.6434H3.23294C3.06074 11.6438 2.89568 11.7123 2.77392 11.8341C2.65215 11.9559 2.58359 12.1209 2.58325 12.2931V16.1777H30.4167V12.2931C30.4164 12.1209 30.3478 11.9559 30.226 11.8341C30.1043 11.7123 29.9392 11.6438 29.767 11.6434H27.1779C27.007 11.6434 26.843 11.5755 26.7222 11.4547C26.6013 11.3338 26.5334 11.1698 26.5334 10.9989C26.5334 10.828 26.6013 10.664 26.7222 10.5431C26.843 10.4223 27.007 10.3544 27.1779 10.3544H29.767C30.281 10.3551 30.7737 10.5595 31.1372 10.923C31.5006 11.2864 31.7051 11.7791 31.7058 12.2931V16.8222C31.7058 16.9932 31.6378 17.1571 31.517 17.278C31.3961 17.3989 31.2322 17.4668 31.0612 17.4668Z" fill="white"/>
<path d="M29.7671 11.6434H27.178C27.007 11.6434 26.8431 11.5755 26.7222 11.4547C26.6014 11.3338 26.5334 11.1699 26.5334 10.9989C26.5334 10.828 26.6014 10.664 26.7222 10.5432C26.8431 10.4223 27.007 10.3544 27.178 10.3544H29.1225V8.4079H27.178C27.007 8.4079 26.8431 8.33999 26.7222 8.21912C26.6014 8.09825 26.5334 7.93431 26.5334 7.76337C26.5334 7.59243 26.6014 7.42849 26.7222 7.30761C26.8431 7.18674 27.007 7.11884 27.178 7.11884H29.7671C29.938 7.11884 30.1019 7.18674 30.2228 7.30761C30.3437 7.42849 30.4116 7.59243 30.4116 7.76337V10.9989C30.4116 11.1699 30.3437 11.3338 30.2228 11.4547C30.1019 11.5755 29.938 11.6434 29.7671 11.6434Z" fill="white"/>
<path d="M5.82199 11.6434H3.23291C3.06197 11.6434 2.89803 11.5755 2.77716 11.4547C2.65628 11.3338 2.58838 11.1699 2.58838 10.9989V7.76337C2.58838 7.59243 2.65628 7.42849 2.77716 7.30761C2.89803 7.18674 3.06197 7.11884 3.23291 7.11884H5.82199C5.90663 7.11884 5.99045 7.13551 6.06864 7.1679C6.14684 7.20029 6.21789 7.24776 6.27775 7.30761C6.3376 7.36746 6.38507 7.43852 6.41746 7.51672C6.44985 7.59491 6.46652 7.67873 6.46652 7.76337C6.46652 7.84801 6.44985 7.93182 6.41746 8.01002C6.38507 8.08822 6.3376 8.15927 6.27775 8.21912C6.21789 8.27897 6.14684 8.32645 6.06864 8.35884C5.99045 8.39123 5.90663 8.4079 5.82199 8.4079H3.87744V10.3544H5.82199C5.99293 10.3544 6.15687 10.4223 6.27775 10.5432C6.39862 10.664 6.46652 10.828 6.46652 10.9989C6.46652 11.1699 6.39862 11.3338 6.27775 11.4547C6.15687 11.5755 5.99293 11.6434 5.82199 11.6434Z" fill="white"/>
<path d="M23.9424 27.8225H9.05762C8.88668 27.8225 8.72274 27.7546 8.60187 27.6337C8.48099 27.5129 8.41309 27.3489 8.41309 27.178C8.41309 27.007 8.48099 26.8431 8.60187 26.7222C8.72274 26.6014 8.88668 26.5334 9.05762 26.5334H23.9424C24.1134 26.5334 24.2773 26.6014 24.3982 26.7222C24.519 26.8431 24.587 27.007 24.587 27.178C24.587 27.3489 24.519 27.5129 24.3982 27.6337C24.2773 27.7546 24.1134 27.8225 23.9424 27.8225Z" fill="white"/>
<path d="M23.9424 30.4322H9.05762C8.88668 30.4322 8.72274 30.3643 8.60187 30.2434C8.48099 30.1225 8.41309 29.9586 8.41309 29.7877C8.41309 29.6167 8.48099 29.4528 8.60187 29.3319C8.72274 29.211 8.88668 29.1431 9.05762 29.1431H23.9424C24.1134 29.1431 24.2773 29.211 24.3982 29.3319C24.519 29.4528 24.587 29.6167 24.587 29.7877C24.587 29.9586 24.519 30.1225 24.3982 30.2434C24.2773 30.3643 24.1134 30.4322 23.9424 30.4322Z" fill="white"/>
</g>
<defs>
<clipPath id="clip0_2742_1058">
<rect width="33" height="33" fill="white"/>
</clipPath>
</defs>
</svg>
