<svg width="33" height="33" viewBox="0 0 33 33" fill="none" xmlns="http://www.w3.org/2000/svg">
<path fill-rule="evenodd" clip-rule="evenodd" d="M22.1719 2.0625H6.70312C6.4185 2.0625 6.1875 2.2935 6.1875 2.57812V15.4688H4.64062C3.21647 15.4688 2.0625 16.6227 2.0625 18.0469V28.3594C2.0625 29.7835 3.21647 30.9375 4.64062 30.9375H28.3594C29.7835 30.9375 30.9375 29.7835 30.9375 28.3594V18.0469C30.9375 16.6227 29.7835 15.4688 28.3594 15.4688H26.8125V6.70312V6.69694C26.8115 6.6031 26.7857 6.51647 26.7413 6.44119C26.7187 6.40406 26.6929 6.369 26.6619 6.33807L22.5369 2.21307C22.506 2.18213 22.4709 2.15634 22.4338 2.13366C22.3585 2.08931 22.2719 2.06353 22.1781 2.0625H22.1719ZM29.9062 21.6562H3.09375V28.3594C3.09375 29.2132 3.78675 29.9062 4.64062 29.9062H7.21875V24.2344C7.21875 23.9498 7.44975 23.7188 7.73438 23.7188H25.2656C25.5502 23.7188 25.7812 23.9498 25.7812 24.2344V29.9062H28.3594C29.2132 29.9062 29.9062 29.2132 29.9062 28.3594V21.6562ZM8.25 29.9062H24.75V27.8438H8.25V29.9062ZM8.25 26.8125V24.75H24.75V26.8125H8.25ZM28.3594 16.5H4.64062C3.78675 16.5 3.09375 17.193 3.09375 18.0469V20.625H29.9062V18.0469C29.9062 17.193 29.2132 16.5 28.3594 16.5ZM25.7812 17.5312C25.212 17.5312 24.75 17.9932 24.75 18.5625C24.75 19.1318 25.212 19.5938 25.7812 19.5938C26.3505 19.5938 26.8125 19.1318 26.8125 18.5625C26.8125 17.9932 26.3505 17.5312 25.7812 17.5312ZM23.7188 19.5938V17.5312H21.6562V19.5938H23.7188ZM20.625 19.5938V17.5312H18.5625V19.5938H20.625ZM7.21875 3.09375V15.4688H25.7812V7.21875H22.1719C21.8873 7.21875 21.6562 6.98775 21.6562 6.70312V3.09375H7.21875ZM16.5 12.8906C15.9307 12.8906 15.4688 13.3526 15.4688 13.9219C15.4688 14.4911 15.9307 14.9531 16.5 14.9531C17.0693 14.9531 17.5312 14.4911 17.5312 13.9219C17.5312 13.3526 17.0693 12.8906 16.5 12.8906ZM14.223 12.9009C14.8201 12.2585 15.61 11.8594 16.4804 11.8594C17.3673 11.8594 18.1706 12.2739 18.7718 12.9391C18.9626 13.1495 19.2895 13.166 19.4999 12.9752C19.7113 12.7844 19.7278 12.4585 19.537 12.2471C18.7368 11.3623 17.6601 10.8281 16.4804 10.8281C15.3223 10.8281 14.2632 11.3427 13.4681 12.1987C13.2742 12.407 13.2856 12.7339 13.4949 12.9278C13.7032 13.1216 14.0291 13.1093 14.223 12.9009ZM13.0443 11.3829C13.9518 10.4022 15.1563 9.79688 16.4804 9.79688C17.8221 9.79688 19.041 10.4187 19.9526 11.4221C20.1444 11.6335 20.4703 11.649 20.6807 11.4572C20.8921 11.2664 20.9076 10.9395 20.7158 10.7291C19.6061 9.50709 18.1149 8.76562 16.4804 8.76562C14.8665 8.76562 13.3929 9.4875 12.2874 10.6827C12.0935 10.8921 12.1069 11.2179 12.3152 11.4118C12.5245 11.6047 12.8504 11.5923 13.0443 11.3829ZM11.8645 9.86597C13.0824 8.547 14.7015 7.73438 16.4804 7.73438C18.2779 7.73438 19.9104 8.5635 21.1334 9.90619C21.3242 10.1166 21.6511 10.132 21.8615 9.94022C22.0718 9.74841 22.0873 9.42253 21.8955 9.21215C20.4755 7.65084 18.5697 6.70312 16.4804 6.70312C14.4117 6.70312 12.5235 7.63228 11.1066 9.16575C10.9137 9.37509 10.9271 9.702 11.1354 9.89485C11.3448 10.0877 11.6717 10.0753 11.8645 9.86597ZM25.0522 6.1875L22.6875 3.82284V6.1875H25.0522Z" fill="white"/>
</svg>
