<svg width="33" height="33" viewBox="0 0 33 33" fill="none" xmlns="http://www.w3.org/2000/svg">
<path fill-rule="evenodd" clip-rule="evenodd" d="M10.3558 29.9687L10.5806 30.3659C10.5808 30.3663 10.581 30.3667 10.5813 30.3672C10.8687 30.8785 10.6863 31.5309 10.178 31.818L9.13428 32.4095C9.13376 32.4098 9.13325 32.4101 9.13273 32.4104C8.62142 32.6978 7.96906 32.5154 7.68183 32.0068L4.61263 26.5836C4.32249 26.0718 4.50496 25.4187 5.014 25.1312L6.05894 24.5396L6.05939 24.5393C6.56811 24.252 7.2208 24.4324 7.51055 24.9412L7.5112 24.9424L7.67892 25.2387L10.2831 23.7309C11.1425 23.2339 12.0226 22.9195 12.9665 23.226C13.8408 23.5096 15.2678 24.1216 16.7245 24.3849C16.7473 24.389 16.7698 24.3947 16.7919 24.4018C17.6061 24.6654 18.0978 25.4905 17.8755 26.3172C17.8729 26.3268 17.8703 26.3362 17.8676 26.3456C17.9136 26.3235 17.9593 26.2991 18.0047 26.2727L21.7263 24.1051C23.1459 23.2781 24.0953 23.3923 24.6311 23.7518C25.1111 24.0738 25.3364 24.6222 25.3221 25.1619C25.3075 25.7087 25.0425 26.2287 24.6137 26.4927L17.8608 30.6504C17.1145 31.111 16.2972 31.2196 15.4504 30.9937L15.4499 30.9936L10.7584 29.7362L10.3558 29.9687ZM8.18886 26.1398L9.84585 29.0677L10.4264 28.7325C10.5453 28.6638 10.6866 28.6452 10.8193 28.6808L15.7175 29.9934C16.2792 30.1433 16.822 30.075 17.3171 29.7694L17.3175 29.7691L24.0708 25.6112C24.2197 25.5195 24.2821 25.3243 24.2871 25.1344C24.3033 24.5246 23.6844 24.1626 22.2474 24.9998L18.526 27.1672C17.8985 27.5328 17.2411 27.6349 16.5244 27.5208C16.5238 27.5208 16.5232 27.5206 16.5227 27.5206L16.0614 27.4455C16.0612 27.4455 16.061 27.4455 16.0608 27.4454C16.0538 27.4443 16.0468 27.443 16.0398 27.4416C16.0396 27.4415 16.0394 27.4414 16.0391 27.4414C15.1964 27.2684 14.4148 27.0141 13.5475 26.781C13.2716 26.7068 13.1078 26.4226 13.182 26.1467C13.2561 25.8708 13.5403 25.707 13.8162 25.7812C14.6552 26.0067 15.4115 26.254 16.2257 26.4228C16.5538 26.4569 16.7999 26.3307 16.8756 26.0486L16.8757 26.0485C16.9514 25.767 16.772 25.4978 16.5009 25.3965C15.0063 25.1202 13.5443 24.5018 12.647 24.2108L12.6468 24.2107C11.9928 23.9984 11.3969 24.2828 10.8014 24.6271L8.18886 26.1398ZM6.61082 25.4534L6.61017 25.4523C6.60137 25.4383 6.58312 25.4326 6.56856 25.4408L5.52402 26.0321L5.52363 26.0323C5.50939 26.0404 5.50519 26.0588 5.51328 26.0731L5.51347 26.0734L8.58279 31.4969L8.58305 31.4973C8.59133 31.512 8.61036 31.5162 8.62518 31.508L9.66752 30.9172L9.66817 30.9169C9.68292 30.9086 9.68713 30.8895 9.67891 30.8747L6.61082 25.4534ZM6.34759 25.9506C6.58448 25.9154 6.80442 26.0789 6.83968 26.3158C6.87352 26.5527 6.70995 26.7741 6.47306 26.8079C6.23617 26.8432 6.01623 26.6782 5.98097 26.4413C5.94713 26.2045 6.1107 25.9845 6.34759 25.9506ZM14.9759 18.293C14.8105 15.5148 14.0164 14.4702 13.4108 13.3987C12.9498 12.5833 12.5836 11.7546 12.5836 10.3168C12.5836 6.75096 15.4743 3.86022 19.0401 3.86022C22.6059 3.86022 25.4967 6.75096 25.4967 10.3168C25.4967 11.7546 25.1305 12.5833 24.6695 13.3987C24.0628 14.4721 23.2668 15.5185 23.1035 18.308C23.1034 18.3094 23.1034 18.3107 23.1032 18.312L23.1024 19.243C23.1024 19.8772 22.7 20.4207 22.1391 20.6319V21.1736C22.1391 21.8173 21.7228 22.3679 21.148 22.5719V23.1041C21.148 23.9177 20.4807 24.587 19.667 24.587H18.4132C17.5999 24.587 16.9303 23.9174 16.9303 23.1041V22.5716C16.3552 22.3673 15.9411 21.8169 15.9411 21.1736V20.6324C15.3785 20.4215 14.9759 19.8775 14.9759 19.243V18.293ZM22.0675 18.7954H16.0112V19.243C16.0112 19.4894 16.2124 19.6906 16.4588 19.6906H21.6215C21.8667 19.6906 22.0671 19.4892 22.0671 19.2428L22.0675 18.7954ZM21.1038 20.7259H16.9764V21.1736C16.9764 21.42 17.1776 21.6211 17.4241 21.6211H20.6562C20.9017 21.6211 21.1038 21.42 21.1038 21.1736V20.7259ZM20.1127 22.6564H17.9656V23.1041C17.9656 23.3496 18.1677 23.5517 18.4132 23.5517H19.667C19.9123 23.5517 20.1127 23.3493 20.1127 23.1041V22.6564ZM20.5828 17.7601H22.1056C22.3024 15.5346 22.8898 14.4041 23.4417 13.4518C23.9619 12.5544 24.4614 11.8415 24.4614 10.3168C24.4614 7.32276 22.0342 4.89552 19.0401 4.89552C16.0461 4.89552 13.6189 7.32276 13.6189 10.3168C13.6189 11.8415 14.1184 12.5544 14.6385 13.4518C15.1904 14.4041 15.7778 15.5346 15.9746 17.7601H17.4975V12.2574H16.634C15.591 12.2574 14.737 11.4034 14.737 10.3606C14.737 9.31512 15.5913 8.46165 16.634 8.46165C17.6791 8.46165 18.5328 9.31538 18.5328 10.3606V11.2221H19.5475V10.3606C19.5475 9.31538 20.4011 8.46165 21.4463 8.46165C22.489 8.46165 23.3432 9.31512 23.3432 10.3606C23.3432 11.4034 22.4892 12.2574 21.4463 12.2574H20.5828V17.7601ZM18.5328 17.7601H19.5475V12.2574H18.5328V17.7601ZM17.4975 11.2221V10.3606C17.4975 9.88518 17.1093 9.49695 16.634 9.49695C16.16 9.49695 15.7723 9.88544 15.7723 10.3606C15.7723 10.8342 16.1602 11.2221 16.634 11.2221H17.4975ZM20.5828 11.2221H21.4463C21.92 11.2221 22.3079 10.8342 22.3079 10.3606C22.3079 9.88544 21.9202 9.49695 21.4463 9.49695C20.971 9.49695 20.5828 9.88518 20.5828 10.3606V11.2221ZM11.8252 15.7225H11.8955C12.4453 15.7225 12.8912 16.1707 12.8912 16.7182V21.816C12.8912 22.3658 12.4453 22.8117 11.8955 22.8117H5.48222C4.93267 22.8117 4.48536 22.3655 4.48536 21.816V16.7182C4.48536 16.171 4.93267 15.7225 5.48222 15.7225H5.55132V15.1398C5.55132 13.4144 6.96333 12.0023 8.68885 12.0023C10.4144 12.0023 11.8252 13.4143 11.8252 15.1398V15.7225ZM6.58662 15.7225H10.7899V15.1398C10.7899 13.9838 9.84488 13.0376 8.68885 13.0376C7.53268 13.0376 6.58662 13.9837 6.58662 15.1398V15.7225ZM5.52065 16.7578V21.7764H11.8559V16.7578H5.52065ZM8.68885 17.4481C9.20345 17.4481 9.62055 17.8662 9.62055 18.3809C9.62055 18.717 9.44416 19.0108 9.17796 19.175V20.597C9.17796 20.8665 8.95725 21.0862 8.68885 21.0862C8.41928 21.0862 8.19967 20.8665 8.19967 20.597V19.175C7.93347 19.0108 7.75598 18.717 7.75598 18.3809C7.75598 17.8662 8.17418 17.4481 8.68885 17.4481ZM19.5578 2.36972C19.5578 2.6554 19.3258 2.88737 19.0401 2.88737C18.7544 2.88737 18.5225 2.6554 18.5225 2.36972V0.970589C18.5225 0.684912 18.7544 0.452942 19.0401 0.452942C19.3258 0.452942 19.5578 0.684912 19.5578 0.970589V2.36972ZM15.0086 3.31139C15.1512 3.55889 15.0661 3.87569 14.8186 4.01837C14.5711 4.16098 14.2543 4.07589 14.1116 3.82832L13.413 2.61625C13.2703 2.36875 13.3555 2.05195 13.603 1.90928C13.8506 1.76667 14.1674 1.85175 14.31 2.09932L15.0086 3.31139ZM11.5412 6.40161C11.7886 6.54455 11.8733 6.86148 11.7303 7.10878C11.5873 7.35615 11.2705 7.44092 11.0231 7.29792L9.81104 6.59735C9.56373 6.45441 9.47897 6.13748 9.6219 5.89018C9.7649 5.64281 10.0818 5.55804 10.3291 5.70104L11.5412 6.40161ZM23.9664 3.82891C23.8234 4.07621 23.5065 4.16098 23.2591 4.01804C23.0118 3.87504 22.9271 3.55818 23.07 3.31081L23.7706 2.09874C23.9136 1.85137 24.2304 1.76667 24.4778 1.9096C24.7252 2.0526 24.8099 2.36947 24.6669 2.61684L23.9664 3.82891ZM27.0575 7.29772C26.8102 7.44092 26.4933 7.35635 26.3501 7.10911C26.207 6.86186 26.2915 6.54494 26.5387 6.40181L27.7488 5.70124C27.996 5.55804 28.313 5.64261 28.4562 5.88985C28.5993 6.13709 28.5148 6.45402 28.2676 6.59722L27.0575 7.29772Z" fill="white"/>
</svg>
