<svg width="33" height="33" viewBox="0 0 33 33" fill="none" xmlns="http://www.w3.org/2000/svg">
<g clip-path="url(#clip0_2742_1088)">
<path d="M9.27928 27.7979C9.03184 27.7979 8.78441 27.7035 8.59569 27.5147C5.27588 24.1949 5.27588 18.7933 8.59569 15.4735C8.97319 15.096 9.58536 15.096 9.96292 15.4735C10.3405 15.851 10.3405 16.4632 9.96292 16.8407C7.39701 19.4066 7.39701 23.5817 9.96292 26.1475C10.3405 26.525 10.3405 27.1372 9.96292 27.5147C9.77414 27.7035 9.52671 27.7979 9.27928 27.7979Z" fill="white"/>
<path d="M12.9061 24.8156C12.6586 24.8156 12.4112 24.7212 12.2225 24.5324C10.5471 22.8571 10.5471 20.131 12.2225 18.4557C12.6 18.0782 13.2121 18.0782 13.5897 18.4557C13.9673 18.8332 13.9673 19.4453 13.5897 19.8229C12.6682 20.7444 12.6682 22.2438 13.5897 23.1652C13.9673 23.5427 13.9673 24.1549 13.5897 24.5324C13.4009 24.7213 13.1535 24.8156 12.9061 24.8156Z" fill="white"/>
<path d="M5.64272 30.699C5.39529 30.699 5.14785 30.6046 4.95914 30.4158C0.0397445 25.4964 0.0397445 17.4919 4.95914 12.5724C5.3367 12.1949 5.94887 12.1949 6.32636 12.5724C6.70393 12.9499 6.70393 13.5621 6.32636 13.9397C2.16087 18.1052 2.16087 24.8831 6.32636 29.0486C6.70393 29.4261 6.70393 30.0382 6.32636 30.4158C6.13758 30.6046 5.89015 30.699 5.64272 30.699Z" fill="white"/>
<path d="M30.7639 33C30.3956 33 30.0438 32.7884 29.8823 32.4309L28.5788 29.5446C28.3766 29.0968 27.9268 28.8124 27.4374 28.8216C25.7209 28.8515 23.6127 28.8832 22.5369 28.862C21.3795 28.8391 20.7049 28.3477 20.3428 27.9395C19.8411 27.3741 19.611 26.6015 19.6947 25.7643C19.7432 25.2791 19.6121 25.1137 19.351 24.7846C19.1535 24.5356 18.9077 24.2258 18.7891 23.7845C18.6091 23.1147 18.872 22.3846 19.4588 21.9245C19.485 21.904 19.5124 21.8847 19.5406 21.867L21.4832 20.645L18.5799 19.5435C18.5551 19.5341 18.5308 19.5237 18.5068 19.5123C17.8133 19.1818 17.4295 18.4238 17.5733 17.6692L17.9488 15.6977C17.9871 15.4967 17.9429 15.2942 17.8242 15.1275C17.7056 14.9607 17.5288 14.8525 17.3263 14.8227L15.4151 14.5417C14.8861 14.4639 14.4327 14.1295 14.2021 13.6473C13.9715 13.1652 13.9958 12.6024 14.267 12.1419L17.91 5.9585C18.4641 5.01794 18.6827 3.90504 18.5256 2.82476L18.2756 1.10607C18.1988 0.57769 18.5647 0.0870144 19.0932 0.0101872C19.6216 -0.06664 20.1122 0.299385 20.1891 0.827766L20.4391 2.54645C20.6594 4.06108 20.3528 5.62141 19.5759 6.94004L16.1824 12.7002L17.6077 12.9097C18.3365 13.017 18.973 13.4066 19.3999 14.0068C19.8268 14.607 19.986 15.336 19.8482 16.0595L19.5112 17.8288L22.7742 19.0668C23.3495 19.285 23.7449 19.8009 23.8059 20.4133C23.867 21.0257 23.5814 21.6096 23.0605 21.9373L20.7283 23.4043C20.7689 23.4608 20.8203 23.5256 20.8658 23.5829C21.1948 23.9976 21.7453 24.6914 21.6187 25.9566C21.6017 26.127 21.6012 26.4444 21.7893 26.6563C21.981 26.8724 22.3224 26.9237 22.5751 26.9288C23.6188 26.9493 25.7038 26.918 27.4035 26.8882C28.6675 26.8685 29.8206 27.5964 30.341 28.7488L31.6445 31.635C31.8643 32.1216 31.6479 32.6943 31.1613 32.9141C31.0322 32.9724 30.897 33 30.7639 33Z" fill="white"/>
</g>
<defs>
<clipPath id="clip0_2742_1088">
<rect width="33" height="33" fill="white"/>
</clipPath>
</defs>
</svg>
