<svg width="418" height="60" viewBox="0 0 418 60" fill="none" xmlns="http://www.w3.org/2000/svg">
<g filter="url(#filter0_d_2800_478)">
<path d="M47.9192 15.4673C47.4624 14.268 46.5242 13.1973 45.3824 12.4253C42.0862 10.3323 37.0627 10.1833 33.6664 12.0755C31.814 13.0198 30.5965 14.8887 30.2176 16.8133C29.5304 19.9753 29.7079 23.7374 32.1439 26.1075C34.9845 28.5976 39.1187 29.1477 42.795 28.1248C42.9697 28.0912 43.5232 27.9518 43.905 27.7493L44.0125 27.7032C45.1543 27.2288 46.2432 26.4562 47.0561 25.41C48.9324 22.6667 49.061 18.5564 47.9192 15.4673M41.9337 22.5677C41.804 23.1673 41.4007 23.7886 40.7646 24.0139C39.752 24.4593 38.382 24.3359 37.4439 23.8148C36.6571 23.2646 36.5559 22.3436 36.4546 21.472C36.3778 19.7539 36.2538 17.9346 36.7351 16.3638C37.1122 15.391 38.1528 15.1407 39.0937 15.0673C40.0819 15.0673 41.044 15.2181 41.6544 16.0151C42.0344 16.5869 42.0111 17.335 42.0862 18.0086C42.0594 19.428 42.1869 21.121 41.9337 22.5677ZM11.8801 24.1151C11.0426 24.0639 10.1045 24.1373 9.29382 24.0378L9.31885 15.2892L9.37005 15.2164L11.8801 15.1919C11.9062 13.7719 11.9313 12.249 11.8539 10.9547L2.29456 10.928L0.720392 10.9553C0.695358 12.2751 0.695358 13.8186 0.720392 15.1657C1.58342 15.1925 2.39354 15.1657 3.23099 15.2437V23.7164L3.20653 24.0645L0.695378 24.1157C0.643045 25.4859 0.643045 26.8576 0.695378 28.2278H11.8795L11.8801 24.1151H11.8801ZM40.0296 30.0949C38.9657 31.6167 37.6214 33.0867 36.1536 34.2302C36.1001 34.3082 35.9482 34.2786 35.8999 34.2069C35.2639 33.8093 34.5795 33.4838 33.9696 33.0867C34.782 32.1156 35.5688 31.1439 36.1775 30.0681H35.3884C34.7581 30.9937 34.097 31.9649 33.2607 32.7846C32.1439 32.3369 31.1302 31.9387 29.9889 31.6372L29.8621 31.5422C30.0396 31.0387 30.3684 30.5659 30.4691 30.067H29.7847L29.1003 31.4136C27.6058 31.0899 25.9565 30.9135 24.4347 30.8151C24.3579 30.5915 24.4586 30.2673 24.3579 30.067H23.6985C23.6462 30.3668 23.7748 30.5927 23.6223 30.8413C22.0498 30.9135 20.5286 31.0899 19.0591 31.392L18.3719 30.067C18.121 30.067 17.8388 30.0192 17.6636 30.0938L18.2962 31.5644L18.2205 31.6372C17.0839 31.966 15.9663 32.3577 14.8731 32.8103L14.7724 32.7591C14.0607 31.9865 13.3757 31.1428 12.817 30.2951C12.6913 29.869 12.1838 30.1182 11.9045 30.0681C12.511 31.1661 13.3251 32.1367 14.1352 33.1351C13.4508 33.535 12.7687 33.9811 12.0553 34.3082C10.504 33.1267 9.15166 31.7047 8.0496 30.096C7.74466 30.0471 7.54384 30.0693 7.23719 30.096C9.06339 32.9371 11.9045 35.4283 14.8719 36.899C14.8719 36.899 14.8719 36.8768 14.8992 36.8768C14.9208 36.8768 14.9715 36.9228 14.9208 36.949C16.9257 37.9213 19.0574 38.6187 21.3125 38.9191C29.0991 39.9398 36.5308 36.627 40.8397 30.096C40.5704 30.0683 40.2989 30.0679 40.0296 30.0949M29.4565 32.3375L29.531 32.2874C30.6244 32.5366 31.6621 32.8859 32.6264 33.3581C31.814 34.278 30.7741 35.0773 29.8115 35.7498C29.2289 36.0974 28.6435 36.4751 28.0342 36.7721L26.9459 36.2988L27.0204 36.1264C27.9352 34.9061 28.747 33.6585 29.4565 32.3375ZM24.4586 31.5894C25.9053 31.6167 27.3515 31.7658 28.6936 32.0883L28.7203 32.164C28.0114 33.5083 27.1217 34.8071 26.1597 36.0257C25.7261 36.0769 25.3222 35.9045 24.8915 35.8778L24.458 35.8266C24.4086 34.356 24.3818 33.06 24.4586 31.5894ZM19.566 32.0377C20.8847 31.7885 22.2535 31.5894 23.6729 31.5894L23.6991 35.8055C23.1655 35.9261 22.5823 35.9261 22.0749 36.0541C21.0349 34.8298 20.1736 33.5083 19.4391 32.1367L19.566 32.0377ZM15.4807 33.3849C16.4723 32.9098 17.5105 32.5588 18.5744 32.2869L18.6774 32.313C19.4107 33.6841 20.3249 34.9789 21.2375 36.2749C20.8853 36.4757 20.4518 36.5958 20.0979 36.7983C18.3829 35.951 16.8223 34.8218 15.4813 33.4577V33.3849H15.4807ZM18.7536 37.6459C16.6231 37.0958 14.6433 36.1491 12.8176 34.8555V34.7781C13.4264 34.4077 14.0374 34.0078 14.6945 33.7307C16.1412 35.1553 17.6363 36.2271 19.2594 37.2465C19.1331 37.3962 18.9305 37.5464 18.7536 37.6459ZM28.1616 37.9679C25.4741 38.5448 22.4799 38.567 19.793 37.9202C19.7418 37.7961 19.9199 37.7694 19.9955 37.6966C22.3542 36.1748 26.0299 36.1748 28.3403 37.8178C28.4154 37.9679 28.2128 37.9202 28.1616 37.9679ZM30.5971 37.2727L29.4052 37.6454C29.2016 37.5458 29.0252 37.3962 28.846 37.246L28.8972 37.1698C30.5209 36.2265 31.9909 35.0768 33.3865 33.7063C34.0714 33.9799 34.7313 34.356 35.3418 34.7775C33.9201 35.9045 32.2708 36.6486 30.5971 37.2727ZM8.00012 9.03467C8.62743 8.16656 9.31363 7.34255 10.0539 6.56849C10.711 5.94555 11.322 5.34762 12.0331 4.89705C12.693 5.32032 13.4275 5.67304 14.0612 6.07014C13.2756 7.03727 12.4638 8.0135 11.8806 9.05744C12.057 9.13538 12.3881 9.11093 12.6424 9.05744C13.2756 8.13696 13.9583 7.21533 14.7729 6.39214C15.8607 6.79208 16.9274 7.21419 18.0447 7.51458L18.1432 7.61356L17.5117 9.05744C17.7916 9.11093 17.9691 9.08474 18.2461 9.05744C18.4737 8.63646 18.65 8.16426 18.9038 7.73815C20.3767 8.06357 21.9241 8.23707 23.4966 8.28543C23.698 8.46236 23.5466 8.83442 23.6229 9.05744H24.3073C24.3818 8.81281 24.2817 8.53519 24.3818 8.31331C25.8541 8.23594 27.4004 8.08632 28.8255 7.73702L28.949 7.76319L29.634 9.05631C29.8627 9.05631 30.1665 9.10979 30.344 9.00511L29.7085 7.56351L29.7614 7.51344C30.926 7.21419 32.0183 6.76591 33.1339 6.31819C33.9224 7.14024 34.6557 8.11195 35.3174 9.05575C35.595 9.05575 35.8743 9.08305 36.0774 9.00455C35.7642 8.44817 35.3988 7.92279 34.9863 7.43552C34.6513 6.95825 34.2776 6.50938 33.8689 6.09348V5.96434L35.6445 4.9443L35.9005 4.84474C37.4446 6.01349 38.7959 7.41715 39.905 9.00455C40.2094 9.00455 40.4637 9.10924 40.718 8.98351C37.3159 3.90374 31.7122 0.635399 25.6539 0.164906L25.6271 0.213265L25.5754 0.164906C24.8915 0.0915142 24.0513 0.0625067 23.3168 0.135899C23.0386 0.114282 22.7098 0.135899 22.3792 0.164906C16.2936 0.63538 10.6894 3.7524 7.18772 9.05856C7.44145 9.03465 7.74581 9.13592 8.00012 9.03466M18.5266 6.84497L18.4253 6.86658C17.3842 6.59521 16.3687 6.2681 15.405 5.84597L15.4539 5.69634C16.8489 4.37592 18.3195 3.27851 19.9426 2.43311C20.3249 2.58274 20.705 2.70618 21.085 2.88312L21.0105 3.07769C20.045 4.27694 19.2861 5.57004 18.5266 6.84497ZM23.5717 7.51571C22.8634 7.61527 22.229 7.49352 21.5162 7.43834C20.8347 7.33821 19.9705 7.26597 19.2861 7.0384C20.0217 5.67417 20.8853 4.3509 21.9241 3.13288L23.5478 3.35419C23.6229 4.64787 23.5717 6.14409 23.5717 7.51571ZM24.3573 7.54243C24.3073 6.21746 24.3334 4.74912 24.3573 3.37807C24.8665 3.30525 25.4218 3.22789 25.9304 3.1545C26.9191 4.39869 27.8851 5.67417 28.5451 7.0384C27.1738 7.37017 25.7682 7.53936 24.3574 7.54245M32.4501 5.79534C31.459 6.2169 30.4435 6.61627 29.3546 6.84497C28.569 5.52397 27.7071 4.20354 26.7405 2.9275C27.0961 2.73236 27.5296 2.58276 27.909 2.3842C29.5606 3.2057 31.1564 4.37592 32.499 5.7174L32.4501 5.79534ZM29.2016 1.53426C31.3321 2.08383 33.3358 3.02935 35.162 4.32529L35.1114 4.42485L33.3631 5.3954H33.234C31.8919 4.05449 30.3201 2.88312 28.7203 1.95866C28.7709 1.78401 29.0258 1.65828 29.2016 1.53426ZM28.1884 1.28395V1.33686C25.9804 2.9275 22.4054 3.07771 20.0735 1.60708C19.9426 1.50752 19.6923 1.45916 19.665 1.28451C22.3548 0.664406 25.523 0.614358 28.1884 1.28395ZM12.7169 4.37592C14.3161 3.20568 16.0906 2.33355 17.968 1.73507C18.0448 1.65713 18.0937 1.58374 18.1938 1.58374V1.63494C18.3963 1.68387 18.5494 1.45801 18.7263 1.60593C18.8794 1.73507 19.0586 1.8335 19.1837 1.95751C17.6124 2.92749 16.0644 4.07611 14.6438 5.46877C13.9589 5.22414 13.3274 4.8481 12.7164 4.42483L12.7169 4.3759L12.7169 4.37592ZM23.5979 24.3097C21.2141 24.9588 18.6256 24.4639 16.9018 22.6667C16.6999 22.4175 16.5719 22.1206 16.3682 21.8725L12.9457 21.8964C12.8916 23.9143 12.8677 26.2326 12.9457 28.2272L16.7482 28.2027L16.7989 27.0058C17.2318 27.2049 17.6636 27.4535 18.0937 27.6771C20.7311 28.775 24.1264 29.0242 26.7394 27.6771C28.6429 26.6331 29.6578 24.6152 29.3779 22.4426C29.1003 20.3268 27.0705 18.4068 25.0178 17.8851L18.8787 16.1141L18.4248 15.8888C18.2217 15.7159 18.0942 15.4929 18.1437 15.2164C18.6256 14.396 19.7429 14.6452 20.5798 14.6674C22.3548 14.9171 24.1804 15.515 25.2209 17.1359C26.3354 17.1359 27.6286 17.1575 28.8449 17.1097C28.8967 15.0668 28.825 13.2736 28.7948 11.2045C27.6536 11.1783 26.2581 11.1783 25.1185 11.2306C25.0673 11.527 25.1675 11.9492 25.0406 12.2495L23.8749 11.626C21.0839 10.4552 17.1777 10.3329 14.6427 12.1523C12.9934 13.3464 12.4877 15.4917 12.9189 17.385C13.2472 19.1765 14.9715 20.4986 16.6208 21.1199C18.8776 21.9163 21.2352 22.4932 23.5216 23.2646C23.748 23.3659 24.0518 23.5918 24.0029 23.8654C24.0041 24.0867 23.7742 24.2147 23.5979 24.3097Z" fill="#1C204E"/>
</g>
<g filter="url(#filter1_d_2800_478)">
<path d="M7.38462 53.3645V54.2012H12.9546V55.5625H5.93593V53.3645C5.93593 51.7035 7.23476 50.7419 9.47023 50.7419C10.6691 50.7419 11.4809 50.2049 11.4809 49.4056C11.4809 48.5314 10.769 48.0193 9.55765 48.0193C8.30878 48.0193 7.50951 48.5314 7.48453 49.3307H5.98589C6.0858 47.6821 7.4096 46.708 9.55765 46.708C11.6557 46.708 12.9546 47.7321 12.9546 49.3806C12.9546 51.129 11.7432 52.0532 9.48272 52.0532C8.17141 52.0532 7.38462 52.5402 7.38462 53.3645ZM13.9007 46.8204H20.5571V47.6572L16.5108 55.5625H14.8373L18.6714 48.1942H13.9007V46.8204ZM25.2333 55.7124C22.9728 55.7124 21.4367 54.2262 21.4367 52.0407V50.3297C21.4367 48.1317 22.9728 46.6456 25.2333 46.6456C27.4937 46.6456 29.0298 48.1317 29.0298 50.3297V52.0407C29.0298 54.2262 27.4937 55.7124 25.2333 55.7124ZM25.2333 54.3386C26.632 54.3386 27.5562 53.4144 27.5562 52.0407V50.3297C27.5562 48.956 26.632 48.0318 25.2333 48.0318C23.8345 48.0318 22.9104 48.956 22.9104 50.3297V52.0407C22.9104 53.4144 23.8345 54.3386 25.2333 54.3386ZM34.2095 55.7124C31.9491 55.7124 30.4129 54.2262 30.4129 52.0407V50.3297C30.4129 48.1317 31.9491 46.6456 34.2095 46.6456C36.47 46.6456 38.0061 48.1317 38.0061 50.3297V52.0407C38.0061 54.2262 36.47 55.7124 34.2095 55.7124ZM34.2095 54.3386C35.6082 54.3386 36.5324 53.4144 36.5324 52.0407V50.3297C36.5324 48.956 35.6082 48.0318 34.2095 48.0318C32.8108 48.0318 31.8866 48.956 31.8866 50.3297V52.0407C31.8866 53.4144 32.8108 54.3386 34.2095 54.3386ZM42.3615 54.2012H43.8601V55.5625H39.2143V54.2012H40.8878V48.5439L39.4017 49.0184V47.6697L42.1866 46.7705H42.3615V54.2012Z" fill="#1C204E"/>
</g>
<path d="M119.578 38.6271C119.893 38.4391 120.271 38.3556 120.649 38.3556C120.943 38.3556 121.237 38.4182 121.489 38.5436C121.762 38.6689 121.993 38.8569 122.182 39.0658L122.875 38.3765C122.602 38.0422 122.266 37.7916 121.888 37.6245C121.426 37.4365 120.943 37.3529 120.439 37.3738C119.935 37.3947 119.452 37.5409 119.032 37.7707C118.57 38.0422 118.192 38.4182 117.919 38.8987C117.646 39.4 117.52 39.9431 117.52 40.5071C117.52 41.0711 117.646 41.6142 117.919 42.1156C118.171 42.5751 118.549 42.972 119.011 43.2436C119.494 43.5151 120.04 43.6614 120.586 43.6405C121.027 43.6405 121.468 43.5569 121.888 43.3898C122.266 43.2227 122.623 42.9511 122.875 42.6378L122.182 41.9485C121.993 42.1782 121.762 42.3662 121.489 42.4916C121.216 42.6169 120.922 42.6796 120.628 42.6796C120.25 42.6796 119.893 42.596 119.557 42.408C119.242 42.22 118.99 41.9693 118.822 41.656C118.654 41.3218 118.549 40.9249 118.549 40.5489C118.549 40.1729 118.633 39.7969 118.822 39.4418C119.011 39.0867 119.263 38.8151 119.578 38.6271ZM118.507 31.5667H121.447V34.1778H122.497V28.0782H121.447V30.5849H118.507V28.0782H117.457V34.1778H118.507V31.5667ZM123.799 34.1778H124.849V28.0782H123.799V34.1778ZM129.343 28.3498C128.944 28.1618 128.503 28.0782 128.062 28.0991H126.172V34.1778H127.222V32.4231H128.062C128.503 32.4231 128.944 32.3396 129.343 32.1725C129.7 32.0054 129.994 31.7547 130.183 31.4205C130.372 31.0654 130.477 30.6685 130.477 30.2716C130.477 29.8747 130.372 29.4778 130.183 29.1227C129.994 28.7676 129.7 28.5169 129.343 28.3498ZM129.049 31.1489C128.818 31.3578 128.461 31.4622 127.999 31.4622H127.222V29.0391H127.999C128.461 29.0391 128.818 29.1436 129.049 29.3525C129.28 29.5613 129.406 29.8538 129.406 30.2507C129.406 30.6476 129.301 30.94 129.049 31.1489ZM139.675 28.0991L136.84 34.1778H138.037L138.667 32.7782H141.817L142.447 34.1778H143.665L140.83 28.0782H139.675V28.0991ZM139.066 31.88L140.242 29.2271L141.418 31.88H139.066ZM128.398 37.7707C127.915 37.4991 127.369 37.3738 126.802 37.3738C126.235 37.3738 125.71 37.52 125.206 37.7707C124.744 38.0422 124.345 38.4182 124.093 38.8987C123.82 39.4 123.694 39.9431 123.694 40.5071C123.694 41.0711 123.841 41.6142 124.093 42.1156C124.345 42.5751 124.744 42.972 125.206 43.2436C125.689 43.5151 126.235 43.6405 126.802 43.6405C127.369 43.6405 127.894 43.4942 128.398 43.2436C128.86 42.972 129.238 42.596 129.511 42.1156C129.784 41.6142 129.91 41.0711 129.91 40.5071C129.91 39.9431 129.763 39.4 129.511 38.8987C129.238 38.4182 128.86 38.0422 128.398 37.7707ZM128.566 41.5934C128.398 41.9067 128.146 42.1782 127.852 42.3662C127.537 42.5542 127.18 42.6378 126.823 42.6378C126.466 42.6378 126.109 42.5334 125.794 42.3662C125.479 42.1782 125.227 41.9276 125.08 41.5934C124.912 41.2591 124.807 40.8831 124.807 40.4862C124.807 40.0894 124.891 39.7342 125.08 39.3791C125.248 39.0658 125.5 38.7942 125.794 38.6062C126.109 38.4182 126.466 38.3347 126.823 38.3347C127.18 38.3347 127.537 38.4391 127.852 38.6062C128.167 38.7942 128.419 39.0449 128.566 39.3791C128.734 39.7134 128.839 40.0894 128.839 40.4862C128.839 40.8831 128.734 41.2591 128.566 41.5934ZM164.266 37.4574V38.4182H166.177V43.5569H167.248V38.4182H169.159V37.4574H164.266ZM162.565 41.5725L159.394 37.4574H158.512V43.5569H159.583V39.4418L162.754 43.5569H163.636V37.4574H162.565V41.5725ZM136.063 37.4574L134.278 40.6951L132.451 37.4574H131.128V43.5569H132.262V39.3374L134.257 42.8467L136.294 39.2747V43.536H137.428V37.4365H136.063V37.4574ZM141.859 37.708C141.46 37.52 140.998 37.4365 140.557 37.4574H138.646V43.5569H139.717V41.8022H140.557C140.998 41.8022 141.46 41.7187 141.859 41.5516C142.216 41.3845 142.51 41.1338 142.72 40.7996C142.909 40.4445 143.014 40.0476 143.014 39.6507C143.014 39.2538 142.909 38.8569 142.72 38.5018C142.51 38.1467 142.216 37.8751 141.859 37.708ZM141.565 40.528C141.334 40.7369 140.977 40.8414 140.494 40.8414H139.696V38.4182H140.494C140.956 38.4182 141.313 38.5227 141.565 38.7316C141.796 38.9405 141.922 39.2329 141.922 39.6298C141.943 40.0058 141.817 40.3191 141.565 40.528ZM134.824 32.7782L135.454 34.1778H136.672L133.837 28.0782H132.682L129.868 34.1778H131.065L131.695 32.7782H134.824ZM133.27 29.2271L134.446 31.88H132.094L133.27 29.2271ZM145.072 37.4574H144.001V43.5569H148.075V42.596H145.072V37.4574ZM148.957 43.536H150.028V37.4365H148.957V43.536ZM105.907 50.4085C105.928 51.8707 105.949 52.936 105.97 53.4582C105.991 53.5209 105.991 53.6045 105.97 53.6671C105.97 53.7507 105.97 53.8134 105.97 53.8134C105.97 54.1058 106.012 54.3982 106.096 54.6698C106.18 54.3982 106.222 54.1058 106.222 53.8134C106.222 53.7089 106.264 52.184 106.327 49.74C106.306 49.7609 106.285 49.7818 106.285 49.8027C106.138 49.9907 106.012 50.1996 105.907 50.4085ZM101.539 19.9107C101.875 19.5556 102.19 19.1378 102.421 18.6991C102.253 19.0751 101.602 20.4956 102.232 20.6209C102.925 20.7462 103.702 20.5374 105.109 18.7618C105.067 16.4849 105.025 14.5005 105.004 12.9965H104.248C104.206 12.9965 104.185 12.9965 104.143 12.9965C103.723 12.9965 103.03 12.9547 102.568 12.2654C102.064 11.5134 102.043 10.7405 102.022 10.1765C102.001 9.3618 101.791 7.87868 100.762 7.04313C100.048 6.47913 98.1164 6.04046 96.3314 6.75068C95.7434 6.98046 94.5674 7.58624 93.4124 8.15024C92.3624 8.67246 91.0184 9.32002 90.5984 9.32002C91.2914 9.00668 92.2154 8.54713 93.2234 7.98313C94.3784 7.35646 95.5964 6.68802 96.2054 6.43735C97.4234 5.95691 99.7544 5.81069 100.951 6.77157C102.085 7.69069 102.316 9.27824 102.337 10.1347C102.358 10.6987 102.379 11.388 102.82 12.0774C103.219 12.6622 103.849 12.6622 104.227 12.6622H104.311H104.983C104.983 12.4742 104.983 12.3071 104.983 12.1191C104.311 12.1609 103.345 12.2027 102.925 11.3045C102.421 10.2182 102.967 7.44002 101.287 6.27024C99.6074 5.10046 96.9194 5.39291 94.5254 6.77157C92.1524 8.12935 89.0024 9.90491 85.1174 11.4507C81.2324 12.9965 78.8174 13.6231 78.3554 13.6858C77.9144 13.7694 78.7124 14.0618 80.3714 14.1036C82.0304 14.1454 83.4164 14.02 83.4164 14.02L95.5964 8.50535C95.5964 8.50535 85.0964 13.7067 84.2144 14.2707C83.3324 14.8347 82.6184 15.0227 82.6814 15.5449C82.7444 16.0671 83.4164 16.0045 85.2644 15.9627C87.1124 15.9209 87.5114 15.7538 88.1414 15.5658C88.7714 15.3778 95.5964 12.2445 95.5964 12.2445C95.5964 12.2445 88.2884 15.8582 87.2384 16.6938C86.1884 17.5294 87.3224 17.8009 88.0364 17.8218C88.7714 17.8427 90.7244 17.7382 91.8164 17.1951C92.9084 16.652 96.3104 14.4796 96.3104 14.4796C96.3104 14.4796 92.9504 16.8818 92.2994 17.4249C91.7744 17.8636 91.5014 18.2396 91.6274 18.6991C91.8164 19.284 92.8244 19.2214 94.1684 18.7409C94.1684 18.7409 95.5544 18.2605 96.0794 17.8009C96.6044 17.3205 98.0744 16.0254 98.0744 16.0254C98.0744 16.0254 96.3314 17.8218 95.8904 18.5947C95.4704 19.3676 95.3864 19.5556 95.5964 19.9942C95.8904 20.6209 98.1164 19.9734 98.7464 19.3049C99.2084 18.7827 99.6494 18.2396 100.048 17.6547C100.048 17.6547 99.3764 18.7409 99.2294 19.3676C99.0824 19.9942 98.9144 20.4956 99.5234 20.5582C100.195 20.6627 100.825 20.6836 101.539 19.9107ZM105.697 34.136C105.76 34.0942 105.823 34.0525 105.886 34.0107C106.012 33.9271 106.117 33.8645 106.201 33.7809C106.369 33.6765 106.537 33.5511 106.705 33.4467C106.726 32.256 106.768 31.0445 106.789 29.8538C106.453 29.7076 106.096 29.5614 105.718 29.4151C105.697 29.4151 105.676 29.3942 105.655 29.3942C105.613 29.3734 105.592 29.3734 105.55 29.3525C105.298 29.2689 105.067 29.1645 104.794 29.0809C104.479 28.9556 104.164 28.8511 103.849 28.7258C101.749 29.8329 101.329 30.3551 101.329 31.3787C101.329 32.82 102.568 33.4676 104.71 34.8254C105.046 34.5747 105.382 34.3449 105.697 34.136ZM103.114 31.5667C103.114 31.5667 102.967 30.6476 105.34 29.5822C105.403 29.5614 105.466 29.5196 105.529 29.4987C105.55 30.94 105.571 32.3814 105.613 33.8227C104.437 33.0289 103.114 32.2769 103.114 31.5667ZM106.705 49.3013C106.6 49.4267 106.495 49.552 106.39 49.6565C106.999 50.4711 106.957 51.2649 106.621 52.2885C106.936 51.9334 107.566 51.0351 107.041 49.8654C106.936 49.6774 106.831 49.4893 106.705 49.3013ZM105.739 40.7369C105.97 40.9667 106.243 41.2382 106.516 41.5098C106.684 41.6769 106.852 41.844 107.041 42.032C107.062 42.0529 107.104 42.0738 107.146 42.1156C108.574 40.8831 109.876 39.7134 109.876 38.2511C109.876 37.1022 108.763 36.0578 107.65 35.2222C107.545 35.2849 107.44 35.3476 107.335 35.4311C107.083 35.5982 106.852 35.7445 106.642 35.8907C106.642 35.8907 106.621 35.8907 106.621 35.9116C106.579 35.9534 106.516 35.9742 106.474 36.016C106.18 36.2249 105.907 36.4129 105.655 36.6009C105.697 38.0005 105.718 39.4 105.739 40.7369ZM106.642 36.1205C108.028 37.1231 108.574 37.7707 108.574 38.4809C108.574 39.212 107.797 40.0685 106.537 41.3218C106.558 39.6507 106.6 37.9169 106.642 36.1205ZM114.307 16.0462C114.307 16.0462 115.777 17.3414 116.302 17.8218C116.827 18.3022 118.213 18.7618 118.213 18.7618C119.557 19.2422 120.565 19.3049 120.754 18.72C120.901 18.2605 120.607 17.8636 120.082 17.4458C119.431 16.9027 116.071 14.5005 116.071 14.5005C116.071 14.5005 119.473 16.6729 120.565 17.216C121.657 17.7591 123.61 17.8636 124.345 17.8427C125.08 17.8218 126.193 17.5502 125.143 16.7147C124.093 15.8791 116.785 12.2654 116.785 12.2654C116.785 12.2654 123.589 15.4196 124.24 15.5867C124.87 15.7747 125.269 15.9209 127.117 15.9836C128.965 16.0253 129.616 16.088 129.7 15.5658C129.784 15.0645 129.049 14.8765 128.167 14.2916C127.285 13.7276 116.785 8.52624 116.785 8.52624L128.965 14.0409C128.965 14.0409 130.351 14.1662 132.01 14.1245C133.669 14.0827 134.467 13.7902 134.026 13.7067C133.585 13.6231 131.149 13.0174 127.264 11.4716C123.379 9.9258 120.229 8.17113 117.856 6.79246C115.483 5.43469 112.774 5.12135 111.094 6.29113C109.414 7.46091 109.96 10.2182 109.456 11.3254C109.036 12.2236 108.07 12.1818 107.398 12.14C107.398 12.3071 107.398 12.4951 107.377 12.6831H108.07H108.154C108.532 12.6831 109.162 12.6831 109.561 12.0982C110.002 11.4298 110.023 10.7196 110.044 10.1556C110.065 9.29913 110.296 7.71157 111.43 6.79246C112.627 5.83157 114.958 5.9778 116.176 6.45824C116.785 6.68802 118.003 7.35646 119.158 8.00402C120.166 8.56802 121.09 9.02757 121.783 9.34091C121.342 9.34091 120.019 8.69335 118.969 8.17113C117.835 7.58624 116.659 7.00135 116.05 6.77157C114.265 6.06135 112.333 6.50002 111.619 7.06402C110.569 7.89957 110.38 9.38268 110.359 10.1974C110.338 10.7614 110.317 11.5551 109.813 12.2862C109.372 12.9756 108.679 13.0174 108.238 13.0174C108.196 13.0174 108.175 13.0174 108.133 13.0174H107.377C107.335 14.5214 107.293 16.4849 107.251 18.72C108.679 20.5374 109.498 20.7671 110.17 20.6209C110.8 20.4956 110.17 19.0751 109.981 18.6991C110.233 19.1378 110.527 19.5347 110.863 19.9107C111.556 20.6836 112.207 20.6627 112.837 20.5791C113.467 20.4956 113.278 20.0151 113.131 19.3885C112.984 18.7618 112.312 17.6756 112.312 17.6756C112.711 18.2396 113.152 18.8036 113.614 19.3258C114.244 19.9942 116.47 20.6627 116.764 20.0151C116.953 19.5974 116.89 19.3885 116.47 18.6156C116.071 17.8427 114.307 16.0462 114.307 16.0462ZM106.222 9.65424C106.558 9.65424 106.894 9.5498 107.167 9.3618C107.44 9.1738 107.671 8.90224 107.797 8.6098C107.923 8.29646 107.965 7.96224 107.902 7.62802C107.839 7.2938 107.671 7.00135 107.44 6.75068C107.209 6.52091 106.894 6.3538 106.558 6.29113C106.222 6.22846 105.886 6.24935 105.571 6.39557C105.256 6.52091 104.983 6.75068 104.815 7.02224C104.626 7.2938 104.521 7.62802 104.521 7.96224C104.521 8.19202 104.563 8.40091 104.647 8.6098C104.731 8.81868 104.857 9.00668 105.025 9.15291C105.193 9.32002 105.361 9.44535 105.571 9.52891C105.76 9.61246 105.991 9.65424 106.222 9.65424ZM111.808 22.3547C111.808 22.3547 111.766 21.1849 109.855 21.0596C107.902 20.9342 107.818 21.7698 107.86 22.0831C108.007 22.0831 108.133 22.1249 108.133 22.1667C108.133 22.2085 108.028 22.2502 107.902 22.2502C108.007 22.5636 108.301 22.9396 109.141 23.3574C109.834 23.6916 110.17 23.6707 110.569 23.608C110.569 23.608 111.031 23.8796 111.031 24.3182C111.031 24.736 110.296 25.5507 106.852 27.2636C107.062 18.0307 107.251 9.92579 107.251 9.92579H107.461C107.545 9.92579 107.629 9.88402 107.692 9.82135C107.755 9.75868 107.797 9.67513 107.797 9.59157V9.48713C107.797 9.44535 107.797 9.40357 107.776 9.3618C107.755 9.32002 107.734 9.27824 107.692 9.25735C107.503 9.46624 107.293 9.63335 107.041 9.75869C106.789 9.88402 106.516 9.92579 106.243 9.92579C105.97 9.92579 105.697 9.86313 105.445 9.75869C105.193 9.65424 104.962 9.46624 104.794 9.25735C104.752 9.29913 104.731 9.32002 104.71 9.3618C104.689 9.40357 104.689 9.44535 104.689 9.48713V9.59157C104.689 9.67513 104.731 9.75868 104.794 9.82135C104.857 9.88402 104.941 9.92579 105.025 9.92579H105.235C105.235 9.92579 105.382 17.8009 105.529 26.8667C105.823 27.0129 106.117 27.1591 106.453 27.3262C106.495 27.3471 106.558 27.368 106.6 27.3889C107.377 27.7649 108.028 28.0782 108.574 28.3707C110.422 27.6605 112.228 26.8458 112.774 25.6969C113.74 23.5662 111.808 22.3547 111.808 22.3547ZM109.246 21.8742C109.036 21.8742 108.868 21.7698 108.868 21.6445C108.868 21.5191 109.036 21.4147 109.246 21.4147C109.456 21.4147 109.624 21.5191 109.624 21.6445C109.624 21.7698 109.456 21.8742 109.246 21.8742ZM105.907 48.3196C106.075 48.1107 106.222 47.9018 106.39 47.7138C106.411 46.5231 106.453 45.1862 106.474 43.7449C106.264 43.536 106.033 43.3271 105.781 43.0974C105.697 43.0347 105.634 42.9511 105.55 42.8885C105.445 42.784 105.34 42.7005 105.235 42.6169C104.647 43.16 103.492 44.3716 103.492 45.416C103.492 46.6485 104.689 47.9018 105.592 48.8C105.676 48.612 105.781 48.4658 105.907 48.3196ZM105.781 43.348C105.823 45.1236 105.844 46.7529 105.865 48.1525C105.172 47.2333 104.437 46.2934 104.437 45.6458C104.437 45.04 104.794 44.3507 105.781 43.348ZM106.264 27.5978C102.169 25.6342 101.329 24.736 101.329 24.2974C101.329 23.8587 101.791 23.5871 101.791 23.5871C102.19 23.6707 102.526 23.6707 103.219 23.3365C104.059 22.9396 104.353 22.5427 104.458 22.2294C104.332 22.2294 104.227 22.1876 104.227 22.1458C104.227 22.104 104.353 22.0622 104.5 22.0622V22.0414C104.521 21.728 104.416 20.9134 102.484 21.0387C100.573 21.164 100.531 22.3338 100.531 22.3338C100.531 22.3338 98.5994 23.5662 99.6074 25.6551C100.489 27.5142 104.626 28.496 107.02 29.5613C109.393 30.6267 109.246 31.5458 109.246 31.5458C109.246 32.3396 107.65 33.1751 106.39 34.0525C105.13 34.9298 102.463 36.4547 102.463 38.2511C102.463 39.9014 104.122 41.1756 105.739 42.596C107.377 44.0165 107.902 44.8729 107.902 45.6667C107.902 46.7529 106.096 48.2151 105.172 50.0325C104.248 51.8498 106.075 54.6698 105.508 53.1867C104.92 51.7036 105.235 50.6591 105.991 49.6147C106.915 48.3405 108.889 47.0871 108.889 45.3951C108.889 43.9747 106.81 42.3036 106.81 42.3036C104.962 40.4654 103.786 39.4209 103.786 38.5018C103.786 37.5827 104.668 36.768 107.146 35.1596C109.603 33.572 111.052 32.9454 111.052 31.3996C111.052 30.0418 110.359 29.5614 106.264 27.5978ZM103.114 21.4356C103.324 21.4356 103.492 21.54 103.492 21.6654C103.492 21.7907 103.324 21.8951 103.114 21.8951C102.904 21.8951 102.736 21.7907 102.736 21.6654C102.736 21.54 102.904 21.4356 103.114 21.4356ZM153.682 37.4574L150.847 43.5569H152.044L152.674 42.1574H155.824L156.454 43.5569H157.672L154.837 37.4574H153.682ZM153.073 41.2591L154.249 38.6062L155.425 41.2591H153.073Z" fill="#1C204E"/>
<g clip-path="url(#clip0_2800_478)">
<mask id="mask0_2800_478" style="mask-type:luminance" maskUnits="userSpaceOnUse" x="198" y="0" width="220" height="60">
<path d="M417.652 0H198.652V60H417.652V0Z" fill="white"/>
</mask>
<g mask="url(#mask0_2800_478)">
<path d="M131.321 9.21415V7.52491C131.542 7.6183 131.744 7.75149 131.917 7.91776C133.502 9.50407 135.323 10.842 137.316 11.8855C140.436 13.5207 143.801 14.6482 147.282 15.2246C151.054 15.8925 154.826 16.4032 158.638 16.9532C162.45 17.5031 167.254 18.6817 171.224 20.7244C172.376 21.3138 173.567 21.8245 174.758 22.2958C177.099 23.2288 179.66 23.4876 182.143 23.0423C185.625 22.4181 188.843 20.792 191.394 18.3673C196.397 13.614 198.819 7.68205 199.296 0.925156C199.56 -3.70464 198.829 -8.3373 197.152 -12.6672C194.253 -20.3669 189.25 -26.5346 182.699 -31.5629L182.381 -31.7201L181.746 -32.2701L181.627 -32.1129L182.302 -31.6416C182.54 -31.4058 182.739 -31.1701 182.977 -30.9738C185.76 -28.6864 188.253 -26.0746 190.402 -23.1954C194.968 -17.0277 197.668 -10.2316 197.787 -2.53186C197.928 2.7546 196.447 7.95933 193.539 12.3962C191.471 15.6921 188.496 18.336 184.962 20.0173C181.627 21.5494 178.173 22.1387 174.599 21.2351C172.989 20.7587 171.411 20.1814 169.874 19.5066C167.396 18.3788 164.78 17.5734 162.092 17.1103L151.213 15.421C147.89 14.9675 144.627 14.1506 141.485 12.9854C137.793 11.5712 134.418 9.68556 131.758 6.73923C131.631 6.60059 131.483 6.48142 131.321 6.38567V5.44285C131.419 5.37844 131.53 5.33437 131.646 5.31332C131.762 5.29227 131.881 5.29465 131.996 5.32035C132.111 5.34604 132.219 5.39451 132.315 5.46282C132.411 5.53114 132.491 5.61787 132.552 5.71783C134.381 7.80912 136.624 9.50712 139.143 10.7069C141.598 11.8875 144.183 12.7838 146.846 13.3783C151.054 14.3212 155.303 14.7925 159.511 15.421C163.187 15.9124 166.78 16.8902 170.192 18.3281C171.293 18.8306 172.419 19.2764 173.567 19.6638C175.724 20.4538 178.058 20.644 180.317 20.2138C184.399 19.4539 188.081 17.2987 190.719 14.1247C194.531 9.68556 196.358 4.50002 196.596 -1.27477C196.794 -5.94961 195.762 -10.428 193.936 -14.7492C190.878 -21.7419 186.034 -27.3202 179.92 -31.8772L179.483 -32.0343L178.927 -32.6236L178.808 -32.4665L179.523 -32.0736L180.198 -31.3272C185.161 -27.281 189.25 -22.5669 191.99 -16.7528C194.73 -10.9387 195.881 -4.69249 194.531 1.75014C193.38 7.17137 190.759 11.7283 186.312 15.1854C183.398 17.5139 179.775 18.8012 176.029 18.8388C173.964 18.8388 172.058 18.2495 170.113 17.621C168.167 16.9924 166.579 16.3639 164.753 16.0103C161.02 15.3032 157.248 14.7139 153.516 14.1247C149.784 13.5354 146.171 12.789 142.637 11.4534C139.425 10.3451 136.478 8.59316 133.981 6.30711C133.678 6.07175 133.41 5.79385 133.187 5.48214C133.15 5.37848 133.138 5.26768 133.152 5.15857C133.166 5.04947 133.205 4.94503 133.267 4.85359C133.358 4.7759 133.467 4.72108 133.585 4.69374C133.702 4.66639 133.825 4.66733 133.942 4.69645C134.1 4.69645 134.219 4.89288 134.378 5.05001C136.999 7.60349 140.136 9.29271 143.59 10.5105C147.799 12.0426 152.166 12.6712 156.573 13.3783C159.511 13.8103 162.45 14.2425 165.348 14.9103C167.492 15.3817 169.517 16.1675 171.621 16.8353C173.87 17.6465 176.3 17.8366 178.649 17.3853C181.869 16.7405 184.825 15.1687 187.146 12.8676C191.871 8.27131 193.896 2.5751 193.856 -3.86752C193.856 -8.6995 192.506 -13.1779 190.322 -17.4206C187.305 -23.1954 182.977 -27.7917 177.815 -31.6808L177.379 -31.8772L176.823 -32.4272L176.704 -32.2308L177.418 -31.8772C177.676 -31.5829 177.955 -31.3072 178.252 -31.0523C182.421 -27.5953 185.995 -23.6275 188.575 -18.8742C191.553 -13.335 193.062 -7.48169 192.069 -1.15691C191.315 3.36078 189.528 7.40707 186.233 10.6677C181.667 15.2639 176.227 17.1103 169.755 15.3818C166.268 14.4731 162.728 13.7777 159.154 13.2997C155.693 12.8818 152.259 12.2654 148.871 11.4534C144.94 10.4712 141.168 9.13557 137.753 6.93565C136.88 6.34639 136.006 5.67854 135.172 5.01072C134.339 4.34289 134.736 4.53931 134.974 4.22504C135.025 4.15012 135.091 4.08688 135.168 4.03956C135.246 3.99224 135.333 3.96197 135.423 3.95079C135.514 3.93961 135.605 3.9478 135.692 3.97478C135.779 4.00175 135.859 4.04692 135.927 4.10719C136.038 4.16198 136.133 4.24293 136.205 4.34289C138.548 6.16553 141.159 7.62282 143.947 8.66416C148.315 10.3534 152.92 11.1784 157.526 11.8462C162.132 12.514 165.983 13.0247 170.113 14.2425C171.78 14.7586 173.534 14.9454 175.274 14.7925C178.461 14.5244 181.48 13.2585 183.89 11.1784C189.608 6.30711 191.633 -0.0569496 191.037 -7.32455C190.64 -11.8422 188.972 -15.9671 186.63 -19.8169C183.851 -24.3346 180.158 -28.0273 175.989 -31.288L175.473 -31.4845L174.957 -32.0736L174.798 -31.9165L175.513 -31.4845C175.73 -31.2295 175.97 -30.9929 176.227 -30.7773C178.546 -28.8756 180.662 -26.7429 182.54 -24.4132C186.153 -19.8955 188.734 -14.9064 189.449 -9.13163C190.164 -3.35684 189.052 1.47513 185.796 5.95354C181.707 11.6105 176.108 13.9676 169.16 13.064L160.504 11.8462C156.754 11.4103 153.039 10.7146 149.387 9.76412C145.201 8.69096 141.21 6.98138 137.555 4.69645C137.306 4.57561 137.078 4.41649 136.88 4.22504C136.824 4.17649 136.779 4.11746 136.747 4.05142C136.715 3.98538 136.696 3.91366 136.693 3.84047C136.689 3.76726 136.7 3.69408 136.725 3.62519C136.751 3.55631 136.79 3.49312 136.84 3.43935C136.876 3.37683 136.925 3.3226 136.984 3.28022C137.043 3.23783 137.11 3.20824 137.182 3.1934C137.253 3.17856 137.327 3.17881 137.398 3.19411C137.469 3.20942 137.536 3.23943 137.594 3.28222L138.071 3.59649C139.302 4.3036 140.533 5.05001 141.803 5.67856C146.607 8.0749 151.769 9.332 157.05 10.157L169.755 11.9248C171.934 12.2706 174.164 12.129 176.28 11.5103C178.396 10.8917 180.345 9.81177 181.984 8.34989C186.312 4.61787 188.258 -0.29266 188.417 -5.91032C188.536 -10.2709 187.305 -14.3172 185.24 -18.1671C182.461 -23.4312 178.411 -27.5953 173.726 -31.1701C173.646 -31.2487 173.527 -31.2487 173.408 -31.288L172.852 -31.8772L172.694 -31.7201L173.408 -31.3272C173.599 -31.0861 173.812 -30.8625 174.043 -30.6594C175.235 -29.5202 176.505 -28.4595 177.657 -27.3202C181.111 -23.8632 183.85 -19.9349 185.518 -15.3386C187.186 -10.7423 187.503 -5.04605 185.399 0.0216141C183.573 4.34289 180.634 7.64277 176.148 9.37129C173.686 10.3141 171.105 10.6284 168.485 10.7069C165.67 10.7534 162.856 10.5827 160.067 10.1963C152.845 9.29294 145.834 7.16676 139.341 3.91076C139.132 3.85467 138.941 3.74648 138.786 3.59649C138.701 3.51563 138.636 3.41733 138.595 3.30866C138.554 3.19997 138.538 3.08361 138.547 2.96794C138.56 2.89552 138.589 2.82677 138.632 2.7664C138.674 2.70603 138.73 2.65545 138.794 2.61815C138.858 2.58083 138.929 2.55768 139.003 2.55024C139.077 2.54282 139.152 2.5513 139.222 2.57509L139.977 2.88937C142.551 4.18298 145.218 5.28596 147.957 6.18924C152.641 7.75337 157.49 8.78146 162.41 9.25342C165.547 9.52841 168.683 9.68556 171.82 9.21415C174.957 8.74274 178.252 7.48563 180.674 5.01072C184.248 1.39656 185.756 -3.08185 185.677 -8.07095C185.637 -12.1958 184.287 -15.9671 182.223 -19.5027C179.961 -23.2553 177.06 -26.5914 173.646 -29.3631C170.311 -32.1916 166.658 -34.5879 162.966 -36.9057L162.172 -37.5342H189.965L190.521 -37.1806C194.909 -34.8164 198.912 -31.8099 202.393 -28.2631C213.788 -16.7921 219.108 -0.017662 216.051 15.971C215.203 20.8114 213.38 25.4338 210.691 29.5634C207.673 34.0812 203.782 37.5775 198.66 39.6202C194.823 41.2524 190.591 41.7571 186.471 41.0738C183.771 40.6023 181.349 39.5024 179.007 38.1666C178.652 37.9643 178.28 37.7935 177.895 37.656L177.498 37.3024C174.996 35.6132 172.495 33.8847 169.954 32.274C167.832 30.9451 165.533 29.9139 163.125 29.2098C160.421 28.4325 157.66 27.8677 154.866 27.5206C151.094 27.0492 147.322 26.6564 143.55 26.1457C139.611 25.6871 135.744 24.7503 132.036 23.3565L131.321 23.1601V21.8244L132.909 22.4136C137.515 24.1814 142.359 24.8492 147.203 25.3992C150.697 25.8314 154.191 26.2243 157.645 26.7742C162.728 27.5992 167.572 29.1313 171.899 31.999L172.376 32.1954C172.327 32.0495 172.229 31.9246 172.098 31.8419C169.154 29.7983 165.877 28.2702 162.41 27.3242C159.801 26.6364 157.148 26.1244 154.469 25.7921C150.896 25.3599 147.322 24.9672 143.749 24.4565C139.685 23.9531 135.715 22.8817 131.956 21.2744L131.321 21.078V19.7816L132.195 20.0566L134.775 21.078C139.222 22.728 143.907 23.3565 148.593 23.9065C152.206 24.3779 155.819 24.8101 159.432 25.4386C164.17 26.2325 168.68 28.0281 172.654 30.7027C173.726 31.4491 174.798 32.1562 175.91 32.824C177.021 33.4918 178.57 34.5132 179.96 35.2597C182.768 36.7668 185.939 37.4868 189.131 37.3417C193.465 37.0979 197.626 35.5795 201.082 32.9812C205.212 29.9562 208.031 25.8708 209.976 21.2351C213.034 13.8497 213.669 6.18926 212.359 -1.62833C210.254 -14.0421 204.1 -24.1383 194.055 -31.9165L193.34 -32.4272C193.821 -31.8331 194.367 -31.2929 194.968 -30.8165C206.8 -20.6812 213.034 -5.12463 211.088 9.76412C210.413 14.9497 208.825 19.8209 206.006 24.2208C203.743 27.7957 200.884 30.7812 197.112 32.824C190.322 36.5953 183.454 36.8703 176.624 32.824L171.542 29.6813C168.759 27.8683 165.704 26.5025 162.489 25.635C159.719 24.9502 156.907 24.4386 154.072 24.1029C150.697 23.6707 147.282 23.2779 143.907 22.7672C139.782 22.2129 135.774 21.006 132.036 19.1924C131.805 19.1038 131.565 19.038 131.321 18.996V17.5031L131.758 17.6995C135.721 19.7583 140.024 21.102 144.463 21.6673C148.275 22.2172 152.087 22.6494 155.898 23.1601C159.224 23.5702 162.497 24.3206 165.666 25.3992C168.644 26.4599 171.264 28.0706 173.885 29.6813C175.671 30.8205 177.458 31.8418 179.324 32.824C181.705 34.0257 184.356 34.607 187.027 34.5132C191.343 34.3672 195.5 32.8676 198.899 30.2313C202.869 27.2457 205.609 23.3565 207.475 18.7995C210.572 11.2569 210.969 3.43935 209.301 -4.49608C206.919 -15.535 201.082 -24.4919 192.189 -31.5236L191.315 -32.0736L190.719 -32.6236L190.6 -32.4665L191.275 -32.0343L192.03 -31.3272C194.316 -29.432 196.416 -27.3275 198.303 -25.0417C206.363 -15.0243 210.016 -3.7104 208.229 9.13557C207.573 13.8547 205.85 18.3665 203.187 22.3351C200.606 26.185 197.271 29.2491 192.943 31.1347C189.25 32.7454 185.478 33.374 181.508 32.5883C179.424 32.1328 177.426 31.3503 175.592 30.2705L170.708 27.3635C169.001 26.3324 167.192 25.4769 165.308 24.8101C161.536 23.4743 157.566 22.9243 153.595 22.4136C149.625 21.9029 146.568 21.4709 143.074 20.8816C139.19 20.2455 135.452 18.9284 132.036 16.9924L131.321 16.7568V15.2246L133.743 16.5603C137.833 18.6424 142.2 19.7031 146.727 20.3316C150.498 20.8423 154.27 21.2744 158.003 21.8244C163.283 22.6101 168.247 24.2207 172.733 27.1277C174.156 28.0668 175.627 28.9323 177.14 29.7206C179.688 31.1134 182.57 31.7924 185.478 31.6847C189.555 31.5032 193.471 30.0605 196.675 27.5599C200.844 24.3779 203.624 20.1744 205.371 15.3425C208.07 8.03561 208.15 0.571594 206.244 -6.89243C203.544 -17.3028 197.668 -25.5917 189.092 -32.0736C188.889 -32.2062 188.676 -32.3245 188.456 -32.4272L187.9 -32.9379L187.781 -32.7808L188.456 -32.4272C188.655 -32.2308 188.853 -31.9951 189.092 -31.7987C191.464 -29.8899 193.645 -27.7586 195.603 -25.4346C203.147 -16.3992 206.879 -6.06746 205.768 5.75712C205.271 11.6111 203.033 17.1883 199.335 21.7851C196.935 24.8532 193.757 27.2386 190.124 28.6991C185.32 30.624 180.515 30.624 175.83 28.3455C174.599 27.7564 173.448 27.0886 172.257 26.4206C171.066 25.7528 168.802 24.535 167.016 23.7494C163.125 22.0601 158.956 21.4709 154.747 20.8816C151.293 20.4102 147.759 19.978 144.305 19.3495C139.818 18.5638 135.569 17.071 131.758 14.4783L131.321 14.2818V12.789L132.036 13.2211C133.465 14.0461 134.855 14.9497 136.364 15.6568C140.056 17.3853 143.987 18.2495 148.037 18.8388C152.087 19.428 155.382 19.7816 159.035 20.3316C163.511 20.9505 167.816 22.4462 171.701 24.7314C173.011 25.5172 174.361 26.2243 175.671 26.9313C178.872 28.6925 182.594 29.2902 186.193 28.6206C189.188 28.0242 192.002 26.7465 194.412 24.8886C198.092 22.0536 200.897 18.2573 202.512 13.9283C205.172 7.13208 205.45 0.178753 203.743 -6.89243C201.241 -17.2635 195.405 -25.4739 186.908 -31.9165C186.764 -32.031 186.603 -32.1238 186.431 -32.1916C186.655 -31.8802 186.922 -31.6023 187.225 -31.3665C190.212 -28.916 192.892 -26.1199 195.206 -23.0383C200.963 -15.0635 203.941 -6.22459 203.107 3.67505C202.669 9.7079 200.274 15.4395 196.278 20.0173C194.443 22.1901 192.189 23.9795 189.647 25.2814C184.645 27.7564 179.562 28.0313 174.441 25.5957C173.011 24.9279 171.621 24.1814 170.232 23.4351C167.733 22.0684 165.044 21.0755 162.251 20.4887C159.631 20.0173 156.97 19.5851 154.35 19.1924C150.856 18.7209 147.362 18.3281 143.947 17.5031C139.54 16.4817 135.371 14.871 131.758 12.0426L131.321 11.8462V10.3534C131.571 10.4474 131.81 10.5658 132.036 10.7069C133.492 11.9165 135.092 12.9455 136.8 13.7712C139.707 15.1971 142.811 16.1899 146.012 16.7175C149.863 17.3853 153.715 17.896 157.566 18.446C162.688 19.1138 167.611 20.4887 172.138 23.0814C173.506 23.8565 174.925 24.5391 176.386 25.1243C178.728 26.0551 181.287 26.3139 183.771 25.8706C188.139 25.2028 191.752 23.0816 194.73 19.8995C199.137 15.2246 201.36 9.56771 201.916 3.28222C202.354 -1.61341 201.718 -6.54491 200.05 -11.1744C197.152 -19.6205 191.911 -26.3382 184.803 -31.7594L184.486 -31.9165L183.851 -32.4665L183.731 -32.3094L184.446 -31.838L185.161 -31.1309C186.908 -29.4023 188.814 -27.8309 190.442 -25.9846C196.516 -19.1098 200.13 -11.1744 200.487 -1.9426C200.792 3.51363 199.467 8.938 196.675 13.6533C194.452 17.4246 191.514 20.4887 187.543 22.4923C183.573 24.4957 180.357 24.9672 176.465 24.1029C174.411 23.574 172.436 22.7817 170.589 21.7458C167.661 20.2284 164.514 19.1683 161.259 18.6031C158.36 18.1317 155.422 17.7388 152.523 17.3068C149.275 16.9324 146.062 16.3018 142.915 15.421C138.825 14.2032 134.974 12.4355 131.797 9.48914C131.653 9.37463 131.493 9.28196 131.321 9.21415ZM195.365 -32.4665L196.04 -31.8772C209.738 -20.8383 216.289 -3.35684 213.55 13.1033C212.833 17.8377 211.159 22.3806 208.626 26.4599C205.807 30.9384 202.154 34.4739 197.191 36.5953C190.759 39.3845 184.406 39.306 178.252 35.731C176.942 34.9846 175.711 34.1597 174.441 33.374L173.686 32.9418L173.567 33.099L174.877 34.0025C177.025 35.5461 179.281 36.9376 181.627 38.1666C184.923 39.8614 188.663 40.5194 192.347 40.0523C197.225 39.445 201.783 37.3275 205.371 34.0025C208.944 30.742 211.366 26.7742 212.994 22.3351C215.972 14.3997 216.408 6.26782 214.86 -1.98188C213.121 -11.4698 208.574 -20.2336 201.797 -27.1631C199.877 -29.1813 197.717 -30.962 195.365 -32.4665Z" fill="#1C204E"/>
<path d="M260.3 -37.5342C263.435 -35.2949 265.38 -32.3876 265.935 -28.616C266.281 -26.1777 266.146 -23.6962 265.538 -21.3087C264.903 -18.5586 263.832 -16.0049 262.681 -13.4119C261.53 -10.819 260.221 -7.83318 259.11 -5.0438C258.227 -2.84637 257.692 -0.527424 257.522 1.83144C257.365 4.13139 257.717 6.43756 258.554 8.58881C259.189 10.2781 260.022 11.9282 260.816 13.539C261.61 15.1498 262.641 16.9962 263.475 18.7642C264.847 21.5418 265.397 24.6473 265.062 27.7216C264.785 30.1306 264.115 32.4791 263.078 34.6754C262.126 36.6005 261.133 38.5649 259.983 40.4113C254.109 50.0366 248.157 59.662 242.204 69.248C240.525 72.0708 238.543 74.7053 236.291 77.1054C234.401 79.1076 232.101 80.688 229.545 81.7413C226.132 83.077 222.64 82.9591 219.108 82.0555C216.489 81.3484 214.029 80.2876 211.529 79.2662C209.028 78.2447 206.687 77.2232 204.147 76.5947C201.233 75.9418 198.232 75.7562 195.258 76.0446C190.417 76.4375 185.774 77.734 181.17 79.0305C177.44 80.0912 173.749 81.1913 169.9 81.8591C157.003 84.0984 145.098 81.5449 134.224 74.316C133.961 74.2001 133.74 74.0084 133.589 73.766C133.542 73.6576 133.524 73.5387 133.538 73.4214C133.552 73.304 133.597 73.1925 133.669 73.0982C133.748 72.9802 134.105 72.941 134.304 72.9802C134.502 73.0195 134.7 73.1766 134.859 73.2946C141.138 77.6183 148.409 80.3194 156.011 81.152C161.347 81.7768 166.753 81.4305 171.964 80.1305C176.249 79.0698 180.535 77.8912 184.821 76.791C188.171 75.8462 191.596 75.189 195.06 74.8268C199.69 74.4084 204.354 75.0816 208.671 76.791L216.172 79.7769C218.361 80.6377 220.656 81.2058 222.997 81.4662C225.761 81.7297 228.537 81.1249 230.934 79.7376C233.328 78.3717 235.431 76.5568 237.125 74.3946C239.109 72.0373 240.736 69.4051 242.363 66.7729L259.11 39.5077C260.857 36.8014 262.244 33.8832 263.237 30.8253C264.393 27.2616 264.181 23.4006 262.641 19.982C261.927 18.2927 261.054 16.682 260.221 15.0712C259.387 13.4604 259.07 12.8318 258.475 11.7318C256.054 6.97803 255.736 2.06715 257.205 -3.00088C257.98 -5.52639 258.935 -7.99451 260.062 -10.3868C261.292 -13.2155 262.522 -16.0442 263.634 -18.9121C264.61 -21.4139 265.042 -24.0912 264.903 -26.7695C264.626 -31.5625 262.483 -35.1769 258.038 -37.3377C257.959 -37.3771 257.919 -37.4555 257.84 -37.5342H260.3Z" fill="#1C204E"/>
<path d="M254.053 -37.5342C255.374 -36.6561 256.562 -35.5972 257.584 -34.389C260.201 -31.2045 261.153 -27.548 260.796 -23.4592C260.439 -19.3705 259.17 -16.1858 257.782 -12.7261C256.394 -9.26636 255.323 -6.90743 254.529 -3.88014C253.736 -0.852848 253.26 2.44966 254.093 5.6342C254.498 7.21181 255.042 8.75106 255.719 10.2341C256.552 12.1213 257.584 13.9298 258.496 15.8169C259.422 17.6338 260.102 19.5638 260.519 21.5569C260.992 24.4261 260.761 27.3661 259.844 30.1277C258.986 32.7588 257.843 35.2898 256.433 37.6764C252.837 43.6784 249.215 49.6938 245.565 55.7221C243.305 59.3784 240.964 63.0347 238.624 66.6518C236.985 69.2653 235.026 71.6686 232.794 73.8072C230.85 75.6157 228.748 77.1491 226.21 78.0534C222.679 79.3901 219.07 79.3114 215.5 78.1713C213.16 77.3849 210.899 76.402 208.599 75.4977C206.298 74.5935 204.355 73.6892 202.173 72.9423C198.405 71.6842 194.479 71.5662 190.512 71.9594C185.673 72.4705 181.033 73.7679 176.313 74.9473C172.982 75.8318 169.605 76.5405 166.198 77.0705C162.424 77.5816 158.599 77.6212 154.815 77.1883C149.68 76.6217 144.678 75.1994 140.02 72.9816C137.53 71.8032 135.165 70.3808 132.96 68.7355L132.445 68.3424C132.207 68.1458 132.008 67.8706 132.286 67.6347C132.379 67.5423 132.491 67.4702 132.614 67.4228C132.737 67.3754 132.868 67.3539 133 67.3595C133.241 67.437 133.459 67.5721 133.635 67.7527C139.571 72.1173 146.534 74.9053 153.863 75.8516C159.932 76.7165 165.921 76.2054 171.87 74.7901L184.325 71.7628C187.252 71.0758 190.242 70.6807 193.249 70.5834C197.509 70.4413 201.748 71.2334 205.664 72.9029C208.202 73.9644 210.701 75.0653 213.279 76.0875C215.416 76.9727 217.676 77.5295 219.982 77.7387C223.141 77.9757 226.287 77.144 228.907 75.3798C230.904 74.1058 232.673 72.5114 234.142 70.662C235.57 68.8535 236.958 67.0057 238.228 65.0792C244.138 55.9187 249.77 46.6009 255.283 37.2046C256.608 34.9509 257.724 32.5821 258.615 30.1277C260.075 26.144 259.89 21.7497 258.099 17.9006C257.108 15.7383 255.997 13.6152 254.926 11.4922C253.855 9.36917 253.062 7.36409 252.745 5.08379C252.28 1.96867 252.497 -1.20899 253.379 -4.23397C254.172 -7.14332 255.323 -9.8954 256.433 -12.6475C257.544 -15.3995 258.734 -18.3876 259.289 -21.4149C259.765 -23.8131 259.924 -26.2506 259.249 -28.6095C258.059 -32.6591 255.6 -35.6471 251.634 -37.3769C251.555 -37.3769 251.475 -37.4555 251.396 -37.5342H254.053Z" fill="#1C204E"/>
<path d="M131.321 61.4794C131.653 61.6527 131.971 61.8497 132.274 62.069C137.752 66.4713 143.984 69.1049 150.891 70.3233C156.965 71.4239 163.038 71.1095 169.032 69.8517C173.16 69.0262 177.249 68.0828 181.377 67.2181C184.522 66.5653 187.731 66.2621 190.944 66.314C194.977 66.3782 198.952 67.275 202.615 68.9476C205.036 70.0088 207.418 71.1095 209.839 72.1314C211.667 72.9179 213.587 73.4725 215.556 73.7823C218.661 74.2651 221.84 73.7266 224.606 72.2494C226.824 71.0898 228.803 69.5301 230.441 67.6505C231.983 65.8949 233.427 64.0579 234.768 62.1476C240.961 53.0677 246.558 43.634 251.877 34.0039C253.03 31.9401 253.935 29.7503 254.576 27.4791C255.602 24.1776 255.462 20.6288 254.179 17.4165C253.465 15.5298 252.552 13.7217 251.758 11.8743C250.862 10.0096 250.08 8.0932 249.416 6.13553C248.305 2.71585 248.543 -0.74313 249.257 -4.20213C249.972 -7.66111 251.083 -10.4126 252.115 -13.4785C253.033 -15.9298 253.737 -18.4547 254.219 -21.0254C255.45 -28.1399 252.155 -33.3284 247.392 -36.2764C246.637 -36.748 245.764 -37.1019 244.97 -37.5342H247.828C248.898 -36.8008 249.919 -35.9998 250.885 -35.1365C254.696 -31.3631 256.204 -26.8035 255.529 -21.4971C255.093 -18.156 253.941 -15.0114 252.869 -11.8669C251.87 -9.25122 251.048 -6.57243 250.408 -3.84836C249.456 0.436066 249.734 4.64189 251.599 8.65117L254.219 14.2327C255.104 16.0762 255.77 18.0151 256.204 20.0108C256.72 22.9195 256.363 25.7495 255.529 28.5403C254.681 31.1495 253.563 33.6653 252.195 36.0479C247.312 44.6561 242.271 53.1857 236.753 61.4794C235.087 64.0787 233.173 66.5139 231.037 68.751C230.014 69.7895 228.913 70.7487 227.742 71.6205C223.137 75.1187 217.977 76.1014 212.42 74.3718C210.316 73.7036 208.291 72.7997 206.227 71.9349C204.163 71.0702 201.622 69.8517 199.241 68.9476C195.469 67.5325 191.5 67.2968 187.451 67.6112C183.402 67.9257 178.4 69.0262 173.915 70.0481C170.346 70.9188 166.727 71.5751 163.078 72.0135C158.865 72.4202 154.615 72.235 150.454 71.4632C143.96 70.3653 137.823 67.7513 132.552 63.8377L131.321 62.9729V61.4794Z" fill="#1C204E"/>
<path d="M131.321 56.9566C131.55 57.0421 131.764 57.1614 131.956 57.3103C136.758 61.2017 142.275 63.5994 148.347 64.8964C154.42 66.1935 160.254 65.9969 166.207 64.975C170.335 64.2281 174.422 63.4028 178.55 62.6953C182.226 62.0151 185.979 61.8432 189.702 62.1843C192.923 62.5288 196.062 63.4057 198.99 64.7784L205.895 68.0016C207.966 68.951 210.155 69.6251 212.404 70.0061C215.375 70.4412 218.41 69.9609 221.096 68.6305C224.119 67.1351 226.764 64.9858 228.835 62.3416C230.581 60.1798 232.288 57.9392 233.836 55.6202C238.915 48.0272 243.553 40.1532 247.727 32.0369C249.026 29.6164 249.962 27.021 250.505 24.3329C251.07 21.6764 250.892 18.9173 249.989 16.3539C249.314 14.4672 248.481 12.6199 247.687 10.7725C246.893 8.92514 245.901 6.76332 245.345 4.60151C244.552 1.45705 244.671 -1.72672 245.226 -4.91047C245.782 -8.09423 246.854 -11.1208 247.727 -14.1866C248.458 -16.6214 248.937 -19.1238 249.155 -21.6547C249.552 -27.7077 246.933 -32.2279 242.051 -35.6082C240.9 -36.3943 239.551 -36.9053 238.281 -37.5342H241.337C243.357 -36.4036 245.158 -34.9264 246.655 -33.1713C248.043 -31.5314 249.085 -29.6325 249.719 -27.5869C250.353 -25.5412 250.566 -23.3903 250.346 -21.2616C250.068 -18.0779 249.155 -15.012 248.282 -11.9855C247.409 -8.95896 246.615 -6.32548 246.218 -3.37755C245.822 -0.429626 245.98 3.54025 247.33 6.80262C248.044 8.57138 248.838 10.3401 249.632 12.0696C250.6 14.1136 251.319 16.2643 251.775 18.4764C252.33 21.5816 251.894 24.5688 250.941 27.5166C250.118 29.9528 249.068 32.3082 247.806 34.5524C243.321 42.846 238.598 51.0214 233.161 58.804C231.018 61.8699 228.597 64.7784 225.62 67.1368C222.644 69.4951 220.381 70.5957 217.167 71.146C214.553 71.5746 211.874 71.3861 209.348 70.5957C206.649 69.8097 204.189 68.5912 201.649 67.3727C200.021 66.6258 198.394 65.8398 196.727 65.1716C192.758 63.5208 188.631 63.0098 184.344 63.2455C180.058 63.4814 176.01 64.3068 171.882 65.1323C167.755 65.9576 164.54 66.6258 160.809 66.8617C150.292 67.5299 140.568 65.2502 132.035 58.922L131.321 58.4502V56.9566Z" fill="#1C204E"/>
<path d="M131.321 52.5542L131.995 52.8291C137.272 56.9544 143.343 59.1939 149.969 60.1368C154.436 60.7329 158.967 60.6801 163.419 59.9797C167.545 59.3903 171.631 58.6831 175.718 58.1331C179.805 57.5831 184.685 57.3866 189.168 58.4081C192.077 59.1345 194.887 60.2029 197.539 61.5905C200.039 62.8084 202.578 63.9871 205.117 65.0871C206.906 65.8246 208.815 66.2371 210.751 66.305C213.925 66.4623 216.822 65.5586 219.52 63.9871C221.924 62.5079 224.09 60.6803 225.947 58.5653C227.979 56.2039 229.848 53.7099 231.541 51.1005C235.884 44.5272 239.807 37.6908 243.285 30.6312C244.579 28.1543 245.514 25.509 246.063 22.7735C246.631 20.0528 246.453 17.231 245.547 14.6016C244.793 12.48 243.92 10.437 243.087 8.35467C242.254 6.27238 241.341 3.87579 241.064 1.43991C240.758 -0.93821 240.812 -3.34801 241.222 -5.71058C241.817 -9.05008 242.611 -12.3896 243.285 -15.7684C243.577 -17.2755 243.789 -18.7968 243.92 -20.3258C244.317 -26.2191 241.897 -30.8551 237.334 -34.509C235.751 -35.774 233.95 -36.7457 232.017 -37.3771C231.938 -37.3771 231.859 -37.4555 231.779 -37.5342H235.033C235.267 -37.3291 235.519 -37.145 235.787 -36.9842C239.163 -35.0654 241.885 -32.1927 243.603 -28.7336C245.19 -25.6298 245.507 -22.2903 244.991 -18.9114C244.476 -15.5327 243.682 -12.586 243.127 -9.40369C242.73 -7.24282 242.333 -5.08196 242.135 -2.88181C241.874 0.326115 242.405 3.54874 243.682 6.50812C244.476 8.55112 245.348 10.5548 246.142 12.6371C247.228 15.1938 247.717 17.9606 247.57 20.7305C247.349 23.0727 246.802 25.3732 245.944 27.5666C244.667 30.7562 243.169 33.8543 241.46 36.8387C238.176 43.0016 234.533 48.9703 230.549 54.715C228.447 57.6224 226.185 60.4118 223.368 62.6905C221.303 64.4614 218.921 65.8339 216.346 66.7372C212.537 67.9945 208.768 67.6802 205.038 66.3836C202.42 65.4801 199.96 64.1835 197.46 62.9262C194.961 61.669 192.183 60.3332 189.287 59.6653C186.663 59.0506 183.967 58.7864 181.273 58.8795C177.067 58.9975 172.901 59.7046 168.735 60.3725C164.569 61.0405 160.681 61.7476 156.555 61.7476C147.628 61.7869 139.336 59.6653 131.995 54.3614L131.321 54.0864V52.5542Z" fill="#1C204E"/>
<path d="M131.321 48.0935L131.956 48.4865C136.359 51.789 141.358 53.6761 146.714 54.6983C151.201 55.5294 155.79 55.6753 160.321 55.1307C163.971 54.6983 167.621 54.2265 171.271 53.8334C174.921 53.4402 178.293 53.2043 181.784 53.5975C185.447 53.979 189.009 55.0181 192.297 56.664C194.598 57.8435 196.899 59.0623 199.24 60.2024C201.379 61.3046 203.683 62.061 206.063 62.4434C208.834 62.8636 211.668 62.4956 214.236 61.3819C217.568 60.0451 220.305 57.8435 222.765 55.2487C225.052 52.7246 227.122 50.0155 228.954 47.1499C232.885 41.2053 236.334 34.9607 239.269 28.4754C240.007 26.8428 240.63 25.1613 241.133 23.4431C242.318 19.789 242.248 15.8491 240.935 12.2383C240.181 10.076 239.388 7.95303 238.555 5.79072C237.007 1.70198 236.69 -2.5047 237.206 -6.82933C237.602 -9.85656 238.118 -12.9231 238.515 -15.9503C238.912 -18.9776 239.031 -21.4151 238.356 -24.0886C237.523 -27.509 235.698 -30.3002 233.159 -32.6984C231.02 -34.8212 228.412 -36.4227 225.542 -37.3769L225.304 -37.5342H228.557L229.311 -37.0231C231.991 -35.5572 234.34 -33.5636 236.214 -31.1651C238.852 -27.865 240.204 -23.7343 240.022 -19.528C239.943 -16.8546 239.467 -14.2598 239.11 -11.665C238.753 -9.07028 238.436 -6.67207 238.237 -4.15592C237.959 -0.735535 238.634 2.5669 239.824 5.79072C240.538 7.63852 241.213 9.447 241.887 11.2555C243.633 15.8946 243.553 20.4944 241.927 25.0943C240.832 28.0813 239.546 30.9965 238.078 33.8221C235.12 39.7321 231.712 45.4098 227.883 50.8061C225.78 53.7547 223.519 56.5461 220.702 58.7871C219.566 59.7054 218.359 60.5336 217.092 61.2639C212.133 64.1732 206.896 64.645 201.501 62.522C199.557 61.7357 197.692 60.7921 195.828 59.8879C193.963 58.9836 191.9 57.8435 189.877 56.9392C186.868 55.5747 183.622 54.8003 180.316 54.659C176.785 54.4624 173.294 54.7769 169.803 55.1701C166.312 55.5632 162.265 56.1923 158.496 56.4675C150.126 57.1358 142.112 55.7991 134.693 51.7103C133.543 51.042 132.432 50.295 131.321 49.5873V48.0935Z" fill="#1C204E"/>
<path d="M131.321 43.7184L131.995 44.072C136.12 46.9795 140.761 48.6297 145.718 49.5334C150.676 50.4371 154.603 50.3584 159.045 50.0049C163.487 49.6512 168.128 49.219 172.689 49.0225C177.099 48.7318 181.519 49.4302 185.619 51.0657C187.443 51.8123 189.189 52.7551 190.934 53.6195C192.679 54.4839 195.217 55.9377 197.399 56.9592C199.618 58.0742 202.052 58.7039 204.538 58.8058C207.856 58.8402 211.116 57.9409 213.938 56.2127C217.23 54.3268 219.887 51.6943 222.267 48.7868C225.876 44.3471 228.772 39.5143 231.35 34.4458C233.053 31.2962 234.55 28.0416 235.832 24.7018C236.647 22.6443 237.193 20.4921 237.458 18.2975C237.706 15.6984 237.409 13.0765 236.585 10.5966C235.99 8.71063 235.356 6.86398 234.681 4.97804C233.47 1.5612 232.919 -2.05082 233.055 -5.66966C233.174 -8.34141 233.373 -10.9739 233.571 -13.6456C233.769 -16.3173 233.928 -18.6747 233.61 -21.1501C233.132 -24.3777 231.759 -27.4108 229.644 -29.9119C226.971 -33.2032 223.469 -35.7376 219.491 -37.2591L219.015 -37.5342H222.069C223.417 -36.6305 224.845 -35.8447 226.194 -34.9017C228.158 -33.4595 229.885 -31.7229 231.31 -29.7547C233.967 -26.1792 235.078 -22.0931 234.959 -17.7318C234.88 -15.2565 234.681 -12.8205 234.483 -10.3845C234.245 -7.00554 234.047 -3.62656 234.602 -0.247585C234.967 1.78641 235.511 3.78478 236.228 5.72456C236.744 7.21759 237.26 8.71063 237.735 10.2037C239.084 14.3284 239.084 18.7698 237.735 22.8945C236.617 26.2688 235.238 29.5528 233.61 32.717C230.926 38.3264 227.684 43.6568 223.933 48.6297C221.553 51.6943 218.935 54.4839 215.644 56.5664C213.315 58.1098 210.699 59.1783 207.949 59.7095C204.916 60.2865 201.781 60.0003 198.906 58.8844C197.042 58.138 195.257 57.2736 193.472 56.4092L188.276 53.6195C183.914 51.2228 179.194 50.2013 174.236 50.162C170.789 50.1745 167.346 50.3843 163.924 50.7906C159.918 51.1835 155.912 51.5765 151.866 51.4192C144.727 51.105 137.984 49.4156 131.916 45.4865L131.321 45.2114V43.7184Z" fill="#1C204E"/>
<path d="M131.321 39.3373L131.996 39.7302C136.243 42.362 140.926 43.8546 145.848 44.6402C150.769 45.4258 154.699 45.1902 159.144 44.9151C163.589 44.6402 167.558 44.4046 171.766 44.6402C176.568 44.9151 181.133 45.9757 185.3 48.3325L191.016 51.5143C192.475 52.3414 193.987 53.0762 195.54 53.7139C200.144 55.5994 204.709 55.4031 209.194 53.3998C212.258 51.9964 215.02 50.0227 217.33 47.5862C220.204 44.5708 222.696 41.2204 224.752 37.609C227.644 32.7375 230.038 27.5924 231.897 22.2505C232.932 19.3684 233.364 16.3079 233.167 13.2553C232.962 11.2513 232.536 9.27559 231.897 7.36321C231.46 5.83128 230.984 4.29934 230.508 2.76741C229.558 -0.555462 229.077 -3.99227 229.079 -7.44547C229.079 -10.2344 229.079 -13.0233 228.96 -15.8121C228.921 -17.4712 228.762 -19.1251 228.483 -20.7614C227.769 -24.6109 225.745 -27.7534 223.086 -30.5423C220.283 -33.5186 216.837 -35.8284 213.004 -37.2986L212.607 -37.5342H215.624C217.472 -36.5653 219.238 -35.4487 220.903 -34.1954C223.681 -32.0335 226 -29.3505 227.729 -26.3001C229.167 -23.6605 229.981 -20.7327 230.111 -17.7369C230.23 -14.6731 230.27 -11.6485 230.27 -8.58459C230.21 -4.11807 230.894 0.327686 232.294 4.57432C233.009 6.71373 233.606 8.89054 234.08 11.0948C234.834 14.5908 234.397 18.0082 233.405 21.4256C232.29 25.0588 230.869 28.5932 229.158 31.992C226.459 37.4519 223.324 42.6369 219.275 47.2327C216.338 50.5716 212.925 53.2819 208.717 54.8924C204.51 56.5028 199.589 56.6993 195.104 54.8138C193.079 53.9497 191.174 52.9283 189.229 51.9071C187.285 50.8858 185.975 50.1002 184.348 49.1968C180.259 46.9577 175.854 45.9757 171.21 45.7794C167.53 45.6746 163.846 45.7664 160.176 46.0543C156.128 46.3293 152.079 46.5257 148.031 46.1328C142.395 45.5436 137.076 44.0904 132.194 41.2228C131.91 41.0883 131.619 40.9702 131.321 40.8692V39.3373Z" fill="#1C204E"/>
<path d="M131.321 35.0242L131.916 35.2992C136.321 37.8133 141.122 39.1491 146.122 39.7776C150.327 40.2883 154.573 40.1312 158.779 40.0527C162.985 39.974 166.517 39.974 170.366 40.4847C174.467 40.9387 178.427 42.2366 181.992 44.2954C184.015 45.4346 185.96 46.6524 187.944 47.8309C189.928 49.0095 192.467 50.2273 195.007 50.8166C199.133 51.7987 203.101 51.1702 206.91 49.4024C210.366 47.7264 213.433 45.3587 215.918 42.449C219.095 38.7561 221.739 34.6444 223.774 30.2316C225.389 26.9273 226.73 23.4983 227.782 19.9783C229.085 15.362 229.057 10.4768 227.702 5.87516C227.028 3.43952 226.353 1.00388 225.877 -1.43176C225.401 -3.8674 225.242 -6.18518 224.965 -8.54225C224.568 -11.7243 224.29 -14.9064 223.814 -18.0884C223.219 -22.331 221.155 -25.9453 218.298 -29.1273C215.143 -32.6388 211.221 -35.3928 206.831 -37.1806C206.637 -37.2845 206.451 -37.4027 206.276 -37.5342H209.331L210.164 -36.9842C213.927 -34.9866 217.257 -32.2772 219.965 -29.0094C222.938 -25.494 224.801 -21.1906 225.322 -16.6349C225.679 -13.6492 225.996 -10.6636 226.234 -7.67799C226.567 -3.95778 227.244 -0.27573 228.258 3.32167C228.813 5.32518 229.29 7.36796 229.686 9.37148C230.298 12.76 230.108 16.2427 229.131 19.5461C226.631 28.228 222.782 36.2028 216.91 43.1561C214.864 45.609 212.408 47.6953 209.648 49.3238C203.022 53.1736 196.276 53.6058 189.412 49.9523L183.857 46.8095C182.428 45.9846 181 45.1597 179.571 44.4132C176.079 42.6061 172.35 41.7812 168.461 41.4276C163.818 41.0347 159.216 41.2705 154.573 41.3098C148.859 41.349 143.225 40.9954 137.789 39.1491C135.884 38.5206 134.059 37.6171 132.194 36.8313L131.321 36.5564V35.0242Z" fill="#1C204E"/>
<path d="M131.321 30.6918C131.6 30.7554 131.868 30.8614 132.115 31.0061C135.957 32.8873 140.088 34.1218 144.34 34.659C148.23 35.1695 152.159 35.1695 156.089 35.2875C159.447 35.3129 162.8 35.536 166.131 35.9551C170.497 36.5443 174.625 37.762 178.396 40.0401L184.786 43.9679C186.941 45.3492 189.297 46.3958 191.772 47.0709C195.9 48.0528 199.869 47.5029 203.759 45.8532C207.649 44.2035 211.419 41.1006 214.238 37.5262C217.77 33.1271 220.231 28.1388 222.136 22.8755C223.177 20.046 223.883 17.1068 224.24 14.1165C224.565 11.1105 224.39 8.07218 223.724 5.12184C222.97 1.58681 222.176 -1.94823 221.462 -5.52254C220.866 -8.46839 220.39 -11.4142 219.834 -14.3209C219.556 -15.6562 219.159 -16.9917 218.762 -18.3272C217.334 -23.2369 214.396 -27.1647 210.665 -30.6212C207.608 -33.416 204.091 -35.6742 200.266 -37.2986L199.829 -37.5342H202.886C203.162 -37.3283 203.453 -37.1443 203.759 -36.9843C209.038 -34.1169 213.483 -30.3071 216.817 -25.3187C218.887 -22.1447 220.29 -18.5919 220.946 -14.8708C221.7 -11.1 222.335 -7.32933 223.089 -3.55863C223.605 -0.926998 224.16 1.70463 224.796 4.33627C226.264 10.3458 225.669 16.2375 223.684 22.0114C222.046 27.0661 219.694 31.8662 216.698 36.2694C214.158 39.8829 211.181 43.0251 207.371 45.3034C203.56 47.5814 199.71 48.8776 195.304 48.7598C192.5 48.6886 189.753 47.9617 187.287 46.6388C185.223 45.5783 183.198 44.3606 181.214 43.1431C179.229 41.9254 176.649 40.3543 174.149 39.2938C170.987 37.9908 167.639 37.1824 164.226 36.8979C159.661 36.4265 155.097 36.505 150.532 36.3479C145.015 36.1123 139.577 35.366 134.377 33.3235L131.321 31.988V30.6918Z" fill="#1C204E"/>
<path d="M177.839 37.6499C177.868 37.7309 177.924 37.7999 177.997 37.8464C180.337 39.4176 182.677 40.9888 185.254 42.1673C190.529 44.5635 195.803 44.3277 201.077 42.0887C205.321 40.2818 208.731 37.375 211.507 33.7612C215.076 29.0866 217.337 23.8229 218.804 18.2451C220.189 12.8043 220.311 7.12333 219.161 1.62914C218.13 -3.43812 217.02 -8.5054 215.513 -13.4548C212.062 -24.5714 204.607 -32.1134 194.256 -37.1413L193.503 -37.5342H196.358L197.231 -36.9842C203.198 -33.7958 208.299 -29.2276 212.102 -23.6679C214.442 -20.2505 215.909 -16.4402 217.059 -12.5121C218.709 -6.90849 219.967 -1.19928 220.827 4.57523C221.62 9.76034 221.065 14.9062 219.597 19.9342C217.892 25.6692 215.433 30.9721 211.547 35.6073C208.176 39.614 204.091 42.5994 198.976 44.1313C193.86 45.6633 188.942 45.3491 184.223 42.9529C182.201 41.9316 180.258 40.7139 178.314 39.5354C176.371 38.3571 175.34 37.6106 173.833 36.7072C170.145 34.4682 166.06 33.2112 161.817 32.5827C158.327 32.0328 154.838 31.8364 151.308 31.6006C146.47 31.3257 141.632 30.9329 136.952 29.558C135.366 29.0866 133.819 28.4581 132.233 27.9083L131.321 27.6725V26.3371L132.233 26.612C133.502 27.0834 134.811 27.6332 136.12 28.0654C140.601 29.5187 145.28 29.9509 149.92 30.3045C153.489 30.5794 157.058 30.8543 160.628 31.2472C166.395 31.7666 171.928 33.756 176.688 37.0214L177.442 37.2964L177.839 37.6499Z" fill="#1C204E"/>
<path d="M287.797 45.2401C288.015 45.3514 288.163 45.5738 288.175 45.8314V47.008C288.157 47.3767 287.862 47.6695 287.495 47.687H283.318V43.5952H287.188C287.56 43.6127 287.856 43.9055 287.873 44.2742V44.9592C287.867 45.0586 287.844 45.1523 287.797 45.2401ZM287.164 44.0752H283.803V45.1523H287.164C287.223 45.1523 287.277 45.1289 287.318 45.0879C287.359 45.047 287.383 44.9942 287.389 44.9358V44.2977C287.383 44.239 287.359 44.1864 287.318 44.1455C287.277 44.1044 287.223 44.0811 287.164 44.0752ZM287.69 46.9904V45.8548C287.69 45.7962 287.667 45.7436 287.625 45.7026C287.584 45.6616 287.525 45.6382 287.466 45.6382L283.803 45.644V47.207H287.472C287.525 47.207 287.584 47.1836 287.625 47.1426C287.667 47.1016 287.69 47.0432 287.69 46.9904ZM294.177 45.3982V43.5952H294.668V45.843C294.662 46.1708 294.65 46.6567 294.632 46.9729C294.614 47.3416 294.313 47.6344 293.947 47.6519C293.35 47.6753 292.753 47.687 292.162 47.687C291.566 47.687 291.093 47.6753 290.496 47.6519C290.13 47.6344 289.829 47.3416 289.811 46.9729C289.805 46.8441 289.799 46.7211 289.799 46.5923H290.284C290.29 46.7095 290.29 46.8264 290.295 46.9495C290.301 47.008 290.325 47.0607 290.366 47.1016C290.408 47.1426 290.461 47.166 290.52 47.166C291.105 47.1953 291.577 47.207 292.162 47.207C292.747 47.207 293.338 47.1953 293.923 47.166C293.982 47.166 294.035 47.1426 294.077 47.1016C294.118 47.0607 294.142 47.008 294.148 46.9495C294.159 46.6919 294.171 46.2236 294.177 45.884H290.491C290.118 45.8664 289.823 45.5738 289.805 45.2049V43.5952H290.29V45.1815C290.295 45.2401 290.319 45.2927 290.36 45.3337C290.402 45.3748 290.455 45.3982 290.514 45.3982H294.177ZM307.342 43.5952H307.879L305.983 47.687H305.357L303.732 44.1747L302.101 47.687H301.475L299.584 43.5952H300.116L301.788 47.207L303.46 43.5952H303.732H303.998L305.67 47.207L307.342 43.5952ZM311.685 43.999C311.1 43.999 310.503 44.0166 309.918 44.04C309.865 44.0459 309.806 44.0693 309.764 44.1103C309.723 44.1512 309.699 44.204 309.699 44.2625C309.652 45.1758 309.652 46.1064 309.699 47.0255C309.699 47.0782 309.723 47.1367 309.764 47.1777C309.806 47.2188 309.865 47.2422 309.918 47.2422C310.503 47.2714 311.1 47.2832 311.685 47.2832C312.27 47.2832 312.86 47.2714 313.445 47.2422C313.504 47.2422 313.558 47.2188 313.599 47.1777C313.64 47.1367 313.664 47.0782 313.67 47.0255C313.717 46.1064 313.717 45.1758 313.67 44.2625C313.664 44.204 313.64 44.1512 313.599 44.1103C313.558 44.0693 313.504 44.0459 313.445 44.04C312.86 44.0166 312.27 43.999 311.685 43.999ZM309.9 43.56C310.491 43.5308 311.088 43.519 311.685 43.519C312.275 43.519 312.872 43.5308 313.469 43.56C313.841 43.5775 314.137 43.8703 314.154 44.239C314.202 45.1758 314.202 46.1123 314.154 47.0489C314.137 47.4119 313.841 47.7104 313.469 47.7222C312.872 47.7514 312.275 47.7632 311.685 47.7632C311.088 47.7632 310.491 47.7514 309.9 47.7222C309.528 47.7104 309.233 47.4119 309.215 47.0489C309.162 46.1123 309.162 45.1758 309.215 44.239C309.233 43.8703 309.528 43.5775 309.9 43.56ZM315.952 43.5952H319.822C320.194 43.6127 320.489 43.9055 320.507 44.2742V45.4508C320.489 45.8196 320.188 46.1123 319.822 46.1299H318.498L320.808 47.687H319.946L317.636 46.1299H316.436V47.687H315.952V43.5952ZM319.798 44.0752H316.436V45.644L319.798 45.6499C319.857 45.644 319.91 45.6206 319.952 45.5796C319.993 45.5386 320.017 45.486 320.022 45.4274L320.017 44.2977C320.017 44.239 319.993 44.1864 319.952 44.1455C319.91 44.1044 319.857 44.0811 319.798 44.0752ZM325.67 47.207V47.687H322.273V43.5952H322.757V47.207H325.67ZM327.12 47.6929V44.0752H326.819V43.5952H331.297C331.663 43.6127 331.964 43.9055 331.982 44.2742V47.0138C331.964 47.3826 331.663 47.6753 331.297 47.6929H327.12ZM331.498 46.9904V44.2977C331.492 44.239 331.468 44.1864 331.427 44.1455C331.386 44.1044 331.332 44.0811 331.273 44.0752H327.604V47.207H331.273C331.332 47.207 331.386 47.1836 331.427 47.1426C331.468 47.1016 331.492 47.0489 331.498 46.9904ZM337.856 45.884H334.387C334.015 45.8664 333.72 45.5738 333.702 45.2049V44.6137C333.702 44.4908 333.708 44.3621 333.714 44.2333C333.732 43.8703 334.033 43.5775 334.399 43.56C334.996 43.5308 335.534 43.519 336.13 43.519C336.727 43.519 337.265 43.5308 337.861 43.56C338.228 43.5775 338.529 43.8703 338.547 44.2333C338.553 44.3621 338.558 44.4908 338.558 44.6137H338.074C338.069 44.4967 338.069 44.3796 338.062 44.2625C338.056 44.204 338.033 44.1455 337.991 44.1044C337.95 44.0634 337.897 44.04 337.838 44.04C337.253 44.0108 336.715 43.999 336.13 43.999C335.545 43.999 335.008 44.0108 334.423 44.04C334.364 44.04 334.311 44.0634 334.269 44.1044C334.228 44.1455 334.204 44.204 334.204 44.2625C334.198 44.3796 334.192 44.4967 334.187 44.6137V45.1815C334.187 45.2401 334.21 45.2927 334.252 45.3337C334.293 45.3748 334.352 45.3982 334.411 45.404H337.874C338.246 45.4158 338.542 45.7143 338.558 46.0773V46.6685C338.558 46.7973 338.553 46.9201 338.547 47.0489C338.529 47.4178 338.228 47.7104 337.861 47.7279C337.265 47.7514 336.727 47.769 336.13 47.769C335.534 47.769 334.996 47.7514 334.399 47.7279C334.033 47.7104 333.732 47.4178 333.714 47.0489C333.708 46.9201 333.702 46.7973 333.702 46.6685H334.187C334.192 46.7855 334.192 46.9085 334.198 47.0255C334.204 47.0841 334.228 47.1367 334.269 47.1777C334.311 47.2188 334.364 47.2422 334.423 47.2422C335.008 47.2714 335.545 47.2832 336.13 47.2832C336.715 47.2832 337.253 47.2714 337.838 47.2422C337.897 47.2422 337.95 47.2188 337.991 47.1777C338.033 47.1367 338.056 47.0841 338.056 47.0255C338.062 46.9085 338.069 46.7855 338.074 46.6685V46.1007C338.074 46.0479 338.051 45.9895 338.009 45.9484C337.968 45.9074 337.908 45.884 337.856 45.884ZM340.787 47.687H340.303V43.5952H344.189V44.0752H340.787V45.404H343.882V45.884H340.787V47.687ZM349.07 47.687L348.662 46.8089H345.685L345.277 47.687H344.745L346.636 43.5952H347.711L349.602 47.687H349.07ZM345.909 46.323H348.438L347.398 44.0752H346.949L345.909 46.323ZM355.059 45.884H351.592C351.22 45.8664 350.924 45.5738 350.906 45.2049V44.6137C350.906 44.4908 350.913 44.3621 350.918 44.2333C350.936 43.8703 351.238 43.5775 351.604 43.56C352.2 43.5308 352.738 43.519 353.335 43.519C353.931 43.519 354.469 43.5308 355.066 43.56C355.432 43.5775 355.734 43.8703 355.75 44.2333C355.757 44.3621 355.763 44.4908 355.763 44.6137H355.279C355.272 44.4967 355.272 44.3796 355.267 44.2625C355.261 44.204 355.238 44.1455 355.196 44.1044C355.155 44.0634 355.101 44.04 355.043 44.04C354.458 44.0108 353.92 43.999 353.335 43.999C352.75 43.999 352.212 44.0108 351.628 44.04C351.568 44.04 351.514 44.0634 351.474 44.1044C351.433 44.1455 351.409 44.204 351.409 44.2625C351.402 44.3796 351.397 44.4967 351.391 44.6137V45.1815C351.391 45.2401 351.415 45.2927 351.456 45.3337C351.498 45.3748 351.556 45.3982 351.615 45.404H355.077C355.449 45.4158 355.745 45.7143 355.763 46.0773V46.6685C355.763 46.7973 355.757 46.9201 355.75 47.0489C355.734 47.4178 355.432 47.7104 355.066 47.7279C354.469 47.7514 353.931 47.769 353.335 47.769C352.738 47.769 352.2 47.7514 351.604 47.7279C351.238 47.7104 350.936 47.4178 350.918 47.0489C350.913 46.9201 350.906 46.7973 350.906 46.6685H351.391C351.397 46.7855 351.397 46.9085 351.402 47.0255C351.409 47.0841 351.433 47.1367 351.474 47.1777C351.514 47.2188 351.568 47.2422 351.628 47.2422C352.212 47.2714 352.75 47.2832 353.335 47.2832C353.92 47.2832 354.458 47.2714 355.043 47.2422C355.101 47.2422 355.155 47.2188 355.196 47.1777C355.238 47.1367 355.261 47.0841 355.261 47.0255C355.267 46.9085 355.272 46.7855 355.279 46.6685V46.1007C355.279 46.0479 355.254 45.9895 355.214 45.9484C355.173 45.9074 355.113 45.884 355.059 45.884ZM361.015 43.5952V44.0752H359.315V47.687H358.824V44.0752H357.129V43.5952H361.015ZM366.353 44.0752H362.951V45.404H366.353V45.884H362.951V47.207H366.353V47.687H362.466V43.5952H366.353V44.0752ZM372.097 45.884H368.629C368.256 45.8664 367.961 45.5738 367.943 45.2049V44.6137C367.943 44.4908 367.949 44.3621 367.954 44.2333C367.972 43.8703 368.274 43.5775 368.64 43.56C369.237 43.5308 369.775 43.519 370.371 43.519C370.968 43.519 371.506 43.5308 372.102 43.56C372.469 43.5775 372.77 43.8703 372.788 44.2333C372.793 44.3621 372.8 44.4908 372.8 44.6137H372.315C372.31 44.4967 372.31 44.3796 372.304 44.2625C372.297 44.204 372.274 44.1455 372.232 44.1044C372.191 44.0634 372.138 44.04 372.079 44.04C371.494 44.0108 370.956 43.999 370.371 43.999C369.786 43.999 369.249 44.0108 368.664 44.04C368.604 44.04 368.552 44.0634 368.51 44.1044C368.469 44.1455 368.445 44.204 368.445 44.2625C368.44 44.3796 368.434 44.4967 368.427 44.6137V45.1815C368.427 45.2401 368.451 45.2927 368.492 45.3337C368.534 45.3748 368.593 45.3982 368.653 45.404H372.115C372.487 45.4158 372.782 45.7143 372.8 46.0773V46.6685C372.8 46.7973 372.793 46.9201 372.788 47.0489C372.77 47.4178 372.469 47.7104 372.102 47.7279C371.506 47.7514 370.968 47.769 370.371 47.769C369.775 47.769 369.237 47.7514 368.64 47.7279C368.274 47.7104 367.972 47.4178 367.954 47.0489C367.949 46.9201 367.943 46.7973 367.943 46.6685H368.427C368.434 46.7855 368.434 46.9085 368.44 47.0255C368.445 47.0841 368.469 47.1367 368.51 47.1777C368.552 47.2188 368.604 47.2422 368.664 47.2422C369.249 47.2714 369.786 47.2832 370.371 47.2832C370.956 47.2832 371.494 47.2714 372.079 47.2422C372.138 47.2422 372.191 47.2188 372.232 47.1777C372.274 47.1367 372.297 47.0841 372.297 47.0255C372.304 46.9085 372.31 46.7855 372.315 46.6685V46.1007C372.315 46.0479 372.292 45.9895 372.25 45.9484C372.209 45.9074 372.149 45.884 372.097 45.884ZM378.053 43.5952V44.0752H376.351V47.687H375.861V44.0752H374.165V43.5952H378.053ZM379.196 47.207H379.68V47.687H379.196V47.207ZM385.651 47.0255C385.658 46.9026 385.664 46.7855 385.664 46.6685H386.155C386.148 46.7914 386.142 46.9201 386.137 47.0489C386.119 47.4119 385.823 47.7104 385.451 47.7222C384.854 47.7514 384.258 47.7632 383.666 47.7632C383.07 47.7632 382.473 47.7514 381.882 47.7222C381.511 47.7104 381.215 47.4119 381.197 47.0489C381.144 46.1123 381.144 45.1758 381.197 44.239C381.215 43.8703 381.511 43.5775 381.882 43.56C382.473 43.5308 383.07 43.519 383.666 43.519C384.258 43.519 384.854 43.5308 385.451 43.56C385.823 43.5775 386.119 43.8703 386.137 44.239C386.142 44.3621 386.148 44.4908 386.155 44.6196H385.664C385.664 44.4967 385.658 44.3796 385.651 44.2625C385.646 44.204 385.622 44.1512 385.581 44.1103C385.539 44.0693 385.487 44.0459 385.427 44.04C384.843 44.0166 384.252 43.999 383.666 43.999C383.081 43.999 382.485 44.0166 381.9 44.04C381.847 44.0459 381.788 44.0693 381.747 44.1103C381.706 44.1512 381.682 44.204 381.682 44.2625C381.634 45.1758 381.634 46.1064 381.682 47.0255C381.682 47.0782 381.706 47.1367 381.747 47.1777C381.788 47.2188 381.847 47.2422 381.9 47.2422C382.485 47.2714 383.081 47.2832 383.666 47.2832C384.252 47.2832 384.843 47.2714 385.427 47.2422C385.487 47.2422 385.539 47.2188 385.581 47.1777C385.622 47.1367 385.646 47.0782 385.651 47.0255ZM390.26 43.999C389.675 43.999 389.077 44.0166 388.493 44.04C388.44 44.0459 388.381 44.0693 388.339 44.1103C388.298 44.1512 388.274 44.204 388.274 44.2625C388.227 45.1758 388.227 46.1064 388.274 47.0255C388.274 47.0782 388.298 47.1367 388.339 47.1777C388.381 47.2188 388.44 47.2422 388.493 47.2422C389.077 47.2714 389.675 47.2832 390.26 47.2832C390.844 47.2832 391.435 47.2714 392.02 47.2422C392.079 47.2422 392.132 47.2188 392.173 47.1777C392.214 47.1367 392.238 47.0782 392.245 47.0255C392.292 46.1064 392.292 45.1758 392.245 44.2625C392.238 44.204 392.214 44.1512 392.173 44.1103C392.132 44.0693 392.079 44.0459 392.02 44.04C391.435 44.0166 390.844 43.999 390.26 43.999ZM388.475 43.56C389.066 43.5308 389.662 43.519 390.26 43.519C390.85 43.519 391.447 43.5308 392.043 43.56C392.415 43.5775 392.711 43.8703 392.729 44.239C392.776 45.1758 392.776 46.1123 392.729 47.0489C392.711 47.4119 392.415 47.7104 392.043 47.7222C391.447 47.7514 390.85 47.7632 390.26 47.7632C389.662 47.7632 389.066 47.7514 388.475 47.7222C388.103 47.7104 387.807 47.4119 387.789 47.0489C387.736 46.1123 387.736 45.1758 387.789 44.239C387.807 43.8703 388.103 43.5775 388.475 43.56ZM399.158 43.5952H400.021V47.687H399.535V44.0752H399.454L397.526 47.687H397.048L395.122 44.0752H395.039V47.687H394.555V43.5952H395.412L397.284 47.1075L399.158 43.5952Z" fill="#1C204E"/>
<path d="M289.575 16.2197C289.583 16.0518 289.591 15.8918 289.591 15.7319H290.261C290.253 15.8999 290.245 16.0757 290.237 16.2516C290.213 16.7475 289.809 17.1555 289.301 17.1714C288.486 17.2114 287.67 17.2274 286.863 17.2274C286.048 17.2274 285.233 17.2114 284.425 17.1714C283.917 17.1555 283.513 16.7475 283.489 16.2516C283.416 14.972 283.416 13.6925 283.489 12.4129C283.513 11.909 283.917 11.5092 284.425 11.4852C285.233 11.4452 286.048 11.4292 286.863 11.4292C287.67 11.4292 288.486 11.4452 289.301 11.4852C289.809 11.5092 290.213 11.909 290.237 12.4129C290.245 12.5808 290.253 12.7568 290.261 12.9327H289.591C289.591 12.7648 289.583 12.6048 289.575 12.4449C289.567 12.3649 289.535 12.2929 289.478 12.2369C289.422 12.181 289.349 12.149 289.268 12.141C288.469 12.109 287.662 12.085 286.863 12.085C286.064 12.085 285.249 12.109 284.45 12.141C284.377 12.149 284.296 12.181 284.24 12.2369C284.183 12.2929 284.151 12.3649 284.151 12.4449C284.086 13.6925 284.086 14.9641 284.151 16.2197C284.151 16.2916 284.183 16.3716 284.24 16.4277C284.296 16.4836 284.377 16.5156 284.45 16.5156C285.249 16.5556 286.064 16.5716 286.863 16.5716C287.662 16.5716 288.469 16.5556 289.268 16.5156C289.349 16.5156 289.422 16.4836 289.478 16.4277C289.535 16.3716 289.567 16.2916 289.575 16.2197ZM297.807 12.189H293.158V14.0044H297.807V14.6601H293.158V16.4677H297.807V17.1234H292.496V11.5332H297.807V12.189ZM300.091 11.5332H305.378C305.887 11.5572 306.29 11.957 306.315 12.4609V14.0683C306.29 14.5722 305.879 14.972 305.378 14.996H303.57L306.726 17.1234H305.548L302.392 14.996H300.753V17.1234H300.091V11.5332ZM305.346 12.189H300.753V14.3323L305.346 14.3403C305.427 14.3323 305.499 14.3003 305.556 14.2444C305.612 14.1884 305.645 14.1163 305.653 14.0364L305.645 12.4929C305.645 12.4129 305.612 12.3409 305.556 12.2849C305.499 12.2289 305.427 12.197 305.346 12.189ZM313.601 11.5332V12.189H311.276V17.1234H310.606V12.189H308.29V11.5332H313.601ZM316.244 17.1234H315.582V11.5332H316.244V17.1234ZM319.402 17.1234H318.74V11.5332H324.051V12.189H319.402V14.0044H323.631V14.6601H319.402V17.1234ZM326.792 17.1234H326.13V11.5332H326.792V17.1234ZM334.599 12.189H329.95V14.0044H334.599V14.6601H329.95V16.4677H334.599V17.1234H329.288V11.5332H334.599V12.189ZM337.029 17.1314V12.189H336.618V11.5332H342.736C343.237 11.5572 343.647 11.957 343.672 12.4609V16.2037C343.647 16.7075 343.237 17.1074 342.736 17.1314H337.029ZM343.01 16.1718V12.4929C343.002 12.4129 342.97 12.3409 342.913 12.2849C342.857 12.2289 342.785 12.197 342.703 12.189H337.691V16.4677H342.703C342.785 16.4677 342.857 16.4356 342.913 16.3796C342.97 16.3237 343.002 16.2516 343.01 16.1718ZM289.575 24.9868C289.583 24.8189 289.591 24.6589 289.591 24.499H290.261C290.253 24.667 290.245 24.8429 290.237 25.0188C290.213 25.5147 289.809 25.9226 289.301 25.9385C288.486 25.9785 287.67 25.9945 286.863 25.9945C286.048 25.9945 285.233 25.9785 284.425 25.9385C283.917 25.9226 283.513 25.5147 283.489 25.0188C283.416 23.7392 283.416 22.4596 283.489 21.18C283.513 20.6762 283.917 20.2763 284.425 20.2523C285.233 20.2123 286.048 20.1963 286.863 20.1963C287.67 20.1963 288.486 20.2123 289.301 20.2523C289.809 20.2763 290.213 20.6762 290.237 21.18C290.245 21.3479 290.253 21.524 290.261 21.6999H289.591C289.591 21.5319 289.583 21.3719 289.575 21.212C289.567 21.132 289.535 21.06 289.478 21.0041C289.422 20.9481 289.349 20.9162 289.268 20.9081C288.469 20.8762 287.662 20.852 286.863 20.852C286.064 20.852 285.249 20.8762 284.45 20.9081C284.377 20.9162 284.296 20.9481 284.24 21.0041C284.183 21.06 284.151 21.132 284.151 21.212C284.086 22.4596 284.086 23.7312 284.151 24.9868C284.151 25.0588 284.183 25.1388 284.24 25.1948C284.296 25.2507 284.377 25.2827 284.45 25.2827C285.249 25.3227 286.064 25.3388 286.863 25.3388C287.662 25.3388 288.469 25.3227 289.268 25.2827C289.349 25.2827 289.422 25.2507 289.478 25.1948C289.535 25.1388 289.567 25.0588 289.575 24.9868ZM297.879 25.8905L297.323 24.691H293.254L292.697 25.8905H291.971L294.554 20.3003H296.023L298.606 25.8905H297.879ZM293.561 24.0271H297.016L295.595 20.956H294.982L293.561 24.0271ZM300.572 20.3003H305.859C306.368 20.3242 306.771 20.7241 306.795 21.2279V22.8355C306.771 23.3393 306.36 23.7392 305.859 23.7631H304.051L307.207 25.8905H306.029L302.873 23.7631H301.234V25.8905H300.572V20.3003ZM305.827 20.956H301.234V23.0994L305.827 23.1074C305.908 23.0994 305.98 23.0674 306.037 23.0115C306.093 22.9555 306.125 22.8834 306.134 22.8036L306.125 21.26C306.125 21.18 306.093 21.1081 306.037 21.052C305.98 20.996 305.908 20.9641 305.827 20.956ZM315.327 22.5475C315.625 22.6996 315.827 23.0034 315.843 23.3553V24.9629C315.819 25.4667 315.415 25.8666 314.915 25.8905H309.208V20.3003H314.495C315.004 20.3242 315.407 20.7241 315.432 21.2279V22.1637C315.424 22.2997 315.391 22.4277 315.327 22.5475ZM314.463 20.956H309.87V22.4277H314.463C314.544 22.4277 314.616 22.3956 314.673 22.3396C314.729 22.2837 314.762 22.2116 314.77 22.1318V21.26C314.762 21.18 314.729 21.1081 314.673 21.052C314.616 20.996 314.544 20.9641 314.463 20.956ZM315.181 24.9389V23.3873C315.181 23.3074 315.149 23.2353 315.093 23.1794C315.036 23.1234 314.955 23.0914 314.875 23.0914L309.87 23.0994V25.2348H314.883C314.955 25.2348 315.036 25.2027 315.093 25.1467C315.149 25.0908 315.181 25.0108 315.181 24.9389ZM321.542 20.852C320.742 20.852 319.927 20.8762 319.128 20.9081C319.055 20.9162 318.975 20.9481 318.918 21.0041C318.862 21.06 318.829 21.132 318.829 21.212C318.765 22.4596 318.765 23.7312 318.829 24.9868C318.829 25.0588 318.862 25.1388 318.918 25.1948C318.975 25.2507 319.055 25.2827 319.128 25.2827C319.927 25.3227 320.742 25.3388 321.542 25.3388C322.341 25.3388 323.148 25.3227 323.947 25.2827C324.028 25.2827 324.1 25.2507 324.157 25.1948C324.213 25.1388 324.246 25.0588 324.254 24.9868C324.318 23.7312 324.318 22.4596 324.254 21.212C324.246 21.132 324.213 21.06 324.157 21.0041C324.1 20.9481 324.028 20.9162 323.947 20.9081C323.148 20.8762 322.341 20.852 321.542 20.852ZM319.104 20.2523C319.911 20.2123 320.726 20.1963 321.542 20.1963C322.349 20.1963 323.164 20.2123 323.979 20.2523C324.488 20.2763 324.891 20.6762 324.915 21.18C324.98 22.4596 324.98 23.7392 324.915 25.0188C324.891 25.5147 324.488 25.9226 323.979 25.9385C323.164 25.9785 322.349 25.9945 321.542 25.9945C320.726 25.9945 319.911 25.9785 319.104 25.9385C318.595 25.9226 318.192 25.5147 318.167 25.0188C318.095 23.7392 318.095 22.4596 318.167 21.18C318.192 20.6762 318.595 20.2763 319.104 20.2523ZM333.384 20.3003H334.046V25.8905H332.875L328.258 20.956H328.073V25.8905H327.411V20.3003H328.581L333.166 25.2348H333.384V20.3003ZM338.109 23.5393H336.124V22.8834H338.109V23.5393ZM346.155 20.3003H346.816V25.8905H345.647L341.029 20.956H340.844V25.8905H340.181V20.3003H341.352L345.937 25.2348H346.155V20.3003ZM354.626 20.956H349.977V22.7715H354.626V23.4273H349.977V25.2348H354.626V25.8905H349.315V20.3003H354.626V20.956ZM359.098 23.4433V22.7794H362.746C363.247 22.8036 363.659 23.2034 363.682 23.7073V24.499C363.674 24.667 363.666 24.8429 363.659 25.0188C363.634 25.5147 363.23 25.9226 362.721 25.9385C361.907 25.9785 361.091 25.9945 360.284 25.9945C359.47 25.9945 358.654 25.9785 357.846 25.9385C357.338 25.9226 356.934 25.5147 356.91 25.0188C356.837 23.7392 356.837 22.4596 356.91 21.18C356.934 20.6762 357.338 20.2763 357.846 20.2523C358.654 20.2123 359.47 20.1963 360.284 20.1963C361.091 20.1963 361.907 20.2123 362.721 20.2523C363.23 20.2763 363.634 20.6762 363.659 21.18C363.666 21.3479 363.674 21.524 363.682 21.6999H363.013C363.013 21.5319 363.005 21.3719 362.997 21.212C362.988 21.132 362.956 21.06 362.9 21.0041C362.843 20.9481 362.77 20.9162 362.69 20.9081C361.89 20.8762 361.083 20.852 360.284 20.852C359.485 20.852 358.67 20.8762 357.871 20.9081C357.798 20.9162 357.718 20.9481 357.661 21.0041C357.604 21.06 357.573 21.132 357.573 21.212C357.508 22.4596 357.508 23.7312 357.573 24.9868C357.573 25.0588 357.604 25.1388 357.661 25.1948C357.718 25.2507 357.798 25.2827 357.871 25.2827C358.67 25.3227 359.485 25.3388 360.284 25.3388C361.083 25.3388 361.89 25.3227 362.69 25.2827C362.77 25.2827 362.843 25.2507 362.9 25.1948C362.956 25.1388 362.988 25.0588 362.997 24.9868C363.005 24.8189 363.013 24.6589 363.013 24.499L363.02 23.7392C363.013 23.6592 362.98 23.5873 362.923 23.5312C362.867 23.4753 362.795 23.4433 362.715 23.4353L359.098 23.4433ZM371.387 25.8905L370.83 24.691H366.763L366.206 25.8905H365.478L368.062 20.3003H369.531L372.113 25.8905H371.387ZM367.07 24.0271H370.523L369.103 20.956H368.49L367.07 24.0271ZM377.984 20.3003V20.956H375.66V25.8905H374.989V20.956H372.673V20.3003H377.984ZM380.627 25.8905H379.965V20.3003H380.627V25.8905ZM385.609 25.2348L387.893 20.3003H388.628L386.037 25.8905H385.181L382.599 20.3003H383.325L385.609 25.2348ZM395.912 20.956H391.262V22.7715H395.912V23.4273H391.262V25.2348H395.912V25.8905H390.6V20.3003H395.912V20.956ZM293.563 29.0674H294.297L291.706 34.6577H290.85L288.631 29.8592L286.403 34.6577H285.547L282.964 29.0674H283.691L285.975 34.0019L288.259 29.0674H288.631H288.994L291.278 34.0019L293.563 29.0674ZM301.575 29.7231H296.925V31.5386H301.575V32.1944H296.925V34.0019H301.575V34.6577H296.263V29.0674H301.575V29.7231ZM309.978 31.3146C310.276 31.4667 310.478 31.7705 310.494 32.1225V33.73C310.47 34.2338 310.066 34.6337 309.566 34.6577H303.859V29.0674H309.146C309.655 29.0914 310.058 29.4912 310.082 29.9951V30.9308C310.074 31.0668 310.042 31.1948 309.978 31.3146ZM309.114 29.7231H304.521V31.1948H309.114C309.195 31.1948 309.267 31.1627 309.324 31.1067C309.38 31.0508 309.412 30.9788 309.42 30.8989V30.0271C309.412 29.9471 309.38 29.8752 309.324 29.8192C309.267 29.7631 309.195 29.7312 309.114 29.7231ZM309.832 33.706V32.1544C309.832 32.0745 309.8 32.0025 309.743 31.9466C309.687 31.8905 309.606 31.8585 309.525 31.8585L304.521 31.8666V34.0019H309.534C309.606 34.0019 309.687 33.9699 309.743 33.9138C309.8 33.8579 309.832 33.7779 309.832 33.706ZM318.38 32.1944H313.642C313.133 32.1704 312.73 31.7705 312.705 31.2667V30.459C312.705 30.2911 312.714 30.1151 312.722 29.9392C312.746 29.4433 313.157 29.0434 313.658 29.0194C314.473 28.9794 315.208 28.9634 316.023 28.9634C316.838 28.9634 317.573 28.9794 318.388 29.0194C318.888 29.0434 319.3 29.4433 319.324 29.9392C319.332 30.1151 319.34 30.2911 319.34 30.459H318.678C318.67 30.299 318.67 30.139 318.662 29.9792C318.654 29.8992 318.622 29.8192 318.566 29.7631C318.509 29.7073 318.436 29.6752 318.356 29.6752C317.557 29.6352 316.822 29.6192 316.023 29.6192C315.224 29.6192 314.489 29.6352 313.69 29.6752C313.609 29.6752 313.537 29.7073 313.48 29.7631C313.424 29.8192 313.392 29.8992 313.392 29.9792C313.384 30.139 313.375 30.299 313.367 30.459V31.2348C313.367 31.3147 313.4 31.3867 313.456 31.4427C313.513 31.4986 313.593 31.5307 313.674 31.5386H318.404C318.913 31.5547 319.316 31.9625 319.34 32.4584V33.2662C319.34 33.442 319.332 33.61 319.324 33.7859C319.3 34.2897 318.888 34.6897 318.388 34.7137C317.573 34.7456 316.838 34.7696 316.023 34.7696C315.208 34.7696 314.473 34.7456 313.658 34.7137C313.157 34.6897 312.746 34.2897 312.722 33.7859C312.714 33.61 312.705 33.442 312.705 33.2662H313.367C313.375 33.426 313.375 33.594 313.384 33.754C313.392 33.834 313.424 33.9059 313.48 33.9619C313.537 34.0178 313.609 34.0499 313.69 34.0499C314.489 34.0899 315.224 34.1059 316.023 34.1059C316.822 34.1059 317.557 34.0899 318.356 34.0499C318.436 34.0499 318.509 34.0178 318.566 33.9619C318.622 33.9059 318.654 33.834 318.654 33.754C318.662 33.594 318.67 33.426 318.678 33.2662V32.4904C318.678 32.4183 318.646 32.3383 318.59 32.2825C318.533 32.2264 318.452 32.1944 318.38 32.1944ZM322.384 34.6577H321.723V29.0674H322.384V34.6577ZM329.675 29.0674V29.7231H327.35V34.6577H326.68V29.7231H324.364V29.0674H329.675ZM336.967 29.7231H332.318V31.5386H336.967V32.1944H332.318V34.0019H336.967V34.6577H331.656V29.0674H336.967V29.7231Z" fill="#1C204E"/>
</g>
</g>
<defs>
<filter id="filter0_d_2800_478" x="-0.00279641" y="0.0932617" width="49.311" height="40.3203" filterUnits="userSpaceOnUse" color-interpolation-filters="sRGB">
<feFlood flood-opacity="0" result="BackgroundImageFix"/>
<feColorMatrix in="SourceAlpha" type="matrix" values="0 0 0 0 0 0 0 0 0 0 0 0 0 0 0 0 0 0 127 0" result="hardAlpha"/>
<feOffset dy="0.656117"/>
<feGaussianBlur stdDeviation="0.328058"/>
<feComposite in2="hardAlpha" operator="out"/>
<feColorMatrix type="matrix" values="0 0 0 0 0 0 0 0 0 0 0 0 0 0 0 0 0 0 0.25 0"/>
<feBlend mode="normal" in2="BackgroundImageFix" result="effect1_dropShadow_2800_478"/>
<feBlend mode="normal" in="SourceGraphic" in2="effect1_dropShadow_2800_478" result="shape"/>
</filter>
<filter id="filter1_d_2800_478" x="4.98758" y="46.6455" width="39.8209" height="10.9636" filterUnits="userSpaceOnUse" color-interpolation-filters="sRGB">
<feFlood flood-opacity="0" result="BackgroundImageFix"/>
<feColorMatrix in="SourceAlpha" type="matrix" values="0 0 0 0 0 0 0 0 0 0 0 0 0 0 0 0 0 0 127 0" result="hardAlpha"/>
<feOffset dy="0.948338"/>
<feGaussianBlur stdDeviation="0.474169"/>
<feComposite in2="hardAlpha" operator="out"/>
<feColorMatrix type="matrix" values="0 0 0 0 0 0 0 0 0 0 0 0 0 0 0 0 0 0 0.25 0"/>
<feBlend mode="normal" in2="BackgroundImageFix" result="effect1_dropShadow_2800_478"/>
<feBlend mode="normal" in="SourceGraphic" in2="effect1_dropShadow_2800_478" result="shape"/>
</filter>
<clipPath id="clip0_2800_478">
<rect width="219" height="60" fill="white" transform="translate(198.652)"/>
</clipPath>
</defs>
</svg>
