<svg width="32" height="32" viewBox="0 0 32 32" fill="none" xmlns="http://www.w3.org/2000/svg">
<rect width="32" height="32" rx="16" fill="#FFC727"/>
<g clip-path="url(#clip0_2450_6099)">
<path d="M10.2139 6.86438V17.7669H12.8059V17.2252H10.7556V7.4061H24.9581V17.2252H22.5092V17.7669H25.4998V6.86438H10.2139Z" fill="black"/>
<path d="M25.059 6.92442L17.896 12.7082L10.654 6.92358L10.3159 7.34683L17.8978 13.403L25.3993 7.34589L25.059 6.92442Z" fill="black"/>
<path d="M20.0319 11.3192L19.6294 11.6818L25.0296 17.6766L25.4321 17.3141L20.0319 11.3192Z" fill="black"/>
<path d="M15.7635 11.3182L10.2837 17.313L10.6835 17.6785L16.1634 11.6837L15.7635 11.3182Z" fill="black"/>
<path d="M10.4845 8.05994H8.49219V8.60165H10.4845V8.05994Z" fill="black"/>
<path d="M10.4847 10.0521H6.5V10.5938H10.4847V10.0521Z" fill="black"/>
<path d="M10.4853 12.0449H7.6958V12.5866H10.4853V12.0449Z" fill="black"/>
<path d="M22.0447 16.7389C20.8696 15.8772 19.3117 15.4026 17.6579 15.4026C16.0041 15.4026 14.4462 15.8772 13.2711 16.7389C12.0707 17.6192 11.4097 18.7976 11.4097 20.0569C11.4097 21.0448 11.8142 21.9817 12.5813 22.7753C12.4989 23.1883 12.2617 24.3767 12.2124 24.6137L12.1039 25.1357L14.4705 24.063C15.4321 24.4874 16.5312 24.7112 17.658 24.7112C19.3118 24.7112 20.8698 24.2366 22.0448 23.3749C23.2452 22.4946 23.9063 21.3162 23.9063 20.0569C23.9063 18.7975 23.2451 17.6191 22.0447 16.7389ZM17.6579 24.1693C16.5645 24.1693 15.5017 23.9447 14.5842 23.5198L14.4716 23.4677L12.8481 24.2034C12.9652 23.6205 13.1311 22.7884 13.1408 22.7394L13.1695 22.5953L13.0644 22.4927C12.3362 21.7816 11.9514 20.9393 11.9514 20.0568C11.9514 17.7891 14.5113 15.9443 17.6579 15.9443C20.8046 15.9443 23.3645 17.7891 23.3645 20.0568C23.3645 22.3245 20.8046 24.1693 17.6579 24.1693Z" fill="black"/>
<path d="M20.4472 18.1923H14.8682V18.734H20.4472V18.1923Z" fill="black"/>
<path d="M21.6423 19.786H13.6729V20.3277H21.6423V19.786Z" fill="black"/>
<path d="M20.4472 21.3798H14.8682V21.9215H20.4472V21.3798Z" fill="black"/>
</g>
<defs>
<clipPath id="clip0_2450_6099">
<rect width="19" height="19" fill="white" transform="translate(6.5 6.5)"/>
</clipPath>
</defs>
</svg>
