<svg xmlns="http://www.w3.org/2000/svg" width="302" height="294" fill="none"><g clip-path="url(#a)"><path fill="#EA1B22" d="M58.4 10.2h7l-3.7-6L55 15h-3l8-13a2 2 0 0 1 1.6-.8c.7 0 1.3.3 1.6.8l8.3 13h-3.1L67 12.6h-7l-1.6-2.4Zm32 2.4V1.3h-2.6v12.4c0 .4.1.7.4 1 .2.2.6.3 1 .3H101l1.5-2.4H90.4Zm-43.2-2a4.6 4.6 0 0 0 0-9.3H35.7V15h2.7V3.7H47c1.2 0 2.2 1 2.2 2.3 0 1.2-1 2.2-2.2 2.2h-7.4l7.8 6.8h3.8L46 10.6h1.2ZM19.7 15c-3.8 0-6.8-3-6.8-6.8s3-6.9 6.8-6.9h7.9c3.7 0 6.8 3 6.8 6.9 0 3.8-3 6.8-6.8 6.8h-8Zm7.7-2.4a4.4 4.4 0 0 0 0-8.9h-7.6a4.5 4.5 0 0 0 0 8.9h7.6ZM77 15a6.8 6.8 0 0 1 0-13.7h9.4l-1.5 2.4h-7.7a4.5 4.5 0 0 0 0 8.9h9.4L85.1 15h-8Zm32-2.4c-2 0-3.7-1.3-4.2-3.2h11.1l1.6-2.4h-12.7a4.4 4.4 0 0 1 4.2-3.3h7.7l1.5-2.4h-9.4c-3.7 0-6.8 3-6.8 6.9 0 3.8 3 6.8 6.8 6.8h8l1.6-2.4H109Z"/></g><g clip-path="url(#b)"><path fill="#fff" d="M133.4 4.3h1.5v3.3h3V4.3h1.5v8h-1.5V9h-3v3.3h-1.5v-8ZM144 9.7c0 .7-.6 1.2-1.2 1.2-.7 0-1.2-.5-1.2-1.2V6.3h-1.4v3.4c0 1.4 1.2 2.6 2.6 2.6 1.4 0 2.6-1.2 2.6-2.6V6.3H144v3.4Zm5.2-3.4c-.7 0-1.2.2-1.6.7V4.3h-1.4v5c0 1.7 1.3 3 2.8 3a3 3 0 0 0 3-3 3 3 0 0 0-2.8-3Zm0 4.7c-1 0-1.6-.8-1.6-1.7 0-1 .7-1.7 1.6-1.7.8 0 1.5.8 1.5 1.7 0 1-.7 1.7-1.5 1.7Zm5.2-4.3c0-.7.4-1 1-1 .4 0 .9.4 1.3.7l.9-1a3 3 0 0 0-2.2-1c-1.5 0-2.5.8-2.5 2.3 0 2.7 3.3 1.8 3.3 3.3 0 .5-.5.9-1 .9-.8 0-1-.4-1.5-.8l-1 1a3 3 0 0 0 2.4 1.2c1.4 0 2.6-.9 2.6-2.3 0-3-3.3-2-3.3-3.3Zm6.9-.5c-1.5 0-2.8 1.3-2.8 3.1v5h1.4v-2.7c.5.4 1 .6 1.6.6a3 3 0 0 0 2.9-3 3 3 0 0 0-3-3Zm.3 4.7c-1 0-1.7-.8-1.7-1.7 0-.9.7-1.7 1.7-1.7.8 0 1.5.8 1.5 1.7 0 1-.7 1.7-1.5 1.7Zm13 .1c-.9 0-1-.3-1-.9V7.7h1.2V6.5h-1.3V4.9l-1.4.6v5c0 1.2.9 1.8 2 1.8h.6l.3-1.3h-.4Z"/><path fill="#FFC727" d="M171 7.8a3 3 0 0 0-2.3-1.5V4.8c.4-.1.7-.5.7-1a1.1 1.1 0 1 0-2.2 0c0 .5.2.9.6 1v1.5a2 2 0 0 0-1 .3l-3.9-3v-.3c0-.7-.5-1.2-1.1-1.2-.7 0-1.3.5-1.3 1.2s.6 1.2 1.3 1.2c.2 0 .4 0 .6-.2l.2.2 3.5 2.6a3 3 0 0 0-.4.6c-.3.4-.5.9-.5 1.4v.1c0 .4 0 .8.2 1l.4.9-1.1 1.2a1 1 0 0 0-1 .2 1 1 0 0 0-.3.6 1 1 0 1 0 1.9-.2l1.2-1.3a3.1 3.1 0 0 0 1.7.6h.1a3 3 0 0 0 2.6-1.4c.2-.5.4-1 .4-1.5 0-.6-.1-1-.4-1.5Zm-1.6 2.5c-.3.4-.7.6-1 .6h-.1c-.3 0-.5 0-.8-.2l-.6-.6-.2-.7v-.1l.1-.8.6-.6c.3-.2.5-.3.8-.3.3 0 .6 0 .8.2.3.1.4.3.6.5a1.7 1.7 0 0 1 .3 1c0 .3-.2.7-.5 1Z"/></g><g clip-path="url(#c)"><path fill="#1D55CC" d="m210 8 .2-1a4 4 0 0 0-5.5-3.9 6 6 0 0 0-5.2-3 5.7 5.7 0 0 0-5.6 6.8 3.2 3.2 0 0 0-1.3 6c.8-.5 1.7-.9 2.8-1.2 0 0-1.2-4 .2-4.3 1.7-.3 1.8.1 5.2-.2 3.6-.4 6.8.2 6.8.2.6 0 .6 1.3.5 2.3a7 7 0 0 1-.5 1.9c1.3.3 2.4.8 3.4 1.3.8-.5 1.3-1.3 1.3-2.2 0-1.5-1-2.6-2.3-2.8Z"/><path fill="#1D55CC" d="M201.8 14c4.7 0 9 .6 11.7 2.3-1.8-2.4-6.4-4-11.7-4-5.4 0-10 1.6-11.8 4 2.8-1.7 7-2.4 11.8-2.4Z"/><path fill="#fff" d="M268.5 11.1c-.3.5-.7.7-1.2 1-1 .4-1.9.2-2.5-.7l5.4-2.3-.3-.6c-.9-2.1-2.9-3.7-5.4-2.6-2.3 1-3.1 3.4-2.2 5.7 1 2.4 3.4 3.3 5.7 2.3.8-.3 1.4-.8 1.8-1.3l-1.3-1.5Zm-3.3-3.4c1-.5 1.8 0 2.3 1l-3.3 1.3c-.3-1 0-2 1-2.3Zm-51.5 1c0-3.1 2.3-5.6 5.5-5.6 2 0 3 .7 4.1 1.7l-.8.9c-.9-.8-2-1.5-3.4-1.5-2.4 0-4.1 2-4.1 4.4 0 2.6 1.8 4.5 4.1 4.5 1.5 0 2.4-.5 3.5-1.5l.7.8a5.6 5.6 0 0 1-4.3 1.9c-3-.1-5.3-2.6-5.3-5.6Zm10.7-5.9h1.2v11.3h-1.2V2.8Zm2.1 7.2a4 4 0 0 1 4.1-4.1 4 4 0 0 1 4.1 4.1 4 4 0 0 1-4.1 4.2 4 4 0 0 1-4.1-4.1Zm7 0a3 3 0 0 0-3-3c-1.7 0-2.9 1.3-2.9 3 0 1.8 1.3 3.2 3 3.2a3 3 0 0 0 3-3.1Zm2.2 1V6h1.2v4.7c0 1.5.8 2.4 2.2 2.4 1.3 0 2.4-1 2.4-2.5V6h1.2v8h-1.2v-1.4a3 3 0 0 1-2.8 1.5c-2 .1-3-1.2-3-3.1Zm7.7-1c0-2.6 2-4 3.9-4 1.4 0 2.4.7 3 1.6V2.8h1.2v11.3h-1.2v-1.6c-.6 1-1.5 1.8-3 1.8a4 4 0 0 1-3.9-4.2Zm6.9 0c0-1.8-1.4-3-2.9-3s-2.8 1-2.8 3 1.3 3.1 2.8 3.1a3 3 0 0 0 2.9-3Zm4.8 3v1h-2.3V2.8h2.3v4.1a3 3 0 0 1 2.6-1.3c1.9 0 3.7 1.5 3.7 4.2 0 2.9-1.8 4.3-3.7 4.3A3 3 0 0 1 255 13Zm4-3c0-1.5-1-2.4-2-2.4-1.1 0-2 .9-2 2.3s.8 2.3 2 2.3c1 0 2-.9 2-2.3Zm11.5 0c0-2.9 1.7-4.4 3.7-4.4A3 3 0 0 1 277 7V2.8h2.3v11.3H277v-1.2a3 3 0 0 1-2.6 1.3c-2 0-3.7-1.5-3.7-4.3Zm6.3 0c0-1.5-.9-2.4-2-2.4s-2 .9-2 2.3 1 2.3 2 2.3 2-.9 2-2.3Zm3.1 3 1-1.6a5 5 0 0 0 2.6 1c.7 0 1-.3 1-.6 0-.5-.8-.7-1.8-1-1.1-.3-2.4-.9-2.4-2.4 0-1.8 1.3-2.7 3-2.7 1 0 2.2.4 3 1l-.8 1.6c-.8-.5-1.6-.8-2.2-.8-.6 0-.9.2-.9.5 0 .5.8.7 1.7 1 1.1.5 2.5 1 2.5 2.5 0 1.9-1.4 2.7-3.1 2.7-1.2 0-2.5-.4-3.6-1.3Zm7.5.4c0-.4.3-.8.8-.8s.9.4.9.8c0 .5-.4.9-.9.9a.8.8 0 0 1-.8-.9Zm1.5 0c0-.4-.3-.7-.7-.7-.4 0-.8.3-.8.7 0 .4.3.7.8.7.4 0 .7-.2.7-.7Zm-1-.4h.5l.1.3c0 .1 0 .2-.2.2l.2.3h-.2l-.2-.3h-.2v.3h-.2V13Zm.3.4.2-.1c0-.1 0-.2-.2-.2h-.2v.3h.2Z"/></g><g clip-path="url(#d)"><path fill="#fff" d="M65.3 41.7c-.2-1.2-1.6-1.3-2.6-1.3l-4.4-.1c-.4 0-.8-.1-.9-.5 0-.5.4-.7.7-.7.7-.2 1.4-.2 2.2-.2 1.5 0 3 .2 4.5.4l.1-1.2a24.3 24.3 0 0 0-6.6-.3c-.8 0-1.6.3-2 .8-.4.5-.5 1.3-.2 1.9.3 1 1.7 1 2.5 1l4.5.1c.4 0 .8.1.8.5s-.2.7-.7.8l-2.1.2c-1.8 0-3.3-.2-5-.5l-.2 1.2c1.6.4 3.3.5 4.9.5h2.3c.6-.2 1.3-.3 1.8-.7.5-.5.5-1.2.4-1.9Zm-47.2 1-4-5h-1.8v6.6H14v-4.6l3.3 4.2a1 1 0 0 0 1.7 0l3.4-4.2v4.6h1.5v-6.6h-1.7l-4 5Zm18.4-5h-8.8v6.6h8.8l.2-1.3h-7.5v-1.3h7v-1.4h-7V39h7.2v-1.3ZM51 44.3l2.8-6.6h-1.6l-2 5-2.6-4.4a1.3 1.3 0 0 0-2.1 0L43 42.8l-2.1-5.1h-1.6l2.8 6.6h1.6l2.9-5.2 2.8 5.2H51Z"/></g><g clip-path="url(#e)"><path fill="#089949" d="M109.2 48.4a3 3 0 0 1-1.3-.3L98.8 44a3.3 3.3 0 0 1-1.7-4.3l4.1-9.2a3.2 3.2 0 0 1 4.3-1.7l9.1 4.1c1.6.7 2.4 2.7 1.6 4.3l-4 9.2c-.6 1.3-1.7 2-3 2Zm-.5-2c.7.3 1.5 0 1.8-.7l4-9.2c.3-.7 0-1.6-.7-1.9l-9-4c-.8-.4-1.6 0-1.9.6l-4 9.2c-.4.7 0 1.5.6 1.9l9.2 4Z"/><path fill="#FFC727" d="M137.8 48.4h-10a3.3 3.3 0 0 1-3.2-3.3v-10c0-1.9 1.5-3.3 3.2-3.3h10c1.8 0 3.3 1.4 3.3 3.2v10.1c0 1.8-1.5 3.3-3.3 3.3Zm-10-14.8c-.7 0-1.3.7-1.3 1.4v10.1c0 .8.6 1.4 1.3 1.4h10c.8 0 1.4-.6 1.4-1.4v-10c0-.8-.6-1.5-1.4-1.5h-10Z"/><path fill="#E42527" d="m100.4 36.9-1.3 3v.1l.4 3.3c.2.7-.3 1.4-1 1.6l-10 1.6a1.4 1.4 0 0 1-1.5-1.2l-1.6-10c0-.3 0-.7.2-1 .2-.3.6-.5 1-.5l9.8-1.6h.2c.7 0 1.2.4 1.4 1.1l.5 3.3 1.4-3.1-.1-.5c-.3-1.8-2-3-3.7-2.7L86.2 32c-.8.2-1.6.6-2 1.3-.6.7-.8 1.6-.6 2.5l1.5 10a3.2 3.2 0 0 0 3.8 2.6l9.8-1.6c1.8-.3 3-2 2.7-3.7l-1-6.1Z"/><path fill="#226DB4" d="m112.3 41.6 1.4-3.2-.4-3a1.4 1.4 0 0 1 1.2-1.6l9.9-1.4h.2c.2 0 .5 0 .8.3h.1a4 4 0 0 1 1.7-.9l-.7-.6a3 3 0 0 0-2.4-.7l-9.9 1.4c-.9.1-1.6.5-2.1 1.2-.6.7-.8 1.6-.7 2.5l.9 6Zm16.8 1.7-1.3-9.7c-.7 0-1.3.7-1.3 1.4v3l.8 5.7A1.4 1.4 0 0 1 126 45l-10 1.4c-.3 0-.6 0-1-.3-.2-.2-.4-.5-.5-1l-.4-3.3-1.5 3.3v.3a3.2 3.2 0 0 0 3.7 2.8l10-1.3a3 3 0 0 0 2-1.3 3 3 0 0 0 .7-2.4Z"/><path fill="#fff" d="M120.5 52c0-.9.6-1.5 1.4-1.5 1 0 1.5.6 1.5 1.5s-.6 1.5-1.5 1.5-1.4-.6-1.4-1.5Zm2.2 0c0-.5-.2-1-.8-1-.5 0-.8.5-.8 1s.3 1 .9 1c.5 0 .7-.5.7-1Zm-8.6-1.5h.5v1.2h1.3v-1.2h.5l.1.1v2.8h-.6v-1.2h-1.2v1.1l-.1.1h-.5v-2.8Zm-7 1.5c0-.9.6-1.5 1.5-1.5s1.5.6 1.5 1.5-.6 1.5-1.5 1.5-1.5-.6-1.5-1.5Zm2.3 0c0-.5-.2-1-.8-1-.6 0-.8.5-.8 1s.3 1 .8 1c.6 0 .8-.5.8-1Zm-8.2 1.2 1.4-2.1h-1.2v-.6h2v.3L102 53h1.3l.1.1v.3l-.1.1h-2.1v-.2Z"/></g><g fill="#fff" clip-path="url(#f)"><path d="M156.4 41a14.7 14.7 0 1 1 29.5 0 14.7 14.7 0 0 1-29.5 0Zm27.6 0a13 13 0 0 0-12.8-13 13 13 0 1 0 9 22.2A12.8 12.8 0 0 0 184 41Z"/><path d="M172.6 38.4h-3l.5 1.3-.1 1.2c-.2.3-1 .2-1 0-.1-.1-.3-.9-.2-1.2a3 3 0 0 0 0-3.2c-.1-.3 0-.9.2-1.2.1-.3.9-.2 1 0v1.2c0 .4-.2.7-.4 1.2h3c-.2-.4-.5-.8-.5-1.2 0-.4 0-1 .2-1.2.2-.3.9-.2 1 0 0 .2.2.9 0 1.2a4 4 0 0 0 0 3.2c.2.3.1.9 0 1.2-.2.3-1 .2-1 0a2 2 0 0 1-.2-1.2c0-.4.3-.8.5-1.3Zm-8.8 5.6a.6.6 0 0 1 .4.5v1.7h-.6v-1.6l-.3-.1a.4.4 0 0 0-.3.1l-.2.4v1.2h-.5v-2.9h.5v1l.3-.2.4-.1h.3Zm2.8 2a1 1 0 0 1-.9.3 1 1 0 0 1-.8-.4c-.2-.2-.3-.5-.3-.8l.3-.8a1 1 0 0 1 .8-.3 1 1 0 0 1 .9.3l.2.8c0 .3 0 .6-.2.8Zm-.5-.4c.1-.1.2-.3.1-.5l-.1-.5a.4.4 0 0 0-.4-.1.5.5 0 0 0-.4.1l-.1.5.1.5a.5.5 0 0 0 .4.2.4.4 0 0 0 .4-.2Zm.9-1.1V44h.3v-.6h.6v.6h.3v.4h-.3v1.3h.3v.4h-.2a.7.7 0 0 1-.6 0v-1.7h-.4Zm3-.5.4.4.2.5v.4H169a.5.5 0 0 0 .2.4l.3.1h.4v-.2h.6c0 .1 0 .3-.2.4a1.1 1.1 0 0 1-.8.3 1 1 0 0 1-.7-.3 1 1 0 0 1-.4-.8 1.2 1.2 0 0 1 .3-1 1 1 0 0 1 .8-.2h.5Zm-.8.6-.2.3h1a.4.4 0 0 0-.2-.3l-.3-.1h-.3Zm2.2 1.6h-.5v-3h.5v3Zm.4-1.7V44h.3v-.6h.5v.6h.4v.4h-.4v1.3h.3v.4h-.2a.7.7 0 0 1-.5 0l-.1-.4v-1.3h-.3Zm2.2-.7h-.6v-.5h.5v.5Zm-.6.2h.5v2.2h-.5V44Zm3.8 0 .2.2.1.3v1.7h-.5v-1.6a.3.3 0 0 0-.3-.1.3.3 0 0 0-.4.2v1.5h-.6v-1.6a.3.3 0 0 0-.3-.1.3.3 0 0 0-.3.1v1.6h-.6V44h.5v.4l.2-.3h.8l.2.3.3-.3a.8.8 0 0 1 .7 0Zm2.3 0 .4.4.1.5v.4h-1.5a.5.5 0 0 0 .2.4l.3.1a.4.4 0 0 0 .3 0l.2-.2h.5c0 .1 0 .3-.2.4a1 1 0 0 1-.8.3c-.3 0-.5-.1-.8-.3-.2-.2-.3-.4-.3-.8a1.2 1.2 0 0 1 .3-1 1 1 0 0 1 .8-.2h.5Zm-.9.6v.3h.9v-.2l-.2-.1a.5.5 0 0 0-.7 0Z"/></g><g fill="#fff" clip-path="url(#g)"><path d="M200.9 40.7c1-3 2.4-4.1 5.5-4.6-.1.8-.1 1.5-1.2 1.9-2.4.8-3.3 2.9-2.4 4.8.6 1 1.5 1.7 2.7 2 3.4 1.1 6.4.1 9-2l.8-.7a5.2 5.2 0 0 1 .8 1.2 10.7 10.7 0 0 1-11.7 2.8 6 6 0 0 1-3.5-4v-1.4Zm33.6-3.5-.8.7c-1-.3-2-.8-3-1-1.7 0-3.2.6-4 2.1-.8 1.5-.7 2.9.2 4.2 1 1.3 2.5 2 4.2 1.7 1.8-.2 1.8-.4 1.8-2v-2h1.5v3.8a.9.9 0 0 1-.4.6c-1.9 1.5-5.5 1.4-7.4-.2a5.5 5.5 0 0 1-1.4-6.7c1.7-3.2 6.8-4 9.3-1.2Z"/><path d="M219.3 39c-1-.7-1.4-1.2-1.2-2.3.3-1.5-.1-2.8-1.5-3.6-1.3-1-2.7-.7-4 .2a8.5 8.5 0 0 0-3.6 8l.3 2.2c-1.4.3-1.5.2-1.7-1.1-.6-3.7.3-6.8 3-9.5a6 6 0 0 1 4.1-2c2.7 0 5 2 5 4.7 0 1-.2 2.2-.4 3.5Z"/><path d="M210 48.5c1.2-.6 1.9-.7 2.7 0 1.2 1 2.6 1.4 4 .6 1.6-.8 2-2.2 1.8-3.9-.6-3.5-2.8-5.7-6.1-7l-.6-.3-.6-.2c.3-1.4.5-1.5 1.8-1 3.7 1.5 6.2 4 7 8 .4 2.6-.5 4.6-2.4 5.7-2 1.1-4.3.7-6.3-1l-1.3-1Zm80.2-4.5.7.9c-.7 1.6-3.8 1.8-5.4 1a4.1 4.1 0 0 1-1.8-5.3c.9-2 3-2.9 5-2.3 2.2.6 3 2.4 2.7 4.4h-6.3c.2 2.3 2.7 3 5.1 1.4Zm-5.2-2.4h5c-.3-1.4-1.2-2.2-2.4-2.2-1.3 0-2.2.7-2.6 2.2Zm-35.2-3.3c-2-.6-4 .4-4.9 2.2-.7 1.8 0 4.2 1.6 5.2 1.7 1 4.7.8 5.7-.8l-.8-.8c-2.5 1.5-5 .9-5-1.3h6.2c.3-2.3-.8-4-2.8-4.5Zm-3.5 3.3c0-1.2.9-2 2.2-2.2 1.4 0 2.5.8 2.6 2.2h-4.8Zm-4.3 3.7a4 4 0 0 1-3.3 1c-1.2 0-2.7-1-2.8-2.5v-5.5h1.4v4.5c0 1.9 1.8 2.8 3.4 1.9 1-.5 1.2-1.4 1.2-2.3v-4.1h1.5v8c-.6-.1-1.5.5-1.5-1Zm32.5-7.1h1.4l.2.8.4-.1a4 4 0 0 1 4-.5c1 .4 1.6 1.2 1.7 2.3v5.5h-1.4v-2.5l-.1-2.3c-.1-1.2-.7-1.8-1.8-1.9-1.3-.1-2.4.4-2.6 1.6-.3 1.2-.2 2-.2 2.9v2.2h-1.6v-8Zm-20.9 7.2.5-1 3.3.6c.4 0 .7 0 1-.2.2-.2.5-.5.5-.8 0-.3-.3-.6-.5-.7l-2.1-.5c-1-.2-2.2-.5-2.4-1.8-.2-1.3.4-2.2 1.7-2.6a6 6 0 0 1 4.6.5l-.5 1c-1-.2-2.1-.4-3.1-.3-.4 0-.8.5-1.2.9l1 1 2.4.4c1.1.3 1.7 1 1.7 2s-.5 1.8-1.6 2.1a6.3 6.3 0 0 1-5.3-.6Zm9.4-5.9h-1.3v-1.2l1.2-.2.2-1.6h1.4v1.7h2.3v1.2l-2.3.1V44c0 .8.6 1.2 1.5 1.1l.9-.2c.6 1 .5 1.3-.7 1.5-2 .3-3.2-.7-3.2-2.7v-4Zm7 6.7h-1.5V35.1h1.5v11.1Zm1.6-8h1.4v8h-1.4v-8Zm.9-3.5c.3.3.7.6.8 1a.8.8 0 0 1-1 1c-.4 0-1-.6-1-1 0-.3.5-.7.7-1h.5Z"/></g><g clip-path="url(#h)"><path fill="#B6B6B8" d="M11.7 73.3h2v2h-2v-2Zm34.6 0h2v2h-2v-2Z"/><path fill="#fff" d="M7.3 76A3 3 0 0 0 5 77c0-.3-.2-.7-1-.7H2v2h.8l.2.1v9h2.2v-3.8c.3.3 1 .8 2 .8 2.2 0 3.7-1.7 3.7-4.2S9.5 76 7.3 76ZM7 82.6c-1.2 0-1.7-1.1-1.7-2.2 0-1.6.9-2.2 1.7-2.2 1 0 1.8.9 1.8 2.2 0 1.6-1 2.2-1.8 2.2Z"/><path fill="#fff" d="M13.8 82.2v-4.7c0-.8-.4-1.2-1.1-1.2h-2v2h.7l.2.1v4.7c0 .8.4 1.2 1.2 1.2h2v-2H14l-.2-.1Z"/><path fill="#fff" d="M19.6 76a3 3 0 0 0-2.3 1c0-.3-.3-.7-1.1-.7h-1.9v2h.8l.2.1v9h2.2v-3.8c.3.3 1 .8 2 .8 2.2 0 3.7-1.7 3.7-4.2S21.8 76 19.6 76Zm-.4 6.5c-1.2 0-1.8-1.1-1.8-2.2 0-1.6 1-2.2 1.8-2.2 1 0 1.7.9 1.7 2.2 0 1.6-.8 2.2-1.7 2.2Zm8.1-6.5c-2.4 0-4 1.8-4 4.3a4 4 0 0 0 4.2 4.2c2 0 3.1-1.2 3.2-1.2v-.1l-.9-1.6-.1.1s-1 .8-2 .8a2 2 0 0 1-2.2-1.7h5.3v-.9c0-2.3-1.4-3.8-3.5-3.8Zm-1.7 3.1c.2-.8.8-1.2 1.7-1.2.6 0 1.2.5 1.2 1.2h-2.9Zm13.3 3.1v-7.8c0-.8-.4-1.1-1.2-1.1h-2v2h1v1.5a3 3 0 0 0-2.1-.7c-2.2 0-3.7 1.7-3.7 4.2s1.5 4.2 3.6 4.2a3 3 0 0 0 2.3-1c0 .4.3.8 1 .8h2v-2h-.7l-.2-.1Zm-4 .3c-1 0-1.7-.8-1.7-2.2 0-1.3.7-2.2 1.8-2.2 1.2 0 1.7 1 1.7 2.2 0 1.6-1 2.2-1.8 2.2Z"/><path fill="#fff" d="M44.7 76.2c-.9 0-1.7.5-2.2 1.4v-.2c0-.8-.4-1.1-1.2-1.1h-2v2h.8l.2.1v5.9h2.2V81c0-.4 0-.8.2-1.2a2 2 0 0 1 2-1.5h.5v-2.2h-.5Zm3.7 6v-4.7c0-.8-.4-1.2-1.2-1.2h-1.8v2h.6l.2.1v4.7c0 .8.4 1.2 1.2 1.2h2v-2h-.8l-.2-.1Z"/><path fill="#fff" d="M56.7 78.2v-2h-1.2c-.6 0-1 .3-1.2.9l-1.5 4-.1.5-.2-.4-1.4-4.1c-.2-.6-.6-.8-1.3-.8h-1.2v2h.6l2.2 6h2.5l2.2-6h.6Z"/><path fill="#fff" d="M63.8 80.6V80c0-2.3-1.3-3.8-3.5-3.8-2.4 0-4 1.7-4 4.2 0 2.4 1.8 4.2 4.3 4.2 2 0 3.1-1.2 3.2-1.2v-.1l-1-1.6v.1s-1 .8-2.1.8a2 2 0 0 1-2.1-1.7h5.2v-.2Zm-5.1-1.5c.2-.8.8-1.2 1.6-1.2.7 0 1.2.5 1.3 1.2h-3Z"/><path fill="#4F4F50" d="M44.7 76.2c-.7 0-1.3.3-1.8.8h2.4v-.8h-.6Zm9.6.9-.1.3c.8 0 1.7 0 2.5.2v-1.3h-1.2c-.6 0-1 .2-1.2.8ZM7.3 76A3 3 0 0 0 5 77c0-.3-.2-.7-1-.7H2v2h.8l.2.1v5l3.1-1c-.6-.4-1-1.3-1-2 0-1.7 1-2.3 1.8-2.3 1 0 1.8.9 1.8 2.2 0 .6-.2 1-.4 1.4L11 81v-.7c0-2.5-1.4-4.2-3.6-4.2Z"/><path fill="#4F4F50" d="M12.7 76.3h-2v2h.7l.2.1v2.4l2.2-.5v-2.8c0-.8-.4-1.2-1.1-1.2Zm-1-3h2v2h-2v-2Zm7.9 2.7a3 3 0 0 0-2.3 1c0-.3-.3-.7-1.1-.7h-1.9v2h.8l.2.1V80l2.2-.5c.3-1 1-1.4 1.7-1.4.6 0 1.1.3 1.4.8l2.3-.3a3.4 3.4 0 0 0-3.3-2.5Zm7.7 0c-1.8 0-3.1 1-3.7 2.5a135 135 0 0 1 6.7-.8c-.7-1-1.7-1.6-3-1.6Zm10.4-2.7h-2v2h1v1.5a3 3 0 0 0-2.1-.7c-1.2 0-2.2.5-2.9 1.4l7.2-.4v-2.7c0-.8-.4-1.1-1.2-1.1Zm3.6 3h-2v.8h3.1c0-.6-.5-.8-1.1-.8Zm5-3h2v2h-2v-2Zm.9 3h-1.8v.7h3c-.1-.5-.5-.7-1.2-.7Zm2.6 0h-1.2v.8H51c-.2-.6-.6-.8-1.3-.8Zm10.5-.3a4 4 0 0 0-3.2 1.6l3.1.3h.5l3 .4a3.3 3.3 0 0 0-3.4-2.2Z"/></g><g clip-path="url(#i)"><mask id="j" width="31" height="30" x="78" y="65" maskUnits="userSpaceOnUse" style="mask-type:luminance"><path fill="#fff" d="M108.1 65.7H78.9V95h29.2V65.7Z"/></mask><g mask="url(#j)"><mask id="k" width="22" height="30" x="82" y="65" maskUnits="userSpaceOnUse" style="mask-type:alpha"><path fill="#fff" d="M103.8 75.2a3 3 0 0 0-2-2.9L84.2 66c-.8-.3-1.6.3-1.6 1.2v9.5c0 .5.3 1 .8 1.2l7.9 2.8c.8.3 1.6-.3 1.6-1.1V74c0-.5.4-.8.8-.6l2 .8a3 3 0 0 1 2 2.8v2.4l-8.9 3.3c-.4.1-.8.6-.8 1.1v9.6c0 .8.9 1.4 1.7 1.1l12.1-4.4a3 3 0 0 0 2-2.9v-12Z"/></mask><g mask="url(#k)"><path fill="url(#l)" d="m82.6 65.4 21.2 7.6v10.5c0 .8-.8 1.4-1.6 1.1L97.8 83v-5.9a3 3 0 0 0-2-2.8l-2-.8a.6.6 0 0 0-.9.6v7.2l-10.3-3.7V65.4Z"/><g filter="url(#m)"><path fill="#000" fill-opacity=".2" d="M103.8 75.3a3 3 0 0 1-2 2.8l-13.8 5v12.2l15.8-5.7V75.3Z"/></g><g filter="url(#n)"><path fill="#000" fill-opacity=".3" d="M103.8 75.8a3 3 0 0 1-2 2.8l-13.8 5v12.2l15.8-5.7V75.8Z"/></g><path fill="url(#o)" d="M103.8 75.2a3 3 0 0 1-2 2.8L88 83v12.2l15.8-5.8V75.2Z"/><path fill="url(#p)" d="M103.8 75.2a3 3 0 0 1-2 2.8L88 83v12.2l15.8-5.8V75.2Z" opacity=".5"/><path fill="#B0ADFF" d="m97.8 79.5-4.9 1.8v7.1c0 .5.4.7.8.6l2-.8a3 3 0 0 0 2-2.8v-5.9Z" opacity=".5"/></g></g></g><g fill="#fff" clip-path="url(#q)"><path d="m162.2 66.2-2 8.4c-.2 1-.1 2 .2 2.9l3 7.2a36.6 36.6 0 0 0-16.7 9.5l4.1-5.3-4.5-3.3c-1.5-1-1.4-1.7-.3-2.7 1-1 2.7-2.7 4.2-3.8.7-.5 2-.5 2.9-.3 2.2.8 4.3 1.8 6.4 2.8l1.4.7c-1.3-4-2.8-7.9-6.6-10.6l5.3-4.3c-4 0-6.8 2.3-10 4-3.3 1.5-4.5 5.5-6.5 9.2-2.3-8.7-9.2-11.3-16.1-13.7l-.3.4 5.5 4.4c-3.5 2.4-5 6-6.5 10l4.4-2 1.6-.7c2.3-.9 4.3-1.2 6 1.2.8 1 1.9 1.9 2.8 2.8 1 .9.9 1.7-.1 2.5-1.6 1-3 2.2-4.7 3.4l4 5.2c-4.9-4.2-10-8-16.6-9.3 1-2.4 2-4.6 2.7-6.8.4-1.2.5-2.4.4-3.6-.5-2.8-1.2-5.5-1.9-8.7 2 .4 3.8.6 5.5 1.2 2.5.7 4.8 1 7.5.2 4.5-1.3 9-.9 13.5.3a7 7 0 0 0 3.4 0c2.6-.4 5-1.8 8-1.2Z"/><path d="M145.2 92.9a2.1 2.1 0 0 1-2.3 2c-1.1 0-2.1-1-2-2.1.1-1.8 1.6-1 2.5-1.2 1 0 2-.1 1.8 1.3Z"/></g><path fill="#fff" d="M294.3 81.3h-4.6v-1h4.6v-4.7h1.1v4.7h4.6v1h-4.6v4.6h-1v-4.6Zm-104.8 7.9c-4.9 0-8.8-4-8.8-8.9a8.8 8.8 0 0 1 14.1-7l-5.3 5.4-3.8-3.8-1.6 1.7 5.4 5.4 7-7a8.8 8.8 0 0 1 1.8 5.3c0 5-4 8.9-8.8 8.9Zm8.6-15.9 1.4-1.4-1.7-1.6-1.3 1.3a11 11 0 0 0-18.1 8.7c0 6.2 5 11.2 11 11.2a11.2 11.2 0 0 0 8.7-18.2Zm12.2 12c1.7 0 2.5-.7 3.3-1.8l.5.2c-.5 1.5-1.8 2.8-4.1 2.8-3.1 0-4.8-2.3-4.8-5 0-3.3 2.1-5.4 5.2-5.4 2.3 0 3.4 1 3.4 2.3 0 .5-.2 1-.6 1.1h-.8v-.4c0-1.4-.8-2.1-2.5-2.1-1.9 0-3.4 1.5-3.4 4 0 2.4 1.3 4.2 3.8 4.2Zm7.4-.7c0 .9.7 1 1.6 1.1v.6h-4.6v-.6c.9-.1 1.6-.2 1.6-1v-11l-1.5-.2V73l2.4-1h.5v12.5m10.9-3c0-2.8-1.4-4.5-4-4.5-2 0-3.1 1.7-3.1 3.8 0 2.9 1.4 4.5 3.9 4.5 2 0 3.2-1.7 3.2-3.8Zm-8.7-.1c0-3.3 2.6-5.4 5.3-5.4 2.9 0 4.9 2 4.9 5 0 3.3-2.5 5.3-5.2 5.3-3 0-5-2-5-5Zm16.4 3.7c1.6 0 2.5-.6 3.3-1.7l.5.2a4.2 4.2 0 0 1-4.2 2.8c-3 0-4.7-2.3-4.7-5 0-3.3 2.1-5.4 5.2-5.4 2.2 0 3.4 1 3.4 2.3 0 .5-.3 1-.6 1.1h-.8V79c0-1.4-.9-2.1-2.5-2.1-2 0-3.4 1.5-3.4 4 0 2.4 1.3 4.2 3.8 4.2Zm11-7.3c.2-.1.3-.3.3-.4 0-.5-.3-.5-1.3-.7v-.5h4.2v.5c-.7.2-1 .3-1.4.6l-3.7 3.4 5.8 5v.5h-1.6l-5.9-5 3.6-3.4Zm-3.7 6.7c0 .9.7 1 1.6 1.1v.6h-4.6v-.6c.9-.1 1.6-.2 1.6-1v-11l-1.5-.2V73l2.4-1h.5v12.5Zm15.7-8.4h1.9c1.8 0 2.7.7 2.7 2.3 0 1.6-.8 2.3-2.8 2.3h-1.8v-4.6Zm2-.9h-5v.7c1.1 0 1.6.2 1.6 1v7.5c0 .9-.5 1-1.6 1v.8h5v-.7c-1.3-.1-2-.2-2-1v-3h2.3c2.8 0 3.8-1.6 3.8-3.2 0-.7-.3-3.1-4.1-3.1Zm17 9.4-1-7.7c0-.7.2-1 1.2-1h.1v-.7H276v.1l-.2.8-3.2 7.8-3.4-7.8a2 2 0 0 1-.2-.8h-2.7v.6h.1c1 0 1.2.3 1.2 1l-1 7.8c0 .6-.3.7-1.1.8h-.2v.7h3.8v-.7h-.1c-1.1 0-1.4-.2-1.4-.9v-.3l.8-6.5 3.7 8.4h.5L276 78l.8 6.4v.3c0 .7-.2.8-1.3.9h-.1v.7h4.2v-.7h-.2c-.8 0-1-.2-1.1-.9Zm6.7-4.4-1.7-.7c-1-.4-1.6-.8-1.6-1.8 0-1.1.8-1.8 2-1.8 1.6 0 2.4.7 2.8 2.5v.1h.6V76c-.8-.6-2-1-3.2-1-2.1 0-3.5 1.1-3.5 2.9 0 1.7 1.3 2.4 2.4 2.8l1.6.6c1.2.4 1.9 1 1.9 2 0 1.3-1 2-2.5 2s-2.5-.9-2.9-2.7h-.6v2.7h.1c.7.6 2 1 3.3 1 2.4 0 3.9-1.2 3.9-3.1 0-1.8-1.3-2.6-2.6-3Z"/><g clip-path="url(#r)"><path fill="#F62B54" d="M34.2 122.5a2 2 0 0 1-1.7-1 1.9 1.9 0 0 1 0-2l3.6-5.5a2 2 0 0 1 2.7-.7l.7.8a2 2 0 0 1-.1 2l-3.6 5.5a2 2 0 0 1-1.6 1Z"/><path fill="#FFC727" d="M40.3 122.5a2 2 0 0 1-1.8-1 1.9 1.9 0 0 1 0-2l3.6-5.5a2 2 0 0 1 1.8-1 2 2 0 0 1 1.7 1c.3.7.3 1.5-.1 2l-3.6 5.6a2 2 0 0 1-1.6 1Z"/><path fill="#00CA72" d="M46.2 122.6c1 0 1.8-.8 1.8-1.8s-.8-1.8-1.8-1.8-1.8.8-1.8 1.8.8 1.8 1.8 1.8Z"/><path fill="#fff" d="M125.5 119c.6 0 .9.5.9 1.1v2.2h.7v-2.2c0-1.1-.5-1.8-1.4-1.8-.4 0-1 .2-1.4.8a1.2 1.2 0 0 0-1-.7h-.4c-.3 0-.9.2-1 .6v-.6h-.8v4h.7v-2.2c0-.8.6-1.1 1.1-1.1.5 0 .8.4.8 1v2.2h.8v-2c0-.7.4-1.2 1-1.2Zm-7.2 2.7c.4 0 .7-.2 1-.4.2-.3.3-.6.3-1 0-.7-.6-1.2-1.3-1.2-.7 0-1.2.5-1.2 1.3 0 .3 0 .6.3.9.3.2.6.4 1 .4Zm0 .7a2 2 0 0 1-2-2c0-1.3 1-2 2-2a2 2 0 0 1 2 2 2 2 0 0 1-2 2Zm-5.8-2c0-1.3.9-2 2-2a2 2 0 0 1 1.5.6l-.6.5a1.3 1.3 0 0 0-.9-.4c-.7 0-1.3.5-1.3 1.3 0 .5.3 1 .8 1.2.5.2 1 0 1.4-.3l.6.5a2 2 0 0 1-1.5.6c-1 0-2-.8-2-2Zm-2.4 1.2a.5.5 0 0 1 .3-.5h.2a.5.5 0 0 1 .5.5.5.5 0 0 1-.5.5.5.5 0 0 1-.5-.5Z"/><path fill="#fff" fill-rule="evenodd" d="M112.1 113.5h-2.6l-2 4.8-1.8-4.8h-2.6l3.2 7.6-2 5h2.6l5.2-12.6ZM96 117.7c0 1.2 1 2 2.1 2 1 0 2-.7 2-2s-1-2-2-2-2.1.8-2.1 2Zm4.1 4.3v-1c-.5.8-1.8 1.1-2.4 1.1a4.3 4.3 0 0 1-4.3-4.4c0-2.7 2.1-4.4 4.3-4.4.5 0 1.8.2 2.4 1.1v-1h2.5v8.6H100Zm-7.4 0H90v-1c-.4.7-1.4 1.2-2.5 1.2-2.1 0-4-1.8-4-4.4 0-2.8 1.9-4.5 4-4.5 1 0 2 .4 2.5 1.2V109h2.5v13Zm-2.5-4.3c0-1.3-1-2-2-2s-2 .8-2 2c0 1.3 1 2 2 2s2-.8 2-2Zm-12.7-.2c0-1.3.7-1.7 1.6-1.7.8 0 1.4.5 1.4 1.6v4.6H83v-5.1c0-2.4-1.2-3.6-3-3.6-1 0-2 .6-2.5 1.4v-1.2H75v8.5h2.5v-4.5Zm-7.6 4.6a4.3 4.3 0 0 1-4.3-4.4c0-2.7 2-4.4 4.3-4.4 2.4 0 4.4 1.7 4.4 4.4s-2 4.4-4.4 4.4Zm0-2.5c1 0 2-.7 2-1.9 0-1.1-1-2-2-2a1.8 1.8 0 0 0-1.7 1.3l-.2.7c0 1.2.9 2 2 2Zm-8.8-3.8c.7 0 1.4.5 1.4 1.6v4.6h2.4v-4.8c0-2.6-1.2-3.9-3.2-3.9-.6 0-1.7.2-2.5 1.5-.5-1-1.4-1.5-2.7-1.5a2.4 2.4 0 0 0-2.2 1.4v-1.2h-2.5v8.5h2.5v-4.5c0-1.3.7-1.7 1.4-1.7.8 0 1.4.5 1.4 1.6v4.6h2.5v-4.5c0-1.3.7-1.7 1.5-1.7Z" clip-rule="evenodd"/></g><g clip-path="url(#s)"><path fill="#FFC727" d="M152.4 127.4a10.2 10.2 0 0 1-10.3-10.2 10.3 10.3 0 0 1 10.3-10.2h7.7a2.6 2.6 0 0 1 2.5 2.5v7.7a10.2 10.2 0 0 1-10.2 10.2Z"/><path fill="#fff" d="M152.4 122a1.2 1.2 0 1 0 0-2.3 1.2 1.2 0 0 0 0 2.4Z"/><path fill="#fff" d="M152.3 112.3a4.9 4.9 0 0 0-3 8.7v-.1a3 3 0 0 1 1.1-2.3 2.4 2.4 0 0 1 .5-3.4 2.4 2.4 0 0 1 3.1.3 2.4 2.4 0 0 1 .3 3.1 3 3 0 0 1 1 2.3 4.8 4.8 0 0 0-3-8.6Z"/></g><g fill="#fff" clip-path="url(#t)"><path d="M203.5 117.6A12.5 12.5 0 0 1 191 130a12.8 12.8 0 0 1-12.7-12.7 12.6 12.6 0 0 1 21.5-8.8c2.4 2.4 3.8 5.6 3.8 9Zm-5.1 0a7.6 7.6 0 0 0-7.7-7.6 7.3 7.3 0 0 0-7.4 7.6 7.6 7.6 0 0 0 13 5.2 7.5 7.5 0 0 0 2.1-5.3Z"/><path d="M195.7 117.4c-3.3 3.8-5.4 4.6-7.5 2.8a3.5 3.5 0 0 1 0-5.4c2-1.9 4-1.2 7.5 2.6Zm11.7-2.8h1.3l1.7 5.4 1-2.7.8-2.7h1.3l.8 2.7.9 2.7 1.7-5.4h1.3l-1 3-1.4 4h-1.3a16 16 0 0 0-.8-2.6l-1-2.6-1.6 5.2h-1.3l-1.2-3.5-1.2-3.5Zm14.6 0c.6 0 1.1 0 1.6.3s1 .7 1.3 1.1c.3.4.5 1 .6 1.5v1.2h-5.7c.1.4.4.9.8 1.2.4.3 1 .5 1.5.5.6 0 1.1-.3 1.6-.7l.7 1a5 5 0 0 1-1 .6l-1.3.3a3.6 3.6 0 0 1-3-1.5 4 4 0 0 1-.5-1.4v-1.2c0-.6.3-1 .6-1.5.3-.4.8-.8 1.2-1a3 3 0 0 1 1.7-.4Zm0 1.2c-.5 0-1 .1-1.4.4a2 2 0 0 0-.8 1.3h4.5a2 2 0 0 0-.9-1.3 2 2 0 0 0-1.3-.4Zm7.3 5.8c-.6 0-1.2-.2-1.7-.5s-1-.8-1.3-1.3c-.3-.5-.5-1.1-.5-1.7v-6h1.2v3.3a3 3 0 0 1 1.1-.6c.4-.2.8-.2 1.2-.2.7 0 1.3.1 1.8.4.5.3 1 .8 1.3 1.3a3.6 3.6 0 0 1 0 3.5 4 4 0 0 1-1.3 1.3c-.5.3-1.1.5-1.8.5Zm0-1.2a2.4 2.4 0 0 0 2-1.2c.3-.3.4-.7.4-1.1a2.3 2.3 0 0 0-2.3-2.3c-.5 0-.9 0-1.2.2-.4.2-.6.5-.8.9a2 2 0 0 0-.4 1.2c0 .4.1.8.4 1.1.1.4.4.6.8.8.3.3.7.4 1.1.4Zm3.9-5.8h1.2v.8a3.1 3.1 0 0 1 2.3-.8v1.2c-.4 0-.8 0-1.2.2a2.3 2.3 0 0 0-1.1 2v3.6h-1.2v-7Zm7.3 0c.5 0 1.1 0 1.6.3s.9.7 1.2 1.1c.3.4.6 1 .6 1.5v1.2h-5.6a2.3 2.3 0 0 0 2.2 1.7c.3 0 .6 0 1-.2l.7-.5.7 1a5 5 0 0 1-1 .6l-1.4.3a3.6 3.6 0 0 1-2.8-1.5 3 3 0 0 1-.7-1.4v-1.2c.1-.6.3-1 .7-1.5a3 3 0 0 1 1.2-1 3 3 0 0 1 1.6-.4Zm0 1.2c-.5 0-1 .1-1.4.4-.4.3-.7.8-.8 1.3h4.4c0-.5-.4-1-.8-1.3-.4-.3-.9-.5-1.4-.4Zm3.8-1.2h7v1.2l-5.3 4.6h5.3v1.2h-7v-1.2l5.3-4.6h-5.3v-1.2Zm10.8 0a4 4 0 0 1 1.8.4 3.5 3.5 0 0 1 1.8 3 3.6 3.6 0 0 1-3.5 3.5 3.5 3.5 0 0 1-2.4-.8v3.2h-1.2v-5.8c0-.7.2-1.3.5-1.8s.8-1 1.3-1.3c.5-.3 1.1-.4 1.7-.4Zm0 1.2a2.3 2.3 0 0 0-2.3 2.3c0 .4.1.8.3 1.1.2.4.5.6.9.8.3.3.7.4 1.1.4a2.4 2.4 0 0 0 2-1.2 2.4 2.4 0 0 0 0-2.3 2.3 2.3 0 0 0-2-1.1Zm3.9-1.2h1.1v.8a3.4 3.4 0 0 1 2.3-.8v1.2c-.4 0-.8 0-1.1.2-.4.3-.7.5-.9.9-.2.3-.3.8-.3 1.2v3.5H259v-7Zm7.3 0a3.5 3.5 0 0 1 3 5.2c-.3.5-.7 1-1.3 1.3a3 3 0 0 1-1.7.5 4 4 0 0 1-1.8-.5 4 4 0 0 1-1.3-1.3 3.4 3.4 0 0 1 0-3.5c.4-.5.8-1 1.3-1.3a4 4 0 0 1 1.8-.4Zm0 1.2c-.4 0-.8 0-1.2.2a2.3 2.3 0 0 0-1.1 2 2.3 2.3 0 0 0 1.1 2c.4.3.8.4 1.2.4a2 2 0 0 0 1.1-.4c.4-.2.7-.4.9-.8a2.4 2.4 0 0 0 0-2.3 2.3 2.3 0 0 0-2-1.1Z"/></g><path fill="#fff" d="m28.2 149-.3.2c-.2 0-.3 0-.4-.2a5.4 5.4 0 0 0-1.6-.8 5 5 0 0 0-2.8 0c-.4.2-.8.4-1 .7-.4.2-.6.5-.8.8l-.2 1c0 .4.1.8.3 1 .3.4.6.6 1 .8l1.1.5a194.5 194.5 0 0 0 2.8 1c.5.2 1 .4 1.3.7.3.2.6.6.8 1 .3.3.4.8.4 1.4a3.8 3.8 0 0 1-1.3 3c-.4.4-.9.7-1.5.9a6 6 0 0 1-2 .3 6.2 6.2 0 0 1-4.5-1.7l.3-.4.2-.2h.2c.2 0 .3 0 .5.2l.7.4 1 .5c.4.2 1 .2 1.6.2.6 0 1 0 1.5-.2l1.1-.7c.3-.2.6-.6.7-1 .2-.3.2-.7.2-1.1 0-.5 0-.9-.3-1.2-.2-.3-.5-.5-.9-.7-.3-.3-.7-.4-1.2-.6a128.9 128.9 0 0 0-2.8-1c-.5 0-.9-.3-1.2-.6-.4-.2-.7-.6-.9-1-.2-.3-.3-.8-.3-1.4 0-.5 0-1 .3-1.4.2-.5.5-.9.9-1.2l1.4-.8c.6-.2 1.2-.3 2-.3s1.5 0 2.2.3c.6.3 1.2.6 1.8 1.1l-.3.5Zm6.8 12.3a3 3 0 0 1-2.2-.8c-.5-.5-.8-1.3-.8-2.4v-9.4h-2.2l-.1-.3v-.5l2.3-.2.4-5v-.1l.3-.1h.6v5.2h4.4v1h-4.4v9.4c0 .3 0 .7.2 1 0 .2.2.4.4.6l.6.4.7.1.9-.1a4.1 4.1 0 0 0 1-.7l.3-.1.2.1.4.6-1.3 1a5 5 0 0 1-1.7.3Zm5.3-12a6.4 6.4 0 0 1 7-1.8c.5.2 1 .5 1.3 1 .4.4.6.9.8 1.5.2.7.3 1.3.3 2.1v9h-.5c-.3 0-.5-.1-.5-.4l-.2-1.8a13.5 13.5 0 0 1-2.3 1.8 6.1 6.1 0 0 1-4.3.4l-1.2-.6a3 3 0 0 1-.8-1.1c-.2-.5-.3-1-.3-1.7 0-.5.2-1 .5-1.6.3-.5.9-1 1.6-1.3.7-.4 1.6-.7 2.7-.9l4-.4v-1.4c0-1.3-.3-2.3-.8-3-.6-.6-1.4-1-2.5-1-.6 0-1.2.1-1.6.3a6.2 6.2 0 0 0-2 1.2l-.5.3h-.3l-.2-.2-.2-.4Zm8.1 5.1a27 27 0 0 0-3.4.3 9 9 0 0 0-2.3.7 5 5 0 0 0-1.4 1 2 2 0 0 0-.4 1.3c0 .5 0 .8.2 1.2a2.3 2.3 0 0 0 1.5 1.3l1 .2a5.8 5.8 0 0 0 2.8-.7l1-.7 1-1v-3.6Zm15.8-7.1-7.9 18.2-.2.4h-1.4l2.5-5.3-5.8-13.3h1l.4.1.2.2 4.6 10.8.1.4.2.4.1-.4.2-.4 4.5-10.8.2-.2.3-.1h1Zm5.2 1.5.8-.7a5.2 5.2 0 0 1 3.2-1c.7 0 1.4.1 2 .4.6.2 1 .6 1.5 1 .4.5.7 1 .9 1.7l.3 2.1v8.8h-4.2v-8.8c0-.7-.1-1.2-.4-1.6a2 2 0 0 0-1.4-.5c-.4 0-.9 0-1.3.3l-1.1.7v9.9h-4.1v-13.8H68c.5 0 .9.2 1 .7l.3.8Zm16.1 12.5c-.7 0-1.3 0-1.8-.3-.5-.2-.9-.4-1.2-.8-.4-.3-.6-.8-.8-1.3-.2-.5-.3-1-.3-1.6V150h-1.1c-.2 0-.4 0-.6-.2l-.2-.6v-1.6l2.2-.4.8-3.4c.1-.4.4-.6 1-.6h2v4H89v2.8h-3.4v6.9c0 .3 0 .6.2.8.1.2.4.3.7.3a1.3 1.3 0 0 0 .6-.2h.2l.3-.1h.3l.2.4 1.2 2c-.5.3-1 .6-1.8.8-.6.2-1.3.3-2 .3ZM97 147c1 0 2 .2 2.8.6a6.3 6.3 0 0 1 3.7 3.6 9.4 9.4 0 0 1 0 6 6.4 6.4 0 0 1-3.7 3.6 8.2 8.2 0 0 1-5.7 0 6.4 6.4 0 0 1-3.7-3.7 9 9 0 0 1 0-5.9 6.3 6.3 0 0 1 3.7-3.6 8 8 0 0 1 2.9-.5Zm0 11.2c1 0 1.6-.3 2-1 .5-.6.8-1.6.8-3s-.3-2.4-.7-3c-.5-.7-1.2-1-2.1-1-1 0-1.7.3-2.2 1-.4.6-.6 1.6-.6 3s.2 2.4.6 3c.5.7 1.2 1 2.2 1Zm21-10.9V161h-2.6c-.5 0-.9-.2-1-.7l-.3-.8-.8.7a5.1 5.1 0 0 1-3.2 1c-.7 0-1.4-.1-2-.4-.6-.2-1-.6-1.5-1a7 7 0 0 1-.9-1.7c-.2-.7-.3-1.4-.3-2.2v-8.7h4.2v8.7c0 .7.1 1.3.4 1.6.3.4.8.6 1.4.6a3 3 0 0 0 1.3-.3l1.1-.8v-9.8h4.1Zm12.3 3.3-.3.3-.5.2a1 1 0 0 1-.6-.2l-.5-.3-.7-.3a3 3 0 0 0-1-.2c-.6 0-1 0-1.4.3l-.9.8-.5 1.2-.2 1.7c0 1.4.3 2.4.8 3 .5.8 1.2 1.2 2 1.2l1.2-.2.7-.4.6-.4c.1-.2.3-.2.6-.2s.6 0 .7.3l1.2 1.5a6.4 6.4 0 0 1-2.7 2l-1.5.3h-1.5c-.8 0-1.6 0-2.4-.4-.8-.3-1.4-.8-2-1.4a7 7 0 0 1-1.4-2.2c-.3-1-.5-2-.5-3s.1-2 .4-2.8c.3-1 .8-1.7 1.3-2.3.6-.6 1.3-1.1 2.2-1.5a7 7 0 0 1 3-.5 7 7 0 0 1 2.8.5c.8.3 1.6.8 2.2 1.5l-1 1.4Zm7-2.1c.5-.4 1-.8 1.6-1a5 5 0 0 1 2-.4 4 4 0 0 1 2 .4 4 4 0 0 1 1.5 1l1 1.7.3 2.1v8.8h-4.2v-8.8c0-.7-.1-1.2-.4-1.6a2 2 0 0 0-1.4-.5c-.5 0-.9 0-1.3.3l-1.1.7v9.9H133v-20h4.2v7.4Z"/><path fill="#CC2131" fill-rule="evenodd" d="M229.5 158.2c-.9 2.4-3.1 3.9-7 3.9-3 0-6.1-1.8-5.3-6 .6-3.4 3.8-5.7 7.5-5.7 4.1 0 6 2.7 5.3 6l-.1.8H222l-.2.8c0 1 .6 1.4 1.2 1.4.7 0 1.3-.5 1.7-1.2h4.7Zm-4-3.3v-.3c.2-.9-.2-1.5-1.1-1.5-.9 0-1.6.6-1.8 1.8h2.9Zm-9-4.3c-1.3 0-2.3.6-2.9 1.5l.1-1.4h-5l-.3 1.4 2.7-.3v.3l-2.8.5-2 9.2h5.4l.9-4.2c.5-2.5 2-3 2.8-3 .8 0 1.3.3 1.4.4l.9-4.1c-.1 0-.5-.3-1.3-.3Zm-49.3 4.7c-2.2-.7-3.9-2-3.9-4.4 0-3.5 3.6-5.5 8.4-5.5 4 0 6.7 1.7 6.2 5h-5.7c.2-1-.4-1.5-1.4-1.5-.7 0-1.3.4-1.4.9-.1.6.3 1 1.3 1.3l2.3.6c2.4.7 3.6 2.2 3.9 3.6l-7.2.8-2.5-.8Zm.2 3.8.5-2.3h-6.2c-.4 3.8 2.6 5.4 6.5 5.4 3.7 0 7.7-1.3 8.6-4.6l-9.4 1.5Zm31.9-7.6a5 5 0 0 1 3-1.1c1.7 0 3 .6 3.6 2l-12.6 1.3 1.7-8h5.4l-1.2 5.8Zm-.3 2.5a6 6 0 0 0-.9 2.2c-.5 2.2 0 2.7.7 2.7.9 0 1.6-.8 2-2.7.2-1.2.2-2-.1-2.4l5.4-.9c.2.9.3 2 0 3.2-.8 4-3.2 6-6 6-1.1 0-2.5-.3-3-1.6h-.2l-.4 1.3h-5l1.5-6.8 6-1Zm-13.6 3.8c-.1.9-.7 1.6-1.5 1.6s-1.1-.7-1-1.3c.1-.6.7-1.2 1.8-1.2h1l-.3 1ZM184 154c.2-.7.7-1.2 1.4-1.2s1 .6.8 1.2v.4l5-.5c-.4-2.6-2.8-3.7-5.6-3.7-4.2 0-6.2 2-6.6 3.9v.2h5v-.3Zm-6.2 3.4a4 4 0 0 0-.2 1.4c0 1.8 1.3 3.3 3.5 3.3a5 5 0 0 0 3.7-1.4v1h5l1.3-5.7.2-.7-13.5 2.1Z" clip-rule="evenodd"/><g clip-path="url(#u)"><path fill="#00A1E0" d="M261.3 143.8a6.3 6.3 0 0 1 10.2 1.3c1-.4 2-.7 3.1-.7a8 8 0 0 1 7.8 8 7.9 7.9 0 0 1-9.3 7.7 5.7 5.7 0 0 1-7.5 2.4 6.5 6.5 0 0 1-12.1-.3 6.1 6.1 0 0 1-7.3-6 6 6 0 0 1 3-5.3 7 7 0 0 1 12-7.1Z"/><path fill="#fff" d="m251.4 154.2.3.2c.3.2.7.3 1 .3.8 0 1.2-.4 1.2-1 0-.7-.5-.9-1-1-.4-.2-.7-.3-.7-.5 0-.3.2-.4.5-.4l.9.2h.1l.2-.4a2 2 0 0 0-1.2-.4c-.7 0-1.2.4-1.2 1 0 .7.5.9 1 1h.1c.4.2.7.2.7.5 0 .2-.2.4-.5.4-.2 0-.6 0-1-.3h-.2l-.2.4Zm10.9 0 .2.2 1.1.3c.8 0 1.2-.4 1.2-1 0-.7-.5-.9-1-1-.4-.2-.7-.3-.7-.5 0-.3.2-.4.4-.4l1 .2a29.9 29.9 0 0 0 .2-.5 2 2 0 0 0-1-.3h-.1c-.7 0-1.2.4-1.2 1 0 .7.5.9 1 1h.1c.4.2.7.2.7.5 0 .2-.2.4-.6.4 0 0-.5 0-1-.3h-.1l-.2.4Zm7.5-1.2-.2.8-.6.3c-.3 0-.5-.1-.6-.3-.2-.2-.2-.5-.2-.9 0-.3 0-.6.2-.8 0-.2.3-.3.6-.3l.6.3.2.8Zm.6-.7-.3-.6-.5-.3-.6-.2c-.3 0-.5 0-.7.2a1.4 1.4 0 0 0-.8.9v1.3l.3.6.5.3.7.2c.2 0 .4 0 .6-.2a1.4 1.4 0 0 0 .8-.9 2.4 2.4 0 0 0 0-1.3Zm5.1 1.7h-.7a1 1 0 0 1-.7-.2c-.2-.2-.3-.5-.3-.9 0-.3 0-.6.2-.8.2-.2.4-.3.7-.3l.7.1.2-.5a2.5 2.5 0 0 0-1-.2c-.2 0-.4 0-.6.2a1.4 1.4 0 0 0-.8.9l-.1.6c0 .6.1 1 .4 1.3.3.3.7.5 1.2.5l.9-.2-.1-.5Zm1.1-1.4.1-.5.6-.3c.3 0 .5.1.6.3l.2.5h-1.5Zm2-.4a1.3 1.3 0 0 0-.6-.8l-.6-.2c-.3 0-.5 0-.7.2a1.4 1.4 0 0 0-.8.9 2.4 2.4 0 0 0 0 1.3l.3.6.6.3.7.2c.6 0 1-.2 1-.3h.1l-.1-.4c0-.1-.1 0-.1 0h-.9c-.3 0-.6 0-.7-.2-.2-.1-.2-.4-.2-.7h2.1v-1Zm-18.9.4.2-.5c.1-.2.3-.3.6-.3s.5.1.6.3l.1.5h-1.5Zm2.1-.4c0-.2-.2-.4-.3-.5a1.2 1.2 0 0 0-1-.5c-.2 0-.5 0-.6.2a1.4 1.4 0 0 0-.8.9 2.4 2.4 0 0 0 0 1.3l.3.6.5.3.8.2c.6 0 1-.2 1-.3v-.4c-.1-.1-.2 0-.2 0h-.8c-.3 0-.6 0-.7-.2-.2-.1-.3-.4-.3-.7h2.1s.2-.5 0-1Zm-6.6 1.8-.1-.1-.1-.3c0-.2 0-.3.2-.4 0 0 .2-.2.6-.2h.6v1l-.6.1-.6-.1Zm.8-1.5h-.3a2 2 0 0 0-.5 0l-.5.3a1 1 0 0 0-.3.3v1l.3.3.4.2h1.2l.5-.1h.2v-2.1c0-.4 0-.7-.3-.9-.2-.2-.5-.3-1-.3h-.5l-.7.3v.1l.2.4 1-.2c.2 0 .4 0 .5.2.1 0 .2.2.2.5h-.4Zm17-1.1-.4-.1a1 1 0 0 0-1 .3v-.2h-.5v3.1h.6v-2.1l.3-.3.2-.2a1 1 0 0 1 .5 0h.1l.2-.5Z"/><path fill="#fff" d="M267.8 150a1.7 1.7 0 0 0-.5-.1c-.4 0-.7 0-.9.3-.2.2-.3.5-.4 1v.1h-.5l-.2.5h.6l-.5 2.7-.1.5c0 .2-.1.3-.2.3 0 .1 0 .2-.2.2a.8.8 0 0 1-.4 0h-.1a81.3 81.3 0 0 0-.2.5h.2l.3.1h.5l.4-.4.3-.4.2-.7.4-2.7h.8v-.5h-.7l.1-.6.2-.2.2-.1h.6l.1-.5Zm-9.4 4.5h-.6V150h.6v4.5Z"/></g><g fill="#fff" clip-path="url(#v)"><path d="M66.8 185.2h-5.2v19h5.2v-19Zm48.2 2.6a8.1 8.1 0 0 0 0 16.3c3.7 0 6.7-2.3 7.8-5.5h-5.1a3.7 3.7 0 0 1-6-1.2H123a8.1 8.1 0 0 0-8-9.6Zm-3.3 6.6a3.7 3.7 0 0 1 6.7 0h-6.7Zm22.4-2.1v-4.1H131v-3h-5.2V198c0 3.4 2.8 6.2 6.2 6.2h2.2V199H132a1 1 0 0 1-1-1.1v-5.6h3.2ZM77 187.8a8.1 8.1 0 1 0 3.2 15.7v.7h5V196c0-4.5-3.7-8.2-8.1-8.2Zm0 11.9c-2 0-3.6-1.7-3.6-3.7a3.7 3.7 0 1 1 7.3 0c0 2-1.6 3.7-3.6 3.7Zm-25.6-11.9a8.1 8.1 0 0 0-8 8.2v10.7h5v-3.2c.9.4 2 .7 3 .7a8.1 8.1 0 0 0 0-16.4Zm0 11.9c-2 0-3.6-1.7-3.6-3.7a3.7 3.7 0 1 1 7.3 0c0 2-1.6 3.7-3.7 3.7Zm45-11.9a8.1 8.1 0 0 0-8.2 8.2v8.2h5.2v-8.4a3 3 0 1 1 5.8 0v8.3h5.3V196c0-4.5-3.7-8.2-8.1-8.2ZM42.1 190c.8-2 0-4.1-2-5-1.9-.7-4 .2-4.8 2-.8 2 .1 4.1 2 5 1.9.7 4-.2 4.8-2Z"/></g><path fill="#fff" fill-rule="evenodd" d="M198 208.5v.2h.1-.4.1v-1h.5c.2 0 .3 0 .3.2s-.2.3-.3.3l.3.4h.1v.1h-.2l-.3-.4-.1-.1h.1l.2-.3c0-.1 0-.2-.2-.2h-.2v.8Z" clip-rule="evenodd"/><path fill="#fff" fill-rule="evenodd" d="M198.2 209.3a1.1 1.1 0 1 0 0-2.2 1.1 1.1 0 0 0 0 2.2Zm-1-1a.9.9 0 0 1 1-1 .9.9 0 0 1 1 1 1 1 0 0 1-2 0Zm-43.9 3v.3h.5v.2a17.3 17.3 0 0 0-1.4 0v-.1h.2l.2-.1v-1.4H151v1.4h.4v.2a17.3 17.3 0 0 0-1.3 0v-.1h.2l.2-.1v-2.9h-.4v-.2a18.6 18.6 0 0 0 1.3 0v.2h-.4v1.3h1.9v-1.3h-.5v-.2a18.6 18.6 0 0 0 1.4 0v.2h-.5v2.5Zm2.8-1.1c0-1 .7-1.8 1.8-1.8 1 0 1.7.6 1.7 1.7 0 1-.7 1.8-1.8 1.8-1 0-1.7-.7-1.7-1.7Zm.6-.2c0 .8.3 1.7 1.3 1.7.8 0 1.1-.6 1.1-1.5 0-1-.4-1.6-1.3-1.6-.8 0-1.1.6-1.1 1.4Zm9.7 1.2v.4h.5v.2a17.3 17.3 0 0 0-1.4 0v-.1h.2l.2-.1V209l-.2.4-.8 1.7-.3.6-1.4-2.7v2.5h.5v.2h-1.1v-.1h.2l.2-.1v-2.9h-.4v-.2h.9l1.2 2.6 1.2-2.6h.9v.2h-.4v2.5Zm3.6-2.1v-.4h-.5v-.2h2.5v.8h-.2v-.4a3 3 0 0 0-1.4-.1v1.2a9 9 0 0 0 1 0l.1-.1v-.3h.2v1.1h-.2v-.4h-1.1v1.3h1.4l.1-.6h.2v.8h-2.5v-.1h.1l.2-.1V209Zm6.2.1v-.4h-.7l-.2.1v.4h-.2v-.8h2.7v.8h-.2v-.4l-.2-.1h-.7v2.8h.5v.2a17.3 17.3 0 0 0-1.4 0v-.1h.2l.2-.1v-2.4Zm5.5 2v.4h.4v.2a17.3 17.3 0 0 0-1.4 0v-.1h.3l.2-.1v-2.9h-.5v-.2a18 18 0 0 0 1.4 0v.2h-.4v2.5Zm7.5 0v.4h.5v.2a17.3 17.3 0 0 0-1.3 0v-.1h.2l.2-.1V209l-.2.4-.9 1.7-.2.6h-.1l-1.3-2.7v2.5h.4v.2h-1.1v-.1h.2l.2-.1v-2.9h-.4v-.2h.9l1.3 2.6 1.2-2.6h.9v.2h-.4v2.5Zm4-2.1-.1-.4h-.5v-.2h2.6l-.1.8h-.2v-.4a3 3 0 0 0-1.3-.1v1.2a9 9 0 0 0 1 0v-.4h.2v1.1h-.1v-.3l-.1-.1h-1v1.3h1.3l.2-.6h.1v.8h-2.5v-.1h.2l.2-.1V209ZM164.8 194c2-2 4.5-3.2 7.4-3.3v-11A22 22 0 0 0 157 186l7.9 7.9Zm6.8-13.8v10c-2.6.2-5 1.3-6.8 3l-7.2-7.1c3.8-3.7 8.8-5.7 14-6Zm8.3 14c-2-2-4.5-3-7.2-3v10.2l7.2-7.3Zm-6.7-2.5c2.2.2 4.3 1 6 2.4l-6 6v-8.3Zm-8.8 2.7-7.9-8a22.7 22.7 0 0 0-6.3 15.7h11.2c0-3 1.2-5.7 3-7.7Zm-3.5 7.2h-10.2a22 22 0 0 1 5.8-14.4l7.2 7.2a12 12 0 0 0-2.8 7.2Zm11.8-10.4Z" clip-rule="evenodd"/><path fill="#fff" fill-rule="evenodd" d="m180.4 193.7 7.7-7.7a22 22 0 0 0-15.3-6.3v11a11 11 0 0 1 7.6 3Zm-7-13.5c5.2.2 10.1 2.2 14 5.8l-7 7c-2-1.7-4.5-2.7-7-2.8v-10Zm-8.6 14.5a11 11 0 0 0-2.7 7.4h10.1l-7.4-7.4Zm0 .8 6.2 6h-8.4c.1-2.1.9-4.3 2.3-6Zm23.7-9.1-7.8 7.7c2 2.1 3.1 4.8 3.1 8h11a23 23 0 0 0-6.3-15.7Zm-7 7.8 7-7c3.6 3.9 5.6 9 5.8 14.4h-10c0-3-1-5.4-2.8-7.4Zm-9.2-3c-2.7.1-5.2 1.2-7.1 3l7 7.2v-10.2Zm-.6 8.9-5.8-5.8a10 10 0 0 1 5.8-2.5v8.3Zm9-6Z" clip-rule="evenodd"/><path fill="#fff" fill-rule="evenodd" d="M172.8 202h10.5c0-3-1-5.5-3-7.5l-7.5 7.6Zm1.3-.4 6.3-6.3c1.4 1.7 2.3 3.8 2.4 6.3H174Z" clip-rule="evenodd"/><g clip-path="url(#w)"><path fill="#BA0239" d="M229.6 205.3v-.4a152.7 152.7 0 0 1 .7-3.4h-14.6v-.4l.3-1.6a385.6 385.6 0 0 0 2.6-12.5h14.8v.4a101.8 101.8 0 0 0-.6 2.5v.2h-10v.2a15.5 15.5 0 0 0-.4 1.9v.4a76.7 76.7 0 0 0 8.6.1l-.1 1a254.1 254.1 0 0 0-.5 1.9v.1h-8.7l-.5 2.6h9.8l.1-.4a232 232 0 0 1 1.5-7.2l.2-.5h4.1v.7l-.1.7h.1l1.3-1c1.2-.6 2.7-.8 4.3-.7a5 5 0 0 1 3.2 1.4 4 4 0 0 1 1.1 2.3l.1.1.4-1.5.5-2h4.2v.3l-.1.8a182.4 182.4 0 0 0-.3 2.3 8 8 0 0 1 2.2-2.3 12 12 0 0 1 7.2-1.5c1.6 0 2.5.3 3.4.7a3.4 3.4 0 0 1 2.1 3.1v.6H262v-.3c-.3-.8-1-1.1-2-1.2-1.5-.2-2.6.2-3.5 1-1 1-1.5 3-1 4 .4.9 1.3 1.3 2.6 1.3 1.4 0 2.5-.5 3.2-1.6l.3-.4h2.2l2.3.1-.2.6c-1.4 2.5-3.4 3.7-6.6 4.1H255c-1-.2-1.6-.4-2.4-.8a4 4 0 0 1-1.7-1.7l-.4-1.3c0-.3 0-.3-.2 0l-.2 1.3-.3 1.3-.1.6-.1.2h-4.2c0-.1 0-.8.4-2a31.9 31.9 0 0 0 0-1.2c-.3.7-1.2 1.6-1.8 2a8 8 0 0 1-5 1.7c-1.7 0-2.9-.4-3.7-1.1l-.3-.3-.1.4-.3 1.3a285 285 0 0 1-.5 2.4l-.1.5v.2h-4.4Zm10.2-6.7c1.2-.4 2-1.2 2.4-2.5a3 3 0 0 0 0-1.9c-.2-.4-.6-.8-1-1-.8-.3-2-.3-2.8 0a3.5 3.5 0 0 0-2.5 3.3l.1 1c.3.6 1 1 1.8 1.2l2-.1Zm8.3-10 .4-2.2v-.2h4.4l-.3 1.7-.2.7v.2H248v-.2Z"/></g><g fill="#fff" clip-path="url(#x)"><path d="m35 243.8 2.2.2c-.3 1-1 2-2.1 3a5.7 5.7 0 0 1-4.1 1.4c-1 0-1.9-.1-2.6-.6a4.6 4.6 0 0 1-1.9-2c-.4-.8-.6-1.8-.6-2.9a8.8 8.8 0 0 1 3.6-7c1-.7 2.2-1 3.4-1a5 5 0 0 1 3.8 1.5c.9.9 1.3 2.2 1.3 3.9 0 .6 0 1.2-.2 1.9h-9.7v.7c0 1.2.3 2.1.9 2.8.6.6 1.2 1 2 1a4 4 0 0 0 2.3-.8 5 5 0 0 0 1.8-2.1Zm-6.4-3.3h7.3v-.5c0-1-.3-1.9-.8-2.6-.6-.5-1.3-.8-2.2-.8-1 0-1.8.3-2.6 1-.8.6-1.4 1.6-1.7 3Zm23.4 1.3 2.4.3c-.7 2-1.8 3.7-3.3 4.7a7.7 7.7 0 0 1-4.8 1.6 7 7 0 0 1-5.3-2c-1.2-1.2-1.9-3.1-1.9-5.6 0-3.3 1-6 3-8 1.6-2 3.8-2.9 6.4-2.9 2 0 3.5.5 4.7 1.5a6.4 6.4 0 0 1 2 4.2l-2.2.2a5.1 5.1 0 0 0-1.5-3c-.8-.5-1.7-.9-2.9-.9-2.2 0-4 1-5.4 3a10 10 0 0 0-1.7 6c0 1.8.4 3.1 1.3 4.1 1 1 2.1 1.4 3.6 1.4 1.2 0 2.4-.3 3.4-1.1a7 7 0 0 0 2.2-3.5Zm2.7 6.4 3.8-18h2.2l-3.8 18h-2.2Zm4.7 0 2.7-13h2.3l-2.8 13h-2.2Zm3.2-15.4.5-2.5h2.3l-.5 2.5h-2.3Zm1.5 15.4 2.7-13h2l-.4 2.2c.9-.8 1.7-1.5 2.5-1.9a5 5 0 0 1 2.4-.6c1 0 1.9.3 2.5.9a3 3 0 0 1 1 2.3l-.4 2.3-1.8 7.8h-2.3l1.9-8.3.2-1.7c0-.4-.1-.8-.4-1.1-.3-.2-.7-.4-1.3-.4-1.2 0-2.2.4-3.2 1.2-.9.9-1.6 2.3-2 4.2l-1.2 6h-2.2Zm13 0 2.6-13H82l-2.8 13H77Zm3.2-15.4.5-2.5H83l-.5 2.5h-2.2Zm10.4 10.6 2.2.3a7.7 7.7 0 0 1-2.4 3.6 5.7 5.7 0 0 1-3.6 1.1c-1.3 0-2.5-.4-3.4-1.3-.9-1-1.4-2.2-1.4-3.8 0-1.5.3-2.9 1-4.2a6.3 6.3 0 0 1 2.4-3.2c1-.6 2.3-1 3.6-1 1.4 0 2.5.4 3.4 1.2.7.8 1.2 1.8 1.2 3l-2.2.3a3 3 0 0 0-.7-2c-.5-.5-1.1-.7-2-.7-.9 0-1.6.3-2.3.8-.7.6-1.2 1.4-1.5 2.6a9.6 9.6 0 0 0-.6 3.3c0 1.1.2 2 .7 2.5.5.6 1.1.9 1.9.9a3 3 0 0 0 2.1-.9c.7-.5 1.2-1.4 1.6-2.5Zm11.3 3.1a9 9 0 0 1-2.2 1.5 5 5 0 0 1-2.3.4c-1.1 0-2.2-.3-3-1a4 4 0 0 1-1-2.7c0-.7.2-1.4.5-2 .3-.5.8-1 1.3-1.3.6-.3 1.3-.6 2-.7l3-.3c1.4 0 2.4-.1 3-.4l.2-1.5c0-.5-.1-.9-.6-1.1-.5-.5-1.2-.7-2.2-.7-1 0-1.7.2-2.3.7-.7.4-1.1 1-1.4 1.7l-2.2-.2a6.6 6.6 0 0 1 2.2-3c1-.7 2.2-1 3.7-1a6 6 0 0 1 4 1.1c.7.6 1 1.4 1 2.3 0 .6 0 1.5-.3 2.4l-.7 3.2a11 11 0 0 0-.4 2.5l.3 1.8h-2.3l-.2-1.7Zm1-4.9-1 .2-1.8.3c-1.4 0-2.3.2-2.8.4-.6.2-1 .5-1.3.8-.2.5-.4.9-.4 1.3 0 .7.2 1.2.7 1.6.4.4 1 .6 1.8.6s1.4-.2 2.1-.6c.8-.4 1.3-1 1.7-1.6.4-.8.7-1.8 1-3Zm3.1 6.6 3.8-18h2.2l-3.8 18h-2.2Zm8.3 0-1.2-18h2.5l.4 8.9.2 3.5v2.2l2.2-4.2 5.5-10.3h2.5l.6 10.5.1 4.3.8-2c.7-1.2 1-2.2 1.3-2.8l5.2-10h2.5l-9.3 17.9h-2.6l-.5-10.8-.2-3.5-1.3 2.6-6.2 11.7h-2.5Zm18.6-4.9a9 9 0 0 1 2.2-6.4c1.2-1.3 3-2 5-2a5 5 0 0 1 3.7 1.5c1 1 1.5 2.3 1.5 4 0 1.4-.3 2.8-1 4.1a6.6 6.6 0 0 1-6.1 4c-1 0-2-.2-2.8-.7-.9-.5-1.4-1-1.9-1.8s-.6-1.7-.6-2.7Zm2.2-.3c0 1.3.2 2.2.8 2.8.7.6 1.4 1 2.3 1 .5 0 1-.1 1.4-.3.5-.2 1-.5 1.4-1a5 5 0 0 0 1-1.2 5 5 0 0 0 .7-1.7c.3-.8.4-1.6.4-2.3 0-1.2-.3-2.1-1-2.8a3 3 0 0 0-2.2-.9c-.7 0-1.3.2-1.9.5a5.5 5.5 0 0 0-2.6 3.7c-.3.8-.3 1.5-.3 2.2Zm10.3 5.2 2.7-13h2l-.5 2.7c.6-1 1.3-1.8 2-2.3a3 3 0 0 1 2-.7c.4 0 1 .1 1.6.5l-1 2c-.3-.2-.8-.4-1.2-.4-.7 0-1.6.4-2.4 1.3-.9.9-1.5 2.4-2 4.6l-1 5.3h-2.2Zm7.6 0 3.7-18h2.3l-2.4 11.2 6.6-6.2h3l-5.6 4.8 3.4 8.2h-2.5l-2.6-6.7-2.8 2.3-.9 4.4h-2.2Z"/><path d="m164.2 243.8 2.3-.2c0 .7.1 1.2.3 1.7.1.4.6.7 1 1a5 5 0 0 0 2 .5c1 0 1.7-.2 2.2-.6.5-.4.8-.9.8-1.4a2 2 0 0 0-.5-1.1c-.3-.4-1-.8-2.2-1.3l-2.3-1a3 3 0 0 1-1.3-1.2c-.2-.4-.4-1-.4-1.5 0-1.1.4-2 1.3-2.7.7-.7 2-1.1 3.4-1.1 1.6 0 2.9.4 3.8 1.1.9.8 1.3 1.8 1.3 3l-2.1.2c0-.8-.4-1.4-.9-2-.5-.3-1.2-.6-2.2-.6a3 3 0 0 0-1.8.5c-.5.4-.7.8-.7 1.2 0 .4.2.8.5 1.1l2 1c1.7.7 2.8 1.3 3.2 1.7.7.7 1.1 1.5 1.1 2.4 0 .7-.2 1.3-.6 2-.4.5-1 1-1.8 1.4-.8.4-1.8.5-3 .5-1.5 0-2.7-.3-3.8-1-1-.8-1.6-2-1.6-3.6Z"/></g><g fill="#fff" clip-path="url(#y)"><path d="M225.4 243.4c-2.3 0-4.6-1.7-4.6-5.5s2.3-5.4 4.6-5.4c1.2 0 2 .3 2.7.7l-.7 1.6c-.4-.3-1.1-.5-1.7-.5-1.4 0-2.7 1-2.7 3.7 0 2.6 1.3 3.7 2.7 3.7.6 0 1.3-.2 1.7-.5l.7 1.5a5 5 0 0 1-2.7.7Zm10.9-.2v-7c0-1.3-.8-2-2.2-2-.7 0-1.4.2-1.9.5v8.4h-2V228h2v5.2a6 6 0 0 1 2.3-.6c2.4 0 4 1.3 4 3.5v7.1h-2.2Zm9.7-8.9-1.1-.1c-.7 0-1.3 0-1.7.3v8.6h-2v-10a11 11 0 0 1 5.2-.6l-.4 1.8Zm5.5 9.1c-3 0-4.6-2.3-4.6-5.5 0-3.1 1.7-5.4 4.6-5.4 3 0 4.6 2.3 4.6 5.4 0 3.1-1.6 5.5-4.6 5.5Zm0-9.2c-1.6 0-2.4 1.5-2.4 3.7 0 2.3.8 3.8 2.4 3.8 1.7 0 2.5-1.5 2.5-3.8 0-2.2-.8-3.7-2.5-3.7Zm13.1 9v-7c0-1.3-.8-2-2.2-2a7 7 0 0 0-2 .3v8.6h-2v-9.9c1-.4 2.3-.7 4-.7 2.9 0 4.3 1.3 4.3 3.5v7.1h-2.1Zm8.9.2c-3 0-4.6-2.3-4.6-5.5 0-3.1 1.6-5.4 4.6-5.4 3 0 4.6 2.3 4.6 5.4 0 3.1-1.6 5.5-4.6 5.5Zm0-9.2c-1.6 0-2.4 1.5-2.4 3.7 0 2.3.8 3.8 2.4 3.8 1.6 0 2.5-1.5 2.5-3.8 0-2.2-.9-3.7-2.5-3.7Zm-74.2 3.9c0 2.3 1 3.7 3 3.7.5 0 1.2-.1 1.5-.3v-7l-1.5-.2c-2 0-3 1.6-3 3.8Z"/><path d="M213.2 224H197a3.8 3.8 0 0 0-3.8 3.9v16.3c0 2 1.7 3.8 3.8 3.8h16.3c2.1 0 3.8-1.7 3.8-3.8v-16.3c0-2.1-1.7-3.9-3.8-3.9Zm-7.3 18.8c-.7.3-2.1.7-3.6.7-3.3 0-5.1-2-5.1-5.4 0-3.2 1.7-5.4 4.9-5.4.6 0 1.3.1 1.7.3v-5h2l.1 14.8Zm7.5-8.4-1-.1c-.7 0-1.3 0-1.7.3v8.7h-2.2v-10a11 11 0 0 1 5.3-.7l-.4 1.8Zm22.3 15 .8-.2c.3 0 .6 0 .8.2.3.1.5.4.6.6.2.3.2.6.2 1 0 .3 0 .6-.2.8-.1.3-.3.5-.6.6-.3.2-.5.3-.8.3-.3 0-.6 0-.8-.2l-.5-.5v.6h-.6V248h.6v1.9l.5-.5Zm1.7.9c-.1-.2-.2-.4-.4-.4l-.6-.2c-.2 0-.4 0-.6.2a1 1 0 0 0-.5.4l-.1.7.1.6.5.5h1.2l.4-.5c.2-.2.2-.4.2-.6 0-.3 0-.5-.2-.7Zm4.5-1-2.1 5h-.6l.6-1.6-1.3-3.4h.6l1 2.7 1.2-2.7h.6Zm27.6 1.8v1.6h-.9v-.2a2 2 0 0 1-2.6-.6l.7-.7c.1.3.3.5.5.6.6.4 1.4 0 1.4-.8 0-.5-.4-1-1-1-.2 0-.5.2-.6.4l-1 1-1 1.1c-1.6 1-3.4-.9-2.5-2.4a1.8 1.8 0 0 1 3.2 0l-1.4 1.5-.6-.5.7-1c-.6-.3-1.3.2-1.3 1 0 .4.4.9.9.9.3 0 .5-.2.7-.4l1-1 1-1.2c1.3-.7 2.8.4 2.8 1.7Zm-15.1.2h-2.3c0 .2.2.4.3.5.1.2.4.2.6.2.3 0 .7-.1 1-.4l.3.6c-.4.4-.8.6-1.3.6a2 2 0 0 1-1-.3c-.3-.1-.5-.4-.6-.6a2 2 0 0 1-.3-1c0-.3.1-.6.3-.8a1.8 1.8 0 0 1 1.5-1l.9.2.5.6c.2.3.2.5.2.8v.6Zm-2-1.1a1 1 0 0 0-.3.5h1.5c0-.2 0-.4-.2-.5a.7.7 0 0 0-.5-.2c-.2 0-.4 0-.6.2Zm-5.2-1.2H245v.9h1.6v.8H245v1.1h2.2v.9h-3.1v-4.5h3v.8Zm3.8.3-1.6 3.4h-.3l-1.7-3.4h1l.9 1.9.8-2h1Zm6.2 0v.8h-.3c-.2 0-.5 0-.6.2-.2.1-.3.4-.3.7v1.7h-.9v-3.4h.9v.4l.4-.3.5-.1h.3Zm4.3 3.4h-.9v-2h-2v2h-.8v-4.5h.9v1.7h2v-1.7h.8v4.5Zm9.4 0h-1v-4.5h1v4.5Zm3.1-.8v.7l-.7.1c-.4 0-.8-.1-1-.3-.2-.2-.4-.5-.4-1V250h-.5v-.7h.5v-.9h1v.9h.9v.7h-1v1.3c0 .2 0 .4.2.5l.4.1h.5Zm3.2-2.3c.3.2.4.6.4 1v2h-1v-1.9l-.1-.5a.6.6 0 0 0-.5-.1l-.4.1c-.2.2-.2.3-.2.5v2h-1V248h1v1.4l.4-.2.5-.1c.4 0 .7.1 1 .4Zm.8-.6h-.2l-.1-.1-.1-.2v-.3l.1-.2h.1l.2-.1h.1l.2.1v.2l.1.1v.2l-.1.2h-.2l-.1.1Zm0 0 .1-.1h.2v-.5l-.2-.1h-.4v.1l-.1.1v.2l.1.1h.1l.2.1Zm0-.2h-.2v-.4h.3v.2l.1.2-.2-.2v.2Zm0-.3v-.1h-.1v.1Z"/></g><g clip-path="url(#z)"><path fill="#fff" d="M57.6 286v-20.5a32.2 32.2 0 0 1 6-.5c3 0 5.2.5 6.7 1.7 1.5 1.1 2.2 3 2.2 5.5 0 2.3-.7 4.1-2.2 5.3-1.5 1.3-3.8 1.9-6.9 1.9a26.1 26.1 0 0 1-2.7-.1v6.7h-3.1Zm5.8-9c2.2 0 3.7-.4 4.7-1.1 1-.8 1.4-2 1.4-3.7 0-1.7-.5-3-1.4-3.7-1-.8-2.4-1.2-4.3-1.2a20.2 20.2 0 0 0-3.1.3v9.3a22.6 22.6 0 0 0 2.7.1Zm12.6 9v-15.3h2.4l.3 2h.2c.5-.7 1.2-1.3 2-1.6a6.3 6.3 0 0 1 3.3-.6l.6.1v2.8h-.7l-.8-.1a6.3 6.3 0 0 0-3 .8c-.6.3-1 .7-1.3 1V286h-3Zm14.8.2c-1.6 0-2.9-.4-3.7-1.2a4 4 0 0 1-1.4-3c0-1.4.5-2.4 1.5-3.2 1-.8 2.5-1.2 4.6-1.4l4.2-.4.3 1.8-4.2.4c-1.2.1-2 .4-2.6.8a2 2 0 0 0-.7 1.7c0 .7.2 1.3.7 1.7.4.4 1.2.6 2.1.6.7 0 1.3 0 2-.3.6-.3 1.2-.7 1.7-1.2v-6.3a4 4 0 0 0-.4-2c-.3-.6-.8-.9-1.4-1.1-.6-.2-1.3-.3-2.3-.3a15.4 15.4 0 0 0-4.4.7v-2.3l2.4-.6 2.5-.1c1.5 0 2.7.1 3.7.5a4 4 0 0 1 2.2 1.8c.4.9.7 2 .7 3.6v9.6h-2.6l-.2-1.7h-.1c-.6.6-1.2 1-2 1.4a7 7 0 0 1-2.6.5Zm9.7-.2 5.8-7.7 1.9-2.2 4-5.4h3.4l-5.7 7.5-1.8 2.1-4.3 5.7h-3.3Zm11.8 0-4.2-5.7-1.8-2-5.7-7.6h3.4l4.2 5.4 1.7 2.1 5.9 7.7h-3.5Zm7.3-18.3c-.6 0-1.1-.1-1.5-.4-.3-.3-.5-.7-.5-1.3 0-.5.2-1 .5-1.2.4-.3.9-.5 1.5-.5.7 0 1.2.2 1.5.5.3.3.5.7.5 1.2 0 .6-.2 1-.5 1.3-.3.3-.8.4-1.5.4Zm-1.5 18.3v-15.3h3V286h-3Zm11.6.2a19.2 19.2 0 0 1-4.8-.6v-2.3a17 17 0 0 0 4.8.7c1.3 0 2.3-.2 2.9-.6a2 2 0 0 0 .3-3c-.3-.3-.9-.5-1.7-.7l-2.4-.4a6.3 6.3 0 0 1-3.3-1.5 4 4 0 0 1-1-2.7 4 4 0 0 1 1.7-3.4c1.1-.8 2.8-1.2 5.2-1.2a17.1 17.1 0 0 1 4 .5v2.2a13.6 13.6 0 0 0-6.4-.2c-.5.2-1 .5-1.2.8a2 2 0 0 0-.3 1.1c0 .5.1 1 .4 1.3.3.4.9.6 1.7.8l2.4.4c1.5.2 2.6.7 3.3 1.4a4 4 0 0 1 1 2.8 4 4 0 0 1-1.7 3.4 8.1 8.1 0 0 1-4.9 1.2Zm13.1-20.8c.3.1.5.4.7.7.2.2.2.6.2 1 0 .3 0 .6-.2 1l-.7.6a2 2 0 0 1-1 .2 2 2 0 0 1-1-.2l-.6-.7a2 2 0 0 1-.2-1c0-.3 0-.7.2-1 .2-.2.4-.5.7-.6a2 2 0 0 1 1-.3l1 .3Zm0 3c.2 0 .3-.2.5-.5l.2-.9c0-.3 0-.6-.2-.8a.9.9 0 0 0-.6-.6c-.2-.2-.5-.2-.8-.2-.4 0-.7 0-.9.2-.3.1-.4.3-.6.6l-.2.8c0 .4 0 .7.2 1 .2.2.3.4.6.5l.9.2c.3 0 .6 0 .8-.2Zm-.3-1.4-.3.2.5.7h-.3l-.5-.7h-.4v.7h-.3v-1.8h.6l.6.1.2.5-.1.3Zm-.6 0h.3l.1-.3c0-.3-.1-.4-.4-.4h-.4v.7h.4ZM58 292.7h2.8v.5h-3.3v-4.6h3.2v.4h-2.6v1.6h2.3v.4h-2.3v1.7Zm3.5.5v-5h.5v5h-.5Zm4.3-1.5h-2.4c0 .4.1.7.3.8.2.2.6.3 1 .3l1-.1v.4l-1 .1c-.7 0-1.1-.1-1.4-.4-.3-.3-.5-.7-.5-1.3l.2-1 .5-.5c.3-.2.5-.2.9-.2s.8.1 1 .4c.3.3.4.7.4 1.3v.2Zm-2.2-1.3-.2 1h2c0-.5-.2-.8-.3-1a1 1 0 0 0-.7-.3c-.4 0-.6.1-.8.3Zm3.2 2.4c-.3-.3-.4-.7-.4-1.3 0-.6.1-1 .4-1.3.3-.3.8-.4 1.4-.4h.8v.5a3.3 3.3 0 0 0-.8-.1c-.4 0-.8.1-1 .3-.2.2-.3.5-.3 1 0 .4.1.8.3 1 .2.2.5.3.9.3h.4l.5-.2v.5l-1 .1c-.5 0-1-.1-1.2-.4Zm4.9-.1v.5h-.6c-.4 0-.7 0-.9-.3-.2-.2-.3-.5-.3-.9v-1.8h-.7v-.4h.7v-1.2h.5v1.2h1.2v.4h-1.2v1.7c0 .3 0 .6.2.7l.6.2h.5Zm.5-2.9h.5v.5l.5-.4a1.6 1.6 0 0 1 1 0v.4h-1l-.5.4v2.5h-.5v-3.4Zm2.9 3.2c-.2 0-.4-.3-.5-.5-.2-.3-.2-.6-.2-1s0-.7.2-1l.5-.5c.3-.2.6-.2.9-.2.5 0 .9.1 1.2.4.3.3.4.7.4 1.3 0 .4 0 .7-.2 1a1 1 0 0 1-.6.5c-.2.2-.5.2-.8.2-.3 0-.6 0-.9-.2Zm2-1.5c0-.5-.1-.8-.3-1-.2-.2-.5-.3-.8-.3-.4 0-.6 0-.8.3-.2.2-.3.5-.3 1 0 .9.4 1.3 1.1 1.3.7 0 1-.4 1-1.3Zm1.3-1.7h.4v.4h.1l.6-.3.6-.1c.4 0 .7 0 1 .3.2.2.3.5.3 1v2h-.5v-2a1 1 0 0 0-.3-.7l-.6-.2-.6.1-.5.4v2.5h-.5v-3.4Zm3.9-.8v-.5h.6v.5h-.6Zm0 4.2v-3.4h.5v3.4h-.5Zm1.7-.4c-.2-.3-.4-.7-.4-1.3 0-.6.2-1 .5-1.3.3-.3.8-.4 1.3-.4h.9v.5a3.3 3.3 0 0 0-.8-.1c-.5 0-.8.1-1 .3-.2.2-.3.5-.3 1 0 .4 0 .8.3 1 .2.2.5.3.9.3h.4l.5-.2v.5l-1 .1c-.5 0-1-.1-1.2-.4Zm8.7-4.2h.7v4.6h-.5v-3.9l-1.7 3.2h-.5l-1.6-3.1v3.8h-.5v-4.6h.6L91 292l1.7-3.4Zm4.5 3.1h-2.4c0 .4 0 .7.3.8.2.2.5.3 1 .3l1-.1v.4l-1 .1c-.7 0-1.1-.1-1.4-.4-.3-.3-.5-.7-.5-1.3 0-.4 0-.7.2-1l.5-.5c.3-.2.5-.2.8-.2.5 0 .9.1 1.1.4.3.3.4.7.4 1.3v.2Zm-2.2-1.3c-.2.2-.2.5-.3 1h2c0-.5 0-.8-.2-1-.2-.2-.4-.3-.8-.3a1 1 0 0 0-.7.3Zm3.5 2.6c-.2 0-.4-.3-.6-.5a2 2 0 0 1-.1-1c0-.5.1-1 .4-1.3.3-.3.8-.4 1.4-.4h.7v-1.6h.6v5h-.5v-.4l-.5.3-.6.1c-.3 0-.6 0-.8-.2Zm1.4-.3c.2 0 .3-.2.4-.4v-2l-.7-.1c-.4 0-.8 0-1 .3-.2.2-.3.6-.3 1 0 .9.3 1.3 1 1.3l.6-.1Zm2-3.7-.1-.2v-.3h.6v.5h-.5Zm0 4.2v-3.4h.5v3.4h-.5Zm1.7-.4c-.3-.3-.4-.7-.4-1.3 0-.6.1-1 .4-1.3.3-.3.8-.4 1.4-.4h.8v.5a3.3 3.3 0 0 0-.8-.1c-.4 0-.8.1-1 .3-.2.2-.3.5-.3 1 0 .4.1.8.3 1 .2.2.5.3.9.3h.4l.5-.2v.5l-1 .1c-.5 0-1-.1-1.2-.4Zm4.7-2.9c.2 0 .4.2.5.4l.2.7v2.2h-.5v-.4l-.5.3a1.7 1.7 0 0 1-1.3 0 .8.8 0 0 1-.4-.3v-.5c0-.3 0-.5.2-.7a2 2 0 0 1 1-.3h1v-.3c0-.2 0-.4-.2-.5l-.3-.3h-.5a3.6 3.6 0 0 0-1 .1v-.4l.5-.1h1.3Zm-.3 2.8c.2 0 .3-.1.5-.3v-.8h-1l-.6.3-.2.4.2.4.6.1h.5Zm2 .5v-5h.4v5h-.5Zm6.2 0-1.6-2h-1v2h-.5v-4.5l1.4-.2c.4 0 .8 0 1 .2.4 0 .6.2.7.4.2.2.2.5.2.8 0 .4 0 .6-.3.9-.2.2-.5.3-1 .4l1.7 2h-.6Zm-2.6-2.4a11.9 11.9 0 0 0 .8 0c.6 0 1 0 1.2-.2.2-.1.3-.4.3-.7l-.1-.6a.8.8 0 0 0-.5-.3h-.8a4.6 4.6 0 0 0-.9 0v1.8Zm6.4.9h-2.4c0 .4.1.7.3.8.2.2.6.3 1 .3l1-.1v.4l-1 .1c-.7 0-1.1-.1-1.4-.4-.3-.3-.4-.7-.4-1.3l.1-1c.2-.2.3-.4.6-.5.2-.2.5-.2.8-.2.4 0 .8.1 1 .4.3.3.4.7.4 1.3v.2Zm-2.2-1.3-.2 1h2c0-.5-.2-.8-.3-1a1 1 0 0 0-.7-.3c-.3 0-.6.1-.8.3Zm3.2 2.4c-.3-.3-.4-.7-.4-1.3 0-.6.1-1 .4-1.3.3-.3.8-.4 1.4-.4h.8v.5a3.3 3.3 0 0 0-.8-.1c-.4 0-.8.1-1 .3-.2.2-.3.5-.3 1 0 .4.1.8.3 1 .2.2.5.3 1 .3h.3l.5-.2v.5l-1 .1c-.5 0-.9-.1-1.2-.4Zm3.3.2c-.2 0-.4-.3-.5-.5-.2-.3-.2-.6-.2-1s0-.7.2-1l.5-.5c.3-.2.6-.2.9-.2.5 0 .9.1 1.2.4.3.3.4.7.4 1.3 0 .4 0 .7-.2 1a1 1 0 0 1-.6.5c-.2.2-.5.2-.8.2-.3 0-.6 0-.9-.2Zm2-1.5c0-.5-.1-.8-.3-1-.2-.2-.5-.3-.8-.3-.4 0-.6 0-.8.3-.2.2-.3.5-.3 1 0 .9.4 1.3 1 1.3.8 0 1.2-.4 1.2-1.3Zm1.3-1.7h.4v.5h.1l.5-.4a1.6 1.6 0 0 1 1 0v.4h-1l-.5.4v2.5h-.5v-3.4Zm2.9 3.2c-.2 0-.4-.3-.6-.5a2 2 0 0 1-.1-1c0-.5.1-1 .4-1.3.3-.3.8-.4 1.4-.4h.7v-1.6h.6v5h-.5v-.4l-.5.3-.6.1c-.3 0-.6 0-.8-.2Zm1.4-.3c.2 0 .3-.2.4-.4v-2l-.7-.1c-.4 0-.8 0-1 .3-.2.2-.3.6-.3 1 0 .9.3 1.3 1 1.3l.6-.1Zm1.8.3v-.3a3.7 3.7 0 0 0 1.1.1l.7-.1c.2-.1.3-.2.3-.4v-.3l-.3-.1-.3-.2h-.6c-.3-.1-.6-.2-.7-.4a.8.8 0 0 1-.2-.6c0-.3 0-.5.3-.7a2 2 0 0 1 1.2-.2h.9v.5l-1-.2-.7.2c-.2.1-.2.2-.2.4l.1.4.4.1.6.1c.3 0 .6.2.7.3l.3.6c0 .3-.2.6-.4.8l-1 .2-1.2-.1Z"/><mask id="A" width="32" height="30" x="19" y="264" maskUnits="userSpaceOnUse" style="mask-type:luminance"><path fill="#fff" d="M50.1 264.3H19.6v29h30.5v-29Z"/></mask><g mask="url(#A)"><mask id="B" width="32" height="30" x="19" y="264" maskUnits="userSpaceOnUse" style="mask-type:luminance"><path fill="#fff" d="M50.1 264.3H19.6v29h30.5v-29Z"/></mask><g mask="url(#B)"><path fill="#E51E25" d="M44 273.5v.9l-1.7-.4v-.5a7.5 7.5 0 1 0-10.7 6.7l-.5 1.6a9.2 9.2 0 0 1-5.4-8.3 9.2 9.2 0 0 1 18.3 0Z"/><path fill="#1D53A5" d="M37.9 284a9.1 9.1 0 0 1-9.2 9.2 9.1 9.1 0 0 1-3.7-17.5l.5 1.6a7.5 7.5 0 1 0 7.5 13 7 7 0 0 0 1.8-1.9 7.4 7.4 0 0 0 1.5-4.3v-.6l1.5-.3v.9"/><path fill="#3FB549" d="M50.1 284a9.2 9.2 0 0 1-14.5 7.5l1.1-1.2a7.5 7.5 0 1 0 4.2-13.7h-.3c-1.4 0-2.8.5-3.9 1.3a10 10 0 0 0-1-1.2 9 9 0 0 1 5.3-1.8h.2a9.3 9.3 0 0 1 3.5.8 9.2 9.2 0 0 1 5.4 8.4Z"/><path fill="#1D53A5" d="M37.2 280.6a9.5 9.5 0 0 0-2.4-3.3 9.3 9.3 0 0 0-2.8 4.9 9.4 9.4 0 0 0 2.6.4h.5a9.4 9.4 0 0 0 2.6-.4l-.5-1.6m-2 .4h-1.1l.2-.4a7.7 7.7 0 0 1 .5-.9l.2.3a8.3 8.3 0 0 1 .6 1h-.4"/></g></g></g><g clip-path="url(#C)"><mask id="D" width="125" height="28" x="158" y="265" maskUnits="userSpaceOnUse" style="mask-type:luminance"><path fill="#fff" d="M282.4 265.4H158.7v26.7h123.7v-26.7Z"/></mask><g mask="url(#D)"><path fill="#fff" d="M170 271.6c-1 0-2 .8-2 1.8s1 1.9 2 1.9 1.9-.9 1.9-1.9c0-1-.9-1.8-2-1.8Zm-5.6 10.1c.6-.3.8-1.3.4-2.1-.4-.9-1.3-1.3-2-1-.5.3-.7 1.2-.3 2 .4 1 1.3 1.4 1.9 1m2.1-2.6c1 0 1.8-1 1.8-2s-.8-2-1.8-2-1.8 1-1.8 2 .8 2 1.8 2Zm-5.2 2c-.4.3-.3 1 .2 1.6.4.7 1 1 1.4.8.3-.2.2-.9-.3-1.5-.4-.7-1-1-1.3-.8m14.3.6c.6.3 1.4-.2 1.8-1 .4-.9.3-1.8-.4-2.1-.6-.3-1.4.1-1.8 1-.4.8-.3 1.8.4 2m-2.1-2.6c1 0 1.8-1 1.8-2s-.8-2-1.8-2-1.8 1-1.8 2 .8 2 1.8 2Zm5 3.6c.4-.6.5-1.3.2-1.6-.3-.2-1 .2-1.4.8-.4.7-.5 1.4-.2 1.6.3.2 1-.1 1.4-.8"/><path fill="#7AB800" d="m179.7 282.1.2-1.1c.2-.6.5-1 .6-1 .4.3-.6 2.2-.8 2.1Zm-19.6-10.9-.7 1.5.4-.7.3-.8Zm19.7 0 .7 1.5-.4-.7-.3-.8M167 266l-.9.1s1.5-.5 1.6-.4l-.8.3Zm-5.3 3.1s-.1.4-.5.8l-.6.7c-.1-.1 1-1.6 1.1-1.5Zm-2.6 10.6-.3-1.8.3 1v.8m-.1-4.5v-1l-.3 2 .4-1m3.4-1.9c-.4.8-.2 1.8.4 2 .6.4 1.5 0 1.9-1 .4-.8.2-1.7-.4-2-.6-.3-1.4.1-1.9 1Zm-2.6 2.6c.3 0 .6-.5.8-1.2.2-.7 0-1.3-.2-1.4-.3 0-.7.5-.8 1.2-.2.7 0 1.3.2 1.4m10.1 6.3c1 0 1.9-.8 1.9-1.8s-.9-1.8-2-1.8c-1 0-1.8.8-1.8 1.8s.8 1.8 1.9 1.8Zm-9.3-2.9c-.2-.7-.5-1.2-.8-1.1-.3 0-.4.7-.2 1.4s.6 1.2.8 1.2c.3-.1.4-.7.2-1.5Zm-.2-2.3c0 .9.4 1.6.9 1.6s1-.7 1-1.6c0-.9-.5-1.6-1-1.6s-1 .7-1 1.6Zm-1.3-1c-.2 0-.3.4-.3 1 0 .7.1 1.2.3 1.2.2 0 .3-.5.3-1.1 0-.7-.1-1.2-.3-1.2Zm6.1-4.5c.4.6 1.3.7 2.2.3.8-.4 1.2-1.3.9-2-.3-.5-1.3-.7-2.1-.3-.9.5-1.3 1.4-1 2m-1-3c-.6.5-1 1.1-.7 1.4.2.3.9.2 1.5-.2.7-.5 1-1 .8-1.4-.2-.3-.9-.2-1.6.2Zm-2.8 2.9c-.4.6-.5 1.3-.2 1.5.3.2 1-.1 1.4-.8.4-.6.5-1.4.2-1.6-.3-.2-1 .2-1.4.9Zm-2.1 2.6c.1 0 .4-.4.6-1l.2-1c-.2-.1-.5.3-.7.9-.2.5-.3 1-.1 1.1Zm8.9 10c.3-.6 0-1.5-1-1.9-.8-.4-1.7-.3-2 .3-.4.7 0 1.5.9 2 .8.4 1.8.3 2.1-.4Zm-8.1-1.9-.2-1.1c-.2-.6-.5-1-.6-1-.3.3.6 2.2.8 2.1Zm1.4-11.4c.4-.5.6-1 .5-1.1-.2-.1-.6.2-1 .7-.4.6-.5 1-.4 1.2.1 0 .6-.3 1-.8m6.7-2.3c0 .5.7.9 1.6.9.8 0 1.6-.4 1.6-1 0-.4-.7-.8-1.6-.8-.9 0-1.6.4-1.6.9Zm-3.4 15.9c-.6-.5-1.3-.6-1.5-.3-.2.3.1 1 .8 1.4.6.4 1.3.5 1.5.2.3-.3-.1-.9-.8-1.3Zm-4.3-1.8c-.2 0 0 .6.4 1 .4.6.8 1 1 .8.1 0-.1-.6-.5-1.1-.4-.5-.8-.8-1-.7m11 3c0-.5-.7-1-1.6-1-.9 0-1.6.5-1.6 1s.7 1 1.6 1c.8 0 1.6-.5 1.6-1Zm-4.2-18.8c-.7.2-1.2.5-1.1.8 0 .3.7.4 1.4.2s1.2-.5 1.2-.8c-.1-.3-.7-.4-1.5-.2Zm-4.1 1.4c-.5.4-.8.8-.7 1 .1.1.6 0 1.1-.5.5-.4.9-.8.7-1 0 0-.6.1-1 .5Zm4.2 18c-.7-.1-1.3 0-1.4.2 0 .3.5.7 1.2.9.7.1 1.3 0 1.4-.2 0-.3-.4-.7-1.2-.9Zm-3.1.1c.1-.1-.2-.5-.7-1-.5-.3-1-.5-1.1-.4-.1.1 0 .4.4.7l.8.6c.3.2.5.2.6.1m4.4-20c0 .2.6.3 1.2.3s1.1-.1 1.1-.3c0-.1-.5-.3-1.1-.3-.6 0-1.2.2-1.2.3Zm-3.8 1 1-.2c.6-.2 1-.5 1-.6 0-.1-.6 0-1.1.2-.6.2-1 .5-1 .6Zm-2 1 .7-.7-.9.5c-.4.3-.7.6-.6.7l.8-.5m8.1 19.4c0-.1-.5-.3-1.1-.3-.6 0-1.2.2-1.2.3 0 .2.5.3 1.2.3h.2c.6 0 1-.1 1-.3Zm9.7-7.9.4-1.8-.3 1c0 .3-.1.6 0 .8ZM168.2 266c.5 0 1-.2 1-.3h-1l-1 .3h1m-3.2.9c.4-.3.8-.5.7-.6l-.8.4c-.5.2-.9.4-.8.5l.9-.3Zm4.1-1.4.9.1h.9c0-.1-.2-.2-.5-.2h-.8l-.5.1m6.4 6.8c-.6.3-.8 1.2-.4 2 .5 1 1.3 1.4 2 1 .5-.2.7-1.2.3-2-.4-.9-1.3-1.3-1.9-1m4 1c-.3 0-.4.7-.3 1.4.2.7.6 1.2.8 1.2.3 0 .4-.7.3-1.4-.2-.7-.6-1.3-.8-1.2m.5 4.9c-.2-.1-.6.4-.8 1.1-.1.8 0 1.4.2 1.5.3 0 .7-.5.8-1.2.2-.7.1-1.4-.1-1.4Zm-1.4.4c.5 0 .9-.7.9-1.6 0-.9-.4-1.6-1-1.6-.5 0-.9.7-.9 1.6 0 .9.4 1.6 1 1.6Zm2.1-2.6c-.1 0-.3.4-.3 1 0 .7.2 1.2.3 1.2.2 0 .3-.5.3-1.1 0-.7-.1-1.2-.3-1.2Zm-9.1-6.1c-.4.6 0 1.5.9 2 .8.3 1.8.2 2-.4.4-.6 0-1.5-.8-2-.9-.4-1.8-.2-2.1.4Zm2.4-1.6c-.2.3.2 1 .8 1.4.7.4 1.4.5 1.6.2.2-.3-.2-1-.8-1.4-.7-.4-1.4-.5-1.6-.2Zm4.6 4.7c.4-.3.3-1-.2-1.6-.4-.7-1-1-1.3-.9-.3.2-.3 1 .2 1.6.4.7 1 1 1.3.8Zm2 1c.1 0 0-.6-.2-1.1-.2-.6-.5-1-.6-1-.2 0 0 .6.1 1.2.3.5.5 1 .7.9Zm-5.9 8.4c-.3-.6-1.3-.7-2.1-.3-.9.4-1.3 1.3-1 2 .4.6 1.3.7 2.2.3.8-.5 1.2-1.3.9-2m4.6-10.9c0-.1-.1-.7-.5-1.2s-.8-.8-1-.7c0 0 .1.6.5 1.1.4.5.8.9 1 .8Zm-4.4 12.8c-.7.4-1 1-.8 1.3.2.3 1 .2 1.6-.2.6-.5 1-1 .8-1.4-.3-.3-1-.2-1.6.3m3.4-1.1c-.4.5-.6 1-.4 1.1.1.1.6-.2 1-.7.3-.5.5-1 .4-1.1-.2-.1-.6.2-1 .7Zm-.1-14.1.5.8c.3.5.7.8.7.7 0-.1-1-1.6-1.2-1.5Zm-5.7-2.4c-.7-.2-1.3 0-1.4.2 0 .3.4.6 1.2.8.7.2 1.3 0 1.4-.2 0-.3-.5-.6-1.2-.8m4.1 1.4c-.5-.4-1-.6-1.1-.4-.1.1.2.5.7 1 .5.3 1 .5 1.1.4.2-.2-.2-.6-.7-1m-4.2 18c-.7.2-1.2.6-1.2.9.1.2.7.3 1.4.2.8-.2 1.3-.6 1.2-.9 0-.2-.7-.3-1.4-.2Zm5-1.3c-.1-.1-.6 0-1.1.5-.6.4-.9.8-.8 1l.7-.2.7-.6c.4-.3.6-.6.5-.7Zm-3.5-17.8c.6.3 1 .3 1.1.2 0-.1-.3-.4-1-.6-.5-.3-1-.3-1-.2 0 .1.3.4.9.6Zm3.1 1.2c.4.3.7.6.8.5l-.7-.7-.8-.5s.2.4.6.7Zm-3 18.6c-.5.2-1 .5-.9.7l2-.9-1 .2Z"/><path fill="#7AB800" d="M174 286.8c-.5.2-1 .6-.9.7l2-.9-1 .2Zm-2.2-20.8h1l-1-.3h-1c0 .1.4.3 1 .4m3.2.8.9.3-.8-.5-.9-.4.8.6Zm-2-.9.8.1s-1.4-.5-1.6-.4l.8.3Zm7.9 9.2v-1c.2 0 .4 2 .3 2l-.3-1m-15 11.6 1 .7-2.1-.9 1.1.2m6.1.9c.5-.1.9-.2 1-.1 0 0-1.6.4-1.7.3l.8-.2Zm-4 0c-.5-.1-.8-.2-.9-.1 0 0 1.6.4 1.7.3l-.8-.2Z"/><path fill="#fff" d="M195 268.6h.3l7.7 18.2h-2.3l-1.6-4h-8.2l-1.7 4H187l8-18.2Zm0 4.3-3.4 8.1h6.7l-3.2-8Zm9.6-3.6 1.8-.5v18h-1.8v-17.5Zm4.6 0 1.8-.5v18h-1.8v-17.5Zm5.2 14.7c.7.9 1.5 1.5 2.8 1.5 1.1 0 2.4-.5 2.4-1.7s-1.2-1.5-2.4-1.7c-2-.5-3.8-1-3.8-3.2 0-2 2-3.2 4-3.2 1.6 0 3 .6 3.8 2l-1.5 1a2.6 2.6 0 0 0-2.3-1.3c-1 0-2.2.5-2.2 1.5 0 .9 1.3 1.3 2.8 1.6 1.9.3 3.5 1 3.5 3.2 0 2.5-2.2 3.4-4.3 3.4-1.9 0-3.2-.5-4.2-2l1.4-1.1Zm16.9-5.3c-.7-1-1.6-1.3-2.7-1.3-2.4 0-3.7 1.8-3.7 4s1.5 4 3.7 4c1.2 0 2-.4 2.8-1.3l1.3 1.3a5.3 5.3 0 0 1-4 1.7c-3.5 0-5.7-2.3-5.7-5.7 0-3.3 2.3-5.7 5.6-5.7a6 6 0 0 1 4.2 1.7l-1.5 1.3Zm3.9-.1-.1-2.6h1.7v1.8c.6-1 2-2 3.7-2h.7v1.9l-1-.2c-2.3 0-3.2 1.6-3.2 4v5.3h-1.8v-8.2Zm9.2-8.2c.7 0 1.3.6 1.3 1.4 0 .7-.5 1.3-1.3 1.3s-1.3-.6-1.3-1.3c0-.8.6-1.4 1.3-1.4Zm-1 5.6h1.9v10.9h-1.8V276Zm4.6 0h1.8v1.6a5 5 0 0 1 3.9-1.9c3.4 0 5.7 2.4 5.7 5.7 0 3.3-2.4 5.7-5.4 5.7-2 0-3.5-1-4.2-2.2v7.2H248V276Zm5.6 9.5c2.3 0 3.9-1.8 3.9-4 0-2.3-1.6-4.1-3.9-4.1s-3.8 1.8-3.8 4c0 2.3 1.5 4 3.8 4Zm13.7-8H264v5.5c0 1.3 0 2.5 1.6 2.5.5 0 1.1-.2 1.6-.4v1.6c-.6.3-1.4.4-2 .4-2.6 0-3-1.4-3-3.6v-6H260l1.5-1.5h.8v-2.2l1.8-1.9v4h3.2v1.6Zm2.8 6.5c.8.9 1.5 1.5 2.8 1.5 1.1 0 2.4-.5 2.4-1.7s-1.2-1.5-2.3-1.7c-2-.5-3.8-1-3.8-3.2 0-2 2-3.2 4-3.2 1.5 0 3 .6 3.7 2l-1.5 1a2.6 2.6 0 0 0-2.3-1.3c-1 0-2.1.5-2.1 1.5 0 .9 1.3 1.3 2.7 1.6 2 .3 3.5 1 3.5 3.2 0 2.5-2.1 3.4-4.3 3.4-1.8 0-3.1-.5-4.2-2l1.4-1.1Zm10.9-8.3a1.5 1.5 0 0 1 0 3 1.5 1.5 0 0 1 0-3Zm0 2.7a1.2 1.2 0 1 0 0-2.4 1.2 1.2 0 0 0 0 2.4Zm-.6-2h.6c.4 0 .6.1.6.4 0 .3-.1.4-.4.5l.5.7h-.4l-.4-.7h-.2v.7h-.3v-1.7Zm.3.6h.2c.2 0 .4 0 .4-.2s-.2-.2-.4-.2h-.2v.4Z"/></g></g><defs><clipPath id="a"><path fill="#fff" d="M12.8 1.2h105.6v14H12.8z"/></clipPath><clipPath id="b"><path fill="#fff" d="M133.4 2H175v12.3h-41.6z"/></clipPath><clipPath id="c"><path fill="#fff" d="M190 0h99.2v16.2H190z"/></clipPath><clipPath id="d"><path fill="#fff" d="M10.5 37.6h57.6v6.7H10.5z"/></clipPath><clipPath id="e"><path fill="#fff" d="M83 28h58.5v26H83z"/></clipPath><clipPath id="f"><path fill="#fff" d="M156.4 26.3h29.4v29.4h-29.4z"/></clipPath><clipPath id="g"><path fill="#fff" d="M200.9 31h90.6v20h-90.6z"/></clipPath><clipPath id="h"><path fill="#fff" d="M2 73.2h61.9v14.2H2z"/></clipPath><clipPath id="i"><path fill="#fff" d="M79 65.7h29V95H79z"/></clipPath><clipPath id="q"><path fill="#fff" d="M123 65.7h40.5V95H123z"/></clipPath><clipPath id="r"><path fill="#fff" d="M32.2 108.9h94.9v17.3H32.2z"/></clipPath><clipPath id="s"><path fill="#fff" d="M142.1 107h21.1v21h-21z"/></clipPath><clipPath id="t"><path fill="#fff" d="M178.2 105h91.6v25h-91.6z"/></clipPath><clipPath id="u"><path fill="#fff" d="M246.2 141h36.3v25.6h-36.3z"/></clipPath><clipPath id="v"><path fill="#fff" d="M34.8 184.7h99.5v22.1H34.8z"/></clipPath><clipPath id="w"><path fill="#fff" d="M215 185.6h52.1V206h-52z"/></clipPath><clipPath id="x"><path fill="#fff" d="M23.6 230h154.5v18.4H23.6z"/></clipPath><clipPath id="y"><path fill="#fff" d="M193 224h85.4v30.3H193z"/></clipPath><clipPath id="z"><path fill="#fff" d="M19.6 264.3h124.1v29H19.6z"/></clipPath><clipPath id="C"><path fill="#fff" d="M158.7 265.4h123.7v26.7H158.7z"/></clipPath><linearGradient id="l" x1="90.5" x2="96.1" y1="65.4" y2="80.2" gradientUnits="userSpaceOnUse"><stop stop-color="#0B53CE"/><stop offset="1" stop-color="#7252AA"/></linearGradient><linearGradient id="o" x1="98.4" x2="98.4" y1="94.2" y2="76.5" gradientUnits="userSpaceOnUse"><stop stop-color="#2266E3"/><stop offset="1" stop-color="#AE7FE2"/></linearGradient><linearGradient id="p" x1="103.8" x2="97.8" y1="83" y2="83" gradientUnits="userSpaceOnUse"><stop stop-color="#94B9FF"/><stop offset=".3" stop-color="#94B9FF" stop-opacity=".5"/><stop offset="1" stop-color="#538FFF" stop-opacity="0"/></linearGradient><filter id="m" width="16.2" height="20.5" x="87.8" y="75.1" color-interpolation-filters="sRGB" filterUnits="userSpaceOnUse"><feFlood flood-opacity="0" result="BackgroundImageFix"/><feBlend in="SourceGraphic" in2="BackgroundImageFix" result="shape"/><feGaussianBlur result="effect1_foregroundBlur_3007_3618" stdDeviation=".1"/></filter><filter id="n" width="19.9" height="24.1" x="86" y="73.7" color-interpolation-filters="sRGB" filterUnits="userSpaceOnUse"><feFlood flood-opacity="0" result="BackgroundImageFix"/><feBlend in="SourceGraphic" in2="BackgroundImageFix" result="shape"/><feGaussianBlur result="effect1_foregroundBlur_3007_3618" stdDeviation="1"/></filter></defs></svg>