<svg width="32" height="32" viewBox="0 0 32 32" fill="none" xmlns="http://www.w3.org/2000/svg">
<rect width="32" height="32" rx="16" fill="#FFC727"/>
<g clip-path="url(#clip0_2450_6115)">
<path d="M15.6875 22.875H12.5625V22.5625C12.5625 22.375 12.6875 22.25 12.875 22.25C13.0625 22.25 13.1875 22.125 13.1875 21.9375C13.1875 21.75 13.0625 21.625 12.875 21.625C12.3438 21.625 11.9375 22.0312 11.9375 22.5625V23.1875C11.9375 23.375 12.0625 23.5 12.25 23.5H15.6875C15.875 23.5 16 23.375 16 23.1875C16 23 15.875 22.875 15.6875 22.875Z" fill="black"/>
<path d="M25.0625 10.375H17.5625C17.0312 10.375 16.625 10.7812 16.625 11.3125V25.0625C16.625 25.5938 17.0312 26 17.5625 26H25.0625C25.5938 26 26 25.5938 26 25.0625V11.3125C26 10.7812 25.5938 10.375 25.0625 10.375ZM25.375 25.0625C25.375 25.25 25.25 25.375 25.0625 25.375H17.5625C17.375 25.375 17.25 25.25 17.25 25.0625V11.3125C17.25 11.125 17.375 11 17.5625 11H25.0625C25.25 11 25.375 11.125 25.375 11.3125V25.0625Z" fill="black"/>
<path d="M20.6875 12.25H21.9375C22.125 12.25 22.25 12.125 22.25 11.9375C22.25 11.75 22.125 11.625 21.9375 11.625H20.6875C20.5 11.625 20.375 11.75 20.375 11.9375C20.375 12.125 20.5 12.25 20.6875 12.25Z" fill="black"/>
<path d="M24.4375 9.75C24.625 9.75 24.75 9.625 24.75 9.4375V7.5625C24.75 7.375 24.625 7.25 24.4375 7.25H7.5625C7.375 7.25 7.25 7.375 7.25 7.5625V18.8125C7.25 19 7.375 19.125 7.5625 19.125H15.6875C15.875 19.125 16 19 16 18.8125C16 18.625 15.875 18.5 15.6875 18.5H7.875V7.875H24.125V9.4375C24.125 9.625 24.25 9.75 24.4375 9.75Z" fill="black"/>
<path d="M25.0625 6H6.9375C6.40625 6 6 6.40625 6 6.9375V19.4375C6 19.9688 6.40625 20.375 6.9375 20.375H13.8125V21.9375C13.8125 22.125 13.9375 22.25 14.125 22.25H15.6875C15.875 22.25 16 22.125 16 21.9375C16 21.75 15.875 21.625 15.6875 21.625H14.4375V20.375H15.6875C15.875 20.375 16 20.25 16 20.0625C16 19.875 15.875 19.75 15.6875 19.75H6.9375C6.75 19.75 6.625 19.625 6.625 19.4375V6.9375C6.625 6.75 6.75 6.625 6.9375 6.625H25.0625C25.25 6.625 25.375 6.75 25.375 6.9375V9.4375C25.375 9.625 25.5 9.75 25.6875 9.75C25.875 9.75 26 9.625 26 9.4375V6.9375C26 6.40625 25.5938 6 25.0625 6Z" fill="black"/>
<path d="M21.3125 18.5C22.3438 18.5 23.1875 17.6562 23.1875 16.625V16C23.1875 14.9688 22.3438 14.125 21.3125 14.125C20.2812 14.125 19.4375 14.9688 19.4375 16V16.625C19.4375 17.6562 20.2812 18.5 21.3125 18.5ZM20.0625 16C20.0625 15.3125 20.625 14.75 21.3125 14.75C22 14.75 22.5625 15.3125 22.5625 16V16.625C22.5625 17.3125 22 17.875 21.3125 17.875C20.625 17.875 20.0625 17.3125 20.0625 16.625V16Z" fill="black"/>
<path d="M22.625 19.0312H20C19.375 19.0312 18.875 19.5312 18.875 20.1562V22C18.875 22.3125 19.125 22.5937 19.4687 22.5937H23.1562C23.4688 22.5937 23.75 22.3438 23.75 22V20.1562C23.7187 19.5312 23.2188 19.0312 22.625 19.0312ZM23.0938 21.9375H19.5312V20.1562C19.5312 19.875 19.75 19.6563 20.0313 19.6563H22.6562C22.9375 19.6563 23.1562 19.875 23.1562 20.1562V21.9375H23.0938Z" fill="black"/>
<path d="M13.8125 11.4375V10.8125C13.8125 9.78125 12.9688 8.9375 11.9375 8.9375C10.9062 8.9375 10.0625 9.78125 10.0625 10.8125V11.4375C10.0625 12.4688 10.9062 13.3125 11.9375 13.3125C12.9688 13.3125 13.8125 12.4688 13.8125 11.4375ZM10.6875 11.4375V10.8125C10.6875 10.125 11.25 9.5625 11.9375 9.5625C12.625 9.5625 13.1875 10.125 13.1875 10.8125V11.4375C13.1875 12.125 12.625 12.6875 11.9375 12.6875C11.25 12.6875 10.6875 12.125 10.6875 11.4375Z" fill="black"/>
<path d="M9.53125 14.9688V16.8125C9.53125 17.125 9.78125 17.4062 10.125 17.4062H13.8125C14.125 17.4062 14.4062 17.1562 14.4062 16.8125V14.9688C14.4062 14.3438 13.9062 13.8438 13.2812 13.8438H10.6562C10.0312 13.8438 9.53125 14.3438 9.53125 14.9688ZM10.1562 14.9688C10.1562 14.6875 10.375 14.4687 10.6562 14.4687H13.2812C13.5625 14.4687 13.7812 14.6875 13.7812 14.9688V16.75H10.1562V14.9688Z" fill="black"/>
</g>
<defs>
<clipPath id="clip0_2450_6115">
<rect width="20" height="20" fill="white" transform="translate(6 6)"/>
</clipPath>
</defs>
</svg>
