<svg width="50" height="60" viewBox="0 0 50 60" fill="none" xmlns="http://www.w3.org/2000/svg">
<g filter="url(#filter0_d_2690_57)">
<path d="M48.2659 15.374C47.809 14.1747 46.8709 13.1041 45.7291 12.3321C42.4329 10.2391 37.4094 10.09 34.013 11.9822C32.1607 12.9266 30.9432 14.7954 30.5643 16.72C29.8771 19.882 30.0546 23.6442 32.4906 26.0142C35.3312 28.5043 39.4654 29.0544 43.1417 28.0315C43.3164 27.998 43.8699 27.8586 44.2516 27.656L44.3592 27.61C45.501 27.1355 46.5899 26.3629 47.4028 25.3167C49.2791 22.5735 49.4077 18.4632 48.2659 15.374M42.2804 22.4745C42.1507 23.0741 41.7473 23.6953 41.1113 23.9206C40.0987 24.3661 38.7287 24.2426 37.7906 23.7215C37.0038 23.1714 36.9025 22.2503 36.8013 21.3787C36.7245 19.6607 36.6004 17.8413 37.0817 16.2706C37.4589 15.2978 38.4995 15.0474 39.4404 14.9741C40.4286 14.9741 41.3906 15.1248 42.0011 15.9219C42.3811 16.4936 42.3578 17.2417 42.4329 17.9153C42.4061 19.3347 42.5336 21.0278 42.2804 22.4745ZM12.2267 24.0219C11.3893 23.9707 10.4512 24.0441 9.6405 23.9445L9.66553 15.1959L9.71673 15.1231L12.2267 15.0986C12.2529 13.6787 12.2779 12.1557 12.2006 10.8615L2.64124 10.8347L1.06707 10.862C1.04204 12.1819 1.04204 13.7253 1.06707 15.0725C1.9301 15.0992 2.74022 15.0725 3.57766 15.1504V23.6231L3.55321 23.9713L1.04206 24.0225C0.989724 25.3926 0.989724 26.7643 1.04206 28.1345H12.2262L12.2268 24.0219H12.2267ZM40.3763 30.0016C39.3124 31.5234 37.9681 32.9935 36.5003 34.137C36.4468 34.2149 36.2949 34.1853 36.2466 34.1137C35.6105 33.716 34.9261 33.3906 34.3163 32.9935C35.1287 32.0224 35.9155 31.0507 36.5242 29.9749H35.7351C35.1048 30.9005 34.4437 31.8716 33.6074 32.6914C32.4906 32.2437 31.4768 31.8454 30.3356 31.5439L30.2088 31.4489C30.3863 30.9454 30.7151 30.4727 30.8158 29.9737H30.1314L29.447 31.3203C27.9525 30.9966 26.3032 30.8203 24.7814 30.7219C24.7046 30.4983 24.8053 30.174 24.7046 29.9737H24.0452C23.9929 30.2736 24.1214 30.4994 23.969 30.748C22.3965 30.8203 20.8753 30.9966 19.4058 31.2987L18.7185 29.9737C18.4676 29.9737 18.1855 29.926 18.0102 30.0005L18.6429 31.4711L18.5672 31.5439C17.4306 31.8728 16.313 32.2644 15.2197 32.717L15.119 32.6658C14.4074 31.8932 13.7224 31.0495 13.1637 30.2019C13.038 29.7758 12.5305 30.0249 12.2512 29.9749C12.8576 31.0729 13.6718 32.0434 14.4819 33.0418C13.7975 33.4418 13.1154 33.8878 12.4019 34.2149C10.8506 33.0334 9.49834 31.6114 8.39628 30.0028C8.09134 29.9538 7.89051 29.976 7.58387 30.0028C9.41007 32.8438 12.2512 35.3351 15.2186 36.8057C15.2186 36.8057 15.2186 36.7835 15.2459 36.7835C15.2675 36.7835 15.3182 36.8296 15.2675 36.8558C17.2724 37.828 19.404 38.5255 21.6592 38.8259C29.4458 39.8465 36.8775 36.5338 41.1864 30.0028C40.917 29.975 40.6456 29.9746 40.3762 30.0016M29.8031 32.2442L29.8777 32.1942C30.9711 32.4434 32.0088 32.7927 32.9731 33.2649C32.1607 34.1848 31.1207 34.9841 30.1581 35.6565C29.5756 36.0041 28.9902 36.3819 28.3809 36.6788L27.2926 36.2055L27.3671 36.0331C28.2819 34.8128 29.0937 33.5652 29.8031 32.2442ZM24.8053 31.4961C26.252 31.5234 27.6982 31.6725 29.0402 31.9951L29.067 32.0707C28.3581 33.415 27.4683 34.7138 26.5063 35.9324C26.0728 35.9836 25.6689 35.8112 25.2382 35.7845L24.8047 35.7333C24.7552 34.2627 24.7285 32.9667 24.8053 31.4961ZM19.9127 31.9444C21.2314 31.6952 22.6002 31.4961 24.0196 31.4961L24.0458 35.7123C23.5121 35.8329 22.929 35.8329 22.4215 35.9609C21.3816 34.7366 20.5203 33.415 19.7858 32.0434L19.9127 31.9444ZM15.8274 33.2916C16.819 32.8166 17.8572 32.4655 18.9211 32.1936L19.0241 32.2198C19.7574 33.5908 20.6716 34.8857 21.5841 36.1816C21.232 36.3825 20.7985 36.5025 20.4446 36.705C18.7296 35.8578 17.169 34.7285 15.828 33.3644V33.2916H15.8274ZM19.1003 37.5527C16.9697 37.0025 14.9899 36.0559 13.1643 34.7622V34.6848C13.7731 34.3145 14.3841 33.9145 15.0411 33.6375C16.4879 35.062 17.983 36.1338 19.6061 37.1533C19.4798 37.3029 19.2772 37.4531 19.1003 37.5527ZM28.5083 37.8747C25.8208 38.4515 22.8266 38.4737 20.1397 37.8269C20.0885 37.7029 20.2665 37.6761 20.3422 37.6033C22.7009 36.0815 26.3766 36.0815 28.6869 37.7245C28.762 37.8747 28.5595 37.8269 28.5083 37.8747ZM30.9438 37.1795L29.7519 37.5521C29.5483 37.4525 29.3719 37.3029 29.1927 37.1527L29.2439 37.0765C30.8676 36.1332 32.3376 34.9835 33.7331 33.613C34.4181 33.8867 35.078 34.2627 35.6885 34.6843C34.2668 35.8112 32.6175 36.5554 30.9438 37.1795ZM8.3468 8.94141C8.97411 8.0733 9.66031 7.24929 10.4006 6.47522C11.0576 5.85228 11.6687 5.25436 12.3798 4.80379C13.0397 5.22706 13.7742 5.57977 14.4079 5.97688C13.6223 6.94401 12.8104 7.92024 12.2273 8.96418C12.4037 9.04212 12.7348 9.01766 12.9891 8.96418C13.6223 8.0437 14.3049 7.12207 15.1196 6.29888C16.2074 6.69882 17.2741 7.12093 18.3914 7.42132L18.4898 7.5203L17.8583 8.96418C18.1382 9.01766 18.3157 8.99148 18.5928 8.96418C18.8204 8.5432 18.9967 8.071 19.2505 7.64489C20.7234 7.97031 22.2708 8.14381 23.8433 8.19217C24.0447 8.3691 23.8933 8.74116 23.9696 8.96418H24.6539C24.7285 8.71955 24.6284 8.44193 24.7285 8.22005C26.2008 8.14268 27.7471 7.99306 29.1722 7.64376L29.2957 7.66992L29.9806 8.96305C30.2093 8.96305 30.5132 9.01653 30.6907 8.91185L30.0552 7.47025L30.1081 7.42018C31.2726 7.12093 32.365 6.67265 33.4806 6.22493C34.2691 7.04698 35.0024 8.01868 35.6641 8.96249C35.9417 8.96249 36.221 8.98979 36.4241 8.91129C36.1109 8.35491 35.7455 7.82953 35.333 7.34226C34.998 6.86499 34.6243 6.41611 34.2156 6.00022V5.87108L35.9912 4.85104L36.2472 4.75148C37.7913 5.92022 39.1425 7.32389 40.2517 8.91129C40.5561 8.91129 40.8104 9.01598 41.0647 8.89025C37.6626 3.81048 32.0588 0.542137 26.0006 0.0716445L25.9738 0.120003L25.922 0.0716445C25.2382 -0.00174756 24.3979 -0.030755 23.6635 0.0426371C23.3853 0.0210207 23.0565 0.0426371 22.7259 0.0716445C16.6403 0.542118 11.036 3.65914 7.5344 8.96529C7.78813 8.94139 8.09249 9.04266 8.3468 8.94139M18.8733 6.75171L18.772 6.77332C17.7309 6.50195 16.7154 6.17484 15.7517 5.75271L15.8006 5.60308C17.1956 4.28266 18.6662 3.18525 20.2893 2.33985C20.6716 2.48948 21.0516 2.61292 21.4317 2.78986L21.3571 2.98443C20.3917 4.18367 19.6328 5.47678 18.8733 6.75171ZM23.9184 7.42245C23.2101 7.52201 22.5757 7.40026 21.8629 7.34508C21.1813 7.24495 20.3172 7.17271 19.6328 6.94514C20.3684 5.58091 21.232 4.25764 22.2708 3.03962L23.8945 3.26093C23.9696 4.55461 23.9184 6.05082 23.9184 7.42245ZM24.704 7.44917C24.6539 6.1242 24.6801 4.65586 24.704 3.28481C25.2132 3.21199 25.7684 3.13463 26.2771 3.06123C27.2658 4.30543 28.2318 5.58091 28.8918 6.94514C27.5205 7.27691 26.1149 7.4461 24.704 7.44919M32.7967 5.70208C31.8057 6.12364 30.7902 6.52301 29.7013 6.75171C28.9156 5.43071 28.0537 4.11028 27.0872 2.83424C27.4427 2.6391 27.8763 2.48949 28.2557 2.29093C29.9073 3.11243 31.503 4.28266 32.8457 5.62414L32.7967 5.70208ZM29.5483 1.441C31.6788 1.99057 33.6825 2.93609 35.5087 4.23203L35.4581 4.33159L33.7098 5.30214H33.5807C32.2386 3.96123 30.6667 2.78986 29.067 1.8654C29.1176 1.69074 29.3725 1.56502 29.5483 1.441ZM28.535 1.19069V1.24359C26.3271 2.83424 22.7521 2.98444 20.4202 1.51382C20.2893 1.41426 20.039 1.3659 20.0117 1.19124C22.7015 0.571145 25.8697 0.521097 28.535 1.19069ZM13.0636 4.28266C14.6628 3.11242 16.4372 2.24029 18.3146 1.64181C18.3914 1.56387 18.4404 1.49047 18.5405 1.49047V1.54167C18.743 1.59061 18.8961 1.36475 19.073 1.51267C19.226 1.64181 19.4052 1.74023 19.5304 1.86425C17.9591 2.83422 16.4111 3.98285 14.9905 5.37551C14.3055 5.13088 13.6741 4.75484 13.0631 4.33157L13.0636 4.28264L13.0636 4.28266ZM23.9445 24.2164C21.5608 24.8656 18.9723 24.3706 17.2485 22.5735C17.0465 22.3243 16.9185 22.0273 16.7149 21.7793L13.2923 21.8032C13.2383 23.8211 13.2144 26.1394 13.2923 28.1339L17.0949 28.1095L17.1455 26.9125C17.5785 27.1116 18.0103 27.3602 18.4404 27.5838C21.0778 28.6818 24.473 28.931 27.086 27.5838C28.9896 26.5398 30.0045 24.522 29.7246 22.3493C29.447 20.2336 27.4171 18.3135 25.3645 17.7918L19.2254 16.0208L18.7714 15.7956C18.5683 15.6226 18.4409 15.3996 18.4904 15.1231C18.9723 14.3028 20.0896 14.5519 20.9265 14.5741C22.7015 14.8239 24.5271 15.4218 25.5676 17.0426C26.6821 17.0426 27.9752 17.0642 29.1916 17.0164C29.2433 14.9735 29.1717 13.1803 29.1415 11.1112C28.0003 11.085 26.6047 11.085 25.4652 11.1374C25.414 11.4338 25.5141 11.8559 25.3873 12.1563L24.2216 11.5328C21.4305 10.362 17.5244 10.2396 14.9894 12.059C13.3401 13.2531 12.8344 15.3985 13.2656 17.2918C13.5938 19.0832 15.3182 20.4054 16.9675 21.0266C19.2243 21.8231 21.5819 22.3999 23.8683 23.1714C24.0947 23.2726 24.3985 23.4985 24.3496 23.7721C24.3507 23.9935 24.1209 24.1214 23.9445 24.2164Z" fill="#1C204E"/>
</g>
<g filter="url(#filter1_d_2690_57)">
<path d="M8.72469 48.2624H7.08867C7.10116 46.414 8.84957 45.6148 10.4606 45.6148C12.209 45.6148 14.1073 46.3266 14.1073 48.3997C14.1073 50.6227 12.4338 51.0473 10.598 51.0473C9.87364 51.0473 8.69971 51.2347 8.69971 52.1838V52.9331H14.1323V54.4692H7.0512C7.0512 53.7074 7.0512 52.9456 7.0512 52.1713C7.0512 50.1606 8.87455 49.5612 10.598 49.5612C11.2599 49.5612 12.4713 49.4488 12.4713 48.4372C12.4713 47.4881 11.6096 47.0385 10.4856 47.0385C9.62387 47.0385 8.73717 47.4756 8.72469 48.2624ZM17.2173 54.4692H15.319L18.8908 47.3007H14.6321V45.7272H21.0513L21.1387 46.6014L17.2173 54.4692ZM23.5155 49.4613V50.7226C23.5155 53.8948 27.9115 53.8948 27.9115 50.7226V49.4613C27.9115 46.3391 23.5155 46.3016 23.5155 49.4613ZM21.8795 50.7226V49.4613C21.8795 44.241 29.5475 44.2535 29.5475 49.4613V50.7226C29.5475 55.9304 21.8795 55.9429 21.8795 50.7226ZM32.2112 49.4613V50.7226C32.2112 53.8948 36.6072 53.8948 36.6072 50.7226V49.4613C36.6072 46.3391 32.2112 46.3016 32.2112 49.4613ZM30.5752 50.7226V49.4613C30.5752 44.241 38.2432 44.2535 38.2432 49.4613V50.7226C38.2432 55.9304 30.5752 55.9429 30.5752 50.7226ZM39.0086 54.4692V53.0705H40.3199V47.2258H38.9587V45.7272H41.956V53.0705H43.1674V54.4692H39.0086Z" fill="#1C204E"/>
</g>
<defs>
<filter id="filter0_d_2690_57" x="0.343883" y="0" width="49.311" height="40.3203" filterUnits="userSpaceOnUse" color-interpolation-filters="sRGB">
<feFlood flood-opacity="0" result="BackgroundImageFix"/>
<feColorMatrix in="SourceAlpha" type="matrix" values="0 0 0 0 0 0 0 0 0 0 0 0 0 0 0 0 0 0 127 0" result="hardAlpha"/>
<feOffset dy="0.656117"/>
<feGaussianBlur stdDeviation="0.328058"/>
<feComposite in2="hardAlpha" operator="out"/>
<feColorMatrix type="matrix" values="0 0 0 0 0 0 0 0 0 0 0 0 0 0 0 0 0 0 0.25 0"/>
<feBlend mode="normal" in2="BackgroundImageFix" result="effect1_dropShadow_2690_57"/>
<feBlend mode="normal" in="SourceGraphic" in2="effect1_dropShadow_2690_57" result="shape"/>
</filter>
<filter id="filter1_d_2690_57" x="6.10281" y="44.241" width="38.0129" height="13.5986" filterUnits="userSpaceOnUse" color-interpolation-filters="sRGB">
<feFlood flood-opacity="0" result="BackgroundImageFix"/>
<feColorMatrix in="SourceAlpha" type="matrix" values="0 0 0 0 0 0 0 0 0 0 0 0 0 0 0 0 0 0 127 0" result="hardAlpha"/>
<feOffset dy="0.948338"/>
<feGaussianBlur stdDeviation="0.474169"/>
<feComposite in2="hardAlpha" operator="out"/>
<feColorMatrix type="matrix" values="0 0 0 0 0 0 0 0 0 0 0 0 0 0 0 0 0 0 0.25 0"/>
<feBlend mode="normal" in2="BackgroundImageFix" result="effect1_dropShadow_2690_57"/>
<feBlend mode="normal" in="SourceGraphic" in2="effect1_dropShadow_2690_57" result="shape"/>
</filter>
</defs>
</svg>
