<svg width="294" height="45" viewBox="0 0 294 45" fill="none" xmlns="http://www.w3.org/2000/svg">
<path d="M0 31.1029L4.76661 30.6657C5.05349 32.1753 5.63277 33.284 6.50444 33.992C7.38714 34.6999 8.57328 35.0539 10.0628 35.0539C11.6407 35.0539 12.8268 34.7416 13.6213 34.1169C14.4267 33.4818 14.8295 32.7427 14.8295 31.8994C14.8295 31.358 14.6584 30.8999 14.3164 30.5251C13.9854 30.1399 13.4006 29.8068 12.562 29.5257C11.9882 29.3383 10.6807 29.0051 8.63948 28.5262C6.01343 27.912 4.17078 27.1572 3.11154 26.2618C1.62197 25.0021 0.877189 23.4665 0.877189 21.655C0.877189 20.4889 1.22475 19.401 1.91988 18.3911C2.62605 17.3708 3.63564 16.5952 4.94867 16.0643C6.27273 15.5333 7.86711 15.2678 9.73183 15.2678C12.7772 15.2678 15.0667 15.8977 16.6004 17.1574C18.1451 18.4171 18.9561 20.0985 19.0333 22.2015L14.1343 22.4046C13.9247 21.2281 13.4723 20.3848 12.7772 19.8747C12.0931 19.3541 11.0614 19.0939 9.68218 19.0939C8.25881 19.0939 7.1444 19.3698 6.33893 19.9215C5.82034 20.2755 5.56105 20.7492 5.56105 21.3426C5.56105 21.884 5.80379 22.3473 6.28928 22.7325C6.90717 23.2218 8.40777 23.732 10.7911 24.2629C13.1744 24.7939 14.9343 25.3457 16.0708 25.9183C17.2183 26.4805 18.112 27.2561 18.752 28.2451C19.403 29.2237 19.7285 30.4366 19.7285 31.8838C19.7285 33.1955 19.3423 34.424 18.5699 35.5692C17.7976 36.7145 16.7052 37.5682 15.2929 38.1303C13.8805 38.6821 12.1207 38.958 10.0132 38.958C6.94579 38.958 4.59007 38.2917 2.94603 36.9591C1.30199 35.6161 0.319981 33.664 0 31.1029Z" fill="#1C204E"/>
<path d="M27.0935 38.552L21.5325 21.9673H26.0509L29.3444 32.8364L32.3732 21.9673H36.8585L39.788 32.8364L43.1478 21.9673H47.7323L42.0885 38.552H37.6198L34.591 27.8859L31.6119 38.552H27.0935Z" fill="#1C204E"/>
<path d="M50.1984 19.7185V15.6582H54.8491V19.7185H50.1984ZM50.1984 38.552V21.9673H54.8491V38.552H50.1984Z" fill="#1C204E"/>
<path d="M67.6925 21.9673V25.4654H64.5148V32.1492C64.5148 33.5027 64.5423 34.2939 64.5975 34.5229C64.6637 34.7416 64.8016 34.9238 65.0113 35.0695C65.232 35.2153 65.4968 35.2882 65.8057 35.2882C66.236 35.2882 66.8594 35.1476 67.6759 34.8665L68.0732 38.2709C66.9918 38.7082 65.7671 38.9268 64.3989 38.9268C63.5603 38.9268 62.8045 38.7966 62.1315 38.5364C61.4584 38.2657 60.9619 37.9221 60.6419 37.5057C60.3329 37.0788 60.1178 36.5062 59.9964 35.7879C59.8971 35.2777 59.8475 34.247 59.8475 32.6958V25.4654H57.7124V21.9673H59.8475V18.6722L64.5148 16.1111V21.9673H67.6925Z" fill="#1C204E"/>
<path d="M86.2459 26.8709L81.6613 27.6517C81.5068 26.7876 81.1538 26.1369 80.6021 25.6996C80.0614 25.2624 79.3552 25.0437 78.4836 25.0437C77.325 25.0437 76.3982 25.4237 75.703 26.1837C75.019 26.9333 74.6769 28.1931 74.6769 29.9629C74.6769 31.9306 75.0245 33.3205 75.7196 34.1325C76.4258 34.9446 77.3692 35.3506 78.5498 35.3506C79.4325 35.3506 80.1552 35.1164 80.7179 34.6479C81.2806 34.169 81.6779 33.3517 81.9096 32.1961L86.4776 32.9301C86.0031 34.9081 85.0928 36.4021 83.7467 37.412C82.4006 38.4219 80.5965 38.9268 78.3346 38.9268C75.7637 38.9268 73.7114 38.1616 72.1777 36.6312C70.6551 35.1007 69.8937 32.9821 69.8937 30.2753C69.8937 27.5372 70.6606 25.4081 72.1943 23.8881C73.728 22.3577 75.8024 21.5925 78.4174 21.5925C80.5579 21.5925 82.2571 22.0298 83.515 22.9043C84.7839 23.7684 85.6942 25.0906 86.2459 26.8709Z" fill="#1C204E"/>
<path d="M94.4219 15.6582V24.0755C95.9225 22.4202 97.7155 21.5925 99.8009 21.5925C100.871 21.5925 101.837 21.7799 102.697 22.1547C103.558 22.5295 104.203 23.0084 104.634 23.5914C105.075 24.1744 105.373 24.8199 105.527 25.5278C105.693 26.2358 105.776 27.3342 105.776 28.8229V38.552H101.125V29.7911C101.125 28.0525 101.037 26.9489 100.86 26.4805C100.684 26.012 100.369 25.6424 99.9168 25.3717C99.4754 25.0906 98.9182 24.95 98.2451 24.95C97.4728 24.95 96.7832 25.127 96.1763 25.481C95.5694 25.835 95.1226 26.3711 94.8357 27.0895C94.5598 27.7974 94.4219 28.849 94.4219 30.244V38.552H89.7712V15.6582H94.4219Z" fill="#1C204E"/>
<path d="M110.311 38.552V15.6582H114.961V23.9037C116.396 22.3629 118.095 21.5925 120.059 21.5925C122.2 21.5925 123.971 22.3265 125.372 23.7944C126.773 25.252 127.474 27.3498 127.474 30.0879C127.474 32.9196 126.757 35.1007 125.322 36.6312C123.899 38.1616 122.166 38.9268 120.125 38.9268C119.121 38.9268 118.128 38.6925 117.146 38.224C116.175 37.7451 115.337 37.0424 114.63 36.1158V38.552H110.311ZM114.928 29.9005C114.928 31.6183 115.215 32.8884 115.789 33.7109C116.594 34.8769 117.665 35.4599 119 35.4599C120.026 35.4599 120.898 35.0487 121.615 34.2262C122.343 33.3933 122.707 32.0868 122.707 30.3065C122.707 28.4117 122.343 27.0479 121.615 26.215C120.887 25.3717 119.954 24.95 118.818 24.95C117.703 24.95 116.776 25.3613 116.037 26.1837C115.298 26.9958 114.928 28.2347 114.928 29.9005Z" fill="#1C204E"/>
<path d="M130.155 30.0254C130.155 28.5679 130.536 27.1572 131.297 25.7933C132.058 24.4295 133.134 23.3884 134.524 22.67C135.926 21.9517 137.487 21.5925 139.208 21.5925C141.867 21.5925 144.047 22.4098 145.746 24.0443C147.445 25.6684 148.295 27.7246 148.295 30.2128C148.295 32.7218 147.434 34.804 145.713 36.4594C144.002 38.1043 141.845 38.9268 139.241 38.9268C137.63 38.9268 136.091 38.5832 134.624 37.8961C133.167 37.209 132.058 36.2043 131.297 34.8821C130.536 33.5495 130.155 31.9306 130.155 30.0254ZM134.922 30.2596C134.922 31.9046 135.335 33.1643 136.163 34.0388C136.99 34.9134 138.011 35.3506 139.225 35.3506C140.438 35.3506 141.454 34.9134 142.27 34.0388C143.098 33.1643 143.511 31.8942 143.511 30.2284C143.511 28.6043 143.098 27.355 142.27 26.4805C141.454 25.6059 140.438 25.1687 139.225 25.1687C138.011 25.1687 136.99 25.6059 136.163 26.4805C135.335 27.355 134.922 28.6147 134.922 30.2596Z" fill="#1C204E"/>
<path d="M155.428 27.027L151.207 26.3087C151.682 24.7054 152.498 23.5185 153.657 22.7481C154.816 21.9777 156.537 21.5925 158.821 21.5925C160.895 21.5925 162.44 21.8267 163.455 22.2952C164.47 22.7533 165.182 23.3415 165.59 24.0599C166.009 24.7678 166.219 26.0744 166.219 27.9796L166.169 33.1018C166.169 34.5594 166.241 35.6369 166.385 36.3345C166.539 37.0216 166.82 37.7608 167.229 38.552H162.628C162.506 38.2605 162.357 37.8284 162.181 37.2558C162.103 36.9955 162.048 36.8238 162.015 36.7405C161.221 37.4692 160.371 38.0158 159.466 38.3802C158.562 38.7446 157.596 38.9268 156.57 38.9268C154.76 38.9268 153.331 38.4635 152.283 37.5369C151.246 36.6103 150.728 35.4391 150.728 34.0232C150.728 33.0862 150.965 32.2533 151.439 31.5246C151.914 30.7854 152.576 30.2232 153.425 29.838C154.286 29.4424 155.522 29.0988 157.133 28.8073C159.306 28.4221 160.812 28.0629 161.651 27.7298V27.2925C161.651 26.4492 161.43 25.8506 160.989 25.4966C160.548 25.1322 159.715 24.95 158.49 24.95C157.662 24.95 157.017 25.1062 156.553 25.4185C156.09 25.7205 155.715 26.2566 155.428 27.027ZM161.651 30.5876C161.055 30.775 160.112 30.9988 158.821 31.2591C157.53 31.5194 156.686 31.7744 156.289 32.0243C155.682 32.4303 155.378 32.9457 155.378 33.5703C155.378 34.1846 155.621 34.7155 156.107 35.1632C156.592 35.6109 157.21 35.8347 157.96 35.8347C158.799 35.8347 159.599 35.5745 160.36 35.0539C160.923 34.6583 161.292 34.1742 161.469 33.6016C161.59 33.2268 161.651 32.5136 161.651 31.4621V30.5876Z" fill="#1C204E"/>
<path d="M175.272 38.552H170.621V21.9673H174.941V24.3254C175.68 23.2114 176.343 22.4774 176.927 22.1235C177.523 21.7695 178.196 21.5925 178.947 21.5925C180.006 21.5925 181.026 21.8684 182.008 22.4202L180.568 26.2462C179.785 25.7673 179.057 25.5278 178.384 25.5278C177.733 25.5278 177.181 25.6996 176.729 26.0432C176.276 26.3763 175.918 26.9854 175.653 27.8703C175.399 28.7552 175.272 30.6084 175.272 33.4298V38.552Z" fill="#1C204E"/>
<path d="M200.148 38.552H195.828V36.1158C195.111 37.0632 194.261 37.7712 193.279 38.2397C192.308 38.6977 191.326 38.9268 190.333 38.9268C188.314 38.9268 186.582 38.1616 185.137 36.6312C183.702 35.0903 182.985 32.9457 182.985 30.1972C182.985 27.3862 183.686 25.252 185.087 23.7944C186.488 22.3265 188.259 21.5925 190.4 21.5925C192.364 21.5925 194.063 22.3629 195.497 23.9037V15.6582H200.148V38.552ZM187.735 29.9005C187.735 31.6703 187.994 32.9509 188.513 33.7421C189.263 34.8873 190.311 35.4599 191.657 35.4599C192.728 35.4599 193.638 35.0331 194.388 34.1794C195.139 33.3153 195.514 32.0295 195.514 30.3221C195.514 28.4169 195.15 27.0479 194.421 26.215C193.693 25.3717 192.761 24.95 191.624 24.95C190.521 24.95 189.594 25.3665 188.844 26.1994C188.105 27.0218 187.735 28.2555 187.735 29.9005Z" fill="#1C204E"/>
<path d="M205.591 21.5768H209.928V24.013C210.491 23.1801 211.252 22.5034 212.212 21.9829C213.172 21.4623 214.236 21.202 215.406 21.202C217.447 21.202 219.18 21.9568 220.603 23.4664C222.026 24.976 222.738 27.079 222.738 29.7755C222.738 32.5448 222.021 34.6999 220.586 36.2407C219.152 37.7711 217.414 38.5363 215.373 38.5363C214.402 38.5363 213.519 38.3541 212.725 37.9898C211.941 37.6254 211.114 37.0007 210.242 36.1158V44.4706H205.591V21.5768ZM210.193 29.5881C210.193 31.4516 210.584 32.8311 211.368 33.7265C212.151 34.6114 213.106 35.0539 214.231 35.0539C215.312 35.0539 216.212 34.6478 216.929 33.8358C217.646 33.0133 218.005 31.6703 218.005 29.8067C218.005 28.0681 217.635 26.7771 216.896 25.9338C216.156 25.0905 215.241 24.6689 214.148 24.6689C213.012 24.6689 212.068 25.0853 211.318 25.9182C210.568 26.7407 210.193 27.964 210.193 29.5881Z" fill="#7681F7"/>
<path d="M226.445 38.1615V15.2678H231.096V38.1615H226.445Z" fill="#7681F7"/>
<path d="M247.448 38.1615V35.6785C246.808 36.5634 245.964 37.261 244.916 37.7711C243.879 38.2813 242.781 38.5363 241.622 38.5363C240.442 38.5363 239.383 38.2917 238.445 37.8024C237.507 37.313 236.828 36.6259 236.409 35.741C235.99 34.856 235.78 33.6328 235.78 32.0711V21.5768H240.431V29.1977C240.431 31.5297 240.514 32.9613 240.679 33.4922C240.856 34.0128 241.17 34.4292 241.622 34.7415C242.075 35.0434 242.649 35.1944 243.344 35.1944C244.138 35.1944 244.85 34.9914 245.479 34.5854C246.108 34.1689 246.538 33.6588 246.77 33.0549C247.001 32.4407 247.117 30.9467 247.117 28.573V21.5768H251.768V38.1615H247.448Z" fill="#7681F7"/>
<path d="M254.962 33.4297L259.63 32.7582C259.828 33.6119 260.231 34.2626 260.838 34.7103C261.445 35.1475 262.294 35.3662 263.387 35.3662C264.589 35.3662 265.494 35.158 266.101 34.7415C266.509 34.45 266.713 34.0596 266.713 33.5703C266.713 33.2371 266.603 32.9612 266.382 32.7426C266.151 32.5344 265.632 32.3418 264.827 32.1648C261.075 31.384 258.697 30.6708 257.693 30.0253C256.303 29.13 255.608 27.8859 255.608 26.293C255.608 24.8563 256.209 23.6486 257.412 22.67C258.615 21.6914 260.479 21.202 263.006 21.202C265.411 21.202 267.199 21.5716 268.368 22.3108C269.538 23.05 270.343 24.1431 270.785 25.5903L266.399 26.3555C266.211 25.71 265.853 25.2155 265.323 24.8719C264.805 24.5284 264.06 24.3566 263.089 24.3566C261.864 24.3566 260.987 24.5179 260.457 24.8407C260.104 25.0697 259.928 25.3664 259.928 25.7308C259.928 26.0431 260.082 26.3086 260.391 26.5273C260.81 26.8188 262.256 27.23 264.727 27.761C267.21 28.2919 268.942 28.9426 269.924 29.713C270.895 30.4938 271.381 31.5818 271.381 32.9769C271.381 34.4969 270.708 35.8034 269.361 36.8966C268.015 37.9897 266.024 38.5363 263.387 38.5363C260.992 38.5363 259.094 38.0782 257.693 37.1621C256.303 36.2459 255.393 35.0018 254.962 33.4297Z" fill="#7681F7"/>
<path d="M279.855 21.3425V13.4093H271.381V7.93317H279.855V0H285.504V7.93317H294V13.4093H285.504V21.3425H279.855Z" fill="#7681F7"/>
</svg>
