<svg width="238" height="36" viewBox="0 0 238 36" fill="none" xmlns="http://www.w3.org/2000/svg">
<g id="Group 217">
<g id="Vector">
<path d="M0 25.1785L3.85868 24.8245C4.09092 26.0466 4.55986 26.9442 5.2655 27.5173C5.98007 28.0904 6.94027 28.3769 8.14611 28.3769C9.42341 28.3769 10.3836 28.1241 11.0267 27.6184C11.6788 27.1043 12.0048 26.5059 12.0048 25.8233C12.0048 25.385 11.8664 25.0142 11.5895 24.7108C11.3215 24.3989 10.8481 24.1292 10.1692 23.9017C9.70477 23.75 8.64631 23.4803 6.99387 23.0926C4.86802 22.5954 3.37635 21.9843 2.51886 21.2595C1.31302 20.2397 0.710105 18.9966 0.710105 17.5302C0.710105 16.5862 0.991468 15.7055 1.55419 14.888C2.12585 14.0621 2.94314 13.4342 4.00607 13.0044C5.07792 12.5745 6.36862 12.3596 7.87815 12.3596C10.3434 12.3596 12.1968 12.8695 13.4384 13.8893C14.6889 14.9091 15.3454 16.2702 15.4079 17.9726L11.4421 18.137C11.2724 17.1846 10.9061 16.502 10.3434 16.089C9.78963 15.6676 8.95447 15.4569 7.83795 15.4569C6.68571 15.4569 5.78356 15.6802 5.13151 16.1269C4.7117 16.4135 4.5018 16.7969 4.5018 17.2773C4.5018 17.7156 4.69831 18.0906 5.09132 18.4025C5.59152 18.7986 6.80629 19.2115 8.73563 19.6414C10.665 20.0712 12.0897 20.5179 13.0097 20.9814C13.9386 21.4365 14.6621 22.0644 15.1802 22.865C15.7072 23.6573 15.9707 24.6391 15.9707 25.8106C15.9707 26.8725 15.658 27.867 15.0328 28.7941C14.4075 29.7212 13.5233 30.4123 12.3799 30.8674C11.2366 31.3141 9.81196 31.5374 8.10592 31.5374C5.62278 31.5374 3.71577 30.998 2.38488 29.9192C1.05399 28.832 0.259032 27.2518 0 25.1785Z" fill="#1C204E"/>
<path d="M21.9329 31.2087L17.4311 17.783H21.0888L23.755 26.5818L26.2069 17.783H29.8378L32.2093 26.5818L34.9291 17.783H38.6404L34.0717 31.2087H30.4541L28.0023 22.5743L25.5906 31.2087H21.9329Z" fill="#1C204E"/>
<path d="M40.6368 15.9626V12.6757H44.4017V15.9626H40.6368ZM40.6368 31.2087V17.783H44.4017V31.2087H40.6368Z" fill="#1C204E"/>
<path d="M54.7987 17.783V20.6148H52.2262V26.0255C52.2262 27.1212 52.2486 27.7617 52.2932 27.9471C52.3468 28.1241 52.4585 28.2716 52.6282 28.3896C52.8068 28.5075 53.0212 28.5666 53.2713 28.5666C53.6196 28.5666 54.1243 28.4528 54.7853 28.2252L55.1068 30.9812C54.2315 31.3351 53.24 31.5121 52.1324 31.5121C51.4536 31.5121 50.8418 31.4068 50.2969 31.1961C49.752 30.9769 49.3501 30.6988 49.0911 30.3617C48.841 30.0162 48.6668 29.5526 48.5685 28.9711C48.4881 28.5581 48.4479 27.7238 48.4479 26.468V20.6148H46.7196V17.783H48.4479V15.1156L52.2262 13.0423V17.783H54.7987Z" fill="#1C204E"/>
<path d="M69.8181 21.7526L66.1068 22.3847C65.9817 21.6851 65.6959 21.1584 65.2493 20.8044C64.8116 20.4504 64.24 20.2735 63.5343 20.2735C62.5964 20.2735 61.8461 20.5811 61.2834 21.1963C60.7296 21.8031 60.4527 22.8229 60.4527 24.2557C60.4527 25.8485 60.7341 26.9737 61.2968 27.631C61.8685 28.2884 62.6322 28.6171 63.5879 28.6171C64.3025 28.6171 64.8875 28.4275 65.3431 28.0482C65.7986 27.6605 66.1202 26.999 66.3077 26.0634L70.0057 26.6576C69.6216 28.2589 68.8847 29.4683 67.7949 30.2858C66.7052 31.1034 65.2448 31.5121 63.4137 31.5121C61.3326 31.5121 59.6712 30.8927 58.4296 29.6538C57.197 28.4148 56.5807 26.6998 56.5807 24.5085C56.5807 22.2919 57.2014 20.5684 58.443 19.338C59.6846 18.099 61.3638 17.4796 63.4807 17.4796C65.2136 17.4796 66.5891 17.8336 67.6074 18.5415C68.6346 19.241 69.3715 20.3114 69.8181 21.7526Z" fill="#1C204E"/>
<path d="M76.4368 12.6757V19.4897C77.6516 18.1496 79.103 17.4796 80.7912 17.4796C81.6576 17.4796 82.4392 17.6313 83.1359 17.9347C83.8326 18.2381 84.3551 18.6258 84.7035 19.0978C85.0608 19.5697 85.3019 20.0923 85.427 20.6654C85.561 21.2385 85.628 22.1276 85.628 23.3328V31.2087H81.8631V24.1166C81.8631 22.7091 81.7916 21.8158 81.6487 21.4365C81.5058 21.0573 81.2512 20.7581 80.885 20.5389C80.5277 20.3114 80.0766 20.1976 79.5318 20.1976C78.9065 20.1976 78.3483 20.3409 77.857 20.6274C77.3657 20.914 77.004 21.348 76.7718 21.9295C76.5484 22.5026 76.4368 23.3539 76.4368 24.4832V31.2087H72.6719V12.6757H76.4368Z" fill="#1C204E"/>
<path d="M89.2991 31.2087V12.6757H93.064V19.3506C94.2252 18.1033 95.6007 17.4796 97.1906 17.4796C98.9235 17.4796 100.357 18.0738 101.491 19.2621C102.626 20.442 103.193 22.1402 103.193 24.3568C103.193 26.6492 102.612 28.4148 101.451 29.6538C100.299 30.8927 98.8967 31.5121 97.2442 31.5121C96.4314 31.5121 95.6275 31.3225 94.8325 30.9432C94.0465 30.5555 93.3677 29.9867 92.796 29.2366V31.2087H89.2991ZM93.0372 24.2051C93.0372 25.5957 93.2694 26.6239 93.7339 27.2897C94.3859 28.2336 95.2524 28.7056 96.3331 28.7056C97.1638 28.7056 97.8695 28.3727 98.4501 27.7069C99.0396 27.0327 99.3343 25.975 99.3343 24.5338C99.3343 22.9999 99.0396 21.8958 98.4501 21.2216C97.8605 20.5389 97.1058 20.1976 96.1858 20.1976C95.2836 20.1976 94.5333 20.5305 93.9349 21.1963C93.3364 21.8537 93.0372 22.8566 93.0372 24.2051Z" fill="#1C204E"/>
<path d="M105.364 24.3062C105.364 23.1263 105.672 21.9843 106.288 20.8803C106.904 19.7762 107.775 18.9334 108.901 18.3519C110.035 17.7704 111.299 17.4796 112.692 17.4796C114.845 17.4796 116.609 18.1412 117.985 19.4644C119.36 20.7791 120.048 22.4437 120.048 24.4579C120.048 26.4891 119.351 28.1746 117.958 29.5147C116.573 30.8463 114.827 31.5121 112.719 31.5121C111.415 31.5121 110.169 31.234 108.981 30.6777C107.802 30.1215 106.904 29.3082 106.288 28.2379C105.672 27.1591 105.364 25.8485 105.364 24.3062ZM109.222 24.4959C109.222 25.8275 109.557 26.8472 110.227 27.5552C110.897 28.2631 111.723 28.6171 112.706 28.6171C113.688 28.6171 114.51 28.2631 115.171 27.5552C115.841 26.8472 116.176 25.819 116.176 24.4706C116.176 23.1558 115.841 22.1445 115.171 21.4365C114.51 20.7286 113.688 20.3746 112.706 20.3746C111.723 20.3746 110.897 20.7286 110.227 21.4365C109.557 22.1445 109.222 23.1642 109.222 24.4959Z" fill="#1C204E"/>
<path d="M125.823 21.879L122.406 21.2974C122.79 19.9995 123.451 19.0388 124.389 18.4151C125.327 17.7914 126.72 17.4796 128.569 17.4796C130.248 17.4796 131.499 17.6692 132.321 18.0485C133.143 18.4193 133.719 18.8955 134.049 19.477C134.389 20.0501 134.558 21.1078 134.558 22.6501L134.518 26.7967C134.518 27.9766 134.576 28.8489 134.692 29.4136C134.817 29.9698 135.045 30.5682 135.376 31.2087H131.651C131.553 30.9727 131.432 30.623 131.289 30.1594C131.227 29.9487 131.182 29.8097 131.155 29.7422C130.512 30.3322 129.824 30.7747 129.092 31.0696C128.359 31.3646 127.578 31.5121 126.747 31.5121C125.282 31.5121 124.126 31.1371 123.277 30.387C122.437 29.6369 122.018 28.6888 122.018 27.5426C122.018 26.784 122.21 26.1098 122.594 25.5198C122.978 24.9215 123.514 24.4664 124.201 24.1545C124.898 23.8343 125.899 23.5561 127.203 23.3202C128.962 23.0083 130.181 22.7176 130.86 22.4479V22.0939C130.86 21.4112 130.682 20.9266 130.324 20.6401C129.967 20.3451 129.293 20.1976 128.301 20.1976C127.631 20.1976 127.109 20.324 126.734 20.5769C126.359 20.8213 126.055 21.2553 125.823 21.879ZM130.86 24.7613C130.378 24.913 129.614 25.0942 128.569 25.3049C127.524 25.5156 126.841 25.7221 126.519 25.9244C126.028 26.2531 125.782 26.6703 125.782 27.1759C125.782 27.6732 125.979 28.103 126.372 28.4654C126.765 28.8278 127.265 29.009 127.873 29.009C128.551 29.009 129.199 28.7983 129.815 28.3769C130.271 28.0567 130.57 27.6648 130.713 27.2012C130.811 26.8978 130.86 26.3205 130.86 25.4693V24.7613Z" fill="#1C204E"/>
<path d="M141.887 31.2087H138.122V17.783H141.619V19.6919C142.218 18.7901 142.753 18.196 143.227 17.9094C143.709 17.6229 144.254 17.4796 144.861 17.4796C145.719 17.4796 146.545 17.7029 147.34 18.1496L146.174 21.2469C145.54 20.8592 144.951 20.6654 144.406 20.6654C143.879 20.6654 143.432 20.8044 143.066 21.0825C142.7 21.3522 142.41 21.8453 142.195 22.5616C141.99 23.278 141.887 24.7782 141.887 27.0622V31.2087Z" fill="#1C204E"/>
<path d="M162.025 31.2087H158.528V29.2366C157.947 30.0035 157.259 30.5766 156.464 30.9559C155.678 31.3267 154.883 31.5121 154.079 31.5121C152.445 31.5121 151.043 30.8927 149.872 29.6538C148.711 28.4064 148.131 26.6703 148.131 24.4453C148.131 22.1697 148.698 20.442 149.832 19.2621C150.967 18.0738 152.4 17.4796 154.133 17.4796C155.723 17.4796 157.098 18.1033 158.26 19.3506V12.6757H162.025V31.2087ZM151.976 24.2051C151.976 25.6378 152.186 26.6745 152.606 27.315C153.213 28.2421 154.062 28.7056 155.151 28.7056C156.018 28.7056 156.755 28.3601 157.362 27.669C157.969 26.9695 158.273 25.9286 158.273 24.5464C158.273 23.0041 157.978 21.8958 157.389 21.2216C156.799 20.5389 156.045 20.1976 155.124 20.1976C154.231 20.1976 153.481 20.5347 152.874 21.209C152.275 21.8748 151.976 22.8735 151.976 24.2051Z" fill="#1C204E"/>
</g>
<g id="Vector_2">
<path d="M166.431 17.467H169.941V19.4391C170.397 18.7649 171.013 18.217 171.79 17.7957C172.568 17.3743 173.429 17.1636 174.376 17.1636C176.029 17.1636 177.431 17.7746 178.583 18.9966C179.736 20.2187 180.312 21.9211 180.312 24.104C180.312 26.3458 179.731 28.0904 178.57 29.3377C177.409 30.5766 176.002 31.1961 174.349 31.1961C173.563 31.1961 172.849 31.0486 172.206 30.7536C171.572 30.4586 170.902 29.953 170.196 29.2366V36H166.431V17.467ZM170.156 23.9523C170.156 25.4609 170.473 26.5776 171.107 27.3024C171.741 28.0187 172.514 28.3769 173.425 28.3769C174.3 28.3769 175.028 28.0482 175.609 27.3909C176.19 26.7251 176.48 25.6378 176.48 24.1292C176.48 22.7218 176.181 21.6767 175.582 20.9941C174.984 20.3114 174.242 19.9701 173.358 19.9701C172.438 19.9701 171.674 20.3072 171.067 20.9814C170.46 21.6472 170.156 22.6375 170.156 23.9523Z" fill="#685ABC"/>
<path d="M183.313 30.8927V12.3596H187.078V30.8927H183.313Z" fill="#685ABC"/>
<path d="M200.315 30.8927V28.8826C199.797 29.599 199.114 30.1637 198.265 30.5766C197.426 30.9896 196.537 31.1961 195.599 31.1961C194.643 31.1961 193.786 30.998 193.027 30.6019C192.267 30.2058 191.718 29.6496 191.379 28.9332C191.039 28.2168 190.869 27.2265 190.869 25.9623V17.467H194.634V23.6362C194.634 25.5241 194.701 26.6829 194.835 27.1127C194.978 27.5341 195.233 27.8713 195.599 28.1241C195.965 28.3685 196.43 28.4907 196.992 28.4907C197.636 28.4907 198.212 28.3264 198.721 27.9977C199.23 27.6606 199.578 27.2476 199.766 26.7588C199.953 26.2615 200.047 25.0521 200.047 23.1305V17.467H203.812V30.8927H200.315Z" fill="#685ABC"/>
<path d="M206.398 27.0622L210.176 26.5186C210.337 27.2097 210.663 27.7364 211.154 28.0988C211.646 28.4528 212.333 28.6298 213.218 28.6298C214.191 28.6298 214.924 28.4612 215.415 28.1241C215.746 27.8881 215.911 27.5721 215.911 27.1759C215.911 26.9063 215.821 26.6829 215.643 26.5059C215.455 26.3374 215.035 26.1815 214.383 26.0382C211.346 25.4061 209.422 24.8288 208.609 24.3062C207.483 23.5814 206.921 22.5743 206.921 21.2848C206.921 20.1218 207.407 19.1441 208.381 18.3519C209.355 17.5597 210.864 17.1636 212.91 17.1636C214.857 17.1636 216.304 17.4627 217.251 18.0611C218.197 18.6595 218.849 19.5444 219.207 20.7159L215.656 21.3354C215.504 20.8129 215.214 20.4125 214.785 20.1344C214.366 19.8563 213.763 19.7172 212.977 19.7172C211.985 19.7172 211.275 19.8479 210.846 20.1091C210.56 20.2945 210.417 20.5347 210.417 20.8297C210.417 21.0825 210.543 21.2975 210.793 21.4744C211.132 21.7104 212.302 22.0433 214.303 22.4732C216.313 22.903 217.715 23.4297 218.51 24.0534C219.296 24.6855 219.689 25.5662 219.689 26.6956C219.689 27.926 219.144 28.9837 218.054 29.8687C216.965 30.7536 215.352 31.1961 213.218 31.1961C211.279 31.1961 209.743 30.8252 208.609 30.0836C207.483 29.3419 206.746 28.3348 206.398 27.0622Z" fill="#685ABC"/>
<path d="M226.549 17.2773V10.8552H219.689V6.42209H226.549V0H231.122V6.42209H238V10.8552H231.122V17.2773H226.549Z" fill="#685ABC"/>
</g>
</g>
</svg>
