<svg width="41" height="42" viewBox="0 0 41 42" fill="none" xmlns="http://www.w3.org/2000/svg">
<rect width="41" height="42" rx="20.5" fill="#7681F7"/>
<path d="M29.136 13.448L25.68 15.048C24.848 13.672 22.48 12.616 20.272 12.616C17.616 12.616 15.184 13.384 15.184 15.624C15.184 17.736 17.712 18.12 20.4 18.44C25.072 19.016 30.064 19.848 30.064 25.48C30.064 29.8 26.448 32.232 22.48 32.52V35.72H18.416V32.68C14.832 32.36 11.504 30.728 10 27.208L13.776 25.608C14.64 27.656 17.488 28.968 20.144 28.968C23.024 28.968 25.68 27.976 25.68 25.48C25.68 23.368 23.024 22.6 20.048 22.248C15.472 21.736 10.992 20.936 10.992 15.624C10.992 11.432 14.704 9.512 18.416 9.064V6.28H22.48V9.064C25.2 9.48 27.696 10.504 29.136 13.448Z" fill="#F3F3F3"/>
</svg>
