<svg width="50" height="50" viewBox="0 0 50 50" fill="none" xmlns="http://www.w3.org/2000/svg">
<path d="M24.9998 2.16919C20.4843 2.16919 16.0702 3.5082 12.3157 6.01688C8.56115 8.52557 5.63487 12.0913 3.90685 16.2631C2.17884 20.4349 1.72671 25.0254 2.60764 29.4541C3.48858 33.8829 5.66301 37.951 8.85596 41.1439C12.0489 44.3369 16.117 46.5113 20.5457 47.3922C24.9745 48.2732 29.565 47.821 33.7368 46.093C37.9086 44.365 41.4743 41.4387 43.983 37.6842C46.4917 33.9297 47.8307 29.5156 47.8307 25C47.8238 18.9471 45.4161 13.144 41.136 8.86384C36.8559 4.58373 31.0528 2.17612 24.9998 2.16919ZM24.9998 46.4637C20.7547 46.4637 16.6049 45.2049 13.0752 42.8464C9.54556 40.488 6.7945 37.1358 5.16997 33.2138C3.54543 29.2919 3.12038 24.9762 3.94856 20.8127C4.77674 16.6491 6.82096 12.8247 9.82271 9.82294C12.8245 6.82119 16.6489 4.77698 20.8125 3.9488C24.976 3.12062 29.2916 3.54567 33.2136 5.1702C37.1356 6.79474 40.4878 9.54579 42.8462 13.0755C45.2047 16.6052 46.4635 20.7549 46.4635 25C46.4571 30.6906 44.1937 36.1462 40.1698 40.1701C36.146 44.1939 30.6904 46.4573 24.9998 46.4637Z" fill="black"/>
<path d="M37.8907 31.8672C37.2378 30.9123 36.6599 29.9083 36.1622 28.8641C37.8951 28.1548 39.2878 26.8047 40.0507 25.0947C40.8137 23.3847 40.888 21.4464 40.2584 19.683C39.6287 17.9196 38.3435 16.4668 36.6701 15.6267C34.9966 14.7867 33.0638 14.6241 31.2735 15.1727C30.7665 14.6406 30.1935 14.1756 29.5684 13.7891C29.5731 13.7024 29.5782 13.6157 29.5782 13.5286C29.5782 12.2734 29.0796 11.0697 28.1921 10.1822C27.3046 9.29474 26.1009 8.79614 24.8457 8.79614C23.5906 8.79614 22.3869 9.29474 21.4994 10.1822C20.6119 11.0697 20.1133 12.2734 20.1133 13.5286C20.1133 13.6133 20.1184 13.6958 20.1227 13.7786C19.0169 14.4714 18.0768 15.3987 17.3689 16.4949C16.661 17.5911 16.2025 18.8294 16.0258 20.1223C15.3832 24.8254 13.9946 28.668 11.795 31.8676C11.112 31.9101 10.4723 32.2165 10.0113 32.7221C9.55019 33.2277 9.30388 33.8929 9.32443 34.5769C9.34498 35.2608 9.63079 35.91 10.1214 36.387C10.612 36.864 11.2689 37.1315 11.9532 37.1329H20.145C20.3083 38.2631 20.8734 39.2967 21.7367 40.0442C22.6 40.7917 23.7038 41.2032 24.8457 41.2032C25.9877 41.2032 27.0915 40.7917 27.9548 40.0442C28.8181 39.2967 29.3832 38.2631 29.5465 37.1329H37.7344C38.4196 37.1326 39.0778 36.8655 39.5694 36.3882C40.0609 35.9108 40.3472 35.2608 40.3676 34.5759C40.3879 33.891 40.1406 33.2251 39.6782 32.7194C39.2158 32.2138 38.5747 31.9081 37.8907 31.8672ZM39.3165 22.1317C39.3165 23.3009 38.9698 24.4438 38.3202 25.4159C37.6707 26.3881 36.7475 27.1458 35.6673 27.5933C34.5872 28.0408 33.3986 28.1579 32.2518 27.9299C31.1051 27.7019 30.0517 27.139 29.2249 26.3123C28.3981 25.4857 27.835 24.4324 27.6068 23.2857C27.3785 22.139 27.4954 20.9504 27.9427 19.8702C28.3899 18.7899 29.1475 17.8666 30.1195 17.2168C31.0915 16.5671 32.2344 16.2202 33.4036 16.22C34.9709 16.2217 36.4735 16.8451 37.5817 17.9534C38.6899 19.0617 39.3132 20.5644 39.3149 22.1317H39.3165ZM24.8438 10.1641C25.6582 10.1651 26.4446 10.461 27.0576 10.9972C27.6706 11.5334 28.0685 12.2735 28.1778 13.0805C26.0318 12.2652 23.6615 12.2638 21.5145 13.0766C21.624 12.2709 22.0215 11.532 22.6335 10.9966C23.2455 10.4612 24.0306 10.1655 24.8438 10.1641ZM17.3805 20.3071C17.5374 19.1488 17.9619 18.0431 18.6203 17.0774C19.2787 16.1117 20.153 15.3126 21.1739 14.7434C22.3039 14.1401 23.5653 13.8249 24.8463 13.8257C26.1273 13.8265 27.3884 14.1433 28.5176 14.7481C29.0189 15.0256 29.4855 15.3617 29.9075 15.7493C28.3815 16.585 27.2055 17.9399 26.5926 19.5683C25.9798 21.1967 25.9707 22.9907 26.567 24.6252C27.1633 26.2597 28.3255 27.6265 29.843 28.4776C31.3604 29.3288 33.1326 29.6081 34.8383 29.2649C35.2535 30.1572 35.7231 31.0232 36.2446 31.8579H13.4375C15.4622 28.6434 16.7579 24.8528 17.3805 20.3071ZM24.8438 39.836C24.0645 39.8349 23.3094 39.5656 22.7053 39.0734C22.1012 38.5811 21.685 37.8959 21.5266 37.1329H28.1641C28.0052 37.8962 27.5884 38.5815 26.9837 39.0737C26.3791 39.566 25.6235 39.8351 24.8438 39.836ZM37.7344 35.7657H11.9532C11.6165 35.7657 11.2936 35.6319 11.0555 35.3938C10.8174 35.1558 10.6836 34.8328 10.6836 34.4961C10.6836 34.1594 10.8174 33.8365 11.0555 33.5985C11.2936 33.3604 11.6165 33.2266 11.9532 33.2266H37.7344C38.0711 33.2266 38.394 33.3604 38.6321 33.5985C38.8702 33.8365 39.004 34.1594 39.004 34.4961C39.004 34.8328 38.8702 35.1558 38.6321 35.3938C38.394 35.6319 38.0711 35.7657 37.7344 35.7657Z" fill="black"/>
<path d="M32.334 21.363L33.2168 20.6696V25.0001C33.2168 25.1814 33.2888 25.3553 33.417 25.4835C33.5452 25.6117 33.7191 25.6837 33.9004 25.6837C34.0817 25.6837 34.2555 25.6117 34.3837 25.4835C34.5119 25.3553 34.584 25.1814 34.584 25.0001V19.263C34.5842 19.1345 34.5482 19.0085 34.48 18.8995C34.4119 18.7905 34.3145 18.703 34.1988 18.6469C34.0832 18.5907 33.9541 18.5684 33.8264 18.5823C33.6986 18.5962 33.5774 18.6458 33.4765 18.7255L31.4879 20.288C31.4159 20.343 31.3556 20.4117 31.3104 20.4902C31.2652 20.5686 31.2361 20.6553 31.2247 20.7451C31.2133 20.835 31.2198 20.9262 31.244 21.0134C31.2681 21.1007 31.3093 21.1823 31.3653 21.2535C31.4212 21.3247 31.4908 21.3841 31.5698 21.4282C31.6489 21.4723 31.736 21.5003 31.8259 21.5105C31.9159 21.5207 32.007 21.5129 32.094 21.4875C32.1809 21.4622 32.2619 21.4199 32.3324 21.363H32.334Z" fill="black"/>
</svg>
