<svg width="489" height="521" viewBox="0 0 489 521" fill="none" xmlns="http://www.w3.org/2000/svg">
<g clip-path="url(#clip0_2241_90)">
<path d="M261.887 11.7992L20.143 151.37C9.01832 157.793 5.20477 172.015 11.6252 183.135L194.888 500.556C201.309 511.677 215.532 515.485 226.656 509.062L468.401 369.491C479.525 363.068 483.339 348.846 476.919 337.726L293.656 20.3051C287.235 9.18459 273.012 5.37637 261.887 11.7992Z" fill="#6816F0" fill-opacity="0.71"/>
<path opacity="0.2" d="M282.21 10.3022C277.203 9.56049 271.927 10.4412 267.202 13.1689L25.4637 152.737C14.3378 159.16 10.5215 173.374 16.9459 184.502L200.209 501.923C202.926 506.628 207.036 510.022 211.723 511.886C204.933 510.891 198.657 506.912 194.962 500.513L11.6994 183.092C5.27829 171.97 9.08554 157.754 20.2172 151.327L261.956 11.7593C268.375 8.05354 275.828 7.75105 282.21 10.3022Z" fill="white"/>
<path opacity="0.2" d="M293.724 20.2651L476.987 337.686C483.408 348.808 479.59 363.031 468.469 369.451L226.731 509.019C220.312 512.724 212.858 513.027 206.476 510.476C211.483 511.218 216.76 510.337 221.484 507.609L463.223 368.041C474.349 361.618 478.158 347.392 471.741 336.276L288.478 18.8555C285.761 14.1499 281.65 10.7559 276.964 8.89247C283.744 9.88499 290.03 13.8663 293.724 20.2651Z" fill="black"/>
<path opacity="0.2" d="M268.316 258.114C265.655 249.252 256.312 244.228 247.448 246.891C238.584 249.555 233.556 258.898 236.217 267.759C238.878 276.621 248.221 281.645 257.085 278.982C265.949 276.318 270.977 266.975 268.316 258.114Z" fill="#5614C4" fill-opacity="0.32"/>
<path d="M266.143 258.767C263.842 251.105 255.764 246.76 248.099 249.063C240.435 251.366 236.088 259.444 238.389 267.106C240.689 274.768 248.768 279.113 256.432 276.81C264.096 274.507 268.444 266.428 266.143 258.767Z" fill="#581ABF" fill-opacity="0.58"/>
<path opacity="0.2" d="M257.157 249.301C253.897 248.711 250.419 249.221 247.325 251.007C240.394 255.009 238.024 263.865 242.024 270.794C243.804 273.875 246.545 276.055 249.655 277.17C245.632 276.444 241.937 274.008 239.725 270.178C235.725 263.249 238.104 254.396 245.035 250.394C248.867 248.182 253.283 247.913 257.148 249.299L257.157 249.301Z" fill="white"/>
<path opacity="0.2" d="M264.833 255.705C268.83 262.628 266.455 271.487 259.523 275.489C255.68 277.708 251.237 277.969 247.371 276.569C250.641 277.176 254.124 276.663 257.236 274.867C264.161 270.868 266.54 262.015 262.54 255.086C260.754 251.993 257.986 249.806 254.87 248.694C258.907 249.42 262.619 251.869 264.833 255.705Z" fill="#5614C4" fill-opacity="0.32"/>
<path opacity="0.2" d="M302.113 237.289C298.831 228.638 289.155 224.288 280.502 227.572C271.848 230.856 267.494 240.532 270.776 249.182C274.058 257.833 283.734 262.183 292.387 258.899C301.041 255.615 305.395 245.94 302.113 237.289Z" fill="#5614C4" fill-opacity="0.32"/>
<path d="M297.919 252.049C302.791 245.701 301.595 236.607 295.247 231.738C288.9 226.868 279.804 228.067 274.932 234.415C270.059 240.763 271.255 249.857 277.603 254.726C283.951 259.596 293.046 258.397 297.919 252.049Z" fill="#581ABF" fill-opacity="0.58"/>
<path opacity="0.2" d="M291.301 229.588C288.041 228.998 284.564 229.508 281.47 231.294C274.538 235.296 272.169 244.152 276.169 251.081C277.948 254.162 280.689 256.342 283.799 257.457C279.777 256.731 276.081 254.295 273.87 250.465C269.87 243.536 272.249 234.683 279.18 230.681C283.011 228.469 287.427 228.2 291.292 229.586L291.301 229.588Z" fill="white"/>
<path opacity="0.2" d="M298.978 235.992C302.975 242.915 300.599 251.774 293.668 255.776C289.825 257.994 285.382 258.256 281.516 256.856C284.786 257.463 288.269 256.95 291.38 255.153C298.306 251.155 300.685 242.302 296.684 235.373C294.899 232.28 292.13 230.093 289.015 228.981C293.052 229.707 296.763 232.156 298.978 235.992Z" fill="#5614C4" fill-opacity="0.32"/>
<path opacity="0.2" d="M336.75 227.851C339.147 218.913 333.844 209.727 324.904 207.333C315.965 204.94 306.776 210.245 304.379 219.184C301.982 228.122 307.286 237.308 316.225 239.702C325.164 242.095 334.354 236.789 336.75 227.851Z" fill="#5614C4" fill-opacity="0.32"/>
<path d="M334.56 227.265C336.632 219.536 332.047 211.594 324.318 209.524C316.589 207.455 308.643 212.042 306.571 219.77C304.498 227.499 309.084 235.441 316.813 237.511C324.542 239.58 332.488 234.993 334.56 227.265Z" fill="#581ABF" fill-opacity="0.58"/>
<path opacity="0.2" d="M325.444 209.875C322.184 209.285 318.706 209.795 315.612 211.581C308.681 215.583 306.311 224.439 310.312 231.368C312.091 234.449 314.832 236.629 317.942 237.744C313.919 237.018 310.224 234.582 308.013 230.752C304.012 223.823 306.391 214.97 313.322 210.968C317.154 208.756 321.57 208.487 325.435 209.873L325.444 209.875Z" fill="white"/>
<path opacity="0.2" d="M333.12 216.279C337.117 223.202 334.742 232.061 327.81 236.063C323.967 238.281 319.524 238.543 315.658 237.143C318.928 237.75 322.412 237.237 325.523 235.44C332.448 231.442 334.827 222.589 330.827 215.66C329.041 212.567 326.273 210.38 323.157 209.268C327.194 209.993 330.906 212.443 333.12 216.279Z" fill="#5614C4" fill-opacity="0.32"/>
<path opacity="0.2" d="M359.086 210.196C363.611 207.584 365.162 201.799 362.55 197.276C359.939 192.752 354.154 191.203 349.629 193.816C345.104 196.428 343.553 202.213 346.164 206.736C348.776 211.26 354.561 212.809 359.086 210.196Z" fill="#5614C4" fill-opacity="0.32"/>
<path d="M358.447 209.09C362.361 206.831 363.702 201.827 361.444 197.914C359.185 194.002 354.181 192.662 350.267 194.922C346.353 197.182 345.011 202.185 347.27 206.098C349.529 210.01 354.533 211.35 358.447 209.09Z" fill="#581ABF" fill-opacity="0.58"/>
<path opacity="0.2" d="M357.108 194.304C355.265 193.971 353.303 194.259 351.557 195.267C347.645 197.526 346.308 202.529 348.566 206.44C349.57 208.179 351.119 209.412 352.874 210.042C350.602 209.634 348.517 208.258 347.266 206.092C345.009 202.181 346.354 197.181 350.267 194.922C352.427 193.674 354.922 193.524 357.108 194.304Z" fill="white"/>
<path opacity="0.2" d="M361.448 197.92C363.706 201.831 362.36 206.832 358.448 209.09C356.276 210.344 353.772 210.492 351.588 209.703C353.435 210.041 355.406 209.756 357.158 208.745C361.07 206.486 362.41 201.489 360.152 197.578C359.145 195.833 357.583 194.592 355.823 193.965C358.104 194.376 360.198 195.755 361.448 197.92Z" fill="#5614C4" fill-opacity="0.32"/>
<path opacity="0.2" d="M378.476 243.78C383.001 241.168 384.553 235.383 381.941 230.86C379.33 226.336 373.544 224.787 369.019 227.4C364.494 230.012 362.943 235.797 365.555 240.32C368.166 244.844 373.951 246.393 378.476 243.78Z" fill="#5614C4" fill-opacity="0.32"/>
<path d="M377.837 242.674C381.751 240.415 383.093 235.411 380.834 231.498C378.575 227.586 373.571 226.246 369.657 228.506C365.743 230.766 364.402 235.769 366.66 239.682C368.919 243.594 373.923 244.934 377.837 242.674Z" fill="#581ABF" fill-opacity="0.58"/>
<path opacity="0.2" d="M376.499 227.888C374.655 227.555 372.693 227.843 370.948 228.851C367.035 231.11 365.699 236.113 367.957 240.024C368.961 241.763 370.51 242.996 372.264 243.626C369.993 243.218 367.907 241.842 366.657 239.676C364.399 235.765 365.745 230.764 369.657 228.506C371.818 227.258 374.312 227.108 376.499 227.888Z" fill="white"/>
<path opacity="0.2" d="M380.839 231.504C383.097 235.415 381.751 240.416 377.839 242.674C375.667 243.928 373.163 244.076 370.979 243.287C372.826 243.625 374.797 243.34 376.548 242.329C380.461 240.07 381.801 235.073 379.543 231.162C378.535 229.417 376.974 228.176 375.213 227.549C377.494 227.96 379.589 229.339 380.839 231.504Z" fill="#5614C4" fill-opacity="0.32"/>
<path opacity="0.2" d="M397.869 277.37C402.394 274.757 403.945 268.973 401.334 264.449C398.722 259.926 392.937 258.377 388.412 260.99C383.887 263.602 382.336 269.387 384.947 273.91C387.559 278.433 393.344 279.982 397.869 277.37Z" fill="#5614C4" fill-opacity="0.32"/>
<path d="M397.23 276.264C401.144 274.004 402.486 269.001 400.227 265.088C397.968 261.176 392.964 259.836 389.05 262.096C385.136 264.355 383.794 269.359 386.053 273.271C388.312 277.184 393.316 278.524 397.23 276.264Z" fill="#581ABF" fill-opacity="0.58"/>
<path opacity="0.2" d="M395.89 261.472C394.046 261.139 392.084 261.427 390.338 262.435C386.426 264.694 385.089 269.697 387.347 273.608C388.351 275.347 389.9 276.58 391.655 277.21C389.383 276.802 387.298 275.425 386.048 273.26C383.79 269.349 385.136 264.348 389.048 262.09C391.208 260.842 393.703 260.692 395.89 261.472Z" fill="white"/>
<path opacity="0.2" d="M400.228 265.088C402.485 268.999 401.14 274 397.227 276.258C395.055 277.512 392.552 277.66 390.367 276.871C392.215 277.209 394.186 276.924 395.937 275.913C399.849 273.654 401.189 268.657 398.932 264.746C397.924 263.001 396.362 261.76 394.602 261.133C396.883 261.544 398.977 262.923 400.228 265.088Z" fill="#5614C4" fill-opacity="0.32"/>
<path opacity="0.2" d="M417.258 310.954C421.783 308.341 423.334 302.557 420.722 298.033C418.111 293.51 412.326 291.961 407.801 294.574C403.276 297.186 401.724 302.971 404.336 307.494C406.947 312.017 412.733 313.566 417.258 310.954Z" fill="#5614C4" fill-opacity="0.32"/>
<path d="M416.619 309.848C420.533 307.588 421.874 302.585 419.615 298.672C417.357 294.76 412.352 293.42 408.438 295.679C404.524 297.939 403.183 302.943 405.442 306.855C407.701 310.768 412.705 312.108 416.619 309.848Z" fill="#581ABF" fill-opacity="0.58"/>
<path opacity="0.2" d="M415.28 295.062C413.436 294.729 411.475 295.017 409.729 296.025C405.817 298.284 404.48 303.287 406.738 307.198C407.742 308.937 409.291 310.17 411.046 310.8C408.774 310.392 406.689 309.015 405.438 306.85C403.18 302.939 404.526 297.938 408.438 295.679C410.599 294.432 413.094 294.282 415.28 295.062Z" fill="white"/>
<path opacity="0.2" d="M419.616 298.672C421.874 302.583 420.528 307.584 416.616 309.842C414.444 311.096 411.94 311.244 409.756 310.455C411.603 310.793 413.574 310.508 415.326 309.497C419.238 307.238 420.578 302.241 418.32 298.33C417.313 296.585 415.751 295.344 413.991 294.717C416.272 295.128 418.366 296.506 419.616 298.672Z" fill="#5614C4" fill-opacity="0.32"/>
<path opacity="0.2" d="M279.179 309.533C287.194 304.906 289.942 294.658 285.316 286.646C280.69 278.633 270.442 275.889 262.426 280.517C254.41 285.145 251.662 295.392 256.288 303.405C260.915 311.417 271.163 314.161 279.179 309.533Z" fill="#5614C4" fill-opacity="0.32"/>
<path d="M278.046 307.569C284.976 303.568 287.352 294.708 283.352 287.78C279.352 280.852 270.491 278.479 263.561 282.481C256.63 286.482 254.254 295.342 258.254 302.27C262.254 309.198 271.115 311.571 278.046 307.569Z" fill="#581ABF" fill-opacity="0.58"/>
<path opacity="0.2" d="M275.682 281.388C272.422 280.797 268.945 281.308 265.851 283.094C258.919 287.096 256.55 295.951 260.55 302.88C262.329 305.961 265.07 308.142 268.18 309.257C264.158 308.53 260.462 306.095 258.251 302.265C254.251 295.336 256.629 286.483 263.561 282.481C267.392 280.269 271.808 280 275.673 281.385L275.682 281.388Z" fill="white"/>
<path opacity="0.2" d="M283.355 287.786C287.352 294.709 284.976 303.568 278.045 307.57C274.202 309.788 269.759 310.05 265.893 308.649C269.163 309.257 272.646 308.744 275.757 306.947C282.683 302.949 285.062 294.096 281.061 287.167C279.276 284.074 276.507 281.887 273.392 280.775C277.429 281.5 281.14 283.95 283.355 287.786Z" fill="#5614C4" fill-opacity="0.32"/>
<path opacity="0.2" d="M313.323 289.82C321.339 285.193 324.087 274.945 319.461 266.933C314.834 258.92 304.586 256.176 296.57 260.804C288.555 265.432 285.807 275.679 290.433 283.692C295.059 291.704 305.307 294.448 313.323 289.82Z" fill="#5614C4" fill-opacity="0.32"/>
<path d="M312.19 287.856C319.121 283.855 321.497 274.995 317.497 268.067C313.497 261.139 304.636 258.766 297.705 262.768C290.775 266.769 288.399 275.629 292.399 282.557C296.399 289.485 305.26 291.858 312.19 287.856Z" fill="#581ABF" fill-opacity="0.58"/>
<path opacity="0.2" d="M309.827 261.675C306.567 261.084 303.089 261.595 299.995 263.381C293.064 267.383 290.694 276.238 294.694 283.167C296.473 286.248 299.215 288.429 302.325 289.544C298.302 288.817 294.607 286.382 292.395 282.552C288.395 275.623 290.774 266.77 297.705 262.768C301.537 260.556 305.953 260.287 309.818 261.672L309.827 261.675Z" fill="white"/>
<path opacity="0.2" d="M317.499 268.073C321.496 274.996 319.121 283.855 312.189 287.857C308.346 290.075 303.903 290.337 300.037 288.936C303.307 289.544 306.79 289.031 309.902 287.234C316.827 283.236 319.206 274.383 315.206 267.454C313.42 264.361 310.652 262.174 307.536 261.062C311.573 261.787 315.285 264.237 317.499 268.073Z" fill="#5614C4" fill-opacity="0.32"/>
<path opacity="0.2" d="M347.468 270.107C355.483 265.48 358.231 255.232 353.605 247.22C348.979 239.207 338.731 236.463 330.715 241.091C322.699 245.719 319.951 255.966 324.578 263.979C329.204 271.991 339.452 274.735 347.468 270.107Z" fill="#5614C4" fill-opacity="0.32"/>
<path d="M346.335 268.143C353.265 264.142 355.641 255.282 351.641 248.354C347.641 241.426 338.78 239.053 331.85 243.055C324.919 247.056 322.543 255.916 326.543 262.844C330.543 269.772 339.404 272.145 346.335 268.143Z" fill="#581ABF" fill-opacity="0.58"/>
<path opacity="0.2" d="M343.971 241.962C340.711 241.371 337.234 241.882 334.14 243.668C327.208 247.67 324.839 256.525 328.839 263.454C330.618 266.535 333.359 268.716 336.469 269.831C332.447 269.104 328.751 266.669 326.54 262.838C322.54 255.91 324.918 247.057 331.85 243.055C335.681 240.843 340.097 240.574 343.962 241.959L343.971 241.962Z" fill="white"/>
<path opacity="0.2" d="M351.644 248.36C355.641 255.283 353.265 264.142 346.334 268.144C342.491 270.362 338.048 270.624 334.182 269.223C337.452 269.831 340.935 269.318 344.046 267.521C350.972 263.523 353.351 254.67 349.35 247.741C347.565 244.648 344.796 242.461 341.681 241.349C345.718 242.074 349.429 244.524 351.644 248.36Z" fill="#5614C4" fill-opacity="0.32"/>
<path opacity="0.2" d="M305.361 322.276C302.7 313.415 293.357 308.39 284.493 311.054C275.629 313.717 270.6 323.06 273.262 331.922C275.923 340.783 285.266 345.808 294.13 343.144C302.994 340.481 308.022 331.138 305.361 322.276Z" fill="#5614C4" fill-opacity="0.32"/>
<path d="M303.188 322.929C300.887 315.267 292.809 310.923 285.144 313.226C277.48 315.529 273.133 323.607 275.433 331.269C277.734 338.931 285.813 343.275 293.477 340.972C301.141 338.669 305.489 330.591 303.188 322.929Z" fill="#581ABF" fill-opacity="0.58"/>
<path opacity="0.2" d="M294.204 313.469C290.944 312.878 287.466 313.388 284.372 315.175C277.441 319.176 275.071 328.032 279.071 334.961C280.85 338.042 283.592 340.222 286.702 341.337C282.679 340.611 278.984 338.175 276.772 334.345C272.772 327.416 275.151 318.563 282.082 314.561C285.914 312.349 290.33 312.081 294.195 313.466L294.204 313.469Z" fill="white"/>
<path opacity="0.2" d="M301.876 319.866C305.873 326.789 303.498 335.648 296.566 339.65C292.723 341.869 288.28 342.13 284.414 340.73C287.684 341.338 291.167 340.824 294.279 339.028C301.204 335.03 303.583 326.176 299.583 319.248C297.797 316.155 295.029 313.967 291.913 312.856C295.95 313.581 299.661 316.031 301.876 319.866Z" fill="#5614C4" fill-opacity="0.32"/>
<path opacity="0.2" d="M339.16 301.456C335.878 292.806 326.202 288.455 317.549 291.74C308.895 295.024 304.541 304.699 307.823 313.35C311.105 322.001 320.781 326.351 329.434 323.067C338.087 319.782 342.442 310.107 339.16 301.456Z" fill="#5614C4" fill-opacity="0.32"/>
<path d="M334.967 316.214C339.84 309.866 338.644 300.773 332.296 295.903C325.948 291.034 316.853 292.233 311.98 298.581C307.108 304.929 308.304 314.022 314.652 318.892C320.999 323.761 330.095 322.562 334.967 316.214Z" fill="#581ABF" fill-opacity="0.58"/>
<path opacity="0.2" d="M328.348 293.756C325.088 293.165 321.611 293.675 318.517 295.462C311.585 299.464 309.216 308.319 313.216 315.248C314.995 318.329 317.736 320.509 320.846 321.624C316.824 320.898 313.128 318.462 310.917 314.632C306.917 307.704 309.295 298.85 316.227 294.849C320.058 292.636 324.474 292.368 328.339 293.753L328.348 293.756Z" fill="white"/>
<path opacity="0.2" d="M336.021 300.153C340.018 307.076 337.642 315.935 330.711 319.937C326.868 322.156 322.425 322.417 318.559 321.017C321.829 321.625 325.312 321.111 328.423 319.315C335.349 315.316 337.728 306.463 333.727 299.535C331.942 296.442 329.173 294.254 326.058 293.143C330.095 293.868 333.806 296.318 336.021 300.153Z" fill="#5614C4" fill-opacity="0.32"/>
<path opacity="0.2" d="M373.803 292.015C376.2 283.076 370.896 273.89 361.957 271.497C353.018 269.103 343.828 274.409 341.432 283.347C339.035 292.286 344.338 301.472 353.278 303.865C362.217 306.259 371.406 300.953 373.803 292.015Z" fill="#5614C4" fill-opacity="0.32"/>
<path d="M371.613 291.428C373.685 283.7 369.099 275.757 361.37 273.688C353.641 271.618 345.696 276.206 343.623 283.934C341.551 291.662 346.137 299.605 353.866 301.674C361.595 303.744 369.54 299.156 371.613 291.428Z" fill="#581ABF" fill-opacity="0.58"/>
<path opacity="0.2" d="M362.493 274.042C359.233 273.452 355.755 273.962 352.661 275.749C345.73 279.75 343.36 288.606 347.36 295.535C349.139 298.616 351.881 300.796 354.991 301.911C350.968 301.185 347.273 298.749 345.061 294.919C341.061 287.99 343.44 279.137 350.371 275.135C354.203 272.923 358.619 272.655 362.484 274.04L362.493 274.042Z" fill="white"/>
<path opacity="0.2" d="M370.165 280.44C374.162 287.363 371.787 296.222 364.855 300.224C361.012 302.443 356.569 302.704 352.703 301.304C355.973 301.912 359.456 301.398 362.568 299.602C369.493 295.603 371.872 286.75 367.872 279.822C366.086 276.729 363.318 274.541 360.202 273.429C364.239 274.155 367.951 276.605 370.165 280.44Z" fill="#5614C4" fill-opacity="0.32"/>
<path opacity="0.2" d="M316.226 373.701C324.241 369.073 326.989 358.826 322.363 350.813C317.737 342.8 307.488 340.056 299.473 344.684C291.457 349.312 288.709 359.559 293.335 367.572C297.962 375.585 308.21 378.329 316.226 373.701Z" fill="#5614C4" fill-opacity="0.32"/>
<path d="M315.093 371.737C322.023 367.735 324.399 358.875 320.399 351.947C316.399 345.019 307.538 342.647 300.608 346.648C293.677 350.65 291.301 359.51 295.301 366.438C299.301 373.366 308.162 375.738 315.093 371.737Z" fill="#581ABF" fill-opacity="0.58"/>
<path opacity="0.2" d="M312.725 345.549C309.465 344.959 305.988 345.469 302.894 347.256C295.962 351.257 293.593 360.113 297.593 367.042C299.372 370.123 302.113 372.303 305.223 373.418C301.201 372.692 297.505 370.256 295.294 366.426C291.294 359.497 293.672 350.644 300.604 346.642C304.435 344.43 308.851 344.162 312.716 345.547L312.725 345.549Z" fill="white"/>
<path opacity="0.2" d="M320.402 351.953C324.399 358.876 322.023 367.735 315.092 371.737C311.249 373.956 306.805 374.217 302.939 372.817C306.21 373.424 309.693 372.911 312.804 371.115C319.73 367.116 322.109 358.263 318.108 351.334C316.323 348.241 313.554 346.054 310.438 344.942C314.476 345.668 318.187 348.117 320.402 351.953Z" fill="#5614C4" fill-opacity="0.32"/>
<path opacity="0.2" d="M350.37 353.988C358.386 349.36 361.134 339.113 356.507 331.1C351.881 323.087 341.633 320.343 333.617 324.971C325.602 329.599 322.854 339.846 327.48 347.859C332.106 355.872 342.354 358.616 350.37 353.988Z" fill="#5614C4" fill-opacity="0.32"/>
<path d="M349.237 352.024C356.168 348.022 358.544 339.162 354.544 332.234C350.544 325.306 341.683 322.934 334.752 326.935C327.822 330.937 325.446 339.797 329.446 346.725C333.446 353.653 342.306 356.025 349.237 352.024Z" fill="#581ABF" fill-opacity="0.58"/>
<path opacity="0.2" d="M346.87 325.836C343.61 325.246 340.132 325.756 337.038 327.542C330.107 331.544 327.737 340.4 331.737 347.329C333.516 350.41 336.258 352.59 339.368 353.705C335.345 352.979 331.65 350.543 329.438 346.713C325.438 339.784 327.817 330.931 334.748 326.929C338.58 324.717 342.996 324.449 346.861 325.834L346.87 325.836Z" fill="white"/>
<path opacity="0.2" d="M354.546 332.24C358.543 339.163 356.168 348.022 349.236 352.024C345.393 354.243 340.95 354.504 337.084 353.104C340.354 353.711 343.837 353.198 346.949 351.402C353.874 347.403 356.253 338.55 352.253 331.621C350.467 328.528 347.698 326.341 344.583 325.229C348.62 325.955 352.331 328.404 354.546 332.24Z" fill="#5614C4" fill-opacity="0.32"/>
<path opacity="0.2" d="M384.515 334.275C392.53 329.647 395.278 319.4 390.652 311.387C386.026 303.374 375.778 300.63 367.762 305.258C359.746 309.886 356.998 320.133 361.624 328.146C366.251 336.159 376.499 338.903 384.515 334.275Z" fill="#5614C4" fill-opacity="0.32"/>
<path d="M383.382 332.311C390.312 328.309 392.688 319.449 388.688 312.521C384.688 305.593 375.827 303.221 368.897 307.222C361.966 311.224 359.59 320.084 363.59 327.012C367.59 333.94 376.451 336.312 383.382 332.311Z" fill="#581ABF" fill-opacity="0.58"/>
<path opacity="0.2" d="M381.014 306.123C377.754 305.533 374.277 306.043 371.183 307.829C364.251 311.831 361.882 320.687 365.882 327.616C367.661 330.697 370.402 332.877 373.512 333.992C369.49 333.266 365.794 330.83 363.583 327C359.583 320.071 361.961 311.218 368.893 307.216C372.724 305.004 377.14 304.735 381.005 306.121L381.014 306.123Z" fill="white"/>
<path opacity="0.2" d="M388.691 312.527C392.688 319.45 390.312 328.309 383.381 332.311C379.538 334.53 375.095 334.791 371.229 333.391C374.499 333.998 377.982 333.485 381.093 331.689C388.019 327.69 390.398 318.837 386.397 311.908C384.612 308.815 381.843 306.628 378.727 305.516C382.765 306.242 386.476 308.691 388.691 312.527Z" fill="#5614C4" fill-opacity="0.32"/>
<path d="M250.221 258.42L250.186 258.44L248.815 260.668L247.833 259.66L249.565 256.871L250.89 256.106L257.504 267.562L256.006 268.427L250.227 258.416L250.221 258.42Z" fill="#CCCCCC"/>
<path d="M286.127 251.167L285.579 250.216L286.113 248.334C287.434 243.862 287.895 241.614 286.924 239.879C286.252 238.715 285.066 237.964 283.355 238.952C282.312 239.554 281.753 240.583 281.482 241.324L280.354 240.515C280.764 239.388 281.607 238.241 282.927 237.479C285.393 236.055 287.413 237.147 288.357 238.782C289.578 240.896 289.033 243.492 287.962 247.212L287.535 248.588L287.555 248.622L292.7 245.652L293.442 246.936L286.124 251.161L286.127 251.167Z" fill="#CCCCCC"/>
<path d="M319.69 229.287C320.297 229.313 321.569 229.162 322.647 228.54C324.64 227.389 324.525 225.765 323.956 224.819C323.014 223.228 321.169 223.372 319.671 224.237L318.807 224.736L318.135 223.572L318.999 223.073C320.128 222.421 321.221 221.015 320.437 219.656C319.908 218.74 318.857 218.264 317.428 219.089C316.512 219.618 315.863 220.53 315.574 221.173L314.519 220.277C314.865 219.493 315.773 218.378 317.006 217.666C319.265 216.362 321.059 217.115 321.861 218.503C322.543 219.684 322.418 221.092 321.303 222.419L321.323 222.454C322.897 221.921 324.656 222.319 325.58 223.92C326.637 225.752 326.136 228.184 323.388 229.77C322.103 230.512 320.741 230.761 319.96 230.713L319.689 229.272L319.69 229.287Z" fill="#CCCCCC"/>
<path d="M275.241 300.104L273.438 296.982L268.114 300.056L267.526 299.036L268.413 288.771L270.09 287.803L274.2 294.922L275.802 293.997L276.503 295.212L274.902 296.137L276.704 299.259L275.241 300.104ZM272.737 295.767L270.529 291.943C270.183 291.344 269.854 290.735 269.543 290.116L269.491 290.146C269.525 291.017 269.529 291.675 269.518 292.388L268.96 297.901L268.98 297.936L272.737 295.767Z" fill="#CCCCCC"/>
<path d="M305.669 268.874L301.296 271.399L302.552 274.598C302.797 274.41 303.024 274.233 303.445 273.99C304.327 273.481 305.321 273.168 306.267 273.182C307.462 273.176 308.773 273.732 309.608 275.178C310.902 277.418 310.086 280.116 307.597 281.553C306.346 282.275 305.083 282.536 304.333 282.501L304.037 281.097C304.679 281.103 305.815 280.916 306.852 280.317C308.315 279.472 309.017 277.8 308.133 276.268C307.261 274.797 305.664 274.306 303.37 275.63C302.719 276.006 302.246 276.371 301.856 276.666L299.423 270.737L304.908 267.57L305.66 268.871L305.669 268.874Z" fill="#CCCCCC"/>
<path d="M339.211 249.34C338.884 249.506 338.491 249.756 338.087 250.081C335.888 251.888 335.625 254.413 336.451 256.455L336.503 256.425C336.634 255.389 337.239 254.241 338.507 253.51C340.535 252.339 342.809 252.977 344.102 255.217C345.313 257.314 345.004 260.079 342.625 261.453C340.245 262.827 337.468 261.889 335.749 258.911C334.445 256.653 334.23 254.405 334.707 252.624C335.119 251.142 336.057 249.825 337.394 248.815C337.815 248.48 338.191 248.239 338.474 248.076L339.205 249.343L339.211 249.34ZM342.591 256.205C341.643 254.563 340.141 254.117 338.712 254.942C337.779 255.481 337.25 256.562 337.303 257.638C337.302 257.876 337.357 258.144 337.52 258.426C338.642 260.29 340.311 261.184 341.935 260.246C343.278 259.471 343.535 257.841 342.591 256.205Z" fill="#CCCCCC"/>
<path d="M289.631 319.295L290.22 320.315L291.252 333.626L289.651 334.551L288.774 321.549L288.754 321.514L283.148 324.751L282.406 323.467L289.637 319.292L289.631 319.295Z" fill="#CCCCCC"/>
<path d="M321.226 312.45C320.391 311.005 320.667 309.486 321.733 308.072L321.686 308.031C320.072 308.163 318.956 307.495 318.384 306.504C317.337 304.69 318.158 302.572 320.169 301.411C322.393 300.127 324.304 300.882 325.128 302.311C325.687 303.278 325.811 304.597 324.791 306.077L324.821 306.129C326.575 305.868 328.035 306.361 328.84 307.755C329.991 309.748 329.051 312.072 326.867 313.333C324.47 314.717 322.199 314.123 321.232 312.447L321.226 312.45ZM327.357 308.819C326.552 307.425 325.199 307.316 323.39 307.776C322.27 308.937 322.059 310.234 322.691 311.328C323.311 312.522 324.781 313.032 326.244 312.187C327.708 311.342 328.039 309.999 327.357 308.819ZM319.788 305.555C320.45 306.701 321.67 306.819 323.192 306.408C323.984 305.505 324.336 304.358 323.737 303.321C323.209 302.405 322.113 301.771 320.718 302.576C319.433 303.318 319.214 304.574 319.782 305.559L319.788 305.555Z" fill="#CCCCCC"/>
<path d="M357.415 293.991C357.769 293.833 358.135 293.575 358.635 293.217C359.464 292.577 360.095 291.714 360.39 290.722C360.755 289.597 360.715 288.277 360.146 286.8L360.095 286.83C359.91 287.974 359.256 288.958 358.11 289.62C356.047 290.81 353.827 290.026 352.697 288.068C351.446 285.902 351.913 283.091 354.258 281.737C356.603 280.383 359.146 281.449 360.836 284.375C362.292 286.898 362.463 289.149 361.962 290.89C361.579 292.262 360.669 293.494 359.516 294.344C359.001 294.757 358.516 295.06 358.137 295.256L357.406 293.989L357.415 293.991ZM354.172 287.07C354.997 288.499 356.439 289.002 357.776 288.23C358.819 287.628 359.33 286.65 359.343 285.728C359.35 285.54 359.298 285.332 359.155 285.084C358.025 283.126 356.44 282.044 354.815 282.982C353.49 283.747 353.228 285.449 354.163 287.068L354.172 287.07Z" fill="#CCCCCC"/>
<path d="M345.813 337.113C348.061 341.006 347.858 343.996 345.323 345.459C343.082 346.753 340.356 345.532 338.134 341.762C335.916 337.92 336.355 334.848 338.682 333.504C341.01 332.161 343.714 333.464 345.822 337.115L345.813 337.113ZM339.684 340.882C341.404 343.859 343.297 345.024 344.709 344.209C346.293 343.294 345.987 341.006 344.297 338.08C342.608 335.154 340.88 333.825 339.273 334.753C337.913 335.538 337.885 337.766 339.684 340.882Z" fill="#CCCCCC"/>
<path d="M309.325 351.436L308.484 358.043L308.527 358.118L313.65 354.177L315.093 356.677L309.162 359.218L309.205 359.292L315.275 361.663L313.724 364.325L308.548 360.455L308.473 360.499L309.071 367.057L306.215 366.94L307.119 360.443L307.076 360.368L302.039 364.205L300.596 361.706L306.403 359.282L306.36 359.207L300.322 356.719L301.821 354.141L307.043 357.93L307.118 357.886L306.39 351.449L309.318 351.425L309.325 351.436Z" fill="#CCCCCC"/>
<path d="M376.698 327.084L375.164 323.362L373.718 324.197L373.116 323.154L374.718 322.23L373.575 319.479L372.06 320.354L371.458 319.312L373.135 318.344L371.654 314.714L372.674 314.125L374.172 317.745L376.004 316.687L374.523 313.058L375.566 312.455L377.07 316.072L378.516 315.237L379.118 316.279L377.516 317.204L378.676 319.944L380.191 319.069L380.793 320.112L379.117 321.08L380.651 324.802L379.591 325.414L378.056 321.692L376.224 322.75L377.758 326.472L376.698 327.084ZM377.613 320.566L376.471 317.815L374.639 318.873L375.781 321.623L377.613 320.566Z" fill="#CCCCCC"/>
<path d="M137.681 144.423C137.56 144.239 137.436 144.065 137.309 143.885C137.039 143.496 136.762 143.11 136.483 142.734C136.332 142.537 136.183 142.347 136.035 142.156C135.751 141.798 135.465 141.448 135.167 141.106C135.019 140.93 134.868 140.748 134.709 140.579C134.358 140.183 133.992 139.803 133.621 139.426C133.522 139.321 133.424 139.217 133.325 139.113C133.106 138.893 132.879 138.687 132.649 138.474C132.649 138.474 132.649 138.474 132.655 138.471C132.582 138.398 132.501 138.337 132.428 138.264C132.245 138.093 132.058 137.917 131.869 137.749C131.787 137.674 131.7 137.601 131.612 137.529C131.477 137.415 131.342 137.301 131.201 137.19C130.953 136.988 130.708 136.776 130.458 136.582C130.405 136.544 130.352 136.505 130.305 136.464C130.121 136.317 129.933 136.179 129.746 136.041C129.397 135.782 129.054 135.535 128.697 135.288C128.523 135.173 128.352 135.049 128.178 134.935C128.104 134.886 128.026 134.831 127.951 134.782C127.74 134.642 127.527 134.512 127.313 134.382C127.109 134.254 126.901 134.121 126.691 133.996C126.589 133.94 126.49 133.874 126.388 133.818C126.237 133.729 126.08 133.643 125.926 133.562C125.651 133.406 125.374 133.259 125.088 133.109C124.956 133.04 124.82 132.965 124.685 132.889C124.608 132.849 124.525 132.812 124.448 132.772C124.131 132.61 123.81 132.465 123.485 132.315C123.338 132.246 123.196 132.174 123.047 132.115C122.973 132.08 122.894 132.049 122.82 132.015C122.738 131.978 122.646 131.939 122.563 131.902C122.563 131.902 122.578 131.902 122.587 131.904C122.413 131.828 122.239 131.767 122.062 131.7C121.891 131.63 121.726 131.557 121.558 131.492C121.466 131.453 121.372 131.423 121.284 131.389C121.217 131.367 121.15 131.344 121.085 131.312C120.841 131.222 120.594 131.127 120.35 131.037C120.244 130.999 120.131 130.964 120.016 130.923C119.855 130.871 119.697 130.823 119.541 130.767C119.277 130.682 119.018 130.593 118.752 130.517C118.697 130.502 118.648 130.484 118.59 130.464C118.487 130.431 118.381 130.408 118.278 130.375C118.16 130.344 118.042 130.312 117.924 130.281C117.575 130.182 117.224 130.093 116.876 130.01C116.74 129.973 116.604 129.937 116.471 129.906C116.389 129.884 116.305 129.871 116.226 129.855C115.776 129.754 115.324 129.662 114.865 129.574C114.814 129.565 114.76 129.55 114.708 129.541C114.648 129.53 114.588 129.519 114.527 129.507C114.452 129.497 114.38 129.478 114.304 129.467C114.187 129.45 114.07 129.434 113.953 129.417C113.64 129.367 113.324 129.312 113.008 129.271C112.942 129.263 112.879 129.261 112.819 129.25C112.759 129.238 112.696 129.236 112.636 129.225C112.396 129.195 112.155 129.165 111.909 129.138C111.72 129.116 111.535 129.101 111.349 129.085C111.202 129.07 111.058 129.061 110.915 129.051C110.672 129.03 110.435 129.006 110.19 128.994C110.133 128.988 110.076 128.983 110.019 128.977C110.019 128.977 110.032 128.985 110.037 128.982C110.037 128.982 110.026 128.989 110.022 128.983C109.903 128.975 109.786 128.973 109.667 128.966C109.667 128.966 109.661 128.969 109.652 128.967C109.493 128.958 109.335 128.95 109.171 128.945C108.77 128.93 108.374 128.921 107.974 128.921C107.858 128.92 107.747 128.914 107.634 128.918C107.581 128.918 107.527 128.919 107.473 128.919C106.922 128.922 106.372 128.94 105.819 128.968C105.808 128.974 105.795 128.966 105.78 128.967C105.706 128.972 105.623 128.974 105.543 128.981C105.454 128.987 105.365 128.992 105.27 129.001C104.854 129.026 104.436 129.06 104.021 129.1C103.92 129.112 103.82 129.124 103.719 129.136C103.645 129.14 103.568 129.154 103.494 129.158C103.343 129.176 103.198 129.191 103.047 129.209C102.804 129.241 102.568 129.271 102.325 129.303C102.154 129.325 101.985 129.353 101.823 129.378C101.563 129.42 101.3 129.457 101.044 129.505C100.973 129.516 100.905 129.532 100.838 129.548C100.761 129.561 100.688 129.58 100.617 129.591C100.437 129.625 100.257 129.66 100.078 129.695C99.7272 129.766 99.371 129.841 99.0216 129.928C98.8921 129.957 98.7685 129.982 98.6424 130.016C98.5484 130.04 98.4602 130.06 98.3662 130.084C97.8231 130.221 97.2832 130.363 96.7385 130.524C96.7212 130.534 96.7006 130.538 96.6857 130.539C96.6478 130.554 96.6066 130.562 96.5745 130.573C96.5217 130.588 96.4723 130.609 96.4196 130.624C95.9482 130.766 95.4744 130.916 95.0015 131.082C94.8614 131.132 94.7213 131.182 94.5813 131.232C94.4297 131.289 94.269 131.343 94.1175 131.4C93.8579 131.496 93.6042 131.589 93.348 131.691C93.1528 131.765 92.9609 131.845 92.7689 131.925C92.5713 132.009 92.3703 132.086 92.1726 132.17C92.1438 132.186 92.1092 132.206 92.0737 132.211C91.9461 132.27 91.8184 132.328 91.6908 132.386C91.4965 132.476 91.293 132.562 91.0987 132.652C90.8146 132.785 90.5305 132.918 90.2497 133.057C90.1048 133.126 89.9689 133.196 89.8273 133.27C89.7087 133.331 89.5902 133.392 89.4716 133.453C88.934 133.732 88.403 134.024 87.8787 134.326L55.9358 152.769C37.6769 163.31 30.869 185.702 40.7318 202.785L192.418 465.513C192.704 466.008 193.004 466.488 193.309 466.964C193.373 467.074 193.444 467.171 193.513 467.277C193.592 467.4 193.677 467.52 193.761 467.64C193.925 467.884 194.094 468.124 194.264 468.364C194.381 468.527 194.507 468.692 194.624 468.855C194.702 468.963 194.78 469.072 194.86 469.171C194.877 469.2 194.899 469.226 194.922 469.251C195.044 469.41 195.173 469.567 195.302 469.723C195.421 469.876 195.546 470.027 195.672 470.177C195.838 470.373 196.005 470.568 196.175 470.77C196.275 470.889 196.38 471.005 196.482 471.115C196.575 471.223 196.668 471.33 196.763 471.429C197.079 471.776 197.403 472.111 197.733 472.443C197.771 472.483 197.806 472.516 197.844 472.556C197.866 472.581 197.898 472.609 197.92 472.634C197.93 472.652 197.948 472.657 197.958 472.674C198.335 473.048 198.726 473.405 199.123 473.76C199.189 473.822 199.252 473.877 199.324 473.936C199.415 474.014 199.51 474.097 199.601 474.175C199.862 474.401 200.119 474.621 200.388 474.834C200.52 474.942 200.657 475.047 200.798 475.158C200.854 475.202 200.914 475.252 200.97 475.297C201.023 475.335 201.074 475.383 201.127 475.421C201.33 475.573 201.529 475.719 201.732 475.871C201.863 475.964 201.988 476.061 202.128 476.157C202.32 476.291 202.513 476.426 202.703 476.554C202.818 476.634 202.939 476.71 203.054 476.789C203.116 476.83 203.178 476.871 203.24 476.912C203.318 476.967 203.401 477.019 203.479 477.074C203.82 477.291 204.163 477.5 204.512 477.706C204.583 477.749 204.655 477.793 204.726 477.836C204.794 477.874 204.856 477.915 204.923 477.952C204.93 477.964 204.945 477.963 204.957 477.971C205.417 478.235 205.889 478.493 206.365 478.733C206.411 478.76 206.454 478.781 206.506 478.804C206.605 478.855 206.709 478.903 206.804 478.947C207.151 479.123 207.501 479.29 207.857 479.453C208 479.516 208.139 479.582 208.282 479.645C208.282 479.645 208.286 479.651 208.295 479.653C208.399 479.701 208.503 479.748 208.607 479.795C208.607 479.795 208.616 479.798 208.626 479.8C208.626 479.8 208.611 479.801 208.602 479.799C208.654 479.823 208.702 479.84 208.751 479.858C208.974 479.952 209.2 480.037 209.42 480.125C209.551 480.18 209.683 480.234 209.817 480.28C209.988 480.35 210.161 480.411 210.338 480.478C210.564 480.563 210.792 480.638 211.014 480.717C211.072 480.738 211.13 480.758 211.188 480.779C211.246 480.799 211.307 480.825 211.37 480.842C211.674 480.943 211.975 481.038 212.282 481.13C212.394 481.165 212.501 481.203 212.613 481.238C212.686 481.258 212.758 481.277 212.825 481.3C212.883 481.32 212.943 481.331 213.001 481.352C213.05 481.37 213.101 481.379 213.156 481.393C213.604 481.518 214.05 481.637 214.503 481.744C214.585 481.766 214.667 481.788 214.745 481.804C214.878 481.835 215.023 481.859 215.156 481.89C215.509 481.97 215.865 482.041 216.221 482.112C216.342 482.134 216.462 482.157 216.583 482.179C216.694 482.199 216.8 482.223 216.908 482.237C216.959 482.246 217.016 482.251 217.073 482.257C217.347 482.306 217.63 482.343 217.906 482.383C218.075 482.408 218.243 482.434 218.408 482.454C218.525 482.471 218.643 482.487 218.76 482.504C219.024 482.536 219.291 482.559 219.552 482.585C219.623 482.589 219.699 482.6 219.765 482.608C219.864 482.619 219.963 482.631 220.068 482.64C220.253 482.656 220.441 482.662 220.627 482.678C220.819 482.69 221.008 482.712 221.199 482.724C221.199 482.724 221.187 482.716 221.178 482.713C221.273 482.719 221.369 482.726 221.462 482.726C221.548 482.73 221.635 482.733 221.722 482.737C221.886 482.742 222.05 482.747 222.214 482.752C222.581 482.763 222.949 482.774 223.309 482.773C223.402 482.773 223.488 482.777 223.581 482.777C223.742 482.776 223.896 482.764 224.057 482.763C224.384 482.759 224.709 482.748 225.039 482.734C225.22 482.729 225.407 482.721 225.586 482.71C225.704 482.703 225.829 482.693 225.948 482.685C226.2 482.67 226.455 482.646 226.704 482.625C226.968 482.603 227.223 482.579 227.484 482.551C227.578 482.543 227.673 482.534 227.765 482.519C227.981 482.495 228.199 482.461 228.415 482.436C228.859 482.379 229.305 482.314 229.754 482.239C229.993 482.201 230.238 482.159 230.474 482.115C230.541 482.099 230.606 482.092 230.677 482.082C231.01 482.02 231.337 481.947 231.669 481.87C231.855 481.832 232.034 481.798 232.216 481.754C232.331 481.726 232.449 481.704 232.564 481.676C232.819 481.613 233.077 481.541 233.338 481.475C233.444 481.445 233.547 481.424 233.652 481.393C233.972 481.309 234.286 481.227 234.599 481.131C234.743 481.086 234.888 481.033 235.032 480.989C235.568 480.825 236.102 480.647 236.63 480.457C236.861 480.378 237.091 480.284 237.324 480.195C237.773 480.028 238.221 479.846 238.675 479.661C238.916 479.56 239.158 479.459 239.396 479.352C239.854 479.149 240.312 478.931 240.77 478.712C240.978 478.607 241.188 478.517 241.393 478.407C242.046 478.075 242.699 477.729 243.344 477.357L275.287 458.914C293.546 448.373 300.354 425.981 290.491 408.898L138.805 146.17C138.456 145.565 138.087 144.979 137.71 144.406L137.681 144.423Z" fill="#2F3033"/>
<path opacity="0.3" d="M99.6973 453.64C99.6973 453.64 99.7221 453.656 99.7403 453.661L99.7345 453.664C99.7345 453.664 99.7097 453.648 99.703 453.636L99.6973 453.64Z" fill="black"/>
<path opacity="0.3" d="M119.064 456.834L119.07 456.83L119.077 456.842C119.077 456.842 119.068 456.839 119.064 456.834Z" fill="black"/>
<path opacity="0.3" d="M403.898 506.979L403.905 506.99C403.905 506.99 403.896 506.988 403.893 506.982L403.898 506.979Z" fill="black"/>
<path opacity="0.3" d="M391.416 517.426L391.422 517.423L391.428 517.434C391.428 517.434 391.419 517.432 391.416 517.426Z" fill="black"/>
<path opacity="0.3" d="M431.302 489.045C431.302 489.045 431.3 489.054 431.297 489.062C431.3 489.054 431.297 489.048 431.302 489.045Z" fill="black"/>
<path opacity="0.3" d="M149.34 144.38C149.219 144.196 149.095 144.022 148.972 143.848C148.707 143.455 148.43 143.07 148.151 142.693C148.005 142.493 147.857 142.303 147.708 142.112C147.43 141.75 147.144 141.401 146.856 141.061C146.708 140.885 146.56 140.709 146.407 140.536C146.055 140.14 145.701 139.754 145.336 139.373C145.237 139.269 145.144 139.161 145.04 139.06C144.821 138.841 144.6 138.631 144.379 138.421C144.306 138.348 144.23 138.284 144.152 138.214C143.969 138.043 143.788 137.863 143.605 137.692C143.523 137.617 143.435 137.545 143.353 137.469C143.224 137.352 143.083 137.241 142.954 137.124C142.712 136.918 142.473 136.703 142.228 136.506C142.181 136.464 142.128 136.426 142.075 136.387C141.894 136.246 141.709 136.099 141.528 135.958C141.193 135.698 140.848 135.445 140.502 135.191C140.334 135.073 140.168 134.946 139.994 134.832C139.92 134.782 139.842 134.728 139.767 134.678C139.562 134.536 139.354 134.402 139.147 134.269C138.948 134.138 138.741 134.004 138.539 133.882C138.444 133.822 138.344 133.757 138.242 133.7C138.091 133.611 137.94 133.522 137.792 133.438C137.523 133.279 137.251 133.128 136.977 132.972C136.845 132.902 136.715 132.824 136.582 132.754C136.505 132.714 136.429 132.674 136.352 132.634C136.044 132.474 135.731 132.317 135.417 132.16C135.276 132.088 135.134 132.016 134.991 131.953C134.917 131.919 134.843 131.885 134.77 131.85C134.687 131.814 134.601 131.771 134.518 131.734C134.518 131.734 134.533 131.733 134.542 131.736C134.377 131.662 134.2 131.595 134.035 131.522C133.869 131.449 133.704 131.375 133.542 131.307C133.45 131.268 133.362 131.235 133.273 131.201C133.212 131.175 133.145 131.152 133.081 131.121C132.843 131.028 132.607 130.926 132.369 130.833C132.263 130.794 132.156 130.756 132.046 130.712C131.891 130.656 131.739 130.605 131.583 130.549C131.33 130.457 131.072 130.368 130.816 130.285C130.768 130.267 130.713 130.253 130.664 130.235C130.561 130.202 130.461 130.176 130.358 130.143C130.245 130.108 130.127 130.077 130.015 130.042C129.678 129.937 129.338 129.841 128.996 129.754C128.86 129.718 128.735 129.675 128.602 129.644C128.52 129.622 128.442 129.606 128.364 129.59C127.925 129.482 127.49 129.38 127.043 129.285C126.992 129.276 126.937 129.261 126.892 129.249C126.831 129.238 126.777 129.223 126.717 129.212C126.647 129.198 126.575 129.179 126.499 129.168C126.388 129.148 126.271 129.132 126.159 129.111C125.858 129.055 125.547 128.996 125.243 128.949C125.183 128.938 125.12 128.936 125.06 128.924C125 128.913 124.943 128.908 124.883 128.896C124.648 128.863 124.419 128.826 124.179 128.796C123.996 128.771 123.816 128.752 123.636 128.733C123.495 128.715 123.357 128.702 123.219 128.689C122.988 128.662 122.757 128.634 122.523 128.615C122.466 128.61 122.415 128.601 122.358 128.595C122.358 128.595 122.37 128.603 122.376 128.6C122.376 128.6 122.37 128.603 122.361 128.601C122.247 128.59 122.131 128.588 122.017 128.577C122.017 128.577 122.011 128.58 122.002 128.578C121.85 128.566 121.697 128.555 121.542 128.552C121.159 128.527 120.773 128.512 120.386 128.505C120.275 128.5 120.164 128.495 120.057 128.495C120.003 128.496 119.95 128.496 119.902 128.493C119.368 128.486 118.841 128.491 118.311 128.505C118.3 128.512 118.287 128.503 118.272 128.504C118.198 128.509 118.124 128.513 118.046 128.512C117.963 128.514 117.874 128.519 117.785 128.525C117.381 128.543 116.985 128.564 116.582 128.597C116.487 128.606 116.387 128.618 116.292 128.627C116.217 128.631 116.147 128.641 116.072 128.646C115.927 128.66 115.788 128.672 115.643 128.686C115.412 128.712 115.181 128.738 114.95 128.764C114.787 128.789 114.627 128.804 114.465 128.829C114.217 128.865 113.965 128.895 113.72 128.936C113.649 128.946 113.588 128.959 113.52 128.975C113.449 128.985 113.376 129.005 113.305 129.015C113.131 129.046 112.963 129.074 112.789 129.105C112.45 129.171 112.114 129.241 111.779 129.312C111.655 129.338 111.537 129.36 111.417 129.391C111.329 129.411 111.24 129.431 111.152 129.451C110.632 129.575 110.109 129.708 109.594 129.852C109.576 129.862 109.561 129.863 109.541 129.867C109.509 129.878 109.467 129.886 109.43 129.901C109.377 129.916 109.333 129.933 109.28 129.948C108.826 130.08 108.376 130.217 107.926 130.37C107.791 130.416 107.657 130.463 107.523 130.51C107.377 130.563 107.228 130.611 107.076 130.668C106.828 130.757 106.586 130.843 106.341 130.939C106.158 131.006 105.971 131.083 105.785 131.16C105.593 131.24 105.404 131.311 105.212 131.391C105.183 131.408 105.154 131.424 105.119 131.429C104.997 131.484 104.875 131.539 104.753 131.594C104.565 131.68 104.379 131.757 104.19 131.843C103.917 131.97 103.651 132.093 103.381 132.225C103.248 132.287 103.112 132.358 102.982 132.425C102.869 132.483 102.756 132.54 102.644 132.597C102.135 132.86 101.627 133.138 101.126 133.428L70.7325 150.975C53.3609 161.005 47.26 182.958 57.1061 200.012L208.526 462.279C208.812 462.774 209.112 463.254 209.414 463.724C209.478 463.834 209.549 463.931 209.618 464.037C209.697 464.16 209.782 464.28 209.866 464.4C210.03 464.644 210.199 464.884 210.369 465.124C210.486 465.287 210.603 465.45 210.729 465.615C210.807 465.723 210.885 465.832 210.96 465.935C210.976 465.964 210.993 465.992 211.021 466.014C211.144 466.174 211.272 466.33 211.395 466.49C211.515 466.643 211.634 466.797 211.759 466.947C211.92 467.146 212.087 467.342 212.254 467.538C212.353 467.657 212.458 467.773 212.555 467.886C212.648 467.994 212.74 468.101 212.83 468.203C213.14 468.554 213.464 468.889 213.785 469.218C213.82 469.252 213.852 469.295 213.89 469.334C213.913 469.36 213.944 469.388 213.966 469.413C213.976 469.43 213.995 469.435 214.005 469.452C214.376 469.829 214.761 470.191 215.146 470.552C215.213 470.613 215.276 470.669 215.342 470.731C215.433 470.809 215.524 470.887 215.613 470.974C215.868 471.203 216.125 471.423 216.383 471.643C216.515 471.751 216.646 471.859 216.778 471.967C216.834 472.012 216.894 472.062 216.95 472.106C217.003 472.145 217.05 472.186 217.101 472.234C217.298 472.389 217.497 472.535 217.694 472.69C217.819 472.787 217.944 472.884 218.075 472.977C218.262 473.115 218.446 473.247 218.639 473.381C218.754 473.461 218.869 473.54 218.984 473.62C219.046 473.661 219.102 473.705 219.164 473.746C219.242 473.801 219.32 473.856 219.394 473.905C219.73 474.126 220.061 474.341 220.405 474.55C220.476 474.594 220.541 474.64 220.612 474.684C220.674 474.725 220.742 474.762 220.804 474.803C220.811 474.815 220.826 474.814 220.838 474.822C221.287 475.093 221.743 475.352 222.211 475.604C222.258 475.631 222.301 475.652 222.347 475.679C222.445 475.73 222.541 475.775 222.639 475.825C222.98 476.004 223.319 476.178 223.659 476.342C223.797 476.408 223.936 476.474 224.074 476.54C224.074 476.54 224.077 476.546 224.086 476.549C224.19 476.596 224.289 476.647 224.393 476.694C224.393 476.694 224.402 476.697 224.411 476.699C224.411 476.699 224.396 476.7 224.393 476.694C224.442 476.712 224.494 476.736 224.537 476.757C224.754 476.854 224.965 476.94 225.188 477.034C225.319 477.088 225.445 477.146 225.573 477.195C225.744 477.265 225.906 477.333 226.074 477.397C226.294 477.486 226.511 477.568 226.733 477.647C226.791 477.667 226.843 477.691 226.901 477.711C226.958 477.732 227.02 477.758 227.077 477.778C227.37 477.886 227.662 477.978 227.957 478.077C228.063 478.115 228.17 478.153 228.277 478.192C228.343 478.214 228.416 478.234 228.483 478.257C228.541 478.277 228.595 478.292 228.653 478.312C228.702 478.33 228.753 478.339 228.802 478.357C229.233 478.492 229.673 478.614 230.109 478.731C230.191 478.753 230.267 478.778 230.34 478.798C230.473 478.828 230.605 478.859 230.738 478.89C231.08 478.977 231.425 479.054 231.769 479.132C231.884 479.158 231.999 479.183 232.119 479.206C232.225 479.229 232.331 479.253 232.433 479.271C232.484 479.279 232.536 479.288 232.593 479.294C232.861 479.346 233.129 479.384 233.394 479.43C233.556 479.459 233.719 479.488 233.878 479.511C233.99 479.532 234.107 479.548 234.219 479.568C234.471 479.607 234.726 479.636 234.981 479.666C235.047 479.673 235.123 479.684 235.189 479.692C235.288 479.704 235.381 479.719 235.48 479.731C235.66 479.75 235.837 479.763 236.022 479.779C236.208 479.794 236.386 479.822 236.571 479.838C236.571 479.838 236.559 479.83 236.55 479.827C236.64 479.837 236.736 479.843 236.828 479.843C236.909 479.851 236.996 479.854 237.076 479.861C237.235 479.87 237.393 479.878 237.552 479.886C237.908 479.904 238.257 479.924 238.612 479.927C238.699 479.931 238.786 479.934 238.872 479.938C239.027 479.941 239.176 479.932 239.331 479.934C239.647 479.936 239.96 479.932 240.278 479.925C240.454 479.923 240.63 479.922 240.808 479.911C240.921 479.907 241.04 479.9 241.153 479.896C241.399 479.884 241.643 479.867 241.88 479.852C242.133 479.837 242.376 479.819 242.631 479.795C242.72 479.79 242.815 479.781 242.901 479.77C243.111 479.748 243.318 479.721 243.528 479.7C243.955 479.653 244.384 479.597 244.815 479.533C245.048 479.498 245.276 479.466 245.506 479.426C245.568 479.413 245.633 479.406 245.704 479.396C246.02 479.344 246.34 479.274 246.655 479.207C246.829 479.176 247.009 479.141 247.18 479.104C247.288 479.08 247.4 479.061 247.515 479.033C247.765 478.974 248.011 478.908 248.261 478.849C248.361 478.822 248.464 478.801 248.564 478.774C248.866 478.699 249.169 478.624 249.47 478.534C249.608 478.493 249.742 478.447 249.885 478.402C250.398 478.252 250.91 478.087 251.415 477.911C251.64 477.835 251.852 477.75 252.074 477.669C252.506 477.511 252.931 477.343 253.361 477.171C253.591 477.077 253.821 476.982 254.048 476.882C254.483 476.692 254.918 476.487 255.359 476.279C255.555 476.181 255.759 476.094 255.952 475.99C256.577 475.675 257.201 475.346 257.812 474.993L288.205 457.446C305.577 447.416 311.678 425.463 301.831 408.409L150.415 146.148C150.066 145.543 149.7 144.963 149.323 144.39L149.34 144.38Z" fill="black"/>
<path d="M88.2489 137.99L58.8815 154.945C42.099 164.635 36.346 186.089 46.0317 202.865L195.008 460.899C204.693 477.675 226.15 483.42 242.932 473.731L272.3 456.776C289.082 447.086 294.835 425.632 285.15 408.856L136.174 150.822C126.488 134.046 105.031 128.301 88.2489 137.99Z" fill="#8E50F5" fill-opacity="0.73"/>
<path opacity="0.05" d="M130.246 143.202C127.186 143.97 124.174 145.179 121.298 146.839L91.9367 163.791C75.1586 173.478 69.4037 194.939 79.087 211.711L228.063 469.745C229.722 472.619 231.723 475.166 233.991 477.365C219.157 481.13 203.044 474.805 195.014 460.896L46.0375 202.862C36.351 186.085 42.1034 164.632 58.8873 154.942L88.249 137.99C102.164 129.957 119.286 132.535 130.246 143.202Z" fill="white"/>
<path opacity="0.1" d="M120.654 136.582C113.731 135.98 106.563 137.43 100.093 141.166L70.7309 158.118C53.947 167.808 48.1946 189.26 57.8811 206.038L206.857 464.072C210.595 470.546 216.079 475.374 222.371 478.315C211.351 477.351 200.96 471.209 195.008 460.899L46.0317 202.865C36.3451 186.088 42.0976 164.636 58.8815 154.945L88.2432 137.993C98.5567 132.039 110.629 131.911 120.654 136.582Z" fill="white"/>
<path opacity="0.2" d="M136.173 150.822L285.149 408.856C294.836 425.633 289.083 447.086 272.3 456.776L242.938 473.728C232.624 479.682 220.552 479.81 210.527 475.139C217.45 475.741 224.618 474.291 231.088 470.555L260.45 453.603C277.234 443.913 282.986 422.461 273.3 405.683L124.324 147.649C120.586 141.175 115.102 136.347 108.81 133.406C119.83 134.37 130.221 140.512 136.173 150.822Z" fill="#5614C4" fill-opacity="0.32"/>
<path d="M293.662 85.8297L176.914 153.234C173.998 154.917 172.556 157.877 173.692 159.845L217.577 235.857C218.714 237.825 221.998 238.056 224.914 236.373L341.662 168.968C344.577 167.285 346.019 164.325 344.883 162.357L300.998 86.3453C299.862 84.3773 296.577 84.1465 293.662 85.8297Z" fill="#DFCCFF"/>
<path opacity="0.2" d="M298.111 85.3568C297.066 85.4706 295.935 85.8331 294.855 86.4566L178.094 153.868C175.182 155.55 173.723 158.488 174.844 160.43L218.12 235.386C218.535 236.105 219.251 236.589 220.13 236.825C218.342 237.017 216.785 236.483 216.079 235.26L172.798 160.296C171.679 158.357 173.13 155.419 176.049 153.734L292.809 86.3224C294.641 85.2645 296.613 84.9519 298.114 85.3496L298.111 85.3568Z" fill="black"/>
<path opacity="0.2" d="M300.263 87.0733L343.545 162.04C344.665 163.979 343.213 166.918 340.295 168.603L223.524 236.02C221.691 237.078 219.719 237.391 218.232 236.99C219.277 236.876 220.408 236.514 221.482 235.894L338.253 168.476C341.166 166.794 342.625 163.856 341.504 161.913L298.22 86.943C297.805 86.2241 297.088 85.7401 296.219 85.5078C298.01 85.3201 299.561 85.8573 300.266 87.0772L300.263 87.0733Z" fill="white"/>
</g>
<defs>
<clipPath id="clip0_2241_90">
<rect width="326" height="413" fill="white" transform="translate(0 163) rotate(-30)"/>
</clipPath>
</defs>
</svg>
