<?xml version="1.0" encoding="UTF-8" standalone="no"?>
<svg
   width="320"
   height="120"
   viewBox="0 0 320 161"
   fill="none"
   version="1.1"
   id="svg40"
   sodipodi:docname="phone_mob.svg"
   inkscape:version="1.2.1 (9c6d41e410, 2022-07-14)"
   xmlns:inkscape="http://www.inkscape.org/namespaces/inkscape"
   xmlns:sodipodi="http://sodipodi.sourceforge.net/DTD/sodipodi-0.dtd"
   xmlns="http://www.w3.org/2000/svg"
   xmlns:svg="http://www.w3.org/2000/svg">
  <sodipodi:namedview
     id="namedview42"
     pagecolor="#ffffff"
     bordercolor="#000000"
     borderopacity="0.25"
     inkscape:showpageshadow="2"
     inkscape:pageopacity="0.0"
     inkscape:pagecheckerboard="0"
     inkscape:deskcolor="#d1d1d1"
     showgrid="false"
     inkscape:zoom="3.44375"
     inkscape:cx="160"
     inkscape:cy="80.435572"
     inkscape:window-width="1920"
     inkscape:window-height="1009"
     inkscape:window-x="-8"
     inkscape:window-y="-8"
     inkscape:window-maximized="1"
     inkscape:current-layer="svg40" />
  <g
     clip-path="url(#clip0_2753_1191)"
     id="g12"
     transform="translate(0,-38.039927)">
    <path
       d="m 31.2057,52.4149 c 0.3489,0.3319 0.5815,0.6979 0.8794,0.9617 0.2525,0.2241 1.0043,0.261 1.1064,0.5986 0.2241,0.7432 -2.2525,1.8439 -0.7036,3.2567 l 0.9731,-2.139 c 0.2582,-0.3688 0.5475,-0.4028 0.9674,-0.3972 0.4681,0.0057 4.2071,0.5618 4.4397,0.6951 0.6213,0.3546 0.5986,1.7645 0.5645,2.4142 1.6511,-0.227 7.1376,1.0383 8.0965,-0.5646 0.4113,-0.6865 -0.6553,-2.9759 1.078,-2.7688 1.7333,0.2071 0.9844,2.471 -0.3773,2.9022 0.7461,1.8383 5.2255,1.7134 5.8014,0.1588 0.2497,-0.678 -0.922,-2.8085 0.8823,-3.1347 2.017,-0.366 0,2.9475 0.1248,3.1177 4.8879,1.4071 9.9631,-0.3688 14.8965,-0.8454 7.7531,-0.7518 15.8297,-0.4198 23.5375,-1.1432 1.5234,-0.1419 3.3986,-0.8511 4.8284,-0.8681 1.0951,-0.0142 2.1303,0.6553 2.8223,0.5872 0.559,-0.0539 1.314,-0.8766 1.992,-1.1404 2.235,-0.8709 4.973,-1.3192 7.367,-1.1149 0.505,0.0425 0.931,0.5276 1.388,0.4936 0.547,-0.0426 3.537,-1.566 4.669,-1.8411 3.345,-0.8171 7.22,-0.9958 10.658,-1.2568 0.712,-0.2326 0.301,-1.2454 0.59,-1.6794 0.491,-0.7348 4.919,0.0142 5.935,0.2723 0.919,1.4156 -0.423,2.7887 1.83,1.9603 -0.074,-0.8652 0.891,-1.7021 1.038,-2.2156 0.187,-0.6468 -1.206,-1.6567 -0.42,-2.1362 0.403,-0.2468 0.769,0.488 1.013,-0.4255 0.454,0.2043 1.157,0.1929 1.538,0.4482 0.314,0.2128 0.13,0.7802 0.564,0.6922 l 0.431,-0.8454 c 0.159,0.5986 1.691,1.5433 1.796,1.8781 0.187,0.6042 -0.02,1.4468 0.114,2.1645 0.167,0.905 1.387,2.0738 0.436,2.9787 -0.712,0.678 -2.105,-0.017 -1.636,2.6185 3.591,-0.3745 6.136,1.7588 8.374,4.2496 2.721,3.0298 6.184,8.8454 1.651,11.8724 -0.547,0.3659 -4.999,1.7219 -3.501,2.7404 l 1.685,0.4482 c 0.341,2.8085 -1.997,2.139 -3.951,1.966 0.604,2.19 0.451,4.4312 0.57,6.661 0.162,3.0638 0.669,7.2056 0.295,10.2297 -0.037,0.3036 0.011,0.661 -0.278,0.8568 l -1.438,0.122 v 2.2723 c 2.973,-0.0227 5.966,-0.1333 8.933,-0.2865 2.513,-0.1305 4.616,-0.8397 7.237,0 v 0.5674 l -52.202,0.5645 3.691,62.13 h -0.283 c 0.207,-1.605 -0.426,-3.131 -0.562,-4.686 -0.25,-2.826 -0.105,-5.955 -0.292,-8.786 -1.036,-15.807 -2.474,-31.554 -2.82,-47.3899 -0.017,-0.7206 -0.573,-1.3759 0.127,-1.8326 h 19.433 l 0.028,-1.3901 2.815,-0.7291 0.278,-0.573 1.98,-30.4993 c -1.291,1.1234 -1.314,2.3177 -3.166,2.9305 -3.282,1.0837 -9.317,-0.2497 -10.324,-4.0483 -1.812,-6.8454 2.707,-10.0227 8.684,-11.5092 l -0.045,-1.2397 c -4.727,0.4454 -10.344,0.556 -14.653,2.7206 -0.349,0.1759 -0.354,0.6553 -0.516,0.6695 -0.579,0.051 -1.177,-0.5958 -1.799,-0.749 -2.303,-0.5645 -6.593,0.6071 -8.533,2.0114 -0.105,0.451 0.669,0.7319 0.806,1.1915 0.902,3.0156 -5.711,4.2837 -1.941,-1.0497 -2.1813,-1.0837 -3.7473,0.0114 -5.8466,0.2468 -7.5149,0.8454 -15.3702,0.4795 -22.9447,1.1688 -4.2837,0.3915 -9.461,1.7504 -13.617,1.6426 -1.0723,-0.0284 -3.3787,-0.8624 -3.9319,-0.8057 -0.0908,0.0085 -0.4624,0.8 -1.044,0.9872 -1.217,0.3915 -3.5404,0.5844 -4.6411,-0.1532 -0.3716,-0.2468 -0.6695,-1.0581 -0.8738,-1.078 -0.0964,-0.0085 -1.1546,0.7149 -1.7276,0.8057 -1.0497,0.1645 -6.4085,-0.2099 -6.6355,0.0312 0.1901,0.9929 -0.5929,1.339 -0.8482,2.1305 -1.2823,4.0142 0.1674,9.5149 -4.2468,12.1787 2.3376,3.1461 3.0354,7.0979 4.7461,10.5476 0.5361,1.0836 1.5149,2.1815 2.0879,3.3021 0.3745,0.7347 2.5475,5.3503 2.4653,5.6652 -0.1249,0.4908 -0.9589,0.6724 -0.8142,1.3334 2.3773,0.2071 2.9362,-2.4823 5.6709,-1.1291 0.0482,0.3574 -0.1362,0.6269 -0.295,0.9163 -0.4738,0.8653 -3.2511,2.6298 -3.9575,3.6142 l 17.3021,1.4241 -0.5049,0.7688 c 0.0312,20.4452 -0.4851,40.9672 0.5049,61.3562 h -0.5673 c -0.0397,-0.987 0.0624,-1.989 -0.0029,-2.976 -0.8595,-13.135 -0.4567,-26.227 -0.5532,-39.447 -0.0312,-4.215 -0.3829,-8.496 -0.3063,-12.766 0.0368,-2.04 0.9333,-4.55 -0.261,-6.5247 L 0,94.4007 V 94.117 l 9.64255,0.5674 C 9.5688,93.4192 8.44823,88.4433 9.04965,87.7085 c 0.70922,-0.8681 3.18585,-0.0227 4.26095,-0.7092 0.261,-0.3745 -0.8283,-2.9702 0.0057,-3.5376 1.0213,-0.695 5.461,-0.1163 7.5943,-1.4837 1.8298,-1.1745 2.1164,-5.495 3.2029,-7.4326 -2.7717,0.4284 -8.139,-1.5858 -8.5163,-4.6752 -0.4908,-4.0312 2.5021,-8.2695 5.3929,-10.7915 1.3617,-1.1886 3.2113,-2.8227 5.1092,-2.695 -2.8369,-2.5958 -0.6809,-8.3603 3.3844,-7.2085 2.5333,0.7177 1.6624,1.617 1.722,3.2397 -0.227,-0.2156 -0.2525,-0.3801 -0.4454,-0.5702 l -2.922,0.6071 c -0.8482,3.5517 -1.2028,5.6113 3.3674,5.0666 l -0.5532,-1.2397 2.2553,-1.8837 c -0.7773,-0.9844 -1.6426,-0.3886 -1.7021,-1.9829 z m 101.2763,-3.1177 -4.252,-0.5731 -0.284,3.1234 c 1.297,-0.695 1.966,1.2823 2.295,2.2497 l 2.241,-0.6922 -1.132,0.1418 0.562,-0.8454 c -0.967,-0.6723 -1.058,-0.6468 -2.267,-0.2922 0.466,-0.9617 1.663,-0.8822 2.556,-0.8454 l 0.281,-2.2695 z m 9.365,2.5532 c -1.226,0.3659 -1.28,-0.7234 -1.711,-0.9873 -0.788,-0.4822 -2.533,-0.312 -3.257,-1.8439 -1.444,2.0368 -1.625,4.9049 -1.546,7.356 1.666,0.3688 3.127,0.3688 4.792,0 l 0.045,-2.7915 c 1.126,-0.1419 1.884,-0.4199 1.674,-1.7305 z m -8.795,0.5645 c 0.886,-0.383 0.948,-2.9135 -0.286,-2.834 z m 1.181,0.5248 -0.051,-0.8085 c -1.617,0.3262 -1.212,1.3333 -1.688,1.8553 -0.502,0.5504 -1.739,0.2837 -1.952,0.4653 -0.085,0.0737 -0.094,0.6922 -0.457,1.0978 -1.177,1.3164 -8.159,3.6057 -6.133,6.3944 0.561,0.6865 1.013,0.2354 1.577,-0.1674 2.777,-1.9943 4.837,-8.1447 9.504,-5.9546 l 0.022,-2.6837 -0.822,-0.1957 z m -5.192,-0.4908 c -6.065,1.0355 -11.183,3.0355 -10.15,10.2951 0.596,4.1759 8.987,5.9886 11.441,3.2652 0.499,-0.5532 1.821,-3.6397 2.292,-3.6596 0.548,-0.0226 0.267,0.8284 0.238,1.0781 -0.272,2.3574 -0.774,4.4283 -0.383,6.8595 3.691,-0.0539 7.416,0.2781 11.064,0.8483 -0.02,-0.7036 0.051,-1.4185 0,-2.122 -0.142,-1.8383 -0.845,-4.1759 -0.859,-5.9745 -0.02,-2.2837 2.8,0.7745 3.066,2.0624 0.522,2.5163 -1.14,3.3929 -1.063,4.7376 0.07,1.2653 1.336,3.4014 2.836,3.1716 8.25,-1.2652 3.223,-10.5617 -0.567,-13.9319 -1.104,-0.9815 -4.559,-3.2681 -5.98,-2.2837 l -0.267,2.1447 c -1.415,0.2695 -1.886,-0.9362 -2.97,-1.4156 l -2.826,1.1177 c -0.99,-0.5503 0.27,-1.7929 -0.28,-2.5617 -4.67,-2.2751 -6.803,6.349 -9.688,6.8227 -1.268,0.21 -1.836,-0.2978 -1.85,-1.5517 -0.043,-3.4156 4.905,-4.1844 6.704,-6.3972 l -0.755,-2.5106 z m -94.4339,5.0752 c 0.1844,-3.5943 -1.3645,-2.4681 -1.4128,0.2809 0.5561,-0.3603 0.7433,-0.6894 1.4128,-0.2809 z m 4.2184,-1.6652 -3.929,-0.6071 0.3177,2.3744 1.061,0.4937 0.0397,1.3844 2.5135,-0.0426 c 0.556,-1.1745 0.3432,-2.4085 0,-3.6085 z m 61.3195,3.0808 c 1.864,0.4851 2.709,-2.8596 1.242,-3.1035 -1.035,-0.1731 -1.4863,2.383 -1.242,3.1035 z M 27.3135,57.4333 C 27.1801,57.3397 27.1262,56.917 26.9504,56.8064 L 26.5475,56.673 c -0.4482,0.0766 -0.8823,0.227 -1.2794,0.4454 -1.9376,1.0695 -3.2823,2.1646 -5.0497,3.7277 -0.19,0.1674 -0.5446,-0.017 -0.3631,0.644 l 2,0.4539 c 0.6809,-1.2596 0.9958,-3.0383 2.2525,-3.8525 l -1.6993,3.9688 2.956,0.5191 c 0.4795,-0.1134 0.9419,-1.8383 1.8667,-1.651 l -0.8511,1.9829 1.7192,0.1703 0.5702,-3.3986 -2.2865,-1.305 2.5503,0.8482 0.0171,-1.2539 c -0.0398,-0.2411 -1.1206,-0.1815 -1.6369,-0.5361 z m 109.9915,-0.4766 -2.267,-0.2865 v 1.4156 c 0.222,0.2298 2.165,-0.5674 2.267,-1.1319 z m 3.118,-0.2865 -2.267,0.4227 c 0.542,0.5645 1.126,1.2539 1.98,1.2766 z M 32.6213,60.0745 c 0.3035,-1.0298 0.8198,-2.7376 -0.8454,-2.5504 0.6752,0.6809 -0.3064,2.7234 0.8454,2.5504 z m -0.8482,-0.2837 -0.2866,-1.9858 -1.9404,0.3262 -0.3206,1.3645 z m 2.2723,0.2837 -0.2837,-2.2667 c -0.5163,1.2028 -0.8057,2.9192 -1.4468,4.0255 -0.3149,0.5419 -2.8879,2.6185 -2.244,3.3447 0.7149,-0.2525 2,1.1376 2.4057,0.5674 0.8965,-1.2653 0.4397,-2.3291 -0.7035,-3.1149 1.234,-0.0114 1.8666,1.4383 2.695,1.9858 0.2695,0.1787 0.2468,0.4738 0.5674,0 1.0808,-1.6113 1.061,-4.0936 0.99,-5.9546 l -0.5673,1.7021 c -1.1944,0.2015 -0.0539,-1.3617 -0.2837,-1.9858 l -1.1291,1.7021 z m -2.3092,0.3177 -2.5135,-0.6043 C 29.2,60.9 27.7844,63.8787 29.6567,63.7454 30.2979,63.7 32.2638,61.2773 31.7362,60.3922 Z m 5.4241,-0.3149 c -0.349,-0.4482 -0.5163,0 -0.5674,0.417 -0.2156,1.7561 0.2355,2.9305 -1.1404,4.539 -0.0142,0.2412 1.5858,0.7319 1.8525,0.1504 l 0.7035,-5.1092 -0.4255,1.4184 -0.4256,-1.4184 z M 17.5887,67.734 c -0.2469,-0.1929 -1.0866,-0.4028 -1.4157,-0.851 0.0681,1.6851 -0.3375,3.3191 0.5674,4.8198 l 1.7192,-3.2425 c -0.3717,-0.1617 -0.5958,-0.5078 -0.8709,-0.7263 0.1163,0.0766 1.0496,0.3291 1.1205,0.2781 0.3291,-1.5887 1.288,-2.7632 2.2837,-3.966 -0.5816,1.4894 -1.6,2.6752 -1.8695,4.2667 l 6.4,1.6907 0.2894,-1.1347 c -0.105,-0.1106 -2.1107,0.8964 -2.6979,-0.2837 -0.8567,-1.7191 2.4567,-5.3106 2.1333,-5.6709 L 22.156,62.3695 c -0.122,0.8 -0.7404,1.1688 -1.1631,1.6794 0.1135,-0.2893 0.627,-1.6141 0.5674,-1.6993 l -2.1305,-0.7744 c -0.5589,0.0425 -2.9163,4.0397 -2.922,4.6553 0,0.2667 0.9163,1.3957 1.0809,1.5035 z m 126.5273,3.9717 c 1.016,-0.488 0.139,-1.5631 0.338,-2.6241 0.116,-0.6327 0.783,-1.2993 0.945,-1.9064 0.499,-1.8582 -0.616,-3.5575 -2.134,-4.5475 z M 23.5461,68.3014 c 0.8284,-0.0936 2.0624,0.2809 2.7007,-0.2808 0.2128,-0.1873 1.8667,-4.088 1.7248,-4.2695 -0.3688,-0.471 -1.756,-0.7149 -2.3149,-0.2951 -0.468,0.3518 -2.5021,4.4369 -2.1078,4.8454 z m 5.9546,-4.2496 -1.1291,-0.2894 -1.1347,3.4043 c 0.6553,-0.2922 2.678,-2.5334 2.2638,-3.1149 z m 3.4043,1.9773 c 0.8737,0.1106 1.2397,0.4709 1.5886,-0.556 l -0.8822,-1.1433 z m -0.5844,0.3092 -2.8,-1.1518 c -0.4454,2.2866 -3.6681,2.627 -3.4014,5.078 1.1517,0.2468 3.146,0.9788 4.2354,0.4511 0.5702,-0.2752 2.2071,-4.0426 1.9631,-4.3745 z m 3.4241,-0.5901 c -1.4156,-0.0851 -1.4383,1.7873 -2.4,2.8483 -0.3688,0.4085 -0.905,0.5929 -1.2851,0.9844 -0.522,0.5333 -0.7206,1.5092 -1.7022,1.5631 0.7915,2.5333 4.6639,1.4014 5.1036,-0.8539 -0.922,-0.139 -1.7872,0.2383 -2.6865,0.2922 -0.3093,0.017 -1.0752,0.1815 -0.9986,-0.2922 l 3.9149,-0.6241 c 0.5021,-1.3816 0.1532,-2.5249 0.0539,-3.9178 z m 1.6964,0.2922 -1.4099,-0.2922 c 0.417,1.3589 0.3915,2.6128 0,3.9688 0.7858,-0.139 1.5461,-3.5291 1.4099,-3.6794 z m -12.2156,4.2724 -6.4993,-1.7277 -1.4184,3.3844 c 2.1418,1.2 4.0397,2.1532 6.6156,1.6766 0.6043,-0.2071 1.6,-2.905 1.2993,-3.3333 z m 4.278,0.8283 -3.6794,-0.5702 -1.1432,3.1178 c 0.7631,0.556 4.4226,-1.5348 4.8226,-2.5476 z m 114.2955,0.5958 -10.389,-1.0951 -0.786,0.4965 -1.847,23.8298 c 0.854,0.1106 6.406,-0.2326 6.545,-0.7433 l 0.128,-21.1035 c 0.669,-0.1929 0.391,0.6184 0.42,0.9957 0.451,6.0341 -0.145,10.8454 -0.293,16.7234 -0.031,1.2341 -0.042,2.4596 0.278,3.6596 0.417,0.7234 6.287,-0.0908 7.393,0.1816 l -1.449,-22.9504 z m 3.716,3.6681 c -1.952,0.0681 -0.653,-1.4809 -0.97,-1.9944 -0.145,-0.2326 -1.583,-1.1375 -1.858,-1.7021 -0.732,1.756 -0.681,3.305 -0.156,5.1177 l 3.273,0.2695 -1.132,-0.5673 0.851,-0.2809 -0.005,-0.8397 z M 34.0199,72.8631 c -0.6185,-0.1475 -1.183,0.2639 -1.7901,0.2326 -0.8312,-0.0397 -2.7177,-0.8851 -3.0922,-0.7886 -0.3745,0.0964 -0.7433,0.7716 -1.2653,1.0298 -0.4482,0.2213 -2.9219,0.9191 -2.9163,1.0752 1.322,2.8198 3.3816,5.1687 4.8795,7.8836 2.0113,3.6483 4.1276,9.5462 7.1744,12.4001 0.3575,0.3347 0.5561,0.6297 1.1319,0.573 0.3008,-0.0312 4.888,-3.2539 4.9135,-3.5575 C 40.122,85.3738 36.1163,79.578 34.0199,72.8631 Z m -9.061,2.5334 -0.5788,0.1645 c -0.8737,1.3844 -0.5929,5.1319 -1.5744,6.0426 -1.9575,1.8099 -6.6695,1.8496 -9.1546,2.329 -0.3887,0.4596 0.7546,5.8014 1.3929,6.3461 0.8908,0.7603 5.0439,0.2894 6.3744,0.1475 1.0809,-0.1163 5.0043,-0.5758 5.5121,-1.2964 l 1.7106,-6.7716 -3.6822,-6.9646 z m 4.539,8.2241 c -0.749,-0.0738 -0.4568,-0.0114 -0.5589,0.4227 -0.3461,1.4922 -0.7149,5.234 -2.1872,6.0482 -1.739,0.9617 -6.1504,0.7915 -8.1844,0.8936 -1.3901,0.0709 -2.8738,0.5674 -4.3461,0.2582 l -0.3263,-1.3816 -2.2695,0.2837 c -0.0255,1.5404 0.2383,3.1433 -0.5645,4.5362 l 31.2057,1.9858 C 40.5475,92.7241 39.5574,95.7908 37.8043,96.0688 36.7915,96.2277 34.6638,92.8234 34.0936,91.9355 32.8369,89.9723 31.5092,87.5638 30.3035,85.5128 29.9574,84.9284 29.634,84.2957 29.495,83.6206 Z M 13.617,87.5922 h -1.1319 v 1.9887 h 1.1319 z m 123.121,7.3787 0.431,1.4156 1.268,-0.712 z"
       fill="#ffffff"
       id="path2" />
    <path
       d="m 33.7589,136.387 0.2837,-10.92 c 0.2326,-1.273 2.6809,-0.204 3.8184,-0.133 1.7135,0.108 3.2965,-0.21 4.9759,-0.295 0.0936,2.789 0.1929,5.574 0.2865,8.366 0.0199,0.562 0.8681,2.332 -0.2836,2.128 l -0.61,-9.606 -7.6198,-0.323 c -0.1816,3.497 -0.5731,7.018 0.0028,10.496 0.0965,0.142 0.3631,-0.284 0.4227,-0.284 h 8.0851 v 0.568 h -9.3617 z"
       fill="#ffffff"
       id="path4" />
    <path
       d="m 45.0922,109.167 -0.5816,9.316 c -1.8127,-0.36 -9.773,0.184 -10.6014,-0.826 -0.3234,-0.391 -2.1986,-9.29 -1.8496,-9.639 l 13.0354,1.149 z m -0.2695,0.269 -12.1986,-0.848 1.8383,8.797 c 0.4511,0.539 2.556,0.213 3.4071,0.281 2.1135,0.17 4.2326,0.451 6.3887,0.281 l 0.5673,-8.511 z"
       fill="#ffffff"
       id="path6" />
    <path
       d="m 8.79439,135.252 8.93331,0.854 2.1277,0.561 c -2.8454,-0.082 -5.7873,-0.198 -8.6156,-0.601 -0.749,-0.105 -2.84258,-0.272 -3.17449,-0.814 l 0.44255,-10.213 9.22554,0.281 0.5702,0.281 1.5631,10.073 c 0.0766,0.826 -0.4624,0.261 -0.5163,-0.053 -0.2468,-1.433 -0.7376,-9.022 -1.4723,-9.592 l -9.08371,-0.703 v 9.929 z"
       fill="#ffffff"
       id="path8" />
    <path
       d="m 18.156,107.734 -0.5673,8.794 H 9.07802 c -0.12198,-2.09 -0.46808,-4.289 -0.57872,-6.368 -0.04255,-0.783 -0.19574,-1.907 0.43688,-2.426 z m -8.5106,8.227 h 7.6596 l 0.2865,-7.946 -8.51348,0.284 0.57022,7.659 z"
       fill="#ffffff"
       id="path10" />
  </g>
  <g
     clip-path="url(#clip1_2753_1191)"
     id="g26"
     transform="translate(0,-38.039927)">
    <path
       d="m 191.206,52.4149 c 0.349,0.3319 0.581,0.6979 0.879,0.9617 0.253,0.2241 1.004,0.261 1.106,0.5986 0.225,0.7432 -2.252,1.8439 -0.703,3.2567 l 0.973,-2.139 c 0.258,-0.3688 0.548,-0.4028 0.967,-0.3972 0.468,0.0057 4.207,0.5618 4.44,0.6951 0.621,0.3546 0.599,1.7645 0.565,2.4142 1.651,-0.227 7.137,1.0383 8.096,-0.5646 0.411,-0.6865 -0.655,-2.9759 1.078,-2.7688 1.733,0.2071 0.984,2.471 -0.377,2.9022 0.746,1.8383 5.225,1.7134 5.801,0.1588 0.25,-0.678 -0.922,-2.8085 0.882,-3.1347 2.018,-0.366 0,2.9475 0.125,3.1177 4.888,1.4071 9.963,-0.3688 14.897,-0.8454 7.753,-0.7518 15.83,-0.4198 23.537,-1.1432 1.524,-0.1419 3.399,-0.8511 4.829,-0.8681 1.095,-0.0142 2.13,0.6553 2.822,0.5872 0.559,-0.0539 1.314,-0.8766 1.992,-1.1404 2.235,-0.8709 4.973,-1.3192 7.367,-1.1149 0.505,0.0425 0.931,0.5276 1.388,0.4936 0.547,-0.0426 3.537,-1.566 4.669,-1.8411 3.345,-0.8171 7.22,-0.9958 10.658,-1.2568 0.712,-0.2326 0.301,-1.2454 0.59,-1.6794 0.491,-0.7348 4.919,0.0142 5.935,0.2723 0.919,1.4156 -0.423,2.7887 1.83,1.9603 -0.074,-0.8652 0.891,-1.7021 1.038,-2.2156 0.187,-0.6468 -1.206,-1.6567 -0.42,-2.1362 0.403,-0.2468 0.769,0.488 1.013,-0.4255 0.454,0.2043 1.157,0.1929 1.538,0.4482 0.314,0.2128 0.13,0.7802 0.564,0.6922 l 0.431,-0.8454 c 0.159,0.5986 1.691,1.5433 1.796,1.8781 0.187,0.6042 -0.02,1.4468 0.114,2.1645 0.167,0.905 1.387,2.0738 0.436,2.9787 -0.712,0.678 -2.105,-0.017 -1.636,2.6185 3.591,-0.3745 6.136,1.7588 8.374,4.2496 2.721,3.0298 6.184,8.8454 1.651,11.8724 -0.547,0.3659 -4.999,1.7219 -3.501,2.7404 l 1.685,0.4482 c 0.341,2.8085 -1.997,2.139 -3.951,1.966 0.604,2.19 0.451,4.4312 0.57,6.661 0.162,3.0638 0.669,7.2056 0.295,10.2297 -0.037,0.3036 0.011,0.661 -0.278,0.8568 l -1.438,0.122 v 2.2723 c 2.973,-0.0227 5.966,-0.1333 8.933,-0.2865 2.513,-0.1305 4.616,-0.8397 7.237,0 v 0.5674 l -52.202,0.5645 3.691,62.13 h -0.283 c 0.207,-1.605 -0.426,-3.131 -0.562,-4.686 -0.25,-2.826 -0.105,-5.955 -0.292,-8.786 -1.036,-15.807 -2.474,-31.554 -2.82,-47.3899 -0.017,-0.7206 -0.573,-1.3759 0.127,-1.8326 h 19.433 l 0.028,-1.3901 2.815,-0.7291 0.278,-0.573 1.98,-30.4993 c -1.291,1.1234 -1.314,2.3177 -3.166,2.9305 -3.282,1.0837 -9.317,-0.2497 -10.324,-4.0483 -1.812,-6.8454 2.707,-10.0227 8.684,-11.5092 l -0.045,-1.2397 c -4.727,0.4454 -10.344,0.556 -14.653,2.7206 -0.349,0.1759 -0.354,0.6553 -0.516,0.6695 -0.579,0.051 -1.177,-0.5958 -1.799,-0.749 -2.303,-0.5645 -6.593,0.6071 -8.533,2.0114 -0.105,0.451 0.669,0.7319 0.806,1.1915 0.902,3.0156 -5.711,4.2837 -1.941,-1.0497 -2.181,-1.0837 -3.747,0.0114 -5.847,0.2468 -7.514,0.8454 -15.37,0.4795 -22.944,1.1688 -4.284,0.3915 -9.461,1.7504 -13.617,1.6426 -1.073,-0.0284 -3.379,-0.8624 -3.932,-0.8057 -0.091,0.0085 -0.463,0.8 -1.044,0.9872 -1.217,0.3915 -3.541,0.5844 -4.641,-0.1532 -0.372,-0.2468 -0.67,-1.0581 -0.874,-1.078 -0.097,-0.0085 -1.155,0.7149 -1.728,0.8057 -1.049,0.1645 -6.408,-0.2099 -6.635,0.0312 0.19,0.9929 -0.593,1.339 -0.848,2.1305 -1.283,4.0142 0.167,9.5149 -4.247,12.1787 2.337,3.1461 3.035,7.0979 4.746,10.5476 0.536,1.0836 1.515,2.1815 2.088,3.3021 0.374,0.7347 2.547,5.3503 2.465,5.6652 -0.125,0.4908 -0.959,0.6724 -0.814,1.3334 2.377,0.2071 2.936,-2.4823 5.671,-1.1291 0.048,0.3574 -0.136,0.6269 -0.295,0.9163 -0.474,0.8653 -3.251,2.6298 -3.958,3.6142 l 17.302,1.4241 -0.505,0.7688 c 0.032,20.4452 -0.485,40.9672 0.505,61.3562 h -0.567 c -0.04,-0.987 0.062,-1.989 -0.003,-2.976 -0.859,-13.135 -0.457,-26.227 -0.553,-39.447 -0.031,-4.215 -0.383,-8.496 -0.306,-12.766 0.037,-2.04 0.933,-4.55 -0.261,-6.5247 L 160,94.4007 V 94.117 l 9.643,0.5674 c -0.074,-1.2652 -1.195,-6.2411 -0.593,-6.9759 0.709,-0.8681 3.185,-0.0227 4.261,-0.7092 0.261,-0.3745 -0.829,-2.9702 0.005,-3.5376 1.022,-0.695 5.461,-0.1163 7.595,-1.4837 1.829,-1.1745 2.116,-5.495 3.202,-7.4326 -2.771,0.4284 -8.139,-1.5858 -8.516,-4.6752 -0.491,-4.0312 2.502,-8.2695 5.393,-10.7915 1.362,-1.1886 3.211,-2.8227 5.109,-2.695 -2.837,-2.5958 -0.681,-8.3603 3.385,-7.2085 2.533,0.7177 1.662,1.617 1.722,3.2397 -0.227,-0.2156 -0.253,-0.3801 -0.446,-0.5702 l -2.922,0.6071 c -0.848,3.5517 -1.203,5.6113 3.368,5.0666 l -0.554,-1.2397 2.256,-1.8837 c -0.778,-0.9844 -1.643,-0.3886 -1.702,-1.9829 z m 101.276,-3.1177 -4.252,-0.5731 -0.284,3.1234 c 1.297,-0.695 1.966,1.2823 2.295,2.2497 l 2.241,-0.6922 -1.132,0.1418 0.562,-0.8454 c -0.967,-0.6723 -1.058,-0.6468 -2.267,-0.2922 0.466,-0.9617 1.663,-0.8822 2.556,-0.8454 l 0.281,-2.2695 z m 9.365,2.5532 c -1.226,0.3659 -1.28,-0.7234 -1.711,-0.9873 -0.788,-0.4822 -2.533,-0.312 -3.257,-1.8439 -1.444,2.0368 -1.625,4.9049 -1.546,7.356 1.666,0.3688 3.127,0.3688 4.792,0 l 0.045,-2.7915 c 1.126,-0.1419 1.884,-0.4199 1.674,-1.7305 z m -8.795,0.5645 c 0.886,-0.383 0.948,-2.9135 -0.286,-2.834 z m 1.181,0.5248 -0.051,-0.8085 c -1.617,0.3262 -1.212,1.3333 -1.688,1.8553 -0.502,0.5504 -1.739,0.2837 -1.952,0.4653 -0.085,0.0737 -0.094,0.6922 -0.457,1.0978 -1.177,1.3164 -8.159,3.6057 -6.133,6.3944 0.561,0.6865 1.013,0.2354 1.577,-0.1674 2.777,-1.9943 4.837,-8.1447 9.504,-5.9546 l 0.022,-2.6837 -0.822,-0.1957 z m -5.192,-0.4908 c -6.065,1.0355 -11.183,3.0355 -10.15,10.2951 0.596,4.1759 8.987,5.9886 11.441,3.2652 0.499,-0.5532 1.821,-3.6397 2.292,-3.6596 0.548,-0.0226 0.267,0.8284 0.238,1.0781 -0.272,2.3574 -0.774,4.4283 -0.383,6.8595 3.691,-0.0539 7.416,0.2781 11.064,0.8483 -0.02,-0.7036 0.051,-1.4185 0,-2.122 -0.142,-1.8383 -0.845,-4.1759 -0.859,-5.9745 -0.02,-2.2837 2.8,0.7745 3.066,2.0624 0.522,2.5163 -1.14,3.3929 -1.063,4.7376 0.07,1.2653 1.336,3.4014 2.836,3.1716 8.25,-1.2652 3.223,-10.5617 -0.567,-13.9319 -1.104,-0.9815 -4.559,-3.2681 -5.98,-2.2837 l -0.267,2.1447 c -1.415,0.2695 -1.886,-0.9362 -2.97,-1.4156 l -2.826,1.1177 c -0.99,-0.5503 0.27,-1.7929 -0.28,-2.5617 -4.67,-2.2751 -6.803,6.349 -9.688,6.8227 -1.268,0.21 -1.836,-0.2978 -1.85,-1.5517 -0.043,-3.4156 4.905,-4.1844 6.704,-6.3972 l -0.755,-2.5106 z m -94.434,5.0752 c 0.184,-3.5943 -1.364,-2.4681 -1.413,0.2809 0.556,-0.3603 0.744,-0.6894 1.413,-0.2809 z m 4.219,-1.6652 -3.93,-0.6071 0.318,2.3744 1.061,0.4937 0.04,1.3844 2.513,-0.0426 c 0.556,-1.1745 0.344,-2.4085 0,-3.6085 z m 61.319,3.0808 c 1.864,0.4851 2.709,-2.8596 1.242,-3.1035 -1.035,-0.1731 -1.486,2.383 -1.242,3.1035 z m -72.832,-1.5064 c -0.133,-0.0936 -0.187,-0.5163 -0.363,-0.6269 l -0.402,-0.1334 c -0.449,0.0766 -0.883,0.227 -1.28,0.4454 -1.938,1.0695 -3.282,2.1646 -5.05,3.7277 -0.19,0.1674 -0.544,-0.017 -0.363,0.644 l 2,0.4539 c 0.681,-1.2596 0.996,-3.0383 2.253,-3.8525 l -1.699,3.9688 2.956,0.5191 c 0.479,-0.1134 0.941,-1.8383 1.866,-1.651 l -0.851,1.9829 1.719,0.1703 0.571,-3.3986 -2.287,-1.305 2.55,0.8482 0.017,-1.2539 c -0.039,-0.2411 -1.12,-0.1815 -1.637,-0.5361 z m 109.992,-0.4766 -2.267,-0.2865 v 1.4156 c 0.222,0.2298 2.165,-0.5674 2.267,-1.1319 z m 3.118,-0.2865 -2.267,0.4227 c 0.542,0.5645 1.126,1.2539 1.98,1.2766 z m -107.802,3.4043 c 0.304,-1.0298 0.82,-2.7376 -0.845,-2.5504 0.675,0.6809 -0.306,2.7234 0.845,2.5504 z m -0.848,-0.2837 -0.286,-1.9858 -1.941,0.3262 -0.32,1.3645 z m 2.272,0.2837 -0.283,-2.2667 c -0.517,1.2028 -0.806,2.9192 -1.447,4.0255 -0.315,0.5419 -2.888,2.6185 -2.244,3.3447 0.715,-0.2525 2,1.1376 2.406,0.5674 0.896,-1.2653 0.439,-2.3291 -0.704,-3.1149 1.234,-0.0114 1.867,1.4383 2.695,1.9858 0.27,0.1787 0.247,0.4738 0.567,0 1.081,-1.6113 1.061,-4.0936 0.991,-5.9546 l -0.568,1.7021 c -1.194,0.2015 -0.054,-1.3617 -0.284,-1.9858 l -1.129,1.7021 z m -2.309,0.3177 -2.513,-0.6043 c -0.023,1.1121 -1.439,4.0908 0.434,3.9575 0.641,-0.0454 2.607,-2.4681 2.079,-3.3532 z m 5.424,-0.3149 c -0.349,-0.4482 -0.516,0 -0.567,0.417 -0.216,1.7561 0.235,2.9305 -1.141,4.539 -0.014,0.2412 1.586,0.7319 1.853,0.1504 l 0.704,-5.1092 -0.426,1.4184 -0.426,-1.4184 z m -19.571,7.6567 c -0.247,-0.1929 -1.087,-0.4028 -1.416,-0.851 0.068,1.6851 -0.338,3.3191 0.567,4.8198 l 1.72,-3.2425 c -0.372,-0.1617 -0.596,-0.5078 -0.871,-0.7263 0.116,0.0766 1.049,0.3291 1.12,0.2781 0.329,-1.5887 1.288,-2.7632 2.284,-3.966 -0.582,1.4894 -1.6,2.6752 -1.87,4.2667 l 6.4,1.6907 0.29,-1.1347 c -0.105,-0.1106 -2.111,0.8964 -2.698,-0.2837 -0.857,-1.7191 2.457,-5.3106 2.133,-5.6709 l -3.092,-0.5447 c -0.122,0.8 -0.74,1.1688 -1.163,1.6794 0.113,-0.2893 0.627,-1.6141 0.567,-1.6993 l -2.13,-0.7744 c -0.559,0.0425 -2.917,4.0397 -2.922,4.6553 0,0.2667 0.916,1.3957 1.081,1.5035 z m 126.527,3.9717 c 1.016,-0.488 0.139,-1.5631 0.338,-2.6241 0.116,-0.6327 0.783,-1.2993 0.945,-1.9064 0.499,-1.8582 -0.616,-3.5575 -2.134,-4.5475 z m -120.57,-3.4043 c 0.828,-0.0936 2.063,0.2809 2.701,-0.2808 0.213,-0.1873 1.866,-4.088 1.725,-4.2695 -0.369,-0.471 -1.756,-0.7149 -2.315,-0.2951 -0.468,0.3518 -2.502,4.4369 -2.108,4.8454 z m 5.955,-4.2496 -1.129,-0.2894 -1.135,3.4043 c 0.655,-0.2922 2.678,-2.5334 2.264,-3.1149 z m 3.404,1.9773 c 0.874,0.1106 1.24,0.4709 1.589,-0.556 l -0.883,-1.1433 z m -0.584,0.3092 -2.8,-1.1518 c -0.446,2.2866 -3.669,2.627 -3.402,5.078 1.152,0.2468 3.146,0.9788 4.236,0.4511 0.57,-0.2752 2.207,-4.0426 1.963,-4.3745 z m 3.424,-0.5901 c -1.416,-0.0851 -1.439,1.7873 -2.4,2.8483 -0.369,0.4085 -0.905,0.5929 -1.285,0.9844 -0.522,0.5333 -0.721,1.5092 -1.703,1.5631 0.792,2.5333 4.664,1.4014 5.104,-0.8539 -0.922,-0.139 -1.787,0.2383 -2.687,0.2922 -0.309,0.017 -1.075,0.1815 -0.998,-0.2922 l 3.915,-0.6241 c 0.502,-1.3816 0.153,-2.5249 0.054,-3.9178 z m 1.696,0.2922 -1.41,-0.2922 c 0.417,1.3589 0.392,2.6128 0,3.9688 0.786,-0.139 1.546,-3.5291 1.41,-3.6794 z m -12.215,4.2724 -6.5,-1.7277 -1.418,3.3844 c 2.142,1.2 4.04,2.1532 6.615,1.6766 0.605,-0.2071 1.6,-2.905 1.3,-3.3333 z m 4.278,0.8283 -3.68,-0.5702 -1.143,3.1178 c 0.763,0.556 4.423,-1.5348 4.823,-2.5476 z m 114.295,0.5958 -10.389,-1.0951 -0.786,0.4965 -1.847,23.8298 c 0.854,0.1106 6.406,-0.2326 6.545,-0.7433 l 0.128,-21.1035 c 0.669,-0.1929 0.391,0.6184 0.42,0.9957 0.451,6.0341 -0.145,10.8454 -0.293,16.7234 -0.031,1.2341 -0.042,2.4596 0.278,3.6596 0.417,0.7234 6.287,-0.0908 7.393,0.1816 l -1.449,-22.9504 z m 3.716,3.6681 c -1.952,0.0681 -0.653,-1.4809 -0.97,-1.9944 -0.145,-0.2326 -1.583,-1.1375 -1.858,-1.7021 -0.732,1.756 -0.681,3.305 -0.156,5.1177 l 3.273,0.2695 -1.132,-0.5673 0.851,-0.2809 -0.005,-0.8397 z M 194.02,72.8631 c -0.619,-0.1475 -1.183,0.2639 -1.79,0.2326 -0.831,-0.0397 -2.718,-0.8851 -3.092,-0.7886 -0.375,0.0964 -0.744,0.7716 -1.266,1.0298 -0.448,0.2213 -2.922,0.9191 -2.916,1.0752 1.322,2.8198 3.382,5.1687 4.879,7.8836 2.012,3.6483 4.128,9.5462 7.175,12.4001 0.357,0.3347 0.556,0.6297 1.132,0.573 0.301,-0.0312 4.888,-3.2539 4.913,-3.5575 -2.933,-6.3375 -6.939,-12.1333 -9.035,-18.8482 z m -9.061,2.5334 -0.579,0.1645 c -0.874,1.3844 -0.593,5.1319 -1.574,6.0426 -1.958,1.8099 -6.67,1.8496 -9.155,2.329 -0.389,0.4596 0.755,5.8014 1.393,6.3461 0.891,0.7603 5.044,0.2894 6.374,0.1475 1.081,-0.1163 5.005,-0.5758 5.512,-1.2964 l 1.711,-6.7716 -3.682,-6.9646 z m 4.539,8.2241 c -0.749,-0.0738 -0.457,-0.0114 -0.559,0.4227 -0.346,1.4922 -0.715,5.234 -2.187,6.0482 -1.739,0.9617 -6.151,0.7915 -8.185,0.8936 -1.39,0.0709 -2.873,0.5674 -4.346,0.2582 l -0.326,-1.3816 -2.269,0.2837 c -0.026,1.5404 0.238,3.1433 -0.565,4.5362 l 31.206,1.9858 c -1.719,-3.9433 -2.71,-0.8766 -4.463,-0.5986 -1.013,0.1589 -3.14,-3.2454 -3.71,-4.1333 -1.257,-1.9632 -2.585,-4.3717 -3.79,-6.4227 -0.347,-0.5844 -0.67,-1.2171 -0.809,-1.8922 z m -15.881,3.9716 h -1.132 v 1.9887 h 1.132 z m 123.121,7.3787 0.431,1.4156 1.268,-0.712 z"
       fill="#ffffff"
       id="path14" />
    <path
       d="m 269.506,58.0858 2.142,-0.5475 c 0.97,-0.8482 1.509,-1.4638 1.265,-2.8511 1.751,1.3731 -1.705,4.5674 -3.404,3.4014 z"
       fill="#ffffff"
       id="path16" />
    <path
       d="m 294.184,109.72 v 8.652 c -0.178,0.281 -0.391,0.366 -0.709,0.426 -3.084,0.564 -7.611,-0.482 -10.919,0.567 l -0.496,-8.95 0.635,-0.414 11.489,-0.284 z m -0.848,8.513 c 0.048,-1.651 -0.065,-3.324 -0.014,-4.978 0.023,-0.746 0.687,-2.383 0.028,-2.843 l -10.513,0.159 0.576,8.221 z"
       fill="#ffffff"
       id="path18" />
    <path
       d="m 304.862,108.611 c 0.888,-0.304 8.281,1.463 8.764,2.241 l -0.991,8.675 c -0.226,0.167 -3.687,-0.409 -4.394,-0.46 -4.777,-0.329 -5.268,1.368 -4.689,-4.383 0.147,-1.466 0.465,-4.025 0.859,-5.381 0.094,-0.318 0.057,-0.562 0.451,-0.695 z m 8.29,2.283 c -1.373,-0.51 -7.22,-2.309 -8.204,-1.617 l -0.835,8.956 8.242,0.449 0.797,-7.785 z"
       fill="#ffffff"
       id="path20" />
    <path
       d="m 284.295,137.198 -0.326,-9.038 c 3.061,0.314 6.091,-0.608 9.098,-0.44 0.505,0.349 0.53,6.893 0.55,7.957 0.011,0.715 0.59,1.308 0.028,2.012 -0.618,0.774 -3.949,0.507 -5.004,0.414 -0.698,-0.063 -4.111,-0.539 -4.346,-0.902 z m 0.244,-8.471 v 7.234 c 0,0.153 0.318,0.655 0.357,0.919 2.729,0.868 5.609,0.619 8.437,0.644 l -0.578,-9.353 z"
       fill="#ffffff"
       id="path22" />
    <path
       d="m 303.546,137.805 -0.286,-9.365 c 3.157,0.329 6.49,-0.539 9.529,-0.011 l -0.29,8.542 z m 8.794,-9.078 -8.513,0.281 c 0.108,2.743 0.437,5.464 0.286,8.23 l 8.227,-0.568 z"
       fill="#ffffff"
       id="path24" />
  </g>
  <path
     d="m 84.7776,18.140873 c 7.1316,0 14.2632,0 21.3944,0 9.216,0 19.71,-1.3165 28.409,2.3716 14.638,6.206 10.363,26.5789 -0.378,34.489 -5.689,4.1895 -16.509,8.3506 -23.59,5.2226 -5.515,-2.4362 -6.266,-9.4188 -5.702,-14.6333 0.828,-7.6563 6.507,-13.8734 13.422,-16.803 11.749,-4.9776 24.479,-6.6528 37.138,-5.0964 9.761,1.2001 15.754,11.4682 16.854,20.4866 0.578,4.7404 -4.757,6.1647 -8.503,4.0367 -3.395,-1.9289 -3.791,-6.613 -4.011,-10.0919 -0.413,-6.529 1.343,-9.5594 7.064,-13.0942 9.445,-5.8361 24.899,-10.6489 35.221,-4.062 6.036,3.8521 11.666,11.4979 12.463,18.7709 0.67,6.1102 -7.939,5.8224 -10.546,1.867 -2.008,-3.0468 -2.754,-7.2543 -2.422,-10.8487 0.436,-4.717 3.654,-5.9894 7.948,-6.4336 6.683,-0.6914 15.376,-0.915 19.3,5.6262 0.333,0.5547 -0.215,-2.7289 -0.328,-3.1285 -0.383,-1.3628 -1.325,-2.8745 0.732,-3.1285 3.518,-0.4342 7.583,-0.3515 11.051,0.3785 0.752,0.1584 4.743,1.942 4.743,0.6055 0,-1.6361 -4.933,-5.3574 -2.303,-5.6204 1.776,-0.1776 2.768,-1 4.556,-1"
     stroke="#ffffff"
     stroke-width="0.4"
     stroke-linecap="round"
     id="path28" />
  <defs
     id="defs38">
    <clipPath
       id="clip0_2753_1191">
      <rect
         width="84.8889"
         height="160"
         fill="white"
         transform="translate(0 0.5)"
         id="rect32" />
    </clipPath>
    <clipPath
       id="clip1_2753_1191">
      <rect
         width="74"
         height="160"
         fill="white"
         transform="translate(246 0.5)"
         id="rect35" />
    </clipPath>
  </defs>
</svg>
