<svg width="65" height="66" viewBox="0 0 65 66" fill="none" xmlns="http://www.w3.org/2000/svg">
<rect width="65" height="66" rx="32.5" fill="#FFC727"/>
<g clip-path="url(#clip0_2462_888)">
<path d="M45.793 38.5859C45.2777 38.5859 44.7735 38.6341 44.2842 38.7254V27.2746C44.7735 27.3659 45.2777 27.4141 45.793 27.4141C50.3184 27.4141 54 23.7324 54 19.207C54 14.6816 50.3184 11 45.793 11C41.2676 11 37.5859 14.6816 37.5859 19.207C37.5859 19.7223 37.6341 20.2264 37.7254 20.7157H26.2746C26.3659 20.2264 26.4141 19.7223 26.4141 19.207C26.4141 14.6816 22.7324 11 18.207 11C13.6816 11 10 14.6816 10 19.207C10 23.7324 13.6816 27.4141 18.207 27.4141C18.7223 27.4141 19.2264 27.3659 19.7157 27.2746V38.7255C19.2264 38.6341 18.7223 38.5859 18.207 38.5859C13.6816 38.5859 10 42.2676 10 46.793C10 51.3184 13.6816 55 18.207 55C22.7324 55 26.4141 51.3184 26.4141 46.793C26.4141 46.2777 26.3659 45.7736 26.2746 45.2843H37.7255C37.6341 45.7735 37.5859 46.2777 37.5859 46.793C37.5859 51.3184 41.2676 55 45.793 55C50.3184 55 54 51.3184 54 46.793C54 42.2676 50.3184 38.5859 45.793 38.5859ZM41.306 24.3525C41.6987 22.2024 43.5697 20.6201 45.7922 20.6198H45.7931H45.7939C48.0163 20.6202 49.8873 22.2025 50.28 24.3525C49.0786 25.4015 47.5093 26.0391 45.793 26.0391C44.0766 26.0391 42.5073 25.4015 41.306 24.3525ZM43.8255 17.2772C43.8255 16.1923 44.7082 15.3098 45.7931 15.3098C46.8779 15.3098 47.7605 16.1923 47.7605 17.2772C47.7605 18.3618 46.8784 19.2442 45.7939 19.2447C45.7936 19.2447 45.7933 19.2447 45.7931 19.2447C45.7928 19.2447 45.7925 19.2447 45.7922 19.2447C44.7077 19.2442 43.8255 18.3618 43.8255 17.2772ZM45.793 12.375C49.5602 12.375 52.625 15.4399 52.625 19.207C52.625 20.6718 52.1602 22.029 51.3725 23.1425C50.8036 21.577 49.6027 20.336 48.0882 19.7037C48.7324 19.0941 49.1355 18.2322 49.1355 17.2772C49.1355 15.4342 47.6362 13.9348 45.7931 13.9348C43.95 13.9348 42.4505 15.4342 42.4505 17.2772C42.4505 18.2321 42.8536 19.094 43.4978 19.7037C41.9832 20.3359 40.7823 21.5769 40.2135 23.1425C39.4258 22.029 38.9609 20.6718 38.9609 19.207C38.9609 15.4399 42.0257 12.375 45.793 12.375ZM42.9092 26.8906V32.3125H40.6689C40.7392 32.0568 40.7758 31.7913 40.7758 31.5227C40.7758 29.881 39.4401 28.5453 37.7984 28.5453C36.1566 28.5453 34.821 29.881 34.821 31.5227C34.821 31.7913 34.8575 32.0569 34.9278 32.3125H32.6875V28.951C32.6875 28.6834 32.5321 28.44 32.2894 28.3273C32.0467 28.2147 31.7605 28.2532 31.5561 28.426C31.2679 28.6697 30.9009 28.8038 30.5227 28.8038C29.6392 28.8038 28.9203 28.0851 28.9203 27.2015C28.9203 26.318 29.6391 25.5991 30.5227 25.5991C30.9008 25.5991 31.2679 25.7334 31.5561 25.9771C31.7605 26.1499 32.0467 26.1883 32.2894 26.0757C32.5321 25.963 32.6875 25.7196 32.6875 25.452V22.0905H38.1094C38.9413 24.3 40.6999 26.0587 42.9092 26.8906ZM18.207 12.375C21.9743 12.375 25.0391 15.4399 25.0391 19.207C25.0391 20.6718 24.5742 22.029 23.7865 23.1425C23.2177 21.577 22.0168 20.336 20.5022 19.7037C21.1464 19.0941 21.5496 18.2322 21.5496 17.2772C21.5496 15.4342 20.0502 13.9348 18.2071 13.9348C16.364 13.9348 14.8646 15.4342 14.8646 17.2772C14.8646 18.2321 15.2677 19.094 15.912 19.7037C14.3974 20.3359 13.1964 21.5769 12.6276 23.1425C11.8398 22.029 11.375 20.6718 11.375 19.207C11.375 15.4399 14.4398 12.375 18.207 12.375ZM18.207 19.2447C18.2068 19.2447 18.2065 19.2447 18.2062 19.2447C17.1217 19.2442 16.2396 18.3618 16.2396 17.2772C16.2396 16.1923 17.1222 15.3098 18.2071 15.3098C19.292 15.3098 20.1746 16.1923 20.1746 17.2772C20.1746 18.3618 19.2925 19.2442 18.208 19.2447C18.2076 19.2447 18.2073 19.2447 18.207 19.2447ZM13.7201 24.3525C14.1129 22.2024 15.9838 20.6201 18.2063 20.6198H18.2071H18.208C20.4304 20.6202 22.3014 22.2025 22.6941 24.3525C21.4927 25.4015 19.9234 26.0391 18.207 26.0391C16.4907 26.0391 14.9214 25.4015 13.7201 24.3525ZM25.8906 22.0907H31.3125V24.3311C31.0568 24.2608 30.7914 24.2242 30.5227 24.2242C28.881 24.2242 27.5453 25.5599 27.5453 27.2016C27.5453 28.8434 28.881 30.1789 30.5227 30.1789C30.7914 30.1789 31.0569 30.1425 31.3125 30.0721V32.3125H27.951C27.6834 32.3125 27.4401 32.4679 27.3273 32.7106C27.2147 32.9533 27.2532 33.2394 27.4259 33.4439C27.6697 33.7322 27.8038 34.0991 27.8038 34.4773C27.8038 35.3608 27.0851 36.0797 26.2015 36.0797C25.318 36.0797 24.5991 35.3609 24.5991 34.4773C24.5991 34.0992 24.7334 33.7322 24.9771 33.4438C25.1498 33.2394 25.1883 32.9533 25.0756 32.7106C24.9628 32.4678 24.7195 32.3125 24.4519 32.3125H21.0904V26.8906C23.3 26.0587 25.0587 24.3 25.8906 22.0907ZM13.7201 51.9385C14.113 49.7881 15.9843 48.2056 18.207 48.2056C20.43 48.2056 22.3013 49.7881 22.6941 51.9384C21.4927 52.9874 19.9234 53.625 18.207 53.625C16.4907 53.625 14.9214 52.9874 13.7201 51.9385ZM18.2071 46.8306C17.1222 46.8306 16.2396 45.948 16.2396 44.8632C16.2396 43.7783 17.1222 42.8957 18.2071 42.8957C19.292 42.8957 20.1746 43.7783 20.1746 44.8632C20.1746 45.948 19.292 46.8306 18.2071 46.8306ZM23.7865 50.7285C23.2177 49.163 22.0168 47.9219 20.5022 47.2897C21.1464 46.68 21.5495 45.818 21.5495 44.8632C21.5495 43.0201 20.0501 41.5207 18.207 41.5207C16.3639 41.5207 14.8645 43.0201 14.8645 44.8632C14.8645 45.818 15.2676 46.68 15.9119 47.2897C14.3973 47.9219 13.1964 49.163 12.6275 50.7286C11.8398 49.615 11.375 48.2576 11.375 46.793C11.375 43.0258 14.4398 39.9609 18.207 39.9609C21.9743 39.9609 25.0391 43.0258 25.0391 46.793C25.0391 48.2576 24.5742 49.615 23.7865 50.7285ZM21.0907 39.1094V33.6875H23.3311C23.2608 33.9431 23.2243 34.2086 23.2243 34.4773C23.2243 36.119 24.5599 37.4547 26.2016 37.4547C27.8434 37.4547 29.179 36.119 29.179 34.4773C29.179 34.2087 29.1425 33.9431 29.0722 33.6875H31.3125V37.049C31.3125 37.3166 31.4679 37.56 31.7106 37.6727C31.9532 37.7852 32.2394 37.7468 32.4439 37.574C32.7321 37.3303 33.0991 37.1961 33.4773 37.1961C34.3608 37.1961 35.0797 37.9149 35.0797 38.7985C35.0797 39.682 34.3609 40.4008 33.4773 40.4008C33.0991 40.4008 32.7321 40.2665 32.4439 40.0228C32.2394 39.85 31.9533 39.8116 31.7106 39.9242C31.4679 40.0369 31.3125 40.2803 31.3125 40.5479V43.9094H25.8906C25.0587 41.7 23.3 39.9413 21.0907 39.1094ZM32.6875 43.9093V41.6689C32.9431 41.7392 33.2087 41.7757 33.4773 41.7757C35.119 41.7757 36.4547 40.44 36.4547 38.7984C36.4547 37.1567 35.119 35.821 33.4773 35.821C33.2087 35.821 32.9431 35.8574 32.6875 35.9278V33.6875H36.049C36.3166 33.6875 36.5599 33.5322 36.6727 33.2894C36.7853 33.0467 36.7468 32.7606 36.5741 32.5562C36.3304 32.2679 36.1962 31.9009 36.1962 31.5227C36.1962 30.6392 36.9149 29.9203 37.7985 29.9203C38.6822 29.9203 39.4009 30.6391 39.4009 31.5227C39.4009 31.9007 39.2667 32.2678 39.0229 32.5563C38.8502 32.7607 38.8118 33.0467 38.9244 33.2895C39.0372 33.5323 39.2805 33.6876 39.5481 33.6876H42.9095V39.1095C40.7001 39.9413 38.9415 41.7001 38.1096 43.9094H32.6875V43.9093ZM41.306 51.9384C41.6988 49.788 43.5702 48.2056 45.793 48.2056C48.0159 48.2056 49.8872 49.7881 50.28 51.9384C49.0786 52.9874 47.5093 53.625 45.793 53.625C44.0766 53.625 42.5073 52.9873 41.306 51.9384ZM45.7931 46.8306C44.7082 46.8306 43.8255 45.948 43.8255 44.8632C43.8255 43.7783 44.7082 42.8957 45.7931 42.8957C46.8779 42.8957 47.7605 43.7783 47.7605 44.8632C47.7605 45.948 46.8779 46.8306 45.7931 46.8306ZM51.3725 50.7285C50.8036 49.163 49.6027 47.9219 48.0881 47.2897C48.7323 46.68 49.1354 45.818 49.1354 44.8632C49.1354 43.0201 47.6361 41.5207 45.793 41.5207C43.9499 41.5207 42.4504 43.0201 42.4504 44.8632C42.4504 45.818 42.8536 46.68 43.4978 47.2897C41.9832 47.9219 40.7823 49.163 40.2135 50.7286C39.4258 49.615 38.9609 48.2576 38.9609 46.793C38.9609 43.0258 42.0257 39.9609 45.793 39.9609C49.5602 39.9609 52.625 43.0258 52.625 46.793C52.625 48.2576 52.1602 49.615 51.3725 50.7285Z" fill="#1E1E1E"/>
</g>
<defs>
<clipPath id="clip0_2462_888">
<rect width="44" height="44" fill="white" transform="translate(10 11)"/>
</clipPath>
</defs>
</svg>
