<svg width="47" height="47" viewBox="0 0 47 47" fill="none" xmlns="http://www.w3.org/2000/svg">
<g clip-path="url(#clip0_2653_1206)">
<path d="M30.9042 17.0616V20.7867H28.7887V15.4061H27.4091V20.7867H19.5911V15.4061H18.2114V20.7867H16.096V17.2446H14.7163V22.1663H32.2838V17.0616C32.2838 15.7094 31.9845 14.4121 31.3941 13.2058L30.1549 13.8123C30.6522 14.8281 30.9042 15.9214 30.9042 17.0616Z" fill="black"/>
<path d="M14.811 15.7687L16.1759 15.9702C16.5767 13.2552 18.4709 10.98 21.0459 10.0756C21.7174 10.6188 22.5713 10.9451 23.5002 10.9451C24.4291 10.9451 25.2829 10.6189 25.9544 10.0757C27.3701 10.5741 28.6214 11.5061 29.5067 12.7314L30.6249 11.9235C29.6783 10.6132 28.3777 9.58598 26.8993 8.96293C27.2231 8.39387 27.4092 7.7366 27.4092 7.0362V4.45369L28.5225 0H22.1205C20.7258 0 19.5911 1.13462 19.5911 2.52935V3.67906V5.05871V7.0362C19.5911 7.73587 19.7768 8.39258 20.1001 8.96136C17.2957 10.1399 15.2609 12.7212 14.811 15.7687ZM20.9708 2.52935C20.9708 1.89536 21.4865 1.37965 22.1205 1.37965H26.7557L26.1808 3.67906H20.9708V2.52935ZM26.0295 5.05871V7.0362C26.0295 8.43093 24.8948 9.56556 23.5001 9.56556C22.1054 9.56556 20.9708 8.43093 20.9708 7.0362V5.05871H26.0295Z" fill="black"/>
<path d="M44.2225 37.5652L45.3407 36.7572C44.3941 35.4469 43.0935 34.4197 41.6151 33.7967C41.939 33.2275 42.1251 32.5702 42.1251 31.8699V29.2874L43.2384 24.8337H36.8364C35.4418 24.8337 34.3071 25.9683 34.3071 27.363V28.5127V29.8924V31.8699C34.3071 32.5695 34.4928 33.2263 34.8161 33.795C32.0116 34.9736 29.9768 37.5549 29.5269 40.6025L30.8918 40.8039C31.2926 38.0889 33.1868 35.8137 35.7618 34.9093C36.4332 35.4526 37.2871 35.7789 38.2161 35.7789C39.1449 35.7789 39.9987 35.4526 40.6702 34.9094C42.0859 35.4079 43.3372 36.3398 44.2225 37.5652ZM35.6867 27.363C35.6867 26.729 36.2024 26.2133 36.8364 26.2133H41.4716L40.8967 28.5127H35.6867V27.363ZM38.2161 34.3992C36.8214 34.3992 35.6867 33.2646 35.6867 31.8699V29.8924H40.7454V31.8699C40.7454 33.2646 39.6107 34.3992 38.2161 34.3992Z" fill="black"/>
<path d="M46.1104 38.0394L44.8712 38.6459C45.3685 39.6617 45.6205 40.755 45.6205 41.8953V45.6203H43.505V40.2397H42.1254V45.6203H34.3074V40.2397H32.9277V45.6203H30.8123V42.0782H29.4326V47H47.0001V41.8953C47.0001 40.543 46.7008 39.2457 46.1104 38.0394Z" fill="black"/>
<path d="M6.32954 34.9093C7.00106 35.4526 7.85488 35.7789 8.78384 35.7789C9.71271 35.7789 10.5665 35.4526 11.238 34.9094C12.6537 35.4079 13.905 36.3398 14.7902 37.5652L15.9085 36.7572C14.9619 35.4469 13.6613 34.4197 12.1828 33.7968C12.5068 33.2276 12.6928 32.5703 12.6928 31.87V29.8924V28.5127V27.363C12.6928 25.9683 11.5582 24.8337 10.1635 24.8337H3.76137L4.87484 29.2876V31.8699C4.87484 32.5695 5.06054 33.2263 5.38384 33.795C2.57938 34.9735 0.544584 37.5549 0.0947266 40.6024L1.45957 40.8038C1.8604 38.089 3.75447 35.8137 6.32954 34.9093ZM11.3132 31.8699C11.3132 33.2646 10.1786 34.3992 8.78384 34.3992C7.38911 34.3992 6.25449 33.2646 6.25449 31.8699V29.8924H11.3132V31.8699ZM10.1635 26.2133C10.7975 26.2133 11.3132 26.729 11.3132 27.363V28.5127H6.10328L5.52842 26.2133H10.1635Z" fill="black"/>
<path d="M15.4386 38.6458C15.9358 39.6617 16.1879 40.755 16.1879 41.8953V45.6203H14.0724V40.2397H12.6928V45.6203H4.87476V40.2397H3.49511V45.6203H1.37965V42.0782H0V47H17.5675V41.8953C17.5675 40.543 17.2682 39.2457 16.6779 38.0394L15.4386 38.6458Z" fill="black"/>
<path d="M29.5064 36.0367L32.7534 32.7897L29.5064 29.5426L28.5307 30.5181L30.1124 32.0998H16.8874L18.4691 30.5181L17.4936 29.5426L14.2466 32.7897L17.4936 36.0367L18.4691 35.0612L16.8874 33.4795H30.1124L28.5307 35.0612L29.5064 36.0367Z" fill="black"/>
<path d="M24.1898 30.7661V25.6253L25.7714 27.2069L26.7471 26.2314L23.5 22.9844L20.2529 26.2314L21.2284 27.2069L22.8102 25.6252V30.7661H24.1898Z" fill="black"/>
<path d="M13.0889 4.7243L12.4161 3.51978C12.0041 3.7499 11.594 3.99612 11.1973 4.25145L11.9438 5.41155C12.3164 5.17177 12.7016 4.94054 13.0889 4.7243Z" fill="black"/>
<path d="M18.0281 2.72975L17.676 1.39581C17.2194 1.5163 16.7608 1.65289 16.313 1.80189L16.7483 3.11099C17.1687 2.97119 17.5993 2.84297 18.0281 2.72975Z" fill="black"/>
<path d="M15.4959 3.57175L14.9793 2.29254C14.5421 2.46914 14.1045 2.66201 13.6787 2.86592L14.2746 4.11018C14.6744 3.91869 15.0853 3.73749 15.4959 3.57175Z" fill="black"/>
<path d="M3.14504 16.8327L1.83208 16.4091C1.68685 16.8592 1.55413 17.3196 1.4375 17.7775L2.77456 18.1177C2.88401 17.6878 3.00864 17.2554 3.14504 16.8327Z" fill="black"/>
<path d="M4.1245 14.3461L2.87518 13.7608C2.67458 14.1889 2.48511 14.6289 2.31201 15.0683L3.59564 15.5739C3.75825 15.1612 3.93613 14.7482 4.1245 14.3461Z" fill="black"/>
<path d="M2.48641 19.4219L1.13068 19.1663C1.0433 19.6296 0.969446 20.1024 0.911133 20.5715L2.2803 20.7418C2.33502 20.3011 2.40437 19.8571 2.48641 19.4219Z" fill="black"/>
<path d="M10.8438 6.16906L10.0264 5.05762C9.64638 5.33713 9.27001 5.63238 8.90771 5.93526L9.79262 6.99372C10.1331 6.70915 10.4868 6.43165 10.8438 6.16906Z" fill="black"/>
<path d="M2.15651 22.0721L0.779437 21.9872C0.750556 22.457 0.73584 22.935 0.73584 23.408H2.11549C2.11549 22.9632 2.12928 22.5137 2.15651 22.0721Z" fill="black"/>
<path d="M6.97302 9.83671L5.90738 8.96045C5.60763 9.32495 5.31524 9.70399 5.03857 10.0869L6.15673 10.8951C6.41675 10.5353 6.69139 10.1792 6.97302 9.83671Z" fill="black"/>
<path d="M8.79469 7.88218L7.84568 6.88074C7.50297 7.20541 7.16606 7.54518 6.84424 7.89046L7.8534 8.83119C8.15592 8.50661 8.47259 8.18736 8.79469 7.88218Z" fill="black"/>
<path d="M5.40799 12.0023L4.24164 11.2653C3.98916 11.6648 3.74625 12.0774 3.51953 12.4915L4.72967 13.154C4.94259 12.765 5.17088 12.3775 5.40799 12.0023Z" fill="black"/>
<path d="M40.8432 10.8951L41.9613 10.0869C41.6851 9.7046 41.3928 9.32566 41.0927 8.96051L40.0269 9.83659C40.309 10.1798 40.5836 10.5358 40.8432 10.8951Z" fill="black"/>
<path d="M43.4044 15.574L44.688 15.0683C44.5149 14.6288 44.3254 14.1888 44.1249 13.7609L42.8755 14.3461C43.0639 14.7481 43.2418 15.1612 43.4044 15.574Z" fill="black"/>
<path d="M42.2707 13.1541L43.4807 12.4915C43.2538 12.0771 43.0109 11.6646 42.7587 11.2654L41.5923 12.0023C41.8293 12.3772 42.0575 12.7648 42.2707 13.1541Z" fill="black"/>
<path d="M44.2254 18.1177L45.5624 17.7775C45.4457 17.3192 45.313 16.8587 45.1679 16.4091L43.855 16.8327C43.9912 17.255 44.1159 17.6873 44.2254 18.1177Z" fill="black"/>
<path d="M44.7199 20.7417L46.089 20.5714C46.0307 20.103 45.9569 19.6303 45.8694 19.1663L44.5137 19.4217C44.5957 19.8577 44.6652 20.3018 44.7199 20.7417Z" fill="black"/>
<path d="M44.8844 23.408H46.264C46.264 22.936 46.2494 22.458 46.2204 21.9874L44.8433 22.072C44.8706 22.5147 44.8844 22.9642 44.8844 23.408Z" fill="black"/>
<path d="M39.1467 8.8311L40.1559 7.89036C39.8339 7.54499 39.4971 7.20532 39.1546 6.88074L38.2056 7.88218C38.5275 8.18717 38.8441 8.50642 39.1467 8.8311Z" fill="black"/>
<path d="M30.6872 1.80189C30.2391 1.65289 29.7806 1.5163 29.3243 1.39581L28.9722 2.72975C29.4007 2.84288 29.8313 2.97119 30.2519 3.11099L30.6872 1.80189Z" fill="black"/>
<path d="M33.3212 2.86589C32.8952 2.66189 32.4576 2.46901 32.0205 2.29242L31.5039 3.57172C31.9144 3.73746 32.3253 3.91856 32.7253 4.11015L33.3212 2.86589Z" fill="black"/>
<path d="M35.8027 4.25136C35.4058 3.99594 34.9957 3.74981 34.5838 3.51978L33.9111 4.7243C34.298 4.94044 34.6833 5.17167 35.0561 5.41164L35.8027 4.25136Z" fill="black"/>
<path d="M38.0924 5.93526C37.7302 5.63238 37.3537 5.33713 36.9736 5.05762L36.1562 6.16906C36.5134 6.43165 36.867 6.70915 37.2075 6.99372L38.0924 5.93526Z" fill="black"/>
<path d="M22.8101 14.9462H24.1897V19.545H22.8101V14.9462Z" fill="black"/>
<path d="M22.8101 12.1869H24.1897V13.5665H22.8101V12.1869Z" fill="black"/>
<path d="M37.5264 37.0206H38.906V38.4002H37.5264V37.0206Z" fill="black"/>
<path d="M37.5264 39.7798H38.906V44.3787H37.5264V39.7798Z" fill="black"/>
<path d="M8.09375 37.0206H9.4734V38.4002H8.09375V37.0206Z" fill="black"/>
<path d="M8.09375 39.7798H9.4734V44.3787H8.09375V39.7798Z" fill="black"/>
</g>
<defs>
<clipPath id="clip0_2653_1206">
<rect width="47" height="47" fill="white"/>
</clipPath>
</defs>
</svg>
