<svg width="53" height="53" viewBox="0 0 53 53" fill="none" xmlns="http://www.w3.org/2000/svg">
<path d="M17.4815 18.1812H23.9483L26.4638 23.6137C26.5653 23.833 26.7851 23.9735 27.0269 23.9735C27.2687 23.9735 27.4885 23.8331 27.59 23.6136L30.1053 18.1812H36.5692C37.8222 18.1812 38.8418 17.1617 38.8418 15.9086V4.48245C38.8418 3.23095 37.8222 2.21277 36.5692 2.21277H17.4814C16.2299 2.21277 15.2117 3.23095 15.2117 4.48245V15.9086C15.2117 17.1617 16.23 18.1812 17.4815 18.1812ZM16.453 4.48245C16.453 3.91529 16.9144 3.45392 17.4815 3.45392H36.5693C37.138 3.45392 37.6007 3.91529 37.6007 4.48245V15.9086C37.6007 16.4773 37.138 16.94 36.5693 16.94H29.7089C29.4671 16.94 29.2473 17.0804 29.1458 17.3L27.027 21.876L24.9081 17.2999C24.8066 17.0805 24.5868 16.94 24.345 16.94H17.4816C16.9145 16.94 16.4531 16.4773 16.4531 15.9086V4.48245H16.453ZM19.6426 6.36623C19.6426 6.02339 19.9204 5.74565 20.2632 5.74565H33.7316C34.0744 5.74565 34.3522 6.02349 34.3522 6.36623C34.3522 6.70897 34.0743 6.98681 33.7316 6.98681H20.2632C19.9203 6.98681 19.6426 6.70897 19.6426 6.36623ZM19.6426 10.1955C19.6426 9.85264 19.9204 9.5749 20.2632 9.5749H33.7316C34.0744 9.5749 34.3522 9.85274 34.3522 10.1955C34.3522 10.5382 34.0743 10.8161 33.7316 10.8161H20.2632C19.9203 10.8161 19.6426 10.5382 19.6426 10.1955ZM19.6426 14.0277C19.6426 13.6849 19.9204 13.4072 20.2632 13.4072H33.7316C34.0744 13.4072 34.3522 13.685 34.3522 14.0277C34.3522 14.3705 34.0743 14.6483 33.7316 14.6483H20.2632C19.9203 14.6483 19.6426 14.3705 19.6426 14.0277ZM52.5855 32.2944C52.48 29.4377 50.2468 27.2261 46.6558 26.3105C47.7036 25.331 48.3604 23.9379 48.3604 22.3934C48.3604 19.4382 45.9562 17.034 43.001 17.034C40.0458 17.034 37.6416 19.4383 37.6416 22.3934C37.6416 23.9374 38.298 25.3301 39.3452 26.3094C36.9992 26.9074 35.2068 28.0652 34.2343 29.6172C32.2383 28.0758 29.738 27.1572 27.0268 27.1572C23.9774 27.1572 21.1942 28.3186 19.096 30.222C18.2399 28.3762 16.306 26.986 13.6566 26.3098C14.7045 25.3304 15.3614 23.9375 15.3614 22.3934C15.3614 19.4382 12.9559 17.034 9.99899 17.034C7.04206 17.034 4.63957 19.4383 4.63957 22.3934C4.63957 23.9379 5.29638 25.3311 6.34416 26.3105C2.75321 27.2261 0.519959 29.4376 0.414477 32.2944C0.414166 32.302 0.414062 32.3096 0.414062 32.3173V36.5104C0.414062 36.8532 0.691898 37.131 1.03464 37.131H15.3555C15.2612 37.7312 15.2117 38.346 15.2117 38.9723C15.2117 45.4872 20.5119 50.7873 27.0268 50.7873C33.5417 50.7873 38.8418 45.4872 38.8418 38.9723C38.8418 38.346 38.7923 37.7312 38.698 37.131H51.9654C52.3082 37.131 52.5859 36.8531 52.5859 36.5104V32.3173C52.5859 32.3097 52.5859 32.3021 52.5855 32.2944ZM38.8827 22.3934C38.8827 20.1226 40.7303 18.2752 43.001 18.2752C45.2717 18.2752 47.1193 20.1227 47.1193 22.3934C47.1193 24.6642 45.2717 26.5147 43.001 26.5147C40.7303 26.5147 38.8827 24.6659 38.8827 22.3934ZM5.88072 22.3934C5.88072 20.1226 7.72827 18.2752 9.99899 18.2752C12.2697 18.2752 14.1202 20.1227 14.1202 22.3934C14.1202 24.6642 12.2714 26.5147 9.99899 26.5147C7.72661 26.5147 5.88072 24.6659 5.88072 22.3934ZM1.65532 35.8897V32.3291C1.77446 29.3067 4.86896 27.7472 7.79266 27.2785C8.46613 27.5841 9.21268 27.756 9.99909 27.756C10.7855 27.756 11.5333 27.5841 12.2073 27.2782C15.3163 27.7711 17.5006 29.2156 18.1444 31.1905C16.973 32.526 16.0976 34.1267 15.6206 35.8898H1.65532V35.8897ZM27.0269 49.546C21.1965 49.546 16.4531 44.8026 16.4531 38.9723C16.4531 33.142 21.1965 28.3985 27.0269 28.3985C32.8573 28.3985 37.6006 33.1419 37.6006 38.9723C37.6006 44.8027 32.8572 49.546 27.0269 49.546ZM51.3449 35.8897H38.4331C37.863 33.7822 36.7236 31.9063 35.1899 30.4387C36.0912 28.8621 38.1399 27.7005 40.7936 27.2779C41.4673 27.584 42.2144 27.7559 43.0011 27.7559C43.7878 27.7559 44.5342 27.5841 45.2076 27.2784C48.1312 27.7471 51.2257 29.3066 51.3449 32.329V35.8896V35.8897ZM27.0269 29.9067C22.0281 29.9067 17.9613 33.9734 17.9613 38.9722C17.9613 43.971 22.0281 48.0377 27.0269 48.0377C32.0257 48.0377 36.0924 43.971 36.0924 38.9722C36.0924 33.9734 32.0257 29.9067 27.0269 29.9067ZM27.0269 46.7965C22.7125 46.7965 19.2025 43.2865 19.2025 38.9722C19.2025 34.6579 22.7125 31.1479 27.0269 31.1479C31.3413 31.1479 34.8512 34.6579 34.8512 38.9722C34.8512 43.2865 31.3412 46.7965 27.0269 46.7965ZM29.5885 39.5928H27.0269C26.684 39.5928 26.4063 39.3149 26.4063 38.9722V34.6587C26.4063 34.3159 26.6842 34.0381 27.0269 34.0381C27.3696 34.0381 27.6475 34.316 27.6475 34.6587V38.3516H29.5885C29.9313 38.3516 30.2091 38.6295 30.2091 38.9722C30.2091 39.3149 29.9312 39.5928 29.5885 39.5928ZM26.4063 32.458V32.4433C26.4063 32.1004 26.6842 31.8227 27.0269 31.8227C27.3696 31.8227 27.6475 32.1005 27.6475 32.4433V32.458C27.6475 32.8008 27.3696 33.0785 27.0269 33.0785C26.6842 33.0785 26.4063 32.8007 26.4063 32.458ZM30.8449 33.5983L30.839 33.61C30.7302 33.8275 30.511 33.9531 30.2834 33.9531C30.1902 33.9531 30.0955 33.932 30.0063 33.8874C29.6998 33.7342 29.5756 33.3613 29.7288 33.0547L29.7347 33.043C29.8879 32.7366 30.2603 32.6121 30.5673 32.7655C30.8738 32.9187 30.9981 33.2917 30.8449 33.5983ZM32.4007 35.1541C32.7077 35.0007 33.0801 35.1251 33.2334 35.4317C33.3866 35.7383 33.2624 36.111 32.9559 36.2643L32.9442 36.2702C32.855 36.3149 32.7603 36.336 32.667 36.336C32.4394 36.336 32.2203 36.2102 32.1115 35.9928C31.9583 35.6862 32.0825 35.3134 32.389 35.1601L32.4007 35.1542V35.1541ZM33.541 38.3516H33.5557C33.8986 38.3516 34.1763 38.6295 34.1763 38.9722C34.1763 39.3149 33.8985 39.5928 33.5557 39.5928H33.541C33.1982 39.5928 32.9205 39.3149 32.9205 38.9722C32.9205 38.6295 33.1983 38.3516 33.541 38.3516ZM33.2334 42.5126C33.1246 42.7301 32.9054 42.8558 32.6778 42.8558C32.5846 42.8558 32.4899 42.8347 32.4007 42.7901L32.389 42.7842C32.0825 42.631 31.9583 42.2581 32.1115 41.9515C32.2647 41.6451 32.6372 41.5205 32.9442 41.674L32.9559 41.6799C33.2624 41.8331 33.3866 42.206 33.2334 42.5126ZM30.8449 44.3489C30.9981 44.6555 30.8738 45.0283 30.5673 45.1816C30.4782 45.2262 30.3835 45.2473 30.2902 45.2473C30.0626 45.2473 29.8435 45.1215 29.7347 44.9042L29.7288 44.8925C29.5756 44.5859 29.6998 44.2131 30.0063 44.0598C30.3133 43.9063 30.6857 44.0308 30.839 44.3373L30.8449 44.349V44.3489ZM27.6475 45.4862V45.5009C27.6475 45.8438 27.3696 46.1215 27.0269 46.1215C26.6842 46.1215 26.4063 45.8437 26.4063 45.5009V45.4862C26.4063 45.1434 26.6842 44.8657 27.0269 44.8657C27.3696 44.8657 27.6475 45.1435 27.6475 45.4862ZM24.3248 44.8924L24.3189 44.9041C24.2101 45.1215 23.991 45.2472 23.7634 45.2472C23.6702 45.2472 23.5755 45.2261 23.4862 45.1815C23.1797 45.0283 23.0555 44.6554 23.2087 44.3488L23.2146 44.3371C23.3678 44.0306 23.7403 43.9061 24.0473 44.0596C24.3538 44.2128 24.478 44.5856 24.3248 44.8923V44.8924ZM21.9392 41.9516C22.0924 42.2582 21.9682 42.631 21.6617 42.7843L21.65 42.7902C21.5609 42.8348 21.4661 42.8559 21.3729 42.8559C21.1452 42.8559 20.9261 42.7301 20.8173 42.5127C20.6641 42.2061 20.7883 41.8334 21.0948 41.6801L21.1065 41.6742C21.4135 41.5208 21.7858 41.6453 21.9392 41.9517V41.9516ZM20.5127 39.5928H20.498C20.1551 39.5928 19.8774 39.3149 19.8774 38.9722C19.8774 38.6295 20.1552 38.3516 20.498 38.3516H20.5127C20.8555 38.3516 21.1332 38.6295 21.1332 38.9722C21.1332 39.3149 20.8554 39.5928 20.5127 39.5928ZM21.9392 35.9927C21.8304 36.2102 21.6113 36.3359 21.3836 36.3359C21.2905 36.3359 21.1958 36.3147 21.1065 36.2701L21.0948 36.2642C20.7883 36.111 20.6641 35.7382 20.8173 35.4316C20.9706 35.125 21.3431 35.0006 21.65 35.154L21.6617 35.1599C21.9682 35.3131 22.0924 35.686 21.9392 35.9926V35.9927ZM24.3248 33.0548C24.478 33.3614 24.3538 33.7342 24.0473 33.8875C23.9582 33.9321 23.8635 33.9532 23.7702 33.9532C23.5426 33.9532 23.3234 33.8275 23.2146 33.6101L23.2087 33.5984C23.0555 33.2918 23.1797 32.919 23.4862 32.7657C23.7928 32.6124 24.1655 32.7368 24.3189 33.0432L24.3248 33.0549V33.0548Z" fill="black"/>
</svg>
