<svg width="394" height="117" viewBox="0 0 394 117" fill="none" xmlns="http://www.w3.org/2000/svg">
<rect y="21" width="394" height="96" rx="20" fill="white"/>
<rect x="31" y="36" width="65" height="66" rx="32.5" fill="#FFC727"/>
<path d="M135.44 81.712V82H130.416L123.888 74.512H119.824V82H115.6V59.568C119.152 59.568 122.704 59.6 126.256 59.6C131.536 59.632 134.32 63.152 134.32 67.024C134.32 70.096 132.912 73.2 128.656 74.064L135.44 81.712ZM126.256 63.536H119.824V70.704H126.256C128.944 70.704 130.096 68.912 130.096 67.12C130.096 65.328 128.912 63.536 126.256 63.536ZM152.522 75.504H140.202C140.458 77.456 142.154 78.864 144.906 78.864C146.346 78.864 148.234 78.32 149.13 77.392L151.626 79.856C149.962 81.584 147.242 82.416 144.842 82.416C139.402 82.416 136.17 79.056 136.17 74C136.17 69.2 139.434 65.744 144.554 65.744C149.834 65.744 153.13 69.008 152.522 75.504ZM140.266 72.272H148.778C148.522 70.224 146.922 69.2 144.682 69.2C142.57 69.2 140.842 70.224 140.266 72.272ZM163.178 69.488C160.682 69.488 158.698 71.248 158.698 74.096C158.698 76.848 160.682 78.736 163.178 78.736C165.642 78.736 167.754 76.944 167.754 74.096C167.754 71.344 165.642 69.488 163.178 69.488ZM168.01 59.632H171.914V82H168.266L168.01 79.824C166.794 81.712 164.842 82.352 162.922 82.352C158.282 82.352 154.794 79.28 154.794 74.096C154.794 68.656 158.218 65.84 162.826 65.84C164.49 65.84 167.082 66.736 168.01 68.368V59.632ZM175.064 66.224H178.968V74.48C178.968 76.88 180.28 78.704 182.776 78.704C185.176 78.704 186.808 76.688 186.808 74.288V66.224H190.68V82.032H187.192L186.936 79.888C185.304 81.488 183.8 82.256 181.592 82.256C177.816 82.256 175.064 79.408 175.064 74.512V66.224ZM205.036 77.424L207.66 79.984C205.836 81.776 203.916 82.48 201.58 82.48C197.004 82.48 193.196 79.728 193.196 74.128C193.196 68.528 197.004 65.776 201.58 65.776C203.82 65.776 205.548 66.416 207.276 68.112L204.812 70.704C203.884 69.872 202.732 69.456 201.644 69.456C199.02 69.456 197.1 71.376 197.1 74.128C197.1 77.136 199.148 78.736 201.58 78.736C202.828 78.736 204.076 78.384 205.036 77.424ZM225.647 75.504H213.327C213.583 77.456 215.279 78.864 218.031 78.864C219.471 78.864 221.359 78.32 222.255 77.392L224.751 79.856C223.087 81.584 220.367 82.416 217.967 82.416C212.527 82.416 209.295 79.056 209.295 74C209.295 69.2 212.559 65.744 217.679 65.744C222.959 65.744 226.255 69.008 225.647 75.504ZM213.391 72.272H221.903C221.647 70.224 220.047 69.2 217.807 69.2C215.695 69.2 213.967 70.224 213.391 72.272ZM236.303 69.488C233.807 69.488 231.823 71.248 231.823 74.096C231.823 76.848 233.807 78.736 236.303 78.736C238.767 78.736 240.879 76.944 240.879 74.096C240.879 71.344 238.767 69.488 236.303 69.488ZM241.135 59.632H245.039V82H241.391L241.135 79.824C239.919 81.712 237.967 82.352 236.047 82.352C231.407 82.352 227.919 79.28 227.919 74.096C227.919 68.656 231.343 65.84 235.951 65.84C237.615 65.84 240.207 66.736 241.135 68.368V59.632ZM272.057 76.272L274.937 79.184C272.633 81.456 269.657 82.512 266.425 82.512C258.105 82.512 254.585 76.784 254.553 70.96C254.521 65.104 258.329 59.152 266.425 59.152C269.465 59.152 272.345 60.304 274.649 62.576L271.833 65.296C270.361 63.856 268.377 63.184 266.425 63.184C261.017 63.184 258.681 67.216 258.713 70.96C258.745 74.672 260.889 78.544 266.425 78.544C268.377 78.544 270.585 77.744 272.057 76.272ZM284.142 65.904C289.166 65.904 292.398 69.616 292.398 74.128C292.398 78.672 289.294 82.352 284.174 82.352C279.054 82.352 275.982 78.672 275.982 74.128C275.982 69.616 279.118 65.904 284.142 65.904ZM284.174 69.456C281.358 69.456 279.886 71.76 279.886 74.128C279.886 76.528 281.326 78.768 284.174 78.768C287.022 78.768 288.462 76.528 288.462 74.128C288.462 71.76 286.798 69.456 284.174 69.456ZM307.573 67.856L305.397 70.416C304.277 69.36 302.997 69.008 301.493 69.008C299.637 69.008 298.613 69.584 298.613 70.576C298.613 71.6 299.541 72.176 301.557 72.304C304.533 72.496 308.309 73.168 308.309 77.36C308.309 80.144 306.037 82.544 301.525 82.544C299.029 82.544 296.533 82.128 294.229 79.728L296.149 76.944C297.269 78.192 299.829 79.12 301.589 79.152C303.061 79.184 304.437 78.416 304.437 77.264C304.437 76.176 303.541 75.728 301.301 75.6C298.325 75.376 294.773 74.288 294.773 70.704C294.773 67.056 298.549 65.776 301.429 65.776C303.893 65.776 305.749 66.256 307.573 67.856ZM312.411 62.192L316.315 61.776V66.256H320.667V69.616H316.283V76.432C316.283 77.936 317.115 78.672 318.331 78.672C318.939 78.672 319.643 78.48 320.219 78.192L321.307 81.52C320.187 81.968 319.259 82.16 318.075 82.192C314.651 82.32 312.411 80.368 312.411 76.432V69.616H309.467V66.256H312.411V62.192ZM336.073 67.856L333.897 70.416C332.777 69.36 331.497 69.008 329.993 69.008C328.137 69.008 327.113 69.584 327.113 70.576C327.113 71.6 328.041 72.176 330.057 72.304C333.033 72.496 336.809 73.168 336.809 77.36C336.809 80.144 334.537 82.544 330.025 82.544C327.529 82.544 325.033 82.128 322.729 79.728L324.649 76.944C325.769 78.192 328.329 79.12 330.089 79.152C331.561 79.184 332.937 78.416 332.937 77.264C332.937 76.176 332.041 75.728 329.801 75.6C326.825 75.376 323.273 74.288 323.273 70.704C323.273 67.056 327.049 65.776 329.929 65.776C332.393 65.776 334.249 66.256 336.073 67.856Z" fill="#1C204E"/>
<rect x="341" width="41" height="42" rx="20.5" fill="#7681F7"/>
<path d="M370.136 13.448L366.68 15.048C365.848 13.672 363.48 12.616 361.272 12.616C358.616 12.616 356.184 13.384 356.184 15.624C356.184 17.736 358.712 18.12 361.4 18.44C366.072 19.016 371.064 19.848 371.064 25.48C371.064 29.8 367.448 32.232 363.48 32.52V35.72H359.416V32.68C355.832 32.36 352.504 30.728 351 27.208L354.776 25.608C355.64 27.656 358.488 28.968 361.144 28.968C364.024 28.968 366.68 27.976 366.68 25.48C366.68 23.368 364.024 22.6 361.048 22.248C356.472 21.736 351.992 20.936 351.992 15.624C351.992 11.432 355.704 9.512 359.416 9.064V6.28H363.48V9.064C366.2 9.48 368.696 10.504 370.136 13.448Z" fill="#F3F3F3"/>
<g clip-path="url(#clip0_2637_27)">
<path d="M54.5743 72.0811V72.5022C54.5743 73.0943 54.9756 73.6083 55.5504 73.7522L57.761 74.3048C58.8992 74.5894 59.6944 75.6075 59.6944 76.7803V77.2013C59.6944 78.6076 58.5497 79.7523 57.1426 79.7523H57.1344V81.041C57.1344 81.3897 56.8514 81.6726 56.5028 81.6726C56.1541 81.6726 55.8712 81.3897 55.8712 81.041V79.7523H55.8629C54.4559 79.7523 53.3111 78.6076 53.3111 77.2013C53.3111 76.8527 53.594 76.5697 53.9427 76.5697C54.2914 76.5697 54.5743 76.8527 54.5743 77.2013C54.5743 77.9111 55.1524 78.4892 55.8629 78.4892H57.1426C57.8531 78.4892 58.4313 77.911 58.4313 77.2013V76.7803C58.4313 76.1882 58.0299 75.6742 57.4551 75.5303L55.2445 74.9776C54.1064 74.693 53.3111 73.6749 53.3111 72.5022V72.0811C53.3111 70.674 54.4559 69.5293 55.8629 69.5293H55.8712V68.336C55.8712 67.9873 56.1541 67.7044 56.5028 67.7044C56.8514 67.7044 57.1344 67.9873 57.1344 68.336V69.5293H57.1426C58.5497 69.5293 59.6944 70.674 59.6944 72.0811C59.6944 72.4298 59.4115 72.7127 59.0629 72.7127C58.7142 72.7127 58.4313 72.4298 58.4313 72.0811C58.4313 71.3706 57.8531 70.7924 57.1426 70.7924H55.8629C55.1524 70.7924 54.5743 71.3706 54.5743 72.0811ZM63.7003 85.4737C63.7899 85.8108 63.5901 86.1571 63.2529 86.2467C61.4584 86.7261 59.3112 86.824 56.6393 86.824H56.3613C49.8546 86.824 45.1694 86.2911 44.1406 79.3971C43.0038 71.8138 49.0582 64.0079 51.4962 61.2178C50.2906 61.1383 49.3314 60.1427 49.3314 58.9172V58.0208C49.3314 56.834 50.2318 55.8645 51.3834 55.7317L50.5115 48.7575C50.4614 48.3562 50.5864 47.9524 50.8536 47.6497C51.1209 47.3479 51.5058 47.1744 51.9087 47.1744H55.5839C56.3603 47.1744 56.9919 47.806 56.9919 48.5832V49.3068H60.7757C61.1902 49.3068 61.5816 49.4886 61.8497 49.8044C62.1178 50.121 62.2321 50.538 62.1647 50.9467L61.3669 55.7347C62.5048 55.8804 63.39 56.844 63.39 58.0209V58.9173C63.39 60.0555 62.5636 60.9992 61.4801 61.1922C62.7656 62.6632 65.0964 65.5776 66.8334 69.1585C66.9855 69.4718 66.8548 69.8502 66.5406 70.0023C66.4518 70.045 66.358 70.0656 66.2659 70.0656C66.0315 70.0656 65.8062 69.9348 65.6969 69.7095C63.6249 65.4373 60.5789 62.0498 59.8136 61.2332H53.1879C51.9199 62.5922 44.1964 71.25 45.3905 79.2105C46.2442 84.9343 49.5477 85.5609 56.3611 85.5609H56.6391C58.8644 85.5609 61.1672 85.4959 62.927 85.0263C63.2675 84.9367 63.6107 85.1364 63.7003 85.4737ZM51.765 48.6012L52.6532 55.7049H60.0909L60.9182 50.7393C60.928 50.6842 60.9059 50.6447 60.8861 50.6209C60.8664 50.5979 60.831 50.5699 60.7759 50.5699H56.9921V52.0707C56.9921 52.4194 56.7092 52.7023 56.3605 52.7023C56.0119 52.7023 55.7289 52.4194 55.7289 52.0707V48.5831C55.7289 48.5025 55.6639 48.4375 55.5842 48.4375H51.9089C51.8555 48.4375 51.8201 48.4638 51.8004 48.486C51.7806 48.509 51.7584 48.5468 51.765 48.6012ZM51.6474 59.9698H61.0744C61.655 59.9698 62.1271 59.4977 62.1271 58.9172V58.0208C62.1271 57.4402 61.655 56.9681 61.0744 56.9681H51.6474C51.0669 56.9681 50.5948 57.4402 50.5948 58.0208V58.9172C50.5948 59.4977 51.0669 59.9698 51.6474 59.9698ZM83.2636 79.0294C83.7142 79.4522 84 80.0483 84 80.7137V84.5098C84 85.787 82.9614 86.8257 81.6842 86.8257H67.1404C65.8632 86.8257 64.8245 85.787 64.8245 84.5098V80.7137C64.8245 80.0483 65.1103 79.4522 65.5609 79.0294C65.1104 78.6067 64.8245 78.0105 64.8245 77.3452V73.5483C64.8245 72.2711 65.8632 71.2324 67.1404 71.2324H81.6842C82.9614 71.2324 84 72.2711 84 73.5483V77.3452C84 78.0105 83.7143 78.6067 83.2636 79.0294ZM81.6842 79.661H67.1404C66.5598 79.661 66.0877 80.1331 66.0877 80.7137V84.5098C66.0877 85.0904 66.5598 85.5625 67.1404 85.5625H81.6842C82.2648 85.5625 82.7369 85.0904 82.7369 84.5098V80.7137C82.7369 80.1331 82.2648 79.661 81.6842 79.661ZM81.6842 78.3978C82.2648 78.3978 82.7369 77.9257 82.7369 77.3452V73.5483C82.7369 72.9677 82.2648 72.4956 81.6842 72.4956H67.1404C66.5598 72.4956 66.0877 72.9677 66.0877 73.5483V77.3452C66.0877 77.9257 66.5598 78.3978 67.1404 78.3978H81.6842ZM68.5919 61.5628C68.7152 61.6862 68.8764 61.7478 69.0384 61.7478C69.2004 61.7478 69.3616 61.6862 69.485 61.5628L71.2762 59.7717C71.5229 59.5249 71.5229 59.1252 71.2762 58.8786C71.0294 58.6319 70.6298 58.6318 70.3831 58.8786L69.6701 59.5916V52.1597C69.6701 51.811 69.3872 51.5281 69.0385 51.5281C68.6899 51.5281 68.4069 51.811 68.4069 52.1597V59.5916L67.6939 58.8786C67.4472 58.6318 67.0475 58.6318 66.8009 58.8786C66.5542 59.1253 66.5541 59.525 66.8009 59.7717L68.5919 61.5628ZM73.9653 66.9371C74.0837 67.0555 74.244 67.1221 74.4119 67.1221C74.5797 67.1221 74.74 67.0555 74.8584 66.9371L76.6496 65.1451C76.8964 64.8983 76.8964 64.4987 76.6496 64.252C76.4021 64.0045 76.0024 64.0061 75.7565 64.252L75.0435 64.9654V57.5339C75.0435 57.1852 74.7606 56.9023 74.4119 56.9023C74.0633 56.9023 73.7804 57.1852 73.7804 57.5339V64.9654L73.0674 64.252C72.8214 64.0061 72.4218 64.0045 72.1743 64.252C71.9275 64.4988 71.9275 64.8984 72.1743 65.1451L73.9653 66.9371ZM79.3396 61.5628C79.4629 61.6862 79.6242 61.7478 79.7862 61.7478C79.9482 61.7478 80.1094 61.6862 80.2328 61.5628L82.0239 59.7717C82.2707 59.5249 82.2707 59.1252 82.0239 58.8786C81.7772 58.6319 81.3775 58.6318 81.1309 58.8786L80.4179 59.5916V52.1597C80.4179 51.811 80.1349 51.5281 79.7863 51.5281C79.4376 51.5281 79.1547 51.811 79.1547 52.1597V59.5916L78.4417 58.8786C78.1949 58.6318 77.7953 58.6318 77.5486 58.8786C77.3019 59.1253 77.3019 59.525 77.5486 59.7717L79.3396 61.5628Z" fill="#1E1E1E"/>
</g>
<defs>
<clipPath id="clip0_2637_27">
<rect width="40" height="40" fill="white" transform="translate(44 47)"/>
</clipPath>
</defs>
</svg>
