<svg width="296" height="292" viewBox="0 0 296 292" fill="none" xmlns="http://www.w3.org/2000/svg">
<rect y="16" width="295" height="275" rx="14.9873" fill="white"/>
<rect x="255.534" y="0.263184" width="30.724" height="31.4734" rx="15.362" fill="#7681F7"/>
<path d="M277.368 10.3407L274.778 11.5397C274.154 10.5086 272.38 9.71723 270.725 9.71723C268.735 9.71723 266.913 10.2927 266.913 11.9713C266.913 13.554 268.807 13.8417 270.821 14.0815C274.322 14.5132 278.063 15.1367 278.063 19.3571C278.063 22.5944 275.353 24.4168 272.38 24.6326V27.0306H269.335V24.7525C266.649 24.5127 264.155 23.2898 263.028 20.652L265.857 19.453C266.505 20.9877 268.639 21.9709 270.629 21.9709C272.788 21.9709 274.778 21.2275 274.778 19.3571C274.778 17.7744 272.788 17.1989 270.557 16.9351C267.128 16.5515 263.771 15.952 263.771 11.9713C263.771 8.82998 266.553 7.39119 269.335 7.05548V4.96924H272.38V7.05548C274.418 7.36721 276.289 8.13457 277.368 10.3407Z" fill="#F3F3F3"/>
<rect x="13" y="27.2405" width="48.7089" height="49.4582" rx="24.3544" fill="#FFC727"/>
<g clip-path="url(#clip0_2742_759)">
<path d="M30.6658 54.2785V54.594C30.6658 55.0377 30.9665 55.4229 31.3973 55.5307L33.0538 55.9449C33.9067 56.1582 34.5026 56.9211 34.5026 57.7999V58.1154C34.5026 59.1692 33.6448 60.0271 32.5904 60.0271H32.5842V60.9928C32.5842 61.254 32.3722 61.466 32.1109 61.466C31.8496 61.466 31.6376 61.254 31.6376 60.9928V60.0271H31.6314C30.577 60.0271 29.7192 59.1692 29.7192 58.1154C29.7192 57.8542 29.9312 57.6422 30.1925 57.6422C30.4537 57.6422 30.6658 57.8542 30.6658 58.1154C30.6658 58.6473 31.099 59.0805 31.6314 59.0805H32.5904C33.1228 59.0805 33.5561 58.6472 33.5561 58.1154V57.7999C33.5561 57.3562 33.2553 56.971 32.8246 56.8632L31.168 56.449C30.3151 56.2358 29.7192 55.4729 29.7192 54.594V54.2785C29.7192 53.2241 30.577 52.3662 31.6314 52.3662H31.6376V51.4721C31.6376 51.2108 31.8496 50.9988 32.1109 50.9988C32.3722 50.9988 32.5842 51.2108 32.5842 51.4721V52.3662H32.5904C33.6448 52.3662 34.5026 53.2241 34.5026 54.2785C34.5026 54.5398 34.2906 54.7518 34.0294 54.7518C33.7681 54.7518 33.5561 54.5398 33.5561 54.2785C33.5561 53.7461 33.1228 53.3128 32.5904 53.3128H31.6314C31.099 53.3128 30.6658 53.7461 30.6658 54.2785ZM37.5045 64.3145C37.5717 64.5671 37.4219 64.8266 37.1692 64.8937C35.8245 65.253 34.2154 65.3263 32.2132 65.3263H32.0049C27.129 65.3263 23.6181 64.927 22.8471 59.7609C21.9952 54.0782 26.5322 48.2287 28.3591 46.1379C27.4557 46.0784 26.7369 45.3322 26.7369 44.414V43.7422C26.7369 42.8528 27.4116 42.1263 28.2747 42.0268L27.6213 36.8006C27.5837 36.4998 27.6773 36.1973 27.8776 35.9705C28.0779 35.7443 28.3663 35.6143 28.6683 35.6143H31.4224C32.0041 35.6143 32.4774 36.0875 32.4774 36.6699V37.2122H35.3129C35.6235 37.2122 35.9168 37.3484 36.1177 37.5851C36.3186 37.8223 36.4043 38.1348 36.3538 38.4411L35.756 42.029C36.6086 42.1382 37.272 42.8603 37.272 43.7423V44.414C37.272 45.2669 36.6527 45.9741 35.8408 46.1187C36.8041 47.221 38.5507 49.405 39.8523 52.0884C39.9663 52.3232 39.8684 52.6067 39.6329 52.7207C39.5664 52.7527 39.4961 52.7681 39.4271 52.7681C39.2514 52.7681 39.0826 52.6702 39.0007 52.5013C37.448 49.2998 35.1655 46.7614 34.5919 46.1494H29.6268C28.6766 47.1679 22.8889 53.6557 23.7838 59.621C24.4235 63.9103 26.899 64.3798 32.0047 64.3798H32.2131C33.8807 64.3798 35.6063 64.3311 36.925 63.9792C37.1802 63.912 37.4373 64.0617 37.5045 64.3145ZM28.5606 36.6834L29.2262 42.0067H34.7997L35.4197 38.2857C35.427 38.2444 35.4104 38.2148 35.3956 38.197C35.3808 38.1797 35.3544 38.1587 35.3131 38.1587H32.4776V39.2834C32.4776 39.5447 32.2656 39.7567 32.0043 39.7567C31.743 39.7567 31.531 39.5447 31.531 39.2834V36.6699C31.531 36.6095 31.4823 36.5608 31.4226 36.5608H28.6684C28.6284 36.5608 28.6019 36.5805 28.5871 36.5971C28.5723 36.6144 28.5557 36.6427 28.5606 36.6834ZM28.4725 45.2027H35.5368C35.9718 45.2027 36.3256 44.849 36.3256 44.4139V43.7421C36.3256 43.3071 35.9718 42.9533 35.5368 42.9533H28.4725C28.0374 42.9533 27.6837 43.3071 27.6837 43.7421V44.4139C27.6837 44.849 28.0374 45.2027 28.4725 45.2027ZM52.1646 59.4853C52.5022 59.8021 52.7164 60.2489 52.7164 60.7475V63.5922C52.7164 64.5493 51.9381 65.3276 50.981 65.3276H40.0824C39.1253 65.3276 38.347 64.5493 38.347 63.5922V60.7475C38.347 60.2489 38.5611 59.8021 38.8988 59.4853C38.5611 59.1686 38.347 58.7218 38.347 58.2232V55.3779C38.347 54.4209 39.1253 53.6425 40.0824 53.6425H50.981C51.9381 53.6425 52.7164 54.4209 52.7164 55.3779V58.2232C52.7164 58.7218 52.5023 59.1686 52.1646 59.4853ZM50.981 59.9586H40.0824C39.6473 59.9586 39.2935 60.3124 39.2935 60.7475V63.5922C39.2935 64.0273 39.6473 64.381 40.0824 64.381H50.981C51.4161 64.381 51.7699 64.0273 51.7699 63.5922V60.7475C51.7699 60.3124 51.4161 59.9586 50.981 59.9586ZM50.981 59.0121C51.4161 59.0121 51.7699 58.6583 51.7699 58.2232V55.3779C51.7699 54.9429 51.4161 54.5891 50.981 54.5891H40.0824C39.6473 54.5891 39.2935 54.9429 39.2935 55.3779V58.2232C39.2935 58.6583 39.6473 59.0121 40.0824 59.0121H50.981ZM41.1701 46.3965C41.2625 46.4889 41.3833 46.5351 41.5047 46.5351C41.6261 46.5351 41.7469 46.4889 41.8394 46.3965L43.1816 45.0542C43.3665 44.8693 43.3665 44.5698 43.1816 44.385C42.9967 44.2001 42.6972 44.2001 42.5124 44.385L41.9781 44.9193V39.35C41.9781 39.0888 41.7661 38.8768 41.5048 38.8768C41.2435 38.8768 41.0315 39.0888 41.0315 39.35V44.9193L40.4972 44.385C40.3123 44.2001 40.0128 44.2001 39.828 44.385C39.6431 44.5699 39.643 44.8694 39.828 45.0542L41.1701 46.3965ZM45.1967 50.4237C45.2855 50.5125 45.4056 50.5624 45.5314 50.5624C45.6572 50.5624 45.7773 50.5125 45.866 50.4237L47.2083 49.0809C47.3932 48.896 47.3932 48.5965 47.2083 48.4116C47.0228 48.2262 46.7233 48.2274 46.539 48.4116L46.0047 48.9462V43.3773C46.0047 43.116 45.7927 42.904 45.5315 42.904C45.2702 42.904 45.0582 43.116 45.0582 43.3773V48.9462L44.5239 48.4116C44.3396 48.2274 44.0401 48.2262 43.8546 48.4116C43.6697 48.5965 43.6697 48.896 43.8546 49.0809L45.1967 50.4237ZM49.2241 46.3965C49.3165 46.4889 49.4373 46.5351 49.5587 46.5351C49.6801 46.5351 49.8009 46.4889 49.8934 46.3965L51.2356 45.0542C51.4205 44.8693 51.4205 44.5698 51.2356 44.385C51.0507 44.2001 50.7512 44.2001 50.5664 44.385L50.0321 44.9193V39.35C50.0321 39.0888 49.8201 38.8768 49.5588 38.8768C49.2975 38.8768 49.0855 39.0888 49.0855 39.35V44.9193L48.5512 44.385C48.3663 44.2001 48.0668 44.2001 47.882 44.385C47.6971 44.5699 47.6971 44.8694 47.882 45.0542L49.2241 46.3965Z" fill="#1E1E1E"/>
</g>
<path d="M88.767 57.2806V57.4695H85.4728L81.1924 52.5596H78.5276V57.4695H75.758V42.7609C78.087 42.7609 80.416 42.7819 82.7451 42.7819C86.2072 42.8029 88.0326 45.1109 88.0326 47.6498C88.0326 49.6641 87.1094 51.6994 84.3187 52.2659L88.767 57.2806ZM82.7451 45.3627H78.5276V50.0627H82.7451C84.5076 50.0627 85.2629 48.8877 85.2629 47.7127C85.2629 46.5377 84.4866 45.3627 82.7451 45.3627ZM99.9674 53.2101H91.8892C92.0571 54.49 93.1692 55.4132 94.9736 55.4132C95.9178 55.4132 97.1558 55.0565 97.7433 54.448L99.3799 56.0637C98.2888 57.1967 96.5053 57.7423 94.9317 57.7423C91.3647 57.7423 89.2455 55.5391 89.2455 52.2239C89.2455 49.0766 91.3857 46.8105 94.7428 46.8105C98.2049 46.8105 100.366 48.9507 99.9674 53.2101ZM91.9312 51.0909H97.5125C97.3446 49.748 96.2955 49.0766 94.8268 49.0766C93.4419 49.0766 92.3089 49.748 91.9312 51.0909ZM106.955 49.2654C105.318 49.2654 104.017 50.4194 104.017 52.2869C104.017 54.0913 105.318 55.3293 106.955 55.3293C108.57 55.3293 109.955 54.1543 109.955 52.2869C109.955 50.4824 108.57 49.2654 106.955 49.2654ZM110.123 42.8029H112.683V57.4695H110.291L110.123 56.0427C109.326 57.2806 108.046 57.7003 106.787 57.7003C103.744 57.7003 101.457 55.686 101.457 52.2869C101.457 48.7199 103.702 46.8734 106.724 46.8734C107.815 46.8734 109.515 47.4609 110.123 48.531V42.8029ZM114.748 47.1252H117.308V52.5386C117.308 54.1123 118.168 55.3083 119.805 55.3083C121.378 55.3083 122.448 53.9864 122.448 52.4128V47.1252H124.987V57.4905H122.7L122.532 56.0847C121.462 57.1338 120.476 57.6373 119.028 57.6373C116.552 57.6373 114.748 55.7699 114.748 52.5596V47.1252ZM134.401 54.469L136.121 56.1476C134.925 57.3226 133.666 57.7842 132.135 57.7842C129.134 57.7842 126.637 55.9797 126.637 52.3078C126.637 48.6359 129.134 46.8315 132.135 46.8315C133.603 46.8315 134.736 47.2511 135.869 48.3632L134.254 50.0627C133.645 49.5172 132.89 49.2444 132.177 49.2444C130.456 49.2444 129.197 50.5034 129.197 52.3078C129.197 54.2802 130.54 55.3293 132.135 55.3293C132.953 55.3293 133.771 55.0985 134.401 54.469ZM147.915 53.2101H139.837C140.005 54.49 141.117 55.4132 142.921 55.4132C143.866 55.4132 145.104 55.0565 145.691 54.448L147.328 56.0637C146.237 57.1967 144.453 57.7423 142.879 57.7423C139.312 57.7423 137.193 55.5391 137.193 52.2239C137.193 49.0766 139.333 46.8105 142.691 46.8105C146.153 46.8105 148.314 48.9507 147.915 53.2101ZM139.879 51.0909H145.46C145.292 49.748 144.243 49.0766 142.775 49.0766C141.39 49.0766 140.257 49.748 139.879 51.0909ZM154.902 49.2654C153.266 49.2654 151.965 50.4194 151.965 52.2869C151.965 54.0913 153.266 55.3293 154.902 55.3293C156.518 55.3293 157.903 54.1543 157.903 52.2869C157.903 50.4824 156.518 49.2654 154.902 49.2654ZM158.071 42.8029H160.631V57.4695H158.239L158.071 56.0427C157.273 57.2806 155.994 57.7003 154.735 57.7003C151.692 57.7003 149.405 55.686 149.405 52.2869C149.405 48.7199 151.65 46.8734 154.672 46.8734C155.763 46.8734 157.462 47.4609 158.071 48.531V42.8029ZM178.346 53.7137L180.235 55.623C178.724 57.1128 176.773 57.8052 174.653 57.8052C169.198 57.8052 166.89 54.0494 166.869 50.2306C166.848 46.3908 169.345 42.4881 174.653 42.4881C176.647 42.4881 178.535 43.2435 180.046 44.7332L178.199 46.5167C177.234 45.5725 175.933 45.1319 174.653 45.1319C171.107 45.1319 169.576 47.7757 169.597 50.2306C169.618 52.6645 171.023 55.2034 174.653 55.2034C175.933 55.2034 177.381 54.6788 178.346 53.7137ZM186.27 46.9154C189.564 46.9154 191.683 49.3493 191.683 52.3078C191.683 55.2873 189.648 57.7003 186.291 57.7003C182.934 57.7003 180.92 55.2873 180.92 52.3078C180.92 49.3493 182.976 46.9154 186.27 46.9154ZM186.291 49.2444C184.445 49.2444 183.479 50.7552 183.479 52.3078C183.479 53.8815 184.424 55.3503 186.291 55.3503C188.158 55.3503 189.103 53.8815 189.103 52.3078C189.103 50.7552 188.012 49.2444 186.291 49.2444ZM201.634 48.1953L200.207 49.8739C199.472 49.1815 198.633 48.9507 197.647 48.9507C196.43 48.9507 195.759 49.3284 195.759 49.9788C195.759 50.6502 196.367 51.0279 197.689 51.1119C199.64 51.2377 202.116 51.6784 202.116 54.4271C202.116 56.2525 200.626 57.8262 197.668 57.8262C196.031 57.8262 194.395 57.5534 192.884 55.9797L194.143 54.1543C194.877 54.9726 196.556 55.5811 197.71 55.6021C198.675 55.623 199.577 55.1195 199.577 54.3641C199.577 53.6507 198.99 53.357 197.521 53.273C195.57 53.1262 193.241 52.4128 193.241 50.0627C193.241 47.6708 195.717 46.8315 197.605 46.8315C199.221 46.8315 200.438 47.1462 201.634 48.1953ZM204.806 44.4815L207.366 44.2087V47.1462H210.22V49.3493H207.345V53.8186C207.345 54.8047 207.891 55.2873 208.688 55.2873C209.087 55.2873 209.548 55.1614 209.926 54.9726L210.639 57.1547C209.905 57.4485 209.297 57.5744 208.52 57.5954C206.275 57.6793 204.806 56.3994 204.806 53.8186V49.3493H202.876V47.1462H204.806V44.4815ZM220.321 48.1953L218.894 49.8739C218.16 49.1815 217.32 48.9507 216.334 48.9507C215.117 48.9507 214.446 49.3284 214.446 49.9788C214.446 50.6502 215.054 51.0279 216.376 51.1119C218.328 51.2377 220.804 51.6784 220.804 54.4271C220.804 56.2525 219.314 57.8262 216.355 57.8262C214.719 57.8262 213.082 57.5534 211.571 55.9797L212.83 54.1543C213.565 54.9726 215.243 55.5811 216.397 55.6021C217.362 55.623 218.265 55.1195 218.265 54.3641C218.265 53.6507 217.677 53.357 216.208 53.273C214.257 53.1262 211.928 52.4128 211.928 50.0627C211.928 47.6708 214.404 46.8315 216.292 46.8315C217.908 46.8315 219.125 47.1462 220.321 48.1953Z" fill="#1C204E"/>
<path d="M24.24 98.8787L23.36 99.3987C22.34 97.7587 20.7 97.5187 19.12 97.4987C17.48 97.4987 14.88 98.0987 14.88 100.339C14.88 102.119 16.8 102.539 19.16 102.979C21.86 103.499 24.66 103.979 24.66 106.999C24.64 110.159 21.46 110.919 19.12 110.919C16.94 110.919 14.46 110.019 13.38 107.879L14.34 107.399C15.2 109.099 17.4 109.939 19.12 109.939C20.84 109.939 23.58 109.459 23.58 106.979C23.6 104.879 21.28 104.419 18.98 103.979C16.42 103.479 13.8 102.959 13.8 100.379C13.74 97.4187 16.82 96.4987 19.12 96.4987C21.12 96.4987 22.86 96.8187 24.24 98.8787ZM40.2609 100.819L36.7609 110.699H35.6809L34.0809 106.379L32.8809 102.539L31.6409 106.399L30.0409 110.699H28.9609L25.4409 100.819H26.5209L29.5009 109.559L32.5209 100.819H33.2209L36.2209 109.559L39.1809 100.819H40.2609ZM42.8339 100.779V110.699H41.8539V100.779H42.8339ZM41.5739 97.5987C41.5739 98.6387 43.1539 98.6387 43.1539 97.5987C43.1539 96.5587 41.5739 96.5587 41.5739 97.5987ZM46.943 97.9387L47.903 97.8387V100.819H51.263V101.639H47.903V107.659C47.903 108.999 48.183 109.939 49.723 109.939C50.203 109.939 50.743 109.779 51.243 109.539L51.583 110.339C50.963 110.639 50.343 110.839 49.723 110.839C47.623 110.839 46.943 109.599 46.943 107.659V101.639H44.843V100.819H46.943V97.9387ZM60.9541 108.659L61.6141 109.319C60.6141 110.319 59.3141 110.799 58.0141 110.799C55.2341 110.799 52.9341 108.879 52.9341 105.759C52.9341 102.639 55.1541 100.719 58.0141 100.719C59.3141 100.719 60.6141 101.219 61.6141 102.199L60.9741 102.819C60.1741 102.019 59.0741 101.639 58.0141 101.639C55.7741 101.639 53.8941 103.099 53.8941 105.759C53.8941 108.419 55.7741 109.879 58.0141 109.879C59.0741 109.879 60.1541 109.459 60.9541 108.659ZM63.6117 96.6987H64.5517V102.659C65.3517 101.239 66.7317 100.699 68.1117 100.679C70.8717 100.679 72.2517 102.459 72.2517 105.039V110.699H71.2917V105.039C71.2917 102.999 70.3317 101.619 68.1117 101.619C66.0317 101.619 64.5917 103.219 64.5917 105.279V110.699H63.6117V96.6987ZM79.8231 101.599C77.5431 101.599 75.7831 103.279 75.7831 105.739C75.7831 108.199 77.5031 109.899 79.8231 109.899C82.0431 109.899 83.8631 108.499 83.8631 105.759C83.8631 102.979 82.0431 101.599 79.8231 101.599ZM74.8031 96.6987H75.7631V102.979C76.5631 101.379 78.1631 100.659 79.8631 100.659C82.6231 100.659 84.8231 102.499 84.8231 105.759C84.8231 109.039 82.6431 110.859 79.8831 110.859C78.2031 110.859 76.5831 110.019 75.7631 108.519V110.699H74.8031V96.6987ZM91.785 110.839C89.005 110.839 86.765 108.919 86.765 105.779C86.765 102.639 89.005 100.639 91.785 100.639C94.565 100.639 96.805 102.639 96.805 105.779C96.805 108.919 94.565 110.839 91.785 110.839ZM91.785 109.879C94.025 109.879 95.845 108.339 95.845 105.779C95.845 103.219 94.025 101.559 91.785 101.559C89.545 101.559 87.725 103.219 87.725 105.779C87.725 108.339 89.545 109.879 91.785 109.879ZM107.581 100.819H108.561C108.561 104.119 108.561 107.399 108.561 110.699H107.581V108.599C106.621 110.139 105.141 110.859 103.541 110.859C100.781 110.859 98.5209 108.779 98.5209 105.759C98.5209 102.739 100.781 100.699 103.541 100.699C105.141 100.699 106.761 101.439 107.581 102.979V100.819ZM103.541 101.639C101.301 101.639 99.5009 103.279 99.5009 105.759C99.5009 108.239 101.301 109.899 103.541 109.899C109.041 109.899 109.041 101.639 103.541 101.639ZM111.229 100.819H112.149L112.189 102.579C112.809 101.239 114.209 100.719 115.469 100.719C116.209 100.699 116.929 100.899 117.589 101.299L117.149 102.099C116.629 101.779 116.049 101.639 115.469 101.639C113.629 101.659 112.209 103.139 112.209 104.939V110.699H111.229V100.819ZM123.521 101.599C121.301 101.599 119.481 102.979 119.481 105.759C119.481 108.499 121.301 109.899 123.521 109.899C125.841 109.899 127.561 108.199 127.561 105.739C127.561 103.279 125.801 101.599 123.521 101.599ZM127.581 96.6987H128.541V110.699H127.581V108.519C126.761 110.019 125.141 110.859 123.461 110.859C120.701 110.859 118.521 109.039 118.521 105.759C118.521 102.499 120.721 100.659 123.481 100.659C125.181 100.659 126.781 101.379 127.581 102.979V96.6987ZM137.686 97.6987H132.626V104.879H137.686C142.346 104.879 142.346 97.6987 137.686 97.6987ZM137.686 105.859H132.626V110.699H131.546V96.6987C133.586 96.6987 135.646 96.6987 137.686 96.6987C143.766 96.6987 143.766 105.859 137.686 105.859ZM144.452 96.6987H145.432V110.699H144.452V96.6987ZM157.083 110.699H156.123V108.919C155.363 110.279 153.983 110.839 152.603 110.859C149.963 110.859 148.143 109.239 148.143 106.499V100.799H149.123V106.479C149.123 108.719 150.503 109.919 152.643 109.899C154.683 109.879 156.103 108.339 156.103 106.299V100.799H157.083V110.699ZM167.046 101.979L166.446 102.619C165.446 101.739 164.466 101.579 163.366 101.579C161.826 101.559 160.346 102.139 160.386 103.399C160.426 104.719 162.146 104.979 163.386 105.199C165.146 105.499 167.566 105.799 167.466 108.099C167.406 110.279 165.146 110.859 163.406 110.859C161.666 110.859 159.946 110.199 159.086 108.879L159.806 108.239C160.626 109.419 162.106 109.919 163.426 109.919C164.626 109.919 166.446 109.599 166.506 108.039C166.546 106.619 164.906 106.339 163.286 106.079C161.366 105.759 159.466 105.399 159.446 103.419C159.426 101.479 161.366 100.639 163.366 100.659C164.806 100.659 166.066 101.059 167.046 101.979ZM176.135 100.779V110.699H175.155V100.779H176.135ZM174.875 97.5987C174.875 98.6387 176.455 98.6387 176.455 97.5987C176.455 96.5587 174.875 96.5587 174.875 97.5987ZM186.324 101.979L185.724 102.619C184.724 101.739 183.744 101.579 182.644 101.579C181.104 101.559 179.624 102.139 179.664 103.399C179.704 104.719 181.424 104.979 182.664 105.199C184.424 105.499 186.844 105.799 186.744 108.099C186.684 110.279 184.424 110.859 182.684 110.859C180.944 110.859 179.224 110.199 178.364 108.879L179.084 108.239C179.904 109.419 181.384 109.919 182.704 109.919C183.904 109.919 185.724 109.599 185.784 108.039C185.824 106.619 184.184 106.339 182.564 106.079C180.644 105.759 178.744 105.399 178.724 103.419C178.704 101.479 180.644 100.639 182.644 100.659C184.084 100.659 185.344 101.059 186.324 101.979ZM202.952 100.819H203.932C203.932 104.119 203.932 107.399 203.932 110.699H202.952V108.599C201.992 110.139 200.512 110.859 198.912 110.859C196.152 110.859 193.892 108.779 193.892 105.759C193.892 102.739 196.152 100.699 198.912 100.699C200.512 100.699 202.132 101.439 202.952 102.979V100.819ZM198.912 101.639C196.672 101.639 194.872 103.279 194.872 105.759C194.872 108.239 196.672 109.899 198.912 109.899C204.412 109.899 204.412 101.639 198.912 101.639ZM219.548 108.659L220.208 109.319C219.208 110.319 217.908 110.799 216.608 110.799C213.828 110.799 211.528 108.879 211.528 105.759C211.528 102.639 213.748 100.719 216.608 100.719C217.908 100.719 219.208 101.219 220.208 102.199L219.568 102.819C218.768 102.019 217.668 101.639 216.608 101.639C214.368 101.639 212.488 103.099 212.488 105.759C212.488 108.419 214.368 109.879 216.608 109.879C217.668 109.879 218.748 109.459 219.548 108.659ZM222.205 96.6987H223.185V110.699H222.205V96.6987ZM230.476 110.839C227.696 110.839 225.456 108.919 225.456 105.779C225.456 102.639 227.696 100.639 230.476 100.639C233.256 100.639 235.496 102.639 235.496 105.779C235.496 108.919 233.256 110.839 230.476 110.839ZM230.476 109.879C232.716 109.879 234.536 108.339 234.536 105.779C234.536 103.219 232.716 101.559 230.476 101.559C228.236 101.559 226.416 103.219 226.416 105.779C226.416 108.339 228.236 109.879 230.476 109.879ZM246.672 110.699H245.712V108.919C244.952 110.279 243.572 110.839 242.192 110.859C239.552 110.859 237.732 109.239 237.732 106.499V100.799H238.712V106.479C238.712 108.719 240.092 109.919 242.232 109.899C244.272 109.879 245.692 108.339 245.692 106.299V100.799H246.672V110.699ZM253.716 101.599C251.496 101.599 249.676 102.979 249.676 105.759C249.676 108.499 251.496 109.899 253.716 109.899C256.036 109.899 257.756 108.199 257.756 105.739C257.756 103.279 255.996 101.599 253.716 101.599ZM257.776 96.6987H258.736V110.699H257.776V108.519C256.956 110.019 255.336 110.859 253.656 110.859C250.896 110.859 248.716 109.039 248.716 105.759C248.716 102.499 250.916 100.659 253.676 100.659C255.376 100.659 256.976 101.379 257.776 102.979V96.6987ZM261.621 104.919V103.879H268.621V104.919H261.621ZM19.12 127.599C16.84 127.599 15.08 129.279 15.08 131.739C15.08 134.199 16.8 135.899 19.12 135.899C21.34 135.899 23.16 134.499 23.16 131.759C23.16 128.979 21.34 127.599 19.12 127.599ZM14.1 122.699H15.06V128.979C15.86 127.379 17.46 126.659 19.16 126.659C21.92 126.659 24.12 128.499 24.12 131.759C24.12 135.039 21.94 136.859 19.18 136.859C17.5 136.859 15.88 136.019 15.06 134.519V136.699H14.1V122.699ZM35.0419 126.819H36.0219C36.0219 130.119 36.0219 133.399 36.0219 136.699H35.0419V134.599C34.0819 136.139 32.6019 136.859 31.0019 136.859C28.2419 136.859 25.9819 134.779 25.9819 131.759C25.9819 128.739 28.2419 126.699 31.0019 126.699C32.6019 126.699 34.2219 127.439 35.0419 128.979V126.819ZM31.0019 127.639C28.7619 127.639 26.9619 129.279 26.9619 131.759C26.9619 134.239 28.7619 135.899 31.0019 135.899C36.5019 135.899 36.5019 127.639 31.0019 127.639ZM46.0698 127.979L45.4698 128.619C44.4698 127.739 43.4898 127.579 42.3898 127.579C40.8498 127.559 39.3698 128.139 39.4098 129.399C39.4498 130.719 41.1698 130.979 42.4098 131.199C44.1698 131.499 46.5898 131.799 46.4898 134.099C46.4298 136.279 44.1698 136.859 42.4298 136.859C40.6898 136.859 38.9698 136.199 38.1098 134.879L38.8298 134.239C39.6498 135.419 41.1298 135.919 42.4498 135.919C43.6498 135.919 45.4698 135.599 45.5298 134.039C45.5698 132.619 43.9298 132.339 42.3098 132.079C40.3898 131.759 38.4898 131.399 38.4698 129.419C38.4498 127.479 40.3898 126.639 42.3898 126.659C43.8298 126.659 45.0898 127.059 46.0698 127.979ZM53.1303 136.839C50.3503 136.839 48.1103 134.899 48.1103 131.759C48.1103 128.799 50.3503 126.659 53.1303 126.659C55.9103 126.659 58.3903 128.359 58.0103 132.219H49.1103C49.3103 134.539 51.0903 135.879 53.1303 135.879C54.4303 135.879 55.9503 135.359 56.6903 134.379L57.3903 134.939C56.4303 136.199 54.7103 136.839 53.1303 136.839ZM49.1103 131.359H57.1303C57.1103 128.919 55.5103 127.559 53.1303 127.559C51.0903 127.559 49.3303 128.939 49.1103 131.359ZM65.0053 127.599C62.7853 127.599 60.9653 128.979 60.9653 131.759C60.9653 134.499 62.7853 135.899 65.0053 135.899C67.3253 135.899 69.0453 134.199 69.0453 131.739C69.0453 129.279 67.2853 127.599 65.0053 127.599ZM69.0653 122.699H70.0253V136.699H69.0653V134.519C68.2453 136.019 66.6253 136.859 64.9453 136.859C62.1853 136.859 60.0053 135.039 60.0053 131.759C60.0053 128.499 62.2053 126.659 64.9653 126.659C66.6653 126.659 68.2653 127.379 69.0653 128.979V122.699ZM85.7378 127.979L85.1378 128.619C84.1378 127.739 83.1578 127.579 82.0578 127.579C80.5178 127.559 79.0378 128.139 79.0778 129.399C79.1178 130.719 80.8378 130.979 82.0778 131.199C83.8378 131.499 86.2578 131.799 86.1578 134.099C86.0978 136.279 83.8378 136.859 82.0978 136.859C80.3578 136.859 78.6378 136.199 77.7778 134.879L78.4978 134.239C79.3178 135.419 80.7978 135.919 82.1178 135.919C83.3178 135.919 85.1378 135.599 85.1978 134.039C85.2378 132.619 83.5978 132.339 81.9778 132.079C80.0578 131.759 78.1578 131.399 78.1378 129.419C78.1178 127.479 80.0578 126.639 82.0578 126.659C83.4978 126.659 84.7578 127.059 85.7378 127.979ZM95.7183 126.819H96.7783L90.7583 140.819H89.7183L91.5383 136.579L87.5783 126.819H88.6383L90.9383 132.659L92.0983 135.519L93.2383 132.639L95.7183 126.819ZM106.05 127.979L105.45 128.619C104.45 127.739 103.47 127.579 102.37 127.579C100.83 127.559 99.3503 128.139 99.3903 129.399C99.4303 130.719 101.15 130.979 102.39 131.199C104.15 131.499 106.57 131.799 106.47 134.099C106.41 136.279 104.15 136.859 102.41 136.859C100.67 136.859 98.9503 136.199 98.0903 134.879L98.8103 134.239C99.6303 135.419 101.11 135.919 102.43 135.919C103.63 135.919 105.45 135.599 105.51 134.039C105.55 132.619 103.91 132.339 102.29 132.079C100.37 131.759 98.4703 131.399 98.4503 129.419C98.4303 127.479 100.37 126.639 102.37 126.659C103.81 126.659 105.07 127.059 106.05 127.979ZM109.951 123.939L110.911 123.839V126.819H114.271V127.639H110.911V133.659C110.911 134.999 111.191 135.939 112.731 135.939C113.211 135.939 113.751 135.779 114.251 135.539L114.591 136.339C113.971 136.639 113.351 136.839 112.731 136.839C110.631 136.839 109.951 135.599 109.951 133.659V127.639H107.851V126.819H109.951V123.939ZM120.982 136.839C118.202 136.839 115.962 134.899 115.962 131.759C115.962 128.799 118.202 126.659 120.982 126.659C123.762 126.659 126.242 128.359 125.862 132.219H116.962C117.162 134.539 118.942 135.879 120.982 135.879C122.282 135.879 123.802 135.359 124.542 134.379L125.242 134.939C124.282 136.199 122.562 136.839 120.982 136.839ZM116.962 131.359H124.982C124.962 128.919 123.362 127.559 120.982 127.559C118.942 127.559 117.182 128.939 116.962 131.359ZM143.822 136.699H142.842V130.779C142.842 128.879 141.562 127.539 139.682 127.539C137.802 127.539 136.502 128.939 136.502 130.839V136.699H135.522V130.839C135.522 128.939 134.222 127.559 132.342 127.559C130.462 127.559 129.182 128.939 129.182 130.839V136.699H128.202V126.819H129.122L129.142 128.459C129.822 127.159 131.082 126.619 132.362 126.619C133.862 126.619 135.442 127.299 136.022 129.059C136.622 127.439 138.162 126.619 139.682 126.619C142.102 126.619 143.822 128.319 143.822 130.779V136.699ZM153.388 123.939L154.348 123.839V126.819H157.708V127.639H154.348V133.659C154.348 134.999 154.628 135.939 156.168 135.939C156.648 135.939 157.188 135.779 157.688 135.539L158.028 136.339C157.408 136.639 156.788 136.839 156.168 136.839C154.068 136.839 153.388 135.599 153.388 133.659V127.639H151.288V126.819H153.388V123.939ZM159.959 122.699H160.899V128.659C161.699 127.239 163.079 126.699 164.459 126.679C167.219 126.679 168.599 128.459 168.599 131.039V136.699H167.639V131.039C167.639 128.999 166.679 127.619 164.459 127.619C162.379 127.619 160.939 129.219 160.939 131.279V136.699H159.959V122.699ZM179.671 126.819H180.651C180.651 130.119 180.651 133.399 180.651 136.699H179.671V134.599C178.711 136.139 177.231 136.859 175.631 136.859C172.871 136.859 170.611 134.779 170.611 131.759C170.611 128.739 172.871 126.699 175.631 126.699C177.231 126.699 178.851 127.439 179.671 128.979V126.819ZM175.631 127.639C173.391 127.639 171.591 129.279 171.591 131.759C171.591 134.239 173.391 135.899 175.631 135.899C181.131 135.899 181.131 127.639 175.631 127.639ZM184.189 123.939L185.149 123.839V126.819H188.509V127.639H185.149V133.659C185.149 134.999 185.429 135.939 186.969 135.939C187.449 135.939 187.989 135.779 188.489 135.539L188.829 136.339C188.209 136.639 187.589 136.839 186.969 136.839C184.869 136.839 184.189 135.599 184.189 133.659V127.639H182.089V126.819H184.189V123.939ZM18.56 162.839C15.78 162.839 13.54 160.899 13.54 157.759C13.54 154.799 15.78 152.659 18.56 152.659C21.34 152.659 23.82 154.359 23.44 158.219H14.54C14.74 160.539 16.52 161.879 18.56 161.879C19.86 161.879 21.38 161.359 22.12 160.379L22.82 160.939C21.86 162.199 20.14 162.839 18.56 162.839ZM14.54 157.359H22.56C22.54 154.919 20.94 153.559 18.56 153.559C16.52 153.559 14.76 154.939 14.54 157.359ZM25.975 148.699H26.955V162.699H25.975V148.699ZM30.6659 152.779V162.699H29.6859V152.779H30.6659ZM29.4059 149.599C29.4059 150.639 30.9859 150.639 30.9859 149.599C30.9859 148.559 29.4059 148.559 29.4059 149.599ZM49.095 162.699H48.115V156.779C48.115 154.879 46.835 153.539 44.955 153.539C43.075 153.539 41.775 154.939 41.775 156.839V162.699H40.795V156.839C40.795 154.939 39.495 153.559 37.615 153.559C35.735 153.559 34.455 154.939 34.455 156.839V162.699H33.475V152.819H34.395L34.415 154.459C35.095 153.159 36.355 152.619 37.635 152.619C39.135 152.619 40.715 153.299 41.295 155.059C41.895 153.439 43.435 152.619 44.955 152.619C47.375 152.619 49.095 154.319 49.095 156.779V162.699ZM52.8339 152.779V162.699H51.8539V152.779H52.8339ZM51.5739 149.599C51.5739 150.639 53.1539 150.639 53.1539 149.599C53.1539 148.559 51.5739 148.559 51.5739 149.599ZM55.643 152.819H56.603V154.579C57.363 153.219 58.743 152.659 60.123 152.639C62.763 152.639 64.583 154.259 64.583 156.999V162.699H63.603V157.019C63.603 154.779 62.223 153.579 60.083 153.599C58.043 153.619 56.623 155.159 56.623 157.199V162.699H55.643V152.819ZM75.6669 152.819H76.6469C76.6469 156.119 76.6469 159.399 76.6469 162.699H75.6669V160.599C74.7069 162.139 73.2269 162.859 71.6269 162.859C68.8669 162.859 66.6069 160.779 66.6069 157.759C66.6069 154.739 68.8669 152.699 71.6269 152.699C73.2269 152.699 74.8469 153.439 75.6669 154.979V152.819ZM71.6269 153.639C69.3869 153.639 67.5869 155.279 67.5869 157.759C67.5869 160.239 69.3869 161.899 71.6269 161.899C77.1269 161.899 77.1269 153.639 71.6269 153.639ZM80.1852 149.939L81.1452 149.839V152.819H84.5052V153.639H81.1452V159.659C81.1452 160.999 81.4252 161.939 82.9652 161.939C83.4452 161.939 83.9852 161.779 84.4852 161.539L84.8252 162.339C84.2052 162.639 83.5852 162.839 82.9652 162.839C80.8652 162.839 80.1852 161.599 80.1852 159.659V153.639H78.0852V152.819H80.1852V149.939ZM91.2163 162.839C88.4363 162.839 86.1963 160.899 86.1963 157.759C86.1963 154.799 88.4363 152.659 91.2163 152.659C93.9963 152.659 96.4763 154.359 96.0963 158.219H87.1963C87.3963 160.539 89.1763 161.879 91.2163 161.879C92.5163 161.879 94.0363 161.359 94.7763 160.379L95.4763 160.939C94.5163 162.199 92.7963 162.839 91.2163 162.839ZM87.1963 157.359H95.2163C95.1963 154.919 93.5963 153.559 91.2163 153.559C89.1763 153.559 87.4163 154.939 87.1963 157.359ZM106.011 153.979L105.411 154.619C104.411 153.739 103.431 153.579 102.331 153.579C100.791 153.559 99.3113 154.139 99.3513 155.399C99.3913 156.719 101.111 156.979 102.351 157.199C104.111 157.499 106.531 157.799 106.431 160.099C106.371 162.279 104.111 162.859 102.371 162.859C100.631 162.859 98.9113 162.199 98.0513 160.879L98.7713 160.239C99.5913 161.419 101.071 161.919 102.391 161.919C103.591 161.919 105.411 161.599 105.471 160.039C105.511 158.619 103.871 158.339 102.251 158.079C100.331 157.759 98.4313 157.399 98.4113 155.419C98.3913 153.479 100.331 152.639 102.331 152.659C103.771 152.659 105.031 153.059 106.011 153.979ZM115.42 149.939L116.38 149.839V152.819H119.74V153.639H116.38V159.659C116.38 160.999 116.66 161.939 118.2 161.939C118.68 161.939 119.22 161.779 119.72 161.539L120.06 162.339C119.44 162.639 118.82 162.839 118.2 162.839C116.1 162.839 115.42 161.599 115.42 159.659V153.639H113.32V152.819H115.42V149.939ZM121.991 148.699H122.931V154.659C123.731 153.239 125.111 152.699 126.491 152.679C129.251 152.679 130.631 154.459 130.631 157.039V162.699H129.671V157.039C129.671 154.999 128.711 153.619 126.491 153.619C124.411 153.619 122.971 155.219 122.971 157.279V162.699H121.991V148.699ZM137.642 162.839C134.862 162.839 132.622 160.899 132.622 157.759C132.622 154.799 134.862 152.659 137.642 152.659C140.422 152.659 142.902 154.359 142.522 158.219H133.622C133.822 160.539 135.602 161.879 137.642 161.879C138.942 161.879 140.462 161.359 141.202 160.379L141.902 160.939C140.942 162.199 139.222 162.839 137.642 162.839ZM133.622 157.359H141.642C141.622 154.919 140.022 153.559 137.642 153.559C135.602 153.559 133.842 154.939 133.622 157.359ZM150.565 152.819H151.525V154.579C152.285 153.219 153.665 152.659 155.045 152.639C157.685 152.639 159.505 154.259 159.505 156.999V162.699H158.525V157.019C158.525 154.779 157.145 153.579 155.005 153.599C152.965 153.619 151.545 155.159 151.545 157.199V162.699H150.565V152.819ZM166.529 162.839C163.749 162.839 161.509 160.899 161.509 157.759C161.509 154.799 163.749 152.659 166.529 152.659C169.309 152.659 171.789 154.359 171.409 158.219H162.509C162.709 160.539 164.489 161.879 166.529 161.879C167.829 161.879 169.349 161.359 170.089 160.379L170.789 160.939C169.829 162.199 168.109 162.839 166.529 162.839ZM162.509 157.359H170.529C170.509 154.919 168.909 153.559 166.529 153.559C164.489 153.559 162.729 154.939 162.509 157.359ZM178.404 162.839C175.624 162.839 173.384 160.899 173.384 157.759C173.384 154.799 175.624 152.659 178.404 152.659C181.184 152.659 183.664 154.359 183.284 158.219H174.384C174.584 160.539 176.364 161.879 178.404 161.879C179.704 161.879 181.224 161.359 181.964 160.379L182.664 160.939C181.704 162.199 179.984 162.839 178.404 162.839ZM174.384 157.359H182.404C182.384 154.919 180.784 153.559 178.404 153.559C176.364 153.559 174.604 154.939 174.384 157.359ZM190.279 153.599C188.059 153.599 186.239 154.979 186.239 157.759C186.239 160.499 188.059 161.899 190.279 161.899C192.599 161.899 194.319 160.199 194.319 157.739C194.319 155.279 192.559 153.599 190.279 153.599ZM194.339 148.699H195.299V162.699H194.339V160.519C193.519 162.019 191.899 162.859 190.219 162.859C187.459 162.859 185.279 161.039 185.279 157.759C185.279 154.499 187.479 152.659 190.239 152.659C191.939 152.659 193.539 153.379 194.339 154.979V148.699ZM205.611 162.699H204.651V153.759H202.631V152.899H204.651V152.019C204.651 150.059 205.431 148.639 207.611 148.639C208.351 148.639 209.011 148.899 209.571 149.319L209.091 150.039C208.551 149.719 208.171 149.539 207.571 149.539C206.331 149.539 205.611 150.299 205.611 152.019V152.899H208.871V153.759H205.611V162.699ZM214.91 162.839C212.13 162.839 209.89 160.919 209.89 157.779C209.89 154.639 212.13 152.639 214.91 152.639C217.69 152.639 219.93 154.639 219.93 157.779C219.93 160.919 217.69 162.839 214.91 162.839ZM214.91 161.879C217.15 161.879 218.97 160.339 218.97 157.779C218.97 155.219 217.15 153.559 214.91 153.559C212.67 153.559 210.85 155.219 210.85 157.779C210.85 160.339 212.67 161.879 214.91 161.879ZM222.186 152.819H223.106L223.146 154.579C223.766 153.239 225.166 152.719 226.426 152.719C227.166 152.699 227.886 152.899 228.546 153.299L228.106 154.099C227.586 153.779 227.006 153.639 226.426 153.639C224.586 153.659 223.166 155.139 223.166 156.939V162.699H222.186V152.819ZM14.1 174.699H15.04V180.659C15.84 179.239 17.22 178.699 18.6 178.679C21.36 178.679 22.74 180.459 22.74 183.039V188.699H21.78V183.039C21.78 180.999 20.82 179.619 18.6 179.619C16.52 179.619 15.08 181.219 15.08 183.279V188.699H14.1V174.699ZM33.8114 178.819H34.7914C34.7914 182.119 34.7914 185.399 34.7914 188.699H33.8114V186.599C32.8514 188.139 31.3714 188.859 29.7714 188.859C27.0114 188.859 24.7514 186.779 24.7514 183.759C24.7514 180.739 27.0114 178.699 29.7714 178.699C31.3714 178.699 32.9914 179.439 33.8114 180.979V178.819ZM29.7714 179.639C27.5314 179.639 25.7314 181.279 25.7314 183.759C25.7314 186.239 27.5314 187.899 29.7714 187.899C35.2714 187.899 35.2714 179.639 29.7714 179.639ZM37.4594 178.819H38.3794L38.4194 180.579C39.0394 179.239 40.4394 178.719 41.6994 178.719C42.4394 178.699 43.1594 178.899 43.8194 179.299L43.3794 180.099C42.8594 179.779 42.2794 179.639 41.6994 179.639C39.8594 179.659 38.4394 181.139 38.4394 182.939V188.699H37.4594V178.819ZM49.7514 179.599C47.5314 179.599 45.7114 180.979 45.7114 183.759C45.7114 186.499 47.5314 187.899 49.7514 187.899C52.0714 187.899 53.7914 186.199 53.7914 183.739C53.7914 181.279 52.0314 179.599 49.7514 179.599ZM53.8114 174.699H54.7714V188.699H53.8114V186.519C52.9914 188.019 51.3714 188.859 49.6914 188.859C46.9314 188.859 44.7514 187.039 44.7514 183.759C44.7514 180.499 46.9514 178.659 49.7114 178.659C51.4114 178.659 53.0114 179.379 53.8114 180.979V174.699ZM70.8664 178.819L67.3664 188.699H66.2864L64.6864 184.379L63.4864 180.539L62.2464 184.399L60.6464 188.699H59.5664L56.0464 178.819H57.1264L60.1064 187.559L63.1264 178.819H63.8264L66.8264 187.559L69.7864 178.819H70.8664ZM80.9794 178.819H81.9594C81.9594 182.119 81.9594 185.399 81.9594 188.699H80.9794V186.599C80.0194 188.139 78.5394 188.859 76.9394 188.859C74.1794 188.859 71.9194 186.779 71.9194 183.759C71.9194 180.739 74.1794 178.699 76.9394 178.699C78.5394 178.699 80.1594 179.439 80.9794 180.979V178.819ZM76.9394 179.639C74.6994 179.639 72.8994 181.279 72.8994 183.759C72.8994 186.239 74.6994 187.899 76.9394 187.899C82.4394 187.899 82.4394 179.639 76.9394 179.639ZM84.6273 178.819H85.5473L85.5873 180.579C86.2073 179.239 87.6073 178.719 88.8673 178.719C89.6073 178.699 90.3273 178.899 90.9873 179.299L90.5473 180.099C90.0273 179.779 89.4473 179.639 88.8673 179.639C87.0273 179.659 85.6073 181.139 85.6073 182.939V188.699H84.6273V178.819ZM96.9194 188.839C94.1394 188.839 91.8994 186.899 91.8994 183.759C91.8994 180.799 94.1394 178.659 96.9194 178.659C99.6994 178.659 102.179 180.359 101.799 184.219H92.8994C93.0994 186.539 94.8794 187.879 96.9194 187.879C98.2194 187.879 99.7394 187.359 100.479 186.379L101.179 186.939C100.219 188.199 98.4994 188.839 96.9194 188.839ZM92.8994 183.359H100.919C100.899 180.919 99.2994 179.559 96.9194 179.559C94.8794 179.559 93.1194 180.939 92.8994 183.359ZM104.134 188.099C104.134 187.059 105.714 187.059 105.714 188.099C105.714 188.219 105.694 188.319 105.654 188.439L104.854 190.479H103.994L104.614 188.819C104.354 188.719 104.134 188.479 104.134 188.099ZM118.367 188.839C115.587 188.839 113.347 186.919 113.347 183.779C113.347 180.639 115.587 178.639 118.367 178.639C121.147 178.639 123.387 180.639 123.387 183.779C123.387 186.919 121.147 188.839 118.367 188.839ZM118.367 187.879C120.607 187.879 122.427 186.339 122.427 183.779C122.427 181.219 120.607 179.559 118.367 179.559C116.127 179.559 114.307 181.219 114.307 183.779C114.307 186.339 116.127 187.879 118.367 187.879ZM127.623 188.699H126.663V179.759H124.643V178.899H126.663V178.019C126.663 176.059 127.443 174.639 129.623 174.639C130.363 174.639 131.023 174.899 131.583 175.319L131.103 176.039C130.563 175.719 130.183 175.539 129.583 175.539C128.343 175.539 127.623 176.299 127.623 178.019V178.899H130.883V179.759H127.623V188.699ZM135.162 188.699H134.202V179.759H132.182V178.899H134.202V178.019C134.202 176.059 134.982 174.639 137.162 174.639C137.902 174.639 138.562 174.899 139.122 175.319L138.642 176.039C138.102 175.719 137.722 175.539 137.122 175.539C135.882 175.539 135.162 176.299 135.162 178.019V178.899H138.422V179.759H135.162V188.699ZM145.181 188.839C142.401 188.839 140.161 186.899 140.161 183.759C140.161 180.799 142.401 178.659 145.181 178.659C147.961 178.659 150.441 180.359 150.061 184.219H141.161C141.361 186.539 143.141 187.879 145.181 187.879C146.481 187.879 148.001 187.359 148.741 186.379L149.441 186.939C148.481 188.199 146.761 188.839 145.181 188.839ZM141.161 183.359H149.181C149.161 180.919 147.561 179.559 145.181 179.559C143.141 179.559 141.381 180.939 141.161 183.359ZM152.596 178.819H153.516L153.556 180.579C154.176 179.239 155.576 178.719 156.836 178.719C157.576 178.699 158.296 178.899 158.956 179.299L158.516 180.099C157.996 179.779 157.416 179.639 156.836 179.639C154.996 179.659 153.576 181.139 153.576 182.939V188.699H152.596V178.819ZM161.408 178.779V188.699H160.428V178.779H161.408ZM160.148 175.599C160.148 176.639 161.728 176.639 161.728 175.599C161.728 174.559 160.148 174.559 160.148 175.599ZM164.217 178.819H165.177V180.579C165.937 179.219 167.317 178.659 168.697 178.639C171.337 178.639 173.157 180.259 173.157 182.999V188.699H172.177V183.019C172.177 180.779 170.797 179.579 168.657 179.599C166.617 179.619 165.197 181.159 165.197 183.199V188.699H164.217V178.819ZM182.701 179.539L183.661 178.419L184.301 178.979L183.341 180.099C184.041 180.859 184.561 181.859 184.561 183.459C184.561 185.179 183.541 186.919 181.901 187.659C183.641 188.279 184.601 189.499 184.601 191.199C184.601 193.859 182.521 195.139 179.901 195.139C177.281 195.139 175.221 193.699 175.221 191.199H176.201C176.201 193.219 177.921 194.179 179.901 194.179C181.881 194.179 183.641 193.299 183.641 191.199C183.641 189.079 181.741 188.239 179.901 188.239C177.041 188.239 175.261 186.099 175.261 183.459C175.261 180.379 177.341 178.639 179.901 178.639C180.901 178.639 181.941 178.999 182.701 179.539ZM179.901 179.619C177.881 179.619 176.241 180.879 176.241 183.459C176.241 185.499 177.641 187.259 179.901 187.259C181.941 187.259 183.601 185.499 183.601 183.459C183.601 180.959 181.941 179.619 179.901 179.619ZM200.608 178.819H201.588C201.588 182.119 201.588 185.399 201.588 188.699H200.608V186.599C199.648 188.139 198.168 188.859 196.568 188.859C193.808 188.859 191.548 186.779 191.548 183.759C191.548 180.739 193.808 178.699 196.568 178.699C198.168 178.699 199.788 179.439 200.608 180.979V178.819ZM196.568 179.639C194.328 179.639 192.528 181.279 192.528 183.759C192.528 186.239 194.328 187.899 196.568 187.899C202.068 187.899 202.068 179.639 196.568 179.639ZM204.256 178.819H205.216V180.579C205.976 179.219 207.356 178.659 208.736 178.639C211.376 178.639 213.196 180.259 213.196 182.999V188.699H212.216V183.019C212.216 180.779 210.836 179.579 208.696 179.599C206.656 179.619 205.236 181.159 205.236 183.199V188.699H204.256V178.819ZM225.728 188.839C222.948 188.839 220.708 186.899 220.708 183.759C220.708 180.799 222.948 178.659 225.728 178.659C228.508 178.659 230.988 180.359 230.608 184.219H221.708C221.908 186.539 223.688 187.879 225.728 187.879C227.028 187.879 228.548 187.359 229.288 186.379L229.988 186.939C229.028 188.199 227.308 188.839 225.728 188.839ZM221.708 183.359H229.728C229.708 180.919 228.108 179.559 225.728 179.559C223.688 179.559 221.928 180.939 221.708 183.359ZM240.583 186.659L241.243 187.319C240.243 188.319 238.943 188.799 237.643 188.799C234.863 188.799 232.563 186.879 232.563 183.759C232.563 180.639 234.783 178.719 237.643 178.719C238.943 178.719 240.243 179.219 241.243 180.199L240.603 180.819C239.803 180.019 238.703 179.639 237.643 179.639C235.403 179.639 233.523 181.099 233.523 183.759C233.523 186.419 235.403 187.879 237.643 187.879C238.703 187.879 239.783 187.459 240.583 186.659ZM247.996 188.839C245.216 188.839 242.976 186.919 242.976 183.779C242.976 180.639 245.216 178.639 247.996 178.639C250.776 178.639 253.016 180.639 253.016 183.779C253.016 186.919 250.776 188.839 247.996 188.839ZM247.996 187.879C250.236 187.879 252.056 186.339 252.056 183.779C252.056 181.219 250.236 179.559 247.996 179.559C245.756 179.559 243.936 181.219 243.936 183.779C243.936 186.339 245.756 187.879 247.996 187.879ZM255.332 182.919V181.879H262.332V182.919H255.332ZM16.08 214.699H15.12V205.759H13.1V204.899H15.12V204.019C15.12 202.059 15.9 200.639 18.08 200.639C18.82 200.639 19.48 200.899 20.04 201.319L19.56 202.039C19.02 201.719 18.64 201.539 18.04 201.539C16.8 201.539 16.08 202.299 16.08 204.019V204.899H19.34V205.759H16.08V214.699ZM21.4438 204.819H22.3638L22.4038 206.579C23.0238 205.239 24.4238 204.719 25.6838 204.719C26.4238 204.699 27.1438 204.899 27.8038 205.299L27.3638 206.099C26.8438 205.779 26.2638 205.639 25.6838 205.639C23.8438 205.659 22.4238 207.139 22.4238 208.939V214.699H21.4438V204.819ZM30.2558 204.779V214.699H29.2758V204.779H30.2558ZM28.9958 201.599C28.9958 202.639 30.5758 202.639 30.5758 201.599C30.5758 200.559 28.9958 200.559 28.9958 201.599ZM37.5248 214.839C34.7448 214.839 32.5048 212.899 32.5048 209.759C32.5048 206.799 34.7448 204.659 37.5248 204.659C40.3048 204.659 42.7848 206.359 42.4048 210.219H33.5048C33.7048 212.539 35.4848 213.879 37.5248 213.879C38.8248 213.879 40.3448 213.359 41.0848 212.379L41.7848 212.939C40.8248 214.199 39.1048 214.839 37.5248 214.839ZM33.5048 209.359H41.5248C41.5048 206.919 39.9048 205.559 37.5248 205.559C35.4848 205.559 33.7248 206.939 33.5048 209.359ZM44.9398 204.819H45.8998V206.579C46.6598 205.219 48.0398 204.659 49.4198 204.639C52.0598 204.639 53.8798 206.259 53.8798 208.999V214.699H52.8998V209.019C52.8998 206.779 51.5198 205.579 49.3798 205.599C47.3398 205.619 45.9198 207.159 45.9198 209.199V214.699H44.9398V204.819ZM60.9038 205.599C58.6838 205.599 56.8638 206.979 56.8638 209.759C56.8638 212.499 58.6838 213.899 60.9038 213.899C63.2238 213.899 64.9438 212.199 64.9438 209.739C64.9438 207.279 63.1838 205.599 60.9038 205.599ZM64.9638 200.699H65.9238V214.699H64.9638V212.519C64.1438 214.019 62.5238 214.859 60.8438 214.859C58.0838 214.859 55.9038 213.039 55.9038 209.759C55.9038 206.499 58.1038 204.659 60.8638 204.659C62.5638 204.659 64.1638 205.379 64.9638 206.979V200.699ZM68.7484 200.699H69.7284V214.699H68.7484V200.699ZM80.0347 204.819H81.0947L75.0747 218.819H74.0347L75.8547 214.579L71.8947 204.819H72.9547L75.2547 210.659L76.4147 213.519L77.5547 210.639L80.0347 204.819ZM97.0145 204.819H97.9945C97.9945 208.119 97.9945 211.399 97.9945 214.699H97.0145V212.599C96.0545 214.139 94.5745 214.859 92.9745 214.859C90.2145 214.859 87.9545 212.779 87.9545 209.759C87.9545 206.739 90.2145 204.699 92.9745 204.699C94.5745 204.699 96.1945 205.439 97.0145 206.979V204.819ZM92.9745 205.639C90.7345 205.639 88.9345 207.279 88.9345 209.759C88.9345 212.239 90.7345 213.899 92.9745 213.899C98.4745 213.899 98.4745 205.639 92.9745 205.639ZM100.663 200.699H101.643V214.699H100.663V200.699ZM105.673 201.939L106.633 201.839V204.819H109.993V205.639H106.633V211.659C106.633 212.999 106.913 213.939 108.453 213.939C108.933 213.939 109.473 213.779 109.973 213.539L110.313 214.339C109.693 214.639 109.073 214.839 108.453 214.839C106.353 214.839 105.673 213.599 105.673 211.659V205.639H103.573V204.819H105.673V201.939ZM116.705 214.839C113.925 214.839 111.685 212.899 111.685 209.759C111.685 206.799 113.925 204.659 116.705 204.659C119.485 204.659 121.965 206.359 121.585 210.219H112.685C112.885 212.539 114.665 213.879 116.705 213.879C118.005 213.879 119.525 213.359 120.265 212.379L120.965 212.939C120.005 214.199 118.285 214.839 116.705 214.839ZM112.685 209.359H120.705C120.685 206.919 119.085 205.559 116.705 205.559C114.665 205.559 112.905 206.939 112.685 209.359ZM124.12 204.819H125.04L125.08 206.579C125.7 205.239 127.1 204.719 128.36 204.719C129.1 204.699 129.82 204.899 130.48 205.299L130.04 206.099C129.52 205.779 128.94 205.639 128.36 205.639C126.52 205.659 125.1 207.139 125.1 208.939V214.699H124.12V204.819ZM131.952 204.819H132.912V206.579C133.672 205.219 135.052 204.659 136.432 204.639C139.072 204.639 140.892 206.259 140.892 208.999V214.699H139.912V209.019C139.912 206.779 138.532 205.579 136.392 205.599C134.352 205.619 132.932 207.159 132.932 209.199V214.699H131.952V204.819ZM151.975 204.819H152.955C152.955 208.119 152.955 211.399 152.955 214.699H151.975V212.599C151.015 214.139 149.535 214.859 147.935 214.859C145.175 214.859 142.915 212.779 142.915 209.759C142.915 206.739 145.175 204.699 147.935 204.699C149.535 204.699 151.155 205.439 151.975 206.979V204.819ZM147.935 205.639C145.695 205.639 143.895 207.279 143.895 209.759C143.895 212.239 145.695 213.899 147.935 213.899C153.435 213.899 153.435 205.639 147.935 205.639ZM156.494 201.939L157.454 201.839V204.819H160.814V205.639H157.454V211.659C157.454 212.999 157.734 213.939 159.274 213.939C159.754 213.939 160.294 213.779 160.794 213.539L161.134 214.339C160.514 214.639 159.894 214.839 159.274 214.839C157.174 214.839 156.494 213.599 156.494 211.659V205.639H154.394V204.819H156.494V201.939ZM164.045 204.779V214.699H163.065V204.779H164.045ZM162.785 201.599C162.785 202.639 164.365 202.639 164.365 201.599C164.365 200.559 162.785 200.559 162.785 201.599ZM170.054 214.699L165.914 204.819H166.994L170.594 213.559L174.194 204.819H175.274L171.134 214.699H170.054ZM181.353 214.839C178.573 214.839 176.333 212.899 176.333 209.759C176.333 206.799 178.573 204.659 181.353 204.659C184.133 204.659 186.613 206.359 186.233 210.219H177.333C177.533 212.539 179.313 213.879 181.353 213.879C182.653 213.879 184.173 213.359 184.913 212.379L185.613 212.939C184.653 214.199 182.933 214.839 181.353 214.839ZM177.333 209.359H185.353C185.333 206.919 183.733 205.559 181.353 205.559C179.313 205.559 177.553 206.939 177.333 209.359ZM195.576 201.939L196.536 201.839V204.819H199.896V205.639H196.536V211.659C196.536 212.999 196.816 213.939 198.356 213.939C198.836 213.939 199.376 213.779 199.876 213.539L200.216 214.339C199.596 214.639 198.976 214.839 198.356 214.839C196.256 214.839 195.576 213.599 195.576 211.659V205.639H193.476V204.819H195.576V201.939ZM206.707 214.839C203.927 214.839 201.687 212.919 201.687 209.779C201.687 206.639 203.927 204.639 206.707 204.639C209.487 204.639 211.727 206.639 211.727 209.779C211.727 212.919 209.487 214.839 206.707 214.839ZM206.707 213.879C208.947 213.879 210.767 212.339 210.767 209.779C210.767 207.219 208.947 205.559 206.707 205.559C204.467 205.559 202.647 207.219 202.647 209.779C202.647 212.339 204.467 213.879 206.707 213.879ZM18.56 240.839C15.78 240.839 13.54 238.899 13.54 235.759C13.54 232.799 15.78 230.659 18.56 230.659C21.34 230.659 23.82 232.359 23.44 236.219H14.54C14.74 238.539 16.52 239.879 18.56 239.879C19.86 239.879 21.38 239.359 22.12 238.379L22.82 238.939C21.86 240.199 20.14 240.839 18.56 240.839ZM14.54 235.359H22.56C22.54 232.919 20.94 231.559 18.56 231.559C16.52 231.559 14.76 232.939 14.54 235.359ZM25.975 230.819H26.935V232.579C27.695 231.219 29.075 230.659 30.455 230.639C33.095 230.639 34.915 232.259 34.915 234.999V240.699H33.935V235.019C33.935 232.779 32.555 231.579 30.415 231.599C28.375 231.619 26.955 233.159 26.955 235.199V240.699H25.975V230.819ZM41.9389 240.839C39.1589 240.839 36.9189 238.899 36.9189 235.759C36.9189 232.799 39.1589 230.659 41.9389 230.659C44.7189 230.659 47.1989 232.359 46.8189 236.219H37.9189C38.1189 238.539 39.8989 239.879 41.9389 239.879C43.2389 239.879 44.7589 239.359 45.4989 238.379L46.1989 238.939C45.2389 240.199 43.5189 240.839 41.9389 240.839ZM37.9189 235.359H45.9389C45.9189 232.919 44.3189 231.559 41.9389 231.559C39.8989 231.559 38.1389 232.939 37.9189 235.359ZM49.3539 230.819H50.2739L50.3139 232.579C50.9339 231.239 52.3339 230.719 53.5939 230.719C54.3339 230.699 55.0539 230.899 55.7139 231.299L55.2739 232.099C54.7539 231.779 54.1739 231.639 53.5939 231.639C51.7539 231.659 50.3339 233.139 50.3339 234.939V240.699H49.3539V230.819ZM64.1659 231.539L65.1259 230.419L65.7659 230.979L64.8059 232.099C65.5059 232.859 66.0259 233.859 66.0259 235.459C66.0259 237.179 65.0059 238.919 63.3659 239.659C65.1059 240.279 66.0659 241.499 66.0659 243.199C66.0659 245.859 63.9859 247.139 61.3659 247.139C58.7459 247.139 56.6859 245.699 56.6859 243.199H57.6659C57.6659 245.219 59.3859 246.179 61.3659 246.179C63.3459 246.179 65.1059 245.299 65.1059 243.199C65.1059 241.079 63.2059 240.239 61.3659 240.239C58.5059 240.239 56.7259 238.099 56.7259 235.459C56.7259 232.379 58.8059 230.639 61.3659 230.639C62.3659 230.639 63.4059 230.999 64.1659 231.539ZM61.3659 231.619C59.3459 231.619 57.7059 232.879 57.7059 235.459C57.7059 237.499 59.1059 239.259 61.3659 239.259C63.4059 239.259 65.0659 237.499 65.0659 235.459C65.0659 232.959 63.4059 231.619 61.3659 231.619ZM75.6206 230.819H76.6806L70.6606 244.819H69.6206L71.4406 240.579L67.4806 230.819H68.5406L70.8406 236.659L72.0006 239.519L73.1406 236.639L75.6206 230.819ZM78.6327 234.919V233.879H85.6327V234.919H78.6327ZM89.1034 230.779V240.699H88.1234V230.779H89.1034ZM87.8434 227.599C87.8434 228.639 89.4234 228.639 89.4234 227.599C89.4234 226.559 87.8434 226.559 87.8434 227.599ZM91.9125 230.819H92.8725V232.579C93.6325 231.219 95.0125 230.659 96.3925 230.639C99.0325 230.639 100.853 232.259 100.853 234.999V240.699H99.8725V235.019C99.8725 232.779 98.4925 231.579 96.3525 231.599C94.3125 231.619 92.8925 233.159 92.8925 235.199V240.699H91.9125V230.819ZM104.287 227.939L105.247 227.839V230.819H108.607V231.639H105.247V237.659C105.247 238.999 105.527 239.939 107.067 239.939C107.547 239.939 108.087 239.779 108.587 239.539L108.927 240.339C108.307 240.639 107.687 240.839 107.067 240.839C104.967 240.839 104.287 239.599 104.287 237.659V231.639H102.187V230.819H104.287V227.939ZM115.318 240.839C112.538 240.839 110.298 238.899 110.298 235.759C110.298 232.799 112.538 230.659 115.318 230.659C118.098 230.659 120.578 232.359 120.198 236.219H111.298C111.498 238.539 113.278 239.879 115.318 239.879C116.618 239.879 118.138 239.359 118.878 238.379L119.578 238.939C118.618 240.199 116.898 240.839 115.318 240.839ZM111.298 235.359H119.318C119.298 232.919 117.698 231.559 115.318 231.559C113.278 231.559 111.518 232.939 111.298 235.359ZM122.733 230.819H123.693V232.579C124.453 231.219 125.833 230.659 127.213 230.639C129.853 230.639 131.673 232.259 131.673 234.999V240.699H130.693V235.019C130.693 232.779 129.313 231.579 127.173 231.599C125.133 231.619 123.713 233.159 123.713 235.199V240.699H122.733V230.819ZM141.617 231.979L141.017 232.619C140.017 231.739 139.037 231.579 137.937 231.579C136.397 231.559 134.917 232.139 134.957 233.399C134.997 234.719 136.717 234.979 137.957 235.199C139.717 235.499 142.137 235.799 142.037 238.099C141.977 240.279 139.717 240.859 137.977 240.859C136.237 240.859 134.517 240.199 133.657 238.879L134.377 238.239C135.197 239.419 136.677 239.919 137.997 239.919C139.197 239.919 141.017 239.599 141.077 238.039C141.117 236.619 139.477 236.339 137.857 236.079C135.937 235.759 134.037 235.399 134.017 233.419C133.997 231.479 135.937 230.639 137.937 230.659C139.377 230.659 140.637 231.059 141.617 231.979ZM145.197 230.779V240.699H144.217V230.779H145.197ZM143.937 227.599C143.937 228.639 145.517 228.639 145.517 227.599C145.517 226.559 143.937 226.559 143.937 227.599ZM151.206 240.699L147.066 230.819H148.146L151.746 239.559L155.346 230.819H156.426L152.286 240.699H151.206ZM162.505 240.839C159.725 240.839 157.485 238.899 157.485 235.759C157.485 232.799 159.725 230.659 162.505 230.659C165.285 230.659 167.765 232.359 167.385 236.219H158.485C158.685 238.539 160.465 239.879 162.505 239.879C163.805 239.879 165.325 239.359 166.065 238.379L166.765 238.939C165.805 240.199 164.085 240.839 162.505 240.839ZM158.485 235.359H166.505C166.485 232.919 164.885 231.559 162.505 231.559C160.465 231.559 158.705 232.939 158.485 235.359ZM176.728 227.939L177.688 227.839V230.819H181.048V231.639H177.688V237.659C177.688 238.999 177.968 239.939 179.508 239.939C179.988 239.939 180.528 239.779 181.028 239.539L181.368 240.339C180.748 240.639 180.128 240.839 179.508 240.839C177.408 240.839 176.728 239.599 176.728 237.659V231.639H174.628V230.819H176.728V227.939ZM183.299 230.819H184.219L184.259 232.579C184.879 231.239 186.279 230.719 187.539 230.719C188.279 230.699 188.999 230.899 189.659 231.299L189.219 232.099C188.699 231.779 188.119 231.639 187.539 231.639C185.699 231.659 184.279 233.139 184.279 234.939V240.699H183.299V230.819ZM199.651 230.819H200.631C200.631 234.119 200.631 237.399 200.631 240.699H199.651V238.599C198.691 240.139 197.211 240.859 195.611 240.859C192.851 240.859 190.591 238.779 190.591 235.759C190.591 232.739 192.851 230.699 195.611 230.699C197.211 230.699 198.831 231.439 199.651 232.979V230.819ZM195.611 231.639C193.371 231.639 191.571 233.279 191.571 235.759C191.571 238.239 193.371 239.899 195.611 239.899C201.111 239.899 201.111 231.639 195.611 231.639ZM207.759 231.599C205.539 231.599 203.719 232.979 203.719 235.759C203.719 238.499 205.539 239.899 207.759 239.899C210.079 239.899 211.799 238.199 211.799 235.739C211.799 233.279 210.039 231.599 207.759 231.599ZM211.819 226.699H212.779V240.699H211.819V238.519C210.999 240.019 209.379 240.859 207.699 240.859C204.939 240.859 202.759 239.039 202.759 235.759C202.759 232.499 204.959 230.659 207.719 230.659C209.419 230.659 211.019 231.379 211.819 232.979V226.699ZM216.584 230.779V240.699H215.604V230.779H216.584ZM215.324 227.599C215.324 228.639 216.904 228.639 216.904 227.599C216.904 226.559 215.324 226.559 215.324 227.599ZM220.693 227.939L221.653 227.839V230.819H225.013V231.639H221.653V237.659C221.653 238.999 221.933 239.939 223.473 239.939C223.953 239.939 224.493 239.779 224.993 239.539L225.333 240.339C224.713 240.639 224.093 240.839 223.473 240.839C221.373 240.839 220.693 239.599 220.693 237.659V231.639H218.593V230.819H220.693V227.939ZM228.244 230.779V240.699H227.264V230.779H228.244ZM226.984 227.599C226.984 228.639 228.564 228.639 228.564 227.599C228.564 226.559 226.984 226.559 226.984 227.599ZM235.828 240.839C233.048 240.839 230.808 238.919 230.808 235.779C230.808 232.639 233.048 230.639 235.828 230.639C238.608 230.639 240.848 232.639 240.848 235.779C240.848 238.919 238.608 240.839 235.828 240.839ZM235.828 239.879C238.068 239.879 239.888 238.339 239.888 235.779C239.888 233.219 238.068 231.559 235.828 231.559C233.588 231.559 231.768 233.219 231.768 235.779C231.768 238.339 233.588 239.879 235.828 239.879ZM243.104 230.819H244.064V232.579C244.824 231.219 246.204 230.659 247.584 230.639C250.224 230.639 252.044 232.259 252.044 234.999V240.699H251.064V235.019C251.064 232.779 249.684 231.579 247.544 231.599C245.504 231.619 244.084 233.159 244.084 235.199V240.699H243.104V230.819ZM263.128 230.819H264.108C264.108 234.119 264.108 237.399 264.108 240.699H263.128V238.599C262.168 240.139 260.688 240.859 259.088 240.859C256.328 240.859 254.068 238.779 254.068 235.759C254.068 232.739 256.328 230.699 259.088 230.699C260.688 230.699 262.308 231.439 263.128 232.979V230.819ZM259.088 231.639C256.848 231.639 255.048 233.279 255.048 235.759C255.048 238.239 256.848 239.899 259.088 239.899C264.588 239.899 264.588 231.639 259.088 231.639ZM266.776 226.699H267.756V240.699H266.776V226.699ZM19.12 265.939C21.36 265.939 23.16 264.539 23.16 261.759C23.16 258.979 21.36 257.619 19.12 257.619C16.82 257.619 15.12 259.359 15.12 261.779C15.12 264.199 16.86 265.939 19.12 265.939ZM15.04 270.819H14.1V256.819H15.06V259.159C15.84 257.659 17.42 256.679 19.34 256.679C22.02 256.779 24.14 258.579 24.14 261.759C24.14 265.079 21.9 266.879 19.12 266.879C17.44 266.879 15.88 266.059 15.04 264.419V270.819ZM26.5414 252.699H27.4814V258.659C28.2814 257.239 29.6614 256.699 31.0414 256.679C33.8014 256.679 35.1814 258.459 35.1814 261.039V266.699H34.2214V261.039C34.2214 258.999 33.2614 257.619 31.0414 257.619C28.9614 257.619 27.5214 259.219 27.5214 261.279V266.699H26.5414V252.699ZM42.2928 266.839C39.5128 266.839 37.2728 264.919 37.2728 261.779C37.2728 258.639 39.5128 256.639 42.2928 256.639C45.0728 256.639 47.3128 258.639 47.3128 261.779C47.3128 264.919 45.0728 266.839 42.2928 266.839ZM42.2928 265.879C44.5328 265.879 46.3528 264.339 46.3528 261.779C46.3528 259.219 44.5328 257.559 42.2928 257.559C40.0528 257.559 38.2328 259.219 38.2328 261.779C38.2328 264.339 40.0528 265.879 42.2928 265.879ZM49.5688 256.819H50.5288V258.579C51.2888 257.219 52.6688 256.659 54.0488 256.639C56.6888 256.639 58.5088 258.259 58.5088 260.999V266.699H57.5288V261.019C57.5288 258.779 56.1488 257.579 54.0088 257.599C51.9688 257.619 50.5488 259.159 50.5488 261.199V266.699H49.5688V256.819ZM65.5327 266.839C62.7527 266.839 60.5127 264.899 60.5127 261.759C60.5127 258.799 62.7527 256.659 65.5327 256.659C68.3127 256.659 70.7927 258.359 70.4127 262.219H61.5127C61.7127 264.539 63.4927 265.879 65.5327 265.879C66.8327 265.879 68.3527 265.359 69.0927 264.379L69.7927 264.939C68.8327 266.199 67.1127 266.839 65.5327 266.839ZM61.5127 261.359H69.5327C69.5127 258.919 67.9127 257.559 65.5327 257.559C63.4927 257.559 61.7327 258.939 61.5127 261.359ZM85.8355 257.979L85.2355 258.619C84.2355 257.739 83.2555 257.579 82.1555 257.579C80.6155 257.559 79.1355 258.139 79.1755 259.399C79.2155 260.719 80.9355 260.979 82.1755 261.199C83.9355 261.499 86.3555 261.799 86.2555 264.099C86.1955 266.279 83.9355 266.859 82.1955 266.859C80.4555 266.859 78.7355 266.199 77.8755 264.879L78.5955 264.239C79.4155 265.419 80.8955 265.919 82.2155 265.919C83.4155 265.919 85.2355 265.599 85.2955 264.039C85.3355 262.619 83.6955 262.339 82.0755 262.079C80.1555 261.759 78.2555 261.399 78.2355 259.419C78.2155 257.479 80.1555 256.639 82.1555 256.659C83.5955 256.659 84.8555 257.059 85.8355 257.979ZM95.8159 256.819H96.8759L90.8559 270.819H89.8159L91.6359 266.579L87.6759 256.819H88.7359L91.0359 262.659L92.1959 265.519L93.3359 262.639L95.8159 256.819ZM106.148 257.979L105.548 258.619C104.548 257.739 103.568 257.579 102.468 257.579C100.928 257.559 99.448 258.139 99.488 259.399C99.528 260.719 101.248 260.979 102.488 261.199C104.248 261.499 106.668 261.799 106.568 264.099C106.508 266.279 104.248 266.859 102.508 266.859C100.768 266.859 99.048 266.199 98.188 264.879L98.908 264.239C99.728 265.419 101.208 265.919 102.528 265.919C103.728 265.919 105.548 265.599 105.608 264.039C105.648 262.619 104.008 262.339 102.388 262.079C100.468 261.759 98.568 261.399 98.548 259.419C98.528 257.479 100.468 256.639 102.468 256.659C103.908 256.659 105.168 257.059 106.148 257.979ZM110.048 253.939L111.008 253.839V256.819H114.368V257.639H111.008V263.659C111.008 264.999 111.288 265.939 112.828 265.939C113.308 265.939 113.848 265.779 114.348 265.539L114.688 266.339C114.068 266.639 113.448 266.839 112.828 266.839C110.728 266.839 110.048 265.599 110.048 263.659V257.639H107.948V256.819H110.048V253.939ZM121.08 266.839C118.3 266.839 116.06 264.899 116.06 261.759C116.06 258.799 118.3 256.659 121.08 256.659C123.86 256.659 126.34 258.359 125.96 262.219H117.06C117.26 264.539 119.04 265.879 121.08 265.879C122.38 265.879 123.9 265.359 124.64 264.379L125.34 264.939C124.38 266.199 122.66 266.839 121.08 266.839ZM117.06 261.359H125.08C125.06 258.919 123.46 257.559 121.08 257.559C119.04 257.559 117.28 258.939 117.06 261.359ZM143.919 266.699H142.939V260.779C142.939 258.879 141.659 257.539 139.779 257.539C137.899 257.539 136.599 258.939 136.599 260.839V266.699H135.619V260.839C135.619 258.939 134.319 257.559 132.439 257.559C130.559 257.559 129.279 258.939 129.279 260.839V266.699H128.299V256.819H129.219L129.239 258.459C129.919 257.159 131.179 256.619 132.459 256.619C133.959 256.619 135.539 257.299 136.119 259.059C136.719 257.439 138.259 256.619 139.779 256.619C142.199 256.619 143.919 258.319 143.919 260.779V266.699ZM154.058 257.979L153.458 258.619C152.458 257.739 151.478 257.579 150.378 257.579C148.838 257.559 147.358 258.139 147.398 259.399C147.438 260.719 149.158 260.979 150.398 261.199C152.158 261.499 154.578 261.799 154.478 264.099C154.418 266.279 152.158 266.859 150.418 266.859C148.678 266.859 146.958 266.199 146.098 264.879L146.818 264.239C147.638 265.419 149.118 265.919 150.438 265.919C151.638 265.919 153.458 265.599 153.518 264.039C153.558 262.619 151.918 262.339 150.298 262.079C148.378 261.759 146.478 261.399 146.458 259.419C146.438 257.479 148.378 256.639 150.378 256.659C151.818 256.659 153.078 257.059 154.058 257.979ZM156.279 266.099C156.279 265.059 157.859 265.059 157.859 266.099C157.859 267.139 156.279 267.139 156.279 266.099Z" fill="#1E1E1E"/>
<defs>
<clipPath id="clip0_2742_759">
<rect width="29.9747" height="29.9747" fill="white" transform="translate(22.7418 35.4836)"/>
</clipPath>
</defs>
</svg>
