<svg width="395" height="96" viewBox="0 0 395 96" fill="none" xmlns="http://www.w3.org/2000/svg">
<rect width="395" height="96" rx="20" fill="white"/>
<rect x="29" y="15" width="65" height="66" rx="32.5" fill="#FFC727"/>
<path d="M134.752 42.28L131.392 44.008C130.624 42.728 128.512 41.512 126.08 41.512C122.944 41.512 121.44 42.824 121.44 44.488C121.44 46.44 123.744 46.984 126.432 47.304C131.104 47.88 135.456 49.096 135.456 54.44C135.456 59.432 131.04 61.576 126.048 61.576C121.472 61.576 117.952 60.168 116.288 56.072L119.808 54.248C120.8 56.712 123.392 57.8 126.112 57.8C128.768 57.8 131.264 56.872 131.264 54.44C131.264 52.328 129.056 51.464 126.08 51.144C121.504 50.6 117.28 49.384 117.28 44.36C117.28 39.752 121.824 37.864 125.952 37.832C129.44 37.832 133.056 38.824 134.752 42.28ZM151.852 47.4L151.98 45.224H155.724V61H152.044L151.852 58.696C150.956 60.552 148.492 61.448 146.732 61.48C142.06 61.512 138.604 58.632 138.604 53.096C138.604 47.656 142.22 44.808 146.828 44.84C148.94 44.84 150.956 45.832 151.852 47.4ZM147.18 48.328C144.588 48.328 142.508 50.088 142.508 53.096C142.508 56.104 144.588 57.896 147.18 57.896C153.324 57.896 153.324 48.328 147.18 48.328ZM164.214 61H160.31V48.872H157.366V45.448H160.31V44.392C160.31 40.168 163.158 38.216 166.326 38.216C167.702 38.216 169.142 38.664 170.422 39.496L168.982 42.408C168.15 41.864 167.382 41.576 166.582 41.576C165.238 41.576 164.214 42.472 164.214 44.392V45.448H168.854V48.872H164.214V61ZM187.584 54.504H175.264C175.52 56.456 177.216 57.864 179.968 57.864C181.408 57.864 183.296 57.32 184.192 56.392L186.688 58.856C185.024 60.584 182.304 61.416 179.904 61.416C174.464 61.416 171.232 58.056 171.232 53C171.232 48.2 174.496 44.744 179.616 44.744C184.896 44.744 188.192 48.008 187.584 54.504ZM175.328 51.272H183.84C183.584 49.224 181.984 48.2 179.744 48.2C177.632 48.2 175.904 49.224 175.328 51.272ZM191.505 41.192L195.409 40.776V45.256H199.761V48.616H195.377V55.432C195.377 56.936 196.209 57.672 197.425 57.672C198.033 57.672 198.737 57.48 199.313 57.192L200.401 60.52C199.281 60.968 198.353 61.16 197.169 61.192C193.745 61.32 191.505 59.368 191.505 55.432V48.616H188.561V45.256H191.505V41.192ZM214.614 45.224H218.934L209.302 67.592H205.014L207.958 60.744L201.654 45.224H206.198L208.598 52.04L210.102 56.488L211.734 52.136L214.614 45.224Z" fill="#1C204E"/>
<g clip-path="url(#clip0_2462_783)">
<path d="M61.4978 71.1882L61.4124 71.1268C61.2189 70.9875 60.7654 70.7655 60.094 70.4429C60.0436 70.4187 59.992 70.3939 59.9394 70.3687C59.2992 70.0613 58.4961 69.6756 57.5861 69.2048C55.6164 68.1856 53.1428 66.7656 50.72 64.8662C45.8749 61.0678 41.2184 55.3396 41.2184 47.0551V33.7017V33.5932L41.3215 33.5593L61.4531 26.9327L61.5 26.9173L61.5469 26.9327L76.9417 32.0054L77.0447 32.0394V32.1479V47.0551C77.0447 55.0964 71.8112 61.6438 61.5648 66.5488L61.5 66.5798L61.4352 66.5488C51.1888 61.6438 45.9553 55.0964 45.9553 47.0551V36.4486V36.3397L46.0588 36.306L61.4536 31.2935L61.5002 31.2783L61.5468 31.2936L72.9622 35.0428C73.2222 35.1273 73.512 35.1212 73.7663 35.026C74.0204 34.931 74.2119 34.7577 74.307 34.5516C74.3998 34.3467 74.3933 34.1205 74.2881 33.9189C74.182 33.7156 73.9808 33.5489 73.7214 33.4632L61.8797 29.5636C61.8797 29.5636 61.8796 29.5636 61.8796 29.5636C61.6356 29.4839 61.3644 29.4839 61.1204 29.5636C61.1204 29.5636 61.1203 29.5636 61.1203 29.5636L44.5417 35.0272L44.5413 35.0273C44.3435 35.0919 44.1773 35.2043 44.0619 35.3463C43.9469 35.4877 43.8875 35.6519 43.8868 35.8173V47.0551C43.8868 55.8651 49.6061 62.9719 60.9952 68.3027L60.9975 68.3038C61.1562 68.3814 61.3378 68.4229 61.5237 68.4229C61.7096 68.4229 61.8912 68.3814 62.0499 68.3038L62.0525 68.3026C73.3933 63.0222 79.1132 55.8655 79.1132 47.0551L79.1132 31.4567L79.1132 31.4561M61.4978 71.1882L78.5053 30.5238C78.7278 30.5965 78.9193 30.7244 79.0545 30.8908C79.1897 31.0571 79.2625 31.2542 79.2632 31.4561H79.1132M61.4978 71.1882L61.5846 71.1289C61.787 70.9906 62.2478 70.7687 62.9227 70.4459L62.969 70.4238C63.6301 70.1077 64.4753 69.7035 65.4391 69.2033C67.4117 68.1795 69.8834 66.7523 72.3025 64.8472C77.14 61.0375 81.7816 55.3045 81.7816 47.0551V33.02C81.7816 32.8028 81.8833 32.5882 82.0753 32.4256C82.2681 32.2625 82.5342 32.1675 82.8158 32.1675C83.0974 32.1675 83.3635 32.2625 83.5562 32.4256C83.7482 32.5882 83.85 32.8028 83.85 33.02V47.0551C83.85 57.5885 76.924 66.0988 63.1907 72.322L63.1836 72.3252L63.1768 72.3292C62.6805 72.6198 62.1031 72.7994 61.4994 72.8495C60.895 72.8047 60.317 72.6248 59.8244 72.3299L59.8171 72.3255L59.8093 72.322C46.076 66.0988 39.15 57.5885 39.15 47.0551V33.0203C39.1506 32.8549 39.2101 32.6907 39.3251 32.5493C39.4405 32.4073 39.6067 32.2949 39.8045 32.2303L39.8048 32.2302L61.1203 25.2128C61.1203 25.2127 61.1203 25.2127 61.1203 25.2127C61.3644 25.133 61.6356 25.133 61.8797 25.2127L61.8794 25.2127L61.9263 25.0702L61.8797 25.2128M61.4978 71.1882L61.8797 25.2128M79.1132 31.4561C79.1125 31.2909 79.053 31.1268 78.9381 30.9854C78.8227 30.8434 78.6565 30.731 78.4587 30.6664L78.4584 30.6663L61.8797 25.2128M79.1132 31.4561L61.8797 25.2128" fill="#1E1E1E" stroke="#FFD500" stroke-width="0.3"/>
<path d="M69.9693 43.3801L69.9697 43.3798C70.065 43.2984 70.1797 43.2328 70.3076 43.1877C70.4356 43.1426 70.5734 43.1191 70.7132 43.1191C70.8529 43.1191 70.9907 43.1426 71.1187 43.1877C71.2466 43.2328 71.3613 43.2984 71.4566 43.3798L71.4567 43.3799C71.6473 43.5422 71.7483 43.756 71.7483 43.9724C71.7483 44.1888 71.6474 44.4025 71.4569 44.5649C71.4568 44.5649 71.4567 44.565 71.4567 44.565L59.7333 54.4895L59.7329 54.4899C59.6376 54.5712 59.5229 54.6369 59.395 54.682C59.2671 54.7271 59.1292 54.7505 58.9895 54.7505C58.8498 54.7505 58.7119 54.7271 58.5839 54.682C58.456 54.6369 58.3413 54.5712 58.2461 54.4899L58.2456 54.4895L52.5377 49.6574L52.5372 49.6571C52.4412 49.5764 52.3665 49.4817 52.3162 49.3795C52.2659 49.2773 52.2405 49.1689 52.2405 49.0601C52.2405 48.9514 52.2659 48.843 52.3162 48.7408C52.3665 48.6385 52.4412 48.5439 52.5372 48.4632L52.5374 48.4631C52.73 48.301 52.9951 48.2068 53.2757 48.2068C53.5561 48.2068 53.8212 48.301 54.0138 48.463C54.0138 48.463 54.0139 48.4631 54.0139 48.4631L58.8926 52.5932L58.9895 52.6752L59.0864 52.5932L69.9693 43.3801ZM59.4449 54.8234C59.5892 54.7726 59.7202 54.698 59.8303 54.604L54.1105 48.3484C53.8886 48.1617 53.5885 48.0568 53.2757 48.0568C52.9628 48.0568 52.6627 48.1617 52.4408 48.3484C52.3298 48.4416 52.2417 48.5524 52.1816 48.6746C52.1215 48.7968 52.0905 48.9278 52.0905 49.0601C52.0905 49.1925 52.1215 49.3235 52.1816 49.4457C52.2417 49.5679 52.3298 49.6787 52.4408 49.7719L58.1487 54.604C58.2588 54.698 58.3897 54.7726 58.5341 54.8234C58.6784 54.8743 58.8331 54.9005 58.9895 54.9005C59.1458 54.9005 59.3006 54.8743 59.4449 54.8234Z" fill="#1E1E1E" stroke="#FFD500" stroke-width="0.3"/>
</g>
<defs>
<clipPath id="clip0_2462_783">
<rect width="45" height="48" fill="white" transform="translate(39 25)"/>
</clipPath>
</defs>
</svg>
