<svg width="296" height="306" viewBox="0 0 296 306" fill="none" xmlns="http://www.w3.org/2000/svg">
<rect width="296" height="306" rx="14.9873" fill="white"/>
<rect x="13" y="11" width="48.7089" height="49.4582" rx="24.3544" fill="#FFC727"/>
<g clip-path="url(#clip0_2742_794)">
<path d="M36.8591 52.5968L36.7951 52.5507C36.6501 52.4464 36.3102 52.28 35.8072 52.0383C35.7693 52.0201 35.7307 52.0015 35.6912 51.9826C35.2115 51.7522 34.6097 51.4633 33.9278 51.1105C32.4518 50.3467 30.5982 49.2826 28.7825 47.8592C25.1518 45.0128 21.6624 40.7204 21.6624 34.5122V24.5057V24.4243L21.7397 24.3989L36.8256 19.4332L36.8608 19.4216L36.8959 19.4332L48.4322 23.2345L48.5095 23.2599V23.3412V34.5122C48.5095 40.5381 44.5876 45.4445 36.9093 49.1202L36.8608 49.1434L36.8122 49.1202C29.1339 45.4445 25.212 40.5381 25.212 34.5122V26.5641V26.4824L25.2896 26.4572L36.826 22.701L36.8609 22.6896L36.8958 22.701L45.4501 25.5106C45.645 25.5739 45.8622 25.5693 46.0527 25.498C46.2431 25.4268 46.3865 25.297 46.4579 25.1426C46.5274 24.9891 46.5226 24.8195 46.4437 24.6684C46.3642 24.516 46.2135 24.3911 46.0191 24.3269L37.1453 21.4047C36.9625 21.345 36.7593 21.3449 36.5765 21.4046C36.5764 21.4046 36.5763 21.4047 36.5762 21.4047L24.1528 25.4989L24.1525 25.499C24.0043 25.5474 23.8797 25.6316 23.7932 25.738C23.7071 25.844 23.6625 25.9671 23.662 26.091V34.5122C23.662 41.1141 27.9479 46.4397 36.4825 50.4345L36.4842 50.4353C36.6031 50.4934 36.7392 50.5245 36.8785 50.5245C37.0178 50.5245 37.1539 50.4934 37.2729 50.4353L37.2748 50.4344C45.7732 46.4775 50.0595 41.1145 50.0595 34.5122L50.0595 22.8233L50.0595 22.8229M36.8591 52.5968L49.6039 22.1242C49.7707 22.1787 49.9142 22.2745 50.0155 22.3992C50.1169 22.5239 50.1714 22.6715 50.1719 22.8229H50.0595M36.8591 52.5968L36.9242 52.5523C37.0758 52.4487 37.4212 52.2824 37.9269 52.0405L37.9619 52.0238C38.4573 51.7869 39.0906 51.4841 39.8126 51.1093C41.2908 50.3422 43.143 49.2726 44.9558 47.845C48.5809 44.9902 52.0591 40.694 52.0591 34.5122V23.9948C52.0591 23.832 52.1354 23.6712 52.2792 23.5494C52.4237 23.4271 52.6231 23.356 52.8341 23.356C53.0451 23.356 53.2445 23.4271 53.389 23.5494C53.5329 23.6712 53.6091 23.832 53.6091 23.9948V34.5122C53.6091 42.4056 48.419 48.7829 38.1277 53.4464L38.1275 53.4458L38.1173 53.4518C37.7454 53.6696 37.3127 53.8041 36.8602 53.8417C36.4073 53.8081 35.9742 53.6733 35.6051 53.4523L35.6055 53.4517L35.5938 53.4464C25.3025 48.7829 20.1124 42.4056 20.1124 34.5122V23.995C20.1129 23.8711 20.1574 23.748 20.2436 23.642C20.3301 23.5357 20.4546 23.4514 20.6028 23.403L20.6031 23.4029L36.5762 18.1443L36.8591 52.5968ZM50.0595 22.8229C50.059 22.699 50.0144 22.576 49.9283 22.4701C49.8418 22.3637 49.7173 22.2795 49.569 22.2311L49.5688 22.231L37.1453 18.1443M50.0595 22.8229L37.1453 18.1443M37.1453 18.1443C36.9625 18.0846 36.7593 18.0845 36.5764 18.1442L37.1453 18.1443ZM37.1453 18.1443L37.1802 18.0374L37.1451 18.1442L37.1453 18.1443Z" fill="#1E1E1E" stroke="#FFD500" stroke-width="0.22481"/>
<path d="M43.2073 31.7582L43.2077 31.7579C43.2791 31.697 43.365 31.6478 43.4609 31.614C43.5568 31.5802 43.6601 31.5626 43.7648 31.5626C43.8695 31.5626 43.9728 31.5802 44.0687 31.614C44.1645 31.6478 44.2505 31.697 44.3219 31.7579L44.322 31.758C44.4648 31.8797 44.5405 32.0398 44.5405 32.202C44.5405 32.3642 44.4648 32.5244 44.322 32.646C44.322 32.6461 44.322 32.6461 44.322 32.6461L35.5369 40.0832L35.5365 40.0835C35.4651 40.1444 35.3792 40.1936 35.2833 40.2274L35.3207 40.3334L35.2833 40.2274C35.1875 40.2612 35.0841 40.2788 34.9794 40.2788C34.8747 40.2788 34.7714 40.2612 34.6755 40.2274L34.6382 40.3334L34.6755 40.2274C34.5797 40.1936 34.4937 40.1444 34.4223 40.0835L34.422 40.0832L30.1447 36.4622L30.1443 36.4619C30.0723 36.4014 30.0164 36.3305 29.9787 36.2539C29.941 36.1773 29.922 36.0961 29.922 36.0146C29.922 35.9332 29.941 35.8519 29.9787 35.7753C30.0164 35.6987 30.0723 35.6278 30.1443 35.5673L30.1444 35.5672C30.2888 35.4458 30.4875 35.3752 30.6977 35.3752C30.9078 35.3752 31.1065 35.4457 31.2508 35.5671C31.2508 35.5672 31.2509 35.5672 31.2509 35.5672L34.9068 38.6621L34.9794 38.7236L35.0521 38.6621L43.2073 31.7582Z" fill="#1E1E1E" stroke="#FFD500" stroke-width="0.22481"/>
</g>
<path d="M90.0045 28.9544L87.8013 30.0874C87.2978 29.2481 85.9129 28.4508 84.3183 28.4508C82.262 28.4508 81.2758 29.3111 81.2758 30.4021C81.2758 31.6821 82.7866 32.0388 84.5491 32.2486C87.6125 32.6263 90.4661 33.4236 90.4661 36.9276C90.4661 40.2009 87.5705 41.6067 84.2973 41.6067C81.2968 41.6067 78.9888 40.6835 77.8977 37.9977L80.2058 36.8017C80.8562 38.4174 82.5558 39.1308 84.3393 39.1308C86.0808 39.1308 87.7174 38.5223 87.7174 36.9276C87.7174 35.5428 86.2696 34.9763 84.3183 34.7665C81.3178 34.4098 78.5482 33.6124 78.5482 30.3182C78.5482 27.2968 81.5276 26.0588 84.2344 26.0378C86.5214 26.0378 88.8924 26.6883 90.0045 28.9544ZM101.217 32.3115L101.3 30.8847H103.755V41.229H101.342L101.217 39.7183C100.629 40.9353 99.0134 41.5228 97.8594 41.5437C94.796 41.5647 92.5299 39.6763 92.5299 36.0464C92.5299 32.4794 94.9009 30.612 97.9223 30.633C99.3072 30.633 100.629 31.2834 101.217 32.3115ZM98.1531 32.92C96.4536 32.92 95.0897 34.074 95.0897 36.0464C95.0897 38.0187 96.4536 39.1937 98.1531 39.1937C102.182 39.1937 102.182 32.92 98.1531 32.92ZM109.323 41.229H106.763V33.2767H104.832V31.0316H106.763V30.3392C106.763 27.5695 108.63 26.2896 110.707 26.2896C111.61 26.2896 112.554 26.5834 113.393 27.1289L112.449 29.0383C111.903 28.6816 111.4 28.4928 110.875 28.4928C109.994 28.4928 109.323 29.0803 109.323 30.3392V31.0316H112.365V33.2767H109.323V41.229ZM124.646 36.9696H116.568C116.736 38.2495 117.848 39.1727 119.653 39.1727C120.597 39.1727 121.835 38.816 122.422 38.2076L124.059 39.8232C122.968 40.9562 121.184 41.5018 119.611 41.5018C116.044 41.5018 113.924 39.2986 113.924 35.9834C113.924 32.8361 116.065 30.57 119.422 30.57C122.884 30.57 125.045 32.7102 124.646 36.9696ZM116.61 34.8504H122.191C122.024 33.5075 120.974 32.8361 119.506 32.8361C118.121 32.8361 116.988 33.5075 116.61 34.8504ZM127.217 28.241L129.777 27.9682V30.9057H132.631V33.1089H129.756V37.5781C129.756 38.5643 130.302 39.0468 131.099 39.0468C131.498 39.0468 131.959 38.921 132.337 38.7321L133.05 40.9143C132.316 41.208 131.707 41.3339 130.931 41.3549C128.686 41.4388 127.217 40.1589 127.217 37.5781V33.1089H125.287V30.9057H127.217V28.241ZM142.37 30.8847H145.202L138.887 45.5514H136.075L138.005 41.0611L133.872 30.8847H136.851L138.425 35.354L139.411 38.2705L140.481 35.4169L142.37 30.8847Z" fill="#1C204E"/>
<path d="M20.74 80.2383C25.46 80.2383 27.82 83.6983 27.8 87.4783C27.78 91.1583 25.44 94.6983 20.74 94.6983C16.04 94.6983 13.68 91.1383 13.68 87.4383C13.68 83.6783 16.02 80.2383 20.74 80.2383ZM20.74 81.2383C16.72 81.2383 14.72 84.1583 14.74 87.4583C14.76 90.6183 16.76 93.6983 20.74 93.6983C24.74 93.6983 26.76 90.6183 26.76 87.4583C26.76 84.2183 24.76 81.2383 20.74 81.2383ZM39.0942 94.4583H38.1342V92.6783C37.3742 94.0383 35.9942 94.5983 34.6142 94.6183C31.9742 94.6183 30.1542 92.9983 30.1542 90.2583V84.5583H31.1342V90.2383C31.1342 92.4783 32.5142 93.6783 34.6542 93.6583C36.6942 93.6383 38.1142 92.0983 38.1142 90.0583V84.5583H39.0942V94.4583ZM41.6781 84.5783H42.5981L42.6381 86.3383C43.2581 84.9983 44.6581 84.4783 45.9181 84.4783C46.6581 84.4583 47.3781 84.6583 48.0381 85.0583L47.5981 85.8583C47.0781 85.5383 46.4981 85.3983 45.9181 85.3983C44.0781 85.4183 42.6581 86.8983 42.6581 88.6983V94.4583H41.6781V84.5783ZM61.338 81.4583H56.278V88.6383H61.338C65.998 88.6383 65.998 81.4583 61.338 81.4583ZM61.338 89.6183H56.278V94.4583H55.198V80.4583C57.238 80.4583 59.298 80.4583 61.338 80.4583C67.418 80.4583 67.418 89.6183 61.338 89.6183ZM69.3839 87.8183V93.4183H74.0439C75.8039 93.4183 78.0639 92.9983 78.0639 90.7783C78.0439 88.5983 76.0639 87.8183 74.1839 87.8183C72.5039 87.8183 71.0639 87.8183 69.3839 87.8183ZM69.3839 81.3783V86.7983H74.1839C75.8639 86.7983 77.6239 86.2783 77.6239 84.2783C77.6239 82.2383 75.7839 81.3783 74.0439 81.3783H69.3839ZM74.0439 80.4583C76.4039 80.4583 78.6439 81.6183 78.6439 84.2783C78.6439 85.7183 77.7639 86.8383 76.3639 87.2783C78.1239 87.7583 79.1239 89.1783 79.1239 90.7983C79.1239 93.6783 76.4439 94.4583 74.0439 94.4583C72.0039 94.4583 70.3439 94.4583 68.3039 94.4583V80.4583C70.3239 80.4583 72.0039 80.4583 74.0439 80.4583ZM86.8219 86.4583L91.0819 80.4783H92.2419V80.4983L87.4819 87.2783L92.6219 94.4383V94.4583H91.3419L86.8219 88.0583L82.3019 94.4583H81.0219V94.4383L86.1619 87.2783L81.4019 80.4983V80.4783H82.5819L86.8219 86.4583ZM107.339 85.7383L106.739 86.3783C105.739 85.4983 104.759 85.3383 103.659 85.3383C102.119 85.3183 100.639 85.8983 100.679 87.1583C100.719 88.4783 102.439 88.7383 103.679 88.9583C105.439 89.2583 107.859 89.5583 107.759 91.8583C107.699 94.0383 105.439 94.6183 103.699 94.6183C101.959 94.6183 100.239 93.9583 99.3794 92.6383L100.099 91.9983C100.919 93.1783 102.399 93.6783 103.719 93.6783C104.919 93.6783 106.739 93.3583 106.799 91.7983C106.839 90.3783 105.199 90.0983 103.579 89.8383C101.659 89.5183 99.7594 89.1583 99.7394 87.1783C99.7194 85.2383 101.659 84.3983 103.659 84.4183C105.099 84.4183 106.359 84.8183 107.339 85.7383ZM117.32 84.5783H118.38L112.36 98.5783H111.32L113.14 94.3383L109.18 84.5783H110.24L112.54 90.4183L113.7 93.2783L114.84 90.3983L117.32 84.5783ZM127.652 85.7383L127.052 86.3783C126.052 85.4983 125.072 85.3383 123.972 85.3383C122.432 85.3183 120.952 85.8983 120.992 87.1583C121.032 88.4783 122.752 88.7383 123.992 88.9583C125.752 89.2583 128.172 89.5583 128.072 91.8583C128.012 94.0383 125.752 94.6183 124.012 94.6183C122.272 94.6183 120.552 93.9583 119.692 92.6383L120.412 91.9983C121.232 93.1783 122.712 93.6783 124.032 93.6783C125.232 93.6783 127.052 93.3583 127.112 91.7983C127.152 90.3783 125.512 90.0983 123.892 89.8383C121.972 89.5183 120.072 89.1583 120.052 87.1783C120.032 85.2383 121.972 84.3983 123.972 84.4183C125.412 84.4183 126.672 84.8183 127.652 85.7383ZM131.552 81.6983L132.512 81.5983V84.5783H135.872V85.3983H132.512V91.4183C132.512 92.7583 132.792 93.6983 134.332 93.6983C134.812 93.6983 135.352 93.5383 135.852 93.2983L136.192 94.0983C135.572 94.3983 134.952 94.5983 134.332 94.5983C132.232 94.5983 131.552 93.3583 131.552 91.4183V85.3983H129.452V84.5783H131.552V81.6983ZM142.583 94.5983C139.803 94.5983 137.563 92.6583 137.563 89.5183C137.563 86.5583 139.803 84.4183 142.583 84.4183C145.363 84.4183 147.843 86.1183 147.463 89.9783H138.563C138.763 92.2983 140.543 93.6383 142.583 93.6383C143.883 93.6383 145.403 93.1183 146.143 92.1383L146.843 92.6983C145.883 93.9583 144.163 94.5983 142.583 94.5983ZM138.563 89.1183H146.583C146.563 86.6783 144.963 85.3183 142.583 85.3183C140.543 85.3183 138.783 86.6983 138.563 89.1183ZM165.423 94.4583H164.443V88.5383C164.443 86.6383 163.163 85.2983 161.283 85.2983C159.403 85.2983 158.103 86.6983 158.103 88.5983V94.4583H157.123V88.5983C157.123 86.6983 155.823 85.3183 153.943 85.3183C152.063 85.3183 150.783 86.6983 150.783 88.5983V94.4583H149.803V84.5783H150.723L150.743 86.2183C151.423 84.9183 152.683 84.3783 153.963 84.3783C155.463 84.3783 157.043 85.0583 157.623 86.8183C158.223 85.1983 159.763 84.3783 161.283 84.3783C163.703 84.3783 165.423 86.0783 165.423 88.5383V94.4583ZM175.562 85.7383L174.962 86.3783C173.962 85.4983 172.982 85.3383 171.882 85.3383C170.342 85.3183 168.862 85.8983 168.902 87.1583C168.942 88.4783 170.662 88.7383 171.902 88.9583C173.662 89.2583 176.082 89.5583 175.982 91.8583C175.922 94.0383 173.662 94.6183 171.922 94.6183C170.182 94.6183 168.462 93.9583 167.602 92.6383L168.322 91.9983C169.142 93.1783 170.622 93.6783 171.942 93.6783C173.142 93.6783 174.962 93.3583 175.022 91.7983C175.062 90.3783 173.422 90.0983 171.802 89.8383C169.882 89.5183 167.982 89.1583 167.962 87.1783C167.942 85.2383 169.882 84.3983 171.882 84.4183C173.322 84.4183 174.582 84.8183 175.562 85.7383ZM192.19 84.5783H193.17C193.17 87.8783 193.17 91.1583 193.17 94.4583H192.19V92.3583C191.23 93.8983 189.75 94.6183 188.15 94.6183C185.39 94.6183 183.13 92.5383 183.13 89.5183C183.13 86.4983 185.39 84.4583 188.15 84.4583C189.75 84.4583 191.37 85.1983 192.19 86.7383V84.5783ZM188.15 85.3983C185.91 85.3983 184.11 87.0383 184.11 89.5183C184.11 91.9983 185.91 93.6583 188.15 93.6583C193.65 93.6583 193.65 85.3983 188.15 85.3983ZM195.838 84.5783H196.758L196.798 86.3383C197.418 84.9983 198.818 84.4783 200.078 84.4783C200.818 84.4583 201.538 84.6583 202.198 85.0583L201.758 85.8583C201.238 85.5383 200.658 85.3983 200.078 85.3983C198.238 85.4183 196.818 86.8983 196.818 88.6983V94.4583H195.838V84.5783ZM208.13 94.5983C205.35 94.5983 203.11 92.6583 203.11 89.5183C203.11 86.5583 205.35 84.4183 208.13 84.4183C210.91 84.4183 213.39 86.1183 213.01 89.9783H204.11C204.31 92.2983 206.09 93.6383 208.13 93.6383C209.43 93.6383 210.95 93.1183 211.69 92.1383L212.39 92.6983C211.43 93.9583 209.71 94.5983 208.13 94.5983ZM204.11 89.1183H212.13C212.11 86.6783 210.51 85.3183 208.13 85.3183C206.09 85.3183 204.33 86.6983 204.11 89.1183ZM229.973 94.4583H229.013V92.6783C228.253 94.0383 226.873 94.5983 225.493 94.6183C222.853 94.6183 221.033 92.9983 221.033 90.2583V84.5583H222.013V90.2383C222.013 92.4783 223.393 93.6783 225.533 93.6583C227.573 93.6383 228.993 92.0983 228.993 90.0583V84.5583H229.973V94.4583ZM239.937 85.7383L239.337 86.3783C238.337 85.4983 237.357 85.3383 236.257 85.3383C234.717 85.3183 233.237 85.8983 233.277 87.1583C233.317 88.4783 235.037 88.7383 236.277 88.9583C238.037 89.2583 240.457 89.5583 240.357 91.8583C240.297 94.0383 238.037 94.6183 236.297 94.6183C234.557 94.6183 232.837 93.9583 231.977 92.6383L232.697 91.9983C233.517 93.1783 234.997 93.6783 236.317 93.6783C237.517 93.6783 239.337 93.3583 239.397 91.7983C239.437 90.3783 237.797 90.0983 236.177 89.8383C234.257 89.5183 232.357 89.1583 232.337 87.1783C232.317 85.2383 234.257 84.3983 236.257 84.4183C237.697 84.4183 238.957 84.8183 239.937 85.7383ZM246.998 94.5983C244.218 94.5983 241.978 92.6583 241.978 89.5183C241.978 86.5583 244.218 84.4183 246.998 84.4183C249.778 84.4183 252.258 86.1183 251.878 89.9783H242.978C243.178 92.2983 244.958 93.6383 246.998 93.6383C248.298 93.6383 249.818 93.1183 250.558 92.1383L251.258 92.6983C250.298 93.9583 248.578 94.5983 246.998 94.5983ZM242.978 89.1183H250.998C250.978 86.6783 249.378 85.3183 246.998 85.3183C244.958 85.3183 243.198 86.6983 242.978 89.1183ZM254.413 84.5783H255.333L255.373 86.3383C255.993 84.9983 257.393 84.4783 258.653 84.4783C259.393 84.4583 260.113 84.6583 260.773 85.0583L260.333 85.8583C259.813 85.5383 259.233 85.3983 258.653 85.3983C256.813 85.4183 255.393 86.8983 255.393 88.6983V94.4583H254.413V84.5783ZM262.305 88.6783V87.6383H269.305V88.6783H262.305ZM16.08 120.458H15.12V111.518H13.1V110.658H15.12V109.778C15.12 107.818 15.9 106.398 18.08 106.398C18.82 106.398 19.48 106.658 20.04 107.078L19.56 107.798C19.02 107.478 18.64 107.298 18.04 107.298C16.8 107.298 16.08 108.058 16.08 109.778V110.658H19.34V111.518H16.08V120.458ZM21.4438 110.578H22.3638L22.4038 112.338C23.0238 110.998 24.4238 110.478 25.6838 110.478C26.4238 110.458 27.1438 110.658 27.8038 111.058L27.3638 111.858C26.8438 111.538 26.2638 111.398 25.6838 111.398C23.8438 111.418 22.4238 112.898 22.4238 114.698V120.458H21.4438V110.578ZM30.2558 110.538V120.458H29.2758V110.538H30.2558ZM28.9958 107.358C28.9958 108.398 30.5758 108.398 30.5758 107.358C30.5758 106.318 28.9958 106.318 28.9958 107.358ZM37.5248 120.598C34.7448 120.598 32.5048 118.658 32.5048 115.518C32.5048 112.558 34.7448 110.418 37.5248 110.418C40.3048 110.418 42.7848 112.118 42.4048 115.978H33.5048C33.7048 118.298 35.4848 119.638 37.5248 119.638C38.8248 119.638 40.3448 119.118 41.0848 118.138L41.7848 118.698C40.8248 119.958 39.1048 120.598 37.5248 120.598ZM33.5048 115.118H41.5248C41.5048 112.678 39.9048 111.318 37.5248 111.318C35.4848 111.318 33.7248 112.698 33.5048 115.118ZM44.9398 110.578H45.8998V112.338C46.6598 110.978 48.0398 110.418 49.4198 110.398C52.0598 110.398 53.8798 112.018 53.8798 114.758V120.458H52.8998V114.778C52.8998 112.538 51.5198 111.338 49.3798 111.358C47.3398 111.378 45.9198 112.918 45.9198 114.958V120.458H44.9398V110.578ZM60.9038 111.358C58.6838 111.358 56.8638 112.738 56.8638 115.518C56.8638 118.258 58.6838 119.658 60.9038 119.658C63.2238 119.658 64.9438 117.958 64.9438 115.498C64.9438 113.038 63.1838 111.358 60.9038 111.358ZM64.9638 106.458H65.9238V120.458H64.9638V118.278C64.1438 119.778 62.5238 120.618 60.8438 120.618C58.0838 120.618 55.9038 118.798 55.9038 115.518C55.9038 112.258 58.1038 110.418 60.8638 110.418C62.5638 110.418 64.1638 111.138 64.9638 112.738V106.458ZM68.7484 106.458H69.7284V120.458H68.7484V106.458ZM80.0347 110.578H81.0947L75.0747 124.578H74.0347L75.8547 120.338L71.8947 110.578H72.9547L75.2547 116.418L76.4147 119.278L77.5547 116.398L80.0347 110.578ZM97.0145 110.578H97.9945C97.9945 113.878 97.9945 117.158 97.9945 120.458H97.0145V118.358C96.0545 119.898 94.5745 120.618 92.9745 120.618C90.2145 120.618 87.9545 118.538 87.9545 115.518C87.9545 112.498 90.2145 110.458 92.9745 110.458C94.5745 110.458 96.1945 111.198 97.0145 112.738V110.578ZM92.9745 111.398C90.7345 111.398 88.9345 113.038 88.9345 115.518C88.9345 117.998 90.7345 119.658 92.9745 119.658C98.4745 119.658 98.4745 111.398 92.9745 111.398ZM100.663 110.578H101.623V112.338C102.383 110.978 103.763 110.418 105.143 110.398C107.783 110.398 109.603 112.018 109.603 114.758V120.458H108.623V114.778C108.623 112.538 107.243 111.338 105.103 111.358C103.063 111.378 101.643 112.918 101.643 114.958V120.458H100.663V110.578ZM116.626 111.358C114.406 111.358 112.586 112.738 112.586 115.518C112.586 118.258 114.406 119.658 116.626 119.658C118.946 119.658 120.666 117.958 120.666 115.498C120.666 113.038 118.906 111.358 116.626 111.358ZM120.686 106.458H121.646V120.458H120.686V118.278C119.866 119.778 118.246 120.618 116.566 120.618C113.806 120.618 111.626 118.798 111.626 115.518C111.626 112.258 113.826 110.418 116.586 110.418C118.286 110.418 119.886 111.138 120.686 112.738V106.458ZM131.959 120.458H130.999V111.518H128.979V110.658H130.999V109.778C130.999 107.818 131.779 106.398 133.959 106.398C134.699 106.398 135.359 106.658 135.919 107.078L135.439 107.798C134.899 107.478 134.519 107.298 133.919 107.298C132.679 107.298 131.959 108.058 131.959 109.778V110.658H135.219V111.518H131.959V120.458ZM146.008 120.458H145.048V118.678C144.288 120.038 142.908 120.598 141.528 120.618C138.888 120.618 137.068 118.998 137.068 116.258V110.558H138.048V116.238C138.048 118.478 139.428 119.678 141.568 119.658C143.608 119.638 145.028 118.098 145.028 116.058V110.558H146.008V120.458ZM148.592 106.458H149.572V120.458H148.592V106.458ZM152.303 106.458H153.283V120.458H152.303V106.458ZM163.589 110.578H164.649L158.629 124.578H157.589L159.409 120.338L155.449 110.578H156.509L158.809 116.418L159.969 119.278L161.109 116.398L163.589 110.578ZM183.329 120.458H182.249V114.098H173.329V120.458H172.249V106.458H173.329V113.118H182.249V106.458H183.329V120.458ZM187.489 120.458H186.429V106.458H187.489V120.458ZM196.709 107.458H191.649V114.638H196.709C201.369 114.638 201.369 107.458 196.709 107.458ZM196.709 115.618H191.649V120.458H190.569V106.458C192.609 106.458 194.669 106.458 196.709 106.458C202.789 106.458 202.789 115.618 196.709 115.618ZM215.955 120.458H214.795L213.255 117.018H204.895L203.375 120.458H202.215L208.495 106.458H209.675L215.955 120.458ZM205.315 116.018H212.835L209.075 107.498L205.315 116.018ZM229.842 120.458H228.682L227.142 117.018H218.782L217.262 120.458H216.102L222.382 106.458H223.562L229.842 120.458ZM219.202 116.018H226.722L222.962 107.498L219.202 116.018ZM21.54 144.418L22.2 145.078C21.2 146.078 19.9 146.558 18.6 146.558C15.82 146.558 13.52 144.638 13.52 141.518C13.52 138.398 15.74 136.478 18.6 136.478C19.9 136.478 21.2 136.978 22.2 137.958L21.56 138.578C20.76 137.778 19.66 137.398 18.6 137.398C16.36 137.398 14.48 138.858 14.48 141.518C14.48 144.178 16.36 145.638 18.6 145.638C19.66 145.638 20.74 145.218 21.54 144.418ZM28.953 146.598C26.173 146.598 23.933 144.678 23.933 141.538C23.933 138.398 26.173 136.398 28.953 136.398C31.733 136.398 33.973 138.398 33.973 141.538C33.973 144.678 31.733 146.598 28.953 146.598ZM28.953 145.638C31.193 145.638 33.013 144.098 33.013 141.538C33.013 138.978 31.193 137.318 28.953 137.318C26.713 137.318 24.893 138.978 24.893 141.538C24.893 144.098 26.713 145.638 28.953 145.638ZM51.8489 146.458H50.8689V140.538C50.8689 138.638 49.5889 137.298 47.7089 137.298C45.8289 137.298 44.5289 138.698 44.5289 140.598V146.458H43.5489V140.598C43.5489 138.698 42.2489 137.318 40.3689 137.318C38.4889 137.318 37.2089 138.698 37.2089 140.598V146.458H36.2289V136.578H37.1489L37.1689 138.218C37.8489 136.918 39.1089 136.378 40.3889 136.378C41.8889 136.378 43.4689 137.058 44.0489 138.818C44.6489 137.198 46.1889 136.378 47.7089 136.378C50.1289 136.378 51.8489 138.078 51.8489 140.538V146.458ZM59.4325 145.698C61.6725 145.698 63.4725 144.298 63.4725 141.518C63.4725 138.738 61.6725 137.378 59.4325 137.378C57.1325 137.378 55.4325 139.118 55.4325 141.538C55.4325 143.958 57.1725 145.698 59.4325 145.698ZM55.3525 150.578H54.4125V136.578H55.3725V138.918C56.1525 137.418 57.7325 136.438 59.6525 136.438C62.3325 136.538 64.4525 138.338 64.4525 141.518C64.4525 144.838 62.2125 146.638 59.4325 146.638C57.7525 146.638 56.1925 145.818 55.3525 144.178V150.578ZM66.8539 132.458H67.8339V146.458H66.8539V132.458ZM71.5448 136.538V146.458H70.5648V136.538H71.5448ZM70.2848 133.358C70.2848 134.398 71.8648 134.398 71.8648 133.358C71.8648 132.318 70.2848 132.318 70.2848 133.358ZM82.8739 136.578H83.8539C83.8539 139.878 83.8539 143.158 83.8539 146.458H82.8739V144.358C81.9139 145.898 80.4339 146.618 78.8339 146.618C76.0739 146.618 73.8139 144.538 73.8139 141.518C73.8139 138.498 76.0739 136.458 78.8339 136.458C80.4339 136.458 82.0539 137.198 82.8739 138.738V136.578ZM78.8339 137.398C76.5939 137.398 74.7939 139.038 74.7939 141.518C74.7939 143.998 76.5939 145.658 78.8339 145.658C84.3339 145.658 84.3339 137.398 78.8339 137.398ZM86.5219 136.578H87.4819V138.338C88.2419 136.978 89.6219 136.418 91.0019 136.398C93.6419 136.398 95.4619 138.018 95.4619 140.758V146.458H94.4819V140.778C94.4819 138.538 93.1019 137.338 90.9619 137.358C88.9219 137.378 87.5019 138.918 87.5019 140.958V146.458H86.5219V136.578ZM98.8961 133.698L99.8561 133.598V136.578H103.216V137.398H99.8561V143.418C99.8561 144.758 100.136 145.698 101.676 145.698C102.156 145.698 102.696 145.538 103.196 145.298L103.536 146.098C102.916 146.398 102.296 146.598 101.676 146.598C99.5761 146.598 98.8961 145.358 98.8961 143.418V137.398H96.7961V136.578H98.8961V133.698ZM105.267 145.858C105.267 144.818 106.847 144.818 106.847 145.858C106.847 145.978 106.827 146.078 106.787 146.198L105.987 148.238H105.127L105.747 146.578C105.487 146.478 105.267 146.238 105.267 145.858ZM119.96 145.698C122.2 145.698 124 144.298 124 141.518C124 138.738 122.2 137.378 119.96 137.378C117.66 137.378 115.96 139.118 115.96 141.538C115.96 143.958 117.7 145.698 119.96 145.698ZM115.88 150.578H114.94V136.578H115.9V138.918C116.68 137.418 118.26 136.438 120.18 136.438C122.86 136.538 124.98 138.338 124.98 141.518C124.98 144.838 122.74 146.638 119.96 146.638C118.28 146.638 116.72 145.818 115.88 144.178V150.578ZM127.381 136.578H128.301L128.341 138.338C128.961 136.998 130.361 136.478 131.621 136.478C132.361 136.458 133.081 136.658 133.741 137.058L133.301 137.858C132.781 137.538 132.201 137.398 131.621 137.398C129.781 137.418 128.361 138.898 128.361 140.698V146.458H127.381V136.578ZM136.193 136.538V146.458H135.213V136.538H136.193ZM134.933 133.358C134.933 134.398 136.513 134.398 136.513 133.358C136.513 132.318 134.933 132.318 134.933 133.358ZM143.777 146.598C140.997 146.598 138.757 144.678 138.757 141.538C138.757 138.398 140.997 136.398 143.777 136.398C146.557 136.398 148.797 138.398 148.797 141.538C148.797 144.678 146.557 146.598 143.777 146.598ZM143.777 145.638C146.017 145.638 147.837 144.098 147.837 141.538C147.837 138.978 146.017 137.318 143.777 137.318C141.537 137.318 139.717 138.978 139.717 141.538C139.717 144.098 141.537 145.638 143.777 145.638ZM151.053 136.578H151.973L152.013 138.338C152.633 136.998 154.033 136.478 155.293 136.478C156.033 136.458 156.753 136.658 157.413 137.058L156.973 137.858C156.453 137.538 155.873 137.398 155.293 137.398C153.453 137.418 152.033 138.898 152.033 140.698V146.458H151.053V136.578ZM159.865 136.538V146.458H158.885V136.538H159.865ZM158.605 133.358C158.605 134.398 160.185 134.398 160.185 133.358C160.185 132.318 158.605 132.318 158.605 133.358ZM163.974 133.698L164.934 133.598V136.578H168.294V137.398H164.934V143.418C164.934 144.758 165.214 145.698 166.754 145.698C167.234 145.698 167.774 145.538 168.274 145.298L168.614 146.098C167.994 146.398 167.374 146.598 166.754 146.598C164.654 146.598 163.974 145.358 163.974 143.418V137.398H161.874V136.578H163.974V133.698ZM171.525 136.538V146.458H170.545V136.538H171.525ZM170.265 133.358C170.265 134.398 171.845 134.398 171.845 133.358C171.845 132.318 170.265 132.318 170.265 133.358ZM174.034 137.458V136.578H181.474V136.958L175.234 145.538H181.474V146.458H173.714V146.118L180.014 137.458H174.034ZM184.494 136.538V146.458H183.514V136.538H184.494ZM183.234 133.358C183.234 134.398 184.814 134.398 184.814 133.358C184.814 132.318 183.234 132.318 183.234 133.358ZM187.303 136.578H188.263V138.338C189.023 136.978 190.403 136.418 191.783 136.398C194.423 136.398 196.243 138.018 196.243 140.758V146.458H195.263V140.778C195.263 138.538 193.883 137.338 191.743 137.358C189.703 137.378 188.283 138.918 188.283 140.958V146.458H187.303V136.578ZM205.787 137.298L206.747 136.178L207.387 136.738L206.427 137.858C207.127 138.618 207.647 139.618 207.647 141.218C207.647 142.938 206.627 144.678 204.987 145.418C206.727 146.038 207.687 147.258 207.687 148.958C207.687 151.618 205.607 152.898 202.987 152.898C200.367 152.898 198.307 151.458 198.307 148.958H199.287C199.287 150.978 201.007 151.938 202.987 151.938C204.967 151.938 206.727 151.058 206.727 148.958C206.727 146.838 204.827 145.998 202.987 145.998C200.127 145.998 198.347 143.858 198.347 141.218C198.347 138.138 200.427 136.398 202.987 136.398C203.987 136.398 205.027 136.758 205.787 137.298ZM202.987 137.378C200.967 137.378 199.327 138.638 199.327 141.218C199.327 143.258 200.727 145.018 202.987 145.018C205.027 145.018 206.687 143.258 206.687 141.218C206.687 138.718 205.027 137.378 202.987 137.378ZM219.634 137.358C217.414 137.358 215.594 138.738 215.594 141.518C215.594 144.258 217.414 145.658 219.634 145.658C221.954 145.658 223.674 143.958 223.674 141.498C223.674 139.038 221.914 137.358 219.634 137.358ZM223.694 132.458H224.654V146.458H223.694V144.278C222.874 145.778 221.254 146.618 219.574 146.618C216.814 146.618 214.634 144.798 214.634 141.518C214.634 138.258 216.834 136.418 219.594 136.418C221.294 136.418 222.894 137.138 223.694 138.738V132.458ZM235.999 136.578H236.979C236.979 139.878 236.979 143.158 236.979 146.458H235.999V144.358C235.039 145.898 233.559 146.618 231.959 146.618C229.199 146.618 226.939 144.538 226.939 141.518C226.939 138.498 229.199 136.458 231.959 136.458C233.559 136.458 235.179 137.198 235.999 138.738V136.578ZM231.959 137.398C229.719 137.398 227.919 139.038 227.919 141.518C227.919 143.998 229.719 145.658 231.959 145.658C237.459 145.658 237.459 137.398 231.959 137.398ZM240.517 133.698L241.477 133.598V136.578H244.837V137.398H241.477V143.418C241.477 144.758 241.757 145.698 243.297 145.698C243.777 145.698 244.317 145.538 244.817 145.298L245.157 146.098C244.537 146.398 243.917 146.598 243.297 146.598C241.197 146.598 240.517 145.358 240.517 143.418V137.398H238.417V136.578H240.517V133.698ZM255.608 136.578H256.588C256.588 139.878 256.588 143.158 256.588 146.458H255.608V144.358C254.648 145.898 253.168 146.618 251.568 146.618C248.808 146.618 246.548 144.538 246.548 141.518C246.548 138.498 248.808 136.458 251.568 136.458C253.168 136.458 254.788 137.198 255.608 138.738V136.578ZM251.568 137.398C249.328 137.398 247.528 139.038 247.528 141.518C247.528 143.998 249.328 145.658 251.568 145.658C257.068 145.658 257.068 137.398 251.568 137.398ZM21.48 163.738L20.88 164.378C19.88 163.498 18.9 163.338 17.8 163.338C16.26 163.318 14.78 163.898 14.82 165.158C14.86 166.478 16.58 166.738 17.82 166.958C19.58 167.258 22 167.558 21.9 169.858C21.84 172.038 19.58 172.618 17.84 172.618C16.1 172.618 14.38 171.958 13.52 170.638L14.24 169.998C15.06 171.178 16.54 171.678 17.86 171.678C19.06 171.678 20.88 171.358 20.94 169.798C20.98 168.378 19.34 168.098 17.72 167.838C15.8 167.518 13.9 167.158 13.88 165.178C13.86 163.238 15.8 162.398 17.8 162.418C19.24 162.418 20.5 162.818 21.48 163.738ZM28.5405 172.598C25.7605 172.598 23.5205 170.658 23.5205 167.518C23.5205 164.558 25.7605 162.418 28.5405 162.418C31.3205 162.418 33.8005 164.118 33.4205 167.978H24.5205C24.7205 170.298 26.5005 171.638 28.5405 171.638C29.8405 171.638 31.3605 171.118 32.1005 170.138L32.8005 170.698C31.8405 171.958 30.1205 172.598 28.5405 172.598ZM24.5205 167.118H32.5405C32.5205 164.678 30.9205 163.318 28.5405 163.318C26.5005 163.318 24.7405 164.698 24.5205 167.118ZM43.3955 170.418L44.0555 171.078C43.0555 172.078 41.7555 172.558 40.4555 172.558C37.6755 172.558 35.3755 170.638 35.3755 167.518C35.3755 164.398 37.5955 162.478 40.4555 162.478C41.7555 162.478 43.0555 162.978 44.0555 163.958L43.4155 164.578C42.6155 163.778 41.5155 163.398 40.4555 163.398C38.2155 163.398 36.3355 164.858 36.3355 167.518C36.3355 170.178 38.2155 171.638 40.4555 171.638C41.5155 171.638 42.5955 171.218 43.3955 170.418ZM54.9731 172.458H54.0131V170.678C53.2531 172.038 51.8731 172.598 50.4931 172.618C47.8531 172.618 46.0331 170.998 46.0331 168.258V162.558H47.0131V168.238C47.0131 170.478 48.3931 171.678 50.5331 171.658C52.5731 171.638 53.9931 170.098 53.9931 168.058V162.558H54.9731V172.458ZM57.557 162.578H58.477L58.517 164.338C59.137 162.998 60.537 162.478 61.797 162.478C62.537 162.458 63.257 162.658 63.917 163.058L63.477 163.858C62.957 163.538 62.377 163.398 61.797 163.398C59.957 163.418 58.537 164.898 58.537 166.698V172.458H57.557V162.578ZM66.3691 162.538V172.458H65.3891V162.538H66.3691ZM65.1091 159.358C65.1091 160.398 66.6891 160.398 66.6891 159.358C66.6891 158.318 65.1091 158.318 65.1091 159.358ZM70.4781 159.698L71.4381 159.598V162.578H74.7981V163.398H71.4381V169.418C71.4381 170.758 71.7181 171.698 73.2581 171.698C73.7381 171.698 74.2781 171.538 74.7781 171.298L75.1181 172.098C74.4981 172.398 73.8781 172.598 73.2581 172.598C71.1581 172.598 70.4781 171.358 70.4781 169.418V163.398H68.3781V162.578H70.4781V159.698ZM84.6441 162.578H85.7041L79.6841 176.578H78.6441L80.4641 172.338L76.5041 162.578H77.5641L79.8641 168.418L81.0241 171.278L82.1641 168.398L84.6441 162.578ZM101.624 162.578H102.604C102.604 165.878 102.604 169.158 102.604 172.458H101.624V170.358C100.664 171.898 99.1839 172.618 97.5839 172.618C94.8239 172.618 92.5639 170.538 92.5639 167.518C92.5639 164.498 94.8239 162.458 97.5839 162.458C99.1839 162.458 100.804 163.198 101.624 164.738V162.578ZM97.5839 163.398C95.3439 163.398 93.5439 165.038 93.5439 167.518C93.5439 169.998 95.3439 171.658 97.5839 171.658C103.084 171.658 103.084 163.398 97.5839 163.398ZM105.272 162.578H106.232V164.338C106.992 162.978 108.372 162.418 109.752 162.398C112.392 162.398 114.212 164.018 114.212 166.758V172.458H113.232V166.778C113.232 164.538 111.852 163.338 109.712 163.358C107.672 163.378 106.252 164.918 106.252 166.958V172.458H105.272V162.578ZM121.236 163.358C119.016 163.358 117.196 164.738 117.196 167.518C117.196 170.258 119.016 171.658 121.236 171.658C123.556 171.658 125.276 169.958 125.276 167.498C125.276 165.038 123.516 163.358 121.236 163.358ZM125.296 158.458H126.256V172.458H125.296V170.278C124.476 171.778 122.856 172.618 121.176 172.618C118.416 172.618 116.236 170.798 116.236 167.518C116.236 164.258 118.436 162.418 121.196 162.418C122.896 162.418 124.496 163.138 125.296 164.738V158.458ZM139.608 171.698C141.848 171.698 143.648 170.298 143.648 167.518C143.648 164.738 141.848 163.378 139.608 163.378C137.308 163.378 135.608 165.118 135.608 167.538C135.608 169.958 137.348 171.698 139.608 171.698ZM135.528 176.578H134.588V162.578H135.548V164.918C136.328 163.418 137.908 162.438 139.828 162.438C142.508 162.538 144.628 164.338 144.628 167.518C144.628 170.838 142.388 172.638 139.608 172.638C137.928 172.638 136.368 171.818 135.528 170.178V176.578ZM147.03 162.578H147.95L147.99 164.338C148.61 162.998 150.01 162.478 151.27 162.478C152.01 162.458 152.73 162.658 153.39 163.058L152.95 163.858C152.43 163.538 151.85 163.398 151.27 163.398C149.43 163.418 148.01 164.898 148.01 166.698V172.458H147.03V162.578ZM155.842 162.538V172.458H154.862V162.538H155.842ZM154.582 159.358C154.582 160.398 156.162 160.398 156.162 159.358C156.162 158.318 154.582 158.318 154.582 159.358ZM161.851 172.458L157.711 162.578H158.791L162.391 171.318L165.991 162.578H167.071L162.931 172.458H161.851ZM177.21 162.578H178.19C178.19 165.878 178.19 169.158 178.19 172.458H177.21V170.358C176.25 171.898 174.77 172.618 173.17 172.618C170.41 172.618 168.15 170.538 168.15 167.518C168.15 164.498 170.41 162.458 173.17 162.458C174.77 162.458 176.39 163.198 177.21 164.738V162.578ZM173.17 163.398C170.93 163.398 169.13 165.038 169.13 167.518C169.13 169.998 170.93 171.658 173.17 171.658C178.67 171.658 178.67 163.398 173.17 163.398ZM188.513 170.418L189.173 171.078C188.173 172.078 186.873 172.558 185.573 172.558C182.793 172.558 180.493 170.638 180.493 167.518C180.493 164.398 182.713 162.478 185.573 162.478C186.873 162.478 188.173 162.978 189.173 163.958L188.533 164.578C187.733 163.778 186.633 163.398 185.573 163.398C183.333 163.398 181.453 164.858 181.453 167.518C181.453 170.178 183.333 171.638 185.573 171.638C186.633 171.638 187.713 171.218 188.513 170.418ZM198.55 162.578H199.61L193.59 176.578H192.55L194.37 172.338L190.41 162.578H191.47L193.77 168.418L194.93 171.278L196.07 168.398L198.55 162.578ZM208.31 159.698L209.27 159.598V162.578H212.63V163.398H209.27V169.418C209.27 170.758 209.55 171.698 211.09 171.698C211.57 171.698 212.11 171.538 212.61 171.298L212.95 172.098C212.33 172.398 211.71 172.598 211.09 172.598C208.99 172.598 208.31 171.358 208.31 169.418V163.398H206.21V162.578H208.31V159.698ZM219.441 172.598C216.661 172.598 214.421 170.678 214.421 167.538C214.421 164.398 216.661 162.398 219.441 162.398C222.221 162.398 224.461 164.398 224.461 167.538C224.461 170.678 222.221 172.598 219.441 172.598ZM219.441 171.638C221.681 171.638 223.501 170.098 223.501 167.538C223.501 164.978 221.681 163.318 219.441 163.318C217.201 163.318 215.381 164.978 215.381 167.538C215.381 170.098 217.201 171.638 219.441 171.638ZM18.56 198.598C15.78 198.598 13.54 196.658 13.54 193.518C13.54 190.558 15.78 188.418 18.56 188.418C21.34 188.418 23.82 190.118 23.44 193.978H14.54C14.74 196.298 16.52 197.638 18.56 197.638C19.86 197.638 21.38 197.118 22.12 196.138L22.82 196.698C21.86 197.958 20.14 198.598 18.56 198.598ZM14.54 193.118H22.56C22.54 190.678 20.94 189.318 18.56 189.318C16.52 189.318 14.76 190.698 14.54 193.118ZM25.975 188.578H26.935V190.338C27.695 188.978 29.075 188.418 30.455 188.398C33.095 188.398 34.915 190.018 34.915 192.758V198.458H33.935V192.778C33.935 190.538 32.555 189.338 30.415 189.358C28.375 189.378 26.955 190.918 26.955 192.958V198.458H25.975V188.578ZM44.8589 189.738L44.2589 190.378C43.2589 189.498 42.2789 189.338 41.1789 189.338C39.6389 189.318 38.1589 189.898 38.1989 191.158C38.2389 192.478 39.9589 192.738 41.1989 192.958C42.9589 193.258 45.3789 193.558 45.2789 195.858C45.2189 198.038 42.9589 198.618 41.2189 198.618C39.4789 198.618 37.7589 197.958 36.8989 196.638L37.6189 195.998C38.4389 197.178 39.9189 197.678 41.2389 197.678C42.4389 197.678 44.2589 197.358 44.3189 195.798C44.3589 194.378 42.7189 194.098 41.0989 193.838C39.1789 193.518 37.2789 193.158 37.2589 191.178C37.2389 189.238 39.1789 188.398 41.1789 188.418C42.6189 188.418 43.8789 188.818 44.8589 189.738ZM56.3794 198.458H55.4194V196.678C54.6594 198.038 53.2794 198.598 51.8994 198.618C49.2594 198.618 47.4394 196.998 47.4394 194.258V188.558H48.4194V194.238C48.4194 196.478 49.7994 197.678 51.9394 197.658C53.9794 197.638 55.3994 196.098 55.3994 194.058V188.558H56.3794V198.458ZM58.9633 188.578H59.8833L59.9233 190.338C60.5433 188.998 61.9433 188.478 63.2033 188.478C63.9433 188.458 64.6633 188.658 65.3233 189.058L64.8833 189.858C64.3633 189.538 63.7833 189.398 63.2033 189.398C61.3633 189.418 59.9433 190.898 59.9433 192.698V198.458H58.9633V188.578ZM71.2553 198.598C68.4753 198.598 66.2353 196.658 66.2353 193.518C66.2353 190.558 68.4753 188.418 71.2553 188.418C74.0353 188.418 76.5153 190.118 76.1353 193.978H67.2353C67.4353 196.298 69.2153 197.638 71.2553 197.638C72.5553 197.638 74.0753 197.118 74.8153 196.138L75.5153 196.698C74.5553 197.958 72.8353 198.598 71.2553 198.598ZM67.2353 193.118H75.2553C75.2353 190.678 73.6353 189.318 71.2553 189.318C69.2153 189.318 67.4553 190.698 67.2353 193.118ZM91.5581 188.578H92.6181L86.5981 202.578H85.5581L87.3781 198.338L83.4181 188.578H84.4781L86.7781 194.418L87.9381 197.278L89.0781 194.398L91.5581 188.578ZM99.0702 198.598C96.2902 198.598 94.0502 196.678 94.0502 193.538C94.0502 190.398 96.2902 188.398 99.0702 188.398C101.85 188.398 104.09 190.398 104.09 193.538C104.09 196.678 101.85 198.598 99.0702 198.598ZM99.0702 197.638C101.31 197.638 103.13 196.098 103.13 193.538C103.13 190.978 101.31 189.318 99.0702 189.318C96.8302 189.318 95.0102 190.978 95.0102 193.538C95.0102 196.098 96.8302 197.638 99.0702 197.638ZM115.266 198.458H114.306V196.678C113.546 198.038 112.166 198.598 110.786 198.618C108.146 198.618 106.326 196.998 106.326 194.258V188.558H107.306V194.238C107.306 196.478 108.686 197.678 110.826 197.658C112.866 197.638 114.286 196.098 114.286 194.058V188.558H115.266V198.458ZM117.85 188.578H118.77L118.81 190.338C119.43 188.998 120.83 188.478 122.09 188.478C122.83 188.458 123.55 188.658 124.21 189.058L123.77 189.858C123.25 189.538 122.67 189.398 122.09 189.398C120.25 189.418 118.83 190.898 118.83 192.698V198.458H117.85V188.578ZM138.57 189.738L137.97 190.378C136.97 189.498 135.99 189.338 134.89 189.338C133.35 189.318 131.87 189.898 131.91 191.158C131.95 192.478 133.67 192.738 134.91 192.958C136.67 193.258 139.09 193.558 138.99 195.858C138.93 198.038 136.67 198.618 134.93 198.618C133.19 198.618 131.47 197.958 130.61 196.638L131.33 195.998C132.15 197.178 133.63 197.678 134.95 197.678C136.15 197.678 137.97 197.358 138.03 195.798C138.07 194.378 136.43 194.098 134.81 193.838C132.89 193.518 130.99 193.158 130.97 191.178C130.95 189.238 132.89 188.398 134.89 188.418C136.33 188.418 137.59 188.818 138.57 189.738ZM145.63 198.598C142.85 198.598 140.61 196.658 140.61 193.518C140.61 190.558 142.85 188.418 145.63 188.418C148.41 188.418 150.89 190.118 150.51 193.978H141.61C141.81 196.298 143.59 197.638 145.63 197.638C146.93 197.638 148.45 197.118 149.19 196.138L149.89 196.698C148.93 197.958 147.21 198.598 145.63 198.598ZM141.61 193.118H149.63C149.61 190.678 148.01 189.318 145.63 189.318C143.59 189.318 141.83 190.698 141.61 193.118ZM153.045 188.578H154.005V190.338C154.765 188.978 156.145 188.418 157.525 188.398C160.165 188.398 161.985 190.018 161.985 192.758V198.458H161.005V192.778C161.005 190.538 159.625 189.338 157.485 189.358C155.445 189.378 154.025 190.918 154.025 192.958V198.458H153.045V188.578ZM171.929 189.738L171.329 190.378C170.329 189.498 169.349 189.338 168.249 189.338C166.709 189.318 165.229 189.898 165.269 191.158C165.309 192.478 167.029 192.738 168.269 192.958C170.029 193.258 172.449 193.558 172.349 195.858C172.289 198.038 170.029 198.618 168.289 198.618C166.549 198.618 164.829 197.958 163.969 196.638L164.689 195.998C165.509 197.178 166.989 197.678 168.309 197.678C169.509 197.678 171.329 197.358 171.389 195.798C171.429 194.378 169.789 194.098 168.169 193.838C166.249 193.518 164.349 193.158 164.329 191.178C164.309 189.238 166.249 188.398 168.249 188.418C169.689 188.418 170.949 188.818 171.929 189.738ZM175.51 188.538V198.458H174.53V188.538H175.51ZM174.25 185.358C174.25 186.398 175.83 186.398 175.83 185.358C175.83 184.318 174.25 184.318 174.25 185.358ZM179.619 185.698L180.579 185.598V188.578H183.939V189.398H180.579V195.418C180.579 196.758 180.859 197.698 182.399 197.698C182.879 197.698 183.419 197.538 183.919 197.298L184.259 198.098C183.639 198.398 183.019 198.598 182.399 198.598C180.299 198.598 179.619 197.358 179.619 195.418V189.398H177.519V188.578H179.619V185.698ZM187.17 188.538V198.458H186.19V188.538H187.17ZM185.91 185.358C185.91 186.398 187.49 186.398 187.49 185.358C187.49 184.318 185.91 184.318 185.91 185.358ZM193.179 198.458L189.039 188.578H190.119L193.719 197.318L197.319 188.578H198.399L194.259 198.458H193.179ZM204.478 198.598C201.698 198.598 199.458 196.658 199.458 193.518C199.458 190.558 201.698 188.418 204.478 188.418C207.258 188.418 209.738 190.118 209.358 193.978H200.458C200.658 196.298 202.438 197.638 204.478 197.638C205.778 197.638 207.298 197.118 208.038 196.138L208.738 196.698C207.778 197.958 206.058 198.598 204.478 198.598ZM200.458 193.118H208.478C208.458 190.678 206.858 189.318 204.478 189.318C202.438 189.318 200.678 190.698 200.458 193.118ZM15.08 214.538V224.458H14.1V214.538H15.08ZM13.82 211.358C13.82 212.398 15.4 212.398 15.4 211.358C15.4 210.318 13.82 210.318 13.82 211.358ZM17.8891 214.578H18.8491V216.338C19.6091 214.978 20.9891 214.418 22.3691 214.398C25.0091 214.398 26.8291 216.018 26.8291 218.758V224.458H25.8491V218.778C25.8491 216.538 24.4691 215.338 22.3291 215.358C20.2891 215.378 18.8691 216.918 18.8691 218.958V224.458H17.8891V214.578ZM31.373 224.458H30.413V215.518H28.393V214.658H30.413V213.778C30.413 211.818 31.193 210.398 33.373 210.398C34.113 210.398 34.773 210.658 35.333 211.078L34.853 211.798C34.313 211.478 33.933 211.298 33.333 211.298C32.093 211.298 31.373 212.058 31.373 213.778V214.658H34.633V215.518H31.373V224.458ZM40.6717 224.598C37.8917 224.598 35.6517 222.678 35.6517 219.538C35.6517 216.398 37.8917 214.398 40.6717 214.398C43.4517 214.398 45.6917 216.398 45.6917 219.538C45.6917 222.678 43.4517 224.598 40.6717 224.598ZM40.6717 223.638C42.9117 223.638 44.7317 222.098 44.7317 219.538C44.7317 216.978 42.9117 215.318 40.6717 215.318C38.4317 215.318 36.6117 216.978 36.6117 219.538C36.6117 222.098 38.4317 223.638 40.6717 223.638ZM47.9477 214.578H48.8677L48.9077 216.338C49.5277 214.998 50.9277 214.478 52.1877 214.478C52.9277 214.458 53.6477 214.658 54.3077 215.058L53.8677 215.858C53.3477 215.538 52.7677 215.398 52.1877 215.398C50.3477 215.418 48.9277 216.898 48.9277 218.698V224.458H47.9477V214.578ZM71.3997 224.458H70.4197V218.538C70.4197 216.638 69.1397 215.298 67.2597 215.298C65.3797 215.298 64.0797 216.698 64.0797 218.598V224.458H63.0997V218.598C63.0997 216.698 61.7997 215.318 59.9197 215.318C58.0397 215.318 56.7597 216.698 56.7597 218.598V224.458H55.7797V214.578H56.6997L56.7197 216.218C57.3997 214.918 58.6597 214.378 59.9397 214.378C61.4397 214.378 63.0197 215.058 63.5997 216.818C64.1997 215.198 65.7397 214.378 67.2597 214.378C69.6797 214.378 71.3997 216.078 71.3997 218.538V224.458ZM82.6786 214.578H83.6586C83.6586 217.878 83.6586 221.158 83.6586 224.458H82.6786V222.358C81.7186 223.898 80.2386 224.618 78.6386 224.618C75.8786 224.618 73.6186 222.538 73.6186 219.518C73.6186 216.498 75.8786 214.458 78.6386 214.458C80.2386 214.458 81.8586 215.198 82.6786 216.738V214.578ZM78.6386 215.398C76.3986 215.398 74.5986 217.038 74.5986 219.518C74.5986 221.998 76.3986 223.658 78.6386 223.658C84.1386 223.658 84.1386 215.398 78.6386 215.398ZM87.1969 211.698L88.1569 211.598V214.578H91.5169V215.398H88.1569V221.418C88.1569 222.758 88.4369 223.698 89.9769 223.698C90.4569 223.698 90.9969 223.538 91.4969 223.298L91.8369 224.098C91.2169 224.398 90.5969 224.598 89.9769 224.598C87.8769 224.598 87.1969 223.358 87.1969 221.418V215.398H85.0969V214.578H87.1969V211.698ZM94.748 214.538V224.458H93.768V214.538H94.748ZM93.488 211.358C93.488 212.398 95.068 212.398 95.068 211.358C95.068 210.318 93.488 210.318 93.488 211.358ZM102.332 224.598C99.5519 224.598 97.3119 222.678 97.3119 219.538C97.3119 216.398 99.5519 214.398 102.332 214.398C105.112 214.398 107.352 216.398 107.352 219.538C107.352 222.678 105.112 224.598 102.332 224.598ZM102.332 223.638C104.572 223.638 106.392 222.098 106.392 219.538C106.392 216.978 104.572 215.318 102.332 215.318C100.092 215.318 98.2719 216.978 98.2719 219.538C98.2719 222.098 100.092 223.638 102.332 223.638ZM109.608 214.578H110.568V216.338C111.328 214.978 112.708 214.418 114.088 214.398C116.728 214.398 118.548 216.018 118.548 218.758V224.458H117.568V218.778C117.568 216.538 116.188 215.338 114.048 215.358C112.008 215.378 110.588 216.918 110.588 218.958V224.458H109.608V214.578ZM127.6 214.538V224.458H126.62V214.538H127.6ZM126.34 211.358C126.34 212.398 127.92 212.398 127.92 211.358C127.92 210.318 126.34 210.318 126.34 211.358ZM137.789 215.738L137.189 216.378C136.189 215.498 135.209 215.338 134.109 215.338C132.569 215.318 131.089 215.898 131.129 217.158C131.169 218.478 132.889 218.738 134.129 218.958C135.889 219.258 138.309 219.558 138.209 221.858C138.149 224.038 135.889 224.618 134.149 224.618C132.409 224.618 130.689 223.958 129.829 222.638L130.549 221.998C131.369 223.178 132.849 223.678 134.169 223.678C135.369 223.678 137.189 223.358 137.249 221.798C137.289 220.378 135.649 220.098 134.029 219.838C132.109 219.518 130.209 219.158 130.189 217.178C130.169 215.238 132.109 214.398 134.109 214.418C135.549 214.418 136.809 214.818 137.789 215.738ZM145.897 210.458H146.837V216.418C147.637 214.998 149.017 214.458 150.397 214.438C153.157 214.438 154.537 216.218 154.537 218.798V224.458H153.577V218.798C153.577 216.758 152.617 215.378 150.397 215.378C148.317 215.378 146.877 216.978 146.877 219.038V224.458H145.897V210.458ZM165.608 214.578H166.588C166.588 217.878 166.588 221.158 166.588 224.458H165.608V222.358C164.648 223.898 163.168 224.618 161.568 224.618C158.808 224.618 156.548 222.538 156.548 219.518C156.548 216.498 158.808 214.458 161.568 214.458C163.168 214.458 164.788 215.198 165.608 216.738V214.578ZM161.568 215.398C159.328 215.398 157.528 217.038 157.528 219.518C157.528 221.998 159.328 223.658 161.568 223.658C167.068 223.658 167.068 215.398 161.568 215.398ZM169.256 214.578H170.216V216.338C170.976 214.978 172.356 214.418 173.736 214.398C176.376 214.398 178.196 216.018 178.196 218.758V224.458H177.216V218.778C177.216 216.538 175.836 215.338 173.696 215.358C171.656 215.378 170.236 216.918 170.236 218.958V224.458H169.256V214.578ZM185.22 215.358C183 215.358 181.18 216.738 181.18 219.518C181.18 222.258 183 223.658 185.22 223.658C187.54 223.658 189.26 221.958 189.26 219.498C189.26 217.038 187.5 215.358 185.22 215.358ZM189.28 210.458H190.24V224.458H189.28V222.278C188.46 223.778 186.84 224.618 185.16 224.618C182.4 224.618 180.22 222.798 180.22 219.518C180.22 216.258 182.42 214.418 185.18 214.418C186.88 214.418 188.48 215.138 189.28 216.738V210.458ZM193.065 210.458H194.045V224.458H193.065V210.458ZM201.236 224.598C198.456 224.598 196.216 222.658 196.216 219.518C196.216 216.558 198.456 214.418 201.236 214.418C204.016 214.418 206.496 216.118 206.116 219.978H197.216C197.416 222.298 199.196 223.638 201.236 223.638C202.536 223.638 204.056 223.118 204.796 222.138L205.496 222.698C204.536 223.958 202.816 224.598 201.236 224.598ZM197.216 219.118H205.236C205.216 216.678 203.616 215.318 201.236 215.318C199.196 215.318 197.436 216.698 197.216 219.118ZM213.111 215.358C210.891 215.358 209.071 216.738 209.071 219.518C209.071 222.258 210.891 223.658 213.111 223.658C215.431 223.658 217.151 221.958 217.151 219.498C217.151 217.038 215.391 215.358 213.111 215.358ZM217.171 210.458H218.131V224.458H217.171V222.278C216.351 223.778 214.731 224.618 213.051 224.618C210.291 224.618 208.111 222.798 208.111 219.518C208.111 216.258 210.311 214.418 213.071 214.418C214.771 214.418 216.371 215.138 217.171 216.738V210.458ZM240.163 214.578L236.663 224.458H235.583L233.983 220.138L232.783 216.298L231.543 220.158L229.943 224.458H228.863L225.343 214.578H226.423L229.403 223.318L232.423 214.578H233.123L236.123 223.318L239.083 214.578H240.163ZM242.736 214.538V224.458H241.756V214.538H242.736ZM241.476 211.358C241.476 212.398 243.056 212.398 243.056 211.358C243.056 210.318 241.476 210.318 241.476 211.358ZM246.845 211.698L247.805 211.598V214.578H251.165V215.398H247.805V221.418C247.805 222.758 248.085 223.698 249.625 223.698C250.105 223.698 250.645 223.538 251.145 223.298L251.485 224.098C250.865 224.398 250.245 224.598 249.625 224.598C247.525 224.598 246.845 223.358 246.845 221.418V215.398H244.745V214.578H246.845V211.698ZM253.416 210.458H254.356V216.418C255.156 214.998 256.536 214.458 257.916 214.438C260.676 214.438 262.056 216.218 262.056 218.798V224.458H261.096V218.798C261.096 216.758 260.136 215.378 257.916 215.378C255.836 215.378 254.396 216.978 254.396 219.038V224.458H253.416V210.458ZM15.4 237.698L16.36 237.598V240.578H19.72V241.398H16.36V247.418C16.36 248.758 16.64 249.698 18.18 249.698C18.66 249.698 19.2 249.538 19.7 249.298L20.04 250.098C19.42 250.398 18.8 250.598 18.18 250.598C16.08 250.598 15.4 249.358 15.4 247.418V241.398H13.3V240.578H15.4V237.698ZM21.9711 236.458H22.9111V242.418C23.7111 240.998 25.0911 240.458 26.4711 240.438C29.2311 240.438 30.6111 242.218 30.6111 244.798V250.458H29.6511V244.798C29.6511 242.758 28.6911 241.378 26.4711 241.378C24.3911 241.378 22.9511 242.978 22.9511 245.038V250.458H21.9711V236.458ZM37.6225 250.598C34.8425 250.598 32.6025 248.658 32.6025 245.518C32.6025 242.558 34.8425 240.418 37.6225 240.418C40.4025 240.418 42.8825 242.118 42.5025 245.978H33.6025C33.8025 248.298 35.5825 249.638 37.6225 249.638C38.9225 249.638 40.4425 249.118 41.1825 248.138L41.8825 248.698C40.9225 249.958 39.2025 250.598 37.6225 250.598ZM33.6025 245.118H41.6225C41.6025 242.678 40.0025 241.318 37.6225 241.318C35.5825 241.318 33.8225 242.698 33.6025 245.118ZM50.5453 236.458H51.4853V242.418C52.2853 240.998 53.6653 240.458 55.0453 240.438C57.8053 240.438 59.1853 242.218 59.1853 244.798V250.458H58.2253V244.798C58.2253 242.758 57.2653 241.378 55.0453 241.378C52.9653 241.378 51.5253 242.978 51.5253 245.038V250.458H50.5453V236.458ZM62.7167 240.538V250.458H61.7367V240.538H62.7167ZM61.4567 237.358C61.4567 238.398 63.0367 238.398 63.0367 237.358C63.0367 236.318 61.4567 236.318 61.4567 237.358ZM72.5058 241.298L73.4658 240.178L74.1058 240.738L73.1458 241.858C73.8458 242.618 74.3658 243.618 74.3658 245.218C74.3658 246.938 73.3458 248.678 71.7058 249.418C73.4458 250.038 74.4058 251.258 74.4058 252.958C74.4058 255.618 72.3258 256.898 69.7058 256.898C67.0858 256.898 65.0258 255.458 65.0258 252.958H66.0058C66.0058 254.978 67.7258 255.938 69.7058 255.938C71.6858 255.938 73.4458 255.058 73.4458 252.958C73.4458 250.838 71.5458 249.998 69.7058 249.998C66.8458 249.998 65.0658 247.858 65.0658 245.218C65.0658 242.138 67.1458 240.398 69.7058 240.398C70.7058 240.398 71.7458 240.758 72.5058 241.298ZM69.7058 241.378C67.6858 241.378 66.0458 242.638 66.0458 245.218C66.0458 247.258 67.4458 249.018 69.7058 249.018C71.7458 249.018 73.4058 247.258 73.4058 245.218C73.4058 242.718 71.7458 241.378 69.7058 241.378ZM76.5805 236.458H77.5205V242.418C78.3205 240.998 79.7005 240.458 81.0805 240.438C83.8405 240.438 85.2205 242.218 85.2205 244.798V250.458H84.2605V244.798C84.2605 242.758 83.3005 241.378 81.0805 241.378C79.0005 241.378 77.5605 242.978 77.5605 245.038V250.458H76.5805V236.458ZM92.2319 250.598C89.4519 250.598 87.2119 248.658 87.2119 245.518C87.2119 242.558 89.4519 240.418 92.2319 240.418C95.0119 240.418 97.4919 242.118 97.1119 245.978H88.2119C88.4119 248.298 90.1919 249.638 92.2319 249.638C93.5319 249.638 95.0519 249.118 95.7919 248.138L96.4919 248.698C95.5319 249.958 93.8119 250.598 92.2319 250.598ZM88.2119 245.118H96.2319C96.2119 242.678 94.6119 241.318 92.2319 241.318C90.1919 241.318 88.4319 242.698 88.2119 245.118ZM107.027 241.738L106.427 242.378C105.427 241.498 104.447 241.338 103.347 241.338C101.807 241.318 100.327 241.898 100.367 243.158C100.407 244.478 102.127 244.738 103.367 244.958C105.127 245.258 107.547 245.558 107.447 247.858C107.387 250.038 105.127 250.618 103.387 250.618C101.647 250.618 99.9269 249.958 99.0669 248.638L99.7869 247.998C100.607 249.178 102.087 249.678 103.407 249.678C104.607 249.678 106.427 249.358 106.487 247.798C106.527 246.378 104.887 246.098 103.267 245.838C101.347 245.518 99.4469 245.158 99.4269 243.178C99.4069 241.238 101.347 240.398 103.347 240.418C104.787 240.418 106.047 240.818 107.027 241.738ZM110.927 237.698L111.887 237.598V240.578H115.247V241.398H111.887V247.418C111.887 248.758 112.167 249.698 113.707 249.698C114.187 249.698 114.727 249.538 115.227 249.298L115.567 250.098C114.947 250.398 114.327 250.598 113.707 250.598C111.607 250.598 110.927 249.358 110.927 247.418V241.398H108.827V240.578H110.927V237.698ZM123.986 240.538V250.458H123.006V240.538H123.986ZM122.726 237.358C122.726 238.398 124.306 238.398 124.306 237.358C124.306 236.318 122.726 236.318 122.726 237.358ZM126.795 240.578H127.755V242.338C128.515 240.978 129.895 240.418 131.275 240.398C133.915 240.398 135.735 242.018 135.735 244.758V250.458H134.755V244.778C134.755 242.538 133.375 241.338 131.235 241.358C129.195 241.378 127.775 242.918 127.775 244.958V250.458H126.795V240.578ZM142.759 241.358C140.539 241.358 138.719 242.738 138.719 245.518C138.719 248.258 140.539 249.658 142.759 249.658C145.079 249.658 146.799 247.958 146.799 245.498C146.799 243.038 145.039 241.358 142.759 241.358ZM146.819 236.458H147.779V250.458H146.819V248.278C145.999 249.778 144.379 250.618 142.699 250.618C139.939 250.618 137.759 248.798 137.759 245.518C137.759 242.258 139.959 240.418 142.719 240.418C144.419 240.418 146.019 241.138 146.819 242.738V236.458ZM159.309 250.458H158.349V248.678C157.589 250.038 156.209 250.598 154.829 250.618C152.189 250.618 150.369 248.998 150.369 246.258V240.558H151.349V246.238C151.349 248.478 152.729 249.678 154.869 249.658C156.909 249.638 158.329 248.098 158.329 246.058V240.558H159.309V250.458ZM169.273 241.738L168.673 242.378C167.673 241.498 166.693 241.338 165.593 241.338C164.053 241.318 162.573 241.898 162.613 243.158C162.653 244.478 164.373 244.738 165.613 244.958C167.373 245.258 169.793 245.558 169.693 247.858C169.633 250.038 167.373 250.618 165.633 250.618C163.893 250.618 162.173 249.958 161.313 248.638L162.033 247.998C162.853 249.178 164.333 249.678 165.653 249.678C166.853 249.678 168.673 249.358 168.733 247.798C168.773 246.378 167.133 246.098 165.513 245.838C163.593 245.518 161.693 245.158 161.673 243.178C161.653 241.238 163.593 240.398 165.593 240.418C167.033 240.418 168.293 240.818 169.273 241.738ZM173.173 237.698L174.133 237.598V240.578H177.493V241.398H174.133V247.418C174.133 248.758 174.413 249.698 175.953 249.698C176.433 249.698 176.973 249.538 177.473 249.298L177.813 250.098C177.193 250.398 176.573 250.598 175.953 250.598C173.853 250.598 173.173 249.358 173.173 247.418V241.398H171.073V240.578H173.173V237.698ZM179.745 240.578H180.665L180.705 242.338C181.325 240.998 182.725 240.478 183.985 240.478C184.725 240.458 185.445 240.658 186.105 241.058L185.665 241.858C185.145 241.538 184.565 241.398 183.985 241.398C182.145 241.418 180.725 242.898 180.725 244.698V250.458H179.745V240.578ZM195.582 240.578H196.642L190.622 254.578H189.582L191.402 250.338L187.442 240.578H188.502L190.802 246.418L191.962 249.278L193.102 246.398L195.582 240.578ZM21.48 267.738L20.88 268.378C19.88 267.498 18.9 267.338 17.8 267.338C16.26 267.318 14.78 267.898 14.82 269.158C14.86 270.478 16.58 270.738 17.82 270.958C19.58 271.258 22 271.558 21.9 273.858C21.84 276.038 19.58 276.618 17.84 276.618C16.1 276.618 14.38 275.958 13.52 274.638L14.24 273.998C15.06 275.178 16.54 275.678 17.86 275.678C19.06 275.678 20.88 275.358 20.94 273.798C20.98 272.378 19.34 272.098 17.72 271.838C15.8 271.518 13.9 271.158 13.88 269.178C13.86 267.238 15.8 266.398 17.8 266.418C19.24 266.418 20.5 266.818 21.48 267.738ZM25.3805 263.698L26.3405 263.598V266.578H29.7005V267.398H26.3405V273.418C26.3405 274.758 26.6205 275.698 28.1605 275.698C28.6405 275.698 29.1805 275.538 29.6805 275.298L30.0205 276.098C29.4005 276.398 28.7805 276.598 28.1605 276.598C26.0605 276.598 25.3805 275.358 25.3805 273.418V267.398H23.2805V266.578H25.3805V263.698ZM40.4716 266.578H41.4516C41.4516 269.878 41.4516 273.158 41.4516 276.458H40.4716V274.358C39.5116 275.898 38.0316 276.618 36.4316 276.618C33.6716 276.618 31.4116 274.538 31.4116 271.518C31.4116 268.498 33.6716 266.458 36.4316 266.458C38.0316 266.458 39.6516 267.198 40.4716 268.738V266.578ZM36.4316 267.398C34.1916 267.398 32.3916 269.038 32.3916 271.518C32.3916 273.998 34.1916 275.658 36.4316 275.658C41.9316 275.658 41.9316 267.398 36.4316 267.398ZM44.1195 266.578H45.0795V268.338C45.8395 266.978 47.2195 266.418 48.5995 266.398C51.2395 266.398 53.0595 268.018 53.0595 270.758V276.458H52.0795V270.778C52.0795 268.538 50.6995 267.338 48.5595 267.358C46.5195 267.378 45.0995 268.918 45.0995 270.958V276.458H44.1195V266.578ZM60.0834 267.358C57.8634 267.358 56.0434 268.738 56.0434 271.518C56.0434 274.258 57.8634 275.658 60.0834 275.658C62.4034 275.658 64.1234 273.958 64.1234 271.498C64.1234 269.038 62.3634 267.358 60.0834 267.358ZM64.1434 262.458H65.1034V276.458H64.1434V274.278C63.3234 275.778 61.7034 276.618 60.0234 276.618C57.2634 276.618 55.0834 274.798 55.0834 271.518C55.0834 268.258 57.2834 266.418 60.0434 266.418C61.7434 266.418 63.3434 267.138 64.1434 268.738V262.458ZM76.4481 266.578H77.4281C77.4281 269.878 77.4281 273.158 77.4281 276.458H76.4481V274.358C75.4881 275.898 74.0081 276.618 72.4081 276.618C69.6481 276.618 67.3881 274.538 67.3881 271.518C67.3881 268.498 69.6481 266.458 72.4081 266.458C74.0081 266.458 75.6281 267.198 76.4481 268.738V266.578ZM72.4081 267.398C70.1681 267.398 68.3681 269.038 68.3681 271.518C68.3681 273.998 70.1681 275.658 72.4081 275.658C77.9081 275.658 77.9081 267.398 72.4081 267.398ZM80.0961 266.578H81.0161L81.0561 268.338C81.6761 266.998 83.0761 266.478 84.3361 266.478C85.0761 266.458 85.7961 266.658 86.4561 267.058L86.0161 267.858C85.4961 267.538 84.9161 267.398 84.3361 267.398C82.4961 267.418 81.0761 268.898 81.0761 270.698V276.458H80.0961V266.578ZM92.3881 267.358C90.1681 267.358 88.3481 268.738 88.3481 271.518C88.3481 274.258 90.1681 275.658 92.3881 275.658C94.7081 275.658 96.4281 273.958 96.4281 271.498C96.4281 269.038 94.6681 267.358 92.3881 267.358ZM96.4481 262.458H97.4081V276.458H96.4481V274.278C95.6281 275.778 94.0081 276.618 92.3281 276.618C89.5681 276.618 87.3881 274.798 87.3881 271.518C87.3881 268.258 89.5881 266.418 92.3481 266.418C94.0481 266.418 95.6481 267.138 96.4481 268.738V262.458ZM107.613 267.738L107.013 268.378C106.013 267.498 105.033 267.338 103.933 267.338C102.393 267.318 100.913 267.898 100.953 269.158C100.993 270.478 102.713 270.738 103.953 270.958C105.713 271.258 108.133 271.558 108.033 273.858C107.973 276.038 105.713 276.618 103.973 276.618C102.233 276.618 100.513 275.958 99.6528 274.638L100.373 273.998C101.193 275.178 102.673 275.678 103.993 275.678C105.193 275.678 107.013 275.358 107.073 273.798C107.113 272.378 105.473 272.098 103.853 271.838C101.933 271.518 100.033 271.158 100.013 269.178C99.9928 267.238 101.933 266.398 103.933 266.418C105.373 266.418 106.633 266.818 107.613 267.738ZM109.833 275.858C109.833 274.818 111.413 274.818 111.413 275.858C111.413 276.898 109.833 276.898 109.833 275.858Z" fill="#1E1E1E"/>
<defs>
<clipPath id="clip0_2742_794">
<rect width="33.7215" height="35.9696" fill="white" transform="translate(20 17.7444)"/>
</clipPath>
</defs>
</svg>
