<svg width="48" height="32" viewBox="0 0 48 32" fill="none" xmlns="http://www.w3.org/2000/svg">
<path d="M0 25.1785L3.85868 24.8245C4.09092 26.0466 4.55986 26.9442 5.2655 27.5173C5.98007 28.0904 6.94027 28.3769 8.14611 28.3769C9.42341 28.3769 10.3836 28.1241 11.0267 27.6184C11.6788 27.1043 12.0048 26.5059 12.0048 25.8233C12.0048 25.385 11.8664 25.0142 11.5895 24.7108C11.3215 24.3989 10.8481 24.1292 10.1692 23.9017C9.70477 23.75 8.64631 23.4803 6.99387 23.0926C4.86802 22.5954 3.37635 21.9843 2.51886 21.2595C1.31302 20.2397 0.710105 18.9966 0.710105 17.5302C0.710105 16.5862 0.991468 15.7055 1.55419 14.888C2.12585 14.0621 2.94314 13.4342 4.00607 13.0044C5.07792 12.5745 6.36862 12.3596 7.87815 12.3596C10.3434 12.3596 12.1968 12.8695 13.4384 13.8893C14.6889 14.9091 15.3454 16.2702 15.4079 17.9726L11.4421 18.137C11.2724 17.1846 10.9061 16.502 10.3434 16.089C9.78963 15.6676 8.95447 15.4569 7.83795 15.4569C6.68571 15.4569 5.78356 15.6802 5.13151 16.1269C4.7117 16.4135 4.5018 16.7969 4.5018 17.2773C4.5018 17.7156 4.69831 18.0906 5.09132 18.4025C5.59152 18.7986 6.80629 19.2115 8.73563 19.6414C10.665 20.0712 12.0897 20.5179 13.0097 20.9814C13.9386 21.4365 14.6621 22.0644 15.1802 22.865C15.7072 23.6573 15.9707 24.6391 15.9707 25.8106C15.9707 26.8725 15.658 27.867 15.0328 28.7941C14.4075 29.7212 13.5233 30.4123 12.3799 30.8674C11.2366 31.3141 9.81196 31.5374 8.10592 31.5374C5.62278 31.5374 3.71577 30.998 2.38488 29.9192C1.05399 28.832 0.259032 27.2518 0 25.1785Z" fill="#F3F3F3"/>
<path d="M18 31.2087V12.6757H21.7649V19.3506C22.9261 18.1033 24.3016 17.4796 25.8916 17.4796C27.6244 17.4796 29.058 18.0738 30.1924 19.2621C31.3268 20.442 31.894 22.1402 31.894 24.3568C31.894 26.6492 31.3134 28.4148 30.1522 29.6538C28.9999 30.8927 27.5976 31.5121 25.9452 31.5121C25.1323 31.5121 24.3284 31.3225 23.5335 30.9432C22.7474 30.5555 22.0686 29.9867 21.4969 29.2366V31.2087H18ZM21.7381 24.2051C21.7381 25.5957 21.9703 26.6239 22.4348 27.2897C23.0869 28.2336 23.9533 28.7056 25.0341 28.7056C25.8648 28.7056 26.5704 28.3727 27.151 27.7069C27.7405 27.0327 28.0353 25.975 28.0353 24.5338C28.0353 22.9999 27.7405 21.8958 27.151 21.2216C26.5615 20.5389 25.8067 20.1976 24.8867 20.1976C23.9845 20.1976 23.2342 20.5305 22.6358 21.1963C22.0373 21.8537 21.7381 22.8566 21.7381 24.2051Z" fill="#F3F3F3"/>
<path d="M35.8599 17.2773V10.8552H29V6.42209H35.8599V0H40.4331V6.42209H47.3109V10.8552H40.4331V17.2773H35.8599Z" fill="#FFC727"/>
</svg>