<svg width="46" height="46" viewBox="0 0 46 46" fill="none" xmlns="http://www.w3.org/2000/svg">
<path fill-rule="evenodd" clip-rule="evenodd" d="M10.7916 34.9391H28.0122V26.2878H10.7916V34.9391ZM28.485 35.8846H10.3188C10.0579 35.8846 9.84607 35.6728 9.84607 35.4118L9.8461 25.815C9.8461 25.554 10.0578 25.3423 10.3188 25.3423H28.485C28.7459 25.3423 28.9576 25.554 28.9576 25.815L28.9577 35.4118C28.9577 35.6728 28.7459 35.8846 28.485 35.8846Z" fill="black"/>
<path fill-rule="evenodd" clip-rule="evenodd" d="M5.26406 18.5288V40.6443C5.26406 41.7769 6.21355 42.6986 7.38065 42.6986H38.6195C39.7866 42.6986 40.7361 41.7769 40.7361 40.6443V15.0768C40.7361 13.6939 39.5789 12.5695 38.1558 12.5695H29.8697C28.7863 12.5695 28.3029 13.3549 27.6036 14.6369C27.4822 14.8585 27.3574 15.0883 27.2245 15.3157L25.4796 18.2949C25.395 18.4402 25.2399 18.5288 25.0716 18.5288L5.26406 18.5288ZM38.6194 43.644H7.38079C5.69261 43.644 4.3186 42.298 4.3186 40.6443L4.31868 18.0561C4.31868 17.7951 4.53036 17.5834 4.79135 17.5834L24.8009 17.5833L26.4086 14.8372C26.5342 14.6229 26.6556 14.3997 26.7738 14.1839C27.46 12.9257 28.1699 11.624 29.8696 11.624H38.1558C40.1001 11.624 41.6816 13.1727 41.6816 15.0768V40.6443C41.6816 42.298 40.3076 43.644 38.6194 43.644Z" fill="black"/>
<path fill-rule="evenodd" clip-rule="evenodd" d="M36.3024 12.5694C36.0414 12.5694 35.8296 12.3576 35.8296 12.0966L35.8296 8.0988H31.6135C31.3525 8.0988 31.1407 7.8871 31.1407 7.62609C31.1407 7.36507 31.3525 7.15335 31.6135 7.15335L36.3024 7.15332C36.5633 7.15332 36.775 7.36507 36.775 7.62609L36.7751 12.0966C36.7751 12.3576 36.5633 12.5694 36.3024 12.5694ZM4.7913 18.5287C4.53029 18.5287 4.31848 18.3169 4.31848 18.056L4.31856 7.62606C4.31856 7.36507 4.53023 7.15335 4.79122 7.15335L9.48012 7.15332C9.74106 7.15332 9.95281 7.36507 9.95281 7.62609C9.95286 7.88708 9.74106 8.09883 9.48007 8.09883L5.26404 8.0988V18.0559C5.26404 18.3169 5.05221 18.5287 4.7913 18.5287Z" fill="black"/>
<path fill-rule="evenodd" clip-rule="evenodd" d="M9.48012 18.5287C9.2191 18.5287 9.00732 18.317 9.00732 18.056L9.00738 2.82894C9.00738 2.56713 9.21908 2.3562 9.48007 2.3562H31.6136C31.8754 2.3562 32.0863 2.56716 32.0863 2.82894L32.0863 12.0967C32.0863 12.3576 31.8754 12.5694 31.6136 12.5694C31.3526 12.5694 31.1408 12.3577 31.1408 12.0967V3.30168H9.95286V18.056C9.95286 18.317 9.74106 18.5287 9.48012 18.5287Z" fill="black"/>
<path fill-rule="evenodd" clip-rule="evenodd" d="M28.9701 6.41716H12.1238C11.8628 6.41716 11.651 6.20541 11.651 5.94442C11.651 5.68343 11.8628 5.47168 12.1237 5.47168H28.9701C29.2311 5.47168 29.4428 5.68343 29.4428 5.94442C29.4428 6.20541 29.2311 6.41716 28.9701 6.41716Z" fill="black"/>
<path fill-rule="evenodd" clip-rule="evenodd" d="M28.9701 9.41619H12.1238C11.8628 9.41619 11.651 9.20449 11.651 8.94347C11.651 8.68246 11.8628 8.47073 12.1237 8.47073L28.9701 8.4707C29.2311 8.4707 29.4428 8.68248 29.4428 8.94347C29.4428 9.20446 29.2311 9.41621 28.9701 9.41619Z" fill="black"/>
<path fill-rule="evenodd" clip-rule="evenodd" d="M25.0715 12.4142H12.1236C11.8626 12.4142 11.6509 12.2025 11.6509 11.9415C11.6509 11.6805 11.8626 11.4688 12.1236 11.4688H25.0715C25.3334 11.4688 25.5442 11.6805 25.5442 11.9415C25.5443 12.2025 25.3333 12.4142 25.0715 12.4142Z" fill="black"/>
<path fill-rule="evenodd" clip-rule="evenodd" d="M22.6183 15.4125H12.1236C11.8626 15.4125 11.6509 15.2016 11.6509 14.9398C11.6509 14.6788 11.8626 14.467 12.1236 14.467H22.6183C22.8794 14.467 23.091 14.6788 23.091 14.9398C23.0911 15.2016 22.8793 15.4125 22.6183 15.4125Z" fill="black"/>
<path fill-rule="evenodd" clip-rule="evenodd" d="M34.0127 43.6439C33.7517 43.6439 33.5399 43.4322 33.5399 43.1712L33.54 12.0968C33.54 11.8357 33.7516 11.624 34.0127 11.624C34.2736 11.624 34.4854 11.8357 34.4854 12.0968L34.4855 43.1712C34.4855 43.4322 34.2736 43.6439 34.0127 43.6439Z" fill="black"/>
<path fill-rule="evenodd" clip-rule="evenodd" d="M28.4848 23.1479H10.3187C10.0578 23.1479 9.84595 22.9361 9.84595 22.6751C9.84597 22.4141 10.0577 22.2024 10.3187 22.2024H28.4848C28.7458 22.2024 28.9575 22.4141 28.9575 22.6751C28.9576 22.9361 28.7458 23.1479 28.4848 23.1479Z" fill="black"/>
<path fill-rule="evenodd" clip-rule="evenodd" d="M28.4848 38.7944H10.3187C10.0578 38.7944 9.84595 38.5826 9.84595 38.3216C9.84597 38.0607 10.0577 37.8489 10.3187 37.8489H28.4848C28.7458 37.8489 28.9575 38.0607 28.9575 38.3216C28.9576 38.5826 28.7458 38.7944 28.4848 38.7944Z" fill="black"/>
<path fill-rule="evenodd" clip-rule="evenodd" d="M24.8902 33.498C23.389 33.498 22.1677 32.2045 22.1677 30.6156C22.1678 29.0258 23.389 27.7332 24.8901 27.7332C25.4835 27.7332 26.0711 27.9433 26.543 28.3249C26.7458 28.4891 26.7778 28.787 26.6136 28.9897C26.4487 29.1932 26.1515 29.2244 25.948 29.0603C25.6395 28.81 25.2734 28.6778 24.8901 28.6778C23.9102 28.6778 23.1132 29.547 23.1132 30.6156C23.1132 31.6834 23.9101 32.5525 24.8901 32.5525C25.2028 32.5525 25.5048 32.4647 25.7732 32.2964L25.7732 31.479H24.9139C24.6521 31.479 24.4412 31.2672 24.4412 31.0062C24.4412 30.7453 24.6521 30.5335 24.9139 30.5335H26.246C26.507 30.5335 26.7187 30.7453 26.7187 31.0062L26.7187 32.5377C26.7187 32.6805 26.6538 32.816 26.543 32.9054C26.0712 33.2879 25.4835 33.498 24.8902 33.498Z" fill="black"/>
<path fill-rule="evenodd" clip-rule="evenodd" d="M19.0112 28.6747C18.1552 28.6747 17.4576 29.5447 17.4576 30.6141C17.4576 31.6827 18.1552 32.5527 19.0112 32.5527C19.8681 32.5527 20.5649 31.6827 20.5649 30.6141C20.5649 29.5447 19.8681 28.6747 19.0112 28.6747ZM19.0112 33.4982C17.6332 33.4982 16.5121 32.2039 16.5121 30.6141C16.5122 29.0235 17.6332 27.7292 19.0112 27.7292C20.3893 27.7292 21.5104 29.0235 21.5104 30.6141C21.5104 32.2039 20.3892 33.4982 19.0112 33.4982Z" fill="black"/>
<path fill-rule="evenodd" clip-rule="evenodd" d="M15.8679 33.498H12.5578C12.2968 33.498 12.0851 33.2863 12.0851 33.0253V28.2035C12.0851 27.9425 12.2968 27.7307 12.5578 27.7307C12.8189 27.7307 13.0306 27.9425 13.0306 28.2035V32.5525H15.8679C16.1289 32.5525 16.3406 32.7642 16.3406 33.0253C16.3406 33.2863 16.1288 33.498 15.8679 33.498Z" fill="black"/>
</svg>
