<svg width="46" height="46" viewBox="0 0 46 46" fill="none" xmlns="http://www.w3.org/2000/svg">
<path d="M19.4062 7.90625C19.8032 7.90625 20.125 7.58445 20.125 7.1875C20.125 6.79055 19.8032 6.46875 19.4062 6.46875C19.0093 6.46875 18.6875 6.79055 18.6875 7.1875C18.6875 7.58445 19.0093 7.90625 19.4062 7.90625Z" fill="black"/>
<path d="M29.4234 31.0499C29.1977 30.8221 28.929 30.6413 28.6329 30.5179C28.3368 30.3945 28.0192 30.3311 27.6984 30.3312H27.6913C27.3726 30.3315 27.0572 30.3953 26.7634 30.5187C26.4696 30.6421 26.2033 30.8227 25.9799 31.0499L25.4092 31.6156C24.4773 31.3935 23.6252 30.9173 22.9476 30.24C22.27 29.5627 21.7935 28.7108 21.5711 27.7789L22.1324 27.2125C22.3604 26.9868 22.5413 26.7181 22.6647 26.422C22.7882 26.1259 22.8518 25.8083 22.8518 25.4875C22.8518 25.1667 22.7882 24.8491 22.6647 24.553C22.5413 24.2569 22.3604 23.9883 22.1324 23.7625L20.8171 22.4472C20.3888 22.0149 19.8138 21.7594 19.2059 21.7311C18.5981 21.7029 18.0018 21.9041 17.5353 22.2948L15.6838 23.8409C15.0071 24.4049 14.536 25.177 14.344 26.0367C14.152 26.8965 14.2498 27.7956 14.6222 28.594C15.6309 30.7784 17.0091 32.7722 18.6961 34.4877C20.4128 36.176 22.4081 37.5552 24.5942 38.5645C25.3923 38.9361 26.2909 39.0335 27.1501 38.8415C28.0094 38.6495 28.781 38.1789 29.3451 37.5029L30.8911 35.6499C31.282 35.1835 31.4833 34.5872 31.4551 33.9793C31.4269 33.3714 31.1712 32.7963 30.7387 32.3681L29.4234 31.0499ZM29.7864 34.7278L28.2404 36.5843C27.8798 37.017 27.3861 37.3182 26.8364 37.4408C26.2866 37.5634 25.7118 37.5006 25.2015 37.2621C23.1673 36.3242 21.3103 35.042 19.7124 33.4721C18.1435 31.8751 16.8623 30.0191 15.9253 27.9859C15.6868 27.4754 15.624 26.9003 15.7466 26.3503C15.8692 25.8004 16.1704 25.3065 16.6031 24.9456L18.4575 23.4003C18.6491 23.2404 18.8937 23.1582 19.143 23.17C19.3923 23.1819 19.6281 23.2869 19.8037 23.4642L21.119 24.7795C21.213 24.8728 21.2876 24.9837 21.3385 25.106C21.3893 25.2283 21.4154 25.3594 21.4151 25.4918C21.4147 25.623 21.3881 25.7528 21.3367 25.8735C21.2854 25.9943 21.2104 26.1035 21.1161 26.1948L20.3118 27.007C20.1791 27.1408 20.1042 27.3215 20.1034 27.5101C20.2208 28.9429 20.8734 30.2791 21.9312 31.2526C22.9042 32.3118 24.2404 32.9656 25.6737 33.084C25.8623 33.0832 26.043 33.0083 26.1768 32.8755L26.9941 32.0655C27.0851 31.9728 27.1938 31.8992 27.3136 31.8488C27.4334 31.7985 27.562 31.7724 27.692 31.7723C27.8239 31.7724 27.9545 31.7986 28.0763 31.8494C28.198 31.9002 28.3085 31.9747 28.4014 32.0684L29.7167 33.3837C29.8949 33.5585 30.0009 33.7939 30.0138 34.0432C30.0267 34.2925 29.9456 34.5376 29.7864 34.7299V34.7278Z" fill="black"/>
<path d="M39.4443 13.9149C39.2674 12.7441 38.8298 11.6281 38.1638 10.6491C37.4978 9.67006 36.6205 8.85315 35.5965 8.25865C34.5725 7.66414 33.4281 7.30722 32.2477 7.21424C31.0673 7.12125 29.8811 7.29458 28.7766 7.72143C27.3998 5.77972 25.4541 4.31336 23.2082 3.5248C20.9623 2.73624 18.527 2.66439 16.2385 3.31917C13.95 3.97394 11.9213 5.32305 10.4324 7.1802C8.94345 9.03736 8.06783 11.3109 7.9264 13.6871C5.71262 13.8748 3.65668 14.9096 2.18701 16.5758C0.717339 18.2419 -0.0526969 20.411 0.0373703 22.6309C0.127438 24.8508 1.07066 26.9503 2.67048 28.4919C4.2703 30.0335 6.40332 30.8984 8.62503 30.9061H10.0992C10.2736 34.2101 11.709 37.3212 14.1093 39.5982C16.5097 41.8752 19.6922 43.1445 23.0007 43.1445C26.3093 43.1445 29.4918 41.8752 31.8921 39.5982C34.2925 37.3212 35.7279 34.2101 35.9023 30.9061H37.375C39.4814 30.9066 41.515 30.1359 43.0921 28.7396C44.6691 27.3433 45.6804 25.4179 45.935 23.327C46.1897 21.2361 45.67 19.1243 44.4742 17.3903C43.2784 15.6563 41.4892 14.42 39.4443 13.9149ZM37.375 29.4686H35.9124C35.7961 27.2943 35.1304 25.1849 33.9775 23.3377C33.9275 23.2575 33.8621 23.1879 33.7852 23.1329C33.7083 23.0779 33.6213 23.0386 33.5292 23.0173C33.4371 22.9959 33.3417 22.9929 33.2484 23.0084C33.1551 23.024 33.0659 23.0577 32.9856 23.1077C32.9054 23.1577 32.8358 23.2231 32.7808 23.3C32.7258 23.3769 32.6866 23.4639 32.6652 23.556C32.6438 23.6481 32.6408 23.7435 32.6563 23.8368C32.6719 23.9301 32.7056 24.0194 32.7556 24.0996C34.2888 26.5557 34.8394 29.4997 34.2976 32.344C33.7557 35.1882 32.1612 37.7235 29.8323 39.4439C27.5034 41.1643 24.6114 41.9431 21.7335 41.6251C18.8556 41.307 16.2035 39.9154 14.3065 37.728C12.4095 35.5405 11.4072 32.7182 11.4995 29.8243C11.5918 26.9303 12.772 24.1776 14.8046 22.1156C16.8372 20.0535 19.5726 18.8338 22.4649 18.6998C25.3572 18.5658 28.1937 19.5275 30.4082 21.3928C30.4803 21.4538 30.5638 21.5 30.6538 21.5288C30.7438 21.5575 30.8387 21.5683 30.9328 21.5604C31.027 21.5525 31.1187 21.5262 31.2027 21.4829C31.2867 21.4396 31.3613 21.3801 31.4223 21.308C31.4834 21.2358 31.5296 21.1523 31.5583 21.0623C31.5871 20.9723 31.5978 20.8775 31.59 20.7833C31.5821 20.6891 31.5557 20.5974 31.5124 20.5135C31.4691 20.4295 31.4097 20.3548 31.3375 20.2938C29.5005 18.7447 27.268 17.7383 24.8906 17.3878C22.5133 17.0373 20.0853 17.3564 17.8793 18.3094C15.6734 19.2623 13.7767 20.8114 12.4024 22.7827C11.0281 24.7539 10.2305 27.0692 10.0992 29.4686H8.62503C6.71878 29.4686 4.89061 28.7114 3.5427 27.3635C2.19478 26.0156 1.43753 24.1874 1.43753 22.2811C1.43753 20.3749 2.19478 18.5467 3.5427 17.1988C4.89061 15.8509 6.71878 15.0936 8.62503 15.0936C8.81565 15.0936 8.99847 15.0179 9.13326 14.8831C9.26805 14.7483 9.34378 14.5655 9.34378 14.3749C9.34253 12.1944 10.05 10.0726 11.3596 8.32917C12.6691 6.58575 14.5099 5.31518 16.6044 4.70893C18.6989 4.10268 20.9337 4.19359 22.9721 4.96796C25.0104 5.74233 26.7419 7.15821 27.9055 9.00224C27.9997 9.15133 28.1454 9.26058 28.3149 9.30922C28.4844 9.35786 28.6659 9.34248 28.8248 9.26602C29.7708 8.8112 30.8133 8.59342 31.8623 8.6315C32.9113 8.66957 33.9353 8.96235 34.8458 9.48457C35.7564 10.0068 36.5262 10.7427 37.0888 11.6289C37.6514 12.5151 37.9899 13.5249 38.0751 14.5711C38.0884 14.7287 38.1533 14.8775 38.2597 14.9944C38.3661 15.1113 38.5081 15.1899 38.6637 15.218C40.4303 15.5369 42.0134 16.5058 43.1012 17.9338C44.189 19.3617 44.7026 21.1453 44.5409 22.9331C44.3793 24.7209 43.554 26.3833 42.2277 27.593C40.9013 28.8026 39.1701 29.4718 37.375 29.4686Z" fill="black"/>
<path d="M15.9563 7.25939C14.6245 7.91272 13.5016 8.92504 12.7143 10.1823C11.9269 11.4395 11.5064 12.8916 11.5 14.375C11.5 14.5656 11.5757 14.7485 11.7105 14.8833C11.8453 15.018 12.0281 15.0938 12.2188 15.0938C12.4094 15.0938 12.5922 15.018 12.727 14.8833C12.8618 14.7485 12.9375 14.5656 12.9375 14.375C12.9433 13.161 13.288 11.9727 13.9329 10.944C14.5777 9.9154 15.4971 9.08732 16.5873 8.55314C16.7589 8.46974 16.8903 8.32161 16.9526 8.14132C17.015 7.96104 17.0031 7.76338 16.9197 7.59181C16.8363 7.42025 16.6882 7.28885 16.5079 7.22651C16.3276 7.16416 16.13 7.17599 15.9584 7.25939H15.9563Z" fill="black"/>
</svg>
