<svg width="46" height="46" viewBox="0 0 46 46" fill="none" xmlns="http://www.w3.org/2000/svg">
<g clip-path="url(#clip0_2635_544)">
<g clip-path="url(#clip1_2635_544)">
<path d="M3.60313 23.8105H24.8996C25.1035 23.8105 25.2979 23.7239 25.4342 23.5721C25.5706 23.4205 25.636 23.2181 25.6142 23.0152C25.3159 20.228 24.0019 17.6531 21.9139 15.7651C20.643 14.6157 19.1463 13.7791 17.5347 13.2963C19.2463 12.2069 20.3851 10.2942 20.3851 8.11927C20.3851 4.73701 17.6335 1.98546 14.2514 1.98546C10.8693 1.98546 8.11778 4.73701 8.11778 8.11927C8.11778 10.2942 9.25655 12.2069 10.9682 13.2963C9.35654 13.7791 7.85975 14.6158 6.58882 15.7652C4.50085 17.6532 3.18679 20.2281 2.88851 23.0153C2.86677 23.2181 2.93218 23.4205 3.06856 23.5722C3.20494 23.7239 3.39927 23.8105 3.60313 23.8105ZM9.55528 8.11927C9.55528 5.5297 11.662 3.42296 14.2515 3.42296C16.841 3.42296 18.9477 5.5297 18.9477 8.11927C18.9477 10.708 16.8422 12.8142 14.2537 12.8155C14.2529 12.8155 14.2521 12.8155 14.2513 12.8155C14.2505 12.8155 14.2498 12.8155 14.249 12.8155C11.6607 12.8141 9.55528 10.7079 9.55528 8.11927ZM14.2496 14.253C14.2502 14.253 14.2509 14.2531 14.2515 14.2531C14.2521 14.2531 14.2527 14.2531 14.2533 14.2531C19.101 14.254 23.1873 17.6918 24.0679 22.3731H4.43499C5.31546 17.6917 9.40182 14.2539 14.2496 14.253ZM17.0109 33.5396C17.0109 33.9365 16.6891 34.2583 16.2921 34.2583H6.88683C6.4899 34.2583 6.16808 33.9365 6.16808 33.5396C6.16808 33.1426 6.4899 32.8208 6.88683 32.8208H16.2921C16.6891 32.8208 17.0109 33.1426 17.0109 33.5396ZM44.7666 33.1369L43.541 32.6652C43.3553 32.0123 43.0948 31.3843 42.7638 30.7905L43.2973 29.5896C43.4179 29.3179 43.3589 28.9999 43.1486 28.7896L41.3354 26.9766C41.1252 26.7663 40.8073 26.7072 40.5356 26.828L39.3342 27.3616C38.7405 27.0306 38.1127 26.7703 37.4601 26.5846L36.9883 25.3586C36.8815 25.0811 36.6149 24.898 36.3175 24.898H33.7534C33.4561 24.898 33.1895 25.0811 33.0827 25.3586L32.6108 26.5846C31.9582 26.7703 31.3303 27.0306 30.7367 27.3616L29.5353 26.828C29.2635 26.7072 28.9455 26.7664 28.7353 26.9766L26.9223 28.7897C26.712 28.9999 26.653 29.3179 26.7737 29.5897L27.2264 30.609H5.47898C5.28554 30.609 5.10011 30.6871 4.96489 30.8255L0.977625 34.9061C0.704679 35.1853 0.704769 35.6314 0.977625 35.9107L4.93964 39.9654C5.07486 40.1038 5.26021 40.1818 5.45373 40.1818H6.05955C6.29341 40.1818 6.51263 40.0681 6.64721 39.8768L8.82781 36.7798L11.0084 39.8768C11.143 40.068 11.3622 40.1818 11.5961 40.1818C11.8299 40.1818 12.0492 40.0681 12.1837 39.8768L14.3643 36.7798L16.5449 39.8768C16.6795 40.068 16.8987 40.1818 17.1326 40.1818C17.3665 40.1818 17.5857 40.0681 17.7203 39.8768L19.9009 36.7797L22.0815 39.8768C22.2161 40.068 22.4353 40.1818 22.6691 40.1818H26.955L26.7738 40.5898C26.6532 40.8616 26.7122 41.1795 26.9225 41.3898L28.7357 43.2028C28.9458 43.413 29.2637 43.4722 29.5355 43.3514L30.7369 42.8178C31.3307 43.1489 31.9585 43.4092 32.611 43.5948L33.0828 44.8207C33.1896 45.0982 33.4562 45.2812 33.7536 45.2812H36.3176C36.615 45.2812 36.8815 45.0981 36.9883 44.8207L37.46 43.5952C38.113 43.4094 38.741 43.1491 39.3348 42.818L40.5356 43.3513C40.8073 43.4721 41.1252 43.413 41.3355 43.2027L43.1487 41.3897C43.359 41.1794 43.418 40.8615 43.2974 40.5897L42.7638 39.3882C43.0948 38.7944 43.3549 38.1668 43.5407 37.5142L44.7667 37.0423C45.0441 36.9356 45.2272 36.6689 45.2272 36.3715V33.8076C45.227 33.5103 45.0439 33.2436 44.7666 33.1369ZM20.4884 35.1175C20.3538 34.9263 20.1346 34.8125 19.9007 34.8125C19.6668 34.8125 19.4476 34.9262 19.313 35.1175L17.1324 38.2146L14.9518 35.1175C14.8172 34.9263 14.598 34.8125 14.3642 34.8125C14.1303 34.8125 13.9111 34.9262 13.7765 35.1175L11.5959 38.2146L9.4153 35.1175C9.28071 34.9263 9.0615 34.8125 8.82763 34.8125C8.59377 34.8125 8.37455 34.9262 8.23996 35.1175L5.71562 38.7028L2.49661 35.4083L5.78157 32.0465H26.7408C26.3546 33.0835 26.1225 34.2006 26.1318 35.1064C26.1435 36.2456 26.467 37.5831 26.989 38.7443H23.0419L20.4884 35.1175ZM43.7895 35.8781L42.6802 36.3051C42.4591 36.3901 42.2941 36.5788 42.2393 36.8093C42.0578 37.5714 41.757 38.2972 41.345 38.9663C41.2208 39.1681 41.2041 39.4182 41.3002 39.6348L41.7831 40.7221L40.668 41.8373L39.5811 41.3546C39.3647 41.2584 39.1145 41.2751 38.9125 41.3996C38.2436 41.8116 37.5177 42.1125 36.7551 42.2939C36.5246 42.3487 36.3358 42.5137 36.2507 42.7349L35.8239 43.8438H34.2469L33.8199 42.7345C33.7348 42.5133 33.5461 42.3482 33.3155 42.2934C32.5537 42.1121 31.8279 41.8113 31.1587 41.3992C30.957 41.2748 30.7067 41.2582 30.4902 41.3543L29.4028 41.8372L28.2877 40.722L28.7704 39.6353C28.8666 39.4186 28.8499 39.1685 28.7255 38.9667C28.0464 37.8639 27.5818 36.3066 27.5693 35.0915C27.5577 33.9697 28.0548 32.3022 28.7257 31.2127C28.8499 31.0109 28.8667 30.7608 28.7705 30.5442L28.2877 29.457L29.4028 28.3418L30.4901 28.8248C30.7066 28.9208 30.9569 28.9042 31.1587 28.7798C31.8277 28.3679 32.5534 28.067 33.3155 27.8856C33.5461 27.8307 33.7348 27.6658 33.8199 27.4446L34.2469 26.3353H35.8239L36.2509 27.4446C36.336 27.6657 36.5248 27.8307 36.7552 27.8856C37.5173 28.067 38.243 28.3678 38.9121 28.7798C39.114 28.9042 39.3642 28.9208 39.5806 28.8248L40.668 28.3418L41.7831 29.4569L41.3003 30.5437C41.2042 30.7604 41.2209 31.0106 41.3452 31.2124C41.7573 31.8815 42.0583 32.6074 42.2397 33.3699C42.2945 33.6004 42.4595 33.7892 42.6807 33.8742L43.7895 34.301V35.8781ZM35.0355 29.5317C31.9708 29.5317 29.4775 32.025 29.4775 35.0896C29.4775 38.1543 31.9708 40.6476 35.0355 40.6476C38.1002 40.6476 40.5934 38.1543 40.5934 35.0896C40.5934 32.025 38.1002 29.5317 35.0355 29.5317ZM35.0355 39.2101C32.7634 39.2101 30.915 37.3616 30.915 35.0896C30.915 32.8177 32.7634 30.9692 35.0355 30.9692C37.3076 30.9692 39.1559 32.8177 39.1559 35.0896C39.1559 37.3616 37.3076 39.2101 35.0355 39.2101ZM37.8844 33.0585C38.165 33.3392 38.165 33.7943 37.8844 34.075L34.8387 37.1207C34.6983 37.261 34.5143 37.3312 34.3304 37.3312C34.1464 37.3312 33.9625 37.261 33.8223 37.1207L32.1866 35.4851C31.906 35.2045 31.906 34.7494 32.1866 34.4687C32.4676 34.188 32.9226 34.1882 33.203 34.4687L34.3304 35.596L36.8679 33.0585C37.1487 32.7778 37.6038 32.778 37.8844 33.0585ZM28.453 23.8105H41.9316C42.8825 23.8105 43.6562 23.0368 43.6562 22.0859V11.3734C43.6562 10.4225 42.8825 9.64886 41.9316 9.64886H32.9265V6.94214C32.9265 5.69268 33.9429 4.67628 35.1924 4.67628C36.4418 4.67628 37.4583 5.69268 37.4583 6.94214V8.43264C37.4583 8.82957 37.7801 9.15139 38.1771 9.15139H40.6971C41.094 9.15139 41.4158 8.82957 41.4158 8.43264V6.94214C41.4158 3.51055 38.624 0.71875 35.1924 0.71875C31.7608 0.71875 28.9689 3.51055 28.9689 6.94214V9.64877H28.453C27.5021 9.64877 26.7285 10.4224 26.7285 11.3733V22.0858C26.7285 23.0369 27.5021 23.8105 28.453 23.8105ZM30.4065 6.94214C30.4065 4.30316 32.5534 2.15625 35.1925 2.15625C37.8315 2.15625 39.9784 4.30316 39.9784 6.94214V7.71389H38.8959V6.94214C38.8959 4.90008 37.2346 3.23878 35.1925 3.23878C33.1504 3.23878 31.4891 4.90008 31.4891 6.94214V9.64877H30.4065V6.94214ZM28.166 11.3734C28.166 11.2151 28.2948 11.0864 28.453 11.0864H41.9316C42.0899 11.0864 42.2187 11.2152 42.2187 11.3734V22.0859C42.2187 22.2442 42.0899 22.373 41.9316 22.373H28.453C28.2947 22.373 28.166 22.2441 28.166 22.0859V11.3734ZM33.2517 17.5689V19.3488C33.2517 20.4189 34.1223 21.2895 35.1925 21.2895C36.2626 21.2895 37.1331 20.419 37.1331 19.3488V17.5689C37.833 16.9936 38.2403 16.1413 38.2403 15.2178C38.2403 13.5372 36.8731 12.1699 35.1925 12.1699C33.5118 12.1699 32.1445 13.5372 32.1445 15.2178C32.1445 16.1414 32.5519 16.9937 33.2517 17.5689ZM35.1925 13.6075C36.0804 13.6075 36.8028 14.3299 36.8028 15.2179C36.8028 15.7805 36.5164 16.2933 36.0367 16.5895C35.8247 16.7205 35.6956 16.9518 35.6956 17.201V19.3488C35.6956 19.6215 35.4652 19.852 35.1925 19.852C34.915 19.852 34.6892 19.6263 34.6892 19.3488V17.201C34.6892 16.9518 34.5601 16.7204 34.3481 16.5895C33.8683 16.2933 33.582 15.7806 33.582 15.2179C33.582 14.3299 34.3044 13.6075 35.1925 13.6075Z" fill="black"/>
</g>
</g>
<defs>
<clipPath id="clip0_2635_544">
<rect width="46" height="46" fill="white"/>
</clipPath>
<clipPath id="clip1_2635_544">
<rect width="46" height="46" fill="white"/>
</clipPath>
</defs>
</svg>
