<svg width="495" height="94" viewBox="0 0 495 94" fill="none" xmlns="http://www.w3.org/2000/svg">
<path d="M75.9346 62.7838C76.5131 62.4356 77.2074 62.2808 77.9017 62.2808C78.4417 62.2808 78.9817 62.3969 79.4445 62.6291C79.9459 62.8612 80.3702 63.2095 80.7174 63.5964L81.9902 62.3195C81.4888 61.7004 80.8716 61.2361 80.1774 60.9266C79.3288 60.5783 78.4417 60.4236 77.516 60.4623C76.5903 60.5009 75.7032 60.7718 74.9317 61.1974C74.0832 61.7004 73.3889 62.3969 72.8875 63.2868C72.3861 64.2155 72.1547 65.2215 72.1547 66.2662C72.1547 67.3109 72.3861 68.3169 72.8875 69.2456C73.3504 70.0968 74.0446 70.832 74.8932 71.335C75.7803 71.838 76.7831 72.1088 77.786 72.0701C78.596 72.0701 79.4059 71.9154 80.1774 71.6058C80.8716 71.2963 81.5273 70.7933 81.9902 70.2129L80.7174 68.936C80.3702 69.3616 79.9459 69.7099 79.4445 69.942C78.9431 70.1742 78.4031 70.2903 77.8631 70.2903C77.1688 70.2903 76.5131 70.1355 75.896 69.7872C75.3175 69.439 74.8546 68.9747 74.546 68.3943C74.2375 67.7752 74.0446 67.0401 74.0446 66.3436C74.0446 65.6471 74.1989 64.9506 74.546 64.2929C74.8932 63.6351 75.356 63.1321 75.9346 62.7838ZM73.9675 49.7056H79.3674V54.5422H81.2959V43.2439H79.3674V47.8871H73.9675V43.2439H72.0389V54.5422H73.9675V49.7056ZM83.6873 54.5422H85.6158V43.2439H83.6873V54.5422ZM93.87 43.7469C93.1371 43.3987 92.3271 43.2439 91.5171 43.2826H88.0458V54.5422H89.9743V51.292H91.5171C92.3271 51.292 93.1371 51.1373 93.87 50.8277C94.5257 50.5182 95.0657 50.0539 95.4128 49.4348C95.7599 48.777 95.9528 48.0418 95.9528 47.3067C95.9528 46.5715 95.7599 45.8363 95.4128 45.1786C95.0657 44.5208 94.5257 44.0565 93.87 43.7469ZM93.33 48.9318C92.9057 49.3187 92.25 49.5122 91.4014 49.5122H89.9743V45.0238H91.4014C92.25 45.0238 92.9057 45.2172 93.33 45.6042C93.7543 45.9911 93.9857 46.5328 93.9857 47.268C93.9857 48.0031 93.7928 48.5448 93.33 48.9318ZM112.847 43.2826L107.64 54.5422H109.838L110.995 51.9498H116.781L117.938 54.5422H120.175L114.968 43.2439H112.847V43.2826ZM111.728 50.286L113.888 45.372L116.048 50.286H111.728ZM92.1343 61.1974C91.2472 60.6944 90.2443 60.4623 89.2029 60.4623C88.1615 60.4623 87.1972 60.7331 86.2715 61.1974C85.423 61.7004 84.6901 62.3969 84.2273 63.2868C83.7259 64.2155 83.4944 65.2215 83.4944 66.2662C83.4944 67.3109 83.7644 68.3169 84.2273 69.2456C84.6901 70.0968 85.423 70.832 86.2715 71.335C87.1587 71.838 88.1615 72.0701 89.2029 72.0701C90.2443 72.0701 91.2086 71.7993 92.1343 71.335C92.9828 70.832 93.6771 70.1355 94.1785 69.2456C94.6799 68.3169 94.9114 67.3109 94.9114 66.2662C94.9114 65.2215 94.6414 64.2155 94.1785 63.2868C93.6771 62.3969 92.9828 61.7004 92.1343 61.1974ZM92.4428 68.2782C92.1343 68.8586 91.6714 69.3616 91.1314 69.7099C90.5529 70.0581 89.8972 70.2129 89.2415 70.2129C88.5858 70.2129 87.9301 70.0194 87.3515 69.7099C86.773 69.3616 86.3101 68.8973 86.0401 68.2782C85.7315 67.6591 85.5387 66.9627 85.5387 66.2275C85.5387 65.4923 85.693 64.8346 86.0401 64.1768C86.3487 63.5964 86.8115 63.0934 87.3515 62.7451C87.9301 62.3969 88.5858 62.2421 89.2415 62.2421C89.8972 62.2421 90.5529 62.4356 91.1314 62.7451C91.71 63.0934 92.1728 63.5577 92.4428 64.1768C92.7514 64.7959 92.9443 65.4923 92.9443 66.2275C92.9443 66.9627 92.7514 67.6591 92.4428 68.2782ZM158.013 60.617V62.3969H161.523V71.9154H163.49V62.3969H167V60.617H158.013ZM154.889 68.2395L149.065 60.617H147.445V71.9154H149.412V64.2929L155.236 71.9154H156.856V60.617H154.889V68.2395ZM106.213 60.617L102.934 66.6144L99.5784 60.617H97.1485V71.9154H99.2313V64.0994L102.896 70.5998L106.637 63.9833V71.8767H108.72V60.5783H106.213V60.617ZM116.858 61.0813C116.125 60.7331 115.277 60.5783 114.467 60.617H110.957V71.9154H112.924V68.6652H114.467C115.277 68.6652 116.125 68.5104 116.858 68.2008C117.514 67.8913 118.054 67.427 118.439 66.8079C118.787 66.1501 118.979 65.415 118.979 64.6798C118.979 63.9446 118.787 63.2095 118.439 62.5517C118.054 61.8939 117.514 61.3909 116.858 61.0813ZM116.318 66.3049C115.894 66.6918 115.238 66.8853 114.351 66.8853H112.885V62.3969H114.351C115.2 62.3969 115.855 62.5904 116.318 62.9773C116.742 63.3642 116.974 63.9059 116.974 64.6411C117.012 65.3376 116.781 65.918 116.318 66.3049ZM103.937 51.9498L105.094 54.5422H107.331L102.124 43.2439H100.003L94.8342 54.5422H97.0328L98.1899 51.9498H103.937ZM101.083 45.372L103.243 50.286H98.9227L101.083 45.372ZM122.759 60.617H120.792V71.9154H128.275V70.1355H122.759V60.617ZM129.895 71.8767H131.862V60.5783H129.895V71.8767ZM50.8251 84.6066C50.8636 87.3152 50.9022 89.2885 50.9408 90.2558C50.9793 90.3719 50.9793 90.5267 50.9408 90.6427C50.9408 90.7975 50.9408 90.9136 50.9408 90.9136C50.9408 91.4553 51.0179 91.997 51.1722 92.5C51.3265 91.997 51.4036 91.4553 51.4036 90.9136C51.4036 90.7201 51.4808 87.8955 51.5965 83.3685C51.5579 83.4072 51.5193 83.4458 51.5193 83.4845C51.2493 83.8328 51.0179 84.2197 50.8251 84.6066ZM42.8024 28.115C43.4195 27.4572 43.998 26.6833 44.4223 25.8708C44.1138 26.5673 42.9181 29.1984 44.0752 29.4305C45.348 29.6627 46.7751 29.2758 49.3594 25.9869C49.2822 21.7693 49.2051 18.0935 49.1665 15.3076H47.778C47.7008 15.3076 47.6623 15.3076 47.5851 15.3076C46.8137 15.3076 45.5409 15.2302 44.6923 13.9534C43.7666 12.5604 43.7281 11.1288 43.6895 10.0841C43.6509 8.57505 43.2652 5.82785 41.3752 4.28013C40.0638 3.23543 36.5153 2.42287 33.2368 3.73843C32.1568 4.16406 29.9969 5.28615 27.8755 6.33086C25.947 7.29818 23.4784 8.49766 22.707 8.49766C23.9799 7.91727 25.677 7.06602 27.5284 6.02132C29.6497 4.86053 31.8868 3.62235 33.0054 3.15804C35.2425 2.2681 39.5238 1.99725 41.7224 3.77713C43.8052 5.47962 44.2295 8.42028 44.268 10.0067C44.3066 11.0514 44.3452 12.3283 45.1552 13.6051C45.888 14.6885 47.0451 14.6885 47.7394 14.6885H47.8937H49.1279C49.1279 14.3403 49.1279 14.0307 49.1279 13.6825C47.8937 13.7599 46.1194 13.8373 45.348 12.1735C44.4223 10.1615 45.4252 5.0153 42.3395 2.8485C39.2538 0.681694 34.3168 1.2234 29.9197 3.77713C25.5613 6.29217 19.7756 9.58106 12.6401 12.4443C5.50449 15.3076 1.06886 16.4684 0.220307 16.5845C-0.589678 16.7393 0.876008 17.281 3.92309 17.3583C6.97018 17.4357 9.51584 17.2036 9.51584 17.2036L31.8868 6.98864C31.8868 6.98864 12.6015 16.6232 10.9815 17.6679C9.36156 18.7126 8.05016 19.0608 8.16587 20.0282C8.28158 20.9955 9.51584 20.8794 12.9101 20.802C16.3043 20.7246 17.0371 20.4151 18.1942 20.0668C19.3514 19.7186 31.8868 13.9147 31.8868 13.9147C31.8868 13.9147 18.4642 20.6085 16.5357 22.1563C14.6072 23.704 16.69 24.207 18.0014 24.2457C19.3514 24.2844 22.9384 24.0909 24.9441 23.0849C26.9498 22.0789 33.1983 18.0548 33.1983 18.0548C33.1983 18.0548 27.0269 22.5045 25.8312 23.5105C24.867 24.3231 24.3656 25.0195 24.597 25.8708C24.9441 26.9542 26.7955 26.8381 29.264 25.9482C29.264 25.9482 31.8097 25.0582 32.774 24.207C33.7382 23.3171 36.4382 20.9181 36.4382 20.9181C36.4382 20.9181 33.2368 24.2457 32.4268 25.6773C31.6554 27.109 31.5011 27.4572 31.8868 28.2697C32.4268 29.4305 36.5153 28.2311 37.6724 26.9929C38.521 26.0256 39.331 25.0195 40.0638 23.9361C40.0638 23.9361 38.8296 25.9482 38.5596 27.109C38.2896 28.2697 37.981 29.1984 39.0996 29.3145C40.3338 29.5079 41.4909 29.5466 42.8024 28.115ZM50.4394 54.4649C50.5551 54.3875 50.6708 54.3101 50.7865 54.2327C51.0179 54.0779 51.2108 53.9618 51.365 53.8071C51.6736 53.6136 51.9822 53.3815 52.2907 53.188C52.3293 50.9825 52.4065 48.7383 52.445 46.5328C51.8279 46.262 51.1722 45.9911 50.4779 45.7203C50.4394 45.7203 50.4008 45.6816 50.3622 45.6816C50.2851 45.6429 50.2465 45.6429 50.1694 45.6042C49.7065 45.4494 49.2822 45.2559 48.7808 45.1012C48.2022 44.869 47.6237 44.6755 47.0451 44.4434C43.1881 46.4941 42.4166 47.4614 42.4166 49.3574C42.4166 52.0272 44.6923 53.2267 48.6265 55.7417C49.2437 55.2774 49.8608 54.8518 50.4394 54.4649ZM45.6952 49.7056C45.6952 49.7056 45.4252 48.0031 49.7837 46.0298C49.8994 45.9911 50.0151 45.9137 50.1308 45.875C50.1694 48.5448 50.2079 51.2147 50.2851 53.8845C48.1251 52.4141 45.6952 51.0212 45.6952 49.7056ZM52.2907 82.5559C52.0979 82.7881 51.905 83.0202 51.7122 83.2137C52.8307 84.7227 52.7536 86.1931 52.1365 88.089C52.715 87.4312 53.8721 85.7674 52.9079 83.6006C52.715 83.2524 52.5222 82.9042 52.2907 82.5559ZM50.5165 66.6918C50.9408 67.1174 51.4422 67.6205 51.9436 68.1235C52.2522 68.433 52.5607 68.7425 52.9079 69.0908C52.9464 69.1295 53.0236 69.1682 53.1007 69.2456C55.7235 66.9627 58.1149 64.7959 58.1149 62.0874C58.1149 59.9593 56.0707 58.0246 54.0264 56.4769C53.8336 56.593 53.6407 56.709 53.4479 56.8638C52.985 57.1734 52.5607 57.4442 52.175 57.7151C52.175 57.7151 52.1365 57.7151 52.1365 57.7538C52.0593 57.8311 51.9436 57.8698 51.8665 57.9472C51.3265 58.3341 50.8251 58.6824 50.3622 59.0306C50.4394 61.623 50.4779 64.2155 50.5165 66.6918ZM52.175 58.1407C54.7207 59.9979 55.7235 61.1974 55.7235 62.513C55.7235 63.8672 54.2964 65.4536 51.9822 67.7752C52.0208 64.6798 52.0979 61.4683 52.175 58.1407ZM66.2533 20.9568C66.2533 20.9568 68.9533 23.3557 69.9176 24.2457C70.8818 25.1356 73.4275 25.9869 73.4275 25.9869C75.896 26.8768 77.7474 26.9929 78.0945 25.9095C78.3645 25.0582 77.8245 24.3231 76.8603 23.5492C75.6646 22.5432 69.4933 18.0935 69.4933 18.0935C69.4933 18.0935 75.7417 22.1176 77.7474 23.1236C79.7531 24.1296 83.3402 24.3231 84.6901 24.2844C86.0401 24.2457 88.0844 23.7427 86.1558 22.195C84.2273 20.6472 70.8047 13.9534 70.8047 13.9534C70.8047 13.9534 83.3016 19.796 84.4973 20.1055C85.6544 20.4538 86.3872 20.7246 89.7815 20.8407C93.1757 20.9181 94.3714 21.0342 94.5257 20.0668C94.6799 19.1382 93.33 18.79 91.71 17.7066C90.09 16.6619 70.8047 7.02733 70.8047 7.02733L93.1757 17.2423C93.1757 17.2423 95.7213 17.4744 98.7684 17.397C101.816 17.3196 103.281 16.7779 102.471 16.6232C101.661 16.4684 97.187 15.3463 90.0515 12.483C82.9159 9.61976 77.1303 6.36955 72.7718 3.81582C68.4133 1.30078 63.4377 0.720386 60.352 2.88719C57.2664 5.05399 58.2692 10.1615 57.3435 12.2122C56.5721 13.876 54.7978 13.7986 53.5636 13.7212C53.5636 14.0308 53.5636 14.379 53.525 14.7272H54.7978H54.9521C55.6464 14.7272 56.8035 14.7272 57.5364 13.6438C58.3463 12.4056 58.3849 11.0901 58.4235 10.0454C58.4621 8.45897 58.8863 5.51831 60.9692 3.81582C63.1677 2.03595 67.449 2.3068 69.6861 3.19673C70.8047 3.62236 73.0418 4.86053 75.1632 6.06001C77.0146 7.10472 78.7117 7.95596 79.9845 8.53636C79.1745 8.53636 76.7446 7.33688 74.816 6.36955C72.7332 5.28615 70.5733 4.20275 69.4547 3.77713C66.1762 2.46157 62.6277 3.27412 61.3163 4.31883C59.3878 5.86654 59.0406 8.61374 59.002 10.1228C58.9635 11.1675 58.9249 12.6378 57.9992 13.9921C57.1892 15.2689 55.9164 15.3463 55.1064 15.3463C55.0293 15.3463 54.9907 15.3463 54.9136 15.3463H53.525C53.4479 18.1322 53.3707 21.7693 53.2936 25.9095C55.9164 29.2758 57.4207 29.7014 58.6549 29.4305C59.812 29.1984 58.6549 26.5673 58.3078 25.8708C58.7706 26.6833 59.3106 27.4185 59.9277 28.115C61.2006 29.5466 62.3963 29.5079 63.5534 29.3531C64.7105 29.1984 64.3634 28.3084 64.0934 27.1477C63.8234 25.9869 62.5891 23.9748 62.5891 23.9748C63.322 25.0195 64.132 26.0642 64.9805 27.0316C66.1376 28.2697 70.2261 29.5079 70.7661 28.3084C71.1133 27.5346 70.9975 27.1477 70.2261 25.716C69.4933 24.2844 66.2533 20.9568 66.2533 20.9568ZM51.4036 9.11675C52.0208 9.11675 52.6379 8.92328 53.1393 8.57505C53.6407 8.22681 54.065 7.7238 54.2964 7.1821C54.5278 6.60171 54.605 5.98262 54.4893 5.36354C54.3736 4.74445 54.065 4.20275 53.6407 3.73843C53.2164 3.31281 52.6379 3.00327 52.0208 2.88719C51.4036 2.77111 50.7865 2.8098 50.2079 3.08065C49.6294 3.31281 49.1279 3.73843 48.8194 4.24144C48.4722 4.74445 48.2794 5.36354 48.2794 5.98262C48.2794 6.40825 48.3565 6.79517 48.5108 7.1821C48.6651 7.56903 48.8965 7.91727 49.2051 8.18812C49.5137 8.49766 49.8222 8.72982 50.2079 8.88459C50.5551 9.03936 50.9793 9.11675 51.4036 9.11675ZM61.6634 32.642C61.6634 32.642 61.5863 30.4752 58.0764 30.2431C54.4893 30.0109 54.335 31.5586 54.4121 32.139C54.6821 32.139 54.9136 32.2164 54.9136 32.2938C54.9136 32.3712 54.7207 32.4486 54.4893 32.4486C54.6821 33.029 55.2221 33.7254 56.7649 34.4993C58.0378 35.1184 58.6549 35.0797 59.3878 34.9636C59.3878 34.9636 60.2363 35.4666 60.2363 36.2792C60.2363 37.053 58.8863 38.5621 52.5607 41.7349C52.9464 24.6326 53.2936 9.61976 53.2936 9.61976H53.6793C53.8336 9.61976 53.9879 9.54237 54.1036 9.42629C54.2193 9.31021 54.2964 9.15544 54.2964 9.00067V8.80721C54.2964 8.72982 54.2964 8.65243 54.2579 8.57505C54.2193 8.49766 54.1807 8.42028 54.1036 8.38158C53.7564 8.76851 53.3707 9.07806 52.9079 9.31022C52.445 9.54237 51.9436 9.61976 51.4422 9.61976C50.9408 9.61976 50.4394 9.50368 49.9765 9.31022C49.5137 9.11675 49.0894 8.76851 48.7808 8.38158C48.7037 8.45897 48.6651 8.49766 48.6265 8.57505C48.588 8.65243 48.588 8.72982 48.588 8.80721V9.00067C48.588 9.15544 48.6651 9.31021 48.7808 9.42629C48.8965 9.54237 49.0508 9.61976 49.2051 9.61976H49.5908C49.5908 9.61976 49.8608 24.207 50.1308 40.9997C50.6708 41.2706 51.2108 41.5414 51.8279 41.851C51.905 41.8897 52.0208 41.9283 52.0979 41.967C53.525 42.6635 54.7207 43.2439 55.7235 43.7856C59.1178 42.47 62.4348 40.961 63.4377 38.8329C65.2119 34.8862 61.6634 32.642 61.6634 32.642ZM56.9578 31.7521C56.5721 31.7521 56.2635 31.5586 56.2635 31.3265C56.2635 31.0943 56.5721 30.9009 56.9578 30.9009C57.3435 30.9009 57.6521 31.0943 57.6521 31.3265C57.6521 31.5586 57.3435 31.7521 56.9578 31.7521ZM50.8251 80.7374C51.1336 80.3504 51.4036 79.9635 51.7122 79.6152C51.7508 77.4098 51.8279 74.9334 51.8665 72.2636C51.4808 71.8767 51.0565 71.4897 50.5936 71.0641C50.4394 70.948 50.3236 70.7933 50.1694 70.6772C49.9765 70.4837 49.7837 70.329 49.5908 70.1742C48.5108 71.1802 46.3894 73.4244 46.3894 75.359C46.3894 77.6419 48.588 79.9635 50.2465 81.6273C50.4008 81.279 50.5936 81.0082 50.8251 80.7374ZM50.5936 71.5284C50.6708 74.8173 50.7094 77.8354 50.7479 80.4278C49.4751 78.7253 48.1251 76.9841 48.1251 75.7847C48.1251 74.6626 48.7808 73.3857 50.5936 71.5284ZM51.4808 42.354C43.9595 38.7168 42.4166 37.053 42.4166 36.2405C42.4166 35.4279 43.2652 34.9249 43.2652 34.9249C43.998 35.0797 44.6152 35.0797 45.888 34.4606C47.4308 33.7255 47.9708 32.9903 48.1637 32.4099C47.9323 32.4099 47.7394 32.3325 47.7394 32.2551C47.7394 32.1777 47.9708 32.1003 48.2408 32.1003V32.0617C48.2794 31.4813 48.0865 29.9722 44.538 30.2044C41.0281 30.4366 40.951 32.6034 40.951 32.6034C40.951 32.6034 37.4025 34.8862 39.2538 38.7555C40.8738 42.1992 48.4722 44.0178 52.8693 45.9911C57.2278 47.9644 56.9578 49.6669 56.9578 49.6669C56.9578 51.1373 54.0264 52.685 51.7122 54.3101C49.3979 55.9352 44.4995 58.7598 44.4995 62.0874C44.4995 65.1441 47.5466 67.5044 50.5165 70.1355C53.525 72.7666 54.4893 74.353 54.4893 75.8233C54.4893 77.8354 51.1722 80.5439 49.4751 83.9102C47.778 87.2765 51.1336 92.5 50.0922 89.7528C49.0122 87.0056 49.5908 85.071 50.9793 83.1363C52.6765 80.776 56.3021 78.4545 56.3021 75.3203C56.3021 72.6892 52.4836 69.5938 52.4836 69.5938C49.0894 66.1888 46.9294 64.2542 46.9294 62.5517C46.9294 60.8492 48.5494 59.3402 53.1007 56.3608C57.6135 53.4201 60.2749 52.2594 60.2749 49.3961C60.2749 46.881 59.002 45.9911 51.4808 42.354ZM45.6952 30.9396C46.0809 30.9396 46.3894 31.133 46.3894 31.3652C46.3894 31.5973 46.0809 31.7908 45.6952 31.7908C45.3094 31.7908 45.0009 31.5973 45.0009 31.3652C45.0009 31.133 45.3094 30.9396 45.6952 30.9396ZM138.573 60.617L133.366 71.9154H135.565L136.722 69.3229H142.508L143.665 71.9154H145.902L140.695 60.617H138.573ZM137.455 67.6591L139.615 62.7451L141.775 67.6591H137.455Z" fill="#1C204E"/>
<path d="M235.672 75.6696C256.051 75.6696 272.571 59.1493 272.571 38.7704C272.571 18.3915 256.051 1.87109 235.672 1.87109C215.293 1.87109 198.773 18.3915 198.773 38.7704C198.773 59.1493 215.293 75.6696 235.672 75.6696Z" stroke="#1C204E" stroke-width="1.98784"/>
<path d="M235.493 69.2799C252.442 69.2799 266.181 55.5407 266.181 38.5926C266.181 21.6444 252.442 7.90527 235.493 7.90527C218.545 7.90527 204.806 21.6444 204.806 38.5926C204.806 55.5407 218.545 69.2799 235.493 69.2799Z" stroke="#1C204E" stroke-width="1.49088"/>
<path d="M219.512 32.2907V29.6715L221.448 24.3193H222.586L224.522 29.6715V32.2907H223.384V30.4459H220.65V32.2907H219.512ZM223.179 29.3071L222.028 26.1186H222.006L220.855 29.3071H223.179ZM231.35 24.3193V25.4581H229.414V31.1519H231.35V32.2907H226.34V31.1519H228.276V25.4581H226.34V24.3193H231.35ZM237.04 26.3691C237.04 26.111 236.952 25.8946 236.778 25.72C236.603 25.5454 236.387 25.4581 236.129 25.4581H235.218C234.96 25.4581 234.743 25.5492 234.569 25.7314C234.394 25.906 234.307 26.1186 234.307 26.3691V30.2295C234.307 30.48 234.394 30.6964 234.569 30.8786C234.751 31.0532 234.967 31.1405 235.218 31.1405H236.129C236.379 31.1405 236.592 31.0532 236.766 30.8786C236.949 30.6964 237.04 30.48 237.04 30.2295V29.6032H238.179V30.2295C238.179 30.6015 238.087 30.9469 237.905 31.2658C237.723 31.577 237.472 31.8276 237.154 32.0174C236.842 32.1996 236.501 32.2907 236.129 32.2907H235.218C234.846 32.2907 234.504 32.1996 234.193 32.0174C233.882 31.8276 233.631 31.577 233.441 31.2658C233.259 30.9469 233.168 30.6015 233.168 30.2295V26.3691C233.168 25.9971 233.259 25.6555 233.441 25.3442C233.631 25.0254 233.882 24.7748 234.193 24.5926C234.504 24.4104 234.846 24.3193 235.218 24.3193H236.129C236.501 24.3193 236.842 24.4104 237.154 24.5926C237.472 24.7748 237.723 25.0254 237.905 25.3442C238.087 25.6555 238.179 25.9971 238.179 26.3691V26.9954H237.04V26.3691ZM245.007 27.0524C245.007 27.4243 244.916 27.7698 244.733 28.0886C244.551 28.3999 244.301 28.6466 243.982 28.8288C243.67 29.011 243.329 29.1021 242.957 29.1021H241.135V32.2907H239.996V24.3193H242.957C243.329 24.3193 243.67 24.4104 243.982 24.5926C244.301 24.7748 244.551 25.0254 244.733 25.3442C244.916 25.6555 245.007 25.9971 245.007 26.3691V27.0524ZM242.957 27.9634C243.215 27.9634 243.431 27.8761 243.606 27.7015C243.78 27.5268 243.868 27.3105 243.868 27.0524V26.3691C243.868 26.111 243.78 25.8946 243.606 25.72C243.431 25.5454 243.215 25.4581 242.957 25.4581H241.135V27.9634H242.957ZM246.824 32.2907V29.6715L248.76 24.3193H249.899L251.835 29.6715V32.2907H250.696V30.4459H247.963V32.2907H246.824ZM250.491 29.3071L249.341 26.1186H249.318L248.168 29.3071H250.491Z" fill="#1C204E"/>
<path d="M211.13 38.5737H260.214" stroke="#1C204E" stroke-width="0.785352"/>
<path d="M227.478 51.3142V51.7697C227.478 52.0356 227.573 52.2669 227.763 52.4644C227.96 52.654 228.192 52.7491 228.457 52.7491H229.22C229.509 52.7491 229.744 52.6693 229.926 52.5099C230.116 52.343 230.211 52.1341 230.211 51.8836C230.211 51.6633 230.139 51.4583 229.995 51.2687C229.851 51.079 229.668 50.9082 229.448 50.7562C229.236 50.6043 228.94 50.4185 228.56 50.1982C228.112 49.9403 227.748 49.7125 227.467 49.515C227.186 49.31 226.947 49.0669 226.749 48.7862C226.552 48.4976 226.453 48.1712 226.453 47.8068C226.453 47.4424 226.541 47.1161 226.715 46.8275C226.897 46.5389 227.148 46.3151 227.467 46.1556C227.793 45.9962 228.161 45.9165 228.571 45.9165H229.107C229.494 45.9165 229.851 46.0115 230.177 46.2012C230.503 46.3909 230.762 46.6492 230.951 46.9756C231.141 47.2944 231.236 47.6474 231.236 48.0346V48.3762H230.097V48.0346C230.097 47.7613 229.999 47.5296 229.801 47.34C229.611 47.1503 229.38 47.0553 229.107 47.0553H228.571C228.268 47.0553 228.029 47.1236 227.854 47.2602C227.679 47.3894 227.592 47.5716 227.592 47.8068C227.592 48.0346 227.702 48.2396 227.922 48.4218C228.15 48.604 228.507 48.8357 228.993 49.1164C229.479 49.3972 229.877 49.6516 230.188 49.8794C230.507 50.1071 230.781 50.3918 231.008 50.7335C231.236 51.0676 231.35 51.4509 231.35 51.8836C231.35 52.2555 231.255 52.5971 231.065 52.9085C230.883 53.212 230.629 53.4512 230.302 53.6259C229.976 53.8006 229.615 53.8878 229.22 53.8878H228.457C228.07 53.8878 227.713 53.7928 227.387 53.6031C227.068 53.4135 226.814 53.159 226.624 52.8402C226.434 52.5139 226.339 52.1569 226.339 51.7697V51.3142H227.478ZM236.128 52.7377C236.379 52.7377 236.591 52.6505 236.766 52.4758C236.948 52.2936 237.039 52.0772 237.039 51.8267V47.9663C237.039 47.7083 236.952 47.4919 236.777 47.3172C236.603 47.1424 236.386 47.0553 236.128 47.0553H235.217C234.959 47.0553 234.743 47.1464 234.568 47.3286C234.394 47.5033 234.306 47.7157 234.306 47.9663V51.8267C234.306 52.0772 234.394 52.2936 234.568 52.4758C234.75 52.6505 234.967 52.7377 235.217 52.7377H236.128ZM233.167 47.9663C233.167 47.5944 233.259 47.2528 233.441 46.9414C233.631 46.6225 233.881 46.372 234.192 46.1898C234.504 46.0076 234.845 45.9165 235.217 45.9165H236.128C236.5 45.9165 236.842 46.0076 237.153 46.1898C237.472 46.372 237.723 46.6225 237.905 46.9414C238.087 47.2528 238.178 47.5944 238.178 47.9663V51.8267C238.178 52.1985 238.087 52.5441 237.905 52.8629C237.723 53.1743 237.472 53.4249 237.153 53.6145C236.842 53.7967 236.5 53.8878 236.128 53.8878H235.217C234.845 53.8878 234.504 53.7967 234.192 53.6145C233.881 53.4249 233.631 53.1743 233.441 52.8629C233.259 52.5441 233.167 52.1985 233.167 51.8267V47.9663ZM243.867 47.9663C243.867 47.7083 243.78 47.4919 243.606 47.3172C243.431 47.1424 243.214 47.0553 242.956 47.0553H242.045C241.787 47.0553 241.571 47.1464 241.396 47.3286C241.222 47.5033 241.134 47.7157 241.134 47.9663V51.8267C241.134 52.0772 241.222 52.2936 241.396 52.4758C241.579 52.6505 241.795 52.7377 242.045 52.7377H242.956C243.207 52.7377 243.419 52.6505 243.594 52.4758C243.776 52.2936 243.867 52.0772 243.867 51.8267V51.2004H245.006V51.8267C245.006 52.1985 244.915 52.5441 244.733 52.8629C244.551 53.1743 244.3 53.4249 243.981 53.6145C243.67 53.7967 243.328 53.8878 242.956 53.8878H242.045C241.673 53.8878 241.332 53.7967 241.021 53.6145C240.709 53.4249 240.459 53.1743 240.269 52.8629C240.087 52.5441 239.996 52.1985 239.996 51.8267V47.9663C239.996 47.5944 240.087 47.2528 240.269 46.9414C240.459 46.6225 240.709 46.372 241.021 46.1898C241.332 46.0076 241.673 45.9165 242.045 45.9165H242.956C243.328 45.9165 243.67 46.0076 243.981 46.1898C244.3 46.372 244.551 46.6225 244.733 46.9414C244.915 47.2528 245.006 47.5944 245.006 47.9663V48.5926H243.867V47.9663Z" fill="#1C204E"/>
<path d="M226.478 87.2835C226.438 86.9408 226.273 86.6748 225.985 86.4855C225.696 86.2961 225.342 86.2014 224.923 86.2014C224.616 86.2014 224.348 86.251 224.118 86.3502C223.89 86.4494 223.712 86.5858 223.584 86.7594C223.458 86.933 223.395 87.1302 223.395 87.3511C223.395 87.536 223.438 87.6949 223.526 87.8279C223.617 87.9587 223.732 88.068 223.871 88.1559C224.011 88.2416 224.158 88.3126 224.311 88.369C224.464 88.4231 224.605 88.467 224.734 88.5009L225.437 88.6902C225.617 88.7376 225.818 88.8029 226.039 88.8864C226.262 88.9698 226.475 89.0836 226.678 89.2279C226.883 89.3699 227.052 89.5525 227.185 89.7757C227.318 89.9989 227.385 90.2728 227.385 90.5974C227.385 90.9716 227.287 91.3098 227.091 91.6119C226.897 91.914 226.613 92.154 226.238 92.3321C225.866 92.5102 225.414 92.5993 224.882 92.5993C224.386 92.5993 223.957 92.5192 223.594 92.3592C223.233 92.1991 222.949 91.9759 222.742 91.6896C222.537 91.4033 222.421 91.0708 222.394 90.6921H223.259C223.282 90.9536 223.37 91.17 223.523 91.3413C223.679 91.5104 223.875 91.6367 224.111 91.7201C224.35 91.8012 224.607 91.8418 224.882 91.8418C225.203 91.8418 225.49 91.79 225.745 91.6863C225.999 91.5803 226.201 91.4338 226.35 91.2467C226.499 91.0573 226.573 90.8364 226.573 90.5839C226.573 90.3539 226.509 90.1668 226.38 90.0225C226.252 89.8783 226.083 89.761 225.873 89.6709C225.664 89.5807 225.437 89.5018 225.193 89.4342L224.341 89.1907C223.8 89.0351 223.372 88.8131 223.056 88.5245C222.741 88.236 222.583 87.8584 222.583 87.3917C222.583 87.004 222.688 86.6658 222.897 86.3773C223.109 86.0864 223.393 85.861 223.75 85.701C224.108 85.5386 224.508 85.4575 224.95 85.4575C225.396 85.4575 225.793 85.5375 226.14 85.6976C226.487 85.8554 226.763 86.0718 226.965 86.3468C227.171 86.6219 227.279 86.9341 227.29 87.2835H226.478ZM234.607 89.0149C234.607 89.7453 234.475 90.3765 234.211 90.9085C233.947 91.4405 233.586 91.8508 233.126 92.1394C232.666 92.4279 232.141 92.5722 231.55 92.5722C230.959 92.5722 230.434 92.4279 229.974 92.1394C229.514 91.8508 229.152 91.4405 228.889 90.9085C228.625 90.3765 228.493 89.7453 228.493 89.0149C228.493 88.2844 228.625 87.6532 228.889 87.1212C229.152 86.5892 229.514 86.1789 229.974 85.8903C230.434 85.6018 230.959 85.4575 231.55 85.4575C232.141 85.4575 232.666 85.6018 233.126 85.8903C233.586 86.1789 233.947 86.5892 234.211 87.1212C234.475 87.6532 234.607 88.2844 234.607 89.0149ZM233.795 89.0149C233.795 88.4152 233.695 87.9091 233.494 87.4965C233.296 87.084 233.027 86.7718 232.686 86.5599C232.348 86.348 231.969 86.242 231.55 86.242C231.131 86.242 230.751 86.348 230.41 86.5599C230.072 86.7718 229.803 87.084 229.602 87.4965C229.404 87.9091 229.305 88.4152 229.305 89.0149C229.305 89.6145 229.404 90.1206 229.602 90.5332C229.803 90.9457 230.072 91.2579 230.41 91.4698C230.751 91.6818 231.131 91.7877 231.55 91.7877C231.969 91.7877 232.348 91.6818 232.686 91.4698C233.027 91.2579 233.296 90.9457 233.494 90.5332C233.695 90.1206 233.795 89.6145 233.795 89.0149ZM241.59 87.7163H240.751C240.701 87.4751 240.615 87.2632 240.491 87.0806C240.369 86.898 240.22 86.7447 240.044 86.6207C239.871 86.4945 239.678 86.3998 239.466 86.3367C239.254 86.2736 239.033 86.242 238.803 86.242C238.384 86.242 238.004 86.348 237.664 86.5599C237.326 86.7718 237.056 87.084 236.856 87.4965C236.657 87.9091 236.558 88.4152 236.558 89.0149C236.558 89.6145 236.657 90.1206 236.856 90.5332C237.056 90.9457 237.326 91.2579 237.664 91.4698C238.004 91.6818 238.384 91.7877 238.803 91.7877C239.033 91.7877 239.254 91.7561 239.466 91.693C239.678 91.6299 239.871 91.5363 240.044 91.4124C240.22 91.2861 240.369 91.1317 240.491 90.9491C240.615 90.7642 240.701 90.5523 240.751 90.3134H241.59C241.527 90.6673 241.412 90.984 241.245 91.2636C241.078 91.5431 240.871 91.7809 240.623 91.9771C240.375 92.1709 240.096 92.3186 239.787 92.4201C239.481 92.5215 239.153 92.5722 238.803 92.5722C238.213 92.5722 237.687 92.4279 237.228 92.1394C236.768 91.8508 236.406 91.4405 236.142 90.9085C235.878 90.3765 235.746 89.7453 235.746 89.0149C235.746 88.2844 235.878 87.6532 236.142 87.1212C236.406 86.5892 236.768 86.1789 237.228 85.8903C237.687 85.6018 238.213 85.4575 238.803 85.4575C239.153 85.4575 239.481 85.5082 239.787 85.6097C240.096 85.7111 240.375 85.8599 240.623 86.056C240.871 86.2499 241.078 86.4866 241.245 86.7661C241.412 87.0434 241.527 87.3602 241.59 87.7163ZM246.462 85.5522V92.4775H245.623V85.5522H246.462ZM248.982 85.5522V92.4775H248.143V85.5522H248.982Z" fill="#1C204E"/>
<path d="M343.134 2.17371L342.674 1.91309L342.215 2.17371L326.647 10.9968L326.641 11.0005L326.635 11.0042L311.21 20.0737L310.754 20.3416L310.75 20.8701L310.608 38.7627L310.608 38.7701L310.608 38.7776L310.75 56.67L310.754 57.1988L311.21 57.4667L326.635 66.5359L326.641 66.5396L326.647 66.5433L342.215 75.3666L342.674 75.6271L343.134 75.3666L358.701 66.5433L358.708 66.5396L358.714 66.5359L374.139 57.4667L374.594 57.1988L374.599 56.67L374.741 38.7776L374.741 38.7701L374.741 38.7627L374.599 20.8701L374.594 20.3416L374.139 20.0737L358.714 11.0042L358.708 11.0005L358.701 10.9968L343.134 2.17371Z" stroke="#1C204E" stroke-width="1.86502"/>
<path fill-rule="evenodd" clip-rule="evenodd" d="M342.623 11.7427L341.397 15.5132L343.283 16.1258L342.623 11.7427Z" fill="#1C204E"/>
<path fill-rule="evenodd" clip-rule="evenodd" d="M342.623 11.7432L343.848 15.5137L341.963 16.1263L342.623 11.7432Z" fill="#1C204E"/>
<path fill-rule="evenodd" clip-rule="evenodd" d="M346.4 14.4849H342.435V16.4672L346.4 14.4849Z" fill="#1C204E"/>
<path fill-rule="evenodd" clip-rule="evenodd" d="M346.397 14.4868L343.189 16.8172L342.024 15.2134L346.397 14.4868Z" fill="#1C204E"/>
<path fill-rule="evenodd" clip-rule="evenodd" d="M344.956 18.9131L343.731 15.1426L341.846 15.7551L344.956 18.9131Z" fill="#1C204E"/>
<path fill-rule="evenodd" clip-rule="evenodd" d="M344.955 18.9135L341.747 16.5832L342.912 14.9795L344.955 18.9135Z" fill="#1C204E"/>
<path fill-rule="evenodd" clip-rule="evenodd" d="M338.853 14.4873H342.818V16.4696L338.853 14.4873Z" fill="#1C204E"/>
<path fill-rule="evenodd" clip-rule="evenodd" d="M338.855 14.4883L342.062 16.8186L343.228 15.2149L338.855 14.4883Z" fill="#1C204E"/>
<path fill-rule="evenodd" clip-rule="evenodd" d="M340.291 18.9141L341.516 15.1436L343.401 15.7561L340.291 18.9141Z" fill="#1C204E"/>
<path fill-rule="evenodd" clip-rule="evenodd" d="M340.293 18.914L343.5 16.5837L342.335 14.98L340.293 18.914Z" fill="#1C204E"/>
<path fill-rule="evenodd" clip-rule="evenodd" d="M342.623 59.3101L341.397 63.0809L343.283 63.6933L342.623 59.3101Z" fill="#1C204E"/>
<path fill-rule="evenodd" clip-rule="evenodd" d="M342.623 59.3091L343.848 63.0799L341.963 63.6923L342.623 59.3091Z" fill="#1C204E"/>
<path fill-rule="evenodd" clip-rule="evenodd" d="M346.398 62.0518H342.433V64.0341L346.398 62.0518Z" fill="#1C204E"/>
<path fill-rule="evenodd" clip-rule="evenodd" d="M346.395 62.0527L343.188 64.3833L342.022 62.7795L346.395 62.0527Z" fill="#1C204E"/>
<path fill-rule="evenodd" clip-rule="evenodd" d="M344.954 66.4843L343.729 62.7139L341.844 63.3262L344.954 66.4843Z" fill="#1C204E"/>
<path fill-rule="evenodd" clip-rule="evenodd" d="M344.953 66.4857L341.745 64.1555L342.91 62.5518L344.953 66.4857Z" fill="#1C204E"/>
<path fill-rule="evenodd" clip-rule="evenodd" d="M338.85 62.0566H342.814V64.039L338.85 62.0566Z" fill="#1C204E"/>
<path fill-rule="evenodd" clip-rule="evenodd" d="M338.851 62.0571L342.059 64.3873L343.224 62.7836L338.851 62.0571Z" fill="#1C204E"/>
<path fill-rule="evenodd" clip-rule="evenodd" d="M340.293 66.4843L341.518 62.7139L343.403 63.3262L340.293 66.4843Z" fill="#1C204E"/>
<path fill-rule="evenodd" clip-rule="evenodd" d="M340.295 66.4872L343.502 64.1566L342.337 62.5532L340.295 66.4872Z" fill="#1C204E"/>
<path fill-rule="evenodd" clip-rule="evenodd" d="M318.833 35.5288L317.608 39.2995L319.493 39.9119L318.833 35.5288Z" fill="#1C204E"/>
<path fill-rule="evenodd" clip-rule="evenodd" d="M318.834 35.5298L320.059 39.3005L318.174 39.9129L318.834 35.5298Z" fill="#1C204E"/>
<path fill-rule="evenodd" clip-rule="evenodd" d="M322.603 38.2637H318.639V40.2457L322.603 38.2637Z" fill="#1C204E"/>
<path fill-rule="evenodd" clip-rule="evenodd" d="M322.604 38.2651L319.396 40.5953L318.231 38.9916L322.604 38.2651Z" fill="#1C204E"/>
<path fill-rule="evenodd" clip-rule="evenodd" d="M321.163 42.6977L319.938 38.9272L318.053 39.54L321.163 42.6977Z" fill="#1C204E"/>
<path fill-rule="evenodd" clip-rule="evenodd" d="M321.165 42.6976L317.958 40.3674L319.123 38.7637L321.165 42.6976Z" fill="#1C204E"/>
<path fill-rule="evenodd" clip-rule="evenodd" d="M315.058 38.2666H319.023V40.249L315.058 38.2666Z" fill="#1C204E"/>
<path fill-rule="evenodd" clip-rule="evenodd" d="M315.061 38.2651L318.268 40.5953L319.433 38.9916L315.061 38.2651Z" fill="#1C204E"/>
<path fill-rule="evenodd" clip-rule="evenodd" d="M316.502 42.6977L317.727 38.9272L319.612 39.54L316.502 42.6977Z" fill="#1C204E"/>
<path fill-rule="evenodd" clip-rule="evenodd" d="M316.504 42.6991L319.711 40.3689L318.546 38.7651L316.504 42.6991Z" fill="#1C204E"/>
<path fill-rule="evenodd" clip-rule="evenodd" d="M328.399 22.0976L331.607 19.7673L330.441 18.1636L328.399 22.0976Z" fill="#1C204E"/>
<path fill-rule="evenodd" clip-rule="evenodd" d="M328.395 22.0992L329.62 18.3286L331.506 18.9412L328.395 22.0992Z" fill="#1C204E"/>
<path fill-rule="evenodd" clip-rule="evenodd" d="M326.961 17.6641L330.169 19.9944L331.334 18.3907L326.961 17.6641Z" fill="#1C204E"/>
<path fill-rule="evenodd" clip-rule="evenodd" d="M326.963 17.666H330.928V19.6483L326.963 17.666Z" fill="#1C204E"/>
<path fill-rule="evenodd" clip-rule="evenodd" d="M330.734 14.9214L329.509 18.6919L331.395 19.3045L330.734 14.9214Z" fill="#1C204E"/>
<path fill-rule="evenodd" clip-rule="evenodd" d="M330.733 14.9199L331.958 18.6904L330.073 19.303L330.733 14.9199Z" fill="#1C204E"/>
<path fill-rule="evenodd" clip-rule="evenodd" d="M333.059 22.0966L329.852 19.7663L331.017 18.1626L333.059 22.0966Z" fill="#1C204E"/>
<path fill-rule="evenodd" clip-rule="evenodd" d="M333.061 22.0953L331.835 18.3247L329.95 18.9373L333.061 22.0953Z" fill="#1C204E"/>
<path fill-rule="evenodd" clip-rule="evenodd" d="M334.499 17.666L331.292 19.9963L330.127 18.3926L334.499 17.666Z" fill="#1C204E"/>
<path fill-rule="evenodd" clip-rule="evenodd" d="M334.499 17.6685H330.534V19.6508L334.499 17.6685Z" fill="#1C204E"/>
<path fill-rule="evenodd" clip-rule="evenodd" d="M324.355 30.8057L323.129 27.0352L321.244 27.6477L324.355 30.8057Z" fill="#1C204E"/>
<path fill-rule="evenodd" clip-rule="evenodd" d="M324.355 30.8066L321.147 28.4763L322.313 26.8726L324.355 30.8066Z" fill="#1C204E"/>
<path fill-rule="evenodd" clip-rule="evenodd" d="M319.693 30.811L322.901 28.4807L321.735 26.877L319.693 30.811Z" fill="#1C204E"/>
<path fill-rule="evenodd" clip-rule="evenodd" d="M319.689 30.8101L320.915 27.0396L322.8 27.6521L319.689 30.8101Z" fill="#1C204E"/>
<path fill-rule="evenodd" clip-rule="evenodd" d="M318.252 26.3799L321.459 28.7102L322.624 27.1065L318.252 26.3799Z" fill="#1C204E"/>
<path fill-rule="evenodd" clip-rule="evenodd" d="M318.252 26.3828H322.216V28.3651L318.252 26.3828Z" fill="#1C204E"/>
<path fill-rule="evenodd" clip-rule="evenodd" d="M325.799 26.3706L322.592 28.7009L321.427 27.0972L325.799 26.3706Z" fill="#1C204E"/>
<path fill-rule="evenodd" clip-rule="evenodd" d="M325.8 26.373H321.836V28.3553L325.8 26.373Z" fill="#1C204E"/>
<path fill-rule="evenodd" clip-rule="evenodd" d="M322.027 23.6338L323.252 27.4044L321.367 28.0169L322.027 23.6338Z" fill="#1C204E"/>
<path fill-rule="evenodd" clip-rule="evenodd" d="M322.027 23.6353L320.802 27.4058L322.687 28.0184L322.027 23.6353Z" fill="#1C204E"/>
<path fill-rule="evenodd" clip-rule="evenodd" d="M325.791 50.1602H321.826V52.1426L325.791 50.1602Z" fill="#1C204E"/>
<path fill-rule="evenodd" clip-rule="evenodd" d="M325.792 50.1592L322.584 52.4897L321.419 50.886L325.792 50.1592Z" fill="#1C204E"/>
<path fill-rule="evenodd" clip-rule="evenodd" d="M324.351 54.5942L323.126 50.8237L321.24 51.4361L324.351 54.5942Z" fill="#1C204E"/>
<path fill-rule="evenodd" clip-rule="evenodd" d="M324.351 54.5941L321.144 52.2639L322.309 50.6602L324.351 54.5941Z" fill="#1C204E"/>
<path fill-rule="evenodd" clip-rule="evenodd" d="M319.689 54.5912L322.897 52.261L321.732 50.6572L319.689 54.5912Z" fill="#1C204E"/>
<path fill-rule="evenodd" clip-rule="evenodd" d="M319.689 54.5898L320.915 50.8193L322.8 51.4317L319.689 54.5898Z" fill="#1C204E"/>
<path fill-rule="evenodd" clip-rule="evenodd" d="M322.018 47.4194L323.243 51.1903L321.358 51.8026L322.018 47.4194Z" fill="#1C204E"/>
<path fill-rule="evenodd" clip-rule="evenodd" d="M322.021 47.4199L320.796 51.1907L322.681 51.8031L322.021 47.4199Z" fill="#1C204E"/>
<path fill-rule="evenodd" clip-rule="evenodd" d="M318.252 50.1621H322.216V52.1445L318.252 50.1621Z" fill="#1C204E"/>
<path fill-rule="evenodd" clip-rule="evenodd" d="M318.25 50.1611L321.457 52.4917L322.622 50.8879L318.25 50.1611Z" fill="#1C204E"/>
<path fill-rule="evenodd" clip-rule="evenodd" d="M334.502 58.8677H330.538V60.8501L334.502 58.8677Z" fill="#1C204E"/>
<path fill-rule="evenodd" clip-rule="evenodd" d="M334.505 58.8677L331.298 61.1979L330.133 59.5941L334.505 58.8677Z" fill="#1C204E"/>
<path fill-rule="evenodd" clip-rule="evenodd" d="M333.053 63.2968L331.828 59.5264L329.943 60.1387L333.053 63.2968Z" fill="#1C204E"/>
<path fill-rule="evenodd" clip-rule="evenodd" d="M333.055 63.2972L329.848 60.9667L331.013 59.3633L333.055 63.2972Z" fill="#1C204E"/>
<path fill-rule="evenodd" clip-rule="evenodd" d="M328.397 63.2996L331.605 60.969L330.439 59.3652L328.397 63.2996Z" fill="#1C204E"/>
<path fill-rule="evenodd" clip-rule="evenodd" d="M328.393 63.2996L329.618 59.5288L331.504 60.1415L328.393 63.2996Z" fill="#1C204E"/>
<path fill-rule="evenodd" clip-rule="evenodd" d="M330.731 56.125L331.956 59.8955L330.071 60.5082L330.731 56.125Z" fill="#1C204E"/>
<path fill-rule="evenodd" clip-rule="evenodd" d="M330.733 56.124L329.508 59.8945L331.393 60.5072L330.733 56.124Z" fill="#1C204E"/>
<path fill-rule="evenodd" clip-rule="evenodd" d="M326.961 58.8652H330.926V60.8476L326.961 58.8652Z" fill="#1C204E"/>
<path fill-rule="evenodd" clip-rule="evenodd" d="M326.961 58.8652L330.169 61.1954L331.334 59.592L326.961 58.8652Z" fill="#1C204E"/>
<path fill-rule="evenodd" clip-rule="evenodd" d="M366.412 35.5298L367.638 39.3005L365.752 39.9129L366.412 35.5298Z" fill="#1C204E"/>
<path fill-rule="evenodd" clip-rule="evenodd" d="M366.41 35.5308L365.185 39.3015L367.07 39.9139L366.41 35.5308Z" fill="#1C204E"/>
<path fill-rule="evenodd" clip-rule="evenodd" d="M362.641 38.2676H366.605V40.25L362.641 38.2676Z" fill="#1C204E"/>
<path fill-rule="evenodd" clip-rule="evenodd" d="M362.641 38.2661L365.848 40.5963L367.013 38.9926L362.641 38.2661Z" fill="#1C204E"/>
<path fill-rule="evenodd" clip-rule="evenodd" d="M364.08 42.6987L365.306 38.9282L367.191 39.541L364.08 42.6987Z" fill="#1C204E"/>
<path fill-rule="evenodd" clip-rule="evenodd" d="M364.082 42.7015L367.29 40.3713L366.124 38.7676L364.082 42.7015Z" fill="#1C204E"/>
<path fill-rule="evenodd" clip-rule="evenodd" d="M370.183 38.2676H366.219V40.25L370.183 38.2676Z" fill="#1C204E"/>
<path fill-rule="evenodd" clip-rule="evenodd" d="M370.184 38.2661L366.976 40.5963L365.812 38.9926L370.184 38.2661Z" fill="#1C204E"/>
<path fill-rule="evenodd" clip-rule="evenodd" d="M368.741 42.6987L367.516 38.9282L365.631 39.541L368.741 42.6987Z" fill="#1C204E"/>
<path fill-rule="evenodd" clip-rule="evenodd" d="M368.74 42.7001L365.532 40.3699L366.697 38.7661L368.74 42.7001Z" fill="#1C204E"/>
<path fill-rule="evenodd" clip-rule="evenodd" d="M356.85 22.0952L353.643 19.7648L354.807 18.1611L356.85 22.0952Z" fill="#1C204E"/>
<path fill-rule="evenodd" clip-rule="evenodd" d="M356.848 22.0938L355.623 18.3232L353.738 18.9358L356.848 22.0938Z" fill="#1C204E"/>
<path fill-rule="evenodd" clip-rule="evenodd" d="M358.285 17.6646L355.078 19.9949L353.912 18.3911L358.285 17.6646Z" fill="#1C204E"/>
<path fill-rule="evenodd" clip-rule="evenodd" d="M358.283 17.6665H354.318V19.6488L358.283 17.6665Z" fill="#1C204E"/>
<path fill-rule="evenodd" clip-rule="evenodd" d="M354.511 14.9219L355.736 18.6924L353.851 19.305L354.511 14.9219Z" fill="#1C204E"/>
<path fill-rule="evenodd" clip-rule="evenodd" d="M354.512 14.9204L353.287 18.691L355.173 19.3035L354.512 14.9204Z" fill="#1C204E"/>
<path fill-rule="evenodd" clip-rule="evenodd" d="M352.185 22.0976L355.392 19.7673L354.227 18.1636L352.185 22.0976Z" fill="#1C204E"/>
<path fill-rule="evenodd" clip-rule="evenodd" d="M352.183 22.0958L353.408 18.3252L355.293 18.9378L352.183 22.0958Z" fill="#1C204E"/>
<path fill-rule="evenodd" clip-rule="evenodd" d="M350.743 17.6675L353.951 19.9978L355.116 18.3941L350.743 17.6675Z" fill="#1C204E"/>
<path fill-rule="evenodd" clip-rule="evenodd" d="M350.743 17.6694H354.708V19.6518L350.743 17.6694Z" fill="#1C204E"/>
<path fill-rule="evenodd" clip-rule="evenodd" d="M360.896 30.8028L362.121 27.0322L364.007 27.6448L360.896 30.8028Z" fill="#1C204E"/>
<path fill-rule="evenodd" clip-rule="evenodd" d="M360.896 30.8037L364.104 28.4733L362.938 26.8696L360.896 30.8037Z" fill="#1C204E"/>
<path fill-rule="evenodd" clip-rule="evenodd" d="M365.556 30.8061L362.349 28.4758L363.514 26.8721L365.556 30.8061Z" fill="#1C204E"/>
<path fill-rule="evenodd" clip-rule="evenodd" d="M365.561 30.8052L364.336 27.0347L362.451 27.6472L365.561 30.8052Z" fill="#1C204E"/>
<path fill-rule="evenodd" clip-rule="evenodd" d="M366.993 26.3696L363.785 28.7L362.62 27.0963L366.993 26.3696Z" fill="#1C204E"/>
<path fill-rule="evenodd" clip-rule="evenodd" d="M366.992 26.3716H363.028V28.3539L366.992 26.3716Z" fill="#1C204E"/>
<path fill-rule="evenodd" clip-rule="evenodd" d="M359.455 26.3677L362.662 28.698L363.827 27.0943L359.455 26.3677Z" fill="#1C204E"/>
<path fill-rule="evenodd" clip-rule="evenodd" d="M359.456 26.3696H363.421V28.3519L359.456 26.3696Z" fill="#1C204E"/>
<path fill-rule="evenodd" clip-rule="evenodd" d="M363.226 23.6309L362.001 27.4014L363.886 28.014L363.226 23.6309Z" fill="#1C204E"/>
<path fill-rule="evenodd" clip-rule="evenodd" d="M363.226 23.6323L364.452 27.4029L362.566 28.0154L363.226 23.6323Z" fill="#1C204E"/>
<path fill-rule="evenodd" clip-rule="evenodd" d="M359.455 50.1602H363.419V52.1425L359.455 50.1602Z" fill="#1C204E"/>
<path fill-rule="evenodd" clip-rule="evenodd" d="M359.455 50.1602L362.662 52.4907L363.827 50.887L359.455 50.1602Z" fill="#1C204E"/>
<path fill-rule="evenodd" clip-rule="evenodd" d="M360.894 54.5975L362.119 50.8267L364.005 51.4394L360.894 54.5975Z" fill="#1C204E"/>
<path fill-rule="evenodd" clip-rule="evenodd" d="M360.894 54.5979L364.102 52.2673L362.937 50.6636L360.894 54.5979Z" fill="#1C204E"/>
<path fill-rule="evenodd" clip-rule="evenodd" d="M365.556 54.5941L362.349 52.2639L363.514 50.6602L365.556 54.5941Z" fill="#1C204E"/>
<path fill-rule="evenodd" clip-rule="evenodd" d="M365.555 54.5937L364.33 50.8232L362.445 51.4356L365.555 54.5937Z" fill="#1C204E"/>
<path fill-rule="evenodd" clip-rule="evenodd" d="M363.224 47.4199L361.999 51.1907L363.884 51.8031L363.224 47.4199Z" fill="#1C204E"/>
<path fill-rule="evenodd" clip-rule="evenodd" d="M363.223 47.4209L364.448 51.1917L362.562 51.8041L363.223 47.4209Z" fill="#1C204E"/>
<path fill-rule="evenodd" clip-rule="evenodd" d="M366.997 50.1626H363.033V52.145L366.997 50.1626Z" fill="#1C204E"/>
<path fill-rule="evenodd" clip-rule="evenodd" d="M367 50.1621L363.793 52.4927L362.627 50.8889L367 50.1621Z" fill="#1C204E"/>
<path fill-rule="evenodd" clip-rule="evenodd" d="M350.751 58.8667H354.716V60.8491L350.751 58.8667Z" fill="#1C204E"/>
<path fill-rule="evenodd" clip-rule="evenodd" d="M350.749 58.8662L353.956 61.1964L355.121 59.5927L350.749 58.8662Z" fill="#1C204E"/>
<path fill-rule="evenodd" clip-rule="evenodd" d="M352.192 63.2996L353.417 59.5288L355.302 60.1415L352.192 63.2996Z" fill="#1C204E"/>
<path fill-rule="evenodd" clip-rule="evenodd" d="M352.194 63.2991L355.401 60.9685L354.236 59.3647L352.194 63.2991Z" fill="#1C204E"/>
<path fill-rule="evenodd" clip-rule="evenodd" d="M356.853 63.2962L353.646 60.9661L354.811 59.3623L356.853 63.2962Z" fill="#1C204E"/>
<path fill-rule="evenodd" clip-rule="evenodd" d="M356.853 63.2954L355.628 59.5249L353.743 60.1373L356.853 63.2954Z" fill="#1C204E"/>
<path fill-rule="evenodd" clip-rule="evenodd" d="M354.52 56.1338L353.295 59.9042L355.18 60.5166L354.52 56.1338Z" fill="#1C204E"/>
<path fill-rule="evenodd" clip-rule="evenodd" d="M354.52 56.1348L355.746 59.9056L353.86 60.518L354.52 56.1348Z" fill="#1C204E"/>
<path fill-rule="evenodd" clip-rule="evenodd" d="M358.29 58.8677H354.325V60.8501L358.29 58.8677Z" fill="#1C204E"/>
<path fill-rule="evenodd" clip-rule="evenodd" d="M358.292 58.8667L355.085 61.1969L353.92 59.5931L358.292 58.8667Z" fill="#1C204E"/>
<path d="M347.5 37.1341H347.136V35.9699C347.136 33.5249 345.146 31.5356 342.702 31.5356C340.257 31.5356 338.268 33.5249 338.268 35.9697V37.134H337.904C337.159 37.134 336.554 37.7381 336.554 38.4834V44.888C336.554 45.633 337.159 46.238 337.904 46.238H347.5C348.245 46.238 348.849 45.633 348.849 44.888V38.4834C348.849 37.7382 348.245 37.1341 347.5 37.1341ZM345.191 37.1341H340.212V35.9699C340.212 34.5969 341.329 33.4803 342.702 33.4803C344.074 33.4803 345.191 34.5969 345.191 35.9699V37.1341Z" fill="#1C204E"/>
<path d="M336.195 88.3115C336.13 88.1123 336.044 87.9337 335.938 87.7759C335.833 87.6162 335.708 87.4801 335.562 87.3676C335.418 87.2552 335.254 87.1694 335.071 87.1102C334.888 87.051 334.686 87.0214 334.467 87.0214C334.108 87.0214 333.782 87.1142 333.488 87.2996C333.194 87.485 332.96 87.7582 332.787 88.1192C332.613 88.4801 332.526 88.923 332.526 89.4477C332.526 89.9724 332.614 90.4152 332.79 90.7762C332.965 91.1372 333.203 91.4104 333.503 91.5958C333.803 91.7812 334.14 91.8739 334.515 91.8739C334.862 91.8739 335.168 91.8 335.432 91.652C335.698 91.5021 335.905 91.291 336.053 91.0188C336.203 90.7446 336.278 90.4221 336.278 90.0513L336.503 90.0986H334.68V89.4477H336.988V90.0986C336.988 90.5977 336.882 91.0317 336.669 91.4005C336.458 91.7694 336.166 92.0554 335.793 92.2586C335.422 92.4598 334.996 92.5604 334.515 92.5604C333.978 92.5604 333.507 92.4341 333.1 92.1817C332.696 91.9292 332.38 91.5702 332.154 91.1046C331.929 90.6391 331.816 90.0868 331.816 89.4477C331.816 88.9684 331.88 88.5374 332.009 88.1547C332.139 87.77 332.322 87.4426 332.559 87.1723C332.796 86.9021 333.076 86.695 333.399 86.551C333.723 86.407 334.079 86.335 334.467 86.335C334.787 86.335 335.085 86.3833 335.361 86.48C335.639 86.5747 335.887 86.7098 336.104 86.8853C336.323 87.0589 336.505 87.267 336.651 87.5096C336.797 87.7503 336.898 88.0176 336.953 88.3115H336.195ZM340.115 92.4775H338.245V86.4178H340.198C340.786 86.4178 341.289 86.5391 341.707 86.7818C342.125 87.0224 342.446 87.3686 342.669 87.8203C342.891 88.2701 343.003 88.8086 343.003 89.4359C343.003 90.0671 342.89 90.6105 342.666 91.0662C342.441 91.5199 342.113 91.869 341.683 92.1136C341.253 92.3562 340.731 92.4775 340.115 92.4775ZM338.979 91.8266H340.068C340.569 91.8266 340.984 91.7299 341.313 91.5366C341.643 91.3433 341.888 91.0681 342.05 90.7111C342.212 90.3541 342.293 89.929 342.293 89.4359C342.293 88.9467 342.213 88.5255 342.053 88.1724C341.893 87.8174 341.655 87.5452 341.337 87.3558C341.02 87.1645 340.624 87.0688 340.151 87.0688H338.979V91.8266ZM344.234 92.4775V86.4178H346.281C346.757 86.4178 347.145 86.5036 347.447 86.6753C347.751 86.8449 347.976 87.0747 348.122 87.3647C348.268 87.6546 348.341 87.9781 348.341 88.3352C348.341 88.6922 348.268 89.0167 348.122 89.3086C347.978 89.6006 347.755 89.8333 347.453 90.0069C347.151 90.1785 346.765 90.2643 346.293 90.2643H344.826V89.6134H346.269C346.595 89.6134 346.856 89.5572 347.054 89.4447C347.251 89.3323 347.394 89.1804 347.483 88.9891C347.573 88.7958 347.619 88.5778 347.619 88.3352C347.619 88.0925 347.573 87.8756 347.483 87.6842C347.394 87.4929 347.25 87.343 347.051 87.2345C346.851 87.124 346.587 87.0688 346.258 87.0688H344.968V92.4775H344.234ZM349.523 92.4775V86.4178H351.57C352.044 86.4178 352.432 86.4987 352.736 86.6605C353.04 86.8202 353.265 87.0402 353.411 87.3203C353.557 87.6004 353.63 87.919 353.63 88.276C353.63 88.633 353.557 88.9496 353.411 89.2258C353.265 89.5019 353.041 89.7189 352.739 89.8767C352.437 90.0326 352.052 90.1105 351.582 90.1105H349.925V89.4477H351.558C351.882 89.4477 352.142 89.4003 352.34 89.3057C352.539 89.211 352.683 89.0768 352.772 88.9033C352.862 88.7277 352.908 88.5186 352.908 88.276C352.908 88.0334 352.862 87.8213 352.772 87.6398C352.681 87.4584 352.536 87.3183 352.337 87.2197C352.137 87.1191 351.874 87.0688 351.547 87.0688H350.257V92.4775H349.523ZM352.375 89.7554L353.866 92.4775H353.014L351.547 89.7554H352.375Z" fill="#1C204E"/>
<path d="M449.553 76.2148C470.233 76.2148 486.997 59.4502 486.997 38.77C486.997 18.0898 470.233 1.3252 449.553 1.3252C428.873 1.3252 412.108 18.0898 412.108 38.77C412.108 59.4502 428.873 76.2148 449.553 76.2148Z" stroke="#1C204E" stroke-width="1.28952" stroke-miterlimit="10"/>
<path d="M435.126 17.2236H445.059C445.069 17.4268 445.086 17.6161 445.086 17.8054C445.088 20.2483 445.095 22.6912 445.08 25.134C445.078 25.5213 445.164 25.8004 445.481 26.0587C446.176 26.6256 446.847 27.2251 447.495 27.8452C447.664 28.0072 447.801 28.2921 447.805 28.5235C447.833 29.9599 447.876 31.4 447.804 32.8333C447.732 34.2353 448.894 35.0558 450.034 35.0561C451.74 35.0565 453.447 35.0395 455.153 35.0718C455.457 35.0777 455.819 35.2157 456.049 35.4145C457.883 36.9991 459.691 38.6131 461.507 40.2186C461.588 40.2899 461.67 40.3608 461.741 40.4411C462.244 41.0089 462.744 41.5791 463.302 42.2125C462.953 42.5654 462.494 42.9831 462.096 43.452C461.919 43.6606 461.806 43.9644 461.767 44.2396C461.712 44.627 461.752 45.028 461.753 45.4232C461.755 46.1529 461.773 46.1736 462.517 46.3076C462.694 47.0454 462.666 47.0728 461.914 47.1477C459.557 47.3826 457.199 47.6155 454.844 47.8761C454.407 47.9245 454.166 47.8223 454.079 47.3832C454.045 47.2089 453.939 47.0473 453.913 46.8728C453.778 45.9395 453.046 45.5001 452.387 44.9974C452.146 44.8136 451.876 44.6533 451.68 44.4285C451.29 43.9788 450.899 43.582 450.247 43.7736C449.932 42.971 449.869 42.913 449.015 42.9363C448.623 42.9471 448.391 42.815 448.117 42.5159C447.889 42.2673 447.434 42.1804 447.064 42.1206C446.661 42.0555 446.24 42.1037 445.827 42.1038C444.774 42.1038 444.259 41.5985 444.278 40.5418C444.286 40.083 444.314 39.6634 443.672 39.6554C443.573 39.6542 443.449 39.5446 443.382 39.452C442.522 38.2621 441.617 37.1176 440.413 36.2415C440.26 36.1301 440.17 35.8769 440.142 35.6766C440.131 35.5981 440.356 35.4481 440.497 35.3931C441.119 35.1519 440.922 34.6172 440.889 34.1929C440.877 34.0404 440.551 33.8482 440.337 33.7887C439.845 33.6522 439.485 33.411 439.409 32.8861C439.34 32.4083 439.278 31.924 439.282 31.4433C439.285 31.0876 439.176 30.8632 438.86 30.7212C438.419 30.5238 438.235 30.1921 438.112 29.7061C437.986 29.2072 437.654 28.74 437.338 28.3144C436.911 27.7403 436.667 27.1434 436.768 26.4221C436.857 25.785 436.687 25.2335 436.26 24.7365C435.957 24.3845 435.719 23.9768 435.456 23.5913C434.932 22.8242 434.912 22.0895 435.51 21.3877C436.177 20.6029 436.003 19.7488 435.796 18.9055C435.661 18.356 435.379 17.8428 435.126 17.2237V17.2236Z" fill="#1C204E"/>
<path d="M450.066 25.5211C450.176 24.7464 450.212 24.0056 450.394 23.3024C451.021 20.8765 453.898 19.8815 455.704 21.4561C456.697 22.3213 456.95 23.5121 457.015 24.7607C457.028 25.0073 457.017 25.2549 457.017 25.5145C457.135 25.539 457.201 25.5611 457.268 25.5654C458.176 25.6227 458.667 26.0372 458.678 26.9258C458.705 28.989 458.689 31.0533 458.654 33.1165C458.641 33.8713 458.118 34.3097 457.352 34.3142C455.001 34.3282 452.65 34.342 450.299 34.3474C448.947 34.3506 448.512 33.9203 448.524 32.5806C448.54 30.7506 448.568 28.9206 448.597 27.0908C448.618 25.828 449.154 25.6658 450.065 25.5211H450.066ZM451.22 25.5552C452.777 25.5552 454.137 25.5626 455.497 25.5402C455.597 25.5386 455.785 25.3151 455.776 25.2085C455.719 24.5517 455.691 23.8777 455.511 23.2499C455.254 22.35 454.564 21.9019 453.659 21.8881C452.725 21.8738 451.987 22.3057 451.702 23.1928C451.47 23.9132 451.391 24.6824 451.22 25.5552ZM454.517 32.173C454.448 31.6595 454.41 31.1823 454.314 30.717C454.249 30.4049 454.301 30.198 454.531 29.9571C455.03 29.4333 454.966 28.6465 454.44 28.1855C453.948 27.7535 453.205 27.7893 452.744 28.2673C452.285 28.7422 452.272 29.5436 452.785 30.0003C453.079 30.2615 453.101 30.5056 453.033 30.8449C452.948 31.2743 452.91 31.7132 452.848 32.1731L454.517 32.173Z" fill="#1C204E"/>
<path d="M468.761 60.161C467.833 60.161 466.953 60.177 466.076 60.1456C465.926 60.1403 465.711 59.9608 465.653 59.8123C465.496 59.4137 465.384 58.9931 465.302 58.572C465.242 58.2631 465.088 58.1557 464.794 58.1601C463.915 58.1734 463.035 58.1904 462.156 58.1776C461.843 58.1731 461.7 58.2907 461.641 58.5839C461.584 58.8645 461.455 59.1355 461.432 59.4169C461.378 60.0691 461.032 60.2198 460.428 60.1743C459.696 60.1192 458.958 60.1612 458.143 60.1612C458.206 59.9263 458.25 59.7284 458.312 59.5363C459.337 56.3626 460.366 53.1902 461.388 50.0156C461.479 49.7338 461.589 49.5609 461.941 49.5697C462.945 49.5946 463.952 49.5653 464.956 49.5923C465.119 49.5967 465.376 49.7466 465.422 49.8851C466.543 53.2348 467.641 56.592 468.741 59.9484C468.757 59.9966 468.751 60.0516 468.761 60.161ZM463.467 51.4602C463.088 52.9746 462.735 54.3891 462.378 55.8164H464.59C464.217 54.3691 463.856 52.968 463.467 51.4602Z" fill="#1C204E"/>
<path d="M452.75 56.7042V60.121H449.959V49.6165C450.524 49.6165 451.074 49.6056 451.624 49.6189C452.662 49.6438 453.709 49.6121 454.737 49.7315C456.511 49.9375 457.505 51.0976 457.57 52.888C457.636 54.6931 456.621 56.1372 454.969 56.4815C454.274 56.6263 453.55 56.6286 452.75 56.7042H452.75ZM452.791 51.9132V54.3285C453.477 54.3847 454.102 54.3564 454.481 53.7266C454.744 53.2896 454.804 52.7962 454.502 52.3563C454.082 51.743 453.428 51.9526 452.791 51.9132Z" fill="#1C204E"/>
<path d="M437.881 52.3562C437.18 52.1633 436.552 51.9272 435.904 51.8258C434.678 51.6341 433.841 52.183 433.484 53.3692C433.177 54.3891 433.175 55.4288 433.471 56.4527C433.779 57.5219 434.644 58.1008 435.83 57.9583C436.622 57.8632 437.397 57.6286 438.254 57.4402C438.254 58.1107 438.264 58.8184 438.242 59.5252C438.239 59.6271 438.096 59.776 437.986 59.8155C436.366 60.3983 434.725 60.5238 433.091 59.9024C431.895 59.4474 431.116 58.5623 430.728 57.3444C430.246 55.8321 430.209 54.3041 430.678 52.7876C431.197 51.1081 432.34 50.0353 434.046 49.6305C435.637 49.2529 437.176 49.5001 438.714 50.2098C438.429 50.9428 438.153 51.654 437.881 52.3562L437.881 52.3562Z" fill="#1C204E"/>
<path d="M448.282 50.2369C448 50.9721 447.726 51.6855 447.46 52.378C446.861 52.1939 446.325 51.9773 445.769 51.8688C444.256 51.5736 443.401 52.1212 443.01 53.6131C442.774 54.5133 442.776 55.4274 443.03 56.3249C443.372 57.5376 444.186 58.1149 445.443 57.9569C446.232 57.8576 447.004 57.6226 447.854 57.433C447.854 58.101 447.867 58.7921 447.841 59.4819C447.837 59.5995 447.689 59.7741 447.57 59.8158C445.839 60.4216 444.095 60.5561 442.384 59.774C441.234 59.2488 440.564 58.287 440.23 57.093C439.81 55.5889 439.797 54.0839 440.33 52.5986C440.901 51.0042 442.028 50.0222 443.664 49.6148C445.042 49.2715 446.922 49.5156 448.282 50.2369Z" fill="#1C204E"/>
<path d="M443.482 44.5607C444.172 43.7241 444.969 43.7461 445.845 44.1251C445.875 44.6362 445.714 44.989 445.129 45.0832C444.745 45.1451 444.373 45.2839 443.95 45.4008C443.791 45.1151 443.637 44.839 443.482 44.5607Z" fill="#1C204E"/>
<path d="M450.068 45.6533C450.019 45.9287 449.996 46.2668 449.534 46.2532C449.009 46.2378 448.389 45.69 448.467 45.2073C448.501 44.9986 448.782 44.7195 448.994 44.6734C449.43 44.5789 450.06 45.1833 450.068 45.6533Z" fill="#1C204E"/>
<path d="M448.44 47.5553C448.506 47.4583 448.572 47.2567 448.705 47.1937C448.837 47.1308 449.074 47.1493 449.196 47.2331C449.444 47.4037 449.678 47.6186 449.854 47.8616C449.958 48.0055 450.032 48.3438 449.957 48.4093C449.783 48.5625 449.484 48.7157 449.282 48.6685C448.778 48.5507 448.57 48.1131 448.44 47.5553Z" fill="#1C204E"/>
<path d="M443.897 88.2371H443.15C443.106 88.0223 443.029 87.8335 442.918 87.6709C442.81 87.5083 442.677 87.3717 442.521 87.2613C442.366 87.1489 442.195 87.0646 442.006 87.0083C441.817 86.9521 441.62 86.924 441.415 86.924C441.042 86.924 440.704 87.0184 440.401 87.2071C440.099 87.3958 439.859 87.6739 439.681 88.0413C439.504 88.4088 439.416 88.8595 439.416 89.3936C439.416 89.9277 439.504 90.3784 439.681 90.7458C439.859 91.1133 440.099 91.3913 440.401 91.5801C440.704 91.7688 441.042 91.8632 441.415 91.8632C441.62 91.8632 441.817 91.835 442.006 91.7788C442.195 91.7226 442.366 91.6393 442.521 91.5289C442.677 91.4164 442.81 91.2789 442.918 91.1163C443.029 90.9516 443.106 90.7629 443.15 90.5501H443.897C443.841 90.8653 443.739 91.1474 443.59 91.3963C443.441 91.6453 443.257 91.8571 443.036 92.0318C442.815 92.2045 442.567 92.336 442.292 92.4263C442.019 92.5167 441.727 92.5619 441.415 92.5619C440.889 92.5619 440.422 92.4334 440.012 92.1764C439.602 91.9194 439.28 91.554 439.045 91.0801C438.81 90.6063 438.693 90.0441 438.693 89.3936C438.693 88.7431 438.81 88.1809 439.045 87.707C439.28 87.2332 439.602 86.8678 440.012 86.6108C440.422 86.3538 440.889 86.2253 441.415 86.2253C441.727 86.2253 442.019 86.2705 442.292 86.3608C442.567 86.4512 442.815 86.5837 443.036 86.7584C443.257 86.931 443.441 87.1419 443.59 87.3908C443.739 87.6378 443.841 87.9199 443.897 88.2371ZM450.067 88.2371H449.32C449.276 88.0223 449.199 87.8335 449.088 87.6709C448.98 87.5083 448.848 87.3717 448.691 87.2613C448.536 87.1489 448.365 87.0646 448.176 87.0083C447.987 86.9521 447.79 86.924 447.586 86.924C447.212 86.924 446.874 87.0184 446.571 87.2071C446.27 87.3958 446.03 87.6739 445.851 88.0413C445.674 88.4088 445.586 88.8595 445.586 89.3936C445.586 89.9277 445.674 90.3784 445.851 90.7458C446.03 91.1133 446.27 91.3913 446.571 91.5801C446.874 91.7688 447.212 91.8632 447.586 91.8632C447.79 91.8632 447.987 91.835 448.176 91.7788C448.365 91.7226 448.536 91.6393 448.691 91.5289C448.848 91.4164 448.98 91.2789 449.088 91.1163C449.199 90.9516 449.276 90.7629 449.32 90.5501H450.067C450.011 90.8653 449.909 91.1474 449.76 91.3963C449.612 91.6453 449.427 91.8571 449.206 92.0318C448.985 92.2045 448.737 92.336 448.462 92.4263C448.189 92.5167 447.897 92.5619 447.586 92.5619C447.06 92.5619 446.592 92.4334 446.182 92.1764C445.773 91.9194 445.45 91.554 445.215 91.0801C444.981 90.6063 444.863 90.0441 444.863 89.3936C444.863 88.7431 444.981 88.1809 445.215 87.707C445.45 87.2332 445.773 86.8678 446.182 86.6108C446.592 86.3538 447.06 86.2253 447.586 86.2253C447.897 86.2253 448.189 86.2705 448.462 86.3608C448.737 86.4512 448.985 86.5837 449.206 86.7584C449.427 86.931 449.612 87.1419 449.76 87.3908C449.909 87.6378 450.011 87.9199 450.067 88.2371ZM451.274 92.4775V86.3096H453.358C453.842 86.3096 454.238 86.397 454.545 86.5716C454.854 86.7443 455.083 86.9782 455.232 87.2734C455.38 87.5685 455.454 87.8978 455.454 88.2612C455.454 88.6246 455.38 88.9549 455.232 89.252C455.085 89.5492 454.858 89.7861 454.551 89.9628C454.244 90.1375 453.85 90.2248 453.37 90.2248H451.877V89.5622H453.346C453.678 89.5622 453.944 89.505 454.144 89.3906C454.345 89.2761 454.491 89.1215 454.581 88.9268C454.673 88.73 454.72 88.5082 454.72 88.2612C454.72 88.0142 454.673 87.7934 454.581 87.5986C454.491 87.4039 454.344 87.2513 454.141 87.1409C453.939 87.0284 453.669 86.9722 453.334 86.9722H452.021V92.4775H451.274ZM456.281 92.4775H455.498L457.763 86.3096H458.534L460.799 92.4775H460.016L458.172 87.2854H458.124L456.281 92.4775ZM456.57 90.0682H459.726V90.7308H456.57V90.0682Z" fill="#1C204E"/>
</svg>
