<svg width="65" height="66" viewBox="0 0 65 66" fill="none" xmlns="http://www.w3.org/2000/svg">
<rect width="65" height="66" rx="32.5" fill="#FFC727"/>
<g clip-path="url(#clip0_2462_872)">
<path d="M53.0462 30.9319V17.0093C53.0462 16.6309 52.8024 16.2952 52.4424 16.1784L33.5634 10.0431C33.3723 9.98071 33.1746 9.98831 32.9997 10.0519C32.8232 9.98887 32.6261 9.98127 32.435 10.0431L13.5565 16.1784C13.1965 16.2951 12.9527 16.6302 12.9527 17.0093L12.9538 30.8988C12.9462 31.1019 12.4157 51.2978 32.548 57.9555C32.6365 57.9854 32.7299 58 32.8228 58H33.1775C33.2704 58 33.3637 57.9854 33.4522 57.9555C53.5839 51.2978 53.0534 31.1013 53.0462 30.9319ZM33.0356 56.2525H32.9639C14.2315 49.9733 14.6714 31.7389 14.6997 30.9319V17.6436L32.9743 11.7048C32.983 11.7021 32.9912 11.6988 32.9998 11.6961C33.0074 11.6988 33.0161 11.7021 33.0243 11.7048L51.2993 17.6441L51.3004 30.9656C51.3075 31.1546 51.8022 49.9586 33.0356 56.2525Z" fill="#1E1E1E"/>
<path d="M47.593 19.4921L33.4255 14.7246C33.3028 14.684 33.1757 14.6741 33.0578 14.684C32.9394 14.6748 32.814 14.684 32.6901 14.7246L18.5243 19.492C18.1696 19.612 17.9296 19.9449 17.9296 20.3202L17.9308 31.1686C17.9356 31.3244 18.6438 46.8431 32.7424 52.3045C32.8439 52.3436 32.9514 52.3632 33.0578 52.3632C33.1642 52.3632 33.2718 52.3436 33.3733 52.3045C47.4724 46.8431 48.1816 31.3245 48.1875 31.1377V20.3202C48.1872 19.945 47.9476 19.6121 47.593 19.4921ZM33.0578 50.5516C20.3527 45.404 19.6815 31.2506 19.6766 31.1382V20.9479L33.0578 16.4445L46.4406 20.9479L46.4412 31.1067C46.4353 31.2501 45.7629 45.404 33.0578 50.5516Z" fill="#1E1E1E"/>
<path d="M43.0581 27.5482C42.6867 27.2376 42.1354 27.2897 41.8276 27.659L31.7177 39.7678L25.1963 32.9195C24.8612 32.5687 24.3101 32.5578 23.9614 32.8885C23.6118 33.2215 23.5982 33.7748 23.9305 34.1234L31.1275 41.6815C31.2931 41.8548 31.5217 41.953 31.7607 41.953C31.7698 41.953 31.7791 41.953 31.7889 41.9519C32.0382 41.9443 32.2717 41.8297 32.4313 41.639L43.169 28.7781C43.4778 28.4078 43.4284 27.8572 43.0581 27.5482Z" fill="#1E1E1E"/>
</g>
<defs>
<clipPath id="clip0_2462_872">
<rect width="48" height="48" fill="white" transform="translate(9 10)"/>
</clipPath>
</defs>
</svg>
