<svg width="30" height="31" viewBox="0 0 30 31" fill="none" xmlns="http://www.w3.org/2000/svg">
<rect y="0.541504" width="29.5455" height="30" rx="14.7727" fill="#FFC727"/>
<g clip-path="url(#clip0_2753_1239)">
<path d="M24.112 14.6014V8.27294C24.112 8.10091 24.0012 7.94836 23.8376 7.89526L15.2562 5.1065C15.1693 5.07812 15.0795 5.08157 15 5.11046C14.9197 5.08183 14.8302 5.07837 14.7433 5.1065L6.16217 7.89526C5.99849 7.94832 5.8877 8.10061 5.8877 8.27294L5.88821 14.5864C5.88476 14.6787 5.64361 23.8586 14.7947 26.8848C14.8349 26.8984 14.8773 26.9051 14.9196 26.9051H15.0808C15.123 26.9051 15.1654 26.8984 15.2057 26.8848C24.3564 23.8586 24.1153 14.6784 24.112 14.6014ZM15.0163 26.1107H14.9837C6.46898 23.2566 6.66892 14.9682 6.68179 14.6014V8.56126L14.9884 5.86181C14.9924 5.86058 14.9961 5.85909 15 5.85785C15.0035 5.85909 15.0074 5.86058 15.0111 5.86181L23.318 8.56147L23.3185 14.6167C23.3217 14.7026 23.5466 23.2499 15.0163 26.1107Z" fill="#1E1E1E"/>
<path d="M21.6332 9.4015L15.1935 7.23446C15.1377 7.21596 15.0799 7.21149 15.0264 7.21596C14.9725 7.21179 14.9155 7.21596 14.8592 7.23446L8.4202 9.40145C8.25899 9.456 8.1499 9.60732 8.1499 9.7779L8.15041 14.709C8.15263 14.7798 8.47453 21.8337 14.883 24.3162C14.9291 24.334 14.978 24.3429 15.0264 24.3429C15.0747 24.3429 15.1236 24.334 15.1697 24.3162C21.5784 21.8337 21.9008 14.7798 21.9035 14.6949V9.7779C21.9033 9.60736 21.7944 9.45604 21.6332 9.4015ZM15.0264 23.5194C9.25132 21.1796 8.94621 14.7463 8.944 14.6952V10.0632L15.0264 8.01619L21.1094 10.0632L21.1097 14.6809C21.107 14.746 20.8014 21.1796 15.0264 23.5194Z" fill="#1E1E1E"/>
<path d="M19.5719 13.0631C19.4031 12.9219 19.1525 12.9456 19.0126 13.1134L14.4172 18.6175L11.4529 15.5046C11.3006 15.3451 11.0501 15.3402 10.8916 15.4905C10.7327 15.6418 10.7265 15.8933 10.8775 16.0518L14.1489 19.4873C14.2242 19.5661 14.3281 19.6107 14.4367 19.6107C14.4409 19.6107 14.4451 19.6107 14.4495 19.6102C14.5628 19.6068 14.669 19.5547 14.7416 19.468L19.6223 13.6221C19.7627 13.4538 19.7402 13.2035 19.5719 13.0631Z" fill="#1E1E1E"/>
</g>
<defs>
<clipPath id="clip0_2753_1239">
<rect width="21.8182" height="21.8182" fill="white" transform="translate(4.09094 5.08691)"/>
</clipPath>
</defs>
</svg>
