<svg width="587" height="60" viewBox="0 0 587 60" fill="none" xmlns="http://www.w3.org/2000/svg">
<rect width="587" height="60" rx="10" fill="#D4CDFF"/>
<path d="M124.907 23.8524L119.517 28.3482H107V29.0089H119.517L125.618 33.0797C128.228 34.8206 131.555 35.0772 134.401 33.7571L135.571 33.2143C138.49 31.8602 141.911 32.1813 144.527 34.055L147.758 36.3685C149.489 37.6087 151.867 37.3974 153.353 35.8712C155.001 34.1778 157.706 34.1288 159.415 35.7614L168.593 44.5304C171.127 46.9511 174.836 47.6811 178.098 46.4011L182.153 44.81C183.26 44.3757 184.27 43.7264 185.124 42.8995L188.922 39.2248C191.761 36.4779 196.059 35.9032 199.52 37.8077L200.634 38.4209C203.52 40.0093 207.044 39.8938 209.82 38.1197L214.95 34.8413C216.177 34.0571 217.786 34.2405 218.805 35.2807C220.328 36.8353 222.939 36.3609 223.818 34.3701L225.1 31.465C225.937 29.5705 227.812 28.3482 229.883 28.3482H232V28.0179H230.084C228.159 28.0179 226.334 27.1607 225.106 25.6793L222.217 22.196C220.655 20.3128 217.681 20.6183 216.535 22.7797C215.629 24.4877 213.493 25.1127 211.809 24.1624L208.322 22.1945C205.712 20.721 202.467 20.9839 200.128 22.8584L199.909 23.0341C196.505 25.7612 191.523 25.1453 188.886 21.6715L185.557 17.2866C184.433 15.8063 182.879 14.7102 181.107 14.1488L177.585 13.0328C174.583 12.0813 171.301 12.7687 168.933 14.8452L159.936 22.7344C158.019 24.4151 155.063 24.0401 153.627 21.9338C152.137 19.7488 149.034 19.4424 147.146 21.2938L144.736 23.6561C142.196 26.146 138.202 26.3619 135.409 24.1604L134.844 23.7149C131.915 21.4068 127.771 21.4642 124.907 23.8524Z" fill="#5614C4"/>
<path d="M275.194 20.4314L257.612 28H232V28.2957H257.612L276.068 35.3548C277.778 36.009 279.647 36.1259 281.425 35.69L297.414 31.7712C299.181 31.3379 301.039 31.4508 302.741 32.095L316.841 37.4302C319.773 38.5398 323.071 38.0435 325.547 36.1201L328.134 34.1107C331.037 31.8554 335.02 31.5924 338.194 33.4464L360.259 46.3334C363.921 48.4724 368.58 47.7642 371.441 44.6334L378.936 36.4333C381.781 33.3204 386.406 32.6003 390.062 34.701L391.937 35.7778C394.84 37.4455 398.429 37.364 401.253 35.5661L405.168 33.0738C407.801 31.3978 411.114 31.2055 413.924 32.5658L428.471 39.61C431.381 41.0193 434.824 40.7589 437.489 38.9279L443.698 34.6632C446.065 33.0369 449.066 32.6382 451.776 33.59L466.412 38.7308C470.313 40.1009 474.526 37.7151 475.358 33.6653C476.009 30.492 478.802 28.2143 482.042 28.2143H527V27.8571H480.264C478.551 27.8571 476.874 27.3682 475.429 26.4479L466.435 20.7185C463.212 18.6658 459.045 18.8715 456.04 21.2315L451.248 24.9951C448.247 27.3522 444.086 27.5605 440.865 25.5149L434.681 21.588C432.07 19.9304 428.791 19.729 425.998 21.0546L413.035 27.2054C410.725 28.302 408.056 28.3634 405.697 27.3744L400.124 25.0377C397.907 24.1081 395.41 24.1043 393.189 25.0272L389.645 26.5005C386.141 27.9573 382.099 27.0593 379.542 24.2556L371.284 15.2032C368.495 12.1467 363.982 11.3849 360.345 13.3567L338.868 25.0004C335.354 26.9053 331.005 26.2647 328.19 23.4277L326.218 21.441C323.447 18.6485 319.184 17.9794 315.691 19.7887L303.853 25.9197C301.492 27.143 298.71 27.2589 296.255 26.2366L282.212 20.3895C279.963 19.4532 277.431 19.4683 275.194 20.4314Z" fill="#5614C4"/>
<path d="M77 30L54.5 42.9904L54.5 17.0096L77 30Z" fill="#1C204E"/>
</svg>
