<svg width="395" height="96" viewBox="0 0 395 96" fill="none" xmlns="http://www.w3.org/2000/svg">
<rect width="395" height="96" rx="20" fill="white"/>
<rect width="394" height="96" rx="20" fill="white"/>
<rect x="28" y="15" width="66" height="66" rx="33" fill="#FFC727"/>
<path d="M133.752 42.28L130.392 44.008C129.624 42.728 127.512 41.512 125.08 41.512C121.944 41.512 120.44 42.824 120.44 44.488C120.44 46.44 122.744 46.984 125.432 47.304C130.104 47.88 134.456 49.096 134.456 54.44C134.456 59.432 130.04 61.576 125.048 61.576C120.472 61.576 116.952 60.168 115.288 56.072L118.808 54.248C119.8 56.712 122.392 57.8 125.112 57.8C127.768 57.8 130.264 56.872 130.264 54.44C130.264 52.328 128.056 51.464 125.08 51.144C120.504 50.6 116.28 49.384 116.28 44.36C116.28 39.752 120.824 37.864 124.952 37.832C128.44 37.832 132.056 38.824 133.752 42.28ZM138.22 45.224H142.124V53.48C142.124 55.88 143.436 57.704 145.932 57.704C148.332 57.704 149.964 55.688 149.964 53.288V45.224H153.836V61.032H150.348L150.092 58.888C148.46 60.488 146.956 61.256 144.748 61.256C140.972 61.256 138.22 58.408 138.22 53.512V45.224ZM169.76 46.856L167.584 49.416C166.464 48.36 165.184 48.008 163.68 48.008C161.824 48.008 160.8 48.584 160.8 49.576C160.8 50.6 161.728 51.176 163.744 51.304C166.72 51.496 170.496 52.168 170.496 56.36C170.496 59.144 168.224 61.544 163.712 61.544C161.216 61.544 158.72 61.128 156.416 58.728L158.336 55.944C159.456 57.192 162.016 58.12 163.776 58.152C165.248 58.184 166.624 57.416 166.624 56.264C166.624 55.176 165.728 54.728 163.488 54.6C160.512 54.376 156.96 53.288 156.96 49.704C156.96 46.056 160.736 44.776 163.616 44.776C166.08 44.776 167.936 45.256 169.76 46.856ZM174.599 41.192L178.503 40.776V45.256H182.855V48.616H178.471V55.432C178.471 56.936 179.303 57.672 180.519 57.672C181.127 57.672 181.831 57.48 182.407 57.192L183.495 60.52C182.375 60.968 181.447 61.16 180.263 61.192C176.839 61.32 174.599 59.368 174.599 55.432V48.616H171.655V45.256H174.599V41.192ZM198.164 47.4L198.292 45.224H202.036V61H198.356L198.164 58.696C197.268 60.552 194.804 61.448 193.044 61.48C188.372 61.512 184.916 58.632 184.916 53.096C184.916 47.656 188.532 44.808 193.14 44.84C195.252 44.84 197.268 45.832 198.164 47.4ZM193.492 48.328C190.9 48.328 188.82 50.088 188.82 53.096C188.82 56.104 190.9 57.896 193.492 57.896C199.636 57.896 199.636 48.328 193.492 48.328ZM209.247 45.16V61H205.343V45.16H209.247ZM204.991 40.776C204.991 43.816 209.599 43.816 209.599 40.776C209.599 37.736 204.991 37.736 204.991 40.776ZM228.3 61H224.396V52.744C224.396 50.344 223.084 48.52 220.588 48.52C218.188 48.52 216.556 50.536 216.556 52.936V61H212.684V45.192H216.172L216.428 47.336C218.028 45.768 219.628 44.968 221.612 44.968C225.324 44.968 228.3 47.752 228.3 52.712V61ZM244.039 47.4L244.167 45.224H247.911V61H244.231L244.039 58.696C243.143 60.552 240.679 61.448 238.919 61.48C234.247 61.512 230.791 58.632 230.791 53.096C230.791 47.656 234.407 44.808 239.015 44.84C241.127 44.84 243.143 45.832 244.039 47.4ZM239.367 48.328C236.775 48.328 234.695 50.088 234.695 53.096C234.695 56.104 236.775 57.896 239.367 57.896C245.511 57.896 245.511 48.328 239.367 48.328ZM259.641 48.488C257.177 48.488 255.065 50.344 255.065 53.096C255.065 55.944 257.177 57.736 259.641 57.736C262.137 57.736 264.121 55.848 264.121 53.096C264.121 50.248 262.137 48.488 259.641 48.488ZM250.905 38.632H254.809V47.368C255.737 45.736 258.329 44.84 259.993 44.84C264.601 44.84 268.025 47.656 268.025 53.096C268.025 58.28 264.537 61.352 259.897 61.352C257.977 61.352 256.025 60.712 254.809 58.824L254.553 61H250.905V38.632ZM270.905 38.632H274.777V61H270.905V38.632ZM293.834 54.504H281.514C281.77 56.456 283.466 57.864 286.218 57.864C287.658 57.864 289.546 57.32 290.442 56.392L292.938 58.856C291.274 60.584 288.554 61.416 286.154 61.416C280.714 61.416 277.482 58.056 277.482 53C277.482 48.2 280.746 44.744 285.866 44.744C291.146 44.744 294.442 48.008 293.834 54.504ZM281.578 51.272H290.09C289.834 49.224 288.234 48.2 285.994 48.2C283.882 48.2 282.154 49.224 281.578 51.272Z" fill="#1C204E"/>
<g clip-path="url(#clip0_2462_792)">
<mask id="path-5-inside-1_2462_792" fill="white">
<path d="M75.1414 38.5638C74.943 38.8206 74.9847 39.1941 75.2348 39.3979C75.4855 39.6023 75.8485 39.5591 76.047 39.3019C77.6007 37.2908 78.4219 34.8682 78.4219 32.2955V30.1875C78.4219 29.8596 78.163 29.5938 77.8438 29.5938H69.75C65.4855 29.5938 61.8572 32.4026 60.5 36.3096C59.1428 32.4026 55.5145 29.5938 51.25 29.5938H43.1562C42.837 29.5938 42.5781 29.8596 42.5781 30.1875V32.2955C42.5781 38.5159 47.5057 43.5767 53.5625 43.5767H59.9219V46.4084C59.1673 46.4332 58.424 46.4923 57.7175 46.6116C52.8161 47.3912 48.4082 50.2741 45.624 54.5211C45.4456 54.793 45.5159 55.1621 45.7807 55.3453C46.046 55.5286 46.4048 55.4564 46.5832 55.1844C49.0599 51.4063 52.9103 48.7862 57.2277 47.9099V52.8033H56.1816C55.8623 52.8033 55.6034 53.0692 55.6034 53.3971V59.3763H51.8456C51.5264 59.3763 51.2675 59.6422 51.2675 59.9701V62.3033C51.2675 62.4251 51.3039 62.5437 51.3717 62.6434L53.1238 65.2187H43.7403C43.7363 65.0767 43.7344 64.9343 43.7344 64.7914C43.7344 64.4696 43.7457 64.1536 43.7623 63.8379C43.8764 61.669 44.3794 59.5735 45.2573 57.6099C45.3906 57.3118 45.2632 56.9593 44.9733 56.8225C44.6837 56.6862 44.3399 56.8161 44.2066 57.1141C43.2678 59.2143 42.7297 61.455 42.6078 63.7735C42.59 64.1107 42.5781 64.4481 42.5781 64.7914C42.5781 65.1454 42.59 65.4968 42.6092 65.8461C42.6267 66.1604 42.8799 66.4062 43.1865 66.4062H77.8135C78.1201 66.4062 78.3733 66.1604 78.3908 65.8461C78.41 65.4968 78.4219 65.1454 78.4219 64.7914C78.4219 64.2925 78.3999 63.7703 78.3564 63.2398C77.8395 56.8674 74.2127 51.321 68.6564 48.4044C66.2975 47.1546 63.7497 46.4874 61.0781 46.4023V43.5767H67.4375C69.9583 43.5767 72.329 42.7238 74.2931 41.1101C74.5427 40.9054 74.583 40.5317 74.3835 40.2757C74.1845 40.0194 73.8203 39.9783 73.571 40.183C71.8138 41.6262 69.693 42.3892 67.4375 42.3892H62.2426L72.7332 34.3559C72.9893 34.1599 73.042 33.788 72.8512 33.525C72.6607 33.2626 72.2982 33.2076 72.0422 33.4038L61.0781 41.7996V39.6875C61.0781 34.7766 64.9683 30.7812 69.75 30.7812H77.2656V32.2955C77.2656 34.5974 76.5311 36.7648 75.1414 38.5638ZM43.7344 32.2955V30.7812H51.25C56.0317 30.7812 59.9219 34.7766 59.9219 39.6875V41.7997L48.9578 33.4038C48.7018 33.2076 48.3396 33.2626 48.1488 33.525C47.958 33.788 48.0108 34.1599 48.2668 34.3559L58.7574 42.3892H53.5625C48.1431 42.3892 43.7344 37.8613 43.7344 32.2955ZM52.4237 62.1163V60.5638H56.1816C56.5008 60.5638 56.7597 60.298 56.7597 59.9701V53.9908H57.8058C58.1251 53.9908 58.384 53.725 58.384 53.3971V47.7242C59.0702 47.6318 59.7754 47.5727 60.5 47.5727C62.9251 47.5727 65.2429 48.0906 67.4055 49.1053L63.5775 53.0367C63.4691 53.1481 63.4081 53.2991 63.4081 53.4565V57.126C63.4081 57.4539 63.667 57.7198 63.9862 57.7198H66.7668V62.2323C66.7668 62.5602 67.0256 62.8261 67.3449 62.8261H69.9047L69.1183 65.2188H54.5344L52.4237 62.1163ZM77.2041 63.3389C77.245 63.837 77.2656 64.3255 77.2656 64.7914C77.2656 64.9343 77.2636 65.0767 77.2597 65.2188H70.3389L71.2577 62.4222C71.317 62.241 71.2879 62.0413 71.1795 61.8862C71.0708 61.7308 70.8961 61.6386 70.7098 61.6386H67.923V57.126C67.923 56.7981 67.6642 56.5323 67.3449 56.5323H64.5644V53.7024L68.493 49.6675C73.4835 52.4453 76.7323 57.5208 77.2041 63.3389Z"/>
</mask>
<path d="M75.1414 38.5638C74.943 38.8206 74.9847 39.1941 75.2348 39.3979C75.4855 39.6023 75.8485 39.5591 76.047 39.3019C77.6007 37.2908 78.4219 34.8682 78.4219 32.2955V30.1875C78.4219 29.8596 78.163 29.5938 77.8438 29.5938H69.75C65.4855 29.5938 61.8572 32.4026 60.5 36.3096C59.1428 32.4026 55.5145 29.5938 51.25 29.5938H43.1562C42.837 29.5938 42.5781 29.8596 42.5781 30.1875V32.2955C42.5781 38.5159 47.5057 43.5767 53.5625 43.5767H59.9219V46.4084C59.1673 46.4332 58.424 46.4923 57.7175 46.6116C52.8161 47.3912 48.4082 50.2741 45.624 54.5211C45.4456 54.793 45.5159 55.1621 45.7807 55.3453C46.046 55.5286 46.4048 55.4564 46.5832 55.1844C49.0599 51.4063 52.9103 48.7862 57.2277 47.9099V52.8033H56.1816C55.8623 52.8033 55.6034 53.0692 55.6034 53.3971V59.3763H51.8456C51.5264 59.3763 51.2675 59.6422 51.2675 59.9701V62.3033C51.2675 62.4251 51.3039 62.5437 51.3717 62.6434L53.1238 65.2187H43.7403C43.7363 65.0767 43.7344 64.9343 43.7344 64.7914C43.7344 64.4696 43.7457 64.1536 43.7623 63.8379C43.8764 61.669 44.3794 59.5735 45.2573 57.6099C45.3906 57.3118 45.2632 56.9593 44.9733 56.8225C44.6837 56.6862 44.3399 56.8161 44.2066 57.1141C43.2678 59.2143 42.7297 61.455 42.6078 63.7735C42.59 64.1107 42.5781 64.4481 42.5781 64.7914C42.5781 65.1454 42.59 65.4968 42.6092 65.8461C42.6267 66.1604 42.8799 66.4062 43.1865 66.4062H77.8135C78.1201 66.4062 78.3733 66.1604 78.3908 65.8461C78.41 65.4968 78.4219 65.1454 78.4219 64.7914C78.4219 64.2925 78.3999 63.7703 78.3564 63.2398C77.8395 56.8674 74.2127 51.321 68.6564 48.4044C66.2975 47.1546 63.7497 46.4874 61.0781 46.4023V43.5767H67.4375C69.9583 43.5767 72.329 42.7238 74.2931 41.1101C74.5427 40.9054 74.583 40.5317 74.3835 40.2757C74.1845 40.0194 73.8203 39.9783 73.571 40.183C71.8138 41.6262 69.693 42.3892 67.4375 42.3892H62.2426L72.7332 34.3559C72.9893 34.1599 73.042 33.788 72.8512 33.525C72.6607 33.2626 72.2982 33.2076 72.0422 33.4038L61.0781 41.7996V39.6875C61.0781 34.7766 64.9683 30.7812 69.75 30.7812H77.2656V32.2955C77.2656 34.5974 76.5311 36.7648 75.1414 38.5638ZM43.7344 32.2955V30.7812H51.25C56.0317 30.7812 59.9219 34.7766 59.9219 39.6875V41.7997L48.9578 33.4038C48.7018 33.2076 48.3396 33.2626 48.1488 33.525C47.958 33.788 48.0108 34.1599 48.2668 34.3559L58.7574 42.3892H53.5625C48.1431 42.3892 43.7344 37.8613 43.7344 32.2955ZM52.4237 62.1163V60.5638H56.1816C56.5008 60.5638 56.7597 60.298 56.7597 59.9701V53.9908H57.8058C58.1251 53.9908 58.384 53.725 58.384 53.3971V47.7242C59.0702 47.6318 59.7754 47.5727 60.5 47.5727C62.9251 47.5727 65.2429 48.0906 67.4055 49.1053L63.5775 53.0367C63.4691 53.1481 63.4081 53.2991 63.4081 53.4565V57.126C63.4081 57.4539 63.667 57.7198 63.9862 57.7198H66.7668V62.2323C66.7668 62.5602 67.0256 62.8261 67.3449 62.8261H69.9047L69.1183 65.2188H54.5344L52.4237 62.1163ZM77.2041 63.3389C77.245 63.837 77.2656 64.3255 77.2656 64.7914C77.2656 64.9343 77.2636 65.0767 77.2597 65.2188H70.3389L71.2577 62.4222C71.317 62.241 71.2879 62.0413 71.1795 61.8862C71.0708 61.7308 70.8961 61.6386 70.7098 61.6386H67.923V57.126C67.923 56.7981 67.6642 56.5323 67.3449 56.5323H64.5644V53.7024L68.493 49.6675C73.4835 52.4453 76.7323 57.5208 77.2041 63.3389Z" fill="#1E1E1E" stroke="#1E1E1E" stroke-width="10" mask="url(#path-5-inside-1_2462_792)"/>
</g>
<defs>
<clipPath id="clip0_2462_792">
<rect width="37" height="38" fill="white" transform="translate(42 29)"/>
</clipPath>
</defs>
</svg>
