<svg width="48" height="50" viewBox="0 0 48 50" fill="none" xmlns="http://www.w3.org/2000/svg">
<rect y="0.274658" width="47.7266" height="49.4582" rx="23.8633" fill="#FFC727"/>
<g clip-path="url(#clip0_2742_805)">
<mask id="path-2-inside-1_2742_805" fill="white">
<path d="M34.8351 17.9325C34.6864 18.125 34.7177 18.4048 34.9051 18.5576C35.0929 18.7107 35.365 18.6784 35.5137 18.4857C36.678 16.9786 37.2934 15.1632 37.2934 13.2353V11.6556C37.2934 11.4099 37.0994 11.2107 36.8601 11.2107H30.7949C27.5992 11.2107 24.8803 13.3156 23.8633 16.2433C22.8463 13.3156 20.1273 11.2107 16.9316 11.2107H10.8665C10.6272 11.2107 10.4332 11.4099 10.4332 11.6556V13.2353C10.4332 17.8967 14.1258 21.6891 18.6646 21.6891H23.4301V23.8111C22.8646 23.8296 22.3076 23.8739 21.7782 23.9633C18.1053 24.5475 14.8021 26.7079 12.7157 29.8904C12.582 30.0942 12.6347 30.3708 12.8331 30.5081C13.032 30.6454 13.3008 30.5913 13.4345 30.3875C15.2905 27.5563 18.1758 25.5929 21.4112 24.9362V28.6032H20.6272C20.3879 28.6032 20.194 28.8024 20.194 29.0481V33.5288H17.378C17.1387 33.5288 16.9448 33.728 16.9448 33.9737V35.7222C16.9448 35.8134 16.972 35.9023 17.0228 35.977L18.3358 37.9069H11.3041C11.3012 37.8004 11.2997 37.6938 11.2997 37.5867C11.2997 37.3455 11.3081 37.1087 11.3206 36.8721C11.4061 35.2468 11.783 33.6765 12.4409 32.205C12.5408 31.9817 12.4454 31.7175 12.2281 31.615C12.0111 31.5129 11.7534 31.6102 11.6536 31.8335C10.95 33.4073 10.5468 35.0865 10.4554 36.8239C10.4421 37.0765 10.4332 37.3294 10.4332 37.5867C10.4332 37.8519 10.4421 38.1152 10.4565 38.377C10.4696 38.6125 10.6594 38.7968 10.8891 38.7968H36.8375C37.0672 38.7968 37.257 38.6125 37.2701 38.377C37.2845 38.1152 37.2934 37.8519 37.2934 37.5867C37.2934 37.2128 37.2769 36.8215 37.2443 36.4239C36.857 31.6487 34.1391 27.4924 29.9754 25.3068C28.2077 24.3702 26.2985 23.8703 24.2965 23.8064V21.6891H29.062C30.951 21.6891 32.7275 21.0499 34.1994 19.8407C34.3864 19.6873 34.4167 19.4073 34.2671 19.2154C34.118 19.0234 33.8451 18.9925 33.6583 19.1459C32.3415 20.2274 30.7522 20.7992 29.062 20.7992H25.1691L33.0305 14.7793C33.2223 14.6324 33.2619 14.3537 33.1189 14.1567C32.9761 13.96 32.7045 13.9188 32.5126 14.0658L24.2965 20.3574V18.7746C24.2965 15.0945 27.2117 12.1006 30.7949 12.1006H36.4269V13.2353C36.4269 14.9603 35.8765 16.5845 34.8351 17.9325ZM11.2997 13.2353V12.1006H16.9316C20.5149 12.1006 23.4301 15.0945 23.4301 18.7746V20.3574L15.214 14.0658C15.0221 13.9188 14.7507 13.96 14.6077 14.1567C14.4647 14.3537 14.5043 14.6324 14.6961 14.7793L22.5575 20.7992H18.6646C14.6035 20.7992 11.2997 17.4061 11.2997 13.2353ZM17.8112 35.5821V34.4187H20.6272C20.8664 34.4187 21.0604 34.2194 21.0604 33.9737V29.4931H21.8444C22.0836 29.4931 22.2776 29.2938 22.2776 29.0481V24.797C22.7919 24.7278 23.3203 24.6835 23.8633 24.6835C25.6806 24.6835 27.4175 25.0716 29.038 25.832L26.1695 28.7781C26.0882 28.8615 26.0425 28.9747 26.0425 29.0927V31.8425C26.0425 32.0882 26.2365 32.2874 26.4758 32.2874H28.5594V35.669C28.5594 35.9147 28.7534 36.1139 28.9926 36.1139H30.9109L30.3216 37.9069H19.3929L17.8112 35.5821ZM36.3808 36.4982C36.4115 36.8715 36.4269 37.2375 36.4269 37.5867C36.4269 37.6938 36.4254 37.8004 36.4225 37.9069H31.2363L31.9248 35.8113C31.9692 35.6755 31.9474 35.5258 31.8662 35.4096C31.7847 35.2931 31.6538 35.224 31.5142 35.224H29.4259V31.8425C29.4259 31.5967 29.2319 31.3975 28.9926 31.3975H26.909V29.2769L29.853 26.2533C33.5927 28.3349 36.0273 32.1383 36.3808 36.4982Z"/>
</mask>
<path d="M34.8351 17.9325C34.6864 18.125 34.7177 18.4048 34.9051 18.5576C35.0929 18.7107 35.365 18.6784 35.5137 18.4857C36.678 16.9786 37.2934 15.1632 37.2934 13.2353V11.6556C37.2934 11.4099 37.0994 11.2107 36.8601 11.2107H30.7949C27.5992 11.2107 24.8803 13.3156 23.8633 16.2433C22.8463 13.3156 20.1273 11.2107 16.9316 11.2107H10.8665C10.6272 11.2107 10.4332 11.4099 10.4332 11.6556V13.2353C10.4332 17.8967 14.1258 21.6891 18.6646 21.6891H23.4301V23.8111C22.8646 23.8296 22.3076 23.8739 21.7782 23.9633C18.1053 24.5475 14.8021 26.7079 12.7157 29.8904C12.582 30.0942 12.6347 30.3708 12.8331 30.5081C13.032 30.6454 13.3008 30.5913 13.4345 30.3875C15.2905 27.5563 18.1758 25.5929 21.4112 24.9362V28.6032H20.6272C20.3879 28.6032 20.194 28.8024 20.194 29.0481V33.5288H17.378C17.1387 33.5288 16.9448 33.728 16.9448 33.9737V35.7222C16.9448 35.8134 16.972 35.9023 17.0228 35.977L18.3358 37.9069H11.3041C11.3012 37.8004 11.2997 37.6938 11.2997 37.5867C11.2997 37.3455 11.3081 37.1087 11.3206 36.8721C11.4061 35.2468 11.783 33.6765 12.4409 32.205C12.5408 31.9817 12.4454 31.7175 12.2281 31.615C12.0111 31.5129 11.7534 31.6102 11.6536 31.8335C10.95 33.4073 10.5468 35.0865 10.4554 36.8239C10.4421 37.0765 10.4332 37.3294 10.4332 37.5867C10.4332 37.8519 10.4421 38.1152 10.4565 38.377C10.4696 38.6125 10.6594 38.7968 10.8891 38.7968H36.8375C37.0672 38.7968 37.257 38.6125 37.2701 38.377C37.2845 38.1152 37.2934 37.8519 37.2934 37.5867C37.2934 37.2128 37.2769 36.8215 37.2443 36.4239C36.857 31.6487 34.1391 27.4924 29.9754 25.3068C28.2077 24.3702 26.2985 23.8703 24.2965 23.8064V21.6891H29.062C30.951 21.6891 32.7275 21.0499 34.1994 19.8407C34.3864 19.6873 34.4167 19.4073 34.2671 19.2154C34.118 19.0234 33.8451 18.9925 33.6583 19.1459C32.3415 20.2274 30.7522 20.7992 29.062 20.7992H25.1691L33.0305 14.7793C33.2223 14.6324 33.2619 14.3537 33.1189 14.1567C32.9761 13.96 32.7045 13.9188 32.5126 14.0658L24.2965 20.3574V18.7746C24.2965 15.0945 27.2117 12.1006 30.7949 12.1006H36.4269V13.2353C36.4269 14.9603 35.8765 16.5845 34.8351 17.9325ZM11.2997 13.2353V12.1006H16.9316C20.5149 12.1006 23.4301 15.0945 23.4301 18.7746V20.3574L15.214 14.0658C15.0221 13.9188 14.7507 13.96 14.6077 14.1567C14.4647 14.3537 14.5043 14.6324 14.6961 14.7793L22.5575 20.7992H18.6646C14.6035 20.7992 11.2997 17.4061 11.2997 13.2353ZM17.8112 35.5821V34.4187H20.6272C20.8664 34.4187 21.0604 34.2194 21.0604 33.9737V29.4931H21.8444C22.0836 29.4931 22.2776 29.2938 22.2776 29.0481V24.797C22.7919 24.7278 23.3203 24.6835 23.8633 24.6835C25.6806 24.6835 27.4175 25.0716 29.038 25.832L26.1695 28.7781C26.0882 28.8615 26.0425 28.9747 26.0425 29.0927V31.8425C26.0425 32.0882 26.2365 32.2874 26.4758 32.2874H28.5594V35.669C28.5594 35.9147 28.7534 36.1139 28.9926 36.1139H30.9109L30.3216 37.9069H19.3929L17.8112 35.5821ZM36.3808 36.4982C36.4115 36.8715 36.4269 37.2375 36.4269 37.5867C36.4269 37.6938 36.4254 37.8004 36.4225 37.9069H31.2363L31.9248 35.8113C31.9692 35.6755 31.9474 35.5258 31.8662 35.4096C31.7847 35.2931 31.6538 35.224 31.5142 35.224H29.4259V31.8425C29.4259 31.5967 29.2319 31.3975 28.9926 31.3975H26.909V29.2769L29.853 26.2533C33.5927 28.3349 36.0273 32.1383 36.3808 36.4982Z" fill="#1E1E1E" stroke="#1E1E1E" stroke-width="7.49367" mask="url(#path-2-inside-1_2742_805)"/>
</g>
<defs>
<clipPath id="clip0_2742_805">
<rect width="27.7266" height="28.4759" fill="white" transform="translate(10 10.7659)"/>
</clipPath>
</defs>
</svg>
