<svg width="296" height="297" viewBox="0 0 296 297" fill="none" xmlns="http://www.w3.org/2000/svg">
<rect y="0.0341797" width="296" height="296" rx="14.9873" fill="white"/>
<rect y="0.0341797" width="295.251" height="280" rx="14.9873" fill="white"/>
<rect x="13" y="11.2747" width="49.4582" height="49.4582" rx="24.7291" fill="#FFC727"/>
<g clip-path="url(#clip0_2742_786)">
<mask id="path-4-inside-1_2742_786" fill="white">
<path d="M47.8351 28.9325C47.6864 29.125 47.7177 29.4048 47.9051 29.5576C48.0929 29.7107 48.365 29.6784 48.5137 29.4857C49.678 27.9786 50.2934 26.1632 50.2934 24.2353V22.6556C50.2934 22.4099 50.0994 22.2107 49.8601 22.2107H43.7949C40.5992 22.2107 37.8803 24.3156 36.8633 27.2433C35.8463 24.3156 33.1273 22.2107 29.9316 22.2107H23.8665C23.6272 22.2107 23.4332 22.4099 23.4332 22.6556V24.2353C23.4332 28.8967 27.1258 32.6891 31.6646 32.6891H36.4301V34.8111C35.8646 34.8296 35.3076 34.8739 34.7782 34.9633C31.1053 35.5475 27.8021 37.7079 25.7157 40.8904C25.582 41.0942 25.6347 41.3708 25.8331 41.5081C26.032 41.6454 26.3008 41.5913 26.4345 41.3875C28.2905 38.5563 31.1758 36.5929 34.4112 35.9362V39.6032H33.6272C33.3879 39.6032 33.194 39.8024 33.194 40.0481V44.5288H30.378C30.1387 44.5288 29.9448 44.728 29.9448 44.9737V46.7222C29.9448 46.8134 29.972 46.9023 30.0228 46.977L31.3358 48.9069H24.3041C24.3012 48.8004 24.2997 48.6938 24.2997 48.5867C24.2997 48.3455 24.3081 48.1087 24.3206 47.8721C24.4061 46.2468 24.783 44.6765 25.4409 43.205C25.5408 42.9817 25.4454 42.7175 25.2281 42.615C25.0111 42.5129 24.7534 42.6102 24.6536 42.8335C23.95 44.4073 23.5468 46.0865 23.4554 47.8239C23.4421 48.0765 23.4332 48.3294 23.4332 48.5867C23.4332 48.8519 23.4421 49.1152 23.4565 49.377C23.4696 49.6125 23.6594 49.7968 23.8891 49.7968H49.8375C50.0672 49.7968 50.257 49.6125 50.2701 49.377C50.2845 49.1152 50.2934 48.8519 50.2934 48.5867C50.2934 48.2128 50.2769 47.8215 50.2443 47.4239C49.857 42.6487 47.1391 38.4924 42.9754 36.3068C41.2077 35.3702 39.2985 34.8703 37.2965 34.8064V32.6891H42.062C43.951 32.6891 45.7275 32.0499 47.1994 30.8407C47.3864 30.6873 47.4167 30.4073 47.2671 30.2154C47.118 30.0234 46.8451 29.9925 46.6583 30.1459C45.3415 31.2274 43.7522 31.7992 42.062 31.7992H38.1691L46.0305 25.7793C46.2223 25.6324 46.2619 25.3537 46.1189 25.1567C45.9761 24.96 45.7045 24.9188 45.5126 25.0658L37.2965 31.3574V29.7746C37.2965 26.0945 40.2117 23.1006 43.7949 23.1006H49.4269V24.2353C49.4269 25.9603 48.8765 27.5845 47.8351 28.9325ZM24.2997 24.2353V23.1006H29.9316C33.5149 23.1006 36.4301 26.0945 36.4301 29.7746V31.3574L28.214 25.0658C28.0221 24.9188 27.7507 24.96 27.6077 25.1567C27.4647 25.3537 27.5043 25.6324 27.6961 25.7793L35.5575 31.7992H31.6646C27.6035 31.7992 24.2997 28.4061 24.2997 24.2353ZM30.8112 46.5821V45.4187H33.6272C33.8664 45.4187 34.0604 45.2194 34.0604 44.9737V40.4931H34.8444C35.0836 40.4931 35.2776 40.2938 35.2776 40.0481V35.797C35.7919 35.7278 36.3203 35.6835 36.8633 35.6835C38.6806 35.6835 40.4175 36.0716 42.038 36.832L39.1695 39.7781C39.0882 39.8615 39.0425 39.9747 39.0425 40.0927V42.8425C39.0425 43.0882 39.2365 43.2874 39.4758 43.2874H41.5594V46.669C41.5594 46.9147 41.7534 47.1139 41.9926 47.1139H43.9109L43.3216 48.9069H32.3929L30.8112 46.5821ZM49.3808 47.4982C49.4115 47.8715 49.4269 48.2375 49.4269 48.5867C49.4269 48.6938 49.4254 48.8004 49.4225 48.9069H44.2363L44.9248 46.8113C44.9692 46.6755 44.9474 46.5258 44.8662 46.4096C44.7847 46.2931 44.6538 46.224 44.5142 46.224H42.4259V42.8425C42.4259 42.5967 42.2319 42.3975 41.9926 42.3975H39.909V40.2769L42.853 37.2533C46.5927 39.3349 49.0273 43.1383 49.3808 47.4982Z"/>
</mask>
<path d="M47.8351 28.9325C47.6864 29.125 47.7177 29.4048 47.9051 29.5576C48.0929 29.7107 48.365 29.6784 48.5137 29.4857C49.678 27.9786 50.2934 26.1632 50.2934 24.2353V22.6556C50.2934 22.4099 50.0994 22.2107 49.8601 22.2107H43.7949C40.5992 22.2107 37.8803 24.3156 36.8633 27.2433C35.8463 24.3156 33.1273 22.2107 29.9316 22.2107H23.8665C23.6272 22.2107 23.4332 22.4099 23.4332 22.6556V24.2353C23.4332 28.8967 27.1258 32.6891 31.6646 32.6891H36.4301V34.8111C35.8646 34.8296 35.3076 34.8739 34.7782 34.9633C31.1053 35.5475 27.8021 37.7079 25.7157 40.8904C25.582 41.0942 25.6347 41.3708 25.8331 41.5081C26.032 41.6454 26.3008 41.5913 26.4345 41.3875C28.2905 38.5563 31.1758 36.5929 34.4112 35.9362V39.6032H33.6272C33.3879 39.6032 33.194 39.8024 33.194 40.0481V44.5288H30.378C30.1387 44.5288 29.9448 44.728 29.9448 44.9737V46.7222C29.9448 46.8134 29.972 46.9023 30.0228 46.977L31.3358 48.9069H24.3041C24.3012 48.8004 24.2997 48.6938 24.2997 48.5867C24.2997 48.3455 24.3081 48.1087 24.3206 47.8721C24.4061 46.2468 24.783 44.6765 25.4409 43.205C25.5408 42.9817 25.4454 42.7175 25.2281 42.615C25.0111 42.5129 24.7534 42.6102 24.6536 42.8335C23.95 44.4073 23.5468 46.0865 23.4554 47.8239C23.4421 48.0765 23.4332 48.3294 23.4332 48.5867C23.4332 48.8519 23.4421 49.1152 23.4565 49.377C23.4696 49.6125 23.6594 49.7968 23.8891 49.7968H49.8375C50.0672 49.7968 50.257 49.6125 50.2701 49.377C50.2845 49.1152 50.2934 48.8519 50.2934 48.5867C50.2934 48.2128 50.2769 47.8215 50.2443 47.4239C49.857 42.6487 47.1391 38.4924 42.9754 36.3068C41.2077 35.3702 39.2985 34.8703 37.2965 34.8064V32.6891H42.062C43.951 32.6891 45.7275 32.0499 47.1994 30.8407C47.3864 30.6873 47.4167 30.4073 47.2671 30.2154C47.118 30.0234 46.8451 29.9925 46.6583 30.1459C45.3415 31.2274 43.7522 31.7992 42.062 31.7992H38.1691L46.0305 25.7793C46.2223 25.6324 46.2619 25.3537 46.1189 25.1567C45.9761 24.96 45.7045 24.9188 45.5126 25.0658L37.2965 31.3574V29.7746C37.2965 26.0945 40.2117 23.1006 43.7949 23.1006H49.4269V24.2353C49.4269 25.9603 48.8765 27.5845 47.8351 28.9325ZM24.2997 24.2353V23.1006H29.9316C33.5149 23.1006 36.4301 26.0945 36.4301 29.7746V31.3574L28.214 25.0658C28.0221 24.9188 27.7507 24.96 27.6077 25.1567C27.4647 25.3537 27.5043 25.6324 27.6961 25.7793L35.5575 31.7992H31.6646C27.6035 31.7992 24.2997 28.4061 24.2997 24.2353ZM30.8112 46.5821V45.4187H33.6272C33.8664 45.4187 34.0604 45.2194 34.0604 44.9737V40.4931H34.8444C35.0836 40.4931 35.2776 40.2938 35.2776 40.0481V35.797C35.7919 35.7278 36.3203 35.6835 36.8633 35.6835C38.6806 35.6835 40.4175 36.0716 42.038 36.832L39.1695 39.7781C39.0882 39.8615 39.0425 39.9747 39.0425 40.0927V42.8425C39.0425 43.0882 39.2365 43.2874 39.4758 43.2874H41.5594V46.669C41.5594 46.9147 41.7534 47.1139 41.9926 47.1139H43.9109L43.3216 48.9069H32.3929L30.8112 46.5821ZM49.3808 47.4982C49.4115 47.8715 49.4269 48.2375 49.4269 48.5867C49.4269 48.6938 49.4254 48.8004 49.4225 48.9069H44.2363L44.9248 46.8113C44.9692 46.6755 44.9474 46.5258 44.8662 46.4096C44.7847 46.2931 44.6538 46.224 44.5142 46.224H42.4259V42.8425C42.4259 42.5967 42.2319 42.3975 41.9926 42.3975H39.909V40.2769L42.853 37.2533C46.5927 39.3349 49.0273 43.1383 49.3808 47.4982Z" fill="#1E1E1E" stroke="#1E1E1E" stroke-width="7.49367" mask="url(#path-4-inside-1_2742_786)"/>
</g>
<path d="M90.7539 29.229L88.5507 30.3621C88.0472 29.5228 86.6623 28.7255 85.0677 28.7255C83.0114 28.7255 82.0252 29.5857 82.0252 30.6768C82.0252 31.9567 83.536 32.3134 85.2985 32.5232C88.3619 32.9009 91.2155 33.6983 91.2155 37.2023C91.2155 40.4755 88.3199 41.8813 85.0467 41.8813C82.0462 41.8813 79.7382 40.9581 78.6471 38.2724L80.9551 37.0764C81.6056 38.692 83.3052 39.4054 85.0887 39.4054C86.8302 39.4054 88.4668 38.7969 88.4668 37.2023C88.4668 35.8175 87.019 35.2509 85.0677 35.0411C82.0672 34.6844 79.2975 33.8871 79.2975 30.5929C79.2975 27.5714 82.277 26.3335 84.9837 26.3125C87.2708 26.3125 89.6418 26.9629 90.7539 29.229ZM93.6834 31.1594H96.2432V36.5728C96.2432 38.1465 97.1035 39.3425 98.7401 39.3425C100.314 39.3425 101.384 38.0206 101.384 36.4469V31.1594H103.923V41.5246H101.636L101.468 40.1188C100.398 41.1679 99.4115 41.6715 97.9637 41.6715C95.4878 41.6715 93.6834 39.8041 93.6834 36.5938V31.1594ZM114.364 32.2295L112.937 33.9081C112.203 33.2157 111.364 32.9849 110.378 32.9849C109.161 32.9849 108.489 33.3625 108.489 34.013C108.489 34.6844 109.098 35.0621 110.42 35.146C112.371 35.2719 114.847 35.7126 114.847 38.4612C114.847 40.2867 113.357 41.8604 110.399 41.8604C108.762 41.8604 107.125 41.5876 105.615 40.0139L106.873 38.1885C107.608 39.0068 109.286 39.6153 110.44 39.6362C111.406 39.6572 112.308 39.1536 112.308 38.3983C112.308 37.6849 111.72 37.3911 110.252 37.3072C108.3 37.1603 105.971 36.4469 105.971 34.0969C105.971 31.7049 108.447 30.8656 110.336 30.8656C111.951 30.8656 113.168 31.1804 114.364 32.2295ZM117.537 28.5156L120.097 28.2429V31.1804H122.95V33.3835H120.076V37.8527C120.076 38.8389 120.621 39.3215 121.419 39.3215C121.817 39.3215 122.279 39.1956 122.657 39.0068L123.37 41.1889C122.636 41.4827 122.027 41.6086 121.251 41.6296C119.006 41.7135 117.537 40.4336 117.537 37.8527V33.3835H115.607V31.1804H117.537V28.5156ZM132.989 32.5862L133.072 31.1594H135.527V41.5037H133.114L132.989 39.9929C132.401 41.2099 130.785 41.7974 129.631 41.8184C126.568 41.8394 124.302 39.951 124.302 36.321C124.302 32.7541 126.673 30.8866 129.694 30.9076C131.079 30.9076 132.401 31.5581 132.989 32.5862ZM129.925 33.1947C128.226 33.1947 126.862 34.3487 126.862 36.321C126.862 38.2934 128.226 39.4684 129.925 39.4684C133.954 39.4684 133.954 33.1947 129.925 33.1947ZM140.255 31.1174V41.5037H137.695V31.1174H140.255ZM137.465 28.2429C137.465 30.2362 140.486 30.2362 140.486 28.2429C140.486 26.2495 137.465 26.2495 137.465 28.2429ZM152.749 41.5037H150.189V36.0902C150.189 34.5166 149.329 33.3206 147.692 33.3206C146.118 33.3206 145.048 34.6425 145.048 36.2161V41.5037H142.509V31.1384H144.796L144.964 32.5442C146.013 31.5161 147.062 30.9915 148.363 30.9915C150.797 30.9915 152.749 32.817 152.749 36.0693V41.5037ZM163.069 32.5862L163.153 31.1594H165.607V41.5037H163.195L163.069 39.9929C162.481 41.2099 160.865 41.7974 159.711 41.8184C156.648 41.8394 154.382 39.951 154.382 36.321C154.382 32.7541 156.753 30.8866 159.774 30.9076C161.159 30.9076 162.481 31.5581 163.069 32.5862ZM160.005 33.1947C158.306 33.1947 156.942 34.3487 156.942 36.321C156.942 38.2934 158.306 39.4684 160.005 39.4684C164.034 39.4684 164.034 33.1947 160.005 33.1947ZM173.299 33.2996C171.683 33.2996 170.298 34.5166 170.298 36.321C170.298 38.1885 171.683 39.3635 173.299 39.3635C174.935 39.3635 176.236 38.1255 176.236 36.321C176.236 34.4536 174.935 33.2996 173.299 33.2996ZM167.571 26.837H170.13V32.5652C170.739 31.4951 172.439 30.9076 173.53 30.9076C176.551 30.9076 178.796 32.7541 178.796 36.321C178.796 39.7202 176.509 41.7345 173.467 41.7345C172.208 41.7345 170.928 41.3148 170.13 40.0769L169.963 41.5037H167.571V26.837ZM180.685 26.837H183.223V41.5037H180.685V26.837ZM195.719 37.2443H187.641C187.809 38.5242 188.921 39.4474 190.725 39.4474C191.67 39.4474 192.908 39.0907 193.495 38.4822L195.132 40.0978C194.041 41.2309 192.257 41.7764 190.683 41.7764C187.116 41.7764 184.997 39.5733 184.997 36.2581C184.997 33.1108 187.137 30.8447 190.495 30.8447C193.957 30.8447 196.118 32.9849 195.719 37.2443ZM187.683 35.125H193.264C193.096 33.7822 192.047 33.1108 190.579 33.1108C189.194 33.1108 188.061 33.7822 187.683 35.125Z" fill="#1C204E"/>
<path d="M18.62 93.5329L22.92 80.7329H23.52L27.8 93.5329L32.14 80.7329H33.3L28.36 94.7729H27.2L24.98 88.2129L23.22 82.6729L21.46 88.1729L19.22 94.7729H18.06L13.16 80.7329H14.3L18.62 93.5329ZM37.7983 94.8729C35.0183 94.8729 32.7783 92.9329 32.7783 89.7929C32.7783 86.8329 35.0183 84.6929 37.7983 84.6929C40.5783 84.6929 43.0583 86.3929 42.6783 90.2529H33.7783C33.9783 92.5729 35.7583 93.9129 37.7983 93.9129C39.0983 93.9129 40.6183 93.3929 41.3583 92.4129L42.0583 92.9729C41.0983 94.2329 39.3783 94.8729 37.7983 94.8729ZM33.7783 89.3929H41.7983C41.7783 86.9529 40.1783 85.5929 37.7983 85.5929C35.7583 85.5929 33.9983 86.9729 33.7783 89.3929ZM55.2811 94.8729C52.5011 94.8729 50.2611 92.9529 50.2611 89.8129C50.2611 86.6729 52.5011 84.6729 55.2811 84.6729C58.0611 84.6729 60.3011 86.6729 60.3011 89.8129C60.3011 92.9529 58.0611 94.8729 55.2811 94.8729ZM55.2811 93.9129C57.5211 93.9129 59.3411 92.3729 59.3411 89.8129C59.3411 87.2529 57.5211 85.5929 55.2811 85.5929C53.0411 85.5929 51.2211 87.2529 51.2211 89.8129C51.2211 92.3729 53.0411 93.9129 55.2811 93.9129ZM64.537 94.7329H63.577V85.7929H61.557V84.9329H63.577V84.0529C63.577 82.0929 64.357 80.6729 66.537 80.6729C67.277 80.6729 67.937 80.9329 68.497 81.3529L68.017 82.0729C67.477 81.7529 67.097 81.5729 66.497 81.5729C65.257 81.5729 64.537 82.3329 64.537 84.0529V84.9329H67.797V85.7929H64.537V94.7329ZM72.0761 94.7329H71.1161V85.7929H69.0961V84.9329H71.1161V84.0529C71.1161 82.0929 71.8961 80.6729 74.0761 80.6729C74.8161 80.6729 75.4761 80.9329 76.0361 81.3529L75.5561 82.0729C75.0161 81.7529 74.6361 81.5729 74.0361 81.5729C72.7961 81.5729 72.0761 82.3329 72.0761 84.0529V84.9329H75.3361V85.7929H72.0761V94.7329ZM82.0952 94.8729C79.3152 94.8729 77.0752 92.9329 77.0752 89.7929C77.0752 86.8329 79.3152 84.6929 82.0952 84.6929C84.8752 84.6929 87.3552 86.3929 86.9752 90.2529H78.0752C78.2752 92.5729 80.0552 93.9129 82.0952 93.9129C83.3952 93.9129 84.9152 93.3929 85.6552 92.4129L86.3552 92.9729C85.3952 94.2329 83.6752 94.8729 82.0952 94.8729ZM78.0752 89.3929H86.0952C86.0752 86.9529 84.4752 85.5929 82.0952 85.5929C80.0552 85.5929 78.2952 86.9729 78.0752 89.3929ZM89.5102 84.8529H90.4302L90.4702 86.6129C91.0902 85.2729 92.4902 84.7529 93.7502 84.7529C94.4902 84.7329 95.2102 84.9329 95.8702 85.3329L95.4302 86.1329C94.9102 85.8129 94.3302 85.6729 93.7502 85.6729C91.9102 85.6929 90.4902 87.1729 90.4902 88.9729V94.7329H89.5102V84.8529ZM111.37 84.8529H112.35C112.35 88.1529 112.35 91.4329 112.35 94.7329H111.37V92.6329C110.41 94.1729 108.93 94.8929 107.33 94.8929C104.57 94.8929 102.31 92.8129 102.31 89.7929C102.31 86.7729 104.57 84.7329 107.33 84.7329C108.93 84.7329 110.55 85.4729 111.37 87.0129V84.8529ZM107.33 85.6729C105.09 85.6729 103.29 87.3129 103.29 89.7929C103.29 92.2729 105.09 93.9329 107.33 93.9329C112.83 93.9329 112.83 85.6729 107.33 85.6729ZM127.966 92.6929L128.626 93.3529C127.626 94.3529 126.326 94.8329 125.026 94.8329C122.246 94.8329 119.946 92.9129 119.946 89.7929C119.946 86.6729 122.166 84.7529 125.026 84.7529C126.326 84.7529 127.626 85.2529 128.626 86.2329L127.986 86.8529C127.186 86.0529 126.086 85.6729 125.026 85.6729C122.786 85.6729 120.906 87.1329 120.906 89.7929C120.906 92.4529 122.786 93.9129 125.026 93.9129C126.086 93.9129 127.166 93.4929 127.966 92.6929ZM135.379 94.8729C132.599 94.8729 130.359 92.9529 130.359 89.8129C130.359 86.6729 132.599 84.6729 135.379 84.6729C138.159 84.6729 140.399 86.6729 140.399 89.8129C140.399 92.9529 138.159 94.8729 135.379 94.8729ZM135.379 93.9129C137.619 93.9129 139.439 92.3729 139.439 89.8129C139.439 87.2529 137.619 85.5929 135.379 85.5929C133.139 85.5929 131.319 87.2529 131.319 89.8129C131.319 92.3729 133.139 93.9129 135.379 93.9129ZM150.035 86.0129L149.435 86.6529C148.435 85.7729 147.455 85.6129 146.355 85.6129C144.815 85.5929 143.335 86.1729 143.375 87.4329C143.415 88.7529 145.135 89.0129 146.375 89.2329C148.135 89.5329 150.555 89.8329 150.455 92.1329C150.395 94.3129 148.135 94.8929 146.395 94.8929C144.655 94.8929 142.935 94.2329 142.075 92.9129L142.795 92.2729C143.615 93.4529 145.095 93.9529 146.415 93.9529C147.615 93.9529 149.435 93.6329 149.495 92.0729C149.535 90.6529 147.895 90.3729 146.275 90.1129C144.355 89.7929 142.455 89.4329 142.435 87.4529C142.415 85.5129 144.355 84.6729 146.355 84.6929C147.795 84.6929 149.055 85.0929 150.035 86.0129ZM153.935 81.9729L154.895 81.8729V84.8529H158.255V85.6729H154.895V91.6929C154.895 93.0329 155.175 93.9729 156.715 93.9729C157.195 93.9729 157.735 93.8129 158.235 93.5729L158.575 94.3729C157.955 94.6729 157.335 94.8729 156.715 94.8729C154.615 94.8729 153.935 93.6329 153.935 91.6929V85.6729H151.835V84.8529H153.935V81.9729ZM160.566 88.9529V87.9129H167.566V88.9529H160.566ZM174.517 94.8729C171.737 94.8729 169.497 92.9329 169.497 89.7929C169.497 86.8329 171.737 84.6929 174.517 84.6929C177.297 84.6929 179.777 86.3929 179.397 90.2529H170.497C170.697 92.5729 172.477 93.9129 174.517 93.9129C175.817 93.9129 177.337 93.3929 178.077 92.4129L178.777 92.9729C177.817 94.2329 176.097 94.8729 174.517 94.8729ZM170.497 89.3929H178.517C178.497 86.9529 176.897 85.5929 174.517 85.5929C172.477 85.5929 170.717 86.9729 170.497 89.3929ZM183.912 94.7329H182.952V85.7929H180.932V84.9329H182.952V84.0529C182.952 82.0929 183.732 80.6729 185.912 80.6729C186.652 80.6729 187.312 80.9329 187.872 81.3529L187.392 82.0729C186.852 81.7529 186.472 81.5729 185.872 81.5729C184.632 81.5729 183.912 82.3329 183.912 84.0529V84.9329H187.172V85.7929H183.912V94.7329ZM191.451 94.7329H190.491V85.7929H188.471V84.9329H190.491V84.0529C190.491 82.0929 191.271 80.6729 193.451 80.6729C194.191 80.6729 194.851 80.9329 195.411 81.3529L194.931 82.0729C194.391 81.7529 194.011 81.5729 193.411 81.5729C192.171 81.5729 191.451 82.3329 191.451 84.0529V84.9329H194.711V85.7929H191.451V94.7329ZM201.47 94.8729C198.69 94.8729 196.45 92.9329 196.45 89.7929C196.45 86.8329 198.69 84.6929 201.47 84.6929C204.25 84.6929 206.73 86.3929 206.35 90.2529H197.45C197.65 92.5729 199.43 93.9129 201.47 93.9129C202.77 93.9129 204.29 93.3929 205.03 92.4129L205.73 92.9729C204.77 94.2329 203.05 94.8729 201.47 94.8729ZM197.45 89.3929H205.47C205.45 86.9529 203.85 85.5929 201.47 85.5929C199.43 85.5929 197.67 86.9729 197.45 89.3929ZM216.325 92.6929L216.985 93.3529C215.985 94.3529 214.685 94.8329 213.385 94.8329C210.605 94.8329 208.305 92.9129 208.305 89.7929C208.305 86.6729 210.525 84.7529 213.385 84.7529C214.685 84.7529 215.985 85.2529 216.985 86.2329L216.345 86.8529C215.545 86.0529 214.445 85.6729 213.385 85.6729C211.145 85.6729 209.265 87.1329 209.265 89.7929C209.265 92.4529 211.145 93.9129 213.385 93.9129C214.445 93.9129 215.525 93.4929 216.325 92.6929ZM220.283 81.9729L221.243 81.8729V84.8529H224.603V85.6729H221.243V91.6929C221.243 93.0329 221.523 93.9729 223.063 93.9729C223.543 93.9729 224.083 93.8129 224.583 93.5729L224.923 94.3729C224.303 94.6729 223.683 94.8729 223.063 94.8729C220.963 94.8729 220.283 93.6329 220.283 91.6929V85.6729H218.183V84.8529H220.283V81.9729ZM227.834 84.8129V94.7329H226.854V84.8129H227.834ZM226.574 81.6329C226.574 82.6729 228.154 82.6729 228.154 81.6329C228.154 80.5929 226.574 80.5929 226.574 81.6329ZM233.843 94.7329L229.703 84.8529H230.783L234.383 93.5929L237.983 84.8529H239.063L234.923 94.7329H233.843ZM245.142 94.8729C242.362 94.8729 240.122 92.9329 240.122 89.7929C240.122 86.8329 242.362 84.6929 245.142 84.6929C247.922 84.6929 250.402 86.3929 250.022 90.2529H241.122C241.322 92.5729 243.102 93.9129 245.142 93.9129C246.442 93.9129 247.962 93.3929 248.702 92.4129L249.402 92.9729C248.442 94.2329 246.722 94.8729 245.142 94.8729ZM241.122 89.3929H249.142C249.122 86.9529 247.522 85.5929 245.142 85.5929C243.102 85.5929 241.342 86.9729 241.122 89.3929ZM19.12 119.973C21.36 119.973 23.16 118.573 23.16 115.793C23.16 113.013 21.36 111.653 19.12 111.653C16.82 111.653 15.12 113.393 15.12 115.813C15.12 118.233 16.86 119.973 19.12 119.973ZM15.04 124.853H14.1V110.853H15.06V113.193C15.84 111.693 17.42 110.713 19.34 110.713C22.02 110.813 24.14 112.613 24.14 115.793C24.14 119.113 21.9 120.913 19.12 120.913C17.44 120.913 15.88 120.093 15.04 118.453V124.853ZM26.5414 106.733H27.4814V112.693C28.2814 111.273 29.6614 110.733 31.0414 110.713C33.8014 110.713 35.1814 112.493 35.1814 115.073V120.733H34.2214V115.073C34.2214 113.033 33.2614 111.653 31.0414 111.653C28.9614 111.653 27.5214 113.253 27.5214 115.313V120.733H26.5414V106.733ZM42.2928 120.873C39.5128 120.873 37.2728 118.953 37.2728 115.813C37.2728 112.673 39.5128 110.673 42.2928 110.673C45.0728 110.673 47.3128 112.673 47.3128 115.813C47.3128 118.953 45.0728 120.873 42.2928 120.873ZM42.2928 119.913C44.5328 119.913 46.3528 118.373 46.3528 115.813C46.3528 113.253 44.5328 111.593 42.2928 111.593C40.0528 111.593 38.2328 113.253 38.2328 115.813C38.2328 118.373 40.0528 119.913 42.2928 119.913ZM49.5688 110.853H50.5288V112.613C51.2888 111.253 52.6688 110.693 54.0488 110.673C56.6888 110.673 58.5088 112.293 58.5088 115.033V120.733H57.5288V115.053C57.5288 112.813 56.1488 111.613 54.0088 111.633C51.9688 111.653 50.5488 113.193 50.5488 115.233V120.733H49.5688V110.853ZM65.5327 120.873C62.7527 120.873 60.5127 118.933 60.5127 115.793C60.5127 112.833 62.7527 110.693 65.5327 110.693C68.3127 110.693 70.7927 112.393 70.4127 116.253H61.5127C61.7127 118.573 63.4927 119.913 65.5327 119.913C66.8327 119.913 68.3527 119.393 69.0927 118.413L69.7927 118.973C68.8327 120.233 67.1127 120.873 65.5327 120.873ZM61.5127 115.393H69.5327C69.5127 112.953 67.9127 111.593 65.5327 111.593C63.4927 111.593 61.7327 112.973 61.5127 115.393ZM85.8355 112.013L85.2355 112.653C84.2355 111.773 83.2555 111.613 82.1555 111.613C80.6155 111.593 79.1355 112.173 79.1755 113.433C79.2155 114.753 80.9355 115.013 82.1755 115.233C83.9355 115.533 86.3555 115.833 86.2555 118.133C86.1955 120.313 83.9355 120.893 82.1955 120.893C80.4555 120.893 78.7355 120.233 77.8755 118.913L78.5955 118.273C79.4155 119.453 80.8955 119.953 82.2155 119.953C83.4155 119.953 85.2355 119.633 85.2955 118.073C85.3355 116.653 83.6955 116.373 82.0755 116.113C80.1555 115.793 78.2555 115.433 78.2355 113.453C78.2155 111.513 80.1555 110.673 82.1555 110.693C83.5955 110.693 84.8555 111.093 85.8355 112.013ZM95.8159 110.853H96.8759L90.8559 124.853H89.8159L91.6359 120.613L87.6759 110.853H88.7359L91.0359 116.693L92.1959 119.553L93.3359 116.673L95.8159 110.853ZM106.148 112.013L105.548 112.653C104.548 111.773 103.568 111.613 102.468 111.613C100.928 111.593 99.448 112.173 99.488 113.433C99.528 114.753 101.248 115.013 102.488 115.233C104.248 115.533 106.668 115.833 106.568 118.133C106.508 120.313 104.248 120.893 102.508 120.893C100.768 120.893 99.048 120.233 98.188 118.913L98.908 118.273C99.728 119.453 101.208 119.953 102.528 119.953C103.728 119.953 105.548 119.633 105.608 118.073C105.648 116.653 104.008 116.373 102.388 116.113C100.468 115.793 98.568 115.433 98.548 113.453C98.528 111.513 100.468 110.673 102.468 110.693C103.908 110.693 105.168 111.093 106.148 112.013ZM110.048 107.973L111.008 107.873V110.853H114.368V111.673H111.008V117.693C111.008 119.033 111.288 119.973 112.828 119.973C113.308 119.973 113.848 119.813 114.348 119.573L114.688 120.373C114.068 120.673 113.448 120.873 112.828 120.873C110.728 120.873 110.048 119.633 110.048 117.693V111.673H107.948V110.853H110.048V107.973ZM121.08 120.873C118.3 120.873 116.06 118.933 116.06 115.793C116.06 112.833 118.3 110.693 121.08 110.693C123.86 110.693 126.34 112.393 125.96 116.253H117.06C117.26 118.573 119.04 119.913 121.08 119.913C122.38 119.913 123.9 119.393 124.64 118.413L125.34 118.973C124.38 120.233 122.66 120.873 121.08 120.873ZM117.06 115.393H125.08C125.06 112.953 123.46 111.593 121.08 111.593C119.04 111.593 117.28 112.973 117.06 115.393ZM143.919 120.733H142.939V114.813C142.939 112.913 141.659 111.573 139.779 111.573C137.899 111.573 136.599 112.973 136.599 114.873V120.733H135.619V114.873C135.619 112.973 134.319 111.593 132.439 111.593C130.559 111.593 129.279 112.973 129.279 114.873V120.733H128.299V110.853H129.219L129.239 112.493C129.919 111.193 131.179 110.653 132.459 110.653C133.959 110.653 135.539 111.333 136.119 113.093C136.719 111.473 138.259 110.653 139.779 110.653C142.199 110.653 143.919 112.353 143.919 114.813V120.733ZM165.886 110.853L162.386 120.733H161.306L159.706 116.413L158.506 112.573L157.266 116.433L155.666 120.733H154.586L151.066 110.853H152.146L155.126 119.593L158.146 110.853H158.846L161.846 119.593L164.806 110.853H165.886ZM168.459 110.813V120.733H167.479V110.813H168.459ZM167.199 107.633C167.199 108.673 168.779 108.673 168.779 107.633C168.779 106.593 167.199 106.593 167.199 107.633ZM172.568 107.973L173.528 107.873V110.853H176.888V111.673H173.528V117.693C173.528 119.033 173.808 119.973 175.348 119.973C175.828 119.973 176.368 119.813 176.868 119.573L177.208 120.373C176.588 120.673 175.968 120.873 175.348 120.873C173.248 120.873 172.568 119.633 172.568 117.693V111.673H170.468V110.853H172.568V107.973ZM179.139 106.733H180.079V112.693C180.879 111.273 182.259 110.733 183.639 110.713C186.399 110.713 187.779 112.493 187.779 115.073V120.733H186.819V115.073C186.819 113.033 185.859 111.653 183.639 111.653C181.559 111.653 180.119 113.253 180.119 115.313V120.733H179.139V106.733ZM204.358 110.853H205.338C205.338 114.153 205.338 117.433 205.338 120.733H204.358V118.633C203.398 120.173 201.918 120.893 200.318 120.893C197.558 120.893 195.298 118.813 195.298 115.793C195.298 112.773 197.558 110.733 200.318 110.733C201.918 110.733 203.538 111.473 204.358 113.013V110.853ZM200.318 111.673C198.078 111.673 196.278 113.313 196.278 115.793C196.278 118.273 198.078 119.933 200.318 119.933C205.818 119.933 205.818 111.673 200.318 111.673ZM220.894 112.013L220.294 112.653C219.294 111.773 218.314 111.613 217.214 111.613C215.674 111.593 214.194 112.173 214.234 113.433C214.274 114.753 215.994 115.013 217.234 115.233C218.994 115.533 221.414 115.833 221.314 118.133C221.254 120.313 218.994 120.893 217.254 120.893C215.514 120.893 213.794 120.233 212.934 118.913L213.654 118.273C214.474 119.453 215.954 119.953 217.274 119.953C218.474 119.953 220.294 119.633 220.354 118.073C220.394 116.653 218.754 116.373 217.134 116.113C215.214 115.793 213.314 115.433 213.294 113.453C213.274 111.513 215.214 110.673 217.214 110.693C218.654 110.693 219.914 111.093 220.894 112.013ZM224.475 110.813V120.733H223.495V110.813H224.475ZM223.215 107.633C223.215 108.673 224.795 108.673 224.795 107.633C224.795 106.593 223.215 106.593 223.215 107.633ZM242.904 120.733H241.924V114.813C241.924 112.913 240.644 111.573 238.764 111.573C236.884 111.573 235.584 112.973 235.584 114.873V120.733H234.604V114.873C234.604 112.973 233.304 111.593 231.424 111.593C229.544 111.593 228.264 112.973 228.264 114.873V120.733H227.284V110.853H228.204L228.224 112.493C228.904 111.193 230.164 110.653 231.444 110.653C232.944 110.653 234.524 111.333 235.104 113.093C235.704 111.473 237.244 110.653 238.764 110.653C241.184 110.653 242.904 112.353 242.904 114.813V120.733ZM250.487 119.973C252.727 119.973 254.527 118.573 254.527 115.793C254.527 113.013 252.727 111.653 250.487 111.653C248.187 111.653 246.487 113.393 246.487 115.813C246.487 118.233 248.227 119.973 250.487 119.973ZM246.407 124.853H245.467V110.853H246.427V113.193C247.207 111.693 248.787 110.713 250.707 110.713C253.387 110.813 255.507 112.613 255.507 115.793C255.507 119.113 253.267 120.913 250.487 120.913C248.807 120.913 247.247 120.093 246.407 118.453V124.853ZM257.909 106.733H258.889V120.733H257.909V106.733ZM266.08 120.873C263.3 120.873 261.06 118.933 261.06 115.793C261.06 112.833 263.3 110.693 266.08 110.693C268.86 110.693 271.34 112.393 270.96 116.253H262.06C262.26 118.573 264.04 119.913 266.08 119.913C267.38 119.913 268.9 119.393 269.64 118.413L270.34 118.973C269.38 120.233 267.66 120.873 266.08 120.873ZM262.06 115.393H270.08C270.06 112.953 268.46 111.593 266.08 111.593C264.04 111.593 262.28 112.973 262.06 115.393ZM29.72 146.733H28.74V140.813C28.74 138.913 27.46 137.573 25.58 137.573C23.7 137.573 22.4 138.973 22.4 140.873V146.733H21.42V140.873C21.42 138.973 20.12 137.593 18.24 137.593C16.36 137.593 15.08 138.973 15.08 140.873V146.733H14.1V136.853H15.02L15.04 138.493C15.72 137.193 16.98 136.653 18.26 136.653C19.76 136.653 21.34 137.333 21.92 139.093C22.52 137.473 24.06 136.653 25.58 136.653C28 136.653 29.72 138.353 29.72 140.813V146.733ZM37.0389 146.873C34.2589 146.873 32.0189 144.953 32.0189 141.813C32.0189 138.673 34.2589 136.673 37.0389 136.673C39.8189 136.673 42.0589 138.673 42.0589 141.813C42.0589 144.953 39.8189 146.873 37.0389 146.873ZM37.0389 145.913C39.2789 145.913 41.0989 144.373 41.0989 141.813C41.0989 139.253 39.2789 137.593 37.0389 137.593C34.7989 137.593 32.9789 139.253 32.9789 141.813C32.9789 144.373 34.7989 145.913 37.0389 145.913ZM44.3148 136.853H45.2748V138.613C46.0348 137.253 47.4148 136.693 48.7948 136.673C51.4348 136.673 53.2548 138.293 53.2548 141.033V146.733H52.2748V141.053C52.2748 138.813 50.8948 137.613 48.7548 137.633C46.7148 137.653 45.2948 139.193 45.2948 141.233V146.733H44.3148V136.853ZM56.6891 133.973L57.6491 133.873V136.853H61.0091V137.673H57.6491V143.693C57.6491 145.033 57.9291 145.973 59.4691 145.973C59.9491 145.973 60.4891 145.813 60.9891 145.573L61.3291 146.373C60.7091 146.673 60.0891 146.873 59.4691 146.873C57.3691 146.873 56.6891 145.633 56.6891 143.693V137.673H54.5891V136.853H56.6891V133.973ZM63.2602 132.733H64.2002V138.693C65.0002 137.273 66.3802 136.733 67.7602 136.713C70.5202 136.713 71.9002 138.493 71.9002 141.073V146.733H70.9402V141.073C70.9402 139.033 69.9802 137.653 67.7602 137.653C65.6802 137.653 64.2402 139.253 64.2402 141.313V146.733H63.2602V132.733ZM74.4516 132.733H75.4316V146.733H74.4516V132.733ZM85.7378 136.853H86.7978L80.7778 150.853H79.7378L81.5578 146.613L77.5978 136.853H78.6578L80.9578 142.693L82.1178 145.553L83.2578 142.673L85.7378 136.853ZM101.578 138.013L100.978 138.653C99.9777 137.773 98.9977 137.613 97.8977 137.613C96.3577 137.593 94.8777 138.173 94.9177 139.433C94.9577 140.753 96.6777 141.013 97.9177 141.233C99.6777 141.533 102.098 141.833 101.998 144.133C101.938 146.313 99.6777 146.893 97.9377 146.893C96.1977 146.893 94.4777 146.233 93.6177 144.913L94.3377 144.273C95.1577 145.453 96.6377 145.953 97.9577 145.953C99.1577 145.953 100.978 145.633 101.038 144.073C101.078 142.653 99.4377 142.373 97.8177 142.113C95.8977 141.793 93.9977 141.433 93.9777 139.453C93.9577 137.513 95.8977 136.673 97.8977 136.693C99.3377 136.693 100.598 137.093 101.578 138.013ZM113.098 146.733H112.138V144.953C111.378 146.313 109.998 146.873 108.618 146.893C105.978 146.893 104.158 145.273 104.158 142.533V136.833H105.138V142.513C105.138 144.753 106.518 145.953 108.658 145.933C110.698 145.913 112.118 144.373 112.118 142.333V136.833H113.098V146.733ZM120.702 137.633C118.422 137.633 116.662 139.313 116.662 141.773C116.662 144.233 118.382 145.933 120.702 145.933C122.922 145.933 124.742 144.533 124.742 141.793C124.742 139.013 122.922 137.633 120.702 137.633ZM115.682 132.733H116.642V139.013C117.442 137.413 119.042 136.693 120.742 136.693C123.502 136.693 125.702 138.533 125.702 141.793C125.702 145.073 123.522 146.893 120.762 146.893C119.082 146.893 117.462 146.053 116.642 144.553V146.733H115.682V132.733ZM135.484 138.013L134.884 138.653C133.884 137.773 132.904 137.613 131.804 137.613C130.264 137.593 128.784 138.173 128.824 139.433C128.864 140.753 130.584 141.013 131.824 141.233C133.584 141.533 136.004 141.833 135.904 144.133C135.844 146.313 133.584 146.893 131.844 146.893C130.104 146.893 128.384 146.233 127.524 144.913L128.244 144.273C129.064 145.453 130.544 145.953 131.864 145.953C133.064 145.953 134.884 145.633 134.944 144.073C134.984 142.653 133.344 142.373 131.724 142.113C129.804 141.793 127.904 141.433 127.884 139.453C127.864 137.513 129.804 136.673 131.804 136.693C133.244 136.693 134.504 137.093 135.484 138.013ZM145.524 144.693L146.184 145.353C145.184 146.353 143.884 146.833 142.584 146.833C139.804 146.833 137.504 144.913 137.504 141.793C137.504 138.673 139.724 136.753 142.584 136.753C143.884 136.753 145.184 137.253 146.184 138.233L145.544 138.853C144.744 138.053 143.644 137.673 142.584 137.673C140.344 137.673 138.464 139.133 138.464 141.793C138.464 144.453 140.344 145.913 142.584 145.913C143.644 145.913 144.724 145.493 145.524 144.693ZM148.182 136.853H149.102L149.142 138.613C149.762 137.273 151.162 136.753 152.422 136.753C153.162 136.733 153.882 136.933 154.542 137.333L154.102 138.133C153.582 137.813 153.002 137.673 152.422 137.673C150.582 137.693 149.162 139.173 149.162 140.973V146.733H148.182V136.853ZM156.994 136.813V146.733H156.014V136.813H156.994ZM155.734 133.633C155.734 134.673 157.314 134.673 157.314 133.633C157.314 132.593 155.734 132.593 155.734 133.633ZM164.823 145.973C167.063 145.973 168.863 144.573 168.863 141.793C168.863 139.013 167.063 137.653 164.823 137.653C162.523 137.653 160.823 139.393 160.823 141.813C160.823 144.233 162.563 145.973 164.823 145.973ZM160.743 150.853H159.803V136.853H160.763V139.193C161.543 137.693 163.123 136.713 165.043 136.713C167.723 136.813 169.843 138.613 169.843 141.793C169.843 145.113 167.603 146.913 164.823 146.913C163.143 146.913 161.583 146.093 160.743 144.453V150.853ZM173.545 133.973L174.505 133.873V136.853H177.865V137.673H174.505V143.693C174.505 145.033 174.785 145.973 176.325 145.973C176.805 145.973 177.345 145.813 177.845 145.573L178.185 146.373C177.565 146.673 176.945 146.873 176.325 146.873C174.225 146.873 173.545 145.633 173.545 143.693V137.673H171.445V136.853H173.545V133.973ZM181.096 136.813V146.733H180.116V136.813H181.096ZM179.836 133.633C179.836 134.673 181.416 134.673 181.416 133.633C181.416 132.593 179.836 132.593 179.836 133.633ZM188.68 146.873C185.9 146.873 183.66 144.953 183.66 141.813C183.66 138.673 185.9 136.673 188.68 136.673C191.46 136.673 193.7 138.673 193.7 141.813C193.7 144.953 191.46 146.873 188.68 146.873ZM188.68 145.913C190.92 145.913 192.74 144.373 192.74 141.813C192.74 139.253 190.92 137.593 188.68 137.593C186.44 137.593 184.62 139.253 184.62 141.813C184.62 144.373 186.44 145.913 188.68 145.913ZM195.955 136.853H196.915V138.613C197.675 137.253 199.055 136.693 200.435 136.673C203.075 136.673 204.895 138.293 204.895 141.033V146.733H203.915V141.053C203.915 138.813 202.535 137.613 200.395 137.633C198.355 137.653 196.935 139.193 196.935 141.233V146.733H195.955V136.853ZM207.259 146.133C207.259 145.093 208.839 145.093 208.839 146.133C208.839 146.253 208.819 146.353 208.779 146.473L207.979 148.513H207.119L207.739 146.853C207.479 146.753 207.259 146.513 207.259 146.133ZM223.912 137.573L224.872 136.453L225.512 137.013L224.552 138.133C225.252 138.893 225.772 139.893 225.772 141.493C225.772 143.213 224.752 144.953 223.112 145.693C224.852 146.313 225.812 147.533 225.812 149.233C225.812 151.893 223.732 153.173 221.112 153.173C218.492 153.173 216.432 151.733 216.432 149.233H217.412C217.412 151.253 219.132 152.213 221.112 152.213C223.092 152.213 224.852 151.333 224.852 149.233C224.852 147.113 222.952 146.273 221.112 146.273C218.252 146.273 216.472 144.133 216.472 141.493C216.472 138.413 218.552 136.673 221.112 136.673C222.112 136.673 223.152 137.033 223.912 137.573ZM221.112 137.653C219.092 137.653 217.452 138.913 217.452 141.493C217.452 143.533 218.852 145.293 221.112 145.293C223.152 145.293 224.812 143.533 224.812 141.493C224.812 138.993 223.152 137.653 221.112 137.653ZM228.771 136.813V146.733H227.791V136.813H228.771ZM227.511 133.633C227.511 134.673 229.091 134.673 229.091 133.633C229.091 132.593 227.511 132.593 227.511 133.633ZM234.78 146.733L230.64 136.853H231.72L235.32 145.593L238.92 136.853H240L235.86 146.733H234.78ZM242.6 136.813V146.733H241.62V136.813H242.6ZM241.34 133.633C241.34 134.673 242.92 134.673 242.92 133.633C242.92 132.593 241.34 132.593 241.34 133.633ZM245.409 136.853H246.369V138.613C247.129 137.253 248.509 136.693 249.889 136.673C252.529 136.673 254.349 138.293 254.349 141.033V146.733H253.369V141.053C253.369 138.813 251.989 137.613 249.849 137.633C247.809 137.653 246.389 139.193 246.389 141.233V146.733H245.409V136.853ZM263.893 137.573L264.853 136.453L265.493 137.013L264.533 138.133C265.233 138.893 265.753 139.893 265.753 141.493C265.753 143.213 264.733 144.953 263.093 145.693C264.833 146.313 265.793 147.533 265.793 149.233C265.793 151.893 263.713 153.173 261.092 153.173C258.473 153.173 256.413 151.733 256.413 149.233H257.393C257.393 151.253 259.113 152.213 261.092 152.213C263.073 152.213 264.833 151.333 264.833 149.233C264.833 147.113 262.933 146.273 261.092 146.273C258.233 146.273 256.453 144.133 256.453 141.493C256.453 138.413 258.533 136.673 261.092 136.673C262.093 136.673 263.133 137.033 263.893 137.573ZM261.092 137.653C259.073 137.653 257.433 138.913 257.433 141.493C257.433 143.533 258.833 145.293 261.092 145.293C263.133 145.293 264.793 143.533 264.793 141.493C264.793 138.993 263.133 137.653 261.092 137.653ZM21.48 162.853H22.54L16.52 176.853H15.48L17.3 172.613L13.34 162.853H14.4L16.7 168.693L17.86 171.553L19 168.673L21.48 162.853ZM28.992 172.873C26.212 172.873 23.972 170.953 23.972 167.813C23.972 164.673 26.212 162.673 28.992 162.673C31.772 162.673 34.012 164.673 34.012 167.813C34.012 170.953 31.772 172.873 28.992 172.873ZM28.992 171.913C31.232 171.913 33.052 170.373 33.052 167.813C33.052 165.253 31.232 163.593 28.992 163.593C26.752 163.593 24.932 165.253 24.932 167.813C24.932 170.373 26.752 171.913 28.992 171.913ZM45.188 172.733H44.228V170.953C43.468 172.313 42.088 172.873 40.708 172.893C38.068 172.893 36.248 171.273 36.248 168.533V162.833H37.228V168.513C37.228 170.753 38.608 171.953 40.748 171.933C42.788 171.913 44.208 170.373 44.208 168.333V162.833H45.188V172.733ZM55.2597 172.733H54.2997V163.793H52.2797V162.933H54.2997V162.053C54.2997 160.093 55.0797 158.673 57.2597 158.673C57.9997 158.673 58.6597 158.933 59.2197 159.353L58.7397 160.073C58.1997 159.753 57.8197 159.573 57.2197 159.573C55.9797 159.573 55.2597 160.333 55.2597 162.053V162.933H58.5197V163.793H55.2597V172.733ZM69.3091 172.733H68.3491V170.953C67.5891 172.313 66.2091 172.873 64.8291 172.893C62.1891 172.893 60.3691 171.273 60.3691 168.533V162.833H61.3491V168.513C61.3491 170.753 62.7291 171.953 64.8691 171.933C66.9091 171.913 68.3291 170.373 68.3291 168.333V162.833H69.3091V172.733ZM71.893 158.733H72.873V172.733H71.893V158.733ZM75.6039 158.733H76.5839V172.733H75.6039V158.733ZM93.3427 162.853H94.3227C94.3227 166.153 94.3227 169.433 94.3227 172.733H93.3427V170.633C92.3827 172.173 90.9027 172.893 89.3027 172.893C86.5427 172.893 84.2827 170.813 84.2827 167.793C84.2827 164.773 86.5427 162.733 89.3027 162.733C90.9027 162.733 92.5227 163.473 93.3427 165.013V162.853ZM89.3027 163.673C87.0627 163.673 85.2627 165.313 85.2627 167.793C85.2627 170.273 87.0627 171.933 89.3027 171.933C94.8027 171.933 94.8027 163.673 89.3027 163.673ZM104.645 170.693L105.305 171.353C104.305 172.353 103.005 172.833 101.705 172.833C98.9255 172.833 96.6255 170.913 96.6255 167.793C96.6255 164.673 98.8455 162.753 101.705 162.753C103.005 162.753 104.305 163.253 105.305 164.233L104.665 164.853C103.865 164.053 102.765 163.673 101.705 163.673C99.4655 163.673 97.5855 165.133 97.5855 167.793C97.5855 170.453 99.4655 171.913 101.705 171.913C102.765 171.913 103.845 171.493 104.645 170.693ZM114.743 170.693L115.403 171.353C114.403 172.353 113.103 172.833 111.803 172.833C109.023 172.833 106.723 170.913 106.723 167.793C106.723 164.673 108.943 162.753 111.803 162.753C113.103 162.753 114.403 163.253 115.403 164.233L114.763 164.853C113.963 164.053 112.863 163.673 111.803 163.673C109.563 163.673 107.683 165.133 107.683 167.793C107.683 170.453 109.563 171.913 111.803 171.913C112.863 171.913 113.943 171.493 114.743 170.693ZM122.251 172.873C119.471 172.873 117.231 170.933 117.231 167.793C117.231 164.833 119.471 162.693 122.251 162.693C125.031 162.693 127.511 164.393 127.131 168.253H118.231C118.431 170.573 120.211 171.913 122.251 171.913C123.551 171.913 125.071 171.393 125.811 170.413L126.511 170.973C125.551 172.233 123.831 172.873 122.251 172.873ZM118.231 167.393H126.251C126.231 164.953 124.631 163.593 122.251 163.593C120.211 163.593 118.451 164.973 118.231 167.393ZM137.046 164.013L136.446 164.653C135.446 163.773 134.466 163.613 133.366 163.613C131.826 163.593 130.346 164.173 130.386 165.433C130.426 166.753 132.146 167.013 133.386 167.233C135.146 167.533 137.566 167.833 137.466 170.133C137.406 172.313 135.146 172.893 133.406 172.893C131.666 172.893 129.946 172.233 129.086 170.913L129.806 170.273C130.626 171.453 132.106 171.953 133.426 171.953C134.626 171.953 136.446 171.633 136.506 170.073C136.546 168.653 134.906 168.373 133.286 168.113C131.366 167.793 129.466 167.433 129.446 165.453C129.426 163.513 131.366 162.673 133.366 162.693C134.806 162.693 136.066 163.093 137.046 164.013ZM147.027 164.013L146.427 164.653C145.427 163.773 144.447 163.613 143.347 163.613C141.807 163.593 140.327 164.173 140.367 165.433C140.407 166.753 142.127 167.013 143.367 167.233C145.127 167.533 147.547 167.833 147.447 170.133C147.387 172.313 145.127 172.893 143.387 172.893C141.647 172.893 139.927 172.233 139.067 170.913L139.787 170.273C140.607 171.453 142.087 171.953 143.407 171.953C144.607 171.953 146.427 171.633 146.487 170.073C146.527 168.653 144.887 168.373 143.267 168.113C141.347 167.793 139.447 167.433 139.427 165.453C139.407 163.513 141.347 162.673 143.347 162.693C144.787 162.693 146.047 163.093 147.027 164.013ZM156.435 159.973L157.395 159.873V162.853H160.755V163.673H157.395V169.693C157.395 171.033 157.675 171.973 159.215 171.973C159.695 171.973 160.235 171.813 160.735 171.573L161.075 172.373C160.455 172.673 159.835 172.873 159.215 172.873C157.115 172.873 156.435 171.633 156.435 169.693V163.673H154.335V162.853H156.435V159.973ZM167.566 172.873C164.786 172.873 162.546 170.953 162.546 167.813C162.546 164.673 164.786 162.673 167.566 162.673C170.346 162.673 172.586 164.673 172.586 167.813C172.586 170.953 170.346 172.873 167.566 172.873ZM167.566 171.913C169.806 171.913 171.626 170.373 171.626 167.813C171.626 165.253 169.806 163.593 167.566 163.593C165.326 163.593 163.506 165.253 163.506 167.813C163.506 170.373 165.326 171.913 167.566 171.913ZM181.33 162.813V172.733H180.35V162.813H181.33ZM180.07 159.633C180.07 160.673 181.65 160.673 181.65 159.633C181.65 158.593 180.07 158.593 180.07 159.633ZM185.439 159.973L186.399 159.873V162.853H189.759V163.673H186.399V169.693C186.399 171.033 186.679 171.973 188.219 171.973C188.699 171.973 189.239 171.813 189.739 171.573L190.079 172.373C189.459 172.673 188.839 172.873 188.219 172.873C186.119 172.873 185.439 171.633 185.439 169.693V163.673H183.339V162.853H185.439V159.973ZM199.39 164.013L198.79 164.653C197.79 163.773 196.81 163.613 195.71 163.613C194.17 163.593 192.69 164.173 192.73 165.433C192.77 166.753 194.49 167.013 195.73 167.233C197.49 167.533 199.91 167.833 199.81 170.133C199.75 172.313 197.49 172.893 195.75 172.893C194.01 172.893 192.29 172.233 191.43 170.913L192.15 170.273C192.97 171.453 194.45 171.953 195.77 171.953C196.97 171.953 198.79 171.633 198.85 170.073C198.89 168.653 197.25 168.373 195.63 168.113C193.71 167.793 191.81 167.433 191.79 165.453C191.77 163.513 193.71 162.673 195.71 162.693C197.15 162.693 198.41 163.093 199.39 164.013ZM16.08 198.733H15.12V189.793H13.1V188.933H15.12V188.053C15.12 186.093 15.9 184.673 18.08 184.673C18.82 184.673 19.48 184.933 20.04 185.353L19.56 186.073C19.02 185.753 18.64 185.573 18.04 185.573C16.8 185.573 16.08 186.333 16.08 188.053V188.933H19.34V189.793H16.08V198.733ZM26.0991 198.873C23.3191 198.873 21.0791 196.933 21.0791 193.793C21.0791 190.833 23.3191 188.693 26.0991 188.693C28.8791 188.693 31.3591 190.393 30.9791 194.253H22.0791C22.2791 196.573 24.0591 197.913 26.0991 197.913C27.3991 197.913 28.9191 197.393 29.6591 196.413L30.3591 196.973C29.3991 198.233 27.6791 198.873 26.0991 198.873ZM22.0791 193.393H30.0991C30.0791 190.953 28.4791 189.593 26.0991 189.593C24.0591 189.593 22.2991 190.973 22.0791 193.393ZM42.0341 188.853H43.0141C43.0141 192.153 43.0141 195.433 43.0141 198.733H42.0341V196.633C41.0741 198.173 39.5941 198.893 37.9941 198.893C35.2341 198.893 32.9741 196.813 32.9741 193.793C32.9741 190.773 35.2341 188.733 37.9941 188.733C39.5941 188.733 41.2141 189.473 42.0341 191.013V188.853ZM37.9941 189.673C35.7541 189.673 33.9541 191.313 33.9541 193.793C33.9541 196.273 35.7541 197.933 37.9941 197.933C43.4941 197.933 43.4941 189.673 37.9941 189.673ZM46.5523 185.973L47.5123 185.873V188.853H50.8723V189.673H47.5123V195.693C47.5123 197.033 47.7923 197.973 49.3323 197.973C49.8123 197.973 50.3523 197.813 50.8523 197.573L51.1923 198.373C50.5723 198.673 49.9523 198.873 49.3323 198.873C47.2323 198.873 46.5523 197.633 46.5523 195.693V189.673H44.4523V188.853H46.5523V185.973ZM62.0434 198.733H61.0834V196.953C60.3234 198.313 58.9434 198.873 57.5634 198.893C54.9234 198.893 53.1034 197.273 53.1034 194.533V188.833H54.0834V194.513C54.0834 196.753 55.4634 197.953 57.6034 197.933C59.6434 197.913 61.0634 196.373 61.0634 194.333V188.833H62.0434V198.733ZM64.6273 188.853H65.5473L65.5873 190.613C66.2073 189.273 67.6073 188.753 68.8673 188.753C69.6073 188.733 70.3273 188.933 70.9873 189.333L70.5473 190.133C70.0273 189.813 69.4473 189.673 68.8673 189.673C67.0273 189.693 65.6073 191.173 65.6073 192.973V198.733H64.6273V188.853ZM76.9194 198.873C74.1394 198.873 71.8994 196.933 71.8994 193.793C71.8994 190.833 74.1394 188.693 76.9194 188.693C79.6994 188.693 82.1794 190.393 81.7994 194.253H72.8994C73.0994 196.573 74.8794 197.913 76.9194 197.913C78.2194 197.913 79.7394 197.393 80.4794 196.413L81.1794 196.973C80.2194 198.233 78.4994 198.873 76.9194 198.873ZM72.8994 193.393H80.9194C80.8994 190.953 79.2994 189.593 76.9194 189.593C74.8794 189.593 73.1194 190.973 72.8994 193.393ZM91.7144 190.013L91.1144 190.653C90.1144 189.773 89.1344 189.613 88.0344 189.613C86.4944 189.593 85.0144 190.173 85.0544 191.433C85.0944 192.753 86.8144 193.013 88.0544 193.233C89.8144 193.533 92.2344 193.833 92.1344 196.133C92.0744 198.313 89.8144 198.893 88.0744 198.893C86.3344 198.893 84.6144 198.233 83.7544 196.913L84.4744 196.273C85.2944 197.453 86.7744 197.953 88.0944 197.953C89.2944 197.953 91.1144 197.633 91.1744 196.073C91.2144 194.653 89.5744 194.373 87.9544 194.113C86.0344 193.793 84.1344 193.433 84.1144 191.453C84.0944 189.513 86.0344 188.673 88.0344 188.693C89.4744 188.693 90.7344 189.093 91.7144 190.013ZM113.523 188.853L110.023 198.733H108.943L107.343 194.413L106.143 190.573L104.903 194.433L103.303 198.733H102.223L98.7027 188.853H99.7827L102.763 197.593L105.783 188.853H106.483L109.483 197.593L112.443 188.853H113.523ZM116.096 188.813V198.733H115.116V188.813H116.096ZM114.836 185.633C114.836 186.673 116.416 186.673 116.416 185.633C116.416 184.593 114.836 184.593 114.836 185.633ZM120.205 185.973L121.165 185.873V188.853H124.525V189.673H121.165V195.693C121.165 197.033 121.445 197.973 122.985 197.973C123.465 197.973 124.005 197.813 124.505 197.573L124.845 198.373C124.225 198.673 123.605 198.873 122.985 198.873C120.885 198.873 120.205 197.633 120.205 195.693V189.673H118.105V188.853H120.205V185.973ZM126.776 184.733H127.716V190.693C128.516 189.273 129.896 188.733 131.276 188.713C134.036 188.713 135.416 190.493 135.416 193.073V198.733H134.456V193.073C134.456 191.033 133.496 189.653 131.276 189.653C129.196 189.653 127.756 191.253 127.756 193.313V198.733H126.776V184.733ZM142.527 198.873C139.747 198.873 137.507 196.953 137.507 193.813C137.507 190.673 139.747 188.673 142.527 188.673C145.307 188.673 147.547 190.673 147.547 193.813C147.547 196.953 145.307 198.873 142.527 198.873ZM142.527 197.913C144.767 197.913 146.587 196.373 146.587 193.813C146.587 191.253 144.767 189.593 142.527 189.593C140.287 189.593 138.467 191.253 138.467 193.813C138.467 196.373 140.287 197.913 142.527 197.913ZM158.723 198.733H157.763V196.953C157.003 198.313 155.623 198.873 154.243 198.893C151.603 198.893 149.783 197.273 149.783 194.533V188.833H150.763V194.513C150.763 196.753 152.143 197.953 154.283 197.933C156.323 197.913 157.743 196.373 157.743 194.333V188.833H158.723V198.733ZM162.607 185.973L163.567 185.873V188.853H166.927V189.673H163.567V195.693C163.567 197.033 163.847 197.973 165.387 197.973C165.867 197.973 166.407 197.813 166.907 197.573L167.247 198.373C166.627 198.673 166.007 198.873 165.387 198.873C163.287 198.873 162.607 197.633 162.607 195.693V189.673H160.507V188.853H162.607V185.973ZM175.986 185.973L176.946 185.873V188.853H180.306V189.673H176.946V195.693C176.946 197.033 177.226 197.973 178.766 197.973C179.246 197.973 179.786 197.813 180.286 197.573L180.626 198.373C180.006 198.673 179.386 198.873 178.766 198.873C176.666 198.873 175.986 197.633 175.986 195.693V189.673H173.886V188.853H175.986V185.973ZM182.557 184.733H183.497V190.693C184.297 189.273 185.677 188.733 187.057 188.713C189.817 188.713 191.197 190.493 191.197 193.073V198.733H190.237V193.073C190.237 191.033 189.277 189.653 187.057 189.653C184.977 189.653 183.537 191.253 183.537 193.313V198.733H182.557V184.733ZM198.208 198.873C195.428 198.873 193.188 196.933 193.188 193.793C193.188 190.833 195.428 188.693 198.208 188.693C200.988 188.693 203.468 190.393 203.088 194.253H194.188C194.388 196.573 196.168 197.913 198.208 197.913C199.508 197.913 201.028 197.393 201.768 196.413L202.468 196.973C201.508 198.233 199.788 198.873 198.208 198.873ZM194.188 193.393H202.208C202.188 190.953 200.588 189.593 198.208 189.593C196.168 189.593 194.408 190.973 194.188 193.393ZM211.131 188.853H212.091V190.613C212.851 189.253 214.231 188.693 215.611 188.673C218.251 188.673 220.071 190.293 220.071 193.033V198.733H219.091V193.053C219.091 190.813 217.711 189.613 215.571 189.633C213.531 189.653 212.111 191.193 212.111 193.233V198.733H211.131V188.853ZM227.095 198.873C224.315 198.873 222.075 196.933 222.075 193.793C222.075 190.833 224.315 188.693 227.095 188.693C229.875 188.693 232.355 190.393 231.975 194.253H223.075C223.275 196.573 225.055 197.913 227.095 197.913C228.395 197.913 229.915 197.393 230.655 196.413L231.355 196.973C230.395 198.233 228.675 198.873 227.095 198.873ZM223.075 193.393H231.095C231.075 190.953 229.475 189.593 227.095 189.593C225.055 189.593 223.295 190.973 223.075 193.393ZM238.97 198.873C236.19 198.873 233.95 196.933 233.95 193.793C233.95 190.833 236.19 188.693 238.97 188.693C241.75 188.693 244.23 190.393 243.85 194.253H234.95C235.15 196.573 236.93 197.913 238.97 197.913C240.27 197.913 241.79 197.393 242.53 196.413L243.23 196.973C242.27 198.233 240.55 198.873 238.97 198.873ZM234.95 193.393H242.97C242.95 190.953 241.35 189.593 238.97 189.593C236.93 189.593 235.17 190.973 234.95 193.393ZM250.845 189.633C248.625 189.633 246.805 191.013 246.805 193.793C246.805 196.533 248.625 197.933 250.845 197.933C253.165 197.933 254.885 196.233 254.885 193.773C254.885 191.313 253.125 189.633 250.845 189.633ZM254.905 184.733H255.865V198.733H254.905V196.553C254.085 198.053 252.465 198.893 250.785 198.893C248.025 198.893 245.845 197.073 245.845 193.793C245.845 190.533 248.045 188.693 250.805 188.693C252.505 188.693 254.105 189.413 254.905 191.013V184.733ZM16.08 224.733H15.12V215.793H13.1V214.933H15.12V214.053C15.12 212.093 15.9 210.673 18.08 210.673C18.82 210.673 19.48 210.933 20.04 211.353L19.56 212.073C19.02 211.753 18.64 211.573 18.04 211.573C16.8 211.573 16.08 212.333 16.08 214.053V214.933H19.34V215.793H16.08V224.733ZM25.3788 224.873C22.5988 224.873 20.3588 222.953 20.3588 219.813C20.3588 216.673 22.5988 214.673 25.3788 214.673C28.1588 214.673 30.3988 216.673 30.3988 219.813C30.3988 222.953 28.1588 224.873 25.3788 224.873ZM25.3788 223.913C27.6188 223.913 29.4388 222.373 29.4388 219.813C29.4388 217.253 27.6188 215.593 25.3788 215.593C23.1388 215.593 21.3188 217.253 21.3188 219.813C21.3188 222.373 23.1388 223.913 25.3788 223.913ZM32.6547 214.853H33.5747L33.6147 216.613C34.2347 215.273 35.6347 214.753 36.8947 214.753C37.6347 214.733 38.3547 214.933 39.0147 215.333L38.5747 216.133C38.0547 215.813 37.4747 215.673 36.8947 215.673C35.0547 215.693 33.6347 217.173 33.6347 218.973V224.733H32.6547V214.853ZM54.5145 214.853H55.4945C55.4945 218.153 55.4945 221.433 55.4945 224.733H54.5145V222.633C53.5545 224.173 52.0745 224.893 50.4745 224.893C47.7145 224.893 45.4545 222.813 45.4545 219.793C45.4545 216.773 47.7145 214.733 50.4745 214.733C52.0745 214.733 53.6945 215.473 54.5145 217.013V214.853ZM50.4745 215.673C48.2345 215.673 46.4345 217.313 46.4345 219.793C46.4345 222.273 48.2345 223.933 50.4745 223.933C55.9745 223.933 55.9745 215.673 50.4745 215.673ZM63.6703 210.733H64.6503V224.733H63.6703V210.733ZM75.9013 214.853H76.8813C76.8813 218.153 76.8813 221.433 76.8813 224.733H75.9013V222.633C74.9413 224.173 73.4613 224.893 71.8613 224.893C69.1013 224.893 66.8413 222.813 66.8413 219.793C66.8413 216.773 69.1013 214.733 71.8613 214.733C73.4613 214.733 75.0813 215.473 75.9013 217.013V214.853ZM71.8613 215.673C69.6213 215.673 67.8213 217.313 67.8213 219.793C67.8213 222.273 69.6213 223.933 71.8613 223.933C77.3613 223.933 77.3613 215.673 71.8613 215.673ZM79.5492 214.853H80.4692L80.5092 216.613C81.1292 215.273 82.5292 214.753 83.7892 214.753C84.5292 214.733 85.2492 214.933 85.9092 215.333L85.4692 216.133C84.9492 215.813 84.3692 215.673 83.7892 215.673C81.9492 215.693 80.5292 217.173 80.5292 218.973V224.733H79.5492V214.853ZM94.3613 215.573L95.3213 214.453L95.9613 215.013L95.0013 216.133C95.7013 216.893 96.2213 217.893 96.2213 219.493C96.2213 221.213 95.2013 222.953 93.5613 223.693C95.3013 224.313 96.2613 225.533 96.2613 227.233C96.2613 229.893 94.1813 231.173 91.5612 231.173C88.9413 231.173 86.8813 229.733 86.8813 227.233H87.8613C87.8613 229.253 89.5813 230.213 91.5612 230.213C93.5413 230.213 95.3013 229.333 95.3013 227.233C95.3013 225.113 93.4013 224.273 91.5612 224.273C88.7013 224.273 86.9213 222.133 86.9213 219.493C86.9213 216.413 89.0013 214.673 91.5612 214.673C92.5613 214.673 93.6013 215.033 94.3613 215.573ZM91.5612 215.653C89.5413 215.653 87.9013 216.913 87.9013 219.493C87.9013 221.533 89.3013 223.293 91.5612 223.293C93.6013 223.293 95.2613 221.533 95.2613 219.493C95.2613 216.993 93.6013 215.653 91.5612 215.653ZM102.701 224.873C99.9206 224.873 97.6806 222.933 97.6806 219.793C97.6806 216.833 99.9206 214.693 102.701 214.693C105.481 214.693 107.961 216.393 107.581 220.253H98.6806C98.8806 222.573 100.661 223.913 102.701 223.913C104.001 223.913 105.521 223.393 106.261 222.413L106.961 222.973C106.001 224.233 104.281 224.873 102.701 224.873ZM98.6806 219.393H106.701C106.681 216.953 105.081 215.593 102.701 215.593C100.661 215.593 98.9006 216.973 98.6806 219.393ZM124.543 224.733H123.583V222.953C122.823 224.313 121.443 224.873 120.063 224.893C117.423 224.893 115.603 223.273 115.603 220.533V214.833H116.583V220.513C116.583 222.753 117.963 223.953 120.103 223.933C122.143 223.913 123.563 222.373 123.563 220.333V214.833H124.543V224.733ZM132.147 223.973C134.387 223.973 136.187 222.573 136.187 219.793C136.187 217.013 134.387 215.653 132.147 215.653C129.847 215.653 128.147 217.393 128.147 219.813C128.147 222.233 129.887 223.973 132.147 223.973ZM128.067 228.853H127.127V214.853H128.087V217.193C128.867 215.693 130.447 214.713 132.367 214.713C135.047 214.813 137.167 216.613 137.167 219.793C137.167 223.113 134.927 224.913 132.147 224.913C130.467 224.913 128.907 224.093 128.067 222.453V228.853ZM141.549 224.733H140.589V215.793H138.569V214.933H140.589V214.053C140.589 212.093 141.369 210.673 143.549 210.673C144.289 210.673 144.949 210.933 145.509 211.353L145.029 212.073C144.489 211.753 144.109 211.573 143.509 211.573C142.269 211.573 141.549 212.333 141.549 214.053V214.933H144.809V215.793H141.549V224.733ZM146.913 214.853H147.833L147.873 216.613C148.493 215.273 149.893 214.753 151.153 214.753C151.893 214.733 152.613 214.933 153.273 215.333L152.833 216.133C152.313 215.813 151.733 215.673 151.153 215.673C149.313 215.693 147.893 217.173 147.893 218.973V224.733H146.913V214.853ZM159.305 224.873C156.525 224.873 154.285 222.953 154.285 219.813C154.285 216.673 156.525 214.673 159.305 214.673C162.085 214.673 164.325 216.673 164.325 219.813C164.325 222.953 162.085 224.873 159.305 224.873ZM159.305 223.913C161.545 223.913 163.365 222.373 163.365 219.813C163.365 217.253 161.545 215.593 159.305 215.593C157.065 215.593 155.245 217.253 155.245 219.813C155.245 222.373 157.065 223.913 159.305 223.913ZM166.58 214.853H167.54V216.613C168.3 215.253 169.68 214.693 171.06 214.673C173.7 214.673 175.52 216.293 175.52 219.033V224.733H174.54V219.053C174.54 216.813 173.16 215.613 171.02 215.633C168.98 215.653 167.56 217.193 167.56 219.233V224.733H166.58V214.853ZM178.955 211.973L179.915 211.873V214.853H183.275V215.673H179.915V221.693C179.915 223.033 180.195 223.973 181.735 223.973C182.215 223.973 182.755 223.813 183.255 223.573L183.595 224.373C182.975 224.673 182.355 224.873 181.735 224.873C179.635 224.873 178.955 223.633 178.955 221.693V215.673H176.855V214.853H178.955V211.973ZM15.08 240.813V250.733H14.1V240.813H15.08ZM13.82 237.633C13.82 238.673 15.4 238.673 15.4 237.633C15.4 236.593 13.82 236.593 13.82 237.633ZM17.8891 240.853H18.8491V242.613C19.6091 241.253 20.9891 240.693 22.3691 240.673C25.0091 240.673 26.8291 242.293 26.8291 245.033V250.733H25.8491V245.053C25.8491 242.813 24.4691 241.613 22.3291 241.633C20.2891 241.653 18.8691 243.193 18.8691 245.233V250.733H17.8891V240.853ZM31.968 250.733L27.828 240.853H28.908L32.508 249.593L36.108 240.853H37.188L33.048 250.733H31.968ZM43.267 250.873C40.487 250.873 38.247 248.933 38.247 245.793C38.247 242.833 40.487 240.693 43.267 240.693C46.047 240.693 48.527 242.393 48.147 246.253H39.247C39.447 248.573 41.227 249.913 43.267 249.913C44.567 249.913 46.087 249.393 46.827 248.413L47.527 248.973C46.567 250.233 44.847 250.873 43.267 250.873ZM39.247 245.393H47.267C47.247 242.953 45.647 241.593 43.267 241.593C41.227 241.593 39.467 242.973 39.247 245.393ZM58.062 242.013L57.462 242.653C56.462 241.773 55.482 241.613 54.382 241.613C52.842 241.593 51.362 242.173 51.402 243.433C51.442 244.753 53.162 245.013 54.402 245.233C56.162 245.533 58.582 245.833 58.482 248.133C58.422 250.313 56.162 250.893 54.422 250.893C52.682 250.893 50.962 250.233 50.102 248.913L50.822 248.273C51.642 249.453 53.122 249.953 54.442 249.953C55.642 249.953 57.462 249.633 57.522 248.073C57.562 246.653 55.922 246.373 54.302 246.113C52.382 245.793 50.482 245.433 50.462 243.453C50.442 241.513 52.382 240.673 54.382 240.693C55.822 240.693 57.082 241.093 58.062 242.013ZM61.9625 237.973L62.9225 237.873V240.853H66.2825V241.673H62.9225V247.693C62.9225 249.033 63.2025 249.973 64.7425 249.973C65.2225 249.973 65.7625 249.813 66.2625 249.573L66.6025 250.373C65.9825 250.673 65.3625 250.873 64.7425 250.873C62.6425 250.873 61.9625 249.633 61.9625 247.693V241.673H59.8625V240.853H61.9625V237.973ZM84.1536 250.733H83.1736V244.813C83.1736 242.913 81.8936 241.573 80.0136 241.573C78.1336 241.573 76.8336 242.973 76.8336 244.873V250.733H75.8536V244.873C75.8536 242.973 74.5536 241.593 72.6736 241.593C70.7936 241.593 69.5136 242.973 69.5136 244.873V250.733H68.5336V240.853H69.4536L69.4736 242.493C70.1536 241.193 71.4136 240.653 72.6936 240.653C74.1936 240.653 75.7736 241.333 76.3536 243.093C76.9536 241.473 78.4936 240.653 80.0136 240.653C82.4336 240.653 84.1536 242.353 84.1536 244.813V250.733ZM91.3725 250.873C88.5925 250.873 86.3525 248.933 86.3525 245.793C86.3525 242.833 88.5925 240.693 91.3725 240.693C94.1525 240.693 96.6325 242.393 96.2525 246.253H87.3525C87.5525 248.573 89.3325 249.913 91.3725 249.913C92.6725 249.913 94.1925 249.393 94.9325 248.413L95.6325 248.973C94.6725 250.233 92.9525 250.873 91.3725 250.873ZM87.3525 245.393H95.3725C95.3525 242.953 93.7525 241.593 91.3725 241.593C89.3325 241.593 87.5725 242.973 87.3525 245.393ZM98.7875 240.853H99.7475V242.613C100.508 241.253 101.888 240.693 103.268 240.673C105.908 240.673 107.728 242.293 107.728 245.033V250.733H106.748V245.053C106.748 242.813 105.368 241.613 103.228 241.633C101.188 241.653 99.7675 243.193 99.7675 245.233V250.733H98.7875V240.853ZM111.162 237.973L112.122 237.873V240.853H115.482V241.673H112.122V247.693C112.122 249.033 112.402 249.973 113.942 249.973C114.422 249.973 114.962 249.813 115.462 249.573L115.802 250.373C115.182 250.673 114.562 250.873 113.942 250.873C111.842 250.873 111.162 249.633 111.162 247.693V241.673H109.062V240.853H111.162V237.973ZM117.353 250.133C117.353 249.093 118.933 249.093 118.933 250.133C118.933 251.173 117.353 251.173 117.353 250.133Z" fill="#1E1E1E"/>
<defs>
<clipPath id="clip0_2742_786">
<rect width="27.7266" height="28.4759" fill="white" transform="translate(23 21.7659)"/>
</clipPath>
</defs>
</svg>
