<svg width="45" height="52" viewBox="0 0 45 52" fill="none" xmlns="http://www.w3.org/2000/svg">
<g clip-path="url(#clip0_2569_1572)">
<path d="M43.902 44.2708L38.4661 30.8028C40.9691 27.5357 42.484 23.2794 42.484 18.6326C42.484 8.36094 35.0688 0 25.9549 0H19.2381C10.1231 0 2.70674 8.36094 2.70674 18.637C2.70674 22.9674 4.0501 27.1717 6.49399 30.503L1.05706 42.8049C0.834284 43.2474 -0.897824 46.8675 0.611505 48.277C1.73877 49.3281 4.21941 48.7638 8.186 46.5522C8.20048 49.7242 8.80421 51.4767 10.0273 51.9037C10.2141 51.9686 10.4108 52.0012 10.6087 52C12.4355 52 14.5074 49.431 14.7569 49.1079C14.7697 49.0921 14.7809 49.075 14.7903 49.057L20.9434 37.274H23.5255L28.9301 48.2759C29.1272 48.6687 30.8115 52 32.7608 52C32.8353 52.0002 32.9097 51.9954 32.9835 51.9856C34.2957 51.8119 35.267 50.149 35.9454 46.9084C39.902 49.7928 42.4561 50.7332 43.7427 49.785C45.4191 48.5426 44.0657 44.7134 43.902 44.2708ZM14.2155 48.724C13.5182 49.6091 11.5054 51.7112 10.2534 51.2775C9.59285 51.0463 8.82203 49.9676 8.8599 46.1705C10.2311 45.3772 11.7861 44.3881 13.4893 43.2242C13.5591 43.1731 13.6063 43.097 13.6207 43.0119C13.6351 42.9269 13.6156 42.8397 13.5664 42.7687C13.5172 42.6977 13.4421 42.6485 13.357 42.6315C13.272 42.6145 13.1835 42.631 13.1105 42.6776C11.3539 43.878 9.75548 44.8904 8.36088 45.6914C3.22248 48.641 1.58951 48.2737 1.07266 47.7935C0.0879738 46.8763 1.16288 44.0894 1.66079 43.0925L1.66748 43.0781L8.05901 28.5989C8.5948 30.118 9.98048 33.332 12.7574 35.7738L12.7652 35.7793L12.7975 35.8026L12.8231 35.8169L12.8343 35.8247C14.8318 36.7793 17.0202 37.2747 19.237 37.274H20.1949L14.2155 48.724ZM19.237 36.6102C17.1358 36.611 15.0611 36.1445 13.1651 35.2449C9.66414 32.1471 8.44665 27.6175 8.4344 27.5722C8.4169 27.5054 8.37891 27.4458 8.32571 27.4015C8.27252 27.3572 8.20675 27.3304 8.13755 27.325C8.06834 27.3195 7.99914 27.3356 7.93956 27.3709C7.87997 27.4063 7.83296 27.4592 7.80504 27.5224L6.80254 29.7938C4.58923 26.6284 3.37508 22.6908 3.37508 18.637C3.37508 8.72604 10.4906 0.66383 19.237 0.66383H25.9549C34.7012 0.66383 41.8167 8.72604 41.8167 18.637C41.8167 28.548 34.7001 36.6102 25.9549 36.6102H19.2381H19.237ZM43.3439 49.2484C42.7602 49.6799 41.0404 49.8448 36.0846 46.186C36.4467 44.2177 36.7129 41.7261 36.8788 38.7732C36.8813 38.7296 36.8751 38.686 36.8607 38.6447C36.8462 38.6035 36.8236 38.5656 36.7944 38.533C36.7651 38.5004 36.7296 38.4739 36.69 38.4549C36.6505 38.436 36.6075 38.4249 36.5636 38.4225C36.5197 38.42 36.4758 38.4261 36.4343 38.4405C36.3928 38.4549 36.3546 38.4773 36.3218 38.5064C36.289 38.5355 36.2623 38.5707 36.2432 38.61C36.2241 38.6493 36.213 38.692 36.2105 38.7356C36.0412 41.7637 35.7649 44.2985 35.3896 46.2678C34.6265 50.2774 33.6073 51.2322 32.8933 51.3273C31.5678 51.5032 30.0184 48.9751 29.5349 47.9849L24.274 37.274H25.9604C30.6956 37.274 34.9719 35.0126 37.9905 31.4014L43.2815 44.5098C43.6658 45.5553 44.4299 48.4463 43.3439 49.2484Z" fill="#2B354E"/>
<path d="M18.8194 34.6918C13.4371 31.6138 10.0943 25.4612 10.0943 18.6371C10.0943 11.5562 13.7846 5.10601 19.4978 2.21614C19.5382 2.1971 19.5743 2.1702 19.6041 2.13704C19.6338 2.10387 19.6566 2.06512 19.671 2.02306C19.6853 1.98101 19.6911 1.93652 19.6878 1.89222C19.6846 1.84793 19.6724 1.80472 19.6521 1.76518C19.6317 1.72563 19.6036 1.69055 19.5693 1.662C19.5351 1.63345 19.4954 1.61202 19.4527 1.59898C19.4099 1.58594 19.365 1.58155 19.3205 1.58608C19.276 1.5906 19.2329 1.60395 19.1937 1.62533C13.2578 4.62695 9.42595 11.3051 9.42595 18.6371C9.41174 22.0867 10.275 25.484 11.9356 28.5138C13.5351 31.3904 15.8008 33.7315 18.4853 35.2627C18.5361 35.2917 18.5937 35.307 18.6524 35.3069C18.726 35.307 18.7976 35.283 18.856 35.2385C18.9145 35.194 18.9565 35.1316 18.9755 35.0609C18.9946 34.9903 18.9896 34.9154 18.9614 34.8478C18.9331 34.7803 18.8833 34.7239 18.8194 34.6874V34.6918Z" fill="#2B354E"/>
<path d="M34.8287 28.6044C37.1857 25.9402 38.4845 22.3998 38.4845 18.637C38.4845 10.8514 32.8594 4.51843 25.9532 4.51843C22.5981 4.51843 19.4458 5.99213 17.0777 8.66958C14.7095 11.347 13.4219 14.8731 13.4219 18.637C13.4219 26.4215 19.0437 32.7555 25.9532 32.7555C29.3083 32.7555 32.4606 31.2807 34.8287 28.6044ZM14.0891 18.637C14.0891 15.0346 15.3278 11.6502 17.5789 9.10771C19.8301 6.56524 22.792 5.18226 25.9532 5.18226C32.4951 5.18226 37.8173 11.2176 37.8173 18.637C37.8173 22.2383 36.5775 25.6227 34.3275 28.1663C32.0774 30.7098 29.1144 32.0917 25.9532 32.0917C19.4113 32.0917 14.0891 26.0553 14.0891 18.637Z" fill="#2B354E"/>
<path d="M27.0966 25.5852L30.2756 27.2171C30.5045 27.3335 30.7617 27.3835 31.0178 27.3614C31.2739 27.3393 31.5186 27.246 31.7237 27.0921C31.9937 26.8927 32.2035 26.6235 32.3302 26.3139C32.4568 26.0044 32.4956 25.6662 32.4422 25.3362L31.8707 21.5247C31.8448 21.3637 31.8538 21.1991 31.8973 21.0418C31.9407 20.8846 32.0175 20.7384 32.1225 20.6131L34.4873 17.9124C34.6863 17.6756 34.8196 17.3913 34.8739 17.0876C34.9282 16.7838 34.9017 16.4713 34.7969 16.1809C34.7205 15.9279 34.578 15.6996 34.3839 15.5191C34.1898 15.3385 33.9511 15.2123 33.692 15.1531L30.3503 14.4826C30.2017 14.446 30.0643 14.3742 29.9497 14.2735C29.8351 14.1727 29.7467 14.046 29.692 13.904L28.0957 10.202C27.8162 9.55368 27.2369 9.14432 26.5842 9.13325C26.2932 9.12853 26.0073 9.20942 25.7625 9.36574C25.5177 9.52206 25.325 9.74682 25.2085 10.0117L23.4853 13.655C23.4173 13.8037 23.312 13.9325 23.1796 14.0294C23.0472 14.1262 22.8921 14.1878 22.729 14.2082L18.5853 14.6939C18.2522 14.7327 17.9371 14.8646 17.6766 15.0744C17.416 15.2842 17.2209 15.5632 17.1139 15.8789C16.996 16.2105 16.9759 16.5687 17.056 16.9114C17.1361 17.254 17.3131 17.5667 17.5661 17.8128L20.6393 20.8565C20.7668 20.9862 20.8615 21.144 20.9158 21.3171C20.97 21.4902 20.9821 21.6736 20.9512 21.8522L20.2461 26.1516C20.1828 26.4784 20.2174 26.8165 20.3457 27.1239C20.474 27.4313 20.6904 27.6945 20.9679 27.8809C21.2279 28.0518 21.5328 28.1427 21.8446 28.142C22.1779 28.1399 22.5035 28.0423 22.7825 27.861L26.2478 25.6482C26.3709 25.5639 26.5144 25.5136 26.6636 25.5025C26.8127 25.4914 26.9622 25.52 27.0966 25.5852ZM22.4182 27.3001C22.2598 27.4107 22.0719 27.472 21.8784 27.4764C21.6848 27.4807 21.4943 27.4278 21.3311 27.3244C20.9891 27.1031 20.8287 26.7015 20.9022 26.2545L21.6106 21.9551C21.6587 21.6724 21.6385 21.3823 21.5518 21.1088C21.465 20.8353 21.3142 20.5862 21.1116 20.3818L18.0373 17.3371C17.8755 17.1792 17.7621 16.9789 17.7105 16.7595C17.6588 16.5402 17.6709 16.3107 17.7454 16.0979C17.8105 15.8997 17.9316 15.7243 18.0944 15.5926C18.2572 15.461 18.4547 15.3787 18.6633 15.3555L22.807 14.8698C23.083 14.8368 23.3459 14.734 23.5706 14.5713C23.7952 14.4086 23.9741 14.1914 24.0902 13.9405L25.8134 10.2983C25.8738 10.1514 25.9768 10.0257 26.1093 9.93708C26.2418 9.84844 26.3977 9.80087 26.5575 9.8004H26.5731C26.8749 9.8004 27.2726 9.98295 27.4809 10.4642L29.0793 14.1706C29.1765 14.4112 29.331 14.6248 29.5294 14.7932C29.7279 14.9616 29.9644 15.0798 30.2188 15.1376L33.5605 15.8081C33.7046 15.8453 33.8363 15.9195 33.9425 16.0231C34.0486 16.1268 34.1255 16.2564 34.1654 16.3989C34.231 16.5796 34.2488 16.774 34.217 16.9635C34.1852 17.1529 34.1049 17.3311 33.9838 17.4809L31.6179 20.1805C31.4502 20.3786 31.327 20.61 31.2565 20.8591C31.1861 21.1083 31.1699 21.3696 31.2091 21.6254L31.7816 25.438C31.815 25.6452 31.7912 25.8575 31.7127 26.0523C31.6343 26.2472 31.5041 26.4172 31.3361 26.5444C31.2313 26.6264 31.1051 26.6771 30.9723 26.6904C30.8395 26.7037 30.7056 26.6792 30.5864 26.6196L27.4029 24.9955C27.1646 24.876 26.8985 24.8217 26.6321 24.8382C26.3656 24.8547 26.1084 24.9415 25.8869 25.0895L22.4182 27.3001Z" fill="#2B354E"/>
</g>
<defs>
<clipPath id="clip0_2569_1572">
<rect width="44.5714" height="52" fill="white"/>
</clipPath>
</defs>
</svg>
