<svg width="52" height="52" viewBox="0 0 52 52" fill="none" xmlns="http://www.w3.org/2000/svg">
<path d="M10.4538 34.4935H10.9064V36.7917C10.9064 37.5635 11.534 38.1912 12.3058 38.1912H14.843V40.8986H12.3058C11.534 40.8986 10.9064 41.5263 10.9064 42.2981V48.7757C10.9064 49.5475 11.534 50.1752 12.3058 50.1752H39.7042C40.476 50.1752 41.1037 49.5475 41.1037 48.7757V42.2981C41.1037 41.5263 40.476 40.8986 39.7042 40.8986H37.1666V38.1912H39.7042C40.476 38.1912 41.1037 37.5635 41.1037 36.7917V34.3407C46.4778 33.486 50.4724 28.8581 50.4724 23.353C50.4724 17.4437 45.8151 12.5668 39.9831 12.2375C39.5578 6.35581 34.7329 1.82471 28.7724 1.82471C24.1117 1.82471 19.9884 4.66846 18.3107 8.96806C12.9157 6.51326 6.75207 11.1364 7.76763 17.0901C4.06882 18.245 1.53125 21.657 1.53125 25.5709C1.53125 30.4907 5.53401 34.4935 10.4538 34.4935ZM39.9566 42.2981V48.7757C39.9566 48.915 39.8435 49.0281 39.7042 49.0281H12.3058C12.1666 49.0281 12.0534 48.915 12.0534 48.7757V42.2981C12.0534 42.1588 12.1666 42.0457 12.3058 42.0457H39.7042C39.8435 42.0457 39.9566 42.1588 39.9566 42.2981ZM36.0196 38.1927V40.8971H15.9901V38.1927H36.0196ZM39.7042 37.0441H12.3058C12.1666 37.0441 12.0534 36.931 12.0534 36.7917V30.3141C12.0534 30.1742 12.1667 30.0651 12.3058 30.0651H39.7053C39.8442 30.0651 39.9532 30.1741 39.9532 30.313C39.9533 30.3905 39.9568 37.2258 39.9566 36.7917C39.9566 36.931 39.8435 37.0441 39.7042 37.0441ZM8.57454 18.0549C8.88147 17.9795 9.06928 17.6699 8.99497 17.3627C7.64305 11.8138 13.6687 7.58564 18.3454 10.2738C18.4952 10.3597 18.6763 10.3735 18.8372 10.3115C18.9989 10.2495 19.1232 10.1177 19.1766 9.95307C20.5298 5.77743 24.3862 2.97177 28.7724 2.97177C34.1959 2.97177 38.7225 7.38452 38.8633 12.8084C38.8712 13.1176 39.1228 13.3648 39.432 13.367C44.8872 13.4092 49.3254 17.8891 49.3254 23.353C49.3254 28.2309 45.8343 32.351 41.1037 33.19V30.3141C41.1037 29.5423 40.476 28.9146 39.7042 28.9146H12.3058C11.5394 28.9146 10.9034 29.5405 10.9034 30.313V33.3464H10.4538C6.16653 33.3464 2.67831 29.8582 2.67831 25.5709C2.67831 22.0013 5.10312 18.9104 8.57454 18.0549Z" fill="#2B354E"/>
<path d="M8.77572 21.1172C8.87131 21.0821 8.96877 21.0496 9.06809 21.0201C9.37203 20.9305 9.54528 20.6116 9.45567 20.3076C9.36605 20.0041 9.04606 19.8305 8.74324 19.9201C8.62002 19.9563 8.49867 19.997 8.37919 20.041C8.08197 20.1504 7.93 20.4798 8.0394 20.7774C8.14964 21.0777 8.48304 21.2259 8.77572 21.1172Z" fill="#2B354E"/>
<path d="M5.87756 28.4233C6.16283 28.2851 6.28157 27.942 6.14341 27.6571C5.82716 27.0048 5.66659 26.3043 5.66659 25.5747C5.66659 24.1569 6.2909 22.8254 7.37897 21.9214C7.62279 21.7191 7.65639 21.3572 7.45401 21.1138C7.25088 20.87 6.88907 20.8367 6.64637 21.0387C5.29469 22.1615 4.51953 23.8149 4.51953 25.5747C4.51953 26.4791 4.71855 27.3483 5.11136 28.1574C5.25109 28.4453 5.59677 28.5604 5.87756 28.4233Z" fill="#2B354E"/>
<path d="M15.9499 31.4896C14.81 31.4896 13.8828 32.4167 13.8828 33.5567C13.8828 34.6921 14.8099 35.6159 15.9499 35.6159C17.0899 35.6159 18.017 34.6921 18.017 33.5567C18.017 32.4167 17.0899 31.4896 15.9499 31.4896ZM15.9499 34.4689C15.4425 34.4689 15.0299 34.0596 15.0299 33.5567C15.0299 33.0492 15.4425 32.6366 15.9499 32.6366C16.4574 32.6366 16.87 33.0492 16.87 33.5567C16.87 34.0596 16.4573 34.4689 15.9499 34.4689Z" fill="#2B354E"/>
<path d="M21.8913 31.4896C20.7514 31.4896 19.8242 32.4167 19.8242 33.5567C19.8242 34.6921 20.7513 35.6159 21.8913 35.6159C23.0313 35.6159 23.9584 34.6921 23.9584 33.5567C23.9584 32.4167 23.0313 31.4896 21.8913 31.4896ZM21.8913 34.4689C21.3839 34.4689 20.9713 34.0596 20.9713 33.5567C20.9713 33.0492 21.3839 32.6366 21.8913 32.6366C22.3988 32.6366 22.8114 33.0492 22.8114 33.5567C22.8114 34.0596 22.3988 34.4689 21.8913 34.4689Z" fill="#2B354E"/>
<path d="M37.1827 32.9794H31.4407C31.1241 32.9794 30.8672 33.2363 30.8672 33.5529C30.8672 33.8695 31.1241 34.1264 31.4407 34.1264H37.1827C37.4994 34.1264 37.7563 33.8695 37.7563 33.5529C37.7563 33.2363 37.4994 32.9794 37.1827 32.9794Z" fill="#2B354E"/>
<path d="M29.5707 32.9794H29.2376C28.921 32.9794 28.6641 33.2363 28.6641 33.5529C28.6641 33.8695 28.921 34.1264 29.2376 34.1264H29.5707C29.8873 34.1264 30.1442 33.8695 30.1442 33.5529C30.1442 33.2363 29.8873 32.9794 29.5707 32.9794Z" fill="#2B354E"/>
<path d="M15.9484 47.5985C17.0873 47.5985 18.0136 46.6754 18.0136 45.5411C18.0136 44.4022 17.0873 43.4755 15.9484 43.4755C14.8096 43.4755 13.8828 44.4022 13.8828 45.5411C13.8828 46.6754 14.8096 47.5985 15.9484 47.5985ZM15.9484 44.6225C16.4547 44.6225 16.8666 45.0347 16.8666 45.5411C16.8666 46.0429 16.4547 46.4514 15.9484 46.4514C15.4421 46.4514 15.0299 46.0429 15.0299 45.5411C15.0299 45.0347 15.4421 44.6225 15.9484 44.6225Z" fill="#2B354E"/>
<path d="M21.8911 47.604C23.033 47.604 23.962 46.6788 23.962 45.5411C23.962 44.3989 23.033 43.4698 21.8911 43.4698C20.7493 43.4698 19.8203 44.3988 19.8203 45.5411C19.8203 46.6788 20.7493 47.604 21.8911 47.604ZM21.8911 44.6169C22.4005 44.6169 22.8149 45.0314 22.8149 45.5411C22.8149 46.0462 22.4005 46.457 21.8911 46.457C21.3818 46.457 20.9674 46.0462 20.9674 45.5411C20.9674 45.0314 21.3818 44.6169 21.8911 44.6169Z" fill="#2B354E"/>
<path d="M31.0813 46.1104H37.1859C37.5026 46.1104 37.7594 45.8535 37.7594 45.5369C37.7594 45.2203 37.5026 44.9634 37.1859 44.9634H31.0813C30.7647 44.9634 30.5078 45.2203 30.5078 45.5369C30.5078 45.8535 30.7647 46.1104 31.0813 46.1104Z" fill="#2B354E"/>
<path d="M29.2376 46.1104H29.3377C29.6543 46.1104 29.9112 45.8535 29.9112 45.5369C29.9112 45.2203 29.6543 44.9634 29.3377 44.9634H29.2376C28.921 44.9634 28.6641 45.2203 28.6641 45.5369C28.6641 45.8535 28.921 46.1104 29.2376 46.1104Z" fill="#2B354E"/>
<path d="M31.3103 13.4506C31.8349 14.3662 32.1123 15.4102 32.1123 16.4702C32.1123 16.9019 32.0667 17.3328 31.9771 17.751C31.9107 18.0605 32.1078 18.3656 32.4177 18.432C32.7309 18.4981 33.0327 18.2988 33.0988 17.9914C33.2052 17.4945 33.2594 16.9825 33.2594 16.4702C33.2594 15.2108 32.9297 13.9693 32.3057 12.8801C32.1482 12.6053 31.7983 12.5108 31.5227 12.6676C31.2479 12.8252 31.1531 13.1758 31.3103 13.4506Z" fill="#2B354E"/>
<path d="M30.2888 12.124C30.5142 12.3463 30.8778 12.3436 31.0998 12.118C31.322 11.8925 31.3193 11.5292 31.0938 11.307C30.9829 11.1976 30.8675 11.0912 30.7499 10.9892C30.5091 10.7805 30.148 10.8081 29.9408 11.0471C29.7335 11.2868 29.7593 11.649 29.9986 11.8562C30.0983 11.9425 30.1951 12.0317 30.2888 12.124Z" fill="#2B354E"/>
<path d="M23.6389 20.0235L22.8316 24.2256C22.7663 24.5676 22.8559 24.9179 23.0777 25.1867C23.2999 25.4552 23.6266 25.609 23.975 25.609H28.0285C28.7616 25.609 29.3089 24.9414 29.1714 24.2252L28.3638 20.0216C29.5504 19.2356 30.2715 17.9108 30.2715 16.4703C30.2715 13.7747 27.784 11.7065 25.0331 12.3107C23.4847 12.6505 22.2402 13.864 21.8627 15.402C21.4209 17.2017 22.1457 19.0411 23.6389 20.0235ZM22.9769 15.6753C23.2465 14.5761 24.1717 13.6739 25.2788 13.4309C27.3124 12.985 29.1244 14.5046 29.1244 16.4703C29.1244 17.6285 28.4855 18.6852 27.4572 19.227C27.2339 19.3446 27.1137 19.5948 27.1615 19.8427L28.0285 24.462L23.9581 24.4418L24.8416 19.8427C24.8897 19.5933 24.768 19.3424 24.5429 19.2255C23.27 18.5642 22.6259 17.1043 22.9769 15.6753Z" fill="#2B354E"/>
</svg>
