<svg width="52" height="52" viewBox="0 0 52 52" fill="none" xmlns="http://www.w3.org/2000/svg">
<g clip-path="url(#clip0_2569_1600)">
<path fill-rule="evenodd" clip-rule="evenodd" d="M50.147 28.8358L29.4847 37.5361C28.4001 37.9511 27.2291 38.1883 26.0009 38.1883C24.7751 38.1883 23.6056 37.9494 22.5262 37.5392L1.85156 28.8342C1.50726 28.685 1.18826 28.47 0.907435 28.1907C-0.302479 26.9815 -0.302479 25.0208 0.907435 23.8108C1.19384 23.5252 1.52544 23.3078 1.87299 23.1586L4.46619 22.0676C4.70658 21.9232 4.98344 21.8359 5.28183 21.8359C6.16563 21.8359 6.88205 22.5516 6.88205 23.4355C6.88205 24.1521 6.40999 24.7496 5.76101 24.955L4.95013 25.2922C4.69551 25.4287 4.52093 25.6929 4.52093 26.0008C4.52093 26.3015 4.68678 26.5617 4.93266 26.7022L23.3667 34.3948C23.4198 34.4146 23.4666 34.4257 23.5198 34.4479C24.2847 34.7644 25.1208 34.9374 26.0008 34.9374C26.8719 34.9374 27.7027 34.766 28.4627 34.455C28.5261 34.4296 28.5825 34.4129 28.6444 34.3892L47.0684 26.7021C47.3144 26.5616 47.4802 26.3014 47.4802 26.0007C47.4802 25.6912 47.3048 25.4286 47.0502 25.2921L46.2378 24.9533C45.5905 24.7494 45.1184 24.1495 45.1184 23.4354C45.1184 22.5515 45.8348 21.8358 46.7187 21.8358C47.021 21.8358 47.3018 21.9247 47.5422 22.0706L50.1342 23.1624C50.4809 23.3116 50.8085 23.5266 51.0926 23.8107C52.3025 25.0207 52.3025 26.9814 51.0926 28.1906C50.8102 28.4716 50.4914 28.6866 50.147 28.8358ZM50.1509 18.2702L29.4569 26.9831C28.3826 27.391 27.2195 27.6258 26.0009 27.6258C24.7862 27.6258 23.6271 27.3933 22.5541 26.9887L1.8476 18.2702C1.50483 18.1195 1.18826 17.9076 0.907435 17.6291C-0.302479 16.4191 -0.302479 14.4569 0.907435 13.2469C1.18988 12.9668 1.51041 12.7557 1.85867 12.6026L22.5571 3.88802C23.6294 3.48329 24.7862 3.25 26.0009 3.25C27.2179 3.25 28.3787 3.48329 29.4537 3.89106L31.381 4.70194C32.0426 4.90821 32.5251 5.5184 32.5251 6.2468C32.5251 7.1434 31.7983 7.87262 30.9002 7.87262C30.6248 7.87262 30.3717 7.79563 30.1441 7.67579L28.6152 7.03787C28.5628 7.01807 28.5153 7.00538 28.4629 6.98313C27.7029 6.67134 26.8721 6.4999 26.001 6.4999C25.1211 6.4999 24.2849 6.6753 23.52 6.99024C23.4763 7.00852 23.4383 7.01797 23.3939 7.03391L4.9415 14.7337C4.69399 14.8725 4.52103 15.1328 4.52103 15.439C4.52103 15.7397 4.68688 15.9984 4.93043 16.1404L23.3906 23.8401C23.4343 23.8584 23.4739 23.8671 23.5199 23.8853C24.2848 24.2003 25.121 24.3756 26.0009 24.3756C26.872 24.3756 27.7028 24.2042 28.4628 23.8924C28.5167 23.8709 28.5659 23.8566 28.6191 23.836L47.0701 16.1403C47.3145 15.9983 47.4803 15.7396 47.4803 15.4389C47.4803 15.1326 47.3074 14.874 47.0591 14.7336L44.5552 13.6878C43.9379 13.4656 43.4936 12.8824 43.4936 12.1881C43.4936 11.305 44.2093 10.5885 45.0931 10.5885C45.3955 10.5885 45.6779 10.6782 45.919 10.8233L50.1494 12.6054C50.4938 12.753 50.8118 12.968 51.0927 13.2465C52.3026 14.4565 52.3026 16.4187 51.0927 17.6287C50.8118 17.9075 50.4937 18.1194 50.1509 18.2702ZM36.5633 10.5633C35.6652 10.5633 34.9377 9.83653 34.9377 8.93831C34.9377 8.04009 35.6652 7.31331 36.5633 7.31331C37.459 7.31331 38.1882 8.04009 38.1882 8.93831C38.1882 9.83653 37.459 10.5633 36.5633 10.5633ZM1.87299 33.7204L4.47736 32.6254C4.71379 32.4858 4.98669 32.4001 5.28183 32.4001C6.16563 32.4001 6.88205 33.1158 6.88205 33.9997C6.88205 34.7225 6.39729 35.3279 5.73724 35.5247L4.95013 35.854C4.69551 35.9913 4.52093 36.2531 4.52093 36.5626C4.52093 36.8657 4.68678 37.1243 4.93266 37.2648L23.3937 44.9677C23.4382 44.9844 23.4761 44.9931 23.5198 45.0114C24.2847 45.3264 25.1208 45.5017 26.0008 45.5017C26.8719 45.5017 27.7027 45.3288 28.4627 45.0185C28.5151 44.9971 28.5626 44.9844 28.615 44.9637L47.0684 37.2648C47.3144 37.1243 47.4802 36.8657 47.4802 36.5626C47.4802 36.2548 47.3048 35.9913 47.0502 35.854L46.2576 35.5247C45.5984 35.3239 45.1183 34.721 45.1183 33.9997C45.1183 33.1158 45.8347 32.4001 46.7186 32.4001C47.0097 32.4001 47.2779 32.4833 47.5127 32.6182L50.1342 33.7227C50.4841 33.8734 50.8069 34.0869 51.0926 34.3725C52.3025 35.5825 52.3025 37.5432 51.0926 38.7532C50.8141 39.0317 50.4952 39.2427 50.1596 39.3927L29.464 48.1073C28.3858 48.5183 27.2219 48.75 26.0009 48.75C24.7822 48.75 23.62 48.5152 22.5445 48.1089L1.83653 39.3904C1.49782 39.2397 1.1844 39.0302 0.907537 38.7533C-0.302377 37.5433 -0.302377 35.5826 0.907537 34.3726C1.19384 34.0869 1.52554 33.8719 1.87299 33.7204Z" fill="#2B354E"/>
</g>
<defs>
<clipPath id="clip0_2569_1600">
<rect width="52" height="52" fill="white"/>
</clipPath>
</defs>
</svg>
