<svg width="52" height="52" viewBox="0 0 52 52" fill="none" xmlns="http://www.w3.org/2000/svg">
<path d="M45.5626 37.0672L45.501 16.8371C45.5003 16.7063 45.4372 16.5839 45.3176 16.5155L39.3044 13.0154L39.2998 8.86549C39.2864 2.9424 34.4958 0.045595 29.2154 3.07388C24.8257 5.59916 21.3936 11.521 21.4009 16.5552V20.2838C19.2483 21.7422 17.2446 23.2956 15.4324 24.9321C15.3961 24.9972 15.3078 25.0768 15.3086 25.2102C15.3267 31.1641 15.3429 36.452 15.3703 45.4403C15.371 45.5723 15.4414 45.6942 15.5553 45.7602L23.0063 50.0901C23.1022 50.1465 23.2188 50.1553 23.3212 50.1176C27.7892 48.4662 31.9141 46.5557 35.5798 44.4392C39.2505 42.3198 42.568 39.9327 45.44 37.3443C45.5184 37.2736 45.5626 37.1728 45.5626 37.0672ZM40.0953 17.0504C40.1027 17.4292 39.8278 17.8081 39.3153 18.1127C39.3153 18.1127 39.3153 18.1127 39.3079 18.1127C39.3076 18.1128 39.3073 18.1129 39.3071 18.1131V16.0102C39.8119 16.3051 40.0953 16.6702 40.0953 17.0504ZM21.4009 25.7769C20.9647 25.4945 20.7134 25.1578 20.7067 24.8059C20.7067 24.453 20.9542 24.1092 21.4009 23.8232V25.7769ZM25.9371 23.7593C26.4172 24.0488 26.6867 24.4011 26.6867 24.7687C26.6939 25.139 26.4209 25.5012 25.9371 25.8018V23.7593ZM34.7702 13.2533C31.6139 14.5314 28.6516 15.9473 25.9371 17.4782V16.548C25.9306 13.1068 28.466 8.73563 31.4723 7.0029C33.649 5.7507 34.7702 6.42014 34.7702 8.87274V13.2533ZM34.7702 18.0297C34.3579 17.7572 34.1227 17.4279 34.1227 17.095C34.116 16.7535 34.355 16.4152 34.7702 16.1336V18.0297ZM29.5854 3.71808C34.311 1.00841 38.5434 3.45251 38.557 8.86657L38.5642 18.4143C37.5757 18.7279 36.5304 18.7334 35.513 18.3753V8.87274C35.513 5.77939 33.7321 4.85061 31.1016 6.35907C27.8929 8.20823 25.1877 12.875 25.1943 16.5487V26.1186C24.1254 26.4634 23.1056 26.4244 22.1438 26.1009V16.5545C22.1365 11.7615 25.4054 6.12257 29.5854 3.71808ZM21.4009 22.9746C21.3052 23.0218 21.2063 23.0657 21.1153 23.1196C20.3724 23.5578 19.9638 24.1595 19.9638 24.8132C19.9713 25.4744 20.3947 26.0761 21.1673 26.5144C22.5156 27.2558 24.6532 27.3766 26.2856 26.4624C27.0284 26.0241 27.437 25.415 27.4295 24.7613C27.4221 24.1001 26.9987 23.4984 26.241 23.0676C26.1437 23.0126 26.0413 22.962 25.9371 22.916V18.3246C28.6412 16.7809 31.6073 15.3487 34.7702 14.0501V15.2781C34.6873 15.3184 34.6008 15.3551 34.5239 15.4013C33.781 15.8396 33.3724 16.4413 33.3798 17.095C33.3873 17.7561 33.8107 18.3653 34.5759 18.7961C36.0835 19.6335 38.4042 19.5426 39.7016 18.7441C40.4444 18.3059 40.853 17.6967 40.8381 17.043C40.8307 16.3818 40.4073 15.7801 39.6495 15.3493C39.5493 15.29 39.4316 15.2345 39.3068 15.1809L39.3054 13.8847L44.4891 16.8953C38.2862 22.3732 30.8316 26.2802 23.1646 29.1287C13.7584 23.6631 17.0196 25.5581 16.3106 25.1461C17.8821 23.7555 19.5822 22.4331 21.4009 21.1787V22.9746ZM16.1124 45.2252L16.0536 25.8558L22.7603 29.7529L22.7765 35.0764L22.8191 49.1223L16.1124 45.2252ZM35.2083 43.7957C31.7153 45.8125 27.7993 47.6413 23.5627 49.2348L23.5192 35.0136L23.5033 29.7967C31.2436 26.9146 38.6088 23.0246 44.7603 17.6615L44.819 36.9033C42.0145 39.414 38.7819 41.7326 35.2083 43.7957Z" fill="#2B354E"/>
<path d="M25.3955 40.9306H25.3969C25.6015 40.9298 25.7676 40.763 25.7669 40.5581L25.7546 36.6065C25.7539 36.4016 25.5877 36.2362 25.3831 36.2362C25.1916 36.2605 25.011 36.4034 25.0117 36.6087L25.0241 40.5602C25.0248 40.7652 25.1909 40.9306 25.3955 40.9306Z" fill="#2B354E"/>
<path d="M29.6789 44.1991C28.4268 44.8056 27.1174 45.3953 25.7804 45.9561L25.7702 42.7395C25.7695 42.5345 25.6034 42.3691 25.3988 42.3691C25.398 42.3691 25.398 42.3691 25.3973 42.3691C25.1927 42.3699 25.0266 42.5367 25.0273 42.7417L25.039 46.5129C25.0405 46.7793 25.3106 46.9549 25.5518 46.8553C27.0804 46.2263 28.5777 45.5575 30.0025 44.8679C30.1874 44.7783 30.2643 44.5564 30.1751 44.3717C30.0859 44.1875 29.8639 44.1113 29.6789 44.1991Z" fill="#2B354E"/>
<path d="M40.0763 34.8056C40.0786 34.3552 40.0384 33.9044 39.9219 33.4705L38.7728 29.1911C38.1621 26.9161 36.1831 26.073 34.5209 27.0336C33.1731 27.8118 32.4139 29.5433 32.3627 31.1033L32.1524 37.8562C31.8617 40.4126 34.3088 42.3226 37.5453 40.9168C41.2835 39.2936 40.0909 34.8546 40.0786 34.81C40.0781 34.8083 40.0768 34.8072 40.0763 34.8056ZM34.8924 27.6771C36.2413 26.8961 37.6104 27.7303 38.056 29.3837L39.2044 33.6631C39.6854 35.4535 38.9483 37.5609 37.562 38.3614C36.1795 39.1589 34.831 38.2637 34.3998 36.6584L33.2514 32.3794C32.7697 30.5865 33.506 28.4772 34.8924 27.6771ZM37.2493 40.2356C34.6306 41.3712 32.6536 40.0289 32.893 37.9098L33.0052 34.3282L33.6823 36.851C34.2468 38.9535 36.1371 40.0413 37.9334 39.0049C38.5806 38.6314 39.1057 38.0222 39.4785 37.2982C39.3128 38.3823 38.7605 39.5793 37.2493 40.2356Z" fill="#2B354E"/>
<path d="M7.94565 15.9135C8.15078 15.9135 8.31708 15.7472 8.31708 15.542C8.31708 15.3369 8.15078 15.1706 7.94565 15.1706C7.74051 15.1706 7.57422 15.3369 7.57422 15.542C7.57422 15.7472 7.74051 15.9135 7.94565 15.9135Z" fill="#2B354E"/>
<path d="M7.94527 14.4281C8.14586 14.4281 8.30926 14.2573 8.30926 14.0567C8.30926 13.8487 8.14586 13.6852 7.93783 13.6852C7.73729 13.6852 7.56641 13.8561 7.56641 14.0567C7.56641 14.2543 7.72393 14.4281 7.94527 14.4281Z" fill="#2B354E"/>
<path d="M14.5781 27.7252C14.697 27.6584 14.7638 27.5321 14.7638 27.4058C14.7638 27.14 14.48 26.9422 14.2067 27.079C14.0284 27.1829 13.969 27.4058 14.0655 27.5841C14.164 27.7513 14.3552 27.8367 14.5781 27.7252Z" fill="#2B354E"/>
<path d="M13.2865 28.4681C13.4054 28.4012 13.4797 28.2675 13.4797 28.1413C13.4797 27.851 13.1563 27.6756 12.9225 27.8218C12.7368 27.9258 12.6774 28.1487 12.7814 28.327C12.8764 28.4957 13.0909 28.5658 13.2865 28.4681Z" fill="#2B354E"/>
<path d="M7.9769 26.3135C8.18203 26.3135 8.34833 26.1472 8.34833 25.9421C8.34833 25.737 8.18203 25.5707 7.9769 25.5707C7.77176 25.5707 7.60547 25.737 7.60547 25.9421C7.60547 26.1472 7.77176 26.3135 7.9769 26.3135Z" fill="#2B354E"/>
<path d="M7.97652 24.8281C8.17706 24.8281 8.34051 24.6572 8.34051 24.4566C8.34051 24.2487 8.17706 24.0852 7.96908 24.0852C7.7685 24.0852 7.59766 24.2487 7.59766 24.4566C7.59766 24.6647 7.7685 24.8281 7.97652 24.8281Z" fill="#2B354E"/>
<path d="M7.96871 21.8567C8.16925 21.8567 8.3327 21.6859 8.3327 21.4853C8.3327 21.2773 8.16925 21.1139 7.96127 21.1139C7.75325 21.1139 7.58984 21.2773 7.58984 21.4853C7.58984 21.6933 7.76069 21.8567 7.96871 21.8567Z" fill="#2B354E"/>
<path d="M7.95346 18.8849C8.15859 18.8849 8.32489 18.7187 8.32489 18.5135C8.32489 18.3084 8.15859 18.1421 7.95346 18.1421C7.74833 18.1421 7.58203 18.3084 7.58203 18.5135C7.58203 18.7187 7.74833 18.8849 7.95346 18.8849Z" fill="#2B354E"/>
<path d="M8.29313 27.755C8.47536 27.7029 8.60531 27.5108 8.53085 27.287C8.48623 27.131 8.33026 27.0344 8.17425 27.0344C7.91567 27.0344 7.75485 27.2875 7.82512 27.5247C7.89268 27.7273 8.12157 27.8236 8.29313 27.755Z" fill="#2B354E"/>
<path d="M7.94626 16.6567C7.74567 16.6567 7.57483 16.8276 7.58227 17.0282C7.58227 17.2362 7.74567 17.3996 7.95369 17.3996C8.15428 17.3996 8.32512 17.2288 8.32512 17.0282C8.32512 16.8202 8.15428 16.6567 7.94626 16.6567Z" fill="#2B354E"/>
<path d="M11.9341 29.1887C12.0753 29.1292 12.1644 28.9881 12.1644 28.847C12.1644 28.6547 12.0092 28.4681 11.793 28.4681C11.5398 28.4681 11.3456 28.7407 11.4513 28.9807C11.53 29.1776 11.738 29.2541 11.9341 29.1887Z" fill="#2B354E"/>
<path d="M7.96908 23.3421C8.17422 23.3421 8.34051 23.1758 8.34051 22.9707C8.34051 22.7655 8.17422 22.5992 7.96908 22.5992C7.76395 22.5992 7.59766 22.7655 7.59766 22.9707C7.59766 23.1758 7.76395 23.3421 7.96908 23.3421Z" fill="#2B354E"/>
<path d="M8.74156 28.9213C8.81583 28.9807 8.89758 29.003 8.97928 29.003C9.19308 29.003 9.35071 28.8373 9.35071 28.639C9.35071 28.4141 9.16781 28.2601 8.97928 28.2601C8.63598 28.2601 8.4775 28.695 8.74156 28.9213Z" fill="#2B354E"/>
<path d="M7.93783 12.9421C8.14297 12.9421 8.30926 12.7758 8.30926 12.5706C8.30926 12.3655 8.14297 12.1992 7.93783 12.1992C7.7327 12.1992 7.56641 12.3655 7.56641 12.5706C7.56641 12.7758 7.7327 12.9421 7.93783 12.9421Z" fill="#2B354E"/>
<path d="M9.98072 29.1219C9.97364 29.313 10.1154 29.5007 10.3522 29.5007C10.5453 29.5007 10.7161 29.3447 10.7236 29.1441C10.7236 28.6364 9.98072 28.649 9.98072 29.1219Z" fill="#2B354E"/>
<path d="M7.93002 11.4567H7.93746C8.13804 11.4567 8.30145 11.2859 8.30145 11.0853C8.30145 10.8773 8.13804 10.7139 7.93002 10.7139C7.72205 10.7139 7.55859 10.8847 7.55859 11.0853C7.55859 11.2933 7.72948 11.4567 7.93002 11.4567Z" fill="#2B354E"/>
<path d="M7.96127 20.3707C8.16641 20.3707 8.3327 20.2044 8.3327 19.9992C8.3327 19.7941 8.16641 19.6278 7.96127 19.6278C7.75614 19.6278 7.58984 19.7941 7.58984 19.9992C7.58984 20.2044 7.75614 20.3707 7.96127 20.3707Z" fill="#2B354E"/>
<path d="M8.46549 5.03094C7.3215 5.68466 6.4375 7.21494 6.4375 8.52238C6.4375 9.99472 7.58809 10.5223 8.75521 9.83725C9.89176 9.18353 10.7832 7.65325 10.7758 6.34581C10.7758 4.94851 9.69437 4.30901 8.46549 5.03094ZM8.47292 9.35437C7.54715 9.86904 6.99464 9.43608 6.99464 8.52238C6.99464 7.41738 7.77068 6.06575 8.74034 5.51382C9.59886 5.02317 10.2186 5.35943 10.2186 6.34581C10.2261 7.45266 9.43863 8.80467 8.47292 9.35437Z" fill="#2B354E"/>
</svg>
