<svg width="339" height="130" viewBox="0 0 339 130" fill="none" xmlns="http://www.w3.org/2000/svg">
<g clip-path="url(#clip0_2566_1197)">
<path d="M231.442 73.3758L234.831 74.3887C234.605 75.3453 234.266 76.1331 233.758 76.752C233.249 77.371 232.684 77.8774 231.95 78.1588C231.216 78.4964 230.312 78.6652 229.182 78.6652C227.826 78.6652 226.753 78.4964 225.849 78.1025C225.002 77.7086 224.267 77.0334 223.646 76.0205C223.024 75.0639 222.686 73.7697 222.686 72.2505C222.686 70.2247 223.25 68.6492 224.324 67.5238C225.397 66.3984 226.979 65.892 228.956 65.892C230.538 65.892 231.724 66.2296 232.628 66.8486C233.532 67.4675 234.21 68.4241 234.605 69.7746L231.216 70.5061C231.103 70.1122 230.99 69.8309 230.82 69.662C230.594 69.3807 230.368 69.1556 230.029 68.9868C229.69 68.818 229.351 68.7617 229.012 68.7617C228.165 68.7617 227.487 69.0993 227.035 69.8309C226.696 70.3373 226.527 71.1813 226.527 72.2505C226.527 73.6009 226.753 74.5575 227.148 75.0639C227.544 75.5704 228.165 75.8517 228.9 75.8517C229.634 75.8517 230.199 75.6266 230.538 75.2328C230.99 74.7263 231.272 74.1636 231.442 73.3758Z" fill="#225E63"/>
<path d="M236.188 72.2504C236.188 70.2247 236.752 68.6492 237.882 67.5238C239.012 66.3984 240.594 65.8357 242.627 65.8357C244.661 65.8357 246.299 66.3984 247.429 67.4675C248.559 68.5929 249.124 70.1122 249.124 72.1379C249.124 73.6009 248.898 74.7826 248.389 75.6829C247.881 76.5832 247.203 77.3147 246.243 77.8212C245.339 78.3276 244.153 78.6089 242.797 78.6089C241.441 78.6089 240.255 78.3839 239.294 77.9337C238.391 77.4835 237.656 76.8083 237.035 75.7954C236.413 74.7826 236.188 73.7135 236.188 72.2504ZM240.029 72.2504C240.029 73.4884 240.255 74.3887 240.707 74.9514C241.159 75.5141 241.78 75.7954 242.627 75.7954C243.475 75.7954 244.096 75.5141 244.548 75.0077C245 74.445 245.226 73.4884 245.226 72.1379C245.226 70.9562 245 70.1122 244.492 69.6058C244.04 69.0431 243.362 68.818 242.571 68.818C241.78 68.818 241.159 69.0993 240.707 69.662C240.255 70.1122 240.029 71.0125 240.029 72.2504Z" fill="#225E63"/>
<path d="M251.101 66.0608H256.129L258.05 73.6009L259.97 66.0608H264.998V78.4401H261.834V68.9868L259.405 78.4401H256.581L254.152 68.9868V78.4401H250.988V66.0608H251.101Z" fill="#225E63"/>
<path d="M267.482 66.0608H273.866C275.278 66.0608 276.295 66.3984 276.973 67.0736C277.651 67.7489 277.99 68.6492 277.99 69.8871C277.99 71.1251 277.594 72.1379 276.86 72.8132C276.125 73.5447 274.939 73.8823 273.414 73.8823H271.324V78.4964H267.482V66.0608ZM271.324 71.3502H272.284C273.018 71.3502 273.527 71.2376 273.866 70.9563C274.148 70.6749 274.318 70.3936 274.318 69.9997C274.318 69.6058 274.205 69.2682 273.922 68.9868C273.64 68.7055 273.188 68.5929 272.454 68.5929H271.38V71.3502H271.324Z" fill="#225E63"/>
<path d="M280.021 66.0608H283.863V75.4016H289.851V78.4401H280.021V66.0608Z" fill="#225E63"/>
<path d="M291.773 66.0608H295.615V78.4401H291.773V66.0608Z" fill="#225E63"/>
<path d="M306.008 76.3582H301.658L301.037 78.3839H297.139L301.827 66.0045H306.008L310.696 78.3839H306.686L306.008 76.3582ZM305.217 73.7135L303.861 69.2682L302.505 73.7135H305.217Z" fill="#225E63"/>
<path d="M311.885 66.0608H315.444L320.132 72.9257V66.0608H323.748V78.4401H320.132L315.5 71.6315V78.4401H311.885V66.0608Z" fill="#225E63"/>
<path d="M325.441 66.0608H337.135V69.0994H333.237V78.4401H329.396V69.0994H325.498V66.0608H325.441Z" fill="#225E63"/>
<path d="M185.233 84.9111L196.361 81.4224L192.746 73.4321C190.091 76.752 187.436 81.0285 185.233 84.9111ZM181.448 48.392L159.642 0L0 9.00317L44.2321 129.195L129.363 102.467C123.94 94.7021 121.963 85.4738 128.234 80.9722C135.238 75.9079 145.802 81.76 152.525 90.0317C159.021 79.2279 177.267 54.0753 181.448 48.392Z" fill="#225E63"/>
<path d="M154.673 34.9716C161.339 34.9716 166.762 29.9074 166.762 23.6051C166.762 17.3029 161.339 12.2386 154.673 12.2386C148.007 12.2386 142.584 17.3029 142.584 23.6051C142.584 29.8511 148.007 34.9716 154.673 34.9716ZM144.787 39.8671H164.559V91.354H144.787V39.8671Z" fill="#FEFEFE"/>
<path d="M135.015 54.8912C135.184 54.9474 135.297 54.8912 135.297 54.7224V41.6678C135.297 41.499 135.184 41.3301 135.015 41.2176C135.015 41.2176 132.416 39.5295 124.507 39.0793C124.112 38.8543 117.164 38.798 115.3 39.0793C86.4893 41.3864 85.416 62.15 85.416 63.0503V68.1146C85.416 68.7335 85.416 89.9472 115.3 91.8041C118.237 92.0292 123.943 91.8041 124.507 91.8041C131.399 91.8041 136.145 89.7222 136.145 89.7222C136.314 89.6659 136.427 89.4971 136.427 89.3283V77.1177C136.427 76.9489 136.314 76.8927 136.201 77.0052C136.201 77.0052 134.054 78.6933 124.677 79.6499C122.022 79.9312 120.723 79.8187 119.762 79.6499C106.431 77.3991 105.809 67.7207 105.809 67.7207C105.809 67.5519 105.753 67.2705 105.753 67.158V63.4442C105.753 63.2754 105.753 62.994 105.809 62.8815C105.809 62.8815 106.713 52.4716 119.762 51.3462H124.677C130.383 52.0777 135.015 54.8912 135.015 54.8912Z" fill="#FEFEFE"/>
<path d="M30.5059 91.1852C30.5059 91.354 30.6188 91.4665 30.7883 91.4665H50.0516C50.2211 91.4665 50.3341 91.354 50.3341 91.1852V76.2174C50.3341 76.0486 50.447 75.9361 50.6165 75.9361C50.6165 75.9361 81.4039 78.1306 81.4039 57.5921C81.4039 41.3302 62.0841 39.5858 55.7571 39.8671H30.7883C30.6188 39.8671 30.5059 39.9797 30.5059 40.1485V91.1852ZM49.9951 64.5133V51.0648H54.7403C54.7403 51.0648 61.5757 51.3462 62.1406 56.0166C62.2536 56.3542 62.2536 58.6613 62.1406 58.7738C61.2367 64.232 55.3052 64.5133 55.3052 64.5133H49.9951Z" fill="#FEFEFE"/>
<path d="M155.236 116.197C156.818 116.197 158.061 116.197 160.095 115.297C167.099 111.639 190.769 54.0752 215.738 36.3503C215.907 36.2377 216.077 36.0689 216.19 35.9001C216.359 35.675 216.359 35.4499 216.359 35.4499C216.359 35.4499 216.359 34.2683 212.687 34.2683C190.486 33.6493 167.382 80.0719 155.236 98.4158C155.067 98.6409 154.276 98.4158 154.276 98.4158C154.276 98.4158 146.141 88.85 139.08 85.1924C138.911 85.1362 138.12 84.8548 137.272 84.9111C136.707 84.9111 133.431 85.5863 131.906 87.1619C130.098 89.075 130.154 90.1442 130.154 92.4512C130.154 92.62 130.267 93.4078 130.493 93.8017C132.245 96.8403 140.097 107.644 146.593 113.609C147.554 114.34 149.079 116.197 155.236 116.197Z" fill="#777777"/>
<path d="M222.291 18.9629H240.763C244.435 18.9629 247.373 19.4693 249.576 20.4259C251.836 21.4388 253.7 22.8455 255.112 24.6461C256.581 26.503 257.654 28.6413 258.276 31.0609C258.953 33.4805 259.292 36.0689 259.292 38.8261C259.292 43.1026 258.784 46.4225 257.824 48.7859C256.863 51.1492 255.507 53.1187 253.756 54.7505C252.005 56.326 250.141 57.3952 248.164 57.9579C245.452 58.6894 242.967 59.027 240.763 59.027H222.291V18.9629ZM234.719 28.0223V49.9113H237.769C240.368 49.9113 242.232 49.6299 243.306 49.0672C244.379 48.5045 245.283 47.4917 245.904 46.0849C246.525 44.6782 246.864 42.3149 246.864 39.1075C246.864 34.831 246.187 31.9612 244.774 30.3857C243.362 28.8101 241.102 28.0223 237.826 28.0223H234.719Z" fill="#225E63"/>
<path d="M262.738 45.8036L274.601 45.0721C274.884 46.9852 275.392 48.4483 276.183 49.4611C277.482 51.0929 279.29 51.8807 281.663 51.8807C283.414 51.8807 284.826 51.4868 285.786 50.6428C286.747 49.7987 287.255 48.8421 287.255 47.773C287.255 46.7602 286.803 45.8036 285.899 44.9595C284.996 44.1155 282.849 43.384 279.516 42.6525C274.036 41.4145 270.195 39.7827 267.822 37.757C265.45 35.7313 264.32 33.1429 264.32 29.9918C264.32 27.9098 264.941 25.9966 266.128 24.1397C267.314 22.2828 269.122 20.8761 271.551 19.8069C273.98 18.7378 277.256 18.2314 281.437 18.2314C286.577 18.2314 290.532 19.188 293.187 21.1011C295.898 23.0143 297.48 26.0529 297.988 30.2168L286.238 30.8921C285.899 29.0915 285.278 27.7972 284.261 26.9532C283.244 26.1092 281.889 25.7153 280.137 25.7153C278.669 25.7153 277.595 25.9966 276.861 26.6156C276.127 27.2345 275.788 27.9661 275.788 28.8664C275.788 29.4853 276.07 30.1043 276.691 30.6107C277.256 31.1172 278.669 31.6236 280.872 32.0738C286.295 33.2554 290.193 34.4371 292.565 35.6187C294.938 36.8004 296.633 38.3197 297.706 40.0641C298.779 41.8084 299.288 43.8341 299.288 46.0287C299.288 48.6171 298.553 50.9804 297.141 53.1187C295.729 55.3132 293.695 56.945 291.153 58.0704C288.611 59.1958 285.335 59.7585 281.437 59.7585C274.601 59.7585 269.856 58.4643 267.201 55.8196C264.602 53.1749 263.134 49.855 262.738 45.8036Z" fill="#225E63"/>
<path d="M302.449 45.8036L314.312 45.0721C314.595 46.9853 315.103 48.4483 315.894 49.4612C317.193 51.093 319.001 51.8808 321.374 51.8808C323.125 51.8808 324.537 51.4869 325.497 50.6428C326.458 49.7988 326.966 48.8422 326.966 47.7731C326.966 46.7602 326.514 45.8036 325.61 44.9596C324.707 44.1155 322.56 43.384 319.227 42.6525C313.747 41.4146 309.906 39.7828 307.533 37.7571C305.217 35.7313 304.031 33.1429 304.031 29.9918C304.031 27.9098 304.652 25.9967 305.839 24.1398C307.025 22.2829 308.833 20.8761 311.262 19.807C313.691 18.7379 316.967 18.2314 321.148 18.2314C326.288 18.2314 330.243 19.188 332.898 21.1012C335.609 23.0144 337.191 26.0529 337.699 30.2169L325.949 30.8921C325.61 29.0915 324.989 27.7973 323.972 26.9533C322.955 26.1092 321.6 25.7153 319.848 25.7153C318.38 25.7153 317.306 25.9967 316.572 26.6156C315.837 27.2346 315.499 27.9661 315.499 28.8664C315.499 29.4854 315.781 30.1044 316.402 30.6108C316.967 31.1172 318.38 31.6237 320.583 32.0738C326.006 33.2555 329.904 34.4371 332.276 35.6188C334.649 36.8005 336.344 38.3198 337.417 40.0641C338.49 41.8085 338.999 43.8342 338.999 46.0287C338.999 48.6171 338.264 50.9805 336.852 53.1187C335.44 55.3132 333.406 56.9451 330.864 58.0705C328.322 59.1959 325.045 59.7585 321.148 59.7585C314.312 59.7585 309.567 58.4643 306.912 55.8197C304.257 53.175 302.788 49.8551 302.449 45.8036Z" fill="#225E63"/>
</g>
<defs>
<clipPath id="clip0_2566_1197">
<rect width="339" height="129.195" fill="white"/>
</clipPath>
</defs>
</svg>
