<svg width="52" height="52" viewBox="0 0 52 52" fill="none" xmlns="http://www.w3.org/2000/svg">
<path d="M31.935 21.3679L23.1675 30.1354L20.0579 27.0149C19.4856 26.4427 18.5679 26.4427 17.9956 27.0149C17.4233 27.5872 17.4233 28.505 17.9956 29.0772L22.1418 33.2234C22.4225 33.5041 22.8004 33.6553 23.1675 33.6553C23.5346 33.6553 23.9125 33.5149 24.1933 33.2234L33.9865 23.4302C34.5587 22.8579 34.5587 21.9402 33.9865 21.3679C33.425 20.7957 32.5072 20.7957 31.935 21.3679Z" fill="#2B354E"/>
<path d="M48.5213 17.2973C48.5213 14.9867 48.5213 12.6869 48.5213 10.3762C48.5213 9.3289 48.111 8.02242 46.1782 7.77409C45.7679 7.7201 45.3576 7.67691 44.9581 7.62292C43.7056 7.48256 42.5287 7.34219 41.3842 7.08306C36.9141 6.1005 32.6276 4.10299 27.8767 0.799003C27.2397 0.356312 26.7322 0 26.0088 0C25.2854 0 24.7563 0.36711 24.1517 0.788206C17.8028 5.17193 12.0586 7.39618 6.0877 7.76329C4.26295 7.88206 3.47475 8.72425 3.47475 10.5814C3.47475 12.0822 3.47475 13.5831 3.47475 15.0839C3.46395 19.2409 3.46395 23.549 3.50714 27.7816C3.51794 29.2716 3.71229 30.8156 4.0686 32.3812C4.9 36.0199 6.81113 39.3131 9.90996 42.4336C13.851 46.407 18.7962 49.4842 25.037 51.838C25.3178 51.946 25.6417 52 25.9764 52C26.3867 52 26.8186 51.9136 27.1749 51.7517C27.542 51.5897 27.9091 51.4385 28.2762 51.2766C29.8095 50.6179 31.3859 49.9377 32.9083 49.1387C37.9507 46.4718 41.7513 43.3405 44.537 39.5615C46.988 36.2359 48.2513 32.8995 48.4133 29.3688C48.4457 28.6669 48.4673 27.9219 48.4781 27.0905C48.4781 27.0797 48.4781 27.0581 48.4781 27.0473L48.5321 20.0183C48.5321 19.9859 48.5321 19.9535 48.5321 19.9319V19.7915L48.5213 17.2973ZM45.606 19.6512V19.662V19.8563C45.606 19.8779 45.606 19.8995 45.606 19.9211L45.552 26.7774V26.9934C45.552 27.0042 45.552 27.0149 45.552 27.0257C45.5412 27.8463 45.5196 28.5698 45.498 29.25C45.3684 32.1761 44.2887 34.9834 42.194 37.8339C39.6674 41.2566 36.1907 44.1179 31.5478 46.5689C30.1334 47.3139 28.6002 47.9726 27.1317 48.6096C26.7646 48.7716 26.3975 48.9228 26.0304 49.0847C26.0196 49.0847 26.0088 49.0847 25.998 49.0847C20.189 46.8821 15.6002 44.0424 11.9831 40.3821C9.28372 37.6503 7.62093 34.8214 6.9191 31.7226C6.60598 30.3621 6.44402 29.0233 6.43322 27.7492C6.39003 23.5274 6.40083 19.2409 6.40083 15.0839C6.40083 13.6047 6.40083 12.1362 6.40083 10.657C12.8792 10.2251 19.0445 7.84967 25.8036 3.18522C25.8576 3.14203 25.9332 3.09884 26.0088 3.04485C26.0736 3.08804 26.1492 3.14203 26.2139 3.18522C31.2131 6.67276 35.9747 8.87541 40.758 9.93355C42.0536 10.2143 43.3601 10.3654 44.6234 10.5166C44.9581 10.5598 45.2821 10.5922 45.606 10.6354C45.606 12.8164 45.606 15.0083 45.606 17.1894V19.6512Z" fill="#2B354E"/>
</svg>
