<svg width="385" height="440" viewBox="0 0 385 440" fill="none" xmlns="http://www.w3.org/2000/svg">
<path d="M79.75 157.5C122.552 157.5 157.25 122.802 157.25 80C157.25 37.198 122.552 2.5 79.75 2.5C36.9479 2.5 2.25 37.198 2.25 80C2.25 122.802 36.9479 157.5 79.75 157.5Z" stroke="#7681F7" stroke-width="4.17508"/>
<path d="M79.3748 144.08C114.971 144.08 143.828 115.223 143.828 79.6268C143.828 44.0304 114.971 15.1738 79.3748 15.1738C43.7784 15.1738 14.9219 44.0304 14.9219 79.6268C14.9219 115.223 43.7784 144.08 79.3748 144.08Z" stroke="#7681F7" stroke-width="3.13132"/>
<path d="M45.8086 66.3917V60.8907L49.8746 49.6494H52.2663L56.3323 60.8907V66.3917H53.9406V62.517H48.2003V66.3917H45.8086ZM53.51 60.1253L51.0944 53.4284H51.0465L48.6309 60.1253H53.51ZM70.6735 49.6494V52.0412H66.6075V63.9999H70.6735V66.3917H60.1498V63.9999H64.2158V52.0412H60.1498V49.6494H70.6735ZM82.6229 53.9546C82.6229 53.4125 82.4395 52.958 82.0728 52.5913C81.7061 52.2245 81.2516 52.0412 80.7095 52.0412H78.7961C78.254 52.0412 77.7995 52.2325 77.4328 52.6152C77.0661 52.982 76.8827 53.4284 76.8827 53.9546V62.0626C76.8827 62.5888 77.0661 63.0432 77.4328 63.4259C77.8155 63.7927 78.27 63.976 78.7961 63.976H80.7095C81.2357 63.976 81.6822 63.7927 82.0489 63.4259C82.4316 63.0432 82.6229 62.5888 82.6229 62.0626V60.7471H85.0147V62.0626C85.0147 62.8439 84.8234 63.5694 84.4407 64.2391C84.058 64.8929 83.5318 65.4191 82.8621 65.8177C82.2083 66.2003 81.4908 66.3917 80.7095 66.3917H78.7961C78.0148 66.3917 77.2973 66.2003 76.6436 65.8177C75.9898 65.4191 75.4636 64.8929 75.065 64.2391C74.6823 63.5694 74.491 62.8439 74.491 62.0626V53.9546C74.491 53.1733 74.6823 52.4558 75.065 51.802C75.4636 51.1323 75.9898 50.6061 76.6436 50.2234C77.2973 49.8408 78.0148 49.6494 78.7961 49.6494H80.7095C81.4908 49.6494 82.2083 49.8408 82.8621 50.2234C83.5318 50.6061 84.058 51.1323 84.4407 51.802C84.8234 52.4558 85.0147 53.1733 85.0147 53.9546V55.27H82.6229V53.9546ZM99.3561 55.3896C99.3561 56.1709 99.1648 56.8964 98.7821 57.5661C98.3994 58.2199 97.8733 58.7381 97.2036 59.1208C96.5495 59.5034 95.832 59.6948 95.051 59.6948H91.2242V66.3917H88.8324V49.6494H95.051C95.832 49.6494 96.5495 49.8408 97.2036 50.2234C97.8733 50.6061 98.3994 51.1323 98.7821 51.802C99.1648 52.4558 99.3561 53.1733 99.3561 53.9546V55.3896ZM95.051 57.303C95.5928 57.303 96.0473 57.1197 96.4143 56.7529C96.7805 56.3862 96.9644 55.9317 96.9644 55.3896V53.9546C96.9644 53.4125 96.7805 52.958 96.4143 52.5913C96.0473 52.2245 95.5928 52.0412 95.051 52.0412H91.2242V57.303H95.051ZM103.173 66.3917V60.8907L107.239 49.6494H109.631L113.697 60.8907V66.3917H111.305V62.517H105.565V66.3917H103.173ZM110.874 60.1253L108.459 53.4284H108.411L105.995 60.1253H110.874Z" fill="#7681F7"/>
<path d="M28.2031 79.5876H131.296" stroke="#7681F7" stroke-width="1.64948"/>
<path d="M62.5402 106.347V107.304C62.5402 107.862 62.7395 108.348 63.1381 108.763C63.5527 109.161 64.039 109.361 64.5971 109.361H66.1996C66.8055 109.361 67.2998 109.193 67.6825 108.859C68.0811 108.508 68.2804 108.069 68.2804 107.543C68.2804 107.08 68.1289 106.65 67.826 106.251C67.523 105.853 67.1404 105.494 66.6779 105.175C66.2315 104.856 65.6096 104.466 64.8124 104.003C63.8716 103.461 63.1062 102.983 62.5163 102.568C61.9263 102.138 61.4241 101.627 61.0095 101.037C60.5949 100.431 60.3876 99.7459 60.3876 98.9806C60.3876 98.2152 60.571 97.5298 60.9377 96.9237C61.3204 96.3175 61.8466 95.8474 62.5163 95.5125C63.2019 95.1777 63.9752 95.0103 64.8363 95.0103H65.9604C66.7736 95.0103 67.523 95.2098 68.2086 95.6082C68.8943 96.0065 69.4364 96.5492 69.835 97.2346C70.2336 97.9043 70.433 98.6457 70.433 99.4589V100.176H68.0412V99.4589C68.0412 98.8849 67.834 98.3983 67.4194 97.9999C67.0208 97.6016 66.5344 97.402 65.9604 97.402H64.8363C64.1985 97.402 63.6962 97.5455 63.3295 97.8325C62.9627 98.1039 62.7794 98.4865 62.7794 98.9806C62.7794 99.4589 63.0105 99.8894 63.473 100.272C63.9513 100.655 64.7008 101.141 65.7212 101.731C66.7417 102.321 67.5788 102.855 68.2326 103.334C68.9023 103.812 69.4763 104.41 69.9546 105.127C70.433 105.829 70.6721 106.634 70.6721 107.543C70.6721 108.324 70.4728 109.042 70.0742 109.696C69.6915 110.333 69.1573 110.835 68.4717 111.202C67.7861 111.569 67.0287 111.753 66.1996 111.753H64.5971C63.7839 111.753 63.0345 111.553 62.3489 111.155C61.6792 110.756 61.145 110.222 60.7464 109.552C60.3478 108.867 60.1484 108.117 60.1484 107.304V106.347H62.5402ZM80.7082 109.337C81.2344 109.337 81.6808 109.154 82.0476 108.787C82.4303 108.404 82.6216 107.95 82.6216 107.423V99.3154C82.6216 98.7736 82.4382 98.3191 82.0715 97.9521C81.7047 97.5851 81.2503 97.402 80.7082 97.402H78.7948C78.2526 97.402 77.7982 97.5933 77.4315 97.976C77.0647 98.343 76.8814 98.7892 76.8814 99.3154V107.423C76.8814 107.95 77.0647 108.404 77.4315 108.787C77.8142 109.154 78.2686 109.337 78.7948 109.337H80.7082ZM74.4896 99.3154C74.4896 98.5344 74.681 97.8169 75.0637 97.1628C75.4623 96.4931 75.9884 95.967 76.6422 95.5843C77.2959 95.2016 78.0134 95.0103 78.7948 95.0103H80.7082C81.4895 95.0103 82.207 95.2016 82.8608 95.5843C83.5305 95.967 84.0566 96.4931 84.4393 97.1628C84.822 97.8169 85.0133 98.5344 85.0133 99.3154V107.423C85.0133 108.204 84.822 108.93 84.4393 109.6C84.0566 110.254 83.5305 110.78 82.8608 111.179C82.207 111.561 81.4895 111.753 80.7082 111.753H78.7948C78.0134 111.753 77.2959 111.561 76.6422 111.179C75.9884 110.78 75.4623 110.254 75.0637 109.6C74.681 108.93 74.4896 108.204 74.4896 107.423V99.3154ZM96.963 99.3154C96.963 98.7736 96.7791 98.3191 96.4129 97.9521C96.0459 97.5851 95.5915 97.402 95.0496 97.402H93.1362C92.5936 97.402 92.1391 97.5933 91.7729 97.976C91.4059 98.343 91.2228 98.7892 91.2228 99.3154V107.423C91.2228 107.95 91.4059 108.404 91.7729 108.787C92.1556 109.154 92.61 109.337 93.1362 109.337H95.0496C95.5758 109.337 96.022 109.154 96.389 108.787C96.7717 108.404 96.963 107.95 96.963 107.423V106.108H99.3548V107.423C99.3548 108.204 99.1634 108.93 98.7808 109.6C98.3981 110.254 97.8719 110.78 97.2022 111.179C96.5482 111.561 95.8307 111.753 95.0496 111.753H93.1362C92.3544 111.753 91.6369 111.561 90.9837 111.179C90.3296 110.78 89.8034 110.254 89.4051 109.6C89.0224 108.93 88.8311 108.204 88.8311 107.423V99.3154C88.8311 98.5344 89.0224 97.8169 89.4051 97.1628C89.8034 96.4931 90.3296 95.967 90.9837 95.5843C91.6369 95.2016 92.3544 95.0103 93.1362 95.0103H95.0496C95.8307 95.0103 96.5482 95.2016 97.2022 95.5843C97.8719 95.967 98.3981 96.4931 98.7808 97.1628C99.1634 97.8169 99.3548 98.5344 99.3548 99.3154V100.631H96.963V99.3154Z" fill="#7681F7"/>
<path d="M60.4409 182.091C60.3557 181.371 60.01 180.812 59.404 180.415C58.7979 180.017 58.0545 179.818 57.1739 179.818C56.5299 179.818 55.9665 179.922 55.4835 180.131C55.0053 180.339 54.6312 180.625 54.3614 180.99C54.0962 181.355 53.9636 181.769 53.9636 182.233C53.9636 182.621 54.056 182.955 54.2406 183.234C54.43 183.509 54.6715 183.739 54.9651 183.923C55.2586 184.103 55.5664 184.252 55.8884 184.371C56.2103 184.484 56.5062 184.577 56.7761 184.648L58.2534 185.045C58.6322 185.145 59.0536 185.282 59.5176 185.457C59.9864 185.633 60.4338 185.872 60.8599 186.175C61.2908 186.473 61.6459 186.857 61.9253 187.325C62.2046 187.794 62.3443 188.369 62.3443 189.051C62.3443 189.837 62.1384 190.547 61.7264 191.182C61.3192 191.816 60.7226 192.321 59.9366 192.695C59.1554 193.069 58.2061 193.256 57.0886 193.256C56.047 193.256 55.145 193.088 54.3827 192.751C53.6251 192.415 53.0285 191.946 52.5929 191.345C52.162 190.744 51.9182 190.045 51.8614 189.25H53.6795C53.7269 189.799 53.9116 190.254 54.2335 190.614C54.5602 190.969 54.9722 191.234 55.4693 191.409C55.9712 191.58 56.511 191.665 57.0886 191.665C57.761 191.665 58.3647 191.556 58.8997 191.338C59.4348 191.116 59.8585 190.808 60.171 190.415C60.4835 190.017 60.6398 189.553 60.6398 189.023C60.6398 188.54 60.5048 188.147 60.2349 187.844C59.9651 187.541 59.6099 187.295 59.1696 187.105C58.7293 186.916 58.2534 186.75 57.742 186.608L55.9523 186.097C54.8159 185.77 53.9163 185.304 53.2534 184.697C52.5905 184.091 52.2591 183.298 52.2591 182.318C52.2591 181.504 52.4793 180.794 52.9196 180.188C53.3647 179.577 53.9613 179.103 54.7094 178.767C55.4622 178.426 56.3026 178.256 57.2307 178.256C58.1682 178.256 59.0015 178.424 59.7307 178.76C60.4598 179.091 61.0375 179.546 61.4636 180.124C61.8945 180.701 62.1218 181.357 62.1455 182.091H60.4409ZM77.513 185.727C77.513 187.261 77.236 188.587 76.682 189.705C76.1281 190.822 75.3681 191.684 74.4022 192.29C73.4363 192.896 72.3331 193.199 71.0925 193.199C69.852 193.199 68.7488 192.896 67.7829 192.29C66.817 191.684 66.057 190.822 65.5031 189.705C64.9491 188.587 64.6721 187.261 64.6721 185.727C64.6721 184.193 64.9491 182.867 65.5031 181.75C66.057 180.633 66.817 179.771 67.7829 179.165C68.7488 178.559 69.852 178.256 71.0925 178.256C72.3331 178.256 73.4363 178.559 74.4022 179.165C75.3681 179.771 76.1281 180.633 76.682 181.75C77.236 182.867 77.513 184.193 77.513 185.727ZM75.8085 185.727C75.8085 184.468 75.5978 183.405 75.1763 182.538C74.7597 181.672 74.1939 181.016 73.4789 180.571C72.7687 180.126 71.9732 179.903 71.0925 179.903C70.2119 179.903 69.414 180.126 68.6991 180.571C67.9888 181.016 67.423 181.672 67.0016 182.538C66.585 183.405 66.3766 184.468 66.3766 185.727C66.3766 186.987 66.585 188.05 67.0016 188.916C67.423 189.783 67.9888 190.438 68.6991 190.884C69.414 191.329 70.2119 191.551 71.0925 191.551C71.9732 191.551 72.7687 191.329 73.4789 190.884C74.1939 190.438 74.7597 189.783 75.1763 188.916C75.5978 188.05 75.8085 186.987 75.8085 185.727ZM92.1792 183H90.4178C90.3137 182.493 90.1314 182.048 89.871 181.665C89.6153 181.281 89.3028 180.959 88.9335 180.699C88.5689 180.434 88.164 180.235 87.719 180.102C87.2739 179.97 86.8099 179.903 86.3269 179.903C85.4462 179.903 84.6484 180.126 83.9335 180.571C83.2232 181.016 82.6574 181.672 82.236 182.538C81.8193 183.405 81.611 184.468 81.611 185.727C81.611 186.987 81.8193 188.05 82.236 188.916C82.6574 189.783 83.2232 190.438 83.9335 190.884C84.6484 191.329 85.4462 191.551 86.3269 191.551C86.8099 191.551 87.2739 191.485 87.719 191.352C88.164 191.22 88.5689 191.023 88.9335 190.763C89.3028 190.498 89.6153 190.173 89.871 189.79C90.1314 189.402 90.3137 188.956 90.4178 188.455H92.1792C92.0466 189.198 91.8051 189.863 91.4548 190.45C91.1044 191.037 90.6688 191.537 90.1479 191.949C89.6271 192.356 89.0424 192.666 88.3937 192.879C87.7497 193.092 87.0608 193.199 86.3269 193.199C85.0864 193.199 83.9832 192.896 83.0173 192.29C82.0513 191.684 81.2914 190.822 80.7374 189.705C80.1835 188.587 79.9065 187.261 79.9065 185.727C79.9065 184.193 80.1835 182.867 80.7374 181.75C81.2914 180.633 82.0513 179.771 83.0173 179.165C83.9832 178.559 85.0864 178.256 86.3269 178.256C87.0608 178.256 87.7497 178.362 88.3937 178.575C89.0424 178.788 89.6271 179.101 90.1479 179.513C90.6688 179.92 91.1044 180.417 91.4548 181.004C91.8051 181.587 92.0466 182.252 92.1792 183ZM102.412 178.455V193H100.65V178.455H102.412ZM107.705 178.455V193H105.943V178.455H107.705Z" fill="#7681F7"/>
<path d="M305.972 3.13602L305.006 2.58862L304.041 3.13602L271.345 21.6673L271.331 21.675L271.318 21.6829L238.921 40.7316L237.964 41.2943L237.955 42.4044L237.656 79.9844L237.656 80L237.656 80.0156L237.955 117.595L237.964 118.706L238.921 119.269L271.318 138.317L271.331 138.325L271.345 138.332L304.041 156.864L305.006 157.411L305.972 156.864L338.668 138.332L338.681 138.325L338.694 138.317L371.092 119.269L372.048 118.706L372.058 117.595L372.356 80.0156L372.357 80L372.356 79.9844L372.058 42.4044L372.048 41.2943L371.092 40.7316L338.694 21.6829L338.681 21.675L338.668 21.6673L305.972 3.13602Z" stroke="#7681F7" stroke-width="3.91713"/>
<path fill-rule="evenodd" clip-rule="evenodd" d="M304.897 23.2336L302.324 31.1529L306.284 32.4395L304.897 23.2336Z" fill="#7681F7"/>
<path fill-rule="evenodd" clip-rule="evenodd" d="M304.898 23.2351L307.471 31.1545L303.512 32.441L304.898 23.2351Z" fill="#7681F7"/>
<path fill-rule="evenodd" clip-rule="evenodd" d="M312.83 28.9939H304.504V33.1574L312.83 28.9939Z" fill="#7681F7"/>
<path fill-rule="evenodd" clip-rule="evenodd" d="M312.825 28.9971L306.088 33.8915L303.641 30.5232L312.825 28.9971Z" fill="#7681F7"/>
<path fill-rule="evenodd" clip-rule="evenodd" d="M309.799 38.2936L307.225 30.3743L303.266 31.6608L309.799 38.2936Z" fill="#7681F7"/>
<path fill-rule="evenodd" clip-rule="evenodd" d="M309.795 38.2951L303.059 33.4008L305.506 30.0325L309.795 38.2951Z" fill="#7681F7"/>
<path fill-rule="evenodd" clip-rule="evenodd" d="M296.98 28.9985H305.307V33.162L296.98 28.9985Z" fill="#7681F7"/>
<path fill-rule="evenodd" clip-rule="evenodd" d="M296.984 29L303.721 33.8945L306.168 30.5261L296.984 29Z" fill="#7681F7"/>
<path fill-rule="evenodd" clip-rule="evenodd" d="M300 38.2968L302.573 30.3774L306.533 31.664L300 38.2968Z" fill="#7681F7"/>
<path fill-rule="evenodd" clip-rule="evenodd" d="M300.004 38.2967L306.74 33.4022L304.293 30.0339L300.004 38.2967Z" fill="#7681F7"/>
<path fill-rule="evenodd" clip-rule="evenodd" d="M304.897 123.14L302.324 131.06L306.284 132.346L304.897 123.14Z" fill="#7681F7"/>
<path fill-rule="evenodd" clip-rule="evenodd" d="M304.898 123.139L307.471 131.059L303.512 132.345L304.898 123.139Z" fill="#7681F7"/>
<path fill-rule="evenodd" clip-rule="evenodd" d="M312.827 128.899H304.5V133.063L312.827 128.899Z" fill="#7681F7"/>
<path fill-rule="evenodd" clip-rule="evenodd" d="M312.821 128.901L306.084 133.796L303.637 130.427L312.821 128.901Z" fill="#7681F7"/>
<path fill-rule="evenodd" clip-rule="evenodd" d="M309.795 138.208L307.221 130.289L303.262 131.575L309.795 138.208Z" fill="#7681F7"/>
<path fill-rule="evenodd" clip-rule="evenodd" d="M309.791 138.211L303.055 133.317L305.502 129.949L309.791 138.211Z" fill="#7681F7"/>
<path fill-rule="evenodd" clip-rule="evenodd" d="M296.973 128.909H305.299V133.072L296.973 128.909Z" fill="#7681F7"/>
<path fill-rule="evenodd" clip-rule="evenodd" d="M296.977 128.91L303.713 133.804L306.16 130.436L296.977 128.91Z" fill="#7681F7"/>
<path fill-rule="evenodd" clip-rule="evenodd" d="M300.004 138.208L302.577 130.289L306.537 131.575L300.004 138.208Z" fill="#7681F7"/>
<path fill-rule="evenodd" clip-rule="evenodd" d="M300.008 138.215L306.744 133.32L304.297 129.952L300.008 138.215Z" fill="#7681F7"/>
<path fill-rule="evenodd" clip-rule="evenodd" d="M254.932 73.1924L252.359 81.1121L256.319 82.3982L254.932 73.1924Z" fill="#7681F7"/>
<path fill-rule="evenodd" clip-rule="evenodd" d="M254.933 73.1941L257.507 81.1138L253.547 82.3999L254.933 73.1941Z" fill="#7681F7"/>
<path fill-rule="evenodd" clip-rule="evenodd" d="M262.85 78.9363H254.523V83.0991L262.85 78.9363Z" fill="#7681F7"/>
<path fill-rule="evenodd" clip-rule="evenodd" d="M262.852 78.9395L256.115 83.8336L253.668 80.4652L262.852 78.9395Z" fill="#7681F7"/>
<path fill-rule="evenodd" clip-rule="evenodd" d="M259.826 88.2492L257.253 80.3301L253.293 81.617L259.826 88.2492Z" fill="#7681F7"/>
<path fill-rule="evenodd" clip-rule="evenodd" d="M259.83 88.2493L253.094 83.3552L255.541 79.9868L259.83 88.2493Z" fill="#7681F7"/>
<path fill-rule="evenodd" clip-rule="evenodd" d="M247.004 78.9434H255.331V83.107L247.004 78.9434Z" fill="#7681F7"/>
<path fill-rule="evenodd" clip-rule="evenodd" d="M247.008 78.9395L253.744 83.8336L256.192 80.4652L247.008 78.9395Z" fill="#7681F7"/>
<path fill-rule="evenodd" clip-rule="evenodd" d="M250.035 88.2492L252.608 80.3301L256.568 81.617L250.035 88.2492Z" fill="#7681F7"/>
<path fill-rule="evenodd" clip-rule="evenodd" d="M250.039 88.2523L256.776 83.3581L254.328 79.9897L250.039 88.2523Z" fill="#7681F7"/>
<path fill-rule="evenodd" clip-rule="evenodd" d="M275.023 44.9822L281.76 40.0878L279.313 36.7195L275.023 44.9822Z" fill="#7681F7"/>
<path fill-rule="evenodd" clip-rule="evenodd" d="M275.016 44.9853L277.589 37.0659L281.548 38.3525L275.016 44.9853Z" fill="#7681F7"/>
<path fill-rule="evenodd" clip-rule="evenodd" d="M272.004 35.6704L278.741 40.5649L281.188 37.1966L272.004 35.6704Z" fill="#7681F7"/>
<path fill-rule="evenodd" clip-rule="evenodd" d="M272.008 35.675H280.335V39.8385L272.008 35.675Z" fill="#7681F7"/>
<path fill-rule="evenodd" clip-rule="evenodd" d="M279.929 29.9102L277.355 37.8294L281.315 39.116L279.929 29.9102Z" fill="#7681F7"/>
<path fill-rule="evenodd" clip-rule="evenodd" d="M279.926 29.907L282.499 37.8263L278.539 39.1128L279.926 29.907Z" fill="#7681F7"/>
<path fill-rule="evenodd" clip-rule="evenodd" d="M284.811 44.9807L278.074 40.0863L280.521 36.718L284.811 44.9807Z" fill="#7681F7"/>
<path fill-rule="evenodd" clip-rule="evenodd" d="M284.814 44.9777L282.241 37.0583L278.281 38.345L284.814 44.9777Z" fill="#7681F7"/>
<path fill-rule="evenodd" clip-rule="evenodd" d="M287.836 35.675L281.1 40.5694L278.652 37.2011L287.836 35.675Z" fill="#7681F7"/>
<path fill-rule="evenodd" clip-rule="evenodd" d="M287.835 35.6794H279.508V39.8429L287.835 35.6794Z" fill="#7681F7"/>
<path fill-rule="evenodd" clip-rule="evenodd" d="M266.529 63.2723L263.956 55.353L259.996 56.6396L266.529 63.2723Z" fill="#7681F7"/>
<path fill-rule="evenodd" clip-rule="evenodd" d="M266.529 63.274L259.793 58.3795L262.24 55.0112L266.529 63.274Z" fill="#7681F7"/>
<path fill-rule="evenodd" clip-rule="evenodd" d="M256.738 63.283L263.475 58.3886L261.028 55.0203L256.738 63.283Z" fill="#7681F7"/>
<path fill-rule="evenodd" clip-rule="evenodd" d="M256.73 63.2816L259.304 55.3623L263.263 56.6489L256.73 63.2816Z" fill="#7681F7"/>
<path fill-rule="evenodd" clip-rule="evenodd" d="M253.711 53.9771L260.448 58.8715L262.895 55.5032L253.711 53.9771Z" fill="#7681F7"/>
<path fill-rule="evenodd" clip-rule="evenodd" d="M253.711 53.9834H262.038V58.1468L253.711 53.9834Z" fill="#7681F7"/>
<path fill-rule="evenodd" clip-rule="evenodd" d="M269.563 53.9575L262.826 58.8519L260.379 55.4836L269.563 53.9575Z" fill="#7681F7"/>
<path fill-rule="evenodd" clip-rule="evenodd" d="M269.565 53.9619H261.238V58.1253L269.565 53.9619Z" fill="#7681F7"/>
<path fill-rule="evenodd" clip-rule="evenodd" d="M261.64 48.2092L264.214 56.1286L260.254 57.4151L261.64 48.2092Z" fill="#7681F7"/>
<path fill-rule="evenodd" clip-rule="evenodd" d="M261.64 48.2122L259.066 56.1315L263.026 57.4181L261.64 48.2122Z" fill="#7681F7"/>
<path fill-rule="evenodd" clip-rule="evenodd" d="M269.546 103.922H261.219V108.086L269.546 103.922Z" fill="#7681F7"/>
<path fill-rule="evenodd" clip-rule="evenodd" d="M269.547 103.92L262.811 108.815L260.363 105.447L269.547 103.92Z" fill="#7681F7"/>
<path fill-rule="evenodd" clip-rule="evenodd" d="M266.521 113.236L263.948 105.317L259.988 106.603L266.521 113.236Z" fill="#7681F7"/>
<path fill-rule="evenodd" clip-rule="evenodd" d="M266.522 113.236L259.785 108.342L262.232 104.973L266.522 113.236Z" fill="#7681F7"/>
<path fill-rule="evenodd" clip-rule="evenodd" d="M256.73 113.23L263.467 108.335L261.02 104.967L256.73 113.23Z" fill="#7681F7"/>
<path fill-rule="evenodd" clip-rule="evenodd" d="M256.73 113.227L259.304 105.307L263.263 106.594L256.73 113.227Z" fill="#7681F7"/>
<path fill-rule="evenodd" clip-rule="evenodd" d="M261.621 98.1663L264.194 106.086L260.234 107.372L261.621 98.1663Z" fill="#7681F7"/>
<path fill-rule="evenodd" clip-rule="evenodd" d="M261.628 98.168L259.055 106.088L263.014 107.374L261.628 98.168Z" fill="#7681F7"/>
<path fill-rule="evenodd" clip-rule="evenodd" d="M253.711 103.927H262.038V108.09L253.711 103.927Z" fill="#7681F7"/>
<path fill-rule="evenodd" clip-rule="evenodd" d="M253.707 103.925L260.444 108.82L262.891 105.452L253.707 103.925Z" fill="#7681F7"/>
<path fill-rule="evenodd" clip-rule="evenodd" d="M287.842 122.211H279.516V126.375L287.842 122.211Z" fill="#7681F7"/>
<path fill-rule="evenodd" clip-rule="evenodd" d="M287.848 122.211L281.111 127.105L278.664 123.737L287.848 122.211Z" fill="#7681F7"/>
<path fill-rule="evenodd" clip-rule="evenodd" d="M284.798 131.514L282.225 123.595L278.266 124.881L284.798 131.514Z" fill="#7681F7"/>
<path fill-rule="evenodd" clip-rule="evenodd" d="M284.803 131.515L278.066 126.62L280.514 123.253L284.803 131.515Z" fill="#7681F7"/>
<path fill-rule="evenodd" clip-rule="evenodd" d="M275.02 131.52L281.756 126.625L279.309 123.257L275.02 131.52Z" fill="#7681F7"/>
<path fill-rule="evenodd" clip-rule="evenodd" d="M275.012 131.52L277.585 123.6L281.545 124.887L275.012 131.52Z" fill="#7681F7"/>
<path fill-rule="evenodd" clip-rule="evenodd" d="M279.922 116.45L282.495 124.37L278.535 125.657L279.922 116.45Z" fill="#7681F7"/>
<path fill-rule="evenodd" clip-rule="evenodd" d="M279.925 116.449L277.352 124.368L281.311 125.655L279.925 116.449Z" fill="#7681F7"/>
<path fill-rule="evenodd" clip-rule="evenodd" d="M272.004 122.206H280.331V126.37L272.004 122.206Z" fill="#7681F7"/>
<path fill-rule="evenodd" clip-rule="evenodd" d="M272.004 122.206L278.74 127.1L281.188 123.733L272.004 122.206Z" fill="#7681F7"/>
<path fill-rule="evenodd" clip-rule="evenodd" d="M354.863 73.1941L357.437 81.1138L353.477 82.3999L354.863 73.1941Z" fill="#7681F7"/>
<path fill-rule="evenodd" clip-rule="evenodd" d="M354.858 73.1956L352.285 81.1153L356.245 82.4015L354.858 73.1956Z" fill="#7681F7"/>
<path fill-rule="evenodd" clip-rule="evenodd" d="M346.941 78.9448H355.269V83.1085L346.941 78.9448Z" fill="#7681F7"/>
<path fill-rule="evenodd" clip-rule="evenodd" d="M346.941 78.9409L353.678 83.8351L356.126 80.4667L346.941 78.9409Z" fill="#7681F7"/>
<path fill-rule="evenodd" clip-rule="evenodd" d="M349.965 88.2509L352.539 80.3318L356.498 81.6187L349.965 88.2509Z" fill="#7681F7"/>
<path fill-rule="evenodd" clip-rule="evenodd" d="M349.969 88.2572L356.706 83.363L354.258 79.9946L349.969 88.2572Z" fill="#7681F7"/>
<path fill-rule="evenodd" clip-rule="evenodd" d="M362.784 78.9448H354.457V83.1085L362.784 78.9448Z" fill="#7681F7"/>
<path fill-rule="evenodd" clip-rule="evenodd" d="M362.785 78.9409L356.048 83.8351L353.602 80.4667L362.785 78.9409Z" fill="#7681F7"/>
<path fill-rule="evenodd" clip-rule="evenodd" d="M359.755 88.2509L357.182 80.3318L353.223 81.6187L359.755 88.2509Z" fill="#7681F7"/>
<path fill-rule="evenodd" clip-rule="evenodd" d="M359.752 88.254L353.016 83.3598L355.462 79.9915L359.752 88.254Z" fill="#7681F7"/>
<path fill-rule="evenodd" clip-rule="evenodd" d="M334.779 44.9778L328.043 40.0834L330.49 36.7151L334.779 44.9778Z" fill="#7681F7"/>
<path fill-rule="evenodd" clip-rule="evenodd" d="M334.775 44.9748L332.202 37.0554L328.242 38.3421L334.775 44.9748Z" fill="#7681F7"/>
<path fill-rule="evenodd" clip-rule="evenodd" d="M337.794 35.6719L331.057 40.5663L328.609 37.198L337.794 35.6719Z" fill="#7681F7"/>
<path fill-rule="evenodd" clip-rule="evenodd" d="M337.788 35.6765H329.461V39.84L337.788 35.6765Z" fill="#7681F7"/>
<path fill-rule="evenodd" clip-rule="evenodd" d="M329.867 29.9116L332.44 37.831L328.48 39.1175L329.867 29.9116Z" fill="#7681F7"/>
<path fill-rule="evenodd" clip-rule="evenodd" d="M329.87 29.9084L327.297 37.8278L331.257 39.1144L329.87 29.9084Z" fill="#7681F7"/>
<path fill-rule="evenodd" clip-rule="evenodd" d="M324.98 44.9822L331.717 40.0878L329.27 36.7195L324.98 44.9822Z" fill="#7681F7"/>
<path fill-rule="evenodd" clip-rule="evenodd" d="M324.977 44.9792L327.55 37.0598L331.51 38.3464L324.977 44.9792Z" fill="#7681F7"/>
<path fill-rule="evenodd" clip-rule="evenodd" d="M321.953 35.678L328.69 40.5724L331.137 37.2041L321.953 35.678Z" fill="#7681F7"/>
<path fill-rule="evenodd" clip-rule="evenodd" d="M321.953 35.6826H330.28V39.8461L321.953 35.6826Z" fill="#7681F7"/>
<path fill-rule="evenodd" clip-rule="evenodd" d="M343.277 63.2663L345.85 55.3469L349.81 56.6336L343.277 63.2663Z" fill="#7681F7"/>
<path fill-rule="evenodd" clip-rule="evenodd" d="M343.277 63.2678L350.014 58.3734L347.567 55.0051L343.277 63.2678Z" fill="#7681F7"/>
<path fill-rule="evenodd" clip-rule="evenodd" d="M353.065 63.2724L346.328 58.3781L348.776 55.0098L353.065 63.2724Z" fill="#7681F7"/>
<path fill-rule="evenodd" clip-rule="evenodd" d="M353.076 63.2709L350.503 55.3516L346.543 56.6381L353.076 63.2709Z" fill="#7681F7"/>
<path fill-rule="evenodd" clip-rule="evenodd" d="M356.082 53.9558L349.346 58.8503L346.898 55.482L356.082 53.9558Z" fill="#7681F7"/>
<path fill-rule="evenodd" clip-rule="evenodd" d="M356.08 53.959H347.754V58.1224L356.08 53.959Z" fill="#7681F7"/>
<path fill-rule="evenodd" clip-rule="evenodd" d="M340.25 53.9512L346.987 58.8456L349.434 55.4773L340.25 53.9512Z" fill="#7681F7"/>
<path fill-rule="evenodd" clip-rule="evenodd" d="M340.254 53.9558H348.581V58.1192L340.254 53.9558Z" fill="#7681F7"/>
<path fill-rule="evenodd" clip-rule="evenodd" d="M348.171 48.2031L345.598 56.1225L349.557 57.409L348.171 48.2031Z" fill="#7681F7"/>
<path fill-rule="evenodd" clip-rule="evenodd" d="M348.172 48.2063L350.745 56.1257L346.785 57.4122L348.172 48.2063Z" fill="#7681F7"/>
<path fill-rule="evenodd" clip-rule="evenodd" d="M340.25 103.924H348.577V108.087L340.25 103.924Z" fill="#7681F7"/>
<path fill-rule="evenodd" clip-rule="evenodd" d="M340.25 103.922L346.987 108.817L349.434 105.449L340.25 103.922Z" fill="#7681F7"/>
<path fill-rule="evenodd" clip-rule="evenodd" d="M343.273 113.242L345.847 105.322L349.807 106.609L343.273 113.242Z" fill="#7681F7"/>
<path fill-rule="evenodd" clip-rule="evenodd" d="M343.273 113.244L350.01 108.349L347.563 104.98L343.273 113.244Z" fill="#7681F7"/>
<path fill-rule="evenodd" clip-rule="evenodd" d="M353.065 113.236L346.328 108.342L348.776 104.973L353.065 113.236Z" fill="#7681F7"/>
<path fill-rule="evenodd" clip-rule="evenodd" d="M353.064 113.234L350.49 105.315L346.531 106.601L353.064 113.234Z" fill="#7681F7"/>
<path fill-rule="evenodd" clip-rule="evenodd" d="M348.167 98.168L345.594 106.088L349.553 107.374L348.167 98.168Z" fill="#7681F7"/>
<path fill-rule="evenodd" clip-rule="evenodd" d="M348.164 98.1694L350.737 106.089L346.777 107.376L348.164 98.1694Z" fill="#7681F7"/>
<path fill-rule="evenodd" clip-rule="evenodd" d="M356.092 103.928H347.766V108.092L356.092 103.928Z" fill="#7681F7"/>
<path fill-rule="evenodd" clip-rule="evenodd" d="M356.098 103.927L349.362 108.822L346.914 105.453L356.098 103.927Z" fill="#7681F7"/>
<path fill-rule="evenodd" clip-rule="evenodd" d="M321.969 122.209H330.296V126.373L321.969 122.209Z" fill="#7681F7"/>
<path fill-rule="evenodd" clip-rule="evenodd" d="M321.965 122.208L328.701 127.102L331.148 123.734L321.965 122.208Z" fill="#7681F7"/>
<path fill-rule="evenodd" clip-rule="evenodd" d="M324.996 131.52L327.569 123.6L331.529 124.887L324.996 131.52Z" fill="#7681F7"/>
<path fill-rule="evenodd" clip-rule="evenodd" d="M325 131.518L331.737 126.624L329.289 123.255L325 131.518Z" fill="#7681F7"/>
<path fill-rule="evenodd" clip-rule="evenodd" d="M334.787 131.512L328.051 126.618L330.497 123.25L334.787 131.512Z" fill="#7681F7"/>
<path fill-rule="evenodd" clip-rule="evenodd" d="M334.786 131.511L332.213 123.592L328.254 124.878L334.786 131.511Z" fill="#7681F7"/>
<path fill-rule="evenodd" clip-rule="evenodd" d="M329.886 116.469L327.312 124.388L331.272 125.675L329.886 116.469Z" fill="#7681F7"/>
<path fill-rule="evenodd" clip-rule="evenodd" d="M329.887 116.471L332.46 124.391L328.5 125.678L329.887 116.471Z" fill="#7681F7"/>
<path fill-rule="evenodd" clip-rule="evenodd" d="M337.804 122.211H329.477V126.375L337.804 122.211Z" fill="#7681F7"/>
<path fill-rule="evenodd" clip-rule="evenodd" d="M337.808 122.209L331.072 127.103L328.625 123.735L337.808 122.209Z" fill="#7681F7"/>
<path d="M315.141 76.5643H314.376V74.119C314.376 68.9837 310.198 64.8057 305.065 64.8057C299.929 64.8057 295.752 68.9837 295.752 74.1186V76.5639H294.987C293.422 76.5639 292.152 77.8327 292.152 79.3982V92.8499C292.152 94.4146 293.422 95.6852 294.987 95.6852H315.141C316.706 95.6852 317.975 94.4146 317.975 92.8499V79.3982C317.975 77.833 316.706 76.5643 315.141 76.5643ZM310.293 76.5643H299.835V74.119C299.835 71.2352 302.18 68.89 305.065 68.89C307.947 68.89 310.293 71.2352 310.293 74.119V76.5643Z" fill="#7681F7"/>
<path d="M291.399 183.25C291.262 182.832 291.082 182.457 290.858 182.125C290.638 181.79 290.375 181.504 290.069 181.268C289.766 181.031 289.422 180.851 289.037 180.727C288.652 180.603 288.229 180.54 287.769 180.54C287.015 180.54 286.33 180.735 285.712 181.125C285.095 181.514 284.604 182.088 284.24 182.846C283.875 183.604 283.693 184.534 283.693 185.636C283.693 186.738 283.877 187.669 284.246 188.427C284.614 189.185 285.114 189.759 285.743 190.148C286.373 190.538 287.082 190.732 287.869 190.732C288.598 190.732 289.24 190.577 289.795 190.266C290.355 189.951 290.79 189.508 291.1 188.936C291.415 188.36 291.573 187.683 291.573 186.904L292.045 187.004H288.217V185.636H293.064V187.004C293.064 188.052 292.84 188.963 292.393 189.738C291.95 190.513 291.336 191.113 290.553 191.54C289.775 191.963 288.88 192.174 287.869 192.174C286.742 192.174 285.752 191.909 284.898 191.379C284.049 190.848 283.386 190.094 282.91 189.116C282.437 188.139 282.201 186.979 282.201 185.636C282.201 184.63 282.336 183.724 282.605 182.921C282.879 182.113 283.264 181.425 283.761 180.857C284.258 180.29 284.846 179.855 285.526 179.552C286.205 179.25 286.953 179.099 287.769 179.099C288.441 179.099 289.066 179.2 289.646 179.403C290.23 179.602 290.75 179.886 291.206 180.255C291.666 180.619 292.049 181.056 292.356 181.566C292.662 182.071 292.874 182.633 292.99 183.25H291.399ZM299.631 192H295.704V179.273H299.805C301.04 179.273 302.096 179.528 302.975 180.037C303.853 180.543 304.526 181.27 304.994 182.218C305.463 183.163 305.697 184.294 305.697 185.612C305.697 186.937 305.46 188.079 304.988 189.036C304.516 189.989 303.828 190.722 302.925 191.236C302.022 191.745 300.924 192 299.631 192ZM297.245 190.633H299.532C300.584 190.633 301.456 190.43 302.148 190.024C302.84 189.618 303.356 189.04 303.696 188.29C304.035 187.54 304.205 186.647 304.205 185.612C304.205 184.584 304.037 183.7 303.702 182.958C303.366 182.212 302.865 181.64 302.198 181.243C301.531 180.841 300.7 180.64 299.706 180.64H297.245V190.633ZM308.282 192V179.273H312.582C313.581 179.273 314.397 179.453 315.031 179.813C315.669 180.17 316.141 180.652 316.448 181.261C316.754 181.87 316.908 182.55 316.908 183.3C316.908 184.05 316.754 184.731 316.448 185.344C316.145 185.957 315.677 186.446 315.043 186.811C314.409 187.171 313.597 187.352 312.607 187.352H309.525V185.984H312.557C313.241 185.984 313.79 185.866 314.204 185.63C314.619 185.394 314.919 185.075 315.105 184.673C315.296 184.267 315.391 183.809 315.391 183.3C315.391 182.79 315.296 182.334 315.105 181.933C314.919 181.531 314.616 181.216 314.198 180.988C313.78 180.756 313.224 180.64 312.533 180.64H309.823V192H308.282ZM319.39 192V179.273H323.691C324.685 179.273 325.501 179.443 326.139 179.782C326.777 180.118 327.249 180.58 327.556 181.168C327.863 181.756 328.016 182.426 328.016 183.175C328.016 183.925 327.863 184.59 327.556 185.17C327.249 185.75 326.779 186.206 326.145 186.537C325.511 186.865 324.702 187.028 323.715 187.028H320.235V185.636H323.666C324.345 185.636 324.892 185.537 325.306 185.338C325.725 185.139 326.027 184.857 326.214 184.493C326.404 184.124 326.5 183.685 326.5 183.175C326.5 182.666 326.404 182.22 326.214 181.839C326.023 181.458 325.719 181.164 325.3 180.957C324.882 180.746 324.329 180.64 323.641 180.64H320.931V192H319.39ZM325.381 186.283L328.513 192H326.723L323.641 186.283H325.381Z" fill="#7681F7"/>
<path d="M205.001 402.646C248.436 402.646 283.647 367.435 283.647 324C283.647 280.565 248.436 245.354 205.001 245.354C161.566 245.354 126.355 280.565 126.355 324C126.355 367.435 161.566 402.646 205.001 402.646Z" stroke="#7681F7" stroke-width="2.7084" stroke-miterlimit="10"/>
<path d="M174.7 278.746H195.562C195.583 279.173 195.62 279.57 195.62 279.968C195.624 285.099 195.638 290.23 195.608 295.36C195.603 296.174 195.784 296.76 196.449 297.303C197.909 298.493 199.317 299.752 200.679 301.055C201.035 301.395 201.321 301.993 201.331 302.479C201.39 305.496 201.48 308.521 201.327 311.531C201.178 314.476 203.617 316.199 206.012 316.2C209.596 316.201 213.18 316.165 216.763 316.233C217.401 316.245 218.162 316.535 218.645 316.953C222.496 320.281 226.295 323.671 230.109 327.043C230.278 327.193 230.451 327.341 230.6 327.51C231.657 328.703 232.708 329.9 233.878 331.231C233.145 331.972 232.183 332.849 231.347 333.834C230.975 334.272 230.737 334.91 230.655 335.488C230.539 336.302 230.624 337.144 230.626 337.974C230.629 339.507 230.667 339.55 232.231 339.831C232.602 341.381 232.543 341.439 230.964 341.596C226.013 342.089 221.061 342.578 216.115 343.126C215.196 343.228 214.69 343.013 214.508 342.091C214.436 341.724 214.213 341.385 214.16 341.019C213.874 339.058 212.339 338.135 210.954 337.08C210.448 336.694 209.88 336.357 209.47 335.885C208.65 334.94 207.828 334.107 206.46 334.509C205.797 332.824 205.665 332.702 203.871 332.751C203.047 332.773 202.562 332.496 201.985 331.868C201.506 331.346 200.552 331.163 199.774 331.037C198.928 330.901 198.044 331.002 197.176 331.002C194.965 331.002 193.882 329.941 193.922 327.721C193.939 326.758 193.998 325.877 192.65 325.86C192.442 325.857 192.181 325.627 192.04 325.433C190.233 322.933 188.333 320.53 185.804 318.689C185.483 318.456 185.295 317.924 185.236 317.503C185.212 317.338 185.684 317.023 185.981 316.908C187.286 316.401 186.874 315.278 186.805 314.387C186.78 314.067 186.095 313.663 185.645 313.538C184.612 313.251 183.855 312.745 183.696 311.642C183.551 310.639 183.42 309.622 183.428 308.612C183.435 307.865 183.207 307.394 182.542 307.095C181.618 306.681 181.23 305.984 180.972 304.963C180.707 303.915 180.01 302.934 179.345 302.04C178.449 300.834 177.936 299.581 178.148 298.066C178.335 296.728 177.979 295.569 177.081 294.525C176.446 293.786 175.945 292.93 175.393 292.12C174.293 290.509 174.252 288.966 175.506 287.492C176.909 285.844 176.542 284.05 176.107 282.279C175.824 281.124 175.231 280.046 174.7 278.746V278.746Z" fill="#7681F7"/>
<path d="M206.078 296.173C206.31 294.546 206.387 292.99 206.769 291.513C208.085 286.418 214.127 284.328 217.921 287.635C220.006 289.452 220.539 291.954 220.675 294.576C220.702 295.094 220.679 295.614 220.679 296.159C220.926 296.21 221.065 296.257 221.207 296.266C223.112 296.386 224.143 297.257 224.167 299.123C224.223 303.457 224.191 307.792 224.117 312.126C224.089 313.711 222.991 314.632 221.382 314.641C216.444 314.671 211.506 314.7 206.569 314.711C203.729 314.718 202.816 313.814 202.84 311C202.873 307.156 202.932 303.313 202.995 299.47C203.038 296.818 204.164 296.477 206.078 296.173H206.078ZM208.503 296.245C211.773 296.245 214.63 296.26 217.485 296.213C217.695 296.21 218.091 295.74 218.072 295.516C217.951 294.137 217.893 292.721 217.516 291.403C216.975 289.513 215.527 288.572 213.627 288.542C211.663 288.513 210.113 289.42 209.514 291.283C209.029 292.796 208.862 294.411 208.503 296.245ZM215.428 310.144C215.284 309.066 215.203 308.063 215.001 307.086C214.865 306.43 214.974 305.996 215.457 305.49C216.505 304.39 216.37 302.737 215.266 301.769C214.232 300.862 212.672 300.937 211.703 301.941C210.741 302.938 210.712 304.622 211.79 305.581C212.407 306.129 212.453 306.642 212.312 307.355C212.132 308.257 212.052 309.178 211.922 310.144L215.428 310.144Z" fill="#7681F7"/>
<path d="M245.344 368.928C243.395 368.928 241.548 368.961 239.704 368.896C239.391 368.884 238.939 368.507 238.816 368.195C238.488 367.358 238.252 366.475 238.079 365.591C237.953 364.942 237.631 364.716 237.013 364.726C235.166 364.753 233.319 364.789 231.473 364.762C230.814 364.753 230.515 365 230.391 365.616C230.272 366.205 230 366.774 229.951 367.365C229.838 368.735 229.111 369.051 227.842 368.956C226.306 368.84 224.755 368.928 223.043 368.928C223.176 368.435 223.268 368.019 223.398 367.616C225.551 360.95 227.712 354.287 229.858 347.619C230.049 347.028 230.281 346.664 231.019 346.683C233.13 346.735 235.243 346.674 237.353 346.73C237.695 346.74 238.234 347.054 238.332 347.345C240.685 354.381 242.991 361.432 245.302 368.481C245.336 368.583 245.324 368.698 245.344 368.928ZM234.225 350.653C233.43 353.834 232.688 356.805 231.938 359.803H236.584C235.8 356.763 235.042 353.82 234.225 350.653Z" fill="#7681F7"/>
<path d="M211.717 361.668V368.845H205.855V346.782C207.041 346.782 208.197 346.759 209.351 346.787C211.532 346.839 213.73 346.773 215.89 347.024C219.615 347.456 221.703 349.893 221.84 353.653C221.979 357.445 219.846 360.478 216.376 361.201C214.918 361.505 213.397 361.51 211.717 361.668H211.717ZM211.803 351.606V356.679C213.243 356.797 214.555 356.737 215.352 355.415C215.906 354.497 216.03 353.46 215.397 352.536C214.514 351.248 213.141 351.688 211.803 351.606Z" fill="#7681F7"/>
<path d="M180.487 352.536C179.014 352.131 177.696 351.635 176.334 351.422C173.76 351.019 172.001 352.172 171.252 354.663C170.608 356.805 170.604 358.989 171.225 361.14C171.873 363.385 173.689 364.601 176.18 364.302C177.844 364.102 179.472 363.609 181.27 363.214C181.27 364.622 181.292 366.108 181.245 367.593C181.238 367.807 180.939 368.12 180.708 368.203C177.306 369.427 173.858 369.69 170.427 368.385C167.915 367.429 166.279 365.57 165.463 363.012C164.451 359.836 164.373 356.627 165.358 353.442C166.449 349.914 168.85 347.661 172.432 346.811C175.774 346.018 179.007 346.537 182.236 348.028C181.639 349.567 181.059 351.061 180.486 352.536L180.487 352.536Z" fill="#7681F7"/>
<path d="M202.332 348.084C201.74 349.629 201.165 351.127 200.607 352.581C199.347 352.195 198.222 351.74 197.053 351.512C193.876 350.892 192.08 352.042 191.259 355.176C190.763 357.066 190.768 358.986 191.301 360.871C192.02 363.418 193.729 364.631 196.369 364.299C198.027 364.09 199.649 363.597 201.433 363.199C201.433 364.602 201.46 366.053 201.406 367.502C201.397 367.749 201.086 368.116 200.836 368.203C197.2 369.476 193.539 369.758 189.944 368.116C187.53 367.012 186.121 364.992 185.421 362.485C184.538 359.325 184.512 356.165 185.63 353.045C186.831 349.696 189.198 347.634 192.633 346.778C195.527 346.057 199.475 346.57 202.332 348.084Z" fill="#7681F7"/>
<path d="M192.25 336.162C193.701 334.405 195.374 334.451 197.214 335.247C197.277 336.321 196.94 337.062 195.711 337.26C194.903 337.39 194.122 337.681 193.234 337.927C192.9 337.327 192.576 336.747 192.25 336.162Z" fill="#7681F7"/>
<path d="M206.084 338.458C205.98 339.036 205.933 339.747 204.962 339.718C203.859 339.686 202.557 338.535 202.721 337.521C202.792 337.083 203.383 336.497 203.829 336.4C204.744 336.201 206.067 337.471 206.084 338.458Z" fill="#7681F7"/>
<path d="M202.664 342.453C202.802 342.249 202.941 341.826 203.219 341.694C203.497 341.561 203.996 341.6 204.252 341.776C204.773 342.135 205.264 342.586 205.633 343.096C205.852 343.399 206.008 344.109 205.851 344.247C205.484 344.569 204.856 344.89 204.432 344.791C203.373 344.544 202.936 343.625 202.664 342.453Z" fill="#7681F7"/>
<path d="M193.123 427.094H191.554C191.461 426.643 191.299 426.246 191.067 425.905C190.839 425.563 190.561 425.276 190.232 425.044C189.907 424.808 189.547 424.631 189.15 424.513C188.754 424.395 188.341 424.336 187.911 424.336C187.126 424.336 186.416 424.534 185.779 424.93C185.146 425.327 184.642 425.911 184.267 426.683C183.896 427.454 183.71 428.401 183.71 429.523C183.71 430.644 183.896 431.591 184.267 432.363C184.642 433.135 185.146 433.719 185.779 434.115C186.416 434.511 187.126 434.71 187.911 434.71C188.341 434.71 188.754 434.651 189.15 434.532C189.547 434.414 189.907 434.239 190.232 434.007C190.561 433.771 190.839 433.482 191.067 433.141C191.299 432.795 191.461 432.399 191.554 431.952H193.123C193.005 432.614 192.79 433.206 192.478 433.729C192.165 434.252 191.778 434.697 191.314 435.064C190.85 435.426 190.329 435.703 189.751 435.892C189.178 436.082 188.564 436.177 187.911 436.177C186.806 436.177 185.823 435.907 184.963 435.367C184.103 434.828 183.426 434.06 182.932 433.065C182.439 432.07 182.192 430.889 182.192 429.523C182.192 428.156 182.439 426.976 182.932 425.98C183.426 424.985 184.103 424.218 184.963 423.678C185.823 423.138 186.806 422.868 187.911 422.868C188.564 422.868 189.178 422.963 189.751 423.153C190.329 423.343 190.85 423.621 191.314 423.988C191.778 424.351 192.165 424.793 192.478 425.316C192.79 425.835 193.005 426.427 193.123 427.094ZM206.082 427.094H204.513C204.421 426.643 204.258 426.246 204.026 425.905C203.799 425.563 203.52 425.276 203.191 425.044C202.867 424.808 202.506 424.631 202.11 424.513C201.713 424.395 201.3 424.336 200.87 424.336C200.085 424.336 199.375 424.534 198.738 424.93C198.106 425.327 197.602 425.911 197.226 426.683C196.855 427.454 196.67 428.401 196.67 429.523C196.67 430.644 196.855 431.591 197.226 432.363C197.602 433.135 198.106 433.719 198.738 434.115C199.375 434.511 200.085 434.71 200.87 434.71C201.3 434.71 201.713 434.651 202.11 434.532C202.506 434.414 202.867 434.239 203.191 434.007C203.52 433.771 203.799 433.482 204.026 433.141C204.258 432.795 204.421 432.399 204.513 431.952H206.082C205.964 432.614 205.749 433.206 205.437 433.729C205.125 434.252 204.737 434.697 204.273 435.064C203.809 435.426 203.288 435.703 202.711 435.892C202.137 436.082 201.523 436.177 200.87 436.177C199.765 436.177 198.782 435.907 197.922 435.367C197.062 434.828 196.385 434.06 195.892 433.065C195.398 432.07 195.152 430.889 195.152 429.523C195.152 428.156 195.398 426.976 195.892 425.98C196.385 424.985 197.062 424.218 197.922 423.678C198.782 423.138 199.765 422.868 200.87 422.868C201.523 422.868 202.137 422.963 202.711 423.153C203.288 423.343 203.809 423.621 204.273 423.988C204.737 424.351 205.125 424.793 205.437 425.316C205.749 425.835 205.964 426.427 206.082 427.094ZM208.617 436V423.045H212.994C214.01 423.045 214.841 423.229 215.486 423.596C216.136 423.958 216.617 424.45 216.929 425.07C217.241 425.689 217.397 426.381 217.397 427.144C217.397 427.908 217.241 428.601 216.929 429.225C216.621 429.85 216.144 430.347 215.499 430.718C214.854 431.085 214.027 431.269 213.019 431.269H209.882V429.877H212.969C213.665 429.877 214.223 429.757 214.645 429.516C215.067 429.276 215.373 428.951 215.562 428.542C215.756 428.129 215.853 427.663 215.853 427.144C215.853 426.626 215.756 426.162 215.562 425.753C215.373 425.344 215.065 425.023 214.639 424.791C214.213 424.555 213.648 424.437 212.944 424.437H210.186V436H208.617ZM219.133 436H217.488L222.245 423.045H223.864L228.621 436H226.977L223.105 425.095H223.004L219.133 436ZM219.74 430.94H226.369V432.331H219.74V430.94Z" fill="#7681F7"/>
</svg>
