<svg width="52" height="52" viewBox="0 0 52 52" fill="none" xmlns="http://www.w3.org/2000/svg">
<g clip-path="url(#clip0_2569_1602)">
<path d="M26 6.5C25.569 6.5 25.1557 6.3288 24.851 6.02405C24.5462 5.7193 24.375 5.30598 24.375 4.875V1.625C24.375 1.19402 24.5462 0.780698 24.851 0.475951C25.1557 0.171205 25.569 0 26 0C26.431 0 26.8443 0.171205 27.149 0.475951C27.4538 0.780698 27.625 1.19402 27.625 1.625V4.875C27.625 5.30598 27.4538 5.7193 27.149 6.02405C26.8443 6.3288 26.431 6.5 26 6.5Z" fill="#2B354E"/>
<path d="M16.4623 8.77643C16.1615 8.77671 15.8665 8.69357 15.6102 8.53625C15.3538 8.37892 15.1461 8.15358 15.0102 7.88528L13.5423 4.9853C13.3477 4.60063 13.3138 4.1544 13.4482 3.74476C13.5825 3.33511 13.8741 2.99563 14.2588 2.80098C14.6434 2.60633 15.0897 2.57246 15.4993 2.70682C15.909 2.84118 16.2484 3.13277 16.4431 3.51744L17.9111 6.41741C18.0361 6.66513 18.0957 6.9407 18.0841 7.21793C18.0726 7.49516 17.9902 7.76482 17.845 8.00125C17.6998 8.23769 17.4965 8.43304 17.2545 8.56872C17.0125 8.70441 16.7397 8.77591 16.4623 8.77643Z" fill="#2B354E"/>
<path d="M35.5373 8.77643C35.2599 8.77591 34.9871 8.70441 34.7451 8.56872C34.5031 8.43304 34.2998 8.23769 34.1546 8.00125C34.0094 7.76482 33.927 7.49516 33.9155 7.21793C33.9039 6.9407 33.9635 6.66513 34.0885 6.41741L35.5565 3.51744C35.7511 3.13277 36.0906 2.84118 36.5003 2.70682C36.9099 2.57246 37.3562 2.60633 37.7408 2.80098C38.1255 2.99563 38.4171 3.33511 38.5514 3.74475C38.6858 4.1544 38.6519 4.60063 38.4573 4.9853L36.9894 7.88528C36.8535 8.15358 36.6458 8.37892 36.3894 8.53625C36.1331 8.69357 35.8381 8.77671 35.5373 8.77643Z" fill="#2B354E"/>
<path d="M26 52C25.569 52 25.1557 51.8288 24.851 51.524C24.5462 51.2193 24.375 50.806 24.375 50.375V47.125C24.375 46.694 24.5462 46.2807 24.851 45.976C25.1557 45.6712 25.569 45.5 26 45.5C26.431 45.5 26.8443 45.6712 27.149 45.976C27.4538 46.2807 27.625 46.694 27.625 47.125V50.375C27.625 50.806 27.4538 51.2193 27.149 51.524C26.8443 51.8288 26.431 52 26 52Z" fill="#2B354E"/>
<path d="M14.9904 49.3737C14.713 49.3731 14.4403 49.3016 14.1982 49.166C13.9562 49.0303 13.7529 48.8349 13.6077 48.5985C13.4625 48.3621 13.3802 48.0924 13.3686 47.8152C13.357 47.5379 13.4166 47.2624 13.5416 47.0147L15.0095 44.1147C15.1058 43.9242 15.2388 43.7546 15.4007 43.6155C15.5627 43.4764 15.7504 43.3705 15.9533 43.304C16.1561 43.2375 16.3701 43.2115 16.5829 43.2277C16.7958 43.2438 17.0034 43.3018 17.1939 43.3981C17.3843 43.4945 17.554 43.6275 17.6931 43.7894C17.8322 43.9513 17.938 44.1391 18.0045 44.3419C18.0711 44.5448 18.097 44.7587 18.0809 44.9716C18.0647 45.1845 18.0068 45.3921 17.9104 45.5825L16.4424 48.4825C16.3065 48.7508 16.0988 48.9761 15.8425 49.1335C15.5861 49.2908 15.2912 49.3739 14.9904 49.3737Z" fill="#2B354E"/>
<path d="M37.0091 49.3737C36.7084 49.3739 36.4134 49.2908 36.1571 49.1335C35.9008 48.9761 35.6931 48.7508 35.5572 48.4825L34.0892 45.5825C33.8945 45.1979 33.8607 44.7516 33.995 44.3419C34.1294 43.9323 34.421 43.5928 34.8057 43.3981C35.1904 43.2035 35.6367 43.1696 36.0463 43.304C36.456 43.4384 36.7955 43.73 36.9901 44.1147L38.458 47.0147C38.583 47.2624 38.6426 47.5379 38.631 47.8152C38.6194 48.0924 38.5371 48.3621 38.3919 48.5985C38.2467 48.8349 38.0434 49.0303 37.8014 49.166C37.5593 49.3016 37.2866 49.3731 37.0091 49.3737Z" fill="#2B354E"/>
<path d="M1.625 9.75C1.19402 9.75 0.780698 9.57879 0.475951 9.27405C0.171205 8.9693 0 8.55598 0 8.125V1.625C0 1.19402 0.171205 0.780698 0.475951 0.475951C0.780698 0.171205 1.19402 0 1.625 0L8.125 0C8.55598 0 8.9693 0.171205 9.27405 0.475951C9.57879 0.780698 9.75 1.19402 9.75 1.625C9.75 2.05598 9.57879 2.4693 9.27405 2.77405C8.9693 3.0788 8.55598 3.25 8.125 3.25H3.25V8.125C3.25 8.55598 3.0788 8.9693 2.77405 9.27405C2.4693 9.57879 2.05598 9.75 1.625 9.75Z" fill="#2B354E"/>
<path d="M50.375 9.75C49.944 9.75 49.5307 9.57879 49.226 9.27405C48.9212 8.9693 48.75 8.55598 48.75 8.125V3.25H43.875C43.444 3.25 43.0307 3.0788 42.726 2.77405C42.4212 2.4693 42.25 2.05598 42.25 1.625C42.25 1.19402 42.4212 0.780698 42.726 0.475951C43.0307 0.171205 43.444 0 43.875 0L50.375 0C50.806 0 51.2193 0.171205 51.524 0.475951C51.8288 0.780698 52 1.19402 52 1.625V8.125C52 8.55598 51.8288 8.9693 51.524 9.27405C51.2193 9.57879 50.806 9.75 50.375 9.75Z" fill="#2B354E"/>
<path d="M8.125 52H1.625C1.19402 52 0.780698 51.8288 0.475951 51.524C0.171205 51.2193 0 50.806 0 50.375V43.875C0 43.444 0.171205 43.0307 0.475951 42.726C0.780698 42.4212 1.19402 42.25 1.625 42.25C2.05598 42.25 2.4693 42.4212 2.77405 42.726C3.0788 43.0307 3.25 43.444 3.25 43.875V48.75H8.125C8.55598 48.75 8.9693 48.9212 9.27405 49.226C9.57879 49.5307 9.75 49.944 9.75 50.375C9.75 50.806 9.57879 51.2193 9.27405 51.524C8.9693 51.8288 8.55598 52 8.125 52Z" fill="#2B354E"/>
<path d="M50.375 52H43.875C43.444 52 43.0307 51.8288 42.726 51.524C42.4212 51.2193 42.25 50.806 42.25 50.375C42.25 49.944 42.4212 49.5307 42.726 49.226C43.0307 48.9212 43.444 48.75 43.875 48.75H48.75V43.875C48.75 43.444 48.9212 43.0307 49.226 42.726C49.5307 42.4212 49.944 42.25 50.375 42.25C50.806 42.25 51.2193 42.4212 51.524 42.726C51.8288 43.0307 52 43.444 52 43.875V50.375C52 50.806 51.8288 51.2193 51.524 51.524C51.2193 51.8288 50.806 52 50.375 52Z" fill="#2B354E"/>
<path d="M26.0016 15.6C23.9446 15.6 21.9339 16.2099 20.2236 17.3527C18.5134 18.4955 17.1804 20.1197 16.3932 22.0201C15.6061 23.9204 15.4001 26.0115 15.8014 28.0289C16.2027 30.0463 17.1932 31.8994 18.6477 33.3539C20.1021 34.8084 21.9552 35.7989 23.9726 36.2001C25.99 36.6014 28.0811 36.3955 29.9815 35.6083C31.8818 34.8212 33.5061 33.4882 34.6489 31.7779C35.7916 30.0676 36.4016 28.0569 36.4016 26C36.3984 23.2427 35.3017 20.5992 33.352 18.6495C31.4023 16.6998 28.7589 15.6031 26.0016 15.6ZM26.0016 33.8C23.9329 33.8 21.9489 32.9782 20.4861 31.5154C19.0234 30.0526 18.2016 28.0687 18.2016 26C18.2016 23.9313 19.0234 21.9473 20.4861 20.4845C21.9489 19.0218 23.9329 18.2 26.0016 18.2C26.1915 18.1971 26.3814 18.2053 26.5703 18.2247C26.7856 18.249 26.9913 18.3267 27.1689 18.4508C27.3464 18.5749 27.4902 18.7413 27.587 18.9351C27.6839 19.1288 27.7308 19.3437 27.7235 19.5602C27.7163 19.7767 27.655 19.9879 27.5453 20.1747C27.3808 20.464 27.2966 20.7921 27.3016 21.125C27.3005 21.5314 27.4268 21.9279 27.6626 22.2588C27.8985 22.5897 28.2321 22.8385 28.6166 22.97C29.0011 23.1016 29.4171 23.1095 29.8063 22.9925C30.1955 22.8755 30.5382 22.6395 30.7864 22.3177C30.9204 22.1426 31.0967 22.0044 31.2988 21.9162C31.5009 21.828 31.7221 21.7926 31.9416 21.8135C32.1611 21.8343 32.3717 21.9106 32.5536 22.0352C32.7355 22.1598 32.8828 22.3287 32.9814 22.5259C33.5235 23.6036 33.8044 24.7937 33.8016 26C33.7993 28.068 32.9768 30.0506 31.5145 31.5129C30.0522 32.9752 28.0696 33.7977 26.0016 33.8Z" fill="#2B354E"/>
<path d="M29.2507 25.6749C28.0444 25.6735 26.8879 25.1937 26.0349 24.3407C25.1819 23.4877 24.7021 22.3312 24.7007 21.1249C24.7007 21.071 24.702 21.017 24.7031 20.9637C23.7305 21.2144 22.8513 21.7413 22.1718 22.4809C21.4922 23.2205 21.0414 24.1411 20.8737 25.1313C20.7061 26.1216 20.8288 27.1393 21.2271 28.0613C21.6254 28.9834 22.2822 29.7703 23.1182 30.3271C23.9541 30.8839 24.9334 31.1867 25.9377 31.1988C26.942 31.211 27.9283 30.9321 28.7775 30.3958C29.6267 29.8594 30.3024 29.0887 30.723 28.1766C31.1435 27.2645 31.291 26.2501 31.1474 25.256C30.5529 25.531 29.9058 25.674 29.2507 25.6749Z" fill="#2B354E"/>
<path d="M51.6783 25.0281C51.2116 24.4044 40.1144 9.75 26.0004 9.75C11.8865 9.75 0.789189 24.4044 0.322489 25.0281C0.113109 25.3089 0 25.6497 0 26C0 26.3503 0.113109 26.6911 0.322489 26.9719C0.789189 27.5956 11.8865 42.25 26.0004 42.25C40.1144 42.25 51.2116 27.5956 51.6783 26.9719C51.8877 26.6911 52.0008 26.3503 52.0008 26C52.0008 25.6497 51.8877 25.3089 51.6783 25.0281ZM26.0004 39C23.4293 39 20.9158 38.2376 18.778 36.8091C16.6402 35.3806 14.9739 33.3503 13.99 30.9749C13.006 28.5994 12.7486 25.9856 13.2502 23.4638C13.7518 20.9421 14.9899 18.6257 16.808 16.8076C18.6261 14.9895 20.9425 13.7514 23.4642 13.2498C25.986 12.7482 28.5999 13.0056 30.9753 13.9896C33.3507 14.9735 35.3811 16.6397 36.8095 18.7776C38.238 20.9154 39.0004 23.4288 39.0004 26C38.9965 29.4466 37.6255 32.7509 35.1884 35.188C32.7513 37.6251 29.447 38.996 26.0004 39Z" fill="#2B354E"/>
</g>
<defs>
<clipPath id="clip0_2569_1602">
<rect width="52" height="52" fill="white"/>
</clipPath>
</defs>
</svg>
