<svg width="32" height="32" viewBox="0 0 32 32" fill="none" xmlns="http://www.w3.org/2000/svg">
<rect width="32" height="32" rx="16" fill="#FFC727"/>
<g clip-path="url(#clip0_2450_6067)">
<path d="M24.8904 24.7656L19.6813 20.4285C19.5426 20.313 19.3367 20.3318 19.221 20.4704C19.1057 20.6091 19.1245 20.8152 19.2632 20.9307L24.4725 25.2678C24.5336 25.3187 24.6076 25.3433 24.6813 25.3433C24.7749 25.3433 24.8679 25.3034 24.9325 25.2257C25.048 25.087 25.0292 24.8811 24.8904 24.7656Z" fill="black"/>
<path d="M12.3162 20.4285L7.10692 24.7656C6.96828 24.8809 6.94948 25.087 7.06479 25.2257C7.12941 25.3034 7.2224 25.3433 7.31606 25.3433C7.38974 25.3433 7.46393 25.3187 7.52503 25.2678L12.7343 20.9307C12.873 20.8152 12.8918 20.6092 12.7763 20.4704C12.6608 20.3318 12.4548 20.313 12.3162 20.4285Z" fill="black"/>
<path d="M26.88 12.8L24.5796 10.8847V8.78799C24.5796 7.30121 23.3701 6.09171 21.8833 6.09171H18.823L18.676 5.96918C17.1251 4.67727 14.8734 4.67727 13.322 5.96918L13.175 6.09171H10.115C8.62783 6.09171 7.41816 7.30121 7.41816 8.78799V10.8847L5.1237 12.7952C5.04834 12.8549 5 12.9474 5 13.0511V24.6243C5 25.9344 6.06583 27.0002 7.37587 27.0002H24.6216C25.9316 27.0002 26.9975 25.9344 26.9975 24.6243V13.0609C27.0005 12.9623 26.9585 12.8655 26.88 12.8ZM26.1604 13.0511L24.5796 14.3672V11.735L26.1604 13.0511ZM17.7011 6.09171H14.2969C15.355 5.50844 16.6435 5.50844 17.7011 6.09171ZM7.41816 14.3674L5.83739 13.0511L7.41816 11.735V14.3674ZM24.6216 26.3468H7.37587C6.42602 26.3468 5.65343 25.5742 5.65343 24.6243V13.7482L10.5462 17.822C10.6072 17.8729 10.6813 17.8977 10.755 17.8977C10.8486 17.8977 10.9416 17.8577 11.0062 17.78C11.1217 17.6414 11.1029 17.4354 10.9643 17.32L9.81367 16.3619V9.18411C9.81367 8.79991 10.1264 8.48755 10.5107 8.48755H18.0303C18.2107 8.48755 18.3571 8.34119 18.3571 8.16092C18.3571 7.98048 18.2107 7.83412 18.0303 7.83412H10.5107C9.76617 7.83412 9.16041 8.43971 9.16041 9.18411V15.8181L8.07159 14.9114V11.0365C8.07159 11.0363 8.07159 11.0363 8.07159 11.0361V8.78799C8.07159 7.66158 8.9882 6.74513 10.115 6.74513H21.8833C23.0098 6.74513 23.9262 7.66158 23.9262 8.78799V11.0361V11.0365V14.9112L22.837 15.8181V9.18411C22.837 8.43971 22.2315 7.83412 21.4867 7.83412H19.3371C19.1567 7.83412 19.0105 7.98048 19.0105 8.16092C19.0105 8.34119 19.1567 8.48755 19.3371 8.48755H21.4867C21.8711 8.48755 22.1838 8.79991 22.1838 9.18411V16.3621L18.2574 19.6312C16.9488 20.7212 15.049 20.7212 13.7398 19.631L12.0237 18.2023C11.8852 18.0869 11.6791 18.1055 11.5636 18.2443C11.4482 18.3829 11.467 18.5889 11.6058 18.7044L13.3217 20.1332C14.0974 20.7793 15.048 21.1022 15.9988 21.1022C16.9493 21.1022 17.9002 20.7791 18.6755 20.1332L26.344 13.7484V24.6243C26.344 25.5742 25.5714 26.3468 24.6216 26.3468Z" fill="black"/>
<path d="M13.2235 15.9052H18.7746C19.9634 15.9052 20.9305 14.938 20.9305 13.7492C20.9305 12.5601 19.9634 11.593 18.7746 11.593C17.5857 11.593 16.6184 12.5601 16.6184 13.7492C16.6184 14.3331 16.852 14.8632 17.2305 15.2517H14.7676C15.1459 14.8632 15.3797 14.3331 15.3797 13.7492C15.3797 12.5601 14.4124 11.593 13.2235 11.593C12.0347 11.593 11.0674 12.5601 11.0674 13.7492C11.0674 14.938 12.0347 15.9052 13.2235 15.9052ZM17.2718 13.7492C17.2718 12.9205 17.9459 12.2464 18.7746 12.2464C19.603 12.2464 20.2771 12.9205 20.2771 13.7492C20.2771 14.5777 19.603 15.2519 18.7746 15.2519C17.9459 15.2519 17.2718 14.5777 17.2718 13.7492ZM13.2235 12.2464C14.052 12.2464 14.7263 12.9205 14.7263 13.7492C14.7263 14.5777 14.052 15.2519 13.2235 15.2519C12.3949 15.2519 11.7208 14.5777 11.7208 13.7492C11.7208 12.9205 12.3949 12.2464 13.2235 12.2464Z" fill="black"/>
</g>
<defs>
<clipPath id="clip0_2450_6067">
<rect width="22" height="22" fill="white" transform="translate(5 5)"/>
</clipPath>
</defs>
</svg>
