<svg xmlns="http://www.w3.org/2000/svg" fill="none" viewBox="0 0 596 593"><path fill="#C7C7C7" d="M73.8 0h-1.3v177.5h1.3V0Z"/><path fill="#EBEBEB" d="m134.8 237-5 10.8H16.4l-5-10.9 48.3-33.4h26.8l48.3 33.4Z"/><path fill="#DBDBDB" d="m89.8 171.3-3.3 32.2H59.7l-3.3-32.2h33.4Zm45 65.7-5 10.8H16.4l-5-10.9h123.4Z"/><path fill="#C7C7C7" d="M206.1 0h-1.3v142.4h1.3V0Z"/><path fill="#EBEBEB" d="m267.1 201.8-5 10.9H148.9l-5-11 48.3-33.3h26.7l48.3 33.4Z"/><path fill="#DBDBDB" d="m222.2 136.2-3.4 32.2h-26.7l-3.4-32.2h33.5Zm44.9 65.6-5 10.9H148.8l-5-11h123.3Z"/><path fill="#EBEBEB" d="m34 292.5-13 20.9 6.5 3.9a5.8 5.8 0 0 1 2.6 5.5l-.1 3.6a5.9 5.9 0 0 1-3 5.3l-6.6 3.6L32 356.9l6.6-3.5a5.8 5.8 0 0 1 6 .3 35 35 0 0 0 3.3 2 5.7 5.7 0 0 1 3 5.3l-.3 7.5 24.5.8.3-7.6a5.8 5.8 0 0 1 3.3-5A41.7 41.7 0 0 0 82 355a5.7 5.7 0 0 1 6 0l6.5 4 12.9-20.9-6.4-4a5.8 5.8 0 0 1-2.6-5.5V325a5.9 5.9 0 0 1 3.1-5.3l6.6-3.6-11.6-21.6-6.6 3.6a5.8 5.8 0 0 1-6.2-.5l-3-1.8a5.8 5.8 0 0 1-3.1-5.3l.3-7.5-24.5-.8-.3 7.6a5.8 5.8 0 0 1-3.4 5 27 27 0 0 0-3.2 1.7 5.8 5.8 0 0 1-6 0l-6.5-3.9Zm18.5 16.9A20.1 20.1 0 1 1 76 342.1a20.1 20.1 0 0 1-23.5-32.7ZM571.7 89a3.4 3.4 0 0 1-1.7-3v-2.2a3.4 3.4 0 0 1 1.7-3.1l3.8-2.2-7.2-12.6-3.9 2.3a3.4 3.4 0 0 1-3.6-.1L559 67a3.4 3.4 0 0 1-2-3v-4.5h-14.3v4.4a3.4 3.4 0 0 1-2 3l-1.8 1a3.4 3.4 0 0 1-3.6.2l-3.9-2.2-7.2 12.5 3.9 2.2a3.4 3.4 0 0 1 1.7 3.2v2.1a3.4 3.4 0 0 1-1.7 3.3l-3.9 2.2 7.2 12.5 3.9-2.2a3.4 3.4 0 0 1 3.6 0l1.8 1.2a3.4 3.4 0 0 1 2 3v4.4H557v-4.4a3.4 3.4 0 0 1 2-3l1.8-1.1a3.4 3.4 0 0 1 3.6-.1l3.8 2.2 7.2-12.5-3.7-2.2Zm-21.8 7.7a11.8 11.8 0 1 1 4.5-1c-1.5.6-3 1-4.6 1ZM246.7 417.6a3.4 3.4 0 0 1-1.7-2.9V413l.1-1.8a3 3 0 0 1 1-1.5c.4-.4.8-.8 1.4-1l3-1.8-7.3-12.4h.2l-4 2.3c-.7.4-1.6.5-2.4.3-.7-.2-1.5-.5-2.1-1l-1-.6a3.7 3.7 0 0 1-2-3V388l.3.3-14.4.2.5-.5v4.7a4 4 0 0 1-2.1 3.2l-1 .6-1 .6-1.2.5a4 4 0 0 1-2.6-.3l-4-2.3.7-.2-7.2 12.5-.2-.9 4 2.4a4.1 4.1 0 0 1 1.8 3.5v2.3l-.1 1.3a4 4 0 0 1-1.6 2.2l-4.1 2.3.2-.8 7.2 12.5-.8-.2 4.1-2.3a4 4 0 0 1 3.8.2l1 .6 1 .6 1 .8c.6.7 1 1.5 1 2.4v4.6l-.3-.3 14.4.1-.2.2v-4.6c0-.8.4-1.6 1-2.2a9 9 0 0 1 1.9-1.3c.6-.4 1.4-.8 2.1-1a3 3 0 0 1 2.3.3l4 2.3 7.2-12.5-3.9-2Zm0 0 3.9 2.2-7.2 12.6-4-2.3c-.7-.3-1.5-.4-2.2-.2-.8.2-1.5.6-2.1 1l-2 1.3a5 5 0 0 0-.8 2v4.9h-.2l-14.4.1h-.3v-5a3 3 0 0 0-1.6-2.5l-1-.6-1-.5a3 3 0 0 0-3-.2l-3.9 2.4-.5.3-.2-.5-7.3-12.5-.3-.5.5-.3 4-2.3c.5-.4.9-1 1-1.5l.2-1v-2.3c0-.3 0-.7-.2-1-.2-.6-.5-1-1-1.4l-4-2.4-.6-.3.4-.5L206 394l.3-.5.5.3 4 2.3a2.8 2.8 0 0 0 2.7-.1l1-.6 1.1-.6c.3-.1.6-.3.8-.6.4-.5.7-1.1.8-1.8v-5h.4l14.4.1h.3v5c0 .8.4 1.4.9 2a8 8 0 0 0 1.8 1.3c.6.4 1.3.8 2 1 .7.2 1.5.1 2.2-.2l4-2.3h.1l7.2 12.6-3 1.7c-.6.3-1.1.6-1.5 1-.5.4-.8 1-.9 1.5-.1.6-.2 1.2-.1 1.8v1.7a3.4 3.4 0 0 0 1.6 3Zm-21.7 7.6Zm0 0Z"/><path fill="#263238" d="m10.8 573.4 71.8-.3 71.7-.2 143.6-.2 143.6.2 71.8.2 71.8.3-71.8.3-71.8.1-143.6.2-143.6-.2H82.6l-71.8-.4Z"/><path fill="#EBEBEB" d="M573.4 117.9H356.2v219.5h217.2V117.9Z"/><path fill="#263238" d="M456 104.7c7.3-8.5 19.7-10.6 31.7-8.2 12 2.5 26.3 8.5 27.7 28.6 1 16.3-4 32.2-4 50.3 0 18.2 20.6 62.5-12.3 84.1-29.6 19.4-89.6 1.6-91.4-38.4-1.5-31.6 36.1-61 40-73.5 4-12.5.4-33.6 8.3-43Z"/><path fill="#263238" d="M450.6 122.5a70.6 70.6 0 0 1-5.2 26.8c-1 2.2-2.2 4.2-3.7 6-1.5 1.9-3 3.6-4.6 5.3-3.1 3.4-6.2 6.7-9.2 10.2a93.4 93.4 0 0 0-14.4 22.8 71.6 71.6 0 0 0-5.8 26.2 61.8 61.8 0 0 1 4-27 83 83 0 0 1 14.2-23.6c3-3.5 6.1-7 9.3-10.3 3.1-3.3 6.3-6.5 8.3-10.5a100.8 100.8 0 0 0 7.1-25.9Zm63.9 16.3c-.2 9.2-.8 18.4-.5 27.6 0 4.6.5 9.2 1.1 13.7.7 4.4 2 8.9 3.2 13.4 1 4.5 2 9 2.8 13.7.7 4.6 1 9.3.9 14a35.1 35.1 0 0 1-10.3 25.5 37 37 0 0 0 8.3-25.6c-.4-9.1-1.8-18.2-4.3-27-1-4.5-2.3-9-3-13.7-.6-4.6-.8-9.3-.7-14a232 232 0 0 1 2.5-27.6Z"/><path fill="#EB9481" d="M466.9 216.5c-30.1 33.2-54.7 49.1-79 49.1-23 0-72.2-56-75.8-63.3-3.1-6.4 37.3-41.2 43.5-36.9 10.5 7.3 44 49.3 47.6 49.5 3.6.2 16.7-8.5 48.3-23.3 19.2-9 36.4 2 15.4 25Z"/><path fill="#EB9481" d="M316.8 207.8c-4.5-4.8-23-28.7-26.7-36.5-3.7-7.8-12.6-31-7-34.5 5.8-3.4 9 3.2 9 3.2s-2.3-10.4 3.7-13.3c6.1-3 10.7 7.5 10.7 7.5s-1.5-10.9 4.7-13.4 9 8.8 9 8.8-1.7-9.9 4.3-9.7c7.2.1 8.5 18.7 13.2 27 1 1.9 24.3 36.7 24.3 36.7l-45.2 24.2Z"/><path fill="#263238" d="M320 128.6a48 48 0 0 0 11.8 30.3c.2.2 0 .5-.3.3-8.8-9.9-13.3-16.7-12.2-30.5.1-.7.7-.7.7 0Zm-13.6 4.4a72.3 72.3 0 0 0 12.8 32.4c.1.2-.1.4-.2.3-8.4-11.2-12.8-18-13.3-32.4 0-.6.6-.9.7-.2Zm-14 7.6a64.6 64.6 0 0 0 15 31.2c.2.3-.1.6-.3.3a46 46 0 0 1-15-31.4c-.1-.8.1-1 .3-.1Z"/><path fill="#EB9481" d="M372.4 186.9s-.3-17.2-2-24.7c-1.9-7.5-18.8-33-24.5-29.6-7.4 4.3-.5 21 3.9 28.7 0 0-17 10-14.7 23 2.3 13 37.3 2.6 37.3 2.6Z"/><path fill="#263238" d="M344.2 134.4c-4 8.8 2.6 18.6 6.4 26.4a.8.8 0 0 1-.6 1.2c-6.9 4.6-15.2 13.2-15.3 22l-.1.1a.2.2 0 0 1-.3-.1c-1.2-9.4 6.3-18.6 14.2-23.2-4-8-10-18-4.4-26.4h.1Z"/><path fill="#FFC727" d="m415 205.3 24.2 45.1s32.8-31.8 38-45.1c5.3-13.3-.4-23-23.7-15.9-13.4 4-26.3 9.3-38.6 15.9Z"/><path fill="#263238" d="m444.7 241-3.4-7.4-3.8-7.2c-2.6-4.9-5.3-9.7-8-14.4a173.5 173.5 0 0 0-5-7.8c4.4 10 9.8 19.4 15.1 29l5 8s.2-.1.1-.2Z"/><path fill="#263238" d="M477.2 205.3c-5.2 13.3-38 45.1-38 45.1L422.8 220l53.8-29.7c3.1 3.2 3 8.7.6 15Z"/><path fill="#FFC727" d="M420.5 281.3s-13.3 31.8-8.6 56h146.7c-4.8-65.8-37.6-122.4-57-140.7-15.7-14.8-32.1-13.5-43.6-6a530 530 0 0 0-35.7 49.5c-12.8 25.7-1.8 41.2-1.8 41.2Z"/><path fill="#EB9481" d="M459 188.7s-9.1 26.4-3.8 27.8c13.2 3.4 31-18.2 32-20.4a668.5 668.5 0 0 0 3.3-40.2L458 167l1 20.2.1 1.4Z"/><path fill="#263238" d="m457.8 167 1 20.3c6.7-1 21.3-4.5 30.7-18l1-13.4-4.1 1.3-28.6 9.9Z"/><path fill="#EB9481" d="M433.5 138.7c-.4 10.3.7 18.6 3.2 24.1a28 28 0 0 0 24.3 16.5c4 .1 15.3-1 23.4-7.2 6.4-4.8 10.2-13.5 12.4-28.9 5-35.1-11-47-27-48.4-15.7-1.4-35 8.5-36.3 44Z"/><path fill="#263238" d="m442.6 130.9 2.4-.5c.9-.1 1.7-.5 2.3-1a1.3 1.3 0 0 0 0-1.6 3.1 3.1 0 0 0-3-.7 5 5 0 0 0-3 1.7 1.3 1.3 0 0 0 1.3 2Zm23.2.9-2.4-.6a4 4 0 0 1-2.4-1 1.3 1.3 0 0 1 0-1.6 3.1 3.1 0 0 1 3.1-.6 5 5 0 0 1 3 1.7 1.3 1.3 0 0 1-1.3 2Zm-5.8 8.8.1.2c-.1 2.4 0 5.3 2.2 6.1v.2c-2.7-.5-2.9-4.2-2.3-6.5Z"/><path fill="#263238" d="M462.2 138.2c4-.1 3.9 7.7.3 7.8-3.7.1-3.5-7.7-.3-7.8Z"/><path fill="#263238" d="M463.8 138.6c.6.5 1.3 1.3 2.1 1.3.9.1 1.7-.7 2.3-1.5l.2.1c0 1.5-.6 3-2.2 3.3-1.6.2-2.5-1.2-2.9-2.6 0-.4.2-.8.5-.6Zm-16.8 1-.1.2c0 2.4-.3 5.2-2.5 6v.1c2.7-.3 3.1-4 2.7-6.3Z"/><path fill="#263238" d="M445 137c-4-.2-4.3 7.6-.7 7.8 3.6.3 3.9-7.5.6-7.7Z"/><path fill="#263238" d="M443.3 137.5c-.6.4-1.3 1.1-2 1.2-.7 0-1.4-.9-2-1.7 0-.1 0 0 0 0-.2 1.6.2 3.1 1.7 3.5 1.4.3 2.3-1 2.7-2.4 0-.3-.2-.7-.4-.6Zm16.4 21.9c-.5.6-1 1.4-2 1.5a6.7 6.7 0 0 1-2.6-.6l-.1.1a3.3 3.3 0 0 0 3.1 1.3 2.6 2.6 0 0 0 1.9-2.2.1.1 0 0 0-.2-.2Zm-9.8-9s-.6 3.6-.6 5.3c0 .2.4.3 1 .3a8 8 0 0 0 7.9-2.8c0-.2-.1-.4-.3-.3a12.3 12.3 0 0 1-7.4 2c-.1-.5 1.2-6.1 1-6.2-1.4.1-2.8.4-4 .8 1-7.5 3.1-14.8 4-22.3 0-.3-.4-.4-.4-.1-2.9 7.5-4.2 16.1-5.4 23.9-.1 1 3.4-.3 4.2-.6Z"/><path fill="#263238" d="M451.3 155.1a9 9 0 0 0 3.4 3 4 4 0 0 0 2.4.4c1.8-.3 2-2 1.8-3.3l-.7-2.2c-2 1.4-4.4 2.2-6.9 2.1Z"/><path fill="#FF98B9" d="M454.7 158.2a4 4 0 0 0 2.4.3c1.8-.3 2-2 1.8-3.3a4.1 4.1 0 0 0-4.2 3Z"/><path fill="#263238" d="M496.2 140c-3.9.2-14.8-9.5-16.8-28 0 0 3 16.5 4.4 18.8 1.4 2.3-6.2-5.4-8-20.3 0 0-7.7 6.7-14.6 9.3-6.9 2.7-11.2 3-11.8 2.5-.6-.4 9.6-4.7 12-8.2 0 0-18 10.5-26.5 12-1 .1.7-15.4 13.3-25.3 12.6-10 29.9-7.5 36-2.5 0 0 6.8.3 15 9.6 8.2 9.2 1.1 32-3 32.1Z"/><path fill="#EB9481" d="M491 145.7s7.3-11.4 12.4-9c5.2 2.6.2 19-5.6 21.4a6 6 0 0 1-8.2-2.8l1.5-9.6Z"/><path fill="#263238" d="M501.9 141.5v.1c-4 1.9-6 5.8-7.4 9.9 1.2-1.6 2.8-2.5 5-1.2 0 0 0 .3-.2.2a3.7 3.7 0 0 0-4 1.5l-1.7 3.4c-.2.4-.9.2-.7-.2v-.1c-.4-5.3 3.3-12.9 9-13.6Z"/><path fill="#EB9481" d="M513 203.8c14.4 16.7 55.1 77.4 45.7 93.7-9 15.8-29.6 20.2-41.4-1-8.5-15-22.8-60-26.3-81.7-3-17.5 8.5-26.5 22-11Z"/><path fill="#FFC727" d="m499.4 257.5 48-17.7s-27-37-39.4-44c-12.4-7-22.7-2.8-19 21.3a203 203 0 0 0 10.4 40.4Z"/><path fill="#263238" d="m539 233-8 2.3-7.6 2.8a593.9 593.9 0 0 0-23.9 9.6c-.1 0 0 .3 0 .2 10.5-3 20.7-7 30.8-11 3-1.2 5.7-2.6 8.6-3.8.2 0 .1-.2 0-.2Zm-37 23.3-2.7.9c-1.3-2.8-4.4-15.3-5.1-18.6-1.5-6.3-2.7-12.8-4.2-19.2 0-.2-.3-.1-.3 0l1.6 10.6a65.3 65.3 0 0 1 .2 1.2c.6 6.5 6.5 27.3 6.7 27.3a39.2 39.2 0 0 0 3.9-2.2Z"/><path fill="#A6A6A6" d="m478.3 133-13.7 58.5c-.6 1.7.3 3 2 3l26.1 5.3a4.8 4.8 0 0 0 4.1-3.1l13.7-58.4c.6-1.8-.3-3.1-2-3.1l-26-5.3a4.8 4.8 0 0 0-4.2 3.1Z"/><path fill="#DBDBDB" d="M480.5 133.4 467 191.8c-.6 1.7.3 3 2 3l26 5.4a4.8 4.8 0 0 0 4.2-3.2l13.6-58.4c.6-1.7-.3-3.1-2-3l-26-5.4a4.9 4.9 0 0 0-4.2 3.2Z"/><path fill="#263238" d="M488.8 135.9a2.6 2.6 0 1 1-2.5-2.6 2.6 2.6 0 0 1 2.5 2.6Z"/><path fill="#EB9481" d="M524.3 301.9c8.5 15.7 31 6.7 34.4-4.4 8-26 3-69.2-1.7-93.3-1.6-7.8-54.3 0-54 8.4.4 10.1 4.6 58.4 21.3 89.3Z"/><path fill="#EB9481" d="M556.4 215.7a82 82 0 0 0 .5-34.8 67.4 67.4 0 0 0-48.4-51.1c-8.7-2.9-23-.7-10.5 9 8.9 7 16.6 8.6 21 13.6 0 0-18 4.9-20.4 13.6-2.2 7.7-3.8 15.6-5 23.5 1.5.5 3 1 4.4 1.3-.8 7.6 1 15.3 5 21.8l53.4 3.1Z"/><path fill="#EB9481" d="M552.3 169.3a98 98 0 0 0-29-15.7c-13.2-4-39.6-7.8-42.4 2-2 7.2 8 9.5 8 9.5s-11.3.7-11.7 7.6c-.3 6.3 7.5 7.6 7.5 7.6s-6.8 1.6-6 7.7c1 7.4 15 2.8 22.4 9.4 1.7 1.4 51.2-28.1 51.2-28.1Z"/><path fill="#263238" d="M521.6 168.2c-5.7-3-20.4-6.3-32.5-3.3-.3 0-.4.3-.1.3a135.6 135.6 0 0 1 32.6 3Zm-4.3 13.2a62 62 0 0 0-32.6-1.4c-.3.1-.4.4-.1.4a144 144 0 0 1 32.7 1Zm2.2 109.6-1.2-3.9c-.9-2.6-1.6-5.2-2.4-7.9a281.4 281.4 0 0 1-10.2-48.2l-1-9c-.3-3-.4-6.2-1-9.2l-2.1-3.6a34 34 0 0 1-3.8-11.6c-.2 3 .2 6.2 1.1 9.2.8 2.4 2.2 4.7 4 6.5a238 238 0 0 0 1 16 261.5 261.5 0 0 0 10.1 48.5l.2.5v1.2a23.8 23.8 0 0 0 1.7 8.4v.1a.1.1 0 0 0 .1 0l-.9-5.8-.2-2 2.2 6.3a82 82 0 0 0 1.7 4.4c.6 1.4 1 2.8 1.7 4.1 0 .1.3 0 .2 0-.3-1.5-.8-2.8-1.2-4Z"/><path fill="#EBEBEB" d="M356.2 337.4v-35.2l-40 35.2h40Z"/><path fill="#AD6359" d="M150.5 412c11.6 50.2 35.4 110.3 45.6 120 12.9 12.4 98 35 102.3 35.5 10.5 1 31.6-74.7 20.4-76.3-17-2.5-79-5.8-82.8-9.6-3.7-3.9-30-37-57-74.3-18.5-25.8-35.6-26.4-28.5 4.7Z"/><path fill="#AD6359" d="M290 563.4c1.2.6 19 9.6 30 12.8 8.2 2.4 32 8.6 35.5-.2 2.4-6-11.1-11.3-20.6-15.3-5-2-11.2-7.3-9.8-10.5 2.7-5.6 15.5 0 24 5 16.4 9.5 38.3 26.6 48.3 18.3 3.8-3.2-.6-9-7-14.5 10.4 6.5 21.5 11.9 25.9 8.6 2.5-2 2.6-4.5 1.2-7.5 3.2 1 6 .8 8-1.3 3.5-3.6 1.8-8.8-2-14.2a4 4 0 0 0 3.2-2c7.2-11-28.8-42.5-41.3-45.4-36.6-8.7-75.2-7-75.2-7-14.3 11.5-20.3 73.2-20.3 73.2Z"/><path fill="#263238" d="M343.8 529.7c8.7 1.4 17 4.6 24.4 9.4 9.3 6.1 15.4 13.3 23.2 20.5a.2.2 0 0 1-.1.4h-.2a548 548 0 0 0-23-19.3 59.3 59.3 0 0 0-24.3-11Zm6.8-15.5c9.6 2.6 19.5 5.2 28.4 9.8 9.8 5 17.4 13.1 24.9 21 4.5 4.6 9 9.4 13.2 14.4.2.2 0 .5-.2.3-7.7-8-15.5-16-23.6-23.6a78.4 78.4 0 0 0-26-16.3c-5.5-2.1-11.1-3.8-16.8-5.5 0 0 0-.2.1-.1Zm10.3-13.6c9.3 1.9 17.5 3.5 25.8 8.5 11 6.7 21.5 17.8 25.2 21.8 4.1 4.4 8 8.9 12 13.5.1.2-.2.4-.4.3-8.9-10-18.4-19.5-28.5-28.3a62.1 62.1 0 0 0-16-10.4c-5.8-2.3-12-4-18.1-5.4 0 0-.1 0 0 0Z"/><path fill="#FFC727" d="m304.3 487.1-26.2 83s-70.9-20.3-83.8-34.2c-12.9-14-36.9-86.2-43.9-121.2s10.7-34 27-12a1922 1922 0 0 0 58.8 76.6c2.3 1.2 68.1 7.8 68.1 7.8Z"/><path fill="#000" d="m304.3 487.1-26.2 83s-70.9-20.3-83.8-34.2c-12.9-14-36.9-86.2-43.9-121.2s10.7-34 27-12a1922 1922 0 0 0 58.8 76.6c2.3 1.2 68.1 7.8 68.1 7.8Z" opacity=".1"/><path fill="#263238" d="M271.3 533.2c3.2-9.8 6.5-19.5 9.3-29.4l4.7-17c.1-.1-.2-.2-.3 0-3.6 9.7-7.2 19.4-10.3 29.2l-9.3 29.5a290.5 290.5 0 0 0-4.4 17 423 423 0 0 0 10.3-29.3Zm-28.9 25.5-3.2-1.1a424 424 0 0 1-23.1-9l-1.7-.8-.5-.2-1.8-.8c-2.2-1-4.3-2-6.3-3.1l-1.3-.8a49.4 49.4 0 0 1-9.5-6.4l-.7-.6c-13-14-36.8-86.2-43.9-121.2l-.2-1.2v-.2c-.5-2.7-1-6-1.2-9.5-1-17.4 7.2-20.3 17.4-12.6 25.4 54.4 64.2 144.4 76 167.5Z"/><path fill="#EBEBEB" d="m205.6 572.6-154.6.8c.2-3.3 22.2-100.6 39.7-136.5 22.4-46 34-49.8 40.9-52.3a53.8 53.8 0 0 1 28.3.2c4.2 2 17.7 25.5 22.6 42.8 9.6 34.8 25.3 142.9 23 145Z"/><path fill="#FFC727" d="M123.6 388.3s19.7 72.7 20.7 77.6c1.5 7 11.3 107.2 11.3 107.2l-107.8.3s23.5-92.7 41-133.3c19.1-44.5 34.8-51.8 34.8-51.8Z"/><path fill="#000" d="M123.6 388.3s19.7 72.7 20.7 77.6c1.5 7 11.3 107.2 11.3 107.2l-107.8.3s23.5-92.7 41-133.3c19.1-44.5 34.8-51.8 34.8-51.8Z" opacity=".1"/><path fill="#FFC727" d="M161.3 386c.6 2.3 18.7 61.4 20 76.1 1.4 16.3 13.7 111.3 13.7 111.3h15.8S188 437 181.8 422.5C169 393.1 161.3 386 161.3 386Z"/><path fill="#000" d="M161.3 386c.6 2.3 18.7 61.4 20 76.1 1.4 16.3 13.7 111.3 13.7 111.3h15.8S188 437 181.8 422.5C169 393.1 161.3 386 161.3 386Z" opacity=".1"/><path fill="#AD6359" d="M103.3 405.3c-25.9 27.7-88.8 133-68.8 152.1 20 19.2 130.7-6.6 161.9-21.5 9.2-4.4-26-62.1-36.8-63.5-9.1-1-55.4 20.1-56.8 17.5-1.5-3 5.9-25.3 17-65.5 12.9-46.4-5-31.4-16.5-19.1Zm102.3 48.5c22.5-3.1 28.8-.5 46.3-13.2 11.6-8.4 21.8-4.6 15.3 8.7-10.8 21.7-39 31.9-49.8 32.6l-11.8-28Z"/><path fill="#AD6359" d="M145.8 475.5s25.3-14 49-19.8c16.3-4 52.8-8.6 87.8 27.5 8.3 8.6 14 26.6-4.6 17.6-13.2-6.4-19.6-14.5-28-16.9 0 0 4.6 23.9-4.3 31.9-7.8 7-16 13.4-24.7 19.2a45 45 0 0 1-4-4.3s-9 6.6-26 5l-45.2-60.2Z"/><path fill="#AD6359" d="M211 454.5c7.8 4 24.2 13 35 25 12.2 13.3 32 42.1 22 51-7.2 6.5-15.7-3.9-15.7-3.9s5.7 13.7-2.2 18.1c-7.1 4-13.2-4.4-13.2-4.4s2 8.9-5.7 11.4c-9.1 3.1-11.8-16-23.8-21-2.8-1 3.5-76.2 3.5-76.2Z"/><path fill="#263238" d="M230 489.9c6.6 5 19 20.4 22.4 36.3 0 .4-.2.6-.3.3-6-13-13.4-25.3-22.3-36.5l.1-.1Zm-13.2 12.6a80 80 0 0 1 20.3 37.6c0 .4-.2.6-.3.3a189.4 189.4 0 0 0-20-38Zm33.2-18.7c7.3 2.2 12 5.8 18.3 10 3 2.2 6.2 4.2 9.5 6 3 1.6 7.4 4 10.5 1.6 1.8-1.4 1.8-4 1.3-6-.9-3-2.2-5.8-4-8.4 0 0 0-.2.2-.1 1.7 2.3 3.2 4.8 4.4 7.4.8 1.8 1 3.8.6 5.8-1 4-5.8 4.5-9.1 3.4-2-.7-4-1.7-5.8-2.8l-5.2-3.2-10.3-7.4a95.2 95.2 0 0 0-10.5-6.3Z"/><path fill="#263238" d="M265.3 509.6a230.9 230.9 0 0 0-15.3-25.8 118 118 0 0 1 17 24.4 40.4 40.4 0 0 1 4.6 15.5c0 7.7-5.1 9.2-7 9.5-2.2.4-4.5 0-6.5-1a20 20 0 0 1-6-5.6c0-.1.1-.3.2-.2 2.6 3 7 6 11.2 5.5a6.9 6.9 0 0 0 4.8-2.6 9 9 0 0 0 1.2-6.2 40 40 0 0 0-4.2-13.5Z"/><path fill="#FFC727" d="m145.8 475.5 35.5 74.6s-138.8 31.2-150.8 7c-12-24.1 42-118.7 66.2-146.2 28.2-31.9 31.8-21 25.6 7.2a1501 1501 0 0 1-19 72.4l42.5-15Z"/><path fill="#000" d="m145.8 475.5 35.5 74.6s-138.8 31.2-150.8 7c-12-24.1 42-118.7 66.2-146.2 28.2-31.9 31.8-21 25.6 7.2a1501 1501 0 0 1-19 72.4l42.5-15Z" opacity=".1"/><path fill="#263238" d="M61 510.4a156.5 156.5 0 0 1 41.8-20.5 590.2 590.2 0 0 1 12.7-3.6c-7.4 2.4-14.7 5.2-21.8 8.5-7 3.1-14 6.4-21 9.8-3.9 1.9-7.7 4-11.5 6H61a.2.2 0 0 1 0-.2Z"/><path fill="#263238" d="M145.4 475.3c-.7.1-38.6 12.7-39.9 13.3l8-23.8.3-.8 2-4 2.5-5.2h-.1l-2.6 5-1.2 2.4A440 440 0 0 0 119 446l-6.2 17.5c-2 6-9.9 27.5-9.8 27.5a11284.5 11284.5 0 0 0 42.8-15.3.3.3 0 0 0 0-.2l-.1-.1a.3.3 0 0 0-.3 0ZM148 524c-4-8.4-7.8-16.8-12-25-2.4-4.6-4.7-9.3-7.2-13.9 0-.2-.4 0-.3.1 3.6 8.6 7.2 17 11.2 25.4 4 8.4 7.8 16.7 11.9 25a252 252 0 0 0 7.3 13.8h.2c-3.3-8.7-7.2-17-11.1-25.5Z"/><path fill="#263238" d="M183 551.3c-1.3-2.3-3.1-5.6-4.6-7.9-.4-.6-.8-.5-.5.2l3 6.5-5.9 1.1-6.7 1.5-13.3 2.6a613.9 613.9 0 0 1-81.5 9.5 316.3 316.3 0 0 1-30.5-.3c4.4 1 8.7 1.5 13.1 1.7a348.8 348.8 0 0 0 41.5-1.3 659.4 659.4 0 0 0 77.1-11.7c2.5-.6 8.6-1.5 8.3-2Z"/><path fill="#AD6359" d="M161.3 413c-9.1 2.6-25.6-11-32.3-22.2-.4-.8.5-9 1.1-19.3.4-6.1.6-13 .4-19.3 0-1.3 39.8 8.1 39.8 8.1s-3.4 13.4-3 24.3a14.4 14.4 0 0 0 .5 3c1 5 2.4 23-6.5 25.5Z"/><path fill="#263238" d="M132.9 352.3c2.2 10.6 9.8 36.1 30.9 35.8a25 25 0 0 0 4-.4v-.4l-.4-2.6c-.4-11 3-24.4 3-24.4s-28.9-6.8-37.5-8Z"/><path fill="#455A64" d="M175 333.3c-.4 9.6 6.1 17.8 14.6 18.2 8.5.4 15.8-7.2 16.2-16.8.4-9.7-6.1-17.8-14.6-18.2-8.5-.4-15.7 7.1-16.1 16.8Z"/><path fill="#C7C7C7" d="M204.2 335.2c.5-10.8-6.7-19.8-16.2-20.2-9.4-.5-17.5 7.9-18 18.7-.4 10.7 6.8 19.8 16.3 20.2 9.4.4 17.4-8 18-18.7Z"/><path fill="#AD6359" d="M135.7 302c-7 13-7.3 54.1.7 64.9 11.7 15.6 34.7 21.3 48.9 6.4 13.8-14.5 13.4-68.1 4-78.3-13.7-15-43.5-12-53.6 7Z"/><path fill="#263238" d="M169.9 333.8s-.3.2-.2.3c.1 2.8-.2 6-2.7 7 3.1-.4 3.4-4.7 2.9-7.3Z"/><path fill="#263238" d="M167.3 331c-4.4-.2-4.6 8.7-.5 9 4.2.1 4.3-8.8.5-9Zm18.1 3.2.2.2c-.1 2.8.2 6 2.6 7v.1c-3-.5-3.4-4.7-2.8-7.3Z"/><path fill="#263238" d="M188 331.4c4.4-.3 4.6 8.7.4 8.9-4.1.2-4.2-8.8-.5-9Zm-24.7-7.6c1.3 0 2.4-.3 3.7-.5a6 6 0 0 0 3.6-1.3 1.9 1.9 0 0 0 0-2.3 4.7 4.7 0 0 0-4.5-1.3c-1.7.1-3.3 1-4.4 2.2a2 2 0 0 0 1.6 3.2Zm28.8 1c-1.2-.2-2.4-.6-3.5-1a6 6 0 0 1-3.4-1.6 1.9 1.9 0 0 1 .1-2.3 4.7 4.7 0 0 1 4.7-.8c1.7.4 3.1 1.3 4.2 2.7a2 2 0 0 1-2 3Zm-27.3 34.7c.7.7 1.3 1.6 2.3 1.7a7.5 7.5 0 0 0 3-.7.1.1 0 0 1 .1.1 3.7 3.7 0 0 1-3.5 1.5 3 3 0 0 1-2.2-2.5c0-.1.2-.2.3 0Zm3.1-8.2a9.4 9.4 0 0 0 6.2 4.3 11.8 11.8 0 0 0 4 .1h.6a.7.7 0 0 0 .6-.7v-5.9c.8.4 4.7 2.3 4.7 1.2a141.7 141.7 0 0 0-3.4-28.9.3.3 0 0 0-.3.2c0 9 1.6 17.8 1.8 26.7-1.4-.7-2.9-1.2-4.4-1.4-.3 0 .4 6.2.3 7.2v.1c-3.7.4-6.3-.7-9.8-3.2-.3-.1-.5 0-.3.3Z"/><path fill="#263238" d="M176.2 354.7a11.1 11.1 0 0 1-4.5 3.4 5 5 0 0 1-3 .1c-2.3-.6-2.3-2.6-1.9-4.4l1-2.6c2.4 2 5.4 3.2 8.4 3.5Z"/><path fill="#FF98B9" d="M171.7 358a5 5 0 0 1-3 .2c-2.3-.6-2.3-2.6-1.9-4.4 2.4.3 4.7 2 4.9 4.3Z"/><path fill="#263238" d="M130.5 331c2.7-.4 9.2-9.5 12-13.1 2.7-3.6 4.2-23 4.5-27.5a29.1 29.1 0 0 0-11.4 11.6c-3 5.8-4.8 17.2-5 29Z" opacity=".2"/><path fill="#263238" d="M180.5 306.5a14 14 0 0 1-19.4 1.3 14.2 14.2 0 0 1-4.2-5.8c0-.2-.2 0-.2 0a14 14 0 0 0 10.7 10 14.3 14.3 0 0 0 13.3-5.4v-.1a.2.2 0 0 0-.2 0Zm-13.4-34.9c-8 0-15.6 4.2-18.7 9.6-1.8 3-2.4 6.6-1.8 10.1 0 .2.3.1.2 0a17.1 17.1 0 0 1 8.6-15.2 22.1 22.1 0 0 1 19.7-1.7c3 1.1 5.7 3.3 7.3 6.2.1.3.7.1.6-.2-2-5-8.6-8.7-15.9-8.8Zm46.3 19c-1.2-4-3.7-7.5-7.2-9.8-4.9-3.2-10.5-3-16-2.6a.1.1 0 0 0-.2.2h.1c4.8-.2 9.6-.3 13.9 2a18 18 0 0 1 7.8 8.8 17 17 0 0 1-7.7 21 17.3 17.3 0 0 1-13.7 1c-.2-.1-.3.1-.1.2a17.4 17.4 0 0 0 23.2-20.8Z"/><path fill="#263238" d="M132.7 310s-7.1-14.8-.4-22.9c3.8-4.6 15.8-3.5 15.8-3.5s4.1-6.8 14.2-8.7c10-2 22 4.4 22 4.4s9.7-5.2 18.5.3c12.2 7.6 10 26.6-2.8 32.2-9 4-20.7-4.3-20.7-4.3-1.2.2-13.3 6.8-21.8-4 0 0-7.5 6.2-13.9 1.4a10.5 10.5 0 0 1-10.9 5Z"/><path fill="#AD6359" d="M137.9 336s-6.8-14.4-13.2-12.2c-6.4 2.1-2.9 22 3.5 25.8a7.1 7.1 0 0 0 10-2.1L138 336Z"/><path fill="#263238" d="M125.8 329.5s-.1.1 0 .2c4.5 2.7 6.3 7.6 7.3 12.6-1.2-2-3-3.4-5.6-2-.1 0-.1 0 0 0a.2.2 0 0 0 0 .2 4.4 4.4 0 0 1 4.5 2.3 24 24 0 0 1 1.6 4.2c.2.5 1 .4 1-.1v-.1c1-6.1-2.3-15.6-8.8-17.3Z"/><path fill="#C7C7C7" d="m152.7 365-12.9-5.5-10.4-13 2-1.5 10 12.4 12.3 5.3-1 2.4Z"/><path fill="#37474F" d="M151.3 363c1.3-3.7 11.8-2.4 10 3.3-2 5.7-11.2.4-10-3.3Z"/><path fill="#C7C7C7" d="M124.5 323.4s-1.4-21.1 4.8-32.7c6.9-13 35.4-25.4 55-11.4 0 0-31.8-5.7-46.6 12.3-6.3 7.6-6.1 32.4-6.1 32.4l-7.1-.6Z"/><path fill="#C7C7C7" d="M127.4 353.7c9.4 0 17-8.8 16.9-19.6-.1-10.8-7.9-19.4-17.3-19.3-9.5 0-17 8.9-17 19.6.2 10.8 8 19.4 17.4 19.3Z"/><path fill="#455A64" d="M139.3 333.5c0 9.7-6.7 17.6-15.2 17.7-8.5 0-15.5-7.7-15.6-17.4 0-9.7 6.8-17.6 15.2-17.6 8.5-.1 15.5 7.6 15.6 17.3Z"/><path fill="#EBEBEB" d="m167.7 387-9.3 23.3-29-29.3-8.2 9.5s28.5 46.6 28.7 44.5l9.5-20 13.9 13.8-1.3-35-4.3-6.8Z"/><path fill="#263238" d="M173.6 411.5c-.4-5.8-.6-11.6-1.3-17.4 0-.2-.3-.3-.4 0-1 5.6.6 27.7.6 33-.7-.6-13-12.2-13.1-12-2 3.1-9 17.8-9.5 19.1a967.4 967.4 0 0 0-29.2-43.7l-.1.1v.2c4 7.9 28.7 46.4 29 46.3 3.7-7 7-14 10-21.3 2 2.6 14.5 15.7 14.5 14.8.2-6.4 0-12.8-.5-19.1Z"/><path fill="#455A64" d="M485 325.7h-40.5a14.8 14.8 0 0 1 0-29.6H485a14.8 14.8 0 0 1 0 29.6Z"/><path fill="#fff" d="M453.4 310.6c0-.4.1-.9.4-1.3l.4-.5.7-.8 1-.6a10 10 0 0 1 4-1.6 26 26 0 0 1 10.2 0c1.4.2 2.8.8 4 1.5l1 .7.7.8.6.9.3 1H470a.2.2 0 0 1-.2-.2 2.3 2.3 0 0 0-2-1.2c-1.8-.2-3.8-.2-5.7 0a2.2 2.2 0 0 0-1.9 1.2l-.2.1h-6.6Zm0 3.8v-2.5h6.5v2.5a.7.7 0 0 1-.2.6.7.7 0 0 1-.6.2h-5a.7.7 0 0 1-.5-.2.7.7 0 0 1-.2-.6Zm16.6 0V312h6.6v2.4a.7.7 0 0 1-.8.8h-5a.7.7 0 0 1-.5-.2.7.7 0 0 1-.2-.6Z"/><path fill="#455A64" d="M318.8 575h-9v5.9h9V575Zm11.7-.4h-9v5.9h9v-5.9Zm11.6-.4h-9v5.9h9v-5.9Zm11.7-.4h-9v6h9v-6Zm11.6-.4h-9v6h9v-6Zm11.6-.4h-8.9v6h9v-6Zm11.7-.3h-9v5.8h9v-5.8Zm11.7-.4h-9v5.8h9v-5.8Zm11.6-.4h-9v5.9h9v-5.9Z"/><path fill="#37474F" d="M414.3 584.2H307.6v-7.1l106.7-3v10.1Z"/><path fill="#455A64" d="M518.3 556h-176l28-131h176l-28 131Z"/><path fill="#37474F" d="M524.8 556h-176l28-131h176l-28 131Z"/><path fill="#263238" d="M462 490.3c4.8-4.4 5.6-11.3 1.8-15.4-3.8-4-10.7-3.8-15.5.7-4.8 4.4-5.6 11.3-1.8 15.3 3.8 4.1 10.7 3.8 15.5-.6Z"/><path fill="#455A64" d="M475 590.3h-86.5v-6.7l86.6-2.8v9.5Z"/><path fill="#455A64" d="M498.6 590.3H452l-28-73.4h46.5l28 73.4Z"/><path fill="#263238" d="M506.2 590.3h-46.4l-28-73.4h46.4l28 73.4Z"/><path fill="#37474F" d="M304.3 592.1h-89.2c-7.7 0 3.4-21.7 31.2-30s66.8 21.9 58 30Z"/><path fill="#263238" d="M269.3 592.1a30.5 30.5 0 0 1 4.2-14c1.3-2.2 2.9-4.2 4.8-5.8 1.8-1.7 4-3 6.2-4-1 .8-2 1.3-2.9 2.2l-1.3 1.2-1.3 1.3a42.9 42.9 0 0 0-9.7 19.1Z"/><path fill="#263238" d="M279.9 571.5a57.4 57.4 0 0 1 14.9 7.4c2.3 1.6 4.4 3.5 6.2 5.7a19 19 0 0 1 2.3 3.5c.6 1.3 1 2.7 1 4a11 11 0 0 0-1.6-3.7c-.7-1.1-1.5-2.2-2.5-3.2-1.9-1.9-4-3.7-6.2-5.2a99.6 99.6 0 0 0-10.5-6.5l-3.6-2Z"/><path fill="#fff" d="M310.7 294.6a39.6 39.6 0 0 1-66.3 25l-19.8 3 10-17.2a39.3 39.3 0 0 1 1.7-34 39.6 39.6 0 0 1 74.4 23.2Z"/><path fill="#263238" d="M310.7 294.6a39.9 39.9 0 0 1-47 35.2A40 40 0 0 1 244 320l.5.1-19.8 3-1.4.3.7-1.3 9.9-17.2v.7a40 40 0 1 1 76.9-11.1Zm0 0a39.3 39.3 0 1 0-75.4 10.6l.1.3-.2.4-10 17-.7-1 19.9-2.8h.2l.2.2a39 39 0 0 0 57.8-4.6 39.8 39.8 0 0 0 8.1-20.1Z"/><path fill="#263238" d="M293.4 291.6a4.8 4.8 0 1 1-9.6 0 4.8 4.8 0 0 1 9.6 0Zm-17.2 0a4.8 4.8 0 1 1-9.6 0 4.8 4.8 0 0 1 9.6 0Zm-17.2 0a4.8 4.8 0 1 1-9.6 0 4.8 4.8 0 0 1 9.6 0Z"/><path fill="#fff" d="M327.5 88.9a39.7 39.7 0 0 0 66.3 25l19.8 3-10-17.2a39.7 39.7 0 1 0-76-10.8Z"/><path fill="#263238" d="M339.4 56.1a39.6 39.6 0 0 1 50.1-4.6 40.1 40.1 0 0 1 14.9 48.5v-.7l9.8 17.3.7 1.3-1.4-.2-19.8-3 .5-.2a40 40 0 0 1-54.8-58.3Zm-3.8 52.8a44 44 0 0 0 7.8 7.6 39.1 39.1 0 0 0 50-3l.2-.1h.3l19.8 2.7-.7 1-10-17-.2-.4.2-.3a39.1 39.1 0 0 0-53.3-50.1 39.2 39.2 0 0 0-14 59.6Z"/><path fill="#FFC727" d="M370.5 89.6v5a3.6 3.6 0 0 1-3.7 3.7 3.7 3.7 0 0 1-3.8-3.7v-7.9l.1-.1v-.2a3.8 3.8 0 0 1 3.7-3.7 8.5 8.5 0 1 0 0-17 8.4 8.4 0 0 0-7.4 4.1 3.8 3.8 0 0 1-7-2.4c0-.5.3-1 .5-1.4a16 16 0 1 1 17.5 23.6Zm0 16.7v1.3a3.6 3.6 0 0 1-3.7 3.7 3.7 3.7 0 0 1-3.8-3.7v-1.3a3.8 3.8 0 0 1 5.2-3.5 3.7 3.7 0 0 1 2.3 3.5Z"/></svg>