<svg xmlns="http://www.w3.org/2000/svg" fill="none" viewBox="0 0 428 386"><path fill="#AD6359" d="M43.7 140.4c11.5 50.2 35.4 110.3 45.5 120 13 12.4 98.1 35 102.3 35.5 10.5 1 31.6-74.7 20.4-76.3-17-2.5-79-5.9-82.7-9.7-3.7-3.8-30-37-57-74.3-18.5-25.7-35.7-26.3-28.5 4.8Z"/><path fill="#AD6359" d="M183.1 291.8c1.3.6 19 9.6 30 12.7 8.3 2.4 32 8.6 35.6-.1 2.4-6-11.2-11.3-20.7-15.3-5-2-11.2-7.3-9.7-10.5 2.6-5.7 15.5 0 24 5 16.4 9.4 38.3 26.6 48.3 18.2 3.8-3.1-.6-8.8-7-14.5 10.4 6.6 21.5 12 25.8 8.6 2.6-1.9 2.7-4.5 1.3-7.4 3.2 1 6 .8 8-1.3 3.4-3.6 1.8-8.8-2-14.2a4 4 0 0 0 3.2-2c7.1-11-28.9-42.5-41.3-45.4-36.6-8.7-75.2-7.1-75.2-7.1-14.4 11.5-20.3 73.2-20.3 73.3Z"/><path fill="#263238" d="M237 258a62 62 0 0 1 24.4 9.5c9.3 6 15.4 13.3 23.2 20.5a.2.2 0 0 1 0 .3h-.3a602 602 0 0 0-23-19.3 59.3 59.3 0 0 0-24.4-11Zm6.8-15.5c9.6 2.6 19.5 5.3 28.4 9.9 9.8 5 17.4 13 24.9 21 4.5 4.6 9 9.4 13.2 14.3.2.2 0 .6-.3.4a601 601 0 0 0-23.6-23.6 78.4 78.4 0 0 0-25.9-16.4c-5.5-2-11.1-3.7-16.8-5.4v-.2ZM254 229c9.4 1.9 17.6 3.5 25.8 8.5a130 130 0 0 1 25.3 21.8l12 13.4c0 .2-.2.5-.4.3a316 316 0 0 0-28.5-28.2 62.1 62.1 0 0 0-16-10.4c-5.9-2.3-12-4.1-18.2-5.4Z"/><path fill="#FFC727" d="m197.5 215.5-26.2 83s-71-20.3-83.8-34.3c-13-14-36.9-86.1-44-121-7-35 10.7-34.1 27-12.2 16.2 22 56.7 75.6 59 76.7 2.1 1.2 68 7.8 68 7.8Z"/><path fill="#000" d="m197.5 215.5-26.2 83s-71-20.3-83.8-34.3c-13-14-36.9-86.1-44-121-7-35 10.7-34.1 27-12.2 16.2 22 56.7 75.6 59 76.7 2.1 1.2 68 7.8 68 7.8Z" opacity=".1"/><path fill="#263238" d="M164.5 261.6c3.2-9.8 6.4-19.5 9.2-29.4 1.6-5.7 3.3-11.3 4.8-17 0-.2-.3-.3-.4 0-3.5 9.6-7.1 19.4-10.2 29.2l-9.3 29.4a291.3 291.3 0 0 0-4.4 17c3.9-9.5 7.1-19.4 10.3-29.2Zm-29 25.4-3.1-1a423.4 423.4 0 0 1-23.1-9l-1.7-.8-.6-.2-1.7-.8L99 272l-1.3-.7c-3-1.6-6-3.5-8.7-5.7l-.7-.7-.7-.7c-13-14-36.9-86.1-44-121l-.2-1.3v-.3l-1.2-9.5c-1-17.4 7.3-20.2 17.5-12.6C85 174 123.9 264 135.7 287.1Z"/><path fill="#EBEBEB" d="m98.8 301-154.6.8c.1-3.3 22.1-100.6 39.6-136.6 22.5-46 34-49.7 41-52.2a53.8 53.8 0 0 1 28.3.2c4.2 2 17.7 25.5 22.5 42.8 9.7 34.7 25.3 142.9 23.2 145Z"/><path fill="#FFC727" d="M16.8 116.7s19.7 72.7 20.6 77.5a5239 5239 0 0 1 11.3 107.2l-107.7.4s23.5-92.7 41-133.3c19.1-44.6 34.8-51.8 34.8-51.8Z"/><path fill="#000" d="M16.8 116.7s19.7 72.7 20.6 77.5c1.5 7 11.3 107.2 11.3 107.2l-107.7.4s23.5-92.7 41-133.3c19.1-44.6 34.8-51.8 34.8-51.8Z" opacity=".1"/><path fill="#FFC727" d="M54.5 114.3c.5 2.3 18.7 61.4 20 76.2 1.3 16.3 13.7 111.3 13.7 111.3H104S81.2 165.3 75 151c-12.8-29.4-20.4-36.6-20.4-36.6Z"/><path fill="#000" d="M54.5 114.3c.5 2.3 18.7 61.4 20 76.2 1.3 16.3 13.7 111.3 13.7 111.3H104S81.2 165.3 75 151c-12.8-29.4-20.4-36.6-20.4-36.6Z" opacity=".1"/><path fill="#AD6359" d="M-3.5 133.7c-26 27.7-88.8 132.9-68.9 152 20 19.3 130.8-6.6 162-21.4 9.2-4.4-26-62.1-36.9-63.5-9-1-55.4 20-56.7 17.4-1.5-3 5.9-25.2 17-65.5 12.9-46.4-5-31.3-16.5-19Zm102.2 48.5c22.5-3.1 28.8-.5 46.4-13.2 11.5-8.4 21.8-4.6 15.2 8.7-10.7 21.7-39 31.8-49.7 32.5l-11.9-28Z"/><path fill="#AD6359" d="M39 203.8s25.2-14 48.9-19.7c16.3-4 52.9-8.6 87.9 27.5 8.2 8.5 14 26.6-4.6 17.6-13.2-6.5-19.7-14.5-28-16.9 0 0 4.5 23.9-4.4 31.8-7.7 7-16 13.4-24.7 19.2a45.2 45.2 0 0 1-4-4.3s-9 6.7-26 5L39 203.9Z"/><path fill="#AD6359" d="M104.1 182.9c7.9 4 24.3 13 35.2 25 12 13.2 31.8 42.1 21.9 51-7.3 6.5-15.7-4-15.7-4s5.6 13.8-2.2 18.2c-7.2 4-13.3-4.4-13.3-4.4s2 8.9-5.6 11.4c-9.2 3-11.9-16-23.9-21-2.7-1.1 3.6-76.2 3.6-76.2Z"/><path fill="#263238" d="M123 218.2c6.8 5 19.1 20.4 22.5 36.4.1.3-.1.6-.2.3-6-13-13.4-25.3-22.3-36.5-.1-.2 0-.2 0-.2Zm-13 12.7a80 80 0 0 1 20.3 37.6c0 .3-.2.6-.3.2a189.4 189.4 0 0 0-20-37.8Zm33.1-18.7c7.4 2.1 12.1 5.7 18.4 10 3 2.2 6.2 4.2 9.4 6 3 1.6 7.4 4 10.6 1.5 1.8-1.4 1.8-3.9 1.3-6-.9-3-2.3-5.8-4-8.3a42.6 42.6 0 0 1 4.6 7.3c.7 1.8 1 3.8.6 5.7-1 4-5.8 4.6-9.2 3.5a92 92 0 0 1-11-6l-10.2-7.4a95.1 95.1 0 0 0-10.5-6.3Z"/><path fill="#263238" d="M158.5 238a231.1 231.1 0 0 0-15.4-25.8c5.8 5.4 15 19.8 17 24.4a40.4 40.4 0 0 1 4.6 15.5c0 7.6-5 9.1-7 9.5-2.2.4-4.5 0-6.5-1.1a20 20 0 0 1-5.9-5.6s0-.2.2-.1c2.6 3 7 6 11.2 5.4a7 7 0 0 0 4.7-2.5 9 9 0 0 0 1.3-6.2c-.7-4.7-2-9.3-4.2-13.5Z"/><path fill="#FFC727" d="m39 203.8 35.4 74.7s-138.7 31.1-150.7 7c-12-24.2 42-118.7 66.2-146.2 28.1-32 31.7-21 25.5 7.2C9 176.1-3.6 219-3.6 219L39 204Z"/><path fill="#000" d="m39 203.8 35.4 74.7s-138.7 31.1-150.7 7c-12-24.2 42-118.7 66.2-146.2 28.1-32 31.7-21 25.5 7.2C9 176.1-3.6 219-3.6 219L39 204Z" opacity=".1"/><path fill="#263238" d="M-45.8 238.8A156.5 156.5 0 0 1-4 218.2a593.8 593.8 0 0 1 12.7-3.5A200 200 0 0 0-13 223l-21 9.8-11.6 6.1a.2.2 0 0 1 0-.2Z"/><path fill="#263238" d="M38.6 203.6-1.3 217l8-23.7.3-.9 2-3.9 2.4-5.2-2.7 5-1.1 2.4a441.5 441.5 0 0 0 4.6-16.4c-2 6-4.2 11.7-6.3 17.6l-9.7 27.5A11503.2 11503.2 0 0 0 39 204a.3.3 0 0 0-.4-.4Zm2.5 48.7c-3.9-8.3-7.7-16.7-12-24.9l-7.1-14c-.1-.1-.4 0-.3.2A614 614 0 0 0 32.8 239l12 24.9c2.3 4.7 4.7 9.3 7.3 13.8 0 .1.2 0 .2 0-3.3-8.6-7.2-17-11.2-25.4Z"/><path fill="#263238" d="M76.2 279.6c-1.4-2.3-3.1-5.6-4.6-7.8-.4-.6-.9-.5-.5.1 1 2.1 1.9 4.5 3 6.6l-6 1.1-6.7 1.4-13.2 2.7a610.7 610.7 0 0 1-81.6 9.5 315 315 0 0 1-30.4-.3c4.3 1 8.7 1.5 13.1 1.7a348.3 348.3 0 0 0 41.5-1.3 659.8 659.8 0 0 0 77-11.7c2.6-.6 8.6-1.6 8.4-2Z"/><path fill="#AD6359" d="M54.5 141.5c-9.2 2.5-25.6-11-32.3-22.3-.4-.8.5-9.1 1-19.3.4-6.2.7-13 .4-19.3 0-1.4 39.9 8.1 39.9 8.1S60 102 60.5 113a14.4 14.4 0 0 0 .5 3c1 5 2.4 23-6.5 25.5Z"/><path fill="#263238" d="M26 80.7c2.3 10.6 9.9 36 31 35.8a25 25 0 0 0 4-.4v-.4a17 17 0 0 1-.4-2.7c-.5-11 3-24.3 3-24.3s-29-6.8-37.5-8Z"/><path fill="#455A64" d="M68.2 61.7c-.4 9.6 6.1 17.8 14.6 18.2 8.5.4 15.7-7.2 16.2-16.9.4-9.6-6.1-17.8-14.6-18.2-8.5-.3-15.7 7.2-16.2 16.9Z"/><path fill="#C7C7C7" d="M97.4 63.6c.5-10.8-6.8-19.8-16.2-20.3-9.5-.4-17.5 8-18 18.7-.5 10.8 6.8 19.8 16.2 20.3 9.5.4 17.5-8 18-18.7Z"/><path fill="#AD6359" d="M28.8 30.4c-6.8 13-7.3 54 .8 64.9 11.7 15.5 34.7 21.3 48.9 6.4 13.7-14.5 13.4-68.1 4-78.3-13.8-15-43.5-12.1-53.7 7Z"/><path fill="#263238" d="M63 62.2c0-.1-.2.1-.2.3.2 2.7-.1 6-2.6 6.9v.2c3-.5 3.4-4.8 2.8-7.4Z"/><path fill="#263238" d="M60.5 59.4C56 59 55.9 68 60 68.3c4.1.2 4.2-8.7.5-9Zm18 3.1.3.3c-.2 2.8.1 6 2.6 7-3-.4-3.4-4.6-2.9-7.3Z"/><path fill="#263238" d="M81 59.8c4.5-.3 4.7 8.6.6 8.9-4.1.2-4.3-8.8-.5-9Zm-24.5-7.6c1.3 0 2.4-.3 3.6-.5a6 6 0 0 0 3.6-1.3A1.9 1.9 0 0 0 64 48a4.7 4.7 0 0 0-4.6-1.3 7 7 0 0 0-4.5 2.1 2 2 0 0 0 1.7 3.3Zm28.8 1-3.6-1a6 6 0 0 1-3.4-1.6 1.9 1.9 0 0 1 .2-2.3 4.7 4.7 0 0 1 4.7-.8c1.6.3 3.1 1.3 4.1 2.7a2 2 0 0 1-2 3ZM58 87.9c.6.6 1.3 1.5 2.3 1.7a7.4 7.4 0 0 0 3-.7.1.1 0 0 1 .1 0v.1a3.7 3.7 0 0 1-3.5 1.5 3 3 0 0 1-2.2-2.5c0-.2.2-.2.3-.1Zm3-8.3a9.4 9.4 0 0 0 6.3 4.3 11.8 11.8 0 0 0 4 .2l.6-.1a.7.7 0 0 0 .6-.6v-5.9c.8.4 4.7 2.2 4.7 1.1a141.7 141.7 0 0 0-3.5-28.8.3.3 0 0 0-.2.2c0 8.9 1.6 17.7 1.8 26.7-1.4-.7-3-1.2-4.5-1.5-.3.1.4 6.3.3 7.3-3.6.5-6.3-.7-9.7-3.1-.3-.2-.5 0-.4.2Z"/><path fill="#263238" d="M69.4 83a11.1 11.1 0 0 1-4.5 3.4 5 5 0 0 1-3.1.2c-2.2-.6-2.2-2.6-1.8-4.4l1-2.6c2.4 2 5.3 3.2 8.4 3.4Z"/><path fill="#FF98B9" d="M64.9 86.4a5 5 0 0 1-3.1.2c-2.2-.6-2.2-2.6-1.8-4.4 2.4.3 4.7 2 4.9 4.2Z"/><path fill="#263238" d="M23.7 59.5c2.7-.5 9.1-9.6 11.9-13.2 2.7-3.7 4.3-23.1 4.6-27.5a29.1 29.1 0 0 0-11.4 11.6c-3 5.8-4.8 17.2-5.1 29Z" opacity=".2"/><path fill="#263238" d="M73.6 34.9a14 14 0 0 1-19.3 1.3 14.2 14.2 0 0 1-4.2-5.8c0-.2-.3-.1-.2 0a14 14 0 0 0 10.6 9.9A14.3 14.3 0 0 0 74 34.9a.2.2 0 0 0-.3 0ZM60.3 0c-8 0-15.6 4.2-18.7 9.5a15.8 15.8 0 0 0-1.9 10.2h.3a17.1 17.1 0 0 1 8.6-15.2 22.1 22.1 0 0 1 19.6-1.8C71.3 4 74 6.1 75.5 9c.2.3.8.1.7-.2-2-5.1-8.6-8.7-15.9-8.8Zm46.3 19a18 18 0 0 0-7.3-9.8c-4.8-3.3-10.4-3-16-2.6a.1.1 0 1 0 0 .3c4.7-.4 9.6-.4 13.8 2 3.6 1.9 6.4 5 7.9 8.7a17 17 0 0 1-7.7 21 17.3 17.3 0 0 1-13.7 1c-.2-.1-.3.1-.2.2A17.4 17.4 0 0 0 106.6 19Z"/><path fill="#263238" d="M25.9 38.3s-7.1-14.7-.4-22.8c3.8-4.6 15.8-3.6 15.8-3.6s4.1-6.7 14.2-8.7c10-1.9 21.9 4.4 21.9 4.4s9.8-5.1 18.5.4c12.3 7.5 10 26.5-2.8 32.2-9 4-20.7-4.3-20.7-4.3-1.1.1-13.2 6.8-21.8-4 0 0-7.4 6.1-13.8 1.4a10.5 10.5 0 0 1-10.9 5Z"/><path fill="#AD6359" d="M31 64.4S24.4 50 17.9 52.2c-6.4 2.1-2.8 22 3.6 25.8a7.1 7.1 0 0 0 10-2.1l-.3-11.5Z"/><path fill="#263238" d="M19 57.8c-.1 0-.2.2 0 .2 4.5 2.8 6.2 7.7 7.2 12.7-1.1-2-2.9-3.4-5.6-2.1a.2.2 0 0 0 .1.3 4.4 4.4 0 0 1 4.5 2.3c.7 1.3 1.2 2.8 1.6 4.2.2.5 1 .4.9-.1V75c1-6-2.2-15.5-8.7-17.3Z"/><path fill="#C7C7C7" d="m45.9 93.4-13-5.5-10.3-13 2-1.5 10 12.4L46.9 91l-1 2.3Z"/><path fill="#37474F" d="M44.5 91.4c1.3-3.8 11.8-2.4 9.9 3.3-2 5.7-11.2.4-10-3.3Z"/><path fill="#C7C7C7" d="M17.7 51.8S16.2 30.7 22.4 19c7-13 35.5-25.3 55-11.3 0 0-31.7-5.7-46.6 12.3-6.2 7.5-6 32.4-6 32.4l-7.1-.6Z"/><path fill="#C7C7C7" d="M20.5 82.1c9.5 0 17-8.9 17-19.6C37.2 51.7 29.4 43 20 43c-9.4.1-17 9-16.9 19.7C3.2 73.5 11 82.1 20.4 82Z"/><path fill="#455A64" d="M32.5 61.9c0 9.7-6.8 17.6-15.2 17.7-8.5 0-15.5-7.7-15.6-17.4 0-9.7 6.7-17.6 15.2-17.7 8.5 0 15.5 7.7 15.6 17.4Z"/><path fill="#EBEBEB" d="m60.8 115.4-9.2 23.3-29-29.3-8.2 9.5s28.5 46.6 28.7 44.5l9.5-20 13.9 13.8-1.3-35-4.4-6.8Z"/><path fill="#263238" d="M66.8 139.8c-.4-5.7-.6-11.6-1.3-17.3 0-.2-.3-.3-.4 0-1.1 5.6.5 27.7.5 33-.6-.6-13-12.3-13-12-2 3.1-9 17.8-9.5 19A967 967 0 0 0 13.8 119a.2.2 0 0 0 0 .3 850 850 0 0 0 29 46.2c3.7-6.9 7-14 10-21.2 2 2.5 14.4 15.7 14.5 14.8.2-6.4 0-12.8-.5-19.2Z"/><path fill="#EBEBEB" d="M455 166H238v219.5h217V166Z"/><path fill="#263238" d="M337.7 152.7c7.3-8.5 19.7-10.5 31.7-8.1 12 2.4 26.3 8.5 27.6 28.5 1.1 16.3-3.9 32.2-3.9 50.4 0 18.2 20.6 62.5-12.3 84-29.6 19.5-89.6 1.7-91.4-38.3-1.5-31.7 36-61 40-73.5s.4-33.7 8.3-43Z"/><path fill="#263238" d="M332.3 170.6c-.2 9-1.5 18.2-5.2 26.8-1 2.2-2.2 4.2-3.8 6-1.4 1.8-3 3.6-4.5 5.2l-9.2 10.3a93.5 93.5 0 0 0-14.5 22.8 71.6 71.6 0 0 0-5.7 26.2 61.8 61.8 0 0 1 3.9-27 83 83 0 0 1 14.3-23.6c3-3.6 6.1-7 9.3-10.3 3.1-3.4 6.3-6.6 8.2-10.5 2-4 3.6-8.3 4.6-12.6 1.1-4.4 2-8.8 2.6-13.3Zm63.9 16.2c-.2 9.3-.8 18.5-.5 27.7 0 4.6.4 9.1 1.1 13.7.7 4.4 2 8.9 3.1 13.4 1.2 4.5 2.1 9 2.9 13.7.7 4.6 1 9.3.9 14-.2 4.7-1.1 9.3-2.6 13.8a35.1 35.1 0 0 1-7.8 11.7 37 37 0 0 0 8.4-25.6c-.4-9.1-1.8-18.2-4.3-27-1-4.6-2.4-9-3-13.7-.6-4.7-.8-9.3-.7-14 .3-9.3 1.1-18.5 2.5-27.7Z"/><path fill="#EB9481" d="M348.6 264.6c-30.1 33.2-54.7 49-79 49-23 0-72.2-55.9-75.8-63.2-3.2-6.4 37.3-41.2 43.5-36.9 10.4 7.3 44 49.3 47.6 49.5 3.6.2 16.7-8.5 48.3-23.3 19.2-9 36.3 1.9 15.4 24.9Z"/><path fill="#EB9481" d="M198.4 255.9c-4.4-4.8-23-28.7-26.6-36.5-3.7-7.9-12.6-31-7-34.5 5.8-3.4 8.9 3.2 8.9 3.2s-2.2-10.4 3.8-13.4c6-2.9 10.6 7.5 10.6 7.5s-1.5-10.8 4.8-13.3c6.2-2.5 9 8.8 9 8.8s-1.8-9.9 4.2-9.8c7.3.2 8.6 18.7 13.3 27 1 2 24.3 36.7 24.3 36.7L198.4 256Z"/><path fill="#263238" d="M201.7 176.7a48 48 0 0 0 11.8 30.3c.2.2-.1.5-.3.3-8.8-10-13.4-16.7-12.2-30.6.1-.7.7-.6.7 0Zm-13.6 4.5c2.3 14 5.2 20.4 12.8 32.3.1.2-.1.4-.3.2-8.4-11.1-12.8-18-13.2-32.3 0-.7.6-.9.7-.2Zm-14 7.5a64.6 64.6 0 0 0 15 31.2c.2.2-.1.6-.4.3a46 46 0 0 1-15-31.4c0-.9.2-1 .4-.1Z"/><path fill="#EB9481" d="M254.1 235s-.3-17.2-2-24.7c-1.9-7.5-18.8-33-24.6-29.6-7.3 4.3-.4 21 4 28.6 0 0-17 10-14.7 23 2.3 13 37.3 2.6 37.3 2.6Z"/><path fill="#263238" d="M225.9 182.5c-4 8.8 2.6 18.6 6.4 26.4a.8.8 0 0 1-.6 1.1c-7 4.7-15.3 13.3-15.4 22a.2.2 0 0 1-.4 0c-1.1-9.4 6.4-18.5 14.2-23.1-3.9-8-10-18-4.3-26.5l.1.1Z"/><path fill="#FFC727" d="m296.6 253.3 24.2 45.2s32.9-31.9 38.1-45.2c5.2-13.3-.4-23-23.8-15.8a215 215 0 0 0-38.5 15.8Z"/><path fill="#263238" d="M326.4 289c-1.2-2.4-2.2-5-3.5-7.3l-3.7-7.3-8-14.4a174.1 174.1 0 0 0-5-7.7 331 331 0 0 0 15.1 28.9l5 8s.2 0 .1-.1Z"/><path fill="#263238" d="M358.9 253.3c-5.2 13.3-38 45.2-38 45.2L304.4 268l53.8-29.7c3.1 3.2 3 8.7.6 15Z"/><path fill="#FFC727" d="M302.1 329.4s-13.3 31.8-8.6 56h146.8c-4.8-65.8-37.6-122.4-57-140.8-15.7-14.7-32.1-13.4-43.6-5.9-2.7 1.8-32.5 43-35.7 49.5-12.8 25.7-1.9 41.2-1.9 41.2Z"/><path fill="#EB9481" d="M340.7 236.8s-9.1 26.4-3.8 27.8c13.2 3.4 31-18.2 32-20.4.3-.6 1.4-15.4 2.3-26.9l1-13.4-32.6 11.2 1 20.3.1 1.4Z"/><path fill="#263238" d="m339.5 215.1 1 20.3c6.7-1 21.3-4.6 30.7-18l1-13.5-4.1 1.3-28.6 10Z"/><path fill="#EB9481" d="M315.2 186.8a56 56 0 0 0 3.1 24.1 28 28 0 0 0 24.4 16.4c4 .2 15.2-.9 23.4-7 6.4-5 10.2-13.7 12.4-29 5-35.2-11-47-27-48.4-15.8-1.4-35 8.4-36.3 43.9Z"/><path fill="#263238" d="m324.3 179 2.4-.6c.8 0 1.7-.4 2.3-1a1.3 1.3 0 0 0 0-1.5 3.1 3.1 0 0 0-3-.7 5 5 0 0 0-3 1.6 1.3 1.3 0 0 0 .5 2c.3.2.5.2.8.2Zm23.1.8-2.3-.5a4 4 0 0 1-2.4-1 1.3 1.3 0 0 1 0-1.6 3.1 3.1 0 0 1 3.1-.7 5 5 0 0 1 3 1.7 1.3 1.3 0 0 1-1.4 2.1Zm-5.7 8.9.1.2c-.2 2.4 0 5.3 2.2 6.1v.1c-2.7-.5-3-4.2-2.3-6.4Z"/><path fill="#263238" d="M344 186.3c3.9-.1 3.8 7.7.1 7.8-3.6 0-3.4-7.7-.2-7.8Z"/><path fill="#263238" d="M345.5 186.7c.6.4 1.3 1.2 2.1 1.3.8 0 1.7-.7 2.3-1.5l.1.1c0 1.5-.5 3-2.1 3.2-1.7.3-2.5-1.1-2.9-2.6 0-.3.2-.7.5-.5Zm-16.8 1-.1.2c0 2.4-.3 5.2-2.5 6v.1c2.7-.4 3.1-4 2.6-6.3Z"/><path fill="#263238" d="M326.6 185.1c-4-.3-4.2 7.5-.6 7.8 3.6.3 3.8-7.5.6-7.8Z"/><path fill="#263238" d="M325 185.6c-.6.4-1.3 1.1-2 1.1s-1.5-.8-2-1.6c0-.1 0 0-.1 0 0 1.5.3 3 1.8 3.4 1.4.4 2.3-.9 2.7-2.4 0-.2-.2-.7-.4-.5Zm16.4 21.8c-.5.6-1.1 1.4-2 1.5a6.7 6.7 0 0 1-2.6-.5h-.1v.1a3.3 3.3 0 0 0 3.1 1.3 2.6 2.6 0 0 0 1.9-2.3l-.1-.1h-.1Zm-9.8-8.9s-.6 3.6-.7 5.3c0 .2.5.2 1 .3h.1a8 8 0 0 0 7.9-2.9c0-.1-.1-.3-.3-.2a12.3 12.3 0 0 1-7.4 2c-.1-.5 1.2-6.2.9-6.2-1.3 0-2.7.4-4 .8 1-7.5 3.2-14.8 4-22.3 0-.3-.3-.4-.4-.2-2.8 7.5-4 16.2-5.3 24-.1 1 3.4-.3 4.2-.6Z"/><path fill="#263238" d="M333 203.2a9 9 0 0 0 3.4 3 4 4 0 0 0 2.4.4c1.8-.3 2-2 1.7-3.4a10 10 0 0 0-.6-2.1 12 12 0 0 1-6.9 2.1Z"/><path fill="#FF98B9" d="M336.4 206.2a4 4 0 0 0 2.4.4c1.8-.3 2-2 1.7-3.4a4.1 4.1 0 0 0-4.1 3Z"/><path fill="#263238" d="M377.9 188.1c-3.9.1-14.9-9.5-16.9-28 0 0 3 16.5 4.5 18.8 1.4 2.3-6.2-5.4-8-20.4 0 0-7.7 6.8-14.6 9.4-6.9 2.6-11.2 3-11.8 2.5-.6-.5 9.5-4.7 12-8.2 0 0-18 10.5-26.5 12-1 0 .7-15.4 13.2-25.4 12.6-10 30-7.4 36.1-2.4 0 0 6.8.3 15 9.5 8.2 9.3 1.1 32-3 32.2Z"/><path fill="#EB9481" d="M372.8 193.8s7.2-11.5 12.3-9c5.2 2.6.1 18.9-5.6 21.3a6 6 0 0 1-8.2-2.8l1.5-9.5Z"/><path fill="#263238" d="M383.6 189.5v.2c-4.1 1.9-6 5.8-7.4 9.8 1.2-1.6 2.8-2.5 4.9-1.1l-.1.2a3.7 3.7 0 0 0-4 1.5l-1.7 3.4c-.2.4-.9.2-.7-.2v-.1c-.4-5.3 3.3-12.9 9-13.7Z"/><path fill="#EB9481" d="M394.6 251.8c14.5 16.8 55.2 77.4 45.8 93.8-9 15.7-29.6 20.2-41.4-1-8.5-15-22.8-60.1-26.3-81.7-3-17.5 8.5-26.6 22-11Z"/><path fill="#FFC727" d="m381 305.5 48.2-17.6s-27-37-39.5-44c-12.4-7-22.7-2.8-19 21.3 2.1 13.8 5.6 27.3 10.4 40.3Z"/><path fill="#263238" d="m420.6 281-7.8 2.4-7.7 2.8a586.7 586.7 0 0 0-23.9 9.6A339.3 339.3 0 0 0 412 285l8.6-3.8c.2 0 .1-.2 0-.2Zm-36.8 23.4c-1 .2-2 .5-2.8.9-1.3-2.9-4.4-15.4-5.1-18.6l-4.2-19.2c0-.2-.3-.2-.3 0 .4 3.5 1 7 1.6 10.6a65.2 65.2 0 0 1 .2 1.1c.5 6.6 6.5 27.4 6.7 27.3a39.5 39.5 0 0 0 3.9-2.1Z"/><path fill="#A6A6A6" d="m360 181.1-13.7 58.4c-.6 1.8.3 3.1 2 3.1l26.1 5.3a4.8 4.8 0 0 0 4.1-3.2l13.7-58.4c.6-1.7-.3-3-2-3l-26.1-5.4a4.8 4.8 0 0 0-4.1 3.2Z"/><path fill="#DBDBDB" d="M362.2 181.4 348.6 240c-.6 1.7.3 3 2 3l26 5.3a4.8 4.8 0 0 0 4.2-3.1l13.6-58.4c.6-1.8-.3-3.1-2-3.1l-26-5.3a4.9 4.9 0 0 0-4.2 3.1Z"/><path fill="#263238" d="M370.5 184a2.6 2.6 0 1 1-2.5-2.6 2.6 2.6 0 0 1 2.5 2.5Z"/><path fill="#EB9481" d="M406 350c8.5 15.7 31 6.7 34.4-4.4 8-26 3-69.2-1.7-93.3-1.6-7.8-54.3 0-54 8.3.3 10.2 4.6 58.4 21.3 89.3Z"/><path fill="#EB9481" d="M438 263.8a82 82 0 0 0 .5-34.9 67.4 67.4 0 0 0-48.3-51c-8.7-2.9-23-.8-10.5 9 8.9 6.9 16.6 8.6 21 13.6 0 0-18 4.8-20.4 13.6-2.2 7.7-3.8 15.5-5 23.4 1.5.6 3 1 4.4 1.3a35 35 0 0 0 5 21.9l53.4 3Z"/><path fill="#EB9481" d="M434 217.4c-5.5-4-17-12.3-29-15.8-13.2-3.9-39.6-7.7-42.4 2-2 7.2 8 9.6 8 9.6s-11.3.7-11.7 7.6c-.4 6.2 7.5 7.6 7.5 7.6s-6.8 1.6-6 7.7c1 7.3 15 2.8 22.4 9.4 1.7 1.4 51.2-28.1 51.2-28.1Z"/><path fill="#263238" d="M403.3 216.2c-5.7-3-20.4-6.2-32.5-3.2-.3 0-.4.3-.1.3a135.7 135.7 0 0 1 32.6 3Zm-4.3 13.2c-5.2-2-20.5-4.7-32.6-1.3-.3 0-.4.3-.1.3a143.9 143.9 0 0 1 32.8 1Zm2.2 109.6-1.2-3.8c-.9-2.6-1.6-5.3-2.4-7.9a281.5 281.5 0 0 1-10.2-48.2l-1-9c-.3-3-.5-6.2-1-9.2 0-.2-1.6-2.5-2.2-3.6l-1.6-3.7a34 34 0 0 1-2.1-8c-.2 3.2.2 6.3 1.1 9.2.8 2.5 2.2 4.7 4 6.6a235.3 235.3 0 0 0 1 16 260.8 260.8 0 0 0 10.1 48.4l.2.5v1.2a23.6 23.6 0 0 0 1.6 8.5v.1a.1.1 0 0 0 .1 0 .1.1 0 0 0 .1 0l-1-5.8-.1-2 2.2 6.3c.5 1.5 1 3 1.6 4.3.7 1.5 1.1 2.9 1.8 4.2l.2-.1c-.3-1.4-.8-2.7-1.2-4Z"/><path fill="#EBEBEB" d="M237.9 385.4v-35.2l-40 35.2h40Z"/></svg>