<svg width="262" height="52" viewBox="0 0 262 52" fill="none" xmlns="http://www.w3.org/2000/svg">
<path d="M34.0054 13.8553H4.85769C4.21348 13.8553 3.59566 14.1113 3.14014 14.5668C2.68462 15.0223 2.42871 15.6401 2.42871 16.2843V35.7161C2.42871 36.3603 2.68462 36.9782 3.14014 37.4337C3.59566 37.8892 4.21348 38.1451 4.85769 38.1451H34.0054C34.6496 38.1451 35.2674 37.8892 35.723 37.4337C36.1785 36.9782 36.4344 36.3603 36.4344 35.7161V16.2843C36.4344 15.6401 36.1785 15.0223 35.723 14.5668C35.2674 14.1113 34.6496 13.8553 34.0054 13.8553ZM31.3335 16.2843L19.4316 24.5186L7.52956 16.2843H31.3335ZM4.85769 35.7161V17.3895L18.7393 26.9961C18.9426 27.1371 19.1841 27.2127 19.4316 27.2127C19.679 27.2127 19.9205 27.1371 20.1238 26.9961L34.0054 17.3895V35.7161H4.85769Z" fill="white"/>
<path d="M52.0271 9.83203V20H50.4871V9.83203H52.0271ZM51.2756 6.02832C51.5292 6.02832 51.7457 6.11182 51.925 6.27881C52.1106 6.43962 52.2034 6.6932 52.2034 7.03955C52.2034 7.37972 52.1106 7.6333 51.925 7.80029C51.7457 7.96729 51.5292 8.05078 51.2756 8.05078C51.0097 8.05078 50.787 7.96729 50.6077 7.80029C50.4345 7.6333 50.3479 7.37972 50.3479 7.03955C50.3479 6.6932 50.4345 6.43962 50.6077 6.27881C50.787 6.11182 51.0097 6.02832 51.2756 6.02832ZM60.1077 9.64648C61.3137 9.64648 62.226 9.94336 62.8445 10.5371C63.463 11.1247 63.7722 12.071 63.7722 13.376V20H62.2507V13.478C62.2507 12.6307 62.0559 11.9967 61.6663 11.5762C61.2828 11.1556 60.6921 10.9453 59.8943 10.9453C58.7686 10.9453 57.977 11.2638 57.5193 11.9009C57.0616 12.5379 56.8328 13.4626 56.8328 14.6748V20H55.2927V9.83203H56.5359L56.7678 11.2979H56.8513C57.0678 10.9391 57.343 10.6392 57.677 10.3979C58.011 10.1506 58.3852 9.96501 58.7996 9.84131C59.2139 9.71143 59.65 9.64648 60.1077 9.64648ZM71.4724 11.0381H68.9397V20H67.3997V11.0381H65.5999V10.2959L67.3997 9.78564V9.1084C67.3997 8.25488 67.5264 7.56217 67.78 7.03027C68.0336 6.49219 68.4016 6.09635 68.884 5.84277C69.3665 5.58919 69.954 5.4624 70.6467 5.4624C71.0364 5.4624 71.392 5.49642 71.7136 5.56445C72.0414 5.63249 72.329 5.7098 72.5764 5.79639L72.1775 7.01172C71.9672 6.94368 71.7291 6.88184 71.4631 6.82617C71.2034 6.76432 70.9374 6.7334 70.6653 6.7334C70.0777 6.7334 69.6417 6.92513 69.3572 7.30859C69.0789 7.68587 68.9397 8.27962 68.9397 9.08984V9.83203H71.4724V11.0381ZM82.1135 14.8975C82.1135 15.7324 82.0053 16.4777 81.7888 17.1333C81.5723 17.7889 81.26 18.3424 80.8518 18.7939C80.4436 19.2454 79.9488 19.5918 79.3674 19.833C78.7922 20.068 78.1397 20.1855 77.4099 20.1855C76.7296 20.1855 76.1049 20.068 75.5359 19.833C74.9731 19.5918 74.4845 19.2454 74.0701 18.7939C73.6619 18.3424 73.3433 17.7889 73.1145 17.1333C72.8918 16.4777 72.7805 15.7324 72.7805 14.8975C72.7805 13.7842 72.9692 12.8379 73.3464 12.0586C73.7237 11.2731 74.2618 10.6763 74.9607 10.2681C75.6658 9.85368 76.5038 9.64648 77.4749 9.64648C78.4026 9.64648 79.2128 9.85368 79.9055 10.2681C80.6044 10.6825 81.1456 11.2824 81.5291 12.0679C81.9187 12.8472 82.1135 13.7904 82.1135 14.8975ZM74.3762 14.8975C74.3762 15.7139 74.4845 16.422 74.7009 17.022C74.9174 17.6219 75.2514 18.0858 75.7029 18.4136C76.1544 18.7414 76.7358 18.9053 77.447 18.9053C78.1521 18.9053 78.7304 18.7414 79.1819 18.4136C79.6396 18.0858 79.9766 17.6219 80.1931 17.022C80.4096 16.422 80.5178 15.7139 80.5178 14.8975C80.5178 14.0872 80.4096 13.3883 80.1931 12.8008C79.9766 12.207 79.6427 11.7493 79.1912 11.4277C78.7397 11.1061 78.1552 10.9453 77.4377 10.9453C76.3801 10.9453 75.6039 11.2948 75.1091 11.9937C74.6205 12.6925 74.3762 13.6605 74.3762 14.8975ZM64.8113 39.2275C64.8113 39.8151 64.7432 40.3903 64.6072 40.9531C64.4773 41.5098 64.2763 42.0138 64.0042 42.4653C63.732 42.9106 63.3918 43.2663 62.9836 43.5322C62.5816 43.7982 62.1054 43.9312 61.5549 43.9312C60.9797 43.9312 60.5221 43.7642 60.1819 43.4302C59.8417 43.0962 59.6376 42.7004 59.5696 42.2427H59.4861C59.2511 42.7313 58.9047 43.1364 58.447 43.458C57.9955 43.7734 57.4389 43.9312 56.7771 43.9312C55.8123 43.9312 55.067 43.6126 54.5413 42.9756C54.0217 42.3324 53.762 41.4788 53.762 40.415C53.762 39.5863 53.9259 38.8534 54.2537 38.2163C54.5876 37.5731 55.0546 37.069 55.6545 36.7041C56.2607 36.333 56.975 36.1475 57.7976 36.1475C58.3481 36.1475 58.8831 36.1938 59.4026 36.2866C59.9221 36.3794 60.3365 36.4814 60.6458 36.5928L60.4602 40.3315C60.454 40.5604 60.4478 40.7367 60.4417 40.8604C60.4355 40.9779 60.4324 41.0706 60.4324 41.1387C60.4324 41.8066 60.5499 42.2581 60.7849 42.4932C61.0261 42.722 61.3168 42.8364 61.657 42.8364C62.0714 42.8364 62.4177 42.6756 62.696 42.354C62.9806 42.0262 63.197 41.5902 63.3455 41.0459C63.4939 40.4954 63.5681 39.8862 63.5681 39.2183C63.5681 38.0369 63.33 37.0288 62.8538 36.1938C62.3775 35.3589 61.7188 34.7218 60.8777 34.2827C60.0427 33.8436 59.081 33.624 57.9924 33.624C56.9101 33.624 55.9483 33.7941 55.1072 34.1343C54.2722 34.4744 53.564 34.9569 52.9827 35.5815C52.4075 36.2 51.9714 36.936 51.6746 37.7896C51.3777 38.6431 51.2292 39.5863 51.2292 40.6191C51.2292 41.8809 51.4519 42.9539 51.8972 43.8384C52.3487 44.7228 53.0074 45.397 53.8733 45.8608C54.7454 46.3185 55.8061 46.5474 57.0554 46.5474C57.81 46.5474 58.5367 46.4639 59.2356 46.2969C59.9345 46.1299 60.5592 45.9412 61.1096 45.731V46.937C60.5653 47.1659 59.9561 47.3514 59.282 47.4937C58.6078 47.6421 57.8656 47.7163 57.0554 47.7163C55.5649 47.7163 54.2908 47.4349 53.2332 46.8721C52.1755 46.3154 51.3653 45.5114 50.8025 44.46C50.2397 43.4085 49.9583 42.1468 49.9583 40.6748C49.9583 39.4811 50.1407 38.3833 50.5056 37.3813C50.8767 36.3794 51.4086 35.5104 52.1013 34.7744C52.8002 34.0384 53.6444 33.4694 54.634 33.0674C55.6298 32.6592 56.7493 32.4551 57.9924 32.4551C59.3222 32.4551 60.4973 32.7303 61.5178 33.2808C62.5445 33.825 63.3486 34.6043 63.9299 35.6187C64.5175 36.6268 64.8113 37.8298 64.8113 39.2275ZM55.1443 40.4521C55.1443 41.2747 55.3082 41.8778 55.636 42.2612C55.9638 42.6447 56.4184 42.8364 56.9998 42.8364C57.7172 42.8364 58.2429 42.5674 58.5769 42.0293C58.9171 41.4912 59.1119 40.7799 59.1614 39.8955L59.2727 37.4741C59.0933 37.4185 58.8738 37.3721 58.614 37.335C58.3604 37.2917 58.0945 37.27 57.8162 37.27C57.1791 37.27 56.6627 37.4215 56.2668 37.7246C55.8772 38.0277 55.5927 38.4204 55.4133 38.9028C55.234 39.3853 55.1443 39.9017 55.1443 40.4521ZM74.0979 43.2168C74.0979 43.8662 73.934 44.4136 73.6062 44.8589C73.2846 45.298 72.8207 45.6289 72.2146 45.8516C71.6147 46.0742 70.8972 46.1855 70.0623 46.1855C69.351 46.1855 68.7356 46.1299 68.2161 46.0186C67.6965 45.9072 67.2419 45.7495 66.8523 45.5454V44.126C67.2667 44.3301 67.7615 44.5156 68.3367 44.6826C68.9119 44.8496 69.4994 44.9331 70.0994 44.9331C70.9776 44.9331 71.6147 44.7909 72.0105 44.5063C72.4063 44.2218 72.6042 43.8353 72.6042 43.3467C72.6042 43.0684 72.5238 42.8241 72.363 42.6138C72.2084 42.3973 71.9456 42.1901 71.5745 41.9922C71.2034 41.7881 70.69 41.5654 70.0344 41.3242C69.385 41.0768 68.8222 40.8325 68.3459 40.5913C67.8759 40.3439 67.511 40.0439 67.2512 39.6914C66.9976 39.3389 66.8708 38.8812 66.8708 38.3184C66.8708 37.4587 67.2172 36.8 67.9099 36.3423C68.6088 35.8784 69.5242 35.6465 70.656 35.6465C71.2683 35.6465 71.8404 35.7083 72.3723 35.832C72.9104 35.9495 73.4114 36.1104 73.8752 36.3145L73.3557 37.5483C72.9351 37.369 72.4867 37.2174 72.0105 37.0938C71.5343 36.9701 71.0487 36.9082 70.554 36.9082C69.8427 36.9082 69.2953 37.0257 68.9119 37.2607C68.5346 37.4958 68.3459 37.8174 68.3459 38.2256C68.3459 38.541 68.4325 38.8008 68.6057 39.0049C68.7851 39.209 69.0696 39.4007 69.4592 39.5801C69.8489 39.7594 70.3622 39.9697 70.9993 40.2109C71.6363 40.446 72.1868 40.6903 72.6506 40.9438C73.1145 41.1912 73.4701 41.4943 73.7175 41.853C73.9711 42.2056 74.0979 42.6602 74.0979 43.2168ZM84.8503 45.9814L83.0413 40.0625C82.9609 39.8089 82.8835 39.5615 82.8093 39.3203C82.7413 39.0729 82.6764 38.8379 82.6145 38.6152C82.5588 38.3864 82.5063 38.1761 82.4568 37.9844C82.4135 37.7865 82.3764 37.6164 82.3455 37.4741H82.2805C82.2558 37.6164 82.2218 37.7865 82.1785 37.9844C82.1352 38.1761 82.0826 38.3864 82.0208 38.6152C81.9651 38.8441 81.9032 39.0853 81.8352 39.3389C81.7672 39.5863 81.6899 39.8368 81.6033 40.0903L79.7107 45.9814H77.9758L75.1741 35.8135H76.7698L78.2356 41.4263C78.3346 41.7974 78.4273 42.1654 78.5139 42.5303C78.6067 42.889 78.684 43.2292 78.7458 43.5508C78.8139 43.8662 78.8634 44.1414 78.8943 44.3765H78.9685C79.0056 44.2218 79.0458 44.0363 79.0891 43.8198C79.1386 43.6034 79.1912 43.3745 79.2468 43.1333C79.3087 42.8859 79.3736 42.6416 79.4417 42.4004C79.5097 42.153 79.5777 41.9211 79.6458 41.7046L81.5198 35.8135H83.1804L84.9895 41.6953C85.0823 41.9922 85.172 42.3014 85.2585 42.623C85.3513 42.9447 85.4348 43.257 85.509 43.5601C85.5833 43.8569 85.6358 44.1229 85.6667 44.3579H85.741C85.7657 44.1476 85.8121 43.8879 85.8801 43.5786C85.9482 43.2694 86.0255 42.9292 86.1121 42.5581C86.2048 42.187 86.3007 41.8097 86.3997 41.4263L87.884 35.8135H89.4519L86.6409 45.9814H84.8503ZM92.8474 35.832V46H91.3074V35.832H92.8474ZM92.0959 32.0283C92.3495 32.0283 92.566 32.1118 92.7454 32.2788C92.9309 32.4396 93.0237 32.6932 93.0237 33.0396C93.0237 33.3797 92.9309 33.6333 92.7454 33.8003C92.566 33.9673 92.3495 34.0508 92.0959 34.0508C91.83 34.0508 91.6073 33.9673 91.428 33.8003C91.2548 33.6333 91.1682 33.3797 91.1682 33.0396C91.1682 32.6932 91.2548 32.4396 91.428 32.2788C91.6073 32.1118 91.83 32.0283 92.0959 32.0283ZM99.3972 44.9238C99.6508 44.9238 99.9106 44.9022 100.177 44.8589C100.442 44.8156 100.659 44.763 100.826 44.7012V45.8979C100.647 45.9784 100.396 46.0464 100.074 46.1021C99.759 46.1577 99.4498 46.1855 99.1467 46.1855C98.6086 46.1855 98.12 46.0928 97.6809 45.9072C97.2418 45.7155 96.8892 45.3939 96.6233 44.9424C96.3635 44.4909 96.2336 43.8662 96.2336 43.0684V37.0381H94.7864V36.2866L96.2429 35.6836L96.8552 33.4756H97.783V35.832H100.761V37.0381H97.783V43.022C97.783 43.659 97.9283 44.1353 98.219 44.4507C98.5159 44.7661 98.9086 44.9238 99.3972 44.9238ZM106.958 46.1855C106.043 46.1855 105.236 45.9969 104.537 45.6196C103.838 45.2424 103.294 44.6672 102.904 43.894C102.514 43.1209 102.32 42.1468 102.32 40.9717C102.32 39.7409 102.524 38.7358 102.932 37.9565C103.346 37.1711 103.915 36.5897 104.639 36.2124C105.363 35.8351 106.185 35.6465 107.107 35.6465C107.614 35.6465 108.102 35.6991 108.573 35.8042C109.049 35.9032 109.438 36.0299 109.741 36.1846L109.278 37.4741C108.968 37.3504 108.61 37.2391 108.201 37.1401C107.799 37.0412 107.422 36.9917 107.07 36.9917C106.365 36.9917 105.777 37.1432 105.307 37.4463C104.843 37.7493 104.494 38.1947 104.259 38.7822C104.03 39.3698 103.915 40.0934 103.915 40.9531C103.915 41.7757 104.027 42.4777 104.249 43.0591C104.478 43.6405 104.815 44.0858 105.26 44.395C105.712 44.6981 106.275 44.8496 106.949 44.8496C107.487 44.8496 107.973 44.7939 108.406 44.6826C108.838 44.5651 109.231 44.429 109.584 44.2744V45.6475C109.244 45.8206 108.863 45.9536 108.443 46.0464C108.028 46.1392 107.533 46.1855 106.958 46.1855ZM113.536 31.5645V35.8784C113.536 36.1258 113.53 36.3763 113.517 36.6299C113.505 36.8773 113.483 37.1061 113.452 37.3164H113.554C113.765 36.9577 114.031 36.6577 114.352 36.4165C114.68 36.1691 115.051 35.9836 115.466 35.8599C115.88 35.73 116.319 35.665 116.783 35.665C117.599 35.665 118.28 35.7949 118.824 36.0547C119.374 36.3145 119.786 36.7165 120.058 37.2607C120.336 37.805 120.475 38.5101 120.475 39.376V46H118.954V39.478C118.954 38.6307 118.759 37.9967 118.369 37.5762C117.986 37.1556 117.395 36.9453 116.597 36.9453C115.843 36.9453 115.24 37.0907 114.788 37.3813C114.343 37.6659 114.021 38.0864 113.823 38.6431C113.632 39.1997 113.536 39.88 113.536 40.6841V46H111.996V31.5645H113.536ZM125.188 31.5645V35.1733C125.188 35.5877 125.176 35.9897 125.151 36.3794C125.133 36.769 125.117 37.0721 125.105 37.2886H125.188C125.467 36.8309 125.869 36.4443 126.394 36.1289C126.92 35.8135 127.591 35.6558 128.407 35.6558C129.682 35.6558 130.696 36.098 131.45 36.9824C132.211 37.8607 132.592 39.1688 132.592 40.9067C132.592 42.0509 132.418 43.0158 132.072 43.8013C131.726 44.5868 131.237 45.1805 130.606 45.5825C129.975 45.9845 129.23 46.1855 128.37 46.1855C127.566 46.1855 126.905 46.0371 126.385 45.7402C125.872 45.4372 125.476 45.0692 125.198 44.6362H125.077L124.761 46H123.648V31.5645H125.188ZM128.157 36.9453C127.421 36.9453 126.837 37.0907 126.404 37.3813C125.971 37.6659 125.658 38.0988 125.467 38.6802C125.281 39.2554 125.188 39.9852 125.188 40.8696V40.9531C125.188 42.2334 125.402 43.2137 125.828 43.894C126.255 44.5682 127.031 44.9053 128.157 44.9053C129.103 44.9053 129.811 44.5589 130.281 43.8662C130.758 43.1735 130.996 42.1839 130.996 40.8975C130.996 39.5863 130.761 38.5998 130.291 37.938C129.827 37.2762 129.116 36.9453 128.157 36.9453ZM144.049 40.8975C144.049 41.7324 143.941 42.4777 143.724 43.1333C143.508 43.7889 143.196 44.3424 142.787 44.7939C142.379 45.2454 141.884 45.5918 141.303 45.833C140.728 46.068 140.075 46.1855 139.345 46.1855C138.665 46.1855 138.04 46.068 137.471 45.833C136.909 45.5918 136.42 45.2454 136.006 44.7939C135.597 44.3424 135.279 43.7889 135.05 43.1333C134.827 42.4777 134.716 41.7324 134.716 40.8975C134.716 39.7842 134.905 38.8379 135.282 38.0586C135.659 37.2731 136.197 36.6763 136.896 36.2681C137.601 35.8537 138.439 35.6465 139.41 35.6465C140.338 35.6465 141.148 35.8537 141.841 36.2681C142.54 36.6825 143.081 37.2824 143.465 38.0679C143.854 38.8472 144.049 39.7904 144.049 40.8975ZM136.312 40.8975C136.312 41.7139 136.42 42.422 136.636 43.022C136.853 43.6219 137.187 44.0858 137.638 44.4136C138.09 44.7414 138.671 44.9053 139.383 44.9053C140.088 44.9053 140.666 44.7414 141.117 44.4136C141.575 44.0858 141.912 43.6219 142.129 43.022C142.345 42.422 142.453 41.7139 142.453 40.8975C142.453 40.0872 142.345 39.3883 142.129 38.8008C141.912 38.207 141.578 37.7493 141.127 37.4277C140.675 37.1061 140.091 36.9453 139.373 36.9453C138.316 36.9453 137.539 37.2948 137.045 37.9937C136.556 38.6925 136.312 39.6605 136.312 40.8975ZM150.515 35.665C151.728 35.665 152.628 35.9372 153.215 36.4814C153.803 37.0257 154.096 37.8947 154.096 39.0884V46H152.974L152.677 44.4971H152.603C152.318 44.8682 152.021 45.1805 151.712 45.4341C151.403 45.6815 151.044 45.8701 150.636 46C150.234 46.1237 149.739 46.1855 149.152 46.1855C148.533 46.1855 147.983 46.0773 147.5 45.8608C147.024 45.6444 146.647 45.3166 146.368 44.8774C146.096 44.4383 145.96 43.8817 145.96 43.2075C145.96 42.1932 146.362 41.4139 147.166 40.8696C147.97 40.3254 149.195 40.0285 150.84 39.979L152.594 39.9048V39.2832C152.594 38.4049 152.405 37.7896 152.028 37.437C151.65 37.0845 151.118 36.9082 150.432 36.9082C149.9 36.9082 149.393 36.9855 148.91 37.1401C148.428 37.2948 147.97 37.4772 147.537 37.6875L147.064 36.5186C147.522 36.2835 148.048 36.0825 148.641 35.9155C149.235 35.7485 149.86 35.665 150.515 35.665ZM152.575 40.9902L151.026 41.0552C149.758 41.1047 148.864 41.3118 148.344 41.6768C147.825 42.0417 147.565 42.5581 147.565 43.2261C147.565 43.8075 147.741 44.2373 148.094 44.5156C148.447 44.7939 148.913 44.9331 149.495 44.9331C150.398 44.9331 151.137 44.6826 151.712 44.1816C152.287 43.6807 152.575 42.9292 152.575 41.9272V40.9902ZM161.889 35.6465C162.094 35.6465 162.307 35.6589 162.53 35.6836C162.752 35.7021 162.95 35.73 163.123 35.7671L162.928 37.1958C162.761 37.1525 162.576 37.1185 162.372 37.0938C162.168 37.069 161.976 37.0566 161.797 37.0566C161.388 37.0566 161.002 37.1401 160.637 37.3071C160.278 37.4679 159.963 37.703 159.691 38.0122C159.419 38.3153 159.205 38.6833 159.051 39.1162C158.896 39.543 158.819 40.0192 158.819 40.5449V46H157.269V35.832H158.55L158.717 37.7061H158.781C158.992 37.3288 159.245 36.9855 159.542 36.6763C159.839 36.3608 160.182 36.1104 160.572 35.9248C160.968 35.7393 161.407 35.6465 161.889 35.6465ZM168.662 46.1855C167.375 46.1855 166.355 45.7464 165.6 44.8682C164.852 43.9899 164.478 42.6849 164.478 40.9531C164.478 39.2028 164.861 37.8823 165.628 36.9917C166.395 36.0949 167.416 35.6465 168.69 35.6465C169.228 35.6465 169.698 35.7176 170.1 35.8599C170.502 36.0021 170.848 36.1938 171.139 36.4351C171.43 36.6701 171.674 36.9391 171.872 37.2422H171.983C171.958 37.0505 171.934 36.7876 171.909 36.4536C171.884 36.1196 171.872 35.8475 171.872 35.6372V31.5645H173.412V46H172.169L171.937 44.5527H171.872C171.68 44.8558 171.436 45.131 171.139 45.3784C170.848 45.6258 170.499 45.8237 170.091 45.9722C169.689 46.1144 169.212 46.1855 168.662 46.1855ZM168.903 44.9053C169.992 44.9053 170.762 44.596 171.213 43.9775C171.665 43.359 171.89 42.4406 171.89 41.2222V40.9438C171.89 39.6512 171.674 38.6585 171.241 37.9658C170.814 37.2731 170.035 36.9268 168.903 36.9268C167.957 36.9268 167.249 37.2917 166.779 38.0215C166.309 38.7451 166.073 39.7347 166.073 40.9902C166.073 42.2396 166.305 43.2044 166.769 43.8848C167.239 44.5651 167.951 44.9053 168.903 44.9053ZM175.815 41.584V40.2109H180.416V41.584H175.815ZM187.578 35.6465C188.846 35.6465 189.858 36.0825 190.612 36.9546C191.367 37.8267 191.744 39.1379 191.744 40.8882C191.744 42.0448 191.571 43.0158 191.224 43.8013C190.878 44.5868 190.389 45.1805 189.759 45.5825C189.134 45.9845 188.395 46.1855 187.541 46.1855C187.003 46.1855 186.53 46.1144 186.122 45.9722C185.714 45.8299 185.364 45.6382 185.073 45.397C184.783 45.1558 184.542 44.8929 184.35 44.6084H184.239C184.257 44.8496 184.279 45.1403 184.303 45.4805C184.334 45.8206 184.35 46.1175 184.35 46.3711V50.5459H182.801V35.832H184.072L184.276 37.335H184.35C184.548 37.0257 184.789 36.7443 185.073 36.4907C185.358 36.231 185.704 36.0269 186.113 35.8784C186.527 35.7238 187.016 35.6465 187.578 35.6465ZM187.309 36.9453C186.604 36.9453 186.035 37.0814 185.602 37.3535C185.176 37.6257 184.863 38.0339 184.665 38.5781C184.467 39.1162 184.362 39.7935 184.35 40.6099V40.9067C184.35 41.7664 184.443 42.4932 184.628 43.0869C184.82 43.6807 185.132 44.1322 185.565 44.4414C186.004 44.7507 186.592 44.9053 187.328 44.9053C187.959 44.9053 188.484 44.7352 188.905 44.395C189.326 44.0549 189.638 43.5817 189.842 42.9756C190.052 42.3633 190.157 41.6613 190.157 40.8696C190.157 39.6698 189.922 38.7173 189.452 38.0122C188.989 37.3009 188.274 36.9453 187.309 36.9453ZM195.984 46H194.434V31.5645H195.984V46ZM207.636 35.832V46H206.374L206.152 44.5713H206.068C205.858 44.9238 205.586 45.2207 205.252 45.4619C204.918 45.7031 204.54 45.8825 204.12 46C203.705 46.1237 203.263 46.1855 202.793 46.1855C201.989 46.1855 201.315 46.0557 200.771 45.7959C200.226 45.5361 199.815 45.1341 199.537 44.5898C199.265 44.0456 199.129 43.3467 199.129 42.4932V35.832H200.687V42.3818C200.687 43.2292 200.879 43.8631 201.262 44.2837C201.646 44.6981 202.23 44.9053 203.016 44.9053C203.77 44.9053 204.37 44.763 204.816 44.4785C205.267 44.194 205.592 43.7765 205.79 43.2261C205.988 42.6694 206.087 41.9891 206.087 41.1851V35.832H207.636ZM217.47 43.2168C217.47 43.8662 217.306 44.4136 216.978 44.8589C216.657 45.298 216.193 45.6289 215.587 45.8516C214.987 46.0742 214.269 46.1855 213.434 46.1855C212.723 46.1855 212.108 46.1299 211.588 46.0186C211.069 45.9072 210.614 45.7495 210.224 45.5454V44.126C210.639 44.3301 211.134 44.5156 211.709 44.6826C212.284 44.8496 212.872 44.9331 213.471 44.9331C214.35 44.9331 214.987 44.7909 215.383 44.5063C215.778 44.2218 215.976 43.8353 215.976 43.3467C215.976 43.0684 215.896 42.8241 215.735 42.6138C215.58 42.3973 215.318 42.1901 214.947 41.9922C214.575 41.7881 214.062 41.5654 213.406 41.3242C212.757 41.0768 212.194 40.8325 211.718 40.5913C211.248 40.3439 210.883 40.0439 210.623 39.6914C210.37 39.3389 210.243 38.8812 210.243 38.3184C210.243 37.4587 210.589 36.8 211.282 36.3423C211.981 35.8784 212.896 35.6465 214.028 35.6465C214.64 35.6465 215.212 35.7083 215.744 35.832C216.282 35.9495 216.783 36.1104 217.247 36.3145L216.728 37.5483C216.307 37.369 215.859 37.2174 215.383 37.0938C214.906 36.9701 214.421 36.9082 213.926 36.9082C213.215 36.9082 212.667 37.0257 212.284 37.2607C211.907 37.4958 211.718 37.8174 211.718 38.2256C211.718 38.541 211.805 38.8008 211.978 39.0049C212.157 39.209 212.442 39.4007 212.831 39.5801C213.221 39.7594 213.734 39.9697 214.371 40.2109C215.008 40.446 215.559 40.6903 216.023 40.9438C216.487 41.1912 216.842 41.4943 217.09 41.853C217.343 42.2056 217.47 42.6602 217.47 43.2168ZM219.715 45.0352C219.715 44.6022 219.82 44.2961 220.031 44.1167C220.241 43.9312 220.497 43.8384 220.801 43.8384C221.116 43.8384 221.382 43.9312 221.598 44.1167C221.815 44.2961 221.923 44.6022 221.923 45.0352C221.923 45.4619 221.815 45.7743 221.598 45.9722C221.382 46.1639 221.116 46.2598 220.801 46.2598C220.497 46.2598 220.241 46.1639 220.031 45.9722C219.82 45.7743 219.715 45.4619 219.715 45.0352ZM229.011 46.1855C228.096 46.1855 227.288 45.9969 226.59 45.6196C225.891 45.2424 225.346 44.6672 224.957 43.894C224.567 43.1209 224.372 42.1468 224.372 40.9717C224.372 39.7409 224.576 38.7358 224.985 37.9565C225.399 37.1711 225.968 36.5897 226.692 36.2124C227.415 35.8351 228.238 35.6465 229.159 35.6465C229.667 35.6465 230.155 35.6991 230.625 35.8042C231.101 35.9032 231.491 36.0299 231.794 36.1846L231.33 37.4741C231.021 37.3504 230.662 37.2391 230.254 37.1401C229.852 37.0412 229.475 36.9917 229.122 36.9917C228.417 36.9917 227.83 37.1432 227.36 37.4463C226.896 37.7493 226.546 38.1947 226.311 38.7822C226.082 39.3698 225.968 40.0934 225.968 40.9531C225.968 41.7757 226.079 42.4777 226.302 43.0591C226.531 43.6405 226.868 44.0858 227.313 44.395C227.765 44.6981 228.328 44.8496 229.002 44.8496C229.54 44.8496 230.025 44.7939 230.458 44.6826C230.891 44.5651 231.284 44.429 231.636 44.2744V45.6475C231.296 45.8206 230.916 45.9536 230.495 46.0464C230.081 46.1392 229.586 46.1855 229.011 46.1855ZM242.816 40.8975C242.816 41.7324 242.707 42.4777 242.491 43.1333C242.274 43.7889 241.962 44.3424 241.554 44.7939C241.146 45.2454 240.651 45.5918 240.07 45.833C239.494 46.068 238.842 46.1855 238.112 46.1855C237.432 46.1855 236.807 46.068 236.238 45.833C235.675 45.5918 235.187 45.2454 234.772 44.7939C234.364 44.3424 234.045 43.7889 233.817 43.1333C233.594 42.4777 233.483 41.7324 233.483 40.8975C233.483 39.7842 233.671 38.8379 234.049 38.0586C234.426 37.2731 234.964 36.6763 235.663 36.2681C236.368 35.8537 237.206 35.6465 238.177 35.6465C239.105 35.6465 239.915 35.8537 240.608 36.2681C241.307 36.6825 241.848 37.2824 242.231 38.0679C242.621 38.8472 242.816 39.7904 242.816 40.8975ZM235.078 40.8975C235.078 41.7139 235.187 42.422 235.403 43.022C235.62 43.6219 235.954 44.0858 236.405 44.4136C236.857 44.7414 237.438 44.9053 238.149 44.9053C238.854 44.9053 239.433 44.7414 239.884 44.4136C240.342 44.0858 240.679 43.6219 240.895 43.022C241.112 42.422 241.22 41.7139 241.22 40.8975C241.22 40.0872 241.112 39.3883 240.895 38.8008C240.679 38.207 240.345 37.7493 239.893 37.4277C239.442 37.1061 238.857 36.9453 238.14 36.9453C237.082 36.9453 236.306 37.2948 235.811 37.9937C235.323 38.6925 235.078 39.6605 235.078 40.8975ZM256.518 35.6465C257.638 35.6465 258.482 35.9403 259.051 36.5278C259.62 37.1092 259.905 38.0462 259.905 39.3389V46H258.383V39.4131C258.383 38.5905 258.204 37.9751 257.845 37.5669C257.492 37.1525 256.967 36.9453 256.268 36.9453C255.284 36.9453 254.57 37.2298 254.125 37.7988C253.679 38.3678 253.457 39.2059 253.457 40.313V46H251.926V39.4131C251.926 38.8626 251.846 38.4049 251.685 38.04C251.53 37.6751 251.295 37.403 250.98 37.2236C250.67 37.0381 250.278 36.9453 249.802 36.9453C249.127 36.9453 248.586 37.0845 248.178 37.3628C247.77 37.6411 247.473 38.0555 247.287 38.606C247.108 39.1502 247.018 39.8213 247.018 40.6191V46H245.478V35.832H246.721L246.953 37.27H247.037C247.241 36.9175 247.498 36.6206 247.807 36.3794C248.116 36.1382 248.462 35.9557 248.846 35.832C249.229 35.7083 249.638 35.6465 250.071 35.6465C250.844 35.6465 251.49 35.7918 252.01 36.0825C252.535 36.367 252.916 36.8031 253.151 37.3906H253.234C253.568 36.8031 254.026 36.367 254.607 36.0825C255.189 35.7918 255.826 35.6465 256.518 35.6465Z" fill="white"/>
</svg>
