<svg width="458" height="39" viewBox="0 0 458 39" fill="none" xmlns="http://www.w3.org/2000/svg">
<path d="M34.0054 7.28711H4.85769C4.21348 7.28711 3.59566 7.54302 3.14014 7.99854C2.68462 8.45406 2.42871 9.07188 2.42871 9.71609V29.1479C2.42871 29.7921 2.68462 30.4099 3.14014 30.8654C3.59566 31.321 4.21348 31.5769 4.85769 31.5769H34.0054C34.6496 31.5769 35.2674 31.321 35.723 30.8654C36.1785 30.4099 36.4344 29.7921 36.4344 29.1479V9.71609C36.4344 9.07188 36.1785 8.45406 35.723 7.99854C35.2674 7.54302 34.6496 7.28711 34.0054 7.28711ZM31.3335 9.71609L19.4316 17.9503L7.52956 9.71609H31.3335ZM4.85769 29.1479V10.8213L18.7393 20.4279C18.9426 20.5689 19.1841 20.6445 19.4316 20.6445C19.679 20.6445 19.9205 20.5689 20.1238 20.4279L34.0054 10.8213V29.1479H4.85769Z" fill="white"/>
<path d="M98.5259 15.4474V30.4318H96.2563V15.4474H98.5259ZM97.4185 9.84192C97.7922 9.84192 98.1112 9.96497 98.3755 10.2111C98.6489 10.448 98.7856 10.8217 98.7856 11.3322C98.7856 11.8335 98.6489 12.2072 98.3755 12.4532C98.1112 12.6993 97.7922 12.8224 97.4185 12.8224C97.0265 12.8224 96.6984 12.6993 96.4341 12.4532C96.1789 12.2072 96.0513 11.8335 96.0513 11.3322C96.0513 10.8217 96.1789 10.448 96.4341 10.2111C96.6984 9.96497 97.0265 9.84192 97.4185 9.84192ZM110.434 15.174C112.211 15.174 113.556 15.6115 114.467 16.4865C115.379 17.3523 115.834 18.7469 115.834 20.67V30.4318H113.592V20.8204C113.592 19.5717 113.305 18.6375 112.731 18.0177C112.166 17.3979 111.295 17.088 110.12 17.088C108.461 17.088 107.294 17.5574 106.62 18.4962C105.945 19.435 105.608 20.7976 105.608 22.5841V30.4318H103.338V15.4474H105.17L105.512 17.6075H105.635C105.954 17.0789 106.36 16.6368 106.852 16.2814C107.344 15.9168 107.896 15.6434 108.506 15.4611C109.117 15.2697 109.76 15.174 110.434 15.174ZM127.182 17.2247H123.45V30.4318H121.18V17.2247H118.528V16.131L121.18 15.379V14.381C121.18 13.1232 121.367 12.1023 121.741 11.3185C122.114 10.5255 122.657 9.94218 123.368 9.56848C124.079 9.19478 124.944 9.00793 125.965 9.00793C126.54 9.00793 127.064 9.05806 127.538 9.15833C128.021 9.25859 128.444 9.37252 128.809 9.50012L128.221 11.2911C127.911 11.1909 127.56 11.0997 127.168 11.0177C126.786 10.9266 126.394 10.881 125.993 10.881C125.127 10.881 124.484 11.1635 124.065 11.7286C123.655 12.2846 123.45 13.1596 123.45 14.3536V15.4474H127.182V17.2247ZM142.864 22.9122C142.864 24.1427 142.704 25.241 142.385 26.2072C142.066 27.1733 141.606 27.9891 141.004 28.6544C140.403 29.3198 139.674 29.8302 138.817 30.1857C137.969 30.532 137.008 30.7052 135.932 30.7052C134.93 30.7052 134.009 30.532 133.17 30.1857C132.341 29.8302 131.621 29.3198 131.01 28.6544C130.409 27.9891 129.939 27.1733 129.602 26.2072C129.274 25.241 129.11 24.1427 129.11 22.9122C129.11 21.2716 129.388 19.8771 129.944 18.7286C130.5 17.5711 131.293 16.6915 132.323 16.09C133.362 15.4793 134.597 15.174 136.028 15.174C137.395 15.174 138.589 15.4793 139.61 16.09C140.64 16.7006 141.437 17.5848 142.002 18.7423C142.577 19.8907 142.864 21.2807 142.864 22.9122ZM131.461 22.9122C131.461 24.1154 131.621 25.159 131.94 26.0431C132.259 26.9272 132.751 27.6108 133.417 28.0939C134.082 28.5769 134.939 28.8185 135.987 28.8185C137.026 28.8185 137.878 28.5769 138.543 28.0939C139.218 27.6108 139.715 26.9272 140.034 26.0431C140.353 25.159 140.512 24.1154 140.512 22.9122C140.512 21.7182 140.353 20.6883 140.034 19.8224C139.715 18.9474 139.222 18.2729 138.557 17.799C137.892 17.325 137.03 17.088 135.973 17.088C134.415 17.088 133.271 17.603 132.542 18.6329C131.821 19.6629 131.461 21.0893 131.461 22.9122ZM167.897 20.4513C167.897 21.3172 167.797 22.1648 167.596 22.9943C167.405 23.8146 167.109 24.5574 166.708 25.2228C166.306 25.879 165.805 26.4031 165.204 26.795C164.611 27.187 163.909 27.3829 163.098 27.3829C162.25 27.3829 161.576 27.1368 161.075 26.6447C160.573 26.1525 160.273 25.5691 160.172 24.8947H160.049C159.703 25.6147 159.193 26.2117 158.518 26.6857C157.853 27.1505 157.032 27.3829 156.057 27.3829C154.635 27.3829 153.537 26.9135 152.762 25.9747C151.997 25.0268 151.614 23.769 151.614 22.2013C151.614 20.9799 151.855 19.8999 152.338 18.9611C152.831 18.0131 153.519 17.2703 154.403 16.7325C155.296 16.1857 156.349 15.9122 157.561 15.9122C158.372 15.9122 159.161 15.9806 159.926 16.1173C160.692 16.254 161.303 16.4044 161.758 16.5685L161.485 22.0782C161.476 22.4155 161.467 22.6753 161.458 22.8575C161.448 23.0307 161.444 23.1674 161.444 23.2677C161.444 24.2521 161.617 24.9174 161.963 25.2638C162.319 25.601 162.747 25.7697 163.249 25.7697C163.859 25.7697 164.37 25.5327 164.78 25.0587C165.199 24.5756 165.518 23.9331 165.737 23.131C165.956 22.3198 166.065 21.422 166.065 20.4376C166.065 18.6967 165.714 17.2111 165.012 15.9806C164.31 14.7501 163.34 13.8113 162.1 13.1642C160.87 12.517 159.452 12.1935 157.848 12.1935C156.253 12.1935 154.836 12.4441 153.596 12.9454C152.366 13.4467 151.322 14.1577 150.465 15.0782C149.618 15.9897 148.975 17.0743 148.538 18.3322C148.1 19.59 147.881 20.9799 147.881 22.5021C147.881 24.3615 148.209 25.9428 148.866 27.2462C149.531 28.5496 150.502 29.5431 151.778 30.2267C153.063 30.9012 154.626 31.2384 156.467 31.2384C157.579 31.2384 158.65 31.1154 159.68 30.8693C160.71 30.6232 161.631 30.3452 162.442 30.0353V31.8126C161.64 32.1499 160.742 32.4233 159.749 32.6329C158.755 32.8517 157.661 32.9611 156.467 32.9611C154.271 32.9611 152.393 32.5463 150.834 31.7169C149.276 30.8966 148.082 29.7117 147.252 28.1622C146.423 26.6128 146.008 24.7534 146.008 22.5841C146.008 20.825 146.277 19.2072 146.815 17.7306C147.362 16.254 148.146 14.9734 149.167 13.8888C150.196 12.8042 151.441 11.9656 152.899 11.3732C154.366 10.7716 156.016 10.4708 157.848 10.4708C159.808 10.4708 161.54 10.8764 163.043 11.6876C164.556 12.4897 165.741 13.6381 166.598 15.1329C167.464 16.6186 167.897 18.3914 167.897 20.4513ZM153.651 22.256C153.651 23.4682 153.892 24.3569 154.375 24.922C154.859 25.4871 155.528 25.7697 156.385 25.7697C157.443 25.7697 158.217 25.3732 158.709 24.5802C159.211 23.7872 159.498 22.7391 159.571 21.4357L159.735 17.8673C159.471 17.7853 159.147 17.7169 158.764 17.6622C158.39 17.5984 157.999 17.5665 157.588 17.5665C156.65 17.5665 155.889 17.7898 155.305 18.2365C154.731 18.6831 154.312 19.2618 154.047 19.9728C153.783 20.6837 153.651 21.4448 153.651 22.256ZM181.583 26.3302C181.583 27.2872 181.341 28.0939 180.858 28.7501C180.384 29.3973 179.7 29.8849 178.807 30.213C177.923 30.5411 176.866 30.7052 175.635 30.7052C174.587 30.7052 173.68 30.6232 172.915 30.4591C172.149 30.295 171.479 30.0626 170.905 29.7618V27.67C171.515 27.9708 172.245 28.2443 173.092 28.4904C173.94 28.7365 174.806 28.8595 175.69 28.8595C176.984 28.8595 177.923 28.6499 178.506 28.2306C179.09 27.8113 179.381 27.2417 179.381 26.5216C179.381 26.1115 179.263 25.7514 179.026 25.4415C178.798 25.1225 178.411 24.8172 177.864 24.5255C177.317 24.2247 176.56 23.8966 175.594 23.5411C174.637 23.1766 173.808 22.8165 173.106 22.4611C172.413 22.0965 171.875 21.6544 171.493 21.1349C171.119 20.6154 170.932 19.9409 170.932 19.1115C170.932 17.8445 171.443 16.8738 172.463 16.1993C173.493 15.5157 174.842 15.174 176.51 15.174C177.413 15.174 178.256 15.2651 179.04 15.4474C179.833 15.6206 180.571 15.8575 181.254 16.1583L180.489 17.9767C179.869 17.7124 179.208 17.4891 178.506 17.3068C177.805 17.1245 177.089 17.0333 176.36 17.0333C175.312 17.0333 174.505 17.2065 173.94 17.5529C173.384 17.8992 173.106 18.3732 173.106 18.9747C173.106 19.4396 173.234 19.8224 173.489 20.1232C173.753 20.424 174.172 20.7065 174.747 20.9708C175.321 21.2351 176.077 21.545 177.016 21.9005C177.955 22.2469 178.766 22.6069 179.45 22.9806C180.133 23.3452 180.657 23.7918 181.022 24.3204C181.396 24.84 181.583 25.5099 181.583 26.3302ZM197.428 30.4044L194.762 21.6818C194.644 21.3081 194.53 20.9435 194.42 20.588C194.32 20.2234 194.224 19.8771 194.133 19.549C194.051 19.2117 193.974 18.9018 193.901 18.6193C193.837 18.3276 193.782 18.0769 193.737 17.8673H193.641C193.605 18.0769 193.555 18.3276 193.491 18.6193C193.427 18.9018 193.349 19.2117 193.258 19.549C193.176 19.8862 193.085 20.2417 192.985 20.6154C192.885 20.9799 192.771 21.3491 192.643 21.7228L189.854 30.4044H187.297L183.168 15.42H185.52L187.68 23.6915C187.826 24.2384 187.963 24.7807 188.09 25.3185C188.227 25.8471 188.341 26.3484 188.432 26.8224C188.532 27.2872 188.605 27.6928 188.651 28.0392H188.76C188.815 27.8113 188.874 27.5379 188.938 27.2189C189.011 26.8999 189.088 26.5626 189.17 26.2072C189.262 25.8426 189.357 25.4825 189.458 25.1271C189.558 24.7625 189.658 24.4207 189.758 24.1017L192.52 15.42H194.967L197.633 24.088C197.77 24.5255 197.902 24.9812 198.03 25.4552C198.167 25.9292 198.29 26.3894 198.399 26.8361C198.508 27.2736 198.586 27.6655 198.631 28.0118H198.741C198.777 27.7019 198.846 27.3191 198.946 26.8634C199.046 26.4077 199.16 25.9064 199.288 25.3595C199.424 24.8126 199.566 24.2566 199.711 23.6915L201.899 15.42H204.209L200.067 30.4044H197.428ZM209.213 15.4474V30.4318H206.944V15.4474H209.213ZM208.106 9.84192C208.48 9.84192 208.799 9.96497 209.063 10.2111C209.336 10.448 209.473 10.8217 209.473 11.3322C209.473 11.8335 209.336 12.2072 209.063 12.4532C208.799 12.6993 208.48 12.8224 208.106 12.8224C207.714 12.8224 207.386 12.6993 207.122 12.4532C206.866 12.2072 206.739 11.8335 206.739 11.3322C206.739 10.8217 206.866 10.448 207.122 10.2111C207.386 9.96497 207.714 9.84192 208.106 9.84192ZM218.866 28.8458C219.239 28.8458 219.622 28.8139 220.014 28.7501C220.406 28.6863 220.725 28.6088 220.971 28.5177V30.2814C220.707 30.3999 220.338 30.5001 219.864 30.5822C219.399 30.6642 218.943 30.7052 218.497 30.7052C217.704 30.7052 216.984 30.5685 216.336 30.295C215.689 30.0125 215.17 29.5385 214.778 28.8732C214.395 28.2078 214.204 27.2872 214.204 26.1115V17.2247H212.071V16.1173L214.217 15.2286L215.12 11.9747H216.487V15.4474H220.875V17.2247H216.487V26.0431C216.487 26.9819 216.701 27.6837 217.129 28.1486C217.567 28.6134 218.146 28.8458 218.866 28.8458ZM230.008 30.7052C228.659 30.7052 227.47 30.4272 226.44 29.8712C225.41 29.3152 224.608 28.4676 224.034 27.3282C223.459 26.1889 223.172 24.7534 223.172 23.0216C223.172 21.2078 223.473 19.7267 224.075 18.5782C224.685 17.4207 225.524 16.5639 226.59 16.0079C227.657 15.4519 228.869 15.174 230.227 15.174C230.974 15.174 231.694 15.2514 232.387 15.4064C233.089 15.5522 233.663 15.7391 234.11 15.9669L233.426 17.8673C232.971 17.685 232.442 17.521 231.84 17.3751C231.248 17.2293 230.692 17.1564 230.172 17.1564C229.133 17.1564 228.267 17.3797 227.575 17.8263C226.891 18.2729 226.376 18.9292 226.03 19.795C225.693 20.6609 225.524 21.7273 225.524 22.9943C225.524 24.2065 225.688 25.241 226.016 26.0978C226.353 26.9545 226.85 27.6108 227.506 28.0665C228.172 28.5131 229.001 28.7365 229.995 28.7365C230.788 28.7365 231.503 28.6544 232.141 28.4904C232.779 28.3172 233.358 28.1167 233.877 27.8888V29.9122C233.376 30.1674 232.816 30.3634 232.196 30.5001C231.585 30.6368 230.856 30.7052 230.008 30.7052ZM239.702 9.15833V15.5157C239.702 15.8803 239.693 16.2495 239.674 16.6232C239.656 16.9878 239.624 17.325 239.579 17.6349H239.729C240.039 17.1062 240.431 16.6642 240.905 16.3087C241.388 15.9441 241.935 15.6707 242.545 15.4884C243.156 15.297 243.803 15.2013 244.487 15.2013C245.69 15.2013 246.693 15.3927 247.495 15.7755C248.306 16.1583 248.912 16.7508 249.313 17.5529C249.723 18.3549 249.928 19.394 249.928 20.67V30.4318H247.686V20.8204C247.686 19.5717 247.399 18.6375 246.825 18.0177C246.26 17.3979 245.389 17.088 244.213 17.088C243.101 17.088 242.213 17.3022 241.547 17.7306C240.891 18.1499 240.417 18.7697 240.125 19.59C239.843 20.4103 239.702 21.4129 239.702 22.5978V30.4318H237.432V9.15833H239.702ZM256.874 9.15833V14.4767C256.874 15.0874 256.855 15.6798 256.819 16.254C256.792 16.8282 256.769 17.2749 256.75 17.5939H256.874C257.284 16.9194 257.876 16.3497 258.651 15.8849C259.426 15.42 260.415 15.1876 261.618 15.1876C263.495 15.1876 264.99 15.8393 266.102 17.1427C267.223 18.437 267.784 20.3647 267.784 22.9259C267.784 24.6121 267.528 26.034 267.018 27.1915C266.508 28.3491 265.788 29.2241 264.858 29.8165C263.928 30.409 262.83 30.7052 261.563 30.7052C260.378 30.7052 259.403 30.4865 258.637 30.049C257.881 29.6023 257.297 29.06 256.887 28.422H256.709L256.245 30.4318H254.604V9.15833H256.874ZM261.249 17.088C260.164 17.088 259.303 17.3022 258.665 17.7306C258.027 18.1499 257.566 18.7879 257.284 19.6447C257.01 20.4923 256.874 21.5678 256.874 22.8712V22.9943C256.874 24.881 257.188 26.3256 257.817 27.3282C258.446 28.3217 259.59 28.8185 261.249 28.8185C262.643 28.8185 263.687 28.3081 264.379 27.2872C265.081 26.2664 265.432 24.8081 265.432 22.9122C265.432 20.9799 265.086 19.5262 264.393 18.5509C263.709 17.5756 262.661 17.088 261.249 17.088ZM284.668 22.9122C284.668 24.1427 284.509 25.241 284.19 26.2072C283.871 27.1733 283.411 27.9891 282.809 28.6544C282.208 29.3198 281.478 29.8302 280.622 30.1857C279.774 30.532 278.812 30.7052 277.737 30.7052C276.734 30.7052 275.814 30.532 274.975 30.1857C274.146 29.8302 273.426 29.3198 272.815 28.6544C272.213 27.9891 271.744 27.1733 271.407 26.2072C271.079 25.241 270.915 24.1427 270.915 22.9122C270.915 21.2716 271.193 19.8771 271.749 18.7286C272.305 17.5711 273.097 16.6915 274.127 16.09C275.167 15.4793 276.402 15.174 277.833 15.174C279.2 15.174 280.394 15.4793 281.415 16.09C282.444 16.7006 283.242 17.5848 283.807 18.7423C284.381 19.8907 284.668 21.2807 284.668 22.9122ZM273.266 22.9122C273.266 24.1154 273.426 25.159 273.745 26.0431C274.064 26.9272 274.556 27.6108 275.221 28.0939C275.887 28.5769 276.743 28.8185 277.792 28.8185C278.831 28.8185 279.683 28.5769 280.348 28.0939C281.023 27.6108 281.519 26.9272 281.838 26.0431C282.157 25.159 282.317 24.1154 282.317 22.9122C282.317 21.7182 282.157 20.6883 281.838 19.8224C281.519 18.9474 281.027 18.2729 280.362 17.799C279.696 17.325 278.835 17.088 277.778 17.088C276.219 17.088 275.075 17.603 274.346 18.6329C273.626 19.6629 273.266 21.0893 273.266 22.9122ZM294.198 15.2013C295.984 15.2013 297.31 15.6023 298.176 16.4044C299.042 17.2065 299.475 18.4871 299.475 20.2462V30.4318H297.821L297.383 28.2169H297.274C296.855 28.7638 296.417 29.2241 295.961 29.5978C295.506 29.9624 294.977 30.2404 294.375 30.4318C293.783 30.6141 293.054 30.7052 292.188 30.7052C291.277 30.7052 290.465 30.5457 289.754 30.2267C289.053 29.9077 288.497 29.4246 288.086 28.7775C287.685 28.1303 287.485 27.31 287.485 26.3165C287.485 24.8217 288.077 23.6733 289.262 22.8712C290.447 22.0691 292.252 21.6316 294.676 21.5587L297.26 21.4493V20.5333C297.26 19.2391 296.982 18.3322 296.426 17.8126C295.87 17.2931 295.086 17.0333 294.075 17.0333C293.291 17.0333 292.543 17.1473 291.833 17.3751C291.122 17.603 290.447 17.8719 289.809 18.1818L289.112 16.4591C289.786 16.1128 290.561 15.8165 291.436 15.5704C292.311 15.3243 293.232 15.2013 294.198 15.2013ZM297.233 23.049L294.95 23.1447C293.081 23.2176 291.764 23.5229 290.999 24.0607C290.233 24.5984 289.85 25.3595 289.85 26.3439C289.85 27.2006 290.11 27.8341 290.629 28.2443C291.149 28.6544 291.837 28.8595 292.694 28.8595C294.025 28.8595 295.114 28.4904 295.961 27.7521C296.809 27.0138 297.233 25.9064 297.233 24.4298V23.049ZM310.959 15.174C311.26 15.174 311.575 15.1922 311.903 15.2286C312.231 15.256 312.523 15.297 312.778 15.3517L312.491 17.4572C312.245 17.3934 311.971 17.3432 311.67 17.3068C311.37 17.2703 311.087 17.2521 310.823 17.2521C310.221 17.2521 309.652 17.3751 309.114 17.6212C308.585 17.8582 308.12 18.2045 307.719 18.6603C307.318 19.1069 307.004 19.6492 306.776 20.2872C306.548 20.9161 306.434 21.618 306.434 22.3927V30.4318H304.151V15.4474H306.038L306.284 18.2091H306.379C306.689 17.6531 307.063 17.1473 307.5 16.6915C307.938 16.2267 308.444 15.8575 309.018 15.5841C309.601 15.3107 310.249 15.174 310.959 15.174ZM320.94 30.7052C319.044 30.7052 317.54 30.0581 316.428 28.7638C315.325 27.4695 314.774 25.5463 314.774 22.9943C314.774 20.4148 315.339 18.4689 316.469 17.1564C317.599 15.8348 319.103 15.174 320.981 15.174C321.774 15.174 322.467 15.2788 323.059 15.4884C323.652 15.698 324.162 15.9806 324.59 16.3361C325.019 16.6824 325.379 17.0789 325.67 17.5255H325.834C325.798 17.243 325.762 16.8556 325.725 16.3634C325.689 15.8712 325.67 15.4702 325.67 15.1603V9.15833H327.94V30.4318H326.108L325.766 28.299H325.67C325.388 28.7456 325.028 29.1512 324.59 29.5157C324.162 29.8803 323.647 30.172 323.045 30.3907C322.453 30.6004 321.751 30.7052 320.94 30.7052ZM321.295 28.8185C322.9 28.8185 324.034 28.3628 324.7 27.4513C325.365 26.5398 325.698 25.1863 325.698 23.3907V22.9806C325.698 21.0756 325.379 19.6128 324.741 18.5919C324.112 17.5711 322.963 17.0607 321.295 17.0607C319.901 17.0607 318.857 17.5984 318.165 18.674C317.472 19.7404 317.125 21.1987 317.125 23.049C317.125 24.8901 317.467 26.312 318.151 27.3146C318.844 28.3172 319.892 28.8185 321.295 28.8185ZM331.481 23.924V21.9005H338.262V23.924H331.481ZM348.817 15.174C350.685 15.174 352.176 15.8165 353.288 17.1017C354.4 18.3868 354.956 20.3191 354.956 22.8986C354.956 24.603 354.7 26.034 354.19 27.1915C353.68 28.3491 352.959 29.2241 352.03 29.8165C351.109 30.409 350.02 30.7052 348.762 30.7052C347.969 30.7052 347.272 30.6004 346.67 30.3907C346.069 30.1811 345.554 29.8986 345.125 29.5431C344.697 29.1876 344.342 28.8003 344.059 28.381H343.895C343.922 28.7365 343.954 29.1648 343.991 29.6661C344.036 30.1674 344.059 30.6049 344.059 30.9786V37.131H341.776V15.4474H343.649L343.95 17.6622H344.059C344.351 17.2065 344.706 16.7918 345.125 16.4181C345.545 16.0353 346.055 15.7345 346.657 15.5157C347.267 15.2879 347.987 15.174 348.817 15.174ZM348.42 17.088C347.381 17.088 346.543 17.2885 345.905 17.6896C345.276 18.0906 344.816 18.6922 344.524 19.4943C344.232 20.2872 344.077 21.2853 344.059 22.4884V22.9259C344.059 24.1928 344.196 25.2638 344.469 26.1388C344.752 27.0138 345.212 27.6792 345.85 28.1349C346.497 28.5906 347.363 28.8185 348.448 28.8185C349.377 28.8185 350.152 28.5678 350.772 28.0665C351.392 27.5652 351.852 26.868 352.153 25.9747C352.463 25.0724 352.618 24.0379 352.618 22.8712C352.618 21.103 352.271 19.6993 351.579 18.6603C350.895 17.6121 349.842 17.088 348.42 17.088ZM361.204 30.4318H358.92V9.15833H361.204V30.4318ZM378.375 15.4474V30.4318H376.516L376.188 28.3263H376.065C375.755 28.8458 375.354 29.2833 374.862 29.6388C374.37 29.9943 373.814 30.2586 373.194 30.4318C372.583 30.6141 371.931 30.7052 371.239 30.7052C370.054 30.7052 369.06 30.5138 368.258 30.131C367.456 29.7482 366.85 29.1557 366.44 28.3536C366.039 27.5516 365.838 26.5216 365.838 25.2638V15.4474H368.135V25.0997C368.135 26.3484 368.418 27.2827 368.983 27.9025C369.548 28.5131 370.409 28.8185 371.567 28.8185C372.679 28.8185 373.563 28.6088 374.219 28.1896C374.885 27.7703 375.363 27.1551 375.655 26.3439C375.946 25.5236 376.092 24.521 376.092 23.3361V15.4474H378.375ZM392.868 26.3302C392.868 27.2872 392.626 28.0939 392.143 28.7501C391.669 29.3973 390.986 29.8849 390.092 30.213C389.208 30.5411 388.151 30.7052 386.92 30.7052C385.872 30.7052 384.965 30.6232 384.2 30.4591C383.434 30.295 382.764 30.0626 382.19 29.7618V27.67C382.801 27.9708 383.53 28.2443 384.377 28.4904C385.225 28.7365 386.091 28.8595 386.975 28.8595C388.269 28.8595 389.208 28.6499 389.792 28.2306C390.375 27.8113 390.667 27.2417 390.667 26.5216C390.667 26.1115 390.548 25.7514 390.311 25.4415C390.083 25.1225 389.696 24.8172 389.149 24.5255C388.602 24.2247 387.846 23.8966 386.879 23.5411C385.922 23.1766 385.093 22.8165 384.391 22.4611C383.698 22.0965 383.161 21.6544 382.778 21.1349C382.404 20.6154 382.217 19.9409 382.217 19.1115C382.217 17.8445 382.728 16.8738 383.749 16.1993C384.778 15.5157 386.127 15.174 387.795 15.174C388.698 15.174 389.541 15.2651 390.325 15.4474C391.118 15.6206 391.856 15.8575 392.54 16.1583L391.774 17.9767C391.154 17.7124 390.493 17.4891 389.792 17.3068C389.09 17.1245 388.374 17.0333 387.645 17.0333C386.597 17.0333 385.79 17.2065 385.225 17.5529C384.669 17.8992 384.391 18.3732 384.391 18.9747C384.391 19.4396 384.519 19.8224 384.774 20.1232C385.038 20.424 385.458 20.7065 386.032 20.9708C386.606 21.2351 387.362 21.545 388.301 21.9005C389.24 22.2469 390.051 22.6069 390.735 22.9806C391.418 23.3452 391.943 23.7918 392.307 24.3204C392.681 24.84 392.868 25.5099 392.868 26.3302ZM396.176 29.0099C396.176 28.3719 396.331 27.9207 396.641 27.6564C396.951 27.3829 397.329 27.2462 397.776 27.2462C398.241 27.2462 398.633 27.3829 398.952 27.6564C399.271 27.9207 399.43 28.3719 399.43 29.0099C399.43 29.6388 399.271 30.0991 398.952 30.3907C398.633 30.6733 398.241 30.8146 397.776 30.8146C397.329 30.8146 396.951 30.6733 396.641 30.3907C396.331 30.0991 396.176 29.6388 396.176 29.0099ZM409.875 30.7052C408.527 30.7052 407.337 30.4272 406.307 29.8712C405.277 29.3152 404.475 28.4676 403.901 27.3282C403.327 26.1889 403.04 24.7534 403.04 23.0216C403.04 21.2078 403.34 19.7267 403.942 18.5782C404.553 17.4207 405.391 16.5639 406.458 16.0079C407.524 15.4519 408.736 15.174 410.094 15.174C410.842 15.174 411.562 15.2514 412.254 15.4064C412.956 15.5522 413.53 15.7391 413.977 15.9669L413.293 17.8673C412.838 17.685 412.309 17.521 411.708 17.3751C411.115 17.2293 410.559 17.1564 410.04 17.1564C409 17.1564 408.135 17.3797 407.442 17.8263C406.758 18.2729 406.243 18.9292 405.897 19.795C405.56 20.6609 405.391 21.7273 405.391 22.9943C405.391 24.2065 405.555 25.241 405.883 26.0978C406.221 26.9545 406.717 27.6108 407.374 28.0665C408.039 28.5131 408.868 28.7365 409.862 28.7365C410.655 28.7365 411.37 28.6544 412.008 28.4904C412.646 28.3172 413.225 28.1167 413.745 27.8888V29.9122C413.243 30.1674 412.683 30.3634 412.063 30.5001C411.452 30.6368 410.723 30.7052 409.875 30.7052ZM430.219 22.9122C430.219 24.1427 430.06 25.241 429.741 26.2072C429.422 27.1733 428.961 27.9891 428.36 28.6544C427.758 29.3198 427.029 29.8302 426.172 30.1857C425.325 30.532 424.363 30.7052 423.288 30.7052C422.285 30.7052 421.364 30.532 420.526 30.1857C419.696 29.8302 418.976 29.3198 418.366 28.6544C417.764 27.9891 417.295 27.1733 416.958 26.2072C416.629 25.241 416.465 24.1427 416.465 22.9122C416.465 21.2716 416.743 19.8771 417.299 18.7286C417.855 17.5711 418.648 16.6915 419.678 16.09C420.717 15.4793 421.952 15.174 423.383 15.174C424.75 15.174 425.944 15.4793 426.965 16.09C427.995 16.7006 428.793 17.5848 429.358 18.7423C429.932 19.8907 430.219 21.2807 430.219 22.9122ZM418.817 22.9122C418.817 24.1154 418.976 25.159 419.295 26.0431C419.614 26.9272 420.107 27.6108 420.772 28.0939C421.437 28.5769 422.294 28.8185 423.342 28.8185C424.381 28.8185 425.234 28.5769 425.899 28.0939C426.573 27.6108 427.07 26.9272 427.389 26.0431C427.708 25.159 427.868 24.1154 427.868 22.9122C427.868 21.7182 427.708 20.6883 427.389 19.8224C427.07 18.9474 426.578 18.2729 425.913 17.799C425.247 17.325 424.386 17.088 423.329 17.088C421.77 17.088 420.626 17.603 419.897 18.6329C419.177 19.6629 418.817 21.0893 418.817 22.9122ZM450.413 15.174C452.062 15.174 453.306 15.6069 454.145 16.4728C454.984 17.3295 455.403 18.7104 455.403 20.6154V30.4318H453.161V20.7247C453.161 19.5125 452.896 18.6056 452.368 18.004C451.848 17.3934 451.073 17.088 450.043 17.088C448.594 17.088 447.542 17.5073 446.885 18.3458C446.229 19.1844 445.901 20.4194 445.901 22.0509V30.4318H443.645V20.7247C443.645 19.9135 443.527 19.2391 443.29 18.7013C443.062 18.1635 442.715 17.7625 442.25 17.4982C441.795 17.2247 441.216 17.088 440.514 17.088C439.521 17.088 438.723 17.2931 438.122 17.7032C437.52 18.1134 437.083 18.7241 436.809 19.5353C436.545 20.3374 436.413 21.3263 436.413 22.5021V30.4318H434.143V15.4474H435.975L436.317 17.5665H436.44C436.741 17.047 437.119 16.6095 437.575 16.254C438.03 15.8986 438.541 15.6297 439.106 15.4474C439.671 15.2651 440.273 15.174 440.911 15.174C442.05 15.174 443.002 15.3881 443.768 15.8165C444.543 16.2358 445.103 16.8784 445.45 17.7443H445.573C446.065 16.8784 446.739 16.2358 447.596 15.8165C448.453 15.3881 449.392 15.174 450.413 15.174Z" fill="white"/>
</svg>
