<svg xmlns="http://www.w3.org/2000/svg" width="230" height="198" fill="none"><path fill="#263238" d="M142.87 8.72c5.89-6.91 15.98-8.58 25.73-6.6 9.76 1.97 21.45 6.89 22.51 23.2.88 13.26-3.2 26.18-3.2 40.96 0 14.79 16.74 50.8-10.04 68.38-24.06 15.79-72.82 1.29-74.32-31.21-1.18-25.76 29.37-49.58 32.59-59.77 3.21-10.2.27-27.4 6.73-34.96Z"/><path fill="#263238" d="M138.47 23.26c-.18 7.37-1.25 14.83-4.26 21.78a20.89 20.89 0 0 1-3.04 4.9 75.56 75.56 0 0 1-3.7 4.25c-2.53 2.76-5.03 5.5-7.45 8.34a76 76 0 0 0-11.78 18.53 58.25 58.25 0 0 0-4.68 21.3c-.3-3.7-.19-7.42.33-11.1a54.7 54.7 0 0 1 2.85-10.82 67.45 67.45 0 0 1 11.63-19.23c2.42-2.88 4.98-5.64 7.54-8.37 2.56-2.73 5.15-5.33 6.73-8.52a46.86 46.86 0 0 0 3.7-10.27 87.81 87.81 0 0 0 2.13-10.8Zm51.97 13.2c-.18 7.52-.66 15.03-.46 22.5.1 3.71.4 7.42.94 11.1.56 3.63 1.64 7.25 2.55 10.91.9 3.67 1.71 7.39 2.3 11.13.58 3.77.83 7.58.73 11.4a40.4 40.4 0 0 1-2.13 11.23 28.55 28.55 0 0 1-6.27 9.52 30.11 30.11 0 0 0 5.32-9.84c1-3.56 1.5-7.25 1.47-10.95a96.39 96.39 0 0 0-3.47-22.02c-.85-3.65-1.94-7.27-2.46-11.12a72.58 72.58 0 0 1-.57-11.37c.22-7.53.9-15.04 2.05-22.5Z"/><path fill="#EB9481" d="M151.7 99.7c-24.5 26.97-44.5 39.92-64.2 39.92-18.74 0-58.77-45.5-61.71-51.49-2.54-5.18 30.33-33.5 35.38-29.97 8.52 5.9 35.85 40.06 38.75 40.22 2.9.16 13.57-6.9 39.27-18.93 15.62-7.3 29.55 1.55 12.5 20.25Z"/><path fill="#EB9481" d="M29.6 92.62C26 88.72 10.9 69.26 7.9 62.9c-3-6.35-10.25-25.25-5.62-28.03 4.63-2.78 7.19 2.58 7.19 2.58S7.67 29 12.59 26.63c4.92-2.38 8.63 6.09 8.63 6.09s-1.21-8.82 3.86-10.85c5.07-2.02 7.39 7.14 7.39 7.14s-1.5-8.02 3.39-7.92c5.87.11 6.94 15.2 10.77 21.97.86 1.54 19.8 29.83 19.8 29.83L29.6 92.62Z"/><path fill="#263238" d="M32.27 28.23c.82 11.1 3.1 15.81 9.58 24.62.13.17-.1.4-.24.24-7.17-8.06-10.88-13.55-9.9-24.85.07-.55.51-.54.56 0Zm-11.08 3.61c1.85 11.46 4.26 16.59 10.43 26.32.08.13-.14.3-.24.17-6.83-9.05-10.4-14.62-10.76-26.3-.02-.54.48-.72.57-.19ZM9.81 37.95c2.6 10.96 5.02 16.7 12.2 25.37.17.22-.12.48-.3.29-8.18-8.14-11.25-15.29-12.22-25.57-.06-.68.16-.78.32-.1Z"/><path fill="#EB9481" d="M74.88 75.6s-.25-13.95-1.7-20.05c-1.47-6.1-15.22-26.84-19.92-24.11-6 3.52-.4 17.04 3.2 23.33 0 0-13.85 8.14-11.97 18.73 1.89 10.58 30.38 2.1 30.38 2.1Z"/><path fill="#263238" d="M51.93 32.94c-3.2 7.16 2.13 15.1 5.17 21.43a.65.65 0 0 1-.47.95c-5.6 3.8-12.4 10.78-12.48 17.92a.16.16 0 0 1-.32 0C42.9 65.57 49 58.16 55.38 54.4c-3.2-6.47-8.17-14.65-3.51-21.52l.06.06Z"/><path fill="#FFC727" d="m109.45 90.54 19.69 36.73s26.7-25.92 30.95-36.73c4.26-10.81-.33-18.66-19.32-12.88a166.24 166.24 0 0 0-31.32 12.88Z"/><path fill="#263238" d="M133.69 119.6c-.97-1.98-1.82-4.04-2.84-6.02a253.1 253.1 0 0 0-3.08-5.88c-2.13-3.92-4.26-7.85-6.47-11.72a141.42 141.42 0 0 0-3.95-6.39c-.06-.1-.24 0-.19.08 3.62 8.08 8 15.82 12.36 23.52 1.27 2.22 2.7 4.34 4.03 6.54.04.05.19-.05.14-.12Z"/><path fill="#263238" d="M160.1 90.54c-4.27 10.81-30.96 36.73-30.96 36.73l-13.26-24.7 43.74-24.2c2.52 2.62 2.49 7.07.47 12.17Z"/><path fill="#FFC727" d="M113.94 152.38s-10.83 25.9-7 45.6h119.32c-3.87-53.56-30.58-99.6-46.35-114.5-12.72-12.02-26.11-10.94-35.43-4.8-2.2 1.46-26.41 34.92-29.03 40.21-10.4 20.9-1.51 33.48-1.51 33.48Z"/><path fill="#EB9481" d="M145.3 77.1s-7.45 21.45-3.12 22.57c10.75 2.77 25.19-14.8 26.05-16.59.22-.46 1.17-12.46 1.89-21.8l.8-10.92-26.54 9.1.85 16.46.08 1.19Z"/><path fill="#263238" d="m144.34 59.47.85 16.45c5.4-.75 17.28-3.68 24.88-14.64.46-6.01.81-10.92.81-10.92l-3.32 1.06-23.22 8.05Z"/><path fill="#EB9481" d="M124.57 36.43c-.32 8.36.5 15.12 2.54 19.62a22.8 22.8 0 0 0 19.8 13.35c3.2.12 12.4-.72 19.06-5.79 5.18-3.94 8.3-11.05 10.07-23.54 4.05-28.57-9.02-38.18-21.9-39.33-12.88-1.15-28.5 6.86-29.57 35.69Z"/><path fill="#263238" d="M131.95 30.06c.67-.1 1.29-.3 1.94-.44a3.3 3.3 0 0 0 1.9-.82 1.07 1.07 0 0 0 0-1.26 2.56 2.56 0 0 0-2.5-.56c-.93.14-1.76.63-2.34 1.35a1.06 1.06 0 0 0-.1 1.21 1.07 1.07 0 0 0 1.1.52Zm18.82.71c-.65-.12-1.3-.27-1.94-.45a3.2 3.2 0 0 1-1.9-.83 1.06 1.06 0 0 1 0-1.26 2.54 2.54 0 0 1 2.53-.54 3.8 3.8 0 0 1 2.35 1.37 1.07 1.07 0 0 1-.4 1.63 1 1 0 0 1-.64.08Zm-4.71 7.2c0-.07.15.1.15.18-.16 1.95 0 4.26 1.74 4.96v.11c-2.17-.4-2.34-3.43-1.89-5.25Z"/><path fill="#263238" d="M147.92 36c3.2-.09 3.1 6.25.17 6.34-2.94.08-2.78-6.27-.17-6.34Z"/><path fill="#263238" d="M149.16 36.35c.55.36 1.07 1 1.75 1.07.68.06 1.36-.58 1.88-1.22.05-.06.1 0 .1.08 0 1.21-.47 2.46-1.78 2.63-1.3.17-2.02-.94-2.32-2.13-.05-.26.15-.58.37-.43Zm-13.59.79c0-.08-.15.1-.15.17 0 1.97-.2 4.26-1.98 4.88-.05 0-.05.12 0 .1 2.19-.3 2.5-3.3 2.13-5.15Z"/><path fill="#263238" d="M133.82 35.08c-3.2-.24-3.41 6.1-.48 6.32 2.92.22 3.13-6.1.48-6.32Z"/><path fill="#263238" d="M132.53 35.46c-.52.32-1.07.9-1.63.92-.57.02-1.19-.69-1.6-1.36 0-.08-.1 0-.1.06-.08 1.22.26 2.49 1.42 2.77 1.16.29 1.87-.75 2.2-1.95.03-.23-.13-.57-.3-.44Zm13.34 17.76c-.46.48-.9 1.13-1.6 1.22a5.47 5.47 0 0 1-2.18-.43c-.02 0-.04 0-.05.02a.06.06 0 0 0 0 .09 2.66 2.66 0 0 0 2.54.98 2.13 2.13 0 0 0 1.48-1.8.1.1 0 0 0-.19-.08Zm-8.02-7.27s-.47 2.93-.49 4.31c0 .13.33.2.8.24h.05a6.58 6.58 0 0 0 6.4-2.33c.1-.12-.08-.27-.2-.19a9.97 9.97 0 0 1-6.05 1.6c-.08-.4.97-4.98.75-5a11.8 11.8 0 0 0-3.2.64c.8-6.12 2.57-12.06 3.26-18.17 0-.21-.29-.29-.35-.1-2.3 6.1-3.37 13.13-4.36 19.42-.08.8 2.8-.19 3.4-.42Z"/><path fill="#263238" d="M139.04 49.77a7.27 7.27 0 0 0 2.73 2.47c.61.3 1.3.4 1.96.28 1.46-.27 1.6-1.58 1.43-2.72a8.3 8.3 0 0 0-.51-1.76 9.4 9.4 0 0 1-5.6 1.73Z"/><path fill="#FF98B9" d="M141.77 52.24c.61.3 1.3.4 1.96.28 1.46-.27 1.6-1.58 1.43-2.72a3.37 3.37 0 0 0-3.39 2.44Z"/><path fill="#263238" d="M175.52 37.5c-3.15.1-12.06-7.74-13.68-22.8 0 0 2.4 13.42 3.59 15.3 1.2 1.89-4.99-4.42-6.47-16.54 0 0-6.28 5.47-11.88 7.6-5.6 2.14-9.11 2.41-9.6 2.03-.47-.38 7.76-3.81 9.8-6.65 0 0-14.62 8.52-21.6 9.67-.81.13.55-12.45 10.79-20.54 10.23-8.1 24.3-6.08 29.35-2.03 0 0 5.52.29 12.17 7.8 6.65 7.5.9 26.05-2.47 26.16Z"/><path fill="#EB9481" d="M171.37 42.1s5.85-9.3 10.04-7.25c4.19 2.04.1 15.3-4.6 17.32a4.86 4.86 0 0 1-6.65-2.3l1.21-7.77Z"/><path fill="#263238" d="M180.14 38.65c.09 0 .1.1 0 .13-3.3 1.52-4.9 4.73-5.99 8.02.95-1.3 2.27-2.04 4-.94.08.06 0 .2-.09.18a3.01 3.01 0 0 0-3.2 1.22c-.57.86-1.05 1.78-1.44 2.74-.14.3-.7.18-.59-.17v-.09c-.3-4.3 2.74-10.46 7.31-11.09Z"/><path fill="#EB9481" d="M189.14 89.32c11.8 13.63 44.89 62.95 37.22 76.27-7.36 12.79-24.05 16.39-33.66-.78-6.91-12.29-18.53-48.93-21.42-66.5-2.35-14.24 6.95-21.59 17.86-8.99Z"/><path fill="#FFC727" d="m178.12 132.99 39.11-14.37s-21.95-30.05-32.06-35.77c-10.11-5.72-18.53-2.27-15.44 17.34a165.08 165.08 0 0 0 8.39 32.8Z"/><path fill="#263238" d="M210.29 113.04c-2.13.69-4.26 1.24-6.4 1.97a477.26 477.26 0 0 0-18.75 7.02 136.9 136.9 0 0 0-6.9 3.01c-.11 0-.07.22 0 .2 8.52-2.46 16.78-5.72 25-8.97 2.4-.94 4.68-2.13 7.04-3.07.16-.05.08-.2 0-.16Z"/><path fill="#263238" d="M180.32 132.07c-.77.17-1.53.4-2.27.7-1.06-2.3-3.59-12.47-4.17-15.08-1.17-5.2-2.13-10.45-3.36-15.65 0-.15-.29-.1-.27 0 .37 2.89.81 5.77 1.32 8.62a52.89 52.89 0 0 1-1.51-4.21l-.03-.01H170l-.03.03v.06a42.2 42.2 0 0 0 1.78 5.09c.41 5.33 5.26 22.25 5.4 22.19 1.1-.5 2.16-1.06 3.2-1.67.11.03.11-.08-.03-.07Z"/><path fill="#A6A6A6" d="m160.98 31.8-11.13 47.52c-.48 1.4.23 2.52 1.6 2.5l21.24 4.32a3.94 3.94 0 0 0 3.35-2.58l11.13-47.52c.48-1.4-.23-2.51-1.6-2.48l-21.25-4.34a3.94 3.94 0 0 0-3.34 2.58Z"/><path fill="#DBDBDB" d="m162.8 32.07-11.1 47.52c-.48 1.4.23 2.51 1.6 2.5l21.25 4.32a3.95 3.95 0 0 0 3.34-2.57L189 36.32c.47-1.4-.24-2.52-1.6-2.5l-21.25-4.33a3.98 3.98 0 0 0-3.34 2.58Z"/><path fill="#263238" d="M169.53 34.11a2.13 2.13 0 1 1-2.07-2.07 2.08 2.08 0 0 1 2.07 2.07Z"/><path fill="#EB9481" d="M198.38 169.11c6.91 12.78 25.21 5.5 27.98-3.52 6.5-21.14 2.47-56.3-1.4-75.92-1.25-6.32-44.16 0-43.9 6.82.3 8.26 3.77 47.48 17.32 72.62Z"/><path fill="#EB9481" d="M224.47 99.05a66.6 66.6 0 0 0 .39-28.36c-2.26-10.21-9.64-31.88-39.32-41.54-7.04-2.3-18.7-.59-8.52 7.34 7.2 5.63 13.46 7.03 17.04 11.08 0 0-14.57 3.94-16.6 11.08a137.58 137.58 0 0 0-3.97 19.04c1.14.43 2.31.79 3.5 1.07a28.32 28.32 0 0 0 4.1 17.77l43.38 2.52Z"/><path fill="#EB9481" d="M221.14 61.29c-4.4-3.2-13.85-10-23.53-12.79-10.74-3.2-32.24-6.28-34.48 1.66-1.64 5.82 6.47 7.75 6.47 7.75s-9.17.58-9.5 6.16c-.3 5.09 6.06 6.2 6.06 6.2s-5.5 1.3-4.84 6.27c.79 5.96 12.2 2.25 18.21 7.6 1.36 1.17 41.61-22.85 41.61-22.85Z"/><path fill="#263238" d="M196.18 60.36c-4.64-2.39-16.6-5.08-26.42-2.64-.22 0-.3.24-.08.24 8.9-.24 17.79.6 26.48 2.5.06.02.08-.08.02-.1Zm-3.47 10.74c-4.26-1.64-16.67-3.88-26.53-1.07-.23.07-.3.27-.08.26 8.88-.71 17.82-.4 26.63.91.02 0 .03 0 .04-.02v-.04a.05.05 0 0 0-.02-.03.06.06 0 0 0-.04-.01Zm1.75 89.1c-.32-1.06-.63-2.13-.97-3.1-.7-2.13-1.31-4.26-1.93-6.39a274.41 274.41 0 0 1-3.52-12.93c-2.1-8.66-3.7-17.44-4.78-26.29-.3-2.45-.55-4.9-.82-7.35-.26-2.45-.35-5-.82-7.46 0-.12-1.25-2-1.74-2.92a27.6 27.6 0 0 1-2.97-9.5.07.07 0 0 0-.08 0 .08.08 0 0 0-.02.04c-.14 2.52.18 5.04.93 7.45a13.17 13.17 0 0 0 3.3 5.33c0 .32.08 4.26.2 6.47.14 2.2.34 4.4.58 6.6.5 4.4 1.12 8.8 1.9 13.19 1.52 8.85 3.63 17.6 6.33 26.17 0 .14.1.28.14.42v.95a22.28 22.28 0 0 0 1.37 7c.01.02.02.02.04.02h.04c0-.02.02-.02.03-.04l.01-.03a30.33 30.33 0 0 1-.77-4.73l-.2-1.62 1.82 5.17c.43 1.19.86 2.35 1.35 3.51.5 1.16.88 2.3 1.45 3.37 0 .08.17 0 .15-.07-.27-1.14-.7-2.18-1.02-3.26Z"/></svg>