<svg xmlns="http://www.w3.org/2000/svg" width="217" height="155" fill="none"><path fill="#EBEBEB" d="M209.01 5.92H7.39V154.7H209V5.92Z"/><path fill="#263238" d="M211.23 5.51h-.75V112h.75V5.5Z"/><path fill="#263238" d="M212.22 115.58h-2.73l.68-3.92h1.37l.68 3.92ZM214 5.51h-.75v86.2h.75V5.5Z"/><path fill="#263238" d="M215 94.6h-2.74l.68-3.93h1.37l.68 3.92Z"/><path fill="#C7C7C7" d="M216.4 0H0v11.03h216.4V0ZM29.15 42.62l59.61-.1 59.62.1-59.62.1-59.6-.1Zm0 4.86 59.61-.09 59.62.1-59.62.1-59.6-.1Zm0 4.87 59.61-.1 59.62.1-59.62.09-59.6-.1Zm0 4.85 59.61-.09 59.62.1-59.62.1-59.6-.1Zm0 4.87 59.61-.1 59.62.1-59.62.1-59.6-.1Zm0 4.86 59.61-.1 59.62.1-59.62.1-59.6-.1Zm0 4.87 59.61-.1 59.62.1-59.62.08-59.6-.09Zm0 4.85 59.61-.1 59.62.1-59.62.1-59.6-.1Zm0 4.87 59.61-.1 59.62.1-59.62.09-59.6-.1Zm0 4.86 59.61-.1 59.62.1-59.62.1-59.6-.1Zm0 4.86 59.61-.1 59.62.1-59.62.1-59.6-.1Zm0 4.86 59.61-.1 59.62.1-59.62.1-59.6-.1Zm0 4.86 59.61-.1 59.62.1-59.62.1-59.6-.1Zm0 4.87 59.61-.1 59.62.1-59.62.09-59.6-.1Zm0 4.85 59.61-.09 59.62.1-59.62.1-59.6-.1Z"/><path fill="#FFC727" d="M50.8 76.65h-9.04v39.7h9.04v-39.7Z"/><path fill="#fff" d="M67.57 59.86h-9.04v56.5h9.04v-56.5Z"/><path fill="#FFC727" d="M84.35 71.96H75.3v44.4h9.04v-44.4Z"/><path fill="#fff" d="M101.12 57.2h-9.04v59.15h9.04V57.2Z"/><path fill="#FFC727" d="M117.89 65.14h-9.04v51.21h9.04V65.14Z"/><path fill="#fff" d="M134.66 94.16h-9.04v22.2h9.04v-22.2Z"/><path fill="#C7C7C7" d="m32.39 39.22.15 19.28c.06 6.43.05 12.86.07 19.29l.1 38.57-.32-.33c9.67 0 19.33-.07 29 0l28.99.08 29 .08 29 .2-29 .2-29 .07-29 .08c-9.66.05-19.32 0-29 0h-.32v-.33l.1-38.57c0-6.43 0-12.86.08-19.28l.15-19.34Zm18.41 81.21h-9.04v.82h9.04v-.82Zm16.77 0h-9.04v.82h9.04v-.82Zm16.78 0H75.3v.82h9.04v-.82Zm16.77 0h-9.04v.82h9.04v-.82Zm16.77 0h-9.04v.82h9.04v-.82Zm16.77 0h-9.04v.82h9.04v-.82Zm15.02 13.31H66.73v1.84h82.95v-1.84Zm-14.19 3.84H80.9v1.84h54.58v-1.84Zm53.44-94.96h-21.4v1.83h21.4v-1.83Zm7.5 3.84h-28.9v1.83h28.9v-1.83Zm-13.56 3.84h-15.33v1.83h15.33V50.3Z"/><path fill="#FFC727" d="M162.77 42.62h-4.46v4.46h4.46v-4.46Z"/><path fill="#C7C7C7" d="M191.74 129.9h-24.2v1.84h24.2v-1.84Zm-3.15 3.84h-21.05v1.84h21.05v-1.84Zm5.63 3.84h-26.68v1.84h26.68v-1.84Z"/><path fill="#fff" d="M162.77 129.9h-4.46v4.46h4.46v-4.46Z"/><path fill="#C7C7C7" d="M192.96 64.11h-25.42v1.84h25.42V64.1Zm-5.31 3.84h-20.11v1.84h20.11v-1.84Zm8.78 3.85h-28.9v1.83h28.9v-1.84Z"/><path fill="#fff" d="M162.77 64.11h-4.46v4.46h4.46v-4.46Z"/><path fill="#C7C7C7" d="M181.99 113.5h-14.45v1.84h14.45v-1.84Zm8.04 3.84h-22.5v1.84h22.5v-1.84Zm-3.92 3.84h-18.57v1.84h18.57v-1.84Z"/><path fill="#FFC727" d="M162.77 113.5h-4.46v4.46h4.46v-4.46Z"/><path fill="#fff" d="M181.99 94.88a10.89 10.89 0 0 1-15.3 9.94l4.42-9.94h10.88Z"/><path fill="#fff" d="M180.06 92.35H169.2l-4.42 9.94a11.16 11.16 0 0 1-1.23-.64l-.33-.21a9.12 9.12 0 0 1-1.67-1.35l-.4-.42-.17-.2-.45-.55-.04-.05-.4-.59a8.72 8.72 0 0 1-1.1-2.19 10.7 10.7 0 0 1-.61-2.7c0-.16 0-.3-.04-.46-.04-.15 0-.39 0-.58a10.92 10.92 0 0 1 13.08-10.66 10.9 10.9 0 0 1 8.46 8.46c.14.73.2 1.46.2 2.2Z"/><path fill="#FFC727" d="M180.06 92.35H169.2l-4.42 9.94a11.16 11.16 0 0 1-1.23-.64l-.33-.21a9.12 9.12 0 0 1-1.67-1.35l-.4-.42-.17-.2-.45-.55-.04-.05-.4-.59a10 10 0 0 1-1.1-2.19 10.7 10.7 0 0 1-.61-2.7c0-.16 0-.3-.04-.46-.04-.15 0-.39 0-.58a10.9 10.9 0 0 1 13.08-10.62 10.91 10.91 0 0 1 8.65 10.62Z"/></svg>