<svg xmlns="http://www.w3.org/2000/svg" width="1240" height="589" fill="none"><rect width="1240" height="443" fill="#fff" rx="40"/><path fill="#FFC727" d="M1121.96 486.98s-79.22 37.5-183.26 37.5c-110.48 0-164.06-35.98-164.06-35.98-80.68-63.35-89-157.2-31.45-214.11 34.83-34.5 60.3-27.48 102.43-32.95h.12a124.3 124.3 0 0 0 42.72-12.56c43.36-22.87 67.83-76.84 104.32-122.25 4.6-5.7 9.36-11.22 14.28-16.56 29.89-32.05 89.67-33.08 120.97 11.96 79.37 114.35 77.14 284.7-6.07 384.95Z"/><path fill="#000" d="M1121.96 486.98s-79.22 37.5-183.26 37.5c-110.48 0-164.06-35.98-164.06-35.98-80.68-63.35-89-157.2-31.45-214.11 34.83-34.5 60.3-27.48 102.43-32.95h.12a124.3 124.3 0 0 0 42.72-12.56c43.36-22.87 67.83-76.84 104.32-122.25 4.6-5.7 9.36-11.22 14.28-16.56 29.89-32.05 89.67-33.08 120.97 11.96 79.37 114.35 77.14 284.7-6.07 384.95Z" opacity=".1"/><path fill="#000" d="M900.18 394.69c105.77 26.03 202.74-33.39 211.43-169.58 6.37-99.72-64.57-146.8-118.92-118.57-36.4 45.45-60.84 99.37-104.23 122.25a124.3 124.3 0 0 1-42.72 12.56h-.14l-4.49.55c-48.26 30.21-23.06 132.58 59.07 152.79Z" opacity=".1"/><path fill="#F7A9A0" d="M804.1 574.15c5.2-.85 131.73-67.6 134.94-73.19 1.22-2.11-7.42-21.1-18.53-43.68-2.3-4.9-4.9-9.94-7.47-15.04-16.65-33.13-35.11-67.92-35.11-67.92l-84.76 44.4 37.44 66.68 8.2 14.64s-36.99 47.19-39.8 53.7c-2.8 6.5 0 21.33 5.09 20.41Z"/><path fill="#58646A" d="M804.1 574.15c5.2-.85 131.7-67.58 134.92-73.19 1.1-1.86-5.5-16.85-14.67-35.91-5.13 7.1-79.51 65.62-103.47 70.4-9.82 1.96 6.28-20.32 6.9-21.27-11.15 14.5-27 35.35-28.83 39.53-2.86 6.53-.07 21.36 5.15 20.44Z"/><path fill="#263238" d="M826.33 516s11.2-8.99 31.46.32l-31.46-.32Z"/><path fill="#37474F" d="M743.46 313.96c5.96 38.81 80.25 170.93 80.25 170.93l90.57-49.11-54.86-94.99s119.98 20.14 166.88 2.97c50.06-18.4 45.67-77.51 45.67-77.51l-118.9-19.8a15.2 15.2 0 0 1-17.06 9.43c-46.15-5.77-109.36-6.9-133.78-5.47-31.5 1.95-64.22 28.05-58.77 63.55Z"/><path fill="#263238" d="M833.5 307.31a90.41 90.41 0 0 1 7.4 9.09c2.56 3.2 5.14 6.34 7.67 9.54-.46-.94-.9-1.89-1.38-2.8-1.64-3.2-2.95-6.51-4.86-9.55-.11-.18.19-.37.3-.18 1.96 3.01 4.21 5.88 5.89 9.06a86.44 86.44 0 0 1 3.43 7.15c.18.4.35.81.48 1.24 1.15 1.47 2.3 2.97 3.36 4.46 2.41 3.38 4.6 6.9 7.03 10.25.12.19-.16.35-.3.19-2.46-3.13-5.24-6.02-7.75-9.2-2.5-3.17-4.99-6.41-7.4-9.7-2.41-3.29-4.6-6.42-6.9-9.61a96.06 96.06 0 0 1-7.08-9.91c-.05.02.12-.12.12-.03Zm-14.46 156.66c2.3-1.64 4.9-3.13 7.38-4.6 2.49-1.47 4.88-2.99 7.34-4.46 5.03-3.01 10.12-5.93 15.2-8.88 10.18-5.88 20.48-11.63 30.74-17.4 5.77-3.22 11.5-6.35 17.36-9.52.11 0 .25 0 .14.18a1775.7 1775.7 0 0 1-29.78 18.12c-10 5.93-20.33 11.89-30.65 17.59a283.47 283.47 0 0 1-8.67 4.6c-2.9 1.47-5.86 3.17-8.9 4.6-.13.07-.3-.14-.16-.23Z"/><path fill="#263238" d="M1055.37 269.26a61.8 61.8 0 0 1-15.55 42.75 60.02 60.02 0 0 1-18.57 13.63 73.28 73.28 0 0 1-22.29 6.07 290.95 290.95 0 0 1-46.51 1.96 499.7 499.7 0 0 1-46.52-3.57 368.6 368.6 0 0 1-45.87-8.2 140.45 140.45 0 0 1-16.62-5.2 30.33 30.33 0 0 0-5.66-1.96 7.9 7.9 0 0 0-3.2 0 3.56 3.56 0 0 0-2.57 2.3c-.18.53-.27 1.1-.25 1.66 0 .56.1 1.12.3 1.65.32.99.73 1.89 1.12 2.78 1.66 3.57 3.48 6.9 5.31 10.47 14.97 27.36 31.1 54.03 47.25 80.66a3768.4 3768.4 0 0 1-23.36-40.47 1337.13 1337.13 0 0 1-22.74-40.81c-1.79-3.43-3.6-6.9-5.17-10.42-.37-.89-.7-1.8-.97-2.71a3.45 3.45 0 0 1-.25-1.18c0-.41.08-.82.2-1.22.42-1.56 2.3-1.74 4.17-1.4 1.85.44 3.64 1.07 5.36 1.89 1.84.71 3.68 1.38 5.54 2 3.7 1.24 7.47 2.3 11.24 3.3a365.03 365.03 0 0 0 45.99 8.4 503.17 503.17 0 0 0 46.68 3.43c15.62.54 31.25-.23 46.74-2.3a75.18 75.18 0 0 0 22.56-6.4 60.37 60.37 0 0 0 18.71-14.04 58.19 58.19 0 0 0 11.5-20.08 63.94 63.94 0 0 0 3.43-22.99Z"/><path fill="#F7A9A0" d="M917.82 588.1c4.92-1.9 114.76-93.53 116.74-99.67.76-2.3-11.64-19.1-27.23-38.95-3.35-4.3-6.89-8.69-10.44-13.15-23.13-28.95-48.42-59-48.42-59l-73.58 61.1 50.59 57.47 11.08 12.63s-26.37 53.9-27.82 60.86c-1.45 6.97 4.18 20.65 9.08 18.72Z"/><path fill="#58646A" d="M917.82 588.1c4.92-1.9 114.76-93.53 116.74-99.67.67-2.04-8.9-15.33-21.85-32.07-3.56 8.02-64.12 80.73-86.57 90.4-9.2 3.96 1.91-21.2 2.3-22.25-7.86 16.46-19.03 40.2-19.95 44.65-1.4 7 4.41 20.88 9.33 18.95Z"/><path fill="#263238" d="M927.46 526.6s9.08-11.13 30.83-6.23l-30.83 6.23Z"/><path fill="#37474F" d="M796.72 325.46c5.93 38.8 104.2 149.13 115.56 161.8l2.58 2.87 78.06-62.63-.94-1.15-53.93-65.28s86.16 33.73 126.19-18.62c15.94-20.83 7.73-76.2 7.73-76.2l-95.52-15.38s-2.41 16.34-15.8 14.69c-46.12-5.77-82.35-10.9-106.77-9.4-31.53 1.83-62.64 33.8-57.16 69.3Z"/><path fill="#263238" d="M958.06 265.1c-29.64-4.23-59.4-8.1-89.35-9.45-3.75-.14-7.52-.2-11.27-.16-3.79 0-7.57.3-11.31.9-1.88.37-3.71.9-5.5 1.58a58.2 58.2 0 0 0-5.26 2.1 74.32 74.32 0 0 0-10 5.3 69.3 69.3 0 0 0-17.02 14.9 57.05 57.05 0 0 0-12.76 31.16c-.14.94-.16 1.89-.2 2.83-.05.94 0 1.9 0 2.87.06 1.91.25 3.82.57 5.7a89.13 89.13 0 0 0 7.42 21.37 278.9 278.9 0 0 0 23.13 38.6 663.26 663.26 0 0 0 27.07 35.9A1097.7 1097.7 0 0 0 882.6 453c-9.66-11.5-19.18-23-28.38-34.81a712.18 712.18 0 0 1-26.65-36.12 294.42 294.42 0 0 1-22.8-38.52 87.63 87.63 0 0 1-7.23-21c-.3-1.8-.49-3.61-.55-5.44a58.02 58.02 0 0 1 2.4-16.37 56 56 0 0 1 10.27-19.45 66.68 66.68 0 0 1 16.58-14.63c3.13-2 6.4-3.75 9.8-5.24 1.67-.76 3.4-1.45 5.14-2.07a34.65 34.65 0 0 1 5.3-1.56c3.65-.58 7.35-.88 11.05-.92h11.2c14.95.43 29.9 1.72 44.77 3.17 14.88 1.45 29.7 3.17 44.56 5.06Z"/><path fill="#263238" d="M908.88 322.6a90.93 90.93 0 0 1 7.38 9.09c2.55 3.17 5.13 6.32 7.65 9.52-.45-.95-.9-1.89-1.38-2.8-1.6-3.2-2.94-6.52-4.82-9.55 0-.19.16-.37.27-.19 1.96 3.02 4.21 5.9 5.91 9.06.78 1.52 1.54 3.04 2.3 4.6.37.85.78 1.68 1.13 2.56.16.39.34.8.48 1.24 1.13 1.47 2.3 2.96 3.33 4.6 2.44 3.35 4.6 6.9 7.04 10.23.14.18-.16.37-.3.18-2.46-3.13-5.24-6.02-7.75-9.2-2.5-3.17-4.99-6.41-7.4-9.68-2.42-3.26-4.6-6.43-6.9-9.63a99.19 99.19 0 0 1-7.08-9.89.14.14 0 0 1 .04-.1.14.14 0 0 1 .1-.03Zm-2.78 149.65c2.06-2 4.32-3.89 6.5-5.8l6.49-5.63c4.46-3.82 8.99-7.54 13.5-11.3 9.05-7.51 18.2-14.91 27.38-22.32 5.13-4.16 10.35-8.2 15.5-12.32 0 0 .25 0 .16.16a4014.3 4014.3 0 0 1-26.3 23 756.08 756.08 0 0 1-27.25 22.5c-2.58 2.02-5.16 4.05-7.75 6.03-2.6 1.97-5.27 4.13-8.03 6-.11-.03-.32-.21-.2-.32Z"/><path fill="#263238" d="M1058.68 270.94a96.38 96.38 0 0 1 .64 25.61 68.33 68.33 0 0 1-7.08 24.44 45.26 45.26 0 0 1-17.34 18.17 55.34 55.34 0 0 1-24.35 6.76c-8.52.52-17.08.2-25.54-.97a241.23 241.23 0 0 1-25.3-4.6 370.93 370.93 0 0 1-49.02-15.22l-.6-.25-.3.53c-1.11 2-1.84 4.2-2.13 6.48a21.53 21.53 0 0 0 0 6.76 26.2 26.2 0 0 0 2.02 6.42 48.74 48.74 0 0 0 3.57 5.63c5.12 7.13 10.69 13.8 16.27 20.7 5.6 6.9 11.27 13.38 17.02 19.96 5.75 6.57 11.5 13.12 17.38 19.63a1982.6 1982.6 0 0 1-33.64-40.21 391.33 391.33 0 0 1-15.98-20.7 45.48 45.48 0 0 1-3.35-5.47 25.58 25.58 0 0 1-1.89-6.05 19.17 19.17 0 0 1 1.89-12.2l-.9.27a365.32 365.32 0 0 0 49.18 15.47 244.22 244.22 0 0 0 25.3 4.6 133 133 0 0 0 25.84.85 55.18 55.18 0 0 0 24.81-7.13 46.49 46.49 0 0 0 17.54-18.8 66.27 66.27 0 0 0 6.76-24.81c.89-8.62.62-17.32-.8-25.87Z"/><path fill="#263238" d="M1017.59 267.81c.67 4.6 1.61 9.06 2.67 13.55a31.67 31.67 0 0 0 4.43 11.5 25.57 25.57 0 0 0 8.99 7.3 56.03 56.03 0 0 0 6.19 2.83 47.8 47.8 0 0 1 6.37 2.65c.08.05.15.12.18.21a.4.4 0 0 1 .02.29.45.45 0 0 1-.14.24.49.49 0 0 1-.27.1 29.45 29.45 0 0 1-7.17-1.35 45.06 45.06 0 0 1-6.62-2.3 25.24 25.24 0 0 1-9.8-8.02 30 30 0 0 1-4.35-12.47 72.8 72.8 0 0 1-1.1-14.44c0-.48.46-.48.6-.09Zm-7.04-243.5s20.49-9.2 37.02 3.06c16.53 12.26 22.63 39.69 17.8 61.85-4.83 22.17 12.23 38.47 12.83 55.3.6 16.83-10.97 23.62-15.36 32.05-5.04 9.66 8.88 46.59-34.63 51.3-54.42 5.89-72.2-28.74-64.5-55.53 3.78-13.13 12.08-21.98 12.84-32.78.75-10.81-6.19-20.06-1.08-33.41 5.1-13.36 10.23-11.06 14.18-32.38 3.96-21.31 1.59-47.36 20.9-49.46Z"/><path fill="#263238" d="M1043.87 26.57a66.41 66.41 0 0 1 22.81 32.55 60.86 60.86 0 0 1 2.94 19.87c-.18 8.8-2.18 16.9.37 25.66 4.09 14.05 13.61 26.26 11.87 41.39a37.73 37.73 0 0 1-8.08 19.25c-5.19 6.46-12.23 11.33-16.71 18.39-.19.3-.65 0-.46-.3 3.77-6.25 9.4-10.8 14.25-16.28a38.35 38.35 0 0 0 9.87-23.18c.78-14.46-8.6-26.4-12.33-39.91a46.46 46.46 0 0 1-.64-18.12c.9-7.3.57-14.72-.99-21.91a70.38 70.38 0 0 0-22.99-37.2s-.02-.3.09-.21ZM964.18 168.5c1.88-6.34 5.74-11.9 7.6-18.2 2.3-7.62.95-15.48 0-23.18-1.21-11-.13-21.2 5.5-31.02 3.63-6.35 7.91-12.19 10.76-18.95a82.1 82.1 0 0 0 6.03-23c0-.15.27-.13.27 0a74.36 74.36 0 0 1-9.9 32.61c-3.41 5.84-7.53 11.27-9.76 17.7a54.72 54.72 0 0 0-1.77 23.48c.7 5.34.93 10.72.67 16.1a45.72 45.72 0 0 1-5.08 15.47 55.6 55.6 0 0 0-3.15 40.89c0 .22-.35.36-.44.11a53 53 0 0 1-.73-32Z"/><path fill="#263238" d="M1079.74 142.8c.51-11.91-7.1-20.7-11.27-31.37-3.15-8.09-5.06-16.6-3.08-25.06 0-.14.28 0 .26 0-1.66 12.35 2.62 24.03 8.62 34.97 4 7.3 7.22 14.24 6.57 22.56-.64 8.32-4.43 14.72-9.63 21.09-3.7 4.6-7.31 8.73-9.2 14.3a61.5 61.5 0 0 0-2.3 17.22c0 .3-.48.25-.48 0 0-8.97.53-17.59 5.66-25.3 6.39-9.65 14.34-16.41 14.85-28.41Zm-116.92 17.1a73.86 73.86 0 0 1 7.77-10.94c5.1-6.3 6.3-11.66 5.45-19.7a.16.16 0 0 1 .15-.1.16.16 0 0 1 .15.1c1.63 6.7 1.7 12.18-2.67 17.86-6.1 7.96-12 15.15-13.93 25.09-3.45 17.6 5.24 35.01 20.7 45.36.22.14 0 .46-.24.32a44.53 44.53 0 0 1-22.49-35.34 42.66 42.66 0 0 1 5.1-22.65Z"/><path fill="#F7A9A0" d="M1002.14 140.75c-9.7 45.48-24.58 83.81-37.11 92.71-10.12 7.2-94.97 23.87-97.93 24.19-7.31.74-21.11-47.27-16.1-53.37 1.15-1.4 82.78-9.03 85.35-11.68 2.58-2.64 26.84-35.04 46.29-59.94 13.57-17.45 24.88-17.13 19.5 8.1Z"/><path fill="#F7A9A0" d="M881.65 252.22a181.28 181.28 0 0 1-21.54 8.85c-5.89 1.7-23 6.14-25.46-.13-1.72-4.3 8-8.1 14.81-10.93 3.61-1.49 8.03-5.26 6.9-7.56-1.84-4.05-11.08 0-17.18 3.54-11.75 6.9-27.4 19.13-34.6 13.15-2.7-2.3.46-6.34 5.06-10.37-7.48 4.6-15.45 8.53-18.58 6.14a3.98 3.98 0 0 1-.88-5.35 5.24 5.24 0 0 1-5.77-.9c-2.43-2.55-1.24-6.3 1.43-10.14a2.86 2.86 0 0 1-2.3-1.47c-5.15-7.84 20.7-30.38 29.55-32.5a198.34 198.34 0 0 1 54.12-3.95c10.46 8.23 14.44 51.6 14.44 51.62Z"/><path fill="#263238" d="M843.07 227.87a42.92 42.92 0 0 0-17.48 6.74c-6.13 4.2-10.99 9.96-16.64 14.7a.16.16 0 0 0-.06.04.17.17 0 0 0-.03.07v.07a.17.17 0 0 0 .1.1.17.17 0 0 0 .14 0 .16.16 0 0 0 .05-.06c2.67-2.46 5.6-4.6 8.35-6.9 2.76-2.3 5.34-4.6 8.16-6.9A42.62 42.62 0 0 1 843.1 228s.05-.12-.02-.12Zm-4.97-11.24c-7 1.65-13.82 4.02-20.35 7.06-7 3.56-12.48 9.38-17.86 14.97a353.31 353.31 0 0 0-9.5 10.3c-.11.13 0 .39.2.23a348.84 348.84 0 0 1 16.93-16.83 56.04 56.04 0 0 1 18.56-11.7c3.95-1.5 8-2.7 12.05-3.9l-.03-.13Zm-7.26-9.73c-6.7 1.38-12.56 2.56-18.4 6.14a95.61 95.61 0 0 0-18.1 15.6 260.97 260.97 0 0 0-8.55 9.63c-.11.13 0 .34.23.2a220.55 220.55 0 0 1 20.45-20.23 44.22 44.22 0 0 1 11.5-7.43 79.87 79.87 0 0 1 13-3.86s-.1-.05-.13-.05Z"/><path fill="#DBDBDB" d="m865.88 198.97 16.1 60.9s66.5-13.47 84.89-26.66c18.4-13.2 32.07-71.4 36.79-96.58 4.71-25.17-12.33-17.35-22.75-4.36-10.41 12.99-44.58 57.48-45.73 58.5-1.15 1-69.3 8.2-69.3 8.2Z"/><path fill="#263238" d="M897.38 254.22c-.85-4.6-2.3-9.08-3.61-13.56-1.31-4.49-2.55-8.83-3.86-13.22-2.67-8.88-5.15-17.9-8.4-26.59a.16.16 0 0 0-.04-.1.16.16 0 0 0-.23 0 .16.16 0 0 0-.05.1c1.8 9.2 4.6 18.2 7.18 27.16 1.33 4.5 2.71 9 4.14 13.45 1.3 4.35 2.83 8.63 4.6 12.8.02.3.3.17.27-.04Z"/><path fill="#C7C7C7" d="M1003.66 136.59c-4.83 25.3-18.6 83.42-36.8 96.57-9.2 6.6-30.28 13.27-49.2 18.28l77.88-130.83c6.28-2.16 10.87 1.33 8.12 15.98Z"/><path fill="#DBDBDB" d="m1078.45 277.84-69.51-10.17-50.3-7.35-15.09-2.3 11.5-41.05 4.73-17.03s-8.3-14.33-4.27-26.68c4.6-13.98 41.98-51.98 44.88-53.82 11.5-7.34 24.19-7.82 35.11 7.28a120.31 120.31 0 0 1 13.43 27.76 280 280 0 0 1 6.37 19.24c13.77 46.17 23.15 104.12 23.15 104.12Z"/><path fill="#263238" d="M1009.91 214.08a125.5 125.5 0 0 0-13.1-4.74 92.85 92.85 0 0 0-10.05-2.25c-1.1-.19-2.44-.26-3.64-.49-.11 0-.18.19 0 .21 1.1.23 2.3.67 3.31.99l3.36.92c2.3.64 4.44 1.29 6.7 1.88 4.48 1.22 8.91 2.47 13.35 3.84.21.03.28-.36.07-.36Zm-50.21-14.05a34.84 34.84 0 0 1-6.06-17.45c-.2-3.17.14-6.34 1.02-9.39 1-2.99 2.33-5.86 3.98-8.55a114.18 114.18 0 0 1 11.3-14.76c4.13-4.6 8.52-8.96 13.16-13.04-4.14 4.6-8.23 9.2-12.14 13.8a127 127 0 0 0-10.85 14.78 40.15 40.15 0 0 0-3.96 8.12 30.28 30.28 0 0 0-1.2 8.88 39.4 39.4 0 0 0 4.74 17.6Z"/><path fill="#263238" d="M979.6 137.95a30.3 30.3 0 0 1-4.39 7 30.82 30.82 0 0 1 4.4-7Z"/><path fill="#F7A9A0" d="M1024.35 121.83c-.83 2.3-13.96 16.42-24.76 14.64-3.52-.57-1.2-19.93-1.2-19.93l-.16-1.45-2.16-20.56 25.29-12.37 3.63-1.58s.23 5.65.44 12.69v2.16c0 1.06 0 2.14.11 3.2.12 1.05 0 1.6 0 2.46v2.57c.02 6.08-.38 12.15-1.19 18.17Z"/><path fill="#263238" d="M1025.48 93.27a41.38 41.38 0 0 1-27.18 21.94l-2.16-20.56 25.29-12.37 3.63-1.59s.21 5.54.42 12.58Z"/><path fill="#fff" d="m998.44 116.6 2.92 17 23.72-15.64 4.14 7.55s-25.79 27.4-25.57 25.96l-3.54-14.88-11.33 7.38 5.68-23.4 3.98-3.96Z"/><path fill="#263238" d="M990.96 132.24c1.08-3.84 2.07-7.72 3.34-11.5 0-.13.27-.15.27 0 0 3.92-4.27 18.56-5.01 22.13.46-.33 10.4-6.4 10.46-6.26.95 2.44 3.57 13.3 3.7 14.26 4.07-4.37 21.09-21.32 25.66-25.3.14-.11.33 0 .21.19-3.75 4.69-25.93 27.15-25.93 27.04a153.36 153.36 0 0 1-3.7-15.73 102.8 102.8 0 0 1-11.9 7.91c.74-4.3 1.71-8.55 2.9-12.74Z"/><path fill="#F7A9A0" d="M976.82 53.12c-16.1 32.52 1.66 45.78 8.67 49.23 6.37 3.13 28.44 12.97 47.76-17.7 19.31-30.68 9.2-48.43-4.95-56.36-14.14-7.93-35.45-7.8-51.48 24.83Z"/><path fill="#263238" d="M984.18 49.67c.8.26 1.6.37 2.44.56.84.28 1.75.28 2.6 0a1.29 1.29 0 0 0 .66-1.43 3.24 3.24 0 0 0-2.55-2.02 4.6 4.6 0 0 0-3.36.27 1.38 1.38 0 0 0 .21 2.62Zm22.58 10.35c-.7-.46-1.36-.96-2-1.5-.78-.6-1.45-.98-1.77-1.92a1.33 1.33 0 0 1 .67-1.43 3.15 3.15 0 0 1 3.17.67c.98.62 1.69 1.6 1.98 2.73a1.38 1.38 0 0 1-.56 1.38 1.4 1.4 0 0 1-1.49.07Zm-8.96 5.7s.1.21 0 .3c-1.18 2.16-2.15 4.85-.5 6.58v.11c-2.29-1.54-.96-5.1.5-6.99Z"/><path fill="#263238" d="M1000.9 64.39c3.7 1.5.46 8.78-2.97 7.4-3.43-1.38-.11-8.64 2.97-7.4Z"/><path fill="#263238" d="M1002.16 65.42c.46.7.76 1.7 1.47 2.12.72.41 1.86 0 2.78-.46 0 0 .12 0 0 .14-.59 1.4-1.77 2.6-3.35 2.14-1.59-.46-1.87-2.1-1.59-3.64.12-.3.51-.57.69-.3Zm-16.69-5.77s-.23 0-.26.14c-.92 2.3-2.3 4.76-4.73 4.6 0 0-.12.11 0 .11 2.62.79 4.48-2.52 4.99-4.85Z"/><path fill="#263238" d="M984.48 56.41c-3.52-1.86-6.9 5.31-3.73 7.04 3.18 1.72 6.81-5.48 3.73-7.04Z"/><path fill="#263238" d="M982.75 56.16c-.73.11-1.63.53-2.3.25-.66-.27-1-1.4-1.14-2.3h-.14a3 3 0 0 0 .23 3.89c1.1.83 2.55 0 3.54-1.13.14-.27.02-.76-.19-.71Zm1.38 15.77s-2 3.13-2.73 4.6c0 .14.3.4.8.67a8.26 8.26 0 0 0 8.58.57.18.18 0 0 0 .09-.1.18.18 0 0 0-.2-.25 12.4 12.4 0 0 1-7.78-1.19c0-.48 3.61-5.24 3.38-5.38a15.16 15.16 0 0 0-3.98-.85c4-6.64 9.02-12.6 12.9-19.3a.23.23 0 0 0-.36-.27 125.8 125.8 0 0 0-14.77 20.2c-.48.89 3.34 1.28 4.07 1.3Z"/><path fill="#263238" d="M1031.39 82.78c-6.67-1.08-4.01-16.25-4.01-16.25s-25.98-12.65-21.75-35.6a39.3 39.3 0 0 1-25.06 15.04s8.12-24.12 28.86-23.2c0 0 26.58-1.7 34.49 21.32 7.91 23.01-8.07 39.4-12.53 38.7Z"/><path fill="#263238" d="M1005.95 29.26a25.26 25.26 0 0 0-1.74 10.53c.1 3.63.96 7.2 2.53 10.48.38.8.81 1.56 1.28 2.3l.69 1.17c.26.4.53.74.81 1.1.57.72 1.1 1.46 1.7 2.12.6.67 1.26 1.3 1.91 1.91.64.62.64.65.99.92l1.05.83 2.14 1.63c1.52.94 3.08 1.82 4.6 2.65-1.35-1.15-2.8-2.14-4.14-3.3l-1.95-1.74-.97-.9c-.3-.3-.57-.64-.85-.96a72.46 72.46 0 0 0-1.75-1.96c-.59-.64-.98-1.4-1.49-2.09l-.76-1.03-.64-1.13a30.28 30.28 0 0 1-3.96-12.21 33.69 33.69 0 0 1 .55-10.32Z"/><path fill="#F7A9A0" d="M1026.65 94.88c-.58 0-1.15-.06-1.7-.2a5.35 5.35 0 0 1-1.61-.58 4.8 4.8 0 0 1-1.7-1.38 6.53 6.53 0 0 1-1.45-3.8l5.38-8.3s11.49-7.65 15.24-3.17-7.77 17.54-14.16 17.43Z"/><path fill="#263238" d="M1037.39 81.04v.16c-4.6 0-8.05 2.92-10.99 6.14a3.33 3.33 0 0 1 2.75-.69 3.38 3.38 0 0 1 2.3 1.65s0 .23-.18.19a3.77 3.77 0 0 0-4.35-.3c-1.11.7-2.14 1.5-3.08 2.41-.32.28-.87-.16-.57-.5 1.88-5.15 8.53-10.65 14.12-9.06Z"/><path fill="#fff" d="M1026.65 93.3a1.72 1.72 0 0 1-2.3.5 1.66 1.66 0 0 1-.76-1.71 1.7 1.7 0 0 1 1.29-1.35 1.66 1.66 0 0 1 1.74.68 1.66 1.66 0 0 1 .03 1.87Zm4.18-1.09c-.12.2-.3.35-.51.44-.22.1-.45.12-.68.08a1.2 1.2 0 0 1-.94-.9 1.2 1.2 0 0 1 .05-.67 1.17 1.17 0 0 1 1.72-.58 1.2 1.2 0 0 1 .36 1.63Z"/><path fill="#DBDBDB" d="M983.58 187.2s19.66-35.64 30.84-53.92c11.17-18.28 21.84-15.06 22.67 6.32.83 21.39 7.13 48.84-12.86 83.88-51.78 90.78-40.65-36.28-40.65-36.28Z"/><path fill="#A6A6A6" d="m1026.12 66.46-50.06 35.27a2.12 2.12 0 0 0-.57 3.68l16.3 21.78a4.97 4.97 0 0 0 5.29.36l50.06-35.34a2.12 2.12 0 0 0 .57-3.65l-16.3-21.64a4.97 4.97 0 0 0-5.29-.46Z"/><path fill="#DBDBDB" d="m1027.59 68.23-50.05 35.27a2.14 2.14 0 0 0-.58 3.68l16.32 21.78a4.92 4.92 0 0 0 5.27.36l50.06-35.27a2.12 2.12 0 0 0 .6-3.65l-16.33-21.78a4.95 4.95 0 0 0-5.29-.39Z"/><path fill="#263238" d="M1032.19 75.77a2.61 2.61 0 0 1-4.52-1.62 2.6 2.6 0 0 1 2.97-2.7c.51.08.98.3 1.37.64a2.63 2.63 0 0 1 .18 3.68Z"/><path fill="#F7A9A0" d="M970.66 241.14c.16 19.04 25.77 21.75 34.49 13.01 20.42-20.46 37.2-63.53 44.68-88.57 2.41-8.04-50.98-26.99-54.87-18.9-4.71 9.73-24.62 57.16-24.3 94.46Z"/><path fill="#F7A9A0" d="M1037.46 179.33a83.81 83.81 0 0 0 21.38-28.49c5.24-12.04 13.8-39.5-9.2-71.27-5.47-7.55-18.58-14.4-14.14 1.12 3.17 11.04 8.49 17.09 9.2 23.82 0 0-17.71-6.73-25.02-.98a172.32 172.32 0 0 0-18.09 16.41 36.7 36.7 0 0 0 2.78 3.66 45.12 45.12 0 0 0-9.2 23l42.29 32.73Z"/><path fill="#F7A9A0" d="M1061.92 138.54c-2.09-6.55-6.71-20.4-14.44-30.37-8.6-11.1-28.12-30.17-36.24-23.75-5.98 4.6.85 12.64.85 12.64s-9.72-6.18-14.18-.76c-4.07 4.95 1.58 10.79 1.58 10.79s-6.55-2.74-9.54 2.78c-3.6 6.62 10.72 11.27 12.88 21.16.48 2.2 59.09 7.51 59.09 7.51Z"/><path fill="#263238" d="M1037.25 119.18a55.91 55.91 0 0 0-24.88-22.16c-.25-.12-.48 0-.25.18a137.64 137.64 0 0 1 25.04 22.08s.13-.03.09-.1Zm-11.45 8.35c-3.08-4.78-14.07-16.23-26.17-20.7-.25 0-.48 0-.25.19a148.44 148.44 0 0 1 26.33 20.56s.13.02.09-.05Z"/><path fill="#DBDBDB" d="M968.04 244.34c1.03 19.15 27.59 22.23 36.79 13.56 21.4-20.35 38.65-63.5 46.28-88.61l-61.25-18.9c-4.9 9.72-23.8 57.6-21.82 93.95Z"/><path fill="#263238" d="m992.83 151.3-3.04-.87a476.62 476.62 0 0 0-9.7 29.02 376 376 0 0 0-7.77 29.6c-2.14 9.95-4.1 20.04-3.82 30.13a28.61 28.61 0 0 0 3.65 14.26 15.54 15.54 0 0 0 5.15 5.01 21.22 21.22 0 0 0 6.9 2.44 26.1 26.1 0 0 0 14.6-1.15 34.94 34.94 0 0 0 12.12-8.58 107.63 107.63 0 0 0 16.58-25.29c4.6-9.2 8.46-18.55 12.51-27.94 4.04-9.38 8.02-18.78 11.01-28.55l-1.93-.67 1.95.62a157.93 157.93 0 0 1-4.78 14.58c-1.75 4.8-3.59 9.56-5.47 14.3-3.91 9.45-7.7 18.95-12.12 28.2a133.85 133.85 0 0 1-7.36 13.51 76.6 76.6 0 0 1-9.19 12.35 36.08 36.08 0 0 1-12.65 9.03 27.72 27.72 0 0 1-15.52 1.3 22.12 22.12 0 0 1-7.45-2.68 17 17 0 0 1-5.7-5.58 30.35 30.35 0 0 1-3.82-15.09 88.3 88.3 0 0 1 1.13-15.4 209.8 209.8 0 0 1 2.94-15.09 398.23 398.23 0 0 1 18.8-58.4l2.98.94Z"/><path fill="#263238" d="M1013.8 176.25c-4.6-1.3-22.8-6.23-27.44-6.9-.13 0-.18.26 0 .3 4.3 1.94 22.47 7.4 27.02 8.72a275.6 275.6 0 0 0 27.59 6.9c.21 0 .33-.33.14-.4a275.45 275.45 0 0 0-27.31-8.62Z"/></svg>