<svg width="480" height="568" viewBox="0 0 480 568" fill="none" xmlns="http://www.w3.org/2000/svg">
<path d="M415.955 465.984C415.955 465.984 336.743 503.486 232.699 503.486C122.216 503.486 68.6414 467.502 68.6414 467.502C-12.0422 404.155 -20.3657 310.296 37.1865 253.388C72.0214 218.898 97.4979 225.911 139.622 220.438H139.737C154.617 218.859 169.089 214.606 182.458 207.884C225.824 185.006 250.288 131.041 286.779 85.6287C291.378 79.9264 296.137 74.408 301.058 69.0736C330.949 37.0209 390.732 35.9862 422.025 81.0301C501.398 195.376 499.168 365.733 415.955 465.984Z" fill="#FFC727"/>
<g opacity="0.1">
<path d="M415.955 465.984C415.955 465.984 336.743 503.486 232.699 503.486C122.216 503.486 68.6414 467.502 68.6414 467.502C-12.0422 404.155 -20.3657 310.296 37.1865 253.388C72.0214 218.898 97.4979 225.911 139.622 220.438H139.737C154.617 218.859 169.089 214.606 182.458 207.884C225.824 185.006 250.288 131.041 286.779 85.6287C291.378 79.9264 296.137 74.408 301.058 69.0736C330.949 37.0209 390.732 35.9862 422.025 81.0301C501.398 195.376 499.168 365.733 415.955 465.984Z" fill="black"/>
</g>
<path opacity="0.1" d="M194.185 373.689C299.954 399.717 396.917 340.303 405.608 204.113C411.978 104.391 341.043 57.3009 286.687 85.5367C250.289 130.994 225.847 184.914 182.458 207.792C169.089 214.514 154.617 218.767 139.737 220.346H139.599L135.115 220.898C86.8523 251.112 112.053 353.478 194.185 373.689Z" fill="black"/>
<path d="M98.0961 553.152C103.293 552.301 229.825 485.551 233.044 479.964C234.263 477.849 225.617 458.856 214.511 436.277C212.212 431.379 209.614 426.344 207.038 421.239C190.391 388.106 171.928 353.317 171.928 353.317L87.1743 397.717L124.607 464.398L132.816 479.044C132.816 479.044 95.8198 526.227 93.0146 532.734C90.2095 539.241 93.0146 554.071 98.0961 553.152Z" fill="#F7A9A0"/>
<path d="M98.0963 553.152C103.293 552.301 229.802 485.574 233.021 479.964C234.125 478.102 227.526 463.11 218.351 444.048C213.224 451.153 138.84 509.671 114.881 514.454C105.063 516.408 121.159 494.128 121.779 493.185C110.628 507.671 94.7853 528.526 92.9458 532.711C90.0946 539.241 92.8768 554.071 98.0963 553.152Z" fill="#58646A"/>
<path d="M120.331 495.002C120.331 495.002 131.529 486.011 151.786 495.324L120.331 495.002Z" fill="#263238"/>
<path d="M37.463 292.959C43.4182 331.772 117.71 463.892 117.71 463.892L208.28 414.778L153.418 319.793C153.418 319.793 273.397 339.935 320.304 322.759C370.36 304.364 365.968 245.248 365.968 245.248L247.07 225.451C245.782 228.773 243.368 231.537 240.25 233.26C237.131 234.983 233.507 235.556 230.009 234.878C183.861 229.107 120.653 227.98 96.2339 229.406C64.733 231.36 32.0135 257.458 37.463 292.959Z" fill="#37474F"/>
<path d="M127.505 286.314C130.167 289.179 132.64 292.212 134.909 295.397C137.461 298.593 140.036 301.743 142.566 304.939C142.106 303.996 141.669 303.053 141.186 302.134C139.554 298.938 138.243 295.627 136.334 292.592C136.219 292.408 136.518 292.224 136.633 292.408C138.588 295.42 140.841 298.294 142.52 301.467C143.324 302.962 144.083 304.479 144.819 306.066C145.21 306.893 145.601 307.744 145.946 308.618C146.134 309.021 146.296 309.435 146.429 309.86C147.578 311.331 148.728 312.826 149.786 314.32C152.2 317.7 154.384 321.218 156.822 324.575C156.936 324.759 156.661 324.92 156.523 324.759C154.062 321.632 151.28 318.735 148.774 315.562C146.268 312.389 143.784 309.147 141.37 305.859C138.956 302.571 136.771 299.444 134.472 296.247C131.904 293.097 129.539 289.787 127.39 286.337C127.344 286.36 127.505 286.222 127.505 286.314Z" fill="#263238"/>
<path d="M113.042 442.968C115.341 441.335 117.94 439.841 120.423 438.369C122.906 436.898 125.297 435.38 127.758 433.908C132.793 430.896 137.875 427.976 142.956 425.033C153.142 419.147 163.443 413.398 173.698 407.627C179.47 404.408 185.195 401.281 191.058 398.108C191.173 398.108 191.311 398.108 191.196 398.292C181.332 404.408 171.422 410.478 161.42 416.411C151.418 422.343 141.094 428.298 130.77 434C127.896 435.587 124.998 437.128 122.101 438.599C119.204 440.071 116.238 441.772 113.203 443.198C113.065 443.267 112.904 443.06 113.042 442.968Z" fill="#263238"/>
<path d="M349.367 248.26C349.807 263.966 344.25 279.25 333.824 291.005C328.569 296.707 322.26 301.337 315.245 304.64C308.186 307.828 300.665 309.877 292.964 310.71C277.536 312.603 261.982 313.257 246.449 312.665C230.906 312.205 215.362 311.009 199.934 309.101C184.485 307.335 169.164 304.593 154.062 300.892C150.314 299.926 146.566 298.869 142.887 297.65C141.048 297.029 139.231 296.385 137.438 295.696C135.621 294.859 133.727 294.205 131.781 293.741C130.727 293.523 129.64 293.523 128.585 293.741C127.996 293.875 127.451 294.156 127.001 294.558C126.55 294.96 126.209 295.47 126.01 296.041C125.825 296.572 125.739 297.133 125.757 297.696C125.754 298.262 125.856 298.823 126.056 299.352C126.378 300.34 126.792 301.237 127.183 302.134C128.838 305.698 130.655 309.032 132.494 312.596C147.463 339.958 163.581 366.63 179.745 393.256C171.882 379.828 164.095 366.339 156.384 352.788C148.636 339.268 140.91 325.748 133.644 311.975C131.85 308.549 130.034 305.077 128.47 301.559C128.097 300.674 127.775 299.768 127.505 298.846C127.353 298.472 127.267 298.076 127.252 297.673C127.259 297.259 127.328 296.848 127.459 296.454C127.873 294.891 129.758 294.707 131.62 295.052C133.467 295.491 135.263 296.123 136.978 296.937C138.817 297.65 140.657 298.317 142.519 298.938C146.221 300.179 149.992 301.237 153.763 302.249C168.897 306.026 184.257 308.829 199.75 310.641C215.247 312.504 230.837 313.653 246.426 314.067C262.045 314.613 277.682 313.844 293.171 311.768C300.979 310.834 308.591 308.677 315.728 305.376C322.824 301.959 329.182 297.186 334.444 291.327C339.578 285.47 343.487 278.645 345.941 271.254C348.481 263.864 349.643 256.07 349.367 248.26Z" fill="#263238"/>
<path d="M211.821 567.109C216.742 565.2 326.581 473.572 328.558 467.433C329.317 465.133 316.924 448.325 301.334 428.482C297.977 424.182 294.436 419.791 290.895 415.33C267.764 386.381 242.471 356.329 242.471 356.329L168.893 417.422L219.478 474.905L230.561 487.529C230.561 487.529 204.187 541.425 202.739 548.392C201.29 555.359 206.924 569.04 211.821 567.109Z" fill="#F7A9A0"/>
<path d="M211.821 567.109C216.742 565.2 326.581 473.572 328.558 467.433C329.225 465.386 319.66 452.096 306.715 435.357C303.151 443.382 242.586 516.086 220.145 525.767C210.948 529.721 222.053 504.567 222.444 503.509C214.58 519.972 203.406 543.701 202.486 548.162C201.083 555.152 206.901 569.04 211.821 567.109Z" fill="#58646A"/>
<path d="M221.456 505.602C221.456 505.602 230.538 494.473 252.29 499.37L221.456 505.602Z" fill="#263238"/>
<path d="M90.7155 304.456C96.6477 343.269 194.921 453.591 206.28 466.26L208.855 469.134L286.917 406.5L285.975 405.351L232.055 340.073C232.055 340.073 318.211 373.804 358.243 321.448C374.177 300.616 365.968 245.248 365.968 245.248L270.454 229.866C270.454 229.866 268.04 246.214 254.658 244.558C208.533 238.787 172.296 233.66 147.877 235.154C116.353 236.994 85.2431 268.954 90.7155 304.456Z" fill="#37474F"/>
<path d="M252.06 244.099C222.422 239.868 192.668 236.005 162.708 234.648C158.96 234.51 155.189 234.441 151.441 234.487C147.653 234.489 143.87 234.789 140.128 235.384C138.255 235.756 136.416 236.286 134.633 236.971C132.84 237.592 131.092 238.281 129.368 239.063C125.903 240.577 122.56 242.352 119.365 244.375C112.916 248.376 107.168 253.409 102.35 259.274C95.0591 268.139 90.6116 278.997 89.5892 290.43C89.4512 291.373 89.4282 292.316 89.3823 293.258C89.3363 294.201 89.3823 295.167 89.3823 296.133C89.4461 298.044 89.6382 299.949 89.9571 301.835C91.5156 309.242 94.0113 316.42 97.3839 323.196C104.042 336.666 111.777 349.577 120.515 361.801C129.092 374.103 138.197 386.013 147.578 397.694C156.96 409.375 166.732 420.687 176.596 432C166.939 420.503 157.419 409.007 148.222 397.188C139.025 385.37 129.988 373.413 121.573 361.066C113.003 348.825 105.378 335.95 98.7635 322.552C95.4766 315.889 93.0505 308.834 91.5436 301.559C91.2346 299.757 91.0503 297.936 90.9917 296.11C90.9917 294.293 91.1067 292.408 91.2677 290.591C91.6259 286.914 92.3343 283.28 93.3831 279.738C95.4934 272.64 98.9864 266.029 103.661 260.286C108.335 254.523 113.938 249.58 120.239 245.662C123.366 243.668 126.641 241.915 130.034 240.42C131.713 239.661 133.437 238.971 135.185 238.35C136.903 237.689 138.672 237.167 140.473 236.787C144.133 236.213 147.829 235.906 151.533 235.867C155.258 235.867 158.983 235.867 162.731 235.867C177.677 236.304 192.622 237.592 207.499 239.04C222.376 240.489 237.206 242.213 252.06 244.099Z" fill="#263238"/>
<path d="M202.877 301.605C205.53 304.471 207.995 307.504 210.258 310.687C212.81 313.86 215.385 317.01 217.914 320.206C217.455 319.264 217.018 318.321 216.535 317.401C214.925 314.205 213.592 310.894 211.706 307.859C211.706 307.675 211.867 307.491 211.982 307.675C213.936 310.687 216.19 313.561 217.891 316.734C218.673 318.252 219.432 319.77 220.191 321.333C220.559 322.184 220.972 323.012 221.317 323.885C221.478 324.276 221.662 324.69 221.8 325.127C222.927 326.599 224.1 328.093 225.134 329.726C227.572 333.083 229.733 336.624 232.17 339.958C232.308 340.142 232.009 340.326 231.871 340.142C229.411 337.015 226.629 334.117 224.123 330.944C221.616 327.771 219.133 324.529 216.719 321.264C214.304 317.999 212.12 314.826 209.821 311.63C207.26 308.482 204.895 305.18 202.739 301.743C202.739 301.725 202.742 301.707 202.749 301.69C202.756 301.673 202.766 301.658 202.779 301.645C202.792 301.632 202.807 301.622 202.824 301.615C202.841 301.608 202.859 301.605 202.877 301.605Z" fill="#263238"/>
<path d="M200.095 451.245C202.164 449.245 204.417 447.36 206.602 445.451L213.086 439.818C217.547 436.001 222.076 432.276 226.583 428.528C235.642 421.009 244.794 413.605 253.968 406.202C259.096 402.04 264.315 397.993 269.465 393.877C269.465 393.877 269.718 393.877 269.626 394.038C260.935 401.702 252.167 409.367 243.322 417.031C234.477 424.696 225.395 432.199 216.075 439.542C213.5 441.565 210.925 443.589 208.326 445.566C205.728 447.543 203.061 449.705 200.302 451.567C200.187 451.544 199.98 451.36 200.095 451.245Z" fill="#263238"/>
<path d="M352.678 249.939C354.029 258.411 354.246 267.025 353.322 275.553C352.514 284.073 350.112 292.364 346.24 299.995C342.288 307.563 336.278 313.86 328.903 318.16C321.416 322.26 313.082 324.574 304.553 324.92C296.027 325.437 287.47 325.114 279.008 323.954C270.501 322.872 262.058 321.337 253.715 319.356C237.042 315.42 220.663 310.334 204.693 304.134L204.095 303.881L203.796 304.41C202.679 306.416 201.953 308.617 201.658 310.894C201.302 313.133 201.302 315.415 201.658 317.654C202.052 319.871 202.733 322.027 203.681 324.069C204.739 326.026 205.93 327.909 207.245 329.703C212.373 336.831 217.937 343.499 223.525 350.397C229.112 357.295 234.791 363.779 240.54 370.355C246.288 376.931 252.036 383.484 257.923 389.991C252.22 383.369 246.587 376.678 240.977 369.987C235.366 363.296 229.802 356.559 224.283 349.776C218.765 342.993 213.316 336.164 208.303 329.082C207.056 327.339 205.935 325.51 204.946 323.609C204.07 321.679 203.436 319.648 203.061 317.562C202.325 313.396 202.988 309.103 204.946 305.353L204.049 305.629C220.059 311.939 236.494 317.11 253.232 321.103C261.576 323.079 270.019 324.614 278.525 325.702C287.091 326.825 295.747 327.109 304.369 326.553C313.086 326.171 321.589 323.729 329.179 319.425C336.678 314.928 342.758 308.409 346.723 300.616C350.572 292.866 352.868 284.438 353.483 275.806C354.37 267.187 354.1 258.487 352.678 249.939Z" fill="#263238"/>
<path d="M311.589 246.812C312.256 251.41 313.198 255.871 314.256 260.355C314.966 264.441 316.474 268.348 318.694 271.852C321.09 274.946 324.166 277.448 327.684 279.163C329.686 280.232 331.752 281.176 333.869 281.992C336.054 282.716 338.183 283.6 340.238 284.636C340.321 284.687 340.386 284.763 340.423 284.853C340.46 284.943 340.468 285.042 340.445 285.137C340.422 285.231 340.37 285.316 340.295 285.379C340.221 285.442 340.129 285.48 340.031 285.487C337.593 285.333 335.183 284.877 332.858 284.13C330.594 283.535 328.38 282.766 326.235 281.831C322.343 280.03 318.972 277.268 316.44 273.806C314.081 270.027 312.597 265.77 312.095 261.344C311.245 256.579 310.875 251.742 310.991 246.904C310.991 246.421 311.451 246.421 311.589 246.812Z" fill="#263238"/>
<path d="M304.553 3.31269C304.553 3.31269 325.04 -5.88463 341.572 6.37081C358.105 18.6262 364.198 46.0572 359.369 68.2228C354.541 90.3884 371.602 106.691 372.199 123.522C372.797 140.353 361.232 147.136 356.84 155.574C351.804 165.232 365.715 202.159 322.212 206.872C267.787 212.759 250.013 178.131 257.716 151.344C261.487 138.214 269.787 129.362 270.546 118.555C271.305 107.748 264.361 98.505 269.465 85.1459C274.57 71.7868 279.697 74.0861 283.652 52.7713C287.607 31.4565 285.239 5.40508 304.553 3.31269Z" fill="#263238"/>
<path d="M337.87 5.56604C348.619 13.8361 356.578 25.1978 360.68 38.1246C362.754 44.538 363.749 51.2514 363.623 57.9908C363.439 66.7972 361.438 74.8909 363.991 83.6513C368.083 97.7002 377.603 109.91 375.855 125.039C375.029 132.086 372.232 138.757 367.784 144.285C362.588 150.746 355.552 155.62 351.068 162.679C350.884 162.978 350.425 162.679 350.608 162.38C354.379 156.126 360.013 151.574 364.864 146.101C370.668 139.706 374.144 131.54 374.728 122.924C375.51 108.461 366.129 96.5276 362.404 83.0075C360.996 77.0696 360.777 70.9117 361.76 64.8888C362.662 57.5808 362.327 50.1733 360.772 42.9762C357.254 28.4474 349.2 15.4166 337.778 5.77297C337.778 5.77297 337.755 5.47407 337.87 5.56604Z" fill="#263238"/>
<path d="M258.176 147.504C260.061 141.158 263.924 135.593 265.787 129.293C268.086 121.682 266.729 113.818 265.787 106.116C264.568 95.1249 265.649 84.9159 271.282 75.0978C274.915 68.7516 279.192 62.9113 282.043 56.1513C285.156 48.8196 287.185 41.074 288.067 33.158C288.067 32.997 288.343 33.02 288.343 33.158C287.608 44.6467 284.216 55.808 278.433 65.7625C275.03 71.6028 270.914 77.0292 268.684 83.4673C266.397 91.0715 265.793 99.0824 266.913 106.944C267.614 112.278 267.837 117.665 267.58 123.039C266.826 128.46 265.105 133.701 262.499 138.513C256.278 151.242 255.152 165.864 259.349 179.395C259.349 179.625 259.004 179.763 258.912 179.51C255.373 169.172 255.116 157.993 258.176 147.504Z" fill="#263238"/>
<path d="M373.74 121.797C374.246 109.887 366.635 101.103 362.473 90.4343C359.323 82.3406 357.415 73.8332 359.392 65.3716C359.392 65.2337 359.668 65.3716 359.645 65.3716C357.99 77.719 362.266 89.3996 368.268 100.344C372.268 107.633 375.487 114.577 374.844 122.901C374.2 131.224 370.406 137.617 365.209 143.986C361.508 148.584 357.898 152.723 356.012 158.288C354.432 163.89 353.657 169.689 353.713 175.51C353.713 175.808 353.23 175.762 353.23 175.51C353.23 166.542 353.759 157.92 358.886 150.217C365.278 140.56 373.234 133.8 373.74 121.797Z" fill="#263238"/>
<path d="M256.819 138.904C259.072 135.028 261.673 131.364 264.591 127.959C269.695 121.659 270.891 116.302 270.04 108.254C270.052 108.224 270.073 108.199 270.099 108.181C270.126 108.163 270.157 108.153 270.19 108.153C270.222 108.153 270.253 108.163 270.28 108.181C270.306 108.199 270.327 108.224 270.339 108.254C271.972 114.968 272.041 120.441 267.672 126.12C261.579 134.076 255.669 141.273 253.738 151.206C250.289 168.819 258.98 186.224 274.432 196.571C274.662 196.709 274.432 197.031 274.202 196.893C267.843 193.299 262.466 188.195 258.544 182.032C254.623 175.869 252.277 168.836 251.714 161.553C251.289 153.676 253.056 145.837 256.819 138.904Z" fill="#263238"/>
<path d="M296.138 119.751C286.435 165.232 271.558 203.561 259.027 212.46C248.91 219.657 164.064 236.327 161.098 236.649C153.786 237.385 139.99 189.375 145.003 183.281C146.152 181.879 227.779 174.245 230.354 171.601C232.929 168.957 257.187 136.559 276.639 111.657C290.206 94.2052 301.518 94.5271 296.138 119.751Z" fill="#F7A9A0"/>
<path d="M175.653 231.222C168.668 234.632 161.472 237.589 154.108 240.075C148.222 241.776 131.115 246.214 128.654 239.937C126.93 235.637 136.656 231.843 143.462 229.015C147.072 227.521 151.487 223.75 150.36 221.45C148.521 217.403 139.277 221.45 133.184 224.991C121.434 231.889 105.776 244.122 98.5791 238.143C95.8889 235.844 99.0389 231.797 103.638 227.773C96.1648 232.372 88.1861 236.304 85.059 233.913C84.262 233.296 83.7285 232.401 83.5663 231.406C83.4041 230.412 83.6253 229.393 84.1853 228.555C83.2428 228.995 82.1909 229.145 81.1632 228.985C80.1355 228.825 79.1785 228.364 78.4139 227.658C75.9766 225.106 77.1723 221.358 79.8395 217.518C79.3643 217.483 78.9054 217.33 78.504 217.073C78.1026 216.816 77.7714 216.464 77.5402 216.047C72.3897 208.206 98.2342 185.673 107.087 183.557C124.862 179.765 143.075 178.434 161.213 179.602C171.675 187.834 175.653 231.199 175.653 231.222Z" fill="#F7A9A0"/>
<path d="M137.07 206.872C130.82 207.804 124.853 210.104 119.595 213.609C113.456 217.817 108.604 223.566 102.948 228.302C102.926 228.313 102.906 228.329 102.891 228.349C102.876 228.369 102.865 228.392 102.86 228.416C102.856 228.441 102.857 228.466 102.863 228.49C102.87 228.514 102.882 228.536 102.899 228.555C102.915 228.573 102.936 228.588 102.959 228.597C102.983 228.606 103.008 228.609 103.032 228.607C103.057 228.605 103.081 228.597 103.103 228.584C103.124 228.571 103.142 228.553 103.155 228.532C105.822 226.072 108.742 223.934 111.502 221.634C114.261 219.335 116.836 217.036 119.664 214.736C124.814 210.869 130.773 208.22 137.093 206.987C137.093 206.987 137.139 206.872 137.07 206.872Z" fill="#263238"/>
<path d="M132.103 195.629C125.097 197.282 118.279 199.647 111.754 202.688C104.741 206.252 99.2689 212.069 93.8885 217.656C90.6388 221.044 87.4733 224.478 84.3922 227.957C84.2773 228.095 84.3922 228.348 84.5992 228.187C90.0716 222.416 95.705 216.691 101.522 211.356C106.876 206.271 113.182 202.293 120.078 199.653C124.033 198.158 128.08 196.962 132.126 195.767L132.103 195.629Z" fill="#263238"/>
<path d="M124.838 185.903C118.146 187.282 112.283 188.455 106.443 192.042C99.783 196.461 93.7037 201.699 88.3471 207.631C85.404 210.758 82.5758 214 79.7936 217.265C79.6787 217.403 79.7936 217.61 80.0236 217.472C86.3897 210.29 93.2178 203.531 100.465 197.238C103.888 194.181 107.767 191.675 111.961 189.811C116.182 188.157 120.536 186.864 124.975 185.949C124.975 185.949 124.861 185.903 124.838 185.903Z" fill="#263238"/>
<path d="M159.879 177.97L175.975 238.879C175.975 238.879 242.471 225.405 260.866 212.207C279.261 199.009 292.942 140.813 297.655 115.635C302.369 90.4574 285.331 98.2751 274.915 111.266C264.499 124.258 230.331 168.75 229.181 169.761C228.032 170.773 159.879 177.97 159.879 177.97Z" fill="#DBDBDB"/>
<path d="M191.38 233.223C190.529 228.624 189.081 224.14 187.77 219.657C186.46 215.173 185.218 210.827 183.907 206.436C181.24 197.56 178.757 188.547 175.515 179.855C175.515 179.813 175.498 179.772 175.468 179.741C175.437 179.711 175.397 179.694 175.354 179.694C175.311 179.694 175.27 179.711 175.24 179.741C175.21 179.772 175.193 179.813 175.193 179.855C176.986 189.053 179.792 198.043 182.367 207.01C183.7 211.517 185.08 216.001 186.506 220.461C187.808 224.81 189.343 229.085 191.104 233.269C191.127 233.568 191.403 233.43 191.38 233.223Z" fill="#263238"/>
<path d="M297.655 115.589C292.827 140.882 279.054 199.009 260.866 212.161C251.668 218.76 230.584 225.428 211.66 230.441L289.538 99.6087C295.816 97.4473 300.414 100.942 297.655 115.589Z" fill="#C7C7C7"/>
<path d="M372.453 256.837L302.944 246.674L252.634 239.316L237.551 237.017L249.047 195.974L253.784 178.936C253.784 178.936 245.484 164.611 249.507 152.263C254.106 138.283 291.493 100.275 294.39 98.436C305.887 91.1011 318.579 90.6183 329.501 105.725C335.15 114.361 339.663 123.689 342.929 133.478C345.228 139.479 347.275 145.986 349.298 152.723C363.071 198.894 372.453 256.837 372.453 256.837Z" fill="#DBDBDB"/>
<path d="M303.91 193.076C299.632 191.256 295.256 189.675 290.803 188.34C288.504 187.696 286.32 187.167 284.043 186.707C282.94 186.477 281.859 186.27 280.755 186.086C279.652 185.903 278.318 185.834 277.122 185.604C277.007 185.604 276.938 185.788 277.122 185.811C278.226 186.041 279.422 186.477 280.433 186.799L283.79 187.719C286.09 188.363 288.228 189.007 290.481 189.604C294.965 190.823 299.403 192.065 303.841 193.444C304.047 193.467 304.116 193.076 303.91 193.076Z" fill="#263238"/>
<path d="M253.692 179.028C250.143 173.86 248.054 167.831 247.645 161.576C247.441 158.414 247.783 155.24 248.657 152.194C249.652 149.201 250.987 146.331 252.635 143.641C255.998 138.421 259.781 133.484 263.947 128.879C268.07 124.277 272.462 119.924 277.1 115.842C272.961 120.441 268.868 125.039 264.959 129.638C260.99 134.298 257.363 139.239 254.106 144.423C252.487 146.971 251.16 149.693 250.151 152.539C249.315 155.422 248.912 158.413 248.956 161.415C249.135 167.575 250.757 173.608 253.692 179.028Z" fill="#263238"/>
<path d="M273.604 116.946C272.468 119.473 270.99 121.833 269.212 123.959C269.781 122.698 270.434 121.476 271.167 120.303C271.891 119.122 272.705 117.999 273.604 116.946Z" fill="#263238"/>
<path d="M318.349 100.827C317.521 103.127 304.392 117.245 293.585 115.474C290.067 114.899 292.39 95.5388 292.39 95.5388L292.229 94.0903L290.067 73.5343L315.36 61.1639L318.993 59.5773C318.993 59.5773 319.223 65.2337 319.43 72.2696C319.43 72.6145 319.43 72.9364 319.43 73.2813C319.43 73.6262 319.43 74.0631 319.43 74.431C319.43 75.4887 319.43 76.5694 319.545 77.6271C319.66 78.6848 319.545 79.2366 319.545 80.0874C319.545 80.9381 319.545 81.7889 319.545 82.6626C319.558 88.7376 319.159 94.8065 318.349 100.827Z" fill="#F7A9A0"/>
<path d="M319.476 72.2697C316.819 77.6859 313.009 82.4555 308.314 86.2447C303.62 90.0338 298.153 92.7508 292.298 94.2053L290.137 73.6492L315.429 61.2788L319.062 59.6923C319.062 59.6923 319.269 65.2337 319.476 72.2697Z" fill="#263238"/>
<path d="M292.436 95.6078L295.356 112.6L319.085 96.9645L323.224 104.506C323.224 104.506 297.425 131.914 297.655 130.466L294.114 115.589L282.778 122.97L288.458 99.5626L292.436 95.6078Z" fill="white"/>
<path d="M284.963 111.243C286.044 107.403 287.032 103.517 288.297 99.7466C288.297 99.6086 288.573 99.5856 288.573 99.7466C288.573 103.655 284.296 118.302 283.56 121.866C284.02 121.544 293.953 115.474 294.022 115.612C294.965 118.049 297.586 128.902 297.724 129.868C301.794 125.499 318.809 108.553 323.385 104.575C323.523 104.46 323.707 104.575 323.592 104.759C319.844 109.45 297.655 131.914 297.655 131.799C296.148 126.625 294.912 121.375 293.953 116.072C290.178 118.98 286.206 121.622 282.066 123.982C282.803 119.687 283.77 115.434 284.963 111.243Z" fill="#263238"/>
<path d="M270.822 32.1233C254.727 64.6358 272.478 77.903 279.491 81.352C285.86 84.4791 307.933 94.3202 327.248 63.6471C346.562 32.9741 336.445 15.2232 322.304 7.2905C308.163 -0.642188 286.848 -0.504221 270.822 32.1233Z" fill="#F7A9A0"/>
<path d="M278.18 28.6743C278.985 28.9272 279.789 29.0422 280.617 29.2262C281.46 29.5117 282.373 29.5117 283.215 29.2262C283.469 29.0957 283.671 28.885 283.792 28.6271C283.913 28.3691 283.944 28.0785 283.882 27.8006C283.673 27.2681 283.327 26.8004 282.879 26.4451C282.43 26.0897 281.896 25.8593 281.33 25.7772C280.216 25.4413 279.017 25.5398 277.973 26.0531C277.702 26.1635 277.473 26.3574 277.319 26.6066C277.165 26.8558 277.095 27.1475 277.118 27.4394C277.141 27.7312 277.256 28.0083 277.447 28.2303C277.638 28.4523 277.895 28.6078 278.18 28.6743Z" fill="#263238"/>
<path d="M300.76 39.0213C300.065 38.5622 299.397 38.0632 298.759 37.5267C297.978 36.9289 297.311 36.538 296.989 35.5953C296.934 35.3176 296.97 35.0299 297.089 34.7737C297.209 34.5174 297.408 34.3059 297.656 34.1697C298.196 33.9853 298.775 33.9499 299.334 34.0672C299.892 34.1846 300.409 34.4503 300.829 34.8365C301.811 35.4649 302.518 36.4429 302.806 37.5727C302.855 37.8321 302.828 38.1001 302.729 38.3447C302.63 38.5894 302.463 38.8004 302.247 38.9529C302.032 39.1054 301.777 39.1929 301.513 39.205C301.25 39.2171 300.988 39.1534 300.76 39.0213Z" fill="#263238"/>
<path d="M291.792 44.7236C291.792 44.7236 291.907 44.9306 291.792 45.0226C290.619 47.1839 289.654 49.8741 291.309 51.5986C291.309 51.5986 291.309 51.7596 291.309 51.7136C289.01 50.1731 290.343 46.6091 291.792 44.7236Z" fill="#263238"/>
<path d="M294.896 43.39C298.598 44.8846 295.356 52.1735 291.93 50.7939C288.504 49.4143 291.815 42.1484 294.896 43.39Z" fill="#263238"/>
<path d="M296.161 44.4248C296.621 45.1146 296.919 46.1263 297.632 46.5401C298.345 46.954 299.495 46.5401 300.414 46.0803C300.414 46.0803 300.529 46.0803 300.414 46.2182C299.817 47.6208 298.644 48.8165 297.057 48.3566C295.471 47.8967 295.195 46.2642 295.471 44.7236C295.586 44.4247 295.977 44.1488 296.161 44.4248Z" fill="#263238"/>
<path d="M279.467 38.6534C279.467 38.6534 279.237 38.6534 279.214 38.7913C278.295 41.0907 276.915 43.551 274.478 43.39C274.478 43.39 274.363 43.505 274.478 43.505C277.099 44.2867 278.962 40.9757 279.467 38.6534Z" fill="#263238"/>
<path d="M278.479 35.4113C274.961 33.5489 271.581 40.7228 274.754 42.4473C277.927 44.1718 281.56 36.9749 278.479 35.4113Z" fill="#263238"/>
<path d="M276.755 35.1584C276.019 35.2734 275.122 35.6873 274.455 35.4113C273.788 35.1354 273.444 34.0087 273.306 33.112C273.306 33.112 273.306 33.112 273.168 33.112C272.736 33.6804 272.521 34.3847 272.563 35.0975C272.606 35.8103 272.901 36.4844 273.398 36.9979C274.501 37.8256 275.95 36.9979 276.938 35.8712C277.076 35.5953 276.962 35.1125 276.755 35.1584Z" fill="#263238"/>
<path d="M278.134 50.9318C278.134 50.9318 276.133 54.0589 275.398 55.5305C275.398 55.6685 275.697 55.9214 276.202 56.1973C277.441 57.0716 278.897 57.5878 280.41 57.6892C281.923 57.7906 283.434 57.4733 284.779 56.7722C284.818 56.7521 284.849 56.7187 284.865 56.678C284.882 56.6373 284.883 56.5921 284.869 56.5505C284.855 56.5088 284.827 56.4735 284.789 56.4509C284.752 56.4283 284.707 56.4199 284.664 56.4273C282.012 56.8829 279.284 56.4632 276.892 55.2316C276.892 54.7488 280.502 49.9891 280.272 49.8512C278.991 49.3904 277.653 49.1042 276.294 49.0004C280.295 42.3553 285.308 36.4001 289.194 29.709C289.23 29.6602 289.246 29.5989 289.237 29.5385C289.229 29.4782 289.196 29.4237 289.148 29.3871C289.099 29.3505 289.038 29.3348 288.977 29.3434C288.917 29.3521 288.862 29.3843 288.826 29.4331C283.247 35.6554 278.302 42.4182 274.064 49.6212C273.581 50.518 277.398 50.9088 278.134 50.9318Z" fill="#263238"/>
<path d="M325.386 61.7846C318.717 60.704 321.385 45.5284 321.385 45.5284C321.385 45.5284 295.402 32.8821 299.633 9.93476C293.521 17.9815 284.546 23.3665 274.57 24.9724C274.57 24.9724 282.687 0.852394 303.427 1.77213C303.427 1.77213 330.007 0.070631 337.917 23.0869C345.827 46.1032 329.846 62.4974 325.386 61.7846Z" fill="#263238"/>
<path d="M299.954 8.25623C298.625 11.6011 298.029 15.1923 298.207 18.7872C298.309 22.4204 299.17 25.9921 300.736 29.2721C301.118 30.064 301.548 30.8318 302.024 31.5714L302.714 32.7441C302.967 33.135 303.242 33.4799 303.518 33.8478C304.093 34.5606 304.622 35.2964 305.22 35.9632C305.818 36.63 306.485 37.2508 307.128 37.8716C307.772 38.4924 307.772 38.5154 308.117 38.7913L309.175 39.6191L311.313 41.2516C312.831 42.1944 314.394 43.0681 315.912 43.8959C314.555 42.7462 313.107 41.7575 311.773 40.6078L309.819 38.8603L308.853 37.9636C308.554 37.6647 308.278 37.3198 308.002 36.9979C307.726 36.676 306.852 35.6873 306.255 35.0435C305.657 34.3996 305.266 33.6409 304.76 32.9511L304.001 31.9164L303.357 30.7897C302.918 30.0454 302.519 29.2778 302.162 28.4903C300.681 25.3693 299.748 22.0172 299.403 18.5802C299.226 16.8462 299.188 15.1009 299.288 13.3607C299.369 11.6437 299.592 9.93641 299.954 8.25623Z" fill="#263238"/>
<path d="M320.649 73.8791C320.075 73.8855 319.503 73.8159 318.947 73.6722C318.383 73.5687 317.84 73.3746 317.338 73.0974C316.674 72.7712 316.092 72.2996 315.636 71.7178C315.261 71.2693 314.959 70.7651 314.739 70.2232C314.419 69.4961 314.232 68.7172 314.188 67.9239L319.568 59.6233C319.568 59.6233 331.065 51.9665 334.813 56.4502C338.56 60.9339 327.041 73.9941 320.649 73.8791Z" fill="#F7A9A0"/>
<path d="M331.386 60.0372V60.1982C326.788 60.1982 323.339 63.1183 320.396 66.3374C320.777 66.0304 321.221 65.8099 321.696 65.6914C322.172 65.5729 322.667 65.5591 323.148 65.6509C323.629 65.7428 324.085 65.9381 324.483 66.2234C324.881 66.5086 325.212 66.8771 325.454 67.3031C325.454 67.3031 325.454 67.533 325.27 67.4871C324.666 66.9938 323.923 66.7002 323.145 66.6466C322.367 66.5931 321.591 66.7823 320.924 67.1881C319.814 67.881 318.782 68.6904 317.843 69.6024C317.521 69.8784 316.97 69.4415 317.269 69.0966C319.154 63.9461 325.799 58.4507 331.386 60.0372Z" fill="#263238"/>
<path d="M320.649 72.2927C320.405 72.6571 320.029 72.9132 319.601 73.0074C319.172 73.1017 318.724 73.0269 318.349 72.7985C318.067 72.6214 317.844 72.3643 317.709 72.0599C317.573 71.7556 317.531 71.4178 317.588 71.0896C317.645 70.7614 317.799 70.4575 318.029 70.2168C318.259 69.976 318.556 69.8093 318.881 69.7377C319.207 69.6661 319.546 69.693 319.856 69.8148C320.166 69.9367 320.433 70.1481 320.622 70.4221C320.812 70.6961 320.916 71.0202 320.92 71.3534C320.925 71.6865 320.83 72.0134 320.649 72.2927Z" fill="white"/>
<path d="M324.833 71.212C324.708 71.4061 324.528 71.5589 324.317 71.6513C324.105 71.7436 323.871 71.7713 323.643 71.731C323.416 71.6906 323.205 71.5839 323.038 71.4244C322.871 71.2648 322.755 71.0595 322.704 70.8341C322.653 70.6087 322.67 70.3734 322.753 70.1576C322.835 69.9418 322.979 69.7552 323.168 69.6212C323.356 69.4872 323.579 69.4117 323.81 69.4043C324.041 69.3969 324.269 69.4578 324.466 69.5794C324.728 69.7493 324.914 70.0154 324.983 70.3206C325.051 70.6258 324.998 70.9458 324.833 71.212Z" fill="white"/>
<path d="M277.582 166.197C277.582 166.197 297.241 130.558 308.416 112.278C319.591 93.9983 330.26 97.2174 331.087 118.601C331.915 139.985 338.215 167.439 318.234 202.481C266.453 293.258 277.582 166.197 277.582 166.197Z" fill="#DBDBDB"/>
<path d="M320.12 45.4595L270.063 80.7312C269.703 80.8584 269.385 81.0806 269.141 81.3742C268.897 81.6678 268.737 82.022 268.678 82.3991C268.619 82.7763 268.663 83.1623 268.806 83.5163C268.949 83.8704 269.185 84.1792 269.489 84.4101L285.791 106.185C286.548 106.739 287.446 107.068 288.382 107.133C289.318 107.198 290.253 106.997 291.079 106.553L341.136 71.212C341.49 71.0825 341.804 70.8604 342.044 70.5687C342.284 70.2771 342.441 69.9265 342.5 69.5534C342.559 69.1803 342.517 68.7983 342.378 68.447C342.239 68.0958 342.008 67.7882 341.711 67.556L325.408 45.9193C324.661 45.3503 323.767 45.005 322.831 44.9236C321.895 44.8422 320.954 45.028 320.12 45.4595Z" fill="#A6A6A6"/>
<path d="M321.591 47.2299L271.535 82.5017C271.18 82.6348 270.868 82.8598 270.628 83.1535C270.389 83.4472 270.233 83.7992 270.174 84.1734C270.116 84.5476 270.158 84.9306 270.296 85.2833C270.434 85.636 270.663 85.9456 270.96 86.1806L287.285 107.955C288.037 108.51 288.932 108.84 289.865 108.905C290.797 108.97 291.729 108.768 292.551 108.323L342.607 73.0514C342.964 72.9245 343.28 72.7044 343.522 72.4139C343.764 72.1235 343.924 71.7733 343.985 71.3999C344.047 71.0266 344.006 70.6437 343.869 70.2911C343.732 69.9386 343.503 69.6293 343.205 69.3955L326.88 47.6208C326.125 47.0627 325.228 46.7297 324.292 46.6605C323.356 46.5913 322.42 46.7888 321.591 47.2299Z" fill="#DBDBDB"/>
<path d="M326.19 54.7717C325.845 55.1515 325.395 55.4205 324.897 55.5448C324.398 55.669 323.875 55.6429 323.391 55.4698C322.908 55.2967 322.487 54.9843 322.181 54.5721C321.875 54.1598 321.698 53.6662 321.673 53.1535C321.647 52.6408 321.774 52.132 322.037 51.6913C322.3 51.2506 322.688 50.8978 323.152 50.6774C323.615 50.4569 324.134 50.3787 324.642 50.4526C325.15 50.5266 325.625 50.7493 326.006 51.0928C326.514 51.5586 326.819 52.2059 326.853 52.8945C326.888 53.5831 326.649 54.2576 326.19 54.7717Z" fill="#263238"/>
<path d="M264.66 220.14C264.821 239.178 290.435 241.891 299.15 233.154C319.568 212.69 336.353 169.623 343.826 144.584C346.24 136.536 292.849 117.59 288.964 125.683C284.25 135.409 264.338 182.844 264.66 220.14Z" fill="#F7A9A0"/>
<path d="M331.456 158.334C340.544 150.481 347.837 140.765 352.839 129.845C358.082 117.796 366.635 90.3424 343.642 58.5656C338.17 51.0238 325.063 44.1718 329.501 59.6923C332.674 70.7291 337.986 76.7763 338.699 83.5134C338.699 83.5134 320.994 76.7763 313.682 82.5246C307.271 87.5641 301.224 93.0502 295.586 98.9418C296.439 100.215 297.368 101.436 298.368 102.598C293.219 109.255 290.033 117.219 289.171 125.591L331.456 158.334Z" fill="#F7A9A0"/>
<path d="M355.92 117.543C353.828 110.99 349.206 97.1484 341.48 87.1693C332.881 76.0635 313.359 57.002 305.243 63.4172C299.264 68.0158 306.094 76.0635 306.094 76.0635C306.094 76.0635 296.367 69.8783 291.907 75.3047C287.837 80.2483 293.493 86.0886 293.493 86.0886C293.493 86.0886 286.94 83.3524 283.951 88.8708C280.341 95.4928 294.666 100.138 296.827 110.025C297.31 112.232 355.92 117.543 355.92 117.543Z" fill="#F7A9A0"/>
<path d="M331.248 98.1831C325.404 88.4353 316.725 80.7025 306.37 76.0175C306.117 75.9026 305.887 76.0175 306.117 76.2015C315.328 82.5159 323.737 89.9282 331.156 98.275C331.156 98.275 331.294 98.2521 331.248 98.1831Z" fill="#263238"/>
<path d="M319.798 106.53C316.717 101.747 305.726 90.2964 293.632 85.8357C293.379 85.8357 293.149 85.8357 293.379 86.0196C302.902 91.8571 311.733 98.7529 319.706 106.576C319.706 106.576 319.844 106.599 319.798 106.53Z" fill="#263238"/>
<path d="M262.038 223.336C263.073 242.489 289.63 245.57 298.828 236.902C320.235 216.553 337.48 173.394 345.113 148.286L283.859 129.385C278.962 139.111 260.061 186.983 262.038 223.336Z" fill="#DBDBDB"/>
<path d="M286.825 130.305L283.79 129.431C280.226 138.973 277.03 148.699 274.087 158.449C271.144 168.198 268.454 178.085 266.315 188.041C264.177 197.997 262.223 208.091 262.498 218.185C262.453 223.175 263.713 228.089 266.154 232.441C267.456 234.491 269.22 236.208 271.305 237.453C273.446 238.659 275.78 239.484 278.203 239.891C283.08 240.909 288.146 240.51 292.804 238.741C297.411 236.784 301.543 233.859 304.921 230.165C311.612 222.557 317.193 214.042 321.499 204.872C326.098 195.675 329.961 186.316 334.008 176.935C338.054 167.554 342.032 158.15 345.021 148.377L343.09 147.711L345.044 148.331C343.757 153.298 342.009 158.104 340.262 162.909C338.514 167.715 336.675 172.474 334.789 177.211C330.881 186.661 327.087 196.158 322.672 205.401C320.478 210.044 318.022 214.558 315.314 218.921C312.67 223.334 309.589 227.471 306.117 231.268C302.609 235.165 298.293 238.249 293.47 240.305C288.526 242.208 283.14 242.655 277.95 241.592C275.327 241.158 272.803 240.255 270.5 238.925C268.183 237.542 266.228 235.627 264.798 233.338C262.236 228.727 260.921 223.528 260.981 218.254C260.906 213.096 261.283 207.941 262.108 202.849C262.866 197.767 263.924 192.778 265.051 187.765C269.809 167.843 276.097 148.317 283.859 129.362L286.825 130.305Z" fill="#263238"/>
<path d="M307.795 155.252C303.197 153.942 285.009 149.021 280.364 148.354C280.227 148.354 280.181 148.607 280.364 148.653C284.664 150.585 302.829 156.057 307.382 157.368C316.454 160.14 325.664 162.443 334.974 164.266C335.181 164.266 335.295 163.944 335.112 163.875C326.162 160.528 317.045 157.649 307.795 155.252Z" fill="#263238"/>
</svg>
