<svg xmlns="http://www.w3.org/2000/svg" width="426" height="330" fill="none"><path fill="#AD6359" d="M130 149.98c12.32 53.57 37.78 117.8 48.66 128.22 13.75 13.18 104.74 37.36 109.27 37.85 11.2 1.13 33.76-79.76 21.79-81.5-18.2-2.64-84.46-6.23-88.42-10.3-3.96-4.07-32.08-39.53-60.82-79.36-19.84-27.53-38.13-28.16-30.47 5.09Z"/><path fill="#AD6359" d="M278.92 311.68c1.33.67 20.35 10.24 32.1 13.64 8.77 2.55 34.2 9.2 37.97-.2 2.58-6.37-11.93-12.04-22.1-16.28-5.35-2.24-11.95-7.83-10.37-11.28 2.8-6.01 16.55 0 25.62 5.3 17.53 10.18 40.88 28.52 51.58 19.58 4.05-3.36-.65-9.49-7.52-15.49 11.19 7 23.06 12.74 27.69 9.18 2.67-2.03 2.8-4.81 1.31-7.98 3.44 1.13 6.48.9 8.6-1.4 3.63-3.8 1.87-9.4-2.1-15.15a4.3 4.3 0 0 0 3.3-2.15c7.68-11.71-30.79-45.33-44.06-48.48-39.11-9.3-80.33-7.57-80.33-7.57-15.36 12.32-21.73 78.25-21.69 78.28Z"/><path fill="#263238" d="M336.43 275.68a66.4 66.4 0 0 1 26.1 10.03c9.91 6.55 16.49 14.22 24.8 21.93a.24.24 0 0 1-.01.3.23.23 0 0 1-.3.05c-3.96-3.67-20.38-17.46-24.62-20.6a63.32 63.32 0 0 0-25.97-11.56c-.13-.01-.1-.18 0-.15Zm7.29-16.61c10.28 2.8 20.82 5.6 30.36 10.52 10.44 5.32 18.6 14 26.58 22.4 4.84 5 9.55 10.13 14.15 15.38.18.23-.11.58-.3.35a641.1 641.1 0 0 0-25.2-25.18 83.68 83.68 0 0 0-27.7-17.47c-5.87-2.25-11.92-4.02-17.96-5.82-.09-.02-.04-.2.07-.18Zm10.98-14.51c10 2.06 18.7 3.8 27.55 9.15 11.71 7.1 23.02 19.03 26.98 23.27a387.5 387.5 0 0 1 12.74 14.37c.17.2-.17.5-.35.3a331.55 331.55 0 0 0-30.46-30.17 66.33 66.33 0 0 0-17.04-11.08c-6.3-2.48-12.8-4.4-19.43-5.77 0 0-.07-.08.01-.07Z"/><path fill="#FFC727" d="m294.31 230.18-27.98 88.65s-75.77-21.63-89.55-36.56c-13.78-14.93-39.4-92.02-46.91-129.4-7.52-37.37 11.37-36.37 28.74-12.88 17.36 23.5 60.6 80.66 62.96 81.9 2.36 1.25 72.74 8.29 72.74 8.29Z"/><path fill="#000" d="m294.31 230.18-27.98 88.65s-75.77-21.63-89.55-36.56c-13.78-14.93-39.4-92.02-46.91-129.4-7.52-37.37 11.37-36.37 28.74-12.88 17.36 23.5 60.6 80.66 62.96 81.9 2.36 1.25 72.74 8.29 72.74 8.29Z" opacity=".1"/><path fill="#263238" d="M259.05 279.44c3.4-10.45 6.87-20.87 9.87-31.45 1.7-6 3.44-12.02 5.09-18.03.07-.24-.3-.37-.4-.14a726.65 726.65 0 0 0-10.96 31.27c-3.34 10.52-6.74 20.99-9.93 31.44-1.81 5.99-3.45 12-4.89 18.09 0 .11.17.18.21.07 4.17-10.23 7.6-20.72 11.01-31.25Zm-30.93 27.2-3.36-1.17a451.9 451.9 0 0 1-21.11-8.1c-1.22-.5-2.44-1.02-3.61-1.54l-1.77-.77-.63-.28-1.82-.84a140.2 140.2 0 0 1-6.81-3.33l-1.4-.78a52.69 52.69 0 0 1-9.35-6.15c-.26-.23-.53-.47-.76-.71-.24-.24-.5-.48-.7-.7-13.86-14.93-39.4-92.02-46.92-129.4l-.25-1.28v-.28c-.5-2.8-.95-6.35-1.32-10.16-1.05-18.6 7.76-21.63 18.63-13.46 27.1 58.16 68.61 154.27 81.18 178.95Z"/><path fill="#EBEBEB" d="m188.81 321.53-165.1.87c.14-3.55 23.65-107.51 42.34-145.88 23.97-49.2 36.38-53.17 43.7-55.8 9.44-3.38 26.26-1.7 30.25.18 4.53 2.12 18.94 27.27 24.1 45.73 10.33 37.12 27.04 152.63 24.72 154.9Z"/><path fill="#FFC727" d="M101.28 124.61s20.99 77.73 22.04 82.89C124.9 215 135.37 322 135.37 322l-115.09.4S45.4 223.34 64.1 179.96c20.4-47.57 37.2-55.35 37.2-55.35Z"/><path fill="#000" d="M101.28 124.61s20.99 77.73 22.04 82.89C124.9 215 135.37 322 135.37 322l-115.09.4S45.4 223.34 64.1 179.96c20.4-47.57 37.2-55.35 37.2-55.35Z" opacity=".1"/><path fill="#FFC727" d="M141.5 122.1c.62 2.48 19.97 65.63 21.32 81.37 1.5 17.46 14.73 118.93 14.73 118.93h16.8s-24.31-145.78-30.99-161.19c-13.65-31.44-21.85-39.1-21.85-39.1Z"/><path fill="#000" d="M141.5 122.1c.62 2.48 19.97 65.63 21.32 81.37 1.5 17.46 14.73 118.93 14.73 118.93h16.8s-24.31-145.78-30.99-161.19c-13.65-31.44-21.85-39.1-21.85-39.1Z" opacity=".1"/><path fill="#AD6359" d="M79.55 142.79c-27.64 29.62-94.86 142-73.54 162.5 21.33 20.5 139.71-7.1 172.95-22.95 9.9-4.7-27.69-66.38-39.31-67.82-9.69-1.19-59.16 21.44-60.6 18.6-1.61-3.22 6.25-26.96 18.19-69.96 13.7-49.56-5.46-33.47-17.69-20.37Zm109.24 51.84c24.03-3.36 30.78-.52 49.51-14.12 12.33-8.93 23.33-4.88 16.29 9.29-11.5 23.2-41.61 34.03-53.17 34.78l-12.63-29.95Z"/><path fill="#AD6359" d="M124.93 217.74s27.02-15 52.28-21.1c17.47-4.2 56.5-9.16 93.86 29.38 8.86 9.14 15 28.45-4.88 18.78-14.13-6.87-20.99-15.49-29.96-18 0 0 4.9 25.49-4.6 34a234.7 234.7 0 0 1-26.4 20.5 48.26 48.26 0 0 1-4.28-4.6s-9.63 7.12-27.74 5.39l-48.28-64.35Z"/><path fill="#AD6359" d="M194.54 195.35c8.4 4.36 25.9 13.88 37.54 26.67 12.94 14.22 34.03 45.06 23.43 54.57-7.75 6.93-16.79-4.2-16.79-4.2s6.03 14.6-2.35 19.31c-7.62 4.31-14.14-4.67-14.14-4.67s2.14 9.47-6.02 12.2c-9.8 3.27-12.68-17.13-25.48-22.39-2.92-1.26 3.8-81.49 3.8-81.49Z"/><path fill="#263238" d="M214.8 233.13c7.17 5.39 20.35 21.8 24 38.8.08.4-.16.66-.31.32a189.53 189.53 0 0 0-23.79-39c-.11-.12 0-.12.1-.12Zm-13.97 13.47c5.73 5.3 18.56 22.81 21.65 40.18.07.39-.2.64-.32.29a202.29 202.29 0 0 0-21.45-40.35c-.09-.09 0-.18.12-.11Zm35.4-19.96c7.84 2.3 12.93 6.16 19.6 10.75a107.6 107.6 0 0 0 10.08 6.39c3.19 1.72 7.9 4.32 11.29 1.62 1.9-1.5 1.88-4.2 1.4-6.4a31.45 31.45 0 0 0-4.31-8.9c0-.12.1-.24.18-.14a45.4 45.4 0 0 1 4.7 7.94c.85 1.92 1.1 4.05.72 6.12-1.16 4.3-6.26 4.88-9.8 3.7a34.65 34.65 0 0 1-6.15-2.99 97.5 97.5 0 0 1-5.6-3.5c-3.72-2.52-7.29-5.24-10.98-7.8a101.51 101.51 0 0 0-11.2-6.53.14.14 0 0 1-.06-.06.13.13 0 0 1-.01-.1c0-.03.03-.06.05-.08a.14.14 0 0 1 .1-.02Z"/><path fill="#263238" d="M252.65 254.2c-2.03-4.46-13.02-23.07-16.57-27.38a.11.11 0 0 1 .01-.14.11.11 0 0 1 .14-.02c6.12 5.8 15.93 21.18 18.2 26.1 2.26 4.93 4.86 11.1 4.86 16.51 0 8.19-5.43 9.8-7.43 10.15-2.4.43-4.86.02-7-1.15a21.28 21.28 0 0 1-6.32-5.93c-.08-.11.07-.27.17-.16 2.8 3.24 7.55 6.41 11.99 5.82a7.38 7.38 0 0 0 5.06-2.73 9.67 9.67 0 0 0 1.32-6.58 45.26 45.26 0 0 0-4.43-14.49Z"/><path fill="#FFC727" d="m124.93 217.74 37.89 79.75s-148.2 33.28-161 7.47c-12.78-25.8 44.78-126.76 70.7-156.17 30.08-34.08 33.91-22.48 27.3 7.72-7 31.62-20.34 77.35-20.34 77.35l45.45-16.12Z"/><path fill="#000" d="m124.93 217.74 37.89 79.75s-148.2 33.28-161 7.47c-12.78-25.8 44.78-126.76 70.7-156.17 30.08-34.08 33.91-22.48 27.3 7.72-7 31.62-20.34 77.35-20.34 77.35l45.45-16.12Z" opacity=".1"/><path fill="#263238" d="M34.44 255.09a167.17 167.17 0 0 1 44.54-21.96c4.5-1.4 9.02-2.73 13.56-4.03.14 0 .2.18 0 .23a213.61 213.61 0 0 0-23.22 9.03c-7.54 3.36-15 6.86-22.38 10.48-4.2 2.06-8.28 4.31-12.4 6.51a.16.16 0 0 1-.07-.04.17.17 0 0 1-.03-.22Z"/><path fill="#263238" d="M124.54 217.53c-.75.2-41.28 13.59-42.6 14.2.16-.61 7.44-22.16 8.53-25.32l.3-.94c.73-1.4 1.49-2.8 2.17-4.2.87-1.83 1.74-3.7 2.6-5.6h-.1l-2.79 5.42c-.43.83-.84 1.68-1.25 2.53.72-2.22 1.4-4.46 2.09-6.71 1.09-3.57 2.07-7.18 3.04-10.8 0-.12-.14-.15-.19 0-2.15 6.3-4.5 12.5-6.67 18.79-2.17 6.28-10.5 29.38-10.44 29.38a12192.63 12192.63 0 0 0 45.62-16.17.34.34 0 0 0-.06-.55.33.33 0 0 0-.25-.03Zm2.73 51.98c-4.2-8.88-8.27-17.82-12.77-26.58-2.56-4.97-5.09-9.95-7.7-14.9-.09-.17-.42 0-.34.16 3.83 9.1 7.7 18.2 11.95 27.13 4.25 8.94 8.4 17.77 12.72 26.59 2.46 5 5.08 9.94 7.85 14.79 0 .1.22 0 .18 0-3.53-9.27-7.68-18.2-11.9-27.19Z"/><path fill="#263238" d="M164.74 298.73c-1.49-2.47-3.36-6-4.94-8.4-.42-.63-.91-.5-.58.15 1.13 2.24 2.07 4.75 3.18 7-2.07.42-4.2.78-6.24 1.22-2.4.5-4.8 1.02-7.2 1.5l-14.17 2.8a652.9 652.9 0 0 1-28.82 4.7 565.17 565.17 0 0 1-58.29 5.48c-5.46.2-10.93.3-16.38.22-5.39.02-10.77-.25-16.12-.78-.16 0-.19.24 0 .26 4.6.98 9.28 1.59 13.99 1.82 4.94.24 9.9.35 14.84.3 9.8-.12 19.69-.76 29.5-1.65a704.64 704.64 0 0 0 82.31-12.55c2.7-.6 9.17-1.66 8.92-2.07Z"/><path fill="#AD6359" d="M141.54 151.11c-9.8 2.7-27.33-11.78-34.5-23.78-.48-.83.48-9.73 1.14-20.6.38-6.59.63-14 .38-20.68 0-1.4 42.57 8.7 42.57 8.7S147.5 109 148 120.72c.04.95.18 1.88.4 2.8l.08.45c1.05 5.19 2.53 24.53-6.94 27.14Z"/><path fill="#263238" d="M111.16 86.22c2.38 11.3 10.47 38.52 33 38.2 1.44-.02 2.88-.15 4.3-.4.02-.15.02-.3 0-.46a18.7 18.7 0 0 1-.4-2.8c-.5-11.73 3.13-26 3.13-26s-30.8-7.27-40.03-8.54Z"/><path fill="#455A64" d="M156.21 65.86c-.47 10.33 6.5 19.03 15.56 19.45 9.07.42 16.8-7.64 17.25-17.97.47-10.32-6.5-19.03-15.55-19.43-9.06-.4-16.8 7.62-17.26 17.95Z"/><path fill="#C7C7C7" d="M187.36 67.91c.52-11.48-7.23-21.16-17.31-21.62-10.09-.46-18.68 8.49-19.2 19.97-.52 11.49 7.23 21.17 17.31 21.63 10.09.45 18.68-8.49 19.2-19.98Z"/><path fill="#AD6359" d="M114.11 32.48c-7.33 13.82-7.8 57.77.83 69.27 12.5 16.65 37.05 22.76 52.19 6.86 14.73-15.48 14.31-72.76 4.3-83.63-14.7-16.05-46.49-12.92-57.32 7.5Z"/><path fill="#263238" d="M150.66 66.45c0-.11-.24.15-.22.28.15 2.95-.16 6.36-2.8 7.4-.09 0-.07.18 0 .17 3.27-.53 3.64-5.07 3.02-7.85Z"/><path fill="#263238" d="M147.94 63.43c-4.77-.26-4.92 9.3-.51 9.52 4.4.23 4.52-9.31.51-9.52Zm19.28 3.38c0-.11.23.16.23.27-.14 2.96.2 6.38 2.8 7.4.08 0 0 .18 0 .17-3.23-.52-3.64-5.05-3.03-7.84Z"/><path fill="#263238" d="M169.93 63.83c4.75-.3 4.98 9.26.56 9.53-4.43.27-4.57-9.36-.56-9.53Zm-26.27-8.04c1.4-.07 2.56-.37 3.9-.56a6.33 6.33 0 0 0 3.84-1.4 2.02 2.02 0 0 0 .14-2.47 5 5 0 0 0-4.85-1.4 7.3 7.3 0 0 0-4.78 2.31 2.17 2.17 0 0 0 .58 3.21c.35.22.76.32 1.17.3Zm30.76 1.05a36.12 36.12 0 0 1-3.78-1.05 6.3 6.3 0 0 1-3.65-1.75 2.01 2.01 0 0 1 .15-2.47 5.03 5.03 0 0 1 5.01-.85 7.37 7.37 0 0 1 4.45 2.88 2.16 2.16 0 0 1-.99 3.08c-.38.17-.79.22-1.2.16Zm-29.16 37.05c.7.7 1.4 1.66 2.46 1.77a7.95 7.95 0 0 0 3.2-.7h.05a.11.11 0 0 1 .07.1v.06a3.96 3.96 0 0 1-3.78 1.55 3.18 3.18 0 0 1-2.3-2.66c-.04-.17.19-.24.3-.12Zm3.26-8.82a10.07 10.07 0 0 0 6.64 4.59 12.59 12.59 0 0 0 4.33.17l.64-.1a.74.74 0 0 0 .62-.64v-.59c.1-2.28 0-5.75 0-5.75.82.44 5.05 2.42 5 1.23-.43-9.87-.9-20.84-3.4-30.57a.28.28 0 0 0-.28-.22.28.28 0 0 0-.27.22c0 9.5 1.73 18.93 1.91 28.47a17.98 17.98 0 0 0-4.73-1.52c-.32.1.44 6.7.31 7.72a.7.7 0 0 1 0 .12c-3.85.41-6.71-.79-10.38-3.42-.34-.15-.57.03-.4.28Z"/><path fill="#263238" d="M157.46 88.7a11.88 11.88 0 0 1-4.84 3.65 5.4 5.4 0 0 1-3.28.15c-2.35-.67-2.38-2.8-1.91-4.69.25-.97.63-1.9 1.1-2.8a15.5 15.5 0 0 0 8.93 3.7Z"/><path fill="#FF98B9" d="M152.62 92.35a5.4 5.4 0 0 1-3.28.15c-2.35-.67-2.38-2.8-1.91-4.69 2.53.31 5 2.07 5.19 4.54Z"/><path fill="#263238" d="M108.61 63.51c2.89-.46 9.8-10.21 12.72-14.09 2.93-3.88 4.62-24.65 4.89-29.38a31.13 31.13 0 0 0-12.12 12.4c-3.28 6.2-5.16 18.42-5.49 31.07Z" opacity=".2"/><path fill="#263238" d="M161.96 37.25a14.88 14.88 0 0 1-13.74 4.6 15.16 15.16 0 0 1-11.38-9.42c0-.15-.28-.07-.23.07A15 15 0 0 0 148 43.04a15.3 15.3 0 0 0 14.25-5.6.18.18 0 0 0 0-.1.18.18 0 0 0-.17-.13.18.18 0 0 0-.1.04ZM147.75 0c-8.63-.08-16.7 4.44-20.04 10.2a16.7 16.7 0 0 0-1.96 10.83c0 .15.33.13.31 0a18.31 18.31 0 0 1 9.17-16.27A23.64 23.64 0 0 1 156.2 2.9a14.83 14.83 0 0 1 7.81 6.69c.17.32.81.14.69-.18-2.19-5.49-9.17-9.35-16.96-9.42Zm49.45 20.28a19.07 19.07 0 0 0-7.77-10.48c-5.2-3.45-11.2-3.15-17.13-2.73a.13.13 0 0 0-.12.12c0 .04.01.07.03.1.03.02.06.03.1.03 5.06-.34 10.22-.4 14.78 2.14a18.66 18.66 0 0 1 8.4 9.36 18.2 18.2 0 0 1-8.26 22.39 18.52 18.52 0 0 1-14.63 1.02c-.2-.07-.34.2-.16.28a18.62 18.62 0 0 0 24.8-22.23h-.03Z"/><path fill="#263238" d="M111 40.94s-7.65-15.71-.48-24.39c4.05-4.9 16.9-3.79 16.9-3.79s4.4-7.23 15.15-9.29C153.32 1.41 166 8.14 166 8.14s10.44-5.47 19.82.35c13.08 8.12 10.67 28.4-3.01 34.44-9.6 4.2-22.1-4.56-22.1-4.56-1.25.12-14.15 7.26-23.28-4.34 0 0-8 6.6-14.79 1.52a11.2 11.2 0 0 1-11.64 5.4Z"/><path fill="#AD6359" d="M116.5 68.83s-7.27-15.4-14.11-13.1c-6.84 2.3-3.05 23.59 3.8 27.6a7.59 7.59 0 0 0 10.7-2.29l-.4-12.21Z"/><path fill="#263238" d="M103.62 61.79c-.11 0-.17.14 0 .2 4.78 2.96 6.67 8.2 7.7 13.48-1.18-2.17-3.1-3.57-5.95-2.2a.16.16 0 0 0-.07.09.17.17 0 0 0 0 .1c0 .03.03.06.06.09.02.02.06.03.1.03a4.69 4.69 0 0 1 4.78 2.48c.72 1.44 1.3 2.95 1.7 4.5.17.5 1.04.4.95-.16v-.13c1.18-6.53-2.33-16.6-9.27-18.48Z"/><path fill="#C7C7C7" d="m132.32 99.82-13.79-5.95-11.08-13.8 2.13-1.71 10.66 13.27 13.17 5.68-1.1 2.5Z"/><path fill="#37474F" d="M130.85 97.62c1.4-4.01 12.59-2.53 10.56 3.54-2.03 6.07-11.92.45-10.56-3.54Z"/><path fill="#C7C7C7" d="M102.18 55.31s-1.5-22.57 5.1-34.98c7.36-13.86 37.87-27.06 58.77-12.16 0 0-33.96-6.07-49.78 13.15-6.66 8.1-6.5 34.62-6.5 34.62l-7.6-.63Z"/><path fill="#C7C7C7" d="M105.26 87.72c10.09-.1 18.18-9.5 18.06-21-.11-11.5-8.38-20.73-18.48-20.63-10.09.1-18.18 9.5-18.06 21 .11 11.5 8.39 20.73 18.48 20.63Z"/><path fill="#455A64" d="M117.99 66.13c.1 10.34-7.16 18.79-16.23 18.87-9.07.08-16.51-8.21-16.61-18.55-.1-10.34 7.16-18.8 16.23-18.88 9.07-.08 16.51 8.22 16.6 18.56Z"/><path fill="#EBEBEB" d="m148.3 123.27-9.86 24.9-31.03-31.31-8.7 10.13s30.43 49.83 30.61 47.57l10.15-21.47 14.85 14.84-1.4-37.41-4.61-7.25Z"/><path fill="#263238" d="M154.69 149.4c-.44-6.18-.69-12.4-1.4-18.55 0-.2-.36-.3-.42 0-1.2 5.98.57 29.55.57 35.22h-.07c-.61-.64-13.77-13.06-13.9-12.86-2.19 3.41-9.65 19.04-10.15 20.47-4.81-7.92-25.18-39.1-30.92-46.6a.21.21 0 0 0-.38.05.2.2 0 0 0 .02.17c4.2 8.4 30.64 49.54 31 49.43a244.32 244.32 0 0 0 10.62-22.7c2.23 2.7 15.49 16.73 15.53 15.8.2-6.82.03-13.64-.5-20.44Z"/></svg>