<svg xmlns="http://www.w3.org/2000/svg" width="145" height="119" fill="none"><path fill="#455A64" d="M61.4 106.78a16.07 16.07 0 1 1-30.78-9.27 16.07 16.07 0 0 1 30.77 9.27Z"/><path fill="#455A64" d="m84.74 29.22-11.76-3.54-23.3 77.39 11.76 3.54 23.3-77.4Zm33.23 70.17a16.07 16.07 0 1 1-30.78-9.27 16.07 16.07 0 0 1 30.78 9.27Z"/><path fill="#455A64" d="m141.32 21.82-11.76-3.54-23.29 77.39 11.76 3.54 23.3-77.4Z"/><path fill="#455A64" d="m141.28 21.98-71.4 14.04 3.1-10.35 71.42-14.03-3.12 10.34Zm-5.88 19.5L64 55.52l3.12-10.34 71.4-14.04-3.11 10.34ZM4.06 43.75a2.13 2.13 0 1 1-3.86-1.8 2.13 2.13 0 0 1 3.86 1.8Z"/><path fill="#455A64" d="m8.6 34.02-1.49-.7-4.51 9.72 1.48.7 4.51-9.72Zm3.02 9.83a2.13 2.13 0 1 1-3.87-1.8 2.13 2.13 0 0 1 3.87 1.8Z"/><path fill="#455A64" d="m16.14 34.12-1.47-.7-4.52 9.72 1.48.69 4.51-9.71Z"/><path fill="#455A64" d="m16.14 34.13-9.63.5.6-1.3 9.63-.5-.6 1.3Z"/><path fill="#37474F" d="M36.08 23.56a3.41 3.41 0 1 1-6.82.25 3.41 3.41 0 0 1 6.82-.25Z"/><path fill="#37474F" d="m35.43 6.38-2.6.1.65 17.13 2.6-.1-.65-17.13Zm8.68-4.75-2.6.1.18 4.95 2.6-.1-.18-4.95Z"/><path fill="#37474F" d="M44.14 2.3 32.92 8.76l-.09-2.3L44.05 0l.09 2.3Zm.16 4.31-11.22 6.48-.09-2.3 11.22-6.47.09 2.29Zm85.93 106.79a1.9 1.9 0 0 1-3.46-1.53 1.9 1.9 0 0 1 3.3-.59 1.9 1.9 0 0 1 .16 2.11Z"/><path fill="#37474F" d="m134.93 105.04-1.27-.71-4.7 8.33 1.28.72 4.69-8.34Zm5.51.27-1.26-.7-1.36 2.4 1.27.71 1.35-2.4Z"/><path fill="#37474F" d="m140.27 105.64-7.22-.2.63-1.11 7.22.2-.63 1.1Zm-1.18 2.1-7.23-.2.63-1.11 7.23.2-.63 1.1Z"/></svg>