<svg xmlns="http://www.w3.org/2000/svg" width="177" height="130" fill="none"><path fill="#263238" d="m59.53 88-.15-.69a34 34 0 0 0 3.67-.94l.19.68c-1.2.38-2.45.7-3.7.96Zm8.23-2.45-.25-.66c1.16-.45 2.32-.94 3.45-1.5l.3.64a49.77 49.77 0 0 1-3.5 1.52Zm7.7-3.76-.36-.6a55.04 55.04 0 0 0 3.16-2.06l.4.57a82.6 82.6 0 0 1-3.2 2.05v.04Zm7-4.98-.45-.55a67.4 67.4 0 0 0 2.82-2.5l.48.52c-.93.84-1.9 1.69-2.85 2.49v.04Zm6.27-5.9-.52-.48c.85-.88 1.7-1.82 2.57-2.82l.53.47c-.87.97-1.73 1.92-2.58 2.8v.04Zm5.64-6.45-.54-.45c.8-.94 1.58-1.96 2.36-2.97l.55.43c-.77.98-1.55 1.97-2.36 2.96v.03Zm5.25-6.79-.56-.41 2.26-3.07.56.42-2.26 3.06Zm5.05-6.92-.57-.41 2.25-3.09.56.42-2.24 3.08Zm5.07-6.95-.56-.42a173.4 173.4 0 0 1 2.31-3.04l.56.43c-.78 1-1.55 2.01-2.3 3.03Zm5.26-6.74-.54-.46c.8-.94 1.62-1.95 2.46-2.91l.53.46c-.83.96-1.65 1.93-2.45 2.9Zm5.64-6.43-.51-.48c.9-.94 1.8-1.88 2.68-2.73l.5.51c-.9.82-1.8 1.76-2.67 2.7Zm6.15-5.9-.46-.54c.94-.85 1.96-1.67 2.94-2.43l.44.56c-1 .79-1.94 1.56-2.93 2.4Zm6.74-5.2-.4-.58a61.36 61.36 0 0 1 3.22-2.05l.37.6a63.04 63.04 0 0 0-3.2 2.03h.01Zm7.33-4.29-.31-.63c1.13-.56 2.3-1.1 3.47-1.6l.27.65a63.57 63.57 0 0 0-3.44 1.58Z"/><path fill="#263238" d="m62.84 88.85-.17-1.87c1.67-.15 3.35-.32 5.03-.52l.23 1.84-5.09.55Z"/><path fill="#FFC727" d="m132.61 13.14-7.2 11.93 11.32-5.74 40.21-6.22-44.33.03Z"/><path fill="#000" d="m132.61 13.14-7.2 11.93 11.32-5.74 40.21-6.22-44.33.03Z" opacity=".1"/><path fill="#263238" d="m137.4 22.57-12 2.5 11.33-5.74.68 3.24Z"/><path fill="#FFC727" d="m136.73 19.33 40.21-6.22-36.7 23.98-3.51-17.76Zm-4.12-6.19L119 0l57.94 13.11-44.33.03Z"/><path fill="#37474F" d="M91.98 64.8 44.8 126.86a5.77 5.77 0 0 1-5.82 2.04L4.8 118.48a2.43 2.43 0 0 1-1.85-1.73 2.39 2.39 0 0 1 .74-2.42L50.88 52.3a5.72 5.72 0 0 1 5.82-2.04l34.17 10.41a2.42 2.42 0 0 1 1.85 1.73 2.38 2.38 0 0 1-.74 2.42Z"/><path fill="#263238" d="M87.89 59.33 53.79 48.8a5.73 5.73 0 0 0-5.81 2.08L.9 113.6a2.42 2.42 0 0 0-.12 3.7c.34.3.77.52 1.23.6l34.1 10.51a5.78 5.78 0 0 0 5.8-2.06L89 63.65a2.42 2.42 0 0 0-1.11-4.32Zm-46.68 64.3a5.38 5.38 0 0 1-5.35 2.04l-30.49-9.4c-1.71-.53-2.1-2.42-.84-3.95l43.83-58.4c2.41-3.34 4.03-3.1 5.74-2.57l6.1 1.9c.36 0 .38.55 0 .99l-.15.2c-.8 1.06-.14 1.25.65 1.5l14.13 4.36a1.63 1.63 0 0 0 2.21-.6l.15-.2a1.3 1.3 0 0 1 1.25-.6l6.12 1.88c1.69.51 2.75 1.38.44 4.46l-43.8 58.4Z"/><path fill="#fff" d="m70.72 57.74-4.16-1.4a.2.2 0 0 1-.05-.07.2.2 0 0 1 .05-.24.42.42 0 0 1 .2-.16.39.39 0 0 1 .25-.01l4.18 1.38a.2.2 0 0 1 .06.07.2.2 0 0 1 0 .2.2.2 0 0 1-.06.06.47.47 0 0 1-.21.16.44.44 0 0 1-.26.01Z"/><path fill="#fff" d="m84.76 65.24-43.66 58.3a5.35 5.35 0 0 1-5.33 2.04l-30.37-9.4c-1.7-.53-2.09-2.41-.84-3.94l43.67-58.3c2.4-3.34 4-3.1 5.7-2.57l6.08 1.89c.36 0 .39.56 0 1l-.14.19c-.8 1.06-.15 1.25.65 1.5l14.06 4.35a1.62 1.62 0 0 0 2.21-.6l.14-.2a1.3 1.3 0 0 1 1.25-.6l6.1 1.89c1.8.5 2.78 1.35.48 4.45Z"/><path fill="#FFC727" d="m84.76 65.33-3.26 4.38-36.53-11.37 3.26-4.38c2.4-3.37 4-3.12 5.71-2.59l6.08 1.9c.36 0 .38.56 0 1l-.15.2c-.79 1.07-.14 1.26.65 1.5l14.06 4.4a1.61 1.61 0 0 0 2.21-.62l.15-.2a1.3 1.3 0 0 1 1.25-.6l6.07 1.9c1.82.51 2.8 1.36.5 4.48Z"/><path fill="#fff" d="m50.16 57.28-.4-1 1.85-.44.05.16-1.53.38.33.82-.3.08Zm31.58 8.08a.32.32 0 0 1-.35 0 .16.16 0 0 1 0-.26.4.4 0 0 1 .15-.14.34.34 0 0 1 .2-.02c.05.18.1.31 0 .42Zm-.56.95a.22.22 0 0 1-.14.06.22.22 0 0 1-.14-.06.15.15 0 0 1-.04-.06.2.2 0 0 1 0-.14c0-.03.02-.05.04-.06a.3.3 0 0 1 .11-.14c.05-.02.1-.03.15-.01.04 0 .08.01.11.05a.2.2 0 0 1 .05.14c0 .05 0 .1-.04.15a.14.14 0 0 1-.1.07Zm-.48.48a.2.2 0 0 1-.13.05.2.2 0 0 1-.13-.05c-.09 0-.1-.16 0-.29a.31.31 0 0 1 .12-.11.2.2 0 0 1 .14-.02c.04 0 .08.02.1.06.03.04.04.1.04.15 0 .05-.01.1-.04.15a.11.11 0 0 1-.1.06ZM58.09 54.4h-.17a.53.53 0 0 0-.41-.38 1.25 1.25 0 0 0-.72 0h.94v.14l.36.25Zm-1.23-.07a.92.92 0 0 1 .5 0 .46.46 0 0 1 .44.34h-.15a.43.43 0 0 0-.29-.24.68.68 0 0 0-.5-.1Z"/><path fill="#fff" d="M57.37 54.62h-.15a.22.22 0 0 0-.14-.14.53.53 0 0 0-.27 0c.34-.15.56-.07.56.14Zm-.22.08H57c-.14 0 0 0 0 0h.12s.05-.03.03 0Zm-4.91-2.03c.04-.05.08-.1.13-.13a.3.3 0 0 1 .18-.05l.05.07a.2.2 0 0 1 0 .18.17.17 0 0 1-.05.06.36.36 0 0 1-.17.15.3.3 0 0 1-.2 0 .2.2 0 0 1-.03-.07v-.08a.2.2 0 0 1 .03-.08.15.15 0 0 1 .06-.05Zm.93.47a.36.36 0 0 1 .15-.15.26.26 0 0 1 .19 0 .1.1 0 0 1 .05.06.22.22 0 0 1 0 .18.17.17 0 0 1-.05.06.4.4 0 0 1-.16.13.3.3 0 0 1-.18.02.17.17 0 0 1-.05-.06.22.22 0 0 1 0-.18.17.17 0 0 1 .05-.06Zm.46.01a.33.33 0 0 1 .15-.16.19.19 0 0 1 .18 0c.12 0 .14.23 0 .38a.25.25 0 0 1-.18.08.25.25 0 0 1-.17-.08c-.04.13-.06-.06.02-.22Zm.97.46c.05-.06.1-.1.16-.13a.3.3 0 0 1 .18-.02c.03.01.04.03.05.06a.22.22 0 0 1 0 .18.17.17 0 0 1-.05.06.36.36 0 0 1-.15.14.27.27 0 0 1-.19.02.17.17 0 0 1-.05-.07.22.22 0 0 1 0-.17.17.17 0 0 1 .05-.07Zm.54 0a.65.65 0 0 1 .29-.14.9.9 0 0 1 .35 0c.23 0 .27.17 0 .3a.65.65 0 0 1-.28.14.9.9 0 0 1-.36 0 .24.24 0 0 1-.1-.06.13.13 0 0 1-.03-.09.1.1 0 0 1 .04-.08.24.24 0 0 1 .1-.07Zm28.58 9.89-3.35-.86 1.43-1.54 3.35.84-1.43 1.56Z"/><path fill="#fff" d="m83.24 61.97-1.1-.39-.34.54 1.09.42.35-.57Zm.63 1.05-.16-.05.32-.43.16.05-.32.43Z"/><path fill="#EBEBEB" d="m10.52 113.23-.28-.09-.94 1.06-.57-.15.47-.53-.99-.27-.46.53-.57-.13.93-1.06-.31-.07 2.3-.7.42 1.4Zm28.42 8.15-3.06-1.04.29-.4 3.06 1.01-.3.43Zm-.48.95-3.06-1.01.3-.42 3.05 1.02-.3.41Zm-.96.97-3.06-1.03.3-.41 3.05 1.01-.29.42Zm-13.1-5.94-1.65.67-.27-1.32.27-.12.24 1.12 1.33-.59.08.24Z"/><path fill="#EBEBEB" d="M22.74 119.9c-.3.06-.62.06-.93 0a2.54 2.54 0 0 1-1.62-1.5 2.48 2.48 0 0 1 .48-2.28 3.85 3.85 0 0 1 3.94-1.33 2.36 2.36 0 0 1 1.6 1.5 2.48 2.48 0 0 1-.46 2.29 3.86 3.86 0 0 1-3 1.33Zm.89-2.85c-.31.03-.6.15-.84.35.35-.01.67-.13.94-.35h-.1Z"/><path fill="#fff" d="M62.3 60.35c.16-.26.38-.46.63-.57.24-.12.5-.14.76-.07.09.02.17.08.24.15a.8.8 0 0 1 .17.27s0 .2-.1.22c-.1.02-.17 0-.19 0a.53.53 0 0 0-.11-.2.38.38 0 0 0-.17-.1.63.63 0 0 0-.54 0c-.16.08-.3.2-.43.38a.7.7 0 0 0-.1.25.8.8 0 0 0 0 .28.9.9 0 0 0 .12.24c.05.06.12.1.19.14.15.05.3.05.45 0h.16c0 .04-.02.09-.04.12a.15.15 0 0 1-.1.06.93.93 0 0 1-.66 0 .6.6 0 0 1-.22-.19.85.85 0 0 1-.14-.3 1 1 0 0 1 .08-.68Zm1.34 1.47 1.09-1.64a.26.26 0 0 1 .27 0l.04.05a.16.16 0 0 1 0 .13l-.04.05-.44.65.71.25.44-.67a.22.22 0 0 1 .13-.04.2.2 0 0 1 .12.04s.12 0 0 .2l-1.08 1.66a.22.22 0 0 1-.25 0s-.12 0 0-.22l.44-.68-.71-.26-.44.68a.27.27 0 0 1-.28 0s-.04-.08 0-.2Zm3.15.35-.69-.15-.37.2a.25.25 0 0 1-.2 0v-.16l1.7-.94a.31.31 0 0 1 .22 0v.1l-.47 1.2a.2.2 0 0 1-.08.09.3.3 0 0 1-.14.03v-.1l.03-.27Zm0-.22.17-.46-.61.35.44.11Zm2.27-.18-.4-.15-.95 1.36a.25.25 0 0 1-.26 0v-.18l.94-1.33-.4-.16s-.11 0 0-.17a.22.22 0 0 1 .24 0l1.13.38v.17a.26.26 0 0 1-.14.1.24.24 0 0 1-.16-.02Z"/><path fill="#455A64" d="m30.62 83.93 26.45 8.27 5.6-7.52-26.49-8.27-5.56 7.52Z"/><path fill="#455A64" d="m59.32 92.68-2.4-.72 1.69-2.15.7 2.87Z"/><path fill="#fff" d="m59.7 85.5-22.87-7.06.1-.11 22.87 7.03-.1.14Zm-5.26-.48-18.56-5.6.1-.14 18.55 5.6-.1.14Zm1.91 2.39-21.43-6.55.1-.14 21.43 6.57-.1.12Zm1.41.96-23.32-7.03.1-.14 23.34 7.03-.12.14Zm-.46.96-23.34-7.04.1-.14 23.34 7.03-.1.15Zm-7.2-1.43-16.6-5.16.12-.12 16.62 5.12-.12.14Z"/><path fill="#455A64" d="m17.7 101.4 26.09 8.02 5.48-7.3-26.06-8-5.51 7.28Zm28.7 8.5-2.39-.72 1.66-2.15.73 2.87Z"/><path fill="#fff" d="m46.78 102.72-23.34-7.05.1-.12 23.34 7.03-.1.14Zm-5.28-.48-18.54-5.6.12-.14 18.54 5.6-.12.14Zm1.93 2.4L22 98.08l.1-.14 21.43 6.57-.1.13Zm.97 1.43-22.87-7.5.1-.15 22.86 7.5-.1.15Zm-.51.48-23.32-7.03.12-.15 23.32 7.04-.12.14Zm-6.68-.95-17.12-5.15.1-.12 17.12 5.14-.1.12Z"/><path fill="#FFC727" d="M70.4 78.33 44 70.2l4.68-6.24 26.41 8.11-4.7 6.25Z"/><path fill="#FFC727" d="m41.62 69.4 2.54.8 1.76-2.4-4.3 1.6Z"/><path fill="#fff" d="m68.76 71.63-19.49-6.07.1-.15 19.52 6.1-.13.12Zm3.38 1.91-23.35-7.03.12-.14 23.32 7.03-.1.14Zm-.51.96-23.31-7.53.1-.13 23.34 7.5-.13.16Zm-2.36 0-21.43-6.55.1-.15 21.42 6.55-.1.15Zm.93 1.43-23.32-7.5.1-.15 23.34 7.53-.12.12Zm-6.7-1.43-17.1-5.12.1-.14 17.12 5.14-.12.12Z"/><path fill="#FFC727" d="M66.32 83.59 39.7 75.66l3.5-4.51 26.64 7.93-3.52 4.5Z"/><path fill="#FFC727" d="m37.31 74.82 2.55.63 1.76-1.9-4.3 1.27Z"/><path fill="#fff" d="m67.35 79.76-23.34-7.03.1-.15 23.34 7.04-.1.14Zm-4.8-.48-19.02-5.6.12-.14 19.02 5.6-.12.14Zm1.43 1.44-20.93-6.55.1-.15 20.95 6.57-.12.13Zm-5.74-.48L42.1 75.13l.12-.15 16.14 5.13-.12.13Z"/><path fill="#DBDBDB" d="m53.02 100.8-26.23-7.95 4.89-6.4 26.2 7.97-4.86 6.39Z"/><path fill="#DBDBDB" d="m24.4 92.05 2.51.63 1.8-1.92-4.31 1.29Z"/><path fill="#fff" d="m52.5 96.98-21.88-6.55.12-.15 21.88 6.58-.12.12Zm-2.37.48-20-6.08.1-.14 20 6.08-.1.14Zm2.39-2.39-20.95-6.08.12-.14 20.93 6.08-.1.14Zm2.88 0-22.87-7.03.1-.15 22.86 7.03-.1.15Zm-4.79 3.35-20.95-6.58.12-.12 20.93 6.55-.1.15Z"/><path fill="#FFC727" d="m40.87 117.07-26.52-8.03 4.12-5.36 26.5 8.03-4.1 5.36Z"/><path fill="#FFC727" d="m11.96 108.63 2.54.79 1.76-2.4-4.3 1.61Z"/><path fill="#fff" d="m42.45 112.77-23.32-7.06.1-.12 23.34 7.03-.12.15Zm-.45.48-23.34-7.06.1-.12 23.34 7.03-.1.15Zm-2.4.47-21.42-6.55.12-.14 21.4 6.55-.1.14Zm.97.96-22.87-7.03.1-.15 22.86 7.06-.1.12Zm-6.23-.96-17.6-5.12.13-.14 17.57 5.15-.1.11Z"/></svg>