<svg xmlns="http://www.w3.org/2000/svg" width="196" height="188" fill="none"><path fill="#37474F" d="M44.04 123.8H22.52L10.2 50.17l19.7-10.85 14.14 84.46Z"/><path fill="#455A64" d="M102.14 123.8h-58.1L29.91 39.32H88l14.13 84.46Z"/><path fill="#37474F" d="M32.99 84.3H0v81.12h32.99V84.3Zm84.99 81.12h-9.01L95.54 84.3h22.44v81.12Z"/><path fill="#455A64" d="M51.12 84.3H32.99v81.12h18.13V84.3Zm84.98 0h-18.12v81.12h18.12V84.3Z"/><path fill="#455A64" d="M117.98 123.8H51.12v41.62h66.86V123.8Z"/><path fill="#455A64" d="M117.98 105.8H51.12v18.16h66.86V105.8Z"/><path fill="#263238" d="m37.44 84.3 6.83-.15 6.85-.1h.19v.25l.08 9.49.03 9.5c0 6.33.03 12.66 0 18.96-.04 6.3-.03 12.66-.1 18.99-.06 6.32-.11 12.66-.22 18.98a2404.48 2404.48 0 0 1-.32-37.98c-.02-6.32 0-12.65 0-18.95l.03-9.5.08-9.5.2.26-6.84-.1-6.81-.15Zm80.54 0c.14 6.35.2 12.7.27 19.06l.07 19.05-.07 19.06-.1 9.53-.16 9.53-.17-9.53-.1-9.53-.07-19.06.08-19.05c.05-6.36.11-12.7.25-19.06Z"/><path fill="#263238" d="M117.98 123.8a1033 1033 0 0 1-17.6.3l-17.59.1-14.08-.1-8.8-.11-8.8-.2 8.8-.2 8.8-.12 14.08-.1 17.6.1c5.86.07 11.73.15 17.59.32Zm0-18c-5.86.17-11.74.25-17.6.3l-17.59.1-14.08-.09-8.8-.11-8.8-.2 8.8-.2 8.8-.12 14.08-.1 17.6.1c5.86.06 11.73.16 17.59.31Z"/><path fill="#C7C7C7" d="m12.54 165.42-.45 6.58-1.04 15.18H6.27L5.23 172l-.44-6.58h7.75Z"/><path fill="#A6A6A6" d="M4.79 165.42h7.75l-.45 6.58H5.23l-.44-6.58Z"/><path fill="#C7C7C7" d="m45.93 165.42-.44 6.58-1.05 15.18h-4.78L38.62 172l-.44-6.58h7.75Z"/><path fill="#A6A6A6" d="M38.18 165.42h7.75l-.44 6.58h-6.87l-.44-6.58Z"/><path fill="#C7C7C7" d="m97.81 165.42-.45 6.58-1.04 15.18h-4.77L90.5 172l-.45-6.58h7.75Z"/><path fill="#A6A6A6" d="M90.06 165.42h7.75l-.45 6.58h-6.85l-.45-6.58Z"/><path fill="#C7C7C7" d="m131.21 165.42-.44 6.58-1.05 15.18h-4.78L123.9 172l-.44-6.58h7.75Z"/><path fill="#A6A6A6" d="m131.21 165.42-.44 6.58h-6.87l-.44-6.58h7.75Z"/><path fill="#D3766A" d="M194.9 64.06c-.8 1.37-30.98 28.38-32.66 28.54-.65.07-4.19-4.97-8.32-11.2L127.1 71.18l20.74-18.68 25.51 11.4s15.41-4.15 17.3-4.09c1.87.07 5.03 2.87 4.24 4.24Z"/><path fill="#FFC727" d="M195.15 64.1c-.51.88-13.08 12.93-22.63 21.04a291.37 291.37 0 0 1-5.9 4.89c-2.3 1.83-3.87 3.01-4.22 3.06-.62.05-4.3-4.96-8.01-10.94-.2-.32-3.26-1.66-4.79-2.3l18.94-18.4 4.89 2.3s15.55-4.04 17.44-3.96c1.88.08 5.07 2.93 4.28 4.3Z"/><path fill="#000" d="M195.15 64.1c-.51.88-13.08 12.93-22.63 21.04a291.37 291.37 0 0 1-5.9 4.89c-2.3 1.83-3.87 3.01-4.22 3.06-.62.05-4.3-4.96-8.01-10.94-.2-.32-3.26-1.66-4.79-2.3l18.94-18.4 4.89 2.3s15.55-4.04 17.44-3.96c1.88.08 5.07 2.93 4.28 4.3Z" opacity=".2"/><path fill="#000" d="M167.1 86.28a6.1 6.1 0 0 0-3.57-2.67 4.8 4.8 0 0 0-2.84.2c-.9.37-1.73.97-2.43 1.75-.04.05 0 .12.06.08.7-.71 1.55-1.2 2.45-1.45.9-.24 1.84-.23 2.73.05.85.25 1.64.74 2.3 1.41a7.1 7.1 0 0 1 1.24 1.71c.11.22.17.42.39.5.05.01.1 0 .15-.03a.25.25 0 0 0 .1-.14c.13-.4-.37-1.08-.58-1.41Zm20.6-25.34a4.8 4.8 0 0 0-1.95 2.12 15.78 15.78 0 0 0-1.8 7.92 6.38 6.38 0 0 0 .22 1.68l.04.02.05-.02a.1.1 0 0 0 .03-.05c.02-.48.02-.97 0-1.45a19.32 19.32 0 0 1 .7-4.67 10.52 10.52 0 0 1 2.96-5.23.28.28 0 0 0 0-.18.22.22 0 0 0-.1-.13.17.17 0 0 0-.15 0Zm-17.55 3.73c-4.2 4.21-8.38 8.46-12.62 12.62-1.2 1.18-2.4 2.38-3.61 3.53-.04.04 0 .1.05.07 4.5-3.78 8.8-7.85 12.93-12.19a90.32 90.32 0 0 0 3.4-3.84c.1-.13-.04-.32-.16-.2Zm-15.86 15.25a.32.32 0 0 0-.08-.1l-.1-.07-.2-.14a12 12 0 0 0-1.33-.71c-.01 0-.02 0-.02.02v.03l.01.02c.28.17.55.36.82.55l.4.28.21.15c.06.06.14.1.21.1h.04a.1.1 0 0 0 .03-.04l.01-.04v-.05Zm1.95-2.01a.26.26 0 0 0-.07-.1l-.1-.07-.2-.14-.44-.27a12 12 0 0 0-.87-.45c-.04 0-.07.06-.03.09.28.17.55.35.82.55l.4.28.2.14c.07.06.14.1.22.11h.04l.03-.04a.1.1 0 0 0 .01-.05l-.01-.05Zm1.96-2a.35.35 0 0 0-.07-.1l-.1-.07-.2-.14a6.37 6.37 0 0 0-1.3-.73c-.05 0-.09.07-.04.09.27.18.55.36.82.56l.4.27.2.15c.07.05.14.09.22.1.05.01.1-.07.07-.13Zm1.96-2.01a.34.34 0 0 0-.07-.09l-.11-.08-.2-.13a6.74 6.74 0 0 0-1.3-.73c-.05 0-.08.06-.04.08l.82.56.4.28.21.14c.06.06.14.1.22.11h.03a.1.1 0 0 0 .03-.04.1.1 0 0 0 .02-.05.1.1 0 0 0-.01-.04Zm1.96-2a.32.32 0 0 0-.07-.1l-.11-.07-.2-.14a12.04 12.04 0 0 0-1.33-.72l-.02.03v.03l.01.02.83.55.4.28.2.15c.07.06.14.1.22.1h.04a.1.1 0 0 0 .03-.04v-.09Zm1.96-2a.25.25 0 0 0-.07-.1l-.1-.08-.2-.14-.43-.27a12 12 0 0 0-.88-.45c-.04 0-.07.06-.03.09.28.17.55.36.82.55l.4.28.21.15c.06.05.13.09.21.1l.04-.01a.1.1 0 0 0 .03-.03l.01-.05v-.04Zm1.95-2a.35.35 0 0 0-.07-.1l-.1-.08-.2-.14a13.7 13.7 0 0 0-1.3-.73c-.05 0-.08.07-.04.1.28.17.55.35.82.55l.4.27.2.15c.07.05.14.1.22.11l.04-.01.03-.03.01-.05a.1.1 0 0 0 0-.04Zm1.97-2.01a.44.44 0 0 0-.08-.1l-.1-.08-.2-.13a6.78 6.78 0 0 0-1.31-.72c-.04 0-.07.05-.03.08l.82.55.4.28.2.14c.07.06.14.1.22.11h.04a.1.1 0 0 0 .03-.12Zm1.95-2.01a.43.43 0 0 0-.07-.1 1 1 0 0 0-.1-.07l-.2-.14-.44-.27a12 12 0 0 0-.9-.44l-.02.02v.03l.02.03.82.55.4.27.2.15c.07.06.14.1.21.1h.04c.02 0 .03-.02.04-.03l.01-.05v-.05Z" opacity=".1"/><path fill="#263238" d="m164 57.6-2.12 4.67-10.54 23.24a23.2 23.2 0 0 1-8.97-2.57c-7.23-3.78-16.43-10.76-20.56-13.24-.22-.13-19.19 25.07-34.98 33.24-12.12 6.25-21.8 2.86-29.41-9.93l18.81-16.72c15.58-15.08 32.23-36.9 44.48-38.39 8.75-1.06 25.2 6.6 35.1 12.8a35.93 35.93 0 0 1 8.18 6.9Z"/><path fill="#37474F" d="M159.26 57.4c-2.2 4.56-1.62 3.22-3.78 7.82-1.06 2.24-6.4 13.53-7.1 15.82l.01.04.02.02h.05c1.25-1.94 6.39-13.36 7.4-15.63 2.1-4.64 1.46-3.33 3.5-8l.02-.03v-.03l-.01-.03a.06.06 0 0 0-.05-.03h-.02l-.03.02v.03Z"/><path fill="#D3766A" d="M185.85 121.98c-1.26.72-38.66 6.06-40.2 5.17-.58-.32-1.53-6.8-2.55-14.68l-18.97-24.9 25.75-3.75 17.35 25.13s15.08 5.63 16.68 6.81c1.6 1.19 3.2 5.51 1.94 6.22Z"/><path fill="#FFC727" d="M186.06 122.15c-.83.46-16.73 3.38-28.38 4.68-2.7.3-5.17.55-7.15.73-2.75.22-4.59.29-4.92.1-.55-.33-1.66-6.86-2.37-14.27-.04-.4-2.14-3.38-3.2-4.85l24.04-4.6 3.28 4.9s15.16 5.81 16.76 7c1.6 1.2 3.2 5.62 1.94 6.31Z"/><path fill="#000" d="M186.06 122.15c-.83.46-16.73 3.38-28.38 4.68-2.7.3-5.17.55-7.15.73-2.75.22-4.59.29-4.92.1-.55-.33-1.66-6.86-2.37-14.27-.04-.4-2.14-3.38-3.2-4.85l24.04-4.6 3.28 4.9s15.16 5.81 16.76 7c1.6 1.2 3.2 5.62 1.94 6.31Z" opacity=".2"/><path fill="#000" d="M152.5 124.6a8.1 8.1 0 0 0-1.96-4.44 5.4 5.4 0 0 0-2.55-1.53 5.7 5.7 0 0 0-2.83.07c-.06 0-.03.1 0 .1.9-.18 1.83-.1 2.7.23.89.33 1.68.9 2.34 1.67a7.2 7.2 0 0 1 1.71 4.08c.03.25.05.5.05.76s-.03.46.13.66c.04.05.09.07.14.07.06 0 .1-.02.15-.07.33-.3.17-1.2.12-1.6Zm28.42-9.62c-.89-.1-1.78.14-2.55.67a12.8 12.8 0 0 0-4.84 5.77 5.98 5.98 0 0 0-.5 1.58c0 .02.02.03.03.04h.06c.01 0 .03 0 .04-.02a20.99 20.99 0 0 1 1.4-2.55c.53-.84 1.13-1.6 1.78-2.3a8.06 8.06 0 0 1 4.6-2.73c.05 0 .1-.02.13-.07a.2.2 0 0 0 .05-.17.25.25 0 0 0-.06-.16.17.17 0 0 0-.14-.06Zm-16.76-7.3c-5.4 1.14-10.78 2.32-16.19 3.38l-4.59.9c-.05 0-.03.1 0 .1 5.47-.6 10.9-1.53 16.28-2.83a98.4 98.4 0 0 0 4.55-1.29.12.12 0 0 0 .06-.06c.01-.02.02-.06.01-.1a.14.14 0 0 0-.04-.07.1.1 0 0 0-.08-.03Zm-20.1 3.74a.6.6 0 0 0 0-.14l-.06-.12-.12-.24a7.23 7.23 0 0 0-.26-.5l-.57-.91c-.03-.05-.09 0-.06.05.17.32.32.61.48.97l.23.48.12.26c.03.08.08.16.14.22h.03l.03-.01.03-.03v-.03Zm2.53-.57v-.13l-.06-.13-.12-.24-.26-.49c-.18-.32-.37-.6-.56-.92 0-.04-.1 0-.07.06.17.32.33.64.48.97l.23.48.12.25a.5.5 0 0 0 .14.22h.03l.03-.01.03-.03a.1.1 0 0 0 .01-.03Zm2.53-.57v-.12l-.06-.13-.11-.24-.27-.5-.56-.9c-.03-.05-.1 0-.07.05.17.31.33.64.48.96l.23.49c.05.08.09.16.12.25.03.08.08.16.14.22h.04l.03-.01.02-.03a.1.1 0 0 0 .01-.04Zm2.53-.56a.4.4 0 0 0 0-.13 1.37 1.37 0 0 0-.06-.13l-.11-.23-.26-.5-.57-.91c-.03-.04-.09 0-.06.05l.47.97.23.48.13.26a.6.6 0 0 0 .14.22h.03s.02 0 .03-.02l.02-.02a.1.1 0 0 0 .01-.04Zm2.53-.56a.3.3 0 0 0 0-.14c0-.04-.04-.08-.05-.12l-.12-.24a23.7 23.7 0 0 0-.83-1.41c0-.04-.09 0-.06.06.16.31.32.6.48.97l.22.47.13.26c.03.09.08.16.14.22h.06l.02-.04a.1.1 0 0 0 .01-.03Zm2.53-.57a.28.28 0 0 0 0-.13 1.36 1.36 0 0 0-.05-.13l-.12-.23a8.48 8.48 0 0 0-.26-.5c-.18-.31-.37-.6-.57-.91-.03-.05-.09 0-.06.05l.48.98.23.47.12.25a.5.5 0 0 0 .14.22h.06l.02-.03.01-.04Zm2.54-.56v-.13l-.06-.13-.12-.24-.26-.5-.56-.9c-.03-.05-.1 0-.07.05.17.32.33.64.48.97l.23.48.12.25c.03.09.08.16.14.22h.06l.03-.03.01-.04Zm2.53-.55v-.13l-.06-.13a7.02 7.02 0 0 0-.38-.73c-.18-.32-.37-.62-.56-.92-.03-.04-.09 0-.07.05.17.32.33.65.48.98l.23.47.12.26c.03.08.08.16.14.22h.03l.03-.01.03-.03.01-.03Zm2.53-.58v-.13l-.06-.13-.11-.23a10.48 10.48 0 0 0-.83-1.42c-.03-.03-.09 0-.07.06.17.32.33.64.48.97l.24.48.11.25a.6.6 0 0 0 .15.22h.06l.02-.03a.1.1 0 0 0 .01-.04Z" opacity=".1"/><path fill="#263238" d="M53.2 73.73s-4.74 17.65 2.3 26.62c5.07 6.47 12.47 8.2 19.04 8.11 18.18-.22 36.14-23.66 42.22-24.1 2.14-.16 10.67 16.09 17.03 25.58a20.79 20.79 0 0 0 6.91 6.34l19.99-18.5s-.93-4.48-3.17-7.74c-8.88-12.9-27.36-37.15-38.73-38.94-9.74-1.54-37.11 18.82-37.68 18.44-.92-.61-4.97-3.78-4.97-3.78L53.2 73.73Z"/><path fill="#37474F" d="M158.15 94.76c-2.58 1.98-5.04 4.2-7.51 6.35-2.47 2.15-4.92 4.28-7.35 6.5a126.2 126.2 0 0 0-4.08 3.82c-.03.03 0 .09.04.06 2.55-2.02 5.04-4.18 7.52-6.34 2.48-2.16 4.92-4.28 7.35-6.5a94.56 94.56 0 0 0 4.1-3.84v-.04a.04.04 0 0 0-.03-.02l-.04.01ZM68.3 73.28c0-.1-.16-.06-.15.04a13.8 13.8 0 0 1-1.67 7.95c-1.51 2.58-3.92 4.2-6.09 5.87-.2.16 0 .55.22.44A19.43 19.43 0 0 0 64.47 85a11.1 11.1 0 0 0 2.77-3.4 11.8 11.8 0 0 0 1.26-4.03c.18-1.44.11-2.9-.2-4.3Zm12.95-1.88c-.5-.58-1.02-1.12-1.53-1.67-1.2-1.3-2.42-2.62-3.67-3.87-.12-.12-.3.11-.2.24.88 1.03 1.78 2.01 2.67 3l1.38 1.52c.47.45.9.94 1.29 1.49.07.12.12.27.13.42a1 1 0 0 1-.05.44.84.84 0 0 1-.24.34.64.64 0 0 1-.35.16c-.49.1-.99-.04-1.4-.37a18.53 18.53 0 0 1-2.55-2.5l-1.53-1.55c-.5-.5-1.11-1.04-1.65-1.58-.04-.03-.09.03-.06.07.51.61.95 1.22 1.44 1.84l1.49 1.83c.5.61.96 1.1 1.46 1.64.41.48.9.86 1.42 1.15.85.42 2.23.32 2.51-.97a2 2 0 0 0-.56-1.64Z"/><path fill="#37474F" d="M140.55 108.7c-5.01-7.44-18.7-26.54-21.91-29.88a3 3 0 0 0-1.11-.72 2.5 2.5 0 0 0-1.27-.13c-.93.12-1.75.81-2.55 1.37l-2.81 2.02-5.79 4.16c-3.62 2.59-7.22 5.22-10.86 7.77a70.85 70.85 0 0 1-10.08 6.08c-6.68 3.17-14.84 4.58-21.31-.09a16.91 16.91 0 0 1-6.12-9.47c-1.08-3.94-1.25-8.15-1.18-12.27a65.05 65.05 0 0 1 .07-3l-.02-.01h-.02v.03c-.52 7.69-.52 16.72 4.35 22.62 5.15 6.25 13.33 6.6 20.01 4.47 7.5-2.37 14.13-7.54 20.7-12.27l11.5-8.27c.93-.66 1.84-1.37 2.79-2 .95-.63 2.04-1.04 2.94-.2 3.06 2.82 21.84 29.05 22.5 29.97.1.09.23-.05.17-.18ZM86.94 65.85c5.24-3.35 14.38-9.74 25.38-14.03a21.2 21.2 0 0 1 4.4-1.07 7.7 7.7 0 0 1 2.3.05c.75.14 1.48.35 2.2.65a31.4 31.4 0 0 1 7.87 5.16 89.85 89.85 0 0 1 7.22 6.64c2.22 2.4 4.3 4.59 6.38 7.15 4.14 5.13 8.67 10.52 12.36 16.12-1.94-2.7-10.58-13.22-12.69-15.74a115.36 115.36 0 0 0-13.6-13.6 30.88 30.88 0 0 0-7.71-5.13 8.12 8.12 0 0 0-4.28-.7c-1.46.2-2.91.52-4.33 1a62.56 62.56 0 0 0-8.4 3.5c-2.72 1.35-14.43 8.43-17.1 10Z"/><path fill="#D3766A" d="M62.31 29.25c7.3.37 30.64 4.67 32.44 11.82 1.73 6.86-3.9 11.33-11.63 9.01-5.54-1.66-14.58-7.9-20.56-12.73-4.85-3.92-7-8.44-.25-8.1Z"/><path fill="#FFC727" d="M62.31 29.25c7.3.37 30.64 4.67 32.44 11.82 1.73 6.86-3.9 11.33-11.63 9.01-5.54-1.66-14.58-7.9-20.56-12.73-4.85-3.92-7-8.44-.25-8.1Z"/><path fill="#000" d="M83.85 50.28a8.32 8.32 0 0 1-.73-.2c-5.54-1.66-14.58-7.9-20.56-12.73-4.12-3.32-6.29-7.08-2.72-7.95 6.64 5.74 17.77 15.35 24.01 20.88Z" opacity=".1"/><path fill="#D3766A" d="M88.05 48.67c4.76 2.24 7.77-4.68 6.47-8.33-3.07-8.56-10.41-17.68-15.9-22.94-1.77-1.69-11.47 10.4-9.84 12.52 1.96 2.57 9.93 14.35 19.27 18.75Z"/><path fill="#D3766A" d="M79.14 18.34c-.69-1.8-4.43-9.74-5.89-11.67C71.8 4.73 67.28-.45 65.93.73c-1.35 1.19-.12 2.84-.12 2.84s-2.2-1.84-3.47-.5c-1.26 1.35.71 3.83.71 3.83s-2.37-1.68-3.57-.23c-1.2 1.44 1.15 3.54 1.15 3.54s-2.11-1.65-2.66 0c-.67 2.03 3.5 4.56 4.98 6.83.34.52 6.16 11.05 6.16 11.05l10.03-9.75Z"/><path fill="#263238" d="M60.45 10.03c3.06 1.87 4.14 3.33 5.88 6.81l.03.02h.03l.03-.03v-.04c-1.43-3.6-2.55-5.66-5.9-6.94-.16-.07-.21.1-.07.18Zm2.35-3.27c3.07 2.27 4.23 3.84 6.27 7.34 0 .05.1 0 .07-.06-1.76-3.63-2.93-5.64-6.22-7.44-.14-.09-.26.05-.11.16Zm3.1-3.02a18.75 18.75 0 0 1 5.83 7.83h.04l.03-.03a.1.1 0 0 0 0-.05c-1.34-3.97-3-6.04-5.83-7.84-.18-.14-.24-.06-.07.1Z"/><path fill="#37474F" d="m67.76 1.3 6.3 18.19a1.34 1.34 0 0 1-.35 1.43l-6.64 5.07a.6.6 0 0 1-.28.13c-.1.01-.2 0-.3-.04a.66.66 0 0 1-.25-.19.83.83 0 0 1-.16-.3l-6.3-18.2a1.45 1.45 0 0 1-.03-.78c.07-.26.2-.48.38-.64L66.77.9a.6.6 0 0 1 .28-.13c.1-.02.2 0 .3.03.09.04.18.1.25.2.07.08.12.18.16.3Z"/><path fill="#263238" d="m66.37 1.2-6.64 5.08c-.18.16-.31.38-.37.64-.07.26-.06.53.02.79l6.3 18.19c.04.11.1.22.17.3.07.08.16.15.25.19a.6.6 0 0 0 .57-.09l6.64-5.07a1.34 1.34 0 0 0 .35-1.43l-6.3-18.2a.83.83 0 0 0-.16-.3.66.66 0 0 0-.26-.19.56.56 0 0 0-.3-.03.6.6 0 0 0-.27.12Zm6.68 18.35c.08.23.1.49.04.73a1.1 1.1 0 0 1-.34.6l-5.93 4.54a.51.51 0 0 1-.53.07.6.6 0 0 1-.23-.2.77.77 0 0 1-.14-.28L60.04 8.07c-.34-.98-.08-1.23.25-1.49l1.19-.9c.07-.06.16 0 .2.13v.05c.11.31.23.22.39.1l2.75-2.1c.15-.12.27-.22.16-.52v-.06a.33.33 0 0 1-.02-.17.3.3 0 0 1 .07-.16l1.19-.9c.33-.26.65-.34.95.55l5.88 16.95Z"/><path fill="#fff" d="m63.7 4.25-.75.57-.01.01h-.04l-.01-.01a.1.1 0 0 1 0-.06l.02-.04.75-.57.02-.01h.02l.02.02.01.02a.1.1 0 0 1 0 .04.1.1 0 0 1-.03.03Z"/><path fill="#fff" d="m67.17 2.61 5.88 16.95c.08.23.1.48.04.72-.05.24-.17.46-.34.6l-5.93 4.54a.51.51 0 0 1-.53.07.6.6 0 0 1-.23-.19.77.77 0 0 1-.14-.28L60.04 8.07c-.34-.98-.08-1.22.25-1.48l1.19-.9c.07-.06.16 0 .2.13v.05c.11.3.23.21.39.1l2.75-2.1c.15-.13.27-.22.17-.53V3.3a.33.33 0 0 1-.03-.17.3.3 0 0 1 .07-.16l1.19-.91c.33-.25.65-.33.95.56Z"/><path fill="#A6A6A6" d="M61.4 6.22v.04a.12.12 0 0 0-.12 0 .26.26 0 0 0-.1.14h-.02v-.05l.04-.06h.13l.07-.07Z"/><path fill="#A6A6A6" d="M61.22 6.45h-.02c0-.04.03-.08.05-.1a.12.12 0 0 1 .06-.05.1.1 0 0 1 .07 0v.04a.09.09 0 0 0-.09 0 .2.2 0 0 0-.07.1Zm.15-.08v.03h-.05l-.02.02v.03c0-.02 0-.04.02-.05a.09.09 0 0 1 .05-.03Z"/><path fill="#A6A6A6" d="M61.34 6.45a.04.04 0 0 1 0-.04v.04Zm-1.04.67a.1.1 0 0 1 0-.1.05.05 0 0 1 .04-.02l.03.02v.06a.1.1 0 0 1-.02.05h-.05Zm.15-.12v-.05a.1.1 0 0 1 .02-.05l.04-.01.04.01v.05a.1.1 0 0 1 0 .05l-.02.03-.03.02-.03-.01-.02-.03Zm.15-.1a.1.1 0 0 1 0-.06l.02-.05.02-.01a.04.04 0 0 1 .04 0l.01.01a.1.1 0 0 1 0 .1v.04l-.04.02c-.02 0-.03 0-.04-.02a.06.06 0 0 1-.01-.04Zm.15-.12v-.06c0-.02.01-.03.03-.04l.01-.01a.04.04 0 0 1 .04 0h.01a.1.1 0 0 1 0 .07l-.02.04-.02.01a.04.04 0 0 1-.04 0l-.01-.01Zm.15-.11a.1.1 0 0 1 0-.06l.02-.05.02-.01a.04.04 0 0 1 .03 0l.02.01a.1.1 0 0 1 0 .06l-.03.04-.01.01-.02.01h-.02l-.01-.01Zm5.5-4.32-.37.27.07.22.37-.28-.08-.21Z"/><path fill="#fff" d="m66.04 3.06-.17-.5.58-.44.18.5-.59.44Z"/><path fill="#A6A6A6" d="m66.3 2.45-.24.19.05.15.25-.18-.05-.16Zm.2.03-.03.03-.05-.13.04-.03.04.13Zm4.6 19.02-3 2.27a.12.12 0 0 0-.03.06v.08l.02.03.02.02a.06.06 0 0 0 .06 0l2.99-2.3a.12.12 0 0 0 .04-.06v-.07l-.02-.03-.03-.02h-.03l-.03.01Z"/><path fill="#455A64" d="M66.83 12.18c.08.25.09.52.02.77-.06.26-.2.48-.38.63a.6.6 0 0 1-.28.13c-.1.02-.2 0-.3-.03a.64.64 0 0 1-.24-.18.81.81 0 0 1-.16-.3 1.4 1.4 0 0 1-.03-.78c.07-.25.2-.47.39-.62a.59.59 0 0 1 .27-.13c.1-.02.2-.01.3.03.1.03.18.1.25.18a.8.8 0 0 1 .16.3Z"/><path fill="#fff" d="M65.82 12.38a.12.12 0 0 0-.04.06v.08l.02.03.02.01a.05.05 0 0 0 .05 0 .12.12 0 0 0 .04-.06v-.08l-.01-.03-.03-.02h-.03l-.02.01Zm.18-.14a.12.12 0 0 0-.04.06v.08l.02.03.03.01a.06.06 0 0 0 .05 0 .12.12 0 0 0 .04-.07v-.07l-.02-.03-.02-.02h-.03l-.03.01Zm.25.03a.12.12 0 0 0 .03-.06v-.08l-.01-.02-.03-.02a.05.05 0 0 0-.05 0 .12.12 0 0 0-.04.07v.07l.02.03.02.02h.03l.03-.01Zm-.35.35a.12.12 0 0 0-.04.06v.08l.02.03.02.02h.03c.01 0 .02 0 .03-.02a.1.1 0 0 0 .04-.06v-.07l-.02-.03-.03-.02a.05.05 0 0 0-.05.01Zm.2-.14a.1.1 0 0 0-.03.06v.08l.02.03.02.02h.03c.01 0 .02 0 .03-.02a.12.12 0 0 0 .04-.06v-.07l-.02-.03-.03-.02h-.03l-.02.01Zm.17-.14a.12.12 0 0 0-.03.06v.08l.01.02.03.02a.06.06 0 0 0 .05 0 .11.11 0 0 0 .04-.07v-.07l-.02-.03-.02-.02h-.03l-.03.01Zm-.29.53a.1.1 0 0 0-.04.06l.01.07c0 .01 0 .02.02.03l.02.02a.05.05 0 0 0 .05-.01.12.12 0 0 0 .04-.06v-.08l-.02-.03-.02-.02H66l-.03.02Zm.19-.15a.12.12 0 0 0-.04.06v.08l.02.03.02.01h.05a.1.1 0 0 0 .04-.07.09.09 0 0 0 0-.07l-.01-.03-.03-.02a.05.05 0 0 0-.05.01Zm.18-.14a.12.12 0 0 0-.03.06.09.09 0 0 0 0 .07l.01.03.03.02h.05a.12.12 0 0 0 .04-.07v-.07c0-.01 0-.02-.02-.03l-.02-.02a.06.06 0 0 0-.06.01Zm-.1.38a.12.12 0 0 0-.04.06v.08l.02.03.03.01a.06.06 0 0 0 .05 0 .12.12 0 0 0 .04-.06V13l-.02-.03-.02-.02h-.03c-.01 0-.02 0-.03.02Z"/><path fill="#455A64" d="M69.63 13.33c.07.25.08.52.01.77-.06.26-.2.48-.37.63a.6.6 0 0 1-.28.13c-.1.02-.2.01-.3-.03a.64.64 0 0 1-.24-.18.8.8 0 0 1-.16-.3 1.41 1.41 0 0 1-.03-.77c.07-.26.2-.48.38-.63a.6.6 0 0 1 .28-.14c.1-.01.2 0 .3.03.1.04.18.1.25.19.07.08.13.18.16.3Z"/><path fill="#fff" d="M69.01 13.47a.3.3 0 0 1 0 .17.26.26 0 0 1-.07.13.13.13 0 0 1-.06.03h-.07a.14.14 0 0 1-.05-.04.17.17 0 0 1-.03-.07.29.29 0 0 1-.01-.16c.01-.06.04-.1.08-.14a.13.13 0 0 1 .06-.03l.06.01c.02 0 .04.02.06.04l.03.06Z"/><path fill="#fff" d="m69.3 13.9.03.09a.8.8 0 0 1-.11.18.52.52 0 0 1-.18.15.44.44 0 0 1-.21.05l-.03-.08a.54.54 0 0 1 0-.29.4.4 0 0 1 .13-.23.23.23 0 0 1 .1-.05l.12.01.09.07a.3.3 0 0 1 .06.1Z"/><path fill="#455A64" d="M64.93 13.63c.08.24.09.52.02.77-.06.26-.2.48-.38.63a.59.59 0 0 1-.28.13c-.1.02-.2 0-.3-.03a.64.64 0 0 1-.24-.18.8.8 0 0 1-.16-.3 1.4 1.4 0 0 1-.03-.78c.07-.25.2-.47.39-.62a.6.6 0 0 1 .27-.13c.1-.02.2 0 .3.03.1.04.18.1.25.18.07.08.12.18.16.3Z"/><path fill="#fff" d="M64.43 14.64h-.02l-.08-.24.08.24h.02Z"/><path fill="#fff" d="m64.53 14.57-.2.14v-.03l.2-.15v.04Zm-.26-.86.12.35c.01.05.02.1 0 .15a.22.22 0 0 1-.07.11.1.1 0 0 1-.07.03.1.1 0 0 1-.07-.03.14.14 0 0 1-.04-.06l-.12-.35a.26.26 0 0 1 0-.14.22.22 0 0 1 .07-.12.1.1 0 0 1 .05-.02.1.1 0 0 1 .05.02c.02 0 .03.02.05.03l.03.06v-.03Z"/><path fill="#455A64" d="M67.73 14.78c.08.24.09.52.02.77-.06.26-.2.48-.38.63a.59.59 0 0 1-.28.13c-.1.02-.2.01-.3-.02a.63.63 0 0 1-.24-.19.8.8 0 0 1-.16-.3 1.4 1.4 0 0 1-.03-.78c.07-.25.2-.47.4-.62a.6.6 0 0 1 .27-.13c.1-.02.2 0 .29.03a.72.72 0 0 1 .41.48Z"/><path fill="#fff" d="m67.41 14.88.08.23a.1.1 0 0 1 0 .06s0 .02-.02.02l-.02.02-.08.04h-.05l-.09-.27.09-.11c0-.02 0-.03.02-.04l.03-.01c.01 0 .02 0 .03.02l.01.04Zm-.23.11.11.33v.1c0 .03-.02.06-.04.08l-.3.22a.07.07 0 0 1-.04.02h-.03a.08.08 0 0 1-.03-.03.1.1 0 0 1-.02-.04l-.12-.32a.18.18 0 0 1 0-.1c0-.04.03-.06.05-.08l.3-.23.03-.02h.03l.04.03.02.04Z"/><path fill="#455A64" d="M65.83 16.23c.08.25.1.52.03.78-.07.25-.2.48-.39.63a.6.6 0 0 1-.27.12c-.1.02-.2.01-.3-.03a.64.64 0 0 1-.25-.18.81.81 0 0 1-.16-.3 1.4 1.4 0 0 1-.02-.77c.06-.26.2-.48.38-.63a.59.59 0 0 1 .28-.13c.1-.02.2 0 .3.03.09.04.17.1.24.18a.8.8 0 0 1 .16.3Z"/><path fill="#fff" d="m65.4 16.5-.22.16-.1-.3v-.02h-.04v.01c-.02.02-.02.03-.02.05l.01.04.1.29-.21.16a.07.07 0 0 0-.03.04v.05l.03.01.03-.01.22-.17.1.29.01.01h.03l.02-.01.02-.04v-.05l-.1-.28.21-.16.02-.05c0-.01 0-.03-.02-.04l-.01-.02h-.02l-.02.01-.01.02Z"/><path fill="#455A64" d="M68.73 10.72c.08.25.08.52.02.78-.07.25-.2.48-.39.63a.6.6 0 0 1-.27.13c-.1.01-.2 0-.3-.03a.64.64 0 0 1-.25-.18.8.8 0 0 1-.16-.3 1.4 1.4 0 0 1-.02-.78c.07-.26.2-.48.39-.63a.6.6 0 0 1 .27-.13c.1-.01.2 0 .3.03.09.04.17.1.25.19a.9.9 0 0 1 .16.29Z"/><path fill="#fff" d="m68.37 10.94-.03-.05a.43.43 0 0 0-.14-.16h-.04v.08c.04.01.08.04.12.08a.4.4 0 0 1 .08.15c.04.12.04.25 0 .38h.04v-.26a1.04 1.04 0 0 0 0-.17l-.03-.05Z"/><path fill="#fff" d="M68.26 11.01a.3.3 0 0 0-.07-.09.24.24 0 0 0-.08-.05v.08c.03 0 .06.03.08.06.03.02.04.05.06.09.02.08.02.17 0 .26h.05a.53.53 0 0 0-.04-.35Z"/><path fill="#fff" d="M68.07 11.03v.08l.04.03.03.05v.12h.05a.27.27 0 0 0-.01-.17.2.2 0 0 0-.11-.11Zm-.19.52-.1.08-.11-.29.11-.08.1.29Zm-.1-.29.16-.27.19.51-.25.05-.1-.3Z"/><path fill="#FFC727" d="M69.34 19c.1.29.11.61.04.92-.08.3-.24.56-.46.74a.7.7 0 0 1-.32.15.64.64 0 0 1-.35-.03.75.75 0 0 1-.3-.22.95.95 0 0 1-.19-.35c-.1-.3-.1-.62-.02-.92.07-.3.23-.56.45-.74a.7.7 0 0 1 .32-.16.7.7 0 0 1 .35.04c.11.04.21.12.3.21.08.1.15.22.18.36Z"/><path fill="#fff" d="m69 19.26-.02-.03h-.13a.4.4 0 0 0-.19.03c-.14.07-.27.18-.39.3a.84.84 0 0 0-.13.2v.25l.25-.19c0-.02 0-.05.02-.07 0-.02.02-.04.03-.05l.23-.17a.08.08 0 0 1 .05-.02c.01 0 .03 0 .04.02l.25-.2v-.07Zm-.85.76c0 .05.02.08.04.12.02.04 0 .04.05 0l.19-.14v-.07l-.04-.1-.24.2Zm.88-.68-.25.19.04.13h.04l.2-.15a.06.06 0 0 0 0-.07l-.05-.11h.02Z"/><path fill="#263238" d="M64.41 10.9a.4.4 0 0 1 0-.22.33.33 0 0 1 .1-.17.16.16 0 0 1 .14-.04h.01l.01.02v.06l-.03.01a.1.1 0 0 0-.1 0 .22.22 0 0 0-.08.12.29.29 0 0 0 0 .14l.03.06.05.04a.11.11 0 0 0 .11 0 .2.2 0 0 0 .07-.1.04.04 0 0 1 .05 0v.06a.32.32 0 0 1-.1.14.15.15 0 0 1-.15.01.18.18 0 0 1-.07-.05.22.22 0 0 1-.04-.09Zm.53-.15.01.03v.03h-.04l-.14-.4a.06.06 0 0 1 0-.06.03.03 0 0 1 .03 0h.01l.04.13a.13.13 0 0 1 .05-.07.1.1 0 0 1 .04-.02.1.1 0 0 1 .05 0 .1.1 0 0 1 .04.04c.02.01.03.03.03.05l.05.15.01.03v.03h-.05l-.05-.15-.02-.02h-.04c-.01 0-.02 0-.02.02a.1.1 0 0 0-.03.05v.06l.03.1Zm.45-.51.05.13v.06h-.04a.18.18 0 0 1-.06.08.1.1 0 0 1-.05.02.1.1 0 0 1-.05-.02.11.11 0 0 1-.05-.03.24.24 0 0 1-.03-.2.21.21 0 0 1 .08-.12.09.09 0 0 1 .07 0v-.05l.02-.01h.02l.04.14Zm-.05.04-.02-.03a.06.06 0 0 0-.03-.02l-.03-.01h-.02a.09.09 0 0 0-.03.03.16.16 0 0 0-.02.12l.02.04.03.02h.06a.13.13 0 0 0 .03-.07.1.1 0 0 0 0-.07v-.01Zm.3-.62a.02.02 0 0 1 .03 0h.01l.14.4v.06h-.04l-.14-.4v-.06Zm.16-.03a.06.06 0 0 1 0 .05v.01h-.03a.06.06 0 0 1 0-.06v-.01a.02.02 0 0 1 .03 0Zm.05.12.09.26v.02a.05.05 0 0 1 0 .03v.01l-.02.01h-.02l-.09-.27v-.06s.03-.05.04-.03v.03Zm.12.05a.27.27 0 0 1-.01-.15.3.3 0 0 1 .07-.12.1.1 0 0 1 .05-.02.1.1 0 0 1 .05 0l.05.04.03.05a.05.05 0 0 1 0 .05l-.16.12s0 .03.03.03l.03.01h.03l.03-.03.01-.03h.05v.04a.24.24 0 0 1-.08.12.1.1 0 0 1-.11 0 .13.13 0 0 1-.05-.04.16.16 0 0 1-.02-.07Zm.04-.08.14-.1a.07.07 0 0 0-.05-.03l-.05.02a.13.13 0 0 0-.03.05v.06Z"/><path fill="#C7C7C7" d="M63.5 6.94h.02a.1.1 0 0 1 .07 0h-.02a.06.06 0 0 0-.05 0h-.02Zm.36-.27.09.25v.03l-.1-.25v-.03Zm.08-.07h.03l.08.25v.04l-.08-.25-.03-.04Zm.13 0v-.03h-.03v.03h.03Zm.41-.17.04.08v.08l-.05.08h-.04l.01-.04v-.04l-.04.05a.07.07 0 0 1-.07 0 .08.08 0 0 1-.03-.02.1.1 0 0 1-.01-.03.14.14 0 0 1 0-.1v-.04a.1.1 0 0 1 .04-.03h.08v.09l.07-.08Zm-.03 0a.07.07 0 0 0-.03-.04h-.03a.06.06 0 0 0 0 .04v.05c0 .02.01.03.03.04h.03c.04 0 0 0 0-.04v-.05Zm.21-.08h.04v.05h-.04v-.05Zm.86 2.71c-.06.13-.14.25-.22.36-.1.12-.22.22-.35.29a.76.76 0 0 1-.8-.03.94.94 0 0 1-.28-.31 1.89 1.89 0 0 1 .16-2.01c.09-.13.2-.23.33-.3a.78.78 0 0 1 .8.03c.11.08.22.19.3.32a1.84 1.84 0 0 1 .06 1.65Z"/><path fill="#fff" d="M64.9 8.03c.04.1.04.23.01.34a.5.5 0 0 1-.16.27.25.25 0 0 1-.12.05h-.12a.27.27 0 0 1-.1-.08.34.34 0 0 1-.07-.13.6.6 0 0 1-.02-.33.53.53 0 0 1 .17-.28.25.25 0 0 1 .11-.05h.12c.04.02.08.05.11.09.03.03.05.07.07.12Z"/><path fill="#fff" d="m65.46 8.91.06.15c-.06.13-.14.25-.22.36-.1.12-.22.22-.35.29a.85.85 0 0 1-.4.1l-.06-.16a1.01 1.01 0 0 1-.02-.56.86.86 0 0 1 .28-.45.43.43 0 0 1 .2-.1.4.4 0 0 1 .21.02c.07.03.13.07.19.13.05.06.09.14.11.22Z"/><path fill="#D3766A" d="M69.72 30.49s-3.95-2.08-5.52-3.45c-1.56-1.37-5.83-9.07-4.5-10.27 1.73-1.54 4.92 2.32 6.28 4.45 1.18-.4 2.41-.5 3.63-.29 1.21.21 2.37.73 3.4 1.51 2.8 2.19-3.29 8.05-3.29 8.05Z"/><path fill="#FFC727" d="m68.15 32.97 13.7-16.9S94 34.18 94.96 42.1c.9 7.48-4.98 7.98-8.56 6.67-4.93-1.82-18.24-15.81-18.24-15.81Z"/><path fill="#263238" d="M84.89 47.79c-.32-.25-.64-.5-.97-.73-.66-.48-1.31-1-1.96-1.5a107.88 107.88 0 0 1-3.89-3.18c-2.55-2.2-9.08-8.87-9.76-9.52-.04-.04-.22.07-.07.27.14.2 4.19 4.61 5.38 5.8a73.58 73.58 0 0 0 7.66 6.64l.13.09.22.31a8.23 8.23 0 0 0 1.97 1.86v-.01a.04.04 0 0 0 0-.03v-.02h-.02c-.45-.4-.87-.83-1.27-1.3L81.9 46a76.58 76.58 0 0 0 2.83 1.92c.4.24.75.5 1.15.69h.02l.02-.02v-.03l-.01-.02c-.32-.28-.68-.5-1.01-.75Zm-7.82-18.37c1.47-1.84 2.95-3.67 4.36-5.6l2.4-3.27c.03-.04 0-.12-.06-.08a160.72 160.72 0 0 0-4.53 5.43c-1.46 1.87-2.93 3.67-4.36 5.58a69.16 69.16 0 0 0-2.37 3.31s0 .06.03.04a94.35 94.35 0 0 0 4.53-5.41Z"/><path fill="#FFC727" d="M50.69 92.8c.11.08 36.42-23.35 36.41-23.97 0-3.73-.36-4.56-1.9-7.75-1.79-3.73-5.93-4.42-6.82-5.58 0 0-9.78-20.74-13.69-24.9-3.65-3.9-10.17-3-13.26 4.99C45.99 49.65 45.3 79 45.7 83.22c.34 3.63 4.8 9.43 4.99 9.58Z"/><path fill="#000" d="M71.92 74.28a935.7 935.7 0 0 1 10.98-7.2l-.06.42-4.16-6.06.21.1a4.4 4.4 0 0 1-2.48-.53 8.1 8.1 0 0 1-2.07-1.63 15.45 15.45 0 0 1-1.7-2.13c-.51-.76-.98-1.57-1.4-2.41l.31.1-8.7 5.57.09-.3.46 1.8c.15.6.24 1.22.36 1.83.11.61.13 1.22.2 1.84v1.41l-.05.48a8.36 8.36 0 0 1-.99 3.57 5.03 5.03 0 0 1-2.49 2.27l.08-.13.3 8.3 11.11-7.3Zm-11.6-.95v-.1l.08-.04a4.95 4.95 0 0 0 2.32-2.21c.54-1.03.85-2.22.9-3.43l.03-.45v-1.37c-.07-.62-.12-1.23-.22-1.84-.1-.61-.22-1.22-.37-1.79l-.52-1.71-.05-.2.14-.1 8.68-5.63.2-.13.12.24a19.1 19.1 0 0 0 3.02 4.37 7.8 7.8 0 0 0 1.95 1.53c.7.4 1.48.58 2.27.53H79l.08.11 4.13 6.09.17.25-.24.16c-3.72 2.39-7.47 4.74-11.22 7.08l-11.1 6.92-.5-8.28Z" opacity=".1"/><path fill="#000" d="M74.92 58.07c-5.28 1.51-10.56 8-9.8 8.29.74.28 4.42-3.93 5.32-4.4.9-.5 6.96-4.6 4.48-3.89Zm-8.35 4.15c-.26-.1.9-1.56 2.04-2.45a3.37 3.37 0 0 1 1.61-.65c.28 0-1.16 1.03-2.04 1.79-.97.84-1.4 1.39-1.6 1.31Z" opacity=".1"/><path fill="#D3766A" d="M46.34 37.64c-10.25 12.84-22.96 39.1-20.47 44.44 2.8 5.96 19.34-11.98 18.88-12.84-.39-.74 4.85-14.77 7.97-29.51 2.6-12.26-3.84-5.27-6.38-2.1Z"/><path fill="#FFC727" d="M46.34 37.64c-10.25 12.84-22.96 39.1-20.47 44.44 2.8 5.96 19.34-11.98 18.88-12.84-.39-.74 4.85-14.77 7.97-29.51 2.6-12.26-3.84-5.27-6.38-2.1Z"/><path fill="#263238" d="M45.27 66.78c.41-1.73.87-3.44 1.33-5.15l1.44-5.1 1.53-5.05 1.54-5.05a68.82 68.82 0 0 1-1.19 5.2c-.44 1.71-.92 3.41-1.4 5.11-.5 1.7-1.03 3.38-1.54 5.05a93.08 93.08 0 0 1-1.7 4.99Z"/><path fill="#263238" d="M50 51.18c.19-.6.43-1.19.7-1.74l.42-.8c.13-.28.28-.54.4-.84.02.34-.03.67-.13.98a6.18 6.18 0 0 1-1.4 2.4Z"/><path fill="#D3766A" d="M26.2 82.63c2.79 3.6 9.19 3.33 25.4 4.45 2.25.15 7.42-18.52 5.03-18.84-3-.39-14.75-1.14-15.61-1.06-7.3.63-16.7 13-14.82 15.45Z"/><path fill="#D3766A" d="M53.38 67.9s6.82.12 10.4 1.5c4.77 1.87 8.26 5.83 9.64 7.6 2.87 3.67 7.7 15 5.22 17.24-2.24 2.02-6.68-9.84-6.68-9.84s6.2 11.2 3.12 13.03c-3.07 1.85-7.57-12.27-7.57-12.27s6.12 11.67 2.73 12.97c-2.58.97-7.26-11.53-7.26-11.53s5.23 10.07 2.6 11.22c-2.89 1.27-7.81-9.96-7.81-9.96-7.07 1.57-10.98-1.15-13.56-3.48-.62-.56 9.17-16.48 9.17-16.48Z"/><path fill="#263238" d="M70.02 80.37a48.46 48.46 0 0 1 4.08 8.12 29.68 29.68 0 0 1 1.74 5.8c-.9-3.5-3.25-8.42-3.91-9.78-.67-1.37-1.29-2.76-1.95-4.11-.02-.04.02-.06.04-.03Zm-4.14 2.8c.92 1.7 1.89 3.33 2.74 5.07.86 1.73 1.54 3.46 2.3 5.26.06.14 0 .13-.09 0-.81-1.76-1.67-3.31-2.5-5.06-.84-1.75-1.6-3.53-2.49-5.24l.04-.03Zm-3.92 1.68a48.1 48.1 0 0 1 3.7 8.13c.06.14-.05.11-.1 0-1.2-2.73-2.11-4.9-3.67-8.05-.03-.08.04-.16.07-.08Z"/><path fill="#FFC727" d="M54.41 67.4 46.3 89.23s-18.62-2.34-20.09-6.6c-1.46-4.25 7.36-13.78 14.1-15.46 4.89-1.2 14.11.23 14.11.23Z"/><path fill="#263238" d="M34.05 70.12c1.81-1.28 6.97-4.3 12.03-3.47.06 0 .06.1 0 .1-4.17 0-10.14 2.37-12 3.46-.04.02-.08-.04-.03-.09Zm8.64 16.06c.24-.8.52-1.6.83-2.36l.76-2.12 1.7-4.59c.58-1.53 1.15-3.06 1.73-4.55.59-1.5 1.12-3.06 1.78-4.52 0-.05.1 0 .08.05-.4 1.6-.94 3.13-1.45 4.68a128.58 128.58 0 0 1-3.4 9.04c-.3.72-.62 1.43-.93 2.14a20.91 20.91 0 0 1-1.05 2.3h-.03a.05.05 0 0 1-.02-.03v-.04Z"/><path fill="#263238" d="m54.2 67.96.18-.6.03.06a56.05 56.05 0 0 0-8.4-.48c-1.4.03-2.8.15-4.2.35-1.38.22-2.76.57-4.1 1.05a15.6 15.6 0 0 1 4.05-1.52c1.4-.3 2.81-.48 4.23-.51a29.77 29.77 0 0 1 8.43 1h.05v.05l-.27.6Z"/><path fill="#FFC727" d="M60.9 37.31s-6.46-5.12-9.99-4.22l-3.4 3.16a.8.8 0 0 1-.6.12.9.9 0 0 1-.55-.35c-1.02-1.7-1.16-5.46 1.63-9.06 2.55-3.3 8.67-4.05 12.92-3.64 4.06.4 6.6 2.68 5.86 5.96-.74 3.29-5.88 8.03-5.88 8.03Z"/><path fill="#000" d="M61.07 35.8s3.88-4.74 4-7.1c.12-2.37-3.96-3.7-6.52-4.04-3.95-.5-6.47.34-8.23 3.2-1.76 2.85 10.75 7.94 10.75 7.94Z" opacity=".1"/><path fill="#D3766A" d="M61.07 35.8c-1.76.56-5.52-1.83-6.84-4.85-.09-.2.2-2.36.44-4.99.15-1.6.27-3.38.3-5.02 0-.34 8.54 2.64 8.54 2.64a30.91 30.91 0 0 0-.9 6.28c-.01.22 0 .45.04.67v.1c.17 1.3.3 4.58-1.58 5.17Z"/><path fill="#263238" d="M62.65 30.53v.1c-.29.05-.58.07-.87.05-5.05-.22-6.29-7.8-6.52-9.73 1.53.29 8.23 2.63 8.23 2.63a31.01 31.01 0 0 0-.9 6.28c0 .23.03.45.06.67Z"/><path fill="#D3766A" d="M52.56 9.42c-.44 3.77 2.49 13.87 4.92 15.8 3.53 2.75 8.63 2.14 10.45-2.75 1.75-4.76-2.27-17.84-4.92-19.5-3.92-2.45-9.78.88-10.45 6.45Z"/><path fill="#263238" d="M62.2 14.21s-.04.06-.03.08c.22.67.37 1.5-.08 1.93v.04c.61-.37.4-1.45.11-2.05Z"/><path fill="#263238" d="M61.51 13.71c-.93.3-.38 2.52.52 2.25.89-.27.24-2.5-.52-2.25Zm3.86-.51c0-.03.06 0 .06.04.15.7.43 1.46 1.02 1.5v.05c-.67.12-1.02-.88-1.08-1.6Z"/><path fill="#263238" d="M65.7 12.3c.9-.42 1.54 1.77.7 2.16-.84.38-1.46-1.82-.7-2.17Zm-5.2.66c.23-.17.42-.37.64-.56.21-.2.46-.37.56-.73a.58.58 0 0 0-.02-.32.47.47 0 0 0-.18-.23.86.86 0 0 0-.54-.05.96.96 0 0 0-.48.29c-.31.24-.54.6-.64 1.04-.02.1-.01.2.02.3.03.1.08.17.15.23a.38.38 0 0 0 .48.03Zm5.66-2.11c-.27.03-.53.04-.8.04-.28.06-.56 0-.81-.15a.5.5 0 0 1-.16-.28.58.58 0 0 1 .03-.33c.1-.18.24-.33.4-.43.16-.1.34-.15.52-.14.36-.04.73.08 1.02.35.07.06.13.14.16.24.03.1.03.2.01.31-.02.1-.07.2-.14.26a.4.4 0 0 1-.23.13ZM62.93 20.9c.18.11.38.3.6.24.2-.09.4-.22.57-.4h.03a.97.97 0 0 1-.25.4.74.74 0 0 1-.39.21.56.56 0 0 1-.36-.11.73.73 0 0 1-.24-.34c-.02.02.02-.02.04 0Z"/><path fill="#263238" d="M63.05 18.62a2 2 0 0 0 .73.5c.27.1.55.14.83.1.25-.02.49-.1.72-.2l.13-.07.12-.08a.17.17 0 0 0 .07-.08.2.2 0 0 0 0-.11.4.4 0 0 0 0-.08v-.06c-.1-.54-.35-1.33-.35-1.33.18.04 1.12.19 1.02-.08a40.71 40.71 0 0 0-2.58-6.86h-.04a.06.06 0 0 0-.03.03v.04c.59 2.2 1.5 4.28 2.12 6.47a3.09 3.09 0 0 0-1.02 0c-.07.04.5 1.52.5 1.76v.03a2.43 2.43 0 0 1-2.21-.03c-.05-.06-.09 0-.01.05Z"/><path fill="#263238" d="M64.98 18.8c-.15.47-.4.9-.71 1.22a.97.97 0 0 1-.63.28c-.51 0-.63-.49-.66-.94 0-.25 0-.5.05-.74.61.3 1.3.37 1.95.18Z"/><path fill="#FF9BBC" d="M64.27 20.02a.97.97 0 0 1-.63.28c-.51 0-.63-.49-.65-.94.24-.08.5-.06.73.06.23.13.43.34.55.6Z"/><path fill="#263238" d="M65.96 25.42a7.2 7.2 0 0 0 1.47-2.06c.2-.4.36-.8.51-1.23.14-.42.25-.86.37-1.3a6.39 6.39 0 0 1-1.37 3.8c-.28.33-.61.6-.98.8Zm-11.01-6.43c1.49-.7.58-5.38.58-5.38s1.75-1.42 1.5-5.85c0 0 2.16 3.81 8.37 1.03a7.56 7.56 0 0 0-1.27-3.86c.9 1.14 1.72 2.37 2.45 3.67 0 0 .25-6.82-4.75-7.76-1.98-.38-4.7.6-8.38 4.28 0 0-1.4-2.77-1.8-2.24-.4.53 1.08 3.06 1.08 3.06s-1.97-.15-2.18.4c-.21.54 1.69.52 1.69.52a4.5 4.5 0 0 0-1.55 2.51 5.3 5.3 0 0 0 .2 3.11c1.15 3.45 3.32 6.86 4.06 6.5Z"/><path fill="#263238" d="M52.74 6.67a3.4 3.4 0 0 0-2.05 1.55c-.5.8-.74 1.8-.67 2.79.15 1.15.5 2.24 1.05 3.2a14.57 14.57 0 0 0 1.99 2.74c.05.05.1-.04.06-.08a10.88 10.88 0 0 1-1.69-2.64c-.47-.9-.81-1.9-1.02-2.93-.15-.97 0-1.98.44-2.81a3.4 3.4 0 0 1 1.91-1.7c.08-.03.03-.14-.02-.12Zm5.2-5.84a13.67 13.67 0 0 0-2.85 2.29 11.17 11.17 0 0 0-2.17 2.98l.02.01.01.01a.04.04 0 0 0 .03 0L53 6.1a18.2 18.2 0 0 1 4.9-4.63c1.67-1.13 3.81-1.75 5.53-.39h.02l.02-.01v-.04C61.89-.46 59.7-.16 57.95.83Z"/><path fill="#D3766A" d="M55.87 17.6s-2.44-2.93-3.57-1.83 1.02 5.65 2.62 6c.2.07.41.08.62.05.2-.04.4-.13.58-.26.18-.13.33-.3.45-.5.12-.21.2-.44.24-.69l-.94-2.76Z"/><path fill="#263238" d="M52.93 17.05v.06c1.12.28 1.84 1.32 2.4 2.44a.89.89 0 0 0-.29-.26.73.73 0 0 0-.71 0 .89.89 0 0 0-.29.26c0 .03 0 .08.04.06.17-.1.37-.15.56-.12.2.03.38.13.52.3.24.27.45.56.64.89.06.1.23 0 .17-.12-.22-1.63-1.6-3.65-3.04-3.51Z"/><path fill="#FFC727" d="M61.07 35.8s-5.71-7.95-11.33-7.69l1.2 4.85s3.27-.7 9.95 4.35l.18-1.5Z"/><path fill="#263238" d="M49.47 33.36a6 6 0 0 1 3-.15c1.01.17 2 .48 2.93.93.95.43 1.87.94 2.76 1.5l1.31.9 1.29.97.14.11.13-.1a28.63 28.63 0 0 0 3.82-4.34c.37-.54.7-1.12.97-1.73a17.8 17.8 0 0 1-2.36 3.02c-.43.47-.88.9-1.33 1.33-.46.43-.91.86-1.37 1.22H61L59.7 36c-.44-.32-.89-.6-1.34-.93-.45-.33-.92-.56-1.4-.82a9.83 9.83 0 0 0-1.44-.66c-.99-.42-2.02-.68-3.06-.78-.26-.03-.51 0-.78-.03-.26-.03-.5 0-.77.06-.5.07-1 .25-1.45.52Z"/><path fill="#263238" d="M47.55 36.16c.61-.43 1.2-.9 1.76-1.42.57-.5 1.1-1.05 1.6-1.65a17.75 17.75 0 0 0-3.36 3.06Z"/><path fill="#FFC727" d="M58.45 34.18a44.6 44.6 0 0 0-.07 6.35c.08 1.48.93 6.73 2.28 6.39 1.36-.34-1.11-3.52-1.7-6.26-.6-2.75-.12-4.86-.15-6.54l-.36.06Z"/><path fill="#000" d="M58.45 34.18a44.6 44.6 0 0 0-.07 6.35c.08 1.48.93 6.73 2.28 6.39 1.36-.34-1.11-3.52-1.7-6.26-.6-2.75-.12-4.86-.15-6.54l-.36.06Z" opacity=".1"/><path fill="#FFC727" d="M63.42 33.32c.6 1.79 1.08 3.63 1.42 5.5.24 1.32.61 6.12-.63 6.26-1.25.15.22-3.4.15-5.97-.07-2.58-.93-4.28-1.26-5.73l.32-.06Z"/><path fill="#000" d="M63.42 33.32c.6 1.79 1.08 3.63 1.42 5.5.24 1.32.61 6.12-.63 6.26-1.25.15.22-3.4.15-5.97-.07-2.58-.93-4.28-1.26-5.73l.32-.06Z" opacity=".1"/></svg>