<svg xmlns="http://www.w3.org/2000/svg" width="155" height="154" fill="none"><path fill="#455A64" d="M2.11 31.71 54.86 1.26v7.3L2.1 39.03v-7.3Z"/><path fill="#263238" d="M4.22 32.93v2.43L52.75 7.35V4.9L4.22 32.93Z"/><path fill="#37474F" d="M2.11 31.71 0 30.5 52.75.04l2.1 1.22L2.12 31.7Z"/><path fill="#263238" d="m0 30.5 2.11 1.21v7.31L0 37.8v-7.3Z"/><path fill="#37474F" d="m154.03 126.75-46.42 26.78v-1.2l46.42-26.77v1.19Z"/><path fill="#F5F5F5" d="m63.3 53.53-10.23 5.92-6.28 3.62a8.34 8.34 0 0 0-4.58 7.51v29.39a8.32 8.32 0 0 1-3.4 6.72 8.38 8.38 0 0 1-9.28.58 25.33 25.33 0 0 1-12.65-21.93V54.85A25.33 25.33 0 0 0 4.22 32.92l46.43-26.8a25.35 25.35 0 0 1 12.67 21.95v13.27l-.02 12.19Z"/><path fill="#455A64" d="M80.18 136.5a25.3 25.3 0 0 1-12.66-21.92v-29.4a25.26 25.26 0 0 0-12.65-21.92 8.44 8.44 0 0 0-12.65 7.31v29.37a8.44 8.44 0 0 1-12.66 7.32A25.33 25.33 0 0 1 16.9 85.33V54.85A25.33 25.33 0 0 0 4.22 32.92v1.21a24.33 24.33 0 0 1 11.62 20.72v30.48a26.44 26.44 0 0 0 13.18 22.83 9.38 9.38 0 0 0 10.01-.33 9.38 9.38 0 0 0 4.22-7.88V70.57a7.4 7.4 0 0 1 11.1-6.41A24.32 24.32 0 0 1 66.5 85.17v29.4a26.42 26.42 0 0 0 13.18 22.83l27.94 16.12v-1.2L80.19 136.5Z"/><path fill="#FAFAFA" d="m154.03 125.56-46.42 26.76-27.43-15.83a25.31 25.31 0 0 1-12.66-21.92V85.18a25.26 25.26 0 0 0-12.65-21.92 8.36 8.36 0 0 0-8.07-.2l6.29-3.63 12.64-7.3L92.8 36.5l.07-.04a8.35 8.35 0 0 1 8.42 0 25.3 25.3 0 0 1 12.66 21.93v29.4a25.34 25.34 0 0 0 12.66 21.92l27.42 15.85Z"/><path fill="#E0E0E0" d="M66.48 85.18a24.32 24.32 0 0 0-12.14-21.02 7.4 7.4 0 0 0-11.1 6.41v29.39a9.37 9.37 0 0 1-4.72 8.19L66.5 91.99l-.02-6.81Z"/><path fill="#000" d="M66.48 85.18a24.32 24.32 0 0 0-12.14-21.02 7.4 7.4 0 0 0-11.1 6.41v29.39a9.37 9.37 0 0 1-4.72 8.19L66.5 91.99l-.02-6.81Z" opacity=".15"/><path fill="#FFC727" d="M12.46 33.07a3.61 3.61 0 0 0 3.95.3l33.12-19.12c1.25-.72 1.54-2.06.57-2.9-.97-.84-2.84-.85-4.08-.13L12.88 30.35c-1.25.72-1.4 1.89-.42 2.72Z"/><path fill="#000" d="M39.17 25.84a.37.37 0 0 1-.18-.68l15.48-8.95a.36.36 0 0 1 .5.14.37.37 0 0 1-.14.5l-15.47 8.94a.37.37 0 0 1-.19.05Zm1.2 1.99a.37.37 0 0 1-.32-.18.37.37 0 0 1 .13-.5l15.49-8.93a.37.37 0 0 1 .37.63l-15.5 8.93a.35.35 0 0 1-.17.05Zm1 2.08a.37.37 0 0 1-.18-.68l15.48-8.95a.37.37 0 0 1 .5.14.37.37 0 0 1-.14.5l-15.48 8.93a.37.37 0 0 1-.18.06Zm.81 2.16a.37.37 0 0 1-.32-.18.38.38 0 0 1 .13-.5l15.49-8.93a.37.37 0 0 1 .5.13.37.37 0 0 1-.14.5l-15.49 8.93a.35.35 0 0 1-.17.05Zm.58 2.12a.36.36 0 0 1-.35-.46.41.41 0 0 1 .17-.22l15.48-8.95a.36.36 0 1 1 .36.63l-15.49 8.94a.37.37 0 0 1-.17.06Zm.4 2.27a.37.37 0 0 1-.18-.68l15.49-8.94a.37.37 0 0 1 .37.63l-15.5 8.94a.34.34 0 0 1-.18.05Zm.22 2.44a.36.36 0 0 1-.18-.7l15.48-8.93a.37.37 0 0 1 .37.63l-15.49 8.94a.35.35 0 0 1-.18.05ZM21.3 56.2a.27.27 0 0 1-.23-.13.26.26 0 0 1 .1-.35L58.75 34a.26.26 0 0 1 .38.29.26.26 0 0 1-.12.16l-37.58 21.7a.25.25 0 0 1-.13.05Zm0 2.33a.27.27 0 0 1-.23-.14.26.26 0 0 1 .1-.35l37.58-21.71a.26.26 0 0 1 .39.19.25.25 0 0 1-.13.26l-37.58 21.7a.3.3 0 0 1-.13.05Zm0 2.31a.27.27 0 0 1-.23-.13.26.26 0 0 1 .1-.35l37.58-21.71a.26.26 0 0 1 .26.45L21.43 60.8a.3.3 0 0 1-.13.03Zm0 2.32a.27.27 0 0 1-.25-.33.25.25 0 0 1 .12-.15l37.58-21.71a.26.26 0 0 1 .26.45l-37.58 21.7a.24.24 0 0 1-.13.04Zm0-10.33a.26.26 0 0 1-.13-.5l19.9-11.48a.26.26 0 0 1 .3 0 .26.26 0 0 1 .1.3.26.26 0 0 1-.15.15L21.43 52.79a.24.24 0 0 1-.13.04Z" opacity=".4"/><path fill="#FFC727" d="M20.74 39.51a24.67 24.67 0 0 1 2.7 9.87.38.38 0 0 0 .61.32l1.11-.63a1.13 1.13 0 0 0 .5-1 27.37 27.37 0 0 0-.91-5.29 29 29 0 0 0-1.78-4.54.62.62 0 0 0-.87-.25l-1.1.63a.7.7 0 0 0-.26.9Zm3.27-4.59c1.11 1.78 2 3.68 2.66 5.67.67 2.02 1.07 4.1 1.2 6.22a.37.37 0 0 0 .6.32l1.1-.64a1.14 1.14 0 0 0 .52-.99 25.38 25.38 0 0 0-3.84-11.81.7.7 0 0 0-.92-.23l-1.1.62a.6.6 0 0 0-.22.84Zm8.74 2.18-1.08.62a.85.85 0 0 0-.37.94c.54 1.82.87 3.7.99 5.6a.37.37 0 0 0 .6.32l1.1-.64a1.14 1.14 0 0 0 .53-.99 26.49 26.49 0 0 0-1.02-5.58.5.5 0 0 0-.75-.28Zm4.42-4.42a.55.55 0 0 0-.82-.26l-1.1.62a.76.76 0 0 0-.32.93 24.43 24.43 0 0 1 1.76 7.76.37.37 0 0 0 .6.32l1.11-.64a1.15 1.15 0 0 0 .53-.98 26.4 26.4 0 0 0-1.76-7.75Z"/><path fill="#000" d="M22.07 48.38a.19.19 0 0 0-.26-.07l-.46.26c-.1-.63-.22-1.27-.36-1.89l.62-.36a.19.19 0 0 0-.05-.32.19.19 0 0 0-.14 0l-.53.31a25.8 25.8 0 0 0-.53-1.85l.6-.34a.18.18 0 0 0-.19-.32l-.53.3a24.16 24.16 0 0 0-.68-1.79l.6-.34a.18.18 0 0 0 .06-.25.19.19 0 0 0-.25-.07l-.56.32c-.26-.58-.54-1.15-.85-1.72l.59-.34a.18.18 0 0 0-.05-.34.19.19 0 0 0-.14.02l-.58.34a29.5 29.5 0 0 0-1.02-1.65l.67-.38a.18.18 0 0 0 .06-.25.18.18 0 0 0-.25-.07l-.68.4c-.4-.56-.8-1.13-1.25-1.68a.19.19 0 0 0-.29.23c.44.54.84 1.08 1.22 1.64l-.63.36a.18.18 0 0 0-.09.2.18.18 0 0 0 .18.14h.1l.65-.37c.36.54.7 1.08 1 1.64l-.73.42a.18.18 0 0 0 .1.34h.09l.73-.42c.3.57.6 1.15.85 1.73l-.76.44a.18.18 0 0 0 .18.31l.73-.42c.25.59.5 1.19.68 1.8l-.77.44a.18.18 0 0 0 .09.34h.1l.7-.41c.21.61.38 1.23.54 1.86l-.77.44a.18.18 0 0 0 0 .32c.02.02.05.02.09.02h.09l.68-.39c.14.63.26 1.26.35 1.9l-.83.5a.18.18 0 0 0 .1.33c.03 0 .06 0 .08-.02l.71-.41c.11.77.19 1.56.23 2.36a.18.18 0 0 0 .18.17.18.18 0 0 0 .18-.19c-.05-.86-.13-1.7-.25-2.54l.58-.33a.18.18 0 0 0 .07-.35Z" opacity=".4"/><g opacity=".15"><path fill="#FFC727" d="M23.95 84.44a28.94 28.94 0 0 1-.17-4.18c.15-.54 2.4-8.23 6.52-10.63.25-.16.52-.27.81-.34.11-.03.22-.04.34-.04 1.1 0 1.58 1.52 2.05 3 .18.6.4 1.18.65 1.76.29.6.76 1.38 1.67 1.38.4-.02.8-.14 1.13-.35 1.98-1.13 2.55-4.19 3.16-7.43.24-1.45.57-2.88.99-4.29.6-1.89 1.38-3.06 2.46-3.68.28-.18.6-.28.92-.3 1.15 0 1.59 2.05 2 4.03.19 1.03.47 2.05.84 3.03.42.95 1 1.42 1.69 1.42.4-.02.8-.15 1.15-.36 2.43-1.4 3.17-3.79 3.88-6.09.6-1.97 1.17-3.8 2.78-4.73a2.3 2.3 0 0 1 1.2-.37c.17 0 .35.02.52.08.04.37.07.74.07 1.1l.03 4.67c.04.89.1 1.6.19 2.2L23.95 84.43Z"/><path fill="#000" d="M59.11 64.44a25 25 0 0 1-.2-2.34l-.03-4.66c0-.42-.04-.85-.1-1.28-.24-.11-.5-.17-.76-.17-.47.01-.93.16-1.33.4-3.58 2.1-2.21 8.26-6.66 10.83-.31.2-.68.32-1.05.33-.67 0-1.11-.49-1.45-1.26-1.04-2.36-1.02-7.2-3.08-7.2-.37.01-.73.13-1.04.33-1.28.73-2.04 2.14-2.57 3.83-1.33 4.15-1.25 9.99-4.02 11.56-.3.19-.63.3-.98.32-.66 0-1.1-.5-1.44-1.23-.85-1.8-1.15-4.91-2.96-4.91-.13 0-.26.02-.39.04-.31.08-.61.2-.89.38-4.4 2.55-6.64 10.8-6.64 10.8-.05 1.56.02 3.1.2 4.65l.5-.3a4.97 4.97 0 0 1-.08-.55 30.14 30.14 0 0 1-.13-3.72c.21-.73 2.42-8.12 6.4-10.44a2.34 2.34 0 0 1 1.01-.34c.9 0 1.37 1.43 1.81 2.81.18.62.4 1.22.66 1.8.19.38.73 1.53 1.9 1.53a2.6 2.6 0 0 0 1.27-.39c2.08-1.18 2.67-4.3 3.28-7.6.24-1.44.57-2.86.98-4.26.59-1.82 1.33-2.96 2.34-3.53.24-.16.5-.25.79-.27.93 0 1.37 2.03 1.75 3.82.18 1.05.47 2.09.85 3.08.46 1.04 1.1 1.58 1.92 1.58a2.7 2.7 0 0 0 1.32-.41c2.52-1.46 3.3-4 4-6.24.59-1.9 1.14-3.7 2.66-4.58.32-.2.68-.33 1.06-.34.1 0 .2 0 .29.03.05.52.06.9.06.9v4.69c.04.8.1 1.48.16 2.03.02.18.06.36.1.54l.46-.26"/></g><path fill="#FFC727" d="M23.52 77.86v2.36c-.05 1.55.02 3.1.2 4.64l35.39-20.42c-.1-.7-.17-1.48-.21-2.34l-.03-4.66s0-6.96-4.44-4.4c-4.64 2.68-3.33 11.2-6.63 13.1-3.3 1.9-2.2-5.68-6.63-3.12-4.42 2.55-2.21 8.23-6.63 10.78-4.42 2.55-2.21-10.32-6.63-7.77-4.42 2.55-4.4 8.9-4.4 11.83Z" opacity=".4"/><path fill="#000" d="M21.9 88.45a.18.18 0 0 1-.15-.1.18.18 0 0 1 .06-.24l37.63-21.55a.18.18 0 0 1 .25.07.18.18 0 0 1-.06.25L22 88.43a.2.2 0 0 1-.1.02Z" opacity=".4"/><path fill="#fff" d="M27.96 67.27a.19.19 0 0 1-.19-.18v-.37a.18.18 0 0 1 .18-.18.18.18 0 0 1 .18.18v.37a.19.19 0 0 1-.17.18Zm.08 14.15a.19.19 0 0 1-.19-.16c0-.24-.04-.5-.05-.71a.18.18 0 0 1 .05-.14.18.18 0 0 1 .12-.06.17.17 0 0 1 .2.17c0 .24.03.47.05.7a.18.18 0 0 1-.1.18.18.18 0 0 1-.06.02h-.02Zm-.09-1.4a.19.19 0 0 1-.19-.19v-.7a.18.18 0 0 1 .19-.2c.1 0 .18.09.18.2v.7a.18.18 0 0 1-.18.18Zm0-1.42a.19.19 0 0 1-.18-.19v-.7a.19.19 0 0 1 .18-.19.19.19 0 0 1 .18.18v.71a.19.19 0 0 1-.18.19Zm0-1.42a.18.18 0 0 1-.18-.18v-.71a.19.19 0 0 1 .19-.18.19.19 0 0 1 .18.18v.7a.18.18 0 0 1-.18.2Zm0-1.41a.19.19 0 0 1-.18-.19v-.72a.19.19 0 0 1 .37 0v.7a.19.19 0 0 1-.06.16.19.19 0 0 1-.15.05h.02Zm0-1.42a.18.18 0 0 1-.18-.18v-.7a.18.18 0 1 1 .36 0v.7a.18.18 0 0 1-.2.2l.02-.02Zm0-1.42a.18.18 0 0 1-.18-.18v-.7a.18.18 0 1 1 .36 0v.7a.18.18 0 0 1-.2.18h.02Zm0-1.41a.18.18 0 0 1-.18-.19v-.7a.19.19 0 0 1 .18-.19.18.18 0 0 1 .18.19v.7a.18.18 0 0 1-.2.19h.02Zm0-1.41a.19.19 0 0 1-.18-.2v-.7a.19.19 0 0 1 .37 0v.71a.2.2 0 0 1-.14.18h-.07.02Zm0-1.42a.19.19 0 0 1-.18-.18v-.7a.19.19 0 0 1 .19-.2.18.18 0 0 1 .18.19v.7a.19.19 0 0 1-.21.19h.02Zm.2 13.8a.19.19 0 0 1-.18-.16l-.04-.37a.18.18 0 0 1 .36-.04l.05.36a.18.18 0 0 1-.1.19.18.18 0 0 1-.06.02h-.03ZM54.46 53.6a.19.19 0 0 1-.18-.2v-.36a.19.19 0 0 1 .18-.19.19.19 0 0 1 .19.19v.36a.19.19 0 0 1-.19.2Zm.11 14.14a.19.19 0 0 1-.19-.17l-.05-.7a.19.19 0 0 1 .24-.2.18.18 0 0 1 .13.17c0 .24.03.47.05.7a.18.18 0 0 1-.1.18.18.18 0 0 1-.07.02h-.01Zm-.09-1.4a.19.19 0 0 1-.18-.2v-.7a.18.18 0 0 1 .36 0v.7a.18.18 0 0 1-.18.2Zm0-1.43a.18.18 0 0 1-.18-.18V64a.18.18 0 0 1 .18-.18.19.19 0 0 1 .2.18v.7a.18.18 0 0 1-.2.2v.01Zm0-1.41a.19.19 0 0 1-.18-.18v-.71a.19.19 0 0 1 .18-.19.19.19 0 0 1 .19.19v.7a.19.19 0 0 1-.19.19Zm0-1.42a.19.19 0 0 1-.18-.18v-.71a.18.18 0 1 1 .37 0v.71a.18.18 0 0 1-.13.18.18.18 0 0 1-.08 0h.02Zm0-1.41a.19.19 0 0 1-.18-.19v-.7a.19.19 0 0 1 .37 0v.7a.19.19 0 0 1-.21.19h.02Zm0-1.42a.18.18 0 0 1-.17-.11.18.18 0 0 1-.01-.07v-.7a.19.19 0 0 1 .26-.2.19.19 0 0 1 .1.2v.7a.18.18 0 0 1-.06.14.18.18 0 0 1-.14.04h.02Zm0-1.42a.18.18 0 0 1-.18-.18v-.7a.18.18 0 0 1 .1-.18.18.18 0 0 1 .08-.01.19.19 0 0 1 .18.19v.7a.18.18 0 0 1-.2.18h.02Zm0-1.4a.18.18 0 0 1-.18-.2v-.7a.18.18 0 0 1 .37 0v.7a.19.19 0 0 1-.13.18c-.03.01-.05.02-.08.01h.02Zm0-1.42a.19.19 0 0 1-.18-.2v-.68a.19.19 0 0 1 .37 0v.71a.19.19 0 0 1-.14.16c-.02 0-.05.01-.07 0h.02Zm.21 13.79a.19.19 0 0 1-.19-.15l-.04-.37a.18.18 0 0 1 .09-.18.18.18 0 0 1 .07-.02.18.18 0 0 1 .2.16l.05.36a.18.18 0 0 1-.1.19.18.18 0 0 1-.06.02h-.02ZM41.2 64.2a.19.19 0 0 1-.2-.18v-.37a.19.19 0 0 1 .38 0V64a.19.19 0 0 1-.18.2Zm.08 9.67a.18.18 0 0 1-.18-.17c0-.22-.04-.46-.06-.69a.19.19 0 0 1 .18-.2.18.18 0 0 1 .18.1l.01.08c0 .22.03.45.05.68a.18.18 0 0 1-.16.2h-.02Zm-.08-1.38a.19.19 0 0 1-.2-.18v-.69a.18.18 0 0 1 .32-.13c.03.03.05.08.05.13v.69a.19.19 0 0 1-.18.18Zm0-1.38a.18.18 0 0 1-.19-.18v-.7a.19.19 0 0 1 .19-.18.18.18 0 0 1 .18.19v.67a.18.18 0 0 1-.18.18v.02Zm0-1.38a.19.19 0 0 1-.2-.18v-.7a.18.18 0 0 1 .2-.18.18.18 0 0 1 .18.19v.69a.19.19 0 0 1-.18.18Zm0-1.38a.18.18 0 0 1-.19-.18v-.71a.19.19 0 0 1 .37 0v.69a.18.18 0 0 1-.19.2Zm0-1.38a.19.19 0 0 1-.19-.19v-.69a.19.19 0 0 1 .37 0v.7a.19.19 0 0 1-.19.17v.01Zm0-1.38a.19.19 0 0 1-.19-.19v-.68a.19.19 0 1 1 .37 0v.69a.19.19 0 0 1-.18.18Zm.22 9.33a.19.19 0 0 1-.18-.16l-.05-.37a.18.18 0 0 1 .1-.18.18.18 0 0 1 .06-.02.18.18 0 0 1 .2.15l.05.37a.18.18 0 0 1-.16.2h-.02Z"/><path fill="#000" d="M27.93 65.3c.35-.2.63-.06.63.3a1.36 1.36 0 0 1-.63 1.04c-.35.2-.64.07-.64-.3a1.35 1.35 0 0 1 .64-1.04Zm13.27-3.06c.35-.2.63-.07.63.3a1.35 1.35 0 0 1-.63 1.03c-.35.2-.64.07-.64-.3a1.35 1.35 0 0 1 .64-1.03Zm13.26-9.87c.35-.2.64-.07.64.3a1.35 1.35 0 0 1-.64 1.03c-.36.2-.64.07-.64-.3a1.34 1.34 0 0 1 .64-1.03ZM22.15 69.59a.18.18 0 1 0-.18-.32l-.5.28v-1.9l.67-.39a.18.18 0 0 0-.04-.33.19.19 0 0 0-.14.01l-.5.28v-2a.19.19 0 0 0-.18-.18.18.18 0 0 0-.18.18v2.24l-.67.38a.18.18 0 0 0-.07.25.18.18 0 0 0 .16.1l.1-.03.49-.28v1.9l-.67.38a.18.18 0 0 0-.02.3c.03.03.07.05.11.05a.2.2 0 0 0 .1-.03l.49-.28v1.9l-.67.39a.18.18 0 0 0-.07.25.18.18 0 0 0 .25.07l.5-.28v1.9l-.68.38a.18.18 0 0 0 0 .32.2.2 0 0 0 .1.03c.03 0 .06-.01.08-.03l.5-.28v1.9l-.67.39a.18.18 0 0 0-.07.25.2.2 0 0 0 .16.1.2.2 0 0 0 .09 0l.5-.29v1.9l-.68.39a.19.19 0 0 0-.07.25.2.2 0 0 0 .17.1.2.2 0 0 0 .08-.03l.5-.28v1.9l-.67.38a.19.19 0 0 0-.07.25.19.19 0 0 0 .16.1.2.2 0 0 0 .09-.03l.5-.28v1.89l-.7.4a.18.18 0 0 0 .1.34.2.2 0 0 0 .09-.03l.53-.3c.04.69.1 1.38.18 2.06a.19.19 0 0 0 .18.15.18.18 0 0 0 .16-.13v-.07a41.2 41.2 0 0 1-.2-2.21l.64-.37a.18.18 0 1 0-.18-.32l-.47.27c0-.63-.03-1.26 0-1.9l.66-.38a.18.18 0 1 0-.18-.31l-.5.27v-1.9l.67-.38a.18.18 0 0 0 .1-.19.18.18 0 0 0-.14-.15.18.18 0 0 0-.14.02l-.5.28v-1.9l.67-.39a.18.18 0 0 0 .09-.18.18.18 0 0 0-.03-.07.19.19 0 0 0-.25-.06l-.5.27v-1.9l.68-.38a.18.18 0 0 0-.2-.32l-.49.28v-1.9l.67-.38a.18.18 0 0 0 .09-.19.18.18 0 0 0-.03-.07.17.17 0 0 0-.24-.06l-.5.28v-1.95l.74-.38Z" opacity=".4"/><path fill="#FFC727" d="m68.25 80.99-35.36 20.4c-1.24.71-3.04.63-3.95-.28-.9-.92-.52-2.32.72-3.03l35.33-20.4a3.23 3.23 0 0 1 3.79.42c.93.92.71 2.18-.53 2.89Z"/><path fill="#000" d="M22.56 90.9a.26.26 0 0 1-.13-.49l39.8-22.95a.26.26 0 0 1 .27.45L22.69 90.89a.24.24 0 0 1-.13.02Zm.81 2.16a.27.27 0 0 1-.22-.13.26.26 0 0 1 .09-.35l39.81-22.99a.26.26 0 0 1 .36.1.26.26 0 0 1-.1.35l-39.8 22.99a.25.25 0 0 1-.14.03Zm1.01 2.07a.26.26 0 0 1-.13-.5l39.82-22.99a.26.26 0 0 1 .26.45l-39.83 23a.34.34 0 0 1-.12.04Zm1.18 1.97a.27.27 0 0 1-.26-.24.25.25 0 0 1 .13-.25l39.83-23a.26.26 0 0 1 .26.45l-39.83 23a.24.24 0 0 1-.13.03Z" opacity=".4"/><path fill="#FFC727" d="M60.32 59.02 93.09 40.1c1.24-.72 3.22-1.14 4.33-.7 1.11.45.9 1.62-.34 2.33L63.93 60.87c-1.25.72-3.01.8-4 .27-.99-.54-.86-1.4.39-2.12Z"/><path fill="#000" d="M64.11 64.22a.27.27 0 0 1-.22-.13.26.26 0 0 1 .1-.36l37.75-21.8a.26.26 0 0 1 .4.2c0 .03 0 .07-.02.1a.26.26 0 0 1-.12.16L64.24 64.18a.25.25 0 0 1-.13.04Zm1.57 1.68a.27.27 0 0 1-.23-.13.26.26 0 0 1 .1-.35l37.82-21.83a.25.25 0 0 1 .35.1.26.26 0 0 1-.1.35L65.81 65.87a.29.29 0 0 1-.13.04Zm6.26 19.32a.18.18 0 0 1-.18-.19v-2c0-1.5 0-1.5-.04-2.53v-.17a24.39 24.39 0 0 0-1.33-6.83 19.04 19.04 0 0 0-3.4-5.95.18.18 0 1 1 .28-.23 19.54 19.54 0 0 1 3.46 6.06 24.67 24.67 0 0 1 1.36 6.9v.18c.04 1.02.04 1.02.04 2.54v2a.19.19 0 0 1-.19.22Z" opacity=".4"/><path fill="#FFC727" d="M71.56 69.43c-.17-.3-.35-.58-.54-.87a.58.58 0 0 1 .19-.85l14.42-8.33a.68.68 0 0 1 .92.22c.17.28.34.58.5.89a.7.7 0 0 1-.28.9l-14.35 8.29a.63.63 0 0 1-.86-.25Zm1.41 3.35.3.98a.5.5 0 0 0 .72.3l34.23-19.75a.89.89 0 0 0 .4-.96l-.3-.98a.49.49 0 0 0-.3-.36.5.5 0 0 0-.46.07L73.32 71.84a.83.83 0 0 0-.35.94Z"/><path fill="#fff" d="m72.97 72.78.3.98a.5.5 0 0 0 .72.3l34.23-19.75a.89.89 0 0 0 .4-.96l-.3-.98a.49.49 0 0 0-.3-.36.5.5 0 0 0-.46.07L73.32 71.84a.83.83 0 0 0-.35.94Z" opacity=".7"/><path fill="#FFC727" d="M73.96 77.32a31.04 31.04 0 0 1 .15 1.28.37.37 0 0 0 .56.11l23.2-13.39a1.12 1.12 0 0 0 .51-.98l-.1-1.06a.4.4 0 0 0-.66-.32L74.43 76.34a1.06 1.06 0 0 0-.47.98Z"/><path fill="#000" d="M73.96 77.32a31.04 31.04 0 0 1 .15 1.28.37.37 0 0 0 .56.11l23.2-13.39a1.12 1.12 0 0 0 .51-.98l-.1-1.06a.4.4 0 0 0-.66-.32L74.43 76.34a1.06 1.06 0 0 0-.47.98Z" opacity=".15"/><path fill="#FFC727" d="M74.15 82.06v1.04c0 .36.25.5.56.32l9.93-5.73a1.24 1.24 0 0 0 .56-.98v-1.05c0-.36-.25-.5-.56-.32l-9.93 5.73a1.24 1.24 0 0 0-.56.99Z"/><path fill="#fff" d="M74.15 82.06v1.04c0 .36.25.5.56.32l9.93-5.73a1.24 1.24 0 0 0 .56-.98v-1.05c0-.36-.25-.5-.56-.32l-9.93 5.73a1.24 1.24 0 0 0-.56.99Z" opacity=".5"/><path fill="#000" d="M109.52 65.57a.19.19 0 0 0-.19.19v.9l-2.64 1.52v-.67a.19.19 0 0 0-.19-.16.19.19 0 0 0-.18.16v.88l-2.65 1.53v-.66a.18.18 0 0 0-.04-.15.18.18 0 0 0-.22-.05.18.18 0 0 0-.06.05.18.18 0 0 0-.04.07.2.2 0 0 0 0 .08v.87l-2.65 1.53V71a.19.19 0 0 0-.19-.18.19.19 0 0 0-.13.05.18.18 0 0 0-.05.13v.86l-2.65 1.53v-.63a.18.18 0 0 0-.36 0v.84l-2.65 1.53v-.62a.18.18 0 0 0-.18-.19.18.18 0 0 0-.19.19v.83l-2.65 1.53v-.61a.19.19 0 0 0-.37 0v.82l-2.65 1.53v-.6a.19.19 0 0 0-.37 0v.8l-2.64 1.53v-.56a.19.19 0 0 0-.37 0v.8l-2.65 1.53v-.58a.19.19 0 0 0-.37 0v.79l-2.64 1.53v-.57a.19.19 0 0 0-.37 0v.78l-2.65 1.52v-.54a.19.19 0 0 0-.37 0v.76l-2.29 1.32a.18.18 0 0 0 0 .32.2.2 0 0 0 .1.03c.03 0 .06-.01.08-.03l2.11-1.22v.75a.19.19 0 0 0 .37 0v-.96l2.65-1.53v.73a.19.19 0 0 0 .37 0v-.95l2.64-1.53v.73a.19.19 0 0 0 .37 0v-.94L85.21 81v.7a.19.19 0 0 0 .37 0v-.93l2.64-1.53v.7a.19.19 0 0 0 .37 0v-.9l2.65-1.54v.7a.19.19 0 0 0 .37 0v-.89l2.64-1.52v.68a.19.19 0 0 0 .19.18.18.18 0 0 0 .18-.18v-.9l2.65-1.52v.66a.18.18 0 0 0 .36 0v-.9l2.65-1.53v.66a.18.18 0 0 0 .19.18.19.19 0 0 0 .18-.18v-.87l2.64-1.53v.65a.19.19 0 0 0 .19.15.19.19 0 0 0 .18-.15v-.86l2.65-1.53v.62c0 .04.03.08.06.11a.19.19 0 0 0 .24 0 .19.19 0 0 0 .07-.11v-.84l2.64-1.53v.62a.19.19 0 0 0 .19.16.2.2 0 0 0 .12-.05.19.19 0 0 0 .06-.11v-1.94a.18.18 0 0 0-.05-.11.19.19 0 0 0-.12-.06Z" opacity=".4"/><path fill="#FFC727" d="M80.5 89.84a6.6 6.6 0 0 0-1.92.78c-3.66 2.15-6.63 7.54-6.63 12.02v.35l6.62-3.03 1.93-10.12Z"/><path fill="#FFC727" d="m80.5 89.84-1.93 10.12 6.56-3.8c.05-.4.07-.82.07-1.23 0-3.7-1.98-5.66-4.7-5.09Z"/><path fill="#FFC727" d="M84.3 99.57c.42-1.1.7-2.24.83-3.41l-6.56 3.8 5.73-.4Z"/><path fill="#FFC727" d="M71.96 102.98c.14 4.25 3.05 6.02 6.62 3.95 2.46-1.41 4.58-4.28 5.72-7.4l-5.73.4-6.61 3.05Z"/><path fill="#fff" d="m80.5 89.84-1.93 10.12 6.56-3.8c.05-.4.07-.82.07-1.23 0-3.7-1.98-5.66-4.7-5.09Z" opacity=".7"/><path fill="#000" d="M84.3 99.57c.42-1.1.7-2.24.83-3.41l-6.56 3.8 5.73-.4Z" opacity=".15"/><path fill="#fff" d="M71.96 102.98c.14 4.25 3.05 6.02 6.62 3.95 2.46-1.41 4.58-4.28 5.72-7.4l-5.73.4-6.61 3.05Z" opacity=".5"/><path fill="#fff" d="M71.96 103.25a.28.28 0 0 1-.14-.04.26.26 0 0 1-.13-.2v-.37c0-4.56 3.03-10.05 6.76-12.24a6.4 6.4 0 0 1 2-.8.26.26 0 0 1 .24.06.26.26 0 0 1 .07.23l-1.94 10.13a.26.26 0 0 1-.14.19l-6.62 3.03a.29.29 0 0 1-.1.01Zm8.21-13.05c-.52.15-1.02.37-1.48.65-3.57 2.1-6.48 7.35-6.5 11.74l6.13-2.8 1.85-9.6Z"/><path fill="#fff" d="M78.57 100.22a.25.25 0 0 1-.15-.05.27.27 0 0 1-.1-.26l1.93-10.11a.26.26 0 0 1 .2-.2 3.77 3.77 0 0 1 3.26.68c1.13.92 1.76 2.57 1.76 4.65 0 .42-.03.84-.08 1.26a.26.26 0 0 1-.13.19l-6.56 3.81a.29.29 0 0 1-.13.03Zm2.18-10.15-1.8 9.37L84.92 96c.04-.35.06-.7.06-1.07 0-1.91-.56-3.42-1.57-4.24a3.2 3.2 0 0 0-2.65-.61Z"/><path fill="#fff" d="M78.57 100.22a.26.26 0 0 1-.24-.18.25.25 0 0 1 .1-.3l6.57-3.8a.27.27 0 0 1 .27 0 .26.26 0 0 1 .12.24 14.3 14.3 0 0 1-.85 3.45.27.27 0 0 1-.22.17l-5.73.4-.02.02Zm6.24-3.57-5.14 2.96 4.44-.3c.32-.87.55-1.76.7-2.66Z"/><path fill="#fff" d="M75.75 108.07a3.7 3.7 0 0 1-1.8-.45c-1.37-.77-2.18-2.4-2.26-4.62a.26.26 0 0 1 .16-.25l6.61-3.02h.1l5.72-.4a.25.25 0 0 1 .23.1.24.24 0 0 1 .03.25c-1.2 3.25-3.45 6.13-5.83 7.52-.9.54-1.91.84-2.95.87Zm-3.53-4.93c.1 1.93.81 3.35 1.98 4 1.16.65 2.65.5 4.23-.44 2.21-1.27 4.28-3.88 5.47-6.87l-5.28.37-6.4 2.94Z"/><path fill="#FFC727" d="M99.89 79.14c-2.16 2.6-3.63 6.22-3.63 9.41a6.78 6.78 0 0 0 .84 3.51l5.79-7.33-3-5.59Z"/><path fill="#FFC727" d="M105.88 75.67a5.51 5.51 0 0 0-3 .85 11.56 11.56 0 0 0-3 2.62l3 5.58 3-9.05Zm3.02 2.11a3.45 3.45 0 0 0-3.02-2.11l-3 9.06 6.02-6.95Zm0 0-6.01 6.95-5.8 7.34c1.14 1.85 3.3 2.3 5.8.86 3.66-2.12 6.63-7.5 6.63-12.03a7.17 7.17 0 0 0-.62-3.12Z"/><path fill="#fff" d="M105.88 75.67a5.51 5.51 0 0 0-3 .85 11.56 11.56 0 0 0-3 2.62l3 5.58 3-9.05Z" opacity=".7"/><path fill="#000" d="M108.9 77.78a3.45 3.45 0 0 0-3.02-2.11l-3 9.06 6.02-6.95Z" opacity=".15"/><path fill="#fff" d="m108.9 77.78-6.01 6.95-5.8 7.34c1.14 1.85 3.3 2.3 5.8.86 3.66-2.12 6.63-7.5 6.63-12.03a7.17 7.17 0 0 0-.62-3.12Z" opacity=".5"/><path fill="#fff" d="M97.1 92.32a.28.28 0 0 1-.21-.12 7.05 7.05 0 0 1-.88-3.65c0-3.16 1.42-6.83 3.7-9.58a.28.28 0 0 1 .22-.1.26.26 0 0 1 .2.15l3 5.58a.26.26 0 0 1-.02.28l-5.81 7.35a.27.27 0 0 1-.2.1Zm2.74-12.71c-2.05 2.61-3.32 6-3.32 8.94a6.9 6.9 0 0 0 .61 3.04l5.43-6.9-2.72-5.08Z"/><path fill="#fff" d="M102.89 84.98a.26.26 0 0 1-.23-.14l-3-5.58a.26.26 0 0 1 .03-.29 11.36 11.36 0 0 1 3.06-2.68c.94-.59 2.03-.9 3.14-.89.04 0 .08.02.11.04.04.02.07.04.1.08l.04.1c0 .05 0 .09-.02.13l-2.98 9.05a.27.27 0 0 1-.23.18h-.02Zm-2.7-5.81 2.64 4.9 2.69-8.15c-.89.07-1.75.36-2.5.82a10.86 10.86 0 0 0-2.82 2.43Z"/><path fill="#fff" d="M102.89 84.98a.23.23 0 0 1-.13-.04.26.26 0 0 1-.12-.3l3-9.06a.26.26 0 0 1 .25-.17 3.72 3.72 0 0 1 3.25 2.26c.02.05.02.1.02.15a.35.35 0 0 1-.06.14l-6.02 6.93a.25.25 0 0 1-.2.09Zm3.17-9.04-2.52 7.63 5.05-5.83a3.2 3.2 0 0 0-2.53-1.8Z"/><path fill="#fff" d="M100.08 94.03a3.64 3.64 0 0 1-3.2-1.83.26.26 0 0 1 0-.3l5.78-7.34 6.03-6.94a.25.25 0 0 1 .23-.09c.04 0 .08.02.11.04.04.03.07.06.08.1.46 1.01.68 2.11.65 3.22 0 4.6-3.03 10.1-6.76 12.25-.88.55-1.89.86-2.92.9Zm-2.66-1.97c1.13 1.67 3.11 1.9 5.33.61 3.6-2.06 6.5-7.36 6.5-11.8a7.3 7.3 0 0 0-.42-2.62l-5.75 6.62-5.66 7.19Z"/><path fill="#FFC727" d="m87.98 85.14 1.08-.63c.31-.17.57-.03.57.33v1.05a1.24 1.24 0 0 1-.57.98l-1.08.63c-.31.18-.57.03-.57-.33v-1.04a1.25 1.25 0 0 1 .57-.99Zm0 4.68 1.08-.62c.31-.19.57-.04.57.32v1.04a1.23 1.23 0 0 1-.57.99l-1.08.63c-.31.18-.57.03-.57-.33V90.8a1.23 1.23 0 0 1 .57-.97Z"/><path fill="#fff" d="m87.98 89.82 1.08-.62c.31-.19.57-.04.57.32v1.04a1.23 1.23 0 0 1-.57.99l-1.08.63c-.31.18-.57.03-.57-.33V90.8a1.23 1.23 0 0 1 .57-.97Z" opacity=".7"/><path fill="#FFC727" d="m87.98 94.5 1.08-.63c.31-.17.57-.03.57.33v1.04a1.25 1.25 0 0 1-.57.99l-1.08.62c-.31.18-.57.03-.57-.32v-1.05a1.24 1.24 0 0 1 .57-.98Z"/><path fill="#000" d="m87.98 94.5 1.08-.63c.31-.17.57-.03.57.33v1.04a1.25 1.25 0 0 1-.57.99l-1.08.62c-.31.18-.57.03-.57-.32v-1.05a1.24 1.24 0 0 1 .57-.98Z" opacity=".15"/><path fill="#FFC727" d="m87.98 99.18 1.08-.63c.31-.18.57-.03.57.33v1.04a1.25 1.25 0 0 1-.57.99l-1.08.63c-.31.17-.57.03-.57-.33v-1.04a1.25 1.25 0 0 1 .57-1Z"/><path fill="#fff" d="m87.98 99.18 1.08-.63c.31-.18.57-.03.57.33v1.04a1.25 1.25 0 0 1-.57.99l-1.08.63c-.31.17-.57.03-.57-.33v-1.04a1.25 1.25 0 0 1 .57-1Z" opacity=".5"/><path fill="#000" d="M90.74 85.04a.36.36 0 0 1-.32-.2.37.37 0 0 1 .14-.48l3.3-1.9a.37.37 0 0 1 .37.63l-3.3 1.9a.39.39 0 0 1-.19.05Zm-.04 4.72a.37.37 0 0 1-.2-.69l3.3-1.9a.37.37 0 1 1 .38.63l-3.3 1.9a.35.35 0 0 1-.19.06Zm-.08 4.73a.37.37 0 0 1-.19-.69l3.31-1.9a.37.37 0 0 1 .5.13.37.37 0 0 1-.14.5l-3.3 1.9a.37.37 0 0 1-.18.06Zm-.03 4.72a.35.35 0 0 1-.32-.18.37.37 0 0 1 .13-.5l3.31-1.9a.37.37 0 1 1 .37.64l-3.31 1.9a.34.34 0 0 1-.18.04Zm-18.22 16.63a.36.36 0 0 1-.32-.19.36.36 0 0 1 .13-.49l15.48-8.94a.36.36 0 0 1 .5.14.37.37 0 0 1-.14.5l-15.48 8.95a.39.39 0 0 1-.17.03Zm.49 2.29a.37.37 0 0 1-.18-.69l15.47-8.93a.36.36 0 0 1 .41.03.37.37 0 0 1 .14.24.37.37 0 0 1-.18.37l-15.47 8.93a.34.34 0 0 1-.2.05Zm.71 2.22a.37.37 0 0 1-.18-.69l15.47-8.93a.38.38 0 0 1 .14-.06.38.38 0 0 1 .4.18.37.37 0 0 1-.17.52l-15.47 8.93a.36.36 0 0 1-.19.05Zm23.08-18.53a.36.36 0 0 1-.35-.46.31.31 0 0 1 .16-.21l15.48-8.93a.38.38 0 0 1 .5.13.37.37 0 0 1-.15.5l-15.47 8.92a.36.36 0 0 1-.17.05Zm.49 2.29a.36.36 0 0 1-.31-.18.37.37 0 0 1 .13-.5l15.48-8.92a.38.38 0 0 1 .49.13.37.37 0 0 1-.14.5l-15.47 8.92a.37.37 0 0 1-.18.05Zm.72 2.22a.37.37 0 0 1-.32-.19.37.37 0 0 1 .13-.49l15.48-8.93a.38.38 0 0 1 .28-.04.37.37 0 0 1 .27.31.37.37 0 0 1-.18.37l-15.5 8.92a.35.35 0 0 1-.16.05Z" opacity=".4"/><path fill="#FFC727" d="m77.82 122.86 35.28-20.37a2.71 2.71 0 0 1 3.53.64c.76 1.03.45 2.38-.8 3.1l-35.28 20.36c-1.25.72-2.96.53-3.71-.5-.74-1.01-.26-2.52.98-3.23Z"/><path fill="#000" d="M83.64 132.83a.38.38 0 0 1-.32-.18.37.37 0 0 1 .14-.5l15.47-8.94a.37.37 0 0 1 .49.14.37.37 0 0 1-.13.49l-15.48 8.93a.34.34 0 0 1-.17.06Zm-1.94-1.36a.37.37 0 0 1-.19-.69L97 121.85a.37.37 0 0 1 .5.14.38.38 0 0 1-.14.5l-15.46 8.93a.38.38 0 0 1-.18.05Zm3.99 2.57a.37.37 0 0 1-.35-.46c.02-.1.08-.17.17-.22l15.47-8.94a.37.37 0 0 1 .5.14.37.37 0 0 1-.14.49l-15.47 8.93a.42.42 0 0 1-.18.06Zm20.04-13.96a.36.36 0 0 1-.36-.27.37.37 0 0 1 .18-.42l15.47-8.92a.36.36 0 0 1 .28-.04.37.37 0 0 1 .26.45.37.37 0 0 1-.17.23l-15.47 8.92a.35.35 0 0 1-.19.05Zm-1.93-1.36a.37.37 0 0 1-.34-.5.36.36 0 0 1 .15-.19l15.47-8.92a.36.36 0 0 1 .5.13.37.37 0 0 1-.14.5l-15.47 8.92a.42.42 0 0 1-.17.06Zm3.96 2.57a.36.36 0 0 1-.31-.18.36.36 0 0 1 .13-.5l15.47-8.93a.4.4 0 0 1 .14-.06h.16a.38.38 0 0 1 .23.19.37.37 0 0 1-.04.42.37.37 0 0 1-.12.1l-15.47 8.9a.36.36 0 0 1-.19.06Z" opacity=".4"/><path fill="#FFC727" d="M108 132.42c-3.36-1.94-9.05-1.8-12.72.32-3.66 2.1-3.9 5.4-.54 7.33 3.36 1.94 9.05 1.8 12.7-.3 3.67-2.12 3.9-5.4.56-7.35Zm-2.29 6.34c-2.61 1.5-6.68 1.6-9.08.22-2.4-1.38-2.22-3.73.4-5.24 2.6-1.51 6.67-1.61 9.08-.23 2.4 1.4 2.22 3.74-.4 5.25Z"/><path fill="#FFC727" d="M98.76 134.74c1.57-.9 4.01-.98 5.45-.13 1.44.84 1.33 2.24-.24 3.14-1.56.91-4 1-5.42.14s-1.36-2.24.2-3.15Z"/><path fill="#000" d="M98.76 134.74c1.57-.9 4.01-.98 5.45-.13 1.44.84 1.33 2.24-.24 3.14-1.56.91-4 1-5.42.14s-1.36-2.24.2-3.15Z" opacity=".5"/><path fill="#000" d="M108 132.42c-3.36-1.94-9.05-1.8-12.72.32-3.66 2.1-3.9 5.4-.54 7.33 3.36 1.94 9.05 1.8 12.7-.3 3.67-2.12 3.9-5.4.56-7.35Zm-2.29 6.34c-2.61 1.5-6.68 1.6-9.08.22-2.4-1.38-2.22-3.73.4-5.24 2.6-1.51 6.67-1.61 9.08-.23 2.4 1.4 2.22 3.74-.4 5.25Z" opacity=".15"/><path fill="#FFC727" d="m98.67 131.45.77 1.37c1.48-.34 3.01-.37 4.5-.08l1.04-1.41a15.2 15.2 0 0 0-6.3.12Z"/><path fill="#fff" d="m98.67 131.45.77 1.37c1.48-.34 3.01-.37 4.5-.08l1.04-1.41a15.2 15.2 0 0 0-6.3.12Z" opacity=".7"/><path fill="#000" d="M101.83 130.77a.37.37 0 0 1-.35-.4l.1-1.68 6.8-3.95a.37.37 0 0 1 .51.14.37.37 0 0 1-.14.5l-6.48 3.75-.08 1.3a.37.37 0 0 1-.36.34Z" opacity=".4"/><path fill="#FFC727" d="M127.89 120.95c-3.36-1.94-9.05-1.8-12.72.31s-3.9 5.4-.55 7.34c3.36 1.94 9.06 1.8 12.72-.31s3.9-5.4.55-7.34Zm-2.29 6.33c-2.61 1.51-6.68 1.62-9.08.23-2.4-1.39-2.22-3.73.4-5.25 2.6-1.5 6.67-1.6 9.07-.22 2.4 1.39 2.23 3.73-.39 5.24Z"/><path fill="#FFC727" d="M118.65 123.27c1.57-.9 4-.98 5.42-.14 1.43.85 1.34 2.24-.23 3.15-1.58.91-4 .99-5.43.14-1.42-.86-1.33-2.22.24-3.15Z"/><path fill="#000" d="M118.65 123.27c1.57-.9 4-.98 5.42-.14 1.43.85 1.34 2.24-.23 3.15-1.58.91-4 .99-5.43.14-1.42-.86-1.33-2.22.24-3.15Z" opacity=".5"/><path fill="#000" d="M127.89 120.95c-3.36-1.94-9.05-1.8-12.72.31s-3.9 5.4-.55 7.34c3.36 1.94 9.06 1.8 12.72-.31s3.9-5.4.55-7.34Zm-2.29 6.33c-2.61 1.51-6.68 1.62-9.08.23-2.4-1.39-2.22-3.73.4-5.25 2.6-1.5 6.67-1.6 9.07-.22 2.4 1.39 2.23 3.73-.39 5.24Z" opacity=".15"/><path fill="#FFC727" d="M127.89 120.95c-2.84-1.64-7.34-1.79-10.86-.52l1.21 1.24c2.53-.9 5.74-.8 7.77.37.34.2.65.43.92.7l2.27-.8a6.1 6.1 0 0 0-1.31-1Z"/><path fill="#fff" d="M127.89 120.95c-2.84-1.64-7.34-1.79-10.86-.52l1.21 1.24c2.53-.9 5.74-.8 7.77.37.34.2.65.43.92.7l2.27-.8a6.1 6.1 0 0 0-1.31-1Z" opacity=".7"/><path fill="#000" d="M121.77 119.27h-.02a.37.37 0 0 1-.35-.4l.1-1.69 6.8-3.92a.37.37 0 0 1 .37.64l-6.47 3.72-.08 1.3a.37.37 0 0 1-.35.34Zm-17.83 25.31a.37.37 0 0 1-.36-.27.38.38 0 0 1 .02-.24.38.38 0 0 1 .16-.18l37.56-21.66a.36.36 0 0 1 .4.02.37.37 0 0 1 .14.25.36.36 0 0 1-.18.36l-37.57 21.67a.42.42 0 0 1-.17.05Zm2.01 1.16a.37.37 0 0 1-.33-.5.37.37 0 0 1 .15-.18l37.57-21.69a.38.38 0 0 1 .3-.06.36.36 0 0 1 .3.32.36.36 0 0 1-.1.3.37.37 0 0 1-.13.08l-37.57 21.68a.36.36 0 0 1-.19.05Zm2.03 1.16a.37.37 0 0 1-.32-.2.36.36 0 0 1 .13-.5l37.6-21.65a.36.36 0 0 1 .28-.04.36.36 0 0 1 .26.45.36.36 0 0 1-.17.22l-37.58 21.69a.43.43 0 0 1-.2.03Z" opacity=".4"/></svg>