<svg xmlns="http://www.w3.org/2000/svg" width="176" height="155" fill="none"><path fill="#FFC727" d="M6.12 57.95a17.77 17.77 0 0 0 16.44 17.72v.04h100.6a20.88 20.88 0 0 0 1.96-41.67 35.19 35.19 0 0 0-68.18-11 20.88 20.88 0 0 0-30.17 17.38A17.77 17.77 0 0 0 6.12 57.95Z"/><path fill="#000" d="M6.12 57.95a17.77 17.77 0 0 0 16.44 17.72v.04h100.6a20.88 20.88 0 0 0 1.96-41.67 35.19 35.19 0 0 0-68.18-11 20.88 20.88 0 0 0-30.17 17.38A17.77 17.77 0 0 0 6.12 57.95Z" opacity=".1"/><path fill="#FFC727" d="M.03 57.95a17.77 17.77 0 0 0 16.44 17.72v.04h100.6a20.88 20.88 0 0 0 1.96-41.67 35.18 35.18 0 0 0-68.17-11 20.88 20.88 0 0 0-30.17 17.38A17.77 17.77 0 0 0 .03 57.95Z"/><path fill="#fff" d="M90.42 46.95H53.65L72.04 69.8l18.38-22.84Z"/><path fill="#455A64" d="M48.72 52.5 92.92 27v6.12l-44.2 25.51v-6.12Z"/><path fill="#263238" d="M50.48 53.53v2.04l40.67-23.48v-2.04L50.48 53.53Z"/><path fill="#37474F" d="m48.72 52.5-1.77-1.01 44.2-25.52L92.9 27 48.7 52.52Z"/><path fill="#263238" d="m46.95 51.49 1.77 1.02v6.12l-1.77-1.02v-6.12Z"/><path fill="#37474F" d="m176 132.13-38.9 22.44v-1l38.9-22.44v1Z"/><path fill="#F5F5F5" d="m99.98 70.78-8.56 4.97-5.27 3.03-.5.29a6.99 6.99 0 0 0-3.34 6v24.62a6.97 6.97 0 0 1-2.84 5.64 7.02 7.02 0 0 1-7.77.48 21.22 21.22 0 0 1-10.6-18.37V71.9a21.22 21.22 0 0 0-10.62-18.38l38.9-22.45A21.24 21.24 0 0 1 100 49.45v11.12l-.02 10.21Z"/><path fill="#455A64" d="M114.13 140.3a21.2 21.2 0 0 1-10.61-18.36V97.3a21.17 21.17 0 0 0-10.6-18.36 7.07 7.07 0 0 0-10.6 6.13v24.6a7.08 7.08 0 0 1-10.6 6.13 21.22 21.22 0 0 1-10.6-18.37V71.9a21.22 21.22 0 0 0-10.64-18.38v1.01a20.39 20.39 0 0 1 9.74 17.37v25.53a22.15 22.15 0 0 0 11.04 19.13 7.86 7.86 0 0 0 8.4-.28 7.86 7.86 0 0 0 3.53-6.6V85.06a6.2 6.2 0 0 1 9.3-5.37 20.38 20.38 0 0 1 10.17 17.61v24.64a22.15 22.15 0 0 0 11.04 19.12l23.41 13.5v-1l-22.98-13.26Z"/><path fill="#FAFAFA" d="m176 131.13-38.9 22.43-22.97-13.27a21.22 21.22 0 0 1-10.61-18.36V97.3a21.17 21.17 0 0 0-10.6-18.36 7 7 0 0 0-6.76-.17l5.27-3.04 10.6-6.12 22.67-13.09.06-.03a7 7 0 0 1 7.06 0 21.2 21.2 0 0 1 10.6 18.37v24.63a21.2 21.2 0 0 0 10.6 18.37L176 131.13Z"/><path fill="#E0E0E0" d="M102.65 97.3a20.37 20.37 0 0 0-10.17-17.6 6.2 6.2 0 0 0-9.3 5.37v24.62a7.85 7.85 0 0 1-3.96 6.86L102.66 103l-.01-5.7Z"/><path fill="#000" d="M102.65 97.3a20.37 20.37 0 0 0-10.17-17.6 6.2 6.2 0 0 0-9.3 5.37v24.62a7.85 7.85 0 0 1-3.96 6.86L102.66 103l-.01-5.7Z" opacity=".15"/><path fill="#FFC727" d="M57.4 53.65a3.03 3.03 0 0 0 3.3.25l27.75-16.02c1.04-.6 1.29-1.73.47-2.43-.81-.7-2.37-.71-3.41-.11L57.74 51.37c-1.04.6-1.17 1.58-.35 2.28Z"/><path fill="#000" d="M79.77 47.59a.31.31 0 0 1-.16-.58l12.98-7.49a.3.3 0 0 1 .41.12.31.31 0 0 1-.1.4l-12.98 7.5a.3.3 0 0 1-.15.05Zm1 1.67a.31.31 0 0 1-.27-.15.31.31 0 0 1 .11-.42L93.6 41.2a.31.31 0 0 1 .3.54l-12.97 7.48a.3.3 0 0 1-.15.04ZM81.6 51a.3.3 0 0 1-.14-.57l12.97-7.5a.3.3 0 0 1 .42.12.31.31 0 0 1-.12.4l-12.97 7.5a.31.31 0 0 1-.15.05Zm.69 1.81a.31.31 0 0 1-.27-.15.31.31 0 0 1 .11-.42l12.98-7.49a.3.3 0 0 1 .41.11.31.31 0 0 1-.11.42l-12.98 7.49a.3.3 0 0 1-.14.04Zm.48 1.77a.3.3 0 0 1-.29-.38.3.3 0 0 1 .14-.18l12.97-7.5a.3.3 0 0 1 .44.34.3.3 0 0 1-.14.18l-12.97 7.5a.31.31 0 0 1-.15.04Zm.34 1.91a.3.3 0 0 1-.15-.58l12.97-7.49a.31.31 0 0 1 .31.54l-12.97 7.49a.29.29 0 0 1-.16.04Zm.19 2.03a.3.3 0 0 1-.16-.57l12.98-7.5a.31.31 0 0 1 .3.54l-12.97 7.49a.3.3 0 0 1-.15.04ZM64.8 73.03a.22.22 0 0 1-.2-.11.22.22 0 0 1 .09-.3l31.48-18.19a.22.22 0 0 1 .28.32.22.22 0 0 1-.06.06L64.9 73a.2.2 0 0 1-.1.03Zm0 1.94a.22.22 0 0 1-.2-.1.22.22 0 0 1 .09-.3l31.48-18.2a.22.22 0 0 1 .3.09.21.21 0 0 1-.08.29L64.9 74.94a.24.24 0 0 1-.1.03Zm0 1.95a.22.22 0 0 1-.2-.12.22.22 0 0 1 .09-.3l31.48-18.18a.22.22 0 0 1 .22.38L64.9 76.89a.24.24 0 0 1-.1.03Zm0 1.94a.22.22 0 0 1-.22-.2.2.2 0 0 1 .1-.2l31.49-18.2a.22.22 0 0 1 .22.38L64.9 78.83a.2.2 0 0 1-.1.03Zm0-8.66a.22.22 0 0 1-.11-.41l16.66-9.63a.22.22 0 0 1 .32.07.22.22 0 0 1-.1.31L64.9 70.16a.2.2 0 0 1-.1.04Z" opacity=".4"/><path fill="#FFC727" d="M64.33 59.04a20.67 20.67 0 0 1 2.26 8.27.31.31 0 0 0 .51.27l.93-.53a.95.95 0 0 0 .41-.83c-.1-1.5-.35-2.99-.75-4.43a24.28 24.28 0 0 0-1.5-3.82.52.52 0 0 0-.73-.2l-.91.53a.58.58 0 0 0-.22.74Zm2.74-3.84a22.05 22.05 0 0 1 2.23 4.75 20.67 20.67 0 0 1 1.03 5.38.31.31 0 0 0 .47.1l.93-.54a.95.95 0 0 0 .43-.83 21.26 21.26 0 0 0-3.22-9.9.6.6 0 0 0-.77-.18l-.92.5a.5.5 0 0 0-.18.72Zm7.33 1.81-.92.53a.71.71 0 0 0-.3.79c.45 1.53.72 3.1.82 4.69a.31.31 0 0 0 .5.27l.93-.54a.96.96 0 0 0 .44-.82 21.8 21.8 0 0 0-.85-4.68.41.41 0 0 0-.63-.24Zm3.7-3.69a.46.46 0 0 0-.7-.22l-.92.52a.64.64 0 0 0-.26.78c.16.41.32.82.48 1.3.55 1.68.89 3.43.99 5.2a.31.31 0 0 0 .5.27l.93-.53a.96.96 0 0 0 .44-.83 22.12 22.12 0 0 0-1.47-6.5Z"/><path fill="#000" d="M65.44 66.47a.16.16 0 0 0-.21-.06l-.4.22a24.9 24.9 0 0 0-.3-1.58l.53-.3a.16.16 0 0 0-.16-.27l-.45.26a21 21 0 0 0-.44-1.55l.5-.29a.15.15 0 0 0-.16-.27l-.45.26a20.3 20.3 0 0 0-.56-1.5l.5-.29a.15.15 0 0 0 .05-.2.16.16 0 0 0-.21-.07l-.47.27a20.3 20.3 0 0 0-.71-1.44l.49-.28a.15.15 0 0 0 .06-.22.16.16 0 0 0-.21-.05l-.5.28a21.9 21.9 0 0 0-.84-1.37l.56-.32a.15.15 0 0 0 .07-.16.15.15 0 0 0-.02-.05.15.15 0 0 0-.21-.06l-.57.33c-.33-.47-.68-.94-1.05-1.41a.16.16 0 0 0-.24.2c.36.44.7.9 1.02 1.37l-.53.3a.15.15 0 0 0-.02.25c.03.03.06.04.1.04h.07l.55-.32c.3.46.59.91.85 1.38l-.62.35a.15.15 0 0 0 .08.29h.08l.6-.36c.27.48.51.97.72 1.45l-.63.37a.15.15 0 0 0-.02.25c.03.02.06.04.1.03.02 0 .05 0 .07-.02l.6-.35c.22.5.42 1 .58 1.5l-.65.38a.15.15 0 0 0 .08.28h.08l.6-.34c.17.51.31 1.03.44 1.56l-.65.37a.15.15 0 0 0 0 .26c.03.02.05.02.08.02h.08l.57-.32c.12.52.21 1.05.3 1.58l-.7.42a.15.15 0 0 0 .15.26l.6-.34c.09.65.15 1.3.18 1.98a.15.15 0 0 0 .16.14.15.15 0 0 0 .1-.05.15.15 0 0 0 .04-.1c-.03-.73-.1-1.44-.2-2.14l.48-.28a.15.15 0 0 0 .13-.22.15.15 0 0 0-.07-.07Z" opacity=".4"/><g opacity=".15"><path fill="#FFC727" d="M67.02 96.68a24.23 24.23 0 0 1-.14-3.5c.12-.45 2-6.9 5.45-8.9.21-.13.44-.23.68-.29l.29-.03c.91 0 1.32 1.27 1.72 2.5.15.51.33 1 .55 1.49.23.5.63 1.15 1.4 1.15.33-.02.65-.11.94-.3 1.65-.94 2.14-3.5 2.64-6.21.2-1.22.48-2.42.83-3.6.5-1.58 1.16-2.56 2.07-3.08.23-.15.5-.24.77-.26.96 0 1.32 1.72 1.68 3.38.15.87.38 1.72.7 2.54.35.8.83 1.19 1.4 1.19.35-.02.68-.12.98-.3 2.03-1.18 2.65-3.18 3.25-5.1.5-1.66.98-3.19 2.32-3.97a2 2 0 0 1 1-.31c.15 0 .3.02.45.07l.06.93.02 3.9c.04.75.09 1.34.16 1.84L67.02 96.68Z"/><path fill="#000" d="M96.47 79.93c-.08-.59-.13-1.25-.17-1.96l-.02-3.9c0-.36-.03-.72-.08-1.08-.2-.1-.42-.14-.64-.14-.4.01-.78.13-1.11.34-3 1.75-1.86 6.92-5.58 9.07-.27.17-.57.26-.89.28-.55 0-.93-.42-1.2-1.06-.88-1.98-.86-6.04-2.59-6.04-.3.02-.61.11-.87.28-1.07.62-1.71 1.8-2.16 3.2-1.1 3.49-1.04 8.38-3.36 9.7-.25.16-.53.25-.83.26-.54 0-.9-.41-1.2-1.03-.71-1.5-.97-4.1-2.48-4.1-.1 0-.22 0-.33.03-.26.06-.5.17-.74.3-3.68 2.15-5.57 9.07-5.57 9.07-.04 1.3.02 2.6.18 3.89l.41-.25a25.23 25.23 0 0 1-.17-3.58c.17-.61 2.02-6.8 5.35-8.75.2-.11.4-.2.62-.26a.96.96 0 0 1 .23-.03c.76 0 1.15 1.2 1.52 2.36.15.52.34 1.02.56 1.51.15.31.6 1.28 1.6 1.28A2.1 2.1 0 0 0 78 89c1.74-1 2.23-3.61 2.75-6.38.2-1.2.48-2.4.82-3.56.49-1.53 1.11-2.48 1.96-2.96.2-.13.42-.21.66-.23.78 0 1.15 1.7 1.47 3.2.15.89.39 1.75.7 2.59.4.87.93 1.32 1.62 1.32.4-.02.77-.14 1.1-.35 2.12-1.22 2.77-3.35 3.35-5.22.5-1.6.96-3.1 2.23-3.84.27-.18.58-.27.9-.29l.23.03c.05.44.05.75.05.76v3.92c.04.67.08 1.24.14 1.7.02.16.05.3.09.46l.38-.22"/></g><path fill="#FFC727" d="M66.65 91.17v1.98c-.04 1.3.02 2.6.18 3.89l29.64-17.11c-.09-.59-.14-1.25-.17-1.96l-.02-3.9s0-5.84-3.72-3.7c-3.9 2.25-2.8 9.39-5.56 10.99-2.76 1.6-1.85-4.77-5.56-2.63-3.7 2.15-1.85 6.9-5.55 9.04-3.7 2.14-1.85-8.65-5.56-6.51-3.7 2.14-3.68 7.45-3.68 9.91Z" opacity=".4"/><path fill="#000" d="M65.3 100.05c-.03 0-.05-.01-.08-.03a.15.15 0 0 1-.05-.05.15.15 0 0 1 .06-.21L96.75 81.7a.15.15 0 0 1 .2.06.15.15 0 0 1-.05.21l-31.52 18.06a.17.17 0 0 1-.08.02Z" opacity=".4"/><path fill="#fff" d="M70.37 82.3a.16.16 0 0 1-.15-.15v-.31a.15.15 0 0 1 .15-.15.15.15 0 0 1 .15.15v.3a.16.16 0 0 1-.15.16Zm.07 11.86a.16.16 0 0 1-.15-.14c0-.2-.04-.42-.05-.6a.15.15 0 0 1 .04-.1.15.15 0 0 1 .1-.06.14.14 0 0 1 .17.14c0 .2.03.4.04.59a.16.16 0 0 1-.03.11.15.15 0 0 1-.1.06h-.02Zm-.07-1.18a.16.16 0 0 1-.16-.16v-.6a.15.15 0 0 1 .15-.14c.1 0 .16.06.16.15v.59a.15.15 0 0 1-.15.16Zm0-1.19a.16.16 0 0 1-.15-.15v-.6a.16.16 0 0 1 .15-.15.16.16 0 0 1 .15.15v.6a.16.16 0 0 1-.16.15Zm0-1.19a.15.15 0 0 1-.15-.15v-.6a.16.16 0 0 1 .15-.15.16.16 0 0 1 .16.16v.59a.15.15 0 0 1-.16.15Zm0-1.18a.16.16 0 0 1-.15-.16v-.6a.16.16 0 0 1 .3 0v.6a.16.16 0 0 1-.17.16h.02Zm0-1.19a.15.15 0 0 1-.15-.15v-.6a.15.15 0 1 1 .3 0v.6a.15.15 0 0 1-.17.16l.02-.01Zm0-1.19a.15.15 0 0 1-.14-.09.15.15 0 0 1-.01-.06v-.59a.15.15 0 0 1 .3 0v.6a.15.15 0 0 1-.17.14h.02Zm0-1.18a.15.15 0 0 1-.15-.16v-.59a.16.16 0 0 1 .15-.15.15.15 0 0 1 .15.15v.6a.15.15 0 0 1-.17.15h.02Zm0-1.18a.16.16 0 0 1-.15-.16v-.6a.16.16 0 0 1 .3 0v.6a.16.16 0 0 1-.17.16h.02Zm0-1.2a.16.16 0 0 1-.15-.14v-.6a.16.16 0 0 1 .15-.15.15.15 0 0 1 .16.15v.6a.16.16 0 0 1-.18.15h.02Zm.17 11.57a.16.16 0 0 1-.15-.13l-.04-.31a.15.15 0 0 1 .13-.17.15.15 0 0 1 .16.08l.01.06.04.3a.15.15 0 0 1-.13.17h-.02Zm22.04-24.21a.16.16 0 0 1-.16-.16v-.3a.16.16 0 0 1 .16-.16.16.16 0 0 1 .15.16v.3a.16.16 0 0 1-.15.16Zm.09 11.86a.16.16 0 0 1-.16-.15l-.04-.6a.16.16 0 0 1 .2-.15.15.15 0 0 1 .1.14c0 .2.03.4.05.59a.15.15 0 0 1-.14.16h-.01Zm-.07-1.19a.16.16 0 0 1-.16-.15v-.6a.15.15 0 0 1 .26-.1c.03.02.05.06.05.1v.6a.15.15 0 0 1-.16.15Zm0-1.18a.15.15 0 0 1-.11-.05.15.15 0 0 1-.05-.1v-.62a.15.15 0 0 1 .16-.15.16.16 0 0 1 .15.15v.6a.15.15 0 0 1-.15.15v.02Zm0-1.19a.16.16 0 0 1-.16-.15v-.6a.16.16 0 0 1 .15-.15.16.16 0 0 1 .16.15v.6a.16.16 0 0 1-.15.15Zm0-1.19a.16.16 0 0 1-.16-.15v-.6a.15.15 0 0 1 .31 0v.6a.15.15 0 0 1-.17.15h.02Zm0-1.18a.16.16 0 0 1-.16-.16v-.6a.16.16 0 0 1 .31 0v.6a.16.16 0 0 1-.1.15h-.07.02Zm0-1.19a.15.15 0 0 1-.11-.04.15.15 0 0 1-.05-.11v-.6a.16.16 0 1 1 .31 0v.6a.15.15 0 0 1-.17.15h.02Zm0-1.19a.15.15 0 0 1-.16-.15v-.59a.15.15 0 0 1 .15-.16.16.16 0 0 1 .16.16v.6a.15.15 0 0 1-.17.14h.02Zm0-1.18a.15.15 0 0 1-.15-.1.15.15 0 0 1 0-.06v-.59a.15.15 0 1 1 .3 0v.6a.16.16 0 0 1-.17.15h.02Zm0-1.18a.16.16 0 0 1-.16-.16v-.58a.16.16 0 0 1 .31 0v.6a.16.16 0 0 1-.11.13h-.06.02Zm.17 11.56a.16.16 0 0 1-.16-.13l-.03-.31a.15.15 0 0 1 .13-.17.15.15 0 0 1 .17.13l.04.3a.15.15 0 0 1-.13.18h-.02Zm-11.31-3.86a.16.16 0 0 1-.15-.15v-.31a.16.16 0 0 1 .3 0v.3a.16.16 0 0 1-.15.16Zm.07 8.1a.15.15 0 0 1-.15-.14c0-.2-.03-.39-.04-.58a.16.16 0 0 1 .14-.17.15.15 0 0 1 .17.15c0 .19.02.38.04.57a.15.15 0 0 1-.08.15.15.15 0 0 1-.06.02h-.02Zm-.07-1.15a.16.16 0 0 1-.15-.16v-.58a.15.15 0 0 1 .15-.15.16.16 0 0 1 .15.15v.58a.16.16 0 0 1-.15.16Zm0-1.16a.15.15 0 0 1-.14-.1.15.15 0 0 1 0-.05v-.58a.16.16 0 0 1 .14-.16.15.15 0 0 1 .15.1v.62a.15.15 0 0 1-.15.15v.02Zm0-1.16a.16.16 0 0 1-.15-.15v-.58a.15.15 0 0 1 .15-.15.15.15 0 0 1 .16.15v.58a.16.16 0 0 1-.16.15Zm0-1.16a.15.15 0 0 1-.15-.15v-.6a.16.16 0 0 1 .31 0v.58a.15.15 0 0 1-.16.17Zm0-1.15a.16.16 0 0 1-.15-.16v-.58a.16.16 0 0 1 .31 0v.58a.16.16 0 0 1-.16.15v.01Zm0-1.16a.16.16 0 0 1-.15-.15v-.58a.16.16 0 0 1 .22-.17.16.16 0 0 1 .1.17v.58a.16.16 0 0 1-.17.15Zm.19 7.81a.16.16 0 0 1-.15-.13l-.04-.3a.15.15 0 0 1 .14-.18.15.15 0 0 1 .17.14l.03.3a.15.15 0 0 1-.13.18h-.02Z"/><path fill="#000" d="M70.35 80.65c.3-.17.53-.06.53.25a1.14 1.14 0 0 1-.53.87c-.3.17-.54.06-.54-.25a1.13 1.13 0 0 1 .54-.87Zm11.11-2.57c.3-.17.54-.06.54.25a1.13 1.13 0 0 1-.54.87c-.29.17-.53.06-.53-.25a1.13 1.13 0 0 1 .53-.87Zm11.12-8.27c.29-.17.53-.05.53.26a1.13 1.13 0 0 1-.53.86c-.3.17-.54.06-.54-.25a1.12 1.12 0 0 1 .54-.87ZM65.5 84.24a.15.15 0 0 0 .03-.25.15.15 0 0 0-.18-.01l-.4.23v-1.6l.55-.32a.15.15 0 0 0 .06-.2.16.16 0 0 0-.21-.06l-.42.23v-1.68a.16.16 0 0 0-.15-.15.15.15 0 0 0-.15.15v1.88l-.57.32a.15.15 0 0 0-.05.2.15.15 0 0 0 .13.08c.03 0 .06 0 .08-.02l.41-.23v1.6l-.56.31a.15.15 0 0 0-.01.26c.02.02.06.03.1.03.02 0 .05 0 .07-.02l.41-.23v1.59l-.56.32a.15.15 0 0 0-.05.21.15.15 0 0 0 .2.06l.42-.23v1.59l-.56.32a.15.15 0 0 0-.08.15.15.15 0 0 0 .08.12l.07.02c.03 0 .06 0 .08-.02l.41-.24v1.6l-.56.32a.15.15 0 0 0 0 .26c.02.02.05.03.08.03h.07l.42-.24v1.6l-.57.31a.16.16 0 0 0-.05.21.16.16 0 0 0 .13.08c.03 0 .05 0 .08-.02l.41-.23v1.59l-.56.32a.16.16 0 0 0-.06.21.16.16 0 0 0 .13.08c.03 0 .06 0 .08-.02l.41-.24v1.59l-.57.33a.15.15 0 0 0 .07.29l.08-.02.44-.26c.04.58.09 1.16.16 1.72a.16.16 0 0 0 .15.14.15.15 0 0 0 .13-.18c-.07-.6-.13-1.24-.16-1.85l.53-.3a.15.15 0 1 0-.15-.27l-.4.22c0-.53-.02-1.05 0-1.58l.56-.33a.15.15 0 1 0-.15-.26l-.41.23v-1.6l.55-.31a.15.15 0 0 0 .08-.16.15.15 0 0 0-.06-.1.15.15 0 0 0-.17 0l-.42.22v-1.59l.56-.32a.15.15 0 0 0 .06-.21.16.16 0 0 0-.21-.05l-.42.23v-1.6l.56-.32a.15.15 0 0 0-.16-.26l-.41.23v-1.6l.56-.31a.15.15 0 0 0 .05-.22.15.15 0 0 0-.15-.07.15.15 0 0 0-.06.02l-.4.23v-1.63l.6-.32Z" opacity=".4"/><path fill="#FFC727" d="m104.13 93.8-29.62 17.09c-1.04.6-2.55.52-3.31-.24-.76-.77-.44-1.94.6-2.54l29.6-17.09a2.7 2.7 0 0 1 3.17.36c.78.77.6 1.82-.44 2.41Z"/><path fill="#000" d="M65.85 102.1a.2.2 0 0 1-.15-.03.22.22 0 0 1 .04-.38L99.1 82.46a.22.22 0 0 1 .22.37L65.96 102.1a.2.2 0 0 1-.11.01Zm.68 1.81a.23.23 0 0 1-.1-.03.22.22 0 0 1 0-.38l33.35-19.25a.22.22 0 0 1 .3.07c.03.05.03.11.02.17a.22.22 0 0 1-.1.13l-33.35 19.26a.21.21 0 0 1-.12.03Zm.84 1.73a.22.22 0 0 1-.22-.17.22.22 0 0 1 .11-.25l33.37-19.26a.22.22 0 0 1 .22.38L67.47 105.6a.29.29 0 0 1-.1.03Zm1 1.64a.22.22 0 0 1-.21-.27c0-.03.02-.05.03-.08a.22.22 0 0 1 .07-.05l33.36-19.27a.22.22 0 0 1 .22.38l-33.36 19.27a.2.2 0 0 1-.11.02Z" opacity=".4"/><path fill="#FFC727" d="m97.48 75.39 27.46-15.85c1.04-.6 2.7-.95 3.63-.58.93.38.76 1.35-.28 1.95L100.5 76.94c-1.04.6-2.52.67-3.35.22-.83-.45-.72-1.17.32-1.77Z"/><path fill="#000" d="M100.67 79.74a.22.22 0 0 1-.19-.11.22.22 0 0 1-.02-.16c.01-.06.05-.1.1-.14l31.63-18.26a.22.22 0 0 1 .33.16v.09a.22.22 0 0 1-.11.13l-31.64 18.26a.2.2 0 0 1-.1.03Zm1.31 1.42a.22.22 0 0 1-.2-.11.22.22 0 0 1-.01-.17c.01-.06.05-.1.1-.13l31.68-18.29a.2.2 0 0 1 .17-.02l.07.04a.2.2 0 0 1 .06.06c.03.05.03.11.02.17a.22.22 0 0 1-.1.13l-31.69 18.29a.25.25 0 0 1-.1.03Zm5.24 16.18a.15.15 0 0 1-.15-.16V95.5c0-1.26 0-1.26-.03-2.11v-.15a20.3 20.3 0 0 0-1.12-5.72 15.9 15.9 0 0 0-2.85-4.99.15.15 0 0 1-.03-.1c0-.05.02-.09.06-.11a.15.15 0 0 1 .21.02 16.28 16.28 0 0 1 2.9 5.08 20.68 20.68 0 0 1 1.14 5.78v.15c.04.86.04.86.03 2.13v1.75l-.04.05a.16.16 0 0 1-.12.05Z" opacity=".4"/><path fill="#FFC727" d="m106.9 84.1-.45-.72a.5.5 0 0 1-.08-.4.48.48 0 0 1 .24-.31l12.08-6.98a.57.57 0 0 1 .77.18c.15.24.29.49.42.75a.58.58 0 0 1-.23.76l-12.02 6.94a.53.53 0 0 1-.6-.05.53.53 0 0 1-.13-.16Zm1.18 2.81c.09.28.18.55.25.83a.41.41 0 0 0 .6.25l28.69-16.55a.74.74 0 0 0 .33-.8l-.24-.83a.42.42 0 0 0-.64-.24l-28.7 16.56a.7.7 0 0 0-.29.78Z"/><path fill="#fff" d="M108.08 86.91c.09.28.18.55.25.83a.41.41 0 0 0 .6.25l28.69-16.55a.74.74 0 0 0 .33-.8l-.24-.83a.42.42 0 0 0-.64-.24l-28.7 16.56a.7.7 0 0 0-.29.78Z" opacity=".7"/><path fill="#FFC727" d="M108.92 90.72a27.1 27.1 0 0 1 .12 1.07.31.31 0 0 0 .3.16.3.3 0 0 0 .17-.07l19.43-11.21a.94.94 0 0 0 .44-.83l-.1-.89a.34.34 0 0 0-.54-.26L109.31 89.9a.9.9 0 0 0-.4.82Z"/><path fill="#000" d="M108.92 90.72a27.1 27.1 0 0 1 .12 1.07.31.31 0 0 0 .3.16.3.3 0 0 0 .17-.07l19.43-11.21a.94.94 0 0 0 .44-.83l-.1-.89a.34.34 0 0 0-.54-.26L109.31 89.9a.9.9 0 0 0-.4.82Z" opacity=".15"/><path fill="#FFC727" d="M109.08 94.69v.87c0 .3.2.42.47.27l8.31-4.8a1.04 1.04 0 0 0 .47-.82v-.88c0-.3-.2-.41-.47-.27l-8.31 4.8a1.05 1.05 0 0 0-.47.83Z"/><path fill="#fff" d="M109.08 94.69v.87c0 .3.2.42.47.27l8.31-4.8a1.04 1.04 0 0 0 .47-.82v-.88c0-.3-.2-.41-.47-.27l-8.31 4.8a1.05 1.05 0 0 0-.47.83Z" opacity=".5"/><path fill="#000" d="M138.7 80.88a.16.16 0 0 0-.1.04.16.16 0 0 0-.05.11v.75l-2.22 1.28v-.56a.15.15 0 0 0-.05-.1.16.16 0 0 0-.2 0 .15.15 0 0 0-.06.1v.74l-2.21 1.28v-.62a.15.15 0 0 0-.04-.06.15.15 0 0 0-.12-.05l-.06.01a.16.16 0 0 0-.1.17v.73l-2.2 1.27v-.53a.16.16 0 0 0-.05-.11.15.15 0 0 0-.11-.05.15.15 0 0 0-.15.16v.71l-2.22 1.28v-.53a.15.15 0 0 0-.05-.1.15.15 0 0 0-.26.1v.71l-2.22 1.28v-.52a.15.15 0 0 0-.04-.1.16.16 0 0 0-.11-.05.15.15 0 0 0-.11.04.16.16 0 0 0-.03.05l-.02.06v.7l-2.22 1.28v-.51a.16.16 0 0 0-.05-.1.16.16 0 0 0-.1-.03.16.16 0 0 0-.1.03.16.16 0 0 0-.06.1v.68l-2.22 1.29v-.5a.16.16 0 0 0-.26-.1.15.15 0 0 0-.05.1v.67l-2.21 1.28v-.47a.16.16 0 0 0-.26-.1.15.15 0 0 0-.05.1v.67l-2.22 1.28v-.48a.16.16 0 0 0-.05-.1.16.16 0 0 0-.26.1v.66l-2.21 1.28v-.47a.16.16 0 0 0-.06-.1.16.16 0 0 0-.2 0 .16.16 0 0 0-.05.1v.64l-2.22 1.28v-.46a.16.16 0 0 0-.05-.1.16.16 0 0 0-.2 0 .16.16 0 0 0-.06.1v.64l-1.92 1.11a.17.17 0 0 0-.05.04.15.15 0 0 0 .05.23l.08.02c.02 0 .05 0 .07-.02l1.77-1.02v.62c0 .04.03.07.05.1a.16.16 0 0 0 .26-.1v-.8l2.22-1.28v.6c0 .04.02.08.05.1a.16.16 0 0 0 .2 0 .15.15 0 0 0 .06-.1v-.79l2.21-1.28v.61a.2.2 0 0 0 .06.1.16.16 0 0 0 .2 0 .15.15 0 0 0 .05-.1v-.79l2.22-1.27v.6c0 .03.02.06.05.09a.2.2 0 0 0 .1.03.16.16 0 0 0 .16-.13v-.78l2.21-1.28v.59c.01.03.03.07.06.1.03.02.06.03.1.03a.16.16 0 0 0 .16-.13v-.77l2.21-1.28v.58c0 .04.03.07.05.1a.16.16 0 0 0 .2 0 .16.16 0 0 0 .06-.1v-.74l2.22-1.27V90c0 .04.01.08.04.1.03.04.07.05.11.06.02 0 .04 0 .06-.02a.15.15 0 0 0 .08-.08l.01-.06v-.74l2.22-1.28v.55c0 .05.02.08.05.11.03.03.06.05.1.05a.15.15 0 0 0 .16-.16v-.75l2.22-1.28v.55c0 .04.02.08.04.1.03.03.07.05.11.05.04 0 .08-.02.1-.05a.16.16 0 0 0 .06-.1v-.73l2.21-1.28v.54c0 .04.02.07.05.1a.16.16 0 0 0 .2 0 .15.15 0 0 0 .06-.1v-.72l2.22-1.28v.52c0 .04.02.07.05.1.03.02.06.03.1.03a.16.16 0 0 0 .16-.13v-.7l2.21-1.29v.52c0 .04.03.07.06.1a.16.16 0 0 0 .2 0 .16.16 0 0 0 .05-.1v-1.62a.16.16 0 0 0-.04-.1.16.16 0 0 0-.1-.04Z" opacity=".4"/><path fill="#FFC727" d="M114.4 101.21c-.57.13-1.12.35-1.62.65-3.06 1.8-5.55 6.32-5.55 10.08v.29l5.55-2.54 1.62-8.48Z"/><path fill="#FFC727" d="m114.4 101.21-1.62 8.48 5.5-3.19c.03-.34.05-.68.05-1.03 0-3.09-1.66-4.73-3.93-4.26Z"/><path fill="#FFC727" d="M117.58 109.36c.35-.92.58-1.88.7-2.86l-5.5 3.19 4.8-.33Z"/><path fill="#FFC727" d="M107.24 112.22c.12 3.56 2.56 5.04 5.54 3.3 2.07-1.17 3.84-3.58 4.8-6.2l-4.8.34-5.54 2.56Z"/><path fill="#fff" d="m114.4 101.21-1.62 8.48 5.5-3.19c.03-.34.05-.68.05-1.03 0-3.09-1.66-4.73-3.93-4.26Z" opacity=".7"/><path fill="#000" d="M117.58 109.36c.35-.92.58-1.88.7-2.86l-5.5 3.19 4.8-.33Z" opacity=".15"/><path fill="#fff" d="M107.24 112.22c.12 3.56 2.56 5.04 5.54 3.3 2.07-1.17 3.84-3.58 4.8-6.2l-4.8.34-5.54 2.56Z" opacity=".5"/><path fill="#fff" d="M107.24 112.45a.24.24 0 0 1-.12-.04.22.22 0 0 1-.1-.17v-.3c0-3.83 2.54-8.43 5.66-10.26a5.7 5.7 0 0 1 1.67-.68.22.22 0 0 1 .2.06.22.22 0 0 1 .06.2l-1.62 8.48c0 .03-.02.07-.04.1a.22.22 0 0 1-.08.06l-5.54 2.53a.24.24 0 0 1-.1.02Zm6.88-10.94c-.44.13-.85.31-1.24.54-3 1.76-5.43 6.16-5.45 9.84l5.14-2.35 1.55-8.03Z"/><path fill="#fff" d="M112.78 109.9a.21.21 0 0 1-.2-.13.21.21 0 0 1-.02-.12l1.63-8.48c0-.04.02-.08.05-.1a.22.22 0 0 1 .12-.07 3.16 3.16 0 0 1 2.72.58c.95.77 1.48 2.15 1.48 3.9a9.5 9.5 0 0 1-.1 1.14.23.23 0 0 1-.07.07l-5.5 3.19a.24.24 0 0 1-.11.03Zm1.83-8.5-1.5 7.86 4.98-2.9c.03-.3.05-.6.05-.9 0-1.6-.47-2.86-1.31-3.55a2.69 2.69 0 0 0-2.22-.5Z"/><path fill="#fff" d="M112.78 109.9a.21.21 0 0 1-.2-.15.2.2 0 0 1 0-.14.2.2 0 0 1 .09-.1l5.5-3.2a.23.23 0 0 1 .22 0c.04.02.06.05.08.1a.2.2 0 0 1 .02.1c-.11 1-.35 1.97-.7 2.9a.22.22 0 0 1-.19.14l-4.8.33-.02.03Zm5.22-2.99-4.3 2.48 3.72-.25c.27-.72.46-1.47.58-2.23Z"/><path fill="#fff" d="M110.42 116.48c-.53 0-1.04-.12-1.5-.37-1.16-.65-1.84-2.02-1.9-3.87a.21.21 0 0 1 .13-.21l5.54-2.54a.3.3 0 0 1 .07 0l4.8-.33a.2.2 0 0 1 .11.02.2.2 0 0 1 .08.07.2.2 0 0 1 .03.2c-1 2.72-2.9 5.13-4.89 6.3-.75.45-1.6.7-2.47.73Zm-2.96-4.13c.09 1.62.68 2.8 1.65 3.36.98.54 2.22.4 3.55-.37 1.86-1.07 3.59-3.26 4.58-5.76l-4.42.3-5.36 2.47Z"/><path fill="#FFC727" d="M130.64 92.24a13.12 13.12 0 0 0-3.04 7.89c-.04 1.03.2 2.04.7 2.94l4.85-6.15-2.51-4.68Z"/><path fill="#FFC727" d="M135.66 89.33c-.89 0-1.76.24-2.5.72a9.52 9.52 0 0 0-2.52 2.2l2.51 4.67 2.5-7.59Zm2.54 1.77a2.89 2.89 0 0 0-2.54-1.77l-2.5 7.6 5.03-5.82Z"/><path fill="#FFC727" d="m138.2 91.1-5.05 5.82-4.85 6.16c.95 1.55 2.76 1.92 4.85.72 3.07-1.77 5.56-6.28 5.56-10.08a6 6 0 0 0-.52-2.61Z"/><path fill="#fff" d="M135.66 89.33c-.89 0-1.76.24-2.5.72a9.52 9.52 0 0 0-2.52 2.2l2.51 4.67 2.5-7.59Z" opacity=".7"/><path fill="#000" d="M138.2 91.1a2.89 2.89 0 0 0-2.54-1.77l-2.5 7.6 5.03-5.82Z" opacity=".15"/><path fill="#fff" d="m138.2 91.1-5.05 5.82-4.85 6.16c.95 1.55 2.76 1.92 4.85.72 3.07-1.77 5.56-6.28 5.56-10.08a6 6 0 0 0-.52-2.61Z" opacity=".5"/><path fill="#fff" d="M128.3 103.3a.23.23 0 0 1-.18-.12 5.9 5.9 0 0 1-.73-3.05c0-2.65 1.18-5.73 3.1-8.03a.23.23 0 0 1 .18-.07c.04 0 .07.01.1.03.03.02.06.05.07.08l2.51 4.68c.02.03.03.08.03.12 0 .04-.02.08-.05.11l-4.86 6.16a.22.22 0 0 1-.17.08Zm2.3-10.66a12.77 12.77 0 0 0-2.78 7.49c-.03.88.15 1.75.51 2.55l4.55-5.79-2.28-4.25Z"/><path fill="#fff" d="M133.15 97.14a.21.21 0 0 1-.2-.12l-2.5-4.67a.23.23 0 0 1-.03-.13c0-.04.03-.08.05-.12a9.52 9.52 0 0 1 2.57-2.24 4.7 4.7 0 0 1 2.63-.74.21.21 0 0 1 .17.09.2.2 0 0 1 .02.19l-2.5 7.59a.23.23 0 0 1-.07.1.23.23 0 0 1-.12.05h-.02Zm-2.25-4.87 2.2 4.1 2.25-6.82c-.74.06-1.46.3-2.1.69a9.1 9.1 0 0 0-2.35 2.03Z"/><path fill="#fff" d="M133.15 97.14a.2.2 0 0 1-.1-.03.21.21 0 0 1-.1-.26l2.5-7.59a.22.22 0 0 1 .22-.15 3.11 3.11 0 0 1 2.72 1.9.22.22 0 0 1-.04.24l-5.04 5.81a.21.21 0 0 1-.16.08Zm2.66-7.58-2.11 6.4 4.23-4.89a2.67 2.67 0 0 0-2.12-1.5Z"/><path fill="#fff" d="M130.8 104.72a3.04 3.04 0 0 1-2.69-1.53.22.22 0 0 1 0-.25l4.85-6.16 5.05-5.81a.2.2 0 0 1 .2-.08.21.21 0 0 1 .16.12c.38.85.56 1.77.54 2.7 0 3.86-2.54 8.46-5.67 10.27-.73.45-1.58.71-2.45.74Zm-2.23-1.65c.94 1.4 2.6 1.6 4.47.51 3-1.73 5.45-6.17 5.45-9.89a6.1 6.1 0 0 0-.36-2.2l-4.82 5.55-4.74 6.03Z"/><path fill="#FFC727" d="m120.66 97.27.9-.52c.27-.15.48-.03.48.27v.88a1.05 1.05 0 0 1-.47.82l-.91.53c-.26.15-.47.03-.47-.28v-.87a1.03 1.03 0 0 1 .47-.83Zm0 3.93.9-.53c.27-.15.48-.03.48.27v.88a1.04 1.04 0 0 1-.47.82l-.91.53c-.26.15-.47.02-.47-.28v-.88a1.03 1.03 0 0 1 .47-.82Z"/><path fill="#fff" d="m120.66 101.2.9-.53c.27-.15.48-.03.48.27v.88a1.04 1.04 0 0 1-.47.82l-.91.53c-.26.15-.47.02-.47-.28v-.88a1.03 1.03 0 0 1 .47-.82Z" opacity=".7"/><path fill="#FFC727" d="m120.66 105.11.9-.52c.27-.15.48-.03.48.27v.87a1.05 1.05 0 0 1-.47.83l-.91.52c-.26.15-.47.03-.47-.27v-.87a1.03 1.03 0 0 1 .47-.83Z"/><path fill="#000" d="m120.66 105.11.9-.52c.27-.15.48-.03.48.27v.87a1.05 1.05 0 0 1-.47.83l-.91.52c-.26.15-.47.03-.47-.27v-.87a1.03 1.03 0 0 1 .47-.83Z" opacity=".15"/><path fill="#FFC727" d="m120.66 109.03.9-.52c.27-.15.48-.03.48.27v.88a1.05 1.05 0 0 1-.47.82l-.91.53c-.26.15-.47.03-.47-.27v-.88a1.04 1.04 0 0 1 .47-.83Z"/><path fill="#fff" d="m120.66 109.03.9-.52c.27-.15.48-.03.48.27v.88a1.05 1.05 0 0 1-.47.82l-.91.53c-.26.15-.47.03-.47-.27v-.88a1.04 1.04 0 0 1 .47-.83Z" opacity=".5"/><path fill="#000" d="M122.97 97.18a.3.3 0 0 1-.26-.15.31.31 0 0 1-.03-.23.3.3 0 0 1 .14-.19l2.77-1.6a.31.31 0 0 1 .4.14.3.3 0 0 1 .03.21.3.3 0 0 1-.12.2l-2.77 1.6a.33.33 0 0 1-.16.02Zm-.04 3.96a.31.31 0 0 1-.19-.06.31.31 0 0 1-.11-.17.3.3 0 0 1 .15-.35l2.77-1.59a.3.3 0 0 1 .36 0l.09.1.04.12c0 .04 0 .08-.02.13a.3.3 0 0 1-.16.18l-2.78 1.6a.3.3 0 0 1-.15.04Zm-.06 3.96a.31.31 0 0 1-.15-.57l2.77-1.6a.3.3 0 0 1 .41.11.3.3 0 0 1 .03.23.32.32 0 0 1-.14.19l-2.77 1.6a.31.31 0 0 1-.15.04Zm-.02 3.96a.3.3 0 0 1-.3-.38.3.3 0 0 1 .14-.18l2.77-1.6a.3.3 0 0 1 .25-.05l.11.05a.32.32 0 0 1 .12.22.32.32 0 0 1-.07.24.3.3 0 0 1-.1.07l-2.77 1.6a.3.3 0 0 1-.15.03ZM107.58 123a.31.31 0 0 1-.16-.05.3.3 0 0 1-.1-.11.3.3 0 0 1 .11-.41l12.96-7.5a.3.3 0 0 1 .23-.02.3.3 0 0 1 .19.14.3.3 0 0 1-.12.41l-12.96 7.5a.32.32 0 0 1-.15.03Zm.42 1.91a.3.3 0 0 1-.31-.23.3.3 0 0 1 .02-.2.3.3 0 0 1 .13-.14l12.97-7.49a.3.3 0 0 1 .23-.03c.04.02.08.03.1.06a.3.3 0 0 1 .13.2l-.01.12a.31.31 0 0 1-.15.19l-12.96 7.48a.28.28 0 0 1-.16.04Zm.6 1.86a.31.31 0 0 1-.3-.43.31.31 0 0 1 .14-.15l12.96-7.48a.32.32 0 0 1 .24-.05.31.31 0 0 1 .23.4.31.31 0 0 1-.16.18l-12.96 7.49a.3.3 0 0 1-.16.04Zm19.32-15.52a.3.3 0 0 1-.15-.57l12.96-7.48a.3.3 0 0 1 .23-.03c.08.02.14.07.19.14.03.07.04.15.02.23a.31.31 0 0 1-.14.18l-12.96 7.49a.31.31 0 0 1-.15.04Zm.42 1.92a.3.3 0 0 1-.3-.39.3.3 0 0 1 .15-.18l12.96-7.48a.32.32 0 0 1 .23-.03c.08.02.14.07.18.14a.31.31 0 0 1-.11.41l-12.96 7.48a.32.32 0 0 1-.15.05Zm.6 1.85a.3.3 0 0 1-.27-.15.31.31 0 0 1 .11-.41l12.97-7.49a.32.32 0 0 1 .23-.03.31.31 0 0 1 .22.38.32.32 0 0 1-.05.11.31.31 0 0 1-.1.08l-12.97 7.47a.3.3 0 0 1-.14.04Z" opacity=".4"/><path fill="#FFC727" d="m112.15 128.87 29.56-17.06a2.28 2.28 0 0 1 2.95.53c.64.86.38 2-.66 2.6L114.43 132c-1.04.6-2.48.44-3.1-.41-.63-.86-.22-2.12.82-2.72Z"/><path fill="#000" d="M117.03 137.23a.32.32 0 0 1-.27-.15.31.31 0 0 1 .12-.41l12.95-7.5a.31.31 0 0 1 .42.11c.03.07.04.15.02.23a.31.31 0 0 1-.14.18l-12.96 7.49a.3.3 0 0 1-.14.05Zm-1.63-1.14a.3.3 0 0 1-.15-.58l12.96-7.48a.31.31 0 0 1 .41.11.31.31 0 0 1-.1.42l-12.96 7.48a.3.3 0 0 1-.16.05Zm3.34 2.15a.31.31 0 0 1-.26-.16.3.3 0 0 1 .1-.41l12.98-7.49a.31.31 0 0 1 .41.11c.04.07.05.16.03.23a.31.31 0 0 1-.15.19l-12.96 7.48a.35.35 0 0 1-.15.05Zm16.79-11.69a.3.3 0 0 1-.15-.58l12.96-7.48a.31.31 0 0 1 .24-.03.3.3 0 0 1 .18.15.31.31 0 0 1-.11.42l-12.96 7.48a.29.29 0 0 1-.16.04Zm-1.62-1.15a.31.31 0 0 1-.16-.57l12.97-7.48a.3.3 0 0 1 .41.11.3.3 0 0 1 .03.23.3.3 0 0 1-.14.19l-12.96 7.48a.35.35 0 0 1-.15.04Zm3.33 2.16a.3.3 0 0 1-.15-.57l12.96-7.48a.3.3 0 0 1 .48.22.3.3 0 0 1-.08.24.32.32 0 0 1-.1.08l-12.96 7.47a.32.32 0 0 1-.15.04Z" opacity=".4"/><path fill="#FFC727" d="M137.43 136.88c-2.81-1.62-7.58-1.5-10.65.27-3.07 1.77-3.27 4.52-.46 6.14 2.82 1.63 7.58 1.51 10.65-.25 3.07-1.78 3.27-4.53.46-6.16Zm-1.91 5.31c-2.2 1.27-5.6 1.35-7.61.2-2.01-1.17-1.86-3.14.33-4.4 2.19-1.27 5.6-1.35 7.6-.19 2.02 1.16 1.87 3.13-.32 4.4Z"/><path fill="#FFC727" d="M129.7 138.83a5.01 5.01 0 0 1 4.56-.12c1.2.72 1.12 1.88-.2 2.64-1.31.76-3.36.83-4.55.11-1.18-.71-1.13-1.87.18-2.63Z"/><path fill="#000" d="M129.7 138.83a5.01 5.01 0 0 1 4.56-.12c1.2.72 1.12 1.88-.2 2.64-1.31.76-3.36.83-4.55.11-1.18-.71-1.13-1.87.18-2.63Z" opacity=".5"/><path fill="#000" d="M137.43 136.88c-2.81-1.62-7.58-1.5-10.65.27-3.07 1.77-3.27 4.52-.46 6.14 2.82 1.63 7.58 1.51 10.65-.25 3.07-1.78 3.27-4.53.46-6.16Zm-1.91 5.31c-2.2 1.27-5.6 1.35-7.61.2-2.01-1.17-1.86-3.14.33-4.4 2.19-1.27 5.6-1.35 7.6-.19 2.02 1.16 1.87 3.13-.32 4.4Z" opacity=".15"/><path fill="#FFC727" d="m129.62 136.07.64 1.15a9.16 9.16 0 0 1 3.78-.07l.86-1.18c-1.75-.33-3.54-.3-5.28.1Z"/><path fill="#fff" d="m129.62 136.07.64 1.15a9.16 9.16 0 0 1 3.78-.07l.86-1.18c-1.75-.33-3.54-.3-5.28.1Z" opacity=".7"/><path fill="#000" d="M132.26 135.5a.3.3 0 0 1-.29-.33l.09-1.41 5.7-3.3a.31.31 0 0 1 .45.34.31.31 0 0 1-.14.19l-5.44 3.14-.06 1.08a.3.3 0 0 1-.1.2.3.3 0 0 1-.2.09Z" opacity=".4"/><path fill="#FFC727" d="M154.1 127.27c-2.82-1.62-7.59-1.5-10.66.27-3.07 1.77-3.27 4.52-.46 6.14 2.82 1.63 7.59 1.51 10.66-.26 3.06-1.77 3.27-4.52.45-6.15Zm-1.92 5.31c-2.2 1.26-5.6 1.35-7.61.19-2.01-1.16-1.86-3.13.33-4.4 2.2-1.26 5.6-1.34 7.6-.18 2.02 1.16 1.87 3.13-.32 4.39Z"/><path fill="#FFC727" d="M146.35 129.22a4.97 4.97 0 0 1 4.55-.12c1.2.71 1.12 1.88-.2 2.64-1.31.76-3.35.83-4.54.11-1.2-.71-1.12-1.85.2-2.63Z"/><path fill="#000" d="M146.35 129.22a4.97 4.97 0 0 1 4.55-.12c1.2.71 1.12 1.88-.2 2.64-1.31.76-3.35.83-4.54.11-1.2-.71-1.12-1.85.2-2.63Z" opacity=".5"/><path fill="#000" d="M154.1 127.27c-2.82-1.62-7.59-1.5-10.66.27-3.07 1.77-3.27 4.52-.46 6.14 2.82 1.63 7.59 1.51 10.66-.26 3.06-1.77 3.27-4.52.45-6.15Zm-1.92 5.31c-2.2 1.26-5.6 1.35-7.61.19-2.01-1.16-1.86-3.13.33-4.4 2.2-1.26 5.6-1.34 7.6-.18 2.02 1.16 1.87 3.13-.32 4.39Z" opacity=".15"/><path fill="#FFC727" d="M154.1 127.27c-2.38-1.37-6.15-1.5-9.1-.43l1.02 1.03c2.11-.75 4.8-.66 6.5.32.29.16.55.36.78.6l1.9-.69c-.33-.32-.7-.6-1.1-.83Z"/><path fill="#fff" d="M154.1 127.27c-2.38-1.37-6.15-1.5-9.1-.43l1.02 1.03c2.11-.75 4.8-.66 6.5.32.29.16.55.36.78.6l1.9-.69c-.33-.32-.7-.6-1.1-.83Z" opacity=".7"/><path fill="#000" d="M148.97 125.86h-.02a.3.3 0 0 1-.29-.32l.09-1.42 5.7-3.29a.31.31 0 0 1 .3.53l-5.42 3.12-.06 1.09c0 .08-.04.15-.1.2a.3.3 0 0 1-.2.1Zm-14.93 21.21a.3.3 0 0 1-.2-.06.3.3 0 0 1-.1-.37.3.3 0 0 1 .14-.15l31.47-18.15a.31.31 0 0 1 .23-.03.3.3 0 0 1 .07.57l-31.48 18.15a.35.35 0 0 1-.13.04Zm1.68.97a.31.31 0 0 1-.15-.57l31.48-18.16a.3.3 0 0 1 .36 0 .3.3 0 0 1 .11.34.31.31 0 0 1-.16.19L135.88 148a.32.32 0 0 1-.16.04Zm1.7.97a.31.31 0 0 1-.27-.16.3.3 0 0 1 .12-.4l31.5-18.16a.3.3 0 0 1 .42.11.3.3 0 0 1-.12.42l-31.48 18.17a.35.35 0 0 1-.17.02Z" opacity=".4"/></svg>