<svg xmlns="http://www.w3.org/2000/svg" width="191" height="148" fill="none"><path fill="#AD6359" d="M58.29 67.24c5.52 24.02 16.94 52.82 21.81 57.5 6.17 5.9 46.96 16.74 49 16.96 5.02.51 15.13-35.76 9.76-36.54-8.15-1.18-37.86-2.8-39.64-4.62-1.77-1.82-14.38-17.72-27.27-35.58-8.9-12.34-17.1-12.62-13.66 2.28Z"/><path fill="#AD6359" d="M125.06 139.74c.6.3 9.12 4.6 14.39 6.12 3.93 1.14 15.34 4.12 17.02-.09 1.16-2.86-5.35-5.4-9.9-7.3-2.4-1-5.37-3.51-4.66-5.06 1.26-2.7 7.42 0 11.49 2.38 7.86 4.56 18.33 12.79 23.13 8.78 1.81-1.5-.3-4.25-3.38-6.95 5.02 3.14 10.34 5.71 12.42 4.12 1.2-.91 1.25-2.16.59-3.58 1.54.5 2.9.4 3.86-.62 1.62-1.71.83-4.22-.95-6.8a1.91 1.91 0 0 0 1.48-.96c3.44-5.25-13.8-20.33-19.76-21.74-17.53-4.17-36.01-3.4-36.01-3.4-6.89 5.53-9.74 35.1-9.72 35.1Z"/><path fill="#263238" d="M150.84 123.6c4.17.66 8.16 2.19 11.7 4.5 4.45 2.94 7.4 6.38 11.12 9.83a.1.1 0 0 1 .02.07.1.1 0 0 1-.09.1.1.1 0 0 1-.07-.01 262.86 262.86 0 0 0-11.04-9.24 28.4 28.4 0 0 0-11.64-5.18c-.06 0-.04-.08 0-.07Zm3.26-7.44c4.62 1.25 9.34 2.5 13.62 4.71 4.68 2.39 8.34 6.28 11.92 10.04 2.17 2.25 4.28 4.55 6.34 6.9.08.1-.05.26-.14.16a288.32 288.32 0 0 0-11.29-11.3 37.53 37.53 0 0 0-12.42-7.82c-2.63-1.01-5.34-1.8-8.05-2.61-.04-.01-.02-.1.03-.08Zm4.93-6.51c4.48.92 8.39 1.7 12.35 4.1 5.26 3.19 10.32 8.54 12.1 10.44 1.96 2.1 3.86 4.25 5.72 6.44.07.09-.08.22-.16.14-4.26-4.8-8.82-9.32-13.66-13.53a29.76 29.76 0 0 0-7.64-4.97 53.07 53.07 0 0 0-8.71-2.59s-.03-.04 0-.03Z"/><path fill="#FFC727" d="m131.96 103.2-12.55 39.75s-33.97-9.7-40.15-16.4c-6.18-6.69-17.66-41.25-21.03-58-3.37-16.76 5.1-16.32 12.88-5.79C78.9 73.3 98.28 98.93 99.34 99.5c1.06.56 32.62 3.71 32.62 3.71Z"/><path fill="#000" d="m131.96 103.2-12.55 39.75s-33.97-9.7-40.15-16.4c-6.18-6.69-17.66-41.25-21.03-58-3.37-16.76 5.1-16.32 12.88-5.79C78.9 73.3 98.28 98.93 99.34 99.5c1.06.56 32.62 3.71 32.62 3.71Z" opacity=".1"/><path fill="#263238" d="M116.15 125.3c1.52-4.7 3.08-9.37 4.42-14.11.77-2.7 1.54-5.39 2.29-8.09.03-.1-.14-.16-.18-.06-1.71 4.64-3.42 9.3-4.92 14.02-1.5 4.72-3.02 9.41-4.45 14.1-.81 2.68-1.55 5.38-2.2 8.1 0 .06.08.09.1.04 1.87-4.59 3.4-9.3 4.94-14Zm-13.87 12.19-1.5-.53a201.66 201.66 0 0 1-11.1-4.32l-.78-.35-.29-.12-.81-.38c-1.08-.5-2.1-1-3.06-1.5l-.62-.34a23.64 23.64 0 0 1-4.54-3.08l-.31-.31c-6.21-6.7-17.67-41.26-21.04-58.02l-.11-.57v-.13a58.21 58.21 0 0 1-.59-4.55c-.47-8.34 3.48-9.7 8.35-6.04 12.15 26.08 30.76 69.17 36.4 80.24Z"/><path fill="#EBEBEB" d="m84.66 144.16-74.03.39c.06-1.6 10.6-48.2 18.98-65.4 10.75-22.06 16.31-23.84 19.6-25.02 4.23-1.52 11.77-.77 13.56.08 2.03.95 8.5 12.22 10.8 20.5 4.64 16.64 12.13 68.44 11.09 69.45Z"/><path fill="#FFC727" d="M45.41 55.87s9.41 34.85 9.88 37.16c.71 3.37 5.4 51.34 5.4 51.34l-51.6.18s11.27-44.42 19.65-63.86C37.88 59.36 45.4 55.87 45.4 55.87Z"/><path fill="#000" d="M45.41 55.87s9.41 34.85 9.88 37.16c.71 3.37 5.4 51.34 5.4 51.34l-51.6.18s11.27-44.42 19.65-63.86C37.88 59.36 45.4 55.87 45.4 55.87Z" opacity=".1"/><path fill="#FFC727" d="M63.45 54.75c.27 1.1 8.95 29.42 9.55 36.48.67 7.83 6.6 53.32 6.6 53.32h7.53s-10.9-65.36-13.88-72.27c-6.13-14.1-9.8-17.53-9.8-17.53Z"/><path fill="#000" d="M63.45 54.75c.27 1.1 8.95 29.42 9.55 36.48.67 7.83 6.6 53.32 6.6 53.32h7.53s-10.9-65.36-13.88-72.27c-6.13-14.1-9.8-17.53-9.8-17.53Z" opacity=".1"/><path fill="#AD6359" d="M35.67 64.02C23.27 77.3-6.86 127.69 2.7 136.88c9.56 9.19 62.63-3.18 77.54-10.3 4.44-2.1-12.41-29.75-17.63-30.4-4.34-.53-26.52 9.61-27.17 8.34-.72-1.44 2.8-12.09 8.16-31.37 6.14-22.22-2.45-15-7.93-9.13Zm48.97 23.24c10.78-1.5 13.8-.23 22.2-6.33 5.53-4 10.46-2.19 7.3 4.17-5.15 10.4-18.65 15.25-23.83 15.6l-5.67-13.44Z"/><path fill="#AD6359" d="M56.01 97.63s12.12-6.73 23.45-9.46c7.82-1.89 25.33-4.11 42.08 13.17 3.97 4.1 6.72 12.75-2.2 8.42-6.33-3.08-9.4-6.95-13.42-8.07 0 0 2.2 11.42-2.07 15.25-3.72 3.33-7.68 6.4-11.84 9.18a21.68 21.68 0 0 1-1.92-2.06s-4.31 3.2-12.43 2.42L56.01 97.63Z"/><path fill="#AD6359" d="M87.22 87.59c3.77 1.95 11.61 6.22 16.83 11.96 5.8 6.37 15.26 20.2 10.51 24.46-3.47 3.1-7.53-1.88-7.53-1.88s2.7 6.54-1.05 8.66c-3.42 1.93-6.34-2.1-6.34-2.1s.96 4.25-2.7 5.47c-4.4 1.47-5.68-7.68-11.42-10.04-1.32-.56 1.7-36.53 1.7-36.53Z"/><path fill="#263238" d="M96.3 104.53c3.22 2.41 9.13 9.77 10.77 17.4.03.17-.07.29-.14.14a84.6 84.6 0 0 0-10.67-17.49c-.05-.05 0-.05.05-.05Zm-6.25 6.04c2.56 2.37 8.31 10.22 9.7 18 .03.18-.09.3-.14.14a90.68 90.68 0 0 0-9.62-18.1c-.04-.03 0-.07.06-.04Zm15.87-8.96c3.51 1.04 5.8 2.77 8.78 4.82 1.45 1.04 2.96 2 4.52 2.87 1.43.77 3.55 1.94 5.06.73.86-.67.85-1.88.63-2.87a14.09 14.09 0 0 0-1.93-4c0-.05.04-.1.08-.06.82 1.12 1.53 2.3 2.1 3.57.39.86.5 1.81.33 2.74-.52 1.93-2.8 2.19-4.4 1.65-.95-.35-1.88-.8-2.75-1.33a44.74 44.74 0 0 1-2.51-1.57c-1.67-1.13-3.27-2.35-4.93-3.5a45.42 45.42 0 0 0-5.05-2.96v-.04l.03-.03.04-.02Z"/><path fill="#263238" d="M113.28 113.97c-.91-2-5.84-10.34-7.43-12.27v-.06l.04-.02h.03c2.74 2.6 7.14 9.5 8.15 11.7 1.02 2.22 2.19 4.98 2.19 7.41 0 3.67-2.44 4.4-3.34 4.55-1.07.2-2.18.01-3.13-.52a9.56 9.56 0 0 1-2.84-2.66c-.04-.05.03-.11.08-.06 1.25 1.44 3.39 2.87 5.37 2.6a3.32 3.32 0 0 0 2.27-1.22c.55-.88.76-1.93.6-2.95-.3-2.26-.97-4.46-2-6.5Z"/><path fill="#FFC727" d="m56.01 97.63 17 35.75c-.01 0-66.46 14.92-72.19 3.35-5.73-11.56 20.07-56.83 31.7-70.02C46 51.43 47.72 56.63 44.75 70.17c-3.13 14.18-9.11 34.68-9.11 34.68L56 97.63Z"/><path fill="#000" d="m56.01 97.63 17 35.75c-.01 0-66.46 14.92-72.19 3.35-5.73-11.56 20.07-56.83 31.7-70.02C46 51.43 47.72 56.63 44.75 70.17c-3.13 14.18-9.11 34.68-9.11 34.68L56 97.63Z" opacity=".1"/><path fill="#263238" d="M15.44 114.37a74.95 74.95 0 0 1 19.97-9.84c2.01-.63 4.05-1.23 6.08-1.81.06 0 .09.08 0 .1a95.74 95.74 0 0 0-10.4 4.05c-3.4 1.5-6.74 3.07-10.04 4.7-1.89.92-3.72 1.93-5.56 2.92l-.04-.02-.02-.03v-.04l.01-.03Z"/><path fill="#263238" d="M55.84 97.53c-.34.09-18.5 6.1-19.1 6.37.07-.28 3.33-9.94 3.82-11.36l.14-.42a66.72 66.72 0 0 0 2.13-4.38h-.04l-1.25 2.42c-.2.37-.38.75-.56 1.14l.94-3.02c.49-1.6.93-3.21 1.36-4.83 0-.06-.06-.07-.08 0-.97 2.81-2.02 5.6-3 8.42-.97 2.81-4.7 13.17-4.68 13.17a5459.92 5459.92 0 0 0 20.46-7.25.15.15 0 0 0 .05-.1.15.15 0 0 0-.03-.11.15.15 0 0 0-.16-.05Zm1.22 23.31c-1.88-3.99-3.7-8-5.72-11.92-1.15-2.23-2.28-4.46-3.45-6.68-.05-.08-.2 0-.16.07a295 295 0 0 0 5.36 12.17c1.9 4 3.76 7.96 5.7 11.91 1.1 2.25 2.28 4.46 3.52 6.64 0 .04.1 0 .08 0a177.76 177.76 0 0 0-5.33-12.2Z"/><path fill="#263238" d="M73.86 133.94c-.67-1.1-1.5-2.69-2.21-3.77-.2-.28-.41-.22-.26.07.5 1 .93 2.13 1.42 3.14-.93.19-1.88.35-2.8.54l-3.23.68-6.34 1.25c-4.3.8-8.6 1.5-12.93 2.11a253.68 253.68 0 0 1-26.13 2.46c-2.45.08-4.9.13-7.35.1a70.9 70.9 0 0 1-7.23-.36c-.06 0-.08.11 0 .12 2.07.44 4.17.71 6.28.82 2.21.1 4.43.16 6.65.13 4.4-.05 8.83-.34 13.23-.74a315.7 315.7 0 0 0 36.9-5.63c1.21-.27 4.11-.74 4-.93Z"/><path fill="#AD6359" d="M63.46 67.75c-4.4 1.21-12.25-5.28-15.47-10.66-.21-.37.22-4.36.51-9.24.17-2.95.29-6.27.17-9.27 0-.63 19.1 3.9 19.1 3.9s-1.64 6.39-1.41 11.65a6.9 6.9 0 0 0 .21 1.45c.47 2.33 1.14 11-3.11 12.17Z"/><path fill="#263238" d="M49.84 38.66c1.07 5.07 4.7 17.27 14.8 17.12a12 12 0 0 0 1.92-.17.9.9 0 0 0 0-.21 8.75 8.75 0 0 1-.18-1.25c-.22-5.27 1.4-11.66 1.4-11.66s-13.8-3.26-17.94-3.83Z"/><path fill="#455A64" d="M70.04 29.53c-.21 4.63 2.91 8.53 6.98 8.72 4.06.19 7.52-3.43 7.73-8.06.2-4.63-2.92-8.53-6.98-8.71-4.05-.18-7.52 3.42-7.73 8.05Z"/><path fill="#C7C7C7" d="M84 30.45c.24-5.15-3.24-9.5-7.76-9.7-4.52-.2-8.37 3.8-8.6 8.96-.24 5.15 3.24 9.49 7.76 9.7 4.52.2 8.37-3.81 8.6-8.96Z"/><path fill="#AD6359" d="M51.16 14.56c-3.28 6.2-3.5 25.9.37 31.06 5.6 7.47 16.61 10.2 23.4 3.07 6.6-6.93 6.42-32.62 1.93-37.5-6.59-7.19-20.84-5.78-25.7 3.37Z"/><path fill="#263238" d="M67.55 29.8c0-.06-.1.06-.1.12.07 1.32-.07 2.85-1.26 3.32-.03 0-.03.08 0 .07 1.47-.24 1.63-2.27 1.36-3.52Z"/><path fill="#263238" d="M66.33 28.44c-2.14-.12-2.2 4.17-.23 4.27 1.98.1 2.03-4.18.23-4.27Zm8.65 1.52c0-.05.1.06.1.11-.07 1.33.08 2.87 1.25 3.32.04 0 0 .08 0 .08-1.45-.23-1.63-2.27-1.35-3.51Z"/><path fill="#263238" d="M76.19 28.62c2.13-.13 2.23 4.15.25 4.27-1.98.12-2.05-4.2-.25-4.27Zm-11.78-3.61c.63-.03 1.15-.16 1.75-.25a2.84 2.84 0 0 0 1.72-.63.9.9 0 0 0 .06-1.1 2.24 2.24 0 0 0-2.17-.63 3.3 3.3 0 0 0-2.14 1.04.97.97 0 0 0 .77 1.56Zm13.79.47a14.8 14.8 0 0 1-1.7-.47 2.83 2.83 0 0 1-1.63-.78.9.9 0 0 1 .07-1.1 2.26 2.26 0 0 1 2.24-.39c.8.17 1.52.63 2 1.3a.97.97 0 0 1-.98 1.44ZM65.13 42.1c.31.3.63.74 1.1.8a3.56 3.56 0 0 0 1.46-.32l.02.01a.05.05 0 0 1 0 .06 1.78 1.78 0 0 1-1.69.7 1.42 1.42 0 0 1-1.02-1.2c-.02-.07.08-.1.13-.06Zm1.46-3.96a4.51 4.51 0 0 0 2.98 2.06 5.64 5.64 0 0 0 1.94.08l.29-.05a.33.33 0 0 0 .27-.29v-.25c.05-1.03 0-2.58 0-2.58.37.2 2.27 1.08 2.24.55-.19-4.43-.4-9.35-1.52-13.7a.12.12 0 0 0-.2-.08.12.12 0 0 0-.05.07c0 4.26.78 8.49.86 12.77a8.07 8.07 0 0 0-2.12-.69c-.14.05.2 3 .14 3.47v.05c-1.73.19-3.01-.35-4.66-1.53-.15-.07-.25 0-.17.12Z"/><path fill="#263238" d="M70.6 39.77a5.33 5.33 0 0 1-2.17 1.63c-.47.18-.99.2-1.47.07-1.05-.3-1.07-1.25-.86-2.1.12-.43.28-.86.5-1.25a6.95 6.95 0 0 0 4 1.65Z"/><path fill="#FF98B9" d="M68.43 41.4c-.47.18-.99.2-1.47.07-1.05-.3-1.07-1.25-.86-2.1 1.14.14 2.25.93 2.33 2.03Z"/><path fill="#263238" d="M48.7 28.48c1.29-.21 4.39-4.58 5.7-6.32 1.31-1.74 2.07-11.06 2.19-13.18a13.96 13.96 0 0 0-5.43 5.56c-1.47 2.79-2.32 8.26-2.46 13.94Z" opacity=".2"/><path fill="#263238" d="M72.62 16.7a6.67 6.67 0 0 1-6.16 2.06 6.8 6.8 0 0 1-5.1-4.22c0-.07-.13-.03-.1.03a6.72 6.72 0 0 0 5.1 4.73 6.86 6.86 0 0 0 6.38-2.51.08.08 0 0 0-.08-.1l-.04.01ZM66.24 0c-3.87-.04-7.48 2-8.98 4.57a7.49 7.49 0 0 0-.88 4.86c0 .07.15.06.14 0a8.21 8.21 0 0 1 4.11-7.3 10.6 10.6 0 0 1 9.41-.82 6.65 6.65 0 0 1 3.5 3c.08.14.36.06.3-.09-.97-2.46-4.1-4.19-7.6-4.22Zm22.18 9.1a8.55 8.55 0 0 0-3.49-4.7c-2.33-1.55-5.02-1.42-7.68-1.23a.06.06 0 1 0 0 .11c2.27-.15 4.59-.17 6.63.96 1.7.92 3.04 2.4 3.77 4.2a8.15 8.15 0 0 1-3.7 10.04 8.3 8.3 0 0 1-6.56.45c-.1-.03-.16.1-.07.13a8.35 8.35 0 0 0 11.11-9.97h-.01Z"/><path fill="#263238" d="M49.76 18.36s-3.42-7.05-.2-10.94c1.81-2.2 7.57-1.7 7.57-1.7s1.98-3.24 6.8-4.16c4.81-.93 10.5 2.1 10.5 2.1s4.67-2.46 8.88.15c5.86 3.64 4.78 12.73-1.35 15.44-4.3 1.88-9.91-2.05-9.91-2.05-.56.06-6.35 3.26-10.44-1.94 0 0-3.58 2.96-6.63.68a5.02 5.02 0 0 1-5.22 2.42Z"/><path fill="#AD6359" d="M52.23 30.86s-3.26-6.9-6.32-5.87c-3.07 1.03-1.37 10.57 1.7 12.37a3.4 3.4 0 0 0 4.8-1.02l-.18-5.48Z"/><path fill="#263238" d="M46.46 27.7c-.05 0-.08.07 0 .1 2.14 1.32 2.99 3.67 3.45 6.04-.53-.97-1.39-1.6-2.67-.99a.08.08 0 0 0 .04.14 2.1 2.1 0 0 1 2.15 1.11c.32.65.58 1.32.76 2.02.08.23.47.18.43-.07v-.06c.52-2.93-1.05-7.44-4.16-8.29Z"/><path fill="#C7C7C7" d="m59.32 44.75-6.17-2.66-4.97-6.19.95-.77 4.78 5.95 5.9 2.55-.49 1.12Z"/><path fill="#37474F" d="M58.67 43.77c.62-1.8 5.64-1.14 4.73 1.59-.9 2.72-5.34.2-4.73-1.6Z"/><path fill="#C7C7C7" d="M45.81 24.8s-.67-10.12 2.3-15.68C51.4 2.9 65.07-3.02 74.44 3.66c0 0-15.23-2.72-22.32 5.9-2.99 3.63-2.91 15.52-2.91 15.52l-3.4-.28Z"/><path fill="#C7C7C7" d="M47.2 39.33c4.52-.04 8.14-4.26 8.1-9.41-.06-5.16-3.77-9.3-8.3-9.26-4.52.05-8.14 4.26-8.1 9.42.06 5.15 3.77 9.3 8.3 9.25Z"/><path fill="#455A64" d="M52.9 29.65c.05 4.63-3.21 8.42-7.28 8.46-4.06.04-7.4-3.68-7.44-8.32-.05-4.63 3.21-8.42 7.27-8.46 4.07-.04 7.4 3.68 7.45 8.32Z"/><path fill="#EBEBEB" d="m66.5 55.27-4.43 11.16L48.16 52.4l-3.9 4.54S57.9 79.28 57.98 78.27l4.55-9.63 6.66 6.65-.62-16.77-2.07-3.25Z"/><path fill="#263238" d="M69.36 66.98c-.2-2.77-.31-5.56-.63-8.31 0-.1-.16-.14-.19 0-.54 2.68.26 13.25.26 15.79h-.03c-.28-.29-6.18-5.85-6.23-5.77-.99 1.53-4.33 8.54-4.56 9.18-2.16-3.55-11.29-17.53-13.86-20.89a.1.1 0 0 0-.13-.03.1.1 0 0 0-.04.12c1.89 3.77 13.74 22.22 13.9 22.17a105.9 105.9 0 0 0 4.77-10.18c1 1.21 6.94 7.5 6.96 7.09.09-3.06.01-6.12-.22-9.17Z"/></svg>