<svg width="40" height="39" viewBox="0 0 40 39" fill="none" xmlns="http://www.w3.org/2000/svg">
<path d="M37.3653 6.24221L32.1922 1.07399C31.5608 0.442538 30.7156 0.0879517 29.8219 0.0879517C28.9281 0.0879517 28.0829 0.437681 27.4515 1.07399L21.8801 6.63566C21.2486 7.26711 20.8941 8.11715 20.8941 9.0109C20.8941 9.90951 21.2438 10.7498 21.8801 11.3861L26.2323 15.7432C25.2408 18.0533 23.8163 20.1522 22.0355 21.9266C20.2529 23.7189 18.1691 25.1324 15.857 26.133L11.5048 21.776C10.8733 21.1446 10.0282 20.79 9.13441 20.79C8.69358 20.7883 8.25685 20.8747 7.84982 21.044C7.44279 21.2133 7.07365 21.4622 6.76403 21.776L1.18779 27.3377C0.556338 27.9691 0.201752 28.8192 0.201752 29.7129C0.201752 30.6115 0.551481 31.4518 1.18779 32.0882L6.35601 37.2564C7.43434 38.3347 8.92069 38.9516 10.4459 38.9516C10.7616 38.9516 11.0676 38.9273 11.3785 38.8739C17.8096 37.815 24.1922 34.3905 29.3458 29.2418C34.4946 24.0832 37.9142 17.7007 38.9828 11.2647C39.2888 9.43835 38.6768 7.55855 37.3653 6.24221V6.24221ZM35.539 10.6867C34.5918 16.4135 31.5122 22.1257 26.8734 26.7645C22.2347 31.4033 16.5273 34.4828 10.8005 35.43C10.0816 35.5514 9.34328 35.3086 8.81869 34.7888L3.74276 29.7129L9.1247 24.3261L14.9438 30.1549L14.9875 30.1987L16.0367 29.8101C19.2179 28.6404 22.1068 26.7931 24.503 24.396C26.8993 21.9989 28.7456 19.1094 29.9141 15.9278L30.3027 14.8786L24.4351 9.01576L29.817 3.62896L34.8929 8.70489C35.4175 9.22948 35.6604 9.9678 35.539 10.6867Z" fill="white"/>
</svg>
