<svg width="40" height="39" viewBox="0 0 40 39" fill="none" xmlns="http://www.w3.org/2000/svg">
<path d="M34.6648 7.42334H5.51711C4.87291 7.42334 4.25509 7.67925 3.79957 8.13477C3.34404 8.59029 3.08813 9.20811 3.08813 9.85232V29.2841C3.08813 29.9283 3.34404 30.5462 3.79957 31.0017C4.25509 31.4572 4.87291 31.7131 5.51711 31.7131H34.6648C35.309 31.7131 35.9269 31.4572 36.3824 31.0017C36.8379 30.5462 37.0938 29.9283 37.0938 29.2841V9.85232C37.0938 9.20811 36.8379 8.59029 36.3824 8.13477C35.9269 7.67925 35.309 7.42334 34.6648 7.42334ZM31.993 9.85232L20.091 18.0865L8.18899 9.85232H31.993ZM5.51711 29.2841V10.9575L19.3987 20.5641C19.602 20.7051 19.8435 20.7807 20.091 20.7807C20.3384 20.7807 20.5799 20.7051 20.7832 20.5641L34.6648 10.9575V29.2841H5.51711Z" fill="white"/>
</svg>
