<svg width="40" height="40" viewBox="0 0 40 40" fill="none" xmlns="http://www.w3.org/2000/svg">
<path d="M20.0915 28.1877L21.7108 24.9491V16.6226C24.4977 15.8987 26.5688 13.3839 26.5688 10.3752C26.5688 6.80301 23.6637 3.89795 20.0915 3.89795C16.5193 3.89795 13.6143 6.80301 13.6143 10.3752C13.6143 13.3839 15.6854 15.8987 18.4722 16.6226V24.9491L20.0915 28.1877Z" fill="white"/>
<path d="M27.0013 17.7638L26.1382 20.8859C30.3338 22.0453 33.0462 24.2751 33.0462 26.5681C33.0462 29.6318 27.7267 33.0453 20.0916 33.0453C12.4565 33.0453 7.13707 29.6318 7.13707 26.5681C7.13707 24.2751 9.84943 22.0453 14.0467 20.8843L13.1836 17.7622C7.45608 19.3459 3.89844 22.7189 3.89844 26.5681C3.89844 32.0154 11.0121 36.284 20.0916 36.284C29.1711 36.284 36.2848 32.0154 36.2848 26.5681C36.2848 22.7189 32.7272 19.3459 27.0013 17.7638Z" fill="white"/>
</svg>
