<svg xmlns="http://www.w3.org/2000/svg" fill="none" viewBox="0 0 485 185"><path fill="#fff" d="m1 73.2 10.1-1c.6 3.4 1.8 5.8 3.7 7.4 1.9 1.6 4.4 2.4 7.6 2.4 3.3 0 5.8-.7 7.5-2.1 1.7-1.4 2.6-3 2.6-5a5 5 0 0 0-1-3c-.8-.9-2-1.6-3.8-2.2-1.2-.5-4-1.2-8.4-2.3-5.5-1.3-9.5-3-11.7-5A13.2 13.2 0 0 1 5 45a14 14 0 0 1 6.4-5.2c2.8-1.1 6.2-1.7 10.2-1.7 6.4 0 11.3 1.4 14.6 4.2 3.3 2.8 5 6.5 5.1 11.2l-10.4.4c-.4-2.6-1.4-4.5-2.9-5.6-1.4-1.2-3.6-1.7-6.5-1.7-3 0-5.4.6-7.2 1.8a3.7 3.7 0 0 0-1.6 3.2c0 1.2.5 2.2 1.5 3a28 28 0 0 0 9.6 3.5c5 1.1 8.8 2.4 11.2 3.6 2.5 1.3 4.4 3 5.7 5.2C42.2 69 43 71.7 43 75a14.8 14.8 0 0 1-9.4 13.9c-3 1.2-6.8 1.8-11.2 1.8-6.6 0-11.6-1.4-15-4.4a19 19 0 0 1-6.3-13Zm57.6 16.5L46.8 53h9.6l7 24.1L69.8 53h9.5l6.3 24 7.1-24h9.8l-12 36.8H81L74.5 66l-6.3 23.7h-9.6Zm49.1-41.8v-9h9.9v9h-9.9Zm0 41.8V53h9.9v36.8h-9.9ZM145 52.9v7.7h-7v14.9c0 3 .1 4.8.2 5.3.2.5.5.9 1 1.2.4.3 1 .5 1.6.5 1 0 2.2-.3 4-1l.8 7.6c-2.3 1-4.9 1.5-7.8 1.5a12 12 0 0 1-4.8-.9 7.3 7.3 0 0 1-3.2-2.3c-.6-1-1.1-2.2-1.4-3.8-.2-1.1-.3-3.4-.3-6.9v-16h-4.5v-7.8h4.5v-7.4l10-5.7v13h6.7Zm39.4 10.9-9.8 1.7a7 7 0 0 0-2.2-4.3 6.7 6.7 0 0 0-4.5-1.5c-2.5 0-4.5.8-6 2.5-1.4 1.7-2.1 4.5-2.1 8.4 0 4.4.7 7.5 2.2 9.3a7.4 7.4 0 0 0 6 2.7c1.9 0 3.4-.5 4.6-1.5 1.2-1.1 2-3 2.5-5.5l9.7 1.6a17 17 0 0 1-5.8 10 18.1 18.1 0 0 1-11.5 3.4c-5.4 0-9.8-1.7-13-5.1a19.7 19.7 0 0 1-5-14.2c0-6 1.7-10.8 5-14.2 3.2-3.4 7.7-5 13.2-5 4.6 0 8.2.9 10.8 2.8a16 16 0 0 1 5.9 8.9Zm17.3-25v18.7a15 15 0 0 1 17.6-4.2 10 10 0 0 1 4.2 3.2c.9 1.3 1.5 2.7 1.9 4.3.3 1.5.5 4 .5 7.3v21.6h-10V70.3c0-4 0-6.4-.5-7.4-.3-1-1-1.9-2-2.5-1-.6-2.1-1-3.5-1-1.7 0-3.1.5-4.4 1.3a7 7 0 0 0-2.9 3.5c-.6 1.6-.9 4-.9 7v18.5H192V38.8h9.8Zm33.8 50.9V38.8h10v18.4a14 14 0 0 1 10.8-5.2c4.5 0 8.3 1.7 11.3 5 3 3.2 4.4 7.8 4.4 14a21 21 0 0 1-4.6 14.5 14.2 14.2 0 0 1-22.7-1.2v5.4h-9.2Zm9.8-19.2c0 3.8.7 6.6 1.9 8.5 1.7 2.6 4 3.9 6.8 3.9 2.2 0 4-1 5.6-2.8 1.5-1.8 2.3-4.7 2.3-8.7 0-4.2-.8-7.2-2.3-9.1a7.4 7.4 0 0 0-6-2.8c-2.4 0-4.3.9-5.9 2.7-1.6 1.8-2.4 4.6-2.4 8.3Zm32.4.3c0-3.3.8-6.4 2.4-9.4 1.7-3 4-5.4 7-7 2.9-1.6 6.2-2.4 9.9-2.4a18.6 18.6 0 0 1 19.3 19.2A18.9 18.9 0 0 1 297 90.6a22 22 0 0 1-9.8-2.3 15.9 15.9 0 0 1-7-6.7c-1.7-3-2.5-6.6-2.5-10.8Zm10.2.5c0 3.7.8 6.5 2.6 8.4a8.5 8.5 0 0 0 13 0c1.7-2 2.6-4.8 2.6-8.5 0-3.6-.9-6.4-2.6-8.3a8.5 8.5 0 0 0-13 0c-1.8 2-2.6 4.7-2.6 8.4Zm43.6-7.2-9-1.6a14 14 0 0 1 5.2-8c2.5-1.6 6.1-2.5 11-2.5 4.4 0 7.7.5 9.8 1.6 2.2 1 3.7 2.3 4.6 4 .9 1.5 1.3 4.4 1.3 8.6l-.1 11.4a21.5 21.5 0 0 0 2.3 12.1h-9.8a35.4 35.4 0 0 1-1.3-4 17.9 17.9 0 0 1-5.5 3.7c-1.9.8-4 1.2-6.1 1.2a13 13 0 0 1-9.1-3.1c-2.2-2-3.3-4.7-3.3-7.8 0-2.1.5-4 1.5-5.6 1-1.6 2.4-2.9 4.2-3.7 1.8-1 4.5-1.7 7.9-2.3 4.6-.9 7.8-1.7 9.6-2.4v-1c0-1.9-.5-3.2-1.4-4-1-.8-2.7-1.2-5.3-1.2a7 7 0 0 0-4.1 1 7 7 0 0 0-2.4 3.6Zm13.2 8-6 1.4c-2.8.6-4.6 1.2-5.4 1.7-1.3 1-2 2-2 3.5a5.4 5.4 0 0 0 5.6 5c1.7 0 3.4-.6 5-1.7 1.2-1 2-2 2.4-3.3.3-.8.4-2.4.4-4.7v-2Zm29 17.6h-10V53h9.3v5a16 16 0 0 1 4.2-4.9 8 8 0 0 1 4.3-1.2c2.2 0 4.4.6 6.5 1.9l-3 8.5a8.8 8.8 0 0 0-4.7-1.6c-1.4 0-2.6.4-3.6 1.1-1 .8-1.7 2.1-2.2 4-.6 2-.8 6.2-.8 12.4v11.4Zm52.8 0h-9.1v-5.4a14.9 14.9 0 0 1-5.5 4.7 14.4 14.4 0 0 1-17.3-3.6c-3-3.4-4.5-8.1-4.5-14.2 0-6.3 1.4-11 4.4-14.3a15 15 0 0 1 11.3-4.9 14 14 0 0 1 10.9 5.2V38.8h9.8v51Zm-26.3-19.2c0 4 .5 6.8 1.6 8.5a7.5 7.5 0 0 0 6.7 3.9c2.3 0 4.2-1 5.8-2.9 1.6-2 2.4-4.8 2.4-8.6 0-4.2-.8-7.2-2.3-9.1a7.4 7.4 0 0 0-6-2.8c-2.3 0-4.3 1-5.9 2.8-1.6 1.8-2.3 4.5-2.3 8.2Zm-112.4 63.3h9.2v5.5a13.7 13.7 0 0 1 11.6-6.3c4.4 0 8 1.7 11 5 3.1 3.4 4.6 8 4.6 14 0 6.2-1.5 11-4.6 14.4a14.4 14.4 0 0 1-16.7 4 19 19 0 0 1-5.3-4.2v18.5h-9.9v-50.9Zm9.7 17.9c0 4.1.9 7.2 2.5 9.2a7.5 7.5 0 0 0 11.9.2c1.5-1.8 2.2-4.8 2.2-9 0-3.8-.7-6.7-2.3-8.6a7.3 7.3 0 0 0-5.9-2.8c-2.4 0-4.4 1-6 2.8-1.6 1.8-2.4 4.5-2.4 8.2Zm34.5 19v-50.9h10v51h-10Zm44.8 0v-5.5a15 15 0 0 1-19.1 4.7c-2-1-3.5-2.6-4.4-4.6-1-2-1.4-4.6-1.4-8.1v-23.4h10v17c0 5.2.1 8.4.5 9.5.3 1.2 1 2.1 2 2.8 1 .7 2.1 1 3.6 1a8 8 0 0 0 4.6-1.3 7 7 0 0 0 2.7-3.4c.5-1.4.7-4.7.7-10v-15.6h10v37h-9.3Zm15.9-10.5 10-1.5a7.2 7.2 0 0 0 2.5 4.3c1.3 1 3.1 1.5 5.4 1.5 2.6 0 4.5-.5 5.8-1.4a3 3 0 0 0 1.3-2.6c0-.7-.2-1.3-.7-1.8a8 8 0 0 0-3.3-1.3 51 51 0 0 1-15.2-4.8c-3-2-4.4-4.7-4.4-8.3 0-3.2 1.3-5.8 3.8-8 2.6-2.2 6.6-3.3 12-3.3 5 0 8.8.8 11.3 2.5 2.5 1.6 4.2 4 5.2 7.3l-9.4 1.7a5.7 5.7 0 0 0-2.2-3.3 8.3 8.3 0 0 0-4.8-1.2 11 11 0 0 0-5.6 1.1c-.7.5-1.1 1.2-1.1 2 0 .7.3 1.3 1 1.8.9.6 4 1.5 9.2 2.7 5.3 1.2 9 2.6 11 4.3a9 9 0 0 1 3.1 7.3 11 11 0 0 1-4.3 8.7c-2.8 2.4-7 3.7-12.7 3.7-5 0-9-1-12-3.1-3-2-5-4.8-5.9-8.3Zm61.4-111.8V30.7h-18V18.5h18V1h12v17.6h18.1v12.2h-18v17.7h-12Z"/></svg>