<svg width="527" height="76" viewBox="0 0 527 76" fill="none" xmlns="http://www.w3.org/2000/svg">
<path d="M19.4324 46.0967L21.0517 42.8581V34.5315C23.8385 33.8077 25.9096 31.2929 25.9096 28.2842C25.9096 24.712 23.0046 21.8069 19.4324 21.8069C15.8601 21.8069 12.9551 24.712 12.9551 28.2842C12.9551 31.2929 15.0262 33.8077 17.813 34.5315V42.8581L19.4324 46.0967Z" fill="#7C6ED0"/>
<path d="M26.3421 35.6728L25.479 38.7949C29.6746 39.9543 32.387 42.1841 32.387 44.4771C32.387 47.5408 27.0675 50.9543 19.4324 50.9543C11.7974 50.9543 6.47789 47.5408 6.47789 44.4771C6.47789 42.1841 9.19025 39.9543 13.3875 38.7932L12.5244 35.6712C6.7969 37.2549 3.23926 40.6279 3.23926 44.4771C3.23926 49.9244 10.3529 54.193 19.4324 54.193C28.512 54.193 35.6256 49.9244 35.6256 44.4771C35.6256 40.6279 32.068 37.2549 26.3421 35.6728Z" fill="#7C6ED0"/>
<path d="M96.4634 21.4551C96.4634 17.5267 97.2244 14.5918 98.7466 12.6504C100.278 10.6999 102.538 9.72461 105.528 9.72461C106.558 9.72461 107.369 9.8112 107.961 9.98438V11.9395C107.26 11.7116 106.458 11.5977 105.555 11.5977C103.413 11.5977 101.777 12.2676 100.647 13.6074C99.5168 14.9382 98.897 17.0345 98.7876 19.8965H98.9517C99.9543 18.3288 101.54 17.5449 103.709 17.5449C105.505 17.5449 106.918 18.0872 107.948 19.1719C108.987 20.2565 109.506 21.7285 109.506 23.5879C109.506 25.666 108.937 27.3021 107.797 28.4961C106.667 29.681 105.136 30.2734 103.204 30.2734C101.135 30.2734 99.494 29.4987 98.2817 27.9492C97.0695 26.3906 96.4634 24.2259 96.4634 21.4551ZM103.176 28.3457C104.471 28.3457 105.473 27.9401 106.184 27.1289C106.904 26.3086 107.264 25.1283 107.264 23.5879C107.264 22.2663 106.931 21.2272 106.266 20.4707C105.601 19.7142 104.607 19.3359 103.286 19.3359C102.465 19.3359 101.713 19.5046 101.03 19.8418C100.346 20.179 99.7993 20.6439 99.3892 21.2363C98.9881 21.8288 98.7876 22.444 98.7876 23.082C98.7876 24.0208 98.9699 24.8958 99.3345 25.707C99.6991 26.5182 100.214 27.1608 100.879 27.6348C101.554 28.1087 102.319 28.3457 103.176 28.3457ZM124.641 14.7148C124.641 15.9909 124.281 17.0345 123.561 17.8457C122.85 18.6569 121.838 19.1992 120.526 19.4727V19.582C122.13 19.7826 123.319 20.293 124.094 21.1133C124.869 21.9336 125.256 23.0091 125.256 24.3398C125.256 26.2448 124.596 27.7122 123.274 28.7422C121.952 29.763 120.075 30.2734 117.641 30.2734C116.584 30.2734 115.613 30.1914 114.729 30.0273C113.854 29.8724 113.002 29.5944 112.172 29.1934V27.0332C113.038 27.4616 113.959 27.7897 114.934 28.0176C115.918 28.2363 116.848 28.3457 117.723 28.3457C121.178 28.3457 122.905 26.9922 122.905 24.2852C122.905 21.8607 121 20.6484 117.19 20.6484H115.221V18.6934H117.217C118.776 18.6934 120.011 18.3516 120.922 17.668C121.834 16.9753 122.29 16.0182 122.29 14.7969C122.29 13.8216 121.952 13.056 121.278 12.5C120.612 11.944 119.706 11.666 118.557 11.666C117.682 11.666 116.857 11.7845 116.083 12.0215C115.308 12.2585 114.424 12.696 113.43 13.334L112.282 11.8027C113.102 11.1556 114.045 10.6497 115.112 10.2852C116.187 9.91146 117.318 9.72461 118.502 9.72461C120.444 9.72461 121.952 10.1712 123.028 11.0645C124.103 11.9486 124.641 13.1654 124.641 14.7148ZM134.02 35.2637C133.163 35.2637 132.489 35.1406 131.997 34.8945V32.9121C132.644 33.0944 133.318 33.1855 134.02 33.1855C134.922 33.1855 135.606 32.9121 136.071 32.3652C136.545 31.8184 136.782 31.0299 136.782 30V10.0117H139.106V29.8086C139.106 31.5404 138.668 32.8802 137.793 33.8281C136.918 34.7852 135.661 35.2637 134.02 35.2637ZM157.016 22.4941C157.016 24.9368 156.401 26.8464 155.17 28.2227C153.94 29.5898 152.24 30.2734 150.071 30.2734C148.731 30.2734 147.542 29.959 146.502 29.3301C145.463 28.7012 144.661 27.7988 144.096 26.623C143.531 25.4473 143.249 24.071 143.249 22.4941C143.249 20.0514 143.859 18.151 145.081 16.793C146.302 15.4258 147.997 14.7422 150.167 14.7422C152.263 14.7422 153.926 15.4395 155.157 16.834C156.396 18.2285 157.016 20.1152 157.016 22.4941ZM145.6 22.4941C145.6 24.4082 145.983 25.8665 146.749 26.8691C147.514 27.8717 148.64 28.373 150.125 28.373C151.611 28.373 152.737 27.8763 153.502 26.8828C154.277 25.8802 154.665 24.4173 154.665 22.4941C154.665 20.5892 154.277 19.1445 153.502 18.1602C152.737 17.1667 151.602 16.6699 150.098 16.6699C148.612 16.6699 147.491 17.1576 146.735 18.1328C145.978 19.1081 145.6 20.5618 145.6 22.4941ZM171.262 30V20.3066C171.262 19.0853 170.984 18.1738 170.428 17.5723C169.872 16.9707 169.002 16.6699 167.817 16.6699C166.24 16.6699 165.087 17.0983 164.358 17.9551C163.638 18.8118 163.278 20.2155 163.278 22.166V30H161.008V8.72656H163.278V15.166C163.278 15.9408 163.241 16.5833 163.168 17.0938H163.305C163.752 16.3737 164.385 15.8086 165.206 15.3984C166.035 14.9792 166.978 14.7695 168.036 14.7695C169.868 14.7695 171.239 15.207 172.151 16.082C173.071 16.9479 173.532 18.3288 173.532 20.2246V30H171.262ZM188.461 30V20.3066C188.461 19.0853 188.183 18.1738 187.627 17.5723C187.071 16.9707 186.201 16.6699 185.016 16.6699C183.448 16.6699 182.3 17.0938 181.571 17.9414C180.842 18.7891 180.477 20.1882 180.477 22.1387V30H178.208V15.0156H180.053L180.422 17.0664H180.532C180.997 16.3281 181.648 15.7585 182.487 15.3574C183.325 14.9473 184.26 14.7422 185.29 14.7422C187.094 14.7422 188.452 15.1797 189.364 16.0547C190.275 16.9206 190.731 18.3105 190.731 20.2246V30H188.461ZM214.301 24.6816C214.301 26.4408 213.663 27.8125 212.387 28.7969C211.111 29.7812 209.379 30.2734 207.192 30.2734C204.822 30.2734 202.999 29.9681 201.723 29.3574V27.1152C202.543 27.4616 203.437 27.735 204.403 27.9355C205.369 28.1361 206.326 28.2363 207.274 28.2363C208.823 28.2363 209.99 27.9447 210.774 27.3613C211.558 26.7689 211.95 25.9486 211.95 24.9004C211.95 24.2077 211.808 23.6426 211.526 23.2051C211.252 22.7585 210.788 22.3483 210.131 21.9746C209.484 21.6009 208.495 21.1771 207.165 20.7031C205.305 20.0378 203.974 19.2493 203.172 18.3379C202.379 17.4264 201.983 16.237 201.983 14.7695C201.983 13.2292 202.562 12.0033 203.719 11.0918C204.877 10.1803 206.408 9.72461 208.313 9.72461C210.3 9.72461 212.127 10.0892 213.795 10.8184L213.071 12.8418C211.421 12.1491 209.817 11.8027 208.258 11.8027C207.028 11.8027 206.066 12.0671 205.374 12.5957C204.681 13.1243 204.334 13.8581 204.334 14.7969C204.334 15.4896 204.462 16.0592 204.717 16.5059C204.972 16.9434 205.401 17.349 206.002 17.7227C206.613 18.0872 207.543 18.4928 208.792 18.9395C210.888 19.6868 212.328 20.4889 213.112 21.3457C213.905 22.2025 214.301 23.3145 214.301 24.6816ZM222.887 28.4004C223.288 28.4004 223.676 28.373 224.049 28.3184C224.423 28.2546 224.719 28.1908 224.938 28.127V29.8633C224.692 29.9818 224.327 30.0775 223.844 30.1504C223.37 30.2324 222.942 30.2734 222.559 30.2734C219.661 30.2734 218.211 28.7467 218.211 25.6934V16.7793H216.065V15.6855L218.211 14.7422L219.168 11.543H220.481V15.0156H224.829V16.7793H220.481V25.5977C220.481 26.5 220.695 27.1927 221.124 27.6758C221.552 28.1589 222.14 28.4004 222.887 28.4004ZM234.782 14.7422C235.447 14.7422 236.044 14.7969 236.573 14.9062L236.258 17.0117C235.639 16.875 235.092 16.8066 234.618 16.8066C233.405 16.8066 232.366 17.2988 231.5 18.2832C230.644 19.2676 230.215 20.4935 230.215 21.9609V30H227.946V15.0156H229.819L230.079 17.791H230.188C230.744 16.8158 231.414 16.0638 232.198 15.5352C232.982 15.0065 233.843 14.7422 234.782 14.7422ZM245.706 30.2734C243.491 30.2734 241.741 29.599 240.456 28.25C239.18 26.901 238.542 25.028 238.542 22.6309C238.542 20.2155 239.134 18.2969 240.319 16.875C241.513 15.4531 243.112 14.7422 245.118 14.7422C246.995 14.7422 248.481 15.362 249.575 16.6016C250.668 17.832 251.215 19.459 251.215 21.4824V22.918H240.893C240.939 24.6771 241.381 26.0124 242.219 26.9238C243.067 27.8353 244.256 28.291 245.788 28.291C247.401 28.291 248.996 27.9538 250.573 27.2793V29.3027C249.771 29.6491 249.01 29.8952 248.29 30.041C247.579 30.196 246.717 30.2734 245.706 30.2734ZM245.09 16.6426C243.887 16.6426 242.926 17.0345 242.206 17.8184C241.495 18.6022 241.075 19.6868 240.948 21.0723H248.782C248.782 19.6413 248.463 18.5475 247.825 17.791C247.187 17.0254 246.275 16.6426 245.09 16.6426ZM261.428 30.2734C259.213 30.2734 257.463 29.599 256.178 28.25C254.902 26.901 254.264 25.028 254.264 22.6309C254.264 20.2155 254.857 18.2969 256.042 16.875C257.236 15.4531 258.835 14.7422 260.84 14.7422C262.718 14.7422 264.204 15.362 265.297 16.6016C266.391 17.832 266.938 19.459 266.938 21.4824V22.918H256.616C256.661 24.6771 257.103 26.0124 257.942 26.9238C258.79 27.8353 259.979 28.291 261.51 28.291C263.124 28.291 264.719 27.9538 266.295 27.2793V29.3027C265.493 29.6491 264.732 29.8952 264.012 30.041C263.301 30.196 262.44 30.2734 261.428 30.2734ZM260.813 16.6426C259.61 16.6426 258.648 17.0345 257.928 17.8184C257.217 18.6022 256.798 19.6868 256.67 21.0723H264.504C264.504 19.6413 264.185 18.5475 263.547 17.791C262.909 17.0254 261.998 16.6426 260.813 16.6426ZM275.661 28.4004C276.062 28.4004 276.449 28.373 276.823 28.3184C277.196 28.2546 277.493 28.1908 277.711 28.127V29.8633C277.465 29.9818 277.101 30.0775 276.618 30.1504C276.144 30.2324 275.715 30.2734 275.333 30.2734C272.434 30.2734 270.985 28.7467 270.985 25.6934V16.7793H268.838V15.6855L270.985 14.7422L271.942 11.543H273.254V15.0156H277.602V16.7793H273.254V25.5977C273.254 26.5 273.469 27.1927 273.897 27.6758C274.325 28.1589 274.913 28.4004 275.661 28.4004ZM298.999 17.709L298.096 22.3574H301.965V24.1211H297.768L296.62 30H294.747L295.895 24.1211H291.752L290.631 30H288.772L289.866 24.1211H286.284V22.3574H290.208L291.137 17.709H287.35V15.9727H291.438L292.559 10.0117H294.459L293.338 15.9727H297.508L298.657 10.0117H300.489L299.34 15.9727H302.95V17.709H298.999ZM292.081 22.3574H296.223L297.125 17.709H292.983L292.081 22.3574ZM317.442 14.7148C317.442 15.9909 317.082 17.0345 316.362 17.8457C315.651 18.6569 314.639 19.1992 313.327 19.4727V19.582C314.931 19.7826 316.12 20.293 316.895 21.1133C317.67 21.9336 318.057 23.0091 318.057 24.3398C318.057 26.2448 317.396 27.7122 316.075 28.7422C314.753 29.763 312.875 30.2734 310.442 30.2734C309.385 30.2734 308.414 30.1914 307.53 30.0273C306.655 29.8724 305.803 29.5944 304.973 29.1934V27.0332C305.839 27.4616 306.76 27.7897 307.735 28.0176C308.719 28.2363 309.649 28.3457 310.524 28.3457C313.978 28.3457 315.706 26.9922 315.706 24.2852C315.706 21.8607 313.801 20.6484 309.991 20.6484H308.022V18.6934H310.018C311.577 18.6934 312.812 18.3516 313.723 17.668C314.635 16.9753 315.09 16.0182 315.09 14.7969C315.09 13.8216 314.753 13.056 314.079 12.5C313.413 11.944 312.506 11.666 311.358 11.666C310.483 11.666 309.658 11.7845 308.883 12.0215C308.109 12.2585 307.224 12.696 306.231 13.334L305.083 11.8027C305.903 11.1556 306.846 10.6497 307.913 10.2852C308.988 9.91146 310.118 9.72461 311.303 9.72461C313.245 9.72461 314.753 10.1712 315.829 11.0645C316.904 11.9486 317.442 13.1654 317.442 14.7148ZM112.049 68H109.315L102.028 58.3066L99.936 60.166V68H97.6118V48.0117H99.936V57.9238L109 48.0117H111.749L103.709 56.6934L112.049 68ZM116.739 68H114.469V53.0156H116.739V68ZM114.278 48.9551C114.278 48.4355 114.405 48.0573 114.661 47.8203C114.916 47.5742 115.235 47.4512 115.618 47.4512C115.982 47.4512 116.297 47.5742 116.561 47.8203C116.825 48.0664 116.958 48.4447 116.958 48.9551C116.958 49.4655 116.825 49.8483 116.561 50.1035C116.297 50.3496 115.982 50.4727 115.618 50.4727C115.235 50.4727 114.916 50.3496 114.661 50.1035C114.405 49.8483 114.278 49.4655 114.278 48.9551ZM131.805 68V58.3066C131.805 57.0853 131.527 56.1738 130.971 55.5723C130.415 54.9707 129.545 54.6699 128.36 54.6699C126.792 54.6699 125.644 55.0938 124.915 55.9414C124.185 56.7891 123.821 58.1882 123.821 60.1387V68H121.551V53.0156H123.397L123.766 55.0664H123.875C124.34 54.3281 124.992 53.7585 125.831 53.3574C126.669 52.9473 127.603 52.7422 128.633 52.7422C130.438 52.7422 131.796 53.1797 132.708 54.0547C133.619 54.9206 134.075 56.3105 134.075 58.2246V68H131.805ZM151.014 53.0156V54.4512L148.239 54.7793C148.494 55.0983 148.722 55.5176 148.922 56.0371C149.123 56.5475 149.223 57.1263 149.223 57.7734C149.223 59.2409 148.722 60.4121 147.719 61.2871C146.717 62.1621 145.34 62.5996 143.59 62.5996C143.144 62.5996 142.724 62.5632 142.333 62.4902C141.366 63.0007 140.883 63.6432 140.883 64.418C140.883 64.8281 141.052 65.1335 141.389 65.334C141.726 65.5254 142.305 65.6211 143.125 65.6211H145.778C147.4 65.6211 148.644 65.9629 149.51 66.6465C150.385 67.3301 150.823 68.3236 150.823 69.627C150.823 71.2858 150.157 72.5482 148.827 73.4141C147.496 74.2891 145.555 74.7266 143.002 74.7266C141.043 74.7266 139.53 74.362 138.463 73.6328C137.406 72.9036 136.877 71.8737 136.877 70.543C136.877 69.6315 137.169 68.8431 137.752 68.1777C138.336 67.5124 139.156 67.0612 140.213 66.8242C139.831 66.651 139.507 66.3822 139.243 66.0176C138.987 65.653 138.86 65.2292 138.86 64.7461C138.86 64.1992 139.006 63.7207 139.297 63.3105C139.589 62.9004 140.049 62.5039 140.678 62.1211C139.903 61.8021 139.27 61.2598 138.778 60.4941C138.295 59.7285 138.053 58.8535 138.053 57.8691C138.053 56.2285 138.545 54.9661 139.53 54.082C140.514 53.1888 141.909 52.7422 143.713 52.7422C144.497 52.7422 145.204 52.8333 145.833 53.0156H151.014ZM139.065 70.5156C139.065 71.3268 139.407 71.9421 140.09 72.3613C140.774 72.7806 141.754 72.9902 143.03 72.9902C144.935 72.9902 146.343 72.7031 147.254 72.1289C148.175 71.5638 148.635 70.7936 148.635 69.8184C148.635 69.0072 148.385 68.4421 147.883 68.123C147.382 67.8132 146.439 67.6582 145.053 67.6582H142.333C141.303 67.6582 140.5 67.9043 139.926 68.3965C139.352 68.8887 139.065 69.5951 139.065 70.5156ZM140.295 57.8145C140.295 58.8626 140.592 59.6556 141.184 60.1934C141.777 60.7311 142.601 61 143.659 61C145.874 61 146.981 59.9245 146.981 57.7734C146.981 55.5221 145.86 54.3965 143.618 54.3965C142.551 54.3965 141.731 54.6836 141.157 55.2578C140.583 55.832 140.295 56.6842 140.295 57.8145ZM163.756 63.9121C163.756 65.3066 163.237 66.3822 162.198 67.1387C161.159 67.8952 159.7 68.2734 157.823 68.2734C155.836 68.2734 154.286 67.959 153.174 67.3301V65.2246C153.894 65.5892 154.665 65.8763 155.485 66.0859C156.314 66.2956 157.112 66.4004 157.877 66.4004C159.062 66.4004 159.974 66.2135 160.612 65.8398C161.25 65.457 161.569 64.8783 161.569 64.1035C161.569 63.5202 161.314 63.0234 160.803 62.6133C160.302 62.194 159.318 61.7018 157.85 61.1367C156.456 60.6172 155.462 60.166 154.87 59.7832C154.286 59.3913 153.849 58.9492 153.557 58.457C153.275 57.9648 153.133 57.377 153.133 56.6934C153.133 55.472 153.63 54.5104 154.624 53.8086C155.617 53.0977 156.98 52.7422 158.711 52.7422C160.325 52.7422 161.902 53.0703 163.442 53.7266L162.635 55.5723C161.131 54.9525 159.769 54.6426 158.547 54.6426C157.472 54.6426 156.661 54.8112 156.114 55.1484C155.567 55.4857 155.293 55.9505 155.293 56.543C155.293 56.944 155.394 57.2858 155.594 57.5684C155.804 57.8509 156.137 58.1198 156.592 58.375C157.048 58.6302 157.923 58.9993 159.217 59.4824C160.995 60.1296 162.193 60.7812 162.813 61.4375C163.442 62.0938 163.756 62.9186 163.756 63.9121ZM172.301 66.4004C172.702 66.4004 173.09 66.373 173.463 66.3184C173.837 66.2546 174.133 66.1908 174.352 66.127V67.8633C174.106 67.9818 173.741 68.0775 173.258 68.1504C172.784 68.2324 172.356 68.2734 171.973 68.2734C169.075 68.2734 167.625 66.7467 167.625 63.6934V54.7793H165.479V53.6855L167.625 52.7422L168.583 49.543H169.895V53.0156H174.243V54.7793H169.895V63.5977C169.895 64.5 170.109 65.1927 170.538 65.6758C170.966 66.1589 171.554 66.4004 172.301 66.4004ZM190.293 60.4941C190.293 62.9368 189.678 64.8464 188.448 66.2227C187.217 67.5898 185.517 68.2734 183.348 68.2734C182.008 68.2734 180.819 67.959 179.78 67.3301C178.741 66.7012 177.939 65.7988 177.374 64.623C176.808 63.4473 176.526 62.071 176.526 60.4941C176.526 58.0514 177.137 56.151 178.358 54.793C179.579 53.4258 181.275 52.7422 183.444 52.7422C185.54 52.7422 187.204 53.4395 188.434 54.834C189.674 56.2285 190.293 58.1152 190.293 60.4941ZM178.877 60.4941C178.877 62.4082 179.26 63.8665 180.026 64.8691C180.792 65.8717 181.917 66.373 183.403 66.373C184.889 66.373 186.014 65.8763 186.78 64.8828C187.555 63.8802 187.942 62.4173 187.942 60.4941C187.942 58.5892 187.555 57.1445 186.78 56.1602C186.014 55.1667 184.879 54.6699 183.375 54.6699C181.89 54.6699 180.769 55.1576 180.012 56.1328C179.256 57.1081 178.877 58.5618 178.877 60.4941ZM204.54 68V58.3066C204.54 57.0853 204.262 56.1738 203.706 55.5723C203.15 54.9707 202.279 54.6699 201.094 54.6699C199.527 54.6699 198.378 55.0938 197.649 55.9414C196.92 56.7891 196.555 58.1882 196.555 60.1387V68H194.286V53.0156H196.131L196.5 55.0664H196.61C197.075 54.3281 197.726 53.7585 198.565 53.3574C199.403 52.9473 200.338 52.7422 201.368 52.7422C203.172 52.7422 204.53 53.1797 205.442 54.0547C206.353 54.9206 206.809 56.3105 206.809 58.2246V68H204.54ZM213.864 64.7461L214.069 65.0605C213.832 65.972 213.49 67.0293 213.043 68.2324C212.597 69.4447 212.132 70.5703 211.649 71.6094H209.94C210.186 70.6615 210.455 69.4902 210.747 68.0957C211.047 66.7012 211.257 65.5846 211.375 64.7461H213.864ZM241.577 68H238.924L228 51.2246H227.891C228.037 53.1934 228.11 54.998 228.11 56.6387V68H225.963V48.0117H228.588L239.485 64.7188H239.594C239.576 64.4727 239.535 63.6842 239.471 62.3535C239.407 61.0137 239.385 60.0566 239.403 59.4824V48.0117H241.577V68ZM252.159 58.0059L257.491 48.0117H260.006L253.334 60.248V68H250.983V60.3574L244.325 48.0117H246.868L252.159 58.0059ZM277.069 68H274.854V53.7539C274.854 52.569 274.89 51.4479 274.963 50.3906C274.772 50.582 274.558 50.7826 274.321 50.9922C274.084 51.2018 272.999 52.0905 271.067 53.6582L269.864 52.0996L275.155 48.0117H277.069V68ZM297.823 68H284.684V66.0449L289.948 60.7539C291.552 59.1315 292.609 57.974 293.12 57.2812C293.63 56.5885 294.013 55.9141 294.268 55.2578C294.523 54.6016 294.651 53.8952 294.651 53.1387C294.651 52.0723 294.327 51.2292 293.68 50.6094C293.033 49.9805 292.135 49.666 290.987 49.666C290.157 49.666 289.369 49.8027 288.622 50.0762C287.883 50.3496 287.058 50.8464 286.147 51.5664L284.944 50.0215C286.785 48.4902 288.79 47.7246 290.959 47.7246C292.837 47.7246 294.309 48.2077 295.375 49.1738C296.442 50.1309 296.975 51.4206 296.975 53.043C296.975 54.3099 296.62 55.5632 295.909 56.8027C295.198 58.0423 293.867 59.61 291.917 61.5059L287.542 65.7852V65.8945H297.823V68ZM314.79 63.4062H311.823V68H309.649V63.4062H299.928V61.4238L309.417 47.9023H311.823V61.3418H314.79V63.4062ZM309.649 61.3418V54.6973C309.649 53.3939 309.694 51.9219 309.786 50.2812H309.676C309.239 51.1562 308.829 51.8809 308.446 52.4551L302.198 61.3418H309.649ZM329.979 57.9785C329.979 61.4329 329.432 64.0124 328.338 65.7168C327.254 67.4212 325.59 68.2734 323.348 68.2734C321.197 68.2734 319.561 67.403 318.44 65.6621C317.319 63.9121 316.758 61.3509 316.758 57.9785C316.758 54.4967 317.301 51.9128 318.385 50.2266C319.47 48.5404 321.124 47.6973 323.348 47.6973C325.517 47.6973 327.163 48.5768 328.284 50.3359C329.414 52.0951 329.979 54.6426 329.979 57.9785ZM319.055 57.9785C319.055 60.8861 319.397 63.0052 320.081 64.3359C320.764 65.6576 321.853 66.3184 323.348 66.3184C324.861 66.3184 325.955 65.6484 326.629 64.3086C327.313 62.9596 327.655 60.8496 327.655 57.9785C327.655 55.1074 327.313 53.0065 326.629 51.6758C325.955 50.3359 324.861 49.666 323.348 49.666C321.853 49.666 320.764 50.3268 320.081 51.6484C319.397 52.9609 319.055 55.071 319.055 57.9785ZM341.163 68H338.948V53.7539C338.948 52.569 338.984 51.4479 339.057 50.3906C338.866 50.582 338.652 50.7826 338.415 50.9922C338.178 51.2018 337.093 52.0905 335.161 53.6582L333.958 52.0996L339.249 48.0117H341.163V68Z" fill="#7C6ED0"/>
</svg>
