<svg width="230" height="54" viewBox="0 0 230 54" fill="none" xmlns="http://www.w3.org/2000/svg">
<path d="M19.4324 35.0968L21.0517 31.8581V23.5316C23.8385 22.8078 25.9096 20.293 25.9096 17.2843C25.9096 13.7121 23.0046 10.807 19.4324 10.807C15.8601 10.807 12.9551 13.7121 12.9551 17.2843C12.9551 20.293 15.0262 22.8078 17.813 23.5316V31.8581L19.4324 35.0968Z" fill="white"/>
<path d="M26.3421 24.6729L25.479 27.7949C29.6746 28.9544 32.387 31.1842 32.387 33.4771C32.387 36.5409 27.0675 39.9544 19.4324 39.9544C11.7974 39.9544 6.47789 36.5409 6.47789 33.4771C6.47789 31.1842 9.19025 28.9544 13.3875 27.7933L12.5244 24.6713C6.7969 26.255 3.23926 29.628 3.23926 33.4771C3.23926 38.9245 10.3529 43.193 19.4324 43.193C28.512 43.193 35.6256 38.9245 35.6256 33.4771C35.6256 29.628 32.068 26.255 26.3421 24.6729Z" fill="white"/>
<path d="M49.9963 14.8965C49.9963 14.0371 50.0549 13.1973 50.1721 12.377C50.2958 11.5566 50.5009 10.7949 50.7874 10.0918C51.0738 9.38216 51.4644 8.76042 51.9592 8.22656C52.454 7.69271 53.0693 7.27604 53.8049 6.97656C54.5471 6.67057 55.4358 6.51758 56.4709 6.51758C56.7639 6.51758 57.0797 6.53385 57.4182 6.56641C57.7568 6.59245 58.0367 6.63802 58.2581 6.70312V8.09961C58.0172 8.01497 57.7405 7.95312 57.428 7.91406C57.122 7.875 56.8127 7.85547 56.5002 7.85547C55.2893 7.85547 54.3355 8.11914 53.6389 8.64648C52.9488 9.17383 52.4508 9.88997 52.1448 10.7949C51.8388 11.6934 51.663 12.7057 51.6174 13.832H51.7249C51.9267 13.5065 52.1838 13.2135 52.4963 12.9531C52.8088 12.6862 53.1864 12.4746 53.6292 12.3184C54.0784 12.1621 54.5992 12.084 55.1917 12.084C56.025 12.084 56.7509 12.2533 57.3694 12.5918C57.9944 12.9303 58.4762 13.4219 58.8147 14.0664C59.1597 14.7109 59.3323 15.4922 59.3323 16.4102C59.3323 17.3932 59.15 18.2428 58.7854 18.959C58.4208 19.6751 57.9 20.2285 57.2229 20.6191C56.5523 21.0033 55.7515 21.1953 54.8206 21.1953C54.1239 21.1953 53.4827 21.0618 52.8967 20.7949C52.3108 20.528 51.7997 20.1309 51.3635 19.6035C50.9338 19.0762 50.5986 18.4219 50.3577 17.6406C50.1168 16.8529 49.9963 15.9382 49.9963 14.8965ZM54.801 19.8281C55.6864 19.8281 56.3961 19.5449 56.9299 18.9785C57.4638 18.4121 57.7307 17.556 57.7307 16.4102C57.7307 15.4727 57.4931 14.7305 57.0178 14.1836C56.5426 13.6367 55.8264 13.3633 54.8694 13.3633C54.2183 13.3633 53.6519 13.5 53.1702 13.7734C52.6884 14.0404 52.314 14.3789 52.0471 14.7891C51.7802 15.1992 51.6467 15.6159 51.6467 16.0391C51.6467 16.4688 51.7086 16.9049 51.8323 17.3477C51.9625 17.7904 52.1578 18.2005 52.4182 18.5781C52.6786 18.9557 53.0074 19.2585 53.4045 19.4863C53.8017 19.7142 54.2672 19.8281 54.801 19.8281ZM70.1233 10.0527C70.1233 10.6908 69.9996 11.2441 69.7522 11.7129C69.5048 12.1816 69.1597 12.5658 68.717 12.8652C68.2743 13.1582 67.7535 13.3633 67.1545 13.4805V13.5586C68.2874 13.7018 69.137 14.0664 69.7034 14.6523C70.2763 15.2383 70.5627 16.0065 70.5627 16.957C70.5627 17.7839 70.3674 18.5163 69.9768 19.1543C69.5927 19.7923 69.0002 20.2936 68.1995 20.6582C67.4052 21.0163 66.3863 21.1953 65.1428 21.1953C64.3876 21.1953 63.6877 21.1335 63.0432 21.0098C62.4052 20.8926 61.7932 20.694 61.2073 20.4141V18.8906C61.7997 19.1836 62.4443 19.4147 63.1409 19.584C63.8375 19.7467 64.5113 19.8281 65.1624 19.8281C66.4644 19.8281 67.4052 19.571 67.9846 19.0566C68.564 18.5358 68.8538 17.8262 68.8538 16.9277C68.8538 16.3092 68.691 15.8112 68.3655 15.4336C68.0465 15.0495 67.5842 14.7695 66.9788 14.5938C66.3798 14.4115 65.6571 14.3203 64.8108 14.3203H63.385V12.9336H64.8206C65.5953 12.9336 66.2528 12.8197 66.7932 12.5918C67.3336 12.3639 67.7437 12.0449 68.0237 11.6348C68.3101 11.2181 68.4534 10.7266 68.4534 10.1602C68.4534 9.4375 68.2125 8.88086 67.7307 8.49023C67.2489 8.0931 66.5946 7.89453 65.7678 7.89453C65.26 7.89453 64.7978 7.94661 64.3811 8.05078C63.9644 8.15495 63.5738 8.29818 63.2092 8.48047C62.8446 8.66276 62.4801 8.87435 62.1155 9.11523L61.2952 8.00195C61.816 7.59831 62.4508 7.25 63.1995 6.95703C63.9482 6.66406 64.7978 6.51758 65.7483 6.51758C67.2066 6.51758 68.3004 6.84961 69.0295 7.51367C69.7587 8.17773 70.1233 9.02409 70.1233 10.0527ZM76.842 24.7598C76.5165 24.7598 76.2301 24.737 75.9827 24.6914C75.7353 24.6458 75.5237 24.584 75.3479 24.5059V23.0898C75.5562 23.1549 75.7808 23.2038 76.0217 23.2363C76.2626 23.2754 76.523 23.2949 76.803 23.2949C77.1676 23.2949 77.5028 23.2233 77.8088 23.0801C78.1148 22.9368 78.359 22.6927 78.5413 22.3477C78.7236 22.0026 78.8147 21.5273 78.8147 20.9219V6.72266H80.4846V20.7949C80.4846 21.6868 80.3349 22.4258 80.0354 23.0117C79.7424 23.5977 79.3225 24.0339 78.7756 24.3203C78.2353 24.6133 77.5907 24.7598 76.842 24.7598ZM93.2581 15.6289C93.2581 16.5078 93.1441 17.2923 92.9163 17.9824C92.6884 18.6725 92.3596 19.2552 91.9299 19.7305C91.5002 20.2057 90.9794 20.5703 90.3674 20.8242C89.762 21.0716 89.0751 21.1953 88.3069 21.1953C87.5907 21.1953 86.9332 21.0716 86.3342 20.8242C85.7418 20.5703 85.2275 20.2057 84.7913 19.7305C84.3616 19.2552 84.0263 18.6725 83.7854 17.9824C83.551 17.2923 83.4338 16.5078 83.4338 15.6289C83.4338 14.457 83.6324 13.4609 84.0295 12.6406C84.4267 11.8138 84.9931 11.1855 85.7288 10.7559C86.4709 10.3197 87.3531 10.1016 88.3752 10.1016C89.3518 10.1016 90.2047 10.3197 90.9338 10.7559C91.6695 11.1921 92.2392 11.8236 92.6428 12.6504C93.053 13.4707 93.2581 14.4635 93.2581 15.6289ZM85.1135 15.6289C85.1135 16.4883 85.2275 17.2337 85.4553 17.8652C85.6832 18.4967 86.0347 18.985 86.51 19.3301C86.9853 19.6751 87.5972 19.8477 88.3459 19.8477C89.0881 19.8477 89.6969 19.6751 90.1721 19.3301C90.6539 18.985 91.0087 18.4967 91.2366 17.8652C91.4644 17.2337 91.5784 16.4883 91.5784 15.6289C91.5784 14.776 91.4644 14.0404 91.2366 13.4219C91.0087 12.7969 90.6571 12.3151 90.1819 11.9766C89.7066 11.638 89.0914 11.4688 88.3362 11.4688C87.2229 11.4688 86.4058 11.8366 85.885 12.5723C85.3707 13.3079 85.1135 14.3268 85.1135 15.6289ZM97.6819 5.80469V10.3457C97.6819 10.6061 97.6754 10.8698 97.6624 11.1367C97.6493 11.3971 97.6265 11.638 97.594 11.8594H97.7014C97.9228 11.4818 98.2027 11.166 98.5413 10.9121C98.8863 10.6517 99.2769 10.4564 99.7131 10.3262C100.149 10.1895 100.612 10.1211 101.1 10.1211C101.959 10.1211 102.675 10.2578 103.248 10.5312C103.828 10.8047 104.261 11.2279 104.547 11.8008C104.84 12.3737 104.987 13.1159 104.987 14.0273V21H103.385V14.1348C103.385 13.2428 103.18 12.5755 102.77 12.1328C102.366 11.6901 101.744 11.4688 100.905 11.4688C100.11 11.4688 99.4755 11.6217 99.0002 11.9277C98.5315 12.2272 98.193 12.6699 97.9846 13.2559C97.7828 13.8418 97.6819 14.5579 97.6819 15.4043V21H96.0608V5.80469H97.6819ZM113.395 10.1016C114.664 10.1016 115.625 10.4141 116.276 11.0391C116.927 11.6576 117.252 12.6536 117.252 14.0273V21H115.651V14.1348C115.651 13.2428 115.446 12.5755 115.035 12.1328C114.632 11.6901 114.01 11.4688 113.17 11.4688C111.985 11.4688 111.152 11.804 110.67 12.4746C110.188 13.1452 109.948 14.1185 109.948 15.3945V21H108.326V10.2969H109.635L109.879 11.8398H109.967C110.195 11.4622 110.485 11.1465 110.836 10.8926C111.188 10.6322 111.582 10.4368 112.018 10.3066C112.454 10.1699 112.913 10.1016 113.395 10.1016ZM134.088 17.2012C134.088 18.0475 133.877 18.7702 133.453 19.3691C133.037 19.9616 132.451 20.4141 131.696 20.7266C130.94 21.0391 130.052 21.1953 129.03 21.1953C128.489 21.1953 127.978 21.1693 127.496 21.1172C127.015 21.0651 126.572 20.9902 126.168 20.8926C125.765 20.7949 125.41 20.6745 125.104 20.5312V18.9395C125.592 19.1413 126.188 19.3301 126.891 19.5059C127.594 19.6751 128.33 19.7598 129.098 19.7598C129.814 19.7598 130.42 19.6654 130.914 19.4766C131.409 19.2812 131.783 19.0046 132.037 18.6465C132.298 18.2819 132.428 17.8457 132.428 17.3379C132.428 16.8496 132.321 16.4427 132.106 16.1172C131.891 15.7852 131.533 15.4857 131.031 15.2188C130.537 14.9453 129.86 14.6556 129 14.3496C128.395 14.1348 127.861 13.9004 127.399 13.6465C126.936 13.3861 126.549 13.0931 126.237 12.7676C125.924 12.4421 125.686 12.0645 125.524 11.6348C125.367 11.2051 125.289 10.7135 125.289 10.1602C125.289 9.39844 125.481 8.7474 125.865 8.20703C126.256 7.66016 126.793 7.24349 127.477 6.95703C128.167 6.66406 128.958 6.51758 129.85 6.51758C130.612 6.51758 131.315 6.58919 131.959 6.73242C132.61 6.87565 133.206 7.06771 133.746 7.30859L133.229 8.73438C132.714 8.51953 132.168 8.34049 131.588 8.19727C131.015 8.05404 130.423 7.98242 129.811 7.98242C129.199 7.98242 128.681 8.07357 128.258 8.25586C127.841 8.43164 127.522 8.68229 127.301 9.00781C127.08 9.33333 126.969 9.7207 126.969 10.1699C126.969 10.6712 127.073 11.0879 127.281 11.4199C127.496 11.752 127.835 12.0482 128.297 12.3086C128.766 12.5625 129.384 12.8294 130.153 13.1094C130.992 13.4154 131.705 13.7409 132.291 14.0859C132.877 14.4245 133.323 14.8411 133.629 15.3359C133.935 15.8242 134.088 16.446 134.088 17.2012ZM140.221 19.8672C140.488 19.8672 140.761 19.8444 141.041 19.7988C141.321 19.7533 141.549 19.6979 141.725 19.6328V20.8926C141.536 20.9772 141.272 21.0488 140.934 21.1074C140.602 21.166 140.276 21.1953 139.957 21.1953C139.391 21.1953 138.877 21.0977 138.414 20.9023C137.952 20.7005 137.581 20.362 137.301 19.8867C137.028 19.4115 136.891 18.7539 136.891 17.9141V11.5664H135.367V10.7754L136.901 10.1406L137.545 7.81641H138.522V10.2969H141.656V11.5664H138.522V17.8652C138.522 18.5358 138.675 19.0371 138.981 19.3691C139.293 19.7012 139.707 19.8672 140.221 19.8672ZM148.756 10.1016C148.971 10.1016 149.196 10.1146 149.43 10.1406C149.664 10.1602 149.873 10.1895 150.055 10.2285L149.85 11.7324C149.674 11.6868 149.479 11.651 149.264 11.625C149.049 11.599 148.847 11.5859 148.658 11.5859C148.229 11.5859 147.822 11.6738 147.438 11.8496C147.06 12.0189 146.728 12.2663 146.442 12.5918C146.155 12.9108 145.931 13.2982 145.768 13.7539C145.605 14.2031 145.524 14.7044 145.524 15.2578V21H143.893V10.2969H145.24L145.416 12.2695H145.485C145.706 11.8724 145.973 11.5111 146.285 11.1855C146.598 10.8535 146.959 10.5898 147.369 10.3945C147.786 10.1992 148.248 10.1016 148.756 10.1016ZM156.198 10.1016C157.109 10.1016 157.89 10.3034 158.541 10.707C159.192 11.1107 159.69 11.6771 160.035 12.4062C160.38 13.1289 160.553 13.9753 160.553 14.9453V15.9512H153.16C153.18 17.2077 153.492 18.1647 154.098 18.8223C154.703 19.4798 155.556 19.8086 156.656 19.8086C157.334 19.8086 157.933 19.7467 158.453 19.623C158.974 19.4993 159.515 19.3171 160.074 19.0762V20.502C159.534 20.7428 158.997 20.9186 158.463 21.0293C157.936 21.14 157.311 21.1953 156.588 21.1953C155.559 21.1953 154.661 20.987 153.893 20.5703C153.131 20.1471 152.539 19.5286 152.115 18.7148C151.692 17.901 151.481 16.9049 151.481 15.7266C151.481 14.5742 151.673 13.5781 152.057 12.7383C152.448 11.8919 152.994 11.2409 153.698 10.7852C154.407 10.3294 155.24 10.1016 156.198 10.1016ZM156.178 11.4297C155.312 11.4297 154.622 11.7129 154.108 12.2793C153.593 12.8457 153.287 13.6367 153.19 14.6523H158.854C158.847 14.0143 158.746 13.4544 158.551 12.9727C158.362 12.4844 158.073 12.1068 157.682 11.8398C157.291 11.5664 156.79 11.4297 156.178 11.4297ZM167.428 10.1016C168.339 10.1016 169.121 10.3034 169.772 10.707C170.423 11.1107 170.921 11.6771 171.266 12.4062C171.611 13.1289 171.783 13.9753 171.783 14.9453V15.9512H164.391C164.41 17.2077 164.723 18.1647 165.328 18.8223C165.934 19.4798 166.787 19.8086 167.887 19.8086C168.564 19.8086 169.163 19.7467 169.684 19.623C170.205 19.4993 170.745 19.3171 171.305 19.0762V20.502C170.765 20.7428 170.227 20.9186 169.694 21.0293C169.166 21.14 168.541 21.1953 167.819 21.1953C166.79 21.1953 165.892 20.987 165.123 20.5703C164.362 20.1471 163.769 19.5286 163.346 18.7148C162.923 17.901 162.711 16.9049 162.711 15.7266C162.711 14.5742 162.903 13.5781 163.287 12.7383C163.678 11.8919 164.225 11.2409 164.928 10.7852C165.638 10.3294 166.471 10.1016 167.428 10.1016ZM167.408 11.4297C166.543 11.4297 165.852 11.7129 165.338 12.2793C164.824 12.8457 164.518 13.6367 164.42 14.6523H170.084C170.078 14.0143 169.977 13.4544 169.781 12.9727C169.593 12.4844 169.303 12.1068 168.912 11.8398C168.522 11.5664 168.02 11.4297 167.408 11.4297ZM177.994 19.8672C178.261 19.8672 178.535 19.8444 178.815 19.7988C179.095 19.7533 179.323 19.6979 179.498 19.6328V20.8926C179.309 20.9772 179.046 21.0488 178.707 21.1074C178.375 21.166 178.05 21.1953 177.731 21.1953C177.164 21.1953 176.65 21.0977 176.188 20.9023C175.726 20.7005 175.354 20.362 175.074 19.8867C174.801 19.4115 174.664 18.7539 174.664 17.9141V11.5664H173.141V10.7754L174.674 10.1406L175.319 7.81641H176.295V10.2969H179.43V11.5664H176.295V17.8652C176.295 18.5358 176.448 19.0371 176.754 19.3691C177.067 19.7012 177.48 19.8672 177.994 19.8672ZM194.723 12.2207L194.088 15.541H196.852V16.7812H193.844L193.014 21H191.696L192.526 16.7812H189.547L188.746 21H187.448L188.219 16.7812H185.66V15.541H188.463L189.117 12.2207H186.403V11H189.342L190.153 6.72266H191.49L190.68 11H193.678L194.489 6.72266H195.778L194.967 11H197.555V12.2207H194.723ZM189.781 15.541H192.76L193.405 12.2207H190.426L189.781 15.541ZM207.897 10.0527C207.897 10.6908 207.773 11.2441 207.526 11.7129C207.278 12.1816 206.933 12.5658 206.49 12.8652C206.048 13.1582 205.527 13.3633 204.928 13.4805V13.5586C206.061 13.7018 206.91 14.0664 207.477 14.6523C208.05 15.2383 208.336 16.0065 208.336 16.957C208.336 17.7839 208.141 18.5163 207.75 19.1543C207.366 19.7923 206.774 20.2936 205.973 20.6582C205.179 21.0163 204.16 21.1953 202.916 21.1953C202.161 21.1953 201.461 21.1335 200.817 21.0098C200.179 20.8926 199.567 20.694 198.981 20.4141V18.8906C199.573 19.1836 200.218 19.4147 200.914 19.584C201.611 19.7467 202.285 19.8281 202.936 19.8281C204.238 19.8281 205.179 19.571 205.758 19.0566C206.337 18.5358 206.627 17.8262 206.627 16.9277C206.627 16.3092 206.464 15.8112 206.139 15.4336C205.82 15.0495 205.358 14.7695 204.752 14.5938C204.153 14.4115 203.431 14.3203 202.584 14.3203H201.158V12.9336H202.594C203.369 12.9336 204.026 12.8197 204.567 12.5918C205.107 12.3639 205.517 12.0449 205.797 11.6348C206.084 11.2181 206.227 10.7266 206.227 10.1602C206.227 9.4375 205.986 8.88086 205.504 8.49023C205.022 8.0931 204.368 7.89453 203.541 7.89453C203.033 7.89453 202.571 7.94661 202.155 8.05078C201.738 8.15495 201.347 8.29818 200.983 8.48047C200.618 8.66276 200.253 8.87435 199.889 9.11523L199.069 8.00195C199.589 7.59831 200.224 7.25 200.973 6.95703C201.722 6.66406 202.571 6.51758 203.522 6.51758C204.98 6.51758 206.074 6.84961 206.803 7.51367C207.532 8.17773 207.897 9.02409 207.897 10.0527ZM61.1096 48H59.1467L54.0002 41.0566L52.4768 42.4238V48H50.8167V33.7227H52.4768V40.8418C52.8479 40.4186 53.2288 39.9987 53.6194 39.582C54.01 39.1589 54.3974 38.7324 54.7815 38.3027L58.9514 33.7227H60.8948L55.2112 39.9141L61.1096 48ZM64.4397 37.2969V48H62.8186V37.2969H64.4397ZM63.6487 33.293C63.9156 33.293 64.1435 33.3809 64.3323 33.5566C64.5276 33.7259 64.6252 33.9928 64.6252 34.3574C64.6252 34.7155 64.5276 34.9824 64.3323 35.1582C64.1435 35.334 63.9156 35.4219 63.6487 35.4219C63.3687 35.4219 63.1344 35.334 62.9456 35.1582C62.7633 34.9824 62.6721 34.7155 62.6721 34.3574C62.6721 33.9928 62.7633 33.7259 62.9456 33.5566C63.1344 33.3809 63.3687 33.293 63.6487 33.293ZM72.9456 37.1016C74.2151 37.1016 75.1754 37.4141 75.8264 38.0391C76.4775 38.6576 76.803 39.6536 76.803 41.0273V48H75.2014V41.1348C75.2014 40.2428 74.9963 39.5755 74.5862 39.1328C74.1825 38.6901 73.5608 38.4688 72.7209 38.4688C71.5361 38.4688 70.7027 38.804 70.2209 39.4746C69.7392 40.1452 69.4983 41.1185 69.4983 42.3945V48H67.8772V37.2969H69.1858L69.4299 38.8398H69.5178C69.7457 38.4622 70.0354 38.1465 70.387 37.8926C70.7385 37.6322 71.1324 37.4368 71.5686 37.3066C72.0048 37.1699 72.4638 37.1016 72.9456 37.1016ZM83.1311 52.8047C81.7249 52.8047 80.6409 52.541 79.8792 52.0137C79.1174 51.4928 78.7366 50.7604 78.7366 49.8164C78.7366 49.1458 78.9482 48.5729 79.3713 48.0977C79.801 47.6224 80.3935 47.3066 81.1487 47.1504C80.8687 47.0202 80.6278 46.8249 80.426 46.5645C80.2307 46.304 80.1331 46.0046 80.1331 45.666C80.1331 45.2754 80.2405 44.9336 80.4553 44.6406C80.6767 44.3411 81.012 44.0547 81.4612 43.7812C80.9013 43.5534 80.4456 43.1693 80.094 42.6289C79.7489 42.082 79.5764 41.4473 79.5764 40.7246C79.5764 39.9564 79.7359 39.3021 80.0549 38.7617C80.3739 38.2148 80.8362 37.7982 81.4417 37.5117C82.0471 37.2253 82.7795 37.082 83.6389 37.082C83.8277 37.082 84.0165 37.0918 84.2053 37.1113C84.4006 37.1243 84.5862 37.1471 84.762 37.1797C84.9377 37.2057 85.0907 37.2383 85.2209 37.2773H88.8928V38.3223L86.9202 38.5664C87.1155 38.8203 87.2782 39.1263 87.4084 39.4844C87.5387 39.8424 87.6038 40.2396 87.6038 40.6758C87.6038 41.7435 87.2424 42.5931 86.5198 43.2246C85.7971 43.8496 84.8043 44.1621 83.5413 44.1621C83.2418 44.1621 82.9358 44.1361 82.6233 44.084C82.3043 44.2598 82.0601 44.4551 81.8909 44.6699C81.7281 44.8848 81.6467 45.1322 81.6467 45.4121C81.6467 45.6204 81.7086 45.7865 81.8323 45.9102C81.9625 46.0339 82.148 46.125 82.3889 46.1836C82.6298 46.2357 82.9195 46.2617 83.2581 46.2617H85.1428C86.3082 46.2617 87.2001 46.5059 87.8186 46.9941C88.4436 47.4824 88.7561 48.1953 88.7561 49.1328C88.7561 50.3177 88.2743 51.2259 87.3108 51.8574C86.3472 52.4889 84.954 52.8047 83.1311 52.8047ZM83.1799 51.5352C84.0653 51.5352 84.7978 51.444 85.3772 51.2617C85.9631 51.0859 86.3993 50.8288 86.6858 50.4902C86.9788 50.1582 87.1252 49.7611 87.1252 49.2988C87.1252 48.8691 87.0276 48.5436 86.8323 48.3223C86.637 48.1074 86.3505 47.9642 85.9729 47.8926C85.5953 47.8145 85.1331 47.7754 84.5862 47.7754H82.7307C82.2489 47.7754 81.829 47.8503 81.4709 48C81.1129 48.1497 80.8362 48.3711 80.6409 48.6641C80.4521 48.957 80.3577 49.3216 80.3577 49.7578C80.3577 50.3372 80.6018 50.7767 81.0901 51.0762C81.5784 51.3822 82.275 51.5352 83.1799 51.5352ZM83.5999 42.9805C84.3746 42.9805 84.9573 42.7852 85.3479 42.3945C85.7385 42.0039 85.9338 41.4342 85.9338 40.6855C85.9338 39.8848 85.7353 39.2858 85.3381 38.8887C84.941 38.485 84.3551 38.2832 83.5803 38.2832C82.8381 38.2832 82.2652 38.4915 81.8616 38.9082C81.4644 39.3184 81.2659 39.9206 81.2659 40.7148C81.2659 41.444 81.4677 42.0039 81.8713 42.3945C82.275 42.7852 82.8512 42.9805 83.5999 42.9805ZM97.926 45.0703C97.926 45.7539 97.7535 46.3301 97.4084 46.7988C97.0699 47.2611 96.5816 47.6094 95.9436 47.8438C95.3121 48.0781 94.5569 48.1953 93.678 48.1953C92.9293 48.1953 92.2815 48.1367 91.7346 48.0195C91.1877 47.9023 90.7092 47.7363 90.2991 47.5215V46.0273C90.7353 46.2422 91.2561 46.4375 91.8616 46.6133C92.467 46.7891 93.0855 46.877 93.717 46.877C94.6415 46.877 95.3121 46.7272 95.7288 46.4277C96.1454 46.1283 96.3538 45.7214 96.3538 45.207C96.3538 44.9141 96.2691 44.6569 96.0999 44.4355C95.9371 44.2077 95.6604 43.9896 95.2698 43.7812C94.8792 43.5664 94.3388 43.332 93.6487 43.0781C92.9651 42.8177 92.3726 42.5605 91.8713 42.3066C91.3765 42.0462 90.9924 41.7305 90.719 41.3594C90.4521 40.9883 90.3186 40.5065 90.3186 39.9141C90.3186 39.0091 90.6832 38.3158 91.4124 37.834C92.148 37.3457 93.1116 37.1016 94.303 37.1016C94.9475 37.1016 95.5497 37.1667 96.1096 37.2969C96.676 37.4206 97.2034 37.5898 97.6917 37.8047L97.1448 39.1035C96.7021 38.9147 96.2301 38.7552 95.7288 38.625C95.2275 38.4948 94.7164 38.4297 94.1956 38.4297C93.4469 38.4297 92.8707 38.5534 92.467 38.8008C92.0699 39.0482 91.8713 39.3867 91.8713 39.8164C91.8713 40.1484 91.9625 40.4219 92.1448 40.6367C92.3336 40.8516 92.6331 41.0534 93.0432 41.2422C93.4534 41.431 93.9937 41.6523 94.6643 41.9062C95.3349 42.1536 95.9143 42.4108 96.4026 42.6777C96.8909 42.9382 97.2652 43.2572 97.5256 43.6348C97.7926 44.0059 97.926 44.4844 97.926 45.0703ZM103.99 46.8672C104.257 46.8672 104.531 46.8444 104.811 46.7988C105.091 46.7533 105.319 46.6979 105.494 46.6328V47.8926C105.306 47.9772 105.042 48.0488 104.703 48.1074C104.371 48.166 104.046 48.1953 103.727 48.1953C103.16 48.1953 102.646 48.0977 102.184 47.9023C101.722 47.7005 101.351 47.362 101.071 46.8867C100.797 46.4115 100.66 45.7539 100.66 44.9141V38.5664H99.137V37.7754L100.67 37.1406L101.315 34.8164H102.291V37.2969H105.426V38.5664H102.291V44.8652C102.291 45.5358 102.444 46.0371 102.75 46.3691C103.063 46.7012 103.476 46.8672 103.99 46.8672ZM116.891 42.6289C116.891 43.5078 116.777 44.2923 116.549 44.9824C116.321 45.6725 115.992 46.2552 115.563 46.7305C115.133 47.2057 114.612 47.5703 114 47.8242C113.395 48.0716 112.708 48.1953 111.94 48.1953C111.224 48.1953 110.566 48.0716 109.967 47.8242C109.375 47.5703 108.86 47.2057 108.424 46.7305C107.994 46.2552 107.659 45.6725 107.418 44.9824C107.184 44.2923 107.067 43.5078 107.067 42.6289C107.067 41.457 107.265 40.4609 107.662 39.6406C108.059 38.8138 108.626 38.1855 109.362 37.7559C110.104 37.3197 110.986 37.1016 112.008 37.1016C112.985 37.1016 113.837 37.3197 114.567 37.7559C115.302 38.1921 115.872 38.8236 116.276 39.6504C116.686 40.4707 116.891 41.4635 116.891 42.6289ZM108.746 42.6289C108.746 43.4883 108.86 44.2337 109.088 44.8652C109.316 45.4967 109.668 45.985 110.143 46.3301C110.618 46.6751 111.23 46.8477 111.979 46.8477C112.721 46.8477 113.33 46.6751 113.805 46.3301C114.287 45.985 114.642 45.4967 114.869 44.8652C115.097 44.2337 115.211 43.4883 115.211 42.6289C115.211 41.776 115.097 41.0404 114.869 40.4219C114.642 39.7969 114.29 39.3151 113.815 38.9766C113.339 38.638 112.724 38.4688 111.969 38.4688C110.856 38.4688 110.039 38.8366 109.518 39.5723C109.003 40.3079 108.746 41.3268 108.746 42.6289ZM124.762 37.1016C126.031 37.1016 126.992 37.4141 127.643 38.0391C128.294 38.6576 128.619 39.6536 128.619 41.0273V48H127.018V41.1348C127.018 40.2428 126.813 39.5755 126.403 39.1328C125.999 38.6901 125.377 38.4688 124.537 38.4688C123.352 38.4688 122.519 38.804 122.037 39.4746C121.556 40.1452 121.315 41.1185 121.315 42.3945V48H119.694V37.2969H121.002L121.246 38.8398H121.334C121.562 38.4622 121.852 38.1465 122.203 37.8926C122.555 37.6322 122.949 37.4368 123.385 37.3066C123.821 37.1699 124.28 37.1016 124.762 37.1016ZM133.815 45.6758L133.942 45.9004C133.824 46.3757 133.675 46.8835 133.492 47.4238C133.317 47.9642 133.121 48.5046 132.906 49.0449C132.698 49.5918 132.487 50.1029 132.272 50.5781H131.061C131.198 50.0573 131.331 49.5072 131.461 48.9277C131.591 48.3548 131.709 47.7884 131.813 47.2285C131.923 46.6621 132.011 46.1445 132.076 45.6758H133.815ZM153.737 48H151.823L144.039 36.0078H143.961C143.981 36.3268 144.003 36.6914 144.03 37.1016C144.056 37.5052 144.075 37.9382 144.088 38.4004C144.108 38.8561 144.117 39.3216 144.117 39.7969V48H142.574V33.7227H144.479L152.233 45.6758H152.301C152.288 45.4479 152.272 45.1257 152.252 44.709C152.233 44.2858 152.213 43.8333 152.194 43.3516C152.181 42.8633 152.174 42.4108 152.174 41.9941V33.7227H153.737V48ZM161.276 40.8809L165.074 33.7227H166.862L162.106 42.4629V48H160.446V42.541L155.68 33.7227H157.496L161.276 40.8809ZM179.088 48H177.506V37.8828C177.506 37.4987 177.506 37.1699 177.506 36.8965C177.513 36.6165 177.519 36.3626 177.526 36.1348C177.539 35.9004 177.555 35.6628 177.574 35.4219C177.373 35.6302 177.184 35.8092 177.008 35.959C176.832 36.1022 176.614 36.2812 176.354 36.4961L174.723 37.8047L173.873 36.7012L177.74 33.7227H179.088V48ZM193.854 48H184.498V46.6426L188.317 42.7656C189.026 42.0495 189.622 41.4115 190.104 40.8516C190.592 40.2917 190.963 39.7415 191.217 39.2012C191.471 38.6543 191.598 38.0553 191.598 37.4043C191.598 36.597 191.357 35.9818 190.875 35.5586C190.4 35.1289 189.772 34.9141 188.99 34.9141C188.307 34.9141 187.701 35.0312 187.174 35.2656C186.647 35.5 186.106 35.832 185.553 36.2617L184.684 35.168C185.061 34.849 185.472 34.5658 185.914 34.3184C186.364 34.071 186.842 33.8757 187.35 33.7324C187.864 33.5892 188.411 33.5176 188.99 33.5176C189.869 33.5176 190.628 33.6706 191.266 33.9766C191.904 34.2826 192.395 34.7188 192.74 35.2852C193.092 35.8516 193.268 36.5254 193.268 37.3066C193.268 38.0618 193.118 38.765 192.819 39.416C192.519 40.0605 192.099 40.7018 191.559 41.3398C191.018 41.9714 190.387 42.6419 189.664 43.3516L186.559 46.4473V46.5156H193.854V48ZM206.012 44.6895H203.873V48H202.291V44.6895H195.387V43.3223L202.184 33.6445H203.873V43.2246H206.012V44.6895ZM202.291 43.2246V38.5566C202.291 38.1986 202.295 37.8763 202.301 37.5898C202.308 37.2969 202.317 37.0267 202.33 36.7793C202.343 36.5254 202.353 36.2845 202.36 36.0566C202.373 35.8288 202.382 35.6042 202.389 35.3828H202.311C202.187 35.6432 202.044 35.9199 201.881 36.2129C201.725 36.4993 201.565 36.7565 201.403 36.9844L196.998 43.2246H202.291ZM216.823 40.8418C216.823 42.0007 216.735 43.0358 216.559 43.9473C216.383 44.8587 216.106 45.6302 215.729 46.2617C215.351 46.8932 214.863 47.375 214.264 47.707C213.665 48.0326 212.946 48.1953 212.106 48.1953C211.045 48.1953 210.166 47.9056 209.469 47.3262C208.779 46.7467 208.261 45.9102 207.916 44.8164C207.578 43.7161 207.408 42.3913 207.408 40.8418C207.408 39.3184 207.561 38.0098 207.867 36.916C208.18 35.8158 208.681 34.9727 209.371 34.3867C210.061 33.7943 210.973 33.498 212.106 33.498C213.18 33.498 214.065 33.791 214.762 34.377C215.459 34.9564 215.976 35.7962 216.315 36.8965C216.653 37.9902 216.823 39.3053 216.823 40.8418ZM209.039 40.8418C209.039 42.1699 209.14 43.2767 209.342 44.1621C209.544 45.0475 209.869 45.7116 210.319 46.1543C210.774 46.5905 211.37 46.8086 212.106 46.8086C212.841 46.8086 213.434 46.5905 213.883 46.1543C214.339 45.7181 214.668 45.0573 214.869 44.1719C215.078 43.2865 215.182 42.1764 215.182 40.8418C215.182 39.5332 215.081 38.4395 214.879 37.5605C214.677 36.6751 214.352 36.0111 213.903 35.5684C213.453 35.1191 212.854 34.8945 212.106 34.8945C211.357 34.8945 210.758 35.1191 210.309 35.5684C209.86 36.0111 209.534 36.6751 209.332 37.5605C209.137 38.4395 209.039 39.5332 209.039 40.8418ZM224.869 48H223.287V37.8828C223.287 37.4987 223.287 37.1699 223.287 36.8965C223.294 36.6165 223.3 36.3626 223.307 36.1348C223.32 35.9004 223.336 35.6628 223.356 35.4219C223.154 35.6302 222.965 35.8092 222.789 35.959C222.614 36.1022 222.395 36.2812 222.135 36.4961L220.504 37.8047L219.655 36.7012L223.522 33.7227H224.869V48Z" fill="white"/>
</svg>
