<svg width="527" height="76" viewBox="0 0 527 76" fill="none" xmlns="http://www.w3.org/2000/svg">
<path d="M19.4324 46.0968L21.0517 42.8581V34.5316C23.8385 33.8078 25.9096 31.293 25.9096 28.2843C25.9096 24.7121 23.0046 21.807 19.4324 21.807C15.8601 21.807 12.9551 24.7121 12.9551 28.2843C12.9551 31.293 15.0262 33.8078 17.813 34.5316V42.8581L19.4324 46.0968Z" fill="white"/>
<path d="M26.3421 35.6729L25.479 38.7949C29.6746 39.9544 32.387 42.1842 32.387 44.4771C32.387 47.5409 27.0675 50.9544 19.4324 50.9544C11.7974 50.9544 6.47789 47.5409 6.47789 44.4771C6.47789 42.1842 9.19025 39.9544 13.3875 38.7933L12.5244 35.6713C6.7969 37.255 3.23926 40.628 3.23926 44.4771C3.23926 49.9245 10.3529 54.193 19.4324 54.193C28.512 54.193 35.6256 49.9245 35.6256 44.4771C35.6256 40.628 32.068 37.255 26.3421 35.6729Z" fill="white"/>
<path d="M96.4497 21.4551C96.4497 20.252 96.5317 19.0762 96.6958 17.9277C96.869 16.7793 97.1561 15.7129 97.5571 14.7285C97.9582 13.735 98.505 12.8646 99.1978 12.1172C99.8905 11.3698 100.752 10.7865 101.782 10.3672C102.821 9.9388 104.065 9.72461 105.514 9.72461C105.924 9.72461 106.366 9.7474 106.84 9.79297C107.314 9.82943 107.706 9.89323 108.016 9.98438V11.9395C107.679 11.821 107.292 11.7344 106.854 11.6797C106.426 11.625 105.993 11.5977 105.555 11.5977C103.86 11.5977 102.525 11.9668 101.549 12.7051C100.583 13.4434 99.8859 14.446 99.4575 15.7129C99.0291 16.9707 98.783 18.388 98.7192 19.9648H98.8696C99.1522 19.5091 99.5122 19.099 99.9497 18.7344C100.387 18.3607 100.916 18.0645 101.536 17.8457C102.165 17.627 102.894 17.5176 103.723 17.5176C104.89 17.5176 105.906 17.7546 106.772 18.2285C107.647 18.7025 108.321 19.3906 108.795 20.293C109.278 21.1953 109.52 22.2891 109.52 23.5742C109.52 24.9505 109.265 26.14 108.754 27.1426C108.244 28.1452 107.515 28.9199 106.567 29.4668C105.628 30.0046 104.507 30.2734 103.204 30.2734C102.228 30.2734 101.331 30.0866 100.51 29.7129C99.6899 29.3392 98.9744 28.7832 98.3638 28.0449C97.7622 27.3066 97.2928 26.3906 96.9556 25.2969C96.6183 24.194 96.4497 22.9134 96.4497 21.4551ZM103.176 28.3594C104.416 28.3594 105.409 27.9629 106.157 27.1699C106.904 26.377 107.278 25.1784 107.278 23.5742C107.278 22.2617 106.945 21.2227 106.28 20.457C105.614 19.6914 104.612 19.3086 103.272 19.3086C102.361 19.3086 101.568 19.5 100.893 19.8828C100.219 20.2565 99.6945 20.7305 99.3208 21.3047C98.9471 21.8789 98.7603 22.4622 98.7603 23.0547C98.7603 23.6562 98.8468 24.2669 99.02 24.8867C99.2023 25.5065 99.4757 26.0807 99.8403 26.6094C100.205 27.138 100.665 27.5618 101.221 27.8809C101.777 28.1999 102.429 28.3594 103.176 28.3594ZM124.627 14.6738C124.627 15.5671 124.454 16.3418 124.108 16.998C123.762 17.6543 123.278 18.1921 122.659 18.6113C122.039 19.0215 121.31 19.3086 120.471 19.4727V19.582C122.057 19.7826 123.247 20.293 124.04 21.1133C124.842 21.9336 125.243 23.0091 125.243 24.3398C125.243 25.4974 124.969 26.5228 124.422 27.416C123.885 28.3092 123.055 29.0111 121.934 29.5215C120.822 30.0228 119.396 30.2734 117.655 30.2734C116.597 30.2734 115.618 30.1868 114.715 30.0137C113.822 29.8496 112.965 29.5716 112.145 29.1797V27.0469C112.974 27.457 113.877 27.7806 114.852 28.0176C115.827 28.2454 116.771 28.3594 117.682 28.3594C119.505 28.3594 120.822 27.9993 121.633 27.2793C122.444 26.5501 122.85 25.5566 122.85 24.2988C122.85 23.4329 122.622 22.7357 122.167 22.207C121.72 21.6693 121.073 21.2773 120.225 21.0312C119.387 20.776 118.375 20.6484 117.19 20.6484H115.194V18.707H117.204C118.288 18.707 119.209 18.5475 119.965 18.2285C120.722 17.9095 121.296 17.4629 121.688 16.8887C122.089 16.3053 122.29 15.6172 122.29 14.8242C122.29 13.8125 121.952 13.0332 121.278 12.4863C120.603 11.9303 119.687 11.6523 118.53 11.6523C117.819 11.6523 117.172 11.7253 116.588 11.8711C116.005 12.0169 115.458 12.2174 114.948 12.4727C114.437 12.7279 113.927 13.0241 113.417 13.3613L112.268 11.8027C112.997 11.2376 113.886 10.75 114.934 10.3398C115.982 9.92969 117.172 9.72461 118.502 9.72461C120.544 9.72461 122.075 10.1895 123.096 11.1191C124.117 12.0488 124.627 13.2337 124.627 14.6738ZM134.034 35.2637C133.578 35.2637 133.177 35.2318 132.831 35.168C132.484 35.1042 132.188 35.0176 131.942 34.9082V32.9258C132.234 33.0169 132.548 33.0853 132.885 33.1309C133.222 33.1855 133.587 33.2129 133.979 33.2129C134.489 33.2129 134.959 33.1126 135.387 32.9121C135.816 32.7116 136.157 32.3698 136.413 31.8867C136.668 31.4036 136.795 30.7383 136.795 29.8906V10.0117H139.133V29.7129C139.133 30.9616 138.924 31.9961 138.504 32.8164C138.094 33.6367 137.506 34.2474 136.741 34.6484C135.984 35.0586 135.082 35.2637 134.034 35.2637ZM157.016 22.4805C157.016 23.7109 156.857 24.8092 156.538 25.7754C156.219 26.7415 155.758 27.5573 155.157 28.2227C154.555 28.888 153.826 29.3984 152.969 29.7539C152.122 30.1003 151.16 30.2734 150.084 30.2734C149.082 30.2734 148.161 30.1003 147.323 29.7539C146.493 29.3984 145.773 28.888 145.163 28.2227C144.561 27.5573 144.092 26.7415 143.754 25.7754C143.426 24.8092 143.262 23.7109 143.262 22.4805C143.262 20.8398 143.54 19.4453 144.096 18.2969C144.652 17.1393 145.445 16.2598 146.475 15.6582C147.514 15.0475 148.749 14.7422 150.18 14.7422C151.547 14.7422 152.741 15.0475 153.762 15.6582C154.792 16.2689 155.59 17.153 156.155 18.3105C156.729 19.459 157.016 20.849 157.016 22.4805ZM145.614 22.4805C145.614 23.6836 145.773 24.7272 146.092 25.6113C146.411 26.4954 146.903 27.179 147.569 27.6621C148.234 28.1452 149.091 28.3867 150.139 28.3867C151.178 28.3867 152.03 28.1452 152.696 27.6621C153.37 27.179 153.867 26.4954 154.186 25.6113C154.505 24.7272 154.665 23.6836 154.665 22.4805C154.665 21.2865 154.505 20.2565 154.186 19.3906C153.867 18.5156 153.375 17.8411 152.709 17.3672C152.044 16.8932 151.183 16.6562 150.125 16.6562C148.567 16.6562 147.423 17.1712 146.694 18.2012C145.974 19.2311 145.614 20.6576 145.614 22.4805ZM163.209 8.72656V15.084C163.209 15.4486 163.2 15.8177 163.182 16.1914C163.164 16.556 163.132 16.8932 163.086 17.2031H163.237C163.547 16.6745 163.939 16.2324 164.413 15.877C164.896 15.5124 165.443 15.2389 166.053 15.0566C166.664 14.8652 167.311 14.7695 167.995 14.7695C169.198 14.7695 170.2 14.9609 171.002 15.3438C171.814 15.7266 172.42 16.319 172.821 17.1211C173.231 17.9232 173.436 18.9622 173.436 20.2383V30H171.194V20.3887C171.194 19.14 170.907 18.2057 170.333 17.5859C169.767 16.9661 168.897 16.6562 167.721 16.6562C166.609 16.6562 165.721 16.8704 165.055 17.2988C164.399 17.7181 163.925 18.3379 163.633 19.1582C163.351 19.9785 163.209 20.9811 163.209 22.166V30H160.94V8.72656H163.209ZM185.208 14.7422C186.985 14.7422 188.329 15.1797 189.241 16.0547C190.152 16.9206 190.608 18.3151 190.608 20.2383V30H188.366V20.3887C188.366 19.14 188.079 18.2057 187.504 17.5859C186.939 16.9661 186.069 16.6562 184.893 16.6562C183.234 16.6562 182.068 17.1257 181.393 18.0645C180.719 19.0033 180.381 20.3659 180.381 22.1523V30H178.112V15.0156H179.944L180.286 17.1758H180.409C180.728 16.6471 181.133 16.2051 181.625 15.8496C182.118 15.485 182.669 15.2116 183.28 15.0293C183.89 14.8379 184.533 14.7422 185.208 14.7422ZM214.178 24.6816C214.178 25.8665 213.882 26.8783 213.29 27.7168C212.706 28.5462 211.886 29.1797 210.829 29.6172C209.771 30.0547 208.527 30.2734 207.096 30.2734C206.34 30.2734 205.624 30.237 204.95 30.1641C204.275 30.0911 203.655 29.9863 203.09 29.8496C202.525 29.7129 202.028 29.5443 201.6 29.3438V27.1152C202.284 27.3978 203.118 27.6621 204.102 27.9082C205.086 28.1452 206.116 28.2637 207.192 28.2637C208.194 28.2637 209.042 28.1315 209.735 27.8672C210.428 27.5938 210.952 27.2064 211.307 26.7051C211.672 26.1947 211.854 25.584 211.854 24.873C211.854 24.1895 211.704 23.6198 211.403 23.1641C211.102 22.6992 210.601 22.2799 209.899 21.9062C209.206 21.5234 208.258 21.1178 207.055 20.6895C206.208 20.3887 205.46 20.0605 204.813 19.7051C204.166 19.3405 203.624 18.9303 203.186 18.4746C202.749 18.0189 202.416 17.4902 202.188 16.8887C201.969 16.2871 201.86 15.599 201.86 14.8242C201.86 13.7578 202.129 12.8464 202.667 12.0898C203.213 11.3242 203.965 10.7409 204.922 10.3398C205.889 9.92969 206.996 9.72461 208.245 9.72461C209.311 9.72461 210.295 9.82487 211.198 10.0254C212.109 10.2259 212.943 10.4948 213.7 10.832L212.975 12.8281C212.255 12.5273 211.489 12.2767 210.678 12.0762C209.876 11.8757 209.047 11.7754 208.19 11.7754C207.333 11.7754 206.609 11.903 206.016 12.1582C205.433 12.4043 204.986 12.7552 204.676 13.2109C204.366 13.6667 204.211 14.209 204.211 14.8379C204.211 15.5397 204.357 16.123 204.649 16.5879C204.95 17.0527 205.424 17.4674 206.071 17.832C206.727 18.1875 207.593 18.5612 208.668 18.9531C209.844 19.3815 210.842 19.8372 211.663 20.3203C212.483 20.7943 213.107 21.3776 213.536 22.0703C213.964 22.7539 214.178 23.6243 214.178 24.6816ZM222.764 28.4141C223.138 28.4141 223.521 28.3822 223.913 28.3184C224.305 28.2546 224.624 28.1771 224.87 28.0859V29.8496C224.605 29.9681 224.236 30.0684 223.762 30.1504C223.297 30.2324 222.842 30.2734 222.395 30.2734C221.602 30.2734 220.882 30.1367 220.235 29.8633C219.588 29.5807 219.068 29.1068 218.676 28.4414C218.293 27.776 218.102 26.8555 218.102 25.6797V16.793H215.969V15.6855L218.116 14.7969L219.018 11.543H220.385V15.0156H224.774V16.793H220.385V25.6113C220.385 26.5501 220.599 27.252 221.028 27.7168C221.465 28.1816 222.044 28.4141 222.764 28.4141ZM234.713 14.7422C235.014 14.7422 235.329 14.7604 235.657 14.7969C235.985 14.8242 236.277 14.8652 236.532 14.9199L236.245 17.0254C235.999 16.9616 235.725 16.9115 235.424 16.875C235.124 16.8385 234.841 16.8203 234.577 16.8203C233.975 16.8203 233.405 16.9434 232.868 17.1895C232.339 17.4264 231.874 17.7728 231.473 18.2285C231.072 18.6751 230.758 19.2174 230.53 19.8555C230.302 20.4844 230.188 21.1862 230.188 21.9609V30H227.905V15.0156H229.792L230.038 17.7773H230.133C230.443 17.2214 230.817 16.7155 231.254 16.2598C231.692 15.7949 232.198 15.4258 232.772 15.1523C233.355 14.8789 234.002 14.7422 234.713 14.7422ZM245.131 14.7422C246.407 14.7422 247.501 15.0247 248.413 15.5898C249.324 16.1549 250.021 16.9479 250.504 17.9688C250.987 18.9805 251.229 20.1654 251.229 21.5234V22.9316H240.879C240.907 24.6908 241.344 26.0306 242.192 26.9512C243.04 27.8717 244.234 28.332 245.774 28.332C246.722 28.332 247.56 28.2454 248.29 28.0723C249.019 27.8991 249.775 27.6439 250.559 27.3066V29.3027C249.803 29.64 249.051 29.8861 248.303 30.041C247.565 30.196 246.69 30.2734 245.678 30.2734C244.238 30.2734 242.98 29.9818 241.905 29.3984C240.838 28.806 240.009 27.9401 239.417 26.8008C238.824 25.6615 238.528 24.2669 238.528 22.6172C238.528 21.0039 238.797 19.6094 239.334 18.4336C239.881 17.2487 240.647 16.3372 241.631 15.6992C242.625 15.0612 243.792 14.7422 245.131 14.7422ZM245.104 16.6016C243.892 16.6016 242.926 16.998 242.206 17.791C241.486 18.584 241.057 19.6914 240.92 21.1133H248.85C248.841 20.2201 248.7 19.4362 248.426 18.7617C248.162 18.0781 247.756 17.5495 247.209 17.1758C246.663 16.793 245.961 16.6016 245.104 16.6016ZM260.854 14.7422C262.13 14.7422 263.224 15.0247 264.135 15.5898C265.047 16.1549 265.744 16.9479 266.227 17.9688C266.71 18.9805 266.952 20.1654 266.952 21.5234V22.9316H256.602C256.629 24.6908 257.067 26.0306 257.915 26.9512C258.762 27.8717 259.956 28.332 261.497 28.332C262.444 28.332 263.283 28.2454 264.012 28.0723C264.741 27.8991 265.498 27.6439 266.282 27.3066V29.3027C265.525 29.64 264.773 29.8861 264.026 30.041C263.288 30.196 262.413 30.2734 261.401 30.2734C259.961 30.2734 258.703 29.9818 257.627 29.3984C256.561 28.806 255.732 27.9401 255.139 26.8008C254.547 25.6615 254.25 24.2669 254.25 22.6172C254.25 21.0039 254.519 19.6094 255.057 18.4336C255.604 17.2487 256.37 16.3372 257.354 15.6992C258.347 15.0612 259.514 14.7422 260.854 14.7422ZM260.827 16.6016C259.614 16.6016 258.648 16.998 257.928 17.791C257.208 18.584 256.78 19.6914 256.643 21.1133H264.573C264.564 20.2201 264.422 19.4362 264.149 18.7617C263.885 18.0781 263.479 17.5495 262.932 17.1758C262.385 16.793 261.683 16.6016 260.827 16.6016ZM275.647 28.4141C276.021 28.4141 276.403 28.3822 276.795 28.3184C277.187 28.2546 277.506 28.1771 277.752 28.0859V29.8496C277.488 29.9681 277.119 30.0684 276.645 30.1504C276.18 30.2324 275.724 30.2734 275.278 30.2734C274.485 30.2734 273.765 30.1367 273.118 29.8633C272.471 29.5807 271.951 29.1068 271.559 28.4414C271.176 27.776 270.985 26.8555 270.985 25.6797V16.793H268.852V15.6855L270.999 14.7969L271.901 11.543H273.268V15.0156H277.657V16.793H273.268V25.6113C273.268 26.5501 273.482 27.252 273.911 27.7168C274.348 28.1816 274.927 28.4141 275.647 28.4141ZM299.067 17.709L298.178 22.3574H302.047V24.0938H297.836L296.674 30H294.829L295.991 24.0938H291.821L290.7 30H288.881L289.961 24.0938H286.379V22.3574H290.303L291.219 17.709H287.418V16H291.534L292.668 10.0117H294.542L293.407 16H297.604L298.739 10.0117H300.543L299.409 16H303.032V17.709H299.067ZM292.149 22.3574H296.319L297.221 17.709H293.051L292.149 22.3574ZM317.51 14.6738C317.51 15.5671 317.337 16.3418 316.991 16.998C316.644 17.6543 316.161 18.1921 315.542 18.6113C314.922 19.0215 314.193 19.3086 313.354 19.4727V19.582C314.94 19.7826 316.129 20.293 316.922 21.1133C317.724 21.9336 318.125 23.0091 318.125 24.3398C318.125 25.4974 317.852 26.5228 317.305 27.416C316.767 28.3092 315.938 29.0111 314.817 29.5215C313.705 30.0228 312.278 30.2734 310.538 30.2734C309.48 30.2734 308.5 30.1868 307.598 30.0137C306.705 29.8496 305.848 29.5716 305.028 29.1797V27.0469C305.857 27.457 306.76 27.7806 307.735 28.0176C308.71 28.2454 309.653 28.3594 310.565 28.3594C312.388 28.3594 313.705 27.9993 314.516 27.2793C315.327 26.5501 315.733 25.5566 315.733 24.2988C315.733 23.4329 315.505 22.7357 315.049 22.207C314.603 21.6693 313.956 21.2773 313.108 21.0312C312.269 20.776 311.258 20.6484 310.073 20.6484H308.077V18.707H310.086C311.171 18.707 312.092 18.5475 312.848 18.2285C313.605 17.9095 314.179 17.4629 314.571 16.8887C314.972 16.3053 315.172 15.6172 315.172 14.8242C315.172 13.8125 314.835 13.0332 314.161 12.4863C313.486 11.9303 312.57 11.6523 311.413 11.6523C310.702 11.6523 310.055 11.7253 309.471 11.8711C308.888 12.0169 308.341 12.2174 307.831 12.4727C307.32 12.7279 306.81 13.0241 306.299 13.3613L305.151 11.8027C305.88 11.2376 306.769 10.75 307.817 10.3398C308.865 9.92969 310.055 9.72461 311.385 9.72461C313.427 9.72461 314.958 10.1895 315.979 11.1191C317 12.0488 317.51 13.2337 317.51 14.6738ZM112.008 68H109.26L102.055 58.2793L99.9224 60.1934V68H97.5981V48.0117H99.9224V57.9785C100.442 57.3861 100.975 56.7982 101.522 56.2148C102.069 55.6224 102.611 55.0254 103.149 54.4238L108.987 48.0117H111.708L103.75 56.6797L112.008 68ZM116.67 53.0156V68H114.401V53.0156H116.67ZM115.563 47.4102C115.937 47.4102 116.256 47.5332 116.52 47.7793C116.793 48.0163 116.93 48.39 116.93 48.9004C116.93 49.4017 116.793 49.7754 116.52 50.0215C116.256 50.2676 115.937 50.3906 115.563 50.3906C115.171 50.3906 114.843 50.2676 114.579 50.0215C114.323 49.7754 114.196 49.4017 114.196 48.9004C114.196 48.39 114.323 48.0163 114.579 47.7793C114.843 47.5332 115.171 47.4102 115.563 47.4102ZM128.579 52.7422C130.356 52.7422 131.7 53.1797 132.612 54.0547C133.523 54.9206 133.979 56.3151 133.979 58.2383V68H131.737V58.3887C131.737 57.14 131.45 56.2057 130.875 55.5859C130.31 54.9661 129.44 54.6562 128.264 54.6562C126.605 54.6562 125.439 55.1257 124.764 56.0645C124.09 57.0033 123.752 58.3659 123.752 60.1523V68H121.483V53.0156H123.315L123.657 55.1758H123.78C124.099 54.6471 124.504 54.2051 124.997 53.8496C125.489 53.485 126.04 53.2116 126.651 53.0293C127.262 52.8379 127.904 52.7422 128.579 52.7422ZM142.838 74.7266C140.87 74.7266 139.352 74.3574 138.286 73.6191C137.219 72.89 136.686 71.8646 136.686 70.543C136.686 69.6042 136.982 68.8021 137.575 68.1367C138.176 67.4714 139.006 67.0293 140.063 66.8105C139.671 66.6283 139.334 66.3548 139.051 65.9902C138.778 65.6257 138.641 65.2064 138.641 64.7324C138.641 64.1855 138.792 63.707 139.092 63.2969C139.402 62.8776 139.872 62.4766 140.5 62.0938C139.717 61.7747 139.079 61.237 138.586 60.4805C138.103 59.7148 137.862 58.8262 137.862 57.8145C137.862 56.7389 138.085 55.8229 138.532 55.0664C138.978 54.3008 139.625 53.7174 140.473 53.3164C141.321 52.9154 142.346 52.7148 143.549 52.7148C143.814 52.7148 144.078 52.7285 144.342 52.7559C144.616 52.7741 144.875 52.806 145.122 52.8516C145.368 52.888 145.582 52.9336 145.764 52.9883H150.905V54.4512L148.143 54.793C148.417 55.1484 148.644 55.5768 148.827 56.0781C149.009 56.5794 149.1 57.1354 149.1 57.7461C149.1 59.2409 148.594 60.4303 147.583 61.3145C146.571 62.1895 145.181 62.627 143.413 62.627C142.993 62.627 142.565 62.5905 142.127 62.5176C141.681 62.7637 141.339 63.0371 141.102 63.3379C140.874 63.6387 140.76 63.985 140.76 64.377C140.76 64.6686 140.847 64.901 141.02 65.0742C141.202 65.2474 141.462 65.375 141.799 65.457C142.137 65.5299 142.542 65.5664 143.016 65.5664H145.655C147.286 65.5664 148.535 65.9082 149.401 66.5918C150.276 67.2754 150.713 68.2734 150.713 69.5859C150.713 71.2448 150.039 72.5163 148.69 73.4004C147.341 74.2845 145.39 74.7266 142.838 74.7266ZM142.907 72.9492C144.146 72.9492 145.172 72.8216 145.983 72.5664C146.803 72.3203 147.414 71.9603 147.815 71.4863C148.225 71.0215 148.43 70.4655 148.43 69.8184C148.43 69.2168 148.293 68.7611 148.02 68.4512C147.747 68.1504 147.346 67.9499 146.817 67.8496C146.288 67.7402 145.641 67.6855 144.875 67.6855H142.278C141.603 67.6855 141.015 67.7904 140.514 68C140.013 68.2096 139.625 68.5195 139.352 68.9297C139.088 69.3398 138.956 69.8503 138.956 70.4609C138.956 71.2721 139.297 71.8874 139.981 72.3066C140.665 72.735 141.64 72.9492 142.907 72.9492ZM143.495 60.9727C144.579 60.9727 145.395 60.6992 145.942 60.1523C146.489 59.6055 146.762 58.8079 146.762 57.7598C146.762 56.6387 146.484 55.8001 145.928 55.2441C145.372 54.679 144.552 54.3965 143.467 54.3965C142.428 54.3965 141.626 54.6882 141.061 55.2715C140.505 55.8457 140.227 56.6888 140.227 57.8008C140.227 58.8216 140.51 59.6055 141.075 60.1523C141.64 60.6992 142.446 60.9727 143.495 60.9727ZM163.551 63.8984C163.551 64.8555 163.31 65.6621 162.827 66.3184C162.353 66.9655 161.669 67.4531 160.776 67.7812C159.892 68.1094 158.834 68.2734 157.604 68.2734C156.556 68.2734 155.649 68.1914 154.883 68.0273C154.118 67.8633 153.448 67.6309 152.874 67.3301V65.2383C153.484 65.5391 154.213 65.8125 155.061 66.0586C155.909 66.3047 156.775 66.4277 157.659 66.4277C158.953 66.4277 159.892 66.2181 160.475 65.7988C161.058 65.3796 161.35 64.8099 161.35 64.0898C161.35 63.6797 161.232 63.3197 160.995 63.0098C160.767 62.6908 160.379 62.3854 159.833 62.0938C159.286 61.793 158.529 61.4648 157.563 61.1094C156.606 60.7448 155.777 60.3848 155.075 60.0293C154.382 59.6647 153.844 59.2227 153.461 58.7031C153.088 58.1836 152.901 57.5091 152.901 56.6797C152.901 55.4128 153.411 54.4421 154.432 53.7676C155.462 53.084 156.811 52.7422 158.479 52.7422C159.381 52.7422 160.224 52.8333 161.008 53.0156C161.801 53.1888 162.54 53.4258 163.223 53.7266L162.458 55.5449C161.838 55.2806 161.177 55.0573 160.475 54.875C159.773 54.6927 159.058 54.6016 158.329 54.6016C157.28 54.6016 156.474 54.7747 155.909 55.1211C155.353 55.4674 155.075 55.9414 155.075 56.543C155.075 57.0078 155.202 57.3906 155.458 57.6914C155.722 57.9922 156.141 58.2747 156.715 58.5391C157.29 58.8034 158.046 59.1133 158.985 59.4688C159.924 59.8151 160.735 60.1751 161.418 60.5488C162.102 60.9134 162.626 61.36 162.991 61.8887C163.364 62.4082 163.551 63.0781 163.551 63.8984ZM172.042 66.4141C172.415 66.4141 172.798 66.3822 173.19 66.3184C173.582 66.2546 173.901 66.1771 174.147 66.0859V67.8496C173.883 67.9681 173.514 68.0684 173.04 68.1504C172.575 68.2324 172.119 68.2734 171.672 68.2734C170.879 68.2734 170.159 68.1367 169.512 67.8633C168.865 67.5807 168.346 67.1068 167.954 66.4414C167.571 65.776 167.379 64.8555 167.379 63.6797V54.793H165.247V53.6855L167.393 52.7969L168.295 49.543H169.663V53.0156H174.051V54.793H169.663V63.6113C169.663 64.5501 169.877 65.252 170.305 65.7168C170.743 66.1816 171.321 66.4141 172.042 66.4141ZM190.102 60.4805C190.102 61.7109 189.943 62.8092 189.624 63.7754C189.305 64.7415 188.844 65.5573 188.243 66.2227C187.641 66.888 186.912 67.3984 186.055 67.7539C185.208 68.1003 184.246 68.2734 183.17 68.2734C182.168 68.2734 181.247 68.1003 180.409 67.7539C179.579 67.3984 178.859 66.888 178.249 66.2227C177.647 65.5573 177.178 64.7415 176.84 63.7754C176.512 62.8092 176.348 61.7109 176.348 60.4805C176.348 58.8398 176.626 57.4453 177.182 56.2969C177.738 55.1393 178.531 54.2598 179.561 53.6582C180.6 53.0475 181.835 52.7422 183.266 52.7422C184.633 52.7422 185.827 53.0475 186.848 53.6582C187.878 54.2689 188.676 55.153 189.241 56.3105C189.815 57.459 190.102 58.849 190.102 60.4805ZM178.7 60.4805C178.7 61.6836 178.859 62.7272 179.178 63.6113C179.497 64.4954 179.989 65.179 180.655 65.6621C181.32 66.1452 182.177 66.3867 183.225 66.3867C184.264 66.3867 185.116 66.1452 185.782 65.6621C186.456 65.179 186.953 64.4954 187.272 63.6113C187.591 62.7272 187.75 61.6836 187.75 60.4805C187.75 59.2865 187.591 58.2565 187.272 57.3906C186.953 56.5156 186.461 55.8411 185.795 55.3672C185.13 54.8932 184.269 54.6562 183.211 54.6562C181.653 54.6562 180.509 55.1712 179.78 56.2012C179.06 57.2311 178.7 58.6576 178.7 60.4805ZM201.122 52.7422C202.899 52.7422 204.243 53.1797 205.155 54.0547C206.066 54.9206 206.522 56.3151 206.522 58.2383V68H204.28V58.3887C204.28 57.14 203.993 56.2057 203.418 55.5859C202.853 54.9661 201.983 54.6562 200.807 54.6562C199.148 54.6562 197.982 55.1257 197.307 56.0645C196.633 57.0033 196.295 58.3659 196.295 60.1523V68H194.026V53.0156H195.858L196.2 55.1758H196.323C196.642 54.6471 197.047 54.2051 197.54 53.8496C198.032 53.485 198.583 53.2116 199.194 53.0293C199.805 52.8379 200.447 52.7422 201.122 52.7422ZM213.795 64.7461L213.973 65.0605C213.809 65.7259 213.599 66.4368 213.344 67.1934C213.098 67.9499 212.825 68.7064 212.524 69.4629C212.232 70.2285 211.936 70.944 211.635 71.6094H209.94C210.131 70.8802 210.318 70.11 210.5 69.2988C210.683 68.4967 210.847 67.7038 210.993 66.9199C211.148 66.127 211.271 65.4023 211.362 64.7461H213.795ZM241.686 68H239.006L228.11 51.2109H228C228.028 51.6576 228.06 52.168 228.096 52.7422C228.133 53.3073 228.16 53.9134 228.178 54.5605C228.206 55.1986 228.219 55.8503 228.219 56.5156V68H226.059V48.0117H228.725L239.581 64.7461H239.676C239.658 64.4271 239.635 63.9759 239.608 63.3926C239.581 62.8001 239.553 62.1667 239.526 61.4922C239.508 60.8086 239.499 60.1751 239.499 59.5918V48.0117H241.686V68ZM252.241 58.0332L257.559 48.0117H260.061L253.403 60.248V68H251.079V60.3574L244.407 48.0117H246.95L252.241 58.0332ZM277.178 68H274.963V53.8359C274.963 53.2982 274.963 52.8379 274.963 52.4551C274.972 52.0632 274.982 51.7077 274.991 51.3887C275.009 51.0605 275.032 50.7279 275.059 50.3906C274.777 50.6823 274.512 50.9329 274.266 51.1426C274.02 51.3431 273.715 51.5938 273.35 51.8945L271.067 53.7266L269.877 52.1816L275.292 48.0117H277.178V68ZM297.85 68H284.752V66.0996L290.098 60.6719C291.092 59.6693 291.926 58.776 292.6 57.9922C293.284 57.2083 293.803 56.4382 294.159 55.6816C294.514 54.916 294.692 54.0775 294.692 53.166C294.692 52.0358 294.355 51.1745 293.68 50.582C293.015 49.9805 292.135 49.6797 291.042 49.6797C290.084 49.6797 289.237 49.8438 288.499 50.1719C287.76 50.5 287.004 50.9648 286.229 51.5664L285.012 50.0352C285.541 49.5885 286.115 49.1921 286.735 48.8457C287.364 48.4993 288.034 48.2259 288.745 48.0254C289.465 47.8249 290.23 47.7246 291.042 47.7246C292.272 47.7246 293.334 47.9388 294.227 48.3672C295.12 48.7956 295.808 49.4062 296.292 50.1992C296.784 50.9922 297.03 51.9355 297.03 53.0293C297.03 54.0866 296.82 55.071 296.401 55.9824C295.982 56.8848 295.394 57.7826 294.637 58.6758C293.881 59.5599 292.997 60.4987 291.985 61.4922L287.637 65.8262V65.9219H297.85V68ZM314.872 63.3652H311.877V68H309.663V63.3652H299.997V61.4512L309.512 47.9023H311.877V61.3145H314.872V63.3652ZM309.663 61.3145V54.7793C309.663 54.278 309.667 53.8268 309.676 53.4258C309.685 53.0156 309.699 52.6374 309.717 52.291C309.736 51.9355 309.749 51.5983 309.758 51.2793C309.777 50.9603 309.79 50.6458 309.799 50.3359H309.69C309.517 50.7005 309.316 51.0879 309.088 51.498C308.87 51.8991 308.646 52.2591 308.418 52.5781L302.252 61.3145H309.663ZM330.006 57.9785C330.006 59.6009 329.883 61.0501 329.637 62.3262C329.391 63.6022 329.004 64.6823 328.475 65.5664C327.946 66.4505 327.263 67.125 326.424 67.5898C325.586 68.0456 324.579 68.2734 323.403 68.2734C321.917 68.2734 320.687 67.8678 319.711 67.0566C318.745 66.2454 318.021 65.0742 317.538 63.543C317.064 62.0026 316.827 60.1478 316.827 57.9785C316.827 55.8457 317.041 54.0137 317.469 52.4824C317.907 50.9421 318.609 49.7617 319.575 48.9414C320.541 48.112 321.817 47.6973 323.403 47.6973C324.907 47.6973 326.146 48.1074 327.122 48.9277C328.097 49.7389 328.821 50.9147 329.295 52.4551C329.769 53.9863 330.006 55.8275 330.006 57.9785ZM319.11 57.9785C319.11 59.8379 319.251 61.3874 319.534 62.627C319.816 63.8665 320.272 64.7962 320.901 65.416C321.539 66.0267 322.373 66.332 323.403 66.332C324.433 66.332 325.262 66.0267 325.891 65.416C326.529 64.8053 326.989 63.8802 327.272 62.6406C327.564 61.401 327.709 59.847 327.709 57.9785C327.709 56.1465 327.568 54.6152 327.286 53.3848C327.003 52.1452 326.547 51.2155 325.918 50.5957C325.29 49.9668 324.451 49.6523 323.403 49.6523C322.355 49.6523 321.516 49.9668 320.887 50.5957C320.258 51.2155 319.803 52.1452 319.52 53.3848C319.247 54.6152 319.11 56.1465 319.11 57.9785ZM341.272 68H339.057V53.8359C339.057 53.2982 339.057 52.8379 339.057 52.4551C339.066 52.0632 339.075 51.7077 339.084 51.3887C339.103 51.0605 339.125 50.7279 339.153 50.3906C338.87 50.6823 338.606 50.9329 338.36 51.1426C338.114 51.3431 337.808 51.5938 337.444 51.8945L335.161 53.7266L333.971 52.1816L339.385 48.0117H341.272V68Z" fill="white"/>
</svg>
