<svg xmlns="http://www.w3.org/2000/svg" width="174" height="28" fill="none"><path fill="#fff" d="m0 19.58 2.82-.27c.17.95.51 1.65 1.03 2.1.52.44 1.22.66 2.1.66.94 0 1.64-.2 2.11-.59.48-.4.72-.86.72-1.4 0-.34-.1-.62-.3-.86-.2-.24-.55-.45-1.05-.63-.33-.12-1.1-.33-2.32-.63-1.55-.39-2.64-.86-3.27-1.42a3.76 3.76 0 0 1-.7-4.96 3.92 3.92 0 0 1 1.79-1.47 7.2 7.2 0 0 1 2.83-.5c1.8 0 3.16.4 4.06 1.2a4.2 4.2 0 0 1 1.44 3.17l-2.9.13c-.12-.74-.39-1.28-.8-1.6-.4-.32-1.01-.49-1.83-.49-.84 0-1.5.18-1.98.52a1.1 1.1 0 0 0-.03 1.77c.37.31 1.26.63 2.67.97 1.4.33 2.45.68 3.12 1.04a3.95 3.95 0 0 1 2.17 3.75 4.26 4.26 0 0 1-2.63 3.94 8.1 8.1 0 0 1-3.12.52c-1.82 0-3.21-.42-4.19-1.26A5.52 5.52 0 0 1 0 19.58Zm16.04 4.69-3.3-10.44h2.68l1.95 6.84 1.79-6.84h2.65l1.74 6.84 1.99-6.84h2.71l-3.34 10.44h-2.65l-1.79-6.71-1.76 6.71h-2.68ZM29.7 12.42V9.86h2.76v2.56h-2.75Zm0 11.85V13.83h2.76v10.44h-2.75Zm10.36-10.44v2.2h-1.88v4.21c0 .85.02 1.35.05 1.5.04.13.12.25.25.34.13.1.28.14.47.14.25 0 .62-.09 1.1-.27l.24 2.15c-.64.27-1.37.4-2.18.4-.5 0-.94-.07-1.34-.24-.4-.17-.7-.38-.88-.65a2.65 2.65 0 0 1-.38-1.08 13.1 13.1 0 0 1-.09-1.94v-4.56h-1.26v-2.2h1.26v-2.07l2.76-1.62v3.7h1.88Zm10.98 3.09-2.71.49c-.1-.54-.3-.95-.63-1.23a1.85 1.85 0 0 0-1.25-.41c-.69 0-1.23.24-1.65.72-.4.47-.6 1.26-.6 2.38 0 1.23.2 2.11.61 2.62.42.51.98.77 1.68.77.52 0 .95-.15 1.28-.44.33-.3.57-.82.7-1.55l2.71.46a4.82 4.82 0 0 1-1.62 2.83c-.8.63-1.86.95-3.2.95a4.77 4.77 0 0 1-3.64-1.45c-.9-.96-1.35-2.3-1.35-4 0-1.72.45-3.06 1.36-4.02a4.82 4.82 0 0 1 3.68-1.44c1.27 0 2.27.27 3.02.82a4.51 4.51 0 0 1 1.61 2.5Zm4.84-7.06v5.3a4.05 4.05 0 0 1 4.9-1.21c.5.24.9.54 1.15.9.26.37.43.78.52 1.22.1.45.15 1.14.15 2.08v6.12h-2.75v-5.51a8.2 8.2 0 0 0-.16-2.09c-.1-.3-.29-.52-.56-.7a1.76 1.76 0 0 0-.98-.26c-.46 0-.87.11-1.23.33-.36.23-.62.56-.8 1.02a6.1 6.1 0 0 0-.24 1.98v5.23h-2.75V9.86h2.75Zm9.41 14.41V9.86h2.75v5.19a4.04 4.04 0 0 1 6.16-.07c.83.92 1.24 2.24 1.24 3.96 0 1.79-.42 3.16-1.27 4.12a3.94 3.94 0 0 1-6.33-.32v1.53H65.3Zm2.73-5.44c0 1.08.17 1.88.5 2.4a2.2 2.2 0 0 0 1.9 1.1c.62 0 1.13-.26 1.56-.78.43-.52.64-1.35.64-2.47 0-1.2-.21-2.05-.64-2.57-.43-.54-.99-.8-1.66-.8-.66 0-1.2.26-1.64.78-.44.5-.66 1.29-.66 2.34Zm9.01.07c0-.91.23-1.8.68-2.66a4.66 4.66 0 0 1 1.9-1.97 5.7 5.7 0 0 1 2.78-.67 5.18 5.18 0 0 1 5.37 5.42c0 1.58-.5 2.9-1.52 3.94a5.13 5.13 0 0 1-3.83 1.55c-.96 0-1.87-.22-2.73-.65a4.45 4.45 0 0 1-1.97-1.9 6.39 6.39 0 0 1-.68-3.06Zm2.82.15c0 1.04.25 1.83.74 2.38.49.55 1.09.83 1.8.83a2.3 2.3 0 0 0 1.81-.83c.49-.55.74-1.35.74-2.4 0-1.02-.25-1.8-.74-2.36a2.3 2.3 0 0 0-1.8-.82c-.72 0-1.32.27-1.81.82-.5.55-.74 1.35-.74 2.38Zm12.14-2.03-2.5-.46a3.9 3.9 0 0 1 1.45-2.24c.69-.48 1.7-.72 3.06-.72a6.5 6.5 0 0 1 2.74.44c.6.29 1.02.66 1.26 1.1.25.45.37 1.28.37 2.48l-.02 3.22c0 .92.04 1.6.12 2.04.1.43.26.9.5 1.4h-2.72a10.2 10.2 0 0 1-.36-1.15c-.47.46-.98.8-1.51 1.04a4.3 4.3 0 0 1-1.72.34c-1.07 0-1.91-.3-2.53-.88a2.92 2.92 0 0 1-.92-2.2c0-.6.14-1.12.42-1.58.28-.47.67-.82 1.17-1.06a8.89 8.89 0 0 1 2.2-.65c1.28-.24 2.17-.47 2.67-.68v-.28c0-.53-.13-.9-.4-1.13-.25-.23-.75-.34-1.47-.34-.49 0-.87.1-1.15.3-.27.18-.5.52-.66 1Zm3.68 2.24c-.35.12-.91.26-1.67.42-.77.17-1.27.33-1.5.48-.36.26-.54.58-.54.98 0 .38.14.72.43 1s.65.42 1.1.42c.5 0 .97-.16 1.42-.49.33-.25.55-.55.65-.91.08-.24.11-.69.11-1.35v-.55Zm8.06 5.01h-2.75V13.83h2.56v1.49a4.5 4.5 0 0 1 1.17-1.39c.36-.22.75-.33 1.2-.33.62 0 1.23.17 1.8.52l-.84 2.4c-.47-.3-.9-.45-1.3-.45-.38 0-.7.11-.97.33-.27.2-.48.6-.64 1.15-.15.56-.23 1.72-.23 3.5v3.22Zm14.72 0h-2.55v-1.53c-.43.6-.93 1.04-1.51 1.34a3.97 3.97 0 0 1-4.82-1.02c-.85-.97-1.27-2.32-1.27-4.05 0-1.77.41-3.11 1.24-4.03a4.04 4.04 0 0 1 6.16.07v-5.2h2.75v14.42Zm-7.34-5.44c0 1.11.15 1.92.46 2.42a2.08 2.08 0 0 0 3.48.27c.44-.54.66-1.35.66-2.43 0-1.2-.21-2.06-.64-2.58-.43-.54-.99-.8-1.66-.8-.65 0-1.2.26-1.64.79-.44.51-.66 1.3-.66 2.33Zm10.57-5.24h2.56v1.53a3.85 3.85 0 0 1 3.25-1.77c1.2 0 2.23.47 3.07 1.43.84.95 1.26 2.27 1.26 3.97 0 1.74-.42 3.1-1.27 4.07a3.97 3.97 0 0 1-4.65 1.1 5.32 5.32 0 0 1-1.47-1.18V28h-2.75V13.59Zm2.72 5.04c0 1.17.23 2.04.7 2.6a2.1 2.1 0 0 0 1.69.84c.64 0 1.17-.25 1.6-.77.42-.51.63-1.36.63-2.53 0-1.1-.22-1.91-.65-2.44-.44-.53-.98-.8-1.63-.8a2.1 2.1 0 0 0-1.67.79c-.45.52-.67 1.29-.67 2.31Zm9.62 5.4V9.6h2.75v14.42h-2.75Zm12.43 0v-1.57a4.14 4.14 0 0 1-5.33 1.34c-.55-.3-.96-.74-1.2-1.3a5.81 5.81 0 0 1-.38-2.3v-6.61h2.76v4.8a14 14 0 0 0 .14 2.7c.1.33.3.59.56.78.27.2.6.29 1.02.29.47 0 .9-.13 1.26-.38a2 2 0 0 0 .77-.97c.13-.38.2-1.33.2-2.82v-4.4h2.76v10.44h-2.56Zm4.45-2.98 2.76-.42c.12.53.35.94.71 1.22s.87.42 1.51.42c.71 0 1.25-.13 1.6-.4a.88.88 0 0 0 .37-.73.73.73 0 0 0-.2-.52 2.19 2.19 0 0 0-.92-.37c-2.22-.49-3.62-.94-4.22-1.35a2.7 2.7 0 0 1-1.23-2.35c0-.9.35-1.66 1.07-2.28.7-.61 1.81-.92 3.3-.92 1.43 0 2.49.23 3.18.7a3.5 3.5 0 0 1 1.43 2.06l-2.6.48a1.6 1.6 0 0 0-.63-.93c-.3-.22-.75-.32-1.32-.32-.73 0-1.25.1-1.56.3a.65.65 0 0 0-.31.56c0 .2.09.36.27.5.25.19 1.1.44 2.56.78 1.48.33 2.5.74 3.08 1.23.58.49.86 1.17.86 2.05 0 .96-.4 1.78-1.2 2.47-.79.69-1.97 1.03-3.53 1.03a5.81 5.81 0 0 1-3.37-.86 4 4 0 0 1-1.61-2.35Zm14.73-7.61v-5h-5.02V5h5.02V0h3.34v5H174v3.44h-5.03v5h-3.34Z"/></svg>