<svg width="260" height="67" viewBox="0 0 260 67" fill="none" xmlns="http://www.w3.org/2000/svg">
<rect width="260" height="67" rx="30" fill="#FFC727"/>
<path d="M61.9023 33.8418C61.9023 34.9421 61.7689 35.9447 61.502 36.8496C61.2415 37.748 60.8314 38.5228 60.2715 39.1738C59.7116 39.8249 58.9922 40.3262 58.1133 40.6777C57.2344 41.0228 56.1829 41.1953 54.959 41.1953C53.7611 41.1953 52.7227 41.0228 51.8438 40.6777C50.9714 40.3262 50.252 39.8281 49.6855 39.1836C49.1191 38.5326 48.6992 37.7546 48.4258 36.8496C48.1523 35.9447 48.0156 34.9355 48.0156 33.8223C48.0156 32.3379 48.2598 31.0488 48.748 29.9551C49.2428 28.8548 50.0046 28.0052 51.0332 27.4062C52.0618 26.8008 53.377 26.498 54.9785 26.498C56.6061 26.498 57.9277 26.8008 58.9434 27.4062C59.9655 28.0117 60.7142 28.8646 61.1895 29.9648C61.6647 31.0651 61.9023 32.3574 61.9023 33.8418ZM52.0781 33.8418C52.0781 34.7012 52.1758 35.4401 52.3711 36.0586C52.5664 36.6771 52.8757 37.1523 53.2988 37.4844C53.722 37.8164 54.2754 37.9824 54.959 37.9824C55.6686 37.9824 56.2318 37.8164 56.6484 37.4844C57.0716 37.1523 57.3743 36.6771 57.5566 36.0586C57.7454 35.4401 57.8398 34.7012 57.8398 33.8418C57.8398 32.5527 57.625 31.5339 57.1953 30.7852C56.7656 30.0365 56.0267 29.6621 54.9785 29.6621C54.2819 29.6621 53.7188 29.8314 53.2891 30.1699C52.8659 30.5085 52.5566 30.9902 52.3613 31.6152C52.1725 32.2402 52.0781 32.9824 52.0781 33.8418ZM70.7793 41H66.9219V29.877H63.4355V26.7227H74.2559V29.877H70.7793V41ZM88.5332 41H84.6562V35.1797H80.1738V41H76.2969V26.7227H80.1738V32.0156H84.6562V26.7227H88.5332V41ZM100.105 41H91.6289V26.7227H100.105V29.8184H95.4863V32.0645H99.7637V35.1602H95.4863V37.8555H100.105V41ZM107.283 26.7227C108.579 26.7227 109.656 26.8822 110.516 27.2012C111.375 27.5137 112.02 27.9824 112.449 28.6074C112.885 29.2324 113.104 30.0104 113.104 30.9414C113.104 31.5208 113.006 32.0482 112.811 32.5234C112.615 32.9987 112.335 33.4251 111.971 33.8027C111.613 34.1738 111.183 34.4993 110.682 34.7793L114.842 41H110.467L107.439 35.8047H106.463V41H102.605V26.7227H107.283ZM107.225 29.6426H106.463V32.9043H107.186C107.778 32.9043 108.263 32.7741 108.641 32.5137C109.018 32.2533 109.207 31.7878 109.207 31.1172C109.207 30.6549 109.051 30.2936 108.738 30.0332C108.426 29.7728 107.921 29.6426 107.225 29.6426ZM130.672 36.6641C130.672 37.4388 130.477 38.1745 130.086 38.8711C129.695 39.5612 129.087 40.1211 128.26 40.5508C127.439 40.9805 126.378 41.1953 125.076 41.1953C124.425 41.1953 123.852 41.166 123.357 41.1074C122.869 41.0488 122.413 40.9544 121.99 40.8242C121.567 40.6875 121.128 40.5117 120.672 40.2969V36.8594C121.447 37.25 122.228 37.5495 123.016 37.7578C123.803 37.9596 124.516 38.0605 125.154 38.0605C125.538 38.0605 125.851 38.015 126.092 37.9238C126.339 37.8327 126.521 37.709 126.639 37.5527C126.756 37.39 126.814 37.2044 126.814 36.9961C126.814 36.7487 126.727 36.5404 126.551 36.3711C126.382 36.1953 126.108 36.013 125.73 35.8242C125.353 35.6354 124.855 35.401 124.236 35.1211C123.709 34.8737 123.23 34.6198 122.801 34.3594C122.378 34.099 122.013 33.8027 121.707 33.4707C121.408 33.1322 121.176 32.7383 121.014 32.2891C120.851 31.8398 120.77 31.3092 120.77 30.6973C120.77 29.7793 120.994 29.0111 121.443 28.3926C121.899 27.7676 122.531 27.2988 123.338 26.9863C124.152 26.6738 125.089 26.5176 126.15 26.5176C127.081 26.5176 127.918 26.6217 128.66 26.8301C129.409 27.0384 130.079 27.276 130.672 27.543L129.49 30.5215C128.878 30.2415 128.276 30.0202 127.684 29.8574C127.091 29.6882 126.541 29.6035 126.033 29.6035C125.701 29.6035 125.428 29.6458 125.213 29.7305C125.005 29.8086 124.848 29.916 124.744 30.0527C124.646 30.1895 124.598 30.3457 124.598 30.5215C124.598 30.7428 124.682 30.9414 124.852 31.1172C125.027 31.293 125.317 31.485 125.721 31.6934C126.131 31.8952 126.688 32.1589 127.391 32.4844C128.087 32.7969 128.68 33.1354 129.168 33.5C129.656 33.8581 130.027 34.291 130.281 34.7988C130.542 35.3001 130.672 35.9219 130.672 36.6641ZM141.355 41H132.879V26.7227H141.355V29.8184H136.736V32.0645H141.014V35.1602H136.736V37.8555H141.355V41ZM148.533 26.7227C149.829 26.7227 150.906 26.8822 151.766 27.2012C152.625 27.5137 153.27 27.9824 153.699 28.6074C154.135 29.2324 154.354 30.0104 154.354 30.9414C154.354 31.5208 154.256 32.0482 154.061 32.5234C153.865 32.9987 153.585 33.4251 153.221 33.8027C152.863 34.1738 152.433 34.4993 151.932 34.7793L156.092 41H151.717L148.689 35.8047H147.713V41H143.855V26.7227H148.533ZM148.475 29.6426H147.713V32.9043H148.436C149.028 32.9043 149.513 32.7741 149.891 32.5137C150.268 32.2533 150.457 31.7878 150.457 31.1172C150.457 30.6549 150.301 30.2936 149.988 30.0332C149.676 29.7728 149.171 29.6426 148.475 29.6426ZM169.725 26.7227L165.047 41H160.506L155.848 26.7227H160.184L162.127 33.959C162.199 34.2324 162.28 34.584 162.371 35.0137C162.469 35.4368 162.557 35.86 162.635 36.2832C162.719 36.7064 162.771 37.0514 162.791 37.3184C162.817 37.0514 162.866 36.7096 162.938 36.293C163.009 35.8763 163.087 35.4596 163.172 35.043C163.263 34.6198 163.348 34.2715 163.426 33.998L165.408 26.7227H169.725ZM171.277 41V26.7227H175.154V41H171.277ZM184.607 29.6816C184.152 29.6816 183.745 29.7793 183.387 29.9746C183.029 30.1634 182.723 30.4401 182.469 30.8047C182.215 31.1693 182.02 31.6152 181.883 32.1426C181.753 32.6634 181.688 33.2559 181.688 33.9199C181.688 34.8184 181.801 35.5736 182.029 36.1855C182.257 36.7975 182.602 37.2598 183.064 37.5723C183.533 37.8848 184.119 38.041 184.822 38.041C185.46 38.041 186.072 37.9531 186.658 37.7773C187.251 37.6016 187.846 37.39 188.445 37.1426V40.4043C187.814 40.6842 187.166 40.8861 186.502 41.0098C185.844 41.1335 185.145 41.1953 184.402 41.1953C182.853 41.1953 181.583 40.8893 180.594 40.2773C179.611 39.6589 178.885 38.8027 178.416 37.709C177.954 36.6152 177.723 35.3457 177.723 33.9004C177.723 32.8197 177.872 31.8301 178.172 30.9316C178.478 30.0332 178.924 29.2552 179.51 28.5977C180.096 27.9336 180.818 27.4225 181.678 27.0645C182.544 26.6999 183.533 26.5176 184.646 26.5176C185.337 26.5176 186.062 26.599 186.824 26.7617C187.592 26.918 188.341 27.1719 189.07 27.5234L187.889 30.5605C187.368 30.3132 186.84 30.1048 186.307 29.9355C185.773 29.7663 185.206 29.6816 184.607 29.6816ZM199.715 41H191.238V26.7227H199.715V29.8184H195.096V32.0645H199.373V35.1602H195.096V37.8555H199.715V41ZM211.551 36.6641C211.551 37.4388 211.355 38.1745 210.965 38.8711C210.574 39.5612 209.965 40.1211 209.139 40.5508C208.318 40.9805 207.257 41.1953 205.955 41.1953C205.304 41.1953 204.731 41.166 204.236 41.1074C203.748 41.0488 203.292 40.9544 202.869 40.8242C202.446 40.6875 202.007 40.5117 201.551 40.2969V36.8594C202.326 37.25 203.107 37.5495 203.895 37.7578C204.682 37.9596 205.395 38.0605 206.033 38.0605C206.417 38.0605 206.73 38.015 206.971 37.9238C207.218 37.8327 207.4 37.709 207.518 37.5527C207.635 37.39 207.693 37.2044 207.693 36.9961C207.693 36.7487 207.605 36.5404 207.43 36.3711C207.26 36.1953 206.987 36.013 206.609 35.8242C206.232 35.6354 205.734 35.401 205.115 35.1211C204.588 34.8737 204.109 34.6198 203.68 34.3594C203.257 34.099 202.892 33.8027 202.586 33.4707C202.286 33.1322 202.055 32.7383 201.893 32.2891C201.73 31.8398 201.648 31.3092 201.648 30.6973C201.648 29.7793 201.873 29.0111 202.322 28.3926C202.778 27.7676 203.41 27.2988 204.217 26.9863C205.031 26.6738 205.968 26.5176 207.029 26.5176C207.96 26.5176 208.797 26.6217 209.539 26.8301C210.288 27.0384 210.958 27.276 211.551 27.543L210.369 30.5215C209.757 30.2415 209.155 30.0202 208.562 29.8574C207.97 29.6882 207.42 29.6035 206.912 29.6035C206.58 29.6035 206.307 29.6458 206.092 29.7305C205.883 29.8086 205.727 29.916 205.623 30.0527C205.525 30.1895 205.477 30.3457 205.477 30.5215C205.477 30.7428 205.561 30.9414 205.73 31.1172C205.906 31.293 206.196 31.485 206.6 31.6934C207.01 31.8952 207.566 32.1589 208.27 32.4844C208.966 32.7969 209.559 33.1354 210.047 33.5C210.535 33.8581 210.906 34.291 211.16 34.7988C211.421 35.3001 211.551 35.9219 211.551 36.6641Z" fill="#685ABC"/>
</svg>
