<svg width="176" height="39" viewBox="0 0 176 39" fill="none" xmlns="http://www.w3.org/2000/svg">
<path d="M31.0324 10.5574L27.6431 7.19806C27.2294 6.78761 26.6757 6.55713 26.0901 6.55713C25.5046 6.55713 24.9508 6.78445 24.5371 7.19806L20.8869 10.8131C20.4732 11.2236 20.2409 11.7761 20.2409 12.357C20.2409 12.9411 20.47 13.4873 20.8869 13.901L23.7383 16.733C23.0887 18.2346 22.1554 19.5989 20.9887 20.7522C19.8208 21.9173 18.4555 22.836 16.9407 23.4864L14.0893 20.6544C13.6756 20.2439 13.1218 20.0134 12.5363 20.0134C12.2474 20.0124 11.9613 20.0685 11.6946 20.1786C11.428 20.2886 11.1861 20.4504 10.9833 20.6544L7.32987 24.2694C6.91615 24.6799 6.68384 25.2324 6.68384 25.8134C6.68384 26.3975 6.91297 26.9437 7.32987 27.3573L10.7159 30.7166C11.4224 31.4175 12.3962 31.8185 13.3955 31.8185C13.6024 31.8185 13.8029 31.8027 14.0065 31.768C18.22 31.0797 22.4017 28.8538 25.7782 25.5071C29.1516 22.1541 31.392 18.0054 32.0921 13.822C32.2926 12.6349 31.8916 11.413 31.0324 10.5574ZM29.8358 13.4463C29.2152 17.1687 27.1976 20.8817 24.1584 23.8969C21.1192 26.9121 17.3799 28.9138 13.6278 29.5295C13.1568 29.6084 12.6731 29.4505 12.3294 29.1127L9.00381 25.8134L12.5299 22.3119L16.3424 26.1007L16.3711 26.1291L17.0585 25.8765C19.1427 25.1162 21.0354 23.9155 22.6054 22.3573C24.1753 20.7992 25.385 18.9211 26.1506 16.853L26.4052 16.171L22.5608 12.3602L26.0869 8.85878L29.4125 12.1581C29.7562 12.4991 29.9154 12.979 29.8358 13.4463Z" fill="white"/>
<path d="M53.7031 12.5176C54.5299 12.5176 55.2624 12.6478 55.9004 12.9082C56.5384 13.1686 57.0365 13.5527 57.3945 14.0605C57.7591 14.5618 57.9414 15.1803 57.9414 15.916C57.9414 16.4954 57.8145 17.0033 57.5605 17.4395C57.3132 17.8691 56.9779 18.2467 56.5547 18.5723C56.1315 18.8913 55.6628 19.1777 55.1484 19.4316C55.7604 19.7116 56.3105 20.0273 56.7988 20.3789C57.2936 20.7305 57.6842 21.1439 57.9707 21.6191C58.2572 22.0944 58.4004 22.6576 58.4004 23.3086C58.4004 24.1094 58.2051 24.8027 57.8145 25.3887C57.4303 25.9681 56.89 26.4141 56.1934 26.7266C55.4967 27.0391 54.6797 27.1953 53.7422 27.1953C52.7331 27.1953 51.8737 27.0456 51.1641 26.7461C50.4609 26.4401 49.9238 26.0039 49.5527 25.4375C49.1882 24.8646 49.0059 24.1777 49.0059 23.377C49.0059 22.7194 49.1458 22.1497 49.4258 21.668C49.7057 21.1797 50.0768 20.7598 50.5391 20.4082C51.0013 20.0566 51.5059 19.7604 52.0527 19.5195C51.5775 19.2591 51.1413 18.9629 50.7441 18.6309C50.3535 18.2988 50.041 17.9115 49.8066 17.4688C49.5788 17.0195 49.4648 16.4987 49.4648 15.9062C49.4648 15.1836 49.6471 14.5716 50.0117 14.0703C50.3828 13.5625 50.8874 13.1784 51.5254 12.918C52.1699 12.651 52.8958 12.5176 53.7031 12.5176ZM50.5977 23.3867C50.5977 24.1159 50.8548 24.7181 51.3691 25.1934C51.8835 25.6621 52.6615 25.8965 53.7031 25.8965C54.6927 25.8965 55.4577 25.6621 55.998 25.1934C56.5384 24.7181 56.8086 24.0964 56.8086 23.3281C56.8086 22.8529 56.6849 22.4362 56.4375 22.0781C56.1901 21.7135 55.8385 21.388 55.3828 21.1016C54.9271 20.8151 54.39 20.5547 53.7715 20.3203L53.4199 20.1934C52.821 20.4408 52.3099 20.7174 51.8867 21.0234C51.4701 21.3229 51.151 21.6647 50.9297 22.0488C50.7083 22.4329 50.5977 22.8789 50.5977 23.3867ZM53.6836 13.8457C52.9154 13.8457 52.2871 14.0312 51.7988 14.4023C51.3105 14.7669 51.0664 15.2943 51.0664 15.9844C51.0664 16.4792 51.1836 16.8991 51.418 17.2441C51.6589 17.5827 51.9844 17.8757 52.3945 18.123C52.8047 18.3639 53.2637 18.5885 53.7715 18.7969C54.2663 18.5885 54.7057 18.3607 55.0898 18.1133C55.474 17.8594 55.7767 17.5599 55.998 17.2148C56.2194 16.8698 56.3301 16.4564 56.3301 15.9746C56.3301 15.2845 56.0859 14.7572 55.5977 14.3926C55.1159 14.028 54.4779 13.8457 53.6836 13.8457ZM70.5 23.6895H68.3613V27H66.7793V23.6895H59.875V22.3223L66.6719 12.6445H68.3613V22.2246H70.5V23.6895ZM66.7793 22.2246V17.5566C66.7793 17.1986 66.7826 16.8763 66.7891 16.5898C66.7956 16.2969 66.8053 16.0267 66.8184 15.7793C66.8314 15.5254 66.8411 15.2845 66.8477 15.0566C66.8607 14.8288 66.8704 14.6042 66.877 14.3828H66.7988C66.6751 14.6432 66.5319 14.9199 66.3691 15.2129C66.2129 15.4993 66.0534 15.7565 65.8906 15.9844L61.4863 22.2246H66.7793ZM76.3887 18.2695C77.3587 18.2695 78.2018 18.4355 78.918 18.7676C79.6341 19.0931 80.1875 19.5684 80.5781 20.1934C80.9753 20.8184 81.1738 21.5768 81.1738 22.4688C81.1738 23.4453 80.9622 24.2884 80.5391 24.998C80.1159 25.7012 79.5072 26.2448 78.7129 26.6289C77.9186 27.0065 76.9681 27.1953 75.8613 27.1953C75.1191 27.1953 74.429 27.1302 73.791 27C73.153 26.8698 72.6159 26.6745 72.1797 26.4141V24.8711C72.6549 25.1576 73.2311 25.3854 73.9082 25.5547C74.5853 25.724 75.2428 25.8086 75.8809 25.8086C76.6035 25.8086 77.235 25.6947 77.7754 25.4668C78.3223 25.2324 78.7454 24.8809 79.0449 24.4121C79.3509 23.9368 79.5039 23.3411 79.5039 22.625C79.5039 21.6745 79.2109 20.9421 78.625 20.4277C78.0456 19.9069 77.1276 19.6465 75.8711 19.6465C75.4674 19.6465 75.0247 19.679 74.543 19.7441C74.0612 19.8092 73.6641 19.8809 73.3516 19.959L72.5312 19.4219L73.0781 12.7227H80.1777V14.207H74.4648L74.1035 18.5137C74.3509 18.4616 74.6699 18.4095 75.0605 18.3574C75.4512 18.2988 75.8939 18.2695 76.3887 18.2695ZM83.1367 22.3516V20.9062H87.9805V22.3516H83.1367ZM99.8359 23.6895H97.6973V27H96.1152V23.6895H89.2109V22.3223L96.0078 12.6445H97.6973V22.2246H99.8359V23.6895ZM96.1152 22.2246V17.5566C96.1152 17.1986 96.1185 16.8763 96.125 16.5898C96.1315 16.2969 96.1413 16.0267 96.1543 15.7793C96.1673 15.5254 96.1771 15.2845 96.1836 15.0566C96.1966 14.8288 96.2064 14.6042 96.2129 14.3828H96.1348C96.0111 14.6432 95.8678 14.9199 95.7051 15.2129C95.5488 15.4993 95.3893 15.7565 95.2266 15.9844L90.8223 22.2246H96.1152ZM111.281 23.6895H109.143V27H107.561V23.6895H100.656V22.3223L107.453 12.6445H109.143V22.2246H111.281V23.6895ZM107.561 22.2246V17.5566C107.561 17.1986 107.564 16.8763 107.57 16.5898C107.577 16.2969 107.587 16.0267 107.6 15.7793C107.613 15.5254 107.622 15.2845 107.629 15.0566C107.642 14.8288 107.652 14.6042 107.658 14.3828H107.58C107.456 14.6432 107.313 14.9199 107.15 15.2129C106.994 15.4993 106.835 15.7565 106.672 15.9844L102.268 22.2246H107.561ZM122.727 23.6895H120.588V27H119.006V23.6895H112.102V22.3223L118.898 12.6445H120.588V22.2246H122.727V23.6895ZM119.006 22.2246V17.5566C119.006 17.1986 119.009 16.8763 119.016 16.5898C119.022 16.2969 119.032 16.0267 119.045 15.7793C119.058 15.5254 119.068 15.2845 119.074 15.0566C119.087 14.8288 119.097 14.6042 119.104 14.3828H119.025C118.902 14.6432 118.758 14.9199 118.596 15.2129C118.439 15.4993 118.28 15.7565 118.117 15.9844L113.713 22.2246H119.006ZM123.918 22.3516V20.9062H128.762V22.3516H123.918ZM135.266 12.5176C136.092 12.5176 136.825 12.6478 137.463 12.9082C138.101 13.1686 138.599 13.5527 138.957 14.0605C139.322 14.5618 139.504 15.1803 139.504 15.916C139.504 16.4954 139.377 17.0033 139.123 17.4395C138.876 17.8691 138.54 18.2467 138.117 18.5723C137.694 18.8913 137.225 19.1777 136.711 19.4316C137.323 19.7116 137.873 20.0273 138.361 20.3789C138.856 20.7305 139.247 21.1439 139.533 21.6191C139.82 22.0944 139.963 22.6576 139.963 23.3086C139.963 24.1094 139.768 24.8027 139.377 25.3887C138.993 25.9681 138.452 26.4141 137.756 26.7266C137.059 27.0391 136.242 27.1953 135.305 27.1953C134.296 27.1953 133.436 27.0456 132.727 26.7461C132.023 26.4401 131.486 26.0039 131.115 25.4375C130.751 24.8646 130.568 24.1777 130.568 23.377C130.568 22.7194 130.708 22.1497 130.988 21.668C131.268 21.1797 131.639 20.7598 132.102 20.4082C132.564 20.0566 133.068 19.7604 133.615 19.5195C133.14 19.2591 132.704 18.9629 132.307 18.6309C131.916 18.2988 131.604 17.9115 131.369 17.4688C131.141 17.0195 131.027 16.4987 131.027 15.9062C131.027 15.1836 131.21 14.5716 131.574 14.0703C131.945 13.5625 132.45 13.1784 133.088 12.918C133.732 12.651 134.458 12.5176 135.266 12.5176ZM132.16 23.3867C132.16 24.1159 132.417 24.7181 132.932 25.1934C133.446 25.6621 134.224 25.8965 135.266 25.8965C136.255 25.8965 137.02 25.6621 137.561 25.1934C138.101 24.7181 138.371 24.0964 138.371 23.3281C138.371 22.8529 138.247 22.4362 138 22.0781C137.753 21.7135 137.401 21.388 136.945 21.1016C136.49 20.8151 135.952 20.5547 135.334 20.3203L134.982 20.1934C134.383 20.4408 133.872 20.7174 133.449 21.0234C133.033 21.3229 132.714 21.6647 132.492 22.0488C132.271 22.4329 132.16 22.8789 132.16 23.3867ZM135.246 13.8457C134.478 13.8457 133.85 14.0312 133.361 14.4023C132.873 14.7669 132.629 15.2943 132.629 15.9844C132.629 16.4792 132.746 16.8991 132.98 17.2441C133.221 17.5827 133.547 17.8757 133.957 18.123C134.367 18.3639 134.826 18.5885 135.334 18.7969C135.829 18.5885 136.268 18.3607 136.652 18.1133C137.036 17.8594 137.339 17.5599 137.561 17.2148C137.782 16.8698 137.893 16.4564 137.893 15.9746C137.893 15.2845 137.648 14.7572 137.16 14.3926C136.678 14.028 136.04 13.8457 135.246 13.8457ZM151.35 27H141.994V25.6426L145.812 21.7656C146.522 21.0495 147.118 20.4115 147.6 19.8516C148.088 19.2917 148.459 18.7415 148.713 18.2012C148.967 17.6543 149.094 17.0553 149.094 16.4043C149.094 15.597 148.853 14.9818 148.371 14.5586C147.896 14.1289 147.268 13.9141 146.486 13.9141C145.803 13.9141 145.197 14.0312 144.67 14.2656C144.143 14.5 143.602 14.832 143.049 15.2617L142.18 14.168C142.557 13.849 142.967 13.5658 143.41 13.3184C143.859 13.071 144.338 12.8757 144.846 12.7324C145.36 12.5892 145.907 12.5176 146.486 12.5176C147.365 12.5176 148.124 12.6706 148.762 12.9766C149.4 13.2826 149.891 13.7188 150.236 14.2852C150.588 14.8516 150.764 15.5254 150.764 16.3066C150.764 17.0618 150.614 17.765 150.314 18.416C150.015 19.0605 149.595 19.7018 149.055 20.3398C148.514 20.9714 147.883 21.6419 147.16 22.3516L144.055 25.4473V25.5156H151.35V27ZM155.285 27L161.145 14.207H153.361V12.7227H162.883V13.9727L157.062 27H155.285ZM173.713 16.0527C173.713 16.6908 173.589 17.2441 173.342 17.7129C173.094 18.1816 172.749 18.5658 172.307 18.8652C171.864 19.1582 171.343 19.3633 170.744 19.4805V19.5586C171.877 19.7018 172.727 20.0664 173.293 20.6523C173.866 21.2383 174.152 22.0065 174.152 22.957C174.152 23.7839 173.957 24.5163 173.566 25.1543C173.182 25.7923 172.59 26.2936 171.789 26.6582C170.995 27.0163 169.976 27.1953 168.732 27.1953C167.977 27.1953 167.277 27.1335 166.633 27.0098C165.995 26.8926 165.383 26.694 164.797 26.4141V24.8906C165.389 25.1836 166.034 25.4147 166.73 25.584C167.427 25.7467 168.101 25.8281 168.752 25.8281C170.054 25.8281 170.995 25.571 171.574 25.0566C172.154 24.5358 172.443 23.8262 172.443 22.9277C172.443 22.3092 172.281 21.8112 171.955 21.4336C171.636 21.0495 171.174 20.7695 170.568 20.5938C169.969 20.4115 169.247 20.3203 168.4 20.3203H166.975V18.9336H168.41C169.185 18.9336 169.842 18.8197 170.383 18.5918C170.923 18.3639 171.333 18.0449 171.613 17.6348C171.9 17.2181 172.043 16.7266 172.043 16.1602C172.043 15.4375 171.802 14.8809 171.32 14.4902C170.839 14.0931 170.184 13.8945 169.357 13.8945C168.85 13.8945 168.387 13.9466 167.971 14.0508C167.554 14.1549 167.163 14.2982 166.799 14.4805C166.434 14.6628 166.07 14.8743 165.705 15.1152L164.885 14.002C165.406 13.5983 166.04 13.25 166.789 12.957C167.538 12.6641 168.387 12.5176 169.338 12.5176C170.796 12.5176 171.89 12.8496 172.619 13.5137C173.348 14.1777 173.713 15.0241 173.713 16.0527Z" fill="white"/>
</svg>
