<svg width="394" height="40" viewBox="0 0 394 40" fill="none" xmlns="http://www.w3.org/2000/svg">
<path d="M31.0326 11.421L27.6434 8.0617C27.2297 7.65126 26.6759 7.42078 26.0904 7.42078C25.5048 7.42078 24.9511 7.6481 24.5373 8.0617L20.8871 11.6768C20.4734 12.0872 20.2411 12.6398 20.2411 13.2207C20.2411 13.8048 20.4702 14.351 20.8871 14.7646L23.7386 17.5967C23.089 19.0982 22.1557 20.4625 20.989 21.6159C19.821 22.7809 18.4558 23.6997 16.941 24.3501L14.0895 21.518C13.6758 21.1076 13.1221 20.8771 12.5365 20.8771C12.2477 20.876 11.9616 20.9322 11.6949 21.0422C11.4282 21.1523 11.1864 21.314 10.9835 21.518L7.33011 25.1331C6.9164 25.5435 6.68408 26.0961 6.68408 26.677C6.68408 27.2611 6.91321 27.8073 7.33011 28.2209L10.7162 31.5803C11.4227 32.2812 12.3965 32.6821 13.3958 32.6821C13.6026 32.6821 13.8031 32.6664 14.0068 32.6316C18.2203 31.9433 22.402 29.7175 25.7785 26.3707C29.1518 23.0177 31.3922 18.8691 32.0924 14.6857C32.2929 13.4985 31.8919 12.2767 31.0326 11.421ZM29.836 14.31C29.2155 18.0324 27.1978 21.7453 24.1586 24.7605C21.1194 27.7757 17.3801 29.7774 13.6281 30.3931C13.1571 30.472 12.6734 30.3142 12.3297 29.9764L9.00405 26.677L12.5302 23.1756L16.3427 26.9643L16.3713 26.9927L17.0587 26.7401C19.143 25.9799 21.0356 24.7791 22.6056 23.221C24.1756 21.6629 25.3853 19.7847 26.1508 17.7167L26.4054 17.0347L22.5611 13.2238L26.0872 9.72243L29.4128 13.0218C29.7565 13.3628 29.9156 13.8427 29.836 14.31Z" fill="white"/>
<path d="M93.9844 11.0883C95.1419 11.0883 96.1673 11.2705 97.0605 11.6351C97.9538 11.9997 98.651 12.5375 99.1523 13.2484C99.6628 13.9502 99.918 14.8161 99.918 15.8461C99.918 16.6573 99.7402 17.3682 99.3848 17.9789C99.0384 18.5804 98.569 19.1091 97.9766 19.5648C97.3841 20.0114 96.7279 20.4125 96.0078 20.7679C96.8646 21.1599 97.6348 21.6019 98.3184 22.0941C99.0111 22.5863 99.5579 23.1651 99.959 23.8304C100.36 24.4958 100.561 25.2842 100.561 26.1957C100.561 27.3168 100.287 28.2875 99.7402 29.1078C99.2025 29.919 98.446 30.5433 97.4707 30.9808C96.4954 31.4183 95.3516 31.6371 94.0391 31.6371C92.6263 31.6371 91.4232 31.4274 90.4297 31.0082C89.4453 30.5798 88.6934 29.9691 88.1738 29.1761C87.6634 28.3741 87.4082 27.4125 87.4082 26.2914C87.4082 25.3708 87.6042 24.5733 87.9961 23.8988C88.388 23.2152 88.9076 22.6273 89.5547 22.1351C90.2018 21.6429 90.9082 21.2282 91.6738 20.891C91.0085 20.5264 90.3978 20.1117 89.8418 19.6469C89.2949 19.182 88.8574 18.6397 88.5293 18.0199C88.2103 17.391 88.0508 16.6618 88.0508 15.8324C88.0508 14.8207 88.306 13.9639 88.8164 13.2621C89.3359 12.5511 90.0423 12.0134 90.9355 11.6488C91.8379 11.2751 92.8542 11.0883 93.9844 11.0883ZM89.6367 26.3051C89.6367 27.3259 89.9967 28.169 90.7168 28.8344C91.4368 29.4906 92.526 29.8187 93.9844 29.8187C95.3698 29.8187 96.4408 29.4906 97.1973 28.8344C97.9538 28.169 98.332 27.2985 98.332 26.223C98.332 25.5577 98.1589 24.9743 97.8125 24.473C97.4661 23.9626 96.974 23.5069 96.3359 23.1058C95.6979 22.7048 94.946 22.3402 94.0801 22.0121L93.5879 21.8344C92.7493 22.1807 92.0339 22.5681 91.4414 22.9965C90.8581 23.4157 90.4115 23.8942 90.1016 24.432C89.7917 24.9698 89.6367 25.5941 89.6367 26.3051ZM93.957 12.9476C92.8815 12.9476 92.002 13.2074 91.3184 13.7269C90.6348 14.2373 90.293 14.9756 90.293 15.9418C90.293 16.6345 90.457 17.2224 90.7852 17.7054C91.1224 18.1794 91.5781 18.5896 92.1523 18.9359C92.7266 19.2732 93.3691 19.5876 94.0801 19.8793C94.7728 19.5876 95.388 19.2686 95.9258 18.9222C96.4635 18.5668 96.8874 18.1475 97.1973 17.6644C97.5072 17.1814 97.6621 16.6026 97.6621 15.9281C97.6621 14.962 97.3203 14.2237 96.6367 13.7133C95.9622 13.2028 95.069 12.9476 93.957 12.9476ZM117.5 26.7289H114.506V31.3636H112.291V26.7289H102.625V24.8148L112.141 11.266H114.506V24.6781H117.5V26.7289ZM112.291 24.6781V18.1429C112.291 17.6416 112.296 17.1905 112.305 16.7894C112.314 16.3793 112.327 16.001 112.346 15.6547C112.364 15.2992 112.378 14.962 112.387 14.6429C112.405 14.3239 112.419 14.0095 112.428 13.6996H112.318C112.145 14.0642 111.945 14.4515 111.717 14.8617C111.498 15.2627 111.275 15.6228 111.047 15.9418L104.881 24.6781H112.291ZM125.744 19.141C127.102 19.141 128.283 19.3734 129.285 19.8383C130.288 20.294 131.062 20.9594 131.609 21.8344C132.165 22.7094 132.443 23.7712 132.443 25.0199C132.443 26.3871 132.147 27.5674 131.555 28.5609C130.962 29.5453 130.11 30.3064 128.998 30.8441C127.886 31.3728 126.555 31.6371 125.006 31.6371C123.967 31.6371 123.001 31.5459 122.107 31.3636C121.214 31.1814 120.462 30.9079 119.852 30.5433V28.3832C120.517 28.7842 121.324 29.1032 122.271 29.3402C123.219 29.5772 124.14 29.6957 125.033 29.6957C126.045 29.6957 126.929 29.5362 127.686 29.2172C128.451 28.889 129.044 28.3969 129.463 27.7406C129.891 27.0752 130.105 26.2413 130.105 25.2386C130.105 23.9079 129.695 22.8825 128.875 22.1625C128.064 21.4333 126.779 21.0687 125.02 21.0687C124.454 21.0687 123.835 21.1143 123.16 21.2054C122.486 21.2966 121.93 21.3969 121.492 21.5062L120.344 20.7543L121.109 11.3754H131.049V13.4535H123.051L122.545 19.4828C122.891 19.4099 123.338 19.337 123.885 19.264C124.432 19.182 125.051 19.141 125.744 19.141ZM135.191 24.8558V22.8324H141.973V24.8558H135.191ZM158.57 26.7289H155.576V31.3636H153.361V26.7289H143.695V24.8148L153.211 11.266H155.576V24.6781H158.57V26.7289ZM153.361 24.6781V18.1429C153.361 17.6416 153.366 17.1905 153.375 16.7894C153.384 16.3793 153.398 16.001 153.416 15.6547C153.434 15.2992 153.448 14.962 153.457 14.6429C153.475 14.3239 153.489 14.0095 153.498 13.6996H153.389C153.215 14.0642 153.015 14.4515 152.787 14.8617C152.568 15.2627 152.345 15.6228 152.117 15.9418L145.951 24.6781H153.361ZM174.594 26.7289H171.6V31.3636H169.385V26.7289H159.719V24.8148L169.234 11.266H171.6V24.6781H174.594V26.7289ZM169.385 24.6781V18.1429C169.385 17.6416 169.389 17.1905 169.398 16.7894C169.408 16.3793 169.421 16.001 169.439 15.6547C169.458 15.2992 169.471 14.962 169.48 14.6429C169.499 14.3239 169.512 14.0095 169.521 13.6996H169.412C169.239 14.0642 169.038 14.4515 168.811 14.8617C168.592 15.2627 168.368 15.6228 168.141 15.9418L161.975 24.6781H169.385ZM190.617 26.7289H187.623V31.3636H185.408V26.7289H175.742V24.8148L185.258 11.266H187.623V24.6781H190.617V26.7289ZM185.408 24.6781V18.1429C185.408 17.6416 185.413 17.1905 185.422 16.7894C185.431 16.3793 185.445 16.001 185.463 15.6547C185.481 15.2992 185.495 14.962 185.504 14.6429C185.522 14.3239 185.536 14.0095 185.545 13.6996H185.436C185.262 14.0642 185.062 14.4515 184.834 14.8617C184.615 15.2627 184.392 15.6228 184.164 15.9418L177.998 24.6781H185.408ZM192.285 24.8558V22.8324H199.066V24.8558H192.285ZM208.172 11.0883C209.329 11.0883 210.355 11.2705 211.248 11.6351C212.141 11.9997 212.839 12.5375 213.34 13.2484C213.85 13.9502 214.105 14.8161 214.105 15.8461C214.105 16.6573 213.928 17.3682 213.572 17.9789C213.226 18.5804 212.757 19.1091 212.164 19.5648C211.572 20.0114 210.915 20.4125 210.195 20.7679C211.052 21.1599 211.822 21.6019 212.506 22.0941C213.199 22.5863 213.745 23.1651 214.146 23.8304C214.548 24.4958 214.748 25.2842 214.748 26.1957C214.748 27.3168 214.475 28.2875 213.928 29.1078C213.39 29.919 212.633 30.5433 211.658 30.9808C210.683 31.4183 209.539 31.6371 208.227 31.6371C206.814 31.6371 205.611 31.4274 204.617 31.0082C203.633 30.5798 202.881 29.9691 202.361 29.1761C201.851 28.3741 201.596 27.4125 201.596 26.2914C201.596 25.3708 201.792 24.5733 202.184 23.8988C202.576 23.2152 203.095 22.6273 203.742 22.1351C204.389 21.6429 205.096 21.2282 205.861 20.891C205.196 20.5264 204.585 20.1117 204.029 19.6469C203.482 19.182 203.045 18.6397 202.717 18.0199C202.398 17.391 202.238 16.6618 202.238 15.8324C202.238 14.8207 202.493 13.9639 203.004 13.2621C203.523 12.5511 204.23 12.0134 205.123 11.6488C206.025 11.2751 207.042 11.0883 208.172 11.0883ZM203.824 26.3051C203.824 27.3259 204.184 28.169 204.904 28.8344C205.624 29.4906 206.714 29.8187 208.172 29.8187C209.557 29.8187 210.628 29.4906 211.385 28.8344C212.141 28.169 212.52 27.2985 212.52 26.223C212.52 25.5577 212.346 24.9743 212 24.473C211.654 23.9626 211.161 23.5069 210.523 23.1058C209.885 22.7048 209.133 22.3402 208.268 22.0121L207.775 21.8344C206.937 22.1807 206.221 22.5681 205.629 22.9965C205.046 23.4157 204.599 23.8942 204.289 24.432C203.979 24.9698 203.824 25.5941 203.824 26.3051ZM208.145 12.9476C207.069 12.9476 206.189 13.2074 205.506 13.7269C204.822 14.2373 204.48 14.9756 204.48 15.9418C204.48 16.6345 204.645 17.2224 204.973 17.7054C205.31 18.1794 205.766 18.5896 206.34 18.9359C206.914 19.2732 207.557 19.5876 208.268 19.8793C208.96 19.5876 209.576 19.2686 210.113 18.9222C210.651 18.5668 211.075 18.1475 211.385 17.6644C211.695 17.1814 211.85 16.6026 211.85 15.9281C211.85 14.962 211.508 14.2237 210.824 13.7133C210.15 13.2028 209.257 12.9476 208.145 12.9476ZM230.689 31.3636H217.592V29.4633L222.938 24.0355C223.931 23.0329 224.765 22.1397 225.439 21.3558C226.123 20.572 226.643 19.8018 226.998 19.0453C227.354 18.2797 227.531 17.4411 227.531 16.5297C227.531 15.3995 227.194 14.5381 226.52 13.9457C225.854 13.3441 224.975 13.0433 223.881 13.0433C222.924 13.0433 222.076 13.2074 221.338 13.5355C220.6 13.8636 219.843 14.3285 219.068 14.9301L217.852 13.3988C218.38 12.9522 218.954 12.5557 219.574 12.2094C220.203 11.863 220.873 11.5896 221.584 11.389C222.304 11.1885 223.07 11.0883 223.881 11.0883C225.111 11.0883 226.173 11.3024 227.066 11.7308C227.96 12.1592 228.648 12.7699 229.131 13.5629C229.623 14.3558 229.869 15.2992 229.869 16.3929C229.869 17.4502 229.66 18.4346 229.24 19.3461C228.821 20.2484 228.233 21.1462 227.477 22.0394C226.72 22.9235 225.836 23.8623 224.824 24.8558L220.477 29.1898V29.2855H230.689V31.3636ZM236.199 31.3636L244.402 13.4535H233.506V11.3754H246.836V13.1254L238.688 31.3636H236.199ZM261.998 16.0375C261.998 16.9307 261.825 17.7054 261.479 18.3617C261.132 19.0179 260.649 19.5557 260.029 19.975C259.41 20.3851 258.68 20.6722 257.842 20.8363V20.9457C259.428 21.1462 260.617 21.6566 261.41 22.4769C262.212 23.2972 262.613 24.3728 262.613 25.7035C262.613 26.861 262.34 27.8864 261.793 28.7797C261.255 29.6729 260.426 30.3747 259.305 30.8851C258.193 31.3864 256.766 31.6371 255.025 31.6371C253.968 31.6371 252.988 31.5505 252.086 31.3773C251.193 31.2133 250.336 30.9353 249.516 30.5433V28.4105C250.345 28.8207 251.247 29.1442 252.223 29.3812C253.198 29.6091 254.141 29.723 255.053 29.723C256.876 29.723 258.193 29.363 259.004 28.6429C259.815 27.9138 260.221 26.9203 260.221 25.6625C260.221 24.7966 259.993 24.0993 259.537 23.5707C259.09 23.0329 258.443 22.641 257.596 22.3949C256.757 22.1397 255.745 22.0121 254.561 22.0121H252.564V20.0707H254.574C255.659 20.0707 256.579 19.9112 257.336 19.5922C258.092 19.2732 258.667 18.8265 259.059 18.2523C259.46 17.669 259.66 16.9808 259.66 16.1879C259.66 15.1761 259.323 14.3969 258.648 13.85C257.974 13.294 257.058 13.016 255.9 13.016C255.189 13.016 254.542 13.0889 253.959 13.2347C253.376 13.3806 252.829 13.5811 252.318 13.8363C251.808 14.0915 251.298 14.3877 250.787 14.725L249.639 13.1664C250.368 12.6013 251.257 12.1136 252.305 11.7035C253.353 11.2933 254.542 11.0883 255.873 11.0883C257.915 11.0883 259.446 11.5531 260.467 12.4828C261.488 13.4125 261.998 14.5974 261.998 16.0375Z" fill="white"/>
</svg>
