<svg xmlns="http://www.w3.org/2000/svg" width="219" height="181" fill="none"><path fill="#263238" d="m59.53 139-.15-.69a34 34 0 0 0 3.67-.94l.19.68c-1.2.38-2.45.7-3.7.96Zm8.23-2.45-.25-.66c1.16-.45 2.32-.94 3.45-1.5l.3.64a49.82 49.82 0 0 1-3.5 1.52Zm7.7-3.76-.36-.6a54.3 54.3 0 0 0 3.16-2.06l.4.57a82.7 82.7 0 0 1-3.2 2.05v.04Zm7-4.98-.45-.55a70.3 70.3 0 0 0 2.82-2.5l.48.52c-.93.84-1.9 1.69-2.85 2.49v.04Zm6.27-5.9-.52-.48c.85-.88 1.7-1.82 2.57-2.82l.53.47c-.87.97-1.73 1.92-2.58 2.8v.04Zm5.64-6.44-.54-.46c.8-.94 1.58-1.96 2.36-2.97l.55.43c-.77.98-1.55 1.97-2.36 2.96v.03Zm5.25-6.8-.56-.41 2.26-3.07.56.42-2.26 3.06Zm5.05-6.92-.57-.41 2.25-3.09.56.42-2.24 3.08Zm5.07-6.95-.56-.42a173.4 173.4 0 0 1 2.31-3.04l.56.43c-.78 1-1.55 2.01-2.3 3.03Zm5.26-6.74-.54-.46c.8-.94 1.62-1.95 2.46-2.91l.53.46c-.83.96-1.65 1.93-2.45 2.9Zm5.64-6.43-.51-.48c.9-.94 1.8-1.88 2.68-2.73l.5.51c-.9.82-1.8 1.76-2.67 2.7Zm6.15-5.9-.46-.54c.94-.85 1.96-1.67 2.94-2.43l.44.56c-1 .79-1.94 1.56-2.93 2.4Zm6.74-5.2-.4-.58a61.36 61.36 0 0 1 3.22-2.05l.37.6a63.04 63.04 0 0 0-3.2 2.03h.01Zm7.33-4.29-.31-.63c1.13-.56 2.3-1.1 3.47-1.6l.27.65a63.57 63.57 0 0 0-3.44 1.58Z"/><path fill="#263238" d="m62.84 139.85-.17-1.87c1.67-.15 3.35-.32 5.03-.52l.23 1.84-5.09.55Zm126-99.67-.17-1.87c1.68-.15 3.35-.32 5.03-.52l.23 1.84-5.09.55Z"/><path fill="#37474F" d="M91.98 115.8 44.8 177.86a5.77 5.77 0 0 1-5.82 2.04L4.8 169.48a2.43 2.43 0 0 1-1.85-1.73 2.39 2.39 0 0 1 .74-2.42l47.19-62.04a5.72 5.72 0 0 1 5.82-2.04l34.17 10.41a2.42 2.42 0 0 1 1.85 1.73 2.38 2.38 0 0 1-.74 2.42Zm126.01-99.66-47.2 62.04a5.78 5.78 0 0 1-5.82 2.04l-34.17-10.4a2.42 2.42 0 0 1-1.85-1.74 2.39 2.39 0 0 1 .74-2.42l47.19-62.04a5.72 5.72 0 0 1 5.82-2.03l34.17 10.4a2.42 2.42 0 0 1 1.85 1.74 2.37 2.37 0 0 1-.73 2.41Z"/><path fill="#263238" d="M87.89 110.33 53.79 99.8a5.73 5.73 0 0 0-5.81 2.08L.9 164.6a2.42 2.42 0 0 0-.12 3.7c.34.3.77.52 1.23.6l34.1 10.51a5.78 5.78 0 0 0 5.8-2.06L89 114.65a2.42 2.42 0 0 0-1.11-4.32Zm-46.68 64.3a5.38 5.38 0 0 1-5.35 2.04l-30.49-9.4c-1.71-.53-2.1-2.43-.84-3.95l43.83-58.4c2.41-3.34 4.03-3.1 5.74-2.57l6.1 1.9c.36 0 .38.55 0 .99l-.15.2c-.8 1.06-.14 1.25.65 1.5l14.13 4.36a1.63 1.63 0 0 0 2.21-.6l.15-.2a1.3 1.3 0 0 1 1.25-.6l6.12 1.88c1.69.51 2.75 1.39.44 4.46l-43.8 58.4ZM213.89 10.66 179.79.14a5.73 5.73 0 0 0-5.81 2.09l-47.07 62.7a2.43 2.43 0 0 0 1.11 4.3l34.1 10.52a5.78 5.78 0 0 0 5.8-2.06L215 14.98a2.42 2.42 0 0 0 .14-3.72 2.4 2.4 0 0 0-1.25-.6ZM167.2 74.97a5.38 5.38 0 0 1-5.35 2.04l-30.49-9.4c-1.71-.54-2.1-2.43-.84-3.96l43.83-58.4c2.41-3.34 4.03-3.1 5.74-2.56l6.1 1.89c.36 0 .38.56 0 1l-.15.19c-.8 1.06-.14 1.26.65 1.5l14.13 4.36a1.63 1.63 0 0 0 2.21-.6l.15-.2a1.3 1.3 0 0 1 1.25-.6l6.12 1.89c1.69.5 2.75 1.38.44 4.46l-43.8 58.4Z"/><path fill="#fff" d="m70.72 108.74-4.16-1.4a.2.2 0 0 1 0-.3.43.43 0 0 1 .2-.17.4.4 0 0 1 .25-.01l4.18 1.38a.2.2 0 0 1 .06.07.21.21 0 0 1 0 .2.2.2 0 0 1-.06.06.47.47 0 0 1-.21.16.44.44 0 0 1-.26.01Zm126-99.66-4.16-1.41a.19.19 0 0 1-.05-.07.2.2 0 0 1-.02-.09c0-.03 0-.06.02-.08a.19.19 0 0 1 .05-.07.42.42 0 0 1 .2-.16.39.39 0 0 1 .25 0l4.18 1.37c.03.02.05.04.06.07a.2.2 0 0 1 0 .2.19.19 0 0 1-.06.07.47.47 0 0 1-.22.15.44.44 0 0 1-.25.02Z"/><path fill="#fff" d="m84.76 116.24-43.66 58.3a5.35 5.35 0 0 1-5.33 2.04l-30.37-9.4c-1.7-.53-2.09-2.41-.84-3.94l43.67-58.3c2.4-3.34 4-3.1 5.7-2.57l6.08 1.89c.36 0 .39.56 0 1l-.14.19c-.8 1.06-.15 1.25.65 1.5l14.06 4.35a1.62 1.62 0 0 0 2.21-.6l.14-.2a1.3 1.3 0 0 1 1.25-.6l6.1 1.89c1.8.5 2.78 1.35.48 4.45Zm126-99.67-43.66 58.3a5.35 5.35 0 0 1-5.33 2.04l-30.37-9.39c-1.7-.53-2.09-2.42-.84-3.95l43.66-58.3c2.4-3.34 4.01-3.1 5.72-2.56L186 4.59c.36 0 .39.56 0 1l-.14.19c-.8 1.06-.15 1.26.65 1.5l14.06 4.36a1.62 1.62 0 0 0 2.21-.6l.14-.2a1.3 1.3 0 0 1 1.25-.6l6.1 1.88c1.8.5 2.78 1.36.48 4.45Z"/><path fill="#FFC727" d="m84.76 116.33-3.26 4.38-36.53-11.37 3.26-4.38c2.4-3.36 4-3.12 5.71-2.59l6.08 1.9c.36 0 .38.56 0 1l-.15.2c-.79 1.07-.14 1.26.65 1.5l14.06 4.4a1.61 1.61 0 0 0 2.21-.62l.15-.2a1.3 1.3 0 0 1 1.25-.6l6.07 1.9c1.82.51 2.8 1.36.5 4.48Zm126-99.67-3.26 4.39-36.53-11.38 3.26-4.38c2.4-3.36 4-3.12 5.71-2.58l6.08 1.9c.36 0 .38.56 0 1l-.15.2c-.79 1.06-.14 1.26.65 1.5l14.06 4.39a1.61 1.61 0 0 0 2.21-.61l.15-.2a1.3 1.3 0 0 1 1.25-.6l6.07 1.9c1.82.5 2.8 1.36.5 4.47Z"/><path fill="#fff" d="m50.16 108.28-.4-1 1.85-.44.05.16-1.53.39.33.8-.3.09Zm126-99.67-.41-.99 1.86-.44.05.15-1.53.39.34.81-.31.08ZM81.74 116.36a.32.32 0 0 1-.35 0 .16.16 0 0 1 0-.27c.04-.06.1-.1.15-.13a.35.35 0 0 1 .2-.02c.05.18.1.31 0 .42Zm126-99.67a.32.32 0 0 1-.35 0 .16.16 0 0 1-.07-.13.16.16 0 0 1 .07-.13c.04-.06.1-.1.15-.14a.34.34 0 0 1 .2-.02c.05.18.1.31 0 .42ZM81.18 117.3a.22.22 0 0 1-.14.07.22.22 0 0 1-.14-.06.15.15 0 0 1-.04-.06.2.2 0 0 1 0-.14c0-.03.02-.05.04-.06.02-.06.06-.1.11-.13s.1-.04.15-.02c.04 0 .08.01.11.05a.2.2 0 0 1 .05.14c0 .05 0 .1-.04.15a.14.14 0 0 1-.1.07Zm126-99.66a.22.22 0 0 1-.14.06.22.22 0 0 1-.14-.06.16.16 0 0 1-.04-.05.2.2 0 0 1 0-.15l.03-.06a.3.3 0 0 1 .12-.13c.05-.03.1-.04.15-.02.04 0 .08.01.11.05s.05.09.05.14c0 .06 0 .11-.03.15a.14.14 0 0 1-.11.07ZM80.7 117.79a.2.2 0 0 1-.13.05.2.2 0 0 1-.13-.05c-.09 0-.1-.16 0-.29a.3.3 0 0 1 .12-.11.2.2 0 0 1 .14-.02c.04 0 .08.02.1.06.03.04.04.1.04.15 0 .06-.01.1-.04.15a.11.11 0 0 1-.1.06Zm126-99.67a.2.2 0 0 1-.13.06.2.2 0 0 1-.13-.06c-.09 0-.1-.15 0-.28a.3.3 0 0 1 .12-.12.2.2 0 0 1 .14-.01c.04 0 .08.02.1.06.03.04.04.09.04.14 0 .06-.01.11-.04.15a.11.11 0 0 1-.1.06ZM58.09 105.4h-.17a.53.53 0 0 0-.41-.38 1.25 1.25 0 0 0-.72 0h.94v.14l.36.25Zm-1.23-.07a.93.93 0 0 1 .5 0 .46.46 0 0 1 .44.34h-.15a.43.43 0 0 0-.29-.24.67.67 0 0 0-.5-.1Z"/><path fill="#fff" d="M57.37 105.62h-.15a.21.21 0 0 0-.14-.14.52.52 0 0 0-.27 0c.34-.15.56-.07.56.14Zm-.22.08H57c-.14 0 0 0 0 0h.12s.05-.03.03 0ZM184.09 5.74h-.17a.53.53 0 0 0-.41-.39 1.25 1.25 0 0 0-.72 0h.94v.15l.36.24Zm-1.23-.07a.92.92 0 0 1 .5 0 .46.46 0 0 1 .44.33h-.15a.43.43 0 0 0-.28-.24.68.68 0 0 0-.51-.1Z"/><path fill="#fff" d="M183.37 5.96h-.15a.22.22 0 0 0-.14-.15.53.53 0 0 0-.27 0c.34-.14.56-.07.56.15Zm-.22.07H183c-.14 0 0 0 0 0h.12s.05-.03.03 0ZM52.24 103.67c.04-.05.08-.1.13-.13a.3.3 0 0 1 .18-.05l.05.07a.21.21 0 0 1 0 .18.17.17 0 0 1-.05.06.36.36 0 0 1-.17.15.3.3 0 0 1-.2 0 .2.2 0 0 1-.03-.15c0-.03.02-.06.03-.08a.15.15 0 0 1 .06-.05ZM178.24 4a.4.4 0 0 1 .13-.13.3.3 0 0 1 .18-.04l.05.06a.2.2 0 0 1 .02.1.2.2 0 0 1-.02.08.18.18 0 0 1-.05.07.36.36 0 0 1-.17.14.3.3 0 0 1-.2.01.2.2 0 0 1-.03-.08v-.08a.2.2 0 0 1 .03-.07.16.16 0 0 1 .06-.05ZM53.17 104.14a.29.29 0 0 1 .15-.14.26.26 0 0 1 .19-.02l.05.07a.22.22 0 0 1 0 .17.17.17 0 0 1-.05.07.4.4 0 0 1-.16.13.29.29 0 0 1-.18.02.17.17 0 0 1-.05-.06.21.21 0 0 1 0-.18.17.17 0 0 1 .05-.06Zm126-99.67a.4.4 0 0 1 .15-.14.26.26 0 0 1 .19-.01l.05.06.02.1c0 .02 0 .05-.02.08a.16.16 0 0 1-.05.06.43.43 0 0 1-.16.14.29.29 0 0 1-.18.02.17.17 0 0 1-.05-.07.21.21 0 0 1-.02-.09c0-.03 0-.06.02-.08a.17.17 0 0 1 .05-.07ZM53.63 104.15a.33.33 0 0 1 .15-.16.19.19 0 0 1 .18 0c.12 0 .14.23 0 .38a.25.25 0 0 1-.18.08.25.25 0 0 1-.17-.08c-.04.13-.06-.06.02-.22Zm126-99.66a.33.33 0 0 1 .15-.16.19.19 0 0 1 .18 0c.12 0 .14.22 0 .38a.25.25 0 0 1-.18.07.25.25 0 0 1-.17-.07c-.04.12-.06-.07.02-.22ZM54.6 104.61c.05-.06.1-.1.16-.13a.3.3 0 0 1 .18-.02c.03.01.04.03.05.06a.22.22 0 0 1 0 .18.17.17 0 0 1-.05.06.35.35 0 0 1-.15.14.27.27 0 0 1-.19.02.17.17 0 0 1-.05-.07.22.22 0 0 1 0-.18.17.17 0 0 1 .05-.06Zm126-99.67a.4.4 0 0 1 .16-.13.3.3 0 0 1 .18-.02c.03.02.04.04.05.07a.22.22 0 0 1 0 .17.17.17 0 0 1-.05.07.36.36 0 0 1-.15.14.27.27 0 0 1-.19.01.18.18 0 0 1-.05-.06.22.22 0 0 1-.02-.1l.02-.08a.18.18 0 0 1 .05-.07ZM55.14 104.61a.65.65 0 0 1 .29-.14.91.91 0 0 1 .35 0c.23 0 .27.17 0 .3a.64.64 0 0 1-.28.14.9.9 0 0 1-.36 0 .25.25 0 0 1-.1-.06.13.13 0 0 1-.03-.09.1.1 0 0 1 .04-.08.24.24 0 0 1 .1-.07Zm126-99.66a.65.65 0 0 1 .29-.14.9.9 0 0 1 .35-.01c.23 0 .27.17 0 .3a.65.65 0 0 1-.28.14.9.9 0 0 1-.36 0 .23.23 0 0 1-.1-.06.13.13 0 0 1-.03-.08c0-.03.01-.06.04-.09a.23.23 0 0 1 .1-.06ZM83.72 114.5l-3.35-.86 1.43-1.54 3.35.84-1.43 1.56Zm126-99.67-3.35-.85 1.43-1.54 3.35.83-1.43 1.56Z"/><path fill="#fff" d="m83.24 112.97-1.1-.39-.34.54 1.09.42.35-.57Zm126-99.67-1.1-.38-.34.54 1.09.41.35-.56ZM83.87 114.02l-.16-.05.32-.43.16.05-.32.43Zm126-99.67-.16-.05.32-.43.16.05-.32.43Z"/><path fill="#EBEBEB" d="m10.52 164.23-.28-.09-.94 1.06-.57-.15.47-.53-.99-.27-.46.53-.57-.13.93-1.06-.31-.07 2.3-.7.42 1.4Zm126-99.67-.28-.09-.94 1.07-.57-.16.47-.53-.99-.27-.46.54-.57-.14.93-1.06-.31-.07 2.3-.7.42 1.41ZM38.94 172.38l-3.06-1.04.29-.4 3.06 1.01-.3.43Zm126-99.67-3.06-1.03.29-.4 3.06 1-.3.43ZM38.46 173.34l-3.06-1.02.3-.42 3.05 1.02-.3.42Zm126-99.67-3.06-1.02.3-.42 3.05 1.02-.3.42ZM37.5 174.3l-3.06-1.03.3-.41 3.05 1.01-.29.42Zm126-99.67-3.06-1.02.3-.42 3.05 1.02-.29.42ZM24.4 168.36l-1.65.67-.27-1.32.27-.12.24 1.12 1.33-.59.08.24Zm126-99.67-1.65.67-.27-1.31.27-.12.24 1.11 1.33-.58.08.23Z"/><path fill="#EBEBEB" d="M22.74 170.9c-.3.06-.62.06-.93 0a2.54 2.54 0 0 1-1.62-1.5 2.48 2.48 0 0 1 .48-2.28 3.85 3.85 0 0 1 3.94-1.33 2.36 2.36 0 0 1 1.6 1.5 2.48 2.48 0 0 1-.46 2.29 3.86 3.86 0 0 1-3 1.32Zm.89-2.85c-.31.03-.6.15-.84.35.35-.01.67-.13.94-.35h-.1Zm125.11-96.81c-.3.05-.62.05-.93 0a2.54 2.54 0 0 1-1.62-1.5 2.48 2.48 0 0 1 .48-2.28 3.84 3.84 0 0 1 3.94-1.33 2.35 2.35 0 0 1 1.6 1.5 2.5 2.5 0 0 1-.46 2.28 3.86 3.86 0 0 1-3 1.33Zm.89-2.86c-.31.03-.6.15-.84.35.34 0 .68-.13.94-.35h-.1Z"/><path fill="#fff" d="M62.3 111.35c.16-.26.38-.46.63-.57.24-.12.5-.14.76-.07.09.02.17.08.24.15a.8.8 0 0 1 .17.27s0 .2-.1.22c-.1.02-.17 0-.19 0a.54.54 0 0 0-.11-.2.37.37 0 0 0-.17-.1.62.62 0 0 0-.54 0c-.16.08-.3.2-.43.38a.7.7 0 0 0-.1.25.79.79 0 0 0 0 .28c.03.09.07.17.12.23.05.07.12.12.19.14.15.06.3.06.45 0h.16c0 .05-.02.1-.04.13a.15.15 0 0 1-.1.06.93.93 0 0 1-.66 0 .6.6 0 0 1-.22-.19.85.85 0 0 1-.14-.3 1 1 0 0 1 .08-.68Zm126-99.67c.16-.26.38-.46.63-.57.24-.11.5-.14.76-.07a.6.6 0 0 1 .24.15c.07.08.13.17.17.28 0 0 0 .18-.1.21s-.16 0-.19 0a.53.53 0 0 0-.11-.19.38.38 0 0 0-.17-.1.63.63 0 0 0-.54 0c-.16.07-.3.2-.43.37a.7.7 0 0 0-.1.25.79.79 0 0 0 0 .29 1 1 0 0 0 .12.23c.05.06.12.11.19.14.15.05.3.05.45 0h.16c0 .05-.02.1-.04.12a.15.15 0 0 1-.1.07.93.93 0 0 1-.66 0 .6.6 0 0 1-.23-.2.84.84 0 0 1-.13-.3 1 1 0 0 1 .08-.68ZM63.64 112.82l1.09-1.63a.26.26 0 0 1 .27 0l.04.05a.16.16 0 0 1-.04.17l-.44.65.71.25.44-.67a.22.22 0 0 1 .25 0s.12 0 0 .2l-1.08 1.66a.22.22 0 0 1-.25 0s-.12 0 0-.22l.44-.68-.71-.26-.44.68a.26.26 0 0 1-.28 0s-.04-.08 0-.2Zm126.01-99.66 1.08-1.64a.27.27 0 0 1 .27 0 .15.15 0 0 1 .05.11l-.01.06-.04.05-.44.65.71.26.44-.68a.22.22 0 0 1 .25 0s.12 0 0 .2l-1.08 1.66a.22.22 0 0 1-.25 0s-.12 0 0-.22l.44-.68-.71-.25-.44.67a.27.27 0 0 1-.27 0s-.05-.08 0-.2ZM66.79 113.17l-.69-.15-.37.2a.25.25 0 0 1-.2 0v-.16l1.7-.94a.31.31 0 0 1 .22 0v.1l-.47 1.2a.2.2 0 0 1-.08.09.3.3 0 0 1-.14.03v-.1l.03-.27Zm0-.22.17-.46-.61.35.44.11Zm126-99.45-.69-.14-.37.2a.25.25 0 0 1-.2 0v-.17l1.7-.93a.32.32 0 0 1 .22 0v.09l-.47 1.21a.21.21 0 0 1-.08.08.3.3 0 0 1-.14.03v-.09l.03-.27Zm0-.22.17-.46-.61.35.44.11ZM69.06 112.77l-.4-.15-.95 1.36a.24.24 0 0 1-.13.04.24.24 0 0 1-.13-.04v-.18l.94-1.33-.4-.16s-.11 0 0-.17a.23.23 0 0 1 .12-.04c.04 0 .08.02.12.04l1.13.38v.17a.25.25 0 0 1-.3.08Zm126-99.67-.4-.15-.95 1.36a.24.24 0 0 1-.26 0v-.17l.95-1.34-.4-.15s-.13 0 0-.18a.23.23 0 0 1 .23 0l1.13.38v.18a.26.26 0 0 1-.14.09.25.25 0 0 1-.16-.02Z"/><path fill="#455A64" d="m30.62 134.93 26.45 8.27 5.6-7.52-26.49-8.27-5.56 7.52Zm126-99.66 26.45 8.26 5.6-7.52-26.49-8.26-5.56 7.52Z"/><path fill="#455A64" d="m59.32 143.68-2.4-.72 1.69-2.15.7 2.87Zm126-99.67-2.4-.71 1.69-2.16.7 2.87Z"/><path fill="#fff" d="m59.7 136.5-22.87-7.06.1-.12 22.87 7.04-.1.14Zm126-99.67-22.87-7.05.1-.12 22.87 7.03-.1.14ZM54.44 136.02l-18.56-5.6.1-.14 18.55 5.6-.1.14Zm126-99.66-18.56-5.6.1-.14 18.55 5.6-.1.14ZM56.35 138.41l-21.43-6.55.1-.14 21.43 6.57-.1.12Zm126-99.66-21.43-6.55.1-.15 21.43 6.58-.1.12ZM57.76 139.37l-23.32-7.03.1-.15 23.34 7.04-.12.14Zm126-99.67-23.32-7.03.1-.14 23.34 7.03-.12.14ZM57.3 140.33l-23.34-7.04.1-.14 23.34 7.03-.1.15Zm126-99.67-23.34-7.03.1-.14 23.34 7.03-.1.14ZM50.1 138.9l-16.61-5.15.12-.12 16.62 5.12-.12.14Zm126.01-99.67-16.62-5.15.11-.12 16.63 5.12-.12.15Z"/><path fill="#455A64" d="m17.7 152.4 26.09 8.02 5.48-7.3-26.06-8-5.51 7.28Zm126-99.66 26.09 8.01 5.48-7.3-26.06-8-5.51 7.29ZM46.4 160.9l-2.39-.72 1.66-2.15.73 2.87Zm126-99.67-2.39-.72 1.66-2.15.73 2.87Z"/><path fill="#fff" d="m46.78 153.72-23.34-7.05.1-.12 23.34 7.03-.1.14Zm126-99.66L149.44 47l.1-.12 23.34 7.03-.1.15ZM41.5 153.24l-18.54-5.6.12-.14 18.54 5.6-.12.14Zm126-99.66-18.54-5.6.12-.14 18.54 5.6-.12.14ZM43.43 155.63 22 149.08l.1-.14 21.43 6.57-.1.13Zm126.01-99.66L148 49.42l.1-.15 21.43 6.58-.1.12ZM44.4 157.07l-22.87-7.5.1-.15 22.86 7.5-.1.15Zm126-99.67-22.87-7.5.1-.15 22.86 7.5-.1.15ZM43.89 157.55l-23.32-7.03.12-.15 23.32 7.04-.12.14Zm126-99.67-23.32-7.03.12-.14 23.32 7.03-.12.14ZM37.21 156.6l-17.12-5.15.1-.12 17.12 5.14-.1.12Zm126-99.67-17.12-5.15.1-.12 17.12 5.15-.1.12Z"/><path fill="#FFC727" d="m70.4 129.32-26.4-8.1 4.68-6.25 26.41 8.11-4.7 6.24Zm126-99.66L170 21.55l4.68-6.24 26.41 8.1-4.7 6.25Z"/><path fill="#FFC727" d="m41.62 120.4 2.54.8 1.76-2.4-4.3 1.6Zm126-99.66 2.54.79 1.76-2.4-4.3 1.6Z"/><path fill="#fff" d="m68.76 122.63-19.49-6.07.1-.15 19.52 6.1-.13.12Zm126-99.67-19.49-6.07.1-.15 19.51 6.1-.12.12ZM72.14 124.54l-23.35-7.03.12-.14 23.32 7.03-.1.14Zm126-99.66-23.35-7.04.13-.14 23.31 7.03-.1.15ZM71.63 125.5l-23.31-7.53.1-.13 23.34 7.5-.13.16Zm126-99.67-23.31-7.52.1-.13 23.34 7.5-.13.15ZM69.27 125.5l-21.43-6.55.1-.15 21.42 6.55-.1.15Zm126-99.67-21.43-6.55.1-.15 21.42 6.56-.1.14ZM70.2 126.93l-23.32-7.5.1-.15 23.34 7.53-.12.12Zm126-99.66-23.32-7.5.1-.16 23.34 7.53-.12.13ZM63.5 125.5l-17.1-5.12.1-.14 17.12 5.14-.12.12Zm126-99.67-17.1-5.12.1-.14 17.12 5.14-.12.12Z"/><path fill="#FFC727" d="m66.32 134.59-26.62-7.93 3.5-4.51 26.64 7.93-3.52 4.5Zm126-99.67L165.7 27l3.5-4.5 26.63 7.92-3.52 4.51Z"/><path fill="#FFC727" d="m37.31 125.82 2.55.64 1.76-1.92-4.3 1.28Zm126-99.67 2.54.64 1.77-1.91-4.3 1.27Z"/><path fill="#fff" d="m67.35 130.76-23.34-7.03.1-.15 23.34 7.04-.1.14Zm126-99.66-23.34-7.04.1-.14 23.34 7.03-.1.14Zm-130.8 99.18-19.02-5.6.12-.14 19.02 5.6-.12.14Zm126-99.66-19.02-5.6.12-.14 19.02 5.6-.12.14ZM63.98 131.72l-20.93-6.55.1-.15 20.95 6.57-.12.13Zm126-99.67-20.93-6.55.1-.15 20.95 6.58-.12.12ZM58.24 131.24l-16.14-5.12.12-.14 16.14 5.14-.12.12Zm126-99.67-16.14-5.11.12-.15 16.14 5.14-.12.12Z"/><path fill="#DBDBDB" d="m53.02 151.8-26.23-7.95 4.89-6.4 26.2 7.97-4.86 6.39Zm126-99.66-26.23-7.96 4.89-6.39 26.2 7.96-4.86 6.4Z"/><path fill="#DBDBDB" d="m24.4 143.04 2.51.64 1.8-1.92-4.31 1.28Zm126-99.66 2.51.63 1.8-1.91-4.31 1.28Z"/><path fill="#fff" d="m52.5 147.98-21.88-6.55.12-.15 21.88 6.58-.12.12Zm126-99.66-21.88-6.56.12-.14 21.88 6.58-.12.12ZM50.13 148.46l-20-6.08.1-.14 20 6.08-.1.14Zm126-99.66-20-6.08.1-.15 20 6.08-.1.14ZM52.52 146.07l-20.95-6.08.12-.14 20.93 6.08-.1.14Zm126-99.67-20.95-6.08.12-.14 20.93 6.08-.1.14ZM55.4 146.07l-22.87-7.03.1-.15 22.86 7.03-.1.15Zm126-99.67-22.87-7.03.1-.14 22.86 7.03-.1.14ZM50.61 149.42l-20.95-6.58.12-.12 20.93 6.55-.1.15Zm126-99.67-20.95-6.57.12-.13 20.93 6.55-.1.15Z"/><path fill="#FFC727" d="m40.87 168.07-26.52-8.03 4.12-5.36 26.5 8.03-4.1 5.36ZM166.88 68.4l-26.53-8.03 4.12-5.36 26.5 8.03-4.1 5.37Z"/><path fill="#FFC727" d="m11.96 159.63 2.54.79 1.76-2.4-4.3 1.61Zm126-99.67 2.54.8 1.76-2.4-4.3 1.6Z"/><path fill="#fff" d="m42.45 163.77-23.32-7.06.1-.12 23.34 7.03-.12.15Zm126-99.67-23.31-7.05.1-.12 23.33 7.03-.12.14ZM42 164.25l-23.34-7.06.1-.12 23.34 7.03-.1.15Zm126-99.67-23.34-7.06.1-.12 23.34 7.04-.1.14ZM39.6 164.72l-21.42-6.55.12-.14 21.4 6.55-.1.14Zm126-99.66-21.42-6.55.12-.15 21.4 6.55-.1.15ZM40.57 165.68l-22.87-7.03.1-.14 22.86 7.05-.1.12Zm126-99.67-22.87-7.03.1-.14 22.86 7.06-.1.11ZM34.34 164.72l-17.6-5.12.13-.14 17.57 5.15-.1.11Zm126-99.66-17.6-5.12.13-.14 17.57 5.14-.1.12Z"/></svg>