<svg fill="white" xmlns="http://www.w3.org/2000/svg" xml:space="preserve" baseProfile="tiny" overflow="visible" version="1.2" viewBox="0 0 213 213"><path d="M213 183.6c-.9 1.6-1.7 3.4-2.9 4.9a10 10 0 0 1-7.5 3.8l-3.3.1H85.6c-.1 3.9-1.1 7.4-3.5 10.3a14.5 14.5 0 0 1-11 5.4H32.9a14.6 14.6 0 0 1-14.3-12.6l-.4-3.1H12c-7-.3-11.5-5-11.5-12v-78.7c0-23 .1-46.1-.1-69.1C.3 25.4 5.6 19.4 13 19.9h5.2c.2-4.2 1.4-7.8 4.2-10.7a15 15 0 0 1 11.2-4.6h35.5c9.9 0 15.6 5.3 16.5 15.3h55.8c1.7.1 3 1.5 3 3.1s-1.3 2.9-3.1 3.1H85.6V186h114.9c4.2 0 6.2-2 6.3-6.2v-16c0-1.8.1-3.3 2.1-4.1 2-.8 3.1.4 4.2 1.8l-.1 22.1zm-194.7 2.5v-33.5l.1-2.1c.4-1.6 1.5-2.6 3.1-2.5 1.7.1 2.8 1.1 3 2.9l.1 2.3v39c0 6 3.4 9.6 9.2 9.7h36.3c4.3 0 7.6-2.3 8.6-5.9.4-1.4.5-3 .5-4.5V20.4c0-5.7-3.5-9.4-9.1-9.4-12.2-.1-24.4-.1-36.5 0-4.3 0-7.5 2.3-8.5 6-.4 1.5-.5 3.1-.5 4.7v113.8l-.1 2.7c-.2 1.6-1.2 2.5-2.7 2.7-1.6.2-2.7-.6-3.2-2.1-.3-.9-.3-1.9-.3-2.9V26.3h-4.6c-5.1 0-7 1.9-7 7v148.1a5.3 5.3 0 0 0 5.2 4.9c2-.2 4-.2 6.4-.2z"/><path d="M213 150.8c-1 .6-2 1.7-3 1.8-1.6.2-2.9-.9-3.1-2.6V33.3c0-5.2-1.8-7.1-7.1-7.1h-43.6c-.6 0-1.3.1-1.9-.1-1.7-.4-2.7-1.4-2.6-3.2.1-1.7 1-2.7 2.7-2.9h1.9c14.2 0 28.4.2 42.6-.1 7.1-.1 12 2.3 14.3 9.2-.2 40.5-.2 81.1-.2 121.7z"/><path d="M148.5 71.4h-44.2c-3.4 0-4.5-1.1-4.5-4.4V46.7c0-3.3 1.1-4.4 4.3-4.4h88.6c3.3 0 4.3 1 4.3 4.3v20.5c0 3.3-1.1 4.3-4.4 4.3h-44.1zm-42.2-6.3h84.2V48.7h-84.2v16.4zm2.5 49.8a10.8 10.8 0 0 1 21.6 0 11 11 0 0 1-10.8 10.8c-6 .1-10.8-4.8-10.8-10.8zm15.1.2c0-2.4-2-4.5-4.4-4.5-2.3 0-4.3 2.1-4.4 4.4-.1 2.4 2.1 4.5 4.5 4.5 2.4-.1 4.3-2 4.3-4.4zm51.8-10.8c5.9 0 10.8 5 10.7 10.9a11 11 0 0 1-10.8 10.7c-5.9 0-10.8-4.9-10.8-10.8.1-6.1 5-10.9 10.9-10.8zm.1 6.3c-2.3-.1-4.6 2-4.6 4.4-.1 2.3 1.9 4.4 4.3 4.5 2.4.1 4.4-1.7 4.6-4.1a4.6 4.6 0 0 0-4.3-4.8zm-.1-30.4a10.7 10.7 0 1 1 0 21.5 10.7 10.7 0 0 1 0-21.5zm0 15c2.4 0 4.3-1.9 4.4-4.3.1-2.4-2.1-4.5-4.4-4.5a4.6 4.6 0 0 0-4.4 4.4c-.2 2.4 1.9 4.5 4.4 4.4zm.1 33.1c5.9.1 10.7 5.1 10.6 11a11 11 0 0 1-10.8 10.6c-5.9 0-10.8-5-10.7-10.9 0-5.9 5-10.7 10.9-10.7zm4.3 10.9a4.5 4.5 0 0 0-4.2-4.5 4.5 4.5 0 0 0-4.6 4.3c-.1 2.4 2 4.5 4.4 4.5 2.3 0 4.3-1.9 4.4-4.3zm-60.5-10.9a11 11 0 0 1 10.8 10.9 11 11 0 0 1-10.7 10.7 10.8 10.8 0 0 1-.1-21.6zm4.3 10.8c0-2.4-2-4.3-4.3-4.4a4.6 4.6 0 0 0-4.5 4.5c0 2.3 2.1 4.3 4.4 4.4 2.4 0 4.4-2.1 4.4-4.5zm-15.1-48.3a10.8 10.8 0 0 1 21.5.1c0 5.9-5 10.9-10.9 10.8-5.8 0-10.6-5-10.6-10.9zm15.1.1c0-2.4-2.1-4.5-4.4-4.5-2.3 0-4.3 2.1-4.4 4.4 0 2.3 2 4.4 4.3 4.4 2.5.1 4.5-1.8 4.5-4.3zm34.4 48.5c-.2 6-5.1 10.7-11.1 10.5a11 11 0 0 1-10.4-11c.2-6.1 5.2-10.8 11.2-10.6 5.8.2 10.5 5.3 10.3 11.1zm-15.1-.2c0 2.4 2 4.3 4.4 4.3 2.4 0 4.5-2.1 4.4-4.5a4.6 4.6 0 0 0-4.4-4.3c-2.4 0-4.4 2-4.4 4.5zm15.1-24.2c0 5.9-4.9 10.8-10.8 10.8-5.8 0-10.6-4.8-10.7-10.7a10.9 10.9 0 0 1 10.7-10.9c6 0 10.8 4.8 10.8 10.8zm-15.1.1c0 2.4 1.9 4.3 4.3 4.3s4.5-2 4.4-4.5c0-2.3-2.1-4.4-4.4-4.4-2.2 0-4.3 2.1-4.3 4.6zm-23.7 59c-6 0-10.7-4.8-10.7-10.8 0-5.8 4.9-10.7 10.7-10.7 5.8-.1 10.8 5 10.9 10.8 0 5.9-4.9 10.7-10.9 10.7zm4.4-10.8c0-2.5-2-4.4-4.5-4.3-2.3.1-4.4 2.1-4.3 4.4 0 2.3 2.1 4.3 4.4 4.4 2.4 0 4.5-2.1 4.4-4.5zm34.4-72.2c-.2 6-5.2 10.8-11 10.6a11 11 0 0 1-10.5-10.9c.1-6.2 5.1-10.8 11.4-10.6 5.7.1 10.3 5.1 10.1 10.9zm-10.8 4.2c2.5 0 4.5-1.9 4.5-4.4 0-2.3-2-4.4-4.3-4.5-2.3-.1-4.4 1.9-4.5 4.3a4.4 4.4 0 0 0 4.3 4.6zm28.2 78.8c-6 0-10.8-4.7-10.9-10.7a11 11 0 0 1 10.8-10.9 11 11 0 0 1 10.8 10.7c.1 5.9-4.7 10.8-10.7 10.9zm4.4-10.7a4.4 4.4 0 0 0-4.2-4.5 4.3 4.3 0 0 0-4.6 4.3c-.1 2.3 2.1 4.5 4.4 4.5 2.3.1 4.3-1.9 4.4-4.3zm-32.4 10.7c-6 0-10.8-4.8-10.8-10.7a11 11 0 0 1 10.8-10.8 11 11 0 0 1 10.7 10.7c0 5.9-4.7 10.7-10.7 10.8zm-.1-15.1a4.3 4.3 0 0 0-4.4 4.5c0 2.4 2 4.3 4.4 4.3 2.4 0 4.5-2.1 4.4-4.5 0-2.4-2-4.3-4.4-4.3zM49 110.3V57.4c.2-1.8 1.4-2.7 3.1-2.7 1.6 0 2.7.9 3 2.6l.1 1.7v104.1c-.3 1.7-1.3 2.7-3.1 2.7s-2.8-1-3-2.8v-3.7l-.1-49z"/></svg>