<svg xmlns="http://www.w3.org/2000/svg" width="136" height="135" fill="none"><path fill="#263238" d="M82.89 9.49c10.56 18.15 6.98 43.36-14.96 60.38C47.96 85.36 18 83.1 6.87 70.27-4.93 56.65-.39 37.8 11.81 31.74c11.76-5.85 24.01-2.73 31.72-9.75 3.68-3.37 6.23-11.42 11.46-16.64 5.84-5.8 21.1-7.5 27.9 4.14Z"/><path fill="#263238" d="M21.03 80.06a50.83 50.83 0 0 0 25.42 1.38 56.4 56.4 0 0 0 23.3-10.72 48.43 48.43 0 0 0 15.71-20.18A47.94 47.94 0 0 0 88.2 25.2a50.3 50.3 0 0 1-3.47 25.03 47.2 47.2 0 0 1-6.5 10.89 51.09 51.09 0 0 1-9.13 8.8 60.9 60.9 0 0 1-10.81 6.66 55.08 55.08 0 0 1-24.67 5.29 49.2 49.2 0 0 1-12.58-1.82ZM8.28 32.7c2.1-1.62 4.43-2.9 6.92-3.79a34 34 0 0 1 7.64-1.81 130 130 0 0 0 7.89-1.15 34.58 34.58 0 0 0 7.73-2.33 21.79 21.79 0 0 0 3.58-1.94c1.1-.8 2.1-1.75 2.97-2.81a66.9 66.9 0 0 0 4.5-6.61 30.86 30.86 0 0 1 4.91-6.14A21.6 21.6 0 0 1 61 1.84c-2.55.84-4.9 2.17-6.94 3.91a31.2 31.2 0 0 0-5.23 6.07c-1.54 2.18-2.87 4.48-4.54 6.47a14.5 14.5 0 0 1-2.81 2.61 20.8 20.8 0 0 1-3.44 1.82c-4.77 2.12-10.1 2.72-15.3 3.55-2.65.4-5.24 1.12-7.71 2.14a23.6 23.6 0 0 0-6.75 4.29Z"/><path fill="#EB9481" d="M68.9 56.45c13.19 21.13 46.18 52.1 55.05 46.3 10.9-7.08 7.66-40.99 7.54-46.8-.07-4.06-29.95 1-28.4 5.08.9 2.47 1.66 5.7 1.05 5.4-1.9-.92-5.93-6.12-24.04-18.44-10.09-6.83-19.93-5.52-11.2 8.46Z"/><path fill="#EB9481" d="M122.39 20.83a4.31 4.31 0 0 0-4.34 2.36 6.43 6.43 0 0 0-4.08-1.52c-2.66.1-3.64 4.3-3.64 4.3a7.86 7.86 0 0 0-4.53-.91c-2.53.34-4.13 4.43-4.13 4.43a6.98 6.98 0 0 0-4.54 1.73c-3.23 3.08-1.86 9.75-1.04 14 .83 4.25 7.16 15.53 8.17 17.8l27.33-5.07s1.72-20.11 0-24.98c-1.47-4.1-5.83-11.65-9.2-12.14Z"/><path fill="#263238" d="M118.5 23.3c2.56 3.99 3.79 8.52 5.27 12.97v.06a.08.08 0 0 1-.11.04.09.09 0 0 1-.05-.05c-1.42-4.45-3.7-8.55-5.3-12.92a.11.11 0 0 1-.01-.09.11.11 0 0 1 .2-.01Zm-7.82 2.68c.5.98.86 2.02 1.08 3.09.3 1.1.61 2.21.9 3.32a131.2 131.2 0 0 1 1.47 6.72c0 .1-.13.15-.16 0-.54-2.22-1.12-4.42-1.76-6.62-.31-1.1-.65-2.19-.99-3.28a14.68 14.68 0 0 1-.8-3.13.17.17 0 0 1 .1-.12.17.17 0 0 1 .16.02Zm-9.05 3.6c.43.87.71 1.82.83 2.78.22 1.02.45 2.05.69 3.06.48 2.04.95 4.07 1.5 6.08 0 .03 0 .05-.02.06a.08.08 0 0 1-.12 0 .08.08 0 0 1-.02-.06c-.56-2.04-1.15-4.08-1.7-6.12-.27-1.01-.54-2.02-.79-3.03a8.03 8.03 0 0 1-.48-2.8l.03-.02h.03l.03.02.02.03Z"/><path fill="#EBEBEB" d="m102.9 62.96 30.24-5.5s2.86 47.1-11.62 47.1c-11.63 0-41.87-29.4-51.99-45.8-10.12-16.38-1.06-18.62 10.53-11.63 9.45 5.7 20.07 15.54 23.27 18.16l-.44-2.33Z"/><path fill="#EBEBEB" d="m103.22 65.28 32.19-2.87-.95-6.4-32.25 6.06 1 3.2Z"/><path fill="#DBDBDB" d="M124.48 103.81c-.91.5-1.93.76-2.96.75-11.63 0-41.87-29.4-51.99-45.8-7.04-11.4-4.8-15.94 1.12-15.3l53.83 60.35Z"/><path fill="#263238" d="m103.33 65.28.73 2.9.71 2.88 1.42 5.77c.48 1.92.97 3.83 1.48 5.74.27.95.53 1.9.84 2.85l.9 2.84a36.4 36.4 0 0 1-2.38-5.45c-.68-1.87-1.2-3.8-1.7-5.72a62 62 0 0 1-1.22-5.85 58.65 58.65 0 0 1-.78-5.96Zm29.22-2.88c-4.69.3-9.36.9-14.03 1.44-2.31.28-4.64.56-6.95.86-2.32.3-4.7.69-7.07.9-.08 0-.08.16 0 .15 2.39-.25 4.79-.37 7.19-.6 2.4-.2 4.64-.44 6.96-.7 4.64-.53 9.31-1.05 13.9-1.93.1 0 .07-.13 0-.12Z"/><path fill="#EBEBEB" d="m100.66 127.02-4.03-13-2.83-19.19s5.98-10.75 2.33-18.37c-1.82-3.86-17.86-27.8-24.5-32.52-6.27-4.43-15.22.5-18.54 4.07-12.7 13.76-15.5 47.61-19.68 84.42l44.8-3.63 4.38-9.63 4.1 8.95 13.97-1.1Z"/><path fill="#263238" d="M97.24 78.67a17.75 17.75 0 0 0-2.21-4.54c-.32-.52-1.03-1.6-1.87-2.87-.24-.6-.52-1.22-.82-1.82a27.84 27.84 0 0 1-1.39-2.68.07.07 0 0 0-.1.1c.43.86.82 1.75 1.16 2.66a268.9 268.9 0 0 0-3.58-5.17c-.05-.07-.17 0-.12.07 1.37 1.75 5.87 9.4 6.96 11.35a13.12 13.12 0 0 1 1.62 6.27c0 2.27-.26 4.53-.8 6.74-.05.19.14.28.21.1a18.1 18.1 0 0 0 1.18-5.02c.23-1.73.15-3.5-.24-5.2Z"/><path fill="#EB9481" d="M57.96 54.24c-4.05 6.25-23.95 31.26-24.65 33.59-.7 2.32 5.36 7.56 5.32 8.52-.13 3.9-7.1 30.2-10.6 27.76-4.6-3.22-26.47-26.33-24.4-37.22C5.67 75.99 48 47.86 54.8 45.29c6.8-2.59 7.14 2.79 3.15 8.95Z"/><path fill="#EBEBEB" d="m18.21 115.51 18.93-21.2s-3.52-5.1-3.5-5.85c.02-.75 17.44-21.4 24.15-32.68 6.7-11.28 3.96-14.77-8.85-8.34-12.82 6.43-43.9 30.52-45.45 38.4C1.1 97.86 18.2 115.5 18.2 115.5Z"/><path fill="#EBEBEB" d="m15.14 114.95 5.08 5.08 18.04-24.84-2.08-2.87-21.04 22.63Z"/><path fill="#263238" d="M35.14 93.02a61.58 61.58 0 0 0-4.74 4.87c-1.56 1.64-3.08 3.33-4.6 5a258.72 258.72 0 0 0-8.93 10.34c0 .02 0 .04.02.05a.07.07 0 0 0 .1 0 232.5 232.5 0 0 0 9.4-9.99c1.53-1.68 3.05-3.36 4.55-5.07a61.32 61.32 0 0 0 4.32-5.14c.03-.05-.07-.1-.12-.06Zm14.91-24.3a84.2 84.2 0 0 1-2.27 1.97l-.27.23c1.33-1.81 2.63-3.63 3.9-5.44 0 0-.04-.1-.07-.06-3.92 4.54-7.58 9.3-10.96 14.25a.07.07 0 0 0 .02.08.07.07 0 0 0 .09 0c2.13-2.4 4.14-4.94 6.07-7.53.48-.42.9-.85 1.4-1.3.71-.71 1.45-1.41 2.2-2.1.07-.07-.04-.16-.1-.1Z"/><path fill="#EB9481" d="M44.98 132.45c2.56-2.57-1.94-4.11-1.94-4.11s7 .65 8.61-3.02c1.6-3.66-3.96-5.2-4.35-5.33.38 0 6.83.46 8.06-3.4 1.28-4.01-4.53-4.74-4.9-4.78.37-.09 5.1-1.23 5.37-4.37.46-5.45-13.36-3.28-16.95-5.84 0 0 0-7 .07-7.21 0 0-.99 2.93-3.25 4.07-2.8 1.43-5.38 2.45-6.3 4.1a3.98 3.98 0 0 0 .47 4.73s-3.83.3-4.9 3.3c-.55 1.55 1.44 3.8 1.44 3.8s-3.06.37-3.84 3.1c-.64 2.18 1.45 4.1 1.45 4.1s-2.77 1.7-2.72 4.15c.14 4.91 18.17 12.25 23.68 6.7Z"/><path fill="#263238" d="M24.27 121.94c-.06 0-.1.04-.05.08a33.71 33.71 0 0 0 19.06 6.42c.22 0 .32-.35.07-.4a69.24 69.24 0 0 1-19.08-6.1Zm2-7.54c-.07 0-.13.07-.06.12 5.53 3.94 13.55 6.64 21.18 5.72.27 0 .48-.32.17-.3-5.12.2-15.69-2.7-21.29-5.55Zm24.66-2.84c-7.35.6-14.16-1.22-20.87-4.1-.09 0-.13.09-.07.14 2.9 2.3 7.38 3.69 10.96 4.48 3.3.78 6.73.69 9.98-.26.16-.04.17-.27 0-.26Z"/><path fill="#263238" d="M23.8 121.6c-1.33-1.13-2.42-2.67-2-4.48a3.5 3.5 0 0 1 1.35-2.06 6.02 6.02 0 0 1 2.72-.81c-1.23-1.37-1.96-3.32-1.08-5.08a3.45 3.45 0 0 1 1.95-1.58c.96-.29 1.95-.45 2.95-.47a4.07 4.07 0 0 1-1.53-3.3 4.38 4.38 0 0 1 2.08-3.42c1.4-.84 2.88-1.51 4.43-2 .79-.28 1.54-.66 2.24-1.13a4.64 4.64 0 0 0 1.62-2.15c.07-.15.09 0 0 .13a5.75 5.75 0 0 1-.9 1.62c-.41.5-.88.96-1.4 1.36a32.36 32.36 0 0 1-4.17 2.16 6.35 6.35 0 0 0-2.88 2.85 3.77 3.77 0 0 0 .64 3.9s0 .15-.08.16c-.88.16-1.74.43-2.55.81-.68.33-1.24.85-1.6 1.5a4.81 4.81 0 0 0 .7 4.77c-.95.26-1.83.68-2.61 1.25-.5.45-.85 1.04-1.02 1.69a4.17 4.17 0 0 0 1.27 4.18v.11s-.9.58-.9.6v-.05c.24-.2.5-.4.76-.56Z"/><path fill="#EB9481" d="M58.15 43.85c.26 1.06 8.1 7.7 12.95 7.42 1.58-.1-1.24-8.55-1.24-8.55l.14-.63 1.9-8.97-10.58-6.63-1.54-.9-.77 5.58c0 .15-.04.3-.06.45-.02.15-.06.34-.07.5-.07.46-.14.9-.2 1.4-.05.5-.09.71-.12 1.1l-.12 1.12c-.29 2.7-.38 5.4-.29 8.1Z"/><path fill="#263238" d="M59.01 31.2A18.42 18.42 0 0 0 70 42.1l1.9-8.97-10.58-6.64-1.54-.9-.77 5.61Z"/><path fill="#EB9481" d="M84.51 19.91c2.2 15.94-7.09 19.06-10.53 19.53-3.11.43-13.8 1.48-17.64-14.14C52.5 9.68 59.22 3.62 66.33 2.26 73.43.91 82.3 3.97 84.5 19.91Z"/><path fill="#263238" d="M79.13 17.41a8.9 8.9 0 0 1-1.1-.15c-.4 0-.78-.13-1.1-.37a.56.56 0 0 1 0-.7 1.4 1.4 0 0 1 1.38-.42c.52.04 1 .27 1.35.65a.6.6 0 0 1-.53 1Zm-10.66 2.2c.37.06.74.06 1.1.08.4.09.8.04 1.15-.12a.57.57 0 0 0 .2-.68 1.43 1.43 0 0 0-1.25-.71 2.07 2.07 0 0 0-1.46.33.62.62 0 0 0 .26 1.1Zm2.33 2.81s-.08.05-.08.1c.14 1.08.11 2.36-.84 2.8v.06c1.2-.27 1.22-1.96.92-2.96Z"/><path fill="#263238" d="M69.72 21.36c-1.77 0-1.59 3.56.06 3.53 1.64-.02 1.42-3.55-.06-3.53Z"/><path fill="#263238" d="M69.04 21.59c-.3.2-.59.58-.95.63-.36.06-.77-.28-1.07-.62h-.06c0 .67.32 1.35 1.05 1.41.72.07 1.1-.56 1.24-1.25.03-.08-.09-.26-.2-.17Zm8.24-.03s.09 0 .1.1c0 1.1.2 2.34 1.21 2.66v.07c-1.22-.12-1.47-1.78-1.3-2.83Z"/><path fill="#263238" d="M78.21 20.37c1.75-.2 2.05 3.32.42 3.52-1.64.2-1.88-3.34-.42-3.52Z"/><path fill="#263238" d="M78.96 20.55c.3.16.6.48.91.47.31-.01.64-.41.85-.8h.06c.08.67-.08 1.39-.73 1.58-.64.19-1.06-.38-1.27-1.04-.02-.08.07-.28.18-.21Zm-2.86 5.99s.32 1.61.38 2.38c0 .08-.18.12-.45.16a3.63 3.63 0 0 1-3.63-1.15.08.08 0 0 1 .02-.09.08.08 0 0 1 .09-.01c1.02.6 2.22.86 3.4.74.05-.22-.65-2.72-.53-2.72.61 0 1.22.1 1.81.28-.59-3.4-1.71-6.66-2.25-10.05 0-.12.16-.16.2-.06a55.9 55.9 0 0 1 2.88 10.72c0 .39-1.6-.1-1.92-.2Z"/><path fill="#263238" d="M75.93 28.49a4.44 4.44 0 0 1-1.52 1.69c-.36.21-.77.32-1.2.29-.9-.08-1.07-.91-1.04-1.58.03-.38.1-.76.2-1.13 1.08.62 2.33.88 3.56.73Z"/><path fill="#E587B4" d="M74.4 30.18c-.35.21-.76.32-1.18.29-.9-.08-1.08-.91-1.05-1.58a2.07 2.07 0 0 1 2.24 1.29Z"/><path fill="#263238" d="M56.53 24.17c3.84-.17 3.49-6.2 3.49-6.2s4.33-.62 4.28-7.65a10.64 10.64 0 0 0 8.24 4.69c1.26.12-3.09-2.9-3.09-2.9S74.7 16.4 83.9 14.2c.66-.16-1.25-9.88-8.71-12.85-7.46-2.97-13.93-.74-18.16 4.1 0 0-5.2 2.72-5.55 7.82-.35 5.1 3.58 10.96 5.06 10.9Z"/><path fill="#EB9481" d="M59.07 25.08s-3.77-4.84-5.98-3.48c-2.2 1.36.8 8.5 3.52 9.36a2.72 2.72 0 0 0 3.56-1.65l-1.1-4.23Z"/><path fill="#263238" d="M54 23.62s-.04.07 0 .08c1.92.66 2.99 2.35 3.77 4.12a1.5 1.5 0 0 0-2.26-.3c-.05 0 0 .1.05.1a1.66 1.66 0 0 1 1.87.49c.36.44.66.93.91 1.44.1.16.4.05.33-.14-.07-2.43-2.09-5.68-4.67-5.79Zm15.29 28.14c1.29 5.58 2.48 11.2 3.63 16.8l3.42 16.84a879.38 879.38 0 0 1 3.22 16.9l1.54 8.45c.48 2.83.99 5.64 1.44 8.47-.65-2.78-1.25-5.59-1.88-8.39l-1.81-8.4c-1.18-5.61-2.28-11.24-3.43-16.85a916.5 916.5 0 0 1-6.14-33.82Zm7.56 16.41a1.08 1.08 0 1 1-2.1.48 1.08 1.08 0 0 1 2.1-.48Zm1.91 10.9a1.07 1.07 0 1 1-2.09.47 1.07 1.07 0 0 1 2.1-.47Zm1.93 10.92a1.07 1.07 0 1 1-2.1.43 1.07 1.07 0 0 1 2.1-.43Zm1.92 10.9a1.08 1.08 0 1 1-2.11.46 1.08 1.08 0 0 1 2.11-.46Zm1.93 10.9a1.08 1.08 0 1 1-2.11.46 1.08 1.08 0 0 1 2.1-.46Z"/><path fill="#EBEBEB" d="m69.95 42.97-1.49 7.51-10.35-7.2-1.93 3.3s11.15 12.44 11.08 11.8l1.75-6.56 4.94 3.4-2.31-10.46-1.69-1.8Z"/><path fill="#263238" d="M73.12 49.95c-.44-1.71-.84-3.45-1.35-5.14 0-.06-.12-.07-.13 0 0 1.74 1.7 8.29 1.99 9.88-.21-.14-4.54-2.96-4.54-2.9a83.35 83.35 0 0 0-1.82 6.29A280.48 280.48 0 0 0 56.8 47.16a.06.06 0 0 0-.06.1A234.6 234.6 0 0 0 67.35 59a66.8 66.8 0 0 0 1.82-6.94c.77.65 5.23 3.9 5.2 3.63a55.68 55.68 0 0 0-1.25-5.73Z"/><path fill="#FFC727" d="M58.1 41.05c-1.14-1.32-2.4 2.06-.3 3.55 3.1 2.2 9.03 4.54 10.04 4.41 1-.13 2.85-3.97 3.05-4.73.2-.76-.67-2.19-.9-1.99-.24.2-2.05 4.14-2.4 4.37-.35.23-7.04-2.8-9.5-5.6Z"/></svg>