<svg xmlns="http://www.w3.org/2000/svg" xmlns:xlink="http://www.w3.org/1999/xlink" width="179" height="141" fill="none"><defs><path id="a" fill="#455A64" d="m160.03 39.41-27.23 5.9s2.48 13.91 1.99 13.83c-.5-.08-19.6-7.05-26.96-7.78-7.36-.73-7.37 2.5-3.61 8.59 3.75 6.08 28.2 26.47 40.25 26.47 6.13 0 11.85-3.93 12.96-5.8 3.46-5.86 2.6-41.2 2.6-41.2Z"/></defs><path fill="#EBEBEB" d="M37.1 0v20.36h20.37V0H37.1Zm1.55 18.82V1.53h17.3v17.3h-17.3Zm116.73 100.76v20.36h20.37v-20.36h-20.37Zm1.55 18.83v-17.3h17.29v17.3h-17.3Z"/><path fill="#A6A6A6" d="M71.45 102.07H39.1v2.44h32.36v-2.44Z"/><path fill="#263238" d="M178.93 32.87h-45.04v2.44h45.04v-2.44Z"/><path fill="#FFC727" d="M161.3 126.07H50.39V15.16h110.9v110.9Zm-101.14-9.78h91.38V24.95H60.16v91.34Z"/><path fill="#263238" d="M178.93 77.9h-45.04V32.86h2.45v42.58h40.14V32.87h2.45v45.02Z"/><path fill="#A6A6A6" d="M71.45 104.51h-2.44V74.6H41.54v29.91h-2.45V72.15h32.36v32.36Z"/><path fill="#FFC727" d="M53.53 48.24H0v1.9h53.53v-1.9Z"/><path fill="#EB9481" d="M84.34 58.7c-15.11 15.3-34.1 47.52-30.57 54.06 3.94 7.27 24.98-14.2 24.9-15.46-.06-.94 7.34-20.5 12.95-34.74 5.61-14.23-3.55-7.65-7.28-3.87Z"/><path fill="#455A64" d="M78.81 97.33c.65-2.1 10.71-27.9 13.6-36.06 2.87-8.16.2-10.68-8.02-3.2-8.23 7.47-26.24 32.43-30.36 45.69-3.96 12.76 2.61 12.76 11.29 6.88 7.1-4.82 13.49-13.3 13.49-13.3Z"/><path fill="#37474F" d="M86.73 60.37c.26.53.43 1.08.52 1.66a6.2 6.2 0 0 1-.92-1.47 6.28 6.28 0 0 1-.51-1.65c.37.44.68.93.91 1.46ZM60 92.92a6.38 6.38 0 0 0 1.43 3.12 5.92 5.92 0 0 0-.51-1.65 6.2 6.2 0 0 0-.92-1.47Zm8.9-13.55a6.4 6.4 0 0 0 1.43 3.11 6.03 6.03 0 0 0-.52-1.65 6.15 6.15 0 0 0-.92-1.46Zm8.7-1.03a6.1 6.1 0 0 0 1.65-.52 6 6 0 0 0 1.47-.92 6.41 6.41 0 0 0-3.11 1.45l-.01-.01Zm-8.34 13.7a5.66 5.66 0 0 0 1.65-.52 6.07 6.07 0 0 0 1.46-.92 6.34 6.34 0 0 0-3.1 1.46l-.01-.02Zm6.78-23.48c.57-.1 1.12-.27 1.65-.51a6.2 6.2 0 0 0 1.47-.92 6.2 6.2 0 0 0-3.11 1.45l-.01-.02Zm7.02 15.7a6.69 6.69 0 0 0-1.2 3.22 6.72 6.72 0 0 0 1.2-3.22ZM65.6 100.6a6.69 6.69 0 0 0-1.2 3.22 6.69 6.69 0 0 0 1.2-3.22Zm9.68-1.44c.43.32.9.58 1.42.76l.3-.36h-.03a6 6 0 0 0-1.68-.39l-.01-.01Zm-17.3 10.52a6.69 6.69 0 0 0-3.22-1.2c.48.35 1 .62 1.55.8.54.22 1.1.35 1.67.4ZM85.63 71.1a6 6 0 0 0 1.55.8c.38.14.77.25 1.17.32 0-.07.05-.15.08-.23a5.87 5.87 0 0 0-2.8-.88v-.01Z"/><path fill="#455A64" d="M80.62 116.29h57.44s-9.13-45.05-31.16-64.57c-2.73-2.42-8.87-1.87-12.87.12-1.43.71-6.57 7.9-8.03 14.7-1.47 6.78-5.55 49.54-5.38 49.75Z"/><path fill="#263238" d="M85.5 69.37a51.6 51.6 0 0 0-1.13 4.65v-.18a25.7 25.7 0 0 0-.14-2.7.05.05 0 0 0-.07.02c-.11.9-.14 1.8-.08 2.7 0 .42.06.84.1 1.27-.13.7-.24 1.41-.33 2.12-.17 1.34-.62 6.33-.65 7.32 0 .21.23.24.29.03.26-1 .98-6.15 1.21-7.47.44-2.57.74-5.15.9-7.75 0-.07-.09-.07-.1 0Z"/><path fill="#37474F" d="M104.22 64.96c.25.52.42 1.08.51 1.65a6.69 6.69 0 0 1-1.43-3.1c.37.44.68.93.92 1.45Zm5.94 19.95c.1.57.27 1.13.52 1.65.23.53.54 1.02.92 1.47a5.96 5.96 0 0 0-.52-1.66 6.18 6.18 0 0 0-.92-1.46Zm18.65 8.18c.09.58.26 1.13.51 1.66.24.54.55 1.04.93 1.49a5.96 5.96 0 0 0-.51-1.66 6.2 6.2 0 0 0-.94-1.49Zm-13.72 14.67c.2 1.14.7 2.2 1.43 3.1a6.35 6.35 0 0 0-.52-1.65 6.2 6.2 0 0 0-.9-1.45h-.01ZM91.14 79.43c.1.57.27 1.13.52 1.65.23.53.54 1.02.92 1.46-.2-1.14-.7-2.2-1.43-3.1v-.01ZM83.6 94.99c.1.57.27 1.13.52 1.65.23.53.54 1.02.91 1.47a6.03 6.03 0 0 0-.51-1.66 5.89 5.89 0 0 0-.9-1.46h-.02Zm18.27 11.22c.2 1.14.69 2.2 1.43 3.1a6.2 6.2 0 0 0-.52-1.66 6 6 0 0 0-.9-1.44h-.02Zm17.5-30.35c.09.57.26 1.13.51 1.65.24.54.55 1.03.92 1.47-.2-1.14-.7-2.2-1.43-3.1v-.02ZM97.1 73.13a6.4 6.4 0 0 0 3.12-1.44 6.34 6.34 0 0 0-3.1 1.44h-.02ZM93.48 91.6a6.3 6.3 0 0 0 1.64-.51 6.08 6.08 0 0 0 1.47-.92c-.57.09-1.13.26-1.65.51-.53.24-1.02.55-1.45.92h-.01Zm33.77 19.6a6.03 6.03 0 0 0 1.66-.51 6.18 6.18 0 0 0 1.47-.92c-.58.1-1.13.27-1.66.52-.53.23-1.02.54-1.47.92Zm-33.98 3.45.92-.06.35-.16a6.3 6.3 0 0 0 1.47-.91 6.75 6.75 0 0 0-2.73 1.11l-.01.02Zm21.07-18.42a6.7 6.7 0 0 0 3.1-1.44c-1.14.2-2.2.7-3.1 1.44ZM97.1 56.77c.58-.1 1.13-.27 1.66-.52a5.89 5.89 0 0 0 1.46-.92c-.57.1-1.13.27-1.65.52-.53.23-1.02.54-1.46.91Zm-1.87 5.96a6.72 6.72 0 0 0-1.2 3.22c.35-.48.62-1 .8-1.55.22-.53.35-1.1.4-1.67ZM86.1 105.5a6.68 6.68 0 0 0-1.19 3.22c.35-.48.62-1 .81-1.55.21-.54.34-1.1.4-1.67h-.02Zm24.65-32.03a6.69 6.69 0 0 0-1.2 3.22c.35-.48.62-1 .8-1.55.22-.52.35-1.07.4-1.62v-.05Zm-7.1 18.82a6.69 6.69 0 0 0-1.2 3.22 6.68 6.68 0 0 0 1.2-3.22Zm32.39 24h.15v-.23l-.15.24Zm-16.11 0h.46l.07-.15c.2-.54.33-1.1.38-1.69a6.08 6.08 0 0 0-.92 1.85h.01Zm3.8-15.25a6.71 6.71 0 0 0-1.2 3.21 6.71 6.71 0 0 0 1.2-3.21Zm-13.93-44.3a6.71 6.71 0 0 0-1.2 3.22 6.42 6.42 0 0 0 1.19-3.22h.01ZM95.74 102.2c-.48-.34-1-.61-1.55-.8a5.94 5.94 0 0 0-1.7-.4 6.71 6.71 0 0 0 3.23 1.2h.02Zm15.04 13.83a6.68 6.68 0 0 0-3.22-1.2c.47.35 1 .63 1.55.81.53.22 1.09.35 1.66.41v-.02Zm23.24-13c.25.19.5.35.78.48l-.12-.4a4.74 4.74 0 0 0-.7-.06l.04-.02Zm-10.8-15.44a6.72 6.72 0 0 0-3.2-1.17c.48.34 1 .62 1.55.8.53.2 1.1.33 1.66.37Zm-12.05 15.23a6.72 6.72 0 0 0-3.21-1.2 6.68 6.68 0 0 0 3.21 1.2Zm-7.16-21.84a6.72 6.72 0 0 0-3.21-1.2c.47.35 1 .63 1.55.82.53.2 1.09.33 1.66.38ZM88.86 72.3c-.48-.34-1-.61-1.55-.8a6.1 6.1 0 0 0-1.69-.4c.48.35 1 .63 1.55.81a6.5 6.5 0 0 0 1.69.4Zm27.1-5.08c-.48-.34-1-.61-1.55-.8a5.89 5.89 0 0 0-1.69-.39 6.68 6.68 0 0 0 3.22 1.2h.02Z"/><path fill="#EB9481" d="M53.76 112.77c3.4 4.86 12.66 5.79 35.75 10.33 3.2.62 13.68-20.73 10.3-21.58a442.5 442.5 0 0 0-22.25-4.34c-10.57-.7-26.1 12.27-23.8 15.59Z"/><path fill="#EB9481" d="M95.2 100.44s9.77 1.48 14.68 3.84c6.55 3.18 10.91 8.61 12.6 11 3.52 4.99 8.6 19.48 4.68 21.67-3.55 1.99-7.98-13.1-7.98-13.1s7.06 14.63 2.35 16.23c-4.72 1.6-8.87-16.2-8.87-16.2s6.92 15.2 1.8 16.09c-3.87.66-8.54-15.25-8.54-15.25s5.85 13.1 1.9 13.95c-4.36.96-9.6-13.45-9.6-13.45-10.4.49-15.56-3.54-18.88-6.83-.8-.8 15.86-17.95 15.86-17.95Z"/><path fill="#263238" d="M117.06 118.64c.89 1.69 1.8 3.4 2.54 5.17a63.46 63.46 0 0 1 1.99 5.37 32.96 32.96 0 0 1 1.55 7.3c-.75-4.38-3.3-10.73-4.03-12.49-.74-1.76-1.39-3.55-2.13-5.31-.01-.06.05-.08.08-.04Zm-6.41 2.56c1.03 2.2 2.16 4.35 3.1 6.6.93 2.25 1.64 4.45 2.43 6.75.06.18-.06.15-.13-.03-.87-2.26-1.86-4.29-2.76-6.55-.9-2.25-1.72-4.54-2.71-6.76 0-.03.05-.05.07-.02Zm-5.9 1.2c1.77 3.28 2.93 6.9 4 10.46.04.18-.1.13-.17-.05-1.26-3.5-2.22-6.26-3.94-10.33-.03-.09.08-.16.11-.08Z"/><path fill="#455A64" d="M97.24 100.44 77 122.95s-20.46-4.7-23.48-9.93c-1.98-3.46 13.43-17.45 25.05-15.82l18.66 3.23Z"/><path fill="#37474F" d="M80.19 115.96c.25.52.42 1.08.52 1.65a5.91 5.91 0 0 1-.92-1.47 6.12 6.12 0 0 1-.52-1.65c.38.45.68.94.92 1.47Zm-15.9-4.2c.1.58.28 1.13.53 1.66.23.53.54 1.02.91 1.46a5.93 5.93 0 0 0-.51-1.65 6.22 6.22 0 0 0-.92-1.47Zm9.48-2.34c1.14-.2 2.21-.7 3.1-1.43a6.3 6.3 0 0 0-3.1 1.43Zm-8.16-8.78a6.68 6.68 0 0 0-1.2 3.22 6.69 6.69 0 0 0 1.2-3.22Zm20.5 4.87a6.69 6.69 0 0 0-1.19 3.22c.35-.47.62-1 .81-1.55.21-.54.34-1.11.38-1.7v.03Zm9.63-3.29a6 6 0 0 0-1.55-.8 5.98 5.98 0 0 0-1.69-.4 6.72 6.72 0 0 0 3.22 1.2h.02Zm-17.24-1.85a5.7 5.7 0 0 0-1.55-.8 5.76 5.76 0 0 0-1.68-.4 6.71 6.71 0 0 0 3.2 1.2h.03Zm-6.37 19.8c-.48-.34-1-.6-1.55-.8a5.98 5.98 0 0 0-1.69-.39 6.71 6.71 0 0 0 3.22 1.2h.02Zm-17.05-11.44c.38.23.78.42 1.2.58a6.1 6.1 0 0 0 1.69.39 7.51 7.51 0 0 0-2.76-1.15l-.13.18Z"/><path fill="#263238" d="M64.7 100.89c1.88-1.36 7.16-4.53 13.9-3.69.05 0 .05.11 0 .1-5.08-.14-11.93 2.52-13.85 3.67-.05.02-.1-.06-.04-.08Zm6.76 18.31c2.1-2.59 4.32-5.09 6.56-7.56 2.24-2.47 4.47-4.96 6.77-7.38 1.3-1.37 2.58-2.75 3.93-4.07.03-.03.1 0 .07.05-2.07 2.59-4.3 5.1-6.52 7.58a697.5 697.5 0 0 1-6.72 7.41 116.63 116.63 0 0 1-3.94 4.07c-.07.06-.2-.03-.15-.1Z"/><path fill="#263238" d="M97.3 100.15a28.76 28.76 0 0 0-3.8-.87c-1.27-.24-2.56-.46-3.84-.66-2.55-.41-7.9-1.55-12.62-1.55-.05 0 .22.25.27.25 2.24-.12 18.31 3.1 19.63 3.17-.05.08-.1.17-.14.27-.03.06.04.14.1.1.17-.11.29-.25.45-.38a.19.19 0 0 0-.05-.34Z"/><path fill="#EB9481" d="M156.65 34.03c.11-2.76-.44-15.45-1.39-18.96-.94-3.5-4.4-13.36-7.15-12.91-2.75.45-1.97 3.42-1.97 3.42s-2.12-3.94-4.85-3.23c-2.73.7-1.36 5.29-1.36 5.29s-2.47-3.88-5.14-2.99c-2.67.9-.52 5.28-.52 5.28s-2.06-3.65-3.98-1.98c-2.28 2 2.34 8.3 3.1 12.24.17.9 2.18 18.38 2.18 18.38l21.08-4.54Z"/><path fill="#263238" d="M134.09 9.56c3.38 4.65 4.06 7.26 4.43 12.91 0 .02.01.05.03.06a.09.09 0 0 0 .12 0 .09.09 0 0 0 .03-.06c.13-5.56-.24-8.97-4.4-13.09-.2-.2-.38-.05-.22.18Zm5.56-2.28c3.1 5.13 3.86 7.96 4.69 13.85 0 .08.15.07.14 0-.33-5.84-.78-9.23-4.54-13.95-.17-.23-.43-.13-.29.1Zm6.52-1.4c2.64 5.17 3.62 8.27 3.68 14.08 0 .02 0 .05.03.07a.1.1 0 0 0 .19-.08c.5-5.93-.68-9.77-3.73-14.14-.2-.29-.33-.25-.17.07Z"/><path fill="#EB9481" d="M135.73 42.19s-5.24-4.93-7.06-7.6c-1.83-2.69-4.96-15.17-2.3-16.02 3.42-1.07 6.65 5.78 7.8 9.34 0 0 7.92-2.49 11.3 1.92 3.39 4.41-9.74 12.36-9.74 12.36Z"/><path fill="#263238" d="M127.4 18.6c3.83 1.29 5.03 6.06 6.4 9.43a.32.32 0 0 0 .22.2.33.33 0 0 0 .3-.06c3.39-.82 8.42-.98 11.17 1.46l.03.02a.08.08 0 0 0 .06 0l.03-.01.02-.03v-.06c0-.01 0-.02-.02-.03-2.58-3.03-7.55-3.27-11.21-2.13-1.34-3.48-2.76-8.2-7-8.82-.01 0-.02.03 0 .04Z"/><path fill="#EB9481" d="M103.72 58.45c3.45 5.97 23.4 24.37 40.76 27.56 2.36.43 11.34-1.47 13.22-7.42 3.34-10.6.67-32.5-1.03-45.68-.34-2.59-24.24 2.71-23.62 6.65.69 4.34 3.24 20.34 2.85 20.52-1.43.66-16.7-5.93-26.73-8.1-7.1-1.52-8.1 1.9-5.45 6.47Z"/><use xlink:href="#a"/><use xlink:href="#a"/><path fill="#37474F" d="M120.09 57.35c.2 1.14.69 2.2 1.43 3.1a6.07 6.07 0 0 0-.52-1.66c-.24-.52-.54-1-.91-1.44Zm21.64 24.28c.2 1.14.69 2.2 1.43 3.1a6.44 6.44 0 0 0-1.44-3.07l.01-.03Zm16.02-16.67a6.4 6.4 0 0 0 1.43 3.12 5.93 5.93 0 0 0-.52-1.65 6 6 0 0 0-.9-1.44l-.01-.03Zm-23.72.07c.2 1.14.7 2.2 1.44 3.1a6.66 6.66 0 0 0-1.44-3.1Zm11.94 6.86c.09.58.26 1.13.51 1.66.23.54.54 1.05.92 1.5a6.15 6.15 0 0 0-.51-1.65 6.24 6.24 0 0 0-.9-1.48l-.02-.03Zm-1.04-16.73c.2 1.14.7 2.2 1.44 3.1a6.11 6.11 0 0 0-1.44-3.08v-.02Zm12.12-12.45a6.41 6.41 0 0 0 1.44 3.12 6.3 6.3 0 0 0-1.44-3.1v-.02Zm-48.44 17.22c.34-.48.61-1 .8-1.55.22-.54.35-1.1.4-1.68-.35.47-.62 1-.81 1.55a5.94 5.94 0 0 0-.39 1.7v-.02Zm16.13 11.13c.34-.47.62-1 .8-1.55.21-.54.34-1.1.4-1.68-.35.47-.62 1-.81 1.55a5.95 5.95 0 0 0-.39 1.7v-.02Zm12.11-12.54a6.69 6.69 0 0 0 1.2-3.21c-.35.47-.62 1-.81 1.55-.2.53-.34 1.1-.39 1.66Zm1.55 18.16c.34-.48.61-1 .8-1.55.21-.54.34-1.11.4-1.7a6.69 6.69 0 0 0-1.2 3.23v.02Zm15.53-1.97c.35-.47.62-1 .8-1.55.22-.54.35-1.1.4-1.68a6.72 6.72 0 0 0-1.2 3.21v.02Zm-4.9-25.65c.34-.48.62-1 .81-1.55.21-.55.34-1.12.39-1.7a6.71 6.71 0 0 0-1.2 3.22v.03Zm1.84 14.56c.34-.48.61-1 .8-1.55.22-.54.34-1.11.39-1.7a6.34 6.34 0 0 0-1.17 3.27l-.02-.02Zm-38.15 2.37a6.55 6.55 0 0 0 3.22 1.2c-.48-.34-1-.61-1.55-.8a6.1 6.1 0 0 0-1.65-.38l-.02-.02Zm28.81-.66c.47.35 1 .62 1.55.8.54.22 1.1.35 1.68.4a5.7 5.7 0 0 0-1.55-.8 5.9 5.9 0 0 0-1.66-.38l-.02-.02Zm-2.72-17.11c.47.34 1 .62 1.55.8.54.21 1.1.35 1.69.4a6.29 6.29 0 0 0-3.22-1.18l-.02-.02Zm15.46 5.37c.47.34 1 .62 1.55.8.54.22 1.1.35 1.69.4a6.69 6.69 0 0 0-3.22-1.2h-.02ZM128.56 76.8c.47.35 1 .62 1.55.8.54.22 1.1.35 1.68.4a6.27 6.27 0 0 0-3.21-1.18l-.02-.02Zm20.7 4.53a6.55 6.55 0 0 0 3.22 1.19 6.68 6.68 0 0 0-3.22-1.2Zm-22.3-23.04c.47.34.99.62 1.54.8a6.1 6.1 0 0 0 1.7.39 6.29 6.29 0 0 0-3.23-1.17l-.02-.02Z"/><path fill="#263238" d="M134.58 59.27c.2 2.08.57 4.14 1.08 6.17.46 2.06 1.1 4.05 1.71 6.06 0 .05.08 0 .07-.02-.51-2.03-.9-4.1-1.35-6.14-.44-2.04-.76-4.1-1.28-6.11-.03-.14-.24-.09-.23.04Zm-.18-8.81c3.16-.79 6.35-1.4 9.54-2.01 3.2-.61 6.4-1.22 9.61-1.75 1.81-.3 3.62-.6 5.45-.84.05 0 .07.07 0 .08-3.15.79-6.34 1.42-9.52 2.07-3.18.65-6.4 1.22-9.6 1.79-1.82.32-3.62.6-5.46.84-.07-.01-.1-.16-.02-.18Zm-8.99 27.81c-.52-.44-1.03-.82-1.58-1.24l-1.55-1.19c-1.03-.8-2.1-1.6-3.15-2.42-2.1-1.62-4.13-3.3-6.24-4.94-1.18-.94-2.35-1.9-3.51-2.86-.05-.04-.12.03-.07.07 1.43 1.34 2.87 2.68 4.36 3.96l-.56-.28a44.22 44.22 0 0 1-1.72-.9h-.01l-.02.02a.04.04 0 0 0 0 .03v.02h.02a14.6 14.6 0 0 0 2.47 1.46l.41.18c.34.28.67.57 1.04.85a153.7 153.7 0 0 0 6.3 4.84c.59.43 1.19.85 1.8 1.25.62.4 1.26.89 1.94 1.26.06.01.12-.06.07-.1Z"/><path fill="#EB9481" d="M94.3 61.38c3.47.68 9.18-4.81 11.36-9.17.15-.3-.43-3.37-.94-7.12-.3-2.29-.59-4.83-.68-7.17 0-.49-14.56 4.13-14.56 4.13s1.64 4.86 1.78 8.94c0 .33-.01.65-.07.97v.16c-.25 1.85-.25 8.6 3.1 9.26Z"/><path fill="#263238" d="M92.68 52.14c-.5.05-1.01.05-1.51 0v-.16c.05-.31.07-.63.06-.96-.14-4.08-1.77-8.94-1.77-8.94s11.8-3.75 14.15-4.13c-.33 2.68-2.28 13.67-10.93 14.2Z"/><path fill="#EB9481" d="M107.63 23.54c1.13 5.33-2.92 20.1-6.91 23.12-5.78 4.39-14.6 4.09-18.15-2.7-3.45-6.6 2.16-25.75 6.56-28.42 6.48-3.96 16.84.1 18.5 8Z"/><path fill="#263238" d="M93.9 32.04c0-.03.07.08.06.11-.3 1-.48 2.17.33 2.75a.03.03 0 0 1 0 .05h-.02c-1.06-.45-.81-2.02-.37-2.9Z"/><path fill="#263238" d="M95.07 31.24c1.63.31.9 3.56-.62 3.27-1.51-.29-.75-3.52.62-3.27Zm-6.9-.61c0-.04-.09.03-.1.07-.2 1.03-.59 2.14-1.55 2.27-.03 0-.04.05 0 .06 1.12.1 1.63-1.4 1.65-2.4Z"/><path fill="#263238" d="M87.51 29.38c-1.59-.51-2.45 2.73-.98 3.18 1.48.46 2.32-2.76.98-3.18Zm9.35.27a13.9 13.9 0 0 1-1.26-.52 2.2 2.2 0 0 1-1.17-.8.7.7 0 0 1 .17-.84 1.74 1.74 0 0 1 1.76-.06c.6.21 1.1.64 1.4 1.2a.75.75 0 0 1-.9 1.02Zm-10.23-2.19c.46.01.91 0 1.36-.04.49.05.97-.05 1.39-.3a.7.7 0 0 0 .15-.85 1.75 1.75 0 0 0-1.62-.7 2.5 2.5 0 0 0-1.74.6.75.75 0 0 0 .46 1.3Zm6.07 13.78c-.29.19-.6.45-.97.4a2.71 2.71 0 0 1-1.05-.52.04.04 0 0 0-.03.03v.02a1.39 1.39 0 0 0 1.15.83 1.1 1.1 0 0 0 .99-.7c.04-.04-.04-.08-.08-.06Z"/><path fill="#263238" d="M92.33 38a3.5 3.5 0 0 1-2.63 1 4.47 4.47 0 0 1-1.68-.39.26.26 0 0 1-.15-.27c0-.04.01-.07.03-.1v-.09c.16-.78.51-1.94.51-1.94-.31.08-1.9.4-1.79 0 .97-3.3 2.04-6.97 3.69-10.06a.1.1 0 0 1 .12-.05.1.1 0 0 1 .05.12c-.8 3.21-2.15 6.26-3 9.48a6.12 6.12 0 0 1 1.72-.13c.1.06-.7 2.23-.74 2.59v.03c1.26.47 2.33.3 3.8-.3.09-.03.16.04.07.1Z"/><path fill="#263238" d="M88.98 38.9c.4.61.94 1.12 1.58 1.46.36.18.76.24 1.15.18.86-.15.95-.91.86-1.58-.06-.36-.15-.7-.29-1.04a5.5 5.5 0 0 1-3.3.97Z"/><path fill="#FF9ABB" d="M90.58 40.36c.35.18.76.24 1.15.18.86-.15.94-.91.85-1.58-.92 0-1.86.54-2 1.4Z"/><path fill="#263238" d="M104.75 36.72s5.4-8 5.17-12.79c-.1-2.16-2.97-3.76-2.97-3.76a4.88 4.88 0 0 0-1.3-4.97c-2.42-2.53-8.62-2.3-8.62-2.3s-3.7-5.97-9.48-3.96c-5.78 2-2.4 8.6-2.4 8.6s-2.23 2.84 2.73 5.4c4.82 2.5 15.03.79 15.03.79a35.23 35.23 0 0 0-.37 10.46 3.2 3.2 0 0 0 2.21 2.53Z"/><path fill="#263238" d="M96.06 12.93a9.88 9.88 0 0 1 4.02-.52c1.22.05 2.42.3 3.56.74 2 .83 3.73 2.43 3.96 4.65a4.15 4.15 0 0 1-.95 3.1c-.03.03-.08 0-.05-.06 1.4-1.55.83-4.13-.45-5.53-1.45-1.6-3.76-2.3-5.87-2.5a17.5 17.5 0 0 0-4.22.22.06.06 0 0 1-.02-.07l.02-.03Zm-12.68-1.47c.54-1.55 1.95-2.5 3.5-2.92a8.27 8.27 0 0 1 5.35.46c1.69.76 3.14 1.95 4.22 3.46.02.04-.03.08-.06.05-2-2.63-5.26-4.22-8.59-3.7-1.48.25-3 .93-3.74 2.3a4.97 4.97 0 0 0-.08 4.2 9.3 9.3 0 0 0 3.45 3.83c.03 0 0 .08-.03.06a9.56 9.56 0 0 1-3.47-3.28 5.4 5.4 0 0 1-.55-4.46Zm3.27 11.69a17.05 17.05 0 0 0 7.05 1.59c2.53.05 5.06-.17 7.54-.66a76.57 76.57 0 0 0 4.34-.94l.01.02-.01.03-.03.01c-2.5.93-5.1 1.6-7.74 1.98-2.47.34-4.98.2-7.39-.43a16.43 16.43 0 0 1-3.78-1.55c-.05-.02-.02-.07 0-.05Z"/><path fill="#EB9481" d="M102.46 35.89s3.9-4.48 5.98-3.04c2.07 1.45-1.24 8.2-3.92 8.88a2.64 2.64 0 0 1-3.37-1.79l1.3-4.05Z"/><path fill="#263238" d="m107.43 34.76.02.01v.05h-.02c-1.89.52-3.02 2.12-3.87 3.79.6-.61 1.38-.9 2.2-.16.05.04 0 .1-.05.09a1.63 1.63 0 0 0-1.84.37c-.38.41-.72.86-1 1.35-.1.15-.39.03-.3-.15v-.04c.22-2.3 2.36-5.34 4.86-5.3ZM90.06 54.98c0-.04.05 0 .05 0 0 2.87.16 9.53 5.1 8.88 1.99-.26 3.75-1.49 5.2-2.67a26.54 26.54 0 0 0 3.97-4.09 37.23 37.23 0 0 0 3.62-5.16c.04-.08.16 0 .12.07a27.34 27.34 0 0 1-3.2 5.4 22.78 22.78 0 0 1-4.27 4.5c-1.55 1.23-3.43 2.46-5.54 2.64a4.03 4.03 0 0 1-4.25-2.52 14.74 14.74 0 0 1-.8-7.05Z"/></svg>