<svg xmlns="http://www.w3.org/2000/svg" width="166" height="170" fill="none"><path fill="#EBEBEB" d="M21.22 150.24H8.28v4.5h12.94v-4.5ZM14 155.9H1.06v4.5H14v-4.5Zm74.72-41.01H75.78v4.5h12.94v-4.5Zm-7.22 5.67H68.56v4.5H81.5v-4.5Zm-7.19-5.67H61.37v4.5h12.94v-4.5Zm83.67 41.01h-12.94v4.5h12.94v-4.5ZM150.76 4.48h-12.93v4.5h12.93v-4.5Zm7.22 5.67h-12.94v4.5h12.94v-4.5ZM14 4.48H1.06v4.5H14v-4.5Zm28.08 154.85h74.88l1.56-30.73h-78l1.56 30.73Z"/><path fill="#DBDBDB" d="M113.42 142.67H82.1L81.53 132h32.58l-.7 10.67Zm-30.94-.38h30.59l.64-9.9H81.92l.55 9.9Zm30.36 12.65h-29.5l-.49-9.64h30.59l-.6 9.64Zm-29.15-.38h28.78l.56-8.87H83.25l.44 8.88Z"/><path fill="#DBDBDB" d="M100.78 138.5H95.5l-.32-2.58h5.92l-.33 2.57Zm-4.93-.38h4.6l.23-1.82H95.6l.24 1.81Zm4.93 13.29H95.5l-.32-2.57h5.92l-.33 2.57Zm-4.93-.37h4.6l.23-1.82H95.6l.24 1.82Zm-19.26-8.37h-31.3l-.6-10.67h32.59l-.7 10.67Zm-30.94-.38h30.6l.63-9.9H45.1l.55 9.9Zm30.36 12.65h-29.5l-.48-9.64h30.58l-.6 9.64Zm-29.14-.38h28.79l.55-8.87H46.43l.44 8.88Z"/><path fill="#DBDBDB" d="M63.95 138.5H58.7l-.33-2.58h5.92l-.33 2.57Zm-4.92-.38h4.6l.23-1.82h-5.07l.24 1.81Zm4.92 13.29H58.7l-.33-2.57h5.92l-.33 2.57Zm-4.92-.37h4.6l.23-1.82h-5.07l.24 1.82Z"/><path fill="#EBEBEB" d="m48.8 159.33-.47 3.35-.95 6.72h-1.85v-10.07h3.27Z"/><path fill="#DBDBDB" d="m48.8 159.33-.47 3.35h-2.8v-3.35h3.27Z"/><path fill="#EBEBEB" d="m110.25 159.33.47 3.35.94 6.72h1.86v-10.07h-3.27Z"/><path fill="#DBDBDB" d="m110.25 159.33.47 3.35h2.8v-3.35h-3.27Z"/><path fill="#fff" d="M155.88 8.01H11.25v101.86h144.63V8.02Z"/><path fill="#263238" d="M155.87 109.88c-.03.03-144.66.04-144.69.06-.03.02 0-101.9-.04-101.93v-.1h.1l144.66.06-.03 101.9Zm0 0s-.1-102.06 0-101.82L11.26 8.1l.1-.1s.03 102.13-.1 101.8l144.62.06h-.01Z"/><path fill="#263238" d="M155.88 8.01H11.25v3.68h144.63V8.01Z"/><path fill="#FFC727" d="M18.63 9.85a.74.74 0 1 1-1.49 0 .74.74 0 0 1 1.49 0Z"/><path fill="#fff" d="M21.66 9.85a.74.74 0 1 1-1.48 0 .74.74 0 0 1 1.48 0Z"/><path fill="#455A64" d="M24.68 9.85a.74.74 0 1 1-1.48 0 .74.74 0 0 1 1.48 0Z"/><path fill="#FFC727" d="M155.84 11.69H11.25v12.05h144.59V11.69Z"/><path fill="#fff" d="M21.1 21.08a.24.24 0 0 1-.24.27.24.24 0 0 1-.23-.17.24.24 0 0 1 0-.1v-2.5a.24.24 0 0 1 .1-.2.24.24 0 0 1 .32.06l1.39 1.92v-1.78a.24.24 0 0 1 .23-.23.24.24 0 0 1 .24.23v2.5a.24.24 0 0 1-.24.24.24.24 0 0 1-.18-.09v-.02l-1.4-1.92v1.8Zm2.57 0v-2.54a.23.23 0 0 1 .24-.23h1.4a.24.24 0 0 1 .24.23.24.24 0 0 1-.24.24h-1.16v.8h1a.24.24 0 0 1 0 .49h-1v.8h1.16a.24.24 0 0 1 0 .48h-1.39a.24.24 0 0 1-.25-.27Zm6.51-2.42-1.06 2.51-.02.04v.03h-.03l-.04.02h-.16a.08.08 0 0 1-.04-.02h-.04v-.07l-.56-1.33-.56 1.33v.04l-.03.03h-.02l-.04.02h-.32l-.04-.02h-.03c-.03 0 0 0 0 0l-.02-.03s0-.03-.02-.04l-1.07-2.5a.23.23 0 0 1 .13-.31.23.23 0 0 1 .31.12l.84 2.01.56-1.32a.24.24 0 0 1 .22-.14.25.25 0 0 1 .22.14l.53 1.32.84-2a.24.24 0 0 1 .32-.13.23.23 0 0 1 .13.3Zm2.06 2.42v-2.54a.23.23 0 0 1 .24-.23h1.4a.24.24 0 0 1 0 .47h-1.16v.8h1a.24.24 0 0 1 0 .49h-1v1.03a.24.24 0 0 1-.34.22.23.23 0 0 1-.14-.24Zm4.89-2.4a1.58 1.58 0 0 1-.46 2.52 1.4 1.4 0 0 1-1.62-.34 1.6 1.6 0 0 1 0-2.18 1.44 1.44 0 0 1 1.62-.34c.17.08.33.2.46.34Zm-.05 1.09c0-.28-.1-.55-.3-.75a.92.92 0 0 0-1.37 0c-.2.2-.3.47-.3.75s.1.54.3.75a.9.9 0 0 0 1.37 0c.2-.2.3-.47.3-.75Zm3.32 1.19a.24.24 0 0 1-.15.3.4.4 0 0 1-.09 0 .3.3 0 0 1-.17-.04.38.38 0 0 1-.13-.15 1.1 1.1 0 0 1-.1-.52.35.35 0 0 0-.05-.19.4.4 0 0 0-.13-.12.89.89 0 0 0-.24-.1h-.5v.93a.24.24 0 0 1-.41.17.24.24 0 0 1-.07-.17v-2.53a.23.23 0 0 1 .23-.23h.75a.92.92 0 0 1 .59 1.63c.06.04.1.1.15.16.1.13.14.3.14.46v.25a.25.25 0 0 1 .19.15Zm-.6-1.73a.45.45 0 0 0-.46-.45h-.52v.9h.52a.45.45 0 0 0 .46-.45Zm3.9-.69v2.54a.25.25 0 0 1-.34.22.23.23 0 0 1-.14-.22v-1.8l-.62.85a.24.24 0 0 1-.2.1.24.24 0 0 1-.2-.1l-.62-.84v1.8a.24.24 0 0 1-.48 0v-2.55a.24.24 0 0 1 .24-.23.24.24 0 0 1 .19.1l.85 1.2.86-1.2a.24.24 0 0 1 .2-.1.24.24 0 0 1 .25.23Z"/><path fill="#263238" d="M24.35 31.16v-1.53a.14.14 0 0 1 .14-.14h.84a.14.14 0 0 1 0 .29h-.7v.47h.6a.14.14 0 0 1 0 .29h-.6v.62a.15.15 0 0 1-.14.14.14.14 0 0 1-.14-.14Zm1.81-1.47a.14.14 0 1 1-.27 0v-.06a.14.14 0 0 1 .27 0v.06Zm0 .46v1a.14.14 0 0 1-.14.17.14.14 0 0 1-.1-.05.14.14 0 0 1-.03-.11v-1.02a.14.14 0 0 1 .03-.12.14.14 0 0 1 .16-.04.14.14 0 0 1 .08.1v.07Zm1.24-.01a.14.14 0 0 1-.14.13.3.3 0 0 0-.15.05.45.45 0 0 0-.12.13.83.83 0 0 0-.1.21v.5a.14.14 0 0 1-.14.13.14.14 0 0 1-.14-.14v-1.01a.13.13 0 0 1 .14-.14.14.14 0 0 1 .14.14.55.55 0 0 1 .38-.15.13.13 0 0 1 .13.15Zm.29.8a.14.14 0 0 1 .2 0c.07.07.17.1.28.11.06 0 .12-.01.17-.05a.1.1 0 0 0 .05-.07.03.03 0 0 0 0-.03l-.03-.03a.51.51 0 0 0-.2-.07.98.98 0 0 1-.23-.07.4.4 0 0 1-.18-.15.33.33 0 0 1-.05-.16.36.36 0 0 1 .16-.28c.1-.07.2-.1.32-.1.14 0 .28.05.4.14a.14.14 0 0 1 .04.2.14.14 0 0 1-.2.03.44.44 0 0 0-.23-.1.26.26 0 0 0-.16.05.07.07 0 0 0-.04.06v.02l.03.03c.06.03.13.05.2.06a.9.9 0 0 1 .23.07c.08.03.14.09.19.15.03.05.05.11.05.17a.37.37 0 0 1-.17.3.6.6 0 0 1-.33.1.76.76 0 0 1-.5-.21.14.14 0 0 1 0-.17Zm1.94-.8a.14.14 0 0 1-.14.14h-.07V31a.14.14 0 0 1 .14.14.14.14 0 0 1-.04.1.14.14 0 0 1-.1.05.29.29 0 0 1-.29-.29v-.72h-.07a.14.14 0 0 1-.14-.14A.14.14 0 0 1 29 30h.13v-.38a.14.14 0 0 1 .15-.14.14.14 0 0 1 .14.14V30h.07a.14.14 0 0 1 .14.14Zm1.54 1.02a.14.14 0 1 1-.28 0v-1.5a.14.14 0 0 1 .05-.12.15.15 0 0 1 .2.03l.83 1.15v-1.06a.14.14 0 1 1 .28 0v1.5a.14.14 0 0 1-.24.09l-.83-1.15-.01 1.06Zm2.77-.51v.51a.14.14 0 0 1-.23.1.14.14 0 0 1-.05-.08.6.6 0 0 1-.78-.08.67.67 0 0 1 0-.9.59.59 0 0 1 .78-.08.14.14 0 0 1 .14-.11.14.14 0 0 1 .14.14v.5Zm-.28 0a.4.4 0 0 0-.1-.26.33.33 0 0 0-.48 0 .4.4 0 0 0 0 .53.33.33 0 0 0 .24.1c.1 0 .18-.04.24-.1a.4.4 0 0 0 .1-.27Zm1.86-.11v.62a.14.14 0 0 1-.14.13.14.14 0 0 1-.14-.13v-.62a.27.27 0 0 0-.52 0v.63a.16.16 0 0 1-.13.08h-.03a.13.13 0 0 1-.1-.13v-.98a.14.14 0 0 1 .03-.1.14.14 0 0 1 .1-.04.14.14 0 0 1 .12.07.54.54 0 0 1 .68.1.55.55 0 0 1 .6-.13.54.54 0 0 1 .34.5v.6a.14.14 0 0 1-.28 0v-.6a.27.27 0 1 0-.53 0Zm1.28.11a.64.64 0 0 1 .64-.64.62.62 0 0 1 .62.6v.02a.13.13 0 0 1-.13.1h-.83a.4.4 0 0 0 .1.17c.06.07.15.11.24.12.1 0 .19-.01.27-.06a.15.15 0 0 1 .2 0 .12.12 0 0 1 0 .16.66.66 0 0 1-.47.17.64.64 0 0 1-.63-.64Zm.29-.12h.73a.43.43 0 0 0-.4-.28.36.36 0 0 0-.33.29v-.01Z"/><path fill="#FFC727" d="m38.72 30-.18.14a.1.1 0 0 1-.07.02.09.09 0 0 1-.08-.09.1.1 0 0 1 .06-.08l.22-.1-.22-.1a.09.09 0 0 1-.06-.08.09.09 0 0 1 .05-.07.09.09 0 0 1 .1.01l.2.15-.03-.23a.08.08 0 0 1 .04-.1h.04a.08.08 0 0 1 .08.06v.04l-.03.23.2-.15a.1.1 0 0 1 .06-.02.08.08 0 0 1 .02.16l-.22.1.23.1a.1.1 0 0 1 .06.09.08.08 0 0 1-.1.08.1.1 0 0 1-.05-.02l-.2-.15.03.23a.08.08 0 0 1-.02.07.08.08 0 0 1-.06.03.08.08 0 0 1-.08-.1V30Z"/><path fill="#EBEBEB" d="M79.5 33.11H24.08v5.5H79.5v-5.5Z"/><path fill="#263238" d="M24.35 43.95v-1.52a.14.14 0 0 1 .09-.13l.05-.01h.84a.14.14 0 0 1 .15.14.14.14 0 0 1-.15.14h-.7v.48h.6a.14.14 0 0 1 0 .28h-.6v.47h.7a.14.14 0 0 1 0 .28h-.86a.14.14 0 0 1-.12-.13Zm2.58-.61v.61a.14.14 0 0 1-.14.14.14.14 0 0 1-.14-.14v-.61a.27.27 0 0 0-.52 0v.63a.16.16 0 0 1-.13.08h-.03a.14.14 0 0 1-.1-.13V42.9a.14.14 0 0 1 .03-.1.14.14 0 0 1 .1-.05.13.13 0 0 1 .12.08.53.53 0 0 1 .68.1.53.53 0 0 1 .6-.13.54.54 0 0 1 .33.5v.6a.14.14 0 0 1-.13.14.14.14 0 0 1-.14-.13v-.61a.27.27 0 1 0-.53.03Zm2.47.11v.5a.14.14 0 0 1-.27.03.6.6 0 0 1-.79-.08.67.67 0 0 1 0-.9.6.6 0 0 1 .44-.2.6.6 0 0 1 .35.11.13.13 0 0 1 .13-.1.14.14 0 0 1 .14.13v.5Zm-.28 0a.4.4 0 0 0-.1-.27.33.33 0 0 0-.24-.1.32.32 0 0 0-.24.1.4.4 0 0 0-.1.27c0 .1.04.2.1.27a.33.33 0 0 0 .24.1.34.34 0 0 0 .24-.1.4.4 0 0 0 .1-.27Zm1.06-.97a.14.14 0 0 1-.07.15.14.14 0 0 1-.2-.09v-.12a.14.14 0 0 1 .23-.08c.02.02.04.05.04.08v.06Zm0 .47v1a.14.14 0 0 1-.27 0v-1a.14.14 0 0 1 .08-.16.14.14 0 0 1 .2.1v.06Zm.55-.66a.14.14 0 0 1 .15.14v1.52a.14.14 0 0 1-.29 0v-1.52a.14.14 0 0 1 .14-.14Z"/><path fill="#FFC727" d="m31.51 42.8-.19.13a.1.1 0 0 1-.06.03.09.09 0 0 1-.09-.09.1.1 0 0 1 .06-.08l.23-.1-.23-.1a.09.09 0 0 1-.06-.08.09.09 0 0 1 .1-.08.08.08 0 0 1 .05.03l.2.14-.03-.23a.08.08 0 0 1 .12-.1.08.08 0 0 1 .04.06v.03l-.03.24.2-.14a.09.09 0 0 1 .06-.03.09.09 0 0 1 .09.08.08.08 0 0 1-.06.08l-.23.1.23.1a.09.09 0 0 1 .06.08.09.09 0 0 1-.09.09.1.1 0 0 1-.06-.03l-.2-.14.03.23a.08.08 0 0 1-.02.07.08.08 0 0 1-.06.03.08.08 0 0 1-.08-.1l.02-.23Z"/><path fill="#EBEBEB" d="M143 45.9H24.08v5.5H143v-5.5Z"/><path fill="#263238" d="M24.27 55.75a.94.94 0 0 1 .94-.93c.22 0 .43.07.6.2a.16.16 0 0 1 .03.2.15.15 0 0 1-.2.03.65.65 0 0 0-.41-.14.68.68 0 0 0-.46.19.63.63 0 0 0 0 .9.66.66 0 0 0 .86.04.15.15 0 1 1 .18.23.98.98 0 0 1-.6.2.94.94 0 0 1-.94-.92Zm2.13.74a.64.64 0 0 1-.17-.46c0-.17.06-.33.17-.45a.6.6 0 0 1 .68-.14.65.65 0 0 1 .38.6.62.62 0 0 1-.18.45.58.58 0 0 1-.88 0Zm.1-.46c0 .1.04.2.1.28.07.06.15.1.25.1.08 0 .17-.04.23-.1a.4.4 0 0 0 .1-.28.37.37 0 0 0-.1-.27.36.36 0 0 0-.23-.1c-.1 0-.18.04-.25.1a.4.4 0 0 0-.1.27Zm2.48-.11v.62a.14.14 0 0 1-.14.14.14.14 0 0 1-.14-.14v-.62a.27.27 0 0 0-.45-.18.26.26 0 0 0-.07.18v.64a.14.14 0 1 1-.28-.02v-1.02a.14.14 0 0 1 .26-.05.5.5 0 0 1 .28-.08.54.54 0 0 1 .54.53Zm1.08-.39a.14.14 0 0 1-.14.14h-.07v.72a.14.14 0 0 1 0 .29.29.29 0 0 1-.28-.3v-.71h-.08a.14.14 0 0 1-.14-.14.14.14 0 0 1 .04-.1.14.14 0 0 1 .1-.04h.08V55a.14.14 0 0 1 .14-.14.14.14 0 0 1 .14.14v.38h.07a.14.14 0 0 1 .14.14Zm1.47.5v.5a.14.14 0 0 1-.09.14.14.14 0 0 1-.19-.1.6.6 0 0 1-.78-.08.66.66 0 0 1-.17-.46c0-.17.06-.33.17-.45a.59.59 0 0 1 .78-.08.14.14 0 0 1 .14-.11.14.14 0 0 1 .1.04.14.14 0 0 1 .04.1v.5Zm-.28 0a.4.4 0 0 0-.1-.26.31.31 0 0 0-.24-.11.3.3 0 0 0-.24.1.4.4 0 0 0-.1.27c0 .1.04.2.1.27a.33.33 0 0 0 .24.1.34.34 0 0 0 .24-.1.4.4 0 0 0 .1-.27Zm.69 0a.65.65 0 0 1 1.06-.5.15.15 0 0 1 .03.19.14.14 0 0 1-.2.02.43.43 0 0 0-.24-.08.37.37 0 1 0 0 .74c.09 0 .18-.03.25-.08a.14.14 0 0 1 .19.03.15.15 0 0 1-.03.19.72.72 0 0 1-.4.14.66.66 0 0 1-.66-.65Zm2.15-.5a.14.14 0 0 1-.15.14h-.06v.72a.14.14 0 0 1 0 .29.29.29 0 0 1-.29-.3v-.71h-.07a.14.14 0 0 1-.14-.14.14.14 0 0 1 .14-.14h.07V55a.14.14 0 0 1 .15-.14.14.14 0 0 1 .14.14v.38h.06a.14.14 0 0 1 .15.14Zm1.53 1a.14.14 0 0 1-.14.15.14.14 0 0 1-.14-.15v-1.48a.14.14 0 0 1 .06-.12.14.14 0 0 1 .2.03l.83 1.15v-1.06a.14.14 0 1 1 .28 0v1.5a.14.14 0 0 1-.14.14.13.13 0 0 1-.1-.05l-.85-1.19v1.08Zm2.2.15a.54.54 0 0 1-.54-.54v-.62a.14.14 0 0 1 .13-.13.14.14 0 0 1 .14.13v.62a.26.26 0 0 0 .16.24.2.2 0 0 0 .1.02.27.27 0 0 0 .27-.26v-.62a.14.14 0 0 1 .14-.13.15.15 0 0 1 .14.13v.62a.55.55 0 0 1-.54.54Zm2.14-.76v.61a.14.14 0 0 1-.13.14.14.14 0 0 1-.14-.14v-.61a.27.27 0 0 0-.53 0v.64a.14.14 0 0 1-.13.08h-.02a.14.14 0 0 1-.11-.13V55.5a.14.14 0 0 1 .13-.14.13.13 0 0 1 .13.07.55.55 0 0 1 .5-.03c.06.03.12.08.18.13a.52.52 0 0 1 .4-.17.54.54 0 0 1 .54.54v.61a.14.14 0 0 1-.14.14.14.14 0 0 1-.14-.14v-.61a.27.27 0 0 0-.53 0v.02Zm1.39.11v-1.02a.14.14 0 1 1 .28 0v.48a.6.6 0 0 1 .35-.1.65.65 0 0 1 0 1.29.61.61 0 0 1-.35-.12.14.14 0 0 1-.14.12.14.14 0 0 1-.14-.15v-.5Zm.28 0c0 .1.04.19.1.26a.32.32 0 0 0 .49 0 .35.35 0 0 0 .1-.26.35.35 0 0 0-.1-.26.33.33 0 0 0-.24-.1.32.32 0 0 0-.24.1.37.37 0 0 0-.12.26h.01Zm1.33 0a.64.64 0 0 1 .63-.64.62.62 0 0 1 .62.6V56a.12.12 0 0 1-.13.1h-.8c0 .06.03.12.08.17a.4.4 0 0 0 .51.05.14.14 0 0 1 .2 0 .12.12 0 0 1 0 .16.65.65 0 0 1-.46.18.64.64 0 0 1-.65-.64Zm.28-.13h.73a.4.4 0 0 0-.38-.27.35.35 0 0 0-.35.27Zm2.13-.38a.14.14 0 0 1-.14.14c-.06 0-.1.02-.15.05a.45.45 0 0 0-.12.12.77.77 0 0 0-.1.22v.49a.14.14 0 0 1-.15.14.14.14 0 0 1-.14-.14v-1.02a.14.14 0 0 1 .14-.13.14.14 0 0 1 .14.13.34.34 0 0 1 .06-.05c.1-.06.2-.1.32-.1a.14.14 0 0 1 .1.04.13.13 0 0 1 .04.11Z"/><path fill="#FFC727" d="m46.04 55.37-.19.14a.11.11 0 0 1-.06.03.09.09 0 0 1-.08-.07.09.09 0 0 1 .05-.1l.23-.1-.23-.1a.1.1 0 0 1-.06-.07.09.09 0 0 1 .09-.1.1.1 0 0 1 .06.04l.2.14-.03-.23a.08.08 0 0 1 .05-.1h.03a.08.08 0 0 1 .08.06v.03l-.03.24.2-.14a.1.1 0 0 1 .06-.03.08.08 0 0 1 .08.09.1.1 0 0 1-.05.08l-.23.1.23.1a.09.09 0 0 1 .05.08.09.09 0 0 1-.08.08.11.11 0 0 1-.06-.03l-.2-.14.03.23v.04a.08.08 0 0 1-.11.06.08.08 0 0 1-.05-.06v-.03l.02-.24Z"/><path fill="#EBEBEB" d="M143 58.49H24.08v5.5H143v-5.5Z"/><path fill="#263238" d="M25.28 68.49h-.63l-.13.34a.14.14 0 0 1-.13.08h-.05a.14.14 0 0 1-.08-.18l.57-1.52a.14.14 0 0 1 .22-.07l.05.07.58 1.5a.14.14 0 0 1-.09.18h-.05a.15.15 0 0 1-.13-.08l-.13-.32Zm-.1-.28-.21-.56-.21.56h.41Zm1.92.56a.14.14 0 0 1-.15.14.14.14 0 0 1-.13-.1.64.64 0 1 1-.36-1.19.6.6 0 0 1 .35.11v-.48a.14.14 0 0 1 .14-.14.14.14 0 0 1 .14.14v1.52Zm-.62-.86a.34.34 0 0 0-.24.1.37.37 0 0 0 .11.6.34.34 0 0 0 .38-.08c.07-.07.1-.16.1-.26s-.03-.19-.1-.26a.34.34 0 0 0-.25-.1Zm1.94-.15a.14.14 0 0 1-.14.14c-.05 0-.1.01-.15.05a.4.4 0 0 0-.12.12.83.83 0 0 0-.1.22v.49a.14.14 0 0 1-.25.1.14.14 0 0 1-.04-.1v-1.02a.14.14 0 0 1 .14-.13.14.14 0 0 1 .15.13v.02a.32.32 0 0 1 .05-.05c.1-.07.2-.1.32-.1a.13.13 0 0 1 .14.13Zm.12.51a.64.64 0 0 1 .63-.65.61.61 0 0 1 .62.6v.04a.13.13 0 0 1-.14.1h-.8c.01.07.04.13.09.17a.4.4 0 0 0 .51.05.15.15 0 0 1 .2 0 .12.12 0 0 1 .02.14l-.02.03a.65.65 0 0 1-1.1-.47Zm.28-.13h.73a.43.43 0 0 0-.4-.27.36.36 0 0 0-.33.27Zm1.32.41a.14.14 0 0 1 .2-.02c.07.06.17.1.28.1.06 0 .12 0 .18-.04a.1.1 0 0 0 .04-.08v-.02l-.03-.03a.52.52 0 0 0-.21-.08.98.98 0 0 1-.23-.06.4.4 0 0 1-.17-.15.33.33 0 0 1 0-.33.3.3 0 0 1 .1-.12c.1-.06.2-.1.32-.1.15 0 .29.06.4.15a.15.15 0 0 1 .04.19.14.14 0 0 1-.18.03.44.44 0 0 0-.24-.1.25.25 0 0 0-.16.06.07.07 0 0 0-.04.05v.03l.03.02c.06.03.12.06.19.06a1 1 0 0 1 .24.08.4.4 0 0 1 .18.15c.04.05.05.1.05.17a.37.37 0 0 1-.16.3c-.1.06-.22.1-.34.1a.76.76 0 0 1-.45-.18.14.14 0 0 1-.04-.19Zm1.25 0a.14.14 0 0 1 .19-.03.5.5 0 0 0 .28.12.4.4 0 0 0 .18-.05c.03-.03.05-.06.05-.08v-.02a.07.07 0 0 0-.04-.03.51.51 0 0 0-.2-.08.89.89 0 0 1-.23-.06.43.43 0 0 1-.18-.15.33.33 0 0 1-.04-.17.36.36 0 0 1 .15-.28c.1-.06.2-.1.32-.1.14 0 .28.06.4.15a.15.15 0 0 1 .04.19.14.14 0 0 1-.2.03.4.4 0 0 0-.23-.1c-.05 0-.1.02-.15.06-.04.02-.05.04-.05.05v.03c0 .02 0 0 .03.02.06.03.12.06.2.06a1 1 0 0 1 .23.08.4.4 0 0 1 .18.15c.03.05.05.1.05.17a.37.37 0 0 1-.16.3.6.6 0 0 1-.34.1.77.77 0 0 1-.46-.18.14.14 0 0 1-.02-.19Z"/><path fill="#FFC727" d="m33.02 67.61-.2.15a.1.1 0 0 1-.06.02.09.09 0 0 1-.09-.09.1.1 0 0 1 .06-.08l.23-.1-.23-.1a.09.09 0 0 1-.06-.07.09.09 0 0 1 .1-.09c.02 0 .04.01.05.03l.2.14-.03-.23a.08.08 0 0 1 .02-.07.08.08 0 0 1 .06-.03.08.08 0 0 1 .06.03l.02.03v.04l-.02.23.19-.14a.1.1 0 0 1 .06-.03.08.08 0 0 1 .03.17l-.23.1.23.1a.1.1 0 0 1 .06.08.09.09 0 0 1-.06.08h-.03a.1.1 0 0 1-.06-.02l-.2-.15.03.24a.08.08 0 0 1-.05.09h-.03a.08.08 0 0 1-.08-.06v-.03l.03-.24Z"/><path fill="#EBEBEB" d="M143 70.73H24.08v5.5H143v-5.5Z"/><path fill="#263238" d="M87.85 31.16v-1.53a.14.14 0 0 1 .14-.14.15.15 0 0 1 .14.14v1.38h.7a.14.14 0 0 1 0 .29H88a.14.14 0 0 1-.14-.14Zm2.52-.51v.51a.14.14 0 0 1-.13.14.14.14 0 0 1-.14-.12.58.58 0 0 1-.58.07.6.6 0 0 1-.2-.14.67.67 0 0 1 0-.91.6.6 0 0 1 .78-.08.14.14 0 0 1 .27.03v.5Zm-.27 0a.4.4 0 0 0-.1-.26.32.32 0 0 0-.24-.1.3.3 0 0 0-.24.1.4.4 0 0 0 0 .53.31.31 0 0 0 .24.1.33.33 0 0 0 .24-.1.4.4 0 0 0 .1-.27Zm.71.29a.14.14 0 0 1 .2 0c.07.07.17.1.27.11.07 0 .13-.01.18-.05.04-.03.05-.05.05-.07v-.03a.1.1 0 0 0-.04-.03.51.51 0 0 0-.2-.07.98.98 0 0 1-.23-.07.44.44 0 0 1-.17-.15.33.33 0 0 1-.05-.16.36.36 0 0 1 .16-.28.5.5 0 0 1 .31-.1c.15 0 .29.05.4.14a.14.14 0 0 1 .05.2.14.14 0 0 1-.2.03.4.4 0 0 0-.23-.1.25.25 0 0 0-.15.05c-.04 0-.05.05-.05.06v.02c0 .03 0 0 .03.03a.6.6 0 0 0 .19.06c.08.01.16.04.24.07a.4.4 0 0 1 .18.15c.03.05.05.11.05.17a.37.37 0 0 1-.16.3c-.1.07-.22.1-.34.1a.77.77 0 0 1-.5-.21.14.14 0 0 1-.02-.12c0-.02.02-.04.03-.05Zm1.95-.8a.14.14 0 0 1-.15.14h-.06V31a.14.14 0 0 1 .13.2.14.14 0 0 1-.13.09.29.29 0 0 1-.29-.29v-.72h-.07a.14.14 0 0 1-.14-.14.14.14 0 0 1 .08-.14h.13v-.38a.14.14 0 0 1 .1-.13h.05a.14.14 0 0 1 .14.13V30h.06a.14.14 0 0 1 .14.08v.06Zm1.54 1.02a.14.14 0 1 1-.28 0v-1.5a.14.14 0 0 1 .05-.12.15.15 0 0 1 .2.03l.83 1.15v-1.06a.14.14 0 0 1 .09-.13.14.14 0 0 1 .2.13v1.5a.14.14 0 0 1-.15.14.13.13 0 0 1-.1-.05l-.83-1.15-.01 1.06Zm2.77-.51v.51a.14.14 0 0 1-.14.14.14.14 0 0 1-.13-.12.58.58 0 0 1-.59.07.6.6 0 0 1-.2-.14.68.68 0 0 1 0-.91.59.59 0 0 1 .8-.06.14.14 0 0 1 .12-.12.14.14 0 0 1 .14.14v.5Zm-.28 0a.37.37 0 0 0-.2-.34.32.32 0 0 0-.14-.03.3.3 0 0 0-.24.1.4.4 0 0 0 0 .54.31.31 0 0 0 .24.1.33.33 0 0 0 .24-.1.36.36 0 0 0 .11-.27Zm1.86-.11v.62a.14.14 0 0 1-.13.13.14.14 0 0 1-.14-.13v-.62a.27.27 0 0 0-.37-.24.26.26 0 0 0-.16.25v.6a.14.14 0 0 1-.13.09h-.02a.13.13 0 0 1-.12-.14v-.96a.14.14 0 0 1 .22-.13l.05.06a.55.55 0 0 1 .68.1.53.53 0 0 1 .4-.17.54.54 0 0 1 .54.54v.6a.14.14 0 0 1-.14.15.14.14 0 0 1-.14-.14v-.61a.26.26 0 0 0-.26-.27.27.27 0 0 0-.28.27Zm1.29.11a.63.63 0 0 1 .63-.64.61.61 0 0 1 .62.6v.02c0 .03-.02.06-.05.08a.13.13 0 0 1-.08.02h-.8c0 .07.03.13.08.17a.4.4 0 0 0 .25.12c.09 0 .19-.01.27-.06a.15.15 0 0 1 .19 0 .1.1 0 0 1 .03.03.12.12 0 0 1 0 .1.1.1 0 0 1-.03.03.64.64 0 0 1-.46.17.64.64 0 0 1-.65-.64Zm.28-.12h.73a.4.4 0 0 0-.38-.28.37.37 0 0 0-.35.29v-.01Z"/><path fill="#FFC727" d="m101.85 30-.2.14a.12.12 0 0 1-.06.02.09.09 0 0 1-.09-.08l.02-.05a.1.1 0 0 1 .04-.03l.23-.1-.23-.1a.09.09 0 0 1-.06-.08c0-.02.01-.05.03-.06a.1.1 0 0 1 .06-.03.1.1 0 0 1 .06.03l.2.14-.03-.23v-.04l.02-.03a.08.08 0 0 1 .06-.03.08.08 0 0 1 .08.06v.04l-.02.23.19-.14a.11.11 0 0 1 .06-.03c.03 0 .05.01.06.03.02.01.03.04.03.06 0 .02 0 .03-.02.05a.08.08 0 0 1-.04.03l-.23.1.23.1a.1.1 0 0 1 .04.03.1.1 0 0 1 .02.05v.03a.08.08 0 0 1-.06.05h-.03a.1.1 0 0 1-.06-.02l-.2-.14.03.23v.03l-.02.03-.03.01a.08.08 0 0 1-.09-.01l-.01-.03-.01-.03.03-.23Z"/><path fill="#EBEBEB" d="M143 33.11H87.58v5.5H143v-5.5Z"/><path fill="#263238" d="M24.27 80.51a.94.94 0 0 1 .94-.93c.22 0 .43.07.6.2a.15.15 0 0 1 .03.2.15.15 0 0 1-.2.04.65.65 0 0 0-.41-.14.68.68 0 0 0-.46.18.63.63 0 0 0 0 .9.7.7 0 0 0 .46.19c.15 0 .29-.06.4-.15a.16.16 0 0 1 .2.03.15.15 0 0 1-.02.2.98.98 0 0 1-.6.2.94.94 0 0 1-.94-.92Zm2.33-.68a.14.14 0 0 1-.29 0v-.06a.14.14 0 1 1 .28 0v.06Zm0 .46v1a.14.14 0 0 1-.15.15.14.14 0 0 1-.14-.14v-1a.14.14 0 0 1 .09-.14h.05a.14.14 0 0 1 .14.13Zm1.02 0a.15.15 0 0 1-.15.14h-.06v.74a.14.14 0 0 1 .1.04.14.14 0 0 1 .04.1.14.14 0 0 1-.09.13.14.14 0 0 1-.05.01.29.29 0 0 1-.29-.28v-.72h-.07a.14.14 0 0 1-.14-.15.14.14 0 0 1 .14-.14h.07v-.37a.15.15 0 0 1 .08-.16.14.14 0 0 1 .2.16v.37h.07a.14.14 0 0 1 .15.13Zm1.42 0v.97a.61.61 0 0 1-.88.55.13.13 0 0 1-.07-.07.14.14 0 0 1 0-.11.14.14 0 0 1 .19-.06c.04.03.1.04.14.04a.33.33 0 0 0 .33-.24.51.51 0 0 1-.25.07.54.54 0 0 1-.54-.55v-.6a.14.14 0 0 1 .19-.13.13.13 0 0 1 .07.07l.01.06v.6a.26.26 0 0 0 .27.27.26.26 0 0 0 .25-.17.26.26 0 0 0 .02-.1v-.6a.13.13 0 0 1 .13-.14.14.14 0 0 1 .14.14Z"/><path fill="#FFC727" d="m29.88 80.14-.19.14a.13.13 0 0 1-.06.03.09.09 0 0 1-.09-.1.1.1 0 0 1 .06-.07l.23-.1-.23-.1a.09.09 0 0 1-.06-.08.08.08 0 0 1 .09-.08c.02 0 .04 0 .06.02l.2.14-.03-.23a.08.08 0 0 1 .02-.07.08.08 0 0 1 .06-.03.08.08 0 0 1 .06.03.08.08 0 0 1 .02.07l-.03.23.2-.14a.1.1 0 0 1 .06-.02.08.08 0 0 1 .09.08.09.09 0 0 1-.06.08l-.23.1.23.1a.1.1 0 0 1 .06.08.09.09 0 0 1-.1.09.13.13 0 0 1-.05-.03l-.2-.14.03.23a.08.08 0 0 1-.12.09.08.08 0 0 1-.04-.09l.02-.23Z"/><path fill="#EBEBEB" d="M79.5 83.26H24.08v5.5H79.5v-5.5Z"/><path fill="#263238" d="M89.59 79.78a.14.14 0 0 1 .08-.14h.06a.14.14 0 0 1 .14.14v1.52a.14.14 0 0 1-.14.14.14.14 0 0 1-.14-.14v-1.52Zm1.37.96h-.31v.56a.15.15 0 0 1-.25.1.14.14 0 0 1-.04-.1v-1.52a.14.14 0 0 1 .14-.15h.46a.55.55 0 1 1 0 1.1Zm-.31-.29h.31a.27.27 0 1 0 0-.53h-.31v.53Zm1.9.06a.96.96 0 0 1 1.55-.73.15.15 0 0 1 .03.2.15.15 0 0 1-.21.04.66.66 0 0 0-1 .25.63.63 0 0 0 .14.7c.12.1.29.17.46.18.15 0 .29-.06.4-.15a.16.16 0 0 1 .2.03.15.15 0 0 1-.02.2.96.96 0 0 1-1.26-.06.94.94 0 0 1-.29-.66Zm2.15.74a.66.66 0 0 1 .2-1.05.59.59 0 0 1 .47 0c.07.03.14.08.2.15.11.12.18.28.17.45a.62.62 0 0 1-.18.45.57.57 0 0 1-.67.14.6.6 0 0 1-.2-.14Zm.1-.45c-.01.1.02.2.09.27a.34.34 0 0 0 .24.1.32.32 0 0 0 .24-.1.4.4 0 0 0 .1-.27.4.4 0 0 0-.1-.27.36.36 0 0 0-.24-.1.37.37 0 0 0-.24.1.4.4 0 0 0-.1.27Zm2.56.5a.14.14 0 0 1-.15.14.14.14 0 0 1-.13-.11.63.63 0 0 1-.36.1.65.65 0 0 1 0-1.28.6.6 0 0 1 .35.1v-.48a.14.14 0 0 1 .24-.08l.05.08v1.52Zm-.64-.87a.34.34 0 0 0-.24.1.37.37 0 0 0-.1.27.37.37 0 0 0 .21.33.33.33 0 0 0 .38-.08.4.4 0 0 0 .1-.25c0-.1-.03-.2-.1-.26a.34.34 0 0 0-.25-.1Zm1.04.37a.64.64 0 0 1 .87-.6.61.61 0 0 1 .38.56v.03a.12.12 0 0 1-.13.1h-.8c0 .07.04.12.08.17a.4.4 0 0 0 .52.05.15.15 0 0 1 .19 0 .12.12 0 0 1 0 .17.66.66 0 0 1-.46.17.64.64 0 0 1-.65-.66Zm.28-.13h.73a.4.4 0 0 0-.38-.28.37.37 0 0 0-.35.28Z"/><path fill="#FFC727" d="m99.67 80.14-.2.14a.16.16 0 0 1-.06.03.09.09 0 0 1-.06-.03.09.09 0 0 1-.03-.06.1.1 0 0 1 .06-.08l.23-.1-.23-.1a.09.09 0 0 1-.06-.08.09.09 0 0 1 .1-.08.1.1 0 0 1 .06.02l.19.14-.03-.23v-.03a.08.08 0 0 1 .08-.07.08.08 0 0 1 .08.07v.03l-.02.23.2-.14a.1.1 0 0 1 .05-.02.08.08 0 0 1 .09.08.09.09 0 0 1-.06.08l-.23.1.23.1a.1.1 0 0 1 .06.08c0 .02-.01.05-.03.06a.1.1 0 0 1-.06.03.15.15 0 0 1-.06-.03l-.2-.14.03.23a.09.09 0 0 1-.01.07.08.08 0 0 1-.1.02.08.08 0 0 1-.05-.09l.03-.23Z"/><path fill="#EBEBEB" d="M143 83.26H87.58v5.5H143v-5.5Z"/><path fill="#263238" d="M24.95 93.22h-.31v.56a.15.15 0 0 1-.09.15.14.14 0 0 1-.2-.15v-1.52a.14.14 0 0 1 .14-.14h.46a.55.55 0 1 1 0 1.1Zm-.31-.28h.31a.27.27 0 0 0 .21-.47.27.27 0 0 0-.2-.07h-.32v.53Zm2.28.32v.5a.14.14 0 0 1-.14.14.14.14 0 0 1-.14-.1.6.6 0 0 1-.78-.09.66.66 0 0 1-.17-.45.64.64 0 0 1 .37-.6.58.58 0 0 1 .24-.05.5.5 0 0 1 .34.12.14.14 0 0 1 .14-.12.14.14 0 0 1 .14.14v.51Zm-.28 0a.4.4 0 0 0-.1-.26.32.32 0 0 0-.48 0 .4.4 0 0 0-.1.26c0 .1.04.2.1.27a.33.33 0 0 0 .24.1c.1 0 .18-.04.24-.1a.4.4 0 0 0 .1-.27Zm.72.27a.13.13 0 0 1 .1-.04.13.13 0 0 1 .1.04c.07.07.17.11.28.12a.4.4 0 0 0 .17-.05.1.1 0 0 0 .05-.08v-.03c0-.02 0-.02-.03-.03a.68.68 0 0 0-.2-.07 1.22 1.22 0 0 1-.23-.07.43.43 0 0 1-.18-.15.3.3 0 0 1-.04-.16.37.37 0 0 1 .15-.28c.1-.07.2-.1.32-.1.14 0 .28.05.4.14a.14.14 0 0 1 0 .23.13.13 0 0 1-.15 0 .46.46 0 0 0-.24-.1.29.29 0 0 0-.15.05.08.08 0 0 0-.04.06v.02l.02.03c.06.03.13.05.2.06a.9.9 0 0 1 .23.08.4.4 0 0 1 .19.15c.03.05.05.1.05.17a.37.37 0 0 1-.16.3.6.6 0 0 1-.34.1.74.74 0 0 1-.46-.18.14.14 0 0 1-.04-.2Zm1.24 0a.13.13 0 0 1 .2 0 .5.5 0 0 0 .28.12.4.4 0 0 0 .18-.05c.03-.03.04-.06.04-.08v-.03a.08.08 0 0 0-.03-.03.71.71 0 0 0-.2-.07 1.14 1.14 0 0 1-.23-.07.44.44 0 0 1-.18-.15.3.3 0 0 1-.04-.16.36.36 0 0 1 .15-.28.5.5 0 0 1 .31-.1.7.7 0 0 1 .4.14.14.14 0 0 1 .05.2.13.13 0 0 1-.2.03.46.46 0 0 0-.23-.1.3.3 0 0 0-.16.05.07.07 0 0 0-.04.06v.02l.03.03a.5.5 0 0 0 .19.06c.08.01.16.04.24.08a.4.4 0 0 1 .18.15c.03.05.05.1.05.17a.38.38 0 0 1-.16.3c-.1.07-.22.1-.33.1a.76.76 0 0 1-.51-.22.13.13 0 0 1 .02-.17Zm2.96-.71-.43 1v.02h-.15v-.02l-.18-.45-.19.45v.02h-.16v-.02l-.61-1a.13.13 0 0 1 0-.1.14.14 0 0 1 .17-.08.13.13 0 0 1 .07.08l.3.7.19-.44a.13.13 0 0 1 .12-.08.14.14 0 0 1 .13.08l.18.43.31-.7a.13.13 0 0 1 .17-.07.14.14 0 0 1 .08.18Zm.61.89a.66.66 0 0 1-.17-.45c0-.17.06-.33.17-.45a.6.6 0 0 1 .69-.15.7.7 0 0 1 .19.15c.12.12.18.28.18.45a.63.63 0 0 1-.18.45.57.57 0 0 1-.67.15.6.6 0 0 1-.2-.15Zm.1-.45c0 .1.04.2.1.27a.36.36 0 0 0 .49 0 .4.4 0 0 0 .1-.27.4.4 0 0 0-.1-.27.37.37 0 0 0-.24-.1c-.1 0-.18.04-.25.1a.4.4 0 0 0-.1.27Zm2.14-.51a.14.14 0 0 1-.13.14.22.22 0 0 0-.16.05.32.32 0 0 0-.12.12.77.77 0 0 0-.1.22v.49a.14.14 0 0 1-.28 0v-1.02a.14.14 0 0 1 .13-.14.14.14 0 0 1 .15.14.32.32 0 0 1 .05-.05c.1-.07.2-.1.33-.1a.14.14 0 0 1 .1.04.13.13 0 0 1 .03.11Zm1.44 1.01a.14.14 0 0 1-.14.14.14.14 0 0 1-.13-.1.61.61 0 0 1-.35.1.65.65 0 0 1 0-1.29c.12 0 .24.04.34.1v-.47a.14.14 0 1 1 .28 0v1.52Zm-.62-.87a.33.33 0 0 0-.24.1.36.36 0 0 0-.1.27c0 .1.03.19.1.25a.33.33 0 0 0 .24.11.32.32 0 0 0 .24-.1c.07-.07.1-.16.1-.26a.37.37 0 0 0-.21-.34.32.32 0 0 0-.13-.03Z"/><path fill="#FFC727" d="m36.69 92.6-.2.14a.1.1 0 0 1-.06.03.1.1 0 0 1-.09-.09.1.1 0 0 1 .06-.08l.23-.1-.23-.1a.08.08 0 0 1-.06-.08.09.09 0 0 1 .03-.06.09.09 0 0 1 .06-.02.08.08 0 0 1 .06.02l.2.14-.03-.22a.08.08 0 0 1 .05-.1h.03a.08.08 0 0 1 .08.1l-.02.22.2-.14a.08.08 0 0 1 .06-.02.09.09 0 0 1 .08.08.08.08 0 0 1-.06.08l-.23.1.23.1a.09.09 0 0 1 .06.08.09.09 0 0 1-.09.09.1.1 0 0 1-.06-.03l-.2-.14.03.23a.08.08 0 0 1-.01.07.08.08 0 0 1-.07.03.08.08 0 0 1-.08-.1l.03-.23Z"/><path fill="#EBEBEB" d="M79.5 95.72H24.08v5.5H79.5v-5.5Z"/><path fill="#FFC727" d="M143.2 101.42h-25.26v-5.9h25.26v5.9Zm-24.86-.4h24.46v-5.1h-24.46v5.1Zm-5.79-5.3H87.69v5.5h24.86v-5.5Z"/><path fill="#fff" d="M95.72 98.73a.13.13 0 0 1 .15-.03l.04.03c.14.11.31.18.5.2a.6.6 0 0 0 .31-.1.24.24 0 0 0 .12-.19.11.11 0 0 0-.03-.08.2.2 0 0 0-.07-.08.97.97 0 0 0-.36-.12 1.2 1.2 0 0 1-.33-.1.53.53 0 0 1-.24-.2.4.4 0 0 1-.06-.21.47.47 0 0 1 .2-.38c.14-.09.3-.14.45-.14.2.02.4.09.57.21a.14.14 0 0 1 0 .22.13.13 0 0 1-.15 0 .78.78 0 0 0-.4-.16c-.1 0-.2.02-.3.08a.2.2 0 0 0-.09.17v.07l.07.07c.1.06.2.1.32.11.13.02.25.06.36.11.1.05.2.12.26.21.04.07.06.14.06.22a.5.5 0 0 1-.22.4.8.8 0 0 1-.48.15 1.1 1.1 0 0 1-.66-.26.14.14 0 0 1-.02-.2Zm2.26.45a.54.54 0 0 1-.53-.54v-.6a.14.14 0 0 1 .27 0v.62a.26.26 0 0 0 .26.26.27.27 0 0 0 .28-.26v-.62a.14.14 0 0 1 .13-.13.15.15 0 0 1 .14.13v.62a.55.55 0 0 1-.55.52Zm1.08-.65v-1.02a.14.14 0 0 1 .14-.14.14.14 0 0 1 .14.14v.48a.65.65 0 1 1 0 1.07.14.14 0 0 1-.28-.03v-.5Zm.28 0a.37.37 0 0 0 .21.34c.04.02.09.02.13.02a.33.33 0 0 0 .24-.1c.07-.07.1-.16.1-.26s-.03-.19-.1-.26a.34.34 0 0 0-.24-.1.33.33 0 0 0-.24.1.37.37 0 0 0-.1.26Zm2.49-.11v.62c0 .03 0 .07-.03.1a.13.13 0 0 1-.1.04.14.14 0 0 1-.1-.04.14.14 0 0 1-.04-.1v-.62a.27.27 0 0 0-.27-.26.27.27 0 0 0-.18.08.28.28 0 0 0-.06.09.25.25 0 0 0-.01.1v.6a.16.16 0 0 1-.13.08h-.03a.14.14 0 0 1-.1-.13V98c0-.02.02-.03.03-.05a.14.14 0 0 1 .1-.04.13.13 0 0 1 .12.08.54.54 0 0 1 .68.1.55.55 0 0 1 .79-.02.54.54 0 0 1 .15.38v.61a.1.1 0 0 1-.05.09.14.14 0 0 1-.18 0 .13.13 0 0 1-.05-.09v-.6a.27.27 0 0 0-.26-.27.27.27 0 0 0-.28.24Zm1.67-.86c0 .02 0 .04-.02.06a.14.14 0 0 1-.23.04.14.14 0 0 1-.04-.1v-.05c0-.04.02-.07.05-.1a.14.14 0 0 1 .15-.03c.02 0 .03.02.04.03l.03.04.02.06v.05Zm0 .47v1l-.01.06a.14.14 0 0 1-.08.08.14.14 0 0 1-.05 0 .14.14 0 0 1-.15-.14v-.99c0-.04.02-.07.05-.1a.14.14 0 0 1 .1-.04.14.14 0 0 1 .1.04l.03.05v.05-.01Zm1.02.01a.15.15 0 0 1-.14.15h-.07v.72a.14.14 0 0 1 .1.04.13.13 0 0 1 .04.1v.06a.14.14 0 0 1-.09.07.13.13 0 0 1-.05.01.29.29 0 0 1-.29-.29v-.71h-.07a.14.14 0 0 1-.16-.09.14.14 0 0 1 .1-.2h.14v-.37a.15.15 0 0 1 .15-.15.14.14 0 0 1 .14.15v.37h.07a.14.14 0 0 1 .13.14Z"/><path fill="#FFC727" d="M126.36 98.25a.95.95 0 0 1 1.55-.73.15.15 0 0 1 .07.1v.06a.15.15 0 0 1-.26.07.63.63 0 0 0-.4-.14.7.7 0 0 0-.46.19.64.64 0 0 0-.14.7c.03.07.08.14.14.2a.7.7 0 0 0 .46.18c.15 0 .29-.05.4-.14a.16.16 0 0 1 .2.03c.04.03.05.07.04.1 0 .05-.02.08-.05.1a.95.95 0 0 1-1.55-.72Zm3.14.28v.5c0 .04-.02.08-.04.1a.14.14 0 0 1-.18.01.14.14 0 0 1-.06-.07.59.59 0 0 1-.58.06.6.6 0 0 1-.2-.14.67.67 0 0 1 0-.91.59.59 0 0 1 .78-.08l.05-.08a.14.14 0 0 1 .09-.03c.04 0 .07.01.1.04.02.02.04.06.04.1v.5Zm-.28 0a.4.4 0 0 0-.1-.26.32.32 0 0 0-.24-.1.31.31 0 0 0-.24.1.4.4 0 0 0 0 .53.33.33 0 0 0 .37.07.34.34 0 0 0 .11-.07.4.4 0 0 0 .1-.27Zm1.83-.09v.62a.13.13 0 0 1-.13.14.14.14 0 0 1-.1-.04.14.14 0 0 1-.04-.1v-.62c0-.03 0-.07-.02-.1a.27.27 0 0 0-.35-.14.25.25 0 0 0-.14.14.24.24 0 0 0-.01.1v.65l-.05.07a.15.15 0 0 1-.14.03.14.14 0 0 1-.08-.08.14.14 0 0 1-.01-.05v-1.02a.14.14 0 0 1 .14-.13.14.14 0 0 1 .12.08.52.52 0 0 1 .66.07c.1.1.15.24.15.38Zm.42.09a.65.65 0 0 1 1.06-.5.2.2 0 0 1 .05.09c0 .03 0 .07-.03.1a.14.14 0 0 1-.2.02.4.4 0 0 0-.23-.08.37.37 0 0 0-.37.37c0 .1.03.2.1.26.07.07.17.11.27.11.08 0 .17-.03.24-.08a.14.14 0 0 1 .1-.02l.05.01.04.04a.14.14 0 0 1-.02.19.71.71 0 0 1-.4.14.65.65 0 0 1-.66-.65Zm1.43 0a.64.64 0 0 1 .4-.6.64.64 0 0 1 .68.12.61.61 0 0 1 .19.43v.04c0 .03-.02.06-.05.08a.12.12 0 0 1-.09.02h-.8c.01.07.04.13.09.17.06.07.15.11.25.12a.4.4 0 0 0 .26-.06.15.15 0 0 1 .2 0 .13.13 0 0 1 0 .16.66.66 0 0 1-.46.17.64.64 0 0 1-.67-.65Zm.28-.13h.74a.43.43 0 0 0-.38-.27.36.36 0 0 0-.35.27Zm1.54-1.03c.04 0 .08.02.1.04.03.03.05.06.05.1v1.52c0 .04-.03.07-.05.1a.14.14 0 0 1-.19 0 .15.15 0 0 1-.05-.1v-1.52c0-.04.02-.07.04-.1a.14.14 0 0 1 .1-.04Z"/><path fill="#263238" d="M.03 169.4c50.93-.24 108.06-.25 158.99 0-50.93.25-108.06.25-159 0Z"/><path fill="#AD6359" d="M103.9 169.4c.97.32 29-.04 30.05-.73.4-.25.6-4.34.68-9.28v-.16c.02-1.02.03-2.07.03-3.13v-.44l-1.35-14.54-18.75.19 1.85 14.4.02.57.11 2.98v.3s-10.66 4.94-11.74 5.82c-1.08.89-1.9 3.71-.9 4.02Z"/><path fill="#EBEBEB" d="M103.9 169.4c.97.32 29-.04 30.05-.73.4-.25.6-4.34.68-9.28v-.16c.02-1.02.03-2.07.03-3.13v-.44l-18.25.05.02.57.11 2.98v.3s-10.66 4.94-11.74 5.82c-1.08.89-1.9 3.71-.9 4.02Z"/><path fill="#FFC727" d="M103.89 169.4c.5.16 8.12.15 15.56 0l4.4-.1c5.3-.15 9.7-.37 10.1-.63.41-.27.59-4.23.67-9.08v-.36h-.03l-18.05.03v.3s-10.67 4.94-11.75 5.82c-1.08.88-1.88 3.7-.9 4.02Z"/><path fill="#263238" d="M104.2 168.31c4.72-.18 23.78-.44 28.46-.26.04 0 .04.03 0 .04-4.67.27-23.74.4-28.47.3-.1 0-.1-.07 0-.08Zm10.34-8.97c1.85-.38 4.13-.12 5.56 1.2.06.05 0 .13-.07.11-1.78-.55-3.62-.9-5.48-1.07a.13.13 0 0 1-.13-.12c0-.03 0-.06.03-.09a.12.12 0 0 1 .09-.03Zm-1.34.82c1.86-.37 4.14-.11 5.58 1.2.05.06-.03.14-.09.12-1.78-.55-3.62-.9-5.48-1.07a.13.13 0 0 1-.08-.03.13.13 0 0 1 .08-.22Zm-1.32.83c1.85-.37 4.13-.12 5.56 1.2.06.05 0 .13-.08.11a25.9 25.9 0 0 0-5.48-1.06.13.13 0 0 1-.13-.12.13.13 0 0 1 .13-.13Z"/><path fill="#000" d="m119.45 169.4 4.4-.1c5.3-.15 9.7-.37 10.1-.63.41-.27.59-4.23.67-9.08v-.36h-.03c-2.46 1.73-11.18 7.52-15.14 10.17Z" opacity=".1"/><path fill="#263238" d="M115.47 159.32h20.18s-4.05-47.13-3.9-47.95c.21-1.06 1.4-5.83 3-12.06.49-1.95 1.03-4.04 1.6-6.21l4.6-17.85c2.18-8.35 3.88-12.66 3.88-12.66H127.7s-14.06 40.26-14.61 48.58c-.5 7.25 2.38 48.15 2.38 48.15Z"/><path fill="#37474F" d="M116.36 155.88c3.09-.06 2.2-.09 5.28-.12 1.51 0 11.42-.1 12.83.14.04 0 .04.05 0 .06-1.4.23-11.32.14-12.83.13-3.08-.03-2.2-.06-5.28-.12 0 0-.02 0-.03-.02l-.01-.03.01-.03.03-.01Zm11.6-47.39c.66-2.92 1.65-5.77 2.51-8.64 1.75-5.82 3.52-11.63 5.29-17.44.88-2.9 4.98-13.78 5.39-15.23.16-.58.25-.26.04.49-.42 1.5-7.44 23.06-9.2 28.96l-2.68 8.88a37.11 37.11 0 0 0-1.1 4.3c-.23 1.52-.3 3.06-.17 4.6.19 3.08.55 6.17.83 9.24l.85 9.24 1.7 18.43.19 2.33c.02.26-.38.24-.4 0-.67-6.07-1.17-12.17-1.74-18.25l-1.7-18.16c-.14-1.52-.3-3.05-.3-4.57 0-1.4.17-2.81.5-4.18Z"/><path fill="#37474F" d="M129.64 62.59c1.19 9.19 3.45 24.23 5.1 36.72C138.6 84.17 144.8 62.6 144.8 62.6h-15.16Z"/><path fill="#AD6359" d="M124.76 169.68c.98.32 29 .06 30.07-.63.4-.25.6-4.34.7-9.28v-.15l.05-3.13v-.44c.06-7.14-.45-14.54-.45-14.54l-18.32.12.51 14.4.02.57.1 2.98v.3s-10.68 4.9-11.77 5.78c-1.09.88-1.9 3.7-.9 4.02Z"/><path fill="#EBEBEB" d="M124.76 169.68c.98.32 29 .06 30.07-.63.4-.25.6-4.34.7-9.28v-.15l.05-3.13v-.44l-18.26-.02.02.57.1 2.98v.3s-10.68 4.9-11.77 5.78c-1.09.88-1.9 3.7-.9 4.02Z"/><path fill="#FFC727" d="M124.76 169.68c.98.32 29 .06 30.07-.63.4-.25.6-4.34.7-9.28v-.15l-18.08-.04v.3s-10.68 4.9-11.77 5.78c-1.09.88-1.9 3.7-.92 4.02Z"/><path fill="#263238" d="M125.07 168.59c4.72-.16 23.78-.35 28.46-.15.04 0 .04.02 0 .02-4.68.26-23.74.3-28.46.2-.1 0-.1-.07 0-.07Zm10.37-8.94c1.86-.36 4.13-.1 5.57 1.2.05.06 0 .13-.08.12a25.8 25.8 0 0 0-5.48-1.1.12.12 0 0 1-.08-.1.12.12 0 0 1 .07-.12Zm-1.34.82c1.87-.36 4.14-.1 5.57 1.2.06.06-.02.14-.08.12a26.2 26.2 0 0 0-5.47-1.06.13.13 0 0 1-.1-.04.12.12 0 0 1-.03-.09c0-.03 0-.06.03-.09a.13.13 0 0 1 .09-.04Zm-1.33.83c1.86-.37 4.13-.1 5.57 1.2.06.04-.02.13-.08.1a26.14 26.14 0 0 0-5.56-1.1.12.12 0 0 1-.04-.08v-.05a.12.12 0 0 1 .11-.08Z"/><path fill="#263238" d="M127.82 62.59c.35 4.22 1.11 8.4 2.26 12.48.16.54.31 1.06.5 1.57 1.53.76 3.03 1.6 4.48 2.52 0 0 .2 6.58.4 13.92.22 8.21.45 17.37.4 19.31-.17 7.27.9 47.21.9 47.21l20.18.1s-3.63-44.6-3.61-47.28c.04-4.28-1.07-19.14-1.85-32.93-.07-1.16.63-3.68.56-4.69-.4-6.36-1.34-12.22-1.34-12.22l-22.88.01Z"/><path fill="#37474F" d="M137.44 156.03c3.08-.05 2.2-.08 5.28-.1 1.51 0 11.42-.04 12.83.2l.01.01.01.02v.02h-.02c-1.41.24-11.32.1-12.83.08-3.08-.04-2.2-.06-5.28-.14-.06 0-.06-.09 0-.09Zm9.92-83.2c-.5-.13-1.03-.17-1.54-.25-.4-.06-.8-.13-1.2-.22a5.34 5.34 0 0 1-2.15-.91c-1-.8-2.17-4.77-2.3-5.02-.25-.44-.17-.03-.17 0 0 .46.9 3.93 1.32 4.58.74 1.2 2.09 1.67 3.42 1.84a16.7 16.7 0 0 0 2.62.1.07.07 0 0 0 .03-.06v-.03a.07.07 0 0 0-.03-.03Zm-22.33-.78c.22-.1.45-.19.69-.25.18-.06.36-.14.54-.22.41-.2.75-.51.97-.9.45-.81.96-4.78 1.03-5.03.1-.44.07-.03.07 0a44.54 44.54 0 0 1-.59 4.59c-.33 1.2-.94 1.67-1.53 1.84a3.8 3.8 0 0 1-.52.1 1.7 1.7 0 0 1-.65 0c-.04 0-.05-.1-.01-.13Zm5.61 4.7a35.96 35.96 0 0 1 5.7 2.68v.05a.06.06 0 0 1-.07.03c-1.92-.8-3.87-1.6-5.73-2.53a.13.13 0 0 1-.04-.03.13.13 0 0 1-.04-.1.13.13 0 0 1 .04-.08.13.13 0 0 1 .09-.03h.05Zm-.58-13.13c0-.06.12-.08.12 0 0 2.14.1 4.27.32 6.4.1.98.88 6.42 2.6 6.02.28-.06.43-.35.47-.78 0-.56-.08-1.12-.22-1.67a42.88 42.88 0 0 1-.44-3.43 31.24 31.24 0 0 1 .09-6.48l.03-.01h.03l.02.04c-.05 2.97.13 5.95.53 8.9.2 1.41.92 3.55-.56 3.77-1.48.22-2.49-3.36-2.67-4.34a32.6 32.6 0 0 1-.32-8.42Z"/><path fill="#37474F" d="M133.05 76.2a9 9 0 0 1 .38 1.12c.11.3.17.62.16.93l-.01.04-.04.01h-.03a3.26 3.26 0 0 1-.43-.93l-.4-1.05a.2.2 0 0 1 0-.15.2.2 0 0 1 .27-.09.2.2 0 0 1 .1.12Zm14.96-12.63c.34 1.85.66 3.71.95 5.58.29 1.86.67 3.73.67 5.68a22.58 22.58 0 0 0-.6 4.13c1.47 23.6 2.14 51.4 3.85 74.9-1.04-7.47-1.38-15.03-1.91-22.56-1.08-17.4-1.79-34.87-2.42-52.3.1-1.44.32-2.87.7-4.26-.03-3.26-.87-7.9-1.24-11.19v.02Z"/><path fill="#FFC727" d="M130.75 38.3c-8.62 7.6-16.62 15.92-17.28 20.22-.93 5.94 2.71 7.63 4.35 7.66 4.47.1 12.78-17.9 15.67-24.78 2.82-6.68-.85-4.77-2.75-3.1Z"/><path fill="#fff" d="M129.96 46.08a.7.7 0 0 1-.7-.71.88.88 0 0 0-.88-.88h-.55v.17h.55a.7.7 0 0 1 .7.7.88.88 0 0 0 .88.89h.52v-.17h-.52Zm-6.6 13.79a.7.7 0 0 1-.7-.7.88.88 0 0 0-.88-.88h-.55v.17h.55a.7.7 0 0 1 .7.7.88.88 0 0 0 .88.88h.52v-.17h-.52Zm-6.6-3.27a.7.7 0 0 1-.2-.5.7.7 0 0 1 .2-.5.87.87 0 0 0 .2-.96.87.87 0 0 0-.2-.29l-.4-.4-.12.13.4.4a.71.71 0 0 1 0 1 .87.87 0 0 0 0 1.24l.37.37.12-.13-.36-.36Zm2.14 6.71-.4.4a.71.71 0 0 1-1 0 .88.88 0 0 0-1.24 0l-.37.37.12.12.37-.36a.71.71 0 0 1 1 0 .87.87 0 0 0 .95.19c.11-.05.2-.11.29-.2l.4-.4-.12-.12Zm5.4-12.59-.4.4a.7.7 0 0 1-.5.21.71.71 0 0 1-.5-.2.88.88 0 0 0-1.25 0l-.36.36.12.12.36-.37a.71.71 0 0 1 1 0 .88.88 0 0 0 1.25 0l.4-.4-.12-.12Z"/><path fill="#000" d="M133.5 41.39c-2.9 6.87-11.22 24.88-15.68 24.78a3.54 3.54 0 0 1-.97-.17l17.32-29.16c.55.38.54 1.67-.68 4.55Z" opacity=".1"/><path fill="#FFC727" d="M151.5 65.44c-.05.07-24.75-.34-24.98-.58-.09-.1 2.32-21.87 5.67-27.28 1.38-2.23 5.22-3.38 7.84-.05 8.1 10.25 11.54 27.82 11.47 27.9Z"/><path fill="#fff" d="M137.47 57.32a.7.7 0 0 1-.7-.7.88.88 0 0 0-.89-.89h-.55v.17h.55a.7.7 0 0 1 .7.71.88.88 0 0 0 .89.88h.52v-.17h-.52Zm-7.5-11.25a.68.68 0 0 1-.5-.21c0 .06-.03.13-.05.2.15.12.34.18.54.18h.52v-.17h-.52Zm1.1 16.07a.7.7 0 0 1-.16-.77.7.7 0 0 1 .16-.23.9.9 0 0 0 .19-.95.88.88 0 0 0-.2-.29l-.4-.4-.12.12.4.4a.7.7 0 0 1 .16.77.7.7 0 0 1-.15.23.89.89 0 0 0 0 1.24l.37.37.12-.12-.37-.37Zm5.1-12.53a.7.7 0 0 1 0-1 .88.88 0 0 0 0-1.24l-.4-.4-.11.12.4.4a.71.71 0 0 1 0 1 .88.88 0 0 0 0 1.25l.36.36.13-.12-.37-.37Zm13.27 11.32a.71.71 0 0 1 0-1 .88.88 0 0 0 0-1.25l-.4-.4-.13.12.4.4a.71.71 0 0 1 0 1 .88.88 0 0 0 0 1.25l.38.36.12-.12-.37-.36Zm-12.35 4.01-.26.27h.24l.14-.14-.12-.13Zm-2.38.22h.78a.9.9 0 0 0-.8.01l.03-.01Zm11-18-.28.28.12.12.24-.24-.07-.17Zm-3.25 13.11v.52a.7.7 0 0 1-.7.7.88.88 0 0 0-.88.88v.55h.17v-.56a.7.7 0 0 1 .2-.5.7.7 0 0 1 .5-.2.88.88 0 0 0 .88-.88v-.5h-.17Zm-12.6-7.96v.52a.7.7 0 0 1-.7.7.88.88 0 0 0-.88.88v.55h.17v-.55a.71.71 0 0 1 .7-.7.88.88 0 0 0 .88-.88v-.52h-.17Zm6.18-14.3v.51a.7.7 0 0 1-.7.7.88.88 0 0 0-.88.88v.56h.17v-.55a.7.7 0 0 1 .7-.73.88.88 0 0 0 .88-.88v-.52l-.17.02Zm7.77 13.77v.52a.7.7 0 0 1-.7.7.88.88 0 0 0-.89.88v.55h.18v-.55a.7.7 0 0 1 .7-.7.88.88 0 0 0 .88-.88v-.52h-.17Zm-1.89-6.86a.7.7 0 0 1-.7-.7.88.88 0 0 0-.89-.89h-.54v.17h.55a.7.7 0 0 1 .7.71.88.88 0 0 0 .89.88h.52v-.17h-.53Z"/><path fill="#FFC727" d="M140.83 37.56c8.03 6.3 15.9 17.2 15.96 23.28.05 6.03-2.04 5.43-2.63 5.39-3.62-.24-12.19-16.97-14.8-23.79-2.6-6.82-.52-6.44 1.47-4.88Z"/><path fill="#fff" d="M151.66 54.53a.7.7 0 0 1-.7-.7.88.88 0 0 0-.88-.89h-.55v.18h.55a.7.7 0 0 1 .7.7.88.88 0 0 0 .88.88h.52v-.17h-.52Zm-2.22 6.4a.72.72 0 0 1-.21-.5.7.7 0 0 1 .2-.5.88.88 0 0 0 0-1.25l-.4-.4-.12.12.4.4a.7.7 0 0 1 .21.5.7.7 0 0 1-.2.5.88.88 0 0 0 0 1.25l.37.36.12-.12-.37-.36Zm-1.01-14.23-.4.4a.71.71 0 0 1-1 0 .88.88 0 0 0-1.25 0l-.37.37.13.12.36-.37a.71.71 0 0 1 1 0 .88.88 0 0 0 1.24 0l.4-.4-.11-.12Zm7.76 10.85a.87.87 0 0 0-.8.87v.55h.17v-.55a.7.7 0 0 1 .69-.7 1.14 1.14 0 0 1-.08-.18h.02Zm-12.38-5.77v.32l.16.3v-.62h-.16Zm11.61 11.4v.52a.7.7 0 0 1-.7.71.88.88 0 0 0-.89.88v.54h.18v-.54a.71.71 0 0 1 .7-.71.88.88 0 0 0 .88-.88v-.52h-.17Zm-13.5-18.26a.7.7 0 0 1-.7-.7.88.88 0 0 0-.89-.89h-.54v.17h.55a.7.7 0 0 1 .7.71.88.88 0 0 0 .89.88h.52v-.17h-.53Z"/><path fill="#263238" d="M149.33 61.53c-.42-.76-.85-1.5-1.26-2.27L146.82 57c-.83-1.52-1.67-3.03-2.47-4.57l-2.41-4.59c-.4-.76-.79-1.54-1.16-2.31-.4-.77-.75-1.56-1.12-2.35a47.2 47.2 0 0 0 2.01 4.82 117.12 117.12 0 0 0 4.9 9.17 71 71 0 0 0 2.76 4.37Z"/><path fill="#263238" d="M140.5 45.19a7.04 7.04 0 0 0-.5-.8l-.26-.38-.3-.36c.08.31.22.6.4.85.18.27.4.5.66.69Z"/><path fill="#AD6359" d="M115.97 49.72c.4-2.82 1.27-6.76 2.29-7.57 1.02-.82 4.95-3.71 6.06-4.09 1.12-.37 6.1-2.2 7-1.66.72.43-.16 2.33-2.53 3.21a34.73 34.73 0 0 0-3.75 1.78c-.6.25-2.09 2.2-1.7 3.06.23.52 1.71 1.13 2.64.73.93-.41 1.17-2.24 2.24-3.09 1.06-.85 2.93-.73 3.03-.22.1.5-.52.73-1.49 2.41-.63 1.09-.7 3.72-2.1 5.6a33.32 33.32 0 0 0-1.96 3.46l-9.73-3.62Z"/><path fill="#263238" d="M129.21 41.34c.34-.05.67-.19.93-.4.1-.1.18-.23.22-.38a.67.67 0 0 0 0-.23.35.35 0 0 0-.1-.23s0-.04.03 0l.08.11.05.11c.03.07.04.15.04.23a.7.7 0 0 1-.19.47 1.27 1.27 0 0 1-1.06.37v-.05Z"/><path fill="#AD6359" d="M118.26 42.15c.9-1.4 3.23-3.92 5.52-4.77 1.55-.57 6.83 2.06 6.65 3.07-.19 1.01-1.07 1-2.41.83-.49-.06-3.06-1.02-3.5-.48-.65.77-1.48 3.42-1.48 3.42l-4.78-2.07Z"/><path fill="#263238" d="M130.3 40.05c-.64-1.09-2.07-1.68-3.5-2.15-.02 0-.03.02 0 .03.37.12 2.68 1.2 3.5 2.14v-.02Z"/><path fill="#AD6359" d="M118.26 42.15c.9-1.4 3.23-3.92 5.52-4.77 1.55-.57 5.7 2.77 5.53 3.78-.16 1-1.46 1.08-2.9.56-.45-.16-2-1.28-2.44-.74-.65.77-2.2 2.69-2.2 2.69l-3.51-1.52Z"/><path fill="#263238" d="m122.67 42.48.34-.52c.15-.22.3-.43.47-.64.13-.19.3-.36.48-.5.2-.1.42-.14.64-.11.5.1.96.32 1.36.62a4.3 4.3 0 0 0 2.2.65c.2 0 .4-.06.59-.15a.93.93 0 0 0 .36-.28c.32-.55-.07-1.18-.48-1.63a9.7 9.7 0 0 0-2.81-1.96l-.75-.36a2.17 2.17 0 0 0-.9-.27c-.53 0-1.39.51-1.65.67 0 0-.04 0 0-.03.32-.2 1.12-.84 1.96-.8.3.04.6.15.87.3l.86.4c.56.28 1.1.6 1.61.97.5.33.95.75 1.3 1.24a1.47 1.47 0 0 1 .07 1.5 1.27 1.27 0 0 1-.95.5c-.22.03-.44.03-.66 0a10.4 10.4 0 0 1-1.44-.44c-.45-.19-.86-.5-1.32-.64a.87.87 0 0 0-.68.03 7.28 7.28 0 0 0-1.37 1.45c-.1.11-.17.11-.1 0Z"/><path fill="#AD6359" d="M117.58 43.37c.33-.67.92-3.43 1.46-4.27.54-.84 3.01-3.75 4.15-3.62 1.43.18-.1 2.74-.85 3.8-.76 1.05-.65 2.85-.65 2.85l-4.11 1.24Z"/><path fill="#263238" d="M123.4 37.53c-.27.33-.5.7-.74 1.06a9.6 9.6 0 0 0-.65 1.05c-.16.37-.26.77-.3 1.17l-.03.6v.66c0 .02.04.02.04 0 .03-.4.09-.8.17-1.19.08-.4.2-.8.37-1.18.34-.74.84-1.4 1.2-2.15 0-.02-.04-.04-.06-.02Zm-1.69 4.91a4.1 4.1 0 0 0 .35 2.01c.25.64.6 1.25 1.03 1.78.4.52.75 1.08 1.02 1.68.26.62.44 1.27.53 1.93a5.3 5.3 0 0 0-1.22-3.85 9.63 9.63 0 0 1-1.05-1.68 6 6 0 0 1-.66-1.87Z"/><path fill="#AD6359" d="M118.23 65.98c2.79-.38 4.61-5.04 7.8-13.24.55-1.44-6.73-10.29-7.72-8.97-1.25 1.67-4.61 10.92-4.96 13.45-.7 4.97 1.62 9.2 4.88 8.76Z"/><path fill="#FFC727" d="m124.34 57.31-8.98-8.73s-2.56 7.52-2.31 10.67c.24 3.15 1.33 6.74 5.12 6.93 2.84.15 6.17-8.87 6.17-8.87Z"/><path fill="#fff" d="M122.66 59.17a.88.88 0 0 0-.88-.87h-.55v.17h.55a.7.7 0 0 1 .7.7.88.88 0 0 0 .71.87l.08-.17a.7.7 0 0 1-.61-.7Zm-5.9-2.56a.7.7 0 0 1-.2-.5.7.7 0 0 1 .2-.5.87.87 0 0 0 .2-.96.87.87 0 0 0-.2-.28l-.4-.4-.12.12.4.4a.71.71 0 0 1 0 1 .87.87 0 0 0 0 1.24l.37.37.12-.12-.36-.37Zm2.14 6.7-.4.4a.71.71 0 0 1-1 0 .88.88 0 0 0-1.24 0l-.37.37.12.12.37-.36a.71.71 0 0 1 1 0 .87.87 0 0 0 .95.19c.11-.05.2-.11.29-.2l.4-.4-.12-.12Z"/><path fill="#263238" d="M121.44 63.36c.32-.46.61-.94.9-1.42.28-.49.54-.99.8-1.49a15.5 15.5 0 0 0 1.21-3.14c-.23.51-.48 1-.74 1.5l-.75 1.5c-.25.5-.5 1-.73 1.5-.23.52-.48 1.03-.7 1.55Zm.96-4.52a89.04 89.04 0 0 0-2.78-2.72c-.94-.88-1.9-1.76-2.86-2.63l-.8-.7-.9-.72h-.02v.04c.23.22.42.48.65.7l.7.7 1.42 1.33c.95.88 1.9 1.76 2.87 2.61.56.48 1.1.99 1.67 1.44h.06v-.05Z"/><path fill="#AD6359" d="M133.98 41.39c1.45.14 3.87-2.56 4.6-4.42.04-.13-.3-1.37-.67-2.9-.2-.92-.42-1.96-.55-2.92l-5.83 2.27c.5 1.16.87 2.37 1.08 3.62a2.45 2.45 0 0 1 0 .47c-.01.73-.05 3.73 1.37 3.88Z"/><path fill="#263238" d="M132.62 37.41v.07c.21 0 .42-.02.62-.05 3.48-.54 3.72-4.92 3.72-6.14l-1.45.57-3.98 1.55c.5 1.15.87 2.37 1.08 3.61.01.13.02.26.01.4Z"/><path fill="#AD6359" d="M137.66 24.24c.84 2.08.26 8.38-1.15 9.9-2.03 2.2-5.62 2.7-7.57.2-1.88-2.42-.97-10.63.63-12.04 2.34-2.06 6.85-1.15 8.1 1.94Z"/><path fill="#263238" d="M132.27 29.53s.03.02.03.04c-.04.4 0 .92.35 1.08v.02c-.47-.1-.49-.75-.38-1.14Z"/><path fill="#263238" d="M132.67 29.11c.7 0 .66 1.37 0 1.38-.65 0-.57-1.37 0-1.38Zm-2.87.28s-.03 0-.03.03c0 .43-.06.92-.45 1.05 0 0 0 .03 0 0 .47-.03.56-.68.49-1.08Z"/><path fill="#263238" d="M129.44 28.93c-.68-.07-.77 1.3-.14 1.37.63.06.71-1.3.14-1.37Zm3.93-.8a4.94 4.94 0 0 1-.55-.15.93.93 0 0 1-.53-.25.3.3 0 0 1 0-.36.73.73 0 0 1 .72-.13c.26.05.49.2.64.4a.3.3 0 0 1 .01.34.3.3 0 0 1-.3.15Zm-4.49-.36c.19-.03.37-.07.56-.12a.9.9 0 0 0 .53-.24.3.3 0 0 0 0-.36.72.72 0 0 0-.71-.15c-.26.05-.5.2-.66.4a.3.3 0 0 0 0 .33.3.3 0 0 0 .12.1c.05.04.1.05.16.04Zm3.96 5.36c-.1.1-.2.24-.35.26-.16 0-.31-.04-.46-.1 0 0-.03 0 0 .02a.57.57 0 0 0 .55.22.47.47 0 0 0 .32-.4s-.04-.02-.06 0Z"/><path fill="#263238" d="M132.36 31.86a1.45 1.45 0 0 1-.95.67 2.04 2.04 0 0 1-.62.04h-.1a.1.1 0 0 1-.05-.03.1.1 0 0 1-.03-.06v-.89c-.11.06-.72.35-.71.18a21.73 21.73 0 0 1 .46-4.45h.06l.01.03c0 1.37-.23 2.73-.24 4.1.21-.1.44-.18.68-.23.04 0-.06.97-.04 1.12a2.01 2.01 0 0 0 1.49-.5c.04-.04.07 0 .04.02Zm-6.5-11.01c.3-.6.83-1.07 1.45-1.33.87-.35 1.75-.14 2.62.1.03 0 0 .04 0 .03a3.94 3.94 0 0 0-2.25-.1 2.8 2.8 0 0 0-1.52 1.14 2.75 2.75 0 0 0 .58 3.56 2.8 2.8 0 0 0 2.14.58c.03 0 .05.04 0 .04a2.81 2.81 0 0 1-3.03-4.02Z"/><path fill="#263238" d="M137.96 25.6s.16-1.91-.25-2.57c-.4-.65-1.47-.93-1.47-.93s-.4-1.7-1.92-2c-1.36-.3-2.47.8-2.47.8s-1.63-2.18-3.96-1.42c-2.22.72-2.41 3.91-.56 5.2 1.3.91 3.42-.03 3.42-.03.18.05 1.88 1.49 3.57.03 0 0 1.15 1.2 2 .6 0-.05.92.56 1.64.32Z"/><path fill="#263238" d="M137.78 30.54c-.4-.54-1-2.16-1.28-2.88-.28-.71-.13-3.76-.04-5.1a4.3 4.3 0 0 1 1.2 1.68c.5 1.24.5 3.97.13 6.3Z" opacity=".2"/><path fill="#AD6359" d="M136.78 29.4s1.27-2.1 2.22-1.66c.94.44.08 3.42-.96 3.9a1.09 1.09 0 0 1-1.5-.5l.25-1.74Z"/><path fill="#263238" d="M138.73 28.59v.03c-.73.35-1.07 1.07-1.3 1.81a.6.6 0 0 1 .88-.22c.03 0 0 .04-.02.04a.68.68 0 0 0-.71.28c-.13.2-.24.4-.32.62-.02.07-.15.04-.13-.04-.08-.97.58-2.36 1.6-2.52Z"/><path fill="#37474F" d="m136.61 53.96-1.17-12.55-.76-.62-17.22-.1.4 11.94.76.61 18 .72Z"/><path fill="#455A64" d="m135.84 53.34-1.16-12.55-18-.72 1.17 12.56 18 .71Z"/><path fill="#fff" d="M124.47 46.06a1.2 1.2 0 0 1 1.49-.53.96.96 0 0 1 .62.5.95.95 0 0 1 .03.78 1.2 1.2 0 0 1-1.49.52.95.95 0 0 1-.66-1.27Z"/><path fill="#AD6359" d="M155 66.21c-2.7.37-6.04-1.72-14.73-8.06-1.2-.87 2.7-11.02 4.04-10.15a197.3 197.3 0 0 1 8.36 6.12c3.51 3.34 4.14 11.85 2.32 12.1Z"/><path fill="#AD6359" d="M147.43 51.07s-2.47-3.47-4.34-4.9a15.13 15.13 0 0 0-6.68-2.7c-2.6-.4-9.16.5-9.24 2.42-.07 1.74 6.59.52 6.59.52s-7 .13-6.7 2.25c.31 2.13 7.96.26 7.96.26s-7.2.3-6.53 2.44c.5 1.6 7.52.3 7.52.3s-6.18.31-5.74 2c.49 1.86 7.04 1.06 7.04 1.06 1.84 4.1 4.48 5.25 6.4 5.89.44.16 3.72-9.54 3.72-9.54Z"/><path fill="#263238" d="M136.15 46.2c-.8 0-1.65-.03-2.47.03-.82.06-1.64.15-2.45.28-1.07.16-2.11.44-3.11.83a30.9 30.9 0 0 1 5.58-.88c.82-.06 1.64-.16 2.46-.22.02 0 .02-.03 0-.03Zm.27 2.97c-1.05.03-2.1.02-3.14.1-1.06.07-2.01.23-3.07.38-.08 0-.05.05.03.04 1.04-.1 2.01-.12 3.06-.21 1.05-.1 2.08-.23 3.13-.28v-.03Zm.69 2.5c-1.61 0-3.22.18-4.8.51-.08 0-.03.06.05.05 1.6-.2 2.84-.36 4.75-.5.03 0 .03-.05 0-.06Z"/><path fill="#FFC727" d="M147.43 49.7 144 62.14s9.19 5.4 11.22 3.97c2.03-1.43.7-8.63-1.6-11.37-.97-1.13-6.2-5.06-6.2-5.06Z"/><path fill="#fff" d="M155.42 63.19v.51a.7.7 0 0 1-.7.71.88.88 0 0 0-.88.88v.54h.17v-.54a.71.71 0 0 1 .7-.71.88.88 0 0 0 .88-.88v-.51h-.17Zm-.04-4.93v.69h.17v-.16l-.17-.53Zm-5.94 2.67a.73.73 0 0 1-.21-.5.7.7 0 0 1 .2-.5.88.88 0 0 0 0-1.25l-.4-.4-.12.12.4.4a.7.7 0 0 1 .21.5.7.7 0 0 1-.2.5.88.88 0 0 0 0 1.25l.37.36.12-.12-.37-.36Zm2.24-6.4a.7.7 0 0 1-.7-.7.88.88 0 0 0-.88-.89h-.55v.18h.55a.7.7 0 0 1 .7.7.88.88 0 0 0 .88.88h.52v-.17h-.52Z"/><path fill="#263238" d="m147.3 50.1.13-.4h-.03c.86.71 1.74 1.41 2.6 2.13.85.72 1.71 1.43 2.53 2.18a9.3 9.3 0 0 1 2.1 2.54c.52.98.9 2.04 1.1 3.14A8.86 8.86 0 0 0 153.9 55c-.36-.43-.75-.83-1.17-1.2a45.34 45.34 0 0 0-5.32-4.12h-.02v.03l-.1.39Zm2.14 2.69c-.21.6-.37 1.24-.54 1.86a199.7 199.7 0 0 0-1.66 6.7c-.08.35-.12.75-.2 1.12 0 .03.04.04.05 0 .08-.3.2-.6.3-.9l.26-.96a130.06 130.06 0 0 0 1.4-5.66c.16-.72.34-1.43.45-2.16v-.02l-.03-.01h-.02l-.01.03Zm-5.15 8.26-.23 1.13-.03-.08c.93.51 2.3 1.2 3.26 1.71 1.09.56 2.19 1.1 3.3 1.63-.59-.17-1.17-.37-1.74-.6-1.74-.72-3.4-1.6-4.96-2.65l.4-1.14Z"/><path fill="#fff" d="M158.55 19.83a8.77 8.77 0 0 1-14.65 5.55l-4.39.64 2.2-3.8a8.77 8.77 0 1 1 16.84-2.4Z"/><path fill="#263238" d="M158.55 19.83a8.84 8.84 0 0 1-14.72 5.64l.1.03-4.37.67-.32.05.16-.27 2.18-3.8v.14a8.87 8.87 0 0 1 3.26-10.75 8.84 8.84 0 0 1 13.7 8.29Zm0 0a8.69 8.69 0 1 0-16.68 2.33l.03.08-.04.07-2.21 3.79-.16-.23 4.4-.62h.06l.04.04a8.65 8.65 0 0 0 11.06.65 9.38 9.38 0 0 0 1.73-1.68 8.8 8.8 0 0 0 1.77-4.43Z"/><path fill="#FFC727" d="m148.8 23.92-3.74-3.8 1.26-1.23 2.18 2.2 4.55-7.12 1.49.96-5.74 8.99Z"/></svg>