<svg xmlns="http://www.w3.org/2000/svg" width="85" height="160" fill="none"><path fill="#263238" d="M77.57 0H7.13A7.19 7.19 0 0 0 0 7.26v145a7.2 7.2 0 0 0 7.13 7.26h70.44a7.2 7.2 0 0 0 7.13-7.26v-145A7.2 7.2 0 0 0 77.57 0Zm2.67 147.78c0 3.81-2.86 6.9-6.38 6.9H10.83c-3.53 0-6.39-3.09-6.39-6.9V12.75c0-7.77 2.86-8.15 6.4-8.15h12.62c.73 0 1.33.83 1.33 1.86v.43c0 2.43 1.33 2.43 2.95 2.43h29.2c1.63 0 2.95 0 2.95-2.43v-.43c0-1.03.6-1.86 1.34-1.86h12.62c3.53 0 6.38 1.03 6.38 8.15l.01 135.03Z"/><path fill="#fff" d="M80.25 12.87V147.9c0 3.82-2.86 6.9-6.38 6.9H10.84c-3.54 0-6.4-3.08-6.4-6.9V12.87c0-7.77 2.86-8.15 6.4-8.15h12.62c.74 0 1.34.83 1.34 1.86v.44c0 2.42 1.32 2.43 2.95 2.43h29.2c1.64 0 2.95 0 2.95-2.43v-.44c0-1.03.6-1.86 1.34-1.86h12.63c3.54 0 6.38 1.03 6.38 8.15Z"/><path fill="#FFC727" d="M80.25 12.87v12.25H4.45V12.87c0-7.77 2.86-8.15 6.39-8.15h12.63c.73 0 1.33.83 1.33 1.86v.44c0 2.41 1.33 2.42 2.95 2.42h29.2c1.64 0 2.95 0 2.95-2.42v-.44c0-1.03.6-1.86 1.34-1.86h12.63c3.54 0 6.38 1.03 6.38 8.15Z"/><path fill="#fff" d="M46.33 6.32h-7.96a.5.5 0 0 1-.5-.51.5.5 0 0 1 .5-.5h7.96a.5.5 0 0 1 .5.5.5.5 0 0 1-.5.5ZM21.29 7.63l-.12.12a.52.52 0 0 0-.07.07 1.66 1.66 0 0 0-2.35 0l-.07-.07-.12-.12.16-.13a1.86 1.86 0 0 1 .85-.4l.23-.03h.35a1.85 1.85 0 0 1 1 .44l.14.11v.01Z"/><path fill="#fff" d="m19.13 8.2-.2-.19a1.39 1.39 0 0 1 1.97 0l-.2.2a1.1 1.1 0 0 0-.79-.33 1.08 1.08 0 0 0-.78.33Z"/><path fill="#fff" d="m20.52 8.4-.2.19a.56.56 0 0 0-.4-.17.55.55 0 0 0-.4.17l-.2-.2a.84.84 0 0 1 1.2 0Z"/><path fill="#fff" d="M20.1 8.76a.18.18 0 1 1-.18-.17.17.17 0 0 1 .18.17ZM9.4 8a.5.5 0 1 1 1 0 .5.5 0 0 1-1 0Zm1.58 0a.5.5 0 1 1 1 0 .5.5 0 0 1-1 0Zm1.58 0a.5.5 0 1 1 1.01 0 .5.5 0 0 1-1.01 0Zm1.58 0a.5.5 0 1 1 1 0 .5.5 0 0 1-1 0Zm1.58 0a.5.5 0 1 1 1.01-.01.5.5 0 0 1-1 .01Zm58.84 1.1h-4.09V7.2h4.1v1.9Zm-3.88-.21h3.67V7.4h-3.67v1.48Z"/><path fill="#fff" d="M73.45 7.52H70.8v1.26h2.64V7.52Zm1.47.12h-.36v1.02h.36V7.64Zm-63.29 12.8-2.24-2.1 2.24-2.1.35.37-1.84 1.73 1.84 1.73-.35.37Zm61.74.15h-1.5v-.54a.12.12 0 0 0-.07-.1 1.55 1.55 0 0 1-.17-.1.13.13 0 0 0-.13 0l-.45.26-.76-1.3.46-.26a.13.13 0 0 0 .06-.1v-.2a.14.14 0 0 0-.06-.11l-.46-.26.76-1.3.45.27a.12.12 0 0 0 .13 0l.17-.1a.13.13 0 0 0 .06-.1v-.56h1.51v.5a.12.12 0 0 0 .07.12l.17.1a.13.13 0 0 0 .13 0l.45-.27.76 1.3-.46.26a.11.11 0 0 0-.06.1v.2a.11.11 0 0 0 .06.11l.46.27-.76 1.29-.46-.26a.12.12 0 0 0-.12 0l-.17.1a.12.12 0 0 0-.07.1v.58Zm-1.18-.33h.86v-.2a.43.43 0 0 1 .24-.4l.14-.08a.43.43 0 0 1 .47 0l.17.1.43-.75-.18-.1a.43.43 0 0 1-.21-.43v-.16a.43.43 0 0 1 .22-.4l.17-.1-.43-.75-.17.1a.43.43 0 0 1-.47 0 .71.71 0 0 0-.14-.08.43.43 0 0 1-.24-.4v-.2h-.86v.19a.43.43 0 0 1-.25.4l-.14.07a.43.43 0 0 1-.46 0l-.18-.1-.43.75.17.1a.43.43 0 0 1 .22.41v.16a.43.43 0 0 1-.22.4l-.17.1.43.75.18-.1a.43.43 0 0 1 .47 0l.13.09a.43.43 0 0 1 .25.39v.24Zm.43-.79a1.13 1.13 0 1 1-.01-2.27 1.13 1.13 0 0 1 0 2.27Zm0-1.94a.81.81 0 1 0-.01 1.62.81.81 0 0 0 0-1.62Z"/><path fill="#FFC727" d="M69.4 106.69H15.3V60.94l27.05-17.18 27.04 17.18v45.75Z"/><path fill="#000" d="M69.4 106.69H15.3V60.94l27.05-17.18 27.04 17.18v45.75Z" opacity=".2"/><path fill="#EBEBEB" d="M66.35 103.19h-48v-61.6H54l12.36 11.73v49.87Z"/><path fill="#DBDBDB" d="m53.99 41.59 12.36 11.73H53.99V41.6ZM23.04 53.5h26.68v-1.57H23.04v1.58Zm0 4h26.68v-1.58H23.04v1.58Zm0 3.99h26.68V59.9H23.04v1.58Zm0 3.99h39.09V63.9h-39.1v1.58Zm0 3.99h39.09V67.9h-39.1v1.58Zm0 4h39.09v-1.58h-39.1v1.58Zm0 3.99h39.09v-1.58h-39.1v1.58Zm0 3.99h39.09v-1.58h-39.1v1.58Zm0 3.99h39.09v-1.58h-39.1v1.58Zm0 3.99h39.09v-1.58h-39.1v1.58Zm0 4h39.09v-1.58h-39.1v1.58Zm0 3.99h39.09v-1.58h-39.1v1.58Z"/><path fill="#FFC727" d="M69.4 72.39v34.3H15.3v-34.3c2.33 1.3 4.61 2.7 6.92 4.04 2.3 1.35 4.58 2.75 6.85 4.14a864.9 864.9 0 0 1 7.6 4.7l.08-.05c-.03 0-.04.04-.07.06 1.9 1.17 3.79 2.36 5.68 3.55 1.89-1.19 3.78-2.38 5.67-3.55-.02 0-.04-.04-.07-.06l.09.04a979.38 979.38 0 0 1 14.44-8.83c2.3-1.35 4.58-2.73 6.9-4.04Z"/><g fill="#000" opacity=".2"><path d="M69.4 72.39c-2.2 1.53-4.41 3.02-6.62 4.51-2.2 1.5-4.44 2.96-6.67 4.42a804.16 804.16 0 0 1-7.01 4.54l-.21.15-6.23 3.98-.31.19-.3-.19-6.23-3.98-.21-.14a694.72 694.72 0 0 1-13.7-8.96 324.83 324.83 0 0 1-6.6-4.51c2.32 1.3 4.6 2.7 6.9 4.04a706.22 706.22 0 0 1 14.45 8.84c1.9 1.17 3.79 2.36 5.68 3.55 1.89-1.19 3.78-2.38 5.67-3.55a974.44 974.44 0 0 1 14.44-8.84c2.34-1.36 4.62-2.74 6.94-4.05Z"/><path d="M36.74 85.24c-.02 0-.04.04-.06.06l-.87.72a98.3 98.3 0 0 1-4.15 3.3A165.12 165.12 0 0 1 21 96.77a97.27 97.27 0 0 1-5.58 3.37 90.55 90.55 0 0 1 5.07-4.08 150.85 150.85 0 0 1 15.1-10.16l1.05-.6.1-.05Zm32.52 14.86a93.96 93.96 0 0 1-5.57-3.35 213.6 213.6 0 0 1-5.4-3.62 133.65 133.65 0 0 1-9.4-7.12l-.87-.73c-.02 0-.04-.04-.06-.06l.08.04 1.06.6c1.5.87 2.98 1.78 4.44 2.71a175.34 175.34 0 0 1 10.65 7.46 97.32 97.32 0 0 1 5.07 4.08Z"/></g><path fill="#EBEBEB" d="M23.2 119.2h-7.9v7.87h7.9v-7.88Zm11.51 0h-7.88v7.87h7.88v-7.88Zm11.52 0h-7.89v7.87h7.89v-7.88Zm11.52 0h-7.89v7.87h7.89v-7.88Zm11.52 0h-7.88v7.87h7.88v-7.88Zm-.25 12.03H15.07v.85h53.95v-.85Zm0 2.24H15.07v.85h53.95v-.85Zm0 2.25H15.07v.85h53.95v-.85Zm-28.91 2.25H15.07v.85H40.1v-.85Z"/></svg>