<svg xmlns="http://www.w3.org/2000/svg" width="228" height="151" fill="none"><path fill="#FFC727" d="M39.18 4.37a4.51 4.51 0 0 0-9 0l-.48 5.8h9.95l-.47-5.8Zm-4.5 3.03a2.2 2.2 0 1 1 0-4.4 2.2 2.2 0 0 1 0 4.4Zm164.8-3.03a4.52 4.52 0 0 0-9 0l-.48 5.8h9.95l-.47-5.8Zm-4.5 3.03a2.2 2.2 0 1 1 0-4.4 2.2 2.2 0 0 1 0 4.4Z"/><path fill="#263238" d="M225.37 9.32H2.62v138h222.75v-138Z"/><path fill="#fff" d="M219.67 15.02H8.33v126.61h211.34V15.02Z" opacity=".9"/><path fill="#263238" d="M228 143.54H0v6.62h228v-6.62Z"/><path fill="#fff" d="M228 143.54H0v6.62h228v-6.62Z" opacity=".4"/><path fill="#263238" d="M63.77 116.88H18.54V38.11l.4-.42a31.44 31.44 0 0 1 44.42 0l.41.42v78.76Zm-42.42-2.82h39.6V39.29a28.6 28.6 0 0 0-39.6 0v74.77Z"/><path fill="#fff" d="M63.77 116.88H18.54V38.11l.4-.42a31.44 31.44 0 0 1 44.42 0l.41.42v78.76Zm-42.42-2.82h39.6V39.29a28.6 28.6 0 0 0-39.6 0v74.77Z" opacity=".8"/><path fill="#263238" d="M62.37 115.47H19.95V38.69l.43-.41a29.85 29.85 0 0 1 20.78-8.36 29.85 29.85 0 0 1 20.77 8.36l.44.41v76.78Zm-39.61-2.82h36.79V39.87a27.23 27.23 0 0 0-36.8 0v72.78Z"/><path fill="#fff" d="M62.37 115.47H19.95V38.69l.43-.41a29.85 29.85 0 0 1 20.78-8.36 29.85 29.85 0 0 1 20.77 8.36l.44.41v76.78Zm-39.61-2.82h36.79V39.87a27.23 27.23 0 0 0-36.8 0v72.78Z" opacity=".7"/><path fill="#263238" d="M60.08 52.36v-2.12H42.21V32.38H40.1v17.86H22.22v2.12H40.1v19.27H22.22v2.12H40.1v19.28H22.22v2.1H40.1v17.88h2.11V95.13h17.87v-2.1H42.21V73.75h17.87v-2.12H42.21V52.36h17.87Z"/><path fill="#fff" d="M60.08 52.36v-2.12H42.21V32.38H40.1v17.86H22.22v2.12H40.1v19.27H22.22v2.12H40.1v19.28H22.22v2.1H40.1v17.88h2.11V95.13h17.87v-2.1H42.21V73.75h17.87v-2.12H42.21V52.36h17.87Z" opacity=".9"/><path fill="#263238" d="M83.8 46.97h-1.34v77.1h1.33v-77.1Z"/><path fill="#fff" d="M83.8 46.97h-1.34v77.1h1.33v-77.1Z" opacity=".7"/><path fill="#FFC727" d="M81.37 37.08a1.77 1.77 0 0 0-3.53-.27c-.72 6.49-1.46 12.97-2.2 19.47-.1.93.95 1.8 2.37 1.92 1.4.1 2.59-.61 2.62-1.55l.74-19.57Zm7.05-.27a1.77 1.77 0 0 0-3.53.27l.74 19.56c0 .94 1.21 1.7 2.62 1.55 1.42-.14 2.48-.99 2.37-1.92l-2.2-19.46Z"/><path fill="#fff" d="M81.37 37.08a1.77 1.77 0 0 0-3.53-.27c-.72 6.49-1.46 12.97-2.2 19.47-.1.93.95 1.8 2.37 1.92 1.4.1 2.59-.61 2.62-1.55l.74-19.57Zm7.05-.27a1.77 1.77 0 0 0-3.53.27l.74 19.56c0 .94 1.21 1.7 2.62 1.55 1.42-.14 2.48-.99 2.37-1.92l-2.2-19.46Z" opacity=".7"/><path fill="#FFC727" d="M77.84 36.81a1.77 1.77 0 0 0-3.49-.52l-3.66 19.23c-.18.91.84 1.88 2.21 2.1 1.37.22 2.63-.42 2.74-1.35.74-6.48 1.48-12.97 2.2-19.46Zm7.06.27a1.77 1.77 0 0 0-3.53 0l-.74 19.56c0 .94 1.08 1.75 2.54 1.75 1.45 0 2.54-.8 2.54-1.75l-.82-19.56Zm7.01-.79a1.77 1.77 0 0 0-3.5.52l2.2 19.47c.12.93 1.34 1.56 2.75 1.34 1.4-.2 2.4-1.18 2.22-2.1a3846 3846 0 0 0-3.67-19.23Z"/><path fill="#fff" d="M77.84 36.81a1.77 1.77 0 0 0-3.49-.52l-3.66 19.23c-.18.91.84 1.88 2.21 2.1 1.37.22 2.63-.42 2.74-1.35.74-6.48 1.48-12.97 2.2-19.46Zm7.06.27a1.77 1.77 0 0 0-3.53 0l-.74 19.56c0 .94 1.08 1.75 2.54 1.75 1.45 0 2.54-.8 2.54-1.75l-.82-19.56Zm7.01-.79a1.77 1.77 0 0 0-3.5.52l2.2 19.47c.12.93 1.34 1.56 2.75 1.34 1.4-.2 2.4-1.18 2.22-2.1a3846 3846 0 0 0-3.67-19.23Z" opacity=".4"/><path fill="#263238" d="M92.98 124.14a1.92 1.92 0 0 0-1.95-2.1h-15.8a1.92 1.92 0 0 0-1.95 2.1h19.7Z"/><path fill="#fff" d="M92.98 124.14a1.92 1.92 0 0 0-1.95-2.1h-15.8a1.92 1.92 0 0 0-1.95 2.1h19.7Z" opacity=".5"/><path fill="#FFC727" d="M170.97 76.08h-21.03a1.7 1.7 0 0 0-1.63 1.47l-3.38 31.89a1.32 1.32 0 0 0 .32 1.04 1.3 1.3 0 0 0 1 .43h21.06l3.66-34.83Z"/><path fill="#fff" d="M170.97 76.08h-21.03a1.7 1.7 0 0 0-1.63 1.47l-3.38 31.89a1.32 1.32 0 0 0 .32 1.04 1.3 1.3 0 0 0 1 .43h21.06l3.66-34.83Z" opacity=".6"/><path fill="#FFC727" d="m122.66 108 3.05-29.01a3.3 3.3 0 0 1 3.21-2.9H147a1.3 1.3 0 0 1 1.31 1.47l-3.38 31.88a1.7 1.7 0 0 1-1.63 1.47h-18.04a2.56 2.56 0 0 1-2.52-1.81 2.41 2.41 0 0 1-.08-1.1Z"/><path fill="#fff" d="m122.66 108 3.05-29.01a3.3 3.3 0 0 1 3.21-2.9H147a1.3 1.3 0 0 1 1.31 1.47l-3.38 31.88a1.7 1.7 0 0 1-1.63 1.47h-18.04a2.56 2.56 0 0 1-2.52-1.81 2.41 2.41 0 0 1-.08-1.1Z" opacity=".5"/><path fill="#FFC727" d="M167.76 78.96a3.3 3.3 0 0 1 3.2-2.9 2.54 2.54 0 0 1 2.6 2.9c-.12 1.25-2.9 27.77-3.04 29.01a3.31 3.31 0 0 1-3.21 2.91 2.53 2.53 0 0 1-2.52-1.8c-.1-.36-.13-.74-.08-1.1.15-.99 2.94-27.98 3.05-29.02Z"/><path fill="#fff" d="M167.76 78.96a3.3 3.3 0 0 1 3.2-2.9 2.54 2.54 0 0 1 2.6 2.9c-.12 1.25-2.9 27.77-3.04 29.01a3.31 3.31 0 0 1-3.21 2.91 2.53 2.53 0 0 1-2.52-1.8c-.1-.36-.13-.74-.08-1.1.15-.99 2.94-27.98 3.05-29.02Z" opacity=".4"/><path fill="#FFC727" d="M118.3 89.3H98.98a5.81 5.81 0 0 0 0 11.62v21.57a1.64 1.64 0 0 0 1.63 1.63h21.94a1.64 1.64 0 0 0 1.63-1.63V95.1a5.8 5.8 0 0 0-5.86-5.8Z"/><path fill="#fff" d="M118.3 89.3H98.98a5.81 5.81 0 0 0 0 11.62v21.57a1.64 1.64 0 0 0 1.63 1.63h21.94a1.64 1.64 0 0 0 1.63-1.63V95.1a5.8 5.8 0 0 0-5.86-5.8Z" opacity=".3"/><path fill="#FFC727" d="M98.97 89.3a5.81 5.81 0 0 0 0 11.62v21.57a1.64 1.64 0 0 0 1.63 1.63h2.54a1.64 1.64 0 0 0 1.64-1.63V95.1a5.81 5.81 0 0 0-5.81-5.8Z"/><path fill="#fff" d="M98.97 89.3a5.81 5.81 0 0 0 0 11.62v21.57a1.64 1.64 0 0 0 1.63 1.63h2.54a1.64 1.64 0 0 0 1.64-1.63V95.1a5.81 5.81 0 0 0-5.81-5.8Z" opacity=".7"/><path fill="#FFC727" d="M114.29 124.12h45.97a5.9 5.9 0 0 0 5.9-5.9v-4.61a5.9 5.9 0 0 0-5.9-5.9h-45.97a5.9 5.9 0 0 0-5.9 5.9v4.61a5.9 5.9 0 0 0 5.9 5.9Z"/><path fill="#fff" d="M114.29 124.12h45.97a5.9 5.9 0 0 0 5.9-5.9v-4.61a5.9 5.9 0 0 0-5.9-5.9h-45.97a5.9 5.9 0 0 0-5.9 5.9v4.61a5.9 5.9 0 0 0 5.9 5.9Z" opacity=".4"/><path fill="#FFC727" d="M149.78 107.73a3.2 3.2 0 0 0-3.2-3.2H130.5a3.2 3.2 0 1 0-.02 6.4h16.08a3.21 3.21 0 0 0 3.22-3.2Z"/><path fill="#fff" d="M149.78 107.73a3.2 3.2 0 0 0-3.2-3.2H130.5a3.2 3.2 0 1 0-.02 6.4h16.08a3.21 3.21 0 0 0 3.22-3.2Z" opacity=".5"/><path fill="#FFC727" d="M127.28 107.73a3.2 3.2 0 0 0-3.2-3.2H108a3.19 3.19 0 0 0-3 4.43 3.2 3.2 0 0 0 2.96 1.97h16.08a3.2 3.2 0 0 0 3.24-3.2Z"/><path fill="#fff" d="M127.28 107.73a3.2 3.2 0 0 0-3.2-3.2H108a3.19 3.19 0 0 0-3 4.43 3.2 3.2 0 0 0 2.96 1.97h16.08a3.2 3.2 0 0 0 3.24-3.2Z" opacity=".6"/><path fill="#FFC727" d="M155.59 89.3h19.35a5.81 5.81 0 1 1 0 11.62v21.57a1.63 1.63 0 0 1-1.63 1.63h-21.9a1.64 1.64 0 0 1-1.63-1.63V95.1a5.8 5.8 0 0 1 5.8-5.8Z"/><path fill="#fff" d="M155.59 89.3h19.35a5.81 5.81 0 1 1 0 11.62v21.57a1.63 1.63 0 0 1-1.63 1.63h-21.9a1.64 1.64 0 0 1-1.63-1.63V95.1a5.8 5.8 0 0 1 5.8-5.8Z" opacity=".3"/><path fill="#FFC727" d="M155.59 89.3a5.82 5.82 0 0 1 0 11.62v21.57a1.63 1.63 0 0 1-1.63 1.63h-2.54a1.63 1.63 0 0 1-1.63-1.63V95.1a5.8 5.8 0 0 1 5.8-5.8Z"/><path fill="#fff" d="M155.59 89.3a5.82 5.82 0 0 1 0 11.62v21.57a1.63 1.63 0 0 1-1.63 1.63h-2.54a1.63 1.63 0 0 1-1.63-1.63V95.1a5.8 5.8 0 0 1 5.8-5.8Z" opacity=".7"/><path fill="#FFC727" d="M161.4 95.1h19.36a5.82 5.82 0 0 1-5.82 5.82H155.6a5.81 5.81 0 0 0 5.8-5.81Z"/><path fill="#fff" d="M161.4 95.1h19.36a5.82 5.82 0 0 1-5.82 5.82H155.6a5.81 5.81 0 0 0 5.8-5.81Z" opacity=".2"/><path fill="#FFC727" d="M147.88 57.41h19.62V33.27h-19.62V57.4Zm-21.91-5.11h19.6V38.37h-19.6V52.3Zm60.99-13H170v12.06h16.97V39.31Z"/><path fill="#fff" d="M147.88 57.41h19.62V33.27h-19.62V57.4Zm-21.91-5.11h19.6V38.37h-19.6V52.3Zm60.99-13H170v12.06h16.97V39.31Z" opacity=".3"/><path fill="#EBEBEB" d="M150.68 53.96h14.01V36.7h-14.01v17.25Z" opacity=".8"/><path fill="#FAFAFA" d="M127.47 50.85h16.62V39.82h-16.63v11.03Zm56.4-9.1h-10.8v7.17h10.8v-7.17Z" opacity=".8"/><path fill="#FFC727" d="m189.16 107.57-4.29-8.65s4.77 2.67 4.28-.9c-.48-3.57-2.09-.55-2.93-1.79-.85-1.23 1.77-1.55.59-3.43-1.18-1.89-3.39 1.52-4.06-.2-.68-1.72-1.54-2.54-3.39-2.12 0 0-.73 2.46.75 4 1.47 1.52-3.07.72-2.4 2.36.65 1.64 2.3 2.94 2.79 1.7.49-1.25 1.6.9.57 1.64-1.02.72 1.84 2.96 2.22 1.55a14 14 0 0 1 1.1-2.71l4.13 9.3.64-.75Zm2.32-.68 4.53-10.09s-5.33 3.28-4.94-.85c.4-4.12 2.37-.72 3.28-2.16.91-1.45-2.09-1.7-.85-3.91 1.25-2.22 3.94 1.59 4.65-.4.71-2 1.64-2.96 3.8-2.55 0 0 .95 2.79-.67 4.6-1.62 1.83 3.54.7 2.85 2.61-.68 1.92-2.53 3.46-3.12 2.03-.58-1.44-1.78 1.1-.57 1.9 1.2.8-1.98 3.47-2.48 1.87a16.47 16.47 0 0 0-1.38-3.06l-4.3 10.86-.8-.85Z"/><path fill="#fff" d="m191.48 106.89 4.53-10.09s-5.33 3.28-4.94-.85c.4-4.12 2.37-.72 3.28-2.16.91-1.45-2.09-1.7-.85-3.91 1.25-2.22 3.94 1.59 4.65-.4.71-2 1.64-2.96 3.8-2.55 0 0 .95 2.79-.67 4.6-1.62 1.83 3.54.7 2.85 2.61-.68 1.92-2.53 3.46-3.12 2.03-.58-1.44-1.78 1.1-.57 1.9 1.2.8-1.98 3.47-2.48 1.87a16.47 16.47 0 0 0-1.38-3.06l-4.3 10.86-.8-.85Z" opacity=".2"/><path fill="#FFC727" d="m189.4 107.84.7-15.39s-5.24 6.97-6.84 1.44c-1.6-5.54 2.7-2.14 3.14-4.5.44-2.35-3.58-1.13-3.09-4.64.5-3.51 5.93.05 5.82-2.9-.11-2.96.62-4.68 3.61-5.31 0 0 2.65 3.14 1.5 6.32-1.17 3.18 4.93-.9 5.03 1.91.09 2.82-1.48 5.78-3 4.24-1.54-1.55-1.75 2.35.2 2.75 1.96.41-.76 5.52-2.23 3.7a22.65 22.65 0 0 0-3.39-3.25v16.26l-1.45-.63Z"/><path fill="#fff" d="m189.4 107.84.7-15.39s-5.24 6.97-6.84 1.44c-1.6-5.54 2.7-2.14 3.14-4.5.44-2.35-3.58-1.13-3.09-4.64.5-3.51 5.93.05 5.82-2.9-.11-2.96.62-4.68 3.61-5.31 0 0 2.65 3.14 1.5 6.32-1.17 3.18 4.93-.9 5.03 1.91.09 2.82-1.48 5.78-3 4.24-1.54-1.55-1.75 2.35.2 2.75 1.96.41-.76 5.52-2.23 3.7a22.65 22.65 0 0 0-3.39-3.25v16.26l-1.45-.63Z" opacity=".5"/><path fill="#FFC727" d="M185.56 124.12h9.06a1.21 1.21 0 0 0 1.2-1.13l.96-15.64a1.22 1.22 0 0 0-.32-.89 1.21 1.21 0 0 0-.87-.38h-11a1.2 1.2 0 0 0-1.2 1.27l.97 15.62a1.18 1.18 0 0 0 1.2 1.15Z"/><path fill="#fff" d="M185.56 124.12h9.06a1.21 1.21 0 0 0 1.2-1.13l.96-15.64a1.22 1.22 0 0 0-.32-.89 1.21 1.21 0 0 0-.87-.38h-11a1.2 1.2 0 0 0-1.2 1.27l.97 15.62a1.18 1.18 0 0 0 1.2 1.15Z" opacity=".5"/><path fill="#263238" d="M196.78 105.45h-13.26a1.2 1.2 0 1 0 0 2.4h13.26a1.2 1.2 0 1 0 0-2.4Z"/><path fill="#fff" d="M196.78 105.45h-13.26a1.2 1.2 0 1 0 0 2.4h13.26a1.2 1.2 0 1 0 0-2.4Z" opacity=".5"/></svg>