<svg xmlns="http://www.w3.org/2000/svg" viewBox="0 0 42.94 42.93"><path d="M46.51,38.46c-.18.6-.32,1.21-.55,1.78A7,7,0,0,1,43.72,43a14.91,14.91,0,0,1-18.31.62A80.45,80.45,0,0,1,12.83,32.49a63.43,63.43,0,0,1-7-8.89A14.27,14.27,0,0,1,3.7,13.93a14.81,14.81,0,0,1,4-8.37,6.12,6.12,0,0,1,3.72-2,.91.91,0,0,0,.14-.07H13c.37.09.75.17,1.12.29A6.19,6.19,0,0,1,16.69,5.4l3.08,3.08a6.1,6.1,0,0,1,0,8.9l-1.92,1.93a2.4,2.4,0,0,0-.13,3.57,82.07,82.07,0,0,0,9.42,9.41,2.4,2.4,0,0,0,3.57-.12c.76-.76,1.5-1.54,2.3-2.27a6,6,0,0,1,8.19,0c1.26,1.18,2.47,2.42,3.68,3.67a5.63,5.63,0,0,1,1.57,3.26.71.71,0,0,0,.08.18Zm-28-22.27a4.36,4.36,0,0,0,.33-6.2c-1.18-1.28-2.42-2.52-3.7-3.7A4.37,4.37,0,0,0,9,6.55,13.16,13.16,0,0,0,5.37,14a12.57,12.57,0,0,0,1.86,8.75,62.67,62.67,0,0,0,6.91,8.68A75.46,75.46,0,0,0,26.33,42.16a13,13,0,0,0,14,1.08c.63-.31,1.2-.73,1.79-1.09L32.54,32.6c-.22.25-.45.54-.71.79a4.06,4.06,0,0,1-5.79.19A84.93,84.93,0,0,1,16.42,24a4,4,0,0,1,.19-5.79c.25-.26.54-.48.88-.78-.21-.17-.34-.25-.45-.36l-4.87-4.86a3.44,3.44,0,0,1-.35-.41.82.82,0,0,1,1.09-1.15,2.79,2.79,0,0,1,.42.35l3.79,3.79ZM43.4,41a4.37,4.37,0,0,0,.15-6.33c-1.1-1.14-2.22-2.25-3.35-3.35a4.42,4.42,0,0,0-6.36.11Z" transform="translate(-3.57 -3.49)" style="fill:#fff"/><path d="M46.51,19.34a5.54,5.54,0,0,1-1,2.12,4.2,4.2,0,0,1-3,1.48c-.64,0-1.29,0-1.93,0a.86.86,0,0,0-.54.22c-.89.86-1.77,1.75-2.65,2.63-.3.3-.62.53-1.07.34s-.55-.58-.54-1c0-.71,0-1.42,0-2.17H28.58a4.23,4.23,0,0,1-4.38-4.39V11.23a4.21,4.21,0,0,1,4.38-4.38c4.47,0,8.94,0,13.42,0a4.32,4.32,0,0,1,4.44,3.52s.05.07.07.1ZM37.45,23.4c.63-.64,1.17-1.18,1.7-1.73a1.23,1.23,0,0,1,1-.4c.66,0,1.32,0,2,0a2.55,2.55,0,0,0,2.74-2.75V11.31A2.55,2.55,0,0,0,42,8.52H28.66a2.55,2.55,0,0,0-2.78,2.79c0,2.35,0,4.7,0,7a2.59,2.59,0,0,0,2.91,2.92h7.63c.71,0,1,.31,1,1Z" transform="translate(-3.57 -3.49)" style="fill:#fff"/><path d="M21.37,35.9a3.75,3.75,0,0,1-.69-.39q-2.46-2.37-4.89-4.77a.82.82,0,0,1,0-1.26.83.83,0,0,1,1.23.09l4.84,4.71a.8.8,0,0,1,.25,1C21.92,35.54,21.62,35.69,21.37,35.9Z" transform="translate(-3.57 -3.49)" style="fill:#fff"/><path d="M13.28,27.61a.82.82,0,0,1,.84-.81.84.84,0,0,1,0,1.67A.86.86,0,0,1,13.28,27.61Z" transform="translate(-3.57 -3.49)" style="fill:#fff"/><path d="M10.23,8.19A.84.84,0,1,1,9.39,9,.85.85,0,0,1,10.23,8.19Z" transform="translate(-3.57 -3.49)" style="fill:#fff"/><path d="M31.3,14.06a.84.84,0,0,1,0,1.67.84.84,0,0,1,0-1.67Z" transform="translate(-3.57 -3.49)" style="fill:#fff"/><path d="M35.37,14.06a.84.84,0,1,1-.84.82A.86.86,0,0,1,35.37,14.06Z" transform="translate(-3.57 -3.49)" style="fill:#fff"/><path d="M39.44,14.06a.84.84,0,1,1-.84.82A.84.84,0,0,1,39.44,14.06Z" transform="translate(-3.57 -3.49)" style="fill:#fff"/></svg>