<svg xmlns="http://www.w3.org/2000/svg" width="138" height="185" fill="none"><path fill="#263238" d="M54.46 153.96c0-.16-.3-.2-.3 0a153.8 153.8 0 0 1-.57 15.5c-.2 2.4-2 15.63-6.1 14.72-.7-.15-1.06-.83-1.19-1.87 0-1.37.18-2.74.51-4.06.42-2.77.76-5.55 1-8.35.42-5.2.3-10.44-.37-15.62a.14.14 0 0 0-.05-.08.14.14 0 0 0-.08-.03.14.14 0 0 0-.09.03.14.14 0 0 0-.05.08c.21 7.2-.12 14.42-1 21.58-.47 3.44-2.13 8.64 1.47 9.12 3.6.48 5.92-8.2 6.34-10.58a79.25 79.25 0 0 0 .48-20.44Z"/><path fill="#F7A9A0" d="M99.6 53.56c2.1 5 2.35 16.97 1.3 19.85-1.04 2.89-21.3 4-23.37 1.63-2.07-2.37-7.8-19.83-6.27-25.16 1.54-5.33 26.18-1.51 28.35 3.68Z"/><path fill="#F7A9A0" d="M74.52 37.79c-1.12-2.26-4.92-9.12-8.04-7.52-2 1 .43 6.13 1.47 8.18 2.14 4.22 2.8 10.72 3.06 13.88.27 3.15 7.27-.75 7.27-.75s-.83-7.94-3.76-13.8Z"/><path fill="#FFC727" d="M107.56 57.08H64.48l21.55-32.8 21.53 32.8Zm-33.83-5h24.6l-12.3-18.71-12.3 18.72Z"/><path fill="#DBDBDB" d="M88.55 0H83.5v27.93h5.05V0Z"/><path fill="#F7A9A0" d="M73.54 56.54s.31 5.58 3.39 6.4c3.07.83 3.62-3.72 3.68-4.04 0 .3.44 5.41 3.61 5.93 3.17.52 3.18-4.11 3.17-4.41.11.27 1.56 3.85 4.07 3.7 4.3-.28.82-9.54 2.4-12.65-.01 0 5.57 2.06 5.75 2.1 0 0-3.13-8.89-7.44-10.77a3 3 0 0 0-3.65.92s-.69-3-3.18-3.46c-1.28-.25-2.8 1.58-2.8 1.58a3.77 3.77 0 0 0-2.89-2.65c-1.79-.24-3.28 1.62-3.63 2.41-2.7 6.07-2.48 14.94-2.48 14.94Z"/><path fill="#263238" d="M82.53 41.76c0-.06-.07-.09-.1 0a25.03 25.03 0 0 0-2 17.3c0 .2.31.33.26.1-.78-4.03.26-12.66 1.84-17.4Zm5.11 19.03c-1.32-5.7-.7-11.27.76-16.87 0-.08-.08-.1-.12 0-1.45 2.55-2 6.22-2.21 9.13-.24 2.68.24 5.38 1.38 7.83.05.05.22.05.2-.1Z"/><path fill="#263238" d="M73.54 56.54c.16 1.06.42 2.11.77 3.13.3 1 .86 1.9 1.62 2.62a2 2 0 0 0 1.32.44c.48-.02.95-.17 1.36-.42a3.42 3.42 0 0 0 1.36-2.45l.32-2.34.52 2.3a9.8 9.8 0 0 0 1.15 2.91 3.48 3.48 0 0 0 2.22 1.75 2 2 0 0 0 2.24-1.08c.41-.92.59-1.93.5-2.94l-.12-2.8 1 2.59c.28.71.66 1.38 1.12 2 .42.6 1 1.07 1.68 1.35a1.78 1.78 0 0 0 1.82-.39 4 4 0 0 0 .81-2c.17-1.6.21-3.22.13-4.84V53.9c-.02-.82.13-1.65.45-2.41-.22.78-.3 1.6-.22 2.41 0 .81.11 1.63.2 2.45.19 1.65.23 3.32.11 4.99-.05.9-.36 1.76-.89 2.48a2.51 2.51 0 0 1-2.68.68 4.6 4.6 0 0 1-2.13-1.64c-.52-.68-.95-1.43-1.28-2.22l.9-.21a6.98 6.98 0 0 1-.56 3.48c-.3.6-.79 1.08-1.4 1.36a3.3 3.3 0 0 1-1.89.19 4.35 4.35 0 0 1-2.81-2.2c-.58-1-1-2.1-1.22-3.23h.83a4.1 4.1 0 0 1-1.85 2.93c-.52.3-1.1.45-1.7.44a2.5 2.5 0 0 1-1.66-.65A6.09 6.09 0 0 1 74 59.83a14.64 14.64 0 0 1-.45-3.3Z"/><path fill="#F7A9A0" d="M76.03 72.23s-16.52-16.07-7.07-19.45c2.8-1 15.53-1.78 15.73.77.26 3.3-4.99 4.61-8.42 4.92 0 0 6.4 4.67 4.46 10.1a5.7 5.7 0 0 1-4.7 3.66Z"/><path fill="#263238" d="M68.19 53.12c1.05-.53 2.17-.9 3.33-1.1 1.15-.23 2.32-.38 3.5-.45 2.36-.18 4.72-.15 7.08.08.62.06 1.23.21 1.81.45.34.13.64.34.88.6a1.81 1.81 0 0 1 .46 1.07 3 3 0 0 1-.59 2c-.4.5-.88.95-1.43 1.3-1.04.63-2.2 1.07-3.39 1.31a22.1 22.1 0 0 1-3.53.52l.2-.74c.72.57 1.39 1.2 2 1.88.59.67 1.11 1.4 1.55 2.19.44.78.76 1.62.95 2.5.19.87.21 1.76.07 2.63a7.9 7.9 0 0 0-.35-2.56 9.33 9.33 0 0 0-1.1-2.31 13.72 13.72 0 0 0-3.54-3.65l-.87-.6 1.06-.15c1.13-.13 2.26-.33 3.37-.6a10.4 10.4 0 0 0 3.1-1.24 2.92 2.92 0 0 0 1.57-2.36c0-.8-1.25-1.13-2.32-1.3a50.36 50.36 0 0 0-6.9-.38c-2.34-.06-4.68.24-6.91.9Z"/><path fill="#F7A9A0" d="M43.65 93.99c19.58 21.17 44.66 32.73 50.89 27.6 6.23-5.13-17.13-27.2-17.53-27.54-1.36-1.15-9.38-5.56-27.47-11.82C31.77 76.1 34.9 84.53 43.65 94Z"/><path fill="#FFC727" d="M43.65 93.99c19.58 21.17 44.66 32.73 50.89 27.6 6.23-5.13-17.13-27.2-17.53-27.54-1.36-1.15-9.38-5.56-27.47-11.82C31.77 76.1 34.9 84.53 43.65 94Z"/><path fill="#020100" d="M69.17 114.9a118.93 118.93 0 0 1-25.52-20.95c-6.8-7.32-10.24-14.06-3.06-13.8l28.58 34.75Z" opacity=".1"/><path fill="#F7A9A0" d="M92.52 122.52c10.42-2.37 10.06-37.42 8.18-50.9-.55-3.99-25.4-4.33-25.33-.04.45 24.4 5.36 53.6 17.15 50.94Z"/><path fill="#FFC727" d="m74.8 73.73 28.53 2.6s.08 31.02-4.66 40c-4.74 9-9.7 9.5-16.14-.54-6.44-10.05-7.73-42.06-7.73-42.06Z"/><path fill="#263238" d="m98.15 82.46-3-.27c-1.99-.18-13.75-1.16-17.65-1a.09.09 0 1 0 0 .18c3.86.71 15.62 1.41 17.57 1.52l3 .14c.99.05 1.99 0 2.99 0 .08 0 .11-.15 0-.16-.95-.09-1.92-.3-2.9-.4ZM76.62 93.8l2.2 10.08 1.13 4.98 1.16 5a60.15 60.15 0 0 1-3-9.9 73.6 73.6 0 0 1-.93-5.08c-.24-1.71-.48-3.36-.56-5.08Z"/><path fill="#263238" d="M79.03 105.94c0 1 0 2 .06 3 0 .5.07 1 .12 1.5.05.5.14.99.2 1.5a7.54 7.54 0 0 1-.37-6Z"/><path fill="#FFC727" d="M63.4 158.56S1.1 160.4.75 160.03c-1-1 12.88-67.69 27.07-79.28 5.08-4.15 12.25-5.65 18.51 2.64 8.59 11.39 17.85 74.14 17.07 75.17Z"/><path fill="#020100" d="m63.07 154.02-61.82 1.6c.3-1.75.73-3.95 1.26-6.48l59.7-1.55c.37 2.5.66 4.7.86 6.43Zm-1.32-9.54L3.19 146l.93-4.18 56.98-1.47c.25 1.4.45 2.81.65 4.13Zm-1.13-7.08-55.79 1.45.38-1.57 55.14-1.42.27 1.54Z" opacity=".1"/><path fill="#F7A9A0" d="M42.71 91.91c-3.63.46-9.15-5.6-11.09-10.25-.12-.32.67-3.44 1.46-7.28.47-2.34.94-4.94 1.2-7.35 0-.5 14.73 5.27 14.73 5.27a38.8 38.8 0 0 0-2.44 9.11c-.03.34-.03.67 0 1v.16c.11 1.92-.35 8.9-3.86 9.34Z"/><path fill="#263238" d="M35.2 67.19c.27 4.15 1.76 14.27 9.82 15.31.51.07 1.03.1 1.55.08a38.22 38.22 0 0 1 2.45-10.28S38.4 68.13 35.2 67.2Z"/><path fill="#455A64" d="M50.23 61.39c-.17 3.62 2.26 6.66 5.43 6.8 3.18.14 5.88-2.66 6-6.27.1-3.62-2.28-6.67-5.45-6.8-3.16-.15-5.84 2.66-5.98 6.27Z"/><path fill="#C7C7C7" d="M48.38 61.54c-.18 3.99 2.53 7.4 6.06 7.56 3.52.16 6.53-3 6.71-6.98.18-4-2.52-7.42-6.06-7.58-3.53-.16-6.56 2.98-6.71 7Z"/><path fill="#F7A9A0" d="M35.66 47.84c-2.75 4.93-3.23 20.76-.2 24.94 4.38 6.09 13.18 8.47 18.77 2.84 5.4-5.47 5.67-26.12 2.14-30.1-5.19-5.85-16.66-4.96-20.71 2.32Z"/><path fill="#263238" d="M48.58 60.35s-.1 0-.1.09c0 1.07-.1 2.3-1.05 2.65v.06c1.19-.17 1.35-1.8 1.15-2.8Z"/><path fill="#263238" d="M47.62 59.23c-1.72-.12-1.85 3.33-.25 3.43 1.6.11 1.69-3.32.25-3.43Zm6.93 1.37s.08 0 .08.1c-.08 1.06 0 2.3 1 2.68v.06c-1.21-.2-1.32-1.84-1.08-2.84Z"/><path fill="#263238" d="M55.53 59.52c1.72-.07 1.73 3.37.14 3.43-1.58.06-1.57-3.38-.14-3.43Zm-9.07-2.49c.46-.12.9-.26 1.35-.42.5-.08.96-.32 1.3-.68a.74.74 0 0 0-.08-.89 1.78 1.78 0 0 0-1.8-.26c-.65.16-1.21.54-1.59 1.08a.78.78 0 0 0 .82 1.17Zm10.74.83a11.1 11.1 0 0 1-1.38-.3c-.5-.04-.97-.24-1.34-.57a.72.72 0 0 1 0-.9 1.8 1.8 0 0 1 1.77-.41c.66.11 1.26.47 1.67 1a.78.78 0 0 1-.71 1.18Zm-9.53 9.18a3.61 3.61 0 0 0 2.37 1.7c.42.1.86.14 1.3.11h.48a.25.25 0 0 0 .22-.23v-2.27c.29.17 1.8.9 1.79.48.04-3.7-.3-7.4-1-11.04 0-.12-.21-.1-.2 0-.06 3.42.49 6.83.49 10.27a6.7 6.7 0 0 0-1.7-.58c-.12 0 .11 2.41.05 2.78a5.06 5.06 0 0 1-3.71-1.3c-.07-.04-.15-.04-.09.08Z"/><path fill="#263238" d="M32.26 59.51c4 1.15 7.09-3.2 6.99-7.25 0 0 10.39 3.7 12.74-4.76a8.63 8.63 0 0 0 6.13 5.34l.52 3.42c1.15-.08 2.99-2.94.84-5.99.37-2.67-.3-5.38-1.87-7.56a5.99 5.99 0 0 0-6.1-2.24 9.07 9.07 0 0 0-6.11-3 7.72 7.72 0 0 0-6.44 2.91s-5.52-.12-7.23 3.46a7.98 7.98 0 0 0-.3 6.5s-1.65 1.19-1.66 4.55c-.02 2.2 1.3 4.28 2.5 4.62Z"/><path fill="#263238" d="M51.91 46.68a9.98 9.98 0 0 1-.43 2.1 8.5 8.5 0 0 1-.82 2 5.58 5.58 0 0 1-3.14 2.54 8.82 8.82 0 0 1-4.15.15c-.69-.17-1.4-.3-2.08-.5-.67-.21-1.36-.45-2.05-.66.65.3 1.3.6 2 .9.68.3 1.37.42 2.07.64 1.44.37 2.95.37 4.39 0a5.8 5.8 0 0 0 3.32-2.83c.67-1.35.97-2.84.9-4.34Z"/><path fill="#263238" d="M56.36 52.83a11.38 11.38 0 0 1-2.87-2.45 6.7 6.7 0 0 1-1.55-3.4 4.64 4.64 0 0 0 1.18 3.76 6.24 6.24 0 0 0 3.24 2.09Z"/><path fill="#F7A9A0" d="M36.24 60.93s-2.49-5.62-4.98-4.82c-2.5.8-1.28 8.47 1.16 9.98a2.72 2.72 0 0 0 3.87-.74l-.05-4.42Z"/><path fill="#263238" d="M31.67 58.32s-.06 0 0 .07c1.7 1.11 2.34 3 2.68 4.92a1.52 1.52 0 0 0-2.16-.81.06.06 0 0 0 0 .06l.02.02a1.7 1.7 0 0 1 1.71.93 8 8 0 0 1 .58 1.64c.06.18.37.15.35 0v-.05c.5-2.4-.7-6.05-3.18-6.78Z"/><path fill="#C7C7C7" d="M31.8 57.26s-.51-7.9 1.8-12.26c2.58-4.85 11.7-8.4 17.9-4.5 0 0-9.25-1.87-14.79 4.85-2.3 2.83-2.3 12.12-2.3 12.12l-2.6-.21Z"/><path fill="#C7C7C7" d="M39.2 61.25c0 3.99-2.79 7.31-6.32 7.34-3.53.03-6.45-3.2-6.45-7.22 0-4.03 2.79-7.32 6.32-7.35 3.53-.03 6.42 3.2 6.46 7.23Z"/><path fill="#455A64" d="M37.34 61.04c0 3.61-2.51 6.57-5.68 6.6-3.18.03-5.77-2.87-5.81-6.5-.04-3.61 2.5-6.57 5.68-6.6 3.17-.03 5.77 2.88 5.81 6.5Z"/><path fill="#263238" d="M25.18 64.48a3.3 3.3 0 0 1-1.33-3.81c.07-.23.2-.44.28-.66.13-.2.26-.39.41-.57a9.3 9.3 0 0 0-.3 1.32c-.07.43-.07.86 0 1.29.04.42.15.84.31 1.24.17.42.38.82.63 1.2Zm-1.28.86a4.34 4.34 0 0 1-1.3-5.64c.14-.26.3-.5.48-.74-.2.54-.34 1.1-.45 1.67a6.02 6.02 0 0 0 .43 3.26c.22.5.5 1 .83 1.45Zm-1.67 1.04a5.62 5.62 0 0 1-1.6-7.1c.18-.33.38-.64.58-.94-.27.68-.47 1.37-.6 2.08a6.59 6.59 0 0 0 .49 4.1c.3.66.67 1.29 1.13 1.86Zm62.47 81.36c-10.98 0-23.24-28.6-29.15-42.36a60.78 60.78 0 0 0-2.85-6.22c-1-1.36-5.07-4.26-8.98-7.07-3.72-2.67-7.23-5.2-8.4-6.52-2.46-2.8-3.19-13.7-3.5-18.37l.5-.06c.27 4.22 1 15.4 3.38 18.07 1.13 1.28 4.78 3.9 8.3 6.44 3.94 2.84 8 5.76 9.09 7.17a59.46 59.46 0 0 1 2.91 6.33c5.41 12.59 18.08 42.06 28.7 42.06 11.13 0 14.04-19.84 15.29-28.3.24-1.6.4-2.76.56-3.25.94-3 5.5-8.8 5.7-9.05l.38.3c0 .07-4.7 6-5.6 8.9-.24 1.05-.42 2.1-.55 3.17-1.21 8.66-4.2 28.76-15.78 28.76Z"/><path fill="#263238" d="M53.76 101.28c-1.25-2.58 1.55-9.35 3.41-13.83.58-1.4 1.08-2.6 1.3-3.32.95-3-1-16.32-1-16.45l.5-.08c.09.56 2 13.61 1 16.68-.24.75-.74 2-1.33 3.36-1.83 4.4-4.58 11.05-3.42 13.42l-.46.22Z"/><path fill="#F7A9A0" d="M24.08 96.54c2.79 16.35 16.5 46.9 25.45 49.8 10.34 3.34 46.28-8.15 53.33-13.32 2.8-2.05-12.15-20.15-15.64-18.87-14.63 5.38-27.6 8.15-29.5 6.87-2.88-2-14.68-18.88-22.35-29.37-9.64-13.18-12.54-2.44-11.29 4.9Z"/><path fill="#F7A9A0" d="M101.93 133.51c1.6-.57 12.6-8.55 15.85-12.3a48.04 48.04 0 0 0 8.43-13.12c3.26-7.6 4.8-13.17 4-15.67-.93-2.9-1.19-3.36-8.8 9.26-4.3 7.13-8.4 7.98-11.97 7.87a54.8 54.8 0 0 0-25.29 5.66s11.64 20.5 17.78 18.3Z"/><path fill="#37474F" d="M136.8 82.41 115.63 109a2.18 2.18 0 0 1-2.34.8l-12.65-5.29c-.71-.3-.81-1.13-.23-1.86l21.17-26.6a2.19 2.19 0 0 1 2.34-.8l12.66 5.3c.7.34.8 1.12.22 1.86Z"/><path fill="#263238" d="m135.89 80.26-12.67-5.28a2.19 2.19 0 0 0-2.34.79l-21.17 26.59c-.58.74-.48 1.57.23 1.86l12.65 5.28a2.2 2.2 0 0 0 2.34-.78l21.17-26.6c.6-.74.5-1.56-.21-1.86Zm-21.1 27.3a2.05 2.05 0 0 1-2.15.79l-11.33-4.73c-.62-.26-.7-1.05-.14-1.75l19.72-24.76c1.13-1.42 1.7-1.27 2.34-1l2.26 1c.14 0 .12.25 0 .44l-.06.08c-.36.45-.12.55.17.67l5.25 2.2c.3.12.53.22.89-.23l.06-.08c.15-.2.38-.3.52-.24l2.26.95c.63.25 1 .66 0 2l-19.78 24.66Z"/><path fill="#fff" d="m134.51 82.8-19.71 24.76a2.06 2.06 0 0 1-2.16.79l-11.33-4.73c-.62-.26-.7-1.05-.14-1.75l19.72-24.76c1.13-1.42 1.7-1.27 2.34-1l2.26 1c.14 0 .12.25 0 .44l-.06.08c-.36.45-.12.55.17.67l5.25 2.2c.29.12.53.22.89-.23l.06-.08c.15-.2.38-.3.52-.24l2.26.95c.61.18.97.6-.07 1.9Z"/><path fill="#fff" d="m129.35 79.07-1.42-.59a.08.08 0 0 1-.04-.06l.01-.04.03-.03a.15.15 0 0 1 .16-.06l1.42.6.03.03a.08.08 0 0 1 0 .07l-.03.03a.15.15 0 0 1-.16.05Z"/><path fill="#FFC727" d="M123.47 90.38c-1.37 1.71-3.84 2.53-5.53 1.83-1.69-.7-1.94-2.66-.57-4.38 1.37-1.72 3.84-2.54 5.53-1.84 1.68.71 1.93 2.67.57 4.39Z"/><path fill="#fff" d="m120.5 90.15-1.37-.57 1.7-2.15a1.16 1.16 0 0 1 1.25-.42c.38.16.44.6.13 1l-1.7 2.14Z"/><path fill="#FFC727" d="M120.62 88.34a.14.14 0 0 1-.15.05l-.3-.13.13-.17.3.13c.05.02.06.07.02.12Zm-.31.39a.16.16 0 0 1-.14 0l-.3-.13.13-.17.3.13c.04.07.05.12.01.17Zm-.31.39a.16.16 0 0 1-.14.05l-.3-.13.13-.17.3.13c.05.02.05.07.02.12Zm1.68-.45-.14.17-.29-.13c-.05 0-.06-.07 0-.12a.18.18 0 0 1 .15-.05l.28.13Zm-.31.39-.14.17-.29-.13c-.05 0-.06-.07 0-.12a.16.16 0 0 1 .15-.05l.28.13Zm-.44-1.11a.14.14 0 0 1-.15 0l-.3-.13.13-.17.3.13c.05.09.06.09.02.17Zm1.07.33-.15.17-.29-.13a.06.06 0 0 1-.02-.02.06.06 0 0 1-.01-.04v-.03l.03-.02a.14.14 0 0 1 .15-.05l.28.12Zm-.94 1.17-.14.17-.29-.13s-.06-.07 0-.12a.16.16 0 0 1 .15-.05l.28.13Z"/><path fill="#fff" d="M118.76 91.18s-.05-.07 0-.12l.78-1a.14.14 0 0 1 .15-.05s.06.08 0 .13l-.8 1a.13.13 0 0 1-.14.05Z"/><path fill="#fff" d="M120.66 90.54a.16.16 0 0 1-.15 0l-1.92-.8s-.05-.07 0-.11a.15.15 0 0 1 .15-.06l1.91.8c.04.07.04.12.01.17Z"/><path fill="#fff" d="M119.64 88.48c.05 0 .05.07 0 .12l-.92 1.14a.13.13 0 0 1-.15 0s-.05-.07 0-.11l.9-1.15a.13.13 0 0 1 .17 0Zm1.91.8s.06.07 0 .12l-.9 1.14a.16.16 0 0 1-.16 0 .07.07 0 0 1-.03-.1c.02 0 .02 0 .03-.02l.91-1.14a.14.14 0 0 1 .15 0Zm-2.25 2.13-1.07-.45c-.05 0-.06-.07 0-.12a.14.14 0 0 1 .15 0l1.07.45c.05 0 .05.07 0 .12a.16.16 0 0 1-.15 0Z"/><path fill="#FFC727" d="M116.28 91.33a3.5 3.5 0 0 1 .75-3.63 6.32 6.32 0 0 1 1.84-1.53.1.1 0 0 1 .07.02s0 .1-.06.12a6 6 0 0 0-1.69 1.44 3.35 3.35 0 0 0-.7 3.46s0 .1-.08.12a.12.12 0 0 1-.13 0Zm1.36 1.26a2.94 2.94 0 0 1-.87-.57v-.07a.1.1 0 0 1 .02-.03.1.1 0 0 1 .14 0c.24.23.52.4.82.52a4 4 0 0 0 2.11.22c.06 0 .1 0 .1.07 0 .03-.02.05-.04.07a.15.15 0 0 1-.08.04c-.74.11-1.5.03-2.2-.25Zm2.89.07v-.06c0-.03.02-.05.04-.07a6.3 6.3 0 0 0 3.22-2.1l.07.02c.05 0 .06.07 0 .11a6.35 6.35 0 0 1-3.23 2.14l-.1-.04Zm3.78-3.09v-.1c.11-.23.2-.48.25-.73l.05-.07a.14.14 0 0 1 .08-.03c.05 0 .1 0 .08.08a3.6 3.6 0 0 1-.27.78.14.14 0 0 1-.13.08l-.06-.01Zm-4.81-3.63a.11.11 0 0 1 .08-.12 5.61 5.61 0 0 1 2.36-.44c.45.01.88.1 1.3.28a2.5 2.5 0 0 1 1.62 2.35s-.05.09-.1.11c-.07.02-.1 0-.1-.06a2.39 2.39 0 0 0-1.56-2.24c-.4-.16-.8-.25-1.23-.26a5.37 5.37 0 0 0-2.25.42.1.1 0 0 1-.12-.04Z"/><path fill="#FFC727" d="m125.08 89.66-.01-.02a.05.05 0 0 1 0-.05l.01-.02a4 4 0 0 0 .37-2.14 3.05 3.05 0 0 0-2.8-2.58s-.06-.05 0-.1a.14.14 0 0 1 .15-.07 3.17 3.17 0 0 1 2.91 2.68c.09.77-.05 1.54-.39 2.23a.17.17 0 0 1-.06.05.16.16 0 0 1-.08.03l-.1-.01Zm-7.85-3.02v-.12a7.73 7.73 0 0 1 4.17-1.86.07.07 0 0 1 .06.02l.02.02v.04c0 .02-.02.05-.05.06a.15.15 0 0 1-.07.04 7.28 7.28 0 0 0-4.06 1.82c-.02 0-.05 0-.07-.02Zm-2 4.22v-.05c-.08-.7.03-1.41.32-2.06a6.1 6.1 0 0 1 1-1.62.14.14 0 0 1 .08-.02c.02 0 .05 0 .07.02v.12c-.41.46-.75.98-1 1.55a3.85 3.85 0 0 0-.3 2s0 .1-.1.11l-.06-.05Zm.87 1.73c-.2-.2-.38-.42-.52-.66 0 0 0-.09.06-.12s.11 0 .13 0c.14.23.3.44.5.63v.13a.13.13 0 0 1-.18.02Zm1.01.66c-.12-.05-.24-.1-.35-.17-.05 0-.05-.08 0-.12a.15.15 0 0 1 .15 0 5.1 5.1 0 0 0 4 .15 7.05 7.05 0 0 0 3.67-2.78.12.12 0 0 1 .14-.06c.05 0 .06.06 0 .11a7.79 7.79 0 0 1-3.82 2.8 5.6 5.6 0 0 1-3.79.07Z"/><path fill="#FFC727" d="m120.06 98.46-.06.06c-.6-.24-1.34-.54-1.52-.57-1.25-.18-1.66.38-2 .22-.34-.16-.19-1.17-.68-1.37-.48-.2-.85 0-1.18-.12-.33-.12-.2-.46-1-.79s-1.4.13-1.85-.06c-.45-.19-.47-.93-1-1.16l-1.38-.58v-.06l1.39.58c.54.23 1.45-.14 1.9.05.45.19.23.8 1 1.11.77.32 1.08.08 1.41.22.34.14.25.48.74.68.5.2 1.7-.38 2-.26.3.12-.09.7.75 1.38.47.26.97.49 1.48.67Z" opacity=".4"/><path fill="#FFC727" d="m120.05 98.46-.05.06c-.77-.32-1.74.6-2.38.33-.46-.2-.27-1.22-.86-1.47s-.9.11-1.25 0c-.34-.11-.14-.74-.69-1-.54-.26-1.73.82-2.3.6-.57-.24.06-1.44-.48-1.66-.54-.22-.7-.06-1.16-.25-.44-.18-.66-.61-1.12-.81l-.4-.16v-.06l.4.16c.46.19 1.08.1 1.53.3.45.19.36.38.9.6.52.21 1.63-.76 2.2-.52.56.24-.21 1.45.44 1.73.66.28 1.15-.2 1.51-.06.36.15.1.52.67.76.57.24 1.73-.39 2.19-.2.69.26.08 1.33.85 1.65Z" opacity=".6"/><path fill="#FFC727" d="M109.38 94.07c.51.11 1.05.1 1.56-.05a1 1 0 0 1 .76.22c.2.2.3.45.46.64.15.2.37.34.62.4.25.03.51.03.77 0 .16 0 .3.07.42.18.09.11.17.23.24.34a.8.8 0 0 0 .57.36c.47.08.93-.28 1.56-.19a.8.8 0 0 1 .64.65c.08.28.13.41.34.47.24.05.48.05.72 0 .31-.03.63.06.88.25.2.18.38.37.56.58a.8.8 0 0 0 .26.16l.37.15.3.12-.2.26-.11.15-.18-.08-.36-.16a.89.89 0 0 0-.32-.08h-.78a1.3 1.3 0 0 1-.86-.34c-.22-.25-.29-.43-.5-.53-.36-.25-.86.12-1.48.07a.8.8 0 0 1-.68-.58c-.08-.28-.11-.5-.28-.65-.2-.13-.44-.2-.67-.19-.28.05-.56.05-.83 0a.57.57 0 0 1-.32-.3.69.69 0 0 0-.24-.27c-.2-.14-.45-.21-.7-.22-.5 0-1.08.17-1.57-.13a1.3 1.3 0 0 1-.41-.67 1 1 0 0 0-.54-.56Zm0 0a1 1 0 0 1 .57.54c.07.25.22.47.42.63.44.26 1 0 1.53.06.28-.01.56.06.8.21.27.15.31.5.53.53.25.04.5.04.75 0 .3-.02.58.06.83.22.2.2.35.46.4.75a.5.5 0 0 0 .45.36c.25 0 .5-.06.72-.14.3-.11.61-.11.9 0 .29.12.48.45.61.57.17.14.38.2.6.19h.8c.15 0 .3.04.46.1l.36.15-.3.07.1.39-.35-.16a1.13 1.13 0 0 1-.4-.27c-.22-.22-.35-.45-.51-.58a.83.83 0 0 0-.61-.18c-.29.01-.57-.02-.84-.11a.76.76 0 0 1-.4-.3 1.42 1.42 0 0 1-.15-.43.49.49 0 0 0-.37-.44c-.43-.1-1 .24-1.54.13a1.06 1.06 0 0 1-.72-.48c-.14-.26-.23-.44-.48-.46-.27.04-.54.04-.8 0a1.2 1.2 0 0 1-.68-.46 6.52 6.52 0 0 0-.43-.65.86.86 0 0 0-.7-.23c-.5.13-1.04.13-1.55 0v-.01Zm25.13-11.27-2.31 2.92-13.62-5.7 2.32-2.9c1.13-1.43 1.7-1.28 2.34-1l2.26 1c.14 0 .12.24 0 .43l-.06.08c-.36.45-.12.55.17.67l5.25 2.2c.3.12.53.22.89-.23l.06-.08c.15-.2.38-.3.52-.24l2.26.95c.6.18.96.6-.08 1.9Z"/><path fill="#fff" d="M124.67 77.43a.2.2 0 0 0-.14-.17.34.34 0 0 0-.28 0h.26v.06l.16.11Z"/><path fill="#fff" d="M124.22 77.38v-.05a.35.35 0 0 1 .2 0 .19.19 0 0 1 .14.16h-.06a.14.14 0 0 0-.1-.11.19.19 0 0 0-.18 0Z"/><path fill="#fff" d="M124.42 77.52h-.08l.01-.03v-.03a.09.09 0 0 0-.1 0v-.05c.05-.02.16.02.17.11Zm-.14.03h-.05.05c.06 0 .02-.02 0 0Zm-1.81-.94a.17.17 0 0 1 .17-.06c.05 0 .05.08 0 .13a.15.15 0 0 1-.16.06.08.08 0 0 1-.03-.02.09.09 0 0 1 0-.04v-.04s0-.02.02-.03Zm.29.12a.15.15 0 0 1 .16-.06l.02.03a.1.1 0 0 1 .01.04.1.1 0 0 1 0 .04l-.03.02a.17.17 0 0 1-.17.06c-.03.03-.03-.08 0-.13Zm.28.17a.16.16 0 0 1 .17 0l.02.02a.08.08 0 0 1 0 .08l-.02.02a.15.15 0 0 1-.16.06c-.04-.13-.05-.19-.01-.19Zm.29.06a.15.15 0 0 1 .16 0l.02.03a.08.08 0 0 1 0 .08l-.02.02a.16.16 0 0 1-.17 0c-.03-.02-.03-.08 0-.13Zm.27.12a.16.16 0 0 1 .18-.05.08.08 0 0 1 .03.07v.04c-.02 0-.02.02-.03.02a.15.15 0 0 1-.16 0 .08.08 0 0 1-.01-.08Zm10.42 4.62-.73-.3.28-.35.72.3-.27.35Zm-.66-.33.65.27.22-.27-.66-.27-.21.27Z"/><path fill="#fff" d="m134.05 81.32-.48-.18-.17.21.46.2.2-.23Zm.1.32-.07-.02.15-.19.07.03-.15.18Zm-9.54-.38h-.12l-.16.21a.08.08 0 0 1-.09 0v-.07l.44-.56a.09.09 0 0 1 .1 0l.15.07c.12.05.13.17 0 .28a.33.33 0 0 1-.32.07Zm0-.15h.11a.16.16 0 0 0 .18-.05v-.13l-.12-.05-.17.23Zm.19.49a.3.3 0 0 1 .07-.2.48.48 0 0 1 .2-.14.34.34 0 0 1 .22 0 .16.16 0 0 1 .1.14c0 .08-.02.15-.07.2a.35.35 0 0 1-.2.14.33.33 0 0 1-.22 0 .17.17 0 0 1-.06-.05.18.18 0 0 1-.04-.09Zm.17-.16a.2.2 0 0 0 0 .12.07.07 0 0 0 .06.07.11.11 0 0 0 .11 0 .2.2 0 0 0 .12-.08l.02-.06c0-.02 0-.04-.02-.06l-.01-.04a.08.08 0 0 0-.04-.03.17.17 0 0 0-.12 0 .25.25 0 0 0-.12.08Zm1.1.44a.4.4 0 0 1 .43-.14c.05.03.09.07.11.11a.1.1 0 0 1-.02.05.1.1 0 0 1-.03.03h-.08a.13.13 0 0 0-.06-.07.25.25 0 0 0-.25.08c-.06.08-.05.17 0 .2a.2.2 0 0 0 .11 0h.06a.1.1 0 0 1-.02.05.1.1 0 0 1-.04.02.39.39 0 0 1-.19 0 .2.2 0 0 1-.07-.06.2.2 0 0 1-.01-.19.2.2 0 0 1 .06-.08Zm.96.42-.15.2a.08.08 0 0 1-.09 0v-.07a.29.29 0 0 1-.16 0 .16.16 0 0 1-.07-.05.15.15 0 0 1-.03-.09.21.21 0 0 1 .07-.19.37.37 0 0 1 .19-.14.28.28 0 0 1 .22 0 .13.13 0 0 1 .09.1.1.1 0 0 1 .09 0v.06l-.16.18Zm-.1 0a.16.16 0 0 0 .05-.11.12.12 0 0 0-.02-.04.12.12 0 0 0-.04-.04.17.17 0 0 0-.12 0 .25.25 0 0 0-.16.2l.02.04.04.03h.12a.32.32 0 0 0 .11-.12v.04Zm.17.17h.09a.1.1 0 0 0 .07.1h.08v-.07l-.07-.06v-.14a.25.25 0 0 1 .14-.08c.04-.01.1-.01.14 0a.2.2 0 0 1 .1.11l.01.04-.01.04h-.08a.18.18 0 0 0-.06-.08h-.11.05l.06.06v.05a.1.1 0 0 1 0 .04.1.1 0 0 1 0 .07.29.29 0 0 1-.15.1.26.26 0 0 1-.15 0 .25.25 0 0 1-.12-.14.1.1 0 0 1 .02-.03Zm-6.67-2.61-.1-.57.72-.22.01.1-.59.18.08.46-.12.05Zm11.87 4.21a.12.12 0 0 1-.13.05c-.05 0-.05-.07 0-.11a.13.13 0 0 1 .15 0v.03l-.01.03Zm-.22.3a.17.17 0 0 1-.15 0 .07.07 0 0 1 0-.12.13.13 0 0 1 .15 0s.04.07 0 .12Zm-.23.29a.15.15 0 0 1-.15.05s-.05-.07 0-.12a.13.13 0 0 1 .14-.05c.04.02.04.07 0 .12Z"/><path fill="#FFC727" d="M108.53 99.67a1.17 1.17 0 0 1-1.26.41c-.38-.16-.44-.6-.13-1a1.18 1.18 0 0 1 1.26-.41c.38.18.44.6.13 1Zm6.6 2.75a1.16 1.16 0 0 1-1.25.42c-.38-.16-.44-.6-.13-1a1.15 1.15 0 0 1 1.25-.42c.39.17.44.61.13 1Z" opacity=".3"/><path fill="#FFC727" d="m114.27 102.35.34-.43.27.4-.61.03Z"/><path fill="#FFC727" d="m113.92 102.2.35-.42.26.39-.61.04Zm-5.91-3.03-.35.43-.26-.4.61-.03Z"/><path fill="#FFC727" d="m108.36 99.32-.35.42-.26-.4.61-.02Zm2.31 1.85-.27-.1.73-.93.26.11-.72.92Zm.47.2-.26-.1.73-.93.26.11-.73.92Z"/><path fill="#FFC727" d="M110.77 102.12c-.2 0-.38-.03-.55-.1a1 1 0 0 1-.6-.68 1.37 1.37 0 0 1 .3-1.16 1.94 1.94 0 0 1 2.13-.68 1 1 0 0 1 .61.67 1.35 1.35 0 0 1-.32 1.16 2.05 2.05 0 0 1-1.58.79Zm.74-2.23a1.61 1.61 0 0 0-1.18.6.88.88 0 0 0-.23.73.5.5 0 0 0 .32.34 1.47 1.47 0 0 0 1.53-.54.84.84 0 0 0 .22-.73.5.5 0 0 0-.3-.34 1 1 0 0 0-.36-.06Z"/><path fill="#DBDBDB" d="m118 101.03-10.63-4.44.04-.06 10.64 4.44-.04.06Z"/><path fill="#FFC727" d="m108.37 97.01-1-.42.04-.06 1.01.42-.05.06Z"/><path fill="#FFC727" d="M108.55 97.04a.27.27 0 0 1-.28.1.13.13 0 0 1-.05-.05.14.14 0 0 1-.01-.06c0-.02 0-.04.02-.06a.13.13 0 0 1 .04-.05.27.27 0 0 1 .28-.1l.04.05a.14.14 0 0 1 0 .12l-.04.05Z"/><path fill="#A6A6A6" d="M107.16 96.85h.1a.14.14 0 0 1 .08 0l.01.03v.13a.21.21 0 0 1-.09.05.1.1 0 0 1-.09 0V97a.18.18 0 0 1-.01-.15Zm.12.05v-.06h-.03l-.06.05v.07c.02 0 .04 0 .06-.02l.03-.04Zm.3.24h-.09l.24-.1-.1.13-.05-.03Zm0-.12-.12.05h.06l.06-.05Z"/><path fill="#A6A6A6" d="M107.78 97.2a.11.11 0 0 1-.13 0s-.05-.06 0-.1a.12.12 0 0 1 .1 0 .1.1 0 0 1 .1 0v.07a.1.1 0 0 1-.07.03Zm0 0v-.05h-.07v.06a.06.06 0 0 0 .04-.03l.03.02Zm0-.12v-.02.02Z"/><path fill="#F7A9A0" d="M111.24 109.5c-3.68.05 8.28-7.41 8.45-11.6.19-4.17-3.89-2.87-7.1-.5-11.17 8.2-19.59 7.8-25.24 15.64-5.66 7.83 23.9-3.55 23.9-3.55Z"/><path fill="#263238" d="M100.17 104.4c-2.4.6-4.71 1.5-6.88 2.69a17.8 17.8 0 0 0-4.99 4.65c-.06.08.05.19.11.1 3-3.7 7.49-5.55 11.77-7.34.09-.03.09-.13-.01-.1Z"/><path fill="#FFC727" d="M58.52 120.01c2.86.77 22.78-4.69 22.78-4.69l11.18 27.06s-34.67 8.08-42.77 5.27c-8.1-2.8-20.7-30.3-24.78-46.29-3.83-15.03 1.28-24.84 11.97-9.27.03 0 20.12 27.51 21.62 27.92Z"/><path fill="#263238" d="M49.28 146.82c-6.79-3.47-15.15-21.66-16.76-25.22-1-2.29-2-4.61-2.9-6.99a310.43 310.43 0 0 1-5.2-14.15.08.08 0 0 0-.03-.01l-.04.01a.07.07 0 0 0-.03.03c.9 3.67 2 7.3 3.21 10.87a40.08 40.08 0 0 1-2.21-4.13c0-.07-.15 0-.12.05a22.7 22.7 0 0 0 2.57 4.78 125.7 125.7 0 0 0 4.32 10.56c.46 1 10.14 23.25 17.72 25.32 2.63.73 11.65.07 13.57-.37.09 0 .1-.12 0-.12-2.59.02-11.68.61-14.1-.63ZM85 139.11c-.34-.94-.68-1.87-1-2.8-.69-1.86-4.87-12.97-6.67-16.39a.09.09 0 0 0-.11-.03.1.1 0 0 0-.04.04c-.01.02-.02.04-.01.06 1 3.8 5.44 14.72 6.17 16.52l1.15 2.76c.39.92.89 1.8 1.28 2.72 0 .1.19 0 .15-.05-.37-.92-.62-1.9-.92-2.83Zm-3.7-23.75c-1.64.08-16.55 3.54-19.84 4.28-.78.26-1.6.38-2.43.34a3.57 3.57 0 0 1-2-1.47C56 117.3 44.4 101.84 43.5 101.12c-.32-.28-.57-.34-.27.15a823.9 823.9 0 0 0 12.88 17.24c1.03 1.2 1.86 2.29 3.48 2.22.7 0 20.8-4.53 21.79-4.99a.22.22 0 0 0 .08-.2.22.22 0 0 0-.14-.18Z"/></svg>