<svg xmlns="http://www.w3.org/2000/svg" viewBox="0 0 50 50"><path d="M8.78,47.41v-8.8H6.17c.07-.17.11-.29.16-.4.86-1.72,1.73-3.44,2.58-5.16a.49.49,0,0,1,.53-.34c.74,0,1.48,0,2.3,0a14.91,14.91,0,0,1,0-1.64A8.53,8.53,0,0,1,12.09,29a5,5,0,0,1,3.4-3.2c1.54-.51,3.08-1,4.64-1.53.34-.11.41-.28.44-.63a2.84,2.84,0,0,0-.8-2.34A5.43,5.43,0,0,1,18.4,17.7c0-.36-.15-.44-.48-.44a2.21,2.21,0,0,1-2.41-1.61,1.35,1.35,0,0,1-.06-.34c0-1.79-.06-3.6.12-5.38a9.41,9.41,0,0,1,6.8-7.72A9.53,9.53,0,0,1,34,8.35a9.11,9.11,0,0,1,.5,3.19c0,1.84,0,3.68,0,5.52a2.18,2.18,0,0,1-2.44,2.4,1.07,1.07,0,0,0-1.23.74,10.38,10.38,0,0,1-1.17,1.71,1.6,1.6,0,0,0-.28.69c0,.35,0,.71,0,1.07a.47.47,0,0,0,.4.56c1.57.51,3.12,1,4.68,1.56a5.11,5.11,0,0,1,3.64,4,8.42,8.42,0,0,1,.11,1.33c0,.52,0,1,0,1.6.81,0,1.58,0,2.34,0A.59.59,0,0,1,41,33c.91,1.78,1.79,3.57,2.69,5.36,0,.06,0,.13.09.24H41.19c0,.14,0,.23,0,.33v8.28a1.92,1.92,0,0,0,0,.22ZM23.52,45.9H39.65V38.59h-14a.58.58,0,0,1-.61-.37c-.42-.9-.88-1.78-1.32-2.67,0-.09-.11-.17-.22-.34ZM19.24,26.09l-3,1a6.45,6.45,0,0,0-1.15.47c-2,1.2-2,2.88-1.76,5.12H36.73V30.94A3.68,3.68,0,0,0,34,27.2l-3-1-.34-.08-1.62,5.5c-1.31-.78-2.55-1.52-3.79-2.28a.5.5,0,0,0-.63,0c-1,.62-2,1.23-3.05,1.83l-.75.44ZM29.6,19.47c-.54,0-1,0-1.42,0a.51.51,0,0,0-.55.31,2,2,0,0,1-1.7,1.14,10.05,10.05,0,0,1-1.82,0A2.18,2.18,0,0,1,22,18.65a2.22,2.22,0,0,1,2.27-2.11c.43,0,.86,0,1.29,0a2.22,2.22,0,0,1,2.07,1.21A.53.53,0,0,0,28,18c.68,0,1.36,0,2.1,0v-6.6a.56.56,0,0,0-.12,0A8.06,8.06,0,0,1,25.2,9.62c-.24-.19-.37-.06-.53.07a7.78,7.78,0,0,1-3.23,1.5c-.52.1-1.05.16-1.58.24a.61.61,0,0,0,0,.13c0,2-.08,4,0,6A5.11,5.11,0,0,0,27,22,5,5,0,0,0,29.6,19.47Zm3.47-8a7.91,7.91,0,0,0-4.24-7.15,7.68,7.68,0,0,0-8.48.48,7.87,7.87,0,0,0-3.47,6.68l1.5-.14V9.9A7.3,7.3,0,0,0,25,7.38,7.34,7.34,0,0,0,31.6,9.91v1.44ZM22,45.91V35.3c-.56,1-1.06,1.92-1.53,2.91a.6.6,0,0,1-.64.39H10.31v7.32Zm2.68-11.74c.45.9.88,1.71,1.26,2.54a.62.62,0,0,0,.68.41H41.42c-.45-.89-.87-1.7-1.25-2.53a.63.63,0,0,0-.67-.42H24.69ZM8.56,37a.67.67,0,0,0,.17.06H19.15a.4.4,0,0,0,.29-.13c.47-.91.91-1.82,1.4-2.8h-.55c-3.1,0-6.2,0-9.3,0a1.26,1.26,0,0,0-1.45.91C9.28,35.74,8.89,36.37,8.56,37ZM22.07,23.22a1.57,1.57,0,0,0,.5,1.66,16,16,0,0,1,1.55,1.53c.27.28.52.6.79.91.91-.91,1.68-1.75,2.53-2.5a1.65,1.65,0,0,0,.45-1.61A6.71,6.71,0,0,1,22.07,23.22Zm6.14,6.16,1.11-3.83c-.25,0-.49,0-.59.05-.86.82-1.69,1.68-2.57,2.55Zm-7.59-3.83,1.12,3.83,2-1.22c-.87-.88-1.71-1.73-2.57-2.56C21.12,25.51,20.88,25.57,20.62,25.55ZM18.34,12.87h-.65a.74.74,0,0,0-.8.77q0,.7,0,1.41a.73.73,0,0,0,.73.75c.23,0,.47,0,.72,0Zm13.27,2.94h.65a.76.76,0,0,0,.8-.78,13.47,13.47,0,0,0,0-1.42.69.69,0,0,0-.64-.72,7.06,7.06,0,0,0-.8,0ZM25,19.46h0c.25,0,.5,0,.75,0a.72.72,0,0,0,0-1.43c-.51,0-1,0-1.54,0a.69.69,0,0,0-.68.73.7.7,0,0,0,.66.7C24.44,19.48,24.71,19.46,25,19.46Zm8-2.27-1.43.13V18C32.63,18.11,33,17.9,33,17.19Z" style="fill:#fff"/><path d="M20.53,40.08V41.5H11.77V40.08Z" style="fill:#fff"/><path d="M20.53,43v1.42H11.77V43Z" style="fill:#fff"/></svg>