<svg width="58" height="66" viewBox="0 0 58 66" fill="none" xmlns="http://www.w3.org/2000/svg">
<path fill-rule="evenodd" clip-rule="evenodd" d="M16.7705 16.0483C14.6074 11.6705 9.30491 9.87501 4.92702 12.0381C4.91771 12.0427 4.90841 12.0473 4.89912 12.0519L24.0104 50.3906L24.0112 50.3922C26.0519 54.5225 31.0546 56.2164 35.1849 54.1757C35.2388 54.1491 35.2951 54.1331 35.3515 54.1268C35.2004 53.5119 34.9805 52.9038 34.6883 52.3125L16.7705 16.0483ZM35.5354 55.1173C30.9282 57.3321 25.3853 55.43 23.115 50.8358L23.1147 50.8352L4.02908 12.5481C0.312879 14.9538 -1.09184 19.8163 0.916765 23.8815L18.8346 60.1457C20.9977 64.5236 26.3002 66.3191 30.6781 64.156C34.1487 62.4412 35.9963 58.7533 35.5354 55.1173Z" fill="#F2F2F2"/>
<path fill-rule="evenodd" clip-rule="evenodd" d="M41.2303 4.92702C43.3934 0.54914 48.6959 -1.24631 53.0738 0.916765C57.4517 3.07984 59.2471 8.38234 57.0841 12.7602L40.0981 50.483C39.4254 51.8445 38.359 52.8151 37.0771 53.4413L41.1121 45.2747C43.2752 40.8968 41.4797 35.5943 37.1018 33.4313C33.3698 31.5873 28.9659 32.62 26.4077 35.6769L41.2303 4.92702Z" fill="#F2F2F2"/>
</svg>
