<svg xmlns="http://www.w3.org/2000/svg" width="84" height="115" fill="none"><path fill="#FFC727" d="M83.55 0H0v5.97h83.54V0Zm-4.13 5.97H4.13v3.75h75.29V5.97Z"/><path fill="#000" d="m79.42 7.43-75.29.82V5.97h75.29v1.46Z" opacity=".2"/><path fill="#FFC727" d="M0 114.03h83.54v-5.97H0v5.97Zm4.13-5.97h75.29v-3.75H4.13v3.75Z"/><path fill="#000" d="m4.13 106.6 75.29-.83v2.29H4.13v-1.47Z" opacity=".2"/><g opacity=".4"><path fill="#EBEBEB" d="M69.87 80.54c3.01 4.19 4.36 23.78 4.36 23.78H9.32s1.34-19.6 4.36-23.78c4.83-6.7 25.24-21.08 25.24-24.37v-1.23c-.16-3.37-20.4-17.67-25.24-24.33-3.01-4.2-4.36-20.9-4.36-20.9h64.91s-1.34 16.7-4.36 20.9c-4.83 6.69-25.24 21.07-25.24 24.37v1.23c.18 3.37 20.44 17.66 25.24 24.33Z"/><path fill="#C7C7C7" d="M74.38 104.45H9.18v-.14c.05-.8 1.37-19.68 4.38-23.85C15.83 77.3 21.5 72.49 27 67.84c5.79-4.91 11.77-9.99 11.77-11.67v-1.23c-.08-1.71-5.76-6.53-11.77-11.63-5.48-4.65-11.15-9.46-13.42-12.62-3-4.18-4.34-20.28-4.4-20.95V9.6h65.2v.14c-.05.69-1.37 16.8-4.38 20.95-2.27 3.16-7.94 7.97-13.43 12.61-5.79 4.92-11.77 10-11.77 11.68v1.23c.08 1.71 5.76 6.52 11.77 11.62 5.48 4.66 11.15 9.46 13.42 12.63 3.01 4.17 4.34 23.05 4.4 23.85v.14Zm-64.89-.27h64.6c-.13-1.8-1.5-19.64-4.3-23.57-2.3-3.11-7.94-7.95-13.42-12.58-6.31-5.37-11.77-9.98-11.85-11.81v-1.24c0-1.8 5.5-6.47 11.87-11.88 5.46-4.63 11.12-9.43 13.37-12.56 2.82-3.91 4.19-19.04 4.3-20.69H9.49c.14 1.65 1.51 16.78 4.32 20.69 2.26 3.13 7.92 7.93 13.4 12.57 6.3 5.38 11.76 10 11.85 11.82v1.24c0 1.8-5.5 6.47-11.87 11.87-5.5 4.62-11.15 9.46-13.4 12.57-2.83 3.93-4.2 21.78-4.3 23.57Z"/></g><path fill="#EBEBEB" d="M66.57 79.15c2.83 3.94 4.1 25.16 4.1 25.16H13.3s1.26-21.22 4.1-25.16c4.54-6.3 23.74-19.83 23.74-22.94v-1.15C40.98 51.89 21.9 38.4 17.4 32.17c-2.84-3.95-4.1-22.56-4.1-22.56h57.37s-1.26 18.6-4.1 22.56C62.04 38.47 42.83 52 42.83 55.1v1.16c.15 3.17 19.23 16.62 23.74 22.89Z" opacity=".8"/><path fill="#FFC727" d="M69.99 104.32H13.56s23.01-27.99 28.21-27.99c5.2 0 28.22 27.99 28.22 27.99Z"/><path fill="#000" d="M69.99 104.32H13.56s23.01-27.99 28.21-27.99c5.2 0 28.22 27.99 28.22 27.99Z" opacity=".1"/><path fill="#000" d="M55.25 99.61a.4.4 0 1 1-.8 0 .4.4 0 0 1 .8 0Zm-28.44-5.03a.4.4 0 0 1-.68.28.4.4 0 1 1 .57-.56.4.4 0 0 1 .11.28ZM56.18 98a.3.3 0 1 1-.6 0 .3.3 0 0 1 .6 0Zm-3.79-10.78a.3.3 0 1 1-.6 0 .3.3 0 0 1 .6 0Zm-31.87 13.59a.3.3 0 1 1-.6.01.3.3 0 0 1 .6-.01ZM37.8 85.17a.3.3 0 1 1-.59 0 .29.29 0 0 1 .3-.3.3.3 0 0 1 .3.3Zm-.59-2.08a.21.21 0 0 1-.2.2.2.2 0 0 1 0-.4.2.2 0 0 1 .2.2ZM41.5 97.5a.21.21 0 1 1-.2-.21.2.2 0 0 1 .2.2Zm-12.76 1.36a.21.21 0 0 1-.12.2.2.2 0 0 1-.28-.27.21.21 0 0 1 .2-.13.2.2 0 0 1 .19.12.2.2 0 0 1 .01.08Zm25.92-8.54a.2.2 0 1 1-.4 0 .2.2 0 0 1 .4 0Zm5.4 10.49a.2.2 0 1 0 0-.4.2.2 0 0 0 0 .4Z" opacity=".1"/><path fill="#FFC727" d="M42.25 74.08c0 1.13 1.24 3.35 1.24 3.35h-3.02s1.24-2.22 1.24-3.35V60.57c0-7.18-.59-8.17-1.15-9.03-1.47-.88-3.54-2.76-5.76-5.01h14.36c-2.23 2.25-4.3 4.14-5.77 5.02-.53.85-1.13 1.87-1.13 9.01l-.01 13.52Z"/><path fill="#000" d="M42.25 74.08c0 1.13 1.24 3.35 1.24 3.35h-3.02s1.24-2.22 1.24-3.35V60.57c0-7.18-.59-8.17-1.15-9.03-1.47-.88-3.54-2.76-5.76-5.01h14.36c-2.23 2.25-4.3 4.14-5.77 5.02-.53.85-1.13 1.87-1.13 9.01l-.01 13.52Z" opacity=".1"/><path fill="#000" d="M40.1 48.28a.3.3 0 1 1 .3.3.3.3 0 0 1-.3-.3Zm-1.38 1.02a.21.21 0 1 1 .42.07.21.21 0 0 1-.42-.06Zm7.66-1.52a.21.21 0 0 1 .2-.21.22.22 0 0 1 .2.2.2.2 0 0 1-.35.15.2.2 0 0 1-.05-.14Z" opacity=".1"/><path fill="#fff" d="M16.06 101.33a75.48 75.48 0 0 1 .83-16.7c.1-.5.18-.95.32-1.46l.11-.38.05-.19c0-.07.06-.16.1-.24.11-.3.25-.58.41-.85a20.1 20.1 0 0 1 1.81-2.4 70.8 70.8 0 0 1 8.06-7.76 75.3 75.3 0 0 1 9.03-6.51 146.9 146.9 0 0 1-7.29 8.36c-2.5 2.7-5.05 5.31-7.38 7.99a17.6 17.6 0 0 0-1.53 1.97 3.67 3.67 0 0 0-.25.45l-.05.14-.09.28c-.13.37-.22.82-.34 1.23-.42 1.73-.79 3.52-1.18 5.3a135.2 135.2 0 0 1-2.61 10.77ZM36.8 47.19a99 99 0 0 1-8.62-6.83 165.9 165.9 0 0 1-8-7.46l-.48-.48-.24-.25-.28-.29a6.1 6.1 0 0 1-.97-1.53c-.41-.9-.75-1.84-1-2.8-.5-1.8-.87-3.63-1.13-5.48a58.68 58.68 0 0 1-.6-11.02c1.18 3.5 2.11 7.03 3.1 10.5.5 1.72.97 3.45 1.55 5.1.26.78.57 1.55.94 2.3.12.27.29.53.48.77l.92.9a182 182 0 0 1 7.48 7.97 98.07 98.07 0 0 1 6.85 8.6Z"/></svg>