<svg xmlns="http://www.w3.org/2000/svg" width="149" height="133" fill="none"><path fill="#F7A9A0" d="M109.14 55.63c-4.42 18-15.14 45.96-24.62 45.81-8.65-.13-27.94-15.47-36.02-20.5-8.08-5.02 10.05-24.81 14.68-21.61 7.18 4.96 17.93 13.82 19.74 13.24 2.27-.72 5.14-6.28 18.06-22.7 5.26-6.7 10.04-1.9 8.16 5.76Z"/><path fill="#F7A9A0" d="M54.5 51.7c-3.81-1.34-8.08-3.2-12.3-3.11-4.24.08-7.76 5.7-7.76 7.26 0 1.56 1.6 11.58 5.83 11.58s1.68-7.66 1.85-8.56c.16-.89.31-2 1.1-1.9.8.1 14.79 6.71 14.79 6.71L54.49 51.7Z"/><path fill="#F7A9A0" d="M54.23 52.29c-.24 0-11.58-4.48-15.82-4.4-4.24.09-7.75 5.7-7.75 7.27 0 1.56 1.6 11.57 5.84 11.57s1.67-7.66 1.83-8.55c.16-.9.33-2 1.12-1.9.8.1 14.78 6.71 14.78 6.71v-10.7Z"/><path fill="#263238" d="M37.93 66.2c.45-.75.7-1.62.7-2.5.1-.9.05-1.81-.14-2.7-.24-.76-.41-1.54-.52-2.33 0-.78.2-1.55.6-2.24.31-.59.94-.39 1.47-.2.79.3 1.56.65 2.3 1.04l2.42 1.23c.84.4 1.66.85 2.45 1.35.06 0 0 .15-.05.13a22.8 22.8 0 0 1-2.14-.95l-2.43-1.12c-.76-.33-1.5-.7-2.26-1.03-.34-.2-.72-.31-1.11-.34-.33.08-.49.87-.56 1.13-.18.76-.12 1.55.15 2.29.22.76.36 1.53.44 2.32.07.74 0 1.48-.19 2.2-.26.65-.6 1.26-1 1.82-.05.06-.18-.02-.13-.1Z"/><path fill="#F7A9A0" d="M67.65 63.4S55.92 52.7 53.48 50.58c-4.9-4.26-25.53-12.69-28.4-12.99-2.89-.3-3.91 5.59 10.09 11.71 7.37 3.23 8.69 7.45 8.55 9.8-.13 2.35-2.37 6.66-6.3 6.6-3.94-.06-6.5-5.86-10.12-6.5-3.63-.63-1.24 6 1.32 9.84a24.17 24.17 0 0 0 10.6 8.27 563.9 563.9 0 0 1 13.95 5.82L67.65 63.4Z"/><path fill="#263238" d="M32.52 62.93c1.48 1.15 3.16 2.64 5.11 2.71 1.95.08 3.33-1.23 4.27-2.85a7.5 7.5 0 0 0 1.03-5.45 9.22 9.22 0 0 0-2.7-4.42 22.37 22.37 0 0 0-5.34-3.55c-.08 0 0-.16.08-.13 1.81.81 7.45 3.12 8.55 8.1a7.66 7.66 0 0 1-1.1 5.55c-.86 1.57-2.14 3.08-4.05 3.24-2.33.19-4.33-1.7-6-3.11-.04-.1.06-.16.15-.09Z"/><path fill="#FFC727" d="M67.65 61.9 50.1 89.16s27.84 15.59 35.71 13.08c7.87-2.51 19.78-25.1 24.72-44.9 4.93-19.82-7.26-12.23-11.99-6.1-4.72 6.11-14.96 20.27-15.52 20.09-.56-.18-15.37-9.41-15.37-9.41Z"/><path fill="#fff" d="M60.04 73.7c1.13.4 2.24.87 3.32 1.39a34.85 34.85 0 0 1 6.5 4.3c.54.44 1.08.95 1.6 1.38l.2.18c3.18 2.99 6.2 6.14 9.05 9.45 2.83 3.26 5.84 6.37 9.01 9.3l-.48.42a123.88 123.88 0 0 1-9.03-9.27c-2.93-3.4-6.04-6.63-9.32-9.7l-.21-.18a33.6 33.6 0 0 0-7.61-5.29 25.67 25.67 0 0 0-3.38-1.42l.35-.56ZM53.3 84.16c1.46 1.56 2.85 3.15 4.31 4.75a122.1 122.1 0 0 0 7.3 7.6l1.74.79c-3-2.81-5.86-5.77-8.55-8.87l-3.92-4.34-.25-.25-.25-.28-.2.3-.18.28v.02Zm0 0a51.96 51.96 0 0 0 5.28-.45 102.35 102.35 0 0 0 13.12-2.8c.67-.15 1.35-.33 2-.52a117.6 117.6 0 0 1 15.03-3.42 37.8 37.8 0 0 1 7.68-.3c2.35.17 4.68.62 6.92 1.34l.2-.44a28.66 28.66 0 0 0-7.09-1.32 39.1 39.1 0 0 0-7.75.37 119.8 119.8 0 0 0-15.06 3.56l-2.14.6-.78.2a85.73 85.73 0 0 1-12.14 2.51c-1.53.2-3.06.34-4.61.4h-.46l-.2.27Zm44.76-32.4a90.5 90.5 0 0 0 8.91 3.14l.28.1a54.42 54.42 0 0 0 3.58.85c0-.22.09-.42.14-.64a28.45 28.45 0 0 1-3.12-.75 96.37 96.37 0 0 1-9.35-3.27c-.16.26-.27.4-.43.6l-.01-.04Zm-15.02 19.5c1.3-.35 2.56-.78 3.8-1.3 2.37-1 4.63-2.23 6.75-3.68 4.2-3 8.2-6.28 11.97-9.8.56-.49 1.1-.94 1.67-1.46l.6-.53c1.23-1.06 2.45-2.1 3.7-3.14a.57.57 0 0 0 0-.26c-1.35 1.07-2.67 2.2-4 3.33-.2.17-.4.35-.6.5-.53.47-1.04.96-1.57 1.38a117 117 0 0 1-12 9.68 37.59 37.59 0 0 1-6.76 3.63c-.95.38-1.93.72-2.92 1-.17.26-.39.48-.63.68l-.01-.03Zm-20.82-.98 1.66.49c5 1.45 10.24 1.88 15.4 1.25 1.24-.16 2.46-.4 3.66-.71l-.59-.34c-1.03.25-2.07.44-3.12.57a39.09 39.09 0 0 1-16.68-1.8l-.33.54Z"/><path fill="#000" d="M69.72 98.65c6.34 2.58 12.57 4.46 15.82 3.64l.28-.07c7.87-2.52 19.77-25.09 24.72-44.9a30.87 30.87 0 0 0 1.13-8.14v-.3c0-.16-.02-.31-.05-.47v-.2c0-.13-.03-.27-.06-.41L69.72 98.65Z" opacity=".1"/><path fill="#263238" d="m59.9 86.46 1.68-2.85c1.14-1.9 7.93-13.31 10.61-16.8.08-.1.22 0 .17.11-1.9 3.99-8.91 15.21-10.1 17.04l-1.8 2.85c-.6.95-1.34 1.8-1.95 2.75-.06.1-.21 0-.16-.08.56-1.02 1.01-2.05 1.55-3.02Z"/><path fill="#FFC727" d="M148.95 133c-.16.18-61.3-19.01-61.93-19.72-.88-1.03 9.23-57.98 16.59-67.36 1.58-2 11.78-5.7 16.97 0 20.16 22.54 28.96 86.42 28.37 87.08Z"/><path fill="#fff" d="M89 99.05c.82.78 1.68 1.53 2.56 2.27a43.68 43.68 0 0 0 9.07 5.9l.49.23c1.2.55 2.42 1.04 3.68 1.45a26.9 26.9 0 0 0 7.49 1.47c2.54.13 5.1-.04 7.6-.5a94.4 94.4 0 0 0 13.98-4.08l.69-.23h.1c2.98-1.04 5.98-2.05 9.02-2.86l.05.2c-3.03.83-6.02 1.9-8.98 2.92-.22.08-.46.15-.69.25a95.44 95.44 0 0 1-14.1 4.2c-2.55.49-5.14.68-7.73.58a28.2 28.2 0 0 1-7.6-1.42 35.73 35.73 0 0 1-4.34-1.75l-.48-.21a43.8 43.8 0 0 1-8.64-5.64 50.6 50.6 0 0 1-2.3-2l.13-.78Zm-1.58 9.62c.74.1 1.48.16 2.23.2 2.59.1 5.17-.09 7.71-.58.95-.18 1.98-.4 2.94-.65l.82-.2c3.75-.94 7.4-2.33 11.04-3.6a88.7 88.7 0 0 1 14.82-4.23c.52-.09 1.03-.17 1.56-.23.26 0 .52-.08.77-.1 4.32-.56 8.7-.46 12.99.3.24 0 .48.07.73.13a3.26 3.26 0 0 0-.1-.39c-.19-.05-.38-.08-.57-.11a43.86 43.86 0 0 0-13.24-.18l-.77.1c-.47.09-.95.15-1.41.25a100.43 100.43 0 0 0-14.85 4.22c-3.8 1.3-7.6 2.65-11.46 3.62a45.36 45.36 0 0 1-3.32.72 32.77 32.77 0 0 1-9.79.29c-.05.15-.08.25-.1.44Zm6.16-32.03a29.15 29.15 0 0 1 10.29 1.59 39.12 39.12 0 0 1 13.05 7.87 88.25 88.25 0 0 1 10.2 11.49c.41.52.81 1.04 1.23 1.55a100.56 100.56 0 0 0 5.75 6.88 49.87 49.87 0 0 0 3.26 3.2 30.09 30.09 0 0 0 6.4 4.42c.82.4 1.64.78 2.5 1.1l-.15-.76a29.46 29.46 0 0 1-8.3-5.3 41.77 41.77 0 0 1-3.02-2.94l-.2-.22c-1.9-2-3.58-4.14-5.28-6.29l-.19-.23-1.46-1.86a88.74 88.74 0 0 0-10.32-11.47 38.47 38.47 0 0 0-13.3-7.88 28.92 28.92 0 0 0-7.6-1.5 31.3 31.3 0 0 0-2.74 0 .6.6 0 0 0-.12.35Zm6.71-23.98c2.2.83 4.42 1.62 6.65 2.27l.28.1 2.04.53c2.53.62 5.12.95 7.72 1 1.3 0 2.6-.08 3.9-.25.64-.09 1.28-.22 1.9-.35.62-.12 1.28-.2 1.9-.38.63-.17 1.5-.37 2.22-.58a5.55 5.55 0 0 0-.3-.53c-.68.2-1.37.36-2.05.52-1.26.26-2.52.45-3.8.68-1.26.17-2.53.25-3.8.24a35.04 35.04 0 0 1-9.44-1.45 75.98 75.98 0 0 1-7.05-2.4c-.02.16-.1.34-.17.6Zm-3.57 11.36c3.08-2.37 5.96-4.97 8.86-7.53.56-.5 1.1-.95 1.67-1.47l.6-.53a87.66 87.66 0 0 1 9.8-7.6c.79-.52 1.58-1.01 2.38-1.48l-.2-.19c-.77.46-1.55.95-2.31 1.46a101.56 101.56 0 0 0-9.94 7.74l-.6.5c-.53.46-1.04.95-1.58 1.37-2.8 2.45-5.6 4.94-8.55 7.2-.03.17-.08.32-.13.53Z"/><path fill="#F7A9A0" d="M125.77 64.13c-3.13 18.35-18.53 52.67-28.57 55.9-11.61 3.74-51.95-9.15-59.88-14.95-3.15-2.3 13.64-22.62 17.56-21.19 16.42 6.05 30.98 9.15 33.1 7.71 3.24-2.2 16.5-21.19 25.1-32.96 10.84-14.8 14.1-2.74 12.69 5.49Z"/><path fill="#F7A9A0" d="M38.38 105.63c-1.8-.64-14.15-9.6-17.8-13.82a54.09 54.09 0 0 1-9.5-14.72C7.42 68.53 5.7 62.3 6.58 59.5c1.02-3.25 1.32-3.8 9.85 10.38 4.84 8.02 9.44 8.93 13.44 8.85a61.43 61.43 0 0 1 28.38 6.34s-12.98 23.01-19.87 20.55Z"/><path fill="#263238" d="m17.93 45.46 20.64 26.62a1.06 1.06 0 0 1-.45 1.8l-14.63 4.7a2.48 2.48 0 0 1-2.5-.85L.33 51.12a1.06 1.06 0 0 1 .45-1.8L15.4 44.6a2.5 2.5 0 0 1 2.52.85Z"/><path fill="#455A64" d="M16.69 44.2 2.06 48.9a1.06 1.06 0 0 0-.45 1.8l20.64 26.62a2.49 2.49 0 0 0 2.52.86l14.63-4.72a1.07 1.07 0 0 0 .44-1.81L19.2 45.03a2.5 2.5 0 0 0-2.51-.83Zm21.6 26.93c.54.7.38 1.45-.36 1.69l-13.09 4.2a2.3 2.3 0 0 1-2.3-.84L3.27 51.45c-1.1-1.43-.57-1.7.17-1.9l2.61-.85a.6.6 0 0 1 .55.26l.06.08a.7.7 0 0 0 .95.24l6.06-1.9c.35-.1.62-.2.27-.64l-.06-.08c-.15-.2-.14-.38 0-.43l2.63-.84c.73-.24 1.47-.24 2.48 1.07l19.29 24.67Z"/><path fill="#263238" d="m11.1 47.45-1.65.52a.15.15 0 0 1-.18-.06.08.08 0 0 1 0-.12l1.66-.52a.15.15 0 0 1 .17.05.08.08 0 0 1 0 .13Z"/><path fill="#fff" d="m19.06 46.36 19.23 24.72c.54.7.39 1.45-.36 1.7l-13.09 4.2a2.3 2.3 0 0 1-2.3-.84L3.27 51.45c-1.1-1.43-.57-1.7.17-1.9l2.61-.85a.6.6 0 0 1 .55.26l.06.08a.7.7 0 0 0 .95.24l6.07-1.9c.34-.1.61-.2.26-.64l-.06-.08c-.15-.2-.14-.38 0-.43l2.63-.84c.79-.34 1.53-.34 2.54.97Z"/><path fill="#FFC727" d="m19.06 46.36 1.43 1.85-15.74 5.06-1.47-1.82c-1.1-1.43-.57-1.7.17-1.9l2.62-.85a.59.59 0 0 1 .54.26l.06.08a.7.7 0 0 0 .95.24l6.07-1.9c.34-.1.61-.2.26-.64l-.06-.08c-.15-.2-.14-.38 0-.43l2.63-.84c.79-.34 1.53-.34 2.54.97Z"/><path fill="#fff" d="M6.13 49.36a.45.45 0 0 0-.32 0 .23.23 0 0 0-.17.16v-.07s.05 0 .08-.05h.35l.06-.04Z"/><path fill="#fff" d="M5.72 49.6h-.07a.17.17 0 0 1 .1-.12.37.37 0 0 1 .31 0 .32.32 0 0 0-.2 0 .14.14 0 0 0-.14.13Z"/><path fill="#fff" d="M6.03 49.55v.05a.23.23 0 0 0-.11 0 .09.09 0 0 0-.06.05H5.8c0-.1.11-.1.23-.1Zm-.03.09v.05a.07.07 0 0 1-.06 0l.06-.05Zm-2.33.57a.08.08 0 0 1-.04-.06.08.08 0 0 1 .04-.06.19.19 0 0 1 .18.06.09.09 0 0 1 0 .13.16.16 0 0 1-.18-.07Zm.32-.11a.08.08 0 0 1 0-.11.17.17 0 0 1 .17.05c.05.06 0 .12 0 .13a.17.17 0 0 1-.17-.06Zm.33-.1a.08.08 0 0 1 0-.12.17.17 0 0 1 .17.06v.12a.16.16 0 0 1-.17-.05Zm.33-.1a.07.07 0 0 1-.04-.06.07.07 0 0 1 .04-.06.19.19 0 0 1 .18.05.08.08 0 0 1 .04.07.08.08 0 0 1-.04.06.17.17 0 0 1-.18-.06Zm.33-.1a.08.08 0 0 1 0-.13.17.17 0 0 1 .17.06.08.08 0 0 1 0 .12.2.2 0 0 1-.17-.05Zm12.37-3.73-.84.28-.27-.36.85-.27.26.35Zm-.83.22.77-.25-.21-.27-.77.25.2.27Z"/><path fill="#fff" d="m16.9 45.85-.54.18.18.23.54-.17-.18-.24Zm.47.11-.07.02-.15-.18.08-.03.14.2Z"/><path fill="#FFC727" d="M15.9 63.04a2.29 2.29 0 0 0 2.24.73l7.7-2.74a1.15 1.15 0 0 0 .46-1.96 2.74 2.74 0 0 0-2.6-.87 4.54 4.54 0 0 0-4.56-1.31 1.83 1.83 0 0 0-1.26 2.43c-.29-.02-.57.01-.84.1a1.13 1.13 0 0 0-.51 1.9l-.24.07a.95.95 0 0 0-.38 1.65Z"/><path fill="#000" d="M15.9 63.04a2.29 2.29 0 0 0 2.24.73l7.7-2.74a1.15 1.15 0 0 0 .46-1.96 2.74 2.74 0 0 0-2.6-.87 4.54 4.54 0 0 0-4.56-1.31 1.83 1.83 0 0 0-1.26 2.43c-.29-.02-.57.01-.84.1a1.13 1.13 0 0 0-.51 1.9l-.24.07a.95.95 0 0 0-.38 1.65Z" opacity=".1"/><path fill="#FFC727" d="M15.44 63.2a2.32 2.32 0 0 0 2.24.74l7.7-2.73a1.15 1.15 0 0 0 .45-1.96 2.7 2.7 0 0 0-2.6-.87 4.53 4.53 0 0 0-4.56-1.32 1.84 1.84 0 0 0-1.26 2.43 2.2 2.2 0 0 0-.84.1 1.13 1.13 0 0 0-.5 1.9l-.25.07a.95.95 0 0 0-.38 1.64Z"/><path fill="#FFC727" d="m23.01 62.59-1.46.52-1.61-1.95 1.46-.52 1.61 1.95Zm.5-.17-2.47.87 2.12.64.35-1.51Z"/><path fill="#000" d="m23.01 62.59-1.46.52-1.61-1.95 1.46-.52 1.61 1.95Zm.5-.17-2.47.87 2.12.64.35-1.51Z" opacity=".2"/><path fill="#F7A9A0" d="M27.89 78.67c4.12.06-9.3-8.31-9.5-13-.23-4.7 4.36-3.23 7.98-.58 12.52 9.21 21.97 8.75 28.32 17.56 6.35 8.8-26.8-3.98-26.8-3.98Z"/><path fill="#263238" d="M40.35 72.94c2.68.69 5.27 1.7 7.7 3.02a20.03 20.03 0 0 1 5.59 5.23c.06.09-.06.21-.13.12-3.38-4.16-8.39-6.24-13.2-8.24a.07.07 0 0 1 0-.12h.04Z"/><path fill="#FFC727" d="M87.1 90.47c-3.2.87-25.55-5.27-25.55-5.27l-12.57 30.42s38.97 9.07 48.02 5.92c9.05-3.14 23.2-34.06 27.81-52.03 4.3-16.87-1.43-27.88-13.47-10.4 0 .02-22.51 30.9-24.23 31.36Z"/><path fill="#fff" d="M80.06 89.7c.23.22.44.47.65.7 3.34 3.9 6.97 7.55 10.85 10.92a43.68 43.68 0 0 0 9.07 5.9l.49.23a34.19 34.19 0 0 0 6.65 2.3c-.08.14-.18.27-.25.43a35.56 35.56 0 0 1-7.19-2.54l-.49-.22a43.8 43.8 0 0 1-8.64-5.64 104.35 104.35 0 0 1-10.96-10.93l-1.28-1.38 1.1.22Zm-20.8 1.04a90.54 90.54 0 0 0 9.3 9.1 41.43 41.43 0 0 0 13.46 7.6 28.6 28.6 0 0 0 7.6 1.43c2.59.1 5.18-.09 7.71-.58.96-.18 1.98-.4 2.94-.65l.82-.2c3.33-.88 6.57-2.03 9.8-3.17.07-.11.12-.22.18-.34-3.45 1.2-6.92 2.41-10.46 3.29a44.45 44.45 0 0 1-3.32.72c-2.5.46-5.05.63-7.6.5a28.32 28.32 0 0 1-7.49-1.46 41.63 41.63 0 0 1-13.23-7.6 91.63 91.63 0 0 1-9.42-9.3l-.3.66Zm38.9-13.85c1.94.25 3.85.7 5.7 1.34a39.12 39.12 0 0 1 14.78 9.51l.25-.62c-.51-.5-1.03-.95-1.58-1.47a38.47 38.47 0 0 0-13.3-7.88 28.4 28.4 0 0 0-5.55-1.3l-.3.42Zm15.26-20.58a30.8 30.8 0 0 0 7.49 0c.64-.09 1.28-.22 1.9-.34.62-.13 1.27-.21 1.9-.39.38-.09.76-.18 1.13-.29 0-.2-.07-.39-.12-.58l-1.14.28c-1.26.26-2.52.45-3.8.68a26.84 26.84 0 0 1-6.92.04c-.12.19-.27.39-.44.6Z"/><path fill="#EBEBEB" d="m68.26 119.48 2.85.5-2.85-.5Zm14.23-29.34c-.86-.14-1.78-.32-2.74-.5l2.74.5Z"/><path fill="#263238" d="M97.48 120.56c7.6-3.9 17-24.3 18.8-28.3 1.17-2.57 2.22-5.17 3.26-7.79a339.3 339.3 0 0 0 5.83-15.89.08.08 0 0 1 .1 0l.02.04a131 131 0 0 1-3.6 12.2c.92-1.5 1.75-3.05 2.49-4.65a.08.08 0 0 1 .12.01l.01.05c-.75 1.9-1.72 3.7-2.9 5.37a134.95 134.95 0 0 1-4.84 11.85c-.51 1.1-11.4 26.1-19.88 28.43-2.96.8-13.1.07-15.21-.41-.09 0-.12-.14 0-.14 2.88-.03 13.08.63 15.8-.77ZM57.4 111.9c.36-1.04.75-2.09 1.14-3.13.82-2.1 5.46-14.54 7.47-18.35a.1.1 0 0 1 .18 0 .1.1 0 0 1 0 .08c-1.14 4.26-6.1 16.52-6.94 18.54-.41 1.03-.84 2.07-1.28 3.1-.44 1.02-1 2.02-1.43 3.05-.05.1-.21.06-.18-.05.4-1.09.65-2.18 1.03-3.23Zm4.14-26.64c1.85.08 18.58 3.96 22.28 4.8.88.29 1.8.42 2.73.37a4 4 0 0 0 2.2-1.63c1.19-1.38 14.25-18.67 15.2-19.53.35-.32.64-.38.3.16A789.4 789.4 0 0 1 89.79 88.8c-1.15 1.3-2.08 2.55-3.89 2.49-.79 0-23.36-5.1-24.47-5.56-.17-.06-.17-.49.1-.47Z"/><path fill="#F7A9A0" d="M105.41 56.3c3.4-.07 10.98-5.65 12.09-10.81.07-.36-1.35-3.43-2.91-7.23a93.87 93.87 0 0 1-2.66-7.36c-.15-.5-14.19 8.3-14.19 8.3a40.3 40.3 0 0 1 4.29 8.91c.1.34.16.69.19 1.04v.17c.3 2-.45 7.05 3.2 6.98Z"/><path fill="#263238" d="M102.22 49.15v.17c.54-.1 1.07-.22 1.6-.39 8.94-2.85 7.93-14.88 7.54-17.87-2.6 1.2-13.65 8.13-13.65 8.13a40.48 40.48 0 0 1 4.3 8.92c.1.34.17.69.21 1.04Z"/><path fill="#F7A9A0" d="M109.08 11.06c3.12 5.03 4.42 21.6 1.47 26.16-4.29 6.6-13.4 9.5-19.54 3.92-5.95-5.46-7.27-27.1-3.8-31.45 5.18-6.42 17.26-6.06 21.87 1.37Z"/><path fill="#263238" d="M95.9 24.83c0-.04.08.05.1.09.05 1.12.3 2.4 1.34 2.68v.07c-1.24-.05-1.57-1.74-1.44-2.84Z"/><path fill="#263238" d="M96.8 23.6c1.78-.28 2.23 3.32.57 3.58-1.65.27-2.07-3.3-.58-3.57Zm-7.02 1.98s-.09.07-.08.1c.17 1.12.18 2.41-.78 2.86v.07c1.2-.28 1.18-2 .86-3.03Z"/><path fill="#263238" d="M88.62 24.55c-1.8.08-1.5 3.69.17 3.6 1.67-.08 1.35-3.68-.17-3.6Zm9.39-2.75a12.2 12.2 0 0 1-1.44-.32 2.37 2.37 0 0 1-1.42-.61.76.76 0 0 1 0-.95 1.9 1.9 0 0 1 1.9-.43c.67.1 1.3.44 1.74.95A.82.82 0 0 1 98 21.8Zm-11 1.13c.47-.16.93-.34 1.38-.55.51-.12.97-.41 1.3-.83a.75.75 0 0 0-.15-.95 1.9 1.9 0 0 0-1.9-.12c-.66.21-1.22.66-1.56 1.26a.82.82 0 0 0 .93 1.2Zm6.66 10.46a4.6 4.6 0 0 0 1.96 1.18c.41.1.84.07 1.24-.08.86-.34.79-1.16.53-1.83-.13-.36-.3-.7-.52-1.02a5.87 5.87 0 0 1-3.21 1.75Z"/><path fill="#FF9BBC" d="M95.63 34.52c.41.1.85.08 1.24-.08.86-.34.79-1.16.53-1.83a2.1 2.1 0 0 0-1.77 1.91Z"/><path fill="#263238" d="M111.78 25.89c-3.05.31-4.91-7.17-4.91-7.17s-4.02-.5-6.83-7.03c0 0-.95 7.3-13.56 8.77a10.84 10.84 0 0 1-.64-6.65 44.9 44.9 0 0 0-1.5 7.37s-5.4-9.5 2.46-15.2c3.13-2.27 8.48-3.25 17.45-1.2 0 0 .39-5.17 1.46-4.76 1.07.42.37 5.33.37 5.33s3.26-1.9 4.03-1.34c.77.56-2.52 2.21-2.52 2.21a7.18 7.18 0 0 1 6.4 6.86c.5 5.9-.7 12.7-2.2 12.8Z"/><path fill="#263238" d="M106.6 6.38a6.55 6.55 0 0 1 7.8 3.8c.6 1.77.77 3.65.53 5.5-.23 1.93-.7 3.82-1.4 5.64 0 .1-.2 0-.16-.08.58-1.68.9-3.45.95-5.23.15-1.7.02-3.41-.39-5.07a6.28 6.28 0 0 0-7.3-4.4.1.1 0 0 1-.04-.02.1.1 0 0 1-.02-.05v-.05a.1.1 0 0 1 .03-.04ZM93.42 2.61c2.2-.03 4.4.23 6.55.77 2.06.42 4.03 1.2 5.83 2.28.08.06 0 .2-.08.15a33.17 33.17 0 0 0-11.73-2.34c-3.7-.17-7.8.82-9.76 4.27 0 .06-.13 0-.1 0 1.66-3.56 5.65-5.04 9.29-5.13Z"/><path fill="#455A64" d="M98.53 30.37a5.3 5.3 0 0 1-4.48-8.16 5.28 5.28 0 1 1 4.48 8.16Zm-4.63-5.23a4.57 4.57 0 1 0 9.15-.1 4.57 4.57 0 0 0-9.15.1Zm-6.4 6.79c-2.14.32-4.23-1.77-4.65-4.65a6.3 6.3 0 0 1 .58-3.8 3.29 3.29 0 0 1 5.57-.81 6.2 6.2 0 0 1 1.63 3.49c.4 2.72-.84 5.2-2.8 5.7l-.33.07Zm-3.43-8.14a5.65 5.65 0 0 0-.5 3.38c.37 2.5 2.1 4.32 3.86 4.07 1.76-.25 2.85-2.5 2.53-4.99a5.64 5.64 0 0 0-1.44-3.1 2.85 2.85 0 0 0-2.41-.95l-.26.05a2.85 2.85 0 0 0-1.78 1.54Z"/><path fill="#455A64" d="m93.46 25.73.37-.6c-.89-.55-2.85-1.18-3.93.37l.58.4c.96-1.39 2.9-.22 2.98-.17Zm23.47-2.03.57-.43c-.2-.26-1.9-2.6-3.51-2.63-1.6-.02-10.73 2.22-11.12 2.31l.17.69c2.64-.65 9.78-2.31 10.93-2.3 1.15.02 2.49 1.7 2.96 2.35Z"/><path fill="#F7A9A0" d="M108.55 25.19s2.34-6.02 4.98-5.3c2.64.7 1.76 8.81-.73 10.5a2.85 2.85 0 0 1-4.1-.6l-.15-4.6Z"/><path fill="#263238" d="M113.22 22.2s.06 0 0 .07c-1.73 1.24-2.31 3.27-2.57 5.28a1.57 1.57 0 0 1 1.54-1.1 1.58 1.58 0 0 1 .7.17.06.06 0 0 1 0 .08.06.06 0 0 1-.04.02 1.78 1.78 0 0 0-1.74 1.06 8.97 8.97 0 0 0-.53 1.74c-.05.19-.39.18-.37 0v-.05c-.62-2.5.48-6.39 3-7.27Zm-12.19 26.79h.05c-.42 3.2-1.19 10.63 3.7 10.45 1.97-.05 3.85-1.2 5.41-2.34a27.51 27.51 0 0 0 4.44-4.06 42.04 42.04 0 0 0 4.23-5.3c.05-.1.17 0 .1.09-1.28 1.9-2.39 3.86-3.85 5.62a24.71 24.71 0 0 1-4.75 4.5c-1.69 1.17-3.68 2.3-5.75 2.25a3.9 3.9 0 0 1-3.8-3.31c-.5-2.62-.42-5.32.22-7.9Z"/></svg>