<svg xmlns="http://www.w3.org/2000/svg" viewBox="0 0 50 50"><path d="M17.88,44.6a5.8,5.8,0,0,1-3.4-2.1c-.41-.45-.86-.87-1.3-1.3Q10,38.05,6.9,34.92a4.42,4.42,0,0,1,0-6.56c.88-.89,1.77-1.77,2.63-2.63l4.7,4.7-1.38,1.35c-.36.35-.71.7-1.06,1.06a.61.61,0,0,0-.06.86c.71.73,1.44,1.43,2.19,2.18.1-.28.18-.53.28-.78a4.32,4.32,0,0,1,3.45-2.91l3.83-.7a2.84,2.84,0,0,0,.42-.1c-.14-.18-.21-.35-.34-.43A6.44,6.44,0,0,1,18.8,27.1a.55.55,0,0,0-.27-.31,2.53,2.53,0,0,1-1.79-2.56c0-1.42,0-2.83,0-4.25a8.2,8.2,0,0,1,16.37-.84c.12,1.6.06,3.21.07,4.82,0,1.12,0,2.24,0,3.37a1.89,1.89,0,0,1-2.08,2.09,1.8,1.8,0,0,0-1.74.71,6.13,6.13,0,0,1-1,.85,2.09,2.09,0,0,0-.3.42l2.19.41c.79.15,1.59.26,2.36.45A4.15,4.15,0,0,1,35.67,35c.54,1.46,1,2.94,1.49,4.42a.71.71,0,0,1,0,.15H23.76l0,.07,1,.83c-1.32,1.18-2.52,2.29-3.75,3.35a4.46,4.46,0,0,1-2,.81ZM25,35.38c-.85-.85-1.68-1.67-2.5-2.51a.56.56,0,0,0-.57-.18c-1.33.26-2.66.49-4,.73a3.15,3.15,0,0,0-2.54,2.17c-.12.35-.23.7-.36,1a.38.38,0,0,0,.11.47c.38.35.74.74,1.11,1.1a.65.65,0,0,0,1,0c.62-.55,1.23-1.11,1.84-1.67l.84-.74c.74.74,1.47,1.46,2.18,2.19a.78.78,0,0,0,.63.27H35.46c-.32-1-.61-1.87-.93-2.76a3.07,3.07,0,0,0-2.48-2.08c-1.17-.22-2.35-.37-3.5-.65a1.3,1.3,0,0,0-1.48.47C26.41,34,25.68,34.66,25,35.38Zm0-17a8.84,8.84,0,0,0,2.83,2.21,8,8,0,0,0,3.5.61v.71l.62.23c0-.83,0-1.63,0-2.43a6.91,6.91,0,0,0-8.57-6.52c-4.61,1.25-5.71,5.05-5.27,8.94l.6-.24v-.71A7.27,7.27,0,0,0,25,18.39Zm0,9.81.09,0h3.06c.41,0,1,.13,1.18-.08a4.11,4.11,0,0,0,.59-1.38.36.36,0,0,0,0-.11c0-1.31.07-2.62.08-3.94,0-.07-.19-.21-.31-.22a8.24,8.24,0,0,1-4.53-2,1.53,1.53,0,0,0-.22-.16,8.13,8.13,0,0,1-4.75,2.18c-.22,0-.31.1-.3.33,0,1,0,2,0,3a5,5,0,0,0,6,4.86,4.76,4.76,0,0,0,2.33-1.16H25ZM8,29.09A3.17,3.17,0,0,0,7.74,34c1.26,1.27,2.53,2.53,3.79,3.79,1.55,1.54,3.08,3.09,4.63,4.62a3.16,3.16,0,0,0,4.75-.25L18,39.24a1.88,1.88,0,0,1-2.65-.08c-1.51-1.49-3-3-4.49-4.5a2.21,2.21,0,0,1-.51-.91A1.82,1.82,0,0,1,10.83,32ZM22.74,40.5l-2.9-2.9-.71.64L22,41.15ZM9,28.13,11.8,31l.59-.61L9.53,27.51Zm16,5.34,1.77-1.77a6.42,6.42,0,0,1-3.53,0Zm5.82-5.36c1,.2,1.26-.28,1-1.53-.24.13-.57.19-.67.38A5.5,5.5,0,0,0,30.8,28.11ZM18.63,23.29A1.22,1.22,0,0,0,18,24.5a1.11,1.11,0,0,0,.61.92Zm12.68.06v2.06A1.2,1.2,0,0,0,31.31,23.35Z" style="fill:#fff"/><path d="M34.85,18.05l.64-3.76-.34,0c-.44,0-.89,0-1.34,0a1.86,1.86,0,0,1-1.89-1.86q0-2.57,0-5.13A1.86,1.86,0,0,1,33.85,5.4h8.76a1.86,1.86,0,0,1,1.94,1.89c0,1.69,0,3.37,0,5.05a1.88,1.88,0,0,1-1.85,1.91.59.59,0,0,1-.23,0,3.9,3.9,0,0,0-2.87.83c-1.44,1-2.93,1.85-4.4,2.77Zm1.72-2.56c.87-.54,1.7-1,2.43-1.53a4.63,4.63,0,0,1,3.45-1c.63.07.85-.19.85-.83V7.59c0-.74-.18-.92-.93-.92H33.84a.6.6,0,0,0-.65.65q0,2.5,0,5a.6.6,0,0,0,.64.65H37Z" style="fill:#fff"/><path d="M30.19,8.12l-.36,1.15A16.34,16.34,0,0,0,14.88,12a16,16,0,0,0-5.87,9l1.72-1,.64,1.08-3.7,2.22-2.22-3.7L6.53,19l1.18,2A17.68,17.68,0,0,1,30.19,8.12Z" style="fill:#fff"/><path d="M40.54,19.66l-1.13,1.87-1.08-.65,2.22-3.7,3.7,2.22-.65,1.08L41.78,19.4a17.93,17.93,0,0,1-3,16.76l-.51-.4-.47-.4A16.68,16.68,0,0,0,40.54,19.66Z" style="fill:#fff"/><path d="M42,8V9.16H34.47V8Z" style="fill:#fff"/><path d="M39.48,10.48V11.7h-5V10.48Z" style="fill:#fff"/><path d="M40.79,11.7V10.48H42V11.7Z" style="fill:#fff"/></svg>