<svg xmlns="http://www.w3.org/2000/svg" width="172" height="91" fill="none"><path fill="#FFC727" d="M7.26 69.17A21.21 21.21 0 0 0 26.9 90.3v.06h120.08a24.92 24.92 0 0 0 2.33-49.74A41.98 41.98 0 0 0 67.92 27.5a24.92 24.92 0 0 0-36.01 20.74A21.2 21.2 0 0 0 7.26 69.17Z"/><path fill="#000" d="M7.26 69.17A21.21 21.21 0 0 0 26.9 90.3v.06h120.08a24.92 24.92 0 0 0 2.33-49.74A41.98 41.98 0 0 0 67.92 27.5a24.92 24.92 0 0 0-36.01 20.74A21.2 21.2 0 0 0 7.26 69.17Z" opacity=".1"/><path fill="#FFC727" d="M0 69.17A21.21 21.21 0 0 0 19.62 90.3v.06H139.7a24.92 24.92 0 0 0 2.33-49.74A42 42 0 0 0 60.66 27.5a24.92 24.92 0 0 0-36.01 20.74A21.2 21.2 0 0 0 0 69.17Z"/><path fill="#fff" d="M96.77.14v55.9H75.12V8.23A41.75 41.75 0 0 1 96.77.14Z"/><path fill="#fff" d="M107.89 56.04H64L85.94 83.3l21.95-27.26Z"/></svg>