<svg xmlns="http://www.w3.org/2000/svg" viewBox="0 0 45.28 33.26"><path d="M2.32,36.2c.36-1.78,1.94-2.23,3.32-3A5.9,5.9,0,0,1,3.3,31.5a.86.86,0,0,1-.19-.89,10.28,10.28,0,0,0,.54-3.3,24.23,24.23,0,0,1,.28-3.2,5.51,5.51,0,0,1,8.37-3.63A5.74,5.74,0,0,1,15,25c.13,1.35.16,2.71.29,4.06a6.13,6.13,0,0,0,.35,1.45,1,1,0,0,1-.18,1,5.84,5.84,0,0,1-2.27,1.7.77.77,0,0,0,1,.15c1.2-.52,2.44-.95,3.67-1.4.41-.16.87-.23,1-.77,0-.14.2-.25.31-.36l.73-.78a3.86,3.86,0,0,0,0-2.64,7.94,7.94,0,0,1-2.6-6,12.9,12.9,0,0,0-.43-2.76,9,9,0,0,1,.36-6.14A5.89,5.89,0,0,1,22.47,9c3.4-.11,6.81,0,10.22,0a.67.67,0,0,1,.75.74c0,2.47,0,4.95,0,7.43A5.27,5.27,0,0,1,33.06,19a6.31,6.31,0,0,0-.33,2.47,7.19,7.19,0,0,1-.9,3.78,16.24,16.24,0,0,1-1.65,2.16.85.85,0,0,0-.28.69v.09A2.69,2.69,0,0,0,31,31s.1.08.11.13c.15.65.72.69,1.2.87.79.31,1.59.62,2.4.87a2.63,2.63,0,0,0,.93,0,2.67,2.67,0,0,0,.6-.16c.86-.25.87-.25.82-1.14a.66.66,0,0,0-.19-.4A5.15,5.15,0,0,1,34.94,27a3.42,3.42,0,0,0-.37-1.6,4.1,4.1,0,0,1,3.37-5.68c2.24-.11,4.5-.06,6.76-.07.46,0,.76.23.76.63,0,1.35,0,2.71-.05,4.06a2.88,2.88,0,0,1-.33,1.14A2.89,2.89,0,0,0,44.77,27a4.93,4.93,0,0,1-1.93,4.3c-.38.29-.17.71-.16,1.07,0,.12.29.29.47.34.79.25,1.59.46,2.37.7a2.79,2.79,0,0,1,2.08,2.8c0,1.75,0,3.5,0,5.26,0,.48-.27.78-.66.78s-.65-.3-.66-.78c0-.11,0-.21,0-.31V36.42a1.62,1.62,0,0,0-1.41-1.88c-.81-.23-1.61-.47-2.42-.68A1.13,1.13,0,0,0,42,34s-.07.06-.1.09c-.45.47-1.07.86-1.31,1.41a5.11,5.11,0,0,0-.06,1.88v3.89a1.91,1.91,0,0,1-.05.48.64.64,0,0,1-1.26-.11,8.62,8.62,0,0,1,0-.88c0-1.58,0-3.16,0-4.73a1.06,1.06,0,0,0-.38-.93c-.29-.24-.54-.53-.81-.8-.53-.54-.53-.54-1.26-.24.14.21.29.4.42.6a3.52,3.52,0,0,1,.52,1.89c0,1.62,0,3.24,0,4.86a1.11,1.11,0,0,1-.38.73.65.65,0,0,1-.63-.05,1.11,1.11,0,0,1-.29-.72c0-1.55,0-3.1,0-4.64a2.23,2.23,0,0,0-1.66-2.37l-4.07-1.49c-.33.48-.65,1-1,1.45s-.52.79-.79,1.17a1.37,1.37,0,0,1-2.2.22c-.32-.31-.61-.64-1-1.06,0,.29,0,.44,0,.6v6c0,.71-.23,1-.69,1s-.64-.33-.64-1V34.63l-.94.94a1.4,1.4,0,0,1-2.4-.25l-1.66-2.49-3.52,1.28c-1.93.7-2.22,1.12-2.22,3.18v3.89a3.23,3.23,0,0,1,0,.44.61.61,0,0,1-.63.57.61.61,0,0,1-.64-.5,2.52,2.52,0,0,1,0-.48c0-1.38,0-2.77,0-4.15a4.34,4.34,0,0,1,.5-2.44c-.61-.47-.61-.47-1.14.05A2.83,2.83,0,0,1,8,35.32c-.4-.24-.71-.61-1.09-.89a.54.54,0,0,0-.44-.07c-.63.29-1.24.61-1.86.92a1.54,1.54,0,0,0-.92,1.53v4.6c0,.53-.36.89-.78.76a2,2,0,0,1-.55-.4Zm29.8-25.87a1.3,1.3,0,0,0-.19,0c-3.1,0-6.21,0-9.32,0A4.9,4.9,0,0,0,18,14.14a8.28,8.28,0,0,0,0,3.64,12.79,12.79,0,0,1,.6,4,3.15,3.15,0,0,0,0,.44,6.42,6.42,0,0,0,12.81-.71,10.33,10.33,0,0,1,.37-2.91,11.61,11.61,0,0,0,.33-3.13C32.15,13.74,32.12,12.05,32.12,10.33ZM44.16,21a.85.85,0,0,0-.18-.05c-1.84,0-3.68,0-5.52,0A2.86,2.86,0,0,0,36,25.25a3.15,3.15,0,0,1,.29,1.17,15.88,15.88,0,0,0,.22,2A3.59,3.59,0,0,0,39.77,31a3.52,3.52,0,0,0,3.48-2.55,13.73,13.73,0,0,0,.2-2.14,1.73,1.73,0,0,1,.13-.73C44.46,24.09,44.05,22.5,44.16,21ZM5,26.67a.78.78,0,0,1,.77.91,1.57,1.57,0,0,0,0,.3,3.58,3.58,0,0,0,3.38,3.06,3.68,3.68,0,0,0,3.56-2.45,1.16,1.16,0,0,0-.16-1.11,5.33,5.33,0,0,0-3.94-2.15.74.74,0,0,0-.77.28,3,3,0,0,1-.72.71.88.88,0,0,1-.72.09.79.79,0,0,1-.34-.59c0-.42,1.41-1.85,1.85-1.85a7.09,7.09,0,0,1,3.67.93,23.6,23.6,0,0,1,2.07,1.59,6.4,6.4,0,0,0-.72-3.3,4.14,4.14,0,0,0-7.25,0A6.85,6.85,0,0,0,5,26.67Zm23.55,1.89a7.83,7.83,0,0,1-7.19,0c0,.4,0,.73,0,1.07a.51.51,0,0,0,.21.3q1.57,1.09,3.18,2.16a.49.49,0,0,0,.41,0c1-.7,2.09-1.42,3.13-2.14a.6.6,0,0,0,.24-.38A8,8,0,0,0,28.57,28.56Zm-2.48,4.51,1.66,1.68,1.6-2.38c.46-.7.46-.7-.15-1.3,0,0-.05,0-.11-.05Zm-2.19,0L20.76,31a1.77,1.77,0,0,1-.31.39c-.3.23-.27.44-.06.73.43.58.81,1.19,1.21,1.79l.62.91ZM8,32.11c-.17.85-.26,1.66.72,2.11a1.65,1.65,0,0,0,1.63-.15c.89-.52.51-1.27.49-2a10.37,10.37,0,0,1-1.43.15A13.78,13.78,0,0,1,8,32.11Zm30.43.07c0,.15,0,.47.09.63.4.5.88.94,1.4,1.48.4-.44.73-.85,1.12-1.2a.8.8,0,0,0,.31-.91Zm-31.88.1A1.07,1.07,0,0,0,6.13,31a16.25,16.25,0,0,1-1.32-1.58c-.08.33-.2.73-.27,1.13a.64.64,0,0,0,.13.48C5.25,31.47,5.85,31.85,6.5,32.28Zm5.69-.12A4.68,4.68,0,0,0,14.09,31a.46.46,0,0,0,.15-.33c-.09-.44-.22-.87-.32-1.24a13.52,13.52,0,0,1-1.35,1.59A1,1,0,0,0,12.19,32.16Z" transform="translate(-2.32 -8.94)" style="fill:#fff"/><path d="M43.44,39.38c0-.66,0-1.32,0-2a.66.66,0,0,1,.67-.75c.38,0,.64.28.65.74q0,2,0,4a.69.69,0,0,1-.68.77c-.39,0-.64-.31-.64-.79C43.44,40.73,43.44,40.05,43.44,39.38Z" transform="translate(-2.32 -8.94)" style="fill:#fff"/><path d="M6.48,39.81c0,.54,0,1.09,0,1.63a.67.67,0,1,1-1.32,0q0-1.59,0-3.18a.65.65,0,0,1,.68-.74c.39,0,.63.28.64.74S6.48,39.29,6.48,39.81Z" transform="translate(-2.32 -8.94)" style="fill:#fff"/><path d="M32.12,40.13c0-.46,0-.91,0-1.37a.66.66,0,0,1,.64-.71.65.65,0,0,1,.67.67q0,1.39,0,2.79a.66.66,0,1,1-1.31,0C32.11,41,32.12,40.57,32.12,40.13Z" transform="translate(-2.32 -8.94)" style="fill:#fff"/><path d="M17.82,40.12c0,.46,0,.92,0,1.37a.66.66,0,1,1-1.31,0c0-.92,0-1.85,0-2.78a.66.66,0,1,1,1.31,0C17.84,39.21,17.82,39.67,17.82,40.12Z" transform="translate(-2.32 -8.94)" style="fill:#fff"/><path d="M20.67,16.58V18c0,.55-.23.83-.65.83s-.66-.26-.67-.8,0-1,0-1.5a1.27,1.27,0,0,1,1.05-1.2,17,17,0,0,1,7.52.26,5.77,5.77,0,0,1,2.4,1.37.65.65,0,0,1,.09.94.62.62,0,0,1-.91.07,7.12,7.12,0,0,0-4.45-1.55A19.19,19.19,0,0,0,20.67,16.58Z" transform="translate(-2.32 -8.94)" style="fill:#fff"/><path d="M38.48,23.18a10.9,10.9,0,0,1,3.62.68.69.69,0,0,1,.52.72.62.62,0,0,1-.87.54,12.54,12.54,0,0,0-3.89-.65c-.54,0-.8-.27-.79-.68s.32-.65.89-.64Z" transform="translate(-2.32 -8.94)" style="fill:#fff"/></svg>