<svg xmlns="http://www.w3.org/2000/svg" viewBox="0 0 50 50"><path d="M13.13,17.07c0-1.18,0-2.37,0-3.55a1.25,1.25,0,1,0-2.49,0c0,2.35,0,4.71,0,7.06a1.25,1.25,0,1,0,2.49,0C13.14,19.39,13.13,18.23,13.13,17.07ZM36.87,17v3.47a1.67,1.67,0,0,0,.05.5,1.25,1.25,0,0,0,2.44-.41q0-3.52,0-7a1.26,1.26,0,0,0-1.27-1.37,1.23,1.23,0,0,0-1.23,1.36C36.86,14.7,36.87,15.86,36.87,17Z" style="fill:#fff"/><path d="M25.86,5l1.06.22a8.62,8.62,0,0,1,6.76,8.22c.06,3.69.06,7.37,0,11.06a8.68,8.68,0,0,1-17.35.19q-.12-5.7,0-11.4a8.64,8.64,0,0,1,7.56-8.22A1.17,1.17,0,0,0,24.14,5ZM31.2,19h0c0-1.88.06-3.77,0-5.66a6.19,6.19,0,0,0-12.36.32c0,1.42,0,2.84,0,4.26,0,2.29-.05,4.58,0,6.87a6.19,6.19,0,0,0,12.36-.55C31.21,22.47,31.2,20.73,31.2,19Z" style="fill:#fff"/><path d="M15.31,45l-.2-.11a1.26,1.26,0,0,1-.7-1.42,1.23,1.23,0,0,1,1.25-1h8.07V38.82c-.44-.07-.89-.13-1.33-.21A14.58,14.58,0,0,1,10.68,26.89a1.24,1.24,0,0,1,.94-1.51,1.27,1.27,0,0,1,1.51,1,16.56,16.56,0,0,0,.71,2.43,11.66,11.66,0,0,0,9.62,7.42,12,12,0,0,0,13.41-9.8,1.25,1.25,0,0,1,2.49.14,4,4,0,0,1-.17,1A14.47,14.47,0,0,1,27.41,38.65c-.37.08-.74.11-1.14.16V42.5h8.06a1.25,1.25,0,0,1,1.27,1,1.27,1.27,0,0,1-.75,1.4.83.83,0,0,0-.16.09Z" style="fill:#fff"/><path d="M5,14.84a1.33,1.33,0,0,1,1.2-.94,1.22,1.22,0,0,1,1.29,1.18q0,1.95,0,3.9a1.23,1.23,0,0,1-1,1.16,1.25,1.25,0,0,1-1.38-.65L5,19.22Z" style="fill:#fff"/><path d="M45,19.22a1.34,1.34,0,0,1-1.21.94A1.21,1.21,0,0,1,42.51,19q0-1.95,0-3.9a1.23,1.23,0,0,1,.94-1.16,1.26,1.26,0,0,1,1.39.62c.06.1.11.2.16.3Z" style="fill:#fff"/><path d="M13.13,17.07c0,1.16,0,2.32,0,3.47a1.25,1.25,0,1,1-2.49,0c0-2.35,0-4.71,0-7.06a1.25,1.25,0,1,1,2.49,0C13.14,14.7,13.13,15.89,13.13,17.07Z" style="fill:#fff"/><path d="M36.87,17c0-1.16,0-2.32,0-3.48a1.23,1.23,0,0,1,1.23-1.36,1.26,1.26,0,0,1,1.27,1.37q0,3.51,0,7a1.25,1.25,0,0,1-2.44.41,1.67,1.67,0,0,1-.05-.5Z" style="fill:#fff"/></svg>