<svg xmlns="http://www.w3.org/2000/svg" width="191" height="120" fill="none"><path fill="#EBEBEB" d="m13.68 81.55-3.86.08-1.97.03c-.65 0-1.31 0-1.97.02h-.13v-.13l-.01-3.3v-.15h.15l3.9.02c1.3 0 2.6.03 3.9.04h.09v.08c0 .56-.03 1.12-.04 1.67l-.06 1.64Zm0 0-.03-1.67c0-.55-.03-1.1-.04-1.63l.08.08c-1.3.01-2.6.05-3.9.05l-3.9.01.14-.14-.02 3.3-.12-.14c.64 0 1.28 0 1.92.02l1.94.04 3.93.08ZM9.33 85.7l-3.87.09-1.97.03c-.65 0-1.31 0-1.97.02H1.4v-3.58h.15l3.9.02c1.3 0 2.6.03 3.9.04h.08v.1c0 .55-.02 1.1-.04 1.66l-.05 1.63Zm0 0-.04-1.66c0-.55-.04-1.1-.04-1.63l.08.08c-1.3.01-2.6.05-3.9.05l-3.9.01.14-.14-.02 3.3-.13-.13h1.93l1.94.03 3.94.1Zm133.92-42.6-3.88.1-1.96.02c-.65 0-1.31 0-1.97.02h-.13v-.13l-.02-3.3v-.15h.15l3.9.02c1.3 0 2.6.04 3.9.05h.09v.08c0 .56-.03 1.12-.04 1.67l-.04 1.63Zm0 0-.04-1.67c0-.55-.04-1.1-.05-1.63l.09.08c-1.3 0-2.6.04-3.9.05l-3.91.02.15-.15-.02 3.3-.13-.14c.64 0 1.28 0 1.93.02l1.94.03 3.94.1Zm-4.35 4.17-3.88.08-1.96.03c-.66.02-1.32 0-1.98.02h-.13v-3.58h.15l3.9.02c1.3 0 2.6.03 3.9.05h.06v.08c0 .56-.03 1.11-.04 1.66l-.03 1.64Zm0 0-.05-1.67c0-.55-.03-1.09-.04-1.63l.08.08c-1.3.01-2.6.05-3.9.05l-3.9.02.14-.15v3.3l-.13-.13 1.93.01 1.94.04 3.92.08Zm-4.35-4.17-3.87.1-1.96.02c-.66 0-1.32 0-1.98.02h-.13v-.13l-.01-3.3v-.15h.14l3.9.02c1.31 0 2.61.04 3.91.05h.08v.08c0 .56-.02 1.12-.03 1.67l-.05 1.63Zm0 0-.04-1.66-.04-1.63.08.08c-1.3 0-2.6.05-3.9.05l-3.9.02.14-.15-.02 3.3-.13-.13 1.93.01 1.94.04 3.94.08Zm53.98 42.6-3.86.09-1.97.03c-.66 0-1.32 0-1.97.02h-.13v-.13l-.02-3.3v-.15h.15l3.9.02c1.3 0 2.6.03 3.9.05h.09v.08c0 .56-.03 1.12-.05 1.67l-.04 1.63Zm0 0-.04-1.66c0-.55-.03-1.1-.04-1.63l.08.08c-1.3.01-2.6.05-3.9.05l-3.9.01.14-.14v3.3l-.13-.13h1.93l1.94.03 3.92.1Zm-4.35-80.68-3.87.07-1.97.04-1.97.01h-.13v-.13l-.01-3.3v-.15h.15l3.9.02c1.3 0 2.6.03 3.9.05h.08v.08c0 .56-.02 1.11-.03 1.66l-.05 1.65Zm0 0-.04-1.67-.04-1.63.08.08c-1.3 0-2.6.04-3.9.04l-3.9.02.14-.14v3.3l-.13-.14c.64 0 1.28 0 1.93.02l1.94.03 3.92.09Zm4.35 4.16-3.87.08-1.96.03c-.66 0-1.32 0-1.98.02h-.13v-.13l-.02-3.3v-.15h.15l3.91.03c1.3 0 2.6.03 3.9.04h.09v.08c0 .56-.03 1.12-.05 1.67l-.04 1.63Zm0 0-.04-1.67c0-.55-.03-1.1-.04-1.63l.08.08c-1.3 0-2.6.04-3.9.04l-3.9.02.14-.14v3.3l-.13-.14c.64 0 1.29 0 1.93.02l1.94.03 3.92.09ZM13.68 5.02l-3.86.07-1.97.04c-.65 0-1.31 0-1.97.02h-.13V5l-.02-3.3v-.14h.15l3.9.01c1.3 0 2.6.04 3.9.05h.09v.08c0 .56-.03 1.11-.04 1.67l-.05 1.64Zm0 0-.03-1.67c0-.55-.03-1.1-.04-1.63l.08.08c-1.3 0-2.6.04-3.9.04l-3.9.02.14-.14-.02 3.3-.13-.15c.64 0 1.28 0 1.92.02l1.94.03 3.94.1Z"/><path fill="#DBDBDB" d="M22.02 13.2H4.6v11.37h17.42V13.2Z"/><path fill="#EBEBEB" d="M22.02 25.24H4.6v11.38h17.42V25.24Z"/><path fill="#fff" d="M8.02 27.43h-1.7v1.7h1.7v-1.7Z"/><path fill="#C7C7C7" d="M10.06 27.43h-1.7v1.7h1.7v-1.7Z"/><path fill="#fff" d="M12.11 27.43h-1.7v1.7h1.7v-1.7Zm2.05 0h-1.7v1.7h1.7v-1.7Zm2.04 0h-1.69v1.7h1.7v-1.7Zm2.05 0h-1.7v1.7h1.7v-1.7Zm2.05 0h-1.7v1.7h1.7v-1.7ZM8.02 29.49h-1.7v1.7h1.7v-1.7Zm2.04 0h-1.7v1.7h1.7v-1.7Zm2.05 0h-1.7v1.7h1.7v-1.7Zm2.05 0h-1.7v1.7h1.7v-1.7Z"/><path fill="#C7C7C7" d="M16.2 29.49h-1.69v1.7h1.7v-1.7Z"/><path fill="#fff" d="M18.25 29.49h-1.7v1.7h1.7v-1.7Zm2.05 0h-1.7v1.7h1.7v-1.7ZM8.02 31.55h-1.7v1.7h1.7v-1.7Zm2.04 0h-1.7v1.7h1.7v-1.7Zm2.05 0h-1.7v1.7h1.7v-1.7Zm2.05 0h-1.7v1.7h1.7v-1.7Zm2.04 0h-1.69v1.7h1.7v-1.7Zm2.05 0h-1.7v1.7h1.7v-1.7Zm2.05 0h-1.7v1.7h1.7v-1.7ZM8.02 33.62h-1.7v1.69h1.7v-1.7Zm2.04 0h-1.7v1.69h1.7v-1.7Z"/><path fill="#C7C7C7" d="M12.11 33.62h-1.7v1.69h1.7v-1.7Z"/><path fill="#fff" d="M14.16 33.62h-1.7v1.69h1.7v-1.7Zm2.04 0h-1.69v1.69h1.7v-1.7Zm2.05 0h-1.7v1.69h1.7v-1.7Zm2.05 0h-1.7v1.69h1.7v-1.7Z"/><path fill="#C7C7C7" d="M5.94 24.03h-.66v1.75h.66v-1.75Zm1.54 0h-.66v1.75h.66v-1.75Zm1.54 0h-.66v1.75h.66v-1.75Zm1.54 0H9.9v1.75h.66v-1.75Zm1.54 0h-.66v1.75h.66v-1.75Zm1.54 0h-.66v1.75h.66v-1.75Zm1.54 0h-.66v1.75h.66v-1.75Zm1.54 0h-.66v1.75h.66v-1.75Zm1.54 0h-.66v1.75h.66v-1.75Zm1.54 0h-.66v1.75h.66v-1.75Zm1.54 0h-.66v1.75h.66v-1.75Z"/><path fill="#263238" d="M13.3 14.64a.28.28 0 1 0 0-.56.28.28 0 0 0 0 .56Z"/><path fill="#EBEBEB" d="M157.04 25.2V9.13h-21.26V25.2h21.26Z"/><path fill="#fff" d="M155.35 23.46v-12.6h-17.9v12.6h17.9Z"/><path fill="#EBEBEB" d="M152.28 21.3v-8.27h-11.75v8.27h11.75Z"/><path fill="#DBDBDB" d="M157.52 9.13h-.48V25.2h.48V9.13Zm-19.58 1.74h-.48v12.6h.48v-12.6Z"/><path fill="#C7C7C7" d="M152.71 20.36a1.47 1.47 0 1 1-2.95 0 1.47 1.47 0 0 1 2.95 0Z"/><path fill="#EBEBEB" d="M182.9 38.84V22.77h-21.27v16.07h21.27Z"/><path fill="#fff" d="M181.2 37.1V24.5h-17.89v12.6h17.9Z"/><path fill="#DBDBDB" d="M183.38 22.77h-.49v16.07h.49V22.77Zm-19.58 1.74h-.49v12.6h.49V24.5Z"/><path fill="#EBEBEB" d="M178.14 26.6v-.23h-11.75v.24h11.75Zm0 5.18v-.23h-11.75v.23h11.75Zm-2.32-4.43v-.23h-7.11v.23h7.11Zm0 6.46v-.24h-7.11v.24h7.11Zm-.72.65v-.24h-5.68v.24h5.69Z"/><path fill="#C7C7C7" d="M178.82 33.95a1.3 1.3 0 1 1-2.59 0 1.3 1.3 0 0 1 2.6 0Z"/><path fill="#EBEBEB" d="M177.74 28.85h-10.96v1.35h10.96v-1.35ZM70.72 1.54h48.61v63.54h-48.6V1.54Zm47.33 1.28H72V63.8h46.05V2.82Z"/><path fill="#EBEBEB" d="M96.17 3.16h-1.28v61.28h1.28V3.16Z"/><path fill="#EBEBEB" d="M69.56 5.92h50.94V4.13H69.56v1.79Zm0 2.01h50.94V6.14H69.56v1.79Zm0 2.01h50.94V8.15H69.56v1.79Zm0 2h50.94v-1.78H69.56v1.78Zm0 2.01h50.94v-1.78H69.56v1.78Zm0 2.01h50.94v-1.78H69.56v1.78Zm0 2h50.94v-1.78H69.56v1.78Zm0 2.02h50.94v-1.79H69.56v1.79Zm0 2h50.94V20.2H69.56v1.78Z"/><path fill="#263238" d="M73.69 3.77h-.32v41.15h.32V3.77Z"/><path fill="#263238" d="M72.96 46.4h1.13l-.28-1.63h-.57l-.28 1.64Zm-.43-42.63h-.32V63.3h.32V3.77Z"/><path fill="#263238" d="M71.8 64.5h1.14l-.28-1.64h-.57l-.29 1.64Z"/><path fill="#DBDBDB" d="M67.57 5.02h54.92V1.3H67.57v3.73Z"/><path fill="#EBEBEB" d="M95.03 119.54c52.48 0 95.03-2.57 95.03-5.74 0-3.17-42.55-5.74-95.03-5.74-52.48 0-95.03 2.57-95.03 5.74 0 3.17 42.55 5.74 95.03 5.74Z"/><path fill="#263238" d="M103.97 63.09c-1-.98-2.29-2.16-3.81-1.74-1.44.4-1.99 1.96-2.25 3.27-.33 1.68-.58 3.38-.85 5.07-.27 1.7-.52 3.42-.77 5.14l-.41 2.9-.2 1.44c-.07.48-.15.95-.17 1.43 0 .15.23.17.26.03.19-.8.26-1.65.38-2.47l.36-2.47A798.79 798.79 0 0 1 98 65.9c.21-1.38.32-3.1 1.55-4.02a2.36 2.36 0 0 1 2.3-.21c.8.3 1.45.88 2.08 1.46.02 0 .05-.02.03-.04Z"/><path fill="#FFC727" d="M102.6 62.1s-2.04-.74-3.04.74c-1 1.49.2 5.28 9.48 7.41a26.18 26.18 0 0 0-2.24-8.39c-1.99-4.34-5.53-2.7-4.2.23Z"/><path fill="#263238" d="M108.5 69.63c-.14-.26-.3-.51-.46-.75l-.48-.72-.36-.53c0-.04 0-.08.02-.13.02-.04.02-.16.03-.24a15.63 15.63 0 0 1 .28-1.59c0-.02-.03-.04-.04 0-.02.1-.04.21-.08.31l-.06.24a14.64 14.64 0 0 0-.26 1.26l-.51-.7c-.5-.65-1.01-1.28-1.55-1.89v-.01c.05-.98.02-1.94.24-2.9 0-.03-.03-.04-.04 0a9.9 9.9 0 0 0-.35 2.77 44.62 44.62 0 0 0-1.97-2.08c-.02-.01-.05 0-.03.03a56.4 56.4 0 0 1 2.25 2.62c-.57-.01-1.13 0-1.7.06-.63.05-1.26.13-1.88.21-.03 0-.02.05 0 .04.62-.09 1.25-.14 1.88-.16.6-.03 1.2 0 1.8 0 .4.48.79.97 1.17 1.47h-.52c-.28 0-.56.03-.84.05a12.94 12.94 0 0 0-1.74.28l.01.01h.02c.56-.06 1.14-.1 1.71-.13h1.25c.08.01.16 0 .23-.02l.75.97.59.79c.2.26.37.56.59.81l.03.01c.01 0 .02 0 .03-.02l.01-.03c0-.01 0-.02-.02-.03Z"/><path fill="#263238" d="M103.49 64.2a6.21 6.21 0 0 0-1-.05c-.32 0-.66 0-.99.02h-.01v.04h.01c.34-.02.67-.03 1.01-.02.34 0 .65.03.98.03v-.02Zm2.91.75c.04-.32.08-.64.15-.95v-.02h-.01l-.01-.01h-.01l-.01.02-.16.94a12 12 0 0 0-.09.94.03.03 0 0 0 .04 0v-.02l.06-.44.04-.46Zm-.6-3.52a8.85 8.85 0 0 0-.33 1.88h.02c.04-.14.06-.29.08-.44a18.24 18.24 0 0 1 .26-1.42c.01-.03-.03-.04-.04-.02ZM93.7 80.26c-.04-.59-.1-1.17-.16-1.75-.13-1.16-.27-2.31-.42-3.46-.16-1.15-.3-2.3-.49-3.45a8.85 8.85 0 0 0-.35-1.56 1.5 1.5 0 0 0-.87-.98c-1.1-.38-1.83.76-2.27 1.56 0 .02.02.04.04.02.26-.38.99-1.45 1.82-1.4.55.04 1 .43 1.27 1.82.67 3.46 1.27 10.5 1.34 10.95.04.25.2.24.2-.03.01-.57-.06-1.15-.1-1.72Z"/><path fill="#FFC727" d="M89.43 70.19s.95-3.38-1.16-1.69c-3.5 2.8-3.63 8.9-3.63 8.9s6.25-3.62 7.02-6.02c1.16-3.55-2.23-1.2-2.23-1.2Z"/><path fill="#263238" d="M90.6 71.84c-.49.1-.98.17-1.47.24l-.7.1-.48.05c.46-.64.93-1.28 1.38-1.93.02-.03-.02-.05-.04-.03-.37.38-.72.78-1.04 1.2l-.28-.78c-.1-.26-.22-.6-.3-.91 0-.03-.04-.02-.04 0 .09.3.15.62.23.93.09.31.17.6.28.89-.23.3-.45.59-.66.9-.1-.29-.24-.58-.34-.9 0-.03-.05-.02-.04 0 .11.34.17.7.28 1.04-.14.2-.3.42-.42.63a38.39 38.39 0 0 0-.78 1.27c-.4.69-.77 1.38-1.14 2.07v.01a.02.02 0 0 0 0 .02.02.02 0 0 0 .02 0 .02.02 0 0 0 .02-.01c.37-.7.78-1.37 1.2-2.03a.91.91 0 0 1 .22-.04l.21-.04.48-.12c.32-.08.63-.15.95-.2.03 0 0-.05 0-.05-.37.07-.75.11-1.14.16l-.54.07h-.02a60.77 60.77 0 0 1 1.38-1.99c.21-.03.43-.09.64-.13l.73-.14 1.45-.3c.02.06 0 .02-.03.02Z"/><path fill="#263238" d="m86.86 72.17-.08-.26c-.06-.19-.1-.38-.14-.57 0-.03-.05-.01-.04 0a38.83 38.83 0 0 0 .29 1.13c.02.04.08.03.07-.02l-.1-.28Zm4.39-1.11-.85.09-.86.1c-.02 0-.02.03 0 .03.3-.02.57-.04.86-.08.28-.04.57-.08.86-.1.02 0 .02-.04 0-.04ZM98.3 76a133.27 133.27 0 0 0-.95-11.12c-.16-1.2-.4-2.4-.71-3.57a6.85 6.85 0 0 0-1.18-2.52 2.7 2.7 0 0 0-2.4-1.05 4.86 4.86 0 0 0-2.72 1.57c-.85.83-1.63 1.74-2.41 2.63l-.6.68c0 .03 0 .05.04.03.77-.88 1.57-1.74 2.4-2.56.77-.76 1.57-1.58 2.64-1.9.5-.16 1.03-.17 1.53-.03.4.12.76.35 1.05.66.57.66.97 1.45 1.18 2.3.67 2.28.9 4.67 1.15 7.02.25 2.36.42 4.8.54 7.2.13 2.4.22 4.84.45 7.25l.1.88c.03.2.34.2.32 0-.2-2.5-.32-4.98-.43-7.48Z"/><path fill="#FFC727" d="M90.2 59.58s1.41-2.63-.26-3.47c-1.68-.84-7.3 5.42-8.92 14.56 0 0 9.05-4 12.13-8 3.07-3.98-.42-4.86-2.96-3.1Z"/><path fill="#263238" d="M91.53 61.7c-1.02 0-2.04-.07-3.06-.06l.6-.65c.28-.3.54-.6.79-.93 0-.02-.02-.05-.04-.04-.27.24-.53.5-.77.78l-.76.81-1.15 1.28V61.2c0-.7 0-1.4.06-2.1 0-.03-.04-.03-.05 0-.04.7-.12 1.4-.15 2.1-.02.34-.03.69-.03 1.03v.84l-.18.2a58.5 58.5 0 0 0-2.34 2.86l-.01-.16c0-.11-.02-.22-.04-.33l-.09-.7-.1-.65c-.04-.22-.1-.5-.12-.74a.02.02 0 0 0 0-.01h-.01l-.01-.01a.02.02 0 0 0-.02.01v.01a7 7 0 0 1 .08.74l.07.68.06.67.03.32c0 .06 0 .1.02.16 0 .05.02.1.04.13l-.38.5-1.53 2.07c-.01.02.02.05.04.03.47-.62.96-1.23 1.47-1.84.37.02.75 0 1.12-.02h1.18a.02.02 0 0 0 .02-.02.02.02 0 0 0-.02-.02l-1.18.01H84l1.33-1.58.48-.58c.15.02.3.03.46.02h.51l1-.02c.7 0 1.39-.03 2.07-.03a.02.02 0 0 0 .01-.01.02.02 0 0 0 0-.02v-.01h-.01c-.7 0-1.38-.04-2.07-.06l-1-.03h-.85l1.14-1.36.02-.03c.37-.43.74-.88 1.12-1.3l.15-.18c1.05.03 2.1-.04 3.16-.02h.01a.02.02 0 0 0 0-.03v-.01ZM91 63.5h-.24l-.01.02v.02h.26c.02 0 .02-.03 0-.03Z"/><path fill="#263238" d="m90.46 63.51-.98-.02-.49-.02a1.95 1.95 0 0 0-.46 0v.03c.16.03.31.05.46.04h1.47a.02.02 0 0 0 .03 0v-.03a.02.02 0 0 0-.03 0Zm-2.85 3.06a13.4 13.4 0 0 0-2-.19v.02c.66.06 1.33.1 2 .2.02.01.03-.03 0-.03Zm-2.72-2.92c0-.06 0-.11-.02-.17a15.43 15.43 0 0 0-.2-1.14c0-.02-.03-.01-.03 0l.08.77c0 .13.02.25.04.38 0 .12 0 .24.05.36.01.04.07.02.08 0a.5.5 0 0 0 0-.2Zm13.32-7.45c-.32-.58-.73-1.4-1.54-1.34-.67.04-.97.72-1.11 1.28-.45 1.75-.48 3.58-.56 5.37-.18 3.77-.35 7.55-.37 11.33v3.14a46.64 46.64 0 0 0 .1 3.25.08.08 0 0 0 .1 0 .08.08 0 0 0 .03-.04c0-.92-.03-1.83-.03-2.74 0-.91 0-1.78.02-2.68.02-1.8.07-3.6.14-5.41a658.59 658.59 0 0 1 .34-8.07c.04-.87.08-1.74.17-2.6.06-.48.13-.97.23-1.45a2 2 0 0 1 .42-.96.91.91 0 0 1 1.18-.09c.37.27.65.63.83 1.05.03.01.06 0 .05-.03Z"/><path fill="#FFC727" d="M98 55.92s-.67-2.36.8-1.18c2.44 1.95 2.53 6.2 2.53 6.2s-4.35-2.53-4.89-4.2c-.8-2.47 1.55-.82 1.55-.82Z"/><path fill="#263238" d="m100.42 59.2-.13-.18v-.5c0-.2 0-.4.02-.59 0-.03-.04-.02-.04 0l-.02.59v.42l-.53-.79-.16-.22a4.76 4.76 0 0 1 0-.76l.01-.82c0-.03-.04-.03-.04 0 0 .3-.02.57-.03.85-.02.2-.03.4-.02.6a39.9 39.9 0 0 0-1.32-1.66c0-.02-.04 0-.03.02.28.36.55.72.81 1.09a16.2 16.2 0 0 0-1.55-.27.02.02 0 0 0-.02.02v.02h.02c.55.09 1.09.23 1.63.34l.62.89.25.36h-.03l-.17-.02-.36-.03-.75-.05c-.03 0-.03.04 0 .04.25 0 .49.03.74.05l.38.05.18.02h.05l.4.6c.25.36.47.75.73 1.1 0 .02.05 0 .04-.02-.2-.4-.43-.78-.68-1.14Z"/><path fill="#263238" d="M99.33 56.56v-.28a4.13 4.13 0 0 1 .02-.6.02.02 0 0 0-.03 0v.01c0 .2-.03.38-.04.57v.57a.02.02 0 0 0 .04 0 .3.3 0 0 0 0-.13l.01-.14Zm-.53.97a4.57 4.57 0 0 0-.5-.05l-.53-.06c-.03 0-.04.04 0 .04.34.03.68.09 1.03.1v-.03Zm1.36.01v.64h.02v-.63c0-.01-.05-.05-.02 0Zm-1.85 11.2c-.91-.69-1.73-1.68-2.96-1.73-1.02-.04-1.73.73-2.14 1.58-.2.45-.37.92-.5 1.4l-.52 1.94a53.7 53.7 0 0 0-1.14 6.04c-.12.73-.19 1.48-.21 2.22a.12.12 0 0 0 .1.11.12.12 0 0 0 .12-.09c.13-.6.18-1.23.27-1.84a66.75 66.75 0 0 1 1.02-5.53c.26-1.16.52-2.33.89-3.45.26-.8.69-1.74 1.56-2.03 1.32-.44 2.51.68 3.48 1.4.02.02.05 0 .03-.02Z"/><path fill="#FFC727" d="M97.37 68.08s-.85-2.41.37-2.88c1.83-.7 6.61 4.68 5.68 12.94 0 0-3.7-2.04-6.43-4.33-2.73-2.29-3.44-5.28-2.22-6.06 1.2-.77 2.6.33 2.6.33Z"/><path fill="#263238" d="M102.86 76.37a5.94 5.94 0 0 0-.44-.83 88.82 88.82 0 0 0-1.44-2.47l-.16-.27c0-.03 0-.06.03-.1l.05-.23.1-.54c.07-.36.13-.71.23-1.06 0-.03-.04-.03-.04 0-.08.35-.2.7-.3 1.05l-.15.5-.05.18c-.39-.64-.79-1.28-1.22-1.9a.85.85 0 0 0 .04-.27c0-.12.03-.24.04-.36l.1-.81c.08-.53.18-1.06.3-1.58 0-.03-.03-.04-.04 0-.13.51-.28 1.03-.37 1.56-.05.26-.1.52-.13.78l-.05.4-.01.1-.4-.55a63.3 63.3 0 0 0-1.3-1.63c-.02-.02-.06 0-.04.02a30.2 30.2 0 0 1 2.08 3.04l.36.59-.12-.02-.47-.04-.93-.09c-.62-.04-1.25-.08-1.87-.15-.03 0-.03.04 0 .04.63.07 1.25.18 1.88.26a37.36 37.36 0 0 0 1.64.2l.73 1.18h-2.25c-.03 0-.02.04 0 .05.4 0 .81.02 1.22.04l.57.04.3.02c.08.02.17.02.25 0l.63 1.01a30.49 30.49 0 0 0 1.23 1.84Z"/><path fill="#263238" d="M101.1 69.7a12.68 12.68 0 0 1-.4 1.58v.01l.01.01h.01a.02.02 0 0 0 .02 0h.01v-.01c.09-.26.16-.52.22-.79.07-.26.11-.53.18-.8v-.01l-.02-.01h-.02v.01Zm-2.71 1.6a.32.32 0 0 0-.2-.07l-.35-.05-.65-.08-1.35-.15c-.03 0-.04.04 0 .04l1.27.17.62.09.3.03c.11 0 .23.02.34.06.02 0 .03-.02.02-.03Zm2.71 3.64-.64-.04h-.68c-.03 0-.03.05 0 .05a1 1 0 0 1 .19 0h.16l.33.01c.2.02.42.03.64.03.02 0 .02-.05 0-.05Zm1.3-.93.07-.36.13-.71v-.02h-.04v.02l-.16.7-.08.34-.03.16a.4.4 0 0 0-.02.17c0 .02.04.03.05.01.04-.1.07-.2.08-.3Z"/><path fill="#37474F" d="m100.6 81.13-.2 3.41-.61 10.08H89.46l-.6-10.08-.21-3.41h11.95Z"/><path fill="#263238" d="m100.6 81.13-.2 3.41H88.85l-.2-3.41h11.95Z"/><path fill="#37474F" d="M101.56 78.71H87.69v3.42h13.87V78.7Z"/><path fill="#263238" d="m.66 94.6 23.6-.07 23.59-.03 47.18-.05 47.18.05 23.59.03 23.6.07-23.6.07-23.6.03-47.17.04-47.18-.05-23.6-.02L.67 94.6Z"/><path fill="#FFC4C0" d="M69.08 111.39c-.63.2-19.06-.2-19.73-.66-.26-.16 1.32-17.63 1.32-17.63l11.69.23L61.03 105s6.8 3.22 7.49 3.8c.68.57 1.18 2.38.56 2.58Z"/><path fill="#263238" d="M69.08 111.39c-.63.2-19.06-.2-19.73-.66-.08-.05-.1-1.82.18-4.12 3.35.56 15.28 2.39 16.22 1.84.65-.38.07-.97-.46-1.38a33.3 33.3 0 0 1 3.25 1.74c.65.56 1.16 2.38.54 2.58Z"/><path fill="#FFC727" d="m61.34 102.21-11.47-.16s2.27-27.5 2.18-28.01c-.12-.68-8.26-32.62-8.26-32.62h10.96s8.63 29.78 8.94 32.64c.5 4.62-2.34 28.15-2.34 28.15Z"/><path fill="#000" d="m61.34 102.21-11.47-.16s2.27-27.5 2.18-28.01c-.12-.68-8.26-32.62-8.26-32.62h10.96s8.63 29.78 8.94 32.64c.5 4.62-2.34 28.15-2.34 28.15Z" opacity=".3"/><path fill="#263238" d="M50.9 99.46c.68-.05 1.36-.04 2.05-.05h2.04c1.36.01 2.72.03 4.08.07.37 0 .74.02 1.11.04.37.02.8.09 1.18.1h.02a.02.02 0 0 1-.02.05c-.33 0-.67.05-1 .06h-3.08c-1.36 0-2.73-.03-4.08-.09-.77-.03-1.55-.04-2.31-.12l-.02-.01v-.03a.04.04 0 0 1 .03-.02Zm-4.7-55.47c.97 3.47 1.87 6.97 2.75 10.47l2.62 10.5 1.31 5.26c.42 1.7.91 3.42 1.02 5.18.1 1.76-.12 3.6-.27 5.38l-.46 5.38c-.3 3.58-.6 7.16-1 10.75l-.15 1.35c0 .03-.06.03-.06 0a771.33 771.33 0 0 1 1.21-16.14c.15-1.79.36-3.59.41-5.38.02-1.8-.22-3.58-.7-5.3a9441.17 9441.17 0 0 1-3.92-15.65 422.4 422.4 0 0 1-2.79-11.81h.02Z"/><path fill="#263238" d="M43.78 41.4s3.5 13.7 5.94 23.35l4.66-23.34h-10.6Z"/><path fill="#FFC4C0" d="M55.55 111.43c-.63.2-19.06-.2-19.73-.65-.26-.17.7-17.65.7-17.65l11.54.23-.56 11.7s6.8 3.22 7.49 3.79c.68.57 1.2 2.38.56 2.58Z"/><path fill="#263238" d="M55.55 111.43c-.63.2-19.06-.2-19.73-.65-.08-.06-.06-1.77 0-4.13 3.34.56 15.45 2.4 16.38 1.85.65-.38.08-.98-.46-1.38a34.4 34.4 0 0 1 3.25 1.74c.68.56 1.2 2.38.56 2.57Z"/><path fill="#FFC727" d="M54.63 41.4s-.31 5.24-1.56 9.38c-.1.34-.21.68-.33 1-1.1.43-2.17.96-3.18 1.58 0 0-.79 20.05-.77 21.29.05 4.65-1.14 27.33-1.14 27.33l-11.58-.1s1.2-25.66 1.2-27.35c0-2.74 2.44-33.12 2.44-33.12h14.92Z"/><path fill="#000" d="M54.63 41.4s-.31 5.24-1.56 9.38c-.1.34-.21.68-.33 1-1.1.43-2.17.96-3.18 1.58 0 0-.79 20.05-.77 21.29.05 4.65-1.14 27.33-1.14 27.33l-11.58-.1s1.2-25.66 1.2-27.35c0-2.74 2.44-33.12 2.44-33.12h14.92Z" opacity=".3"/><path fill="#263238" d="m50.75 48.94.14-.92c.09-.56.2-1.11.3-1.67.22-1.27.45-2.53.73-3.78 0-.04.05-.03.05 0-.05.5-.1 1-.18 1.5l-.19 1.52c-.14 1-.28 2-.45 3-.06.37-.3 1.06.25 1.17.43.1.75-.33.88-.7.14-.44.24-.9.3-1.37.09-.5.17-1.01.24-1.52.15-1.1.32-2.2.5-3.3 0-.03.06-.02.06 0a34.2 34.2 0 0 1-.49 4.99 5.64 5.64 0 0 1-.37 1.5 1.22 1.22 0 0 1-.9.73h-.03l.01.01v.02c0 .18 0 .36-.02.54a6.38 6.38 0 0 1-.32 1.3c-.04.07-.15.4-.2.48a.03.03 0 0 1-.04.02.03.03 0 0 1-.02-.04l.07-.52a11.56 11.56 0 0 1 .18-.77l.13-.5.14-.52v-.02a.8.8 0 0 1-.77-.48 1.37 1.37 0 0 1 0-.67Z"/><path fill="#263238" d="M48.62 53.76c.35-.26.71-.5 1.09-.71.4-.25.81-.46 1.24-.65.84-.36 1.7-.61 2.56-.89.03 0 .05.04.02.05-.84.33-1.64.77-2.45 1.18-.39.2-.8.38-1.2.56-.4.18-.81.39-1.23.54-.03-.01-.05-.06-.03-.08Zm-6.53-7.3A7.11 7.11 0 0 0 44.6 46c.26-.07.5-.19.7-.35.4-.34.6-.89.76-1.36.19-.54.34-1.1.46-1.65 0-.03.04-.02.04 0 .02.63-.06 1.26-.23 1.87-.14.52-.34 1.1-.75 1.46a3 3 0 0 1-1.6.59 7.46 7.46 0 0 1-1.92-.04.03.03 0 0 1 0-.03l.02-.02Zm-3.8 41.31c.2-3.66.4-7.32.62-10.98.42-7.27.83-14.55 1.29-21.83a820 820 0 0 1 .84-12.32c0-.04.07-.04.07 0-.3 7.33-.74 14.64-1.16 21.96-.43 7.31-.86 14.56-1.31 21.84-.26 4.1-.6 8.2-.84 12.3 0 .04-.05.04-.05 0 .2-3.65.34-7.3.54-10.97Zm-1.71 11.85c.68-.04 1.37-.03 2.05-.04h2.04c1.36.01 2.72.03 4.08.07.37 0 .74.02 1.12.04.37.02.8.08 1.18.1a.03.03 0 0 1 0 .05c-.34 0-.67.05-1 .06h-3.09c-1.36 0-2.72-.03-4.08-.08-.77-.04-1.54-.05-2.3-.12a.04.04 0 0 1-.04-.04.04.04 0 0 1 .04-.04Zm5.36-67.7c1.58.98 3.48 1.37 5.33 1.47 1.7.11 3.88.18 5.2-1.1a7.5 7.5 0 0 0 2.08-5.03c.15-2.23-.02-4.47-.5-6.66-.36-1.56-1.04-3.8-4.13-4.42-1.74-.34-3.54.81-4.33 2.4-.89 1.76-.9 3.75-2.04 5.42-1.07 1.54-3.22 2.3-3.77 4.19-.48 1.65.87 2.95 2.16 3.73Z"/><path fill="#263238" d="M49.36 33c1.68-.19 3.74-.4 4.58-2.1.74-1.5.86-3.34.81-5-.09-3.14-.51-6.9-3.08-9.01-.04-.03 0-.1.05-.07 1.37.92 2.1 2.48 2.5 4.03.48 1.88.71 3.8.7 5.74-.03 1.62-.2 3.67-1.23 5-.94 1.21-2.9 1.36-4.33 1.47-.03.02-.03-.05 0-.05Zm-9.34-6.48c.55-.68 1.3-1.14 2-1.66.9-.7 1.6-1.62 2.02-2.68.64-1.55 1.1-3.14 2.19-4.47 0 0 .01 0 0 0-.99 1.27-1.45 2.8-2.01 4.28a6.57 6.57 0 0 1-2.25 3.04c-1.61 1.22-3.51 2.8-1.88 4.9a6.9 6.9 0 0 0 4.63 2.51c.07 0 .08.13 0 .12-2.6-.25-7.19-3.04-4.7-6.04Z"/><path fill="#263238" d="M39.97 27.1c.47-.7 1.2-1.18 1.82-1.74a10.9 10.9 0 0 0 2.1-2.28c1.05-1.63 1.22-3.63 2.39-5.2h.02c-.98 1.34-1.18 3.03-1.87 4.5-.66 1.43-1.84 2.48-3.02 3.48-.65.55-1.42 1.13-1.65 2-.28 1.03.27 2.1.96 2.86 1.17 1.29 2.94 1.85 4.6 2.2.05 0 .03.1-.03.1-1.6-.34-3.3-.86-4.5-2.04-1.03-.99-1.7-2.58-.82-3.88Z"/><path fill="#EBEBEB" d="M48.44 28.83c.89 1.6 10.05 15.86 11.1 15.82 3.09-.12 6.71-.57 6.02-2.95-1.08-3.72-10.22-11.07-14.74-13.93-2.73-1.7-3.26-.53-2.38 1.06Z"/><path fill="#C7C7C7" d="M48.44 28.83c.89 1.6 10.06 15.86 11.1 15.82 3.09-.12 6.71-.57 6.02-2.95a2.9 2.9 0 0 0-.1-.3L49.65 27.16c-1.7-.7-1.94.35-1.2 1.67Z"/><path fill="#EBEBEB" d="m39.64 41.8 15.48.25-1.21-4.64a4.85 4.85 0 0 0 .7-4.04c-.37-1.36-2.14-3.4-3.22-4.72-2.63-3.16-4.91-1.73-5.64-.91-2.79 3.11-6.1 14.05-6.1 14.05Z"/><path fill="#263238" d="M49.65 36.22a12.04 12.04 0 0 1 2.7.4l.43.1c.16.04.31.06.47.06v.02l-.44.02c-.15-.01-.3-.03-.43-.06l-.9-.18a27.57 27.57 0 0 0-1.85-.34.03.03 0 0 1 .02-.02Zm-1.47.62c.5-.08 1-.13 1.5-.16h.75c.12 0 .24 0 .36.02l.4.04v.02l-.38.02h-.37l-.76.03c-.5 0-1 .03-1.5.06-.03.01-.03-.03 0-.03Z"/><path fill="#FFC4C0" d="M44.69 28.92c-3.73 5.95-9.48 19.73-10.5 21.69-.7 1.33 6.27 5.15 6.6 4.17.43-1.25 5.9-17.33 6.49-24.57.24-3.36-1.4-3.2-2.6-1.3Z"/><path fill="#FFC4C0" d="M41.01 53.9c-.2 1.15-1.06 3.47-1.67 3.8-.6.34-3.68.16-5.24.1-1.55-.05-1.84-.5-1.8-1.03.05-.53 3.31-.52 3.31-.52s-4.4 1.1-5.5 1.27c-1.1.16-3.65.71-3.99-.21-.15-.42.56-.8.56-.8s-1.08.26-1.23-.27c-.17-.59.69-.9.69-.9s-.67.1-.67-.38c0-1.1 4.17-1.5 4.17-1.5s-3.23 1.45-3.3.55c-.1-1.24 6.46-2.36 7.15-2.88.46-.36.84-.8 1.13-1.3l6.39 4.06Z"/><path fill="#263238" d="M32.31 57.06a.48.48 0 0 1 .17-.41c.11-.1.24-.18.39-.23.29-.12.59-.2.9-.26.61-.14 1.25-.23 1.88-.37-.65-.03-1.3.02-1.93.15a3.5 3.5 0 0 0-.93.32c-.15.08-.28.19-.4.32a.5.5 0 0 0-.08.48Zm-5.63-.56 1.34-.31 1.33-.36 1.33-.36c.44-.13.89-.25 1.33-.36a19.05 19.05 0 0 0-4.04.91c-.43.15-.87.3-1.3.48ZM31 53.98a12.38 12.38 0 0 0-3.7.8c-.4.16-.8.35-1.16.56l1.2-.39a43.5 43.5 0 0 1 2.43-.67l1.23-.3Zm-.6-1.05a8.5 8.5 0 0 0-3.9 1.18c.66-.21 1.29-.43 1.94-.62.65-.2 1.3-.38 1.95-.56Z"/><path fill="#EBEBEB" d="m33.97 50.38 7.45 3.96s5.11-17.33 5.8-22.93c.7-5.6-1.51-4.4-3.1-1.8-2.16 3.53-10.15 20.77-10.15 20.77Z"/><path fill="#263238" d="M41.3 52.36a137.6 137.6 0 0 1-6.12-3.03c-.06-.04-.05-.08.02-.05a62.03 62.03 0 0 1 6.12 3.07.02.02 0 0 1-.02.01Zm3.2-9.05c.15-.83.33-1.65.5-2.47a113.58 113.58 0 0 1 1.19-4.88l.33-1.22.37-1.2-.24 1.23-.27 1.24a98.56 98.56 0 0 1-1.19 4.88c-.22.81-.43 1.62-.68 2.42Z"/><path fill="#263238" d="M46.38 35.66a3.2 3.2 0 0 1 .65-1.15 2.97 2.97 0 0 1-.65 1.15Z"/><path fill="#FFC727" d="m63.47 46.1.31-13.66-10.36-.06-.31 13.66 10.36.06Z"/><path fill="#FFC727" d="m52.54 36.8.1-4.2.78-.22-.1 4.56-.78-.14Z"/><g fill="#000" opacity=".2"><path d="m63.47 46.1.31-13.66-10.36-.06-.31 13.66 10.36.06Z"/><path d="m52.54 36.8.1-4.2.78-.22-.1 4.56-.78-.14Z"/></g><path fill="#FFC727" d="m63.47 46.08.31-13.7-9.97-.66-.31 13.7 9.97.66Z"/><path fill="#000" d="m63.47 46.08.31-13.7-9.97-.66-.31 13.7 9.97.66Z" opacity=".1"/><path fill="#FFC4C0" d="M52.57 36.79a1.02 1.02 0 0 0 .1 1.16 1.5 1.5 0 0 0-.7.74c-.22.59.6 1.18.6 1.18-.3.23-.52.54-.63.9-.15.59.58 1.3.58 1.3-.15.37-.17.77-.05 1.15.37.98 1.94 1.3 2.93 1.51 1 .21 4.02-.1 4.6-.11l1.43-6.38s-4.19-2.23-5.4-2.31c-1.01-.07-3.05.2-3.46.86Z"/><path fill="#FFC4C0" d="M60.94 38c1.2.5 5.01 2.65 4.7 4.35-.32 1.7-2.75 2.19-6.32 2.32L60.94 38Z"/><path fill="#263238" d="M52.74 37.85c1.1-.18 2.2-.03 3.3.06v.01a.02.02 0 0 1 0 .02v.01c-1.1-.1-2.2 0-3.29-.05-.04 0-.04-.04 0-.05Zm-.14 1.95c.25-.02.5 0 .76.04l.8.12 1.58.3c.02 0 .02.04 0 .04a28 28 0 0 0-1.6-.23l-.8-.1a3.4 3.4 0 0 1-.76-.13.04.04 0 0 1 0-.03l.02-.02Zm-.06 2.28c.23 0 .46.02.68.08l.72.14c.48.08.97.17 1.46.23.02 0 .02.05 0 .04-.5-.07-1-.12-1.48-.2l-.73-.1a1.95 1.95 0 0 1-.66-.17v-.01Z"/><path fill="#EBEBEB" d="M60.94 38c1.2.5 5.01 2.65 4.7 4.35-.32 1.7-2.6 2.59-5.93 2.95l1.23-7.3Z"/><path fill="#263238" d="M61.07 38.01c.43.17.84.37 1.23.6l.3.17.12.04a5.86 5.86 0 0 1 1.4.67c.03 0 0 .05-.02.03-.3-.16-.62-.3-.94-.42l-.13-.05.5.35c.43.33.84.68 1.22 1.05.02.02 0 .04-.02.03-.7-.66-3.4-2.2-3.71-2.39-.3-.19-.16-.18.05-.08Z"/><path fill="#FFC4C0" d="M47.35 27.89c.12.26 1.77 1.77 2.99 1.45.4-.1-.06-2.3-.06-2.3v-.18l.05-2.38-3.02-1.18-.43-.15s.42 4.63.47 4.74Z"/><path fill="#263238" d="m50.34 24.48-.03 1.56c-1.21.57-2.66.15-3.16-.04l-.27-2.85.43.15 3.03 1.18Z"/><path fill="#FFC4C0" d="M45.5 27.87s2.97 2.03 4.58 1.72a1.66 1.66 0 0 0 1.36-1.4s-1.62-1.56-3.61-1.5c-1.33.06-2.34 1.18-2.34 1.18Zm-.92-6.67c-.08 4.18 2.42 4.7 3.32 4.72.82.01 3.6-.04 4.12-4.2.52-4.14-1.4-5.5-3.28-5.65-1.88-.14-4.08.95-4.16 5.13Z"/><path fill="#263238" d="M45.24 20.85c.1-.02.2-.04.3-.08.1 0 .19-.05.26-.13a.15.15 0 0 0 0-.17.36.36 0 0 0-.36-.07.55.55 0 0 0-.34.2.16.16 0 0 0 .06.23l.08.02Zm2.78-.25c-.1 0-.2-.02-.3-.04a.45.45 0 0 1-.29-.1.15.15 0 0 1 0-.18.36.36 0 0 1 .36-.1c.14 0 .26.07.35.17a.16.16 0 0 1 .02.16.16.16 0 0 1-.14.1Zm-.57.84s.02 0 .02.02c0 .3.05.61.3.7 0 0 0 .02 0 0-.3-.02-.37-.45-.32-.72Z"/><path fill="#263238" d="M47.7 21.13c.45-.04.51.89.1.92-.43.03-.49-.87-.1-.92Z"/><path fill="#263238" d="M47.88 21.17c.08.05.17.14.27.14s.18-.1.25-.2h.02c.01.18-.04.36-.23.4-.19.04-.3-.11-.36-.3 0 0 .02-.06.05-.04Zm-2.02.23s-.02 0-.02.04c.03.29.02.6-.23.72v.02c.31-.07.33-.5.25-.77Z"/><path fill="#263238" d="M45.59 21.13c-.46 0-.43.92 0 .92.42 0 .38-.92 0-.92Z"/><path fill="#263238" d="M45.4 21.2c-.07.05-.14.14-.23.15-.09 0-.18-.09-.24-.18 0 .17.06.35.23.38.17.03.26-.13.3-.3 0-.02-.03-.07-.06-.05Zm2.22 2.64c-.06.07-.12.17-.22.2a.8.8 0 0 1-.31-.05s-.02 0 0 0a.38.38 0 0 0 .37.12.3.3 0 0 0 .2-.28h-.04Zm-1.24-.96s-.04.42-.03.62c0 .02.06.03.12.03a.96.96 0 0 0 .9-.4c0-.03 0-.05-.02-.03a1.5 1.5 0 0 1-.86.3c-.02-.06.09-.74.05-.74-.15.02-.3.07-.44.13.04-.89.23-1.77.27-2.66a.03.03 0 0 0-.03-.02h-.02v.02c-.24.94-.38 1.9-.42 2.86 0 .1.4-.07.48-.11Z"/><path fill="#263238" d="M46.48 23.45c.12.15.28.28.46.36.1.04.22.04.32.02.23-.06.23-.27.2-.45a1.3 1.3 0 0 0-.1-.28c-.25.2-.56.33-.88.35Z"/><path fill="#FF9ABB" d="M46.94 23.81c.1.04.22.05.32.03.23-.06.23-.27.2-.45a.54.54 0 0 0-.52.42Z"/><path fill="#263238" d="M51.73 21.99c-.67.06-.86-1.35-.86-1.35s-1.38.04-1.88-1.93c.05.6.28 1.16.65 1.62 0 0-2.43-.2-3.5-2.2 0 0 .43 1.03.82 1.38a2.83 2.83 0 0 1-1.54-1.07s-.4 1.18-.71 1.51c0 0-.89-5.5 4.57-3.83 0 0 2.23-.07 3.16 1.86.93 1.92-.7 4-.7 4Z"/><path fill="#FFC4C0" d="M51.23 21.68s.83-1.37 1.44-1.08c.61.28.05 2.22-.62 2.52a.7.7 0 0 1-.97-.31l.15-1.13Z"/><path fill="#DBDBDB" d="m27.4 80.34.64 3.76 4.25 22.95h.68L29.88 84.1l-.45-3.76H27.4Z"/><path fill="#C7C7C7" d="M29.43 80.34H27.4l.63 3.76h1.84l-.45-3.76Z"/><path fill="#DBDBDB" d="M14.07 107.05h.68L19 84.1l.63-3.76H17.6l-.45 3.76-3.1 22.95Z"/><path fill="#C7C7C7" d="m17.61 80.34-.45 3.76H19l.63-3.76H17.6Z"/><path fill="#DBDBDB" d="M1.32 107.05H2L6.25 84.1l.63-3.76H4.87L4.4 84.1l-3.09 22.95Z"/><path fill="#C7C7C7" d="M4.41 84.1h1.84l.63-3.76H4.87L4.4 84.1Z"/><path fill="#DBDBDB" d="M2.4 82.1h31.14v-3.27H21.9l-3.92-22.8H3.6L2.41 82.11Z"/><path fill="#C7C7C7" d="M2.4 82.1h1.7l1.11-26.07H3.59L2.41 82.11Z"/><path fill="#AD6359" d="M34.71 111.07c-.61.08-17.51-3.86-18.06-4.4-.07-.06.73-3.3.73-3.3.27-1.34 4.67-12.23 4.67-12.23l11.04 2.72-4.68 10.1s2.1 1.43 3.92 2.79c.8.56 1.56 1.17 2.29 1.83.55.65.71 2.42.1 2.49Z"/><path fill="#EBEBEB" d="M34.71 111.07c-.61.08-17.51-3.86-18.06-4.4-.07-.06.73-3.3.73-3.3.09-.44.62-1.91 1.3-3.7l10.58 2.47-.85 1.82s2.1 1.43 3.92 2.79c.8.56 1.56 1.17 2.29 1.83.55.65.71 2.42.1 2.49Z"/><path fill="#A6A6A6" d="M34.76 111.12c-.64.06-17.67-3.75-18.23-4.31-.21-.21 1.3-5.7 1.3-5.73l10.91 2.41-.04.19s5.48 4.2 6.02 4.87c.55.68.68 2.5.04 2.57Z"/><path fill="#263238" d="M34.72 110.42a471.1 471.1 0 0 0-17.32-3.8c2.81.78 14.42 3.3 17.31 3.84.06.02.07-.03 0-.03Zm-5.15-6.8c-1.08-.46-2.5-.59-3.54 0-.03.03 0 .08.04.08a16.1 16.1 0 0 1 3.51.03.07.07 0 0 0 .02-.03v-.05a.08.08 0 0 0-.03-.03Zm.7.68c-1.08-.47-2.5-.6-3.53 0-.05.02 0 .07.03.07a16.56 16.56 0 0 1 3.51.03.07.07 0 0 0 .02-.08.07.07 0 0 0-.03-.03Zm.71.67c-1.08-.46-2.5-.59-3.54 0-.04.02 0 .08.03.08 1.16-.1 2.33-.09 3.48.05.02 0 .03 0 .04-.02A.07.07 0 0 0 31 105a.07.07 0 0 0-.03-.03Z"/><path fill="#263238" d="M31.6 101.5c-.3-.72-1.2-.63-1.78-.34a6.16 6.16 0 0 0-2.31 2.19c-.02.02 0 .04.02.05a.14.14 0 0 0 .07.16l.07.02c1.01-.14 2.1-.16 3.05-.6.55-.25 1.16-.81.87-1.49Zm-2.43 1.55c-.5.08-1 .14-1.48.23.44-.44.9-.85 1.38-1.25.24-.18.49-.36.75-.51.4-.23 1.88-.59 1.4.61-.27.67-1.46.84-2.05.92Z"/><path fill="#263238" d="M24.7 102.42c.85.6 1.92.82 2.9 1.14.1.03.17-.06.17-.15h.01l.01-.02v-.02a6.2 6.2 0 0 0-1.88-2.59c-.5-.38-1.35-.63-1.78 0-.44.64.09 1.28.58 1.64Zm-.32-.92c-.25-1.26 1.14-.65 1.5-.35.22.2.43.41.63.64.4.47.78.96 1.13 1.48-.46-.19-.94-.33-1.42-.5-.56-.2-1.7-.58-1.84-1.27Z"/><path fill="#263238" d="m29.28 103.58-11.8-2.64s9.73-22.55 8.86-23.69c-.43-.57-11.34-.74-14.82-3.68-4.5-3.83-1.47-9.66-1.47-9.66l12.19-.37s-.15 2.55.33 2.94c.31.25 14.84 1.47 16.43 6.37 1.96 6-9.72 30.73-9.72 30.73Z"/><path fill="#37474F" d="M29.61 101.45c-.3-.13-3.35-1-4.03-1.18-1.38-.35-2.75-.7-4.13-1.02a62.4 62.4 0 0 0-2.36-.53l-.03.01a.04.04 0 0 0 .03.07c1.35.42 2.7.78 4.06 1.15 1.36.38 6.03 1.51 6.44 1.56.04.02.07-.04.02-.06Zm-1.18-25.21a1.97 1.97 0 0 0-.92-.3l-5.28-.88c-1.64-.27-3.3-.52-4.94-.84a11.27 11.27 0 0 1-3.91-1.35A5.65 5.65 0 0 1 11 69.74a10.1 10.1 0 0 1-.3-4.02c.03-.33.1-.66.15-.98 0-.02-.03-.03-.04 0-.44 2.5-.48 5.4 1.39 7.38a7.49 7.49 0 0 0 3.45 1.91c1.45.37 2.93.66 4.42.86l5.28.89c.85.14 1.7.25 2.55.43.17.02.33.09.46.2a.65.65 0 0 1 .07.6c-.08.42-.2.83-.32 1.24-.96 3.28-7.44 18.92-7.63 19.28-.02.04.04.07.06.03 1.61-2.88 6.31-14.96 7.37-18.06.28-.79.51-1.6.7-2.41.05-.3.08-.63-.18-.85Z"/><path fill="#AD6359" d="M57.73 111.25c-.59.2-17.5-.04-18.15-.45-.25-.24-.45-2.4-.59-5.1l-2.93-11.53 10.88-.09 3.18 11.46s2.36.98 4.4 1.95c.9.4 1.76.84 2.6 1.34.68.53 1.2 2.23.61 2.42Z"/><path fill="#A6A6A6" d="M58.08 111.26c-.62.2-18.07.12-18.74-.3-.25-.15-.39-2.7-.46-5.77v-.09l11.26-.07v.19s6.67 3.01 7.35 3.56c.68.55 1.2 2.28.59 2.48Z"/><path fill="#263238" d="M57.88 110.59a466.08 466.08 0 0 0-17.74 0c2.92.14 14.8.12 17.74.04.06 0 .07-.04 0-.04Zm-6.48-5.54c-1.16-.22-2.58-.05-3.47.77-.04.03 0 .08.05.07a16.3 16.3 0 0 1 3.46-.71.07.07 0 0 0 0-.1.07.07 0 0 0-.05-.03Zm.83.51c-1.16-.22-2.58-.05-3.47.77-.03.03 0 .08.05.07a16.3 16.3 0 0 1 3.47-.71.07.07 0 0 0 .02-.05c0-.02 0-.04-.02-.06a.07.07 0 0 0-.05-.02Zm.83.51c-1.16-.22-2.57-.05-3.46.77-.04.03 0 .08.05.06a16.4 16.4 0 0 1 3.46-.7.08.08 0 0 0 .02-.06c0-.02 0-.04-.02-.05a.07.07 0 0 0-.05-.02Z"/><path fill="#263238" d="M52.91 102.54c-.45-.63-1.3-.35-1.78.05a6.16 6.16 0 0 0-1.79 2.7h.02a.14.14 0 0 0 .18.14c.95-.35 2.02-.59 2.84-1.24.49-.38.96-1.06.53-1.65Zm-2.03 2.06c-.46.18-.94.34-1.4.54.35-.5.68-1.04 1.09-1.52.19-.23.4-.45.61-.66.35-.3 1.71-.96 1.5.3-.11.7-1.24 1.11-1.8 1.33v.01Z"/><path fill="#263238" d="M46.38 104.91c.95.42 2.05.4 3.06.5a.15.15 0 0 0 .14-.18l.01-.01v-.03a6.18 6.18 0 0 0-2.4-2.13c-.57-.27-1.47-.33-1.74.4-.27.71.38 1.22.93 1.45Zm-.52-.82c-.52-1.18.97-.89 1.38-.66.27.14.52.3.76.49.5.38.97.78 1.43 1.2-.5-.08-1-.12-1.5-.18-.58-.07-1.78-.2-2.06-.85h-.01Z"/><path fill="#263238" d="M51.2 105.14H38.5s-5.43-21.56-6.39-22.8c-1.28-1.63-19.22-1.6-23.07-6.93-3.46-4.8-.54-11.59-.54-11.59l13.59-.4a28.1 28.1 0 0 1-1.26 4.27s16.36 3.02 20.95 8.03c3.1 3.38 9.42 29.42 9.42 29.42Z"/><path fill="#37474F" d="M23.2 66.75a14.75 14.75 0 0 0-2.3.87c-.74.37-1.46.77-2.15 1.22-.02 0 0 .04.02.03.73-.38 1.5-.73 2.25-1.05l1.1-.47c.37-.16.76-.3 1.11-.5.05-.02.02-.1-.03-.1Zm-.82-3.35c-.15.62-.3 1.25-.47 1.86-.08.3-.16.57-.27.84-.08.23-.22.5-.49.55-.26.05-.4-.2-.37-.46.02-.25.1-.57.16-.85l.19-.96.08-.49a3.76 3.76 0 0 1 .08-.43l.01-.01.01-.01v-.03l-.02-.02a.02.02 0 0 0-.02 0c-.06.03-.07.11-.09.17a22.23 22.23 0 0 0-.39 1.36l-.22.88c-.08.22-.1.46-.06.69a.53.53 0 0 0 .49.4.62.62 0 0 0-.03.06l-.07.19a3.06 3.06 0 0 0-.09.28v.11c0 .04.07.1.1.04.02-.06.04-.06.06-.09a.47.47 0 0 0 .04-.1l.06-.2.04-.18c.02-.06 0-.08 0-.11a.71.71 0 0 0 .36-.14c.18-.15.3-.35.37-.57.1-.25.17-.52.24-.79a11.46 11.46 0 0 0 .37-2 .06.06 0 0 0-.05 0l-.02.01Zm27.51 39.46a9.66 9.66 0 0 0-1.02-.06l-1.07-.04c-.7-.02-1.4-.04-2.11-.04a286.54 286.54 0 0 0-6.66.08l-.02.01v.05l.02.01c1.4.08 2.81.1 4.22.12 1.41.03 2.81.06 4.22.03l1.18-.03c.41 0 .82-.02 1.23-.05.04-.01.06-.07.01-.08Zm-16.3-20.34a3.8 3.8 0 0 0-.53-1.1 1.94 1.94 0 0 0-1.04-.53c-3.39-.93-6.88-1.34-10.32-2-1.7-.3-3.37-.7-5.01-1.22a19.46 19.46 0 0 1-4.75-2.13 5.3 5.3 0 0 1-1.75-1.85 8 8 0 0 1-.82-2.3 14.03 14.03 0 0 1 .35-6.94c0-.03-.04-.04-.05 0-.63 1.78-.9 3.66-.76 5.54.12 1.64.52 3.35 1.57 4.65a6.55 6.55 0 0 0 1.96 1.53c.77.43 1.57.8 2.39 1.13 1.6.62 3.25 1.12 4.93 1.47 3.43.76 6.94 1.15 10.37 1.91l1.27.3c.43.07.85.2 1.24.4.41.25.54.76.7 1.18a2684.19 2684.19 0 0 1 5.86 19.64h.04c.02 0 .03 0 .04-.02v-.05c-.48-1.9-5.33-18.7-5.7-19.61Z"/><path fill="#37474F" d="M32.59 83c-.13-.4-.24-.84-.62-1.09-.38-.25-5.81-.97-6.43-1.07-.02 0-.04.04 0 .04.52.1 5.54 1 5.99 1.14.2.06.36.17.49.32.14.2.24.44.3.68l.46 1.46c.3.97.62 1.95.91 2.93.33 1.11.72 2.28 1 3.4.02.08.15.04.13-.04-.4-2.1-2.07-7.25-2.23-7.77ZM20.9 67.72c2.5.3 4.98.8 7.4 1.52a51.77 51.77 0 0 1 10.98 4.5c.02.02 0 .05-.03.04a58.67 58.67 0 0 0-18.37-5.9c-.1-.01-.08-.17.01-.16Z"/><path fill="#AD6359" d="M21.11 52.02c1.73 2.62 8.18 10.91 11.32 10.95 2.06.02 9.74-2.87 10.9-3.54.9-.52-1.81-7.45-2.82-7-1.02.44-7.22 2.58-8.05 2.51-.83-.06-8.08-5.62-10.62-6.85-4.37-2.12-1.66 2.52-.73 3.93Z"/><path fill="#AD6359" d="M42.32 59.86c.85-.3 5.49-1.8 6.44-2.49.95-.7 3.54-2.9 3.1-3.69-.45-.78-1.28-.2-1.28-.2s.95-1.1.42-1.85c-.54-.75-1.77.2-1.77.2s.88-1.2.3-1.9c-.6-.71-1.68.45-1.68.45s.89-1.06.14-1.44c-.88-.46-2.25 1.68-3.36 2.37-.25.16-5.34 2.82-5.34 2.82l3.03 5.73Z"/><path fill="#263238" d="M47.96 50.28a6.62 6.62 0 0 1-3.4 2.86c-.04.01-.02.07.01.06 1.7-.62 2.7-1.13 3.47-2.88.04-.08-.03-.11-.08-.04Zm1.34 1.42a9.86 9.86 0 0 1-3.66 3.06c-.02 0 0 .05.02.04 1.74-.78 2.72-1.32 3.71-3.02.05-.07-.01-.14-.06-.07Zm1.2 1.82a8.87 8.87 0 0 1-3.87 2.78.04.04 0 0 0 .05.05 6.3 6.3 0 0 0 3.87-2.79c.05-.08.02-.12-.04-.04Z"/><path fill="#AD6359" d="M37.83 53.84s1.16-2.04 1.87-2.82c.7-.78 4.42-2.74 4.89-1.96.59 1-1.32 2.56-2.36 3.2 0 0 1.4 2.31.25 3.72-1.13 1.42-4.65-2.14-4.65-2.14Z"/><path fill="#263238" d="M44.67 49.4c-.1 1.3-1.53 2.06-2.49 2.74a.1.1 0 0 0 0 .18c.52 1.01.96 2.6.4 3.66V56a.03.03 0 0 0 .03.02l.01-.01c.76-1.06.46-2.66-.19-3.72 1-.7 2.4-1.5 2.26-2.9h-.02Z"/><path fill="#FFC727" d="m38.01 52.5 2.02 9.01s-6.16 1.99-9.07 1.5c-3.54-.59-10.14-10.12-11.1-11.7-1.56-2.61-1.54-4.35.09-4.2.63.06 1.5.4 2.62 1.1 1.18.72 8 5.54 10.02 6.33 1.14.45 5.42-2.03 5.42-2.03Z"/><path fill="#263238" d="M38.32 61.41c-.32-1.26-1.45-6.44-1.62-7.58 0-.08.04-.1.06-.02 1.06 3.73 1.36 6.34 1.61 7.59 0 .03-.04.04-.05.01Zm-6.92 1.65c-.15 0-.3-.03-.44-.05-3.54-.6-10.14-10.12-11.1-11.7-1.47-2.47-1.54-4.16-.16-4.2l11.7 15.95Z"/><path fill="#FFC727" d="M24.71 66.45c-.39.37-16.84 2.09-16.93 1.98-.21-.3 2.86-15.75 9.45-21.07 1.17-.94 3.1-.54 3.98.02.44.3 1.65 2.5 2 4.47.35 1.97 1.74 14.36 1.5 14.6Z"/><path fill="#AD6359" d="M13.91 50.44c-4.9 5.54-10.4 14.84-7.98 16.8 2.2 1.77 9.63.08 14.63-1.94.95-.39-.22-7.96-1.3-7.77-1.99.37-5.6 1.64-5.74 1.67-.28.08 1.47-4.05 3.1-8.06 1.8-4.48.1-3.87-2.7-.7Z"/><path fill="#AD6359" d="M17.84 57.85s3.01-.7 5-1.04c1.11-.2 3.04-.35 3.92-.12 1.3.34 6.58 2.62 6.06 3.9-.48 1.19-4.76-1.36-4.76-1.36s4.55 2.18 3.72 3.48c-.84 1.3-5.3-2.2-5.3-2.2s4.63 2.33 3.56 3.53c-.8.91-5.01-2.03-5.01-2.03s3.96 2.03 3.17 3c-.89 1.08-4.94-1.4-4.94-1.4-2.42 2.14-4.45 2.17-5.9 2.02-.37-.02.48-7.78.48-7.78Z"/><path fill="#263238" d="M26.53 58.38c.54.24 1.1.47 1.61.76.52.28 1.03.59 1.52.91.65.42 1.25.92 1.8 1.47a21.75 21.75 0 0 0-3.4-2.24c-.52-.28-1.03-.59-1.54-.88-.02 0 0-.02 0-.02Zm-1.06 1.86c.68.33 1.37.64 2.03 1 .67.36 1.58.88 2.21 1.3.05.03.03.11-.02.08-.65-.38-1.61-.88-2.27-1.25-.65-.36-1.3-.77-1.96-1.11-.02 0 0-.02 0-.02Zm-1.2 1.44a17 17 0 0 1 2.99 1.76c.05.04 0 .05-.05.02-.98-.6-1.75-1.08-2.95-1.74-.02-.02 0-.05 0-.04Z"/><path fill="#FFC727" d="M16.33 48C12.76 50.2 3.58 63.14 5.27 66.71c1.7 3.56 13.2-.36 13.2-.36l-.83-9s-3.21 1.01-3.31.86c-.1-.15 1.66-4.58 2.38-6.37.72-1.8 1.52-5.03-.38-3.86Z"/><path fill="#263238" d="M17.01 65.8c-.21-1.27-.88-6.53-.96-7.68 0-.08.04-.1.06-.02.73 3.81.8 6.43.96 7.7 0 .03-.05.04-.06 0Z"/><path fill="#263238" d="M17.7 57.24c-.35.06-.7.15-1.03.26-.3.1-.62.18-.92.27a66.84 66.84 0 0 0-3.93 1.33c-.65.24-1.28.51-1.93.75-.03 0 0 .06.02.05.66-.23 1.33-.41 1.99-.62l1.94-.62 1.95-.62.94-.3c.3-.1.61-.2.91-.33l.05.5c.07-.05.09-.68.02-.67Z"/><path fill="#263238" d="m16.37 53.9-.55.73-.09.14.14-.38c.19-.44.35-.9.48-1.35 0-.02-.02-.03-.03 0-.23.44-.43.9-.6 1.36-.2.45-.39.89-.57 1.34l-.54 1.35c-.18.44-.34.9-.46 1.36 0 .03.03.04.05 0 .24-.44.45-.89.62-1.35a53.7 53.7 0 0 0 .76-1.92l.1-.13a9.8 9.8 0 0 0 .7-1.14h-.01Zm2.13 12.24c0-.06-.05-.07-.06 0-.01.08 0 .11-.02.15-.39.1-1.82.54-2.17.65a32.93 32.93 0 0 1-4.49 1c-1.46.16-2.93.2-4.4.12-.03 0-.03.04 0 .05 1.48.2 2.97.2 4.45.02a25.5 25.5 0 0 0 6.66-1.75.08.08 0 0 0 .04-.07l-.02-.17Z"/><path fill="#AD6359" d="M20.69 50c-.95.2-2.55-1.27-3.17-2.45-.04-.08.34-3.28.35-3.92 0-.13 4.04 1.04 4.04 1.04-.25.8-.4 1.63-.44 2.46-.01.1.14 2.67-.78 2.87Z"/><path fill="#263238" d="m21.9 44.67-.06.23a11.82 11.82 0 0 0-.36 2.23v.31c-.13.02-.26.02-.4.01-2.19-.08-2.88-2.79-3.07-3.83l.07.02c.1.01.25.05.42.09l.12.03.92.24.33.09.7.2.3.08.3.07.13.04.06.02.33.1.16.05a.1.1 0 0 1 .07.02h-.01Z"/><path fill="#AD6359" d="M17.22 39.66c-.26 1.48 1.01 5.47 2.14 6.26 1.63 1.13 4.04.96 4.94-.94.89-1.84-.88-7.03-2.1-7.71-1.82-1.03-4.61.2-4.98 2.4Z"/><path fill="#263238" d="M21.53 41.53s-.02.03 0 .04c.1.26.17.59-.04.75 0 0 0 .02 0 0 .27-.13.17-.55.04-.79Z"/><path fill="#263238" d="M21.19 41.34c-.44.11-.18.99.23.88.4-.1.14-.98-.23-.88Zm1.91-.23s.03 0 .03.02c.08.27.2.57.48.59v.01c-.31.05-.48-.35-.5-.62Z"/><path fill="#263238" d="M23.26 40.75c.43-.16.73.7.33.86-.4.15-.68-.72-.33-.86Zm-2.51.28.33-.19c.12-.07.23-.12.3-.25a.2.2 0 0 0-.08-.23.48.48 0 0 0-.48.04.71.71 0 0 0-.35.37.2.2 0 0 0 .28.26Zm2.72-.86-.38.02a.62.62 0 0 1-.38-.06.2.2 0 0 1-.06-.23.47.47 0 0 1 .43-.22.7.7 0 0 1 .5.13.2.2 0 0 1 0 .31.2.2 0 0 1-.11.05ZM23 43.3c-.08.18-.2.35-.34.47a.52.52 0 0 1-.3.1c-.24 0-.3-.18-.3-.36-.02-.1-.01-.2 0-.3.3.13.62.16.93.1Z"/><path fill="#FF9ABB" d="M22.66 43.77a.52.52 0 0 1-.3.1c-.23 0-.3-.18-.3-.36a.52.52 0 0 1 .6.26Z"/><path fill="#263238" d="M17.86 42.93c.76-.08.57-1.4.57-1.4s1.5-.41 1.42-2.4c0 0 2.28.51 3.28-.76s-2.36-3.72-5.54-.65c0 0-1.63.48-1.72 1.87-.1 1.39 1.08 3.43 2 3.34Z"/><path fill="#263238" d="M19.77 38.92c0-.02-.04 0-.04 0 .4 1.27-.3 2.55-1.69 2.63a.04.04 0 0 0-.03.03l.01.03.02.01c1.4.08 2.5-1.44 1.73-2.7Zm.93-2.69c.47-.01.95.05 1.4.18.69.23 1.62.92 1.26 1.75-.5 1.15-2.14 1.05-3.16.9l-.04.01a.05.05 0 0 0 .01.1c1.05.32 3.13.2 3.4-1.15.3-1.5-1.85-1.9-2.88-1.8Z"/><path fill="#AD6359" d="M18.55 42.86s-1.12-1.18-1.67-.76c-.55.41.43 2.23 1.18 2.38a.72.72 0 0 0 .9-.52l-.4-1.1Z"/><path fill="#EBEBEB" d="m21.48 47.47-.96 2.4-2.98-3.03-.85.97s2.92 4.82 2.93 4.6l1-2.06 1.42 1.44-.12-3.61-.44-.7Z"/><path fill="#263238" d="M22.08 50c-.03-.6-.06-1.2-.12-1.8 0-.01-.04-.02-.04 0-.12.58.04 2.86.03 3.4a42.88 42.88 0 0 0-1.33-1.24c-.21.33-.94 1.83-.99 1.97a98.58 98.58 0 0 0-2.77-4.28c-.02-.02-.05 0-.04.02.41.81 2.75 4.56 2.78 4.55.39-.7.73-1.44 1.04-2.18.21.26 1.47 1.62 1.49 1.53.02-.66 0-1.32-.05-1.97Zm69.85 15.53H71.2v46.37h20.73V65.53Z"/><path fill="#37474F" d="M30.4 65.53H9.68v46.37H30.4V65.53Z"/><path fill="#455A64" d="M91.93 65.53H30.4v6.44h61.53v-6.44Z"/><path fill="#000" d="m30.53 68.75 7.68-.05 7.67-.02 15.35-.04 15.35.04 7.67.02 7.68.05-7.68.06-7.67.02-15.35.03-15.35-.03-7.67-.02-7.68-.06Z" opacity=".1"/><path fill="#455A64" d="M33.18 65.53H30.4v46.37h2.78V65.53Zm58.75 0h-2.79v46.37h2.79V65.53Z"/><path fill="#263238" d="M183.5 65.53h-20.73v46.37h20.72V65.53Z"/><path fill="#37474F" d="M121.97 65.53h-20.73v46.37h20.73V65.53Z"/><path fill="#455A64" d="M183.5 65.53h-61.53v6.44h61.52v-6.44Z"/><path fill="#000" d="m122.1 68.75 7.67-.05 7.68-.02 15.34-.04 15.35.04 7.68.02 7.67.05-7.67.06-7.68.02-15.35.03-15.34-.03-7.68-.02-7.67-.06Z" opacity=".1"/><path fill="#455A64" d="M124.75 65.53h-2.78v46.37h2.78V65.53Zm58.75 0h-2.8v46.37h2.8V65.53Z"/><path fill="#C7C7C7" d="M35.66 64.82H19.69v.71h15.97v-.71Z"/><path fill="#A6A6A6" d="M35.66 64.82h-8.04v.71h8.04v-.71Z"/><path fill="#C7C7C7" d="M28.48 65.53h15.57l2.03-10.57H30.52l-2.04 10.57Z"/><path fill="#EBEBEB" d="M36.33 60.25a.86.86 0 0 0 .87.94 1.05 1.05 0 0 0 1.03-.94.86.86 0 0 0-.86-.95 1.06 1.06 0 0 0-1.04.95Z"/><path fill="#C7C7C7" d="M145.32 65.53h-15.63l-1.2-10.6h15.62l1.2 10.6Z"/><path fill="#fff" d="M144.47 64.82h-14.09l-1.04-9.19h14.08l1.05 9.2Z"/><path fill="#C7C7C7" d="M149.9 64.82h-20.1v.71h20.1v-.7Z"/><path fill="#EBEBEB" d="M154.26 64.82h-20.1v.71h20.1v-.7Z"/><path fill="#C7C7C7" d="M130.9 56.59c1.92-.03 3.83-.02 5.76-.04 1.94 0 3.84 0 5.77.04-1.92.03-3.83.02-5.77.04-1.93.01-3.84 0-5.76-.04Zm.05.47c1.93-.03 3.84-.03 5.77-.04 1.94-.02 3.83 0 5.77.04-1.92.03-3.84.02-5.77.03-1.93.02-3.84 0-5.77-.03Zm.06.47c1.93-.03 3.84-.02 5.77-.04 1.93 0 3.83 0 5.77.04-1.93.03-3.84.02-5.77.04-1.93.01-3.84 0-5.77-.04Zm.06.47c1.93-.03 3.84-.02 5.77-.04 1.93-.01 3.85 0 5.77.04-1.92.03-3.83.03-5.77.04-1.94 0-3.84 0-5.77-.04Zm.06.47c1.92-.03 3.83-.02 5.77-.04 1.94 0 3.83 0 5.77.04-1.92.03-3.83.02-5.77.04-1.93.01-3.84 0-5.77-.04Zm.06.47c1.93-.03 3.85-.02 5.77-.04 1.92-.01 3.83 0 5.77.04-1.92.03-3.84.03-5.77.04-1.93 0-3.84 0-5.77-.04Zm.06.48c1.92-.03 3.84-.03 5.77-.04 1.93-.01 3.83 0 5.77.04-1.93.03-3.84.02-5.77.04-1.94.01-3.85-.02-5.77-.04Zm.06.46c1.92-.03 3.83-.02 5.77-.03 1.93-.01 3.83 0 5.76.03-1.92.03-3.83.03-5.76.04-1.94.01-3.85 0-5.77-.04Zm.06.47c1.92-.03 3.83-.02 5.77-.03 1.93-.02 3.83 0 5.77.03-1.92.03-3.84.03-5.77.04-1.94.01-3.85 0-5.77-.04Zm.06.47c1.92-.03 3.83-.02 5.77-.03 1.94-.01 3.83 0 5.77.03-1.93.04-3.84.03-5.77.04-1.94.02-3.84 0-5.77-.04Zm.06.48c1.92-.04 3.83-.03 5.77-.04 1.94-.02 3.83 0 5.77.03-1.93.03-3.84.03-5.77.04-1.94.01-3.85 0-5.77-.04Zm.06.48c1.92-.04 3.83-.03 5.77-.04 1.93-.01 3.83 0 5.76.04-1.92.03-3.83.02-5.76.03-1.94.02-3.85-.01-5.77-.03Zm.05.46c1.93-.04 3.84-.03 5.78-.04 1.93-.02 3.83 0 5.76.04l-5.76.03c-1.94.01-3.85 0-5.77-.03Zm.07.46c1.92-.03 3.83-.02 5.77-.03 1.93-.01 3.83 0 5.77.03-1.93.04-3.84.03-5.78.04-1.93.02-3.84 0-5.76-.04Zm.06.48c1.92-.04 3.83-.03 5.76-.04 1.94-.02 3.85 0 5.77.04-1.92.03-3.83.02-5.77.03-1.93.01-3.84 0-5.76-.03Z"/><path fill="#FFC727" d="M133.4 59.88h-.87l.49 3.84h.87l-.49-3.84Zm1.5-.94h-.87l.61 4.78h.88l-.61-4.78Zm1.7.49h-.88l.54 4.3h.88l-.55-4.3Zm1.44-1.43h-.88l.73 5.72h.87l-.72-5.72Zm1.72.77h-.88l.63 4.95h.87l-.62-4.95Zm1.4-1.71h-.87l.84 6.66h.88l-.85-6.66Z"/><path fill="#C7C7C7" d="M131.17 56.26c.2 1.24.37 2.48.54 3.72l.5 3.73-.1-.09h5.6c1.86 0 3.74.04 5.6.1-1.87.05-3.74.07-5.6.09-1.86.02-3.74.02-5.6 0h-.1v-.09l-.43-3.73a221.1 221.1 0 0 1-.41-3.73Zm2.78 7.94h-.87l-.02-.08h.88l.01.08Zm1.62 0h-.87l-.01-.08h.88v.08Zm1.63 0h-.88v-.08h.87v.08Zm1.62 0h-.88v-.08h.87l.01.08Zm1.62 0h-.87l-.01-.08h.87l.01.08Zm1.62 0h-.87l-.01-.08h.88v.08Z"/><path fill="#263238" d="m143.47 56.08-.05-.45h-14.08l.05.45h14.08Z"/><path fill="#C7C7C7" d="M130.52 55.86c0 .03.02.05.04.07a.1.1 0 0 0 .08.04l.03-.01a.1.1 0 0 0 .05-.1.12.12 0 0 0-.03-.08.12.12 0 0 0-.08-.03.1.1 0 0 0-.07.04l-.02.03v.04Z"/><path fill="#fff" d="M130.11 55.86a.12.12 0 0 0 .12.11.1.1 0 0 0 .07-.04.1.1 0 0 0 .01-.03v-.04a.12.12 0 0 0-.03-.08.12.12 0 0 0-.08-.03.1.1 0 0 0-.07.03l-.01.04v.04Z"/><path fill="#FFC727" d="m129.7 55.86.04.07c.02.02.05.04.08.04a.1.1 0 0 0 .09-.07.1.1 0 0 0 0-.04.12.12 0 0 0-.11-.11.1.1 0 0 0-.07.03l-.02.04a.1.1 0 0 0 0 .04Z"/><path fill="#DBDBDB" d="m161 86-.63 3.76-4.25 22.95h-.69l3.1-22.95.45-3.76h2.01Z"/><path fill="#C7C7C7" d="M158.98 86h2.01l-.63 3.76h-1.84l.46-3.76Z"/><path fill="#DBDBDB" d="M174.34 112.7h-.69l-4.25-22.94-.63-3.76h2.02l.46 3.76 3.09 22.95Z"/><path fill="#C7C7C7" d="m170.8 86 .44 3.76h-1.84l-.63-3.76h2.02Z"/><path fill="#DBDBDB" d="M187.08 112.7h-.68l-4.25-22.94-.63-3.76h2.01l.46 3.76 3.1 22.95Z"/><path fill="#C7C7C7" d="M184 89.76h-1.85l-.63-3.76h2.01l.46 3.76Z"/><path fill="#DBDBDB" d="M186 87.77h-31.14v-3.29h11.66l3.91-22.79h14.38L186 87.77Z"/><path fill="#C7C7C7" d="M186 87.77h-1.7l-1.1-26.08h1.6l1.2 26.08Z"/><path fill="#D3766A" d="M158.37 115.27c.62-.08 16.13-7.82 16.51-8.47.05-.08-.62-1.5-1.56-3.42a255.36 255.36 0 0 0-6.44-11.74l-9.34 5.25 5.14 9.73s-1.72 2.09-3.13 3.86c-.62.75-1.2 1.54-1.73 2.36-.35.76-.06 2.51.55 2.43Z"/><path fill="#FFC727" d="M158.37 115.27c.62-.08 16.13-7.82 16.51-8.47.05-.08-.62-1.5-1.57-3.42-3.44 2.71-13.07 9.05-13.76 8.38-.27-.27-.2-.75 0-1.27-.62.75-1.2 1.54-1.73 2.36-.35.75-.06 2.5.55 2.42Z"/><path fill="#37474F" d="m160.85 105.76 10.82-5.7s-8.26-16.17-8.04-16.47c.76-.98 9.9-.53 13.86-4.45 4.18-4.16.98-10.07.98-10.07h-10.9s.1 2.95-.38 3.35c-.3.26-16.36 1.8-17 6.04-1.1 7.34 10.66 27.3 10.66 27.3Z"/><path fill="#263238" d="M160.19 103.74c1.3-.78 2.63-1.5 3.97-2.23a124.8 124.8 0 0 1 4.05-2.1c.76-.38 1.55-.72 2.32-1.1.02 0 .04.03.02.04-.68.36-1.33.76-2 1.12l-2 1.07-4.04 2.11a67.27 67.27 0 0 1-2.31 1.14l-.02-.01v-.04Zm-.86-21.94c.27-.56.98-.64 1.51-.77l4.36-1.09c2.57-.64 5.23-1.24 7.53-2.6a6.47 6.47 0 0 0 2.72-2.65c.55-1.18.55-2.46.56-3.71 0-.31-.02-.62-.04-.93 0-.03.04-.03.04 0 .09 1.23.21 2.47-.06 3.7a4.97 4.97 0 0 1-1.95 2.98c-2.04 1.6-4.6 2.36-7.08 3l-4.2 1.04-2.17.53c-.31.04-.62.16-.88.35a.93.93 0 0 0-.27.78c.03.3.1.59.22.86l.4 1.01a123.09 123.09 0 0 0 2.6 5.87 181.5 181.5 0 0 0 3.83 7.64l.48.95c0 .02-.02.04-.03.02-1.41-2.5-2.74-5.05-4-7.63a92.25 92.25 0 0 1-3.45-7.82c-.19-.47-.36-1.05-.12-1.53Z"/><path fill="#D3766A" d="M128.16 115.84c.59.2 17.93 0 18.57-.4.08-.04.09-3.76.09-3.76a665.08 665.08 0 0 0 5.42-12.71l-12.12-.02-4.29 11s-2.46 1.13-4.5 2.11c-.89.4-1.76.86-2.59 1.36-.66.54-1.17 2.23-.58 2.42Z"/><path fill="#FFC727" d="M128.16 115.84c.59.2 17.93 0 18.57-.4.08-.04.1-1.61.09-3.76-4.29.93-15.72 2.43-16.05 1.53-.13-.36.15-.77.56-1.14-.9.4-1.76.85-2.6 1.36-.65.53-1.16 2.22-.57 2.41Z"/><path fill="#37474F" d="m136.72 107.63 13.08-.1s6.58-16.95 7.65-18.08c.54-.6 4.12-1.22 8.44-2.16h.02c1.59-.35 3.27-.74 4.93-1.18 4.32-1.15 8.47-2.67 10.37-4.76 3.95-4.37 0-12.27 0-12.27h-11.15s-.28 3.44.6 5.54c0 0-8.2 1.2-15.11 3.45-3.91 1.25-7.42 2.87-8.78 4.76-2.64 3.73-10.05 24.8-10.05 24.8Z"/><path fill="#263238" d="M138.2 105.67a138.04 138.04 0 0 1 9.1-.22c.86 0 1.72.05 2.57.06l.01.01v.04c-.77.01-1.54.07-2.3.1l-2.26.04c-1.52.03-3.04.04-4.56.05-.86 0-1.71 0-2.57-.03h-.01v-.04l.01-.01Zm37.32-34.97a.9.9 0 0 0 .07.15v.02c.14.45.2.94.35 1.4.13.48.43.9.84 1.2a8.59 8.59 0 0 0 2.93 1.15v.02h-.02a5.48 5.48 0 0 1-3.16-.95c-.41-.3-.7-.75-.83-1.25a7.32 7.32 0 0 1-.15-.8 6.28 6.28 0 0 1-.08-.95l.01-.01a.04.04 0 0 1 .04.01Zm-6.92 3.14c.69.2 1.36.46 2 .77h.03a.56.56 0 0 1-.03-.12l-.02-.15c0-.05 0-.1-.02-.15v-.07a.58.58 0 0 1-.43-.22c-.13-.2-.22-.4-.26-.63a19.8 19.8 0 0 1-.4-1.83 6.21 6.21 0 0 1-.09-1h.03a.04.04 0 0 1 .05.04c.07.3.1.59.16.9a17.9 17.9 0 0 0 .41 1.77c.09.3.15.64.46.73.62.17.34-1.23.31-1.5-.06-.64-.1-1.29-.21-1.92v-.02h.02a.02.02 0 0 1 .02.02c.13.59.3 1.15.4 1.73l.11.87c.05.25.04.5-.05.75a.55.55 0 0 1-.42.3l.02.06c0 .04.03.1.04.14l.04.14a.4.4 0 0 1 .02.17.1.1 0 0 1-.03.04 27.49 27.49 0 0 1 1.75.82c.04.02 0 .07-.02.06a47.22 47.22 0 0 1-2-.77 12.3 12.3 0 0 1-1.91-.9v-.02h.02Z"/><path fill="#263238" d="M150.79 99.34a117.2 117.2 0 0 1 4.63-10.04c.37-.71.71-1.43 1.45-1.82.35-.16.7-.29 1.07-.38l1.31-.34c3.54-.88 7.13-1.63 10.66-2.62a55.9 55.9 0 0 0 5.22-1.72 14.3 14.3 0 0 0 3.91-2.13 6.11 6.11 0 0 0 1.4-1.6c.45-.73 1.47-2.72-.05-8.74 0-.03.03-.05.04-.02 1.2 4.3.95 6.63.73 7.48-.19.73-.52 1.4-.99 2a9.34 9.34 0 0 1-3.44 2.54 37.06 37.06 0 0 1-4.77 1.8c-3.52 1.1-7.12 1.86-10.7 2.71l-2.66.65c-.79.2-1.7.37-2.28 1.01-.26.34-.48.7-.66 1.1a119.65 119.65 0 0 0-1.88 3.77 130.6 130.6 0 0 0-4.9 11.6h-.02l-.02-.02v-.02c.58-1.76 1.25-3.5 1.95-5.21Z"/><path fill="#263238" d="M154.99 94.48c.43-1.27.94-2.52 1.53-3.72.35-.69.74-1.5 1.5-1.8a128.7 128.7 0 0 1 5.22-1.25c.98-.2 1.98-.4 2.98-.51.02 0 .02.04 0 .04-.85.25-1.72.43-2.57.64l-2.52.6c-.83.18-1.71.42-2.57.64-.37.08-.72.27-1 .53-.38.38-2.29 4.55-2.5 4.96-.06.13-.1 0-.07-.13Zm-4.79-14.35a30.77 30.77 0 0 1 4-1.9c1.25-.43 2.53-.78 3.8-1.13a92.45 92.45 0 0 1 10.25-2.18c.75-.13 1.5-.23 2.26-.28.02 0 .03.04 0 .05-.67.16-1.35.26-2.02.38a99.27 99.27 0 0 0-5.95 1.19c-2.6.59-5.21 1.23-7.76 2.04-1.35.43-3.39 1.41-4.53 1.92h-.04a.05.05 0 0 1-.03-.02v-.04c0-.01 0-.03.02-.03Zm26.57-17.43c-.56.6-1.18 1.13-1.86 1.58.83-2.04.02-6.26-.02-5.64-.22 3-1.56 6.44-2.23 6.7a8.1 8.1 0 0 1-5.12-.3c1.12-2.34.4-6.65.35-6.37-.63 2.98-2.56 4.95-2.95 5.01-1.6-1.12-2.54-2.36-2.35-2.51 1.3-1.2 2.15-3.93 2.86-6.78.7-2.82.89-5.42 2.06-8.01 1.1-2.38 3.87-3.22 5.64-2.36 4.64 2.25 4.41 17.84 3.62 18.68Z"/><path fill="#263238" d="M172.84 43.87c.39.13.74.34 1.04.62.31.28.59.58.84.9.49.67.9 1.38 1.24 2.13a18.4 18.4 0 0 1 1.38 4.72c.25 1.62.36 3.25.34 4.89 0 .4-.03.82-.04 1.22l-.08 1.23-.12 1.21-.16 1.22.09-1.22.06-1.22.03-1.22v-1.22c0-1.62-.13-3.25-.39-4.85-.23-1.6-.67-3.17-1.3-4.67-.31-.75-.7-1.46-1.15-2.13a6.7 6.7 0 0 0-1.25-1.31 2.08 2.08 0 0 0-.53-.3Zm-10.5 16.86a25.61 25.61 0 0 0 2.48-5.82c.19-.67.35-1.36.53-2.04.36-1.37.73-2.74 1.18-4.08.22-.67.46-1.34.75-2 .14-.32.3-.64.48-.95.17-.31.4-.59.68-.81-.25.24-.46.53-.6.85-.16.32-.3.64-.43.97-.25.65-.47 1.32-.67 2-.4 1.35-.77 2.71-1.12 4.08-.18.69-.35 1.37-.55 2.07a20.23 20.23 0 0 1-2.73 5.73Z"/><path fill="#D3766A" d="M172.45 56.92c-2.68 5.06-5.04 8.84-6.82 9.48-1.44.51-3.33.65-5.22.61a46.08 46.08 0 0 1-6-.58l-1.48-.26c-.88-.16-.9-6.3-.1-6.86.18-.13.79-.11 1.63 0 2.81.33 8.21 1.57 8.61 1.35.4-.23 4.1-3.41 7.2-5.85 2.12-1.7 3.67-.7 2.18 2.1Z"/><path fill="#D3766A" d="M154.83 66c-.94.18-1.9.28-2.85.33-.75 0-2.92-.05-3-.89-.07-.56 1.21-.68 2.12-.79.47-.05 1.12-.35 1.07-.66-.08-.54-1.31-.37-2.15-.16-1.62.41-3.89 1.34-4.54.39-.24-.36.27-.74.95-1.06-1.05.3-2.12.49-2.4.1a.49.49 0 0 1 .07-.66.64.64 0 0 1-.65-.3c-.2-.38.06-.78.5-1.15a.36.36 0 0 1-.2-.25c-.35-1.1 3.47-2.9 4.6-2.85 2.22.16 4.42.61 6.53 1.37.94 1.32-.05 6.59-.05 6.59Z"/><path fill="#263238" d="M151.09 61.81a5.26 5.26 0 0 0-2.3.2c-.86.3-1.63.81-2.47 1.19h-.01v.03h.03c.4-.2.82-.36 1.23-.55.4-.18.79-.37 1.2-.52.73-.29 1.53-.4 2.32-.33v-.02Zm-.2-1.48c-.89-.04-1.78 0-2.65.15-.95.18-1.8.68-2.63 1.17l-1.47.9c-.02 0 0 .05 0 .04.84-.5 1.7-.98 2.57-1.42a6.9 6.9 0 0 1 2.6-.76c.51-.05 1.03-.05 1.55-.06.04 0 .04-.02.03-.02Zm-.54-1.4a6.6 6.6 0 0 0-2.4.1c-.94.3-1.83.71-2.67 1.23-.45.27-.88.56-1.34.86-.01 0 0 .04.03.03 1-.64 2.03-1.2 3.1-1.7.5-.25 1.04-.42 1.6-.5a9.63 9.63 0 0 1 1.68-.02Z"/><path fill="#FFC727" d="m165.52 57.4 5.51 2.2a44.2 44.2 0 0 0 2.52-3.9c1.03-1.96.54-2.8-1.98-1.82-1.7.66-6.05 3.51-6.05 3.51Z"/><path fill="#263238" d="m170.36 59.33.68.25.59-.87.3-.43.33-.47c0-.02.05 0 .03.02l-.3.5c-.08.16-.17.3-.28.43-.2.3-.42.64-.63.93-.26-.1-.5-.2-.74-.34l.02-.02Z"/><path fill="#263238" d="M166.3 57.1a47.04 47.04 0 0 1 3.64 1.34c.4.17.78.38 1.18.54.03 0 0 .04-.01.04-.39-.19-.8-.32-1.2-.48l-1.21-.48c-.8-.32-1.61-.64-2.42-.93-.03-.01-.01-.04.01-.04Z"/><path fill="#FFC727" d="m167.36 70.54 15.67 1.26s-4.01-13.67-7.24-17.12c-1.47-1.57-2.9-1.33-4.13-.32-.3.25-4.07 5.03-4.38 6.7-.3 1.47.91 3.1.91 3.1l-.83 6.38Z"/><path fill="#263238" d="M169.68 56.9c-.47.75-.98 1.47-1.47 2.22-.25.37-.47.75-.66 1.15-.2.4-.32.82-.33 1.27a2.59 2.59 0 0 1 .23-1.32c.18-.4.4-.8.64-1.17.23-.34.46-.69.7-1.02l.13-.34c.07-.17.15-.33.25-.49-.05.18-.11.35-.19.51l-.06.14.76-.95Zm2.72 6.94a12.43 12.43 0 0 0-3.14.5c-.15.04-.31.06-.47.06v.02a3.02 3.02 0 0 0 .88-.04l.9-.18c.6-.12 1.21-.24 1.83-.31a.03.03 0 0 0 .01-.03v-.01l-.01-.01Zm1.46.62c-.5-.08-1-.14-1.5-.16h-.75l-.36.02c-.13 0-.26.03-.4.04v.02l.38.02h.38l.75.03a51.43 51.43 0 0 1 1.5.05v-.02Z"/><path fill="#D3766A" d="M176.37 54.94c3.9 3.51 9.43 9.66 7.84 11.56-2.63 3.12-11.42 6.27-13.46 6.91-.88.27-3.76-5.26-3.3-6.13.46-.87 9.94-3.18 9.9-3.79-.02-.34-1.34-3.05-2.93-6.44-1.85-3.9.83-3.12 1.95-2.11Z"/><path fill="#D3766A" d="M168.93 66.5s-2.76.48-4.54.88c-1 .22-2.67.76-3.33 1.26-.98.75-4.61 4.51-3.72 5.41.81.82 3.52-2.81 3.52-2.81s-3.06 3.42-1.9 4.22c1.15.8 3.66-3.7 3.66-3.7s-3.06 3.58-1.74 4.22c1 .48 3.5-3.47 3.5-3.47s-2.6 3.1-1.6 3.63c1.11.6 3.65-2.9 3.65-2.9 2.79.94 4.5.25 5.66-.38.28-.14-3.16-6.37-3.16-6.37Z"/><path fill="#263238" d="M161.84 70.01c-.38.39-.76.78-1.1 1.2-.33.42-.66.85-.95 1.3a9.1 9.1 0 0 0-1 1.86 19.9 19.9 0 0 1 2.07-3.07l1-1.28-.02-.01Zm1.54 1.2c-.46.52-.93 1.01-1.36 1.55-.43.54-.8 1.08-1.18 1.64-.03.04 0 .05.03 0 .42-.54.84-1.02 1.26-1.56.42-.54.83-1.1 1.27-1.62 0-.01-.02-.03-.03-.01Zm1.5.78a15.2 15.2 0 0 0-1.9 2.53c-.02.04 0 .04.05 0 .62-.86 1.1-1.53 1.88-2.5.01-.02 0-.05-.03-.03Z"/><path fill="#FFC727" d="m181.34 59.4-5.84 1.05a44.72 44.72 0 0 1-1.68-4.33c-.6-2.13.04-2.85 2.31-1.38 1.52.98 5.21 4.65 5.21 4.65Z"/><path fill="#263238" d="m176.21 60.32-.71.1-.4-.96-.22-.49c-.07-.15-.16-.38-.24-.53 0-.03-.04-.01-.03 0l.2.55c.06.18.12.32.19.48.13.34.27.71.42 1.04.27-.04.54-.1.8-.18h-.01Z"/><path fill="#263238" d="M180.65 58.94a47.28 47.28 0 0 0-3.85.59c-.42.08-.84.21-1.26.3h-.01l-.01.01v.01h.02c.42-.1.85-.14 1.28-.21l1.27-.23c.86-.15 1.7-.3 2.56-.42.03-.01.02-.05 0-.05Z"/><path fill="#D3766A" d="M173.73 54.17c-.02.3-1.01 2.27-2.27 2.42-.4.05-.78-2.17-.78-2.17l-.06-.15-.9-2.2 2.4-2.2.34-.29.46 1.4.04.1.04.13.11.35.09.27.08.3c.2.67.35 1.35.45 2.04Z"/><path fill="#263238" d="M172.92 50.98a4.8 4.8 0 0 1-2.3 3.29l-.9-2.2 2.4-2.2.34-.29.46 1.4Z"/><path fill="#D3766A" d="M166.09 48.68c-.25 4.18 2.22 4.8 3.13 4.85.81.04 3.6.1 4.27-4.03.68-4.13-1.18-5.56-3.05-5.76-1.88-.2-4.11.77-4.35 4.94Z"/><path fill="#263238" d="M166.72 48c.1 0 .19-.03.3-.05.1 0 .2-.04.27-.1a.15.15 0 0 0 0-.19.38.38 0 0 0-.36-.1.54.54 0 0 0-.34.18.16.16 0 0 0 .04.24l.09.02Zm2.81.26h-.3c-.1.01-.2 0-.3-.06a.15.15 0 0 1-.04-.08v-.1c.05-.05.1-.1.16-.12a.37.37 0 0 1 .19-.04c.13 0 .26.04.37.12l.05.07v.1c0 .02-.03.05-.05.07a.16.16 0 0 1-.08.04Zm-.64.84s.02 0 .02.02c-.03.3 0 .62.24.73v.01c-.31-.06-.34-.5-.26-.76Z"/><path fill="#263238" d="M169.16 48.8c.45 0 .44.91.01.92-.42.01-.4-.9-.01-.92Z"/><path fill="#263238" d="M169.33 48.86c.07.06.15.15.25.16.1.02.2-.08.27-.17h.02c0 .18-.07.35-.27.38-.19.02-.29-.14-.33-.32 0-.02.03-.07.06-.05Zm-2.03.14s-.02 0-.02.03c0 .3-.03.6-.3.7v.02c.32-.05.38-.48.32-.75Z"/><path fill="#263238" d="M167.05 48.7c-.46-.04-.5.89-.08.92.43.03.47-.89.08-.92Z"/><path fill="#263238" d="M166.86 48.75c-.08.05-.15.13-.24.13-.08 0-.17-.1-.23-.2 0 .18.04.36.2.4.17.05.28-.1.33-.27 0-.03-.03-.08-.06-.06Zm.85 1.62s-.07.42-.07.62c0 .02.04.03.11.03a.95.95 0 0 0 .94-.32c0-.02 0-.04-.03-.03-.26.17-.57.25-.89.22 0-.06.15-.72.12-.72-.16 0-.31.03-.46.09.13-.89.4-1.75.5-2.63v-.02h-.02a.03.03 0 0 0-.03.02c-.31.9-.53 1.85-.66 2.8 0 .1.41-.04.5-.06Zm5.45-.57c-.45-.06-1.5-1.42-1.34-3.61 0 0-.01 1.98.1 2.28.13.3-.58-.76-.47-2.53-.6.34-1.24.6-1.9.77-.86.15-1.37.1-1.42.03-.05-.07 1.2-.34 1.58-.69 0 0-2.32.82-3.34.8-.12 0-.03-2.44 1.64-3.32 1.68-.88 4.07.47 4.68 1.18 0 0 .78.19 1.53 1.43.74 1.25-.57 3.74-1.06 3.66Z"/><path fill="#D3766A" d="m173.41 51.04-.19.06a.64.64 0 0 1-.2 0 .57.57 0 0 1-.24-.07.72.72 0 0 1-.32-.35l.2-1.13s.88-1.33 1.47-1.02c.59.31-.03 2.23-.72 2.51Z"/><path fill="#263238" d="M173.94 49.1v.01a1.8 1.8 0 0 0-.89 1.15.4.4 0 0 1 .59-.12v.02a.44.44 0 0 0-.47.17c-.09.12-.16.25-.22.4-.02.04-.1.02-.09-.03-.05-.65.41-1.53 1.08-1.6Z"/><path fill="#fff" d="M173.35 50.87a.2.2 0 0 1-.05.1.2.2 0 0 1-.2.05.2.2 0 0 1-.1-.29.2.2 0 0 1 .08-.07.2.2 0 0 1 .24.06.2.2 0 0 1 .03.15Zm.4-.3-.01.06-.04.04a.14.14 0 0 1-.11.03.14.14 0 0 1-.06-.02.13.13 0 0 1-.06-.1v-.06l.07-.08a.14.14 0 0 1 .1-.03c.03 0 .07.03.09.06.02.03.03.07.02.1Z"/><path fill="#A6A6A6" d="M117.37 112.54c.51-.35 10.61-13.76 10.67-14.51.02-.3-1.84-1.88-4.16-3.72l-.07-.06-6.61 8.58.15.1s-1.57 6.87-1.55 7.7c.02.84 1.06 2.27 1.57 1.91Z"/><path fill="#263238" d="M116.96 112a445 445 0 0 1 10.32-13.59c.02-.02.03 0 .02 0a453.6 453.6 0 0 1-10.29 13.6c-.05.06-.08.04-.05-.01Zm-.13-8.32c.5-1.01 1.46-2 2.6-2.2.05 0 .06.05.03.08a15.7 15.7 0 0 0-2.56 2.22l-.05-.01a.06.06 0 0 1-.03-.04v-.05Zm-.1.94c.5-1.02 1.46-2 2.6-2.2.05 0 .06.05.03.07a15.67 15.67 0 0 0-2.56 2.23c-.02 0-.03 0-.05-.02a.07.07 0 0 1-.02-.03v-.05Zm-.09.93c.5-1.02 1.46-2 2.6-2.2.05 0 .06.05.02.07a15.57 15.57 0 0 0-2.55 2.24l-.06-.01a.08.08 0 0 1-.03-.05c0-.02 0-.04.02-.05Z"/><path fill="#37474F" d="M110.72 79.17c.59 3 13 14.91 13 14.91l-8.64 9.98S97.48 86.5 98.39 79.88c.8-5.74 9.4-28.83 9.4-28.83h9.92s-7.59 25.17-7 28.12Z"/><path fill="#263238" d="M110.72 79.17c.59 3 13 14.91 13 14.91l-8.64 9.98S97.48 86.5 98.39 79.88c.8-5.74 9.4-28.83 9.4-28.83h9.92s-7.59 25.17-7 28.12Z"/><path fill="#37474F" d="M114.1 101.69c1.14-1.43.8-1.04 1.96-2.45.57-.7 4.31-5.25 4.96-5.8 0-.02.04 0 .03.02-.43.73-4.26 5.22-4.84 5.9-1.18 1.4-.87.98-2.07 2.36l-.02.01h-.02v-.04Zm-4.63-23.98a198.12 198.12 0 0 1 3.82-15.7c.85-2.96 1.74-5.93 2.77-8.84l.39-1.07v-.02h.03l.01.02c-.88 2.9-1.8 5.82-2.65 8.75A233.2 233.2 0 0 0 110 76.31c-.2.74-.33 1.5-.42 2.26-.02.72.19 1.44.6 2.04.36.6.8 1.18 1.22 1.75.85 1.15 8.92 10.15 9.18 10.4.03.01 0 .04-.03.02-1.08-.97-7.93-8.38-8.8-9.53-.43-.57-.85-1.14-1.26-1.73a6.92 6.92 0 0 1-.99-1.73c-.18-.68-.2-1.4-.03-2.08Z"/><path fill="#37474F" d="m109.5 51.05 1.8 23.63c1.73-8.09 6.41-23.63 6.41-23.63h-8.2Z"/><path fill="#EB9481" d="m113.76 99.71-2.14 10.43c-.03 2.1-.09 3.95-.21 4.9v.01c0 .23-.07.45-.17.65-.63.41-17.42.67-18 .49-.6-.19-.1-1.88.54-2.42.64-.53 7.03-3.5 7.03-3.5l2.24-10.42 10.71-.14Z"/><path fill="#EBEBEB" d="M93.22 116.2c.59.18 17.38-.08 18-.49v-.01a1.44 1.44 0 0 0 .17-.67c.13-.94.19-2.78.22-4.89l.36-1.8h-10.75l-.42 1.94s-6.38 2.98-7.03 3.5c-.65.53-1.14 2.25-.55 2.41Z"/><path fill="#A6A6A6" d="M93.22 116.2c.6.19 17.38-.08 18-.5.25-.14.36-2.6.4-5.56v-.09l-10.83.05v.18s-6.38 2.98-7.03 3.5c-.65.54-1.13 2.25-.54 2.42Z"/><path fill="#263238" d="M93.4 115.54a471.23 471.23 0 0 1 17.05-.18c-2.8.17-14.22.27-17.05.23-.06 0-.06-.04 0-.05Zm6.49-5.21c1.1-.22 2.47-.08 3.33.7.04.03 0 .08-.04.07a15.68 15.68 0 0 0-3.34-.65.07.07 0 0 1 .05-.12Zm-.8.5c1.1-.23 2.47-.08 3.34.7.03.03 0 .08-.05.07a15.56 15.56 0 0 0-3.33-.65l-.02-.02a.07.07 0 0 1 .01-.08l.02-.02h.03Zm-.79.49c1.1-.22 2.47-.07 3.33.7.04.04 0 .09-.05.08a15.63 15.63 0 0 0-3.33-.65.07.07 0 0 1-.02-.05l.01-.05a.07.07 0 0 1 .05-.03Zm10.45-60.27c.38 1.63.67 3.28.85 4.95.2 2.06.47 3.91.74 4.13.28.21 1.88 1.26 2.41 1.59 0 0-4.89 14.81-6.15 19.75-1.82 7.17-6.2 28.66-6.2 28.66h11.66s3.54-20.45 5.1-27.27c1.33-5.84 6.43-23.37 6.43-23.37a10.18 10.18 0 0 0-.42-8.43l-14.42-.01Z"/><path fill="#37474F" d="M100.81 107.85c1.84 0 1.31-.03 3.15-.02.88 0 6.78.04 7.63.2.02 0 .02.03 0 .04-.84.12-6.74-.02-7.64-.05-1.83-.04-1.3-.05-3.14-.11l-.01-.01-.01-.02v-.02h.02Zm8.71-48.29c1.13.62 2.2 1.34 3.22 2.15.03.03 0 .1-.05.07-1.09-.69-2.2-1.35-3.26-2.1a.08.08 0 0 1-.03-.04v-.06a.08.08 0 0 1 .12-.02Zm.88-8.06c0-.05.09-.04.08 0-.2 1.3-.34 2.62-.42 3.94-.03.6-.07 4 1.02 3.93.18-.02.3-.17.36-.43.05-.35.06-.7.02-1.04 0-.72 0-1.43.06-2.15a19.31 19.31 0 0 1 .67-3.95.03.03 0 0 1 .04.01v.03a36.8 36.8 0 0 0-.52 5.48c0 .89.23 2.26-.7 2.25-.92 0-1.2-2.28-1.21-2.9a20.2 20.2 0 0 1 .6-5.18Z"/><path fill="#37474F" d="M111.04 59.45c.06.24.1.49.13.73.03.2.03.4 0 .59l-.02.02h-.04l-.02-.02a2.01 2.01 0 0 1-.16-.59c-.04-.23-.1-.45-.13-.68v-.05c0-.01 0-.03.02-.04a.13.13 0 0 1 .17-.03c.03.01.04.04.05.07Zm10.89-.05c-1-.06-2-.25-2.95-.56a6.98 6.98 0 0 1-2.86-1.77 5.67 5.67 0 0 1-1.1-1.54c0-.02-.05 0-.04.02a5.11 5.11 0 0 0 2.04 2.74 6.64 6.64 0 0 0 4.94 1.22c.05-.02.03-.1-.03-.11Zm-8.51 42.02.1-.8.25-1.55a151.62 151.62 0 0 1 1.76-9.26c.24-1.16.53-2.3.84-3.45.03-.08.14-.04.13.04-.2 1.04-.37 2.1-.6 3.13l-.63 3.11c-.4 2.07-.78 4.12-1.19 6.17l-.33 1.74c-.06.29-.11.58-.18.86-.06.3-.15.57-.2.87 0 .02-.04.01-.04-.02.05-.27.06-.56.09-.84Zm-8.05-15.5c.4-1.94.92-3.85 1.44-5.75 1.06-3.83 2.31-7.6 3.56-11.37l1.07-3.27c.18-.54 1.06-3.47 1.18-3.75l.02-.01h.02v.01l.01.02c-.25 1-.59 2.45-.88 3.44l-.9 2.92c-.6 1.9-1.21 3.81-1.78 5.73a210.27 210.27 0 0 0-3.2 11.42c-.27 1.08-.52 2.15-.76 3.24-.24 1.09-.44 2.17-.67 3.24v.02a.03.03 0 0 1-.05 0v-.02c.16-1.98.55-3.93.94-5.87Z"/><path fill="#37474F" d="M112.63 96.05a211.93 211.93 0 0 1 8.59-32.7 45.04 45.04 0 0 0 1.59-5.11c.38-1.73.58-3.6.17-5.33-.1-.45-.23-.88-.4-1.3 0-.03.03-.05.05-.02 1.4 3.27.49 6.84-.6 10.06-.58 1.77-1.2 3.52-1.78 5.3a232.52 232.52 0 0 0-4.67 16.42c-.9 3.68-1.7 7.37-2.4 11.1-.7 3.72-1.3 7.48-1.9 11.23l-.2 1.47c0 .03-.05.03-.04 0 .46-3.73.95-7.43 1.59-11.12Z"/><path fill="#EB9481" d="M112.87 35.56c-1.38 5.01-5.33 11.07-7.21 11.9-1.64.73-9.23-2.08-12.09-3.9-.82-.52 2.56-5.22 3.54-4.9 3.2 1.08 6.7 2.66 6.97 2.56.54-.18 3.95-4.36 6.43-7.17 2.77-3.14 2.9-.5 2.36 1.5Zm-24.74 3.75c-.64-.27-5.61-.43-5.61-1.5 0-1.08 6.32-.78 6.32-.78l-.7 2.28Z"/><path fill="#EB9481" d="M97.68 39.44c-.87-1.08-1.63-2.25-2.39-2.46-.52-.15-6.15.1-7.03.04-.88-.05-4.01.03-4.09.8-.1 1.09 3.61 1.08 4 1.64 1.38 1.92 6.58 4.77 6.58 4.77l2.93-4.8Z"/><path fill="#263238" d="M84.08 37.84a.8.8 0 0 1 .36-.49c.4-.22.87-.34 1.34-.33a12.38 12.38 0 0 1 2.06 0 15.87 15.87 0 0 0-2.94.28c-.2.06-.39.17-.53.32a.44.44 0 0 0-.1.42c.14.47 1.08.61 1.51.7.57.14 1.15.25 1.72.36.03 0 0 .05 0 .04-.59-.12-1.21-.16-1.8-.27-.5-.05-.97-.22-1.38-.5a.54.54 0 0 1-.2-.23c-.04-.1-.06-.2-.04-.3Z"/><path fill="#FFC727" d="m97.88 38.78-4.45 6.52s6.9 3.45 9.56 3.39c2.51-.06 3.42-.43 4.22-1.18.48-.46 3.28-4.42 5.56-10.97 1.92-5.5-.92-4.69-3.44-1.64-1.26 1.52-5.28 6.04-5.48 6.03-.2-.02-5.97-2.15-5.97-2.15Z"/><path fill="#263238" d="M99.26 39.83a86.01 86.01 0 0 0-3.74 5.97c-.02.02.04.06.06.04a100.55 100.55 0 0 0 3.7-5.97c.01-.04-.01-.05-.02-.04Z"/><path fill="#000" d="M101.64 48.53c.44.1.88.16 1.33.16 2.52-.06 3.43-.43 4.22-1.18.49-.46 3.29-4.42 5.56-10.97.36-.9.58-1.87.64-2.84v-.18l-.02-.17-.02-.13a.95.95 0 0 0-.28-.54c-1.53 2.08-8.85 11.94-11.43 15.85Z" opacity=".1"/><path fill="#C7C7C7" d="M102.17 36.1H85.3v.9h16.88v-.9Z"/><path fill="#A6A6A6" d="M85.29 36.1v.9h10.25l-.7-.9H85.3Z"/><path fill="#C7C7C7" d="M94.1 37H82.8l-5.87-9.98h11.3L94.1 37Z"/><path fill="#fff" d="M85.94 32c.21.46.05.95-.35 1.08a.96.96 0 0 1-1.1-.59c-.22-.46-.06-.94.34-1.08a.97.97 0 0 1 1.11.59Z"/><path fill="#EBEBEB" d="M124.26 54.49c-.04.04-17.69-.09-17.84-.27-.22-.25 3.96-19.33 5.8-21.67.38-.5 1.66-.63 2.75-.48.28.03.56.1.83.18h.03c.22.07.43.17.61.3 3 2.45 5.45 10.92 6.02 13.45.94 4.19 1.95 8.32 1.8 8.49Z"/><path fill="#FFC727" d="M116.02 32.3s-1.15 7.84-1.42 9.87c-.27 2.04-.02 12.79-.02 12.79l11.07.93s-2.32-7.14-2.34-7.6c0 0-1.84-8.57-3.73-12.11a10.73 10.73 0 0 0-3.56-3.89Zm-3.69.13-1.63 8.6c-.13.65-2.04 13.56-2.04 13.56l-2.77.06 1.5-5.9s3.21-15.1 4.94-16.32Z"/><path fill="#EB9481" d="M112.96 34.97c.84.1 2.43-1.07 2.88-2.32.02-.08-.23-.88-.48-1.88-.16-.6-.31-1.28-.42-1.9-.01-.14-3.77 1.57-3.77 1.57.34.75.6 1.54.75 2.36v.3c.02.5.14 1.77 1.04 1.87Z"/><path fill="#263238" d="M111.94 33.05v.04a3 3 0 0 0 .4-.04c2.3-.42 2.46-3.41 2.46-4.16a62.2 62.2 0 0 0-3.64 1.55c.35.75.6 1.54.76 2.36.02.08.02.17.02.25Z"/><path fill="#EB9481" d="M114.9 23.86c.6 1.35.38 5.5-.5 6.52-1.29 1.47-3.64 1.91-4.97.32-1.29-1.55-.88-6.94.12-7.9 1.49-1.42 4.46-.93 5.35 1.06Z"/><path fill="#263238" d="M111.24 26.8s.03 0 .03.02c-.03.28 0 .6.24.7v.02c-.33-.05-.35-.49-.27-.74Z"/><path fill="#263238" d="M111.5 26.52c.44 0 .43.88.02.9-.42.02-.4-.9-.03-.9Zm-1.84.26s-.03 0-.03.03c0 .28-.03.59-.3.69 0 0 0 .01 0 0 .33-.03.38-.45.33-.72Z"/><path fill="#263238" d="M109.41 26.49c-.45-.04-.5.86-.08.88.42.03.46-.85.08-.88Zm2.44-.39a3.54 3.54 0 0 1-.34-.13.59.59 0 0 1-.33-.2.19.19 0 0 1 .03-.22.47.47 0 0 1 .48-.05c.16.05.3.15.4.3a.2.2 0 0 1-.02.23.2.2 0 0 1-.22.07Zm-2.78-.37.36-.09a.6.6 0 0 0 .35-.16.2.2 0 0 0 0-.23.47.47 0 0 0-.47-.1.7.7 0 0 0-.43.27.2.2 0 0 0 .08.3.2.2 0 0 0 .1.01Zm2.25 2.81a.95.95 0 0 1-.64.42 1.2 1.2 0 0 1-.34 0h-.13a.07.07 0 0 1-.05-.07v-.05l.02-.54c-.08.04-.49.21-.48.1a14.35 14.35 0 0 1 .43-2.89h.02v.02c-.02.88-.2 1.77-.25 2.68.14-.07.3-.1.45-.13.03 0-.06.63-.05.73a1.32 1.32 0 0 0 .99-.3c.02-.01.05 0 .03.03Z"/><path fill="#263238" d="M110.47 28.86c.11.15.27.28.44.36.1.04.21.04.31.02.23-.06.23-.26.2-.44l-.1-.27c-.24.2-.54.31-.85.33Z"/><path fill="#FF9ABB" d="M110.91 29.22c.1.04.21.04.31.02.23-.06.23-.26.2-.44a.53.53 0 0 0-.5.42Z"/><path fill="#263238" d="M109.77 21.49h-.07.02a.2.2 0 0 0 .05 0Zm5.6 1.39a4.62 4.62 0 0 0-1.79-.69l-.15-.04-.02-.01v-.03h.11a.64.64 0 0 1-.04-.05c.32.06.64.14.95.24.36.1.68.3.94.58Zm-5.64-1.43-.03-.02h.05l-.02.02Zm2.17-.05h-.05l-.07-.05-.33-.2.2.08.17.07.1.08v.02h-.02Z"/><path fill="#263238" d="M116.1 23.78c-.23-.81-.9-1.24-1.65-1.48.35.11.67.3.93.57a4.62 4.62 0 0 0-1.78-.69l-.16-.03s-.02 0-.02-.02v-.02l.01-.01h.1a.64.64 0 0 1-.04-.05c-.31-.31-1.18-1.18-1.77-1.33-.32-.08-.4.08-.2.34l.3.2.1.08.01.01a.03.03 0 0 1 0 .03h-.06l-.07-.05-.32-.2c-.68-.24-1.42-.43-1.87-.3-.56.16-.26.42.1.61h.06a.2.2 0 0 0 .05.03h-.07c-.07 0-.14-.02-.2-.03h-.08c-.26 0-.5.09-.71.25-.28.25-.03.35.41.37-.49.9-.52 2.36-.45 3.37.07-.67.43-1.67.8-1.77.37-.1.5.42.96.5.45.1.88-.6 1.7-.51.82.1 1.38.91 1.6 2 .24 1.26.5 1.98 1.3 1.9.26-.03.48-.89.59-1.41a2.92 2.92 0 0 0 .44-2.36Zm-.37 2.02v.02l.01-.05v-.04c.29-.86.22-1.79-.17-2.6-.05-.08-.1-.17-.18-.24.33.24.56.6.65 1 .14.65.03 1.34-.31 1.91Z"/><path fill="#263238" d="M109.77 21.49h-.07c-.07 0-.14-.02-.2-.03h.24l.03.03Zm2.13-.09h-.05l-.07-.05a2.78 2.78 0 0 1-.25-.25l.3.2.1.08a.03.03 0 0 1-.03.03Zm1.7.79-.17-.05v-.03h.1l.07.08Z"/><path fill="#263238" d="M115.37 22.88a4.62 4.62 0 0 0-1.79-.69l-.15-.04-.02-.01v-.02l.01-.01h.1c.3.03.61.1.91.19.36.1.68.3.94.58Zm-5.6-1.39h-.07c-.07 0-.14-.02-.2-.03h-.03c-.29-.01-.58.04-.85.15.32-.17.7-.22 1.06-.15h.05c.02 0 .03.02.04.03Z"/><path fill="#EB9481" d="M114.3 27.34s.78-1.41 1.4-1.15c.64.27.15 2.24-.52 2.57a.71.71 0 0 1-1-.28l.12-1.14Z"/><path fill="#263238" d="M115.55 26.76s.02 0 0 .01a1.83 1.83 0 0 0-.8 1.23.39.39 0 0 1 .24-.22.4.4 0 0 1 .33.05v.02a.44.44 0 0 0-.47.2c-.07.14-.14.28-.19.42-.01.05-.1.03-.08-.02-.1-.63.31-1.56.97-1.7Z"/><path fill="#EB9481" d="M118.24 34.1c4.44 4.97 7.78 12 7.75 13.66-.05 1.82-2.36 8.22-4.57 11.24-.3.38-2 .22-3.45-.58-1.54-.84-2.8-2.36-2.5-2.8 1.14-1.68 3.82-8.2 3.8-9.23-.03-.94-2.23-6.71-3.06-10.05-.81-3.21-.03-4.56 2.03-2.24Z"/><path fill="#FFC727" d="m124.12 58.5-8.27-4.04s3.24-7.25 3.26-8.04c0-.78-2.14-6.92-2.95-9.75-.81-2.84-.5-6.02 3.05-1.73 3.53 4.3 6.61 10.67 6.96 12.36.35 1.7-2.05 11.2-2.05 11.2Z"/><path fill="#263238" d="M118.68 44.34a79.97 79.97 0 0 0-1.17-3.4c-.21-.59-.45-1.14-.68-1.71-.02-.04-.09-.02-.08.03.28.76.53 1.53.8 2.3l-.6-1.04c-.02-.03-.06 0-.04.02.23.43.47.85.72 1.26l.19.56c.34 1.04.68 2.06.98 3.13a2.27 2.27 0 0 1 .02 1.54 56.77 56.77 0 0 1-3.08 7.47 11.13 11.13 0 0 0 .33.07 2.2 2.2 0 0 0-.2-.1c.52-.9 1.01-1.8 1.45-2.74a35.35 35.35 0 0 0 1.67-4.38c.18-.47.23-.98.14-1.48-.1-.52-.3-1.02-.45-1.53Zm5.57 11.83c-.29-.16-.6-.3-.9-.42l-.8-.38-1.78-.8-1.77-.79c-.59-.25-1.17-.53-1.77-.76h-.01l-.01.01v.03c.56.34 1.14.62 1.72.91a43.22 43.22 0 0 0 3.5 1.56l.9.34c.3.13.61.24.94.33-.02 0 0-.03-.02-.03Z"/><path fill="#FFFEFD" d="M26.58 41.05a3.51 3.51 0 0 1-.59-1.95c0-2.46 2.7-4.46 6.04-4.46s6.05 2 6.05 4.46c0 2.47-2.7 4.47-6.05 4.47a7.25 7.25 0 0 1-4.16-1.24l-2.09.53.8-1.81Z"/><path fill="#263238" d="M26.58 41.05a3.44 3.44 0 0 1-.16-3.75c.33-.58.79-1.08 1.33-1.47.54-.4 1.13-.7 1.77-.9a8.1 8.1 0 0 1 3.92-.31c1.33.2 2.57.8 3.54 1.73a4.2 4.2 0 0 1 1.07 1.7c.2.65.2 1.36.01 2.01-.2.65-.55 1.24-1.03 1.72a5.9 5.9 0 0 1-1.63 1.16 7.8 7.8 0 0 1-3.88.7 7.2 7.2 0 0 1-3.72-1.25h.06l-2.08.52-.07.01.03-.06.84-1.81Zm0 0-.78 1.83-.04-.05 2.06-.56h.03l.03.02a7.1 7.1 0 0 0 3.64 1.18 7.93 7.93 0 0 0 3.75-.73c.58-.28 1.1-.65 1.55-1.1.45-.46.78-1 .96-1.62a3.2 3.2 0 0 0-.02-1.85c-.2-.6-.54-1.14-.99-1.59a6.32 6.32 0 0 0-3.39-1.66 8.06 8.06 0 0 0-3.83.24 5.48 5.48 0 0 0-3.05 2.23 3.44 3.44 0 0 0-.51 1.84c.03.65.23 1.28.59 1.82Z"/><path fill="#263238" d="M34.2 39.1a.63.63 0 1 0 1.25 0 .63.63 0 0 0-1.25 0Zm-2.8 0a.63.63 0 1 0 1.25 0 .63.63 0 0 0-1.25 0Zm-2.8 0a.63.63 0 1 0 1.25 0 .63.63 0 0 0-1.26 0Z"/><path fill="#FFFEFD" d="M40.48 19.65c.39-.58.59-1.25.6-1.94 0-2.47-2.71-4.47-6.06-4.47-3.34 0-6.04 2-6.04 4.47 0 2.46 2.7 4.46 6.04 4.46 1.49.02 2.94-.4 4.18-1.24l2.08.53-.8-1.8Z"/><path fill="#263238" d="M40.48 19.65c.35-.55.55-1.19.57-1.84 0-.65-.18-1.29-.51-1.84a5.48 5.48 0 0 0-3.06-2.24 8.1 8.1 0 0 0-3.83-.24c-1.27.2-2.45.78-3.39 1.67-.45.44-.79.99-.98 1.59-.2.6-.2 1.24-.03 1.85.19.6.52 1.16.96 1.6.45.46.98.84 1.55 1.12a8.1 8.1 0 0 0 3.75.73 7.1 7.1 0 0 0 3.64-1.18l.03-.02h.03l2.06.56-.04.05-.75-1.8Zm0 0 .84 1.8.03.06-.07-.01-2.09-.5h.06a7.76 7.76 0 0 1-7.59.56 5.84 5.84 0 0 1-1.63-1.15A4.16 4.16 0 0 1 29 18.69a3.4 3.4 0 0 1 .02-2.02 4.2 4.2 0 0 1 1.07-1.7 6.58 6.58 0 0 1 3.54-1.73 8.26 8.26 0 0 1 3.93.3c.63.21 1.22.52 1.76.91.55.4 1 .9 1.33 1.48a3.45 3.45 0 0 1-.16 3.74v-.02Z"/><path fill="#263238" d="M32.86 17.7a.63.63 0 1 1-1.25 0 .63.63 0 0 1 1.25 0Zm2.8 0a.63.63 0 1 1-1.25 0 .63.63 0 0 1 1.25 0Zm2.81 0a.63.63 0 1 1-1.26 0 .63.63 0 0 1 1.26 0Z"/></svg>