<svg xmlns="http://www.w3.org/2000/svg" viewBox="0 0 36.46 36.45"><path d="M14,6.72a5.92,5.92,0,0,1,.83.83,21.64,21.64,0,0,0,4,4.9c.75.64,1.53,1.25,2.3,1.86a5.16,5.16,0,0,1,2,5.48,5.14,5.14,0,0,1-4.12,4.05,4.68,4.68,0,0,1-1,.1A1.06,1.06,0,0,1,17,22.89a1.09,1.09,0,0,1,1.1-1.08,3.15,3.15,0,0,0,3.13-2.76,3,3,0,0,0-1.27-3,29.31,29.31,0,0,1-4.41-3.92l-.69-.8v.48c0,5.46,0,10.92,0,16.38A4.27,4.27,0,0,1,6.35,29a2,2,0,0,0-.07-.23V27.65a1.55,1.55,0,0,0,.07-.23A4.26,4.26,0,0,1,11.29,24a11.26,11.26,0,0,1,1.4.44v-.4c0-5.32,0-10.63,0-15.95a1.35,1.35,0,0,1,.79-1.4Z" transform="translate(-6.28 -6.72)" style="fill:#fff"/><path d="M40.59,30.92V22.17l-13,3.66v13a4.28,4.28,0,1,1-5-4.15,4.13,4.13,0,0,1,2.59.37l.29.14V21.05c0-.89.21-1.17,1.05-1.4L41.18,15.5a1.1,1.1,0,0,1,1.55,1.18c0,6,0,12,0,17.94A4.27,4.27,0,0,1,34.43,36a4.23,4.23,0,0,1,1.21-4.6,4.17,4.17,0,0,1,4.61-.67Z" transform="translate(-6.28 -6.72)" style="fill:#fff"/></svg>