<svg xmlns="http://www.w3.org/2000/svg" width="77" height="144" fill="none"><path fill="#FFC727" d="M69.86 0H6.44A6.48 6.48 0 0 0 0 6.53v130.6a6.48 6.48 0 0 0 6.42 6.53h63.44a6.48 6.48 0 0 0 6.42-6.54V6.53A6.48 6.48 0 0 0 69.86 0Zm2.4 133.1c0 3.43-2.57 6.21-5.74 6.21H9.76c-3.18 0-5.75-2.78-5.75-6.22V11.5c0-7 2.57-7.35 5.75-7.35h11.37c.66 0 1.2.75 1.2 1.68v.4c0 2.19 1.2 2.19 2.66 2.19h26.3c1.47 0 2.65 0 2.65-2.2v-.39c0-.93.54-1.68 1.2-1.68h11.38c3.17 0 5.75.93 5.75 7.35v121.6Z"/><path fill="#fff" d="M41.72 5.69h-7.17a.44.44 0 1 1 0-.89h7.17a.44.44 0 0 1 0 .89Z"/><path fill="#C7C7C7" d="M10.92 19.6 8.9 17.72l2.02-1.9.3.34-1.65 1.56 1.66 1.55-.31.33Zm56.06-3.06a.4.4 0 1 1-.8 0 .4.4 0 0 1 .8 0Zm0 1.41a.4.4 0 1 1-.8 0 .4.4 0 0 1 .8 0Zm0 1.41a.4.4 0 1 1-.8 0 .4.4 0 0 1 .8 0ZM19.17 6.87l-.11.11-.06.06a1.5 1.5 0 0 0-2.12 0l-.06-.06-.1-.1.13-.13a1.76 1.76 0 0 1 .75-.35c.07 0 .14 0 .21-.03h.33a1.74 1.74 0 0 1 .9.4l.11.1h.02Z"/><path fill="#C7C7C7" d="m17.23 7.39-.17-.17a1.25 1.25 0 0 1 1.76 0l-.17.17a1 1 0 0 0-1.42 0Z"/><path fill="#C7C7C7" d="m18.47 7.57-.17.17a.5.5 0 0 0-.37-.16.52.52 0 0 0-.38.16l-.17-.17a.75.75 0 0 1 1.1 0Z"/><path fill="#C7C7C7" d="M18.1 7.9a.16.16 0 0 1-.22.14.15.15 0 0 1-.1-.15.15.15 0 0 1 .16-.15.15.15 0 0 1 .16.15Zm-9.64-.7a.45.45 0 1 1 .9 0 .45.45 0 0 1-.9 0Zm1.42 0a.45.45 0 1 1 .91 0 .45.45 0 0 1-.9 0Zm1.42 0a.45.45 0 1 1 .91 0 .45.45 0 0 1-.9 0Zm1.43 0a.45.45 0 1 1 .91 0 .45.45 0 0 1-.9 0Zm1.43 0a.45.45 0 1 1 .9 0 .45.45 0 0 1-.9 0Zm52.99 1h-3.69V6.48h3.69V8.2Zm-3.5-.2h3.3V6.68h-3.3V8Z"/><path fill="#C7C7C7" d="M66.14 6.78h-2.37V7.9h2.37V6.78Zm1.34.1h-.33v.91h.33v-.9Z"/><path fill="#EBEBEB" d="M12.7 132.74h-.33v1.53h-.62v-.78h-1.1v.78h-.63v-1.53h-.33l1.5-1.56 1.51 1.56Zm54.03-1.56H63.1v.52h3.63v-.52Zm0 1.29H63.1v.52h3.63v-.52Zm0 1.28H63.1v.53h3.63v-.53Zm-27.45-.97-1.04 1.1-1.03-1.1.18-.17.85.9.86-.9.18.17Z"/><path fill="#EBEBEB" d="M38.24 135.03a1.88 1.88 0 1 1 0-3.76 1.88 1.88 0 0 1 0 3.76Zm0-3.51a1.63 1.63 0 1 0 0 3.26 1.63 1.63 0 0 0 0-3.26Z"/><path fill="#DBDBDB" d="M33.9 123.3a.95.95 0 1 1-1.9 0 .95.95 0 0 1 1.9 0Z"/><path fill="#FFC727" d="M39.67 123.3a1.43 1.43 0 1 1-2.87 0 1.43 1.43 0 0 1 2.87 0Z"/><path fill="#DBDBDB" d="M44.49 123.3a.95.95 0 1 1-1.9 0 .95.95 0 0 1 1.9 0Z"/><path fill="#EBEBEB" d="M40.3 117.18h-4.24v-4.32h4.24v4.32Zm-3.86-.38h3.48v-3.56h-3.48v3.56Z"/><path fill="#EBEBEB" d="m36.38 112.92-.27.27 3.86 3.94.27-.26-3.86-3.95Z"/><path fill="#EBEBEB" d="m39.97 112.93-3.85 3.94.26.26 3.86-3.94-.27-.26ZM52 35H24V20h28v15Zm-27.63-.2h27.26V20.2H24.37v14.6Z"/><path fill="#EBEBEB" d="m24.32 19.8-.26.14 27.88 15.03.27-.15L24.32 19.8Z"/><path fill="#EBEBEB" d="M51.94 19.8 24.06 34.83l.26.14 27.89-15.02-.27-.15Zm-38.7 88.64c4.15-.08 8.3-.1 12.45-.14l12.45-.04 12.45.04 6.22.05 6.22.1-6.22.08-6.22.06-12.45.04-12.45-.03c-4.15-.04-8.3-.08-12.45-.16Zm48.21-39.51H12.97v3.84h48.48v-3.84Zm0-20H12.97v3.84h48.48v-3.84Zm0 40H12.97v3.84h48.48v-3.84Zm0-24.93H12.97v3.85h48.48V64Zm0-20H12.97v3.85h48.48V44Zm0 40H12.97v3.85h48.48V84Zm0-4.77H12.97v3.84h48.48v-3.84Zm0-20H12.97v3.84h48.48v-3.84Zm0 40H12.97v3.84h48.48v-3.84Zm0-25.23H12.97v3.85h48.48V74Zm0-20H12.97v3.85h48.48V54Zm0 40H12.97v3.85h48.48V94Z"/></svg>