<svg xmlns="http://www.w3.org/2000/svg" width="132" height="183" fill="none"><path fill="#37474F" d="M26.74 159.05c.79-.12 1.62 0 2.43-.06a18.59 18.59 0 0 0 7.09-1.8 9.77 9.77 0 0 0 3.47-3.2c.5-.71 2.84-4.52 2.84-4.55 0-.03.25 0 .23.1-.17.54-1.76 3.9-2.23 4.73a9.47 9.47 0 0 1-3.61 3.8 14.8 14.8 0 0 1-5.07 1.55c-.9.12-1.82.16-2.73.12-.86.02-1.7-.12-2.51-.42-.1-.08-.02-.25.1-.27Zm32.69 14.32a65.26 65.26 0 0 0-10.54 4.22c-.13.06-.06.27.08.21 3.55-1.3 7.16-2.52 10.62-4.01a.23.23 0 0 0-.01-.4.23.23 0 0 0-.15-.02Zm2.4-23.69c0-.13-.2-.16-.21 0-.22 3.85-.64 7.7-1.25 11.5-.25 1.78-2.22 11.54-5.27 10.66-.52-.15-.75-.67-.8-1.46.08-1.02.27-2.03.59-3 .45-2.04.84-4.1 1.13-6.17a56.46 56.46 0 0 0 .5-11.75.11.11 0 0 0-.04-.03.1.1 0 0 0-.04-.01.1.1 0 0 0-.05.01.11.11 0 0 0-.04.03.11.11 0 0 0-.02.05 107.19 107.19 0 0 1-1.8 16.1c-.51 2.53-2.02 6.32.64 6.86s4.82-5.82 5.25-7.58a58.66 58.66 0 0 0 1.41-15.21Z"/><path fill="#37474F" d="M55.2 172.1a15.2 15.2 0 0 0-.81 2.02 4.6 4.6 0 0 0-.4 1.66l.04.06c.01.02.03.03.06.03.02.01.04.01.07 0a5.68 5.68 0 0 0 .86-1.63c.27-.62.55-1.23.8-1.9a.35.35 0 0 0-.63-.23Zm15.03-13c-.24-.16-.5-.3-.78-.42-.29-.19-.56-.4-.81-.64a9.92 9.92 0 0 1-1.5-2 14.03 14.03 0 0 1-1.2-3.26c-.18-.69-.95-4.24-.95-4.27 0-.03-.18 0-.18.1.14 1.47.38 2.92.7 4.36a13.8 13.8 0 0 0 1.4 3.66c.4.8.97 1.53 1.66 2.12.26.22.55.4.87.53.27.1.56.22.8 0 .06.02.03-.14-.01-.17Z"/><path fill="#EB9481" d="M49.3 90.43c10.53 21.53 22.32 41.57 30.32 42.2 1.4.1 9.08-.85 11.5-6.02 4.08-8.7 8.18-26.17 8.93-34.51.33-3.7-24.46-8.12-25.33-4.24-1.2 5.42-1.3 9.7-1.9 9.61-.94-.13-6.34-6.63-15.97-14.86-13.22-11.35-11.04.69-7.55 7.82Z"/><path fill="#EB9481" d="M103.97 82.2c-.77 5.2-6.52 15.17-8.83 17.06-2.31 1.9-19.64-7.3-20.16-10.32-.52-3 3.44-20.3 7.36-23.95 3.92-3.65 22.43 11.84 21.63 17.22Z"/><path fill="#EB9481" d="M75.13 85.9a43.4 43.4 0 0 0-4.7-11.76c-2.68-4.29-7.17-10.35-4.91-11.88 4.62-3.15 15.79 11.97 15.79 11.97s3.85 7.47-.45 10.99a5.52 5.52 0 0 1-5.73.68Z"/><path fill="#FFC727" d="m85.8 75.23 4.97-3.37-9.76-14.4-6.29 4.27 11.08 13.5Z"/><path fill="#FFC727" d="m74.72 61.73 4.23 5.15 6.86 8.35 4.96-3.37-9.76-14.4-6.29 4.27Z"/><path fill="#000" d="m74.72 61.73 4.23 5.15 5.79-3.92-3.73-5.5-6.29 4.27Z" opacity=".1"/><path fill="#FFC727" d="m75.57 64.25 7.83-5.3L79.37 53l-7.83 5.3 4.03 5.95ZM64.84 59.7l6.49-3.52-6.52-9.62-5.68 4.73 5.7 8.4Z"/><path fill="#FFC727" d="m66.64 42.53 9.63 14.2 11.03-5.7 29.62-7.35L93.8 9.59 76 34.39l-9.37 8.14Z"/><path fill="#FFC727" d="M117.53 43.39c3.04-2.07.3-11.4-6.1-20.87C105 13.06 97.33 7.06 94.3 9.12c-3.04 2.07-.3 11.4 6.1 20.87 6.42 9.46 14.09 15.46 17.13 13.4Z"/><path fill="#000" d="M101.5 28.83c5.68 8.4 12.31 13.83 14.81 12.15 2.5-1.7-.1-9.87-5.8-18.27S98.2 8.88 95.7 10.57c-2.5 1.68.1 9.86 5.8 18.26Z" opacity=".2"/><path fill="#FFC727" d="M102.23 28.33a62.8 62.8 0 0 0 2.31 3.19 4.11 4.11 0 0 0 3.8-6.4l-1.1-1.62a4.11 4.11 0 0 0-7.3 1.08 41.5 41.5 0 0 0 2.3 3.75ZM71.3 61.25l12.55-6.8-12.62-18.6-10.95 9.14L71.3 61.25Z"/><path fill="#000" d="m71.3 61.25 12.55-6.8-12.62-18.6-10.95 9.14L71.3 61.25Zm22.5-48.22c-.12 1.55.04 3.11.48 4.6.4 1.5.93 2.98 1.57 4.4.3.71.66 1.4 1 2.1a52.77 52.77 0 0 0 2.32 4.04c.42.65.83 1.3 1.27 1.95a51.71 51.71 0 0 0 5.88 7.2c1.1 1.1 2.29 2.1 3.56 3 1.26.93 2.7 1.57 4.23 1.9-1.5-.4-2.89-1.1-4.1-2.06a26.5 26.5 0 0 1-3.45-3.07 53.54 53.54 0 0 1-5.75-7.22 55.5 55.5 0 0 1-4.65-7.98 30.32 30.32 0 0 1-1.67-4.34 13.27 13.27 0 0 1-.7-4.52Z" opacity=".2"/><path fill="#263238" d="M105.86 3.73c-.5.95-.95 1.9-1.4 2.91l-1.25 2.95c-.41.99-.8 1.99-1.17 3l-.54 1.51c-.17.51-.35 1.01-.5 1.54l.72-1.44.67-1.47c.45-.95.86-1.96 1.26-2.95a81.41 81.41 0 0 0 2.21-6.05Zm7.36 31.1c1.2-.21 2.38-.46 3.56-.72 1.17-.27 2.36-.55 3.52-.84 1.17-.28 2.34-.61 3.5-.95l1.74-.5c.57-.2 1.16-.37 1.73-.57-.6.1-1.2.22-1.78.33l-1.78.38a105.5 105.5 0 0 0-7.02 1.8c-1.15.34-2.3.63-3.47 1.07Zm18.58-12.99c-1.67.6-3.33 1.24-4.98 1.9a313.4 313.4 0 0 0-9.82 4.14l-2.42 1.1c-.8.38-1.61.75-2.4 1.15.83-.3 1.66-.63 2.5-.95l2.48-.95c1.65-.64 3.28-1.33 4.92-2.02 1.64-.69 3.27-1.38 4.88-2.12 1.61-.74 3.25-1.47 4.85-2.25ZM115.05 0c-1 1.52-1.9 3.05-2.84 4.59-.95 1.53-1.85 3.1-2.75 4.65-.9 1.55-1.79 3.13-2.65 4.74l-1.3 2.37c-.4.8-.83 1.59-1.23 2.4.5-.75.94-1.52 1.45-2.28l1.4-2.3a202.72 202.72 0 0 0 5.4-9.39c.86-1.61 1.7-3.12 2.52-4.78Zm-6.35 24.16c1.77-1.1 3.5-2.24 5.23-3.4 1.73-1.15 3.44-2.34 5.16-3.5 1.71-1.17 3.41-2.4 5.1-3.6l2.52-1.83c.83-.63 1.67-1.24 2.5-1.9-.9.55-1.75 1.12-2.64 1.68l-2.6 1.72c-1.72 1.15-3.43 2.33-5.16 3.5a264.31 264.31 0 0 0-10.11 7.33Z"/><path fill="#EB9481" d="M77.43 71.84c1.08 2.57 3.49-.17 3.49-.17s-2.52 4.74-.39 7c2.13 2.25 4.85-1.28 5.06-1.51-.13.24-2.34 4.73 0 6.7 2.34 1.98 4.7-1.81 4.83-2.07-.04.28-.63 3.97 1.52 5.09 3.7 1.9 5.44-7.48 8.3-9.27 0 0 3.58 4.5 3.7 4.6.13.12 1.85-8.91-.77-12.63a2.9 2.9 0 0 0-3.49-1.05s.95-2.84-.9-4.44c-.95-.85-3.1-.1-3.1-.1a3.65 3.65 0 0 0-1.08-3.64c-1.35-1.09-3.32-.17-3.32-.17s-.41-2.47-2.15-3.12c-3.51-1.39-14 9.28-11.7 14.78Z"/><path fill="#263238" d="M90.95 60.28v-.06a25.85 25.85 0 0 0-10.18 11.56c-.07.15.15.33.25.16a53.32 53.32 0 0 1 9.93-11.66Zm4.77 3.64c.05 0 0-.12-.07-.08a24.25 24.25 0 0 0-10.29 13.33c-.05.2.1.42.17.2 1.38-3.7 6.52-10.33 10.2-13.45ZM90.47 82.2c1.73-5.38 5.03-9.67 9.04-13.58.06-.06 0-.13-.07-.1-2.5 1.39-4.79 4.15-6.4 6.46a14.88 14.88 0 0 0-2.76 7.17c0 .12.15.19.2.06Z"/><path fill="#263238" d="M80.81 71.7c-.07.18.29.1.21.27-.3.8-1.66 5.69-.14 6.64 1.22.78 3.14-.3 3.7-1.02L86 75.81l-.72 2.17c-.33.96-.5 1.96-.5 2.98a3.35 3.35 0 0 0 .94 2.55 1.9 1.9 0 0 0 2.4.23c.8-.55 1.45-1.3 1.89-2.18l1.28-2.39-.43 2.67a8.78 8.78 0 0 0-.08 2.23c.04.71.29 1.4.71 1.97a1.7 1.7 0 0 0 1.7.58 3.8 3.8 0 0 0 1.7-1.29 30.11 30.11 0 0 0 2.53-3.95c.4-.68.8-1.37 1.23-2.03.4-.7.93-1.3 1.58-1.78a5.95 5.95 0 0 0-1.4 1.9c-.37.69-.71 1.4-1.05 2.11a25.78 25.78 0 0 1-2.38 4.17 4.4 4.4 0 0 1-1.97 1.61 2.43 2.43 0 0 1-2.56-.77 4.43 4.43 0 0 1-.95-2.41 9.1 9.1 0 0 1 .05-2.5l.85.28a6.63 6.63 0 0 1-2.2 2.6c-.54.36-1.19.51-1.83.44a3.15 3.15 0 0 1-1.67-.8 4.2 4.2 0 0 1-1.23-3.22c.02-1.12.22-2.23.6-3.27l.71.38c-.75.88-2.75 2.34-4.8 1.36-2.46-1.65-.09-6.83.4-7.75Z"/><path fill="#263238" d="M80.9 71.67a5.6 5.6 0 0 1-1.49.82 1.3 1.3 0 0 1-1.29-.2 2.57 2.57 0 0 1-.65-1.35c-.12-.54-.23-1.13-.3-1.73a4.54 4.54 0 0 0-.13 2.84c.13.32.32.62.56.87a1.78 1.78 0 0 0 2.05.18 2.96 2.96 0 0 0 1.26-1.43Z"/><path fill="#FFC727" d="M103.97 98.92 74.72 86.95s-1.73 9.77-2.08 9.81c-.35.05-8.76-9.96-18.68-16.84-10.22-7.09-9 2.36-5.69 10.23 3.6 8.61 20.96 40.37 29.09 42.93 6.89 2.17 13.34-3.4 14.95-6.24 2.18-3.89 11.66-27.92 11.66-27.92Z"/><path fill="#263238" d="M100.02 102.4c-.94-.54-10.09-4.12-12.09-4.86l-6-2.2c-2.07-.76-4.15-1.63-6.27-2.22-.1 0-.15.1-.07.15 1.98.94 4.1 1.7 6.15 2.5l6.07 2.4c2.03.8 11.13 4.15 12.18 4.37.09.02.1-.1.03-.14ZM72.7 96.8a79.62 79.62 0 0 0-.65 14.35c.06 1.58.22 3.17.47 4.74v-4.8l.08-4.78.06-4.8v-2.4c.03-.7.03-1.5.03-2.3Z"/><path fill="#000" d="M85.79 132.32a11.51 11.51 0 0 1-8.46.75c-8.13-2.57-25.5-34.32-29.09-42.92-2.54-6.12-3.85-13.18.48-12.72 7.26 10.67 26.01 38.5 37.07 54.89Z" opacity=".1"/><path fill="#EBEBEB" d="m11.9 154.92 59.2-3.44c.82-.95-13.75-63.87-20.74-72.62-1.5-1.9-9.9-4.62-15.93.21-11.36 9.1-23.09 75.23-22.53 75.85Z"/><path fill="#FFC727" d="M35.26 77.4S40.9 99.18 42 106.76c1.1 7.58.55 69.95.55 69.95l-33.7 6.22s5.24-46.62 5.32-48.33c0 0 5.99-33.82 12.98-47.23 5.15-9.84 8.11-9.99 8.11-9.99Zm14.36.4s5.68 23.24 6.18 25.7c.49 2.46 9.31 71.76 9.31 71.76l12.37 2-8.13-45.97S56 81.48 49.62 77.8Z"/><path fill="#EB9481" d="M26.55 84.84C16.07 97.51 3.98 117.5 2.1 126.04c-1.31 6 7.97 32.67 11.38 39.35 1.47 2.89 23.98-5.83 23.3-9.22-.82-4.07-12.37-29.31-11.66-30.14.71-.84 5.88-23.52 8.8-37.08 3.2-14.87-3.26-9.07-7.37-4.1Z"/><path fill="#FFC727" d="m11.1 164.6 26.8-13.65s-11.27-21.48-11.3-23.2c-.08-2.79 6-26.75 8.15-36.97 2.14-10.21 1.85-20.3-10.42-4.87C12.05 101.34 1.19 121.5.03 127.52c-.79 4.22 11.07 37.07 11.07 37.07Z"/><path fill="#37474F" d="M9.92 157c.9-.64 4.68-2.57 5.56-3.03l5.78-3.03c1.9-.95 3.84-2 5.78-2.98 1.93-.97 3.79-2 5.79-2.84h.05c.01.01.03.02.03.04l.01.05c0 .02-.01.03-.03.04-1.77 1.24-15.02 8.36-16.98 9.29a79.7 79.7 0 0 1-5.94 2.58c-.06-.05-.1-.05-.05-.13Z"/><path fill="#37474F" d="m34.79 152.56 3.1-1.72-.05.16c-4.08-7.48-8.31-14.94-11.59-22.82-.1-.8-.02-1.6.2-2.35 1.85-9.07 4.08-18 6.53-26.93-.9 4.53-1.85 9.05-2.84 13.56-1 5.06-2.34 10.1-3.07 15.17 1.2 3.73 3.25 7.25 4.9 10.8.08.14 6.02 12.4 6.1 12.57l-.1.06-3.22 1.5h.04Z"/><path fill="#37474F" d="M31.72 104.3c.64-1.28 1.2-2.61 1.65-3.97a4.39 4.39 0 0 1-1.65 3.97Zm-19.05 61.9c5.03.22 9.8-2 14.34-3.92 3.91-1.9 8.03-3.65 11.15-6.73.45-.44.8-.97 1.02-1.55a3.85 3.85 0 0 1-.82 1.7c-4.35 5.5-18.74 12.04-25.69 10.5Z"/><path fill="#EB9481" d="M47.91 86c-3.04.95-9.79-2.14-12.32-6.39-.17-.3.15-3.46.37-7.32.12-2.35.2-4.95.1-7.34 0-.5 15.16 3 15.16 3a38.2 38.2 0 0 0-1.06 9.23c.02.32.07.64.14.95v.16c.35 1.87.86 6.65-2.39 7.7Z"/><path fill="#263238" d="M50.24 78.15v.16a9.3 9.3 0 0 1-1.52.14c-8.83.18-11.63-10.75-12.2-13.53 2.68.27 14.61 3.02 14.61 3.02a38.32 38.32 0 0 0-1.06 9.24c.03.33.09.65.17.97Zm1.61-40.55s3.66 2.53 5.13 5.49c1.47 2.96.56 9.48.56 9.48l-5.7-14.98Z"/><path fill="#EB9481" d="M32.45 46.46c-1.23 5.42 2.7 20.53 6.74 23.7C45.02 74.7 54 74.5 57.72 67.61c3.61-6.63-1.9-26.27-6.31-29.06-6.55-4.14-17.15-.11-18.96 7.9Z"/><path fill="#263238" d="M46.31 54.97s-.07.07-.06.12c.3 1 .46 2.21-.37 2.78v.06c1.1-.45.87-2.05.43-2.96Z"/><path fill="#263238" d="M45.13 54.14c-1.67.3-.95 3.62.58 3.34 1.54-.27.82-3.59-.58-3.34Zm7.23-.51s.1 0 .1.07c.2 1.04.58 2.2 1.58 2.33v.07c-1.16.08-1.66-1.46-1.68-2.47Z"/><path fill="#263238" d="M53.05 52.36c1.63-.48 2.46 2.84.95 3.26-1.52.41-2.32-2.86-.95-3.26Zm-9.56.54c.42-.2.78-.48 1.2-.72.4-.25.83-.47 1.06-.95a.72.72 0 0 0-.3-.83 1.8 1.8 0 0 0-1.8.2c-.57.3-1 .81-1.22 1.42a.77.77 0 0 0 1.06.89Zm10.49-2.49c-.49 0-.95 0-1.4-.05-.49.04-.99-.07-1.4-.33a.73.73 0 0 1-.15-.88 1.8 1.8 0 0 1 1.67-.69 2.6 2.6 0 0 1 1.76.64.77.77 0 0 1-.48 1.31Zm-6.46 14c.3.19.62.47 1 .42.38-.09.74-.25 1.05-.5 0 0 .08 0 .06.05a1.42 1.42 0 0 1-1.19.84 1.12 1.12 0 0 1-1-.74s.05-.1.08-.07Z"/><path fill="#263238" d="M47.95 61.1a3.63 3.63 0 0 0 2.67 1.06c.43 0 .86-.08 1.27-.21l.24-.08.22-.08a.26.26 0 0 0 .15-.28v-.2c-.14-.8-.48-1.98-.48-1.98.32.08 1.94.43 1.82 0-.87-3.55-2.1-7-3.68-10.29-.05-.1-.22 0-.18.07.77 3.28 2.11 6.41 2.95 9.7a6.46 6.46 0 0 0-1.77-.15c-.1.06.7 2.28.73 2.65a4.97 4.97 0 0 1-3.86-.35c-.1 0-.16.08-.08.14Z"/><path fill="#263238" d="M51.34 61.64c-.32.65-.8 1.2-1.39 1.61a1.9 1.9 0 0 1-1.12.32c-.87 0-1.05-.79-1.03-1.47 0-.36.06-.72.15-1.06a5.5 5.5 0 0 0 3.4.6Z"/><path fill="#FF9BBC" d="M49.95 63.25a1.9 1.9 0 0 1-1.12.32c-.87 0-1.05-.79-1.03-1.47a1.97 1.97 0 0 1 2.15 1.15Z"/><path fill="#263238" d="M34.49 59.46c2.84-.5 1.77-5.45 1.77-5.45s5.53-1.97 4.74-9.48c0 0 8.79 1.29 12.24-3.8 3.45-5.07-9.91-13.46-21.19-.94 0 0-6.04 2.28-6.02 7.58.02 5.3 4.97 12.71 8.46 12.1Z"/><path fill="#263238" d="M40.62 43.77c0-.07-.17 0-.13.07 1.9 4.74-.41 9.75-5.68 10.42a.14.14 0 0 0-.08.23l.08.05c5.32-.15 9.1-6.21 5.8-10.77ZM43.4 33.3c1.8-.16 3.63-.05 5.4.32 2.64.68 6.37 3.04 5.23 6.3-1.56 4.46-7.83 4.52-11.73 4.28a.2.2 0 0 0-.07.4c4.05.94 11.9-.07 12.54-5.3.72-5.75-7.5-6.64-11.37-6Z"/><path fill="#EB9481" d="M37.26 58.83s-3.92-4.62-6.05-3.18c-2.14 1.44 1.15 8.37 3.87 9.1a2.7 2.7 0 0 0 3.5-1.78l-1.32-4.14Z"/><path fill="#263238" d="M32.2 57.62v.07c1.9.57 3.05 2.2 3.9 3.9a1.48 1.48 0 0 0-2.26-.23c-.05 0 0 .11.06.1a1.65 1.65 0 0 1 1.9.4c.37.43.7.9.98 1.4.1.15.39 0 .3-.15-.19-2.38-2.3-5.5-4.88-5.5Z"/><path fill="#EBEBEB" d="m50.12 77-3.56 8.7-10.78-11.07-3.1 3.52S43.17 95.78 43.23 95l3.66-7.5 5.15 5.26-.33-13.14-1.6-2.61Z"/><path fill="#263238" d="M52.26 86.2c-.13-2.16-.2-4.35-.42-6.51 0-.09-.13-.12-.15 0-.45 2.1.08 10.42.06 12.37-.2-.23-4.74-4.63-4.82-4.57-.8 1.2-3.47 6.64-3.66 7.16a359.93 359.93 0 0 0-10.72-16.53.08.08 0 0 0-.1.05c0 .02 0 .04.02.06 1.46 2.95 10.56 17.52 10.7 17.48a85.7 85.7 0 0 0 3.79-7.93c.76.95 5.37 5.94 5.39 5.62.1-2.4.07-4.8-.09-7.2Z"/><path fill="#263238" d="M44.92 91.8 47 87.6l3.45 3.29-.95 3.04-3.2.27-1.38-2.38Z"/><path fill="#263238" d="m46.3 94.19-.97 36.29 6.92 12.61 4.49-12.88-7.24-36.29-3.2.27Z"/></svg>